<?xml version="1.0" encoding="UTF-8" ?>
<!DOCTYPE svg PUBLIC "-//W3C//DTD SVG 1.1//EN" "http://www.w3.org/Graphics/SVG/1.1/DTD/svg11.dtd">
<svg width="960pt" height="540pt" viewBox="0 0 960 540" version="1.1" xmlns="http://www.w3.org/2000/svg">
<path fill="#1c1e1f" opacity="1.00" d=" M 523.03 56.83 C 524.37 56.59 525.69 56.30 527.04 56.05 C 527.72 57.02 527.77 58.31 528.70 59.15 C 528.46 59.13 527.98 59.10 527.74 59.09 C 527.11 60.33 526.91 61.84 525.94 62.88 C 518.12 69.78 510.06 76.68 503.89 85.16 C 504.21 83.27 504.54 81.39 505.08 79.55 C 510.09 74.36 514.33 68.36 519.99 63.85 C 522.69 62.16 525.26 59.94 526.69 57.07 C 525.49 56.69 524.27 56.61 523.03 56.83 Z" />
<path fill="#393a3b" opacity="1.00" d=" M 505.84 67.04 C 509.85 61.43 516.72 58.90 523.03 56.83 C 524.27 56.61 525.49 56.69 526.69 57.07 C 525.26 59.94 522.69 62.16 519.99 63.85 C 515.08 62.44 510.38 65.55 505.84 67.04 Z" />
<path fill="#4f5051" opacity="1.00" d=" M 527.74 59.09 C 527.98 59.10 528.46 59.13 528.70 59.15 C 530.10 59.21 531.36 59.88 532.66 60.38 C 541.35 64.00 550.07 67.58 558.89 70.88 C 557.53 72.88 556.15 74.86 554.78 76.85 C 554.33 76.41 553.89 75.99 553.44 75.57 C 545.12 70.13 535.62 66.77 525.96 64.61 C 524.44 66.18 523.03 67.85 521.77 69.62 C 531.21 73.27 540.43 77.50 549.92 81.04 C 545.83 87.61 539.15 92.51 536.49 99.92 C 533.66 102.08 534.69 105.92 535.73 108.76 C 537.47 112.98 538.88 117.33 539.91 121.79 C 542.07 119.54 544.12 117.19 546.03 114.74 C 545.89 116.93 545.80 119.15 546.08 121.35 L 545.83 121.70 C 543.35 124.58 540.74 127.38 537.78 129.78 C 536.22 127.80 538.32 126.56 539.57 125.29 C 539.11 125.07 538.19 124.64 537.73 124.42 C 537.61 124.17 537.36 123.67 537.23 123.42 C 537.27 123.09 537.35 122.42 537.39 122.08 C 535.94 120.05 534.30 118.17 532.72 116.25 C 531.08 116.28 529.34 116.84 527.76 116.26 C 526.69 114.91 525.98 113.32 525.20 111.81 L 525.16 113.05 C 522.64 110.25 520.21 107.34 517.20 105.05 C 516.00 104.07 514.81 103.07 513.66 102.04 C 511.78 100.24 509.48 97.66 506.69 99.40 L 506.23 99.54 C 504.36 98.69 502.43 98.01 500.49 97.38 C 500.22 96.49 499.96 95.60 499.71 94.72 C 499.07 94.62 498.45 94.52 497.82 94.43 C 496.56 91.87 493.83 91.52 491.29 91.28 C 490.64 90.36 489.99 89.45 489.35 88.53 C 492.87 85.94 496.59 83.63 500.20 81.15 C 501.61 80.09 503.35 79.71 505.08 79.55 C 504.54 81.39 504.21 83.27 503.89 85.16 C 510.06 76.68 518.12 69.78 525.94 62.88 C 526.91 61.84 527.11 60.33 527.74 59.09 M 526.26 76.22 C 524.66 77.17 525.99 79.26 527.26 79.71 C 531.57 81.23 535.71 83.16 539.98 84.77 C 540.65 81.25 536.58 78.67 533.77 77.29 C 531.49 76.59 528.34 74.51 526.26 76.22 Z" />
<path fill="#616263" opacity="1.00" d=" M 505.84 67.04 C 510.38 65.55 515.08 62.44 519.99 63.85 C 514.33 68.36 510.09 74.36 505.08 79.55 C 503.35 79.71 501.61 80.09 500.20 81.15 C 496.59 83.63 492.87 85.94 489.35 88.53 C 489.99 89.45 490.64 90.36 491.29 91.28 C 488.89 92.04 486.52 92.86 484.20 93.83 C 483.87 93.25 483.20 92.09 482.87 91.51 C 490.45 83.29 497.90 74.91 505.84 67.04 Z" />
<path fill="#060a0e" opacity="1.00" d=" M 521.77 69.62 C 523.03 67.85 524.44 66.18 525.96 64.61 C 535.62 66.77 545.12 70.13 553.44 75.57 C 552.28 77.41 551.11 79.23 549.92 81.04 C 540.43 77.50 531.21 73.27 521.77 69.62 Z" />
<path fill="#303133" opacity="1.00" d=" M 558.89 70.88 C 559.20 70.43 559.81 69.53 560.11 69.09 C 561.61 70.85 563.14 72.59 564.76 74.26 L 564.68 74.38 C 564.24 75.06 563.80 75.74 563.38 76.42 C 567.46 79.80 566.39 85.39 566.83 90.03 C 567.49 89.66 568.79 88.90 569.44 88.53 C 569.34 89.17 569.14 90.44 569.03 91.08 C 562.63 98.06 557.62 106.16 551.54 113.40 C 549.39 115.69 550.32 119.03 550.15 121.86 C 548.70 121.82 547.26 121.77 545.83 121.70 L 546.08 121.35 C 547.73 119.02 546.68 115.77 548.63 113.61 C 553.95 106.68 559.46 99.90 564.70 92.92 C 564.55 91.78 564.52 90.65 564.52 89.51 C 564.37 88.90 564.09 87.70 563.95 87.09 C 562.87 88.04 561.75 87.80 560.67 87.02 C 560.02 83.04 556.85 80.14 554.78 76.85 C 556.15 74.86 557.53 72.88 558.89 70.88 Z" />
<path fill="#1c1d1e" opacity="1.00" d=" M 441.91 77.17 C 442.66 74.43 444.18 71.47 446.95 70.37 C 448.86 70.83 449.45 72.88 450.19 74.43 C 451.37 74.27 452.56 74.25 453.75 74.38 C 451.51 75.19 449.14 75.49 446.81 75.93 C 448.06 72.44 442.30 74.26 445.08 76.33 C 444.01 76.58 442.96 76.86 441.91 77.17 Z" />
<path fill="#0e0e0e" opacity="0.56" d=" M 445.08 76.33 C 442.30 74.26 448.06 72.44 446.81 75.93 C 446.38 76.03 445.52 76.23 445.08 76.33 Z" />
<path fill="#4c4d4e" opacity="1.00" d=" M 453.75 74.38 C 455.40 73.65 457.24 73.54 459.01 73.87 C 461.99 74.38 465.15 74.06 467.94 75.43 C 472.13 77.30 474.77 81.37 476.63 85.40 C 475.38 86.50 474.49 87.89 473.88 89.43 C 472.88 90.05 471.88 90.65 470.87 91.23 C 462.01 93.47 453.25 96.12 444.34 98.15 C 440.64 98.22 437.07 99.20 433.61 100.44 C 432.45 98.50 431.24 96.59 429.99 94.71 C 428.96 105.19 430.17 116.10 434.60 125.73 C 434.38 126.14 433.94 126.97 433.71 127.38 C 428.98 116.35 427.27 103.92 429.05 92.04 C 429.74 86.85 433.21 82.27 437.97 80.12 C 438.98 81.04 440.00 81.96 441.06 82.85 C 438.57 83.00 435.71 83.02 434.02 85.18 C 434.49 87.46 435.09 89.73 434.98 92.09 C 435.22 97.36 444.58 97.24 443.82 91.79 C 443.85 90.46 443.81 89.14 443.83 87.82 C 442.83 89.04 442.03 90.49 440.73 91.40 C 439.39 91.58 438.04 91.47 436.70 91.41 C 436.57 90.85 436.32 89.73 436.19 89.17 C 436.65 88.51 437.11 87.85 437.59 87.19 C 437.18 86.73 436.35 85.82 435.94 85.36 C 438.94 84.32 442.29 83.82 445.34 84.95 C 448.21 85.92 451.63 87.37 454.38 85.31 C 457.29 82.72 459.35 79.26 460.55 75.57 C 453.77 76.44 447.45 79.79 440.53 79.64 C 440.23 79.35 439.64 78.77 439.34 78.49 C 439.98 78.16 441.27 77.50 441.91 77.17 C 442.96 76.86 444.01 76.58 445.08 76.33 C 445.52 76.23 446.38 76.03 446.81 75.93 C 449.14 75.49 451.51 75.19 453.75 74.38 M 463.63 75.99 L 463.86 77.33 C 460.89 78.69 466.12 82.11 467.05 79.86 L 467.72 80.32 C 468.10 79.32 468.50 78.31 468.89 77.31 C 467.32 76.28 465.52 75.70 463.63 75.99 M 460.21 81.16 C 460.75 81.72 460.75 81.72 460.21 81.16 M 461.56 82.81 C 459.23 84.18 463.65 86.85 464.92 85.52 C 465.64 84.47 466.09 83.32 466.30 82.05 C 464.73 81.40 461.01 79.60 461.56 82.81 M 443.18 85.32 C 443.74 85.79 443.74 85.79 443.18 85.32 M 459.33 87.57 C 459.22 88.59 458.98 90.63 458.87 91.65 C 460.54 91.37 462.22 91.07 463.91 90.75 C 463.94 89.47 465.04 87.13 463.01 86.83 C 461.88 86.19 460.61 86.35 459.46 86.75 C 458.22 84.44 457.05 88.66 459.33 87.57 M 452.18 88.21 C 451.25 89.18 452.33 91.75 453.75 90.78 C 454.71 89.83 453.56 87.30 452.18 88.21 M 448.10 89.18 C 448.07 89.97 448.00 91.55 447.97 92.34 C 449.79 92.08 451.19 90.91 451.21 88.97 C 450.43 89.02 448.88 89.13 448.10 89.18 Z" />
<path fill="#424346" opacity="1.00" d=" M 553.44 75.57 C 553.89 75.99 554.33 76.41 554.78 76.85 C 556.85 80.14 560.02 83.04 560.67 87.02 C 561.75 87.80 562.87 88.04 563.95 87.09 C 564.09 87.70 564.37 88.90 564.52 89.51 C 564.52 90.65 564.55 91.78 564.70 92.92 C 559.46 99.90 553.95 106.68 548.63 113.61 C 546.68 115.77 547.73 119.02 546.08 121.35 C 545.80 119.15 545.89 116.93 546.03 114.74 C 544.12 117.19 542.07 119.54 539.91 121.79 C 538.88 117.33 537.47 112.98 535.73 108.76 C 534.69 105.92 533.66 102.08 536.49 99.92 C 539.15 92.51 545.83 87.61 549.92 81.04 C 551.11 79.23 552.28 77.41 553.44 75.57 Z" />
<path fill="#444549" opacity="1.00" d=" M 563.38 76.42 C 563.80 75.74 564.24 75.06 564.68 74.38 C 567.85 76.68 570.07 79.94 572.63 82.85 C 572.62 84.11 572.59 85.37 572.55 86.63 C 571.49 86.62 570.48 86.65 569.45 86.76 C 570.72 88.32 570.81 89.87 569.03 91.08 C 569.14 90.44 569.34 89.17 569.44 88.53 C 568.79 88.90 567.49 89.66 566.83 90.03 C 566.39 85.39 567.46 79.80 563.38 76.42 Z" />
<path fill="#363838" opacity="1.00" d=" M 440.53 79.64 C 447.45 79.79 453.77 76.44 460.55 75.57 C 459.35 79.26 457.29 82.72 454.38 85.31 C 451.63 87.37 448.21 85.92 445.34 84.95 C 442.29 83.82 438.94 84.32 435.94 85.36 C 436.35 85.82 437.18 86.73 437.59 87.19 C 437.11 87.85 436.65 88.51 436.19 89.17 C 436.32 89.73 436.57 90.85 436.70 91.41 C 438.04 91.47 439.39 91.58 440.73 91.40 C 442.03 90.49 442.83 89.04 443.83 87.82 C 443.81 89.14 443.85 90.46 443.82 91.79 C 442.83 92.65 441.85 93.53 440.87 94.41 C 438.77 94.00 436.76 93.27 434.98 92.09 C 435.09 89.73 434.49 87.46 434.02 85.18 C 435.71 83.02 438.57 83.00 441.06 82.85 C 440.00 81.96 438.98 81.04 437.97 80.12 C 438.26 79.66 438.84 78.74 439.13 78.28 L 439.34 78.49 C 439.64 78.77 440.23 79.35 440.53 79.64 M 446.00 81.13 C 445.08 81.27 444.36 81.72 443.85 82.48 C 448.61 81.20 453.88 81.02 458.12 78.33 C 453.99 78.84 450.03 80.16 446.00 81.13 Z" />
<path fill="#d84f47" opacity="1.00" d=" M 463.63 75.99 C 465.52 75.70 467.32 76.28 468.89 77.31 C 468.50 78.31 468.10 79.32 467.72 80.32 L 467.05 79.86 C 465.93 79.08 464.83 78.27 463.86 77.33 L 463.63 75.99 Z" />
<path fill="#636466" opacity="1.00" d=" M 526.26 76.22 C 528.34 74.51 531.49 76.59 533.77 77.29 C 536.58 78.67 540.65 81.25 539.98 84.77 C 535.71 83.16 531.57 81.23 527.26 79.71 C 525.99 79.26 524.66 77.17 526.26 76.22 Z" />
<path fill="#a81c20" opacity="1.00" d=" M 467.05 79.86 C 466.12 82.11 460.89 78.69 463.86 77.33 C 464.83 78.27 465.93 79.08 467.05 79.86 Z" />
<path fill="#434446" opacity="1.00" d=" M 446.00 81.13 C 450.03 80.16 453.99 78.84 458.12 78.33 C 453.88 81.02 448.61 81.20 443.85 82.48 C 444.36 81.72 445.08 81.27 446.00 81.13 Z" />
<path fill="#afc7cd" opacity="1.00" d=" M 460.21 81.16 C 460.75 81.72 460.75 81.72 460.21 81.16 Z" />
<path fill="#d94a46" opacity="1.00" d=" M 461.56 82.81 C 461.01 79.60 464.73 81.40 466.30 82.05 C 466.09 83.32 465.64 84.47 464.92 85.52 C 463.85 84.54 462.71 83.66 461.56 82.81 Z" />
<path fill="#b4171d" opacity="1.00" d=" M 464.92 85.52 C 463.65 86.85 459.23 84.18 461.56 82.81 C 462.71 83.66 463.85 84.54 464.92 85.52 Z" />
<path fill="#070707" opacity="0.58" d=" M 572.63 82.85 C 575.34 88.24 571.65 93.93 572.43 99.52 C 569.50 103.20 566.81 107.06 563.58 110.48 C 559.34 115.04 555.86 120.25 551.45 124.65 C 550.27 124.25 549.08 123.85 547.91 123.45 C 544.50 125.63 542.47 129.36 539.00 131.45 C 532.69 132.40 526.24 131.49 519.99 130.39 L 520.77 129.35 C 526.45 129.07 532.12 130.88 537.78 129.78 C 540.74 127.38 543.35 124.58 545.83 121.70 C 547.26 121.77 548.70 121.82 550.15 121.86 L 550.96 121.84 C 557.14 115.03 562.77 107.74 568.87 100.86 C 572.79 97.18 570.73 91.27 572.55 86.63 C 572.59 85.37 572.62 84.11 572.63 82.85 Z" />
<path fill="#141518" opacity="1.00" d=" M 443.18 85.32 C 443.74 85.79 443.74 85.79 443.18 85.32 Z" />
<path fill="#748589" opacity="1.00" d=" M 459.33 87.57 C 457.05 88.66 458.22 84.44 459.46 86.75 L 459.33 87.57 Z" />
<path fill="#d84f47" opacity="1.00" d=" M 459.46 86.75 C 460.61 86.35 461.88 86.19 463.01 86.83 C 465.04 87.13 463.94 89.47 463.91 90.75 C 462.22 91.07 460.54 91.37 458.87 91.65 C 458.98 90.63 459.22 88.59 459.33 87.57 L 459.46 86.75 Z" />
<path fill="#393a3a" opacity="1.00" d=" M 473.88 89.43 C 474.49 87.89 475.38 86.50 476.63 85.40 C 478.14 88.78 479.29 92.34 479.83 96.01 L 479.84 96.72 C 481.48 96.32 483.11 95.91 484.75 95.51 C 487.29 97.68 489.95 99.71 492.72 101.58 C 491.49 102.63 490.28 103.69 489.09 104.79 C 488.72 104.44 487.98 103.76 487.61 103.41 C 487.00 103.91 486.39 104.40 485.79 104.90 C 484.87 103.80 483.93 102.72 482.98 101.66 C 482.58 103.39 482.22 105.15 482.32 106.94 L 481.57 106.07 C 482.30 111.34 481.86 116.63 481.32 121.90 C 481.25 121.32 481.10 120.16 481.03 119.58 C 480.31 118.70 479.52 117.88 478.84 116.99 C 478.12 111.41 479.83 105.69 478.53 100.16 C 477.22 96.48 475.44 92.99 473.88 89.43 Z" />
<path fill="#5a5b5e" opacity="1.00" d=" M 569.45 86.76 C 570.48 86.65 571.49 86.62 572.55 86.63 C 570.73 91.27 572.79 97.18 568.87 100.86 C 562.77 107.74 557.14 115.03 550.96 121.84 L 550.15 121.86 C 550.32 119.03 549.39 115.69 551.54 113.40 C 557.62 106.16 562.63 98.06 569.03 91.08 C 570.81 89.87 570.72 88.32 569.45 86.76 Z" />
<path fill="#7d8187" opacity="1.00" d=" M 452.18 88.21 C 453.56 87.30 454.71 89.83 453.75 90.78 C 452.33 91.75 451.25 89.18 452.18 88.21 Z" />
<path fill="#797d82" opacity="1.00" d=" M 448.10 89.18 C 448.88 89.13 450.43 89.02 451.21 88.97 C 451.19 90.91 449.79 92.08 447.97 92.34 C 448.00 91.55 448.07 89.97 448.10 89.18 Z" />
<path fill="#414244" opacity="1.00" d=" M 470.87 91.23 C 471.88 90.65 472.88 90.05 473.88 89.43 C 475.44 92.99 477.22 96.48 478.53 100.16 C 479.83 105.69 478.12 111.41 478.84 116.99 C 479.52 117.88 480.31 118.70 481.03 119.58 C 478.35 121.06 475.44 122.01 472.41 122.44 C 473.15 121.29 473.92 120.16 474.68 119.02 C 473.43 119.74 472.17 120.47 470.92 121.19 C 469.42 112.71 467.91 104.24 466.01 95.84 C 458.85 97.61 451.45 98.85 444.68 101.86 C 451.30 101.01 457.51 98.39 464.02 97.06 C 465.91 96.46 465.88 98.73 466.21 99.93 C 467.29 106.57 468.51 113.19 469.83 119.79 C 464.96 122.56 459.47 123.78 454.10 125.18 C 450.87 126.12 447.47 127.56 445.81 130.70 C 445.22 131.59 444.12 131.97 443.19 132.42 C 441.97 132.35 440.93 132.70 440.08 133.47 C 439.27 133.47 437.66 133.49 436.85 133.49 C 435.70 131.52 434.33 129.61 433.71 127.38 C 433.94 126.97 434.38 126.14 434.60 125.73 C 435.37 127.31 436.17 128.87 436.98 130.44 C 438.75 129.73 440.53 129.02 442.31 128.30 C 437.06 119.95 434.15 110.27 433.61 100.44 C 437.07 99.20 440.64 98.22 444.34 98.15 C 442.25 98.88 440.19 99.65 438.11 100.38 C 438.36 100.69 438.86 101.31 439.11 101.62 C 450.34 97.90 461.92 95.36 473.14 91.58 C 472.57 91.50 471.43 91.32 470.87 91.23 M 461.35 100.00 C 458.02 101.77 463.43 103.08 462.91 100.27 L 463.58 99.83 C 464.19 98.08 460.48 98.38 461.35 100.00 M 457.13 102.08 L 456.16 101.60 C 455.63 101.81 454.56 102.23 454.03 102.44 L 453.03 102.00 C 453.41 102.89 453.81 103.77 454.20 104.66 C 455.37 104.27 456.53 103.89 457.71 103.50 C 457.66 102.88 457.57 101.64 457.53 101.02 C 457.43 101.28 457.23 101.81 457.13 102.08 M 447.11 105.98 C 448.42 106.17 449.75 106.19 451.09 106.07 L 450.73 104.57 C 450.74 104.18 450.76 103.38 450.76 102.98 L 451.32 101.91 C 449.31 102.05 445.96 103.37 447.11 105.98 M 461.38 107.03 C 460.67 108.85 464.56 108.64 463.75 106.89 C 465.68 104.55 460.45 104.82 461.38 107.03 M 453.96 109.91 C 456.64 110.71 459.40 109.25 458.94 106.20 C 456.19 105.09 453.79 107.05 453.96 109.91 M 447.84 110.98 C 449.17 112.85 451.21 111.20 452.84 110.73 C 452.82 110.06 452.80 108.71 452.78 108.04 C 450.65 107.45 446.79 107.83 447.84 110.98 M 463.32 111.10 C 463.34 114.32 466.47 109.67 463.32 111.10 M 456.28 113.77 C 457.58 114.53 458.42 114.29 458.81 113.06 C 457.51 112.30 456.66 112.54 456.28 113.77 M 449.61 114.35 C 449.68 114.80 449.84 115.71 449.92 116.17 C 451.37 116.45 454.04 116.65 453.56 114.35 L 453.14 114.52 C 451.80 113.76 450.75 114.04 450.00 115.35 C 449.90 115.10 449.70 114.60 449.61 114.35 M 463.08 117.29 L 463.35 117.96 L 462.84 118.73 C 464.07 118.72 465.29 118.69 466.53 118.65 C 466.58 117.48 466.63 116.30 466.68 115.13 C 465.13 115.18 463.56 115.61 463.08 117.29 M 458.13 118.13 L 458.29 119.08 L 459.21 119.47 C 459.91 121.21 462.22 118.25 460.73 117.29 C 460.08 115.58 455.86 117.07 458.13 118.13 M 453.66 120.86 C 453.37 119.30 452.48 119.07 450.98 120.15 C 447.97 122.11 453.92 124.34 453.66 120.86 Z" />
<path fill="#1c1d1e" opacity="1.00" d=" M 444.34 98.15 C 453.25 96.12 462.01 93.47 470.87 91.23 C 471.43 91.32 472.57 91.50 473.14 91.58 C 461.92 95.36 450.34 97.90 439.11 101.62 C 438.86 101.31 438.36 100.69 438.11 100.38 C 440.19 99.65 442.25 98.88 444.34 98.15 Z" />
<path fill="#444648" opacity="1.00" d=" M 491.29 91.28 C 493.83 91.52 496.56 91.87 497.82 94.43 C 498.45 94.52 499.07 94.62 499.71 94.72 C 499.96 95.60 500.22 96.49 500.49 97.38 C 502.43 98.01 504.36 98.69 506.23 99.54 C 505.81 101.55 507.52 103.45 509.58 103.02 C 510.95 102.77 512.31 102.45 513.66 102.04 C 514.81 103.07 516.00 104.07 517.20 105.05 L 515.49 104.89 C 513.15 104.59 510.81 104.33 508.47 104.13 C 508.42 105.17 508.39 106.21 508.37 107.25 C 506.49 106.79 504.60 106.43 502.70 106.17 C 504.58 107.10 506.50 107.92 508.40 108.83 C 508.44 109.14 508.53 109.77 508.58 110.08 C 507.91 110.14 506.58 110.25 505.91 110.30 C 500.80 108.44 496.35 105.28 491.59 102.73 C 494.41 106.10 498.43 108.08 502.24 110.11 C 501.02 110.77 499.81 111.44 498.61 112.11 C 497.90 111.73 497.22 111.33 496.55 110.91 C 494.01 108.93 491.58 106.82 489.09 104.79 C 490.28 103.69 491.49 102.63 492.72 101.58 C 489.95 99.71 487.29 97.68 484.75 95.51 C 483.11 95.91 481.48 96.32 479.84 96.72 L 479.83 96.01 C 480.24 94.17 481.69 92.88 482.87 91.51 C 483.20 92.09 483.87 93.25 484.20 93.83 C 486.52 92.86 488.89 92.04 491.29 91.28 Z" />
<path fill="#636466" opacity="1.00" d=" M 434.98 92.09 C 436.76 93.27 438.77 94.00 440.87 94.41 C 441.85 93.53 442.83 92.65 443.82 91.79 C 444.58 97.24 435.22 97.36 434.98 92.09 Z" />
<path fill="#1c1d1e" opacity="1.00" d=" M 429.99 94.71 C 431.24 96.59 432.45 98.50 433.61 100.44 C 434.15 110.27 437.06 119.95 442.31 128.30 C 440.53 129.02 438.75 129.73 436.98 130.44 C 436.17 128.87 435.37 127.31 434.60 125.73 C 430.17 116.10 428.96 105.19 429.99 94.71 Z" />
<path fill="#1f2022" opacity="0.98" d=" M 444.68 101.86 C 451.45 98.85 458.85 97.61 466.01 95.84 C 467.91 104.24 469.42 112.71 470.92 121.19 C 472.17 120.47 473.43 119.74 474.68 119.02 C 473.92 120.16 473.15 121.29 472.41 122.44 C 475.44 122.01 478.35 121.06 481.03 119.58 C 481.10 120.16 481.25 121.32 481.32 121.90 C 477.78 123.40 474.04 124.47 470.19 124.71 C 471.53 127.23 472.83 130.22 475.71 131.29 C 478.69 132.35 481.48 130.24 483.72 128.52 C 484.09 128.88 484.84 129.61 485.22 129.97 L 486.03 131.48 C 484.22 130.88 483.44 132.50 482.40 133.43 C 481.85 133.72 480.77 134.30 480.22 134.59 C 478.38 134.60 476.54 134.61 474.70 134.63 C 471.92 132.30 470.06 129.15 468.14 126.14 C 463.63 126.27 459.51 128.40 455.03 128.72 C 451.88 129.08 449.06 130.98 445.81 130.70 C 447.47 127.56 450.87 126.12 454.10 125.18 C 459.47 123.78 464.96 122.56 469.83 119.79 C 468.51 113.19 467.29 106.57 466.21 99.93 C 465.88 98.73 465.91 96.46 464.02 97.06 C 457.51 98.39 451.30 101.01 444.68 101.86 Z" />
<path fill="#222223" opacity="1.00" d=" M 461.35 100.00 C 460.48 98.38 464.19 98.08 463.58 99.83 L 462.91 100.27 C 462.52 100.20 461.74 100.07 461.35 100.00 Z" />
<path fill="#c34b47" opacity="1.00" d=" M 506.69 99.40 C 509.48 97.66 511.78 100.24 513.66 102.04 C 512.31 102.45 510.95 102.77 509.58 103.02 C 508.83 101.66 507.88 100.39 506.69 99.40 Z" />
<path fill="#707579" opacity="1.00" d=" M 461.35 100.00 C 461.74 100.07 462.52 100.20 462.91 100.27 C 463.43 103.08 458.02 101.77 461.35 100.00 Z" />
<path fill="#88282a" opacity="1.00" d=" M 506.23 99.54 L 506.69 99.40 C 507.88 100.39 508.83 101.66 509.58 103.02 C 507.52 103.45 505.81 101.55 506.23 99.54 Z" />
<path fill="#18181a" opacity="1.00" d=" M 457.13 102.08 C 457.23 101.81 457.43 101.28 457.53 101.02 C 457.57 101.64 457.66 102.88 457.71 103.50 C 456.53 103.89 455.37 104.27 454.20 104.66 C 453.81 103.77 453.41 102.89 453.03 102.00 L 454.03 102.44 C 454.95 103.00 455.91 103.09 456.92 102.70 L 457.13 102.08 Z" />
<path fill="#292a2b" opacity="1.00" d=" M 447.11 105.98 C 445.96 103.37 449.31 102.05 451.32 101.91 L 450.76 102.98 C 449.70 103.31 448.27 103.61 448.00 104.89 C 448.69 104.81 450.05 104.65 450.73 104.57 L 451.09 106.07 C 449.75 106.19 448.42 106.17 447.11 105.98 Z" />
<path fill="#ffffff" opacity="1.00" d=" M 454.03 102.44 C 454.56 102.23 455.63 101.81 456.16 101.60 L 457.13 102.08 L 456.92 102.70 C 455.91 103.09 454.95 103.00 454.03 102.44 Z" />
<path fill="#2c2c2d" opacity="1.00" d=" M 482.98 101.66 C 483.93 102.72 484.87 103.80 485.79 104.90 C 485.28 106.82 485.51 108.76 487.21 110.08 C 488.10 108.42 488.72 106.63 489.09 104.79 C 491.58 106.82 494.01 108.93 496.55 110.91 C 495.61 112.14 494.69 113.39 493.68 114.56 C 493.34 114.91 492.67 115.61 492.33 115.96 C 492.61 113.27 492.49 110.42 490.16 108.66 C 490.31 110.72 490.52 112.78 490.73 114.84 C 490.31 114.62 489.47 114.18 489.05 113.96 C 486.64 111.78 484.43 109.40 482.32 106.94 C 482.22 105.15 482.58 103.39 482.98 101.66 Z" />
<path fill="#797e83" opacity="1.00" d=" M 448.00 104.89 C 448.27 103.61 449.70 103.31 450.76 102.98 C 450.76 103.38 450.74 104.18 450.73 104.57 C 450.05 104.65 448.69 104.81 448.00 104.89 Z" />
<path fill="#0b0c0d" opacity="1.00" d=" M 485.79 104.90 C 486.39 104.40 487.00 103.91 487.61 103.41 C 487.98 103.76 488.72 104.44 489.09 104.79 C 488.72 106.63 488.10 108.42 487.21 110.08 C 485.51 108.76 485.28 106.82 485.79 104.90 Z" />
<path fill="#6d7074" opacity="1.00" d=" M 491.59 102.73 C 496.35 105.28 500.80 108.44 505.91 110.30 C 508.47 111.35 510.99 112.51 513.47 113.75 L 512.74 114.64 C 509.18 113.26 505.67 111.76 502.24 110.11 C 498.43 108.08 494.41 106.10 491.59 102.73 Z" />
<path fill="#515354" opacity="1.00" d=" M 508.47 104.13 C 510.81 104.33 513.15 104.59 515.49 104.89 C 517.98 107.28 520.59 109.56 522.80 112.24 C 520.50 112.11 518.30 111.38 516.21 110.47 C 515.32 111.59 514.39 112.67 513.47 113.75 C 510.99 112.51 508.47 111.35 505.91 110.30 C 506.58 110.25 507.91 110.14 508.58 110.08 C 508.53 109.77 508.44 109.14 508.40 108.83 C 508.39 108.43 508.38 107.64 508.37 107.25 C 508.39 106.21 508.42 105.17 508.47 104.13 Z" />
<path fill="#727579" opacity="1.00" d=" M 461.38 107.03 C 460.45 104.82 465.68 104.55 463.75 106.89 C 463.15 106.92 461.97 107.00 461.38 107.03 Z" />
<path fill="#303234" opacity="1.00" d=" M 515.49 104.89 L 517.20 105.05 C 520.21 107.34 522.64 110.25 525.16 113.05 C 525.11 116.34 524.61 119.61 523.87 122.82 C 528.32 123.02 532.78 123.07 537.23 123.42 C 537.36 123.67 537.61 124.17 537.73 124.42 C 538.19 124.64 539.11 125.07 539.57 125.29 C 538.32 126.56 536.22 127.80 537.78 129.78 C 532.12 130.88 526.45 129.07 520.77 129.35 L 519.72 129.36 C 516.94 126.81 512.77 127.29 510.02 124.90 C 511.47 124.53 512.92 124.14 514.36 123.71 C 511.89 120.03 507.46 119.11 503.43 118.14 C 503.14 117.59 502.55 116.50 502.26 115.95 C 502.39 115.47 502.64 114.52 502.77 114.04 C 505.48 115.17 508.24 116.20 511.05 117.10 C 514.89 118.34 518.87 119.09 522.84 119.79 C 523.76 117.35 524.43 114.55 522.80 112.24 C 520.59 109.56 517.98 107.28 515.49 104.89 Z" />
<path fill="#2b2c2f" opacity="1.00" d=" M 453.96 109.91 C 453.79 107.05 456.19 105.09 458.94 106.20 C 459.40 109.25 456.64 110.71 453.96 109.91 M 455.21 108.79 C 456.18 109.42 458.35 108.42 457.82 107.15 C 456.83 106.53 454.67 107.51 455.21 108.79 Z" />
<path fill="#ffffff" opacity="1.00" d=" M 502.70 106.17 C 504.60 106.43 506.49 106.79 508.37 107.25 C 508.38 107.64 508.39 108.43 508.40 108.83 C 506.50 107.92 504.58 107.10 502.70 106.17 Z" />
<path fill="#7b7f84" opacity="1.00" d=" M 455.21 108.79 C 454.67 107.51 456.83 106.53 457.82 107.15 C 458.35 108.42 456.18 109.42 455.21 108.79 Z" />
<path fill="#1d1d1f" opacity="1.00" d=" M 461.38 107.03 C 461.97 107.00 463.15 106.92 463.75 106.89 C 464.56 108.64 460.67 108.85 461.38 107.03 Z" />
<path fill="#2e2f31" opacity="1.00" d=" M 447.84 110.98 C 446.79 107.83 450.65 107.45 452.78 108.04 C 452.80 108.71 452.82 110.06 452.84 110.73 C 451.21 111.20 449.17 112.85 447.84 110.98 M 449.31 109.97 C 450.62 110.70 451.43 110.44 451.76 109.19 C 450.44 108.45 449.62 108.71 449.31 109.97 Z" />
<path fill="#7e8387" opacity="1.00" d=" M 449.31 109.97 C 449.62 108.71 450.44 108.45 451.76 109.19 C 451.43 110.44 450.62 110.70 449.31 109.97 Z" />
<path fill="#010203" opacity="1.00" d=" M 490.16 108.66 C 492.49 110.42 492.61 113.27 492.33 115.96 C 492.14 116.16 491.76 116.55 491.57 116.75 C 490.73 115.81 489.90 114.87 489.05 113.96 C 489.47 114.18 490.31 114.62 490.73 114.84 C 490.52 112.78 490.31 110.72 490.16 108.66 Z" />
<path fill="#535354" opacity="1.00" d=" M 502.24 110.11 C 505.67 111.76 509.18 113.26 512.74 114.64 C 512.16 115.46 511.58 116.27 511.05 117.10 C 508.24 116.20 505.48 115.17 502.77 114.04 C 501.36 113.44 499.97 112.79 498.61 112.11 C 499.81 111.44 501.02 110.77 502.24 110.11 Z" />
<path fill="#5b5c5e" opacity="1.00" d=" M 516.21 110.47 C 518.30 111.38 520.50 112.11 522.80 112.24 C 524.43 114.55 523.76 117.35 522.84 119.79 C 518.87 119.09 514.89 118.34 511.05 117.10 C 511.58 116.27 512.16 115.46 512.74 114.64 L 513.47 113.75 C 514.39 112.67 515.32 111.59 516.21 110.47 M 518.22 115.35 C 518.77 115.84 518.77 115.84 518.22 115.35 Z" />
<path fill="#939aa1" opacity="1.00" d=" M 463.32 111.10 C 466.47 109.67 463.34 114.32 463.32 111.10 Z" />
<path fill="#010203" opacity="1.00" d=" M 496.55 110.91 C 497.22 111.33 497.90 111.73 498.61 112.11 C 499.97 112.79 501.36 113.44 502.77 114.04 C 502.64 114.52 502.39 115.47 502.26 115.95 C 502.55 116.50 503.14 117.59 503.43 118.14 C 501.40 119.61 498.79 120.61 497.47 117.67 C 497.54 117.27 497.69 116.46 497.76 116.06 C 496.40 115.56 495.03 115.06 493.68 114.56 C 494.69 113.39 495.61 112.14 496.55 110.91 Z" />
<path fill="#606162" opacity="1.00" d=" M 525.20 111.81 C 525.98 113.32 526.69 114.91 527.76 116.26 C 529.34 116.84 531.08 116.28 532.72 116.25 C 534.30 118.17 535.94 120.05 537.39 122.08 C 537.35 122.42 537.27 123.09 537.23 123.42 C 532.78 123.07 528.32 123.02 523.87 122.82 C 524.61 119.61 525.11 116.34 525.16 113.05 L 525.20 111.81 Z" />
<path fill="#888e94" opacity="1.00" d=" M 456.28 113.77 C 456.66 112.54 457.51 112.30 458.81 113.06 C 458.42 114.29 457.58 114.53 456.28 113.77 Z" />
<path fill="#ffffff" opacity="1.00" d=" M 450.00 115.35 C 450.75 114.04 451.80 113.76 453.14 114.52 C 452.43 115.32 451.45 116.40 450.26 116.04 L 450.00 115.35 Z" />
<path fill="#18181a" opacity="1.00" d=" M 463.08 117.29 C 463.56 115.61 465.13 115.18 466.68 115.13 C 466.63 116.30 466.58 117.48 466.53 118.65 C 465.29 118.69 464.07 118.72 462.84 118.73 L 463.35 117.96 C 464.51 117.98 465.55 117.65 466.46 116.97 C 465.73 115.60 463.75 116.18 463.08 117.29 Z" />
<path fill="#303132" opacity="1.00" d=" M 492.33 115.96 C 492.67 115.61 493.34 114.91 493.68 114.56 C 495.03 115.06 496.40 115.56 497.76 116.06 C 497.69 116.46 497.54 117.27 497.47 117.67 C 496.24 119.57 495.69 121.63 497.99 122.94 C 497.27 123.65 496.55 124.36 495.84 125.07 C 495.42 123.55 495.00 122.03 494.59 120.50 C 493.84 120.42 493.09 120.35 492.34 120.28 C 491.73 119.46 491.13 118.63 490.54 117.80 L 491.57 116.75 C 491.76 116.55 492.14 116.16 492.33 115.96 Z" />
<path fill="#99a0a7" opacity="1.00" d=" M 518.22 115.35 C 518.77 115.84 518.77 115.84 518.22 115.35 Z" />
<path fill="#ffffff" opacity="1.00" d=" M 463.08 117.29 C 463.75 116.18 465.73 115.60 466.46 116.97 C 465.55 117.65 464.51 117.98 463.35 117.96 L 463.08 117.29 Z" />
<path fill="#28292c" opacity="1.00" d=" M 458.13 118.13 C 455.86 117.07 460.08 115.58 460.73 117.29 C 462.22 118.25 459.91 121.21 459.21 119.47 C 459.89 118.27 459.53 117.83 458.13 118.13 Z" />
<path fill="#8b9096" opacity="1.00" d=" M 458.13 118.13 C 459.53 117.83 459.89 118.27 459.21 119.47 L 458.29 119.08 L 458.13 118.13 Z" />
<path fill="#1c1e1f" opacity="1.00" d=" M 489.01 121.82 C 489.44 120.45 489.94 119.10 490.54 117.80 C 491.13 118.63 491.73 119.46 492.34 120.28 C 493.09 120.35 493.84 120.42 494.59 120.50 C 495.00 122.03 495.42 123.55 495.84 125.07 C 496.55 124.36 497.27 123.65 497.99 122.94 C 498.13 123.07 498.40 123.33 498.54 123.46 C 498.46 124.51 498.06 125.46 497.36 126.31 C 496.21 126.52 495.10 126.86 494.05 127.33 C 492.48 127.52 490.91 127.67 489.35 127.81 L 489.30 126.87 C 489.24 125.19 489.09 123.51 489.01 121.82 Z" />
<path fill="#18181a" opacity="1.00" d=" M 497.99 122.94 C 495.69 121.63 496.24 119.57 497.47 117.67 C 498.79 120.61 501.40 119.61 503.43 118.14 C 507.46 119.11 511.89 120.03 514.36 123.71 C 512.92 124.14 511.47 124.53 510.02 124.90 C 506.35 124.94 502.23 119.92 499.25 123.90 L 498.54 123.46 C 498.40 123.33 498.13 123.07 497.99 122.94 Z" />
<path fill="#010203" opacity="1.00" d=" M 453.66 120.86 C 453.92 124.34 447.97 122.11 450.98 120.15 C 451.70 120.90 452.60 121.13 453.66 120.86 Z" />
<path fill="#ffffff" opacity="1.00" d=" M 450.98 120.15 C 452.48 119.07 453.37 119.30 453.66 120.86 C 452.60 121.13 451.70 120.90 450.98 120.15 Z" />
<path fill="#29292b" opacity="0.87" d=" M 483.72 128.52 C 485.88 126.65 488.00 124.57 489.01 121.82 C 489.09 123.51 489.24 125.19 489.30 126.87 C 488.39 128.30 487.31 129.61 486.23 130.91 L 485.22 129.97 C 484.84 129.61 484.09 128.88 483.72 128.52 Z" />
<path fill="#ffffff" opacity="1.00" d=" M 21.20 292.47 C 25.25 292.52 29.30 292.49 33.35 292.50 C 34.99 305.67 36.62 318.83 38.25 332.00 C 35.32 332.01 32.39 332.03 29.47 331.92 C 29.37 329.57 29.23 327.22 29.09 324.88 C 28.32 324.87 26.80 324.87 26.04 324.87 C 25.90 327.22 25.75 329.57 25.65 331.93 C 22.69 332.02 19.72 332.01 16.76 332.00 C 18.26 318.82 19.62 305.63 21.20 292.47 M 25.98 317.91 C 26.68 317.89 28.09 317.86 28.79 317.85 C 28.35 312.25 27.96 306.65 27.57 301.06 C 27.02 306.67 26.37 312.28 25.98 317.91 Z" />
<path fill="#ffffff" opacity="1.00" d=" M 38.26 292.49 C 44.48 292.53 50.69 292.43 56.91 292.55 C 56.87 295.17 56.88 297.79 56.82 300.41 C 55.13 300.39 53.44 300.37 51.75 300.37 C 51.76 310.90 51.73 321.44 51.76 331.98 C 48.92 332.01 46.07 332.01 43.22 331.97 C 43.28 321.43 43.24 310.90 43.25 300.37 C 41.60 300.37 39.95 300.38 38.30 300.41 C 38.24 297.77 38.25 295.13 38.26 292.49 Z" />
<path fill="#ffffff" opacity="1.00" d=" M 61.19 292.47 C 65.24 292.52 69.30 292.49 73.35 292.50 C 74.99 305.67 76.61 318.83 78.25 332.00 C 75.32 332.01 72.39 332.03 69.46 331.91 C 69.37 329.56 69.23 327.22 69.09 324.88 C 68.32 324.87 66.80 324.87 66.04 324.87 C 65.90 327.22 65.75 329.57 65.65 331.92 C 62.69 332.02 59.72 332.01 56.76 332.00 C 58.25 318.82 59.63 305.63 61.19 292.47 M 65.98 317.91 C 66.68 317.90 68.09 317.86 68.79 317.85 C 68.35 312.26 67.98 306.67 67.52 301.09 C 67.03 306.70 66.37 312.29 65.98 317.91 Z" />
<path fill="#ffff00" opacity="1.00" d=" M 121.73 292.55 C 124.58 292.47 127.42 292.47 130.27 292.56 C 130.22 303.07 130.27 313.58 130.25 324.09 C 131.97 324.11 133.69 324.14 135.41 324.18 C 135.38 326.79 135.39 329.41 135.32 332.03 C 130.79 331.97 126.27 332.01 121.75 332.00 C 121.73 318.85 121.78 305.70 121.73 292.55 Z" />
<path fill="#ffffff" opacity="1.00" d=" M 79.75 292.50 C 84.65 292.64 89.68 292.04 94.48 293.26 C 99.04 295.58 98.75 301.55 98.53 305.92 C 98.63 308.53 97.15 311.16 94.29 311.31 C 96.34 312.10 98.26 313.67 98.45 316.01 C 98.85 321.32 98.50 326.65 98.65 331.96 C 96.02 332.00 93.38 332.00 90.75 332.00 C 90.50 326.26 91.28 320.42 90.31 314.74 C 89.81 314.52 88.81 314.07 88.31 313.84 C 88.18 319.89 88.28 325.95 88.25 332.00 C 85.42 332.00 82.58 332.00 79.75 332.00 C 79.75 318.83 79.75 305.67 79.75 292.50 M 88.33 298.95 C 88.22 301.99 88.25 305.04 88.24 308.08 C 88.79 307.95 89.91 307.68 90.46 307.54 C 90.46 304.70 92.24 299.83 88.33 298.95 Z" />
<path fill="#ffffff" opacity="1.00" d=" M 102.21 292.56 C 105.03 292.48 107.86 292.50 110.68 292.45 C 110.85 305.63 110.68 318.80 110.77 331.98 C 107.92 332.01 105.07 332.01 102.23 331.97 C 102.26 318.83 102.29 305.70 102.21 292.56 Z" />
<path fill="#ffff00" opacity="1.00" d=" M 135.26 292.49 C 137.87 292.49 140.48 292.50 143.10 292.50 C 143.93 297.36 144.30 302.30 145.25 307.14 C 145.95 302.25 146.66 297.37 147.51 292.52 C 150.13 292.49 152.75 292.49 155.37 292.50 C 153.41 300.63 151.28 308.72 149.37 316.86 C 148.81 321.88 149.27 326.96 149.12 332.00 C 146.49 332.00 143.85 332.00 141.22 331.96 C 141.14 326.98 141.53 321.96 141.03 317.00 C 139.22 308.81 137.13 300.67 135.26 292.49 Z" />
<path fill="#ffff00" opacity="1.00" d=" M 156.75 292.49 C 159.11 292.49 161.46 292.50 163.82 292.55 C 165.35 298.22 166.55 304.00 168.55 309.52 C 168.47 303.85 168.50 298.18 168.50 292.51 C 170.86 292.50 173.22 292.49 175.59 292.48 C 175.70 305.63 175.54 318.78 175.67 331.93 C 173.18 332.01 170.69 332.01 168.20 331.97 C 167.15 327.26 165.91 322.60 164.85 317.90 C 164.43 316.68 164.52 315.06 163.33 314.27 C 164.50 320.07 163.59 326.10 163.87 332.00 C 161.49 332.00 159.12 332.00 156.75 332.00 C 156.75 318.83 156.75 305.66 156.75 292.49 Z" />
<path fill="#ffff00" opacity="1.00" d=" M 177.57 292.50 C 180.33 292.49 183.08 292.49 185.84 292.51 C 186.40 296.00 186.91 299.50 187.46 303.00 C 188.29 299.53 188.83 295.99 189.46 292.48 C 191.82 292.49 194.19 292.50 196.56 292.51 C 195.65 297.71 194.71 302.90 193.78 308.10 C 193.29 309.92 193.83 311.76 194.19 313.56 C 195.51 319.70 196.78 325.85 198.06 332.00 C 195.42 332.00 192.78 332.00 190.14 331.98 C 189.16 327.31 188.44 322.60 187.48 317.93 C 186.93 322.62 186.39 327.31 185.82 331.99 C 183.07 332.00 180.32 332.00 177.57 332.00 C 178.54 324.64 179.89 317.33 180.68 309.96 C 179.88 304.10 178.54 298.33 177.57 292.50 Z" />
</svg>
