<?xml version="1.0" encoding="UTF-8" ?>
<!DOCTYPE svg PUBLIC "-//W3C//DTD SVG 1.1//EN" "http://www.w3.org/Graphics/SVG/1.1/DTD/svg11.dtd">
<svg width="960pt" height="540pt" viewBox="0 0 960 540" version="1.1" xmlns="http://www.w3.org/2000/svg">
<path fill="#383738" opacity="1.00" d=" M 489.93 54.99 C 491.97 52.91 494.68 51.64 497.43 50.75 C 496.95 51.47 495.98 52.89 495.50 53.61 C 493.99 55.85 492.84 58.32 492.05 60.90 L 492.55 61.42 C 495.25 64.50 499.75 64.78 503.29 66.49 C 503.38 60.33 500.94 54.02 495.80 50.29 C 500.76 50.56 501.63 55.03 503.28 58.44 C 504.57 61.06 504.57 64.01 504.51 66.86 C 516.26 71.29 528.04 75.68 539.79 80.11 L 539.38 80.45 C 538.11 81.47 536.86 82.64 536.42 84.27 C 535.04 88.54 534.11 92.95 532.78 97.24 C 525.61 95.07 518.67 92.20 511.73 89.38 C 512.37 89.20 513.65 88.82 514.28 88.64 C 510.72 87.29 507.17 85.92 503.64 84.48 C 504.49 84.34 506.18 84.06 507.03 83.92 C 507.27 83.49 507.76 82.62 508.00 82.19 C 508.79 80.40 508.71 78.48 508.22 76.63 C 508.82 76.64 510.02 76.67 510.62 76.68 C 504.73 75.32 499.26 72.67 493.61 70.58 C 493.92 70.30 494.55 69.74 494.87 69.46 C 485.87 66.44 477.15 62.66 468.17 59.60 C 469.58 58.10 471.00 56.62 472.46 55.17 C 477.47 56.81 482.37 58.79 487.34 60.57 C 488.17 58.71 488.75 56.68 489.93 54.99 M 513.39 78.35 C 512.26 79.76 514.97 80.76 515.86 79.73 C 516.95 78.31 514.26 77.28 513.39 78.35 M 512.25 80.32 C 512.76 80.81 512.76 80.81 512.25 80.32 M 521.01 82.75 L 520.75 84.18 C 520.80 82.33 517.70 82.30 518.90 84.28 C 517.57 85.62 517.80 87.34 518.19 89.01 C 519.17 88.90 520.06 88.58 520.85 88.04 C 521.59 90.67 524.64 86.20 522.08 86.05 C 522.03 85.31 521.93 83.82 521.88 83.08 C 523.13 83.44 524.83 81.31 522.92 80.94 C 521.70 80.17 518.93 81.70 521.01 82.75 M 510.57 85.19 C 511.49 86.19 512.94 86.05 513.83 85.10 C 514.64 87.75 517.46 82.82 514.78 82.98 C 514.84 82.78 514.98 82.37 515.04 82.16 C 513.86 83.00 512.66 82.93 511.43 81.94 C 511.00 82.99 510.72 84.08 510.57 85.19 M 530.26 82.00 C 530.31 85.28 533.34 80.58 530.26 82.00 Z" />
<path fill="#4a494b" opacity="0.97" d=" M 492.05 60.90 C 492.84 58.32 493.99 55.85 495.50 53.61 C 495.48 55.43 495.45 57.25 495.38 59.07 C 495.09 59.74 494.53 61.07 494.25 61.73 L 492.55 61.42 L 492.05 60.90 Z" />
<path fill="#2a2a2a" opacity="1.00" d=" M 467.15 61.51 C 467.47 60.87 467.81 60.23 468.17 59.60 C 477.15 62.66 485.87 66.44 494.87 69.46 C 494.55 69.74 493.92 70.30 493.61 70.58 C 492.67 70.61 491.73 70.65 490.80 70.71 C 489.67 72.60 488.83 74.64 488.05 76.69 C 489.13 77.33 490.21 77.97 491.34 78.54 C 490.60 79.22 489.86 79.91 489.13 80.59 C 493.14 82.11 497.27 84.56 501.69 83.08 C 499.16 81.76 496.60 80.51 494.00 79.36 C 492.78 78.43 491.59 77.46 490.41 76.50 C 490.77 75.77 491.15 75.04 491.52 74.31 C 496.11 75.64 500.63 77.25 505.05 79.06 C 506.53 79.52 507.14 81.04 508.00 82.19 C 507.76 82.62 507.27 83.49 507.03 83.92 C 506.18 84.06 504.49 84.34 503.64 84.48 C 507.17 85.92 510.72 87.29 514.28 88.64 C 513.65 88.82 512.37 89.20 511.73 89.38 C 518.67 92.20 525.61 95.07 532.78 97.24 C 534.11 92.95 535.04 88.54 536.42 84.27 C 536.86 82.64 538.11 81.47 539.38 80.45 C 540.90 82.50 542.73 84.39 545.32 84.96 L 545.29 85.75 C 544.53 87.49 543.63 89.15 542.70 90.79 C 542.64 90.19 542.52 88.98 542.46 88.38 C 541.84 89.62 541.24 90.88 540.38 91.97 C 533.49 99.94 527.06 108.28 520.39 116.42 C 518.79 118.64 516.43 121.16 517.39 124.12 C 516.61 124.78 516.10 126.22 514.88 125.99 C 511.39 125.54 508.31 123.64 504.94 122.74 C 489.87 116.72 474.79 110.62 459.99 103.94 C 457.95 102.84 455.86 101.79 453.71 100.93 C 449.25 99.09 444.56 97.41 441.19 93.77 C 441.28 94.52 441.44 96.02 441.53 96.77 C 441.17 95.79 440.94 94.77 440.94 93.73 L 441.46 92.39 C 441.19 90.59 440.73 88.81 440.28 87.05 C 447.69 79.75 455.28 72.61 462.93 65.56 C 462.75 66.88 462.58 68.20 462.42 69.52 C 464.33 67.07 465.90 64.37 467.15 61.51 M 476.03 68.01 C 476.20 68.98 476.69 70.32 477.57 70.81 C 478.14 69.71 478.21 68.59 477.76 67.46 C 477.33 67.60 476.47 67.87 476.03 68.01 M 480.36 68.33 C 480.30 69.46 481.93 69.64 482.76 69.89 C 483.38 71.00 484.02 72.12 484.66 73.23 C 484.32 70.99 483.01 68.11 480.36 68.33 M 486.27 68.17 C 486.54 71.46 489.25 66.60 486.27 68.17 M 472.36 72.09 C 472.54 73.41 473.27 73.67 474.56 72.88 C 474.36 71.56 473.63 71.30 472.36 72.09 M 480.07 72.36 C 479.74 73.72 480.28 74.23 481.69 73.87 C 482.01 72.50 481.47 72.00 480.07 72.36 M 444.12 84.85 C 443.80 85.37 443.18 86.40 442.87 86.92 C 443.67 89.27 444.30 91.68 444.90 94.10 C 449.51 96.38 454.18 98.62 459.12 100.11 C 474.99 106.31 490.54 113.42 506.50 119.38 C 508.08 119.93 509.67 120.51 511.25 121.09 L 511.36 121.79 C 512.42 122.13 513.48 122.47 514.55 122.81 C 515.27 120.98 515.98 119.15 516.69 117.30 C 517.09 116.78 517.89 115.73 518.30 115.21 C 493.51 105.24 468.70 95.31 444.12 84.85 Z" />
<path fill="#5b4332" opacity="1.00" d=" M 462.93 65.56 C 464.32 64.19 465.71 62.83 467.15 61.51 C 465.90 64.37 464.33 67.07 462.42 69.52 C 462.58 68.20 462.75 66.88 462.93 65.56 Z" />
<path fill="#ffffff" opacity="1.00" d=" M 476.03 68.01 C 476.47 67.87 477.33 67.60 477.76 67.46 C 478.21 68.59 478.14 69.71 477.57 70.81 C 476.69 70.32 476.20 68.98 476.03 68.01 Z" />
<path fill="#ffffff" opacity="1.00" d=" M 480.36 68.33 C 483.01 68.11 484.32 70.99 484.66 73.23 C 484.02 72.12 483.38 71.00 482.76 69.89 C 481.93 69.64 480.30 69.46 480.36 68.33 Z" />
<path fill="#704b36" opacity="1.00" d=" M 486.27 68.17 C 489.25 66.60 486.54 71.46 486.27 68.17 Z" />
<path fill="#ffffff" opacity="1.00" d=" M 490.80 70.71 C 491.73 70.65 492.67 70.61 493.61 70.58 C 499.26 72.67 504.73 75.32 510.62 76.68 C 510.02 76.67 508.82 76.64 508.22 76.63 C 502.28 75.07 496.86 71.92 490.80 70.71 Z" />
<path fill="#141314" opacity="1.00" d=" M 490.80 70.71 C 496.86 71.92 502.28 75.07 508.22 76.63 C 508.71 78.48 508.79 80.40 508.00 82.19 C 507.14 81.04 506.53 79.52 505.05 79.06 C 500.63 77.25 496.11 75.64 491.52 74.31 C 491.15 75.04 490.77 75.77 490.41 76.50 C 491.59 77.46 492.78 78.43 494.00 79.36 C 493.34 79.16 492.01 78.75 491.34 78.54 C 490.21 77.97 489.13 77.33 488.05 76.69 C 488.83 74.64 489.67 72.60 490.80 70.71 Z" />
<path fill="#58402f" opacity="1.00" d=" M 472.36 72.09 C 473.63 71.30 474.36 71.56 474.56 72.88 C 473.27 73.67 472.54 73.41 472.36 72.09 Z" />
<path fill="#594232" opacity="1.00" d=" M 480.07 72.36 C 481.47 72.00 482.01 72.50 481.69 73.87 C 480.28 74.23 479.74 73.72 480.07 72.36 Z" />
<path fill="#75513a" opacity="1.00" d=" M 513.39 78.35 C 514.26 77.28 516.95 78.31 515.86 79.73 C 514.97 80.76 512.26 79.76 513.39 78.35 Z" />
<path fill="#403630" opacity="1.00" d=" M 491.34 78.54 C 492.01 78.75 493.34 79.16 494.00 79.36 C 496.60 80.51 499.16 81.76 501.69 83.08 C 497.27 84.56 493.14 82.11 489.13 80.59 C 489.86 79.91 490.60 79.22 491.34 78.54 Z" />
<path fill="#e0dddd" opacity="1.00" d=" M 512.25 80.32 C 512.76 80.81 512.76 80.81 512.25 80.32 Z" />
<path fill="#7a543b" opacity="1.00" d=" M 521.01 82.75 C 518.93 81.70 521.70 80.17 522.92 80.94 C 524.83 81.31 523.13 83.44 521.88 83.08 L 521.01 82.75 Z" />
<path fill="#222122" opacity="1.00" d=" M 510.57 85.19 C 510.72 84.08 511.00 82.99 511.43 81.94 C 512.66 82.93 513.86 83.00 515.04 82.16 C 514.98 82.37 514.84 82.78 514.78 82.98 C 514.54 83.51 514.07 84.57 513.83 85.10 C 512.94 86.05 511.49 86.19 510.57 85.19 Z" />
<path fill="#715846" opacity="1.00" d=" M 530.26 82.00 C 533.34 80.58 530.31 85.28 530.26 82.00 Z" />
<path fill="#684f3b" opacity="1.00" d=" M 514.78 82.98 C 517.46 82.82 514.64 87.75 513.83 85.10 C 514.07 84.57 514.54 83.51 514.78 82.98 Z" />
<path fill="#ffffff" opacity="1.00" d=" M 518.90 84.28 C 517.70 82.30 520.80 82.33 520.75 84.18 C 520.68 84.59 520.55 85.42 520.48 85.84 C 520.08 85.45 519.29 84.67 518.90 84.28 Z" />
<path fill="#232224" opacity="1.00" d=" M 521.01 82.75 L 521.88 83.08 C 521.93 83.82 522.03 85.31 522.08 86.05 C 521.77 86.55 521.16 87.55 520.85 88.04 C 520.06 88.58 519.17 88.90 518.19 89.01 C 517.80 87.34 517.57 85.62 518.90 84.28 C 519.29 84.67 520.08 85.45 520.48 85.84 C 520.55 85.42 520.68 84.59 520.75 84.18 L 521.01 82.75 Z" />
<path fill="#805c39" opacity="1.00" d=" M 444.12 84.85 C 468.70 95.31 493.51 105.24 518.30 115.21 C 517.89 115.73 517.09 116.78 516.69 117.30 C 504.39 112.24 491.97 107.43 479.72 102.26 C 473.41 99.31 467.10 96.35 460.51 94.06 C 454.61 91.72 448.69 89.43 442.87 86.92 C 443.18 86.40 443.80 85.37 444.12 84.85 Z" />
<path fill="#654c3b" opacity="1.00" d=" M 522.08 86.05 C 524.64 86.20 521.59 90.67 520.85 88.04 C 521.16 87.55 521.77 86.55 522.08 86.05 Z" />
<path fill="#080808" opacity="0.60" d=" M 545.29 85.75 C 546.53 88.58 544.17 91.45 542.85 93.83 C 534.58 104.56 526.22 115.21 517.85 125.87 C 516.99 127.14 515.56 127.99 514.07 127.13 C 510.99 125.84 507.18 125.40 504.94 122.74 C 508.31 123.64 511.39 125.54 514.88 125.99 C 516.10 126.22 516.61 124.78 517.39 124.12 C 525.54 112.80 535.01 102.44 542.70 90.79 C 543.63 89.15 544.53 87.49 545.29 85.75 Z" />
<path fill="#503a28" opacity="1.00" d=" M 442.87 86.92 C 448.69 89.43 454.61 91.72 460.51 94.06 C 459.66 95.43 458.59 96.63 457.35 97.66 C 457.92 98.49 458.52 99.29 459.12 100.11 C 454.18 98.62 449.51 96.38 444.90 94.10 C 444.30 91.68 443.67 89.27 442.87 86.92 Z" />
<path fill="#313031" opacity="1.00" d=" M 436.02 88.89 C 437.33 88.34 439.18 87.44 440.24 88.97 C 440.88 90.47 440.79 92.14 440.94 93.73 C 440.94 94.77 441.17 95.79 441.53 96.77 C 444.98 98.64 448.54 100.32 452.00 102.18 C 453.07 102.83 454.13 103.52 455.16 104.27 C 450.32 108.06 446.05 112.49 441.81 116.91 C 436.43 115.03 431.30 112.47 426.60 109.25 C 430.71 108.85 434.75 109.68 438.54 111.26 C 441.45 112.74 444.48 111.40 447.02 109.83 C 447.09 109.28 447.25 108.19 447.33 107.65 C 447.26 105.95 447.63 103.49 445.60 102.78 C 443.28 101.70 440.86 100.51 438.27 100.34 C 436.59 101.03 435.53 102.73 433.84 103.41 C 432.32 103.90 430.73 104.12 429.18 104.49 C 428.41 104.72 426.88 105.17 426.11 105.40 L 426.24 104.03 C 429.55 100.82 432.92 97.66 436.43 94.67 C 436.30 92.74 436.16 90.82 436.02 88.89 M 433.26 102.23 C 433.72 102.76 433.72 102.76 433.26 102.23 Z" />
<path fill="#686668" opacity="1.00" d=" M 540.38 91.97 C 541.24 90.88 541.84 89.62 542.46 88.38 C 542.52 88.98 542.64 90.19 542.70 90.79 C 535.01 102.44 525.54 112.80 517.39 124.12 C 516.43 121.16 518.79 118.64 520.39 116.42 C 527.06 108.28 533.49 99.94 540.38 91.97 Z" />
<path fill="#5b4332" opacity="1.00" d=" M 460.51 94.06 C 467.10 96.35 473.41 99.31 479.72 102.26 C 491.97 107.43 504.39 112.24 516.69 117.30 C 515.98 119.15 515.27 120.98 514.55 122.81 C 513.48 122.47 512.42 122.13 511.36 121.79 L 511.25 121.09 C 510.89 118.89 510.37 116.72 509.74 114.59 C 507.79 115.48 507.11 117.48 506.50 119.38 C 490.54 113.42 474.99 106.31 459.12 100.11 C 458.52 99.29 457.92 98.49 457.35 97.66 C 458.59 96.63 459.66 95.43 460.51 94.06 Z" />
<path fill="#0f0f0f" opacity="0.41" d=" M 441.19 93.77 C 444.56 97.41 449.25 99.09 453.71 100.93 C 453.28 101.24 452.43 101.86 452.00 102.18 C 448.54 100.32 444.98 98.64 441.53 96.77 C 441.44 96.02 441.28 94.52 441.19 93.77 Z" />
<path fill="#1d1d1e" opacity="1.00" d=" M 433.84 103.41 C 435.53 102.73 436.59 101.03 438.27 100.34 C 440.86 100.51 443.28 101.70 445.60 102.78 C 447.63 103.49 447.26 105.95 447.33 107.65 C 444.86 109.81 441.94 111.48 438.54 111.26 C 434.75 109.68 430.71 108.85 426.60 109.25 C 425.33 108.59 424.06 107.94 422.80 107.29 C 423.90 106.16 425.04 105.06 426.24 104.03 L 426.11 105.40 C 426.09 106.08 426.04 107.44 426.01 108.12 C 427.46 108.04 429.18 108.39 430.05 106.89 C 429.83 106.29 429.40 105.09 429.18 104.49 C 430.73 104.12 432.32 103.90 433.84 103.41 M 431.20 105.34 C 430.36 106.62 430.57 107.41 431.84 107.70 C 432.67 106.41 432.45 105.62 431.20 105.34 M 438.17 105.30 C 438.19 106.68 441.70 106.56 441.74 105.21 C 440.53 104.54 439.34 104.57 438.17 105.30 Z" />
<path fill="#0a0a0a" opacity="0.59" d=" M 452.00 102.18 C 452.43 101.86 453.28 101.24 453.71 100.93 C 455.86 101.79 457.95 102.84 459.99 103.94 C 458.17 103.67 456.40 103.22 454.68 102.60 C 456.90 105.69 457.02 110.10 455.40 113.45 C 451.54 117.78 447.21 121.70 443.09 125.79 C 442.52 125.49 441.39 124.90 440.83 124.60 C 441.86 124.02 442.93 123.46 443.95 122.82 C 447.05 119.58 450.36 116.55 453.48 113.33 C 455.93 111.01 455.26 107.29 455.16 104.27 C 454.13 103.52 453.07 102.83 452.00 102.18 Z" />
<path fill="#87512b" opacity="1.00" d=" M 433.26 102.23 C 433.72 102.76 433.72 102.76 433.26 102.23 Z" />
<path fill="#e04a24" opacity="1.00" d=" M 426.11 105.40 C 426.88 105.17 428.41 104.72 429.18 104.49 C 429.40 105.09 429.83 106.29 430.05 106.89 C 429.18 108.39 427.46 108.04 426.01 108.12 C 426.04 107.44 426.09 106.08 426.11 105.40 Z" />
<path fill="#5c3d23" opacity="1.00" d=" M 431.20 105.34 C 432.45 105.62 432.67 106.41 431.84 107.70 C 430.57 107.41 430.36 106.62 431.20 105.34 Z" />
<path fill="#444345" opacity="1.00" d=" M 438.17 105.30 C 439.34 104.57 440.53 104.54 441.74 105.21 C 441.70 106.56 438.19 106.68 438.17 105.30 Z" />
<path fill="#494849" opacity="1.00" d=" M 441.81 116.91 C 446.05 112.49 450.32 108.06 455.16 104.27 C 455.26 107.29 455.93 111.01 453.48 113.33 C 450.36 116.55 447.05 119.58 443.95 122.82 C 443.72 121.02 443.51 119.22 443.16 117.45 C 442.83 117.31 442.15 117.05 441.81 116.91 Z" />
<path fill="#424142" opacity="1.00" d=" M 422.80 107.29 C 424.06 107.94 425.33 108.59 426.60 109.25 C 431.30 112.47 436.43 115.03 441.81 116.91 C 442.15 117.05 442.83 117.31 443.16 117.45 C 443.51 119.22 443.72 121.02 443.95 122.82 C 442.93 123.46 441.86 124.02 440.83 124.60 C 436.18 120.77 430.17 119.10 425.47 115.37 C 423.66 113.10 423.55 109.99 422.80 107.29 Z" />
<path fill="#573f2a" opacity="1.00" d=" M 438.54 111.26 C 441.94 111.48 444.86 109.81 447.33 107.65 C 447.25 108.19 447.09 109.28 447.02 109.83 C 444.48 111.40 441.45 112.74 438.54 111.26 Z" />
<path fill="#92847b" opacity="1.00" d=" M 506.50 119.38 C 507.11 117.48 507.79 115.48 509.74 114.59 C 510.37 116.72 510.89 118.89 511.25 121.09 C 509.67 120.51 508.08 119.93 506.50 119.38 Z" />
<path fill="#ffffff" opacity="1.00" d=" M 21.15 292.49 C 25.22 292.50 29.28 292.49 33.35 292.50 C 34.99 305.67 36.61 318.83 38.25 332.00 C 35.35 331.99 32.45 331.99 29.55 332.03 C 29.38 329.64 29.22 327.26 29.08 324.88 C 28.32 324.88 26.80 324.87 26.04 324.87 C 25.90 327.24 25.75 329.61 25.61 331.99 C 22.66 332.00 19.71 332.00 16.76 332.00 C 18.23 318.83 19.68 305.66 21.15 292.49 M 25.97 317.89 C 26.67 317.88 28.08 317.87 28.78 317.87 C 28.36 312.25 27.97 306.63 27.52 301.01 C 27.04 306.64 26.38 312.25 25.97 317.89 Z" />
<path fill="#ffffff" opacity="1.00" d=" M 61.15 292.49 C 65.22 292.50 69.28 292.49 73.35 292.50 C 74.99 305.66 76.61 318.83 78.25 332.00 C 75.34 332.00 72.44 332.00 69.53 332.00 C 69.38 329.63 69.22 327.25 69.08 324.88 C 68.32 324.88 66.80 324.87 66.04 324.87 C 65.90 327.23 65.75 329.59 65.63 331.96 C 62.67 332.01 59.71 332.01 56.76 332.00 C 58.23 318.83 59.67 305.66 61.15 292.49 M 65.97 317.89 C 66.67 317.88 68.08 317.87 68.78 317.87 C 68.40 312.33 67.91 306.81 67.56 301.27 C 66.82 306.73 66.51 312.36 65.97 317.89 Z" />
<path fill="#ffff00" opacity="1.00" d=" M 123.93 294.00 C 128.84 289.30 138.46 292.10 139.44 299.08 C 141.05 308.81 134.15 316.97 130.22 325.25 C 133.15 325.25 136.07 325.25 138.99 325.25 C 139.00 327.49 139.00 329.75 139.00 332.00 C 133.04 332.00 127.08 332.00 121.12 332.00 C 121.17 330.04 120.91 328.05 121.33 326.13 C 124.73 318.43 129.39 311.21 131.77 303.09 C 132.45 301.24 132.14 296.61 129.14 298.21 C 127.84 300.56 128.56 303.43 128.37 306.00 C 125.94 306.00 123.52 306.00 121.09 305.99 C 121.15 301.90 120.83 297.18 123.93 294.00 Z" />
<path fill="#ffff00" opacity="1.00" d=" M 148.47 292.35 C 152.14 291.20 156.72 291.48 159.54 294.37 C 161.69 296.70 161.84 300.01 162.09 303.00 C 159.37 303.00 156.65 303.00 153.92 303.00 C 154.00 301.18 154.25 296.63 151.17 298.23 C 149.93 301.40 150.99 305.04 150.53 308.39 C 153.13 303.79 160.50 305.40 161.48 310.40 C 162.33 315.57 162.16 320.92 161.61 326.12 C 160.13 334.51 146.42 335.12 143.49 327.46 C 142.39 324.79 142.59 321.83 142.50 319.00 C 142.56 313.00 142.35 306.99 142.64 300.99 C 142.72 297.33 144.84 293.52 148.47 292.35 M 151.28 311.94 C 150.02 316.10 150.69 320.67 150.80 324.98 C 150.40 327.41 153.83 326.95 153.71 324.96 C 153.66 320.68 154.74 315.87 153.04 311.89 C 152.60 311.90 151.72 311.93 151.28 311.94 Z" />
<path fill="#ffff00" opacity="1.00" d=" M 170.38 292.50 C 174.27 290.88 179.24 291.80 181.97 295.10 C 184.31 298.20 184.05 302.30 184.14 305.98 C 184.01 312.01 184.35 318.06 183.93 324.09 C 183.73 327.76 181.40 331.62 177.62 332.46 C 174.28 333.09 170.16 332.89 167.74 330.19 C 164.76 326.88 164.99 322.15 164.99 318.00 C 165.14 311.96 164.67 305.89 165.34 299.87 C 165.60 296.75 167.40 293.70 170.38 292.50 M 174.04 297.76 C 172.96 298.87 173.24 300.54 173.12 301.94 C 173.16 309.28 173.06 316.63 173.16 323.98 C 172.56 325.62 174.55 328.05 175.73 325.84 C 176.35 317.91 175.82 309.92 176.01 301.98 C 175.79 300.38 176.53 297.56 174.04 297.76 Z" />
<path fill="#ffff00" opacity="1.00" d=" M 192.33 292.52 C 197.44 290.19 204.69 292.94 205.64 298.82 C 206.59 305.16 205.92 311.60 206.14 317.98 C 206.11 322.40 206.46 327.68 202.76 330.87 C 198.00 334.61 189.22 332.96 187.71 326.55 C 186.29 319.82 187.31 312.85 186.99 306.03 C 186.96 301.19 187.02 294.69 192.33 292.52 M 195.31 299.22 C 194.86 305.80 195.26 312.42 195.12 319.01 C 195.22 321.69 194.70 324.54 195.97 327.03 C 196.41 326.74 197.30 326.17 197.74 325.88 C 198.27 317.26 197.96 308.56 197.91 299.92 C 198.63 297.87 195.31 296.81 195.31 299.22 Z" />
<path fill="#ffffff" opacity="1.00" d=" M 38.25 292.50 C 44.46 292.49 50.67 292.50 56.88 292.50 C 56.87 295.13 56.87 297.75 56.87 300.38 C 55.16 300.38 53.45 300.37 51.75 300.38 C 51.75 310.92 51.74 321.45 51.75 332.00 C 48.92 332.00 46.08 332.00 43.25 331.99 C 43.25 321.46 43.25 310.92 43.25 300.38 C 41.58 300.37 39.92 300.37 38.26 300.38 C 38.25 297.75 38.25 295.13 38.25 292.50 Z" />
<path fill="#ffffff" opacity="1.00" d=" M 79.75 292.50 C 84.69 292.65 89.76 292.01 94.59 293.30 C 99.32 295.93 98.78 302.31 98.41 306.94 C 98.43 309.61 95.99 311.60 93.41 311.56 C 96.23 311.33 98.36 313.79 98.49 316.40 C 98.80 321.59 98.54 326.79 98.63 331.99 C 96.00 332.00 93.38 332.00 90.75 332.00 C 90.51 326.26 91.27 320.43 90.32 314.76 C 89.82 314.53 88.82 314.06 88.32 313.83 C 88.17 319.89 88.29 325.94 88.25 332.00 C 85.42 332.00 82.58 332.00 79.75 332.00 C 79.75 318.83 79.75 305.67 79.75 292.50 M 88.33 298.96 C 88.22 302.04 88.23 305.13 88.27 308.21 C 89.38 307.84 90.87 307.63 90.67 306.07 C 90.70 303.59 91.75 299.55 88.33 298.96 Z" />
<path fill="#ffffff" opacity="1.00" d=" M 102.19 292.55 C 105.01 292.50 107.84 292.50 110.66 292.42 C 110.87 305.61 110.69 318.80 110.75 331.99 C 107.92 332.00 105.08 332.00 102.25 331.99 C 102.22 318.84 102.33 305.69 102.19 292.55 Z" />
</svg>
