<?xml version="1.0" encoding="UTF-8" ?>
<!DOCTYPE svg PUBLIC "-//W3C//DTD SVG 1.1//EN" "http://www.w3.org/Graphics/SVG/1.1/DTD/svg11.dtd">
<svg width="960pt" height="540pt" viewBox="0 0 960 540" version="1.1" xmlns="http://www.w3.org/2000/svg">
<path fill="#41403f" opacity="1.00" d=" M 485.56 65.87 C 489.16 61.07 492.85 56.30 496.93 51.89 C 522.04 59.16 547.06 66.75 572.19 73.94 C 568.45 79.39 564.95 85.01 561.14 90.41 C 560.13 88.96 558.33 88.63 556.77 88.11 C 552.50 86.88 548.25 85.57 544.01 84.26 C 537.50 82.30 531.00 80.33 524.50 78.34 C 511.53 74.17 498.46 70.27 485.56 65.87 M 516.13 65.87 C 514.42 67.95 512.68 70.08 511.83 72.69 C 513.81 72.82 516.94 75.25 517.80 72.32 C 523.56 74.40 529.48 76.01 535.10 78.45 C 536.45 76.65 538.85 75.02 538.71 72.56 C 531.19 70.33 523.71 67.93 516.13 65.87 Z" />
<path fill="#dbd7cb" opacity="1.00" d=" M 485.41 65.82 L 485.56 65.87 C 498.46 70.27 511.53 74.17 524.50 78.34 C 524.91 80.45 526.52 81.95 527.55 83.75 C 528.16 85.21 526.60 86.43 526.10 87.66 C 522.50 86.62 518.96 85.34 515.24 84.80 C 518.47 87.02 522.41 87.64 526.05 88.88 C 525.62 89.90 525.19 90.92 524.76 91.94 C 508.91 86.87 493.04 81.85 477.36 76.28 C 480.04 72.79 482.77 69.34 485.41 65.82 M 481.60 74.04 C 485.33 76.15 489.66 76.75 493.61 78.34 C 497.98 79.58 502.13 81.74 506.71 82.17 C 503.91 79.91 500.16 79.58 496.90 78.28 C 491.81 76.85 486.92 74.51 481.60 74.04 M 507.27 82.20 C 507.53 83.80 510.34 84.39 511.72 83.79 C 511.39 82.23 508.64 81.65 507.27 82.20 M 513.22 84.12 C 513.52 87.40 516.17 82.48 513.22 84.12 Z" />
<path fill="#030303" opacity="1.00" d=" M 516.13 65.87 C 523.71 67.93 531.19 70.33 538.71 72.56 C 538.85 75.02 536.45 76.65 535.10 78.45 C 529.48 76.01 523.56 74.40 517.80 72.32 C 516.94 75.25 513.81 72.82 511.83 72.69 C 512.68 70.08 514.42 67.95 516.13 65.87 Z" />
<path fill="#d9aa8b" opacity="1.00" d=" M 481.60 74.04 C 486.92 74.51 491.81 76.85 496.90 78.28 C 500.16 79.58 503.91 79.91 506.71 82.17 C 502.13 81.74 497.98 79.58 493.61 78.34 C 489.66 76.75 485.33 76.15 481.60 74.04 Z" />
<path fill="#4e4d4a" opacity="1.00" d=" M 572.19 73.94 C 572.42 74.43 572.89 75.41 573.12 75.90 C 572.98 78.65 572.30 81.39 570.71 83.67 C 562.41 96.35 553.87 108.87 545.71 121.64 C 544.48 123.53 543.20 125.54 541.10 126.57 C 541.33 123.44 541.75 120.19 543.57 117.54 C 547.08 112.19 550.53 106.80 553.74 101.26 C 556.00 97.51 558.43 93.86 561.14 90.41 C 564.95 85.01 568.45 79.39 572.19 73.94 Z" />
<path fill="#413f3e" opacity="1.00" d=" M 474.07 80.45 C 475.14 79.04 476.23 77.65 477.36 76.28 C 493.04 81.85 508.91 86.87 524.76 91.94 C 526.82 92.57 528.89 93.21 530.96 93.86 C 532.74 94.42 534.52 95.01 536.30 95.59 C 536.00 95.85 535.40 96.38 535.09 96.64 C 539.60 97.76 543.84 99.78 547.26 102.97 C 545.53 104.88 543.81 106.79 542.11 108.72 C 543.46 109.65 544.81 110.58 546.17 111.52 C 544.82 112.13 543.55 113.35 541.99 113.10 C 540.03 112.38 538.43 110.86 536.40 110.34 C 535.16 110.44 534.01 110.95 532.86 111.34 C 532.64 111.25 532.21 111.08 532.00 111.00 L 531.76 110.14 C 531.30 110.12 530.38 110.09 529.92 110.07 L 529.46 110.20 C 527.51 109.77 525.62 109.13 523.75 108.48 C 523.70 107.02 521.32 105.96 521.00 107.82 C 510.43 103.94 499.43 101.16 489.13 96.51 C 488.91 96.73 488.47 97.16 488.26 97.37 C 501.47 101.87 514.62 106.56 527.92 110.84 C 531.70 113.18 536.01 114.37 540.17 115.81 C 538.17 115.83 535.95 115.28 534.20 116.59 C 526.25 113.97 518.44 110.92 510.38 108.59 C 502.29 106.13 494.58 102.58 486.60 99.78 C 486.43 98.90 486.25 98.03 486.08 97.15 C 486.35 96.95 486.88 96.54 487.14 96.33 C 489.38 95.44 485.94 93.43 486.37 95.87 C 484.28 94.33 481.75 93.66 479.22 93.36 C 480.90 91.90 477.81 91.32 476.89 92.16 C 474.09 90.88 469.67 90.91 468.66 87.43 C 469.60 86.17 470.55 84.91 471.46 83.63 C 471.76 83.19 472.36 82.33 472.66 81.90 C 468.12 81.29 463.57 80.56 458.99 80.43 C 453.60 80.17 448.86 83.15 443.96 84.92 C 440.74 86.23 437.26 86.75 433.98 87.88 C 430.08 89.20 427.89 95.17 431.71 97.82 C 432.19 98.25 433.17 99.12 433.65 99.56 C 436.60 97.90 439.95 96.22 443.31 97.86 C 445.75 99.54 442.81 102.28 441.98 104.15 C 442.82 105.23 443.65 106.30 444.51 107.38 C 444.36 108.62 444.24 109.88 444.13 111.13 C 446.08 111.53 447.50 112.95 448.95 114.21 C 445.67 114.86 443.22 112.19 440.43 111.01 C 440.51 113.50 442.77 114.90 444.14 116.71 C 446.13 119.47 449.49 120.82 451.24 123.79 C 444.88 120.93 439.09 116.92 433.14 113.30 C 434.68 112.04 434.43 109.92 434.38 108.15 C 434.45 107.63 434.59 106.59 434.66 106.07 C 433.06 105.02 431.44 103.98 429.83 102.94 C 429.21 104.60 428.66 106.27 428.18 107.98 C 427.76 105.41 428.52 102.98 429.96 100.86 C 428.36 97.35 427.22 92.97 429.66 89.53 C 431.34 86.47 434.91 85.65 438.07 85.03 C 443.92 83.91 449.08 80.66 454.84 79.28 C 461.26 78.61 467.73 79.35 474.07 80.45 Z" />
<path fill="#050505" opacity="0.55" d=" M 573.12 75.90 C 574.14 76.25 574.57 76.94 574.43 77.97 C 574.53 80.31 573.58 82.50 572.40 84.46 C 564.69 96.65 556.43 108.48 548.63 120.61 C 546.60 123.39 544.99 126.59 542.12 128.62 C 540.81 128.00 539.51 127.37 538.23 126.72 L 539.59 126.49 C 539.97 126.51 540.72 126.55 541.10 126.57 C 543.20 125.54 544.48 123.53 545.71 121.64 C 553.87 108.87 562.41 96.35 570.71 83.67 C 572.30 81.39 572.98 78.65 573.12 75.90 Z" />
<path fill="#e6e3db" opacity="1.00" d=" M 527.55 83.75 C 526.52 81.95 524.91 80.45 524.50 78.34 C 531.00 80.33 537.50 82.30 544.01 84.26 C 543.02 85.87 542.38 87.66 542.24 89.55 C 540.93 90.15 539.60 90.73 538.29 91.32 C 536.17 90.66 533.99 90.20 531.82 89.76 L 532.11 90.86 C 532.21 91.30 532.43 92.19 532.53 92.63 C 532.14 92.94 531.35 93.55 530.96 93.86 C 528.89 93.21 526.82 92.57 524.76 91.94 C 525.19 90.92 525.62 89.90 526.05 88.88 C 527.94 89.45 529.86 89.86 531.81 90.18 C 530.05 89.03 528.12 88.20 526.10 87.66 C 526.60 86.43 528.16 85.21 527.55 83.75 Z" />
<path fill="#000000" opacity="0.49" d=" M 443.96 84.92 C 448.86 83.15 453.60 80.17 458.99 80.43 C 463.57 80.56 468.12 81.29 472.66 81.90 C 472.36 82.33 471.76 83.19 471.46 83.63 C 467.31 83.04 463.14 82.31 458.93 82.47 C 454.64 82.63 450.80 84.71 446.95 86.37 C 445.18 86.61 443.03 86.28 441.73 87.77 C 440.66 89.36 440.44 91.33 440.11 93.18 C 440.17 91.56 440.27 89.93 440.39 88.32 C 437.58 89.25 433.90 89.43 432.25 92.28 C 431.11 93.92 431.40 95.97 431.71 97.82 C 427.89 95.17 430.08 89.20 433.98 87.88 C 437.26 86.75 440.74 86.23 443.96 84.92 Z" />
<path fill="#c89380" opacity="1.00" d=" M 507.27 82.20 C 508.64 81.65 511.39 82.23 511.72 83.79 C 510.34 84.39 507.53 83.80 507.27 82.20 Z" />
<path fill="#a7837e" opacity="1.00" d=" M 513.22 84.12 C 516.17 82.48 513.52 87.40 513.22 84.12 Z" />
<path fill="#aea39d" opacity="1.00" d=" M 515.24 84.80 C 518.96 85.34 522.50 86.62 526.10 87.66 C 528.12 88.20 530.05 89.03 531.81 90.18 C 529.86 89.86 527.94 89.45 526.05 88.88 C 522.41 87.64 518.47 87.02 515.24 84.80 Z" />
<path fill="#efeee8" opacity="1.00" d=" M 544.01 84.26 C 548.25 85.57 552.50 86.88 556.77 88.11 C 558.33 88.63 560.13 88.96 561.14 90.41 C 558.43 93.86 556.00 97.51 553.74 101.26 C 547.98 99.21 542.12 97.45 536.30 95.59 C 534.52 95.01 532.74 94.42 530.96 93.86 C 531.35 93.55 532.14 92.94 532.53 92.63 C 532.43 92.19 532.21 91.30 532.11 90.86 C 539.52 92.90 546.74 95.80 554.36 97.04 C 549.17 94.69 543.62 93.32 538.29 91.32 C 539.60 90.73 540.93 90.15 542.24 89.55 C 542.38 87.66 543.02 85.87 544.01 84.26 Z" />
<path fill="#4c4b49" opacity="1.00" d=" M 441.73 87.77 C 443.03 86.28 445.18 86.61 446.95 86.37 C 448.02 87.23 449.07 88.15 450.05 89.13 C 447.50 90.18 444.80 90.98 442.02 90.64 C 441.60 92.28 441.19 93.93 440.76 95.58 C 440.60 94.98 440.27 93.78 440.11 93.18 C 440.44 91.33 440.66 89.36 441.73 87.77 Z" />
<path fill="#282726" opacity="0.95" d=" M 465.25 91.72 C 466.35 90.27 467.54 88.87 468.66 87.43 C 469.67 90.91 474.09 90.88 476.89 92.16 C 477.47 92.46 478.63 93.06 479.22 93.36 C 481.75 93.66 484.28 94.33 486.37 95.87 L 487.14 96.33 C 486.88 96.54 486.35 96.95 486.08 97.15 L 485.60 97.31 C 480.66 95.10 475.54 93.33 470.39 91.69 C 468.71 91.06 466.94 91.44 465.25 91.72 Z" />
<path fill="#21201f" opacity="1.00" d=" M 442.02 90.64 C 444.80 90.98 447.50 90.18 450.05 89.13 C 450.60 91.07 451.21 93.05 451.24 95.08 C 450.32 96.97 448.57 98.23 447.08 99.63 C 446.83 99.86 446.32 100.32 446.07 100.55 C 446.91 101.55 447.80 102.50 448.69 103.47 C 448.58 104.43 448.47 105.40 448.37 106.36 C 450.00 106.04 451.63 105.73 453.26 105.42 C 453.82 105.93 454.37 106.45 454.93 106.97 C 454.25 106.87 452.88 106.66 452.20 106.56 C 450.02 107.65 447.94 108.92 445.95 110.33 C 445.51 109.86 445.08 109.38 444.66 108.91 C 445.08 107.18 445.42 105.39 445.00 103.62 C 444.88 104.56 444.63 106.44 444.51 107.38 C 443.65 106.30 442.82 105.23 441.98 104.15 C 442.81 102.28 445.75 99.54 443.31 97.86 C 442.46 97.09 441.59 96.35 440.76 95.58 C 441.19 93.93 441.60 92.28 442.02 90.64 Z" />
<path fill="#bcc8c3" opacity="1.00" d=" M 531.82 89.76 C 533.99 90.20 536.17 90.66 538.29 91.32 C 543.62 93.32 549.17 94.69 554.36 97.04 C 546.74 95.80 539.52 92.90 532.11 90.86 L 531.82 89.76 Z" />
<path fill="#424140" opacity="1.00" d=" M 465.25 91.72 C 466.94 91.44 468.71 91.06 470.39 91.69 C 475.54 93.33 480.66 95.10 485.60 97.31 C 481.60 99.06 477.28 96.63 473.16 97.95 C 469.84 97.22 466.78 95.72 463.81 94.11 C 464.17 93.52 464.89 92.32 465.25 91.72 Z" />
<path fill="#88847e" opacity="1.00" d=" M 476.89 92.16 C 477.81 91.32 480.90 91.90 479.22 93.36 C 478.63 93.06 477.47 92.46 476.89 92.16 Z" />
<path fill="#1c1c1b" opacity="1.00" d=" M 463.81 94.11 C 466.78 95.72 469.84 97.22 473.16 97.95 C 484.07 101.88 494.84 106.17 505.83 109.87 C 506.53 110.53 507.23 111.20 507.92 111.88 C 504.00 111.10 500.10 110.13 496.09 110.03 C 495.65 110.21 494.77 110.57 494.33 110.75 C 491.67 113.26 490.02 117.00 486.40 118.34 C 482.59 119.80 478.31 121.34 474.24 119.97 C 471.66 119.18 469.55 117.43 467.51 115.75 C 465.48 111.24 465.04 106.22 466.62 101.50 C 464.06 99.86 462.84 97.09 463.81 94.11 M 474.61 102.63 L 475.02 104.10 C 473.01 103.02 470.64 103.49 468.47 103.35 C 468.65 107.24 467.24 111.80 469.96 115.12 C 472.75 118.33 477.54 119.06 481.52 118.07 C 485.31 116.44 490.02 114.68 490.46 109.89 C 488.72 109.64 486.84 108.91 485.14 109.71 L 486.07 108.59 C 484.24 107.93 482.46 107.23 480.64 106.58 C 482.85 106.84 485.04 107.23 487.21 107.74 C 484.11 104.18 478.94 103.72 474.61 102.63 Z" />
<path fill="#8f8b84" opacity="1.00" d=" M 486.37 95.87 C 485.94 93.43 489.38 95.44 487.14 96.33 L 486.37 95.87 Z" />
<path fill="#030303" opacity="1.00" d=" M 489.13 96.51 C 499.43 101.16 510.43 103.94 521.00 107.82 C 521.68 107.98 523.06 108.31 523.75 108.48 C 525.62 109.13 527.51 109.77 529.46 110.20 L 527.92 110.84 C 514.62 106.56 501.47 101.87 488.26 97.37 C 488.47 97.16 488.91 96.73 489.13 96.51 Z" />
<path fill="#31302f" opacity="1.00" d=" M 535.09 96.64 C 535.40 96.38 536.00 95.85 536.30 95.59 C 542.12 97.45 547.98 99.21 553.74 101.26 C 550.53 106.80 547.08 112.19 543.57 117.54 C 541.75 120.19 541.33 123.44 541.10 126.57 C 540.72 126.55 539.97 126.51 539.59 126.49 C 524.46 121.37 509.31 116.30 494.33 110.75 C 494.77 110.57 495.65 110.21 496.09 110.03 C 500.10 110.13 504.00 111.10 507.92 111.88 C 507.23 111.20 506.53 110.53 505.83 109.87 C 512.30 111.49 518.40 114.27 524.80 116.14 C 530.38 117.75 535.70 120.31 541.48 121.23 C 540.84 117.75 536.81 117.70 534.20 116.59 C 535.95 115.28 538.17 115.83 540.17 115.81 C 536.01 114.37 531.70 113.18 527.92 110.84 L 529.46 110.20 L 529.92 110.07 C 530.44 110.30 531.48 110.77 532.00 111.00 C 532.21 111.08 532.64 111.25 532.86 111.34 C 534.01 110.95 535.16 110.44 536.40 110.34 C 538.43 110.86 540.03 112.38 541.99 113.10 C 543.55 113.35 544.82 112.13 546.17 111.52 C 544.81 110.58 543.46 109.65 542.11 108.72 C 543.81 106.79 545.53 104.88 547.26 102.97 C 543.84 99.78 539.60 97.76 535.09 96.64 Z" />
<path fill="#504f4c" opacity="1.00" d=" M 473.16 97.95 C 477.28 96.63 481.60 99.06 485.60 97.31 L 486.08 97.15 C 486.25 98.03 486.43 98.90 486.60 99.78 C 494.58 102.58 502.29 106.13 510.38 108.59 C 518.44 110.92 526.25 113.97 534.20 116.59 C 536.81 117.70 540.84 117.75 541.48 121.23 C 535.70 120.31 530.38 117.75 524.80 116.14 C 518.40 114.27 512.30 111.49 505.83 109.87 C 494.84 106.17 484.07 101.88 473.16 97.95 Z" />
<path fill="#363432" opacity="0.92" d=" M 446.07 100.55 C 446.32 100.32 446.83 99.86 447.08 99.63 C 449.02 101.67 451.12 103.57 453.26 105.42 C 451.63 105.73 450.00 106.04 448.37 106.36 C 448.47 105.40 448.58 104.43 448.69 103.47 C 447.80 102.50 446.91 101.55 446.07 100.55 Z" />
<path fill="#df4c12" opacity="1.00" d=" M 429.83 102.94 C 431.44 103.98 433.06 105.02 434.66 106.07 C 434.59 106.59 434.45 107.63 434.38 108.15 C 433.47 109.49 432.47 110.84 432.24 112.49 C 430.88 110.99 429.53 109.48 428.18 107.98 C 428.66 106.27 429.21 104.60 429.83 102.94 Z" />
<path fill="#302f2d" opacity="0.95" d=" M 474.61 102.63 C 478.94 103.72 484.11 104.18 487.21 107.74 C 485.04 107.23 482.85 106.84 480.64 106.58 C 478.69 105.95 476.83 105.06 475.02 104.10 L 474.61 102.63 Z" />
<path fill="#c5c1b4" opacity="1.00" d=" M 445.00 103.62 C 445.42 105.39 445.08 107.18 444.66 108.91 C 445.08 109.38 445.51 109.86 445.95 110.33 C 447.94 108.92 450.02 107.65 452.20 106.56 C 452.49 108.02 452.83 109.48 452.98 110.96 C 452.30 112.53 450.96 113.67 449.88 114.95 C 449.65 114.77 449.18 114.40 448.95 114.21 C 447.50 112.95 446.08 111.53 444.13 111.13 C 444.24 109.88 444.36 108.62 444.51 107.38 C 444.63 106.44 444.88 104.56 445.00 103.62 Z" />
<path fill="#ddd9ce" opacity="1.00" d=" M 452.20 106.56 C 452.88 106.66 454.25 106.87 454.93 106.97 C 459.04 110.83 463.60 114.14 467.93 117.75 C 468.80 118.50 469.68 119.25 470.56 119.99 C 467.49 121.46 464.48 123.08 461.46 124.64 C 457.70 121.30 453.79 118.12 449.88 114.95 C 450.96 113.67 452.30 112.53 452.98 110.96 C 452.83 109.48 452.49 108.02 452.20 106.56 M 454.50 110.56 C 456.96 113.33 459.74 116.13 463.31 117.38 C 460.86 114.56 457.94 112.07 454.50 110.56 Z" />
<path fill="#7a7772" opacity="1.00" d=" M 521.00 107.82 C 521.32 105.96 523.70 107.02 523.75 108.48 C 523.06 108.31 521.68 107.98 521.00 107.82 Z" />
<path fill="#c72d11" opacity="0.95" d=" M 432.24 112.49 C 432.47 110.84 433.47 109.49 434.38 108.15 C 434.43 109.92 434.68 112.04 433.14 113.30 C 432.91 113.09 432.47 112.69 432.24 112.49 Z" />
<path fill="#3c3a39" opacity="1.00" d=" M 485.14 109.71 C 486.84 108.91 488.72 109.64 490.46 109.89 C 490.02 114.68 485.31 116.44 481.52 118.07 C 482.46 115.19 482.95 111.97 485.14 109.71 Z" />
<path fill="#949189" opacity="1.00" d=" M 529.92 110.07 C 530.38 110.09 531.30 110.12 531.76 110.14 L 532.00 111.00 C 531.48 110.77 530.44 110.30 529.92 110.07 Z" />
<path fill="#333231" opacity="1.00" d=" M 440.43 111.01 C 443.22 112.19 445.67 114.86 448.95 114.21 C 449.18 114.40 449.65 114.77 449.88 114.95 C 453.79 118.12 457.70 121.30 461.46 124.64 C 464.48 123.08 467.49 121.46 470.56 119.99 C 470.78 121.12 471.11 122.32 470.66 123.45 C 467.33 125.74 463.49 127.17 460.17 129.48 L 459.97 129.61 C 457.27 127.36 453.63 126.37 451.24 123.79 C 449.49 120.82 446.13 119.47 444.14 116.71 C 442.77 114.90 440.51 113.50 440.43 111.01 Z" />
<path fill="#c8b9a5" opacity="1.00" d=" M 454.50 110.56 C 457.94 112.07 460.86 114.56 463.31 117.38 C 459.74 116.13 456.96 113.33 454.50 110.56 Z" />
<path fill="#000000" opacity="0.51" d=" M 486.40 118.34 C 490.02 117.00 491.67 113.26 494.33 110.75 C 509.31 116.30 524.46 121.37 539.59 126.49 L 538.23 126.72 C 535.68 126.82 533.30 125.63 530.89 124.96 C 518.85 120.86 506.83 116.71 494.87 112.39 C 493.28 114.30 491.93 116.42 490.16 118.17 C 485.07 121.72 478.52 123.80 472.51 121.29 C 472.48 122.11 472.43 123.75 472.40 124.56 C 469.32 126.29 466.27 128.10 463.05 129.54 C 462.10 129.94 461.14 129.92 460.17 129.48 C 463.49 127.17 467.33 125.74 470.66 123.45 C 471.11 122.32 470.78 121.12 470.56 119.99 C 469.68 119.25 468.80 118.50 467.93 117.75 C 467.82 117.25 467.61 116.25 467.51 115.75 C 469.55 117.43 471.66 119.18 474.24 119.97 C 478.31 121.34 482.59 119.80 486.40 118.34 Z" />
<path fill="#ffffff" opacity="1.00" d=" M 21.18 292.47 C 25.23 292.51 29.29 292.49 33.35 292.50 C 34.99 305.67 36.61 318.83 38.25 332.00 C 35.32 332.01 32.39 332.03 29.46 331.92 C 29.37 329.57 29.23 327.22 29.09 324.88 C 28.32 324.87 26.80 324.87 26.03 324.87 C 25.90 327.22 25.75 329.58 25.65 331.94 C 22.68 332.02 19.72 332.00 16.75 332.00 C 18.24 318.82 19.65 305.64 21.18 292.47 M 27.48 301.28 C 27.04 306.83 26.36 312.36 25.98 317.91 C 26.68 317.90 28.09 317.86 28.79 317.85 C 28.29 312.33 28.09 306.78 27.48 301.28 Z" />
<path fill="#ffffff" opacity="1.00" d=" M 38.25 292.49 C 44.45 292.49 50.65 292.53 56.84 292.47 C 56.89 295.13 56.91 297.79 56.79 300.45 C 55.11 300.40 53.43 300.37 51.75 300.35 C 51.76 310.89 51.72 321.43 51.77 331.98 C 48.92 332.00 46.08 332.00 43.24 331.98 C 43.27 321.45 43.24 310.91 43.25 300.38 C 41.59 300.37 39.92 300.38 38.26 300.38 C 38.25 297.75 38.25 295.12 38.25 292.49 Z" />
<path fill="#ffffff" opacity="1.00" d=" M 61.18 292.47 C 65.24 292.51 69.29 292.49 73.35 292.50 C 74.99 305.66 76.61 318.83 78.25 332.00 C 75.32 332.01 72.40 332.02 69.48 331.94 C 69.37 329.58 69.23 327.23 69.09 324.88 C 68.32 324.88 66.80 324.87 66.04 324.87 C 65.90 327.23 65.75 329.59 65.64 331.95 C 62.68 332.01 59.72 332.00 56.75 332.00 C 58.24 318.82 59.64 305.64 61.18 292.47 M 65.99 317.93 C 66.69 317.90 68.09 317.86 68.79 317.83 C 68.34 312.28 67.97 306.73 67.56 301.17 C 66.99 306.75 66.37 312.33 65.99 317.93 Z" />
<path fill="#ffff00" opacity="1.00" d=" M 120.26 292.49 C 125.45 292.50 130.64 292.52 135.83 292.47 C 135.86 296.28 136.12 300.14 135.41 303.92 C 133.81 313.26 132.18 322.59 130.67 331.94 C 127.95 332.01 125.22 332.01 122.49 332.00 C 124.48 321.21 126.46 310.42 128.42 299.63 C 125.70 299.62 122.97 299.62 120.25 299.63 C 120.25 297.25 120.25 294.87 120.26 292.49 Z" />
<path fill="#ffff00" opacity="1.00" d=" M 141.85 292.83 C 146.29 290.87 153.45 291.08 155.52 296.30 C 156.94 300.61 157.56 306.63 153.28 309.56 C 154.76 310.72 156.23 312.15 156.37 314.15 C 156.85 318.70 157.21 323.50 155.84 327.93 C 153.84 332.87 147.40 333.57 142.91 332.14 C 139.09 330.95 137.46 326.80 137.46 323.11 C 137.38 318.56 136.73 313.28 140.12 309.66 C 136.47 304.88 136.32 296.26 141.85 292.83 M 146.02 298.13 C 145.42 300.32 145.57 302.63 145.64 304.88 C 145.55 306.23 146.42 308.11 148.11 307.06 C 148.71 304.11 148.75 301.00 148.09 298.06 C 147.57 298.08 146.54 298.11 146.02 298.13 M 145.98 313.95 C 145.21 317.96 145.23 322.20 145.94 326.22 C 147.56 327.86 148.85 325.49 148.58 324.08 C 148.49 320.79 149.17 317.28 148.04 314.13 C 147.53 314.09 146.49 314.00 145.98 313.95 Z" />
<path fill="#ffff00" opacity="1.00" d=" M 164.50 292.67 C 168.71 290.68 174.50 291.84 177.03 295.93 C 178.76 298.98 178.57 302.63 178.63 306.03 C 178.54 311.89 178.79 317.75 178.49 323.61 C 178.35 327.48 176.03 331.69 171.97 332.50 C 168.40 333.16 163.87 332.74 161.67 329.46 C 159.06 325.86 159.56 321.16 159.49 316.97 C 159.63 311.34 159.19 305.68 159.81 300.07 C 160.03 297.02 161.65 293.99 164.50 292.67 M 168.05 298.27 C 167.08 304.79 167.88 311.46 167.61 318.04 C 167.82 320.86 167.04 323.99 168.32 326.60 C 170.56 327.29 170.51 324.44 170.50 322.99 C 170.34 314.56 170.90 306.09 170.15 297.69 C 169.63 297.84 168.58 298.13 168.05 298.27 Z" />
<path fill="#ffff00" opacity="1.00" d=" M 186.48 292.68 C 191.69 290.03 199.39 292.91 200.18 299.08 C 201.07 305.01 200.43 311.05 200.63 317.03 C 200.52 321.21 201.12 325.91 198.50 329.51 C 195.81 333.32 190.23 333.46 186.29 331.76 C 182.42 329.76 181.45 324.96 181.50 320.98 C 181.58 314.34 181.28 307.68 181.70 301.05 C 181.82 297.71 183.27 294.15 186.48 292.68 M 190.03 298.29 C 189.10 306.45 189.85 314.74 189.62 322.96 C 189.69 324.28 189.39 327.28 191.58 326.59 C 192.96 325.54 192.26 323.43 192.52 321.94 C 192.32 313.86 192.91 305.74 192.15 297.69 C 191.62 297.84 190.56 298.14 190.03 298.29 Z" />
<path fill="#ffffff" opacity="1.00" d=" M 79.75 292.50 C 84.49 292.60 89.30 292.15 93.97 293.10 C 97.65 294.25 98.56 298.61 98.62 301.98 C 98.68 305.41 99.01 310.46 94.67 311.37 C 96.54 312.30 98.31 313.89 98.46 316.11 C 98.85 321.37 98.47 326.66 98.68 331.93 C 96.04 332.01 93.39 332.01 90.75 332.00 C 90.51 326.28 91.25 320.46 90.33 314.80 C 89.83 314.55 88.82 314.06 88.31 313.81 C 88.19 319.87 88.28 325.94 88.25 332.00 C 85.42 332.00 82.58 332.00 79.75 332.00 C 79.75 318.83 79.75 305.67 79.75 292.50 M 88.34 298.91 C 88.21 302.04 88.23 305.16 88.29 308.29 C 89.25 307.78 90.83 307.65 90.66 306.17 C 90.70 303.63 91.75 299.63 88.34 298.91 Z" />
<path fill="#ffffff" opacity="1.00" d=" M 102.21 292.54 C 105.02 292.50 107.84 292.51 110.65 292.42 C 110.89 305.61 110.67 318.80 110.76 331.98 C 107.92 332.00 105.08 332.00 102.23 331.98 C 102.25 318.83 102.29 305.69 102.21 292.54 Z" />
</svg>
