<?xml version="1.0" encoding="UTF-8" ?>
<!DOCTYPE svg PUBLIC "-//W3C//DTD SVG 1.1//EN" "http://www.w3.org/Graphics/SVG/1.1/DTD/svg11.dtd">
<svg width="960pt" height="540pt" viewBox="0 0 960 540" version="1.1" xmlns="http://www.w3.org/2000/svg">
<path fill="#e2e2e2" opacity="1.00" d=" M 451.65 43.34 C 457.60 43.76 463.56 44.28 469.53 44.42 C 469.81 44.84 470.38 45.69 470.66 46.11 C 472.60 46.25 474.55 46.37 476.46 46.79 C 468.70 46.20 460.92 46.75 453.15 46.50 C 451.00 46.40 448.86 46.20 446.73 46.01 C 446.45 47.47 445.45 48.96 446.14 50.45 C 447.40 50.66 448.67 50.78 449.96 50.81 C 452.28 50.90 454.60 50.95 456.93 51.00 C 454.21 52.17 451.24 52.38 448.37 52.91 C 451.91 53.71 455.43 52.36 458.98 52.61 C 461.99 52.83 464.95 53.41 467.93 53.87 C 468.34 54.98 468.73 56.11 469.09 57.25 C 469.18 57.61 469.37 58.32 469.46 58.68 C 471.32 58.81 473.17 58.80 475.04 58.92 C 475.24 59.10 475.63 59.46 475.82 59.64 C 469.03 59.03 462.17 59.11 455.38 59.69 C 454.64 58.07 454.58 55.85 452.83 54.93 C 450.61 54.20 448.20 54.49 445.91 54.52 C 444.95 54.60 443.99 54.73 443.03 54.84 C 444.57 61.96 443.74 69.28 444.04 76.50 C 442.03 70.20 441.75 63.56 440.58 57.09 C 439.89 54.95 442.15 53.60 442.42 51.64 C 442.79 49.59 442.50 47.51 442.36 45.46 C 442.71 45.29 443.41 44.94 443.76 44.76 C 446.34 44.76 448.92 44.88 451.49 45.18 C 451.53 44.72 451.61 43.80 451.65 43.34 M 459.21 56.36 C 459.09 59.10 463.29 57.58 465.05 58.00 C 464.80 57.49 464.29 56.47 464.04 55.96 C 462.43 56.06 460.74 55.77 459.21 56.36 Z" />
<path fill="#b3b4b6" opacity="1.00" d=" M 439.68 48.01 C 440.51 47.10 441.40 46.25 442.36 45.46 C 442.50 47.51 442.79 49.59 442.42 51.64 C 442.15 53.60 439.89 54.95 440.58 57.09 C 441.75 63.56 442.03 70.20 444.04 76.50 C 444.62 81.59 445.56 86.63 446.26 91.71 C 446.23 92.47 446.18 94.01 446.16 94.77 L 445.11 93.75 C 443.04 80.82 440.91 67.89 438.90 54.94 C 439.18 52.63 439.36 50.31 439.68 48.01 Z" />
<path fill="#3f671b" opacity="1.00" d=" M 446.73 46.01 C 448.86 46.20 451.00 46.40 453.15 46.50 C 453.29 47.16 453.56 48.48 453.70 49.14 C 452.45 49.70 451.20 50.26 449.96 50.81 C 448.67 50.78 447.40 50.66 446.14 50.45 C 445.45 48.96 446.45 47.47 446.73 46.01 Z" />
<path fill="#d93c26" opacity="1.00" d=" M 482.37 55.21 C 484.91 52.25 487.29 49.14 489.89 46.23 C 494.05 47.27 498.40 47.62 502.44 49.11 C 499.53 48.57 496.60 48.09 493.72 47.42 C 492.84 48.09 491.96 48.75 491.08 49.41 C 491.30 48.87 491.76 47.80 491.98 47.26 C 491.67 47.14 491.03 46.88 490.72 46.76 C 488.03 48.84 486.23 51.79 484.12 54.40 C 483.31 55.50 482.53 56.63 481.76 57.75 C 487.30 59.11 492.91 60.14 498.41 61.65 C 499.95 62.61 501.47 63.61 503.00 64.59 C 503.34 65.64 503.70 66.70 504.07 67.75 C 503.82 68.09 503.31 68.76 503.06 69.10 C 501.88 68.80 500.71 68.49 499.55 68.17 C 499.42 66.61 499.27 65.06 499.11 63.51 C 498.72 65.01 498.45 66.53 498.26 68.06 C 497.14 67.73 496.02 67.40 494.90 67.06 C 494.75 65.46 494.61 63.86 494.46 62.26 C 494.21 63.82 493.95 65.37 493.69 66.93 C 489.49 65.99 485.32 64.91 481.15 63.85 C 481.02 62.32 481.16 60.70 480.48 59.27 L 480.32 58.89 C 480.21 57.35 481.57 56.34 482.37 55.21 Z" />
<path fill="#837d3b" opacity="1.00" d=" M 453.15 46.50 C 460.92 46.75 468.70 46.20 476.46 46.79 C 476.73 47.00 477.27 47.41 477.55 47.62 C 475.60 47.79 473.67 47.93 471.73 48.06 C 471.64 48.88 471.47 50.53 471.39 51.36 C 466.57 51.31 461.75 50.59 456.93 51.00 C 454.60 50.95 452.28 50.90 449.96 50.81 C 451.20 50.26 452.45 49.70 453.70 49.14 C 453.56 48.48 453.29 47.16 453.15 46.50 M 457.44 48.15 C 457.30 48.61 457.01 49.53 456.86 50.00 C 461.06 50.23 465.26 50.26 469.46 50.35 L 469.41 48.70 C 465.54 47.65 461.39 47.38 457.44 48.15 Z" />
<path fill="#f5f4f9" opacity="1.00" d=" M 490.72 46.76 C 491.03 46.88 491.67 47.14 491.98 47.26 C 491.76 47.80 491.30 48.87 491.08 49.41 C 491.96 48.75 492.84 48.09 493.72 47.42 C 496.60 48.09 499.53 48.57 502.44 49.11 C 503.93 49.44 505.40 49.84 506.91 50.16 C 508.22 50.45 509.55 50.73 510.88 51.00 C 508.98 53.72 507.01 56.40 505.06 59.09 C 503.28 58.72 501.44 58.43 499.84 57.52 C 499.57 57.23 499.02 56.65 498.75 56.36 C 496.63 55.81 494.50 55.30 492.40 54.72 C 493.23 54.08 494.05 53.42 494.87 52.75 C 494.94 53.26 495.10 54.28 495.17 54.79 C 496.85 54.84 498.52 54.83 500.19 55.08 C 501.34 54.18 502.51 53.29 503.66 52.37 C 501.29 52.04 498.92 51.76 496.56 51.49 C 496.22 50.63 495.89 49.77 495.56 48.91 C 495.48 49.34 495.31 50.19 495.23 50.62 C 493.74 51.94 492.16 53.14 490.46 54.15 C 489.65 54.56 488.85 54.96 488.05 55.35 C 487.07 55.11 485.10 54.64 484.12 54.40 C 486.23 51.79 488.03 48.84 490.72 46.76 Z" />
<path fill="#818179" opacity="1.00" d=" M 437.23 54.01 C 436.73 51.66 438.28 49.69 439.68 48.01 C 439.36 50.31 439.18 52.63 438.90 54.94 C 437.68 58.22 438.30 61.70 439.01 65.01 C 441.35 75.72 443.20 86.54 444.70 97.39 C 444.86 96.18 445.00 94.97 445.11 93.75 L 446.16 94.77 C 446.15 95.55 446.13 96.32 446.12 97.10 C 445.65 97.42 444.73 98.05 444.26 98.37 C 443.67 101.57 443.75 104.85 443.47 108.08 C 442.53 103.38 441.42 98.71 440.42 94.03 C 440.07 98.34 439.73 102.65 439.72 106.98 C 439.06 89.32 439.06 71.61 437.23 54.01 Z" />
<path fill="#53492d" opacity="1.00" d=" M 457.44 48.15 C 461.39 47.38 465.54 47.65 469.41 48.70 L 469.46 50.35 C 465.26 50.26 461.06 50.23 456.86 50.00 C 457.01 49.53 457.30 48.61 457.44 48.15 Z" />
<path fill="#61381e" opacity="1.00" d=" M 471.73 48.06 C 473.67 47.93 475.60 47.79 477.55 47.62 C 477.53 48.58 477.49 50.51 477.48 51.47 C 475.44 51.43 473.41 51.40 471.39 51.36 C 471.47 50.53 471.64 48.88 471.73 48.06 Z" />
<path fill="#a08a76" opacity="1.00" d=" M 495.56 48.91 C 495.89 49.77 496.22 50.63 496.56 51.49 C 498.92 51.76 501.29 52.04 503.66 52.37 C 502.51 53.29 501.34 54.18 500.19 55.08 C 498.52 54.83 496.85 54.84 495.17 54.79 C 495.10 54.28 494.94 53.26 494.87 52.75 C 494.97 52.04 495.09 51.33 495.23 50.62 C 495.31 50.19 495.48 49.34 495.56 48.91 Z" />
<path fill="#e34631" opacity="1.00" d=" M 506.91 50.16 C 508.65 50.33 510.40 50.52 512.15 50.73 C 511.92 53.16 511.67 55.59 511.21 57.98 C 511.36 56.68 511.22 55.41 510.79 54.17 C 510.49 54.56 509.88 55.35 509.58 55.74 C 507.49 58.77 505.17 61.63 503.00 64.59 C 501.47 63.61 499.95 62.61 498.41 61.65 C 499.85 61.89 501.30 62.12 502.76 62.33 C 503.52 61.25 504.29 60.17 505.06 59.09 C 507.01 56.40 508.98 53.72 510.88 51.00 C 509.55 50.73 508.22 50.45 506.91 50.16 Z" />
<path fill="#b3b1aa" opacity="1.00" d=" M 456.93 51.00 C 461.75 50.59 466.57 51.31 471.39 51.36 C 473.41 51.40 475.44 51.43 477.48 51.47 C 477.44 52.02 477.35 53.10 477.31 53.64 C 477.10 53.54 476.67 53.34 476.45 53.24 C 473.67 51.77 470.45 51.73 467.40 51.44 C 467.79 53.42 468.57 55.30 469.09 57.25 C 468.73 56.11 468.34 54.98 467.93 53.87 C 464.95 53.41 461.99 52.83 458.98 52.61 C 455.43 52.36 451.91 53.71 448.37 52.91 C 451.24 52.38 454.21 52.17 456.93 51.00 Z" />
<path fill="#d93c26" opacity="1.00" d=" M 490.46 54.15 C 492.16 53.14 493.74 51.94 495.23 50.62 C 495.09 51.33 494.97 52.04 494.87 52.75 C 494.05 53.42 493.23 54.08 492.40 54.72 C 491.92 54.58 490.94 54.29 490.46 54.15 Z" />
<path fill="#1f0d0a" opacity="0.55" d=" M 512.15 50.73 C 513.09 53.39 512.95 56.27 512.54 59.02 C 510.81 61.87 508.08 64.09 507.08 67.39 C 505.74 69.08 504.14 70.54 502.42 71.84 C 502.09 71.31 501.41 70.26 501.07 69.73 C 495.97 69.03 490.98 67.69 485.95 66.65 C 484.17 66.17 481.55 66.11 481.15 63.85 C 485.32 64.91 489.49 65.99 493.69 66.93 C 493.95 65.37 494.21 63.82 494.46 62.26 C 494.61 63.86 494.75 65.46 494.90 67.06 C 496.02 67.40 497.14 67.73 498.26 68.06 C 498.45 66.53 498.72 65.01 499.11 63.51 C 499.27 65.06 499.42 66.61 499.55 68.17 C 500.71 68.49 501.88 68.80 503.06 69.10 C 503.31 68.76 503.82 68.09 504.07 67.75 C 506.27 64.82 508.21 61.69 510.54 58.85 C 510.71 58.63 511.04 58.20 511.21 57.98 C 511.67 55.59 511.92 53.16 512.15 50.73 Z" />
<path fill="#a5a59d" opacity="1.00" d=" M 469.09 57.25 C 468.57 55.30 467.79 53.42 467.40 51.44 C 470.45 51.73 473.67 51.77 476.45 53.24 C 476.27 55.24 476.33 57.30 477.32 59.11 L 476.08 59.74 L 475.82 59.64 C 475.63 59.46 475.24 59.10 475.04 58.92 C 473.17 58.80 471.32 58.81 469.46 58.68 C 469.37 58.32 469.18 57.61 469.09 57.25 Z" />
<path fill="#ffffff" opacity="1.00" d=" M 443.03 54.84 C 443.99 54.73 444.95 54.60 445.91 54.52 C 446.25 56.02 446.60 57.51 446.94 59.01 C 447.53 59.27 448.70 59.78 449.29 60.03 C 448.45 60.18 446.77 60.47 445.93 60.61 C 446.80 65.46 447.92 70.26 448.78 75.12 C 449.57 79.54 450.42 83.96 451.01 88.42 C 451.68 93.07 452.38 97.71 453.02 102.37 C 455.03 102.15 457.04 101.88 458.98 101.30 C 464.66 100.09 470.29 98.73 475.94 97.40 C 476.37 97.62 477.25 98.06 477.68 98.28 C 477.11 99.22 476.53 100.15 475.97 101.08 C 472.42 102.09 468.88 103.14 465.34 104.18 C 466.01 104.50 467.36 105.14 468.03 105.46 C 466.31 105.50 464.56 105.37 463.01 104.54 C 461.48 105.04 460.00 105.63 458.47 106.06 C 455.56 105.34 452.63 106.00 449.79 106.65 C 447.69 101.93 447.41 96.69 446.26 91.71 C 445.56 86.63 444.62 81.59 444.04 76.50 C 443.74 69.28 444.57 61.96 443.03 54.84 Z" />
<path fill="#d3d3cb" opacity="1.00" d=" M 488.05 55.35 C 488.85 54.96 489.65 54.56 490.46 54.15 C 490.94 54.29 491.92 54.58 492.40 54.72 C 494.50 55.30 496.63 55.81 498.75 56.36 C 499.02 56.65 499.57 57.23 499.84 57.52 C 499.16 58.31 498.48 59.11 497.81 59.90 C 496.87 59.58 495.93 59.26 494.99 58.95 C 495.44 58.45 496.34 57.44 496.79 56.94 C 493.83 56.66 490.92 56.08 488.05 55.35 Z" />
<path fill="#961e12" opacity="0.98" d=" M 509.58 55.74 C 509.88 55.35 510.49 54.56 510.79 54.17 C 511.22 55.41 511.36 56.68 511.21 57.98 C 511.04 58.20 510.71 58.63 510.54 58.85 C 510.30 58.07 509.82 56.52 509.58 55.74 Z" />
<path fill="#bfc0b9" opacity="1.00" d=" M 445.91 54.52 C 448.20 54.49 450.61 54.20 452.83 54.93 C 454.58 55.85 454.64 58.07 455.38 59.69 C 453.35 59.90 451.32 59.98 449.29 60.03 C 448.70 59.78 447.53 59.27 446.94 59.01 C 446.60 57.51 446.25 56.02 445.91 54.52 Z" />
<path fill="#4d474c" opacity="1.00" d=" M 481.76 57.75 C 482.53 56.63 483.31 55.50 484.12 54.40 C 485.10 54.64 487.07 55.11 488.05 55.35 C 490.92 56.08 493.83 56.66 496.79 56.94 C 496.34 57.44 495.44 58.45 494.99 58.95 C 495.93 59.26 496.87 59.58 497.81 59.90 C 498.48 59.11 499.16 58.31 499.84 57.52 C 501.44 58.43 503.28 58.72 505.06 59.09 C 504.29 60.17 503.52 61.25 502.76 62.33 C 501.30 62.12 499.85 61.89 498.41 61.65 C 492.91 60.14 487.30 59.11 481.76 57.75 Z" />
<path fill="#3c2f21" opacity="1.00" d=" M 439.01 65.01 C 438.30 61.70 437.68 58.22 438.90 54.94 C 440.91 67.89 443.04 80.82 445.11 93.75 C 445.00 94.97 444.86 96.18 444.70 97.39 C 443.20 86.54 441.35 75.72 439.01 65.01 Z" />
<path fill="#b3b6b1" opacity="1.00" d=" M 459.21 56.36 C 460.74 55.77 462.43 56.06 464.04 55.96 C 464.29 56.47 464.80 57.49 465.05 58.00 C 463.29 57.58 459.09 59.10 459.21 56.36 Z" />
<path fill="#a94031" opacity="1.00" d=" M 503.00 64.59 C 505.17 61.63 507.49 58.77 509.58 55.74 C 509.82 56.52 510.30 58.07 510.54 58.85 C 508.21 61.69 506.27 64.82 504.07 67.75 C 503.70 66.70 503.34 65.64 503.00 64.59 Z" />
<path fill="#e34631" opacity="1.00" d=" M 507.08 67.39 C 510.67 63.58 513.98 59.35 518.00 56.02 C 532.36 58.60 546.53 62.22 560.84 65.14 C 562.05 65.43 563.27 65.74 564.49 66.08 C 564.51 66.44 564.56 67.18 564.58 67.54 C 564.24 67.89 563.54 68.58 563.19 68.93 C 559.87 71.76 557.85 75.69 555.26 79.13 C 552.45 83.15 549.16 86.86 546.99 91.29 C 546.77 91.76 546.31 92.70 546.08 93.18 C 538.54 93.25 531.60 89.53 524.09 89.45 C 522.62 88.97 521.14 88.50 519.67 88.09 C 516.02 86.52 512.19 85.15 508.15 85.49 C 506.73 85.52 505.36 85.23 504.10 84.62 C 501.24 82.80 497.96 81.92 494.73 81.05 C 496.83 77.75 500.03 75.33 502.17 72.04 L 502.42 71.84 C 504.14 70.54 505.74 69.08 507.08 67.39 M 514.75 68.76 C 513.95 69.74 513.16 70.72 512.37 71.70 C 516.42 72.65 520.47 73.58 524.50 74.62 C 523.65 74.75 521.94 75.00 521.09 75.13 C 520.71 75.66 519.94 76.73 519.56 77.27 C 521.04 77.90 522.54 78.48 524.09 78.96 L 524.77 78.93 C 526.13 79.16 527.51 79.39 528.89 79.61 C 529.60 78.98 530.31 78.35 531.03 77.71 C 530.22 77.02 529.40 76.35 528.58 75.70 C 529.47 75.85 531.25 76.14 532.14 76.29 C 533.16 75.36 534.18 74.44 535.12 73.43 C 535.18 74.00 535.30 75.15 535.35 75.72 C 536.62 75.91 537.90 76.11 539.18 76.31 C 540.85 75.13 542.86 73.94 542.91 71.62 C 541.55 71.29 540.20 70.96 538.85 70.63 C 538.02 71.46 537.19 72.28 536.38 73.11 L 535.85 72.27 C 537.17 70.10 538.98 68.27 540.35 66.11 C 540.85 65.18 541.37 64.26 541.90 63.34 C 539.22 62.74 536.56 62.06 533.84 61.67 C 532.14 61.06 531.61 63.23 530.77 64.17 C 527.46 63.51 524.18 62.73 520.91 61.92 C 518.84 64.19 516.83 66.50 514.75 68.76 M 535.79 85.17 C 535.00 86.15 534.22 87.13 533.46 88.12 C 537.07 89.25 540.74 90.73 544.57 90.70 C 544.67 90.23 544.86 89.29 544.95 88.82 C 545.83 87.56 546.79 86.35 547.79 85.18 C 544.66 83.69 541.12 83.54 537.81 82.68 C 537.11 83.49 536.43 84.32 535.79 85.17 Z" />
<path fill="#5d5951" opacity="1.00" d=" M 477.32 59.11 C 477.96 60.79 478.44 62.47 479.09 64.17 C 479.97 62.67 480.25 60.97 480.48 59.27 C 481.16 60.70 481.02 62.32 481.15 63.85 C 480.67 64.21 479.72 64.93 479.24 65.29 C 481.63 73.94 483.74 82.74 484.63 91.69 C 484.58 92.13 484.46 93.00 484.40 93.43 L 484.00 92.70 C 481.41 81.77 480.87 70.06 476.08 59.74 L 477.32 59.11 Z" />
<path fill="#090907" opacity="1.00" d=" M 445.93 60.61 C 446.77 60.47 448.45 60.18 449.29 60.03 C 451.32 59.98 453.35 59.90 455.38 59.69 C 462.17 59.11 469.03 59.03 475.82 59.64 L 476.08 59.74 C 480.87 70.06 481.41 81.77 484.00 92.70 C 484.06 93.28 484.18 94.44 484.23 95.02 C 482.60 95.67 480.91 96.21 479.20 96.60 C 475.03 96.03 470.57 95.26 467.58 92.01 C 468.75 91.79 469.93 91.58 471.11 91.35 C 473.57 90.91 476.02 90.43 478.47 89.94 C 479.46 89.73 480.46 89.52 481.46 89.31 C 481.07 87.02 480.55 84.76 479.69 82.61 C 479.60 82.35 479.42 81.83 479.33 81.57 C 479.29 80.71 479.30 79.85 479.27 78.99 C 478.87 75.92 478.10 72.91 477.32 69.92 C 476.99 68.69 476.60 67.49 476.17 66.30 C 474.88 66.39 473.61 66.52 472.35 66.70 L 471.82 67.53 C 471.67 67.86 471.38 68.50 471.23 68.83 C 471.12 68.24 470.90 67.06 470.79 66.47 C 469.17 66.45 467.55 66.49 465.94 66.50 C 465.54 66.54 464.72 66.61 464.32 66.64 C 461.75 66.77 459.20 67.10 456.68 67.56 C 454.59 67.66 452.50 67.68 450.42 67.69 C 450.16 69.36 450.20 71.02 450.75 72.64 C 450.94 73.34 451.31 74.73 451.50 75.43 C 450.58 75.34 449.68 75.24 448.78 75.12 C 447.92 70.26 446.80 65.46 445.93 60.61 Z" />
<path fill="#eae9ee" opacity="1.00" d=" M 514.75 68.76 C 516.83 66.50 518.84 64.19 520.91 61.92 C 524.18 62.73 527.46 63.51 530.77 64.17 C 533.95 64.86 537.14 65.52 540.35 66.11 C 538.98 68.27 537.17 70.10 535.85 72.27 C 535.69 72.53 535.37 73.03 535.21 73.29 C 534.66 73.23 533.56 73.12 533.01 73.07 C 532.17 72.69 530.49 71.95 529.66 71.58 C 528.47 70.86 527.34 70.05 526.21 69.27 C 528.90 69.88 531.57 69.40 533.51 67.36 C 531.20 66.95 528.88 66.64 526.55 66.45 C 526.27 65.53 525.99 64.60 525.71 63.68 C 525.63 64.20 525.48 65.25 525.40 65.77 C 524.03 66.55 522.69 67.38 521.50 68.40 C 520.72 68.79 519.94 69.15 519.15 69.49 C 518.59 69.43 517.46 69.30 516.90 69.23 C 516.37 69.11 515.29 68.88 514.75 68.76 Z" />
<path fill="#be1502" opacity="1.00" d=" M 530.77 64.17 C 531.61 63.23 532.14 61.06 533.84 61.67 C 536.56 62.06 539.22 62.74 541.90 63.34 C 541.37 64.26 540.85 65.18 540.35 66.11 C 537.14 65.52 533.95 64.86 530.77 64.17 Z" />
<path fill="#837d3b" opacity="1.00" d=" M 525.71 63.68 C 525.99 64.60 526.27 65.53 526.55 66.45 C 528.88 66.64 531.20 66.95 533.51 67.36 C 531.57 69.40 528.90 69.88 526.21 69.27 L 525.92 69.06 C 525.66 68.84 525.15 68.38 524.89 68.15 C 525.11 67.37 525.27 66.57 525.40 65.77 C 525.48 65.25 525.63 64.20 525.71 63.68 Z" />
<path fill="#1a0a08" opacity="0.59" d=" M 560.84 65.14 C 562.81 65.52 565.61 65.58 565.62 68.27 C 565.43 73.29 567.79 79.03 564.57 83.49 C 558.99 91.60 553.53 99.81 547.99 107.94 C 547.27 109.23 545.52 108.47 544.40 108.38 C 528.78 104.32 513.19 100.08 497.53 96.16 C 496.35 95.77 495.60 94.65 494.68 93.90 C 504.58 96.45 514.44 99.20 524.39 101.60 C 530.70 103.23 537.00 104.90 543.28 106.63 C 544.20 106.86 545.13 107.09 546.07 107.30 C 546.24 107.08 546.58 106.64 546.75 106.42 C 552.34 98.74 557.40 90.68 562.86 82.90 C 566.57 78.62 564.47 72.64 564.58 67.54 C 564.56 67.18 564.51 66.44 564.49 66.08 C 563.27 65.74 562.05 65.43 560.84 65.14 Z" />
<path fill="#c44f3f" opacity="1.00" d=" M 521.50 68.40 C 522.69 67.38 524.03 66.55 525.40 65.77 C 525.27 66.57 525.11 67.37 524.89 68.15 C 524.33 68.44 523.20 69.01 522.64 69.30 C 522.36 69.07 521.79 68.62 521.50 68.40 Z" />
<path fill="#4149a3" opacity="1.00" d=" M 456.68 67.56 C 459.20 67.10 461.75 66.77 464.32 66.64 C 464.30 67.23 464.26 68.40 464.24 68.98 C 462.09 69.56 459.82 69.95 457.66 69.22 L 456.68 67.56 Z" />
<path fill="#7b7468" opacity="1.00" d=" M 464.32 66.64 C 464.72 66.61 465.54 66.54 465.94 66.50 C 466.32 68.00 465.75 68.82 464.24 68.98 C 464.26 68.40 464.30 67.23 464.32 66.64 Z" />
<path fill="#161889" opacity="1.00" d=" M 465.94 66.50 C 467.55 66.49 469.17 66.45 470.79 66.47 C 470.90 67.06 471.12 68.24 471.23 68.83 C 471.40 69.18 471.72 69.88 471.88 70.22 L 472.13 70.57 C 471.84 71.72 471.55 72.88 471.26 74.03 C 470.92 72.96 470.60 71.88 470.30 70.80 C 470.42 69.25 468.59 68.43 467.87 70.01 C 466.86 71.09 465.79 72.11 464.73 73.13 C 465.59 73.92 466.47 74.70 467.36 75.49 L 466.64 75.55 C 466.23 75.50 465.41 75.39 465.00 75.34 C 464.04 76.10 463.09 76.87 462.14 77.63 C 461.71 77.67 460.84 77.76 460.41 77.80 L 459.61 78.08 C 459.32 78.17 458.76 78.37 458.48 78.46 C 457.85 75.55 454.87 74.99 452.36 75.43 C 452.14 75.43 451.71 75.43 451.50 75.43 C 451.31 74.73 450.94 73.34 450.75 72.64 C 453.02 71.45 455.31 70.28 457.66 69.22 C 459.82 69.95 462.09 69.56 464.24 68.98 C 465.75 68.82 466.32 68.00 465.94 66.50 Z" />
<path fill="#232482" opacity="1.00" d=" M 472.35 66.70 C 473.61 66.52 474.88 66.39 476.17 66.30 C 476.16 68.10 476.21 69.90 476.31 71.69 C 475.70 71.32 474.48 70.58 473.87 70.20 C 473.65 69.87 473.21 69.21 472.99 68.88 C 472.70 68.54 472.11 67.87 471.82 67.53 L 472.35 66.70 Z" />
<path fill="#e2e2e2" opacity="1.00" d=" M 476.17 66.30 C 476.60 67.49 476.99 68.69 477.32 69.92 C 477.35 70.39 477.41 71.32 477.44 71.78 C 476.81 71.75 475.55 71.67 474.92 71.64 C 474.66 71.28 474.13 70.56 473.87 70.20 C 474.48 70.58 475.70 71.32 476.31 71.69 C 476.21 69.90 476.16 68.10 476.17 66.30 Z" />
<path fill="#764e61" opacity="1.00" d=" M 450.75 72.64 C 450.20 71.02 450.16 69.36 450.42 67.69 C 452.50 67.68 454.59 67.66 456.68 67.56 L 457.66 69.22 C 455.31 70.28 453.02 71.45 450.75 72.64 Z" />
<path fill="#5f573f" opacity="1.00" d=" M 471.82 67.53 C 472.11 67.87 472.70 68.54 472.99 68.88 C 472.71 69.21 472.16 69.89 471.88 70.22 C 471.72 69.88 471.40 69.18 471.23 68.83 C 471.38 68.50 471.67 67.86 471.82 67.53 Z" />
<path fill="#babcb3" opacity="1.00" d=" M 519.15 69.49 C 519.94 69.15 520.72 68.79 521.50 68.40 C 521.79 68.62 522.36 69.07 522.64 69.30 C 523.49 70.29 525.48 70.68 525.92 69.06 L 526.21 69.27 C 527.34 70.05 528.47 70.86 529.66 71.58 C 528.98 72.40 528.31 73.23 527.64 74.05 C 527.19 73.88 526.29 73.53 525.84 73.35 C 525.79 72.81 525.69 71.72 525.64 71.18 C 522.70 70.68 519.79 69.97 516.90 69.23 C 517.46 69.30 518.59 69.43 519.15 69.49 Z" />
<path fill="#eae9ee" opacity="1.00" d=" M 522.64 69.30 C 523.20 69.01 524.33 68.44 524.89 68.15 C 525.15 68.38 525.66 68.84 525.92 69.06 C 525.48 70.68 523.49 70.29 522.64 69.30 Z" />
<path fill="#a94031" opacity="1.00" d=" M 563.19 68.93 C 563.54 68.58 564.24 67.89 564.58 67.54 C 564.47 72.64 566.57 78.62 562.86 82.90 C 557.40 90.68 552.34 98.74 546.75 106.42 C 546.36 102.02 545.92 97.60 546.08 93.18 C 546.31 92.70 546.77 91.76 546.99 91.29 C 553.10 84.40 558.13 76.61 563.19 68.93 Z" />
<path fill="#594d62" opacity="1.00" d=" M 467.87 70.01 C 468.59 68.43 470.42 69.25 470.30 70.80 C 469.69 70.60 468.48 70.21 467.87 70.01 Z" />
<path fill="#3c2f21" opacity="1.00" d=" M 472.99 68.88 C 473.21 69.21 473.65 69.87 473.87 70.20 C 474.13 70.56 474.66 71.28 474.92 71.64 C 475.60 72.51 476.31 73.37 477.03 74.22 C 477.00 74.54 476.95 75.18 476.92 75.50 C 476.40 77.81 474.90 79.47 472.65 80.20 C 471.55 76.98 474.85 73.38 472.13 70.57 L 471.88 70.22 C 472.16 69.89 472.71 69.21 472.99 68.88 Z" />
<path fill="#443f43" opacity="1.00" d=" M 512.37 71.70 C 513.16 70.72 513.95 69.74 514.75 68.76 C 515.29 68.88 516.37 69.11 516.90 69.23 C 519.79 69.97 522.70 70.68 525.64 71.18 C 525.69 71.72 525.79 72.81 525.84 73.35 C 526.29 73.53 527.19 73.88 527.64 74.05 C 529.59 75.21 531.63 74.91 533.01 73.07 C 533.56 73.12 534.66 73.23 535.21 73.29 L 535.12 73.43 C 534.18 74.44 533.16 75.36 532.14 76.29 C 531.25 76.14 529.47 75.85 528.58 75.70 L 528.51 75.65 C 527.90 75.48 526.68 75.14 526.07 74.97 C 525.68 74.88 524.89 74.71 524.50 74.62 C 520.47 73.58 516.42 72.65 512.37 71.70 Z" />
<path fill="#be1502" opacity="1.00" d=" M 555.26 79.13 C 557.85 75.69 559.87 71.76 563.19 68.93 C 558.13 76.61 553.10 84.40 546.99 91.29 C 549.16 86.86 552.45 83.15 555.26 79.13 Z" />
<path fill="#3c3339" opacity="1.00" d=" M 467.87 70.01 C 468.48 70.21 469.69 70.60 470.30 70.80 C 470.60 71.88 470.92 72.96 471.26 74.03 C 470.73 74.30 469.67 74.82 469.14 75.09 C 468.69 75.19 467.80 75.39 467.36 75.49 C 466.47 74.70 465.59 73.92 464.73 73.13 C 465.79 72.11 466.86 71.09 467.87 70.01 Z" />
<path fill="#3a3d7d" opacity="1.00" d=" M 477.32 69.92 C 478.10 72.91 478.87 75.92 479.27 78.99 C 478.63 79.00 477.35 79.00 476.71 79.00 C 476.76 78.13 476.87 76.37 476.92 75.50 C 476.95 75.18 477.00 74.54 477.03 74.22 C 476.31 73.37 475.60 72.51 474.92 71.64 C 475.55 71.67 476.81 71.75 477.44 71.78 C 477.41 71.32 477.35 70.39 477.32 69.92 Z" />
<path fill="#5d5951" opacity="1.00" d=" M 472.13 70.57 C 474.85 73.38 471.55 76.98 472.65 80.20 C 472.97 80.62 473.63 81.44 473.96 81.86 C 472.14 84.98 468.19 84.31 465.14 84.60 L 464.39 84.18 C 465.56 83.52 466.74 82.89 467.95 82.28 C 467.54 81.16 467.13 80.04 466.72 78.93 C 467.94 79.54 469.22 80.06 470.51 80.54 C 469.78 79.80 469.20 78.97 468.76 78.04 C 468.62 77.54 468.36 76.54 468.22 76.04 L 469.14 75.09 C 469.67 74.82 470.73 74.30 471.26 74.03 C 471.55 72.88 471.84 71.72 472.13 70.57 Z" />
<path fill="#a80902" opacity="1.00" d=" M 536.38 73.11 C 537.19 72.28 538.02 71.46 538.85 70.63 C 540.20 70.96 541.55 71.29 542.91 71.62 C 542.86 73.94 540.85 75.13 539.18 76.31 C 537.90 76.11 536.62 75.91 535.35 75.72 C 535.30 75.15 535.18 74.00 535.12 73.43 L 535.21 73.29 C 535.37 73.03 535.69 72.53 535.85 72.27 L 536.38 73.11 Z" />
<path fill="#8a756e" opacity="1.00" d=" M 527.64 74.05 C 528.31 73.23 528.98 72.40 529.66 71.58 C 530.49 71.95 532.17 72.69 533.01 73.07 C 531.63 74.91 529.59 75.21 527.64 74.05 Z" />
<path fill="#222021" opacity="1.00" d=" M 448.78 75.12 C 449.68 75.24 450.58 75.34 451.50 75.43 C 451.71 75.43 452.14 75.43 452.36 75.43 C 452.45 76.92 452.59 78.42 452.73 79.91 C 453.01 82.69 453.38 85.47 453.88 88.22 C 452.92 88.29 451.96 88.36 451.01 88.42 C 450.42 83.96 449.57 79.54 448.78 75.12 Z" />
<path fill="#4f4949" opacity="1.00" d=" M 452.36 75.43 C 454.87 74.99 457.85 75.55 458.48 78.46 C 457.91 78.57 456.77 78.79 456.21 78.90 C 456.15 79.47 456.11 80.03 456.07 80.60 C 455.94 82.32 455.68 84.01 455.14 85.64 C 455.30 83.86 455.50 82.07 455.58 80.28 C 454.87 80.19 453.44 80.00 452.73 79.91 C 452.59 78.42 452.45 76.92 452.36 75.43 Z" />
<path fill="#aaa1b3" opacity="1.00" d=" M 465.00 75.34 C 465.41 75.39 466.23 75.50 466.64 75.55 L 467.36 75.49 C 467.80 75.39 468.69 75.19 469.14 75.09 L 468.22 76.04 C 467.06 77.13 467.24 77.80 468.76 78.04 C 469.20 78.97 469.78 79.80 470.51 80.54 C 469.22 80.06 467.94 79.54 466.72 78.93 C 466.41 79.02 465.78 79.20 465.47 79.28 C 465.32 80.15 465.19 81.02 465.07 81.89 C 463.35 81.83 461.64 81.79 459.93 81.60 C 459.85 80.72 459.69 78.96 459.61 78.08 L 460.41 77.80 C 460.84 77.76 461.71 77.67 462.14 77.63 C 463.09 76.87 464.04 76.10 465.00 75.34 Z" />
<path fill="#be1000" opacity="1.00" d=" M 521.09 75.13 C 521.94 75.00 523.65 74.75 524.50 74.62 C 524.89 74.71 525.68 74.88 526.07 74.97 C 526.68 75.14 527.90 75.48 528.51 75.65 L 528.58 75.70 C 529.40 76.35 530.22 77.02 531.03 77.71 C 530.31 78.35 529.60 78.98 528.89 79.61 C 527.51 79.39 526.13 79.16 524.77 78.93 C 525.89 78.09 524.55 74.96 523.73 77.12 C 523.82 77.58 524.00 78.50 524.09 78.96 C 522.54 78.48 521.04 77.90 519.56 77.27 C 519.94 76.73 520.71 75.66 521.09 75.13 Z" />
<path fill="#c53e2f" opacity="1.00" d=" M 526.07 74.97 C 526.68 75.14 527.90 75.48 528.51 75.65 C 527.90 75.48 526.68 75.14 526.07 74.97 Z" />
<path fill="#332e2c" opacity="1.00" d=" M 468.76 78.04 C 467.24 77.80 467.06 77.13 468.22 76.04 C 468.36 76.54 468.62 77.54 468.76 78.04 Z" />
<path fill="#8e8f92" opacity="1.00" d=" M 472.65 80.20 C 474.90 79.47 476.40 77.81 476.92 75.50 C 476.87 76.37 476.76 78.13 476.71 79.00 C 477.35 79.00 478.63 79.00 479.27 78.99 C 479.30 79.85 479.29 80.71 479.33 81.57 C 479.42 81.83 479.60 82.35 479.69 82.61 C 479.05 82.63 477.77 82.68 477.13 82.71 C 476.49 83.63 475.84 84.54 475.19 85.44 C 471.87 85.37 468.13 86.45 465.14 84.60 C 468.19 84.31 472.14 84.98 473.96 81.86 C 473.63 81.44 472.97 80.62 472.65 80.20 Z" />
<path fill="#6e1508" opacity="1.00" d=" M 523.73 77.12 C 524.55 74.96 525.89 78.09 524.77 78.93 L 524.09 78.96 C 524.00 78.50 523.82 77.58 523.73 77.12 Z" />
<path fill="#3d6d8e" opacity="1.00" d=" M 456.21 78.90 C 456.77 78.79 457.91 78.57 458.48 78.46 C 458.76 78.37 459.32 78.17 459.61 78.08 C 459.69 78.96 459.85 80.72 459.93 81.60 C 458.97 81.35 457.03 80.85 456.07 80.60 C 456.11 80.03 456.15 79.47 456.21 78.90 Z" />
<path fill="#94a8b9" opacity="1.00" d=" M 465.47 79.28 C 465.78 79.20 466.41 79.02 466.72 78.93 C 467.13 80.04 467.54 81.16 467.95 82.28 C 466.74 82.89 465.56 83.52 464.39 84.18 C 461.33 86.54 457.55 87.32 453.88 88.22 C 453.38 85.47 453.01 82.69 452.73 79.91 C 453.44 80.00 454.87 80.19 455.58 80.28 C 455.50 82.07 455.30 83.86 455.14 85.64 C 455.68 84.01 455.94 82.32 456.07 80.60 C 457.03 80.85 458.97 81.35 459.93 81.60 C 461.64 81.79 463.35 81.83 465.07 81.89 C 465.19 81.02 465.32 80.15 465.47 79.28 Z" />
<path fill="#c93115" opacity="1.00" d=" M 494.73 81.05 C 497.96 81.92 501.24 82.80 504.10 84.62 C 503.47 84.63 502.20 84.67 501.56 84.69 C 501.42 84.71 501.12 84.75 500.97 84.77 C 503.54 85.88 506.33 86.31 509.06 86.88 C 508.83 86.54 508.38 85.84 508.15 85.49 C 512.19 85.15 516.02 86.52 519.67 88.09 C 519.26 88.16 518.46 88.30 518.05 88.36 C 517.26 88.33 515.68 88.25 514.89 88.21 C 514.10 86.84 512.52 86.29 511.03 86.30 C 509.39 86.57 509.38 87.10 510.98 87.87 L 511.73 88.11 C 516.01 89.46 520.38 90.51 524.71 91.69 C 524.54 91.12 524.39 90.56 524.24 90.00 L 524.09 89.45 C 531.60 89.53 538.54 93.25 546.08 93.18 C 545.92 97.60 546.36 102.02 546.75 106.42 C 546.58 106.64 546.24 107.08 546.07 107.30 C 545.13 107.09 544.20 106.86 543.28 106.63 C 543.40 106.13 543.64 105.14 543.76 104.65 C 544.39 101.53 544.45 98.32 544.11 95.17 L 543.18 94.60 C 542.01 93.83 540.55 93.78 539.22 93.64 C 538.21 93.42 537.21 93.17 536.22 92.91 C 534.82 92.37 533.35 92.10 531.88 91.96 C 531.45 91.87 530.61 91.70 530.19 91.62 C 530.18 93.30 530.17 94.99 530.26 96.68 L 529.44 96.57 C 529.04 96.50 528.25 96.36 527.85 96.28 L 527.40 96.20 C 526.68 97.72 526.75 99.51 527.39 101.05 C 526.64 101.18 525.14 101.46 524.39 101.60 C 514.44 99.20 504.58 96.45 494.68 93.90 C 494.69 89.62 494.77 85.34 494.73 81.05 M 497.15 88.53 L 497.85 89.91 C 497.34 89.95 496.31 90.03 495.80 90.07 C 496.11 90.50 496.73 91.34 497.03 91.77 C 504.34 93.59 511.74 95.08 518.95 97.29 C 520.67 97.71 522.55 98.50 524.27 97.59 C 524.34 97.52 524.48 97.38 524.55 97.31 L 525.46 96.24 L 524.38 95.64 L 524.94 94.21 C 522.44 93.46 519.85 92.99 517.24 92.95 L 518.17 93.77 C 511.11 92.22 504.18 90.19 497.15 88.53 Z" />
<path fill="#2c93a8" opacity="1.00" d=" M 475.19 85.44 C 475.84 84.54 476.49 83.63 477.13 82.71 C 477.77 82.68 479.05 82.63 479.69 82.61 C 480.55 84.76 481.07 87.02 481.46 89.31 C 480.46 89.52 479.46 89.73 478.47 89.94 C 477.68 88.78 476.89 87.62 476.12 86.46 C 472.89 86.39 469.87 87.56 466.88 88.60 C 465.31 89.08 463.77 89.61 462.24 90.17 C 459.60 90.66 456.95 91.11 454.41 91.94 C 454.23 90.70 454.06 89.46 453.88 88.22 C 457.55 87.32 461.33 86.54 464.39 84.18 L 465.14 84.60 C 468.13 86.45 471.87 85.37 475.19 85.44 Z" />
<path fill="#e2e2e2" opacity="1.00" d=" M 535.79 85.17 C 536.43 84.32 537.11 83.49 537.81 82.68 C 541.12 83.54 544.66 83.69 547.79 85.18 C 546.79 86.35 545.83 87.56 544.95 88.82 C 543.39 88.79 541.83 88.76 540.29 88.65 L 539.72 87.52 C 542.16 87.58 544.81 87.78 546.71 85.85 C 544.69 85.65 542.70 85.51 540.70 85.35 C 540.33 85.07 539.59 84.52 539.22 84.24 C 538.95 84.38 538.39 84.66 538.12 84.80 C 537.63 85.20 536.64 86.00 536.15 86.39 L 535.79 85.17 Z" />
<path fill="#302f2c" opacity="1.00" d=" M 500.97 84.77 C 501.12 84.75 501.42 84.71 501.56 84.69 C 501.42 84.71 501.12 84.75 500.97 84.77 Z" />
<path fill="#2c93a8" opacity="1.00" d=" M 501.56 84.69 C 502.20 84.67 503.47 84.63 504.10 84.62 C 505.36 85.23 506.73 85.52 508.15 85.49 C 508.38 85.84 508.83 86.54 509.06 86.88 C 506.33 86.31 503.54 85.88 500.97 84.77 C 501.12 84.75 501.42 84.71 501.56 84.69 Z" />
<path fill="#61381e" opacity="1.00" d=" M 538.12 84.80 C 538.39 84.66 538.95 84.38 539.22 84.24 C 539.59 84.52 540.33 85.07 540.70 85.35 C 542.70 85.51 544.69 85.65 546.71 85.85 C 544.81 87.78 542.16 87.58 539.72 87.52 C 539.63 87.35 539.46 87.01 539.38 86.84 L 539.01 86.12 C 538.79 85.79 538.34 85.13 538.12 84.80 Z" />
<path fill="#8e8f92" opacity="1.00" d=" M 533.46 88.12 C 534.22 87.13 535.00 86.15 535.79 85.17 L 536.15 86.39 C 536.32 86.66 536.66 87.20 536.82 87.47 C 537.96 88.44 538.82 88.23 539.38 86.84 C 539.46 87.01 539.63 87.35 539.72 87.52 L 540.29 88.65 C 541.83 88.76 543.39 88.79 544.95 88.82 C 544.86 89.29 544.67 90.23 544.57 90.70 C 540.74 90.73 537.07 89.25 533.46 88.12 Z" />
<path fill="#d93c26" opacity="1.00" d=" M 536.15 86.39 C 536.64 86.00 537.63 85.20 538.12 84.80 C 538.34 85.13 538.79 85.79 539.01 86.12 C 538.47 86.45 537.37 87.13 536.82 87.47 C 536.66 87.20 536.32 86.66 536.15 86.39 Z" />
<path fill="#321511" opacity="1.00" d=" M 510.98 87.87 C 509.38 87.10 509.39 86.57 511.03 86.30 C 511.02 86.69 510.99 87.48 510.98 87.87 Z" />
<path fill="#836254" opacity="1.00" d=" M 511.03 86.30 C 512.52 86.29 514.10 86.84 514.89 88.21 C 514.10 88.19 512.52 88.14 511.73 88.11 L 510.98 87.87 C 510.99 87.48 511.02 86.69 511.03 86.30 Z" />
<path fill="#ffffff" opacity="1.00" d=" M 536.82 87.47 C 537.37 87.13 538.47 86.45 539.01 86.12 L 539.38 86.84 C 538.82 88.23 537.96 88.44 536.82 87.47 Z" />
<path fill="#71a5b1" opacity="1.00" d=" M 466.88 88.60 C 469.87 87.56 472.89 86.39 476.12 86.46 C 476.89 87.62 477.68 88.78 478.47 89.94 C 476.02 90.43 473.57 90.91 471.11 91.35 C 470.80 90.66 470.50 89.96 470.20 89.27 C 469.09 89.03 467.98 88.81 466.88 88.60 Z" />
<path fill="#494a4f" opacity="1.00" d=" M 451.01 88.42 C 451.96 88.36 452.92 88.29 453.88 88.22 C 454.06 89.46 454.23 90.70 454.41 91.94 C 454.49 92.53 454.65 93.69 454.74 94.28 C 455.33 94.21 456.52 94.07 457.11 94.00 C 455.99 94.61 454.22 94.61 453.72 95.96 C 453.57 97.66 453.72 99.37 453.80 101.07 C 455.52 101.10 457.26 101.17 458.98 101.30 C 457.04 101.88 455.03 102.15 453.02 102.37 C 452.38 97.71 451.68 93.07 451.01 88.42 Z" />
<path fill="#201f21" opacity="1.00" d=" M 511.73 88.11 C 512.52 88.14 514.10 88.19 514.89 88.21 C 515.68 88.25 517.26 88.33 518.05 88.36 C 519.62 89.89 522.12 90.64 524.24 90.00 C 524.39 90.56 524.54 91.12 524.71 91.69 C 520.38 90.51 516.01 89.46 511.73 88.11 Z" />
<path fill="#a08a76" opacity="1.00" d=" M 518.05 88.36 C 518.46 88.30 519.26 88.16 519.67 88.09 C 521.14 88.50 522.62 88.97 524.09 89.45 L 524.24 90.00 C 522.12 90.64 519.62 89.89 518.05 88.36 Z" />
<path fill="#91aab5" opacity="1.00" d=" M 462.24 90.17 C 463.77 89.61 465.31 89.08 466.88 88.60 C 467.98 88.81 469.09 89.03 470.20 89.27 C 470.50 89.96 470.80 90.66 471.11 91.35 C 469.93 91.58 468.75 91.79 467.58 92.01 C 464.08 92.60 460.61 93.40 457.11 94.00 C 456.52 94.07 455.33 94.21 454.74 94.28 C 454.65 93.69 454.49 92.53 454.41 91.94 C 456.73 92.03 459.07 92.06 461.39 91.72 L 462.24 90.17 Z" />
<path fill="#1b1918" opacity="1.00" d=" M 497.15 88.53 C 504.18 90.19 511.11 92.22 518.17 93.77 C 520.25 94.35 522.35 94.88 524.38 95.64 L 525.46 96.24 C 516.05 95.18 507.16 91.55 497.85 89.91 L 497.15 88.53 Z" />
<path fill="#787678" opacity="1.00" d=" M 454.41 91.94 C 456.95 91.11 459.60 90.66 462.24 90.17 L 461.39 91.72 C 459.07 92.06 456.73 92.03 454.41 91.94 Z" />
<path fill="#ad5a4a" opacity="1.00" d=" M 495.80 90.07 C 496.31 90.03 497.34 89.95 497.85 89.91 C 507.16 91.55 516.05 95.18 525.46 96.24 L 524.55 97.31 C 524.48 97.38 524.34 97.52 524.27 97.59 C 522.55 98.50 520.67 97.71 518.95 97.29 C 511.74 95.08 504.34 93.59 497.03 91.77 C 496.73 91.34 496.11 90.50 495.80 90.07 Z" />
<path fill="#050404" opacity="0.32" d=" M 484.63 91.69 C 486.24 92.33 486.45 96.21 485.51 97.82 L 484.99 97.70 C 484.74 96.28 484.64 94.85 484.40 93.43 C 484.46 93.00 484.58 92.13 484.63 91.69 Z" />
<path fill="#d3d3cb" opacity="1.00" d=" M 446.26 91.71 C 447.41 96.69 447.69 101.93 449.79 106.65 C 452.63 106.00 455.56 105.34 458.47 106.06 C 457.29 106.37 456.11 106.65 454.93 106.90 C 455.72 108.40 456.40 109.96 456.60 111.66 C 457.75 112.66 458.95 113.62 460.16 114.57 C 458.59 114.58 457.02 114.56 455.47 114.49 L 454.53 114.15 C 453.61 112.03 452.11 110.26 450.36 108.79 C 451.37 111.62 452.87 114.26 454.89 116.49 C 457.14 119.81 461.51 119.85 465.04 120.63 C 460.49 121.67 455.91 122.58 451.40 123.80 C 449.92 119.98 449.10 115.97 448.37 111.95 C 448.14 112.67 447.68 114.09 447.46 114.80 L 447.27 115.46 C 447.63 109.66 447.02 103.87 446.08 98.16 L 446.12 97.10 C 446.13 96.32 446.15 95.55 446.16 94.77 C 446.18 94.01 446.23 92.47 446.26 91.71 Z" />
<path fill="#201f21" opacity="1.00" d=" M 457.11 94.00 C 460.61 93.40 464.08 92.60 467.58 92.01 C 470.57 95.26 475.03 96.03 479.20 96.60 C 478.10 96.86 477.02 97.13 475.94 97.40 C 470.29 98.73 464.66 100.09 458.98 101.30 C 457.26 101.17 455.52 101.10 453.80 101.07 C 453.72 99.37 453.57 97.66 453.72 95.96 C 454.22 94.61 455.99 94.61 457.11 94.00 Z" />
<path fill="#a08a76" opacity="1.00" d=" M 530.19 91.62 C 530.61 91.70 531.45 91.87 531.88 91.96 C 532.64 93.56 535.19 95.21 536.22 92.91 C 537.21 93.17 538.21 93.42 539.22 93.64 L 538.89 94.38 C 538.58 95.08 537.97 96.49 537.66 97.19 C 539.16 97.53 540.63 97.95 542.11 98.41 C 542.47 97.14 542.82 95.87 543.18 94.60 L 544.11 95.17 C 544.45 98.32 544.39 101.53 543.76 104.65 C 543.19 104.44 542.05 104.02 541.48 103.81 C 541.81 103.10 542.13 102.38 542.45 101.66 L 542.10 101.13 C 541.25 100.04 540.22 99.87 539.00 100.62 L 538.55 100.87 C 538.52 101.46 538.45 102.63 538.42 103.22 C 534.84 102.74 531.36 101.80 527.85 101.05 C 528.36 99.51 528.40 97.82 527.85 96.28 C 528.25 96.36 529.04 96.50 529.44 96.57 C 527.77 97.70 530.37 100.90 530.94 98.45 C 530.77 98.00 530.43 97.12 530.26 96.68 C 530.17 94.99 530.18 93.30 530.19 91.62 M 532.11 98.28 C 531.42 100.19 535.46 100.97 535.87 99.21 C 535.02 98.23 533.29 97.62 532.11 98.28 Z" />
<path fill="#624d43" opacity="1.00" d=" M 531.88 91.96 C 533.35 92.10 534.82 92.37 536.22 92.91 C 535.19 95.21 532.64 93.56 531.88 91.96 Z" />
<path fill="#e2e2e5" opacity="1.00" d=" M 484.00 92.70 L 484.40 93.43 C 484.64 94.85 484.74 96.28 484.99 97.70 L 485.51 97.82 C 486.04 98.02 487.09 98.42 487.62 98.62 L 487.00 98.65 C 483.20 97.80 479.66 100.33 475.97 101.08 C 476.53 100.15 477.11 99.22 477.68 98.28 C 477.25 98.06 476.37 97.62 475.94 97.40 C 477.02 97.13 478.10 96.86 479.20 96.60 C 480.91 96.21 482.60 95.67 484.23 95.02 C 484.18 94.44 484.06 93.28 484.00 92.70 Z" />
<path fill="#d54c3b" opacity="1.00" d=" M 517.24 92.95 C 519.85 92.99 522.44 93.46 524.94 94.21 L 524.38 95.64 C 522.35 94.88 520.25 94.35 518.17 93.77 L 517.24 92.95 Z" />
<path fill="#66665b" opacity="1.00" d=" M 439.72 106.98 C 439.73 102.65 440.07 98.34 440.42 94.03 C 441.42 98.71 442.53 103.38 443.47 108.08 C 443.75 104.85 443.67 101.57 444.26 98.37 C 444.73 98.05 445.65 97.42 446.12 97.10 L 446.08 98.16 C 443.79 100.97 444.63 104.68 444.62 108.00 C 444.93 115.10 444.72 122.20 444.67 129.30 C 443.26 126.42 441.64 123.64 440.47 120.66 C 439.99 116.13 439.86 111.54 439.72 106.98 Z" />
<path fill="#c5a89d" opacity="1.00" d=" M 539.22 93.64 C 540.55 93.78 542.01 93.83 543.18 94.60 C 542.17 96.13 539.09 96.94 538.89 94.38 L 539.22 93.64 Z" />
<path fill="#423027" opacity="1.00" d=" M 537.66 97.19 C 537.97 96.49 538.58 95.08 538.89 94.38 C 539.09 96.94 542.17 96.13 543.18 94.60 C 542.82 95.87 542.47 97.14 542.11 98.41 C 540.63 97.95 539.16 97.53 537.66 97.19 Z" />
<path fill="#81261c" opacity="1.00" d=" M 527.40 96.20 L 527.85 96.28 C 528.40 97.82 528.36 99.51 527.85 101.05 L 527.39 101.05 C 526.75 99.51 526.68 97.72 527.40 96.20 Z" />
<path fill="#641a0e" opacity="1.00" d=" M 524.27 97.59 C 524.34 97.52 524.48 97.38 524.55 97.31 C 524.48 97.38 524.34 97.52 524.27 97.59 Z" />
<path fill="#3a3028" opacity="1.00" d=" M 529.44 96.57 L 530.26 96.68 C 530.43 97.12 530.77 98.00 530.94 98.45 C 530.37 100.90 527.77 97.70 529.44 96.57 Z" />
<path fill="#5b5450" opacity="1.00" d=" M 532.11 98.28 C 533.29 97.62 535.02 98.23 535.87 99.21 C 535.46 100.97 531.42 100.19 532.11 98.28 Z" />
<path fill="#453722" opacity="1.00" d=" M 444.62 108.00 C 444.63 104.68 443.79 100.97 446.08 98.16 C 447.02 103.87 447.63 109.66 447.27 115.46 C 446.28 121.42 447.72 127.46 446.72 133.42 C 445.99 132.07 445.19 130.74 444.67 129.30 C 444.72 122.20 444.93 115.10 444.62 108.00 Z" />
<path fill="#7b7c82" opacity="1.00" d=" M 475.97 101.08 C 479.66 100.33 483.20 97.80 487.00 98.65 C 485.19 99.75 483.55 101.10 482.43 102.92 C 479.46 103.80 476.46 104.62 473.58 105.76 L 473.32 106.12 C 472.73 105.95 471.54 105.60 470.95 105.43 C 470.22 105.44 468.76 105.46 468.03 105.46 C 467.36 105.14 466.01 104.50 465.34 104.18 C 468.88 103.14 472.42 102.09 475.97 101.08 Z" />
<path fill="#787870" opacity="1.00" d=" M 487.00 98.65 L 487.62 98.62 C 490.70 99.46 493.08 101.89 495.45 103.94 C 495.57 107.60 492.51 109.41 489.47 110.46 C 490.36 109.03 491.22 107.58 492.12 106.14 C 491.23 106.37 489.46 106.83 488.57 107.06 C 488.89 106.70 489.55 105.98 489.88 105.62 C 491.05 105.33 492.24 105.05 493.43 104.77 C 492.42 102.12 489.72 101.16 487.05 101.51 C 488.26 102.62 489.51 103.73 490.75 104.83 L 489.72 104.87 C 488.37 104.50 486.39 105.99 487.81 107.25 C 487.57 107.31 487.09 107.43 486.85 107.49 C 485.18 106.19 482.75 105.29 482.43 102.92 C 483.55 101.10 485.19 99.75 487.00 98.65 Z" />
<path fill="#090907" opacity="1.00" d=" M 538.55 100.87 L 539.00 100.62 C 539.83 101.77 540.86 101.94 542.10 101.13 L 542.45 101.66 C 542.13 102.38 541.81 103.10 541.48 103.81 C 540.47 103.55 539.44 103.38 538.42 103.22 C 538.45 102.63 538.52 101.46 538.55 100.87 Z" />
<path fill="#e7e0d8" opacity="1.00" d=" M 539.00 100.62 C 540.22 99.87 541.25 100.04 542.10 101.13 C 540.86 101.94 539.83 101.77 539.00 100.62 Z" />
<path fill="#e34631" opacity="1.00" d=" M 524.39 101.60 C 525.14 101.46 526.64 101.18 527.39 101.05 L 527.85 101.05 C 531.36 101.80 534.84 102.74 538.42 103.22 C 539.44 103.38 540.47 103.55 541.48 103.81 C 542.05 104.02 543.19 104.44 543.76 104.65 C 543.64 105.14 543.40 106.13 543.28 106.63 C 537.00 104.90 530.70 103.23 524.39 101.60 Z" />
<path fill="#746b18" opacity="1.00" d=" M 487.05 101.51 C 489.72 101.16 492.42 102.12 493.43 104.77 C 492.24 105.05 491.05 105.33 489.88 105.62 L 489.72 104.87 L 490.75 104.83 C 489.51 103.73 488.26 102.62 487.05 101.51 Z" />
<path fill="#5d2013" opacity="1.00" d=" M 473.58 105.76 C 476.46 104.62 479.46 103.80 482.43 102.92 C 482.75 105.29 485.18 106.19 486.85 107.49 L 485.92 107.72 C 484.26 107.58 482.56 107.27 480.94 107.81 C 480.46 105.75 476.73 107.26 479.22 108.48 C 476.65 110.14 474.89 107.70 473.58 105.76 Z" />
<path fill="#0a0a09" opacity="0.62" d=" M 495.45 103.94 C 495.91 105.52 497.02 107.23 495.62 108.68 C 492.20 112.59 486.49 112.76 482.43 115.74 C 482.76 114.15 483.53 112.75 485.08 112.09 C 486.54 111.55 488.01 111.04 489.47 110.46 C 492.51 109.41 495.57 107.60 495.45 103.94 Z" />
<path fill="#757377" opacity="1.00" d=" M 458.47 106.06 C 460.00 105.63 461.48 105.04 463.01 104.54 C 464.56 105.37 466.31 105.50 468.03 105.46 C 468.76 105.46 470.22 105.44 470.95 105.43 C 471.02 105.94 471.18 106.95 471.26 107.46 C 469.68 107.40 468.10 107.28 466.54 107.18 C 467.45 107.50 469.27 108.16 470.18 108.48 C 469.70 108.64 468.73 108.95 468.25 109.11 C 467.49 109.39 465.96 109.95 465.20 110.23 C 465.13 107.69 461.67 109.15 463.73 110.75 C 461.29 110.70 458.07 108.84 456.60 111.66 C 456.40 109.96 455.72 108.40 454.93 106.90 C 456.11 106.65 457.29 106.37 458.47 106.06 Z" />
<path fill="#2bc04f" opacity="1.00" d=" M 470.95 105.43 C 471.54 105.60 472.73 105.95 473.32 106.12 C 472.81 106.45 471.77 107.12 471.26 107.46 C 471.18 106.95 471.02 105.94 470.95 105.43 Z" />
<path fill="#553a28" opacity="1.00" d=" M 487.81 107.25 C 486.39 105.99 488.37 104.50 489.72 104.87 L 489.88 105.62 C 489.55 105.98 488.89 106.70 488.57 107.06 L 487.81 107.25 Z" />
<path fill="#1b1918" opacity="1.00" d=" M 473.32 106.12 L 473.58 105.76 C 474.89 107.70 476.65 110.14 479.22 108.48 C 479.65 108.31 480.51 107.98 480.94 107.81 C 482.56 107.27 484.26 107.58 485.92 107.72 C 483.25 108.72 480.57 109.68 477.86 110.55 C 476.02 111.12 474.17 111.71 472.32 112.21 C 470.94 111.20 469.68 110.05 468.25 109.11 C 468.73 108.95 469.70 108.64 470.18 108.48 C 469.27 108.16 467.45 107.50 466.54 107.18 C 468.10 107.28 469.68 107.40 471.26 107.46 C 471.77 107.12 472.81 106.45 473.32 106.12 Z" />
<path fill="#86130c" opacity="1.00" d=" M 479.22 108.48 C 476.73 107.26 480.46 105.75 480.94 107.81 C 480.51 107.98 479.65 108.31 479.22 108.48 Z" />
<path fill="#b7b7b2" opacity="1.00" d=" M 487.81 107.25 L 488.57 107.06 C 489.46 106.83 491.23 106.37 492.12 106.14 C 491.22 107.58 490.36 109.03 489.47 110.46 C 488.01 111.04 486.54 111.55 485.08 112.09 C 484.40 112.21 483.03 112.46 482.34 112.58 L 482.48 112.98 C 481.13 113.32 479.78 113.65 478.44 113.98 C 479.17 113.07 479.91 112.15 480.65 111.23 C 479.95 111.06 478.56 110.72 477.86 110.55 C 480.57 109.68 483.25 108.72 485.92 107.72 L 486.85 107.49 C 487.09 107.43 487.57 107.31 487.81 107.25 Z" />
<path fill="#bd5100" opacity="1.00" d=" M 512.46 107.17 C 515.76 107.86 519.05 108.62 522.35 109.36 C 521.60 111.03 520.87 112.70 520.13 114.37 L 519.24 113.53 C 518.53 112.87 517.82 112.20 517.12 111.54 C 516.24 110.73 515.38 109.91 514.51 109.10 C 514.00 108.62 512.97 107.65 512.46 107.17 Z" />
<path fill="#188d17" opacity="0.92" d=" M 512.46 107.17 C 512.97 107.65 514.00 108.62 514.51 109.10 C 513.56 111.31 512.58 113.51 511.57 115.69 C 511.10 115.22 510.14 114.29 509.66 113.83 C 510.54 111.59 511.48 109.37 512.46 107.17 Z" />
<path fill="#8e8f92" opacity="1.00" d=" M 450.36 108.79 C 452.11 110.26 453.61 112.03 454.53 114.15 C 454.62 114.74 454.80 115.91 454.89 116.49 C 452.87 114.26 451.37 111.62 450.36 108.79 Z" />
<path fill="#80512a" opacity="1.00" d=" M 463.73 110.75 C 461.67 109.15 465.13 107.69 465.20 110.23 C 464.83 110.36 464.10 110.62 463.73 110.75 Z" />
<path fill="#3cab40" opacity="1.00" d=" M 514.51 109.10 C 515.38 109.91 516.24 110.73 517.12 111.54 C 516.18 113.74 515.23 115.94 514.43 118.20 C 513.67 117.49 512.90 116.81 512.12 116.15 L 511.57 115.69 C 512.58 113.51 513.56 111.31 514.51 109.10 Z" />
<path fill="#2d7833" opacity="1.00" d=" M 456.60 111.66 C 458.07 108.84 461.29 110.70 463.73 110.75 C 464.10 110.62 464.83 110.36 465.20 110.23 C 465.96 109.95 467.49 109.39 468.25 109.11 C 469.68 110.05 470.94 111.20 472.32 112.21 C 471.43 112.51 469.65 113.10 468.77 113.40 C 468.04 112.95 467.32 112.50 466.60 112.06 C 466.61 112.56 466.63 113.57 466.63 114.08 C 464.47 114.28 462.32 114.51 460.16 114.57 C 458.95 113.62 457.75 112.66 456.60 111.66 Z" />
<path fill="#a34600" opacity="1.00" d=" M 522.35 109.36 C 523.59 109.60 524.84 109.85 526.10 110.09 L 525.92 110.52 C 524.98 112.75 524.03 114.97 523.04 117.17 C 522.68 116.82 521.97 116.13 521.61 115.79 C 521.24 115.43 520.50 114.72 520.13 114.37 C 520.87 112.70 521.60 111.03 522.35 109.36 Z" />
<path fill="#e6e6e6" opacity="1.00" d=" M 472.32 112.21 C 474.17 111.71 476.02 111.12 477.86 110.55 C 478.56 110.72 479.95 111.06 480.65 111.23 C 479.91 112.15 479.17 113.07 478.44 113.98 L 477.74 114.17 C 476.41 114.52 475.07 114.85 473.76 115.22 C 469.26 116.48 464.79 119.43 459.97 118.20 C 457.81 117.98 456.85 115.84 455.47 114.49 C 457.02 114.56 458.59 114.58 460.16 114.57 C 462.32 114.51 464.47 114.28 466.63 114.08 C 466.63 113.57 466.61 112.56 466.60 112.06 C 467.32 112.50 468.04 112.95 468.77 113.40 C 469.65 113.10 471.43 112.51 472.32 112.21 Z" />
<path fill="#1d1811" opacity="0.57" d=" M 523.04 117.17 C 524.03 114.97 524.98 112.75 525.92 110.52 C 527.69 112.91 525.36 115.48 524.64 117.80 C 526.66 120.66 524.99 123.73 523.73 126.51 C 522.28 126.76 520.83 126.99 519.38 127.20 C 518.72 126.55 518.07 125.91 517.42 125.27 C 517.18 125.03 516.70 124.57 516.47 124.33 C 518.23 124.69 520.01 124.97 521.79 125.32 L 522.35 125.48 C 523.23 123.35 524.12 121.24 525.04 119.13 C 524.37 118.48 523.70 117.82 523.04 117.17 Z" />
<path fill="#babcb3" opacity="1.00" d=" M 448.37 111.95 C 449.10 115.97 449.92 119.98 451.40 123.80 C 455.91 122.58 460.49 121.67 465.04 120.63 C 461.51 119.85 457.14 119.81 454.89 116.49 C 454.80 115.91 454.62 114.74 454.53 114.15 L 455.47 114.49 C 456.85 115.84 457.81 117.98 459.97 118.20 C 464.79 119.43 469.26 116.48 473.76 115.22 C 475.40 115.87 477.04 116.54 478.68 117.21 C 471.47 124.79 461.43 130.71 450.72 130.54 C 449.94 127.17 448.93 123.86 447.87 120.57 C 447.70 118.65 447.54 116.72 447.46 114.80 C 447.68 114.09 448.14 112.67 448.37 111.95 Z" />
<path fill="#62bb64" opacity="1.00" d=" M 517.12 111.54 C 517.82 112.20 518.53 112.87 519.24 113.53 C 518.15 115.59 517.07 117.66 516.00 119.73 C 515.61 119.34 514.82 118.58 514.43 118.20 C 515.23 115.94 516.18 113.74 517.12 111.54 Z" />
<path fill="#a5a59d" opacity="1.00" d=" M 478.44 113.98 C 479.78 113.65 481.13 113.32 482.48 112.98 C 482.42 113.68 482.31 115.09 482.26 115.80 L 482.23 116.09 C 481.72 119.45 481.22 122.81 480.67 126.16 C 470.68 129.63 461.02 134.01 451.18 137.90 C 450.91 137.73 450.38 137.38 450.11 137.20 C 448.36 131.84 447.69 126.20 447.87 120.57 C 448.93 123.86 449.94 127.17 450.72 130.54 C 461.43 130.71 471.47 124.79 478.68 117.21 C 477.04 116.54 475.40 115.87 473.76 115.22 C 475.07 114.85 476.41 114.52 477.74 114.17 C 477.87 114.59 478.14 115.42 478.28 115.84 L 478.97 115.84 C 478.83 115.37 478.57 114.44 478.44 113.98 Z" />
<path fill="#323232" opacity="1.00" d=" M 477.74 114.17 L 478.44 113.98 C 478.57 114.44 478.83 115.37 478.97 115.84 L 478.28 115.84 C 478.14 115.42 477.87 114.59 477.74 114.17 Z" />
<path fill="#88cc8c" opacity="1.00" d=" M 516.00 119.73 C 517.07 117.66 518.15 115.59 519.24 113.53 L 520.13 114.37 C 520.50 114.72 521.24 115.43 521.61 115.79 C 520.75 118.06 519.88 120.32 518.98 122.58 C 517.98 121.63 516.99 120.68 516.00 119.73 Z" />
<path fill="#807e73" opacity="0.98" d=" M 447.27 115.46 L 447.46 114.80 C 447.54 116.72 447.70 118.65 447.87 120.57 C 447.69 126.20 448.36 131.84 450.11 137.20 L 449.22 136.63 C 447.95 135.96 447.43 134.56 446.72 133.42 C 447.72 127.46 446.28 121.42 447.27 115.46 Z" />
<path fill="#189b1a" opacity="1.00" d=" M 503.72 121.30 C 504.73 119.20 505.67 117.08 506.57 114.92 L 506.73 115.09 C 507.43 115.78 508.83 117.16 509.52 117.85 C 508.70 119.74 507.90 121.62 507.07 123.50 C 506.67 123.52 505.88 123.54 505.49 123.55 C 505.05 122.99 504.16 121.86 503.72 121.30 Z" />
<path fill="#c85400" opacity="1.00" d=" M 506.73 115.09 C 508.54 115.37 510.33 115.72 512.12 116.15 C 512.90 116.81 513.67 117.49 514.43 118.20 C 514.82 118.58 515.61 119.34 516.00 119.73 C 516.99 120.68 517.98 121.63 518.98 122.58 C 519.92 123.49 520.83 124.41 521.79 125.32 C 520.01 124.97 518.23 124.69 516.47 124.33 C 515.86 123.79 515.27 123.23 514.69 122.68 C 513.87 121.93 513.06 121.17 512.26 120.42 C 511.33 119.57 510.42 118.72 509.52 117.85 C 508.83 117.16 507.43 115.78 506.73 115.09 Z" />
<path fill="#bde2c0" opacity="1.00" d=" M 521.61 115.79 C 521.97 116.13 522.68 116.82 523.04 117.17 C 523.70 117.82 524.37 118.48 525.04 119.13 C 524.12 121.24 523.23 123.35 522.35 125.48 L 521.79 125.32 C 520.83 124.41 519.92 123.49 518.98 122.58 C 519.88 120.32 520.75 118.06 521.61 115.79 Z" />
<path fill="#181817" opacity="0.64" d=" M 482.23 116.09 L 483.50 116.82 C 482.44 120.56 482.90 124.60 481.47 128.24 C 473.29 130.07 465.86 134.36 457.95 137.08 C 455.62 137.70 453.76 139.16 451.96 140.67 C 450.37 139.92 449.68 138.21 449.22 136.63 L 450.11 137.20 C 450.38 137.38 450.91 137.73 451.18 137.90 C 461.02 134.01 470.68 129.63 480.67 126.16 C 481.22 122.81 481.72 119.45 482.23 116.09 Z" />
<path fill="#3aaa3f" opacity="1.00" d=" M 509.52 117.85 C 510.42 118.72 511.33 119.57 512.26 120.42 C 511.31 122.66 510.37 124.90 509.43 127.15 C 508.11 125.95 506.81 124.73 505.49 123.55 C 505.88 123.54 506.67 123.52 507.07 123.50 C 507.90 121.62 508.70 119.74 509.52 117.85 Z" />
<path fill="#e75f00" opacity="1.00" d=" M 488.99 126.32 C 492.38 124.15 495.68 121.84 499.03 119.60 C 498.77 121.42 498.54 123.24 498.31 125.06 C 500.09 125.48 501.87 125.90 503.66 126.33 C 503.23 128.82 502.00 131.01 500.16 132.74 C 498.93 132.48 497.71 132.21 496.50 131.95 C 496.10 133.72 495.62 135.48 494.87 137.14 C 492.79 133.60 490.97 129.92 488.99 126.32 Z" />
<path fill="#5eb960" opacity="1.00" d=" M 512.26 120.42 C 513.06 121.17 513.87 121.93 514.69 122.68 C 513.77 124.92 512.85 127.15 511.91 129.38 C 511.42 128.94 510.45 128.06 509.97 127.62 L 509.43 127.15 C 510.37 124.90 511.31 122.66 512.26 120.42 Z" />
<path fill="#80c17b" opacity="1.00" d=" M 514.69 122.68 C 515.27 123.23 515.86 123.79 516.47 124.33 C 516.70 124.57 517.18 125.03 517.42 125.27 C 516.37 127.42 515.40 129.60 514.49 131.81 C 513.80 131.16 513.11 130.51 512.43 129.87 L 511.91 129.38 C 512.85 127.15 513.77 124.92 514.69 122.68 Z" />
<path fill="#c95401" opacity="1.00" d=" M 503.66 126.33 C 505.76 126.75 507.89 127.06 509.97 127.62 C 510.45 128.06 511.42 128.94 511.91 129.38 L 512.43 129.87 C 512.04 131.05 511.65 132.24 511.27 133.43 C 510.15 133.77 509.04 134.11 507.92 134.43 C 505.33 133.90 502.75 133.29 500.16 132.74 C 502.00 131.01 503.23 128.82 503.66 126.33 Z" />
<path fill="#a0d6a3" opacity="1.00" d=" M 517.42 125.27 C 518.07 125.91 518.72 126.55 519.38 127.20 L 519.90 127.70 C 518.93 129.86 517.96 132.01 516.98 134.16 C 516.16 133.36 515.33 132.58 514.49 131.81 C 515.40 129.60 516.37 127.42 517.42 125.27 Z" />
<path fill="#c3e5c6" opacity="1.00" d=" M 516.98 134.16 C 517.96 132.01 518.93 129.86 519.90 127.70 C 520.91 128.62 521.93 129.53 522.96 130.45 C 522.02 132.57 521.14 134.71 520.28 136.86 C 520.10 136.83 519.73 136.78 519.54 136.75 C 518.69 135.87 517.84 135.00 516.98 134.16 Z" />
<path fill="#a94c07" opacity="1.00" d=" M 512.43 129.87 C 513.11 130.51 513.80 131.16 514.49 131.81 C 515.33 132.58 516.16 133.36 516.98 134.16 C 517.84 135.00 518.69 135.87 519.54 136.75 C 515.62 136.23 511.77 135.33 507.92 134.43 C 509.04 134.11 510.15 133.77 511.27 133.43 C 511.65 132.24 512.04 131.05 512.43 129.87 Z" />
<path fill="#190f08" opacity="0.53" d=" M 522.96 130.45 L 523.16 129.98 C 524.30 132.92 522.78 135.94 521.08 138.32 C 513.14 138.03 505.40 134.29 497.33 134.22 C 496.98 135.73 496.62 137.23 496.28 138.74 C 495.74 138.35 495.20 137.96 494.68 137.57 L 494.87 137.14 C 495.62 135.48 496.10 133.72 496.50 131.95 C 497.71 132.21 498.93 132.48 500.16 132.74 C 502.75 133.29 505.33 133.90 507.92 134.43 C 511.77 135.33 515.62 136.23 519.54 136.75 C 519.73 136.78 520.10 136.83 520.28 136.86 C 521.14 134.71 522.02 132.57 522.96 130.45 Z" />
<path fill="#ffffff" opacity="1.00" d=" M 21.16 292.49 C 25.22 292.50 29.28 292.49 33.35 292.50 C 34.99 305.66 36.61 318.83 38.25 332.00 C 35.32 332.01 32.39 332.02 29.47 331.92 C 29.37 329.57 29.23 327.22 29.08 324.88 C 28.32 324.88 26.80 324.87 26.04 324.87 C 25.90 327.23 25.75 329.60 25.62 331.97 C 22.67 332.01 19.71 332.00 16.76 332.00 C 18.23 318.83 19.66 305.65 21.16 292.49 M 27.53 301.01 C 27.04 306.64 26.38 312.25 25.97 317.89 C 26.67 317.88 28.08 317.87 28.78 317.87 C 28.36 312.25 27.96 306.63 27.53 301.01 Z" />
<path fill="#ffffff" opacity="1.00" d=" M 38.26 292.49 C 44.46 292.50 50.66 292.51 56.86 292.49 C 56.88 295.12 56.88 297.75 56.87 300.38 C 55.16 300.37 53.45 300.37 51.75 300.38 C 51.75 310.92 51.74 321.45 51.75 331.99 C 48.92 332.00 46.08 332.00 43.24 331.99 C 43.26 321.45 43.25 310.92 43.25 300.38 C 41.58 300.37 39.92 300.37 38.26 300.38 C 38.25 297.75 38.25 295.12 38.26 292.49 Z" />
<path fill="#ffffff" opacity="1.00" d=" M 63.53 292.68 C 68.81 289.84 76.53 292.55 77.62 298.78 C 78.56 306.47 78.04 314.27 78.03 322.00 C 78.29 326.54 75.79 331.62 71.02 332.58 C 65.73 334.19 59.49 330.71 58.87 325.05 C 58.18 317.73 58.56 310.36 58.57 303.02 C 58.47 299.08 59.74 294.56 63.53 292.68 M 67.15 299.79 C 66.79 307.19 67.11 314.62 66.99 322.03 C 67.11 323.72 66.59 326.38 69.10 326.34 C 70.02 322.28 69.50 318.09 69.62 313.97 C 69.50 309.10 69.88 304.21 69.43 299.35 C 69.33 297.58 66.91 298.42 67.15 299.79 Z" />
<path fill="#ffffff" opacity="1.00" d=" M 110.75 292.51 C 115.45 292.49 120.16 292.51 124.86 292.49 C 124.88 295.12 124.88 297.75 124.87 300.38 C 123.00 300.37 121.13 300.37 119.25 300.37 C 119.25 302.87 119.25 305.37 119.25 307.87 C 121.00 307.87 122.75 307.87 124.50 307.88 C 124.50 310.37 124.50 312.87 124.50 315.37 C 122.75 315.37 121.00 315.37 119.25 315.38 C 119.25 318.29 119.24 321.21 119.27 324.12 C 121.35 324.12 123.42 324.12 125.50 324.13 C 125.50 326.75 125.50 329.37 125.50 332.00 C 120.58 332.00 115.67 332.00 110.75 332.00 C 110.75 318.83 110.75 305.67 110.75 292.51 Z" />
<path fill="#ffffff" opacity="1.00" d=" M 127.94 296.12 C 130.46 290.85 138.05 290.47 142.51 293.35 C 146.22 295.68 145.46 300.63 145.65 304.37 C 143.03 304.37 140.40 304.37 137.77 304.37 C 137.63 302.39 138.13 300.22 137.15 298.39 C 134.99 297.80 134.88 300.66 134.99 302.04 C 134.95 306.17 139.63 307.48 141.99 310.10 C 147.12 314.06 146.81 321.35 145.88 327.10 C 144.09 333.44 134.99 334.52 130.34 330.74 C 126.58 327.64 127.41 322.19 127.24 317.87 C 129.87 317.87 132.50 317.87 135.13 317.88 C 135.42 320.61 134.34 323.85 136.02 326.24 C 139.34 325.88 138.23 321.35 137.82 319.02 C 135.07 314.67 128.99 312.94 127.57 307.62 C 126.72 303.87 126.67 299.78 127.94 296.12 Z" />
<path fill="#ffffff" opacity="1.00" d=" M 160.08 292.46 C 162.96 292.51 165.84 292.50 168.72 292.49 C 169.31 301.56 170.15 310.61 170.43 319.69 C 171.60 310.66 171.85 301.53 173.00 292.50 C 175.75 292.50 178.50 292.50 181.25 292.50 C 180.01 305.64 178.66 318.78 177.50 331.94 C 173.97 332.03 170.43 332.00 166.90 332.00 C 165.95 325.15 164.88 318.30 164.50 311.40 C 163.28 318.21 162.80 325.13 161.93 332.00 C 158.43 332.00 154.93 332.01 151.43 331.99 C 150.20 318.82 148.89 305.66 147.63 292.49 C 150.38 292.50 153.12 292.49 155.87 292.51 C 156.42 301.17 156.98 309.83 157.43 318.51 C 158.39 309.83 158.89 301.11 160.08 292.46 Z" />
<path fill="#ffffff" opacity="1.00" d=" M 185.20 292.47 C 189.25 292.52 193.29 292.49 197.34 292.50 C 198.99 305.66 200.61 318.83 202.25 331.99 C 199.31 332.02 196.38 332.03 193.45 331.89 C 193.37 329.55 193.23 327.21 193.09 324.88 C 192.32 324.88 190.80 324.87 190.04 324.87 C 189.90 327.23 189.75 329.60 189.62 331.96 C 186.67 332.01 183.71 332.00 180.76 332.00 C 182.25 318.82 183.62 305.63 185.20 292.47 M 191.41 301.30 C 191.13 306.85 190.32 312.35 189.97 317.90 C 190.67 317.89 192.08 317.87 192.78 317.86 C 192.20 312.39 192.24 306.59 191.41 301.30 Z" />
<path fill="#ffffff" opacity="1.00" d=" M 201.74 292.50 C 204.74 292.49 207.74 292.49 210.75 292.50 C 211.36 301.73 212.72 310.94 212.58 320.20 C 213.88 311.03 214.02 301.72 214.88 292.50 C 217.87 292.50 220.86 292.50 223.86 292.48 C 222.41 305.66 220.95 318.83 219.47 332.00 C 215.20 332.00 210.94 331.99 206.67 332.01 C 204.99 318.84 203.41 305.66 201.74 292.50 Z" />
<path fill="#ffffff" opacity="1.00" d=" M 81.25 331.99 C 81.27 318.83 81.23 305.66 81.26 292.49 C 84.92 292.50 88.57 292.49 92.22 292.50 C 93.01 298.56 93.56 304.66 94.54 310.70 C 95.06 304.62 95.76 298.56 96.41 292.50 C 100.06 292.50 103.72 292.49 107.38 292.50 C 107.38 305.67 107.38 318.83 107.38 332.00 C 104.92 332.00 102.46 332.00 100.00 332.00 C 99.88 323.24 100.34 314.46 99.52 305.73 C 99.16 314.53 97.91 323.25 96.99 332.00 C 95.24 332.00 93.49 331.99 91.75 332.00 C 90.59 323.31 89.99 314.54 88.42 305.91 C 88.83 314.60 88.54 323.30 88.62 332.00 C 86.16 332.00 83.70 332.00 81.25 331.99 Z" />
<path fill="#ffffff" opacity="1.00" d=" M 225.24 331.99 C 225.28 318.82 225.20 305.65 225.28 292.48 C 229.98 292.52 234.68 292.49 239.38 292.50 C 239.38 295.12 239.38 297.75 239.37 300.37 C 237.50 300.37 235.62 300.37 233.75 300.38 C 233.75 302.88 233.75 305.37 233.75 307.87 C 235.50 307.87 237.25 307.87 239.00 307.88 C 239.02 310.39 239.01 312.91 238.92 315.43 C 237.19 315.39 235.47 315.37 233.75 315.36 C 233.75 318.28 233.75 321.20 233.75 324.12 C 235.83 324.12 237.91 324.12 239.99 324.12 C 240.00 326.74 240.00 329.37 240.00 332.00 C 235.08 332.00 230.16 332.01 225.24 331.99 Z" />
</svg>
