<?xml version="1.0" encoding="UTF-8" ?>
<!DOCTYPE svg PUBLIC "-//W3C//DTD SVG 1.1//EN" "http://www.w3.org/Graphics/SVG/1.1/DTD/svg11.dtd">
<svg width="960pt" height="540pt" viewBox="0 0 960 540" version="1.1" xmlns="http://www.w3.org/2000/svg">
<path fill="#282d51" opacity="1.00" d=" M 477.42 46.77 C 479.22 46.52 481.04 45.98 482.88 46.25 C 502.60 49.39 522.44 51.75 542.20 54.67 C 545.01 55.22 548.40 56.84 548.87 60.00 C 548.01 64.41 546.90 68.78 545.88 73.16 C 544.32 73.48 542.73 73.75 541.32 74.52 C 540.00 71.43 536.93 70.34 533.81 70.06 C 533.13 70.03 531.76 69.97 531.07 69.94 C 529.29 69.44 528.27 71.86 530.21 72.48 C 529.75 72.55 528.83 72.69 528.37 72.77 C 528.19 72.03 527.82 70.56 527.64 69.83 L 527.61 69.13 C 524.46 68.60 521.28 68.22 518.14 67.65 C 516.17 67.11 514.26 66.44 512.34 65.79 C 510.98 67.64 509.45 69.35 507.89 71.02 C 508.56 69.35 509.16 67.65 509.78 65.96 C 508.18 65.56 506.58 65.16 504.99 64.76 C 504.48 67.55 503.78 70.39 501.75 72.51 C 501.34 70.95 500.97 69.38 500.70 67.79 C 500.40 65.76 500.32 63.62 499.35 61.78 C 492.67 59.22 485.46 58.55 478.49 57.13 C 478.00 53.69 477.18 50.27 477.42 46.77 Z" />
<path fill="#0f152d" opacity="1.00" d=" M 468.46 54.70 C 471.32 51.91 473.53 48.25 477.42 46.77 C 477.18 50.27 478.00 53.69 478.49 57.13 C 475.08 56.63 471.71 55.84 468.46 54.70 Z" />
<path fill="#0f1210" opacity="1.00" d=" M 462.65 61.31 C 463.55 58.36 464.90 55.03 468.46 54.70 C 471.71 55.84 475.08 56.63 478.49 57.13 C 485.46 58.55 492.67 59.22 499.35 61.78 C 500.32 63.62 500.40 65.76 500.70 67.79 C 499.52 70.13 498.52 74.66 495.00 73.29 C 494.99 70.88 495.00 68.48 495.00 66.07 C 490.19 64.98 485.33 64.16 480.48 63.31 C 479.73 63.18 478.24 62.93 477.50 62.80 C 475.94 62.53 474.40 62.23 472.87 61.91 C 472.49 61.84 471.74 61.70 471.36 61.63 C 470.04 61.42 468.72 61.27 467.39 61.17 L 467.11 61.15 L 467.13 61.43 C 467.23 63.65 467.69 65.83 468.15 68.00 C 466.15 67.73 464.15 67.44 462.25 66.75 C 462.44 64.94 463.92 63.04 462.65 61.31 Z" />
<path fill="#acb7c7" opacity="1.00" d=" M 467.11 61.15 L 467.39 61.17 C 467.33 61.24 467.20 61.37 467.13 61.43 L 467.11 61.15 Z" />
<path fill="#80939f" opacity="1.00" d=" M 467.39 61.17 C 468.72 61.27 470.04 61.42 471.36 61.63 C 471.59 62.18 472.05 63.30 472.27 63.85 C 473.92 65.05 474.10 62.48 472.87 61.91 C 474.40 62.23 475.94 62.53 477.50 62.80 C 476.25 64.22 474.99 65.63 473.76 67.07 C 473.31 67.58 472.87 68.08 472.43 68.59 C 471.00 68.38 469.57 68.19 468.15 68.00 C 467.69 65.83 467.23 63.65 467.13 61.43 C 467.20 61.37 467.33 61.24 467.39 61.17 Z" />
<path fill="#090e2b" opacity="1.00" d=" M 462.65 61.31 C 463.92 63.04 462.44 64.94 462.25 66.75 C 464.15 67.44 466.15 67.73 468.15 68.00 C 469.57 68.19 471.00 68.38 472.43 68.59 C 472.87 68.08 473.31 67.58 473.76 67.07 C 473.85 68.77 474.77 69.56 476.54 69.44 C 479.19 69.89 481.81 70.54 484.45 71.05 C 481.87 72.07 479.27 73.03 476.62 73.81 C 475.43 78.83 474.68 83.95 474.68 89.11 C 474.79 93.67 471.64 97.37 470.51 101.64 C 470.12 104.19 467.03 104.22 465.06 103.81 C 454.10 101.62 443.45 98.09 432.51 95.85 L 431.85 95.72 C 432.85 91.32 437.05 88.92 439.63 85.52 C 447.43 77.57 454.70 69.11 462.65 61.31 M 442.34 88.53 C 440.17 89.36 438.69 92.61 440.72 94.34 C 443.63 95.59 447.15 94.91 449.62 92.99 L 449.68 92.36 C 451.36 91.37 451.55 89.59 450.86 87.94 C 448.16 86.35 445.02 87.58 442.34 88.53 Z" />
<path fill="#9eabbb" opacity="1.00" d=" M 471.36 61.63 C 471.74 61.70 472.49 61.84 472.87 61.91 C 474.10 62.48 473.92 65.05 472.27 63.85 C 472.05 63.30 471.59 62.18 471.36 61.63 Z" />
<path fill="#356e96" opacity="1.00" d=" M 477.50 62.80 C 478.24 62.93 479.73 63.18 480.48 63.31 C 480.59 64.74 480.70 66.17 480.82 67.60 C 479.40 68.22 477.97 68.85 476.54 69.44 C 474.77 69.56 473.85 68.77 473.76 67.07 C 474.99 65.63 476.25 64.22 477.50 62.80 Z" />
<path fill="#7d8b97" opacity="1.00" d=" M 480.48 63.31 C 485.33 64.16 490.19 64.98 495.00 66.07 C 495.00 68.48 494.99 70.88 495.00 73.29 C 491.53 72.32 488.05 71.37 484.45 71.05 C 481.81 70.54 479.19 69.89 476.54 69.44 C 477.97 68.85 479.40 68.22 480.82 67.60 C 480.70 66.17 480.59 64.74 480.48 63.31 M 485.31 65.17 C 484.28 66.13 485.59 68.54 486.94 67.58 C 488.03 66.60 486.66 64.24 485.31 65.17 M 490.50 66.46 C 490.93 66.83 490.93 66.83 490.50 66.46 Z" />
<path fill="#285d8b" opacity="1.00" d=" M 485.31 65.17 C 486.66 64.24 488.03 66.60 486.94 67.58 C 485.59 68.54 484.28 66.13 485.31 65.17 Z" />
<path fill="#141a3e" opacity="1.00" d=" M 504.99 64.76 C 506.58 65.16 508.18 65.56 509.78 65.96 C 509.16 67.65 508.56 69.35 507.89 71.02 C 507.08 71.95 506.26 72.86 505.45 73.79 C 505.20 73.36 504.69 72.51 504.43 72.08 C 504.07 72.88 503.72 73.69 503.37 74.50 C 504.23 74.96 505.11 75.41 505.99 75.87 C 504.22 75.77 502.46 75.67 500.70 75.57 C 498.82 78.09 496.46 80.30 495.03 83.12 C 495.67 85.36 496.45 87.66 495.13 89.84 C 495.86 90.65 496.60 91.45 497.35 92.26 C 497.26 93.95 497.15 95.64 497.05 97.33 C 496.29 98.04 495.49 98.71 494.71 99.39 C 496.42 102.69 494.35 106.05 493.02 109.07 C 492.69 109.80 492.31 110.72 491.33 110.52 C 486.67 110.05 482.24 107.59 477.47 108.64 C 462.77 105.75 448.52 100.91 433.83 97.97 L 433.09 97.34 C 432.95 96.97 432.66 96.22 432.51 95.85 C 443.45 98.09 454.10 101.62 465.06 103.81 C 467.03 104.22 470.12 104.19 470.51 101.64 C 471.64 97.37 474.79 93.67 474.68 89.11 C 474.68 83.95 475.43 78.83 476.62 73.81 C 479.27 73.03 481.87 72.07 484.45 71.05 C 488.05 71.37 491.53 72.32 495.00 73.29 C 498.52 74.66 499.52 70.13 500.70 67.79 C 500.97 69.38 501.34 70.95 501.75 72.51 C 503.78 70.39 504.48 67.55 504.99 64.76 Z" />
<path fill="#05417d" opacity="1.00" d=" M 490.50 66.46 C 490.93 66.83 490.93 66.83 490.50 66.46 Z" />
<path fill="#1f234b" opacity="1.00" d=" M 507.89 71.02 C 509.45 69.35 510.98 67.64 512.34 65.79 C 514.26 66.44 516.17 67.11 518.14 67.65 C 517.77 68.26 517.02 69.49 516.65 70.10 C 516.91 70.32 517.43 70.75 517.69 70.97 C 518.77 71.82 519.80 73.17 521.35 73.05 C 523.09 72.45 520.99 70.58 520.10 70.25 C 520.65 70.00 521.21 69.75 521.77 69.49 C 523.15 70.21 524.52 70.96 525.94 71.62 C 525.46 71.67 524.50 71.77 524.02 71.82 C 523.43 73.22 522.91 74.64 522.40 76.07 C 523.20 76.00 524.80 75.85 525.60 75.78 C 526.03 74.50 526.47 73.23 526.92 71.97 C 527.10 71.43 527.46 70.36 527.64 69.83 C 527.82 70.56 528.19 72.03 528.37 72.77 C 528.83 72.69 529.75 72.55 530.21 72.48 C 530.64 72.40 531.52 72.25 531.95 72.17 C 532.43 72.02 533.39 71.74 533.86 71.59 C 535.17 72.20 536.49 72.80 537.82 73.39 C 536.96 76.67 531.58 77.38 530.27 74.06 C 529.62 74.08 528.33 74.13 527.68 74.16 C 530.49 76.92 534.92 78.64 538.60 76.47 C 539.28 75.98 540.64 75.01 541.32 74.52 C 542.73 73.75 544.32 73.48 545.88 73.16 C 544.19 81.20 542.03 89.14 540.46 97.20 L 539.81 97.04 C 532.10 94.76 524.62 91.50 516.50 90.87 C 517.43 92.37 519.02 93.08 520.60 93.71 C 520.17 94.19 519.74 94.66 519.35 95.16 L 518.34 96.52 C 516.91 94.66 515.69 92.63 514.02 90.99 C 512.20 89.63 509.80 89.66 507.64 89.42 L 506.60 89.35 C 504.23 89.68 501.67 90.12 499.90 91.86 C 498.73 93.33 498.20 95.17 497.34 96.82 L 497.05 97.33 C 497.15 95.64 497.26 93.95 497.35 92.26 C 496.60 91.45 495.86 90.65 495.13 89.84 C 496.45 87.66 495.67 85.36 495.03 83.12 C 496.46 80.30 498.82 78.09 500.70 75.57 C 502.46 75.67 504.22 75.77 505.99 75.87 C 505.11 75.41 504.23 74.96 503.37 74.50 C 503.72 73.69 504.07 72.88 504.43 72.08 C 504.69 72.51 505.20 73.36 505.45 73.79 C 506.26 72.86 507.08 71.95 507.89 71.02 M 514.03 74.93 C 513.21 77.94 516.86 77.39 518.78 77.75 C 519.60 75.12 515.63 75.63 514.03 74.93 Z" />
<path fill="#0f171a" opacity="1.00" d=" M 518.14 67.65 C 521.28 68.22 524.46 68.60 527.61 69.13 L 527.64 69.83 C 527.46 70.36 527.10 71.43 526.92 71.97 L 525.94 71.62 C 524.52 70.96 523.15 70.21 521.77 69.49 C 521.21 69.75 520.65 70.00 520.10 70.25 C 519.29 70.49 518.49 70.73 517.69 70.97 C 517.43 70.75 516.91 70.32 516.65 70.10 C 517.02 69.49 517.77 68.26 518.14 67.65 Z" />
<path fill="#60625a" opacity="1.00" d=" M 517.69 70.97 C 518.49 70.73 519.29 70.49 520.10 70.25 C 520.99 70.58 523.09 72.45 521.35 73.05 C 519.80 73.17 518.77 71.82 517.69 70.97 Z" />
<path fill="#1a1d25" opacity="1.00" d=" M 530.21 72.48 C 528.27 71.86 529.29 69.44 531.07 69.94 C 531.29 70.50 531.73 71.61 531.95 72.17 C 531.52 72.25 530.64 72.40 530.21 72.48 Z" />
<path fill="#5a5a58" opacity="1.00" d=" M 531.07 69.94 C 531.76 69.97 533.13 70.03 533.81 70.06 C 533.83 70.44 533.85 71.21 533.86 71.59 C 533.39 71.74 532.43 72.02 531.95 72.17 C 531.73 71.61 531.29 70.50 531.07 69.94 Z" />
<path fill="#1a1f23" opacity="1.00" d=" M 533.81 70.06 C 536.93 70.34 540.00 71.43 541.32 74.52 C 540.64 75.01 539.28 75.98 538.60 76.47 C 538.32 74.87 538.07 73.27 537.84 71.66 L 537.82 73.39 C 536.49 72.80 535.17 72.20 533.86 71.59 C 533.85 71.21 533.83 70.44 533.81 70.06 Z" />
<path fill="#7e7f74" opacity="1.00" d=" M 524.02 71.82 C 524.50 71.77 525.46 71.67 525.94 71.62 L 526.92 71.97 C 526.47 73.23 526.03 74.50 525.60 75.78 C 524.80 75.85 523.20 76.00 522.40 76.07 C 522.91 74.64 523.43 73.22 524.02 71.82 Z" />
<path fill="#7d8b97" opacity="1.00" d=" M 537.84 71.66 C 538.07 73.27 538.32 74.87 538.60 76.47 C 534.92 78.64 530.49 76.92 527.68 74.16 C 528.33 74.13 529.62 74.08 530.27 74.06 C 531.58 77.38 536.96 76.67 537.82 73.39 L 537.84 71.66 Z" />
<path fill="#111629" opacity="1.00" d=" M 514.03 74.93 C 515.63 75.63 519.60 75.12 518.78 77.75 C 516.86 77.39 513.21 77.94 514.03 74.93 Z" />
<path fill="#050810" opacity="1.00" d=" M 442.34 88.53 C 445.02 87.58 448.16 86.35 450.86 87.94 C 450.21 89.34 449.74 90.82 449.68 92.36 L 449.62 92.99 C 447.15 94.91 443.63 95.59 440.72 94.34 C 438.69 92.61 440.17 89.36 442.34 88.53 Z" />
<path fill="#ffffff" opacity="1.00" d=" M 450.86 87.94 C 451.55 89.59 451.36 91.37 449.68 92.36 C 449.74 90.82 450.21 89.34 450.86 87.94 Z" />
<path fill="#181b13" opacity="1.00" d=" M 499.90 91.86 C 501.67 90.12 504.23 89.68 506.60 89.35 C 504.80 93.64 511.17 95.79 513.37 92.30 C 511.50 91.25 509.61 90.24 507.64 89.42 C 509.80 89.66 512.20 89.63 514.02 90.99 C 515.69 92.63 516.91 94.66 518.34 96.52 C 518.16 97.05 517.81 98.10 517.63 98.63 C 517.32 98.26 516.71 97.53 516.40 97.17 C 515.26 99.02 514.87 101.88 512.45 102.44 C 509.28 103.33 505.71 103.58 502.64 102.18 C 500.27 101.11 498.93 98.75 497.34 96.82 C 498.20 95.17 498.73 93.33 499.90 91.86 M 498.84 97.27 C 499.90 96.40 500.97 95.54 502.08 94.72 C 501.84 95.89 501.61 97.05 501.40 98.22 C 502.83 97.65 504.03 96.67 505.21 95.70 C 504.76 96.97 504.33 98.23 503.90 99.51 C 506.20 100.24 506.60 98.11 506.70 96.35 C 506.02 95.00 504.33 95.20 503.11 94.78 C 503.43 93.37 503.71 91.96 504.00 90.54 C 502.42 92.89 499.18 94.28 498.84 97.27 M 511.46 95.42 C 510.48 96.13 509.69 97.64 510.26 98.82 C 511.81 99.40 513.11 95.70 511.46 95.42 Z" />
<path fill="#343726" opacity="1.00" d=" M 513.37 92.30 C 511.17 95.79 504.80 93.64 506.60 89.35 L 507.64 89.42 C 509.61 90.24 511.50 91.25 513.37 92.30 Z" />
<path fill="#3c4235" opacity="1.00" d=" M 498.84 97.27 C 499.18 94.28 502.42 92.89 504.00 90.54 C 503.71 91.96 503.43 93.37 503.11 94.78 C 504.33 95.20 506.02 95.00 506.70 96.35 C 506.60 98.11 506.20 100.24 503.90 99.51 C 504.33 98.23 504.76 96.97 505.21 95.70 C 504.03 96.67 502.83 97.65 501.40 98.22 C 501.61 97.05 501.84 95.89 502.08 94.72 C 500.97 95.54 499.90 96.40 498.84 97.27 Z" />
<path fill="#1a213c" opacity="1.00" d=" M 516.50 90.87 C 524.62 91.50 532.10 94.76 539.81 97.04 L 540.62 97.25 C 539.47 101.14 538.75 105.13 537.72 109.05 C 534.84 108.55 531.95 108.04 529.11 107.35 C 529.24 107.02 529.49 106.37 529.62 106.04 C 526.56 105.09 523.51 104.10 520.45 103.19 C 520.92 103.00 521.88 102.62 522.36 102.43 C 525.08 102.91 527.79 103.52 530.55 103.86 C 527.62 101.48 523.64 101.40 520.22 100.15 C 520.49 98.42 520.48 96.61 519.35 95.16 C 519.74 94.66 520.17 94.19 520.60 93.71 C 519.02 93.08 517.43 92.37 516.50 90.87 Z" />
<path fill="#3f4337" opacity="1.00" d=" M 511.46 95.42 C 513.11 95.70 511.81 99.40 510.26 98.82 C 509.69 97.64 510.48 96.13 511.46 95.42 Z" />
<path fill="#192050" opacity="1.00" d=" M 518.34 96.52 L 519.35 95.16 C 520.48 96.61 520.49 98.42 520.22 100.15 C 520.18 100.56 520.11 101.38 520.08 101.79 C 520.65 101.95 521.79 102.27 522.36 102.43 C 521.88 102.62 520.92 103.00 520.45 103.19 C 519.06 103.13 517.67 103.08 516.30 103.03 C 519.90 105.96 524.87 105.87 529.11 107.35 C 531.95 108.04 534.84 108.55 537.72 109.05 C 537.34 110.76 536.96 112.46 536.49 114.15 C 536.36 113.60 536.11 112.52 535.98 111.98 C 533.92 112.11 531.54 111.53 529.72 112.72 C 527.43 114.89 525.71 117.57 524.02 120.21 C 515.92 118.42 508.00 115.63 499.75 114.59 C 492.17 113.26 484.88 110.66 477.47 108.64 C 482.24 107.59 486.67 110.05 491.33 110.52 C 492.31 110.72 492.69 109.80 493.02 109.07 C 494.35 106.05 496.42 102.69 494.71 99.39 C 495.49 98.71 496.29 98.04 497.05 97.33 L 497.34 96.82 C 498.93 98.75 500.27 101.11 502.64 102.18 C 505.71 103.58 509.28 103.33 512.45 102.44 C 514.87 101.88 515.26 99.02 516.40 97.17 C 516.71 97.53 517.32 98.26 517.63 98.63 C 517.81 98.10 518.16 97.05 518.34 96.52 M 512.29 105.17 C 511.53 106.90 515.38 107.85 515.82 106.18 C 515.34 104.88 513.38 104.34 512.29 105.17 Z" />
<path fill="#25283a" opacity="1.00" d=" M 433.09 97.34 L 433.83 97.97 C 436.28 102.01 438.07 107.35 443.15 108.74 C 448.95 111.25 456.14 110.61 461.03 114.97 C 462.03 115.70 463.13 116.31 464.33 116.67 C 472.25 119.10 480.30 121.08 488.20 123.57 C 486.89 124.15 485.58 124.73 484.29 125.32 L 484.08 125.41 C 470.11 121.12 455.99 117.30 441.92 113.35 C 440.71 112.95 439.25 112.60 438.88 111.20 C 436.99 106.56 434.66 102.10 433.09 97.34 Z" />
<path fill="#0d101b" opacity="1.00" d=" M 433.83 97.97 C 448.52 100.91 462.77 105.75 477.47 108.64 C 484.88 110.66 492.17 113.26 499.75 114.59 C 507.86 116.34 515.68 119.14 523.64 121.43 C 525.36 121.94 527.15 122.03 528.95 122.03 C 529.93 122.01 530.93 121.93 531.92 121.80 C 530.41 124.71 528.93 127.64 527.49 130.59 C 524.76 130.29 522.02 130.06 519.30 129.80 C 519.94 128.53 520.57 127.25 521.17 125.95 C 520.50 127.10 519.85 128.25 519.21 129.42 C 518.22 128.13 517.25 126.86 516.30 125.56 C 515.87 125.49 515.02 125.35 514.59 125.28 C 514.50 125.40 514.31 125.64 514.22 125.76 C 513.24 127.52 511.64 128.66 509.57 128.32 C 509.87 127.76 510.48 126.65 510.78 126.09 C 511.86 128.34 513.65 124.71 511.19 125.36 C 509.67 125.39 508.16 125.47 506.66 125.55 C 506.37 126.04 505.79 127.03 505.51 127.52 C 504.67 127.46 503.83 127.39 503.01 127.32 C 503.44 126.21 503.88 125.11 504.34 124.01 C 501.27 126.31 497.70 124.34 494.51 123.46 C 494.37 122.33 494.23 121.20 494.11 120.08 C 492.59 121.06 491.05 122.64 489.08 121.84 C 481.35 120.17 473.85 117.60 466.17 115.75 C 464.57 115.49 463.41 114.36 462.31 113.27 C 461.88 113.84 461.45 114.40 461.03 114.97 C 456.14 110.61 448.95 111.25 443.15 108.74 C 438.07 107.35 436.28 102.01 433.83 97.97 M 441.26 105.25 C 443.15 106.74 445.40 107.64 447.73 108.20 C 451.25 108.86 454.63 110.09 458.15 110.73 C 457.96 110.49 457.57 110.02 457.38 109.78 C 452.09 107.99 446.56 107.02 441.26 105.25 Z" />
<path fill="#070b16" opacity="1.00" d=" M 520.08 101.79 C 520.11 101.38 520.18 100.56 520.22 100.15 C 523.64 101.40 527.62 101.48 530.55 103.86 C 527.79 103.52 525.08 102.91 522.36 102.43 C 521.79 102.27 520.65 101.95 520.08 101.79 Z" />
<path fill="#090d18" opacity="1.00" d=" M 516.30 103.03 C 517.67 103.08 519.06 103.13 520.45 103.19 C 523.51 104.10 526.56 105.09 529.62 106.04 C 529.49 106.37 529.24 107.02 529.11 107.35 C 524.87 105.87 519.90 105.96 516.30 103.03 Z" />
<path fill="#ffffff" opacity="1.00" d=" M 441.26 105.25 C 446.56 107.02 452.09 107.99 457.38 109.78 C 457.57 110.02 457.96 110.49 458.15 110.73 C 454.63 110.09 451.25 108.86 447.73 108.20 C 445.40 107.64 443.15 106.74 441.26 105.25 Z" />
<path fill="#303024" opacity="1.00" d=" M 512.29 105.17 C 513.38 104.34 515.34 104.88 515.82 106.18 C 515.38 107.85 511.53 106.90 512.29 105.17 Z" />
<path fill="#1c286a" opacity="1.00" d=" M 529.72 112.72 C 531.54 111.53 533.92 112.11 535.98 111.98 C 536.11 112.52 536.36 113.60 536.49 114.15 C 536.40 114.88 536.22 116.36 536.13 117.10 L 535.76 117.32 C 535.53 117.46 535.06 117.74 534.82 117.89 C 534.73 118.74 534.55 120.45 534.46 121.31 C 533.82 121.43 532.56 121.68 531.92 121.80 C 530.93 121.93 529.93 122.01 528.95 122.03 C 527.31 121.39 525.69 120.74 524.02 120.21 C 525.71 117.57 527.43 114.89 529.72 112.72 Z" />
<path fill="#4b453a" opacity="1.00" d=" M 461.03 114.97 C 461.45 114.40 461.88 113.84 462.31 113.27 C 463.41 114.36 464.57 115.49 466.17 115.75 C 473.85 117.60 481.35 120.17 489.08 121.84 C 491.05 122.64 492.59 121.06 494.11 120.08 C 494.23 121.20 494.37 122.33 494.51 123.46 C 497.70 124.34 501.27 126.31 504.34 124.01 C 503.88 125.11 503.44 126.21 503.01 127.32 C 499.41 126.69 495.11 126.64 492.54 123.66 C 491.09 123.77 489.63 123.83 488.20 123.57 C 480.30 121.08 472.25 119.10 464.33 116.67 C 463.13 116.31 462.03 115.70 461.03 114.97 Z" />
<path fill="#80939f" opacity="1.00" d=" M 499.75 114.59 C 508.00 115.63 515.92 118.42 524.02 120.21 C 525.69 120.74 527.31 121.39 528.95 122.03 C 527.15 122.03 525.36 121.94 523.64 121.43 C 515.68 119.14 507.86 116.34 499.75 114.59 Z" />
<path fill="#7d8b97" opacity="1.00" d=" M 534.82 117.89 C 535.06 117.74 535.53 117.46 535.76 117.32 C 535.20 121.60 533.87 125.72 533.18 129.98 C 532.66 132.39 532.72 135.09 530.89 136.99 C 531.58 131.66 532.91 126.44 534.46 121.31 C 534.55 120.45 534.73 118.74 534.82 117.89 Z" />
<path fill="#282c47" opacity="1.00" d=" M 531.92 121.80 C 532.56 121.68 533.82 121.43 534.46 121.31 C 532.91 126.44 531.58 131.66 530.89 136.99 L 530.85 137.30 C 529.30 137.75 527.71 138.96 526.07 138.20 C 512.16 133.84 498.22 129.56 484.29 125.32 C 485.58 124.73 486.89 124.15 488.20 123.57 C 489.63 123.83 491.09 123.77 492.54 123.66 C 495.11 126.64 499.41 126.69 503.01 127.32 C 503.83 127.39 504.67 127.46 505.51 127.52 C 505.79 127.03 506.37 126.04 506.66 125.55 C 508.16 125.47 509.67 125.39 511.19 125.36 L 510.78 126.09 C 510.48 126.65 509.87 127.76 509.57 128.32 C 511.64 128.66 513.24 127.52 514.22 125.76 C 516.02 126.97 517.42 128.70 519.30 129.80 C 522.02 130.06 524.76 130.29 527.49 130.59 C 528.93 127.64 530.41 124.71 531.92 121.80 Z" />
<path fill="#7b5e51" opacity="1.00" d=" M 511.19 125.36 C 513.65 124.71 511.86 128.34 510.78 126.09 L 511.19 125.36 Z" />
<path fill="#ffffff" opacity="1.00" d=" M 514.59 125.28 C 515.02 125.35 515.87 125.49 516.30 125.56 C 517.25 126.86 518.22 128.13 519.21 129.42 C 519.85 128.25 520.50 127.10 521.17 125.95 C 520.57 127.25 519.94 128.53 519.30 129.80 C 517.42 128.70 516.02 126.97 514.22 125.76 C 514.31 125.64 514.50 125.40 514.59 125.28 Z" />
<path fill="#ffffff" opacity="1.00" d=" M 18.90 299.06 C 20.14 290.56 33.14 288.94 37.10 296.18 C 38.99 300.38 38.37 305.15 38.50 309.62 C 35.67 309.62 32.85 309.62 30.02 309.64 C 29.91 306.11 30.25 302.54 29.74 299.04 C 29.26 297.78 26.88 298.36 27.18 299.75 C 26.84 307.87 26.96 316.03 27.11 324.15 C 26.73 325.55 28.45 326.93 29.56 325.74 C 30.35 322.60 29.89 319.32 30.00 316.12 C 32.84 316.12 35.68 316.11 38.53 316.14 C 38.27 320.90 39.23 326.73 35.34 330.35 C 30.26 335.35 19.38 332.86 18.95 325.06 C 18.22 316.44 18.24 307.68 18.90 299.06 Z" />
<path fill="#ffffff" opacity="1.00" d=" M 44.16 292.49 C 48.22 292.50 52.28 292.49 56.35 292.50 C 57.99 305.66 59.61 318.83 61.25 332.00 C 58.33 332.01 55.40 332.02 52.48 331.94 C 52.37 329.58 52.23 327.23 52.08 324.88 C 51.32 324.88 49.80 324.87 49.04 324.87 C 48.90 327.23 48.75 329.59 48.63 331.96 C 45.67 332.01 42.71 332.00 39.76 332.00 C 41.23 318.83 42.66 305.65 44.16 292.49 M 50.50 301.08 C 50.04 306.69 49.37 312.29 48.98 317.91 C 49.68 317.89 51.09 317.87 51.79 317.85 C 51.35 312.26 50.99 306.66 50.50 301.08 Z" />
<path fill="#ffffff" opacity="1.00" d=" M 87.48 293.38 C 92.16 290.09 100.06 291.33 102.44 296.90 C 103.84 300.98 103.43 305.38 103.50 309.62 C 100.67 309.62 97.84 309.62 95.01 309.63 C 94.95 306.34 95.15 303.04 94.86 299.76 C 95.16 297.84 91.85 297.95 92.17 299.79 C 91.84 307.90 91.97 316.04 92.10 324.15 C 91.90 325.74 93.34 326.86 94.65 325.69 C 95.24 322.53 94.94 319.30 95.00 316.12 C 97.84 316.12 100.68 316.12 103.52 316.13 C 103.38 320.11 103.81 324.34 102.12 328.07 C 99.24 333.56 91.07 334.42 86.57 330.52 C 83.79 328.05 83.76 324.06 83.53 320.63 C 83.50 314.39 83.41 308.14 83.58 301.91 C 83.61 298.70 84.73 295.26 87.48 293.38 Z" />
<path fill="#ffffff" opacity="1.00" d=" M 111.50 292.70 C 116.53 290.03 123.93 292.21 125.42 298.06 C 126.69 304.28 125.90 310.70 126.13 317.01 C 125.96 321.25 126.62 326.10 123.74 329.64 C 119.50 334.93 109.46 333.65 107.37 326.93 C 105.78 320.41 106.78 313.59 106.49 306.94 C 106.46 301.89 106.28 295.37 111.50 292.70 M 115.15 299.74 C 114.80 307.16 115.10 314.61 114.99 322.04 C 115.08 323.76 114.63 326.30 117.09 326.39 C 118.16 320.99 117.40 315.44 117.62 309.98 C 117.42 306.27 118.10 302.43 117.21 298.82 C 116.72 297.50 115.01 298.81 115.15 299.74 Z" />
<path fill="#ffff00" opacity="1.00" d=" M 171.00 292.75 C 175.75 290.29 182.86 291.73 184.99 297.03 C 186.33 301.08 185.94 305.43 185.98 309.64 C 183.15 309.62 180.32 309.62 177.49 309.62 C 177.42 306.08 177.75 302.52 177.23 299.02 C 176.73 297.69 174.22 298.43 174.66 299.91 C 174.49 308.63 174.17 317.41 174.88 326.11 C 175.42 326.04 176.50 325.90 177.04 325.83 C 177.83 322.66 177.42 319.36 177.49 316.13 C 180.33 316.12 183.17 316.12 186.01 316.12 C 185.89 319.98 186.29 324.07 184.78 327.73 C 181.94 333.86 172.48 334.66 168.24 329.64 C 166.14 326.93 166.22 323.29 166.02 320.04 C 166.04 313.68 165.84 307.32 166.15 300.97 C 166.26 297.66 167.97 294.29 171.00 292.75 Z" />
<path fill="#ffff00" opacity="1.00" d=" M 210.08 297.15 C 211.89 290.87 220.74 290.16 225.39 293.62 C 228.73 296.09 227.92 300.75 228.16 304.37 C 225.54 304.37 222.91 304.37 220.28 304.38 C 219.89 302.42 221.13 299.36 219.01 298.21 C 216.69 299.34 217.31 302.82 218.19 304.75 C 221.60 308.46 227.28 310.71 228.36 316.14 C 228.99 320.26 229.43 324.78 227.77 328.72 C 224.32 334.31 214.71 334.34 211.16 328.82 C 209.40 325.48 209.84 321.52 209.73 317.88 C 212.38 317.86 215.02 317.86 217.67 317.94 C 217.66 320.53 217.36 323.18 217.99 325.73 C 220.46 327.45 221.07 323.57 220.77 321.95 C 221.14 317.31 216.21 315.41 213.46 312.62 C 208.80 309.03 209.02 302.35 210.08 297.15 Z" />
<path fill="#ffff00" opacity="1.00" d=" M 245.97 293.95 C 250.91 289.32 260.48 292.12 261.45 299.09 C 263.05 308.82 256.15 316.97 252.22 325.25 C 255.14 325.25 258.07 325.25 260.99 325.25 C 261.00 327.49 261.00 329.74 261.00 332.00 C 255.04 332.00 249.07 332.00 243.11 331.99 C 243.23 329.63 242.65 327.07 243.84 324.90 C 246.93 318.67 250.22 312.53 252.85 306.09 C 253.74 303.53 254.91 300.31 253.05 297.92 C 248.93 297.71 250.82 303.42 250.37 306.00 C 247.94 306.00 245.51 306.00 243.09 305.99 C 243.16 301.88 242.83 297.13 245.97 293.95 Z" />
<path fill="#ffffff" opacity="1.00" d=" M 62.75 292.50 C 67.43 292.70 72.25 291.92 76.82 293.22 C 79.66 294.11 80.86 297.20 80.89 299.95 C 80.99 304.09 81.39 308.36 80.39 312.43 C 79.10 316.20 74.54 316.22 71.24 316.17 C 71.26 321.45 71.25 326.72 71.25 332.00 C 68.42 332.00 65.58 332.00 62.75 332.00 C 62.75 318.83 62.75 305.67 62.75 292.50 M 71.33 298.97 C 71.38 302.62 70.80 306.36 71.72 309.94 C 73.29 309.20 74.10 307.78 73.88 306.07 C 73.75 303.57 74.86 299.43 71.33 298.97 Z" />
<path fill="#ffffff" opacity="1.00" d=" M 129.25 331.99 C 129.31 318.80 129.14 305.61 129.33 292.42 C 132.96 292.54 136.59 292.49 140.22 292.50 C 141.02 298.52 141.52 304.59 142.55 310.59 C 143.08 304.55 143.76 298.52 144.41 292.50 C 148.06 292.50 151.72 292.50 155.38 292.50 C 155.38 305.67 155.38 318.83 155.38 332.00 C 152.92 332.00 150.46 332.00 148.00 332.00 C 147.89 323.27 148.34 314.52 147.49 305.81 C 147.15 314.58 145.91 323.28 144.99 332.00 C 143.24 332.00 141.49 331.99 139.75 332.00 C 138.60 323.32 137.97 314.57 136.45 305.95 C 136.80 314.63 136.55 323.32 136.62 332.00 C 134.16 332.00 131.70 332.00 129.25 331.99 Z" />
<path fill="#ffff00" opacity="1.00" d=" M 189.18 292.55 C 194.55 292.94 200.82 291.12 205.48 294.54 C 208.77 299.25 207.30 305.63 207.23 311.03 C 206.89 315.74 201.46 316.45 197.75 316.19 C 197.75 321.45 197.74 326.72 197.76 331.99 C 194.92 332.00 192.08 332.00 189.24 331.99 C 189.21 318.85 189.34 305.70 189.18 292.55 M 197.77 299.07 C 197.73 302.58 197.74 306.08 197.77 309.59 C 198.29 309.42 199.33 309.07 199.85 308.90 C 200.30 305.81 202.01 299.82 197.77 299.07 Z" />
<path fill="#ffff00" opacity="1.00" d=" M 230.75 312.50 C 234.29 312.49 237.83 312.49 241.38 312.50 C 241.37 314.75 241.37 317.00 241.37 319.25 C 237.83 319.25 234.29 319.25 230.75 319.25 C 230.75 317.00 230.75 314.75 230.75 312.50 Z" />
</svg>
