<?xml version="1.0" encoding="UTF-8" ?>
<!DOCTYPE svg PUBLIC "-//W3C//DTD SVG 1.1//EN" "http://www.w3.org/Graphics/SVG/1.1/DTD/svg11.dtd">
<svg width="960pt" height="540pt" viewBox="0 0 960 540" version="1.1" xmlns="http://www.w3.org/2000/svg">
<path fill="#b1b0b2" opacity="1.00" d=" M 441.18 57.60 C 442.39 53.22 442.32 47.50 446.04 44.45 C 452.85 43.67 459.76 44.84 466.58 45.36 C 466.44 45.72 466.16 46.45 466.02 46.82 C 459.33 46.85 452.73 45.05 446.05 45.47 C 442.43 48.16 442.73 53.62 441.18 57.60 Z" />
<path fill="#2a2a2c" opacity="1.00" d=" M 466.58 45.36 L 466.73 44.95 L 467.18 45.55 C 467.97 47.60 470.70 47.82 471.91 46.03 C 474.10 46.27 476.18 47.05 478.02 48.26 C 490.38 50.02 502.76 51.66 515.00 54.16 C 528.66 56.77 542.14 60.21 555.76 62.98 C 555.06 63.44 554.36 63.90 553.66 64.34 L 552.60 64.03 C 549.56 62.90 546.31 62.53 543.08 62.72 C 542.88 63.43 542.47 64.83 542.26 65.54 C 541.14 65.02 540.01 64.54 538.88 64.08 C 539.58 63.99 540.99 63.83 541.69 63.75 C 541.36 62.29 539.36 62.40 538.25 61.87 C 511.56 55.86 484.55 50.68 457.18 49.12 C 455.86 48.98 454.55 48.82 453.25 48.66 C 453.54 53.20 453.54 57.76 453.88 62.31 C 452.13 62.40 450.36 62.36 448.64 62.69 C 446.35 63.67 445.09 66.00 443.55 67.83 C 444.86 68.47 446.17 69.12 447.48 69.76 C 445.71 69.97 443.94 70.20 442.17 70.44 C 443.96 71.56 445.83 72.56 447.76 73.45 C 448.45 72.98 449.15 72.51 449.85 72.05 C 450.16 73.17 450.50 74.29 450.87 75.41 C 448.13 74.92 445.36 74.78 442.59 74.78 C 444.00 76.97 445.77 78.90 447.89 80.43 C 451.57 81.46 455.01 78.55 456.82 75.60 C 457.78 73.67 458.05 70.47 455.75 69.39 C 453.64 68.02 451.60 66.55 449.83 64.76 C 451.98 65.02 454.10 65.57 456.12 66.38 C 456.08 66.03 456.00 65.34 455.96 64.99 C 456.62 65.94 457.29 66.90 457.95 67.86 C 458.00 67.57 458.09 66.99 458.13 66.70 C 458.20 67.10 458.35 67.91 458.42 68.31 C 457.81 73.45 457.89 78.81 455.76 83.64 C 454.25 85.95 455.01 88.54 455.21 91.06 C 454.65 92.77 453.47 94.17 452.48 95.65 C 452.87 95.80 453.65 96.11 454.04 96.26 C 453.09 97.20 452.15 98.13 451.20 99.07 C 450.99 98.57 450.56 97.57 450.35 97.08 C 450.24 98.46 450.13 99.84 450.03 101.22 C 449.36 100.55 448.69 99.89 448.02 99.22 C 448.09 99.80 448.23 100.96 448.30 101.54 C 451.17 102.09 454.03 102.66 456.89 103.27 C 456.90 104.63 456.91 106.00 456.94 107.37 C 456.44 106.32 455.94 105.27 455.45 104.22 C 454.30 104.19 453.17 104.17 452.03 104.15 C 453.26 104.92 454.49 105.68 455.72 106.45 C 451.09 105.76 446.34 104.77 441.72 106.15 C 440.10 104.96 438.62 103.59 437.16 102.22 C 436.28 87.32 439.48 72.64 441.12 57.91 L 441.18 57.60 C 442.73 53.62 442.43 48.16 446.05 45.47 C 452.73 45.05 459.33 46.85 466.02 46.82 C 466.16 46.45 466.44 45.72 466.58 45.36 Z" />
<path fill="#afa8aa" opacity="1.00" d=" M 466.73 44.95 C 472.25 44.90 477.54 46.68 483.00 47.19 C 508.11 50.56 533.04 55.30 557.55 61.67 C 559.57 62.10 561.21 63.92 561.16 66.04 C 561.94 83.16 560.58 100.37 557.50 117.23 C 556.97 121.59 554.47 125.67 550.67 127.91 C 549.06 128.61 547.39 129.16 545.68 129.52 C 546.01 129.35 546.68 129.00 547.01 128.82 C 553.99 126.37 556.26 118.33 555.59 111.62 C 555.97 112.80 556.33 114.00 556.68 115.20 C 556.00 108.40 558.28 101.78 558.46 95.00 C 558.47 85.96 560.19 77.02 560.25 67.99 C 560.45 65.74 558.92 64.12 557.24 62.90 C 556.66 63.82 556.11 64.74 555.59 65.68 C 553.96 65.35 552.32 65.02 550.70 64.74 C 551.17 64.56 552.12 64.21 552.60 64.03 L 553.66 64.34 C 554.36 63.90 555.06 63.44 555.76 62.98 C 542.14 60.21 528.66 56.77 515.00 54.16 C 502.76 51.66 490.38 50.02 478.02 48.26 C 476.18 47.05 474.10 46.27 471.91 46.03 C 470.34 45.74 468.75 45.66 467.18 45.55 L 466.73 44.95 Z" />
<path fill="#7f7f82" opacity="1.00" d=" M 467.18 45.55 C 468.75 45.66 470.34 45.74 471.91 46.03 C 470.70 47.82 467.97 47.60 467.18 45.55 Z" />
<path fill="#555557" opacity="1.00" d=" M 453.25 48.66 C 454.55 48.82 455.86 48.98 457.18 49.12 L 456.26 50.21 C 455.58 55.79 457.26 61.25 458.13 66.70 C 458.09 66.99 458.00 67.57 457.95 67.86 C 457.29 66.90 456.62 65.94 455.96 64.99 C 455.29 64.07 454.60 63.18 453.88 62.31 C 453.54 57.76 453.54 53.20 453.25 48.66 Z" />
<path fill="#acabad" opacity="1.00" d=" M 457.18 49.12 C 484.55 50.68 511.56 55.86 538.25 61.87 C 539.36 62.40 541.36 62.29 541.69 63.75 C 540.99 63.83 539.58 63.99 538.88 64.08 C 535.29 62.87 531.57 62.11 527.88 61.32 C 512.64 57.11 496.88 55.24 481.34 52.51 C 480.65 53.03 479.97 53.55 479.31 54.07 C 488.96 54.58 498.38 56.97 507.92 58.38 C 514.90 59.76 522.17 60.09 528.81 62.83 C 530.24 63.66 531.70 64.44 533.17 65.21 C 533.22 65.46 533.33 65.96 533.39 66.21 C 533.53 66.89 533.83 68.24 533.97 68.92 C 531.90 67.46 529.65 66.23 527.18 65.61 C 521.25 63.78 515.05 63.17 508.99 61.89 C 497.42 59.87 485.88 57.55 474.21 56.19 C 473.38 55.12 472.56 54.05 471.74 52.98 C 474.30 53.14 476.85 53.39 479.41 53.61 C 479.26 53.13 478.98 52.15 478.84 51.66 C 471.27 52.18 463.76 50.96 456.26 50.21 L 457.18 49.12 Z" />
<path fill="#232325" opacity="1.00" d=" M 458.13 66.70 C 457.26 61.25 455.58 55.79 456.26 50.21 C 463.76 50.96 471.27 52.18 478.84 51.66 C 478.98 52.15 479.26 53.13 479.41 53.61 C 476.85 53.39 474.30 53.14 471.74 52.98 C 469.34 52.89 466.91 52.96 464.58 53.59 C 463.96 53.50 462.72 53.33 462.10 53.25 C 460.86 55.29 459.71 57.56 460.31 60.03 C 461.92 69.91 464.32 79.65 466.09 89.51 C 465.53 90.74 464.97 91.96 464.42 93.18 C 464.04 92.80 463.30 92.04 462.92 91.66 C 463.04 92.88 463.17 94.10 463.30 95.32 C 461.64 93.09 459.73 90.79 459.53 87.90 C 458.82 81.38 460.00 74.74 458.42 68.31 C 458.35 67.91 458.20 67.10 458.13 66.70 Z" />
<path fill="#060606" opacity="1.00" d=" M 462.10 53.25 C 462.72 53.33 463.96 53.50 464.58 53.59 C 464.10 54.26 463.16 55.59 462.68 56.26 C 463.35 56.21 464.68 56.11 465.35 56.06 C 465.20 56.51 464.91 57.39 464.76 57.83 C 464.28 58.55 463.81 59.26 463.33 59.98 C 465.22 60.83 466.18 62.33 465.96 64.49 C 466.22 63.49 466.49 62.50 466.78 61.51 C 468.67 61.79 470.68 62.01 471.28 59.62 C 469.22 59.54 467.18 59.48 465.12 59.46 L 465.47 58.19 C 465.84 57.64 466.59 56.54 466.96 55.99 L 467.76 55.94 C 467.78 56.39 467.84 57.31 467.87 57.77 C 469.05 57.72 469.89 57.10 470.40 55.90 L 471.29 56.13 C 471.19 56.57 470.99 57.44 470.89 57.88 C 471.50 57.54 472.72 56.87 473.33 56.54 C 474.46 56.99 475.04 57.78 475.06 58.91 C 474.77 70.44 471.88 81.82 472.04 93.37 C 472.45 93.46 473.26 93.64 473.66 93.73 C 487.63 96.51 501.60 99.39 515.77 100.96 C 516.01 100.98 516.50 101.03 516.74 101.05 C 518.48 89.07 519.59 76.99 521.19 64.98 C 523.18 65.17 525.19 65.34 527.18 65.61 C 529.65 66.23 531.90 67.46 533.97 68.92 C 533.83 68.24 533.53 66.89 533.39 66.21 C 535.39 67.44 537.25 69.51 535.89 71.95 C 532.59 80.59 528.12 88.73 524.20 97.09 C 522.79 100.64 519.12 102.22 515.98 103.88 C 502.56 102.31 489.26 99.74 476.04 96.95 C 471.66 96.24 468.86 92.60 466.09 89.51 C 464.32 79.65 461.92 69.91 460.31 60.03 C 459.71 57.56 460.86 55.29 462.10 53.25 M 468.70 63.99 C 469.30 64.97 470.24 65.19 471.52 64.66 C 474.19 62.95 469.42 62.40 468.70 63.99 M 522.99 66.84 C 522.91 67.59 522.76 69.09 522.69 69.84 C 522.33 71.75 522.05 73.66 521.81 75.58 C 523.48 75.76 525.13 75.94 526.81 76.12 C 528.26 75.65 529.72 75.19 531.19 74.74 C 530.85 73.83 530.51 72.91 530.18 72.00 C 530.70 71.88 531.72 71.63 532.23 71.50 C 532.10 70.82 531.84 69.44 531.71 68.76 L 530.59 67.62 C 530.26 68.15 529.60 69.20 529.27 69.73 C 530.02 66.26 525.08 67.53 522.99 66.84 M 469.25 68.18 C 469.77 68.70 469.77 68.70 469.25 68.18 M 467.36 70.06 C 467.29 71.46 469.72 71.55 470.53 70.77 C 470.59 69.38 468.15 69.28 467.36 70.06 Z" />
<path fill="#827a7e" opacity="1.00" d=" M 464.58 53.59 C 466.91 52.96 469.34 52.89 471.74 52.98 C 472.56 54.05 473.38 55.12 474.21 56.19 L 472.90 56.13 C 472.50 56.13 471.70 56.13 471.29 56.13 L 470.40 55.90 C 469.51 55.56 468.63 55.57 467.76 55.94 L 466.96 55.99 C 466.56 56.01 465.75 56.05 465.35 56.06 C 464.68 56.11 463.35 56.21 462.68 56.26 C 463.16 55.59 464.10 54.26 464.58 53.59 Z" />
<path fill="#060606" opacity="1.00" d=" M 479.31 54.07 C 479.97 53.55 480.65 53.03 481.34 52.51 C 496.88 55.24 512.64 57.11 527.88 61.32 L 528.81 62.83 C 522.17 60.09 514.90 59.76 507.92 58.38 C 498.38 56.97 488.96 54.58 479.31 54.07 Z" />
<path fill="#1aa89c" opacity="1.00" d=" M 467.76 55.94 C 468.63 55.57 469.51 55.56 470.40 55.90 C 469.89 57.10 469.05 57.72 467.87 57.77 C 467.84 57.31 467.78 56.39 467.76 55.94 Z" />
<path fill="#b30f12" opacity="1.00" d=" M 465.35 56.06 C 465.75 56.05 466.56 56.01 466.96 55.99 C 466.59 56.54 465.84 57.64 465.47 58.19 L 464.76 57.83 C 464.91 57.39 465.20 56.51 465.35 56.06 Z" />
<path fill="#0954c8" opacity="1.00" d=" M 471.29 56.13 C 471.70 56.13 472.50 56.13 472.90 56.13 L 473.33 56.54 C 472.72 56.87 471.50 57.54 470.89 57.88 C 470.99 57.44 471.19 56.57 471.29 56.13 Z" />
<path fill="#272729" opacity="1.00" d=" M 472.90 56.13 L 474.21 56.19 C 485.88 57.55 497.42 59.87 508.99 61.89 C 515.05 63.17 521.25 63.78 527.18 65.61 C 525.19 65.34 523.18 65.17 521.19 64.98 C 519.59 76.99 518.48 89.07 516.74 101.05 C 516.50 101.03 516.01 100.98 515.77 100.96 C 515.09 100.11 514.43 99.26 513.79 98.40 C 512.68 97.87 511.60 97.35 510.50 96.82 C 511.54 96.65 512.59 96.50 513.64 96.37 C 513.88 94.85 514.11 93.34 514.34 91.82 C 514.56 90.19 514.72 88.55 514.87 86.91 L 514.90 86.54 C 515.78 79.29 516.52 72.04 517.37 64.79 C 511.35 63.65 505.27 62.98 499.23 61.96 C 492.71 60.68 486.15 59.64 479.59 58.62 C 479.42 59.55 479.27 60.48 479.15 61.41 C 478.47 65.74 478.15 70.12 477.58 74.47 C 477.11 77.94 476.78 81.43 476.84 84.93 C 477.07 87.67 477.30 90.79 474.07 91.70 L 473.04 92.20 C 473.20 92.58 473.51 93.35 473.66 93.73 C 473.26 93.64 472.45 93.46 472.04 93.37 C 471.88 81.82 474.77 70.44 475.06 58.91 C 475.04 57.78 474.46 56.99 473.33 56.54 L 472.90 56.13 Z" />
<path fill="#545456" opacity="1.00" d=" M 435.69 98.02 C 436.53 84.56 437.76 71.00 441.12 57.91 C 439.48 72.64 436.28 87.32 437.16 102.22 C 438.00 105.58 440.44 108.50 443.97 109.14 C 455.23 111.97 466.33 115.54 477.82 117.42 C 484.94 118.66 491.86 120.93 499.04 121.90 C 505.16 122.72 511.26 123.69 517.38 124.58 C 527.30 125.61 537.29 126.48 547.01 128.82 C 546.68 129.00 546.01 129.35 545.68 129.52 C 541.78 130.22 537.84 129.19 533.95 128.94 C 512.07 126.82 490.40 122.96 468.96 118.21 C 460.33 116.13 451.67 114.15 443.27 111.28 C 437.93 109.38 435.27 103.39 435.69 98.02 Z" />
<path fill="#929193" opacity="1.00" d=" M 463.33 59.98 C 463.81 59.26 464.28 58.55 464.76 57.83 L 465.47 58.19 L 465.12 59.46 C 467.18 59.48 469.22 59.54 471.28 59.62 C 470.68 62.01 468.67 61.79 466.78 61.51 C 466.49 62.50 466.22 63.49 465.96 64.49 C 466.18 62.33 465.22 60.83 463.33 59.98 Z" />
<path fill="#0f630d" opacity="1.00" d=" M 479.15 61.41 C 479.27 60.48 479.42 59.55 479.59 58.62 C 486.15 59.64 492.71 60.68 499.23 61.96 C 498.74 62.27 497.76 62.87 497.27 63.18 C 495.32 62.09 493.48 62.87 491.76 63.94 C 490.89 63.62 490.03 63.30 489.17 62.98 C 488.47 63.59 487.78 64.20 487.09 64.81 C 486.23 64.42 485.37 64.03 484.51 63.64 C 483.20 64.25 481.94 65.64 480.41 64.83 C 479.91 63.72 479.48 62.58 479.15 61.41 Z" />
<path fill="#151517" opacity="1.00" d=" M 448.64 62.69 C 450.36 62.36 452.13 62.40 453.88 62.31 C 454.60 63.18 455.29 64.07 455.96 64.99 C 456.00 65.34 456.08 66.03 456.12 66.38 C 454.10 65.57 451.98 65.02 449.83 64.76 C 451.60 66.55 453.64 68.02 455.75 69.39 C 458.05 70.47 457.78 73.67 456.82 75.60 C 455.01 78.55 451.57 81.46 447.89 80.43 C 449.43 79.53 451.23 78.94 452.57 77.73 C 452.37 76.78 451.39 76.18 450.87 75.41 C 450.50 74.29 450.16 73.17 449.85 72.05 C 449.15 72.51 448.45 72.98 447.76 73.45 C 445.83 72.56 443.96 71.56 442.17 70.44 C 443.94 70.20 445.71 69.97 447.48 69.76 C 446.17 69.12 444.86 68.47 443.55 67.83 C 445.09 66.00 446.35 63.67 448.64 62.69 Z" />
<path fill="#1088c2" opacity="1.00" d=" M 479.15 61.41 C 479.48 62.58 479.91 63.72 480.41 64.83 C 481.94 65.64 483.20 64.25 484.51 63.64 C 485.37 64.03 486.23 64.42 487.09 64.81 C 487.78 64.20 488.47 63.59 489.17 62.98 C 490.03 63.30 490.89 63.62 491.76 63.94 C 493.48 62.87 495.32 62.09 497.27 63.18 C 497.76 62.87 498.74 62.27 499.23 61.96 C 505.27 62.98 511.35 63.65 517.37 64.79 C 516.52 72.04 515.78 79.29 514.90 86.54 C 514.66 85.96 514.18 84.80 513.94 84.23 C 514.84 81.29 510.67 81.87 512.16 84.47 C 509.67 84.83 507.14 84.83 504.68 84.30 C 504.68 83.78 504.68 82.73 504.69 82.21 L 503.92 81.68 C 503.62 81.49 503.03 81.10 502.74 80.91 C 502.64 81.73 502.45 83.36 502.35 84.18 C 501.66 84.43 500.28 84.94 499.59 85.19 C 499.39 84.93 499.00 84.39 498.80 84.13 C 498.35 82.24 497.80 80.36 495.73 79.77 C 495.39 81.62 495.07 83.48 494.76 85.33 C 493.19 84.90 491.15 85.24 490.05 83.82 C 487.73 80.91 485.86 77.66 483.63 74.68 C 482.72 74.69 481.81 74.70 480.91 74.69 C 480.08 74.63 478.41 74.52 477.58 74.47 C 478.15 70.12 478.47 65.74 479.15 61.41 M 496.35 72.38 C 494.77 73.66 495.88 75.43 496.40 76.94 C 497.38 76.33 498.62 76.01 499.29 74.99 C 498.72 73.84 498.02 71.72 496.35 72.38 Z" />
<path fill="#29292b" opacity="1.00" d=" M 527.88 61.32 C 531.57 62.11 535.29 62.87 538.88 64.08 C 540.01 64.54 541.14 65.02 542.26 65.54 C 541.51 67.19 541.73 68.94 542.34 70.59 L 541.30 71.06 C 540.97 70.88 540.32 70.51 539.99 70.32 L 539.68 70.87 C 538.52 72.95 537.56 75.13 536.67 77.34 C 535.02 81.60 532.87 85.64 530.86 89.73 C 528.55 94.42 527.04 99.57 523.82 103.75 C 521.61 106.67 518.05 108.02 514.72 109.18 C 501.71 107.50 488.72 105.39 475.95 102.34 C 473.58 101.77 471.42 100.62 469.25 99.57 C 471.60 99.82 473.97 100.13 476.26 100.79 C 483.79 103.13 491.65 104.05 499.34 105.70 C 505.31 106.43 511.60 108.45 517.48 106.20 C 515.70 105.99 513.92 105.82 512.14 105.67 C 513.42 105.09 514.71 104.50 515.98 103.88 C 519.12 102.22 522.79 100.64 524.20 97.09 C 528.12 88.73 532.59 80.59 535.89 71.95 C 537.25 69.51 535.39 67.44 533.39 66.21 C 533.33 65.96 533.22 65.46 533.17 65.21 C 531.70 64.44 530.24 63.66 528.81 62.83 L 527.88 61.32 Z" />
<path fill="#757577" opacity="1.00" d=" M 468.70 63.99 C 469.42 62.40 474.19 62.95 471.52 64.66 C 470.24 65.19 469.30 64.97 468.70 63.99 Z" />
<path fill="#5a5a5c" opacity="1.00" d=" M 543.08 62.72 C 546.31 62.53 549.56 62.90 552.60 64.03 C 552.12 64.21 551.17 64.56 550.70 64.74 C 548.71 65.48 546.76 66.32 544.81 67.13 C 545.45 69.04 544.52 70.91 543.97 72.70 C 546.11 73.04 548.24 73.41 550.37 73.87 C 548.27 75.26 545.71 75.18 543.30 75.36 C 543.01 73.77 542.75 72.16 542.34 70.59 C 541.73 68.94 541.51 67.19 542.26 65.54 C 542.47 64.83 542.88 63.43 543.08 62.72 Z" />
<path fill="#232325" opacity="1.00" d=" M 555.59 65.68 C 556.11 64.74 556.66 63.82 557.24 62.90 C 558.92 64.12 560.45 65.74 560.25 67.99 C 560.19 77.02 558.47 85.96 558.46 95.00 C 558.28 101.78 556.00 108.40 556.68 115.20 C 556.33 114.00 555.97 112.80 555.59 111.62 C 552.71 114.90 553.72 120.31 549.92 122.96 C 545.66 126.08 540.19 123.85 535.52 123.06 C 533.76 122.49 532.02 121.86 530.28 121.26 C 530.26 120.88 530.21 120.14 530.19 119.77 C 532.05 119.37 534.49 119.24 535.18 117.06 C 535.25 113.87 534.10 110.79 533.96 107.60 C 541.37 103.94 547.79 98.26 552.42 91.41 C 554.17 89.63 554.79 87.20 555.01 84.78 C 552.38 86.19 550.85 88.80 548.87 90.91 C 547.18 92.12 544.99 92.19 543.06 92.72 C 542.69 92.12 541.97 90.90 541.61 90.29 C 541.03 92.46 541.18 95.51 538.57 96.32 C 535.33 97.52 532.81 99.85 530.58 102.40 L 529.50 103.45 C 529.31 100.45 531.21 98.05 532.48 95.52 C 533.55 93.25 532.56 90.28 534.23 88.29 C 534.93 88.24 536.33 88.15 537.02 88.10 L 538.67 88.09 C 542.29 86.54 543.95 82.58 546.37 79.69 C 547.06 81.60 549.68 81.21 549.94 79.28 C 550.47 79.33 551.53 79.45 552.07 79.51 C 552.53 74.74 552.80 69.79 555.59 65.68 M 545.30 83.26 C 545.78 83.78 545.78 83.78 545.30 83.26 M 547.36 83.09 C 547.59 86.41 550.31 81.51 547.36 83.09 M 546.26 87.07 C 546.01 87.37 545.50 87.96 545.25 88.25 C 546.17 91.68 550.15 86.56 546.26 87.07 M 535.38 89.18 C 535.33 90.55 537.68 91.22 538.82 90.81 C 539.20 89.23 536.49 88.40 535.38 89.18 M 535.25 93.20 C 533.21 93.60 534.34 96.50 536.15 95.90 C 538.44 95.66 537.14 92.45 535.25 93.20 Z" />
<path fill="#303032" opacity="1.00" d=" M 544.81 67.13 C 546.76 66.32 548.71 65.48 550.70 64.74 C 552.32 65.02 553.96 65.35 555.59 65.68 C 552.80 69.79 552.53 74.74 552.07 79.51 C 551.53 79.45 550.47 79.33 549.94 79.28 C 549.01 77.62 546.87 77.84 546.37 79.69 C 543.95 82.58 542.29 86.54 538.67 88.09 C 538.23 87.11 537.80 86.12 537.38 85.14 C 538.22 84.45 539.07 83.77 539.93 83.08 C 542.24 81.47 544.53 79.82 546.70 78.01 C 545.97 78.09 544.50 78.24 543.77 78.31 C 541.84 78.08 539.88 77.98 537.94 77.92 C 537.66 79.73 537.37 81.54 537.06 83.34 C 535.66 84.75 535.84 86.61 537.02 88.10 C 536.33 88.15 534.93 88.24 534.23 88.29 C 532.56 90.28 533.55 93.25 532.48 95.52 C 531.21 98.05 529.31 100.45 529.50 103.45 C 529.15 103.79 528.46 104.45 528.11 104.78 C 524.92 108.93 519.61 109.64 514.72 109.18 C 518.05 108.02 521.61 106.67 523.82 103.75 C 527.04 99.57 528.55 94.42 530.86 89.73 C 532.87 85.64 535.02 81.60 536.67 77.34 C 538.26 76.86 540.71 77.53 541.49 75.63 C 542.11 74.03 542.10 72.27 542.34 70.59 C 542.75 72.16 543.01 73.77 543.30 75.36 C 545.71 75.18 548.27 75.26 550.37 73.87 C 548.24 73.41 546.11 73.04 543.97 72.70 C 544.52 70.91 545.45 69.04 544.81 67.13 Z" />
<path fill="#616163" opacity="1.00" d=" M 522.99 66.84 C 525.08 67.53 530.02 66.26 529.27 69.73 C 529.60 69.20 530.26 68.15 530.59 67.62 L 531.71 68.76 C 531.84 69.44 532.10 70.82 532.23 71.50 C 529.04 70.97 525.87 70.38 522.69 69.84 C 522.76 69.09 522.91 67.59 522.99 66.84 Z" />
<path fill="#575556" opacity="1.00" d=" M 469.25 68.18 C 469.77 68.70 469.77 68.70 469.25 68.18 Z" />
<path fill="#515053" opacity="1.00" d=" M 455.76 83.64 C 457.89 78.81 457.81 73.45 458.42 68.31 C 460.00 74.74 458.82 81.38 459.53 87.90 C 459.73 90.79 461.64 93.09 463.30 95.32 C 463.17 94.10 463.04 92.88 462.92 91.66 C 463.30 92.04 464.04 92.80 464.42 93.18 C 465.25 94.36 466.03 95.58 466.77 96.83 C 466.32 97.35 465.41 98.39 464.96 98.91 C 463.59 98.05 462.23 97.20 460.86 96.35 C 462.36 100.09 464.45 103.90 468.29 105.66 C 477.18 109.91 487.41 109.73 496.59 113.13 C 492.54 113.10 488.53 112.51 484.61 111.51 C 478.31 109.98 471.61 109.30 465.93 105.96 C 463.18 104.41 461.26 101.84 459.51 99.30 C 459.09 99.11 458.25 98.74 457.83 98.56 C 457.58 93.54 457.05 88.51 455.76 83.64 Z" />
<path fill="#363638" opacity="1.00" d=" M 467.36 70.06 C 468.15 69.28 470.59 69.38 470.53 70.77 C 469.72 71.55 467.29 71.46 467.36 70.06 Z" />
<path fill="#081f1d" opacity="1.00" d=" M 522.69 69.84 C 525.87 70.38 529.04 70.97 532.23 71.50 C 531.72 71.63 530.70 71.88 530.18 72.00 C 530.51 72.91 530.85 73.83 531.19 74.74 C 529.72 75.19 528.26 75.65 526.81 76.12 C 525.13 75.94 523.48 75.76 521.81 75.58 C 522.05 73.66 522.33 71.75 522.69 69.84 Z" />
<path fill="#809ee4" opacity="1.00" d=" M 539.99 70.32 C 540.32 70.51 540.97 70.88 541.30 71.06 C 541.25 71.57 541.13 72.58 541.07 73.09 C 540.19 75.00 539.45 71.62 539.68 70.87 L 539.99 70.32 Z" />
<path fill="#2552b1" opacity="1.00" d=" M 536.67 77.34 C 537.56 75.13 538.52 72.95 539.68 70.87 C 539.45 71.62 540.19 75.00 541.07 73.09 C 541.13 72.58 541.25 71.57 541.30 71.06 L 542.34 70.59 C 542.10 72.27 542.11 74.03 541.49 75.63 C 540.71 77.53 538.26 76.86 536.67 77.34 Z" />
<path fill="#524a48" opacity="1.00" d=" M 496.35 72.38 C 498.02 71.72 498.72 73.84 499.29 74.99 C 498.62 76.01 497.38 76.33 496.40 76.94 C 495.88 75.43 494.77 73.66 496.35 72.38 Z" />
<path fill="#0f630d" opacity="1.00" d=" M 480.91 74.69 C 481.81 74.70 482.72 74.69 483.63 74.68 C 485.86 77.66 487.73 80.91 490.05 83.82 C 491.15 85.24 493.19 84.90 494.76 85.33 C 495.07 83.48 495.39 81.62 495.73 79.77 C 497.80 80.36 498.35 82.24 498.80 84.13 C 499.00 84.39 499.39 84.93 499.59 85.19 C 500.21 85.34 501.45 85.64 502.07 85.79 L 501.07 87.05 C 497.33 86.70 493.47 86.37 489.95 84.98 C 486.51 81.94 484.88 77.23 480.91 74.69 M 496.25 82.59 C 495.29 83.82 495.48 84.52 496.83 84.70 C 497.78 83.48 497.58 82.78 496.25 82.59 Z" />
<path fill="#7f7f82" opacity="1.00" d=" M 442.59 74.78 C 445.36 74.78 448.13 74.92 450.87 75.41 C 451.39 76.18 452.37 76.78 452.57 77.73 C 451.23 78.94 449.43 79.53 447.89 80.43 C 445.77 78.90 444.00 76.97 442.59 74.78 Z" />
<path fill="#696c11" opacity="1.00" d=" M 477.58 74.47 C 478.41 74.52 480.08 74.63 480.91 74.69 C 484.88 77.23 486.51 81.94 489.95 84.98 C 493.47 86.37 497.33 86.70 501.07 87.05 L 502.07 85.79 C 503.07 85.39 504.30 84.78 504.80 86.19 C 504.51 86.76 503.92 87.89 503.63 88.46 C 504.42 87.66 505.28 86.90 506.00 86.02 C 508.97 85.88 511.95 86.27 514.87 86.91 C 514.72 88.55 514.56 90.19 514.34 91.82 C 501.94 89.02 489.35 87.19 476.84 84.93 C 476.78 81.43 477.11 77.94 477.58 74.47 Z" />
<path fill="#656567" opacity="1.00" d=" M 537.94 77.92 C 539.88 77.98 541.84 78.08 543.77 78.31 C 544.50 78.24 545.97 78.09 546.70 78.01 C 544.53 79.82 542.24 81.47 539.93 83.08 L 540.50 81.94 C 539.34 82.39 538.19 82.85 537.06 83.34 C 537.37 81.54 537.66 79.73 537.94 77.92 Z" />
<path fill="#89888a" opacity="1.00" d=" M 546.37 79.69 C 546.87 77.84 549.01 77.62 549.94 79.28 C 549.68 81.21 547.06 81.60 546.37 79.69 Z" />
<path fill="#081f1d" opacity="1.00" d=" M 502.74 80.91 C 503.03 81.10 503.62 81.49 503.92 81.68 C 502.03 82.08 502.99 84.68 504.68 84.30 C 505.01 84.73 505.67 85.59 506.00 86.02 C 505.28 86.90 504.42 87.66 503.63 88.46 C 503.92 87.89 504.51 86.76 504.80 86.19 C 504.30 84.78 503.07 85.39 502.07 85.79 C 502.14 85.39 502.28 84.58 502.35 84.18 C 502.45 83.36 502.64 81.73 502.74 80.91 Z" />
<path fill="#aa6d0d" opacity="1.00" d=" M 496.25 82.59 C 497.58 82.78 497.78 83.48 496.83 84.70 C 495.48 84.52 495.29 83.82 496.25 82.59 Z" />
<path fill="#a39d43" opacity="1.00" d=" M 504.68 84.30 C 502.99 84.68 502.03 82.08 503.92 81.68 L 504.69 82.21 C 504.68 82.73 504.68 83.78 504.68 84.30 Z" />
<path fill="#742a3a" opacity="1.00" d=" M 512.16 84.47 C 510.67 81.87 514.84 81.29 513.94 84.23 C 513.50 84.29 512.60 84.41 512.16 84.47 Z" />
<path fill="#898789" opacity="1.00" d=" M 537.06 83.34 C 538.19 82.85 539.34 82.39 540.50 81.94 L 539.93 83.08 C 539.07 83.77 538.22 84.45 537.38 85.14 C 537.80 86.12 538.23 87.11 538.67 88.09 L 537.02 88.10 C 535.84 86.61 535.66 84.75 537.06 83.34 Z" />
<path fill="#585759" opacity="1.00" d=" M 545.30 83.26 C 545.78 83.78 545.78 83.78 545.30 83.26 Z" />
<path fill="#565658" opacity="1.00" d=" M 547.36 83.09 C 550.31 81.51 547.59 86.41 547.36 83.09 Z" />
<path fill="#333335" opacity="1.00" d=" M 455.21 91.06 C 455.01 88.54 454.25 85.95 455.76 83.64 C 457.05 88.51 457.58 93.54 457.83 98.56 C 458.25 98.74 459.09 99.11 459.51 99.30 C 461.26 101.84 463.18 104.41 465.93 105.96 C 471.61 109.30 478.31 109.98 484.61 111.51 C 488.53 112.51 492.54 113.10 496.59 113.13 C 499.95 113.43 503.32 113.83 506.61 114.68 C 510.77 116.71 515.75 116.83 520.05 115.10 C 523.56 113.56 526.10 110.56 528.74 107.89 C 530.47 107.80 532.22 107.74 533.96 107.60 C 534.10 110.79 535.25 113.87 535.18 117.06 C 534.49 119.24 532.05 119.37 530.19 119.77 C 530.21 120.14 530.26 120.88 530.28 121.26 C 532.02 121.86 533.76 122.49 535.52 123.06 C 526.91 122.97 518.63 120.22 510.05 119.72 C 495.56 117.29 481.03 114.93 466.79 111.28 C 458.52 109.14 449.89 108.69 441.72 106.15 C 446.34 104.77 451.09 105.76 455.72 106.45 C 454.49 105.68 453.26 104.92 452.03 104.15 C 453.17 104.17 454.30 104.19 455.45 104.22 C 455.94 105.27 456.44 106.32 456.94 107.37 C 456.91 106.00 456.90 104.63 456.89 103.27 C 454.03 102.66 451.17 102.09 448.30 101.54 C 448.23 100.96 448.09 99.80 448.02 99.22 C 448.69 99.89 449.36 100.55 450.03 101.22 C 450.13 99.84 450.24 98.46 450.35 97.08 C 450.56 97.57 450.99 98.57 451.20 99.07 C 452.15 98.13 453.09 97.20 454.04 96.26 C 453.65 96.11 452.87 95.80 452.48 95.65 C 453.47 94.17 454.65 92.77 455.21 91.06 Z" />
<path fill="#a59d50" opacity="1.00" d=" M 499.59 85.19 C 500.28 84.94 501.66 84.43 502.35 84.18 C 502.28 84.58 502.14 85.39 502.07 85.79 C 501.45 85.64 500.21 85.34 499.59 85.19 Z" />
<path fill="#247d34" opacity="1.00" d=" M 504.68 84.30 C 507.14 84.83 509.67 84.83 512.16 84.47 C 512.60 84.41 513.50 84.29 513.94 84.23 C 514.18 84.80 514.66 85.96 514.90 86.54 L 514.87 86.91 C 511.95 86.27 508.97 85.88 506.00 86.02 C 505.67 85.59 505.01 84.73 504.68 84.30 Z" />
<path fill="#28282a" opacity="1.00" d=" M 476.84 84.93 C 489.35 87.19 501.94 89.02 514.34 91.82 C 514.11 93.34 513.88 94.85 513.64 96.37 C 512.59 96.50 511.54 96.65 510.50 96.82 C 510.14 96.93 509.41 97.15 509.05 97.26 C 499.31 95.73 489.59 94.12 479.93 92.23 C 477.99 91.87 476.03 91.61 474.07 91.70 C 477.30 90.79 477.07 87.67 476.84 84.93 M 478.06 87.45 C 476.54 90.46 481.38 87.58 478.06 87.45 M 480.22 88.21 C 480.29 91.55 483.24 86.75 480.22 88.21 M 482.96 88.42 C 481.55 91.48 486.28 88.42 482.96 88.42 M 493.05 89.61 C 492.30 91.62 496.49 91.65 495.96 89.68 C 495.29 88.84 493.74 88.77 493.05 89.61 M 509.03 92.61 C 508.54 94.40 512.29 94.84 512.70 93.21 C 512.16 91.91 510.01 91.73 509.03 92.61 Z" />
<path fill="#3f3f41" opacity="1.00" d=" M 548.87 90.91 C 550.85 88.80 552.38 86.19 555.01 84.78 C 554.79 87.20 554.17 89.63 552.42 91.41 C 547.70 95.72 543.10 100.52 537.02 102.88 C 534.92 103.92 532.66 102.86 530.58 102.40 C 532.81 99.85 535.33 97.52 538.57 96.32 C 541.18 95.51 541.03 92.46 541.61 90.29 C 541.97 90.90 542.69 92.12 543.06 92.72 C 544.99 92.19 547.18 92.12 548.87 90.91 Z" />
<path fill="#970b0a" opacity="1.00" d=" M 478.06 87.45 C 481.38 87.58 476.54 90.46 478.06 87.45 Z" />
<path fill="#99999b" opacity="1.00" d=" M 546.26 87.07 C 550.15 86.56 546.17 91.68 545.25 88.25 C 545.50 87.96 546.01 87.37 546.26 87.07 Z" />
<path fill="#8d0c0c" opacity="1.00" d=" M 480.22 88.21 C 483.24 86.75 480.29 91.55 480.22 88.21 Z" />
<path fill="#9b0c0a" opacity="1.00" d=" M 482.96 88.42 C 486.28 88.42 481.55 91.48 482.96 88.42 Z" />
<path fill="#525153" opacity="1.00" d=" M 493.05 89.61 C 493.74 88.77 495.29 88.84 495.96 89.68 C 496.49 91.65 492.30 91.62 493.05 89.61 Z" />
<path fill="#4c4c4e" opacity="1.00" d=" M 535.38 89.18 C 536.49 88.40 539.20 89.23 538.82 90.81 C 537.68 91.22 535.33 90.55 535.38 89.18 Z" />
<path fill="#2f2f31" opacity="1.00" d=" M 464.42 93.18 C 464.97 91.96 465.53 90.74 466.09 89.51 C 468.86 92.60 471.66 96.24 476.04 96.95 C 489.26 99.74 502.56 102.31 515.98 103.88 C 514.71 104.50 513.42 105.09 512.14 105.67 C 513.92 105.82 515.70 105.99 517.48 106.20 C 511.60 108.45 505.31 106.43 499.34 105.70 C 491.65 104.05 483.79 103.13 476.26 100.79 C 473.97 100.13 471.60 99.82 469.25 99.57 L 468.34 99.41 C 467.80 98.56 467.28 97.70 466.77 96.83 C 466.03 95.58 465.25 94.36 464.42 93.18 Z" />
<path fill="#939295" opacity="1.00" d=" M 537.02 102.88 C 543.10 100.52 547.70 95.72 552.42 91.41 C 547.79 98.26 541.37 103.94 533.96 107.60 C 532.22 107.74 530.47 107.80 528.74 107.89 C 528.52 106.85 528.31 105.82 528.11 104.78 C 528.46 104.45 529.15 103.79 529.50 103.45 L 530.58 102.40 C 532.66 102.86 534.92 103.92 537.02 102.88 Z" />
<path fill="#b5b4b6" opacity="1.00" d=" M 473.04 92.20 L 474.07 91.70 C 476.03 91.61 477.99 91.87 479.93 92.23 C 489.59 94.12 499.31 95.73 509.05 97.26 C 509.41 97.15 510.14 96.93 510.50 96.82 C 511.60 97.35 512.68 97.87 513.79 98.40 C 514.43 99.26 515.09 100.11 515.77 100.96 C 501.60 99.39 487.63 96.51 473.66 93.73 C 473.51 93.35 473.20 92.58 473.04 92.20 Z" />
<path fill="#3e3d3f" opacity="1.00" d=" M 509.03 92.61 C 510.01 91.73 512.16 91.91 512.70 93.21 C 512.29 94.84 508.54 94.40 509.03 92.61 Z" />
<path fill="#acabad" opacity="1.00" d=" M 535.25 93.20 C 537.14 92.45 538.44 95.66 536.15 95.90 C 534.34 96.50 533.21 93.60 535.25 93.20 Z" />
<path fill="#929193" opacity="1.00" d=" M 460.86 96.35 C 462.23 97.20 463.59 98.05 464.96 98.91 C 465.41 98.39 466.32 97.35 466.77 96.83 C 467.28 97.70 467.80 98.56 468.34 99.41 C 471.60 104.32 478.21 104.12 483.33 105.53 C 496.01 108.69 509.05 109.68 521.92 111.73 C 517.58 115.29 511.83 114.60 506.61 114.68 C 503.32 113.83 499.95 113.43 496.59 113.13 C 487.41 109.73 477.18 109.91 468.29 105.66 C 464.45 103.90 462.36 100.09 460.86 96.35 Z" />
<path fill="#504f52" opacity="1.00" d=" M 468.34 99.41 L 469.25 99.57 C 471.42 100.62 473.58 101.77 475.95 102.34 C 488.72 105.39 501.71 107.50 514.72 109.18 C 519.61 109.64 524.92 108.93 528.11 104.78 C 528.31 105.82 528.52 106.85 528.74 107.89 C 526.10 110.56 523.56 113.56 520.05 115.10 C 515.75 116.83 510.77 116.71 506.61 114.68 C 511.83 114.60 517.58 115.29 521.92 111.73 C 509.05 109.68 496.01 108.69 483.33 105.53 C 478.21 104.12 471.60 104.32 468.34 99.41 Z" />
<path fill="#474749" opacity="1.00" d=" M 437.16 102.22 C 438.62 103.59 440.10 104.96 441.72 106.15 C 449.89 108.69 458.52 109.14 466.79 111.28 C 481.03 114.93 495.56 117.29 510.05 119.72 C 518.63 120.22 526.91 122.97 535.52 123.06 C 540.19 123.85 545.66 126.08 549.92 122.96 C 553.72 120.31 552.71 114.90 555.59 111.62 C 556.26 118.33 553.99 126.37 547.01 128.82 C 537.29 126.48 527.30 125.61 517.38 124.58 C 511.26 123.69 505.16 122.72 499.04 121.90 C 491.86 120.93 484.94 118.66 477.82 117.42 C 466.33 115.54 455.23 111.97 443.97 109.14 C 440.44 108.50 438.00 105.58 437.16 102.22 Z" />
<path fill="#000000" opacity="0.76" d=" M 443.27 111.28 C 451.67 114.15 460.33 116.13 468.96 118.21 C 490.40 122.96 512.07 126.82 533.95 128.94 C 537.84 129.19 541.78 130.22 545.68 129.52 C 547.39 129.16 549.06 128.61 550.67 127.91 C 550.63 128.53 550.55 129.77 550.51 130.39 C 548.19 131.41 545.72 131.99 543.18 131.78 C 520.85 131.33 498.80 127.04 477.15 121.82 C 467.24 119.36 457.00 118.05 447.46 114.28 C 445.81 113.66 444.44 112.56 443.27 111.28 Z" />
<path fill="#ffffff" opacity="1.00" d=" M 18.96 296.08 C 21.50 290.83 29.12 290.47 33.56 293.38 C 37.22 295.73 36.45 300.64 36.67 304.37 C 34.04 304.38 31.42 304.37 28.79 304.38 C 28.68 302.40 29.02 300.33 28.24 298.45 C 26.04 297.59 25.87 300.68 25.99 302.05 C 25.97 306.16 30.61 307.48 32.97 310.08 C 38.13 314.04 37.83 321.37 36.87 327.13 C 35.05 333.45 25.98 334.51 21.33 330.73 C 17.58 327.63 18.42 322.20 18.23 317.88 C 20.86 317.87 23.49 317.87 26.12 317.88 C 26.37 320.63 25.43 323.76 26.96 326.24 C 30.34 325.97 29.26 321.36 28.82 319.03 C 26.07 314.66 19.95 312.92 18.56 307.58 C 17.73 303.82 17.66 299.74 18.96 296.08 Z" />
<path fill="#ffffff" opacity="1.00" d=" M 59.48 294.64 C 63.58 289.82 72.41 290.87 75.33 296.48 C 76.80 299.76 76.55 303.45 76.68 306.96 C 73.83 307.01 70.97 307.00 68.12 307.00 C 67.73 304.14 69.12 300.37 66.96 298.16 L 65.83 298.79 C 65.29 307.90 65.25 317.16 65.89 326.27 C 66.40 326.12 67.43 325.80 67.94 325.64 C 68.58 322.86 68.47 319.95 68.27 317.12 C 67.89 316.93 67.13 316.56 66.75 316.37 C 66.75 314.49 66.75 312.62 66.75 310.75 C 70.04 310.75 73.32 310.75 76.60 310.74 C 76.66 317.81 76.57 324.88 76.66 331.96 C 74.82 331.98 72.99 331.99 71.15 332.00 C 70.97 331.09 70.79 330.20 70.61 329.30 C 69.41 330.79 68.19 332.62 66.10 332.82 C 61.64 333.46 57.82 329.38 57.34 325.17 C 56.65 318.81 57.15 312.38 56.99 306.00 C 57.19 302.17 56.62 297.67 59.48 294.64 Z" />
<path fill="#ffffff" opacity="1.00" d=" M 82.64 292.50 C 86.70 292.49 90.76 292.51 94.82 292.48 C 96.51 305.65 98.10 318.83 99.75 332.00 C 96.84 332.00 93.93 332.00 91.03 332.00 C 90.87 329.62 90.72 327.25 90.58 324.87 C 89.82 324.87 88.30 324.87 87.55 324.87 C 87.40 327.25 87.25 329.62 87.10 332.00 C 84.15 332.00 81.20 332.00 78.26 332.00 C 79.71 318.83 81.19 305.67 82.64 292.50 M 87.45 317.88 C 88.39 317.86 89.34 317.85 90.29 317.84 C 90.05 312.31 88.95 306.75 89.59 301.23 C 87.78 306.49 88.25 312.36 87.45 317.88 Z" />
<path fill="#ffff00" opacity="1.00" d=" M 109.17 297.80 C 111.00 291.24 120.28 289.63 124.95 294.12 C 128.61 297.30 127.97 302.63 128.16 307.00 C 125.32 307.00 122.47 307.00 119.63 307.00 C 119.26 303.93 120.73 300.02 118.00 297.74 C 116.26 301.23 117.24 305.24 117.00 308.99 C 117.21 314.48 116.54 320.06 117.37 325.50 C 117.81 325.76 118.68 326.28 119.11 326.54 C 120.14 323.39 119.87 320.05 119.88 316.80 C 119.47 316.77 118.64 316.70 118.23 316.67 C 118.24 314.69 118.25 312.72 118.26 310.75 C 121.55 310.75 124.84 310.75 128.12 310.75 C 128.13 317.83 128.13 324.92 128.12 332.00 C 126.34 332.00 124.55 332.00 122.77 332.00 C 122.48 331.11 122.21 330.24 121.93 329.37 C 120.56 332.11 117.36 333.80 114.39 332.49 C 109.75 330.81 108.31 325.48 108.51 321.02 C 108.73 313.29 107.88 305.46 109.17 297.80 Z" />
<path fill="#ffff00" opacity="1.00" d=" M 144.14 297.92 C 145.88 291.26 155.30 289.58 159.98 294.15 C 163.62 297.32 162.97 302.65 163.16 307.00 C 160.32 307.00 157.47 307.00 154.63 307.00 C 154.48 304.21 155.05 301.26 154.09 298.58 C 151.84 297.16 152.06 300.81 152.00 302.04 C 152.23 309.85 151.50 317.76 152.39 325.50 C 152.82 325.77 153.66 326.29 154.09 326.55 C 155.16 323.41 154.86 320.06 154.88 316.80 C 154.47 316.77 153.64 316.70 153.22 316.66 C 153.24 314.69 153.25 312.72 153.26 310.75 C 156.55 310.75 159.84 310.75 163.12 310.75 C 163.13 317.83 163.12 324.92 163.12 332.00 C 161.33 332.00 159.54 332.00 157.75 332.00 C 157.48 331.11 157.22 330.25 156.96 329.37 C 155.59 331.85 152.82 333.69 149.92 332.66 C 145.33 331.38 143.36 326.29 143.54 321.91 C 143.69 313.92 142.91 305.84 144.14 297.92 Z" />
<path fill="#ffff00" opacity="1.00" d=" M 166.74 292.51 C 171.45 292.48 176.15 292.51 180.86 292.49 C 180.88 295.12 180.87 297.74 180.87 300.38 C 179.00 300.37 177.13 300.37 175.25 300.37 C 175.25 302.87 175.25 305.37 175.25 307.87 C 177.00 307.87 178.75 307.87 180.50 307.88 C 180.50 310.38 180.50 312.87 180.50 315.38 C 178.75 315.37 177.00 315.37 175.25 315.37 C 175.25 318.29 175.25 321.21 175.26 324.14 C 177.35 324.12 179.43 324.12 181.52 324.12 C 181.51 326.74 181.47 329.37 181.37 332.00 C 176.50 332.00 171.62 332.00 166.75 332.00 C 166.74 318.84 166.76 305.67 166.74 292.51 Z" />
<path fill="#ffff00" opacity="1.00" d=" M 186.16 292.49 C 190.22 292.50 194.29 292.49 198.35 292.50 C 199.99 305.67 201.61 318.83 203.25 332.00 C 200.32 332.01 197.40 332.02 194.47 331.92 C 194.36 329.57 194.23 327.22 194.09 324.88 C 193.33 324.88 191.80 324.87 191.04 324.87 C 190.90 327.23 190.75 329.59 190.63 331.96 C 187.63 332.01 184.63 332.00 181.63 332.00 C 183.39 318.86 184.59 305.65 186.16 292.49 M 192.47 301.10 C 192.04 306.71 191.38 312.30 190.98 317.91 C 191.68 317.90 193.09 317.86 193.79 317.85 C 193.35 312.26 192.99 306.67 192.47 301.10 Z" />
<path fill="#ffffff" opacity="1.00" d=" M 40.25 331.99 C 40.28 318.82 40.21 305.65 40.28 292.48 C 44.98 292.51 49.68 292.49 54.38 292.50 C 54.38 295.12 54.38 297.75 54.38 300.37 C 52.49 300.37 50.62 300.37 48.74 300.38 C 48.75 302.88 48.75 305.39 48.77 307.89 C 50.51 307.87 52.25 307.87 54.00 307.87 C 54.00 310.37 54.00 312.86 54.00 315.37 C 52.25 315.37 50.50 315.37 48.75 315.38 C 48.75 318.29 48.75 321.21 48.75 324.12 C 50.83 324.12 52.91 324.12 55.00 324.12 C 55.00 326.74 55.00 329.37 55.00 332.00 C 50.08 332.00 45.16 332.00 40.25 331.99 Z" />
<path fill="#ffff00" opacity="1.00" d=" M 204.75 292.50 C 209.72 292.66 214.85 291.98 219.69 293.35 C 224.30 296.04 223.78 302.33 223.41 306.92 C 223.45 309.29 221.62 310.99 219.36 311.33 C 221.37 312.16 223.29 313.72 223.45 316.06 C 223.85 321.34 223.50 326.66 223.66 331.96 C 221.02 332.00 218.38 332.00 215.75 332.01 C 215.52 326.29 216.24 320.50 215.34 314.85 C 214.84 314.58 213.83 314.04 213.33 313.77 C 213.17 319.84 213.29 325.92 213.25 332.00 C 210.42 332.00 207.58 332.00 204.75 332.00 C 204.75 318.83 204.75 305.67 204.75 292.50 M 213.38 298.83 C 213.20 301.98 213.22 305.15 213.30 308.32 C 214.23 307.77 215.85 307.68 215.65 306.18 C 215.75 303.60 216.68 299.75 213.38 298.83 Z" />
<path fill="#ffff00" opacity="1.00" d=" M 130.75 312.50 C 134.29 312.49 137.83 312.49 141.38 312.50 C 141.37 314.75 141.38 317.00 141.37 319.25 C 137.83 319.25 134.29 319.25 130.75 319.25 C 130.75 317.00 130.75 314.75 130.75 312.50 Z" />
</svg>
