<?xml version="1.0" encoding="UTF-8" ?>
<!DOCTYPE svg PUBLIC "-//W3C//DTD SVG 1.1//EN" "http://www.w3.org/Graphics/SVG/1.1/DTD/svg11.dtd">
<svg width="960pt" height="540pt" viewBox="0 0 960 540" version="1.1" xmlns="http://www.w3.org/2000/svg">
<path fill="#918f8d" opacity="1.00" d=" M 509.05 50.50 C 513.75 49.04 518.55 47.89 523.24 46.38 C 526.14 49.48 528.76 52.96 530.74 56.71 C 530.82 57.32 530.98 58.54 531.06 59.15 C 528.60 56.13 526.78 52.62 524.09 49.80 C 519.70 50.76 515.50 52.42 511.10 53.34 C 510.41 52.40 509.73 51.45 509.05 50.50 Z" />
<path fill="#222a2c" opacity="1.00" d=" M 511.10 53.34 C 515.50 52.42 519.70 50.76 524.09 49.80 C 526.78 52.62 528.60 56.13 531.06 59.15 C 532.95 61.99 534.87 64.82 536.52 67.81 C 534.41 68.58 532.29 69.33 530.17 70.04 C 528.24 70.67 526.34 71.36 524.41 71.98 C 522.39 72.60 520.27 72.54 518.19 72.42 C 517.66 73.16 517.13 73.90 516.62 74.64 C 514.63 75.34 512.65 76.04 510.68 76.74 C 509.81 75.39 508.95 74.04 508.09 72.69 C 504.84 67.51 501.97 62.10 498.86 56.83 C 502.93 55.62 506.97 54.34 511.10 53.34 M 511.42 56.82 C 509.42 57.35 507.42 57.87 505.49 58.58 L 506.54 57.50 C 504.97 57.99 503.43 58.50 501.89 59.04 C 503.10 62.00 504.70 64.80 506.80 67.24 L 506.93 68.19 C 507.74 69.62 508.56 71.04 509.39 72.47 L 510.47 71.99 C 510.42 72.42 510.33 73.27 510.29 73.70 C 513.78 72.56 517.41 71.67 520.69 69.95 C 522.88 69.77 524.98 69.06 527.05 68.34 C 529.04 67.81 531.00 67.13 532.98 66.53 C 532.56 65.64 532.14 64.76 531.73 63.88 L 531.11 64.06 C 530.10 62.44 529.07 60.83 528.01 59.25 C 527.14 57.90 526.29 56.55 525.50 55.16 C 520.96 52.49 516.11 56.47 511.42 56.82 Z" />
<path fill="#cbcccb" opacity="1.00" d=" M 499.86 53.07 C 502.89 52.12 506.01 51.45 509.05 50.50 C 509.73 51.45 510.41 52.40 511.10 53.34 C 506.97 54.34 502.93 55.62 498.86 56.83 C 501.97 62.10 504.84 67.51 508.09 72.69 C 507.65 72.98 506.76 73.57 506.31 73.86 C 504.31 70.23 502.20 66.68 499.92 63.23 C 498.43 60.66 496.87 58.11 495.71 55.38 C 495.96 55.34 496.48 55.27 496.73 55.24 C 497.02 55.39 497.59 55.69 497.87 55.84 C 498.53 54.92 499.17 53.98 499.86 53.07 Z" />
<path fill="#70706f" opacity="1.00" d=" M 495.50 54.57 C 496.84 53.82 498.38 53.48 499.86 53.07 C 499.17 53.98 498.53 54.92 497.87 55.84 C 497.59 55.69 497.02 55.39 496.73 55.24 C 496.48 55.27 495.96 55.34 495.71 55.38 C 496.87 58.11 498.43 60.66 499.92 63.23 L 499.38 62.47 C 499.91 64.56 501.57 66.72 500.32 68.87 C 498.95 66.47 497.51 64.11 496.02 61.78 C 494.21 59.72 494.06 56.89 495.50 54.57 Z" />
<path fill="#89af7d" opacity="1.00" d=" M 511.42 56.82 C 516.11 56.47 520.96 52.49 525.50 55.16 C 524.05 55.89 522.60 56.59 521.15 57.29 C 522.06 58.54 522.98 59.79 523.90 61.04 C 523.43 61.22 522.51 61.59 522.04 61.77 C 521.00 60.62 520.34 59.03 518.99 58.23 C 516.84 58.12 514.69 58.34 512.56 58.39 C 512.27 58.00 511.70 57.21 511.42 56.82 Z" />
<path fill="#593a61" opacity="1.00" d=" M 525.50 55.16 C 526.29 56.55 527.14 57.90 528.01 59.25 C 526.63 59.85 525.27 60.46 523.90 61.04 C 522.98 59.79 522.06 58.54 521.15 57.29 C 522.60 56.59 524.05 55.89 525.50 55.16 Z" />
<path fill="#c8c2db" opacity="1.00" d=" M 444.94 59.71 C 455.26 58.73 465.61 57.94 475.93 56.87 C 480.30 57.10 484.68 57.58 489.06 57.87 C 491.72 57.94 494.54 60.01 494.30 62.89 C 491.66 61.13 488.47 60.85 485.49 60.10 C 482.01 59.18 478.79 56.83 475.05 57.34 C 465.04 58.47 455.02 59.59 444.94 59.71 Z" />
<path fill="#116a98" opacity="1.00" d=" M 505.49 58.58 C 507.42 57.87 509.42 57.35 511.42 56.82 C 511.70 57.21 512.27 58.00 512.56 58.39 C 512.76 58.66 513.17 59.21 513.37 59.48 C 512.08 59.92 510.82 60.41 509.58 60.94 L 509.14 61.12 C 507.86 61.68 506.61 62.29 505.37 62.90 C 504.96 61.89 504.59 60.88 504.26 59.85 C 504.57 59.53 505.18 58.90 505.49 58.58 Z" />
<path fill="#c4c4c4" opacity="1.00" d=" M 530.74 56.71 C 534.07 61.08 537.23 65.60 540.16 70.25 C 539.16 70.70 538.45 71.41 538.02 72.36 C 538.29 73.93 540.27 72.59 540.78 71.85 C 542.03 72.88 542.77 74.32 542.31 75.96 C 539.74 76.27 537.18 76.65 534.64 77.06 C 535.51 76.50 536.40 75.93 537.29 75.36 C 536.60 75.08 535.22 74.51 534.54 74.22 C 535.10 74.04 536.23 73.68 536.80 73.50 C 536.72 73.23 536.58 72.67 536.50 72.40 C 534.57 73.12 532.64 73.84 530.71 74.56 C 530.52 73.05 530.35 71.54 530.17 70.04 C 532.29 69.33 534.41 68.58 536.52 67.81 C 534.87 64.82 532.95 61.99 531.06 59.15 C 530.98 58.54 530.82 57.32 530.74 56.71 M 536.48 69.11 C 535.97 70.47 536.43 71.01 537.86 70.72 C 538.35 69.36 537.89 68.82 536.48 69.11 M 538.24 74.26 C 538.72 74.80 538.72 74.80 538.24 74.26 Z" />
<path fill="#645695" opacity="1.00" d=" M 444.94 59.71 C 455.02 59.59 465.04 58.47 475.05 57.34 C 478.79 56.83 482.01 59.18 485.49 60.10 C 488.47 60.85 491.66 61.13 494.30 62.89 L 494.28 63.26 C 494.25 64.03 494.18 65.55 494.14 66.31 C 490.22 67.14 486.14 66.84 482.24 67.69 C 481.24 68.70 480.54 69.96 479.74 71.12 C 479.53 69.38 479.35 67.64 479.12 65.91 C 478.46 64.91 478.64 62.66 476.97 62.83 C 467.28 62.11 457.51 63.15 447.99 65.01 C 446.64 65.38 444.68 65.60 444.44 67.31 C 443.72 71.85 444.15 76.48 444.18 81.06 C 443.89 80.75 443.31 80.12 443.02 79.81 C 442.56 78.91 442.12 78.00 441.69 77.09 C 441.64 77.22 441.52 77.49 441.47 77.62 C 440.62 77.74 438.94 77.98 438.10 78.10 C 438.02 77.14 437.87 75.21 437.79 74.25 C 436.04 74.75 435.56 76.33 435.24 77.91 C 434.69 77.96 433.60 78.04 433.06 78.08 L 432.14 78.17 C 431.76 79.45 431.45 80.75 431.12 82.04 C 429.76 77.41 431.22 72.31 429.34 67.88 L 428.67 66.78 C 428.79 66.76 429.03 66.71 429.16 66.68 C 433.83 66.10 437.97 63.78 441.71 61.05 C 442.71 60.45 443.76 59.86 444.94 59.71 Z" />
<path fill="#497953" opacity="1.00" d=" M 501.89 59.04 C 503.43 58.50 504.97 57.99 506.54 57.50 L 505.49 58.58 C 505.18 58.90 504.57 59.53 504.26 59.85 C 504.59 60.88 504.96 61.89 505.37 62.90 L 506.73 63.01 C 506.52 63.46 506.08 64.35 505.87 64.80 L 506.52 65.32 C 506.59 65.80 506.73 66.76 506.80 67.24 C 504.70 64.80 503.10 62.00 501.89 59.04 Z" />
<path fill="#498a54" opacity="1.00" d=" M 512.56 58.39 C 514.69 58.34 516.84 58.12 518.99 58.23 C 520.34 59.03 521.00 60.62 522.04 61.77 C 522.51 61.59 523.43 61.22 523.90 61.04 C 525.27 60.46 526.63 59.85 528.01 59.25 C 529.07 60.83 530.10 62.44 531.11 64.06 C 528.71 64.76 526.32 65.51 523.94 66.30 C 524.25 66.74 524.88 67.63 525.19 68.07 C 525.65 68.14 526.58 68.28 527.05 68.34 C 524.98 69.06 522.88 69.77 520.69 69.95 C 520.60 69.54 520.40 68.71 520.31 68.30 C 517.01 69.48 513.68 70.58 510.47 71.99 L 509.39 72.47 C 508.56 71.04 507.74 69.62 506.93 68.19 C 510.45 66.91 514.03 65.61 516.93 63.16 C 516.05 62.27 515.18 61.38 514.33 60.49 C 514.09 60.24 513.61 59.74 513.37 59.48 C 513.17 59.21 512.76 58.66 512.56 58.39 M 517.18 61.35 C 515.61 64.32 520.50 61.55 517.18 61.35 Z" />
<path fill="#104866" opacity="1.00" d=" M 509.58 60.94 C 510.82 60.41 512.08 59.92 513.37 59.48 C 513.61 59.74 514.09 60.24 514.33 60.49 C 512.83 61.33 511.37 62.21 509.93 63.12 C 509.13 63.09 507.53 63.04 506.73 63.01 L 505.37 62.90 C 506.61 62.29 507.86 61.68 509.14 61.12 L 509.12 61.51 L 509.49 61.40 L 509.58 60.94 Z" />
<path fill="#cdc7df" opacity="1.00" d=" M 429.16 66.68 C 431.40 62.01 437.33 62.12 441.71 61.05 C 437.97 63.78 433.83 66.10 429.16 66.68 Z" />
<path fill="#6f869a" opacity="1.00" d=" M 509.14 61.12 L 509.58 60.94 L 509.49 61.40 L 509.12 61.51 L 509.14 61.12 Z" />
<path fill="#72828d" opacity="1.00" d=" M 509.93 63.12 C 511.37 62.21 512.83 61.33 514.33 60.49 C 513.85 64.41 509.51 64.54 506.52 65.32 L 505.87 64.80 C 506.08 64.35 506.52 63.46 506.73 63.01 C 507.53 63.04 509.13 63.09 509.93 63.12 Z" />
<path fill="#80a96c" opacity="1.00" d=" M 514.33 60.49 C 515.18 61.38 516.05 62.27 516.93 63.16 C 514.03 65.61 510.45 66.91 506.93 68.19 L 506.80 67.24 C 506.73 66.76 506.59 65.80 506.52 65.32 C 509.51 64.54 513.85 64.41 514.33 60.49 Z" />
<path fill="#504131" opacity="1.00" d=" M 517.18 61.35 C 520.50 61.55 515.61 64.32 517.18 61.35 Z" />
<path fill="#0e0e0e" opacity="0.52" d=" M 496.02 61.78 C 497.51 64.11 498.95 66.47 500.32 68.87 C 503.11 74.03 506.08 79.10 509.20 84.07 C 509.45 84.52 509.97 85.41 510.22 85.86 L 510.17 87.24 C 505.24 81.73 502.45 74.64 498.62 68.34 C 497.64 67.21 497.25 64.17 495.02 65.77 C 494.90 65.36 494.67 64.55 494.55 64.14 C 494.92 63.55 495.65 62.37 496.02 61.78 Z" />
<path fill="#18161c" opacity="1.00" d=" M 447.99 65.01 C 457.51 63.15 467.28 62.11 476.97 62.83 C 478.64 62.66 478.46 64.91 479.12 65.91 C 478.72 65.96 477.92 66.06 477.53 66.11 C 467.10 66.04 456.80 68.05 446.39 68.45 C 446.34 69.66 446.29 70.86 446.23 72.07 C 446.06 75.29 445.36 78.44 444.65 81.58 L 444.18 81.06 C 444.15 76.48 443.72 71.85 444.44 67.31 C 444.68 65.60 446.64 65.38 447.99 65.01 Z" />
<path fill="#5d5c5c" opacity="1.00" d=" M 499.38 62.47 L 499.92 63.23 C 502.20 66.68 504.31 70.23 506.31 73.86 C 507.72 76.48 509.36 78.98 510.81 81.59 C 510.98 82.01 511.34 82.86 511.51 83.29 C 510.93 83.48 509.77 83.87 509.20 84.07 C 506.08 79.10 503.11 74.03 500.32 68.87 C 501.57 66.72 499.91 64.56 499.38 62.47 Z" />
<path fill="#c8c2db" opacity="1.00" d=" M 494.28 63.26 L 494.55 64.14 C 494.67 64.55 494.90 65.36 495.02 65.77 C 496.54 74.25 498.71 82.93 497.39 91.58 L 496.64 92.39 C 496.73 91.21 496.81 90.04 496.88 88.86 C 497.16 83.76 496.05 78.73 495.31 73.72 C 494.90 71.25 494.43 68.79 494.14 66.31 C 494.18 65.55 494.25 64.03 494.28 63.26 Z" />
<path fill="#7f8a5b" opacity="1.00" d=" M 523.94 66.30 C 526.32 65.51 528.71 64.76 531.11 64.06 L 531.73 63.88 C 532.14 64.76 532.56 65.64 532.98 66.53 C 531.00 67.13 529.04 67.81 527.05 68.34 C 526.58 68.28 525.65 68.14 525.19 68.07 C 524.88 67.63 524.25 66.74 523.94 66.30 Z" />
<path fill="#000101" opacity="1.00" d=" M 446.39 68.45 C 456.80 68.05 467.10 66.04 477.53 66.11 C 476.14 67.55 474.79 69.06 473.00 70.01 C 470.94 70.13 468.87 70.12 466.82 70.01 C 466.22 69.96 465.04 69.85 464.44 69.80 C 460.10 69.06 455.70 69.53 451.50 70.80 C 450.28 71.10 449.06 71.41 447.85 71.71 L 447.27 71.86 L 446.23 72.07 C 446.29 70.86 446.34 69.66 446.39 68.45 Z" />
<path fill="#0f0e12" opacity="1.00" d=" M 477.53 66.11 C 477.92 66.06 478.72 65.96 479.12 65.91 C 479.35 67.64 479.53 69.38 479.74 71.12 C 480.12 74.16 480.60 77.19 480.98 80.23 C 481.46 84.45 481.83 88.68 481.83 92.93 C 477.79 96.62 472.20 97.75 466.92 98.26 C 460.46 98.90 453.69 99.76 447.45 97.51 C 444.08 96.22 445.11 91.90 444.69 89.08 C 444.61 86.58 444.54 84.08 444.65 81.58 C 445.36 78.44 446.06 75.29 446.23 72.07 L 447.27 71.86 C 447.27 75.68 447.39 79.51 447.88 83.31 C 447.94 83.93 448.08 85.17 448.15 85.80 C 448.29 87.14 448.42 88.48 448.56 89.83 C 453.16 89.55 457.75 89.08 462.36 88.78 C 462.27 89.42 462.10 90.71 462.01 91.35 C 464.85 91.34 467.71 90.87 469.14 88.11 C 471.74 87.91 474.36 87.74 476.90 87.08 C 478.03 85.40 477.04 82.98 477.19 81.03 C 477.08 80.59 476.87 79.70 476.76 79.26 C 476.81 78.46 476.90 76.87 476.94 76.08 L 476.80 75.10 C 476.62 73.34 476.49 71.57 476.34 69.81 C 475.51 69.86 473.84 69.96 473.00 70.01 C 474.79 69.06 476.14 67.55 477.53 66.11 M 457.33 90.31 C 457.29 91.74 459.83 91.52 460.59 90.75 C 460.60 89.33 458.08 89.56 457.33 90.31 M 459.63 93.53 L 459.42 95.58 C 464.01 94.21 468.83 94.36 473.52 93.54 C 473.25 93.34 472.73 92.93 472.47 92.73 C 468.20 93.27 463.92 93.51 459.63 93.53 M 453.51 95.72 C 455.33 95.70 457.16 95.62 459.00 95.54 C 458.89 95.01 458.68 93.96 458.58 93.43 C 456.89 94.14 454.46 93.83 453.51 95.72 Z" />
<path fill="#5d4e8f" opacity="1.00" d=" M 482.24 67.69 C 486.14 66.84 490.22 67.14 494.14 66.31 C 494.43 68.79 494.90 71.25 495.31 73.72 C 494.90 73.87 494.07 74.18 493.65 74.33 C 493.25 73.12 492.69 72.01 491.98 70.99 C 490.78 71.12 489.61 71.39 488.48 71.81 L 487.31 72.18 C 487.96 73.71 488.64 75.23 489.34 76.74 C 488.52 77.00 487.71 77.27 486.91 77.54 C 486.52 76.41 486.17 75.27 485.69 74.18 C 483.92 73.52 483.30 75.45 482.48 76.57 C 481.93 77.77 481.42 78.99 480.98 80.23 C 480.60 77.19 480.12 74.16 479.74 71.12 C 480.54 69.96 481.24 68.70 482.24 67.69 Z" />
<path fill="#4e3f82" opacity="1.00" d=" M 429.34 67.88 C 431.22 72.31 429.76 77.41 431.12 82.04 C 431.45 80.75 431.76 79.45 432.14 78.17 L 433.06 78.08 C 433.04 78.81 433.01 80.26 432.99 80.99 C 433.74 80.98 435.25 80.96 436.00 80.95 C 436.00 81.71 436.00 83.24 436.00 84.00 C 436.61 84.00 437.83 84.00 438.44 84.00 C 438.39 83.30 438.29 81.90 438.24 81.20 C 439.88 80.53 441.05 79.39 441.47 77.62 C 441.52 77.49 441.64 77.22 441.69 77.09 C 442.12 78.00 442.56 78.91 443.02 79.81 C 443.31 80.12 443.89 80.75 444.18 81.06 L 444.65 81.58 C 444.54 84.08 444.61 86.58 444.69 89.08 C 444.32 89.05 443.57 88.98 443.20 88.95 C 441.64 88.88 441.02 89.69 441.33 91.36 C 439.79 91.59 438.25 91.84 436.72 92.09 C 438.15 93.59 439.66 95.02 441.17 96.45 C 437.90 96.04 434.56 93.46 431.32 95.28 C 431.14 95.76 430.78 96.73 430.61 97.22 L 430.72 97.69 L 430.73 97.74 L 430.21 97.48 C 428.49 96.28 428.30 94.01 428.43 92.11 C 429.30 84.69 428.42 77.21 429.05 69.77 C 429.12 69.30 429.27 68.36 429.34 67.88 Z" />
<path fill="#b2b1af" opacity="1.00" d=" M 510.47 71.99 C 513.68 70.58 517.01 69.48 520.31 68.30 C 520.40 68.71 520.60 69.54 520.69 69.95 C 517.41 71.67 513.78 72.56 510.29 73.70 C 510.33 73.27 510.42 72.42 510.47 71.99 Z" />
<path fill="#2e3069" opacity="1.00" d=" M 451.50 70.80 C 455.70 69.53 460.10 69.06 464.44 69.80 C 464.03 70.20 463.22 70.99 462.81 71.39 C 461.90 69.70 460.30 69.87 459.47 71.31 C 458.30 71.84 457.13 72.36 455.97 72.90 C 456.02 72.28 456.12 71.03 456.17 70.41 C 454.00 71.37 452.42 73.08 451.48 75.23 C 454.69 74.47 457.86 73.50 461.13 73.04 C 462.46 73.45 463.79 73.85 465.13 74.26 L 465.84 74.49 C 466.28 74.65 467.16 74.97 467.60 75.13 C 461.69 75.23 455.71 75.06 450.05 77.05 C 449.46 76.48 448.88 75.92 448.30 75.35 C 448.21 77.71 448.10 80.06 447.95 82.41 L 447.88 83.31 C 447.39 79.51 447.27 75.68 447.27 71.86 L 447.85 71.71 C 448.94 73.24 450.01 74.78 451.07 76.33 C 451.01 74.48 450.52 72.51 451.50 70.80 Z" />
<path fill="#9d9c9b" opacity="1.00" d=" M 536.48 69.11 C 537.89 68.82 538.35 69.36 537.86 70.72 C 536.43 71.01 535.97 70.47 536.48 69.11 Z" />
<path fill="#8b9095" opacity="1.00" d=" M 428.36 92.77 C 428.12 85.14 427.67 77.28 429.05 69.77 C 428.42 77.21 429.30 84.69 428.43 92.11 L 428.36 92.77 Z" />
<path fill="#a79b60" opacity="1.00" d=" M 459.47 71.31 C 460.30 69.87 461.90 69.70 462.81 71.39 C 462.39 71.80 461.55 72.63 461.13 73.04 C 457.86 73.50 454.69 74.47 451.48 75.23 C 452.42 73.08 454.00 71.37 456.17 70.41 C 456.12 71.03 456.02 72.28 455.97 72.90 C 457.13 72.36 458.30 71.84 459.47 71.31 Z" />
<path fill="#7a6e78" opacity="1.00" d=" M 464.44 69.80 C 465.04 69.85 466.22 69.96 466.82 70.01 L 466.84 70.96 C 464.69 70.63 463.43 72.71 465.13 74.26 C 463.79 73.85 462.46 73.45 461.13 73.04 C 461.55 72.63 462.39 71.80 462.81 71.39 C 463.22 70.99 464.03 70.20 464.44 69.80 Z" />
<path fill="#343666" opacity="1.00" d=" M 466.82 70.01 C 468.87 70.12 470.94 70.13 473.00 70.01 C 473.84 69.96 475.51 69.86 476.34 69.81 C 476.49 71.57 476.62 73.34 476.80 75.10 C 476.50 74.11 476.19 73.12 475.86 72.14 C 474.13 72.39 472.42 72.63 470.69 72.83 C 469.32 73.18 467.96 73.54 466.64 74.00 C 466.69 73.24 466.79 71.72 466.84 70.96 L 466.82 70.01 Z" />
<path fill="#aaa9a7" opacity="1.00" d=" M 524.41 71.98 C 526.34 71.36 528.24 70.67 530.17 70.04 C 530.35 71.54 530.52 73.05 530.71 74.56 C 528.99 75.20 527.28 75.81 525.57 76.44 C 524.88 76.09 524.20 75.75 523.53 75.40 C 523.82 74.26 524.11 73.12 524.41 71.98 Z" />
<path fill="#50504f" opacity="1.00" d=" M 540.16 70.25 C 540.32 70.65 540.63 71.45 540.78 71.85 C 540.27 72.59 538.29 73.93 538.02 72.36 C 538.45 71.41 539.16 70.70 540.16 70.25 Z" />
<path fill="#aca35d" opacity="1.00" d=" M 447.85 71.71 C 449.06 71.41 450.28 71.10 451.50 70.80 C 450.52 72.51 451.01 74.48 451.07 76.33 C 450.01 74.78 448.94 73.24 447.85 71.71 Z" />
<path fill="#aea359" opacity="1.00" d=" M 465.13 74.26 C 463.43 72.71 464.69 70.63 466.84 70.96 C 466.79 71.72 466.69 73.24 466.64 74.00 L 465.84 74.49 L 465.13 74.26 Z" />
<path fill="#cdcad9" opacity="1.00" d=" M 488.48 71.81 C 489.61 71.39 490.78 71.12 491.98 70.99 C 492.69 72.01 493.25 73.12 493.65 74.33 C 492.86 74.64 491.28 75.25 490.48 75.56 C 489.80 74.32 489.13 73.06 488.48 71.81 Z" />
<path fill="#356397" opacity="1.00" d=" M 470.69 72.83 C 472.42 72.63 474.13 72.39 475.86 72.14 C 476.19 73.12 476.50 74.11 476.80 75.10 L 476.94 76.08 C 476.54 75.99 475.72 75.82 475.32 75.73 C 472.87 75.53 470.41 75.33 467.97 75.16 L 467.60 75.13 C 467.16 74.97 466.28 74.65 465.84 74.49 L 466.64 74.00 C 467.96 73.54 469.32 73.18 470.69 72.83 Z" />
<path fill="#504183" opacity="1.00" d=" M 487.31 72.18 L 488.48 71.81 C 489.13 73.06 489.80 74.32 490.48 75.56 C 491.28 75.25 492.86 74.64 493.65 74.33 C 494.07 74.18 494.90 73.87 495.31 73.72 C 496.05 78.73 497.16 83.76 496.88 88.86 C 495.78 88.98 494.69 89.18 493.62 89.40 C 492.75 89.50 491.89 89.61 491.04 89.70 C 490.87 87.12 490.70 84.54 490.52 81.96 C 488.09 82.75 485.63 83.48 483.35 84.63 C 483.19 85.65 483.77 86.53 484.15 87.43 C 483.48 88.64 483.11 89.97 483.00 91.35 C 482.70 91.74 482.12 92.54 481.83 92.93 C 481.83 88.68 481.46 84.45 480.98 80.23 C 481.42 78.99 481.93 77.77 482.48 76.57 C 482.91 77.05 483.77 78.00 484.20 78.47 C 485.10 78.16 486.00 77.85 486.91 77.54 C 487.71 77.27 488.52 77.00 489.34 76.74 C 488.64 75.23 487.96 73.71 487.31 72.18 Z" />
<path fill="#949391" opacity="1.00" d=" M 518.19 72.42 C 520.27 72.54 522.39 72.60 524.41 71.98 C 524.11 73.12 523.82 74.26 523.53 75.40 C 524.20 75.75 524.88 76.09 525.57 76.44 L 526.55 76.90 C 524.28 77.71 522.04 78.57 519.73 79.24 C 516.57 79.15 513.54 80.06 510.81 81.59 C 509.36 78.98 507.72 76.48 506.31 73.86 C 506.76 73.57 507.65 72.98 508.09 72.69 C 508.95 74.04 509.81 75.39 510.68 76.74 C 512.65 76.04 514.63 75.34 516.62 74.64 C 517.13 73.90 517.66 73.16 518.19 72.42 Z" />
<path fill="#232323" opacity="1.00" d=" M 530.71 74.56 C 532.64 73.84 534.57 73.12 536.50 72.40 C 536.58 72.67 536.72 73.23 536.80 73.50 C 536.23 73.68 535.10 74.04 534.54 74.22 C 532.18 74.95 529.80 75.73 527.79 77.20 C 527.48 77.13 526.86 76.98 526.55 76.90 L 525.57 76.44 C 527.28 75.81 528.99 75.20 530.71 74.56 Z" />
<path fill="#c8c2db" opacity="1.00" d=" M 482.48 76.57 C 483.30 75.45 483.92 73.52 485.69 74.18 C 486.17 75.27 486.52 76.41 486.91 77.54 C 486.00 77.85 485.10 78.16 484.20 78.47 C 483.77 78.00 482.91 77.05 482.48 76.57 Z" />
<path fill="#a1a09e" opacity="1.00" d=" M 527.79 77.20 C 529.80 75.73 532.18 74.95 534.54 74.22 C 535.22 74.51 536.60 75.08 537.29 75.36 C 536.40 75.93 535.51 76.50 534.64 77.06 C 537.18 76.65 539.74 76.27 542.31 75.96 C 543.74 79.29 547.81 80.04 550.34 82.35 C 549.15 82.46 547.96 82.60 546.79 82.75 C 549.25 85.96 551.25 89.85 550.91 94.02 C 549.32 93.77 549.04 94.25 550.07 95.46 L 550.15 95.53 C 549.99 95.91 549.66 96.67 549.50 97.05 C 549.64 97.66 549.93 98.88 550.07 99.50 C 546.41 101.08 542.83 102.84 539.20 104.49 C 540.40 100.04 541.57 95.23 539.34 90.88 C 539.45 90.61 539.66 90.06 539.77 89.79 C 539.20 89.00 538.63 88.20 538.08 87.41 C 540.25 86.16 542.34 84.71 543.77 82.60 C 542.07 83.23 540.39 83.91 538.73 84.61 C 538.08 83.48 537.42 82.34 536.79 81.21 C 538.98 80.50 541.02 79.29 541.22 76.72 C 540.72 77.15 539.74 78.01 539.24 78.44 L 539.14 78.53 C 536.34 80.23 533.27 81.41 530.13 82.32 C 524.36 81.85 518.53 84.30 514.11 87.92 C 513.76 88.17 513.06 88.67 512.71 88.91 C 512.83 88.08 513.06 86.41 513.18 85.58 L 513.46 85.11 C 519.46 82.11 525.69 79.56 532.01 77.30 C 530.59 77.27 529.19 77.24 527.79 77.20 M 544.29 85.01 C 544.37 88.32 547.31 83.55 544.29 85.01 M 540.29 87.20 C 539.58 88.42 541.67 89.63 542.61 88.77 C 543.25 87.55 541.20 86.38 540.29 87.20 M 543.43 96.19 C 543.64 97.49 544.38 97.72 545.65 96.87 C 545.42 95.56 544.68 95.34 543.43 96.19 M 547.16 97.23 C 547.62 97.78 547.62 97.78 547.16 97.23 M 543.47 98.14 C 543.65 99.49 544.35 99.74 545.59 98.89 C 545.39 97.53 544.69 97.28 543.47 98.14 Z" />
<path fill="#8f8e8c" opacity="1.00" d=" M 538.24 74.26 C 538.72 74.80 538.72 74.80 538.24 74.26 Z" />
<path fill="#cdc7df" opacity="1.00" d=" M 435.24 77.91 C 435.56 76.33 436.04 74.75 437.79 74.25 C 437.87 75.21 438.02 77.14 438.10 78.10 C 438.94 77.98 440.62 77.74 441.47 77.62 C 441.05 79.39 439.88 80.53 438.24 81.20 C 438.29 81.90 438.39 83.30 438.44 84.00 C 437.83 84.00 436.61 84.00 436.00 84.00 C 436.00 83.24 436.00 81.71 436.00 80.95 C 435.25 80.96 433.74 80.98 432.99 80.99 C 433.01 80.26 433.04 78.81 433.06 78.08 C 433.60 78.04 434.69 77.96 435.24 77.91 Z" />
<path fill="#487aa9" opacity="1.00" d=" M 448.30 75.35 C 448.88 75.92 449.46 76.48 450.05 77.05 C 455.71 75.06 461.69 75.23 467.60 75.13 L 467.97 75.16 C 468.10 75.67 468.36 76.69 468.50 77.19 C 466.71 77.33 464.91 77.33 463.13 77.26 C 459.83 77.30 455.29 75.97 453.65 79.82 C 453.09 79.25 452.54 78.68 451.99 78.12 C 451.32 78.18 449.98 78.30 449.31 78.37 C 448.91 79.43 448.55 80.50 448.20 81.58 L 447.95 82.41 C 448.10 80.06 448.21 77.71 448.30 75.35 Z" />
<path fill="#9d733c" opacity="1.00" d=" M 467.97 75.16 C 470.41 75.33 472.87 75.53 475.32 75.73 C 474.83 77.09 475.07 78.37 476.03 79.55 C 476.18 80.03 476.48 80.99 476.63 81.47 C 475.11 81.13 473.61 80.73 472.12 80.30 C 471.05 79.11 470.82 75.58 468.50 77.19 C 468.36 76.69 468.10 75.67 467.97 75.16 Z" />
<path fill="#5c8cad" opacity="1.00" d=" M 475.32 75.73 C 475.72 75.82 476.54 75.99 476.94 76.08 C 476.90 76.87 476.81 78.46 476.76 79.26 L 476.03 79.55 C 475.07 78.37 474.83 77.09 475.32 75.73 Z" />
<path fill="#393837" opacity="1.00" d=" M 453.65 79.82 C 455.29 75.97 459.83 77.30 463.13 77.26 C 462.76 78.42 462.41 79.58 462.01 80.72 C 459.81 81.16 457.59 81.49 455.36 81.61 C 454.93 81.16 454.07 80.27 453.65 79.82 M 457.00 78.41 C 457.62 78.90 457.62 78.90 457.00 78.41 M 459.34 79.04 C 460.59 79.82 461.33 79.55 461.57 78.22 C 460.30 77.44 459.55 77.71 459.34 79.04 M 456.28 80.21 C 456.81 80.78 456.81 80.78 456.28 80.21 Z" />
<path fill="#64a3ce" opacity="1.00" d=" M 463.13 77.26 C 464.91 77.33 466.71 77.33 468.50 77.19 C 469.00 78.51 469.50 79.82 470.00 81.14 L 468.83 80.98 C 466.56 80.77 464.28 80.64 462.01 80.72 C 462.41 79.58 462.76 78.42 463.13 77.26 Z" />
<path fill="#4d392e" opacity="1.00" d=" M 468.50 77.19 C 470.82 75.58 471.05 79.11 472.12 80.30 C 473.61 80.73 475.11 81.13 476.63 81.47 C 475.60 82.32 474.59 83.20 473.58 84.07 C 472.39 83.08 471.23 82.07 470.00 81.14 C 469.50 79.82 469.00 78.51 468.50 77.19 Z" />
<path fill="#e9eaeb" opacity="1.00" d=" M 519.73 79.24 C 522.04 78.57 524.28 77.71 526.55 76.90 C 526.86 76.98 527.48 77.13 527.79 77.20 C 522.67 79.65 517.35 81.93 511.75 82.98 C 514.28 81.48 516.96 80.25 519.73 79.24 Z" />
<path fill="#6e6d6c" opacity="0.96" d=" M 527.79 77.20 C 529.19 77.24 530.59 77.27 532.01 77.30 C 525.69 79.56 519.46 82.11 513.46 85.11 L 513.18 85.58 C 512.39 86.84 511.59 88.10 510.87 89.40 C 511.22 90.07 511.92 91.41 512.27 92.08 C 512.34 93.24 512.38 94.41 512.41 95.59 C 511.47 95.51 510.54 95.45 509.62 95.39 C 509.76 92.67 509.96 89.96 510.17 87.24 L 510.22 85.86 C 509.97 85.41 509.45 84.52 509.20 84.07 C 509.77 83.87 510.93 83.48 511.51 83.29 C 511.34 82.86 510.98 82.01 510.81 81.59 C 513.54 80.06 516.57 79.15 519.73 79.24 C 516.96 80.25 514.28 81.48 511.75 82.98 C 517.35 81.93 522.67 79.65 527.79 77.20 Z" />
<path fill="#50504f" opacity="1.00" d=" M 539.24 78.44 C 539.74 78.01 540.72 77.15 541.22 76.72 C 541.02 79.29 538.98 80.50 536.79 81.21 C 534.81 82.01 532.82 82.78 530.84 83.56 C 531.38 84.21 531.93 84.86 532.49 85.52 L 532.42 85.52 C 526.99 84.27 522.07 87.30 517.19 89.17 C 515.74 89.64 514.74 90.77 514.09 92.10 C 513.44 91.17 512.05 90.48 512.37 89.18 L 512.71 88.91 C 513.06 88.67 513.76 88.17 514.11 87.92 C 518.53 84.30 524.36 81.85 530.13 82.32 C 533.27 81.41 536.34 80.23 539.14 78.53 C 539.18 78.50 539.27 78.46 539.31 78.43 L 539.24 78.44 Z" />
<path fill="#68afd7" opacity="1.00" d=" M 449.31 78.37 C 449.98 78.30 451.32 78.18 451.99 78.12 C 452.54 78.68 453.09 79.25 453.65 79.82 C 454.07 80.27 454.93 81.16 455.36 81.61 C 452.89 81.72 450.45 82.10 448.05 82.67 L 448.20 81.58 C 448.55 80.50 448.91 79.43 449.31 78.37 Z" />
<path fill="#cbcccb" opacity="1.00" d=" M 457.00 78.41 C 457.62 78.90 457.62 78.90 457.00 78.41 Z" />
<path fill="#b2b1af" opacity="1.00" d=" M 459.34 79.04 C 459.55 77.71 460.30 77.44 461.57 78.22 C 461.33 79.55 460.59 79.82 459.34 79.04 Z" />
<path fill="#101010" opacity="1.00" d=" M 539.24 78.44 L 539.31 78.43 C 539.27 78.46 539.18 78.50 539.14 78.53 L 539.24 78.44 Z" />
<path fill="#bed8e6" opacity="1.00" d=" M 476.03 79.55 L 476.76 79.26 C 476.87 79.70 477.08 80.59 477.19 81.03 L 476.63 81.47 C 476.48 80.99 476.18 80.03 476.03 79.55 Z" />
<path fill="#a9a9a6" opacity="1.00" d=" M 456.28 80.21 C 456.81 80.78 456.81 80.78 456.28 80.21 Z" />
<path fill="#dbdee2" opacity="1.00" d=" M 455.36 81.61 C 457.59 81.49 459.81 81.16 462.01 80.72 C 464.28 80.64 466.56 80.77 468.83 80.98 C 468.98 81.47 469.27 82.44 469.42 82.93 C 469.06 83.83 468.72 84.74 468.39 85.66 C 467.60 85.21 466.81 84.78 466.02 84.36 C 466.68 84.36 468.00 84.35 468.66 84.35 L 468.83 82.28 C 462.19 82.98 455.55 83.77 448.89 84.02 L 448.05 82.67 C 450.45 82.10 452.89 81.72 455.36 81.61 Z" />
<path fill="#3e73a5" opacity="1.00" d=" M 468.83 80.98 L 470.00 81.14 C 471.23 82.07 472.39 83.08 473.58 84.07 C 474.59 83.20 475.60 82.32 476.63 81.47 L 477.19 81.03 C 477.04 82.98 478.03 85.40 476.90 87.08 C 474.36 87.74 471.74 87.91 469.14 88.11 C 465.68 88.10 462.24 87.60 458.82 87.11 C 460.02 87.44 461.23 87.77 462.45 88.09 L 462.36 88.78 C 457.75 89.08 453.16 89.55 448.56 89.83 C 448.42 88.48 448.29 87.14 448.15 85.80 L 448.26 85.92 C 448.68 86.31 449.51 87.09 449.92 87.48 C 456.06 86.68 462.23 86.27 468.39 85.66 C 468.72 84.74 469.06 83.83 469.42 82.93 C 469.27 82.44 468.98 81.47 468.83 80.98 Z" />
<path fill="#9d733c" opacity="1.00" d=" M 447.95 82.41 L 448.20 81.58 L 448.05 82.67 L 448.89 84.02 C 455.55 83.77 462.19 82.98 468.83 82.28 L 468.66 84.35 C 468.00 84.35 466.68 84.36 466.02 84.36 C 460.08 84.57 454.19 85.54 448.26 85.92 L 448.15 85.80 C 448.08 85.17 447.94 83.93 447.88 83.31 L 447.95 82.41 Z" />
<path fill="#312955" opacity="1.00" d=" M 483.35 84.63 C 485.63 83.48 488.09 82.75 490.52 81.96 C 490.70 84.54 490.87 87.12 491.04 89.70 C 489.03 90.56 487.04 91.43 485.04 92.29 C 484.53 92.06 483.51 91.58 483.00 91.35 C 483.11 89.97 483.48 88.64 484.15 87.43 C 483.77 86.53 483.19 85.65 483.35 84.63 Z" />
<path fill="#c4c4c4" opacity="1.00" d=" M 530.84 83.56 C 532.82 82.78 534.81 82.01 536.79 81.21 C 537.42 82.34 538.08 83.48 538.73 84.61 C 540.39 83.91 542.07 83.23 543.77 82.60 C 542.34 84.71 540.25 86.16 538.08 87.41 C 538.63 88.20 539.20 89.00 539.77 89.79 C 539.66 90.06 539.45 90.61 539.34 90.88 C 538.86 90.98 537.89 91.18 537.41 91.28 C 537.74 95.08 536.74 98.78 535.60 102.36 C 535.19 102.37 534.36 102.39 533.95 102.40 C 533.71 102.96 533.24 104.09 533.00 104.66 C 531.10 103.33 529.23 101.95 527.41 100.52 C 527.49 98.77 527.41 97.02 527.20 95.28 L 527.14 93.75 C 528.35 94.48 529.75 94.90 531.19 94.90 C 531.87 93.46 532.53 92.01 533.19 90.55 C 531.75 90.55 530.36 90.85 529.12 91.57 C 528.32 90.79 527.54 90.01 526.77 89.21 C 528.01 89.38 529.06 89.03 529.92 88.15 C 530.74 87.26 531.58 86.39 532.42 85.52 L 532.49 85.52 C 531.93 84.86 531.38 84.21 530.84 83.56 Z" />
<path fill="#b4b4b2" opacity="1.00" d=" M 550.34 82.35 C 552.88 83.69 555.24 85.36 557.70 86.86 L 557.68 86.98 C 556.81 89.35 557.61 91.67 558.59 93.85 C 558.04 94.56 557.48 95.27 556.92 95.98 C 554.77 97.40 552.42 98.47 550.07 99.50 C 549.93 98.88 549.64 97.66 549.50 97.05 C 551.02 97.23 551.23 96.73 550.15 95.53 L 550.07 95.46 C 550.28 95.10 550.70 94.38 550.91 94.02 C 551.25 89.85 549.25 85.96 546.79 82.75 C 547.96 82.60 549.15 82.46 550.34 82.35 Z" />
<path fill="#77b3d6" opacity="1.00" d=" M 448.26 85.92 C 454.19 85.54 460.08 84.57 466.02 84.36 C 466.81 84.78 467.60 85.21 468.39 85.66 C 462.23 86.27 456.06 86.68 449.92 87.48 C 449.51 87.09 448.68 86.31 448.26 85.92 Z" />
<path fill="#dee1e0" opacity="1.00" d=" M 517.19 89.17 C 522.07 87.30 526.99 84.27 532.42 85.52 C 531.58 86.39 530.74 87.26 529.92 88.15 C 528.57 87.62 527.26 87.64 525.99 88.21 C 524.89 88.68 523.81 89.17 522.74 89.66 C 523.32 89.78 524.48 90.01 525.06 90.13 C 524.97 90.56 524.79 91.42 524.70 91.85 C 524.63 92.15 524.47 92.75 524.39 93.05 L 524.19 93.90 L 524.99 94.29 C 525.55 94.54 526.65 95.03 527.20 95.28 C 527.41 97.02 527.49 98.77 527.41 100.52 C 523.74 97.63 519.95 94.90 516.44 91.81 C 515.67 92.25 514.91 92.71 514.17 93.19 C 515.03 94.18 516.31 94.68 517.41 95.38 C 515.95 97.08 516.85 98.96 517.79 100.66 C 515.78 99.22 514.01 97.46 512.41 95.59 C 512.38 94.41 512.34 93.24 512.27 92.08 C 511.92 91.41 511.22 90.07 510.87 89.40 C 511.59 88.10 512.39 86.84 513.18 85.58 C 513.06 86.41 512.83 88.08 512.71 88.91 L 512.37 89.18 C 512.05 90.48 513.44 91.17 514.09 92.10 C 514.74 90.77 515.74 89.64 517.19 89.17 Z" />
<path fill="#747372" opacity="1.00" d=" M 544.29 85.01 C 547.31 83.55 544.37 88.32 544.29 85.01 Z" />
<path fill="#232323" opacity="1.00" d=" M 458.82 87.11 C 462.24 87.60 465.68 88.10 469.14 88.11 C 467.71 90.87 464.85 91.34 462.01 91.35 C 462.10 90.71 462.27 89.42 462.36 88.78 L 462.45 88.09 C 461.23 87.77 460.02 87.44 458.82 87.11 Z" />
<path fill="#727270" opacity="1.00" d=" M 540.29 87.20 C 541.20 86.38 543.25 87.55 542.61 88.77 C 541.67 89.63 539.58 88.42 540.29 87.20 Z" />
<path fill="#403372" opacity="1.00" d=" M 493.62 89.40 C 494.69 89.18 495.78 88.98 496.88 88.86 C 496.81 90.04 496.73 91.21 496.64 92.39 C 488.39 96.21 480.35 100.92 471.20 102.20 C 462.12 102.61 452.96 103.77 443.95 101.89 C 441.68 101.08 439.38 100.37 437.00 100.00 C 434.99 99.01 432.74 98.64 430.72 97.69 L 430.61 97.22 C 430.78 96.73 431.14 95.76 431.32 95.28 C 434.56 93.46 437.90 96.04 441.17 96.45 C 439.66 95.02 438.15 93.59 436.72 92.09 C 438.25 91.84 439.79 91.59 441.33 91.36 C 442.97 91.30 443.60 90.49 443.20 88.95 C 443.57 88.98 444.32 89.05 444.69 89.08 C 445.11 91.90 444.08 96.22 447.45 97.51 C 453.69 99.76 460.46 98.90 466.92 98.26 C 472.20 97.75 477.79 96.62 481.83 92.93 C 482.12 92.54 482.70 91.74 483.00 91.35 C 483.51 91.58 484.53 92.06 485.04 92.29 C 487.04 91.43 489.03 90.56 491.04 89.70 C 491.89 89.61 492.75 89.50 493.62 89.40 M 442.07 93.50 C 440.88 94.30 442.14 96.49 443.36 95.46 C 444.46 94.66 443.26 92.56 442.07 93.50 Z" />
<path fill="#a5a4a3" opacity="1.00" d=" M 522.74 89.66 C 523.81 89.17 524.89 88.68 525.99 88.21 C 526.18 88.46 526.58 88.96 526.77 89.21 C 527.54 90.01 528.32 90.79 529.12 91.57 C 530.36 90.85 531.75 90.55 533.19 90.55 C 532.53 92.01 531.87 93.46 531.19 94.90 C 530.79 93.34 527.68 91.59 527.14 93.75 L 527.20 95.28 C 526.65 95.03 525.55 94.54 524.99 94.29 C 526.19 93.21 525.99 92.80 524.39 93.05 C 524.47 92.75 524.63 92.15 524.70 91.85 C 526.36 91.35 526.48 90.77 525.06 90.13 C 524.48 90.01 523.32 89.78 522.74 89.66 Z" />
<path fill="#878786" opacity="1.00" d=" M 525.99 88.21 C 527.26 87.64 528.57 87.62 529.92 88.15 C 529.06 89.03 528.01 89.38 526.77 89.21 C 526.58 88.96 526.18 88.46 525.99 88.21 Z" />
<path fill="#cbcbcb" opacity="1.00" d=" M 558.59 93.85 C 557.61 91.67 556.81 89.35 557.68 86.98 C 559.87 88.34 562.03 89.76 564.34 90.92 L 564.36 91.33 C 564.42 92.51 564.50 93.70 564.61 94.88 C 562.76 95.60 560.91 96.30 559.14 97.17 C 558.58 96.87 557.48 96.28 556.92 95.98 C 557.48 95.27 558.04 94.56 558.59 93.85 Z" />
<path fill="#dee1e0" opacity="1.00" d=" M 441.33 91.36 C 441.02 89.69 441.64 88.88 443.20 88.95 C 443.60 90.49 442.97 91.30 441.33 91.36 Z" />
<path fill="#3f3f40" opacity="1.00" d=" M 457.33 90.31 C 458.08 89.56 460.60 89.33 460.59 90.75 C 459.83 91.52 457.29 91.74 457.33 90.31 Z" />
<path fill="#818180" opacity="1.00" d=" M 525.06 90.13 C 526.48 90.77 526.36 91.35 524.70 91.85 C 524.79 91.42 524.97 90.56 525.06 90.13 Z" />
<path fill="#b2b1af" opacity="1.00" d=" M 537.41 91.28 C 537.89 91.18 538.86 90.98 539.34 90.88 C 541.57 95.23 540.40 100.04 539.20 104.49 C 538.05 105.00 536.89 105.48 535.73 105.96 C 535.00 104.89 534.04 104.67 532.83 105.29 L 533.00 104.66 C 533.24 104.09 533.71 102.96 533.95 102.40 C 534.36 102.39 535.19 102.37 535.60 102.36 C 536.74 98.78 537.74 95.08 537.41 91.28 Z" />
<path fill="#000000" opacity="0.71" d=" M 564.36 91.33 C 564.55 91.51 564.93 91.87 565.13 92.05 C 565.40 95.52 564.84 98.96 564.43 102.39 C 562.73 103.31 560.88 103.43 559.02 103.12 C 552.86 105.26 546.47 107.05 541.03 110.80 C 539.04 111.72 538.03 113.68 537.10 115.54 C 535.51 115.58 533.72 115.97 532.49 114.71 C 527.78 111.01 523.17 107.21 518.48 103.49 C 515.43 100.91 511.95 98.72 509.62 95.39 C 510.54 95.45 511.47 95.51 512.41 95.59 C 514.01 97.46 515.78 99.22 517.79 100.66 C 520.16 102.63 522.67 104.44 525.05 106.41 C 527.14 108.14 529.23 109.88 531.47 111.43 C 531.66 111.56 532.05 111.81 532.24 111.93 C 532.92 112.30 534.29 113.04 534.97 113.41 L 536.36 113.56 C 537.05 112.80 537.72 112.02 538.37 111.21 C 538.68 110.85 539.31 110.12 539.63 109.75 C 539.64 109.74 539.67 109.72 539.69 109.70 C 543.86 107.26 548.30 105.33 552.68 103.29 C 555.86 102.47 559.06 100.09 562.43 101.40 C 564.61 99.85 565.01 97.39 564.61 94.88 C 564.50 93.70 564.42 92.51 564.36 91.33 Z" />
<path fill="#babab9" opacity="1.00" d=" M 459.63 93.53 C 463.92 93.51 468.20 93.27 472.47 92.73 C 472.73 92.93 473.25 93.34 473.52 93.54 C 468.83 94.36 464.01 94.21 459.42 95.58 L 459.63 93.53 Z" />
<path fill="#000000" opacity="0.71" d=" M 496.64 92.39 L 497.39 91.58 C 497.32 92.84 497.31 94.37 495.93 94.92 C 492.51 97.05 488.48 97.88 485.05 99.97 C 482.78 101.36 480.36 102.55 477.67 102.77 C 467.55 104.64 457.26 106.16 446.94 105.14 C 443.41 104.26 440.00 102.95 436.43 102.22 C 434.01 101.58 430.95 101.48 429.92 98.65 C 432.30 98.99 434.60 99.77 437.00 100.00 C 439.38 100.37 441.68 101.08 443.95 101.89 C 448.24 104.32 453.28 103.85 458.02 103.82 C 462.45 103.75 466.86 103.09 471.20 102.20 C 480.35 100.92 488.39 96.21 496.64 92.39 Z" />
<path fill="#70706f" opacity="1.00" d=" M 514.17 93.19 C 514.91 92.71 515.67 92.25 516.44 91.81 C 519.95 94.90 523.74 97.63 527.41 100.52 C 529.23 101.95 531.10 103.33 533.00 104.66 L 532.83 105.29 L 532.80 105.97 C 532.67 107.27 534.07 107.42 534.96 107.88 C 534.00 109.19 533.12 110.56 532.24 111.93 C 532.05 111.81 531.66 111.56 531.47 111.43 C 531.52 110.16 531.63 108.88 531.54 107.61 C 530.39 105.53 528.24 104.27 526.47 102.78 C 526.53 103.30 526.66 104.36 526.73 104.89 C 526.31 105.27 525.47 106.03 525.05 106.41 C 522.67 104.44 520.16 102.63 517.79 100.66 C 516.85 98.96 515.95 97.08 517.41 95.38 C 516.31 94.68 515.03 94.18 514.17 93.19 Z" />
<path fill="#e9eaeb" opacity="1.00" d=" M 442.07 93.50 C 443.26 92.56 444.46 94.66 443.36 95.46 C 442.14 96.49 440.88 94.30 442.07 93.50 Z" />
<path fill="#737372" opacity="1.00" d=" M 524.39 93.05 C 525.99 92.80 526.19 93.21 524.99 94.29 L 524.19 93.90 L 524.39 93.05 Z" />
<path fill="#6f6e6e" opacity="1.00" d=" M 527.14 93.75 C 527.68 91.59 530.79 93.34 531.19 94.90 C 529.75 94.90 528.35 94.48 527.14 93.75 Z" />
<path fill="#cbcccb" opacity="1.00" d=" M 453.51 95.72 C 454.46 93.83 456.89 94.14 458.58 93.43 C 458.68 93.96 458.89 95.01 459.00 95.54 C 457.16 95.62 455.33 95.70 453.51 95.72 Z" />
<path fill="#646362" opacity="1.00" d=" M 550.07 95.46 C 549.04 94.25 549.32 93.77 550.91 94.02 C 550.70 94.38 550.28 95.10 550.07 95.46 Z" />
<path fill="#babab9" opacity="1.00" d=" M 559.14 97.17 C 560.91 96.30 562.76 95.60 564.61 94.88 C 565.01 97.39 564.61 99.85 562.43 101.40 C 559.06 100.09 555.86 102.47 552.68 103.29 L 553.75 102.77 C 555.72 101.59 558.92 101.23 558.55 98.20 L 558.72 97.89 C 558.82 97.71 559.03 97.35 559.14 97.17 Z" />
<path fill="#5e5e5d" opacity="1.00" d=" M 543.43 96.19 C 544.68 95.34 545.42 95.56 545.65 96.87 C 544.38 97.72 543.64 97.49 543.43 96.19 Z" />
<path fill="#767473" opacity="1.00" d=" M 549.50 97.05 C 549.66 96.67 549.99 95.91 550.15 95.53 C 551.23 96.73 551.02 97.23 549.50 97.05 Z" />
<path fill="#e9eaeb" opacity="1.00" d=" M 550.07 99.50 C 552.42 98.47 554.77 97.40 556.92 95.98 C 557.48 96.28 558.58 96.87 559.14 97.17 C 559.03 97.35 558.82 97.71 558.72 97.89 L 558.55 98.20 C 551.88 101.79 544.90 104.75 538.10 108.06 C 538.17 108.84 538.30 110.42 538.37 111.21 C 537.72 112.02 537.05 112.80 536.36 113.56 C 536.27 111.73 536.20 109.92 536.13 108.10 L 534.96 107.88 C 534.07 107.42 532.67 107.27 532.80 105.97 C 533.54 105.97 535.00 105.96 535.73 105.96 C 536.89 105.48 538.05 105.00 539.20 104.49 C 542.83 102.84 546.41 101.08 550.07 99.50 Z" />
<path fill="#d4d5d5" opacity="1.00" d=" M 547.16 97.23 C 547.62 97.78 547.62 97.78 547.16 97.23 Z" />
<path fill="#797978" opacity="1.00" d=" M 543.47 98.14 C 544.69 97.28 545.39 97.53 545.59 98.89 C 544.35 99.74 543.65 99.49 543.47 98.14 Z" />
<path fill="#222a2c" opacity="1.00" d=" M 538.10 108.06 C 544.90 104.75 551.88 101.79 558.55 98.20 C 558.92 101.23 555.72 101.59 553.75 102.77 L 552.68 103.29 C 548.30 105.33 543.86 107.26 539.69 109.70 L 539.65 109.72 L 539.63 109.75 C 539.31 110.12 538.68 110.85 538.37 111.21 C 538.30 110.42 538.17 108.84 538.10 108.06 Z" />
<path fill="#131123" opacity="0.92" d=" M 443.95 101.89 C 452.96 103.77 462.12 102.61 471.20 102.20 C 466.86 103.09 462.45 103.75 458.02 103.82 C 453.28 103.85 448.24 104.32 443.95 101.89 Z" />
<path fill="#141414" opacity="0.39" d=" M 446.94 105.14 C 457.26 106.16 467.55 104.64 477.67 102.77 C 475.98 104.28 477.79 105.11 479.01 105.99 C 476.81 105.40 474.62 104.78 472.44 104.16 C 471.77 105.00 471.12 105.85 470.51 106.73 C 469.59 105.65 468.43 105.20 467.04 105.39 C 460.35 105.51 453.59 106.16 446.94 105.14 Z" />
<path fill="#50504f" opacity="1.00" d=" M 526.47 102.78 C 528.24 104.27 530.39 105.53 531.54 107.61 C 531.63 108.88 531.52 110.16 531.47 111.43 C 529.23 109.88 527.14 108.14 525.05 106.41 C 525.47 106.03 526.31 105.27 526.73 104.89 C 526.66 104.36 526.53 103.30 526.47 102.78 Z" />
<path fill="#dbdee2" opacity="1.00" d=" M 470.51 106.73 C 471.12 105.85 471.77 105.00 472.44 104.16 C 474.62 104.78 476.81 105.40 479.01 105.99 C 484.78 107.54 490.50 109.29 496.24 110.97 C 493.58 110.45 490.79 109.76 488.15 110.77 C 486.17 110.27 484.18 109.79 482.20 109.26 C 480.25 112.67 478.36 116.12 476.47 119.57 C 475.43 119.88 474.42 120.30 473.43 120.71 C 470.14 120.12 466.83 119.71 463.53 119.18 C 463.71 118.66 464.08 117.61 464.26 117.08 C 465.56 114.58 467.15 112.24 468.51 109.77 C 469.10 111.51 469.80 113.22 470.45 114.94 C 471.04 115.02 472.24 115.17 472.84 115.25 C 473.19 114.75 473.89 113.77 474.24 113.27 C 475.15 113.59 476.08 113.90 477.00 114.22 C 477.59 112.82 478.41 111.27 476.51 110.52 C 474.97 107.94 471.10 110.33 468.68 109.89 L 469.72 107.90 L 470.51 106.73 Z" />
<path fill="#4d4d4d" opacity="1.00" d=" M 532.83 105.29 C 534.04 104.67 535.00 104.89 535.73 105.96 C 535.00 105.96 533.54 105.97 532.80 105.97 L 532.83 105.29 Z" />
<path fill="#393837" opacity="1.00" d=" M 468.51 109.77 C 468.82 109.30 469.42 108.37 469.72 107.90 L 468.68 109.89 C 471.10 110.33 474.97 107.94 476.51 110.52 C 478.41 111.27 477.59 112.82 477.00 114.22 C 476.08 113.90 475.15 113.59 474.24 113.27 C 473.89 113.77 473.19 114.75 472.84 115.25 C 472.24 115.17 471.04 115.02 470.45 114.94 C 469.80 113.22 469.10 111.51 468.51 109.77 Z" />
<path fill="#b2b1af" opacity="1.00" d=" M 534.96 107.88 L 536.13 108.10 C 536.20 109.92 536.27 111.73 536.36 113.56 L 534.97 113.41 C 534.29 113.04 532.92 112.30 532.24 111.93 C 533.12 110.56 534.00 109.19 534.96 107.88 Z" />
<path fill="#222a2c" opacity="1.00" d=" M 482.20 109.26 C 484.18 109.79 486.17 110.27 488.15 110.77 C 492.55 112.46 497.92 112.47 501.57 115.62 C 499.35 115.11 497.16 114.50 495.01 113.80 C 494.57 113.71 493.71 113.55 493.27 113.47 C 493.08 113.43 492.70 113.34 492.51 113.29 C 490.90 112.91 489.32 112.53 487.72 112.13 C 485.97 111.51 484.15 111.08 482.33 110.75 C 481.88 112.07 481.45 113.39 481.04 114.71 C 480.85 115.37 480.47 116.69 480.28 117.35 C 479.62 118.17 478.96 118.98 478.29 119.79 C 477.83 119.73 476.92 119.62 476.47 119.57 C 478.36 116.12 480.25 112.67 482.20 109.26 Z" />
<path fill="#918f8d" opacity="1.00" d=" M 539.65 109.72 L 539.69 109.70 C 539.67 109.72 539.64 109.74 539.63 109.75 L 539.65 109.72 Z" />
<path fill="#eaecf1" opacity="1.00" d=" M 488.15 110.77 C 490.79 109.76 493.58 110.45 496.24 110.97 C 501.81 112.32 507.35 113.81 512.92 115.22 C 513.43 115.54 514.47 116.17 514.99 116.48 C 513.29 117.84 514.31 119.54 514.75 121.02 C 515.05 120.12 515.66 118.33 515.96 117.44 C 515.95 119.29 515.55 121.10 514.77 122.77 C 514.06 125.31 512.95 127.71 512.12 130.20 C 511.30 132.89 510.43 135.56 509.56 138.24 C 509.60 136.24 510.41 134.18 509.83 132.22 C 508.76 132.64 507.72 133.10 506.70 133.60 L 506.64 132.71 C 502.46 130.71 498.28 128.73 493.97 127.02 C 491.74 126.22 489.52 125.43 487.27 124.70 C 482.80 122.92 478.14 121.66 473.43 120.71 C 474.42 120.30 475.43 119.88 476.47 119.57 C 476.92 119.62 477.83 119.73 478.29 119.79 L 479.37 119.97 C 482.75 121.29 486.23 122.33 489.69 123.44 C 492.11 124.23 494.52 125.03 496.94 125.84 C 497.01 125.56 497.16 125.00 497.23 124.72 C 497.40 124.26 497.75 123.33 497.92 122.86 L 498.11 122.39 C 498.72 121.23 499.34 120.08 499.94 118.92 C 500.49 117.82 501.03 116.72 501.57 115.62 C 497.92 112.47 492.55 112.46 488.15 110.77 M 507.93 120.44 L 507.16 120.11 C 507.44 121.13 507.73 122.15 508.04 123.17 C 509.72 123.30 511.42 123.39 513.09 123.10 C 514.73 122.71 513.64 120.87 513.13 120.02 L 512.83 122.93 L 511.57 121.69 C 512.75 119.48 508.36 118.03 507.93 120.44 M 503.03 123.14 C 505.20 124.03 506.33 121.93 505.90 119.96 C 504.98 120.26 504.06 120.57 503.16 120.89 L 503.77 118.59 C 501.66 119.25 500.33 122.39 503.03 123.14 M 512.04 124.12 C 511.35 125.42 511.15 126.77 511.45 128.17 C 512.91 128.30 513.95 123.98 512.04 124.12 M 501.27 126.99 C 501.39 130.31 504.28 125.51 501.27 126.99 M 509.79 130.87 C 511.16 130.99 511.69 130.40 511.39 129.09 C 510.04 128.72 509.51 129.31 509.79 130.87 Z" />
<path fill="#8b9095" opacity="1.00" d=" M 482.33 110.75 C 484.15 111.08 485.97 111.51 487.72 112.13 C 489.32 112.53 490.90 112.91 492.51 113.29 C 490.97 114.57 489.36 115.76 487.72 116.89 C 485.54 116.01 483.30 115.31 481.04 114.71 C 481.45 113.39 481.88 112.07 482.33 110.75 Z" />
<path fill="#70706f" opacity="1.00" d=" M 492.51 113.29 C 492.70 113.34 493.08 113.43 493.27 113.47 C 493.74 115.13 494.32 115.24 495.01 113.80 C 497.16 114.50 499.35 115.11 501.57 115.62 C 501.03 116.72 500.49 117.82 499.94 118.92 C 498.62 118.08 497.30 117.25 495.99 116.42 C 494.20 117.65 492.40 118.89 490.60 120.11 C 491.74 118.59 492.90 117.09 494.05 115.58 C 492.53 116.25 491.03 116.96 489.49 117.55 C 489.04 117.39 488.16 117.05 487.72 116.89 C 489.36 115.76 490.97 114.57 492.51 113.29 Z" />
<path fill="#859ba8" opacity="1.00" d=" M 493.27 113.47 C 493.71 113.55 494.57 113.71 495.01 113.80 C 494.32 115.24 493.74 115.13 493.27 113.47 Z" />
<path fill="#7aadc5" opacity="1.00" d=" M 481.04 114.71 C 483.30 115.31 485.54 116.01 487.72 116.89 C 488.16 117.05 489.04 117.39 489.49 117.55 C 491.03 116.96 492.53 116.25 494.05 115.58 C 492.90 117.09 491.74 118.59 490.60 120.11 C 492.40 118.89 494.20 117.65 495.99 116.42 C 497.30 117.25 498.62 118.08 499.94 118.92 C 499.34 120.08 498.72 121.23 498.11 122.39 L 497.61 122.46 L 497.50 122.86 L 497.92 122.86 C 497.75 123.33 497.40 124.26 497.23 124.72 C 496.93 123.99 496.32 122.52 496.01 121.79 L 495.82 121.20 C 495.56 120.63 495.04 119.51 494.79 118.95 C 494.49 119.23 493.90 119.81 493.61 120.09 C 493.41 120.55 493.00 121.47 492.80 121.93 C 491.76 122.43 490.72 122.94 489.69 123.44 C 489.69 122.65 489.70 121.05 489.71 120.25 C 488.81 120.87 487.92 121.50 487.03 122.13 C 486.95 121.36 486.77 119.82 486.68 119.05 C 486.46 119.43 486.00 120.19 485.78 120.57 C 483.64 120.36 481.50 120.18 479.37 119.97 L 478.29 119.79 C 478.96 118.98 479.62 118.17 480.28 117.35 C 480.47 116.69 480.85 115.37 481.04 114.71 Z" />
<path fill="#232324" opacity="1.00" d=" M 512.92 115.22 C 514.01 115.75 516.29 115.64 515.96 117.44 C 515.66 118.33 515.05 120.12 514.75 121.02 C 514.31 119.54 513.29 117.84 514.99 116.48 C 514.47 116.17 513.43 115.54 512.92 115.22 Z" />
<path fill="#626262" opacity="0.96" d=" M 462.37 125.22 C 462.23 122.44 461.42 118.83 464.26 117.08 C 464.08 117.61 463.71 118.66 463.53 119.18 C 466.83 119.71 470.14 120.12 473.43 120.71 C 478.14 121.66 482.80 122.92 487.27 124.70 C 480.09 124.55 473.33 121.75 466.28 120.68 C 465.06 120.40 463.85 120.12 462.65 119.83 C 462.56 121.62 462.47 123.42 462.37 125.22 Z" />
<path fill="#6e6d6c" opacity="0.96" d=" M 485.78 120.57 C 486.00 120.19 486.46 119.43 486.68 119.05 C 486.77 119.82 486.95 121.36 487.03 122.13 C 487.92 121.50 488.81 120.87 489.71 120.25 C 489.70 121.05 489.69 122.65 489.69 123.44 C 486.23 122.33 482.75 121.29 479.37 119.97 C 481.50 120.18 483.64 120.36 485.78 120.57 Z" />
<path fill="#829089" opacity="1.00" d=" M 493.61 120.09 C 493.90 119.81 494.49 119.23 494.79 118.95 C 495.04 119.51 495.56 120.63 495.82 121.20 C 495.26 120.92 494.16 120.37 493.61 120.09 Z" />
<path fill="#000101" opacity="1.00" d=" M 507.93 120.44 C 508.36 118.03 512.75 119.48 511.57 121.69 C 510.33 121.34 509.09 120.99 507.93 120.44 Z" />
<path fill="#232324" opacity="1.00" d=" M 462.65 119.83 C 463.85 120.12 465.06 120.40 466.28 120.68 C 465.92 120.90 465.21 121.33 464.86 121.55 C 469.51 123.05 474.10 126.12 479.16 125.26 C 479.69 126.11 480.40 126.74 481.30 127.15 C 482.65 127.61 484.04 127.98 485.44 128.31 C 487.44 128.77 489.43 129.32 491.36 130.06 C 496.21 132.05 501.38 133.81 506.70 133.60 C 507.72 133.10 508.76 132.64 509.83 132.22 C 510.41 134.18 509.60 136.24 509.56 138.24 C 509.51 138.78 509.40 139.88 509.34 140.43 C 507.75 140.49 506.16 140.56 504.58 140.63 C 503.22 139.17 502.15 137.49 501.17 135.77 C 498.73 135.43 496.32 134.94 493.92 134.43 C 494.41 134.23 495.39 133.81 495.87 133.60 C 493.89 133.61 491.87 133.61 489.99 132.90 C 488.02 132.31 486.02 131.82 484.01 131.41 C 484.48 131.22 485.42 130.82 485.90 130.62 C 482.55 130.95 479.45 129.32 476.15 129.45 C 472.69 129.59 469.35 128.52 466.03 127.72 C 465.45 127.65 464.29 127.52 463.71 127.45 C 463.37 126.89 462.70 125.78 462.37 125.22 C 462.47 123.42 462.56 121.62 462.65 119.83 Z" />
<path fill="#a7afbb" opacity="1.00" d=" M 492.80 121.93 C 493.00 121.47 493.41 120.55 493.61 120.09 C 494.16 120.37 495.26 120.92 495.82 121.20 L 496.01 121.79 C 495.25 122.86 493.61 123.02 492.80 121.93 Z" />
<path fill="#18161c" opacity="1.00" d=" M 503.03 123.14 C 500.33 122.39 501.66 119.25 503.77 118.59 L 503.16 120.89 C 504.06 120.57 504.98 120.26 505.90 119.96 C 506.33 121.93 505.20 124.03 503.03 123.14 Z" />
<path fill="#50504f" opacity="1.00" d=" M 507.16 120.11 L 507.93 120.44 C 509.09 120.99 510.33 121.34 511.57 121.69 L 512.83 122.93 L 513.13 120.02 C 513.64 120.87 514.73 122.71 513.09 123.10 C 511.42 123.39 509.72 123.30 508.04 123.17 C 507.73 122.15 507.44 121.13 507.16 120.11 Z" />
<path fill="#050505" opacity="1.00" d=" M 464.86 121.55 C 465.21 121.33 465.92 120.90 466.28 120.68 C 473.33 121.75 480.09 124.55 487.27 124.70 C 489.52 125.43 491.74 126.22 493.97 127.02 C 498.28 128.73 502.46 130.71 506.64 132.71 L 506.70 133.60 C 501.38 133.81 496.21 132.05 491.36 130.06 C 491.13 129.54 490.69 128.50 490.46 127.99 C 488.83 127.40 486.62 126.16 485.44 128.31 C 484.04 127.98 482.65 127.61 481.30 127.15 C 484.86 126.60 480.95 124.05 479.16 125.26 C 474.10 126.12 469.51 123.05 464.86 121.55 Z" />
<path fill="#6e8799" opacity="1.00" d=" M 489.69 123.44 C 490.72 122.94 491.76 122.43 492.80 121.93 C 493.61 123.02 495.25 122.86 496.01 121.79 C 496.32 122.52 496.93 123.99 497.23 124.72 C 497.16 125.00 497.01 125.56 496.94 125.84 C 494.52 125.03 492.11 124.23 489.69 123.44 Z" />
<path fill="#4b4d3f" opacity="1.00" d=" M 497.61 122.46 L 498.11 122.39 L 497.92 122.86 L 497.50 122.86 L 497.61 122.46 Z" />
<path fill="#232323" opacity="1.00" d=" M 512.04 124.12 C 513.95 123.98 512.91 128.30 511.45 128.17 C 511.15 126.77 511.35 125.42 512.04 124.12 Z" />
<path fill="#646464" opacity="1.00" d=" M 479.16 125.26 C 480.95 124.05 484.86 126.60 481.30 127.15 C 480.40 126.74 479.69 126.11 479.16 125.26 Z" />
<path fill="#555554" opacity="1.00" d=" M 485.44 128.31 C 486.62 126.16 488.83 127.40 490.46 127.99 C 490.69 128.50 491.13 129.54 491.36 130.06 C 489.43 129.32 487.44 128.77 485.44 128.31 Z" />
<path fill="#b9b9b9" opacity="1.00" d=" M 501.27 126.99 C 504.28 125.51 501.39 130.31 501.27 126.99 Z" />
<path fill="#050505" opacity="1.00" d=" M 509.79 130.87 C 509.51 129.31 510.04 128.72 511.39 129.09 C 511.69 130.40 511.16 130.99 509.79 130.87 Z" />
<path fill="#ffffff" opacity="1.00" d=" M 18.92 299.03 C 19.77 291.66 30.00 289.23 34.96 294.12 C 38.61 297.31 37.98 302.64 38.15 307.00 C 35.31 307.00 32.47 307.00 29.63 307.00 C 29.54 304.26 29.91 301.46 29.25 298.77 C 27.14 297.08 26.87 300.55 27.00 301.94 C 27.20 309.78 26.57 317.70 27.34 325.49 C 27.79 325.75 28.67 326.26 29.12 326.52 C 30.17 323.38 29.85 320.04 29.88 316.79 C 29.46 316.76 28.64 316.70 28.22 316.67 C 28.24 314.69 28.25 312.72 28.26 310.75 C 31.55 310.75 34.84 310.75 38.12 310.75 C 38.13 317.83 38.13 324.92 38.12 332.00 C 36.35 332.00 34.57 332.00 32.79 332.00 C 32.49 331.12 32.18 330.26 31.88 329.39 C 30.71 331.55 28.49 333.39 25.86 332.84 C 21.22 332.22 18.50 327.34 18.60 322.97 C 18.55 315.00 18.13 306.97 18.92 299.03 Z" />
<path fill="#ffffff" opacity="1.00" d=" M 44.18 292.48 C 48.23 292.51 52.29 292.49 56.35 292.50 C 57.99 305.67 59.61 318.83 61.25 332.00 C 58.33 332.00 55.41 332.01 52.49 331.95 C 52.37 329.59 52.23 327.23 52.08 324.88 C 51.32 324.87 49.80 324.87 49.04 324.87 C 48.90 327.23 48.75 329.59 48.64 331.95 C 45.68 332.01 42.72 332.00 39.76 332.00 C 41.24 318.83 42.65 305.64 44.18 292.48 M 50.48 301.29 C 50.04 306.83 49.37 312.36 48.97 317.91 C 49.68 317.89 51.08 317.86 51.79 317.85 C 51.29 312.33 51.09 306.79 50.48 301.29 Z" />
<path fill="#ffff00" opacity="1.00" d=" M 144.49 292.70 C 149.51 290.03 156.89 292.19 158.41 298.02 C 159.69 304.23 158.90 310.65 159.13 316.96 C 158.96 321.20 159.62 326.04 156.78 329.60 C 152.99 334.32 144.41 333.99 141.24 328.73 C 139.43 325.85 139.62 322.30 139.50 319.03 C 139.56 313.05 139.32 307.06 139.68 301.09 C 139.81 297.75 141.42 294.28 144.49 292.70 M 148.65 298.54 C 147.60 300.52 148.12 302.88 147.98 305.03 C 148.19 311.92 147.63 318.85 148.29 325.71 C 148.72 325.85 149.59 326.12 150.02 326.26 C 150.91 323.59 150.57 320.73 150.63 317.98 C 150.53 311.97 150.80 305.96 150.51 299.96 C 150.57 298.94 149.70 297.76 148.65 298.54 Z" />
<path fill="#ffff00" opacity="1.00" d=" M 191.64 292.51 C 195.69 292.49 199.75 292.51 203.81 292.47 C 205.53 305.64 207.10 318.82 208.75 332.00 C 205.84 332.00 202.93 332.00 200.03 332.00 C 199.87 329.62 199.72 327.25 199.58 324.87 C 198.82 324.87 197.30 324.87 196.55 324.88 C 196.40 327.25 196.25 329.62 196.10 332.00 C 193.15 332.00 190.20 332.00 187.26 332.00 C 188.71 318.83 190.20 305.67 191.64 292.51 M 196.43 317.86 C 197.39 317.84 198.35 317.81 199.31 317.79 C 198.98 312.28 198.06 306.77 198.50 301.25 C 196.92 306.61 197.19 312.34 196.43 317.86 Z" />
<path fill="#ffff00" opacity="1.00" d=" M 244.38 292.50 C 247.38 292.50 250.38 292.50 253.38 292.49 C 251.89 305.66 250.46 318.83 248.97 332.00 C 244.69 332.00 240.42 332.01 236.14 331.99 C 234.53 318.82 232.87 305.65 231.25 292.49 C 234.25 292.50 237.25 292.49 240.26 292.51 C 241.05 301.65 241.75 310.81 242.50 319.95 C 242.94 310.79 243.74 301.65 244.38 292.50 Z" />
<path fill="#ffffff" opacity="1.00" d=" M 62.75 292.50 C 66.41 292.50 70.08 292.49 73.74 292.52 C 74.33 298.65 75.51 304.73 75.64 310.90 C 76.90 304.84 77.11 298.63 77.90 292.50 C 81.56 292.49 85.22 292.49 88.89 292.51 C 88.86 305.67 88.88 318.83 88.88 331.99 C 86.42 332.00 83.96 332.00 81.50 332.00 C 81.51 323.30 81.45 314.60 81.58 305.91 C 80.25 314.55 79.52 323.27 78.52 331.96 C 76.76 331.98 75.00 331.99 73.24 332.00 C 72.31 323.34 71.03 314.72 70.45 306.03 C 69.85 314.67 70.23 323.34 70.13 332.00 C 67.67 332.00 65.21 332.00 62.75 332.00 C 62.75 318.83 62.75 305.67 62.75 292.50 Z" />
<path fill="#ffffff" opacity="1.00" d=" M 92.23 292.53 C 96.94 292.47 101.66 292.50 106.38 292.50 C 106.38 295.12 106.38 297.74 106.38 300.37 C 104.50 300.37 102.62 300.38 100.75 300.39 C 100.75 302.87 100.75 305.35 100.73 307.83 C 102.48 307.86 104.24 307.87 106.00 307.89 C 106.00 310.37 106.00 312.86 106.01 315.35 C 104.25 315.37 102.50 315.37 100.75 315.39 C 100.75 318.30 100.75 321.21 100.75 324.12 C 102.83 324.12 104.91 324.12 107.00 324.12 C 107.00 326.74 107.00 329.37 107.00 332.00 C 102.08 331.99 97.16 332.02 92.23 331.98 C 92.26 318.83 92.27 305.68 92.23 292.53 Z" />
<path fill="#ffff00" opacity="1.00" d=" M 116.75 292.50 C 121.72 292.73 126.89 291.82 131.69 293.41 C 136.21 295.78 136.07 301.77 135.73 306.15 C 135.75 308.36 133.90 309.69 132.04 310.45 C 133.75 311.56 135.83 312.71 136.10 314.97 C 136.75 318.57 136.59 322.28 136.34 325.91 C 136.25 328.38 134.95 331.31 132.20 331.61 C 127.09 332.36 121.90 331.86 116.75 332.00 C 116.75 318.83 116.75 305.67 116.75 292.50 M 125.34 298.92 C 125.22 302.02 125.23 305.12 125.26 308.23 C 126.43 307.86 128.08 307.78 127.88 306.12 C 128.03 303.56 128.88 299.42 125.34 298.92 M 125.26 314.03 C 125.25 317.83 125.23 321.63 125.29 325.43 C 126.11 325.14 126.93 324.86 127.76 324.58 C 128.10 321.24 128.14 317.87 127.69 314.55 C 127.08 314.42 125.87 314.16 125.26 314.03 Z" />
<path fill="#ffff00" opacity="1.00" d=" M 160.26 292.49 C 162.87 292.49 165.48 292.50 168.10 292.50 C 168.94 297.39 169.25 302.36 170.34 307.20 C 170.87 302.28 171.68 297.39 172.52 292.51 C 175.13 292.49 177.75 292.49 180.37 292.50 C 178.65 299.38 177.00 306.27 175.23 313.14 C 173.33 319.25 174.39 325.72 174.12 332.00 C 171.49 332.00 168.86 332.00 166.23 331.98 C 166.01 325.69 167.01 319.24 165.17 313.11 C 163.50 306.25 161.88 299.37 160.26 292.49 Z" />
<path fill="#ffff00" opacity="1.00" d=" M 210.23 331.98 C 210.33 318.80 210.12 305.62 210.34 292.45 C 215.43 292.72 220.70 291.93 225.65 293.44 C 229.04 294.77 229.91 298.73 229.83 301.99 C 229.87 309.69 230.00 317.39 229.75 325.08 C 229.84 327.94 228.34 331.18 225.25 331.66 C 220.28 332.36 215.23 331.87 210.23 331.98 M 218.91 298.79 C 218.57 307.71 218.77 316.65 218.80 325.58 C 219.31 325.35 220.31 324.87 220.81 324.63 C 221.94 320.53 221.16 316.15 221.38 311.95 C 221.18 307.97 221.86 303.87 220.96 299.98 C 220.45 299.68 219.42 299.09 218.91 298.79 Z" />
</svg>
