<?xml version="1.0" encoding="UTF-8" ?>
<!DOCTYPE svg PUBLIC "-//W3C//DTD SVG 1.1//EN" "http://www.w3.org/Graphics/SVG/1.1/DTD/svg11.dtd">
<svg width="960pt" height="540pt" viewBox="0 0 960 540" version="1.1" xmlns="http://www.w3.org/2000/svg">
<path fill="#1994a9" opacity="1.00" d=" M 435.96 46.65 C 439.59 45.81 443.35 46.33 447.04 46.30 C 459.59 46.36 472.21 45.73 484.71 46.82 C 479.15 47.57 473.53 47.09 467.94 47.47 C 472.28 48.75 476.84 48.81 481.26 49.74 C 468.57 49.73 455.89 49.82 443.21 49.66 C 443.41 48.86 443.62 48.07 443.83 47.27 C 441.21 47.01 438.58 46.78 435.96 46.65 Z" />
<path fill="#ccb3cf" opacity="1.00" d=" M 496.45 47.35 C 497.21 45.51 499.48 46.24 501.03 46.08 C 516.34 46.34 531.70 45.69 546.98 46.33 L 547.61 47.37 C 547.27 52.04 547.47 56.72 547.20 61.39 C 543.80 58.95 546.90 54.24 544.43 51.31 C 539.70 50.67 534.92 51.22 530.18 50.81 C 530.18 50.13 530.19 48.76 530.19 48.08 C 535.64 47.84 541.12 48.29 546.55 47.60 C 545.41 47.22 544.24 46.99 543.06 46.91 C 533.06 46.93 523.05 47.00 513.05 46.86 C 507.93 46.58 502.85 47.52 497.73 47.37 C 500.61 47.83 503.50 48.52 505.91 50.27 C 503.83 50.79 501.69 50.92 499.56 50.95 C 499.36 53.79 499.24 56.65 499.28 59.50 C 497.84 60.76 496.73 62.35 496.22 64.20 C 496.51 58.59 496.01 52.95 496.45 47.35 Z" />
<path fill="#70b2c6" opacity="1.00" d=" M 435.18 46.62 L 435.96 46.65 C 438.58 46.78 441.21 47.01 443.83 47.27 C 443.62 48.07 443.41 48.86 443.21 49.66 C 441.39 49.65 439.58 49.66 437.78 49.68 C 437.12 60.65 437.56 71.66 436.97 82.63 C 436.49 86.02 436.15 89.46 434.99 92.71 C 435.00 79.87 434.60 67.03 434.70 54.19 C 434.80 51.67 434.95 49.14 435.18 46.62 Z" />
<path fill="#068ea1" opacity="1.00" d=" M 467.94 47.47 C 473.53 47.09 479.15 47.57 484.71 46.82 L 485.09 46.79 L 485.12 47.97 C 485.36 54.28 485.62 60.60 485.20 66.92 C 485.01 87.97 485.24 109.03 485.05 130.09 C 485.27 132.63 483.50 135.07 480.93 135.44 C 471.41 137.30 461.61 138.31 451.93 137.09 C 446.15 136.43 440.18 136.03 434.87 133.46 C 439.91 132.22 442.47 127.27 447.00 125.10 C 446.49 124.56 445.99 124.03 445.50 123.50 C 447.13 122.28 448.75 121.03 450.37 119.77 C 453.52 119.95 456.37 118.55 459.04 117.04 C 459.50 114.63 461.36 113.25 463.59 112.48 C 463.02 111.61 462.45 110.73 461.90 109.85 C 462.81 109.38 463.74 108.90 464.66 108.43 C 466.02 110.27 467.80 111.64 470.23 111.19 C 472.28 111.24 472.48 108.51 472.11 107.01 C 472.65 106.45 473.21 105.91 473.78 105.37 C 474.08 105.62 474.68 106.11 474.97 106.35 C 476.35 107.84 478.79 109.45 480.58 107.57 C 482.74 105.27 480.22 101.43 477.29 101.50 C 475.63 101.09 473.95 100.71 472.29 100.34 C 472.01 98.53 472.51 96.80 473.38 95.22 C 471.90 94.95 470.43 94.67 468.96 94.39 C 470.58 94.18 472.21 93.96 473.85 93.74 C 472.69 92.94 471.53 92.14 470.39 91.34 C 474.31 91.13 478.22 90.67 482.09 90.01 C 482.69 82.34 482.09 74.65 482.26 66.98 C 482.13 61.68 482.63 56.36 482.14 51.09 C 481.92 50.75 481.48 50.08 481.26 49.74 C 476.84 48.81 472.28 48.75 467.94 47.47 M 452.77 120.98 C 453.41 123.51 456.31 122.81 458.24 123.09 C 458.87 119.63 454.81 120.80 452.77 120.98 M 460.82 120.87 C 460.19 124.17 464.32 122.59 466.24 123.00 C 466.02 120.18 462.82 120.49 460.82 120.87 M 478.20 124.22 C 478.69 124.75 478.69 124.75 478.20 124.22 M 478.19 127.18 C 478.72 127.66 478.72 127.66 478.19 127.18 Z" />
<path fill="#55436f" opacity="1.00" d=" M 497.73 47.37 C 502.85 47.52 507.93 46.58 513.05 46.86 L 513.12 48.18 C 511.98 48.45 510.85 48.73 509.73 49.02 C 509.78 49.51 509.87 50.50 509.92 50.99 C 509.39 50.96 508.32 50.90 507.79 50.86 C 509.38 48.95 505.60 48.64 506.95 50.77 C 506.69 50.65 506.17 50.39 505.91 50.27 C 503.50 48.52 500.61 47.83 497.73 47.37 Z" />
<path fill="#8c60a1" opacity="1.00" d=" M 513.05 46.86 C 523.05 47.00 533.06 46.93 543.06 46.91 C 544.24 46.99 545.41 47.22 546.55 47.60 C 541.12 48.29 535.64 47.84 530.19 48.08 C 524.76 48.27 519.32 48.42 513.89 48.19 L 513.12 48.18 L 513.05 46.86 Z" />
<path fill="#5b4981" opacity="1.00" d=" M 547.61 47.37 L 547.63 46.88 C 548.68 58.57 547.31 70.27 548.08 81.97 C 547.91 98.62 548.41 115.29 547.83 131.93 C 546.91 133.64 545.57 135.11 543.63 135.63 C 543.97 133.35 545.94 131.59 545.79 129.22 C 545.85 126.99 545.96 124.76 546.20 122.55 C 546.90 116.48 546.54 110.35 546.46 104.26 L 546.46 103.83 C 546.51 99.29 546.47 94.75 546.54 90.22 L 544.55 90.41 C 543.58 82.95 545.11 75.49 544.52 68.03 C 544.15 62.46 544.17 56.88 544.43 51.31 C 546.90 54.24 543.80 58.95 547.20 61.39 C 547.47 56.72 547.27 52.04 547.61 47.37 Z" />
<path fill="#000000" opacity="0.65" d=" M 485.12 47.97 C 485.88 55.28 485.63 62.63 485.41 69.95 C 485.42 90.33 485.44 110.70 485.38 131.07 C 485.56 133.67 484.17 136.58 481.53 137.32 C 471.71 139.66 461.58 139.63 451.55 139.42 C 451.53 139.22 451.48 138.81 451.46 138.61 C 446.40 138.69 441.23 138.11 436.51 136.25 C 433.28 134.79 433.54 130.88 433.63 127.94 C 433.89 122.89 433.33 117.79 434.08 112.78 C 434.26 118.84 433.75 124.90 434.06 130.95 C 434.26 131.58 434.66 132.83 434.87 133.46 C 440.18 136.03 446.15 136.43 451.93 137.09 C 461.61 138.31 471.41 137.30 480.93 135.44 C 483.50 135.07 485.27 132.63 485.05 130.09 C 485.24 109.03 485.01 87.97 485.20 66.92 C 485.62 60.60 485.36 54.28 485.12 47.97 Z" />
<path fill="#b797b4" opacity="1.00" d=" M 509.73 49.02 C 510.85 48.73 511.98 48.45 513.12 48.18 L 513.89 48.19 C 513.89 48.85 513.89 50.16 513.89 50.82 C 512.56 50.91 511.24 50.96 509.92 50.99 C 509.87 50.50 509.78 49.51 509.73 49.02 Z" />
<path fill="#a94d5a" opacity="1.00" d=" M 513.89 48.19 C 519.32 48.42 524.76 48.27 530.19 48.08 C 530.19 48.76 530.18 50.13 530.18 50.81 C 524.75 50.46 519.31 50.45 513.89 50.82 C 513.89 50.16 513.89 48.85 513.89 48.19 Z" />
<path fill="#be9bbc" opacity="1.00" d=" M 506.95 50.77 C 505.60 48.64 509.38 48.95 507.79 50.86 L 506.95 50.77 Z" />
<path fill="#33373b" opacity="1.00" d=" M 437.78 49.68 C 439.58 49.66 441.39 49.65 443.21 49.66 C 455.89 49.82 468.57 49.73 481.26 49.74 C 481.48 50.08 481.92 50.75 482.14 51.09 C 482.63 56.36 482.13 61.68 482.26 66.98 C 482.09 74.65 482.69 82.34 482.09 90.01 C 478.22 90.67 474.31 91.13 470.39 91.34 C 468.39 91.45 466.39 91.57 464.40 91.64 C 457.25 91.82 450.11 91.28 443.00 90.66 C 441.11 90.44 439.20 90.17 437.44 89.44 C 436.89 87.22 436.99 84.90 436.97 82.63 C 437.56 71.66 437.12 60.65 437.78 49.68 M 445.13 55.05 C 445.30 63.98 445.10 72.90 445.23 81.83 C 453.49 82.00 461.74 82.07 470.00 81.87 C 471.40 81.82 472.80 81.76 474.21 81.68 L 473.41 81.09 C 474.21 79.80 473.95 78.73 472.63 77.88 L 474.12 78.18 C 473.54 77.19 472.72 76.46 471.66 75.99 C 471.62 75.40 471.54 74.23 471.51 73.64 C 472.15 73.81 473.45 74.14 474.09 74.30 C 474.48 70.06 474.32 65.79 474.49 61.54 C 474.08 61.37 473.26 61.03 472.86 60.86 C 473.24 59.01 473.37 57.12 473.59 55.25 C 473.26 55.23 472.59 55.17 472.25 55.14 C 472.15 57.03 472.07 58.91 471.98 60.79 L 470.67 60.71 C 470.80 60.01 471.07 58.61 471.21 57.91 C 471.41 57.34 470.95 53.98 470.09 55.80 C 469.87 57.39 469.51 59.21 470.30 60.69 L 468.69 60.64 C 469.43 59.01 469.26 56.88 468.66 55.23 C 467.34 56.20 467.48 59.18 468.29 60.65 C 467.91 60.66 467.13 60.70 466.74 60.72 C 466.79 58.89 466.85 57.07 466.92 55.25 C 462.97 55.35 459.03 55.36 455.09 55.24 C 454.98 56.52 454.88 57.81 454.80 59.09 C 454.26 58.99 453.20 58.79 452.66 58.70 L 452.57 59.84 C 453.36 60.09 454.94 60.58 455.73 60.83 C 454.02 60.87 452.32 60.85 450.62 60.77 C 451.31 62.83 451.69 64.97 451.91 67.13 C 451.14 67.11 449.60 67.08 448.83 67.06 C 448.98 66.51 449.29 65.40 449.44 64.84 L 448.04 65.26 C 447.64 61.70 448.84 57.77 447.11 54.47 L 447.14 53.93 C 446.64 54.21 445.64 54.77 445.13 55.05 M 449.31 55.36 C 449.29 56.01 449.26 57.30 449.24 57.94 C 450.66 58.39 450.74 55.00 449.31 55.36 M 451.24 57.93 C 452.43 57.51 452.60 56.66 451.74 55.38 C 450.54 55.80 450.37 56.65 451.24 57.93 M 453.24 57.89 C 454.46 57.52 454.64 56.69 453.78 55.40 C 452.57 55.77 452.39 56.60 453.24 57.89 M 449.34 59.33 C 449.91 59.90 449.91 59.90 449.34 59.33 M 451.28 59.19 C 451.82 59.78 451.82 59.78 451.28 59.19 M 449.36 61.09 C 448.74 62.35 448.76 63.60 449.44 64.84 C 450.79 64.76 450.68 61.21 449.36 61.09 M 439.03 63.94 L 438.89 65.05 C 440.58 65.05 442.27 65.05 443.97 65.05 C 443.99 64.29 444.03 62.76 444.05 62.00 C 443.26 62.03 441.68 62.08 440.89 62.11 C 439.17 61.61 438.55 62.22 439.03 63.94 M 447.19 85.47 C 447.24 86.02 447.33 87.14 447.38 87.69 C 449.90 87.46 452.44 87.48 454.96 87.80 C 454.94 87.13 454.88 85.80 454.85 85.13 C 452.30 85.37 449.74 85.46 447.19 85.47 M 455.55 88.02 C 457.27 87.93 459.01 87.85 460.74 87.75 L 461.10 87.08 C 462.73 88.45 464.82 88.18 466.80 87.97 C 467.74 87.99 469.62 88.01 470.56 88.03 C 473.05 88.96 472.73 83.96 470.37 85.26 C 468.89 85.30 467.41 85.30 465.93 85.26 C 464.48 85.11 462.84 84.63 461.74 85.92 L 462.24 85.00 C 459.71 85.22 454.95 83.86 455.55 88.02 Z" />
<path fill="#101010" opacity="1.00" d=" M 505.91 50.27 C 506.17 50.39 506.69 50.65 506.95 50.77 L 507.79 50.86 C 508.32 50.90 509.39 50.96 509.92 50.99 C 511.24 50.96 512.56 50.91 513.89 50.82 C 519.31 50.45 524.75 50.46 530.18 50.81 C 534.92 51.22 539.70 50.67 544.43 51.31 C 544.17 56.88 544.15 62.46 544.52 68.03 C 545.11 75.49 543.58 82.95 544.55 90.41 L 544.76 92.58 C 542.50 92.47 540.25 92.27 538.00 92.25 C 526.66 92.58 515.29 91.78 503.97 92.61 C 502.35 92.73 500.84 92.06 499.34 91.60 C 499.48 88.20 499.40 84.81 499.35 81.42 C 499.90 74.12 499.74 66.80 499.28 59.50 C 499.24 56.65 499.36 53.79 499.56 50.95 C 501.69 50.92 503.83 50.79 505.91 50.27 M 507.72 55.83 C 507.31 58.31 507.25 60.83 507.31 63.34 C 508.06 62.85 508.82 62.36 509.58 61.87 C 509.51 63.88 508.32 65.52 507.58 67.30 C 507.19 69.52 507.42 71.80 507.36 74.04 C 507.36 74.68 507.35 75.96 507.35 76.60 C 507.36 77.31 507.37 78.71 507.38 79.42 C 509.31 79.63 511.20 80.15 513.01 80.88 C 518.80 82.96 525.10 83.15 530.99 81.34 C 533.60 80.79 537.79 80.83 536.98 77.01 C 533.93 77.32 531.03 78.34 528.00 78.75 L 528.05 78.96 L 527.86 79.75 C 527.26 78.19 526.20 77.17 524.68 76.67 C 525.43 75.99 526.20 75.32 526.98 74.65 C 526.94 72.99 526.32 71.62 524.41 71.38 C 525.20 69.55 527.31 69.58 528.98 69.18 C 531.55 68.72 534.04 67.91 536.61 67.41 C 536.72 66.66 536.92 65.17 537.02 64.42 C 535.48 64.55 533.95 64.77 532.44 65.05 L 533.25 63.97 C 534.52 63.61 535.80 63.29 537.09 62.97 C 537.02 62.19 536.88 60.63 536.81 59.85 C 536.30 58.51 535.80 57.17 535.31 55.82 L 534.79 57.28 C 533.78 56.80 532.78 56.32 531.79 55.84 C 530.76 56.31 529.77 56.83 528.77 57.32 C 529.06 57.85 529.64 58.90 529.93 59.43 C 529.51 59.53 528.67 59.74 528.25 59.84 C 527.95 59.14 527.37 57.75 527.08 57.05 C 527.38 56.84 527.97 56.42 528.27 56.21 C 526.88 56.21 525.50 56.23 524.13 56.26 L 524.27 56.93 C 523.54 57.23 522.09 57.84 521.36 58.15 L 521.79 58.74 C 521.31 58.93 520.34 59.32 519.85 59.51 L 519.02 58.91 C 520.04 58.08 521.05 57.25 522.07 56.41 C 520.39 56.61 517.29 55.17 516.73 57.34 C 516.43 57.22 515.82 56.97 515.52 56.85 L 515.03 56.20 L 514.16 56.41 C 514.23 56.81 514.39 57.60 514.46 57.99 C 514.27 58.78 513.89 60.35 513.69 61.14 C 513.21 61.17 512.24 61.22 511.76 61.25 C 511.72 60.31 511.64 58.43 511.60 57.49 C 511.61 57.04 511.62 56.14 511.63 55.69 C 510.32 55.74 509.02 55.79 507.72 55.83 M 535.32 70.14 C 535.44 73.44 538.35 68.67 535.32 70.14 M 532.14 74.58 C 533.77 75.24 535.43 75.84 537.13 76.31 C 536.91 74.99 536.68 73.66 536.46 72.34 C 535.00 73.08 533.57 73.82 532.14 74.58 M 510.24 86.24 C 509.20 86.81 508.86 87.67 509.22 88.80 C 511.77 89.22 514.36 89.08 516.94 89.01 C 517.25 88.09 517.57 87.16 517.90 86.24 C 515.34 86.42 512.79 86.28 510.24 86.24 M 518.95 86.24 C 518.58 87.20 518.22 88.16 517.87 89.12 C 520.01 89.06 522.38 89.39 524.17 87.92 C 524.31 85.12 520.73 86.69 518.95 86.24 M 532.06 87.26 L 531.28 86.89 C 530.91 87.16 530.17 87.69 529.80 87.96 L 529.26 87.98 C 528.53 86.60 527.55 86.37 526.32 87.28 C 525.11 89.04 528.25 89.85 529.21 88.64 L 529.91 88.65 C 530.46 88.69 531.54 88.76 532.08 88.80 C 533.53 89.29 534.28 88.74 534.33 87.15 C 533.53 85.94 532.77 85.98 532.06 87.26 Z" />
<path fill="#42a2b8" opacity="1.00" d=" M 434.08 112.78 C 434.60 93.26 434.29 73.71 434.70 54.19 C 434.60 67.03 435.00 79.87 434.99 92.71 C 434.40 98.26 434.83 103.86 435.47 109.40 C 436.46 108.29 437.37 107.11 438.07 105.79 C 438.13 106.43 438.26 107.71 438.32 108.35 C 439.53 108.49 440.75 108.59 441.98 108.66 C 442.17 110.13 442.37 111.61 442.50 113.09 C 442.68 116.89 442.95 120.73 442.41 124.51 C 441.09 128.06 437.04 129.18 434.06 130.95 C 433.75 124.90 434.26 118.84 434.08 112.78 Z" />
<path fill="#2b180b" opacity="1.00" d=" M 445.13 55.05 C 445.64 54.77 446.64 54.21 447.14 53.93 L 447.11 54.47 C 446.83 58.18 446.87 61.89 446.91 65.60 L 448.04 65.26 L 449.44 64.84 C 449.29 65.40 448.98 66.51 448.83 67.06 C 449.60 67.08 451.14 67.11 451.91 67.13 L 452.95 67.04 C 453.15 65.25 453.26 63.46 453.40 61.67 C 453.73 63.64 454.05 65.61 454.46 67.57 C 454.75 65.49 455.00 63.40 455.25 61.32 C 456.13 61.96 457.03 62.60 457.93 63.24 C 457.42 64.60 456.90 65.96 456.39 67.32 C 458.08 67.17 459.79 67.06 461.49 66.79 C 461.68 66.65 462.06 66.37 462.25 66.24 C 465.37 66.91 466.32 64.17 466.14 61.64 C 468.92 61.64 471.70 61.66 474.49 61.54 C 474.32 65.79 474.48 70.06 474.09 74.30 C 473.45 74.14 472.15 73.81 471.51 73.64 C 471.10 72.65 470.69 71.67 470.30 70.68 C 470.18 69.48 469.97 68.30 469.66 67.14 C 468.39 68.50 468.31 70.42 468.23 72.17 C 468.03 72.32 467.64 72.62 467.44 72.77 C 467.15 72.25 466.56 71.20 466.26 70.67 C 466.74 69.02 466.96 67.31 467.16 65.60 C 465.79 67.68 464.47 69.79 463.06 71.84 C 463.37 71.84 464.00 71.82 464.31 71.82 C 464.83 72.48 465.87 73.79 466.39 74.45 C 466.41 74.50 466.45 74.62 466.47 74.68 C 466.44 75.17 466.40 76.16 466.38 76.65 C 465.65 78.40 468.06 80.98 469.46 79.05 C 469.87 79.37 470.68 79.99 471.09 80.31 C 470.82 80.70 470.27 81.48 470.00 81.87 C 461.74 82.07 453.49 82.00 445.23 81.83 C 445.10 72.90 445.30 63.98 445.13 55.05 M 449.74 70.94 C 449.33 71.69 448.53 73.17 448.12 73.92 C 448.04 72.16 447.94 70.40 447.84 68.64 C 446.24 70.23 447.27 72.67 447.16 74.64 C 450.27 74.61 453.39 74.73 456.48 75.11 C 458.02 76.87 460.03 73.22 458.00 72.57 C 457.53 73.02 456.59 73.91 456.12 74.36 C 454.56 73.03 452.61 72.34 450.80 71.45 C 452.03 70.77 451.97 68.59 450.80 67.86 C 449.05 67.27 448.63 70.07 449.74 70.94 M 453.60 67.73 C 453.79 69.08 454.97 69.79 455.87 70.65 C 456.37 70.52 457.38 70.27 457.89 70.14 C 458.23 70.17 458.93 70.24 459.28 70.28 L 459.77 69.94 C 459.83 69.43 459.96 68.40 460.02 67.89 C 458.56 68.40 457.12 68.97 455.72 69.64 C 455.19 69.16 454.13 68.21 453.60 67.73 M 461.16 68.21 C 459.54 71.22 464.42 68.49 461.16 68.21 M 453.24 71.30 C 453.75 71.84 453.75 71.84 453.24 71.30 M 447.32 76.20 C 446.26 77.19 447.65 79.43 448.98 78.67 C 450.09 77.68 448.69 75.31 447.32 76.20 M 454.32 76.26 C 453.47 77.58 453.40 80.28 455.02 81.02 C 456.47 80.18 455.71 76.69 454.32 76.26 M 457.21 76.27 C 456.32 77.67 457.01 79.90 458.34 80.80 C 459.69 80.01 458.96 76.12 457.21 76.27 M 459.19 76.01 C 459.79 77.80 460.44 79.62 461.71 81.06 C 461.29 79.26 462.10 75.44 459.19 76.01 M 461.92 75.95 C 463.00 77.99 464.03 80.27 466.26 81.30 C 465.54 79.18 464.82 75.63 461.92 75.95 M 451.17 77.29 C 450.33 78.58 450.54 79.38 451.81 79.67 C 452.63 78.38 452.42 77.59 451.17 77.29 Z" />
<path fill="#cc8c33" opacity="1.00" d=" M 447.11 54.47 C 448.84 57.77 447.64 61.70 448.04 65.26 L 446.91 65.60 C 446.87 61.89 446.83 58.18 447.11 54.47 Z" />
<path fill="#5090b1" opacity="1.00" d=" M 449.31 55.36 C 450.74 55.00 450.66 58.39 449.24 57.94 C 449.26 57.30 449.29 56.01 449.31 55.36 Z" />
<path fill="#5091b3" opacity="1.00" d=" M 451.24 57.93 C 450.37 56.65 450.54 55.80 451.74 55.38 C 452.60 56.66 452.43 57.51 451.24 57.93 Z" />
<path fill="#4f90b2" opacity="1.00" d=" M 453.24 57.89 C 452.39 56.60 452.57 55.77 453.78 55.40 C 454.64 56.69 454.46 57.52 453.24 57.89 Z" />
<path fill="#54a4d6" opacity="1.00" d=" M 455.09 55.24 C 459.03 55.36 462.97 55.35 466.92 55.25 C 466.85 57.07 466.79 58.89 466.74 60.72 C 466.35 60.75 465.56 60.81 465.16 60.84 C 464.19 62.63 463.21 64.43 462.25 66.24 C 462.06 66.37 461.68 66.65 461.49 66.79 C 459.79 67.06 458.08 67.17 456.39 67.32 C 456.90 65.96 457.42 64.60 457.93 63.24 C 457.03 62.60 456.13 61.96 455.25 61.32 C 455.00 63.40 454.75 65.49 454.46 67.57 C 454.05 65.61 453.73 63.64 453.40 61.67 C 453.26 63.46 453.15 65.25 452.95 67.04 L 451.91 67.13 C 451.69 64.97 451.31 62.83 450.62 60.77 C 452.32 60.85 454.02 60.87 455.73 60.83 C 454.94 60.58 453.36 60.09 452.57 59.84 L 452.66 58.70 C 453.20 58.79 454.26 58.99 454.80 59.09 C 454.88 57.81 454.98 56.52 455.09 55.24 Z" />
<path fill="#58a3c9" opacity="1.00" d=" M 468.29 60.65 C 467.48 59.18 467.34 56.20 468.66 55.23 C 469.26 56.88 469.43 59.01 468.69 60.64 L 468.29 60.65 Z" />
<path fill="#59a5d1" opacity="1.00" d=" M 470.09 55.80 C 470.95 53.98 471.41 57.34 471.21 57.91 C 471.07 58.61 470.80 60.01 470.67 60.71 L 470.30 60.69 C 469.51 59.21 469.87 57.39 470.09 55.80 Z" />
<path fill="#54a4d6" opacity="1.00" d=" M 472.25 55.14 C 472.59 55.17 473.26 55.23 473.59 55.25 C 473.37 57.12 473.24 59.01 472.86 60.86 L 471.98 60.79 C 472.07 58.91 472.15 57.03 472.25 55.14 Z" />
<path fill="#6974db" opacity="1.00" d=" M 507.72 55.83 C 509.02 55.79 510.32 55.74 511.63 55.69 C 511.62 56.14 511.61 57.04 511.60 57.49 C 510.31 58.63 509.69 60.18 509.58 61.87 C 508.82 62.36 508.06 62.85 507.31 63.34 C 507.25 60.83 507.31 58.31 507.72 55.83 Z" />
<path fill="#5d66c3" opacity="1.00" d=" M 514.16 56.41 L 515.03 56.20 L 515.52 56.85 C 515.26 57.13 514.73 57.71 514.46 57.99 C 514.39 57.60 514.23 56.81 514.16 56.41 Z" />
<path fill="#6974db" opacity="1.00" d=" M 516.73 57.34 C 517.29 55.17 520.39 56.61 522.07 56.41 C 521.05 57.25 520.04 58.08 519.02 58.91 C 518.45 58.52 517.30 57.73 516.73 57.34 Z" />
<path fill="#6974db" opacity="1.00" d=" M 524.13 56.26 C 525.50 56.23 526.88 56.21 528.27 56.21 C 527.97 56.42 527.38 56.84 527.08 57.05 C 526.26 57.58 525.45 58.11 524.64 58.64 C 524.55 58.21 524.36 57.36 524.27 56.93 L 524.13 56.26 Z" />
<path fill="#1b6909" opacity="1.00" d=" M 528.77 57.32 C 529.77 56.83 530.76 56.31 531.79 55.84 C 532.78 56.32 533.78 56.80 534.79 57.28 L 535.31 55.82 C 535.80 57.17 536.30 58.51 536.81 59.85 C 536.10 60.03 535.42 60.21 534.76 60.41 C 533.58 58.68 531.33 58.76 530.35 60.62 C 530.24 60.32 530.04 59.73 529.93 59.43 C 529.64 58.90 529.06 57.85 528.77 57.32 Z" />
<path fill="#0d3c06" opacity="1.00" d=" M 515.52 56.85 C 515.82 56.97 516.43 57.22 516.73 57.34 C 517.30 57.73 518.45 58.52 519.02 58.91 L 519.85 59.51 C 520.57 60.36 521.58 61.03 522.75 60.93 C 522.51 60.38 522.03 59.29 521.79 58.74 L 521.36 58.15 C 522.09 57.84 523.54 57.23 524.27 56.93 C 524.36 57.36 524.55 58.21 524.64 58.64 C 525.45 58.11 526.26 57.58 527.08 57.05 C 527.37 57.75 527.95 59.14 528.25 59.84 C 528.67 59.74 529.51 59.53 529.93 59.43 C 530.04 59.73 530.24 60.32 530.35 60.62 C 531.33 58.76 533.58 58.68 534.76 60.41 C 535.42 60.21 536.10 60.03 536.81 59.85 C 536.88 60.63 537.02 62.19 537.09 62.97 C 535.80 63.29 534.52 63.61 533.25 63.97 L 532.44 65.05 C 530.44 65.78 528.44 66.50 526.51 67.39 C 525.38 67.32 524.25 67.25 523.15 67.14 L 522.64 66.75 C 522.67 65.74 522.73 64.74 522.81 63.74 C 521.54 65.05 520.22 66.30 518.89 67.54 C 516.51 69.29 517.25 72.59 516.27 75.07 C 515.22 75.94 514.01 76.57 512.83 77.19 C 510.99 77.09 509.16 76.84 507.35 76.60 C 507.35 75.96 507.36 74.68 507.36 74.04 C 507.91 73.99 509.01 73.90 509.55 73.85 C 509.24 72.65 508.94 71.45 508.65 70.25 C 510.98 70.69 512.38 72.14 511.55 74.51 C 512.62 74.47 513.70 74.44 514.79 74.42 C 514.79 73.37 514.81 72.32 514.83 71.28 C 514.26 71.99 513.69 72.71 513.13 73.42 C 512.44 71.51 511.76 69.60 511.14 67.68 C 511.79 66.78 512.39 65.84 512.93 64.86 C 512.42 63.84 511.79 62.89 511.18 61.94 C 511.32 61.76 511.61 61.42 511.76 61.25 C 512.24 61.22 513.21 61.17 513.69 61.14 C 513.89 60.35 514.27 58.78 514.46 57.99 C 514.73 57.71 515.26 57.13 515.52 56.85 Z" />
<path fill="#105606" opacity="1.00" d=" M 509.58 61.87 C 509.69 60.18 510.31 58.63 511.60 57.49 C 511.64 58.43 511.72 60.31 511.76 61.25 C 511.61 61.42 511.32 61.76 511.18 61.94 C 511.79 62.89 512.42 63.84 512.93 64.86 C 512.39 65.84 511.79 66.78 511.14 67.68 C 511.76 69.60 512.44 71.51 513.13 73.42 C 513.69 72.71 514.26 71.99 514.83 71.28 C 514.81 72.32 514.79 73.37 514.79 74.42 C 513.70 74.44 512.62 74.47 511.55 74.51 C 512.38 72.14 510.98 70.69 508.65 70.25 C 508.94 71.45 509.24 72.65 509.55 73.85 C 509.01 73.90 507.91 73.99 507.36 74.04 C 507.42 71.80 507.19 69.52 507.58 67.30 C 508.32 65.52 509.51 63.88 509.58 61.87 Z" />
<path fill="#62c2f9" opacity="1.00" d=" M 449.34 59.33 C 449.91 59.90 449.91 59.90 449.34 59.33 Z" />
<path fill="#61bcf0" opacity="1.00" d=" M 451.28 59.19 C 451.82 59.78 451.82 59.78 451.28 59.19 Z" />
<path fill="#55799c" opacity="1.00" d=" M 519.85 59.51 C 520.34 59.32 521.31 58.93 521.79 58.74 C 522.03 59.29 522.51 60.38 522.75 60.93 C 521.58 61.03 520.57 60.36 519.85 59.51 Z" />
<path fill="#462724" opacity="1.00" d=" M 465.16 60.84 C 465.56 60.81 466.35 60.75 466.74 60.72 C 467.13 60.70 467.91 60.66 468.29 60.65 L 468.69 60.64 L 470.30 60.69 L 470.67 60.71 L 471.98 60.79 L 472.86 60.86 C 473.26 61.03 474.08 61.37 474.49 61.54 C 471.70 61.66 468.92 61.64 466.14 61.64 C 466.32 64.17 465.37 66.91 462.25 66.24 C 463.21 64.43 464.19 62.63 465.16 60.84 Z" />
<path fill="#594381" opacity="1.00" d=" M 496.22 64.20 C 496.73 62.35 497.84 60.76 499.28 59.50 C 499.74 66.80 499.90 74.12 499.35 81.42 C 498.03 83.72 496.60 86.27 498.24 88.81 C 497.26 95.16 497.89 101.60 497.68 108.00 C 497.80 114.34 497.25 120.70 497.99 127.01 C 498.24 128.48 497.84 129.93 497.57 131.36 C 498.73 132.81 500.09 134.16 502.01 134.48 C 507.06 135.55 512.20 136.20 517.36 136.48 C 517.22 136.88 516.94 137.67 516.80 138.07 C 511.45 137.49 506.07 136.86 500.82 135.63 C 498.72 135.27 497.56 133.39 496.50 131.76 C 496.59 109.24 496.20 86.72 496.22 64.20 M 497.48 65.15 C 497.49 67.77 497.43 70.40 497.64 73.01 C 498.18 70.41 497.62 67.77 497.48 65.15 Z" />
<path fill="#5fafdf" opacity="1.00" d=" M 449.36 61.09 C 450.68 61.21 450.79 64.76 449.44 64.84 C 448.76 63.60 448.74 62.35 449.36 61.09 Z" />
<path fill="#7b3337" opacity="1.00" d=" M 439.03 63.94 C 438.55 62.22 439.17 61.61 440.89 62.11 C 441.16 63.62 440.54 64.24 439.03 63.94 Z" />
<path fill="#595d69" opacity="1.00" d=" M 440.89 62.11 C 441.68 62.08 443.26 62.03 444.05 62.00 C 444.03 62.76 443.99 64.29 443.97 65.05 C 442.27 65.05 440.58 65.05 438.89 65.05 L 439.03 63.94 C 440.54 64.24 441.16 63.62 440.89 62.11 Z" />
<path fill="#69561e" opacity="1.00" d=" M 518.89 67.54 C 520.22 66.30 521.54 65.05 522.81 63.74 C 522.73 64.74 522.67 65.74 522.64 66.75 L 523.15 67.14 C 522.37 67.97 521.59 68.81 520.83 69.65 C 520.34 69.12 519.37 68.07 518.89 67.54 Z" />
<path fill="#87817d" opacity="1.00" d=" M 497.48 65.15 C 497.62 67.77 498.18 70.41 497.64 73.01 C 497.43 70.40 497.49 67.77 497.48 65.15 Z" />
<path fill="#e49e4c" opacity="1.00" d=" M 526.51 67.39 C 528.44 66.50 530.44 65.78 532.44 65.05 C 533.95 64.77 535.48 64.55 537.02 64.42 C 536.92 65.17 536.72 66.66 536.61 67.41 C 534.04 67.91 531.55 68.72 528.98 69.18 C 525.91 69.54 522.82 69.79 519.78 70.34 C 519.34 70.42 518.45 70.57 518.01 70.65 C 518.30 69.61 518.59 68.57 518.89 67.54 C 519.37 68.07 520.34 69.12 520.83 69.65 C 521.59 68.81 522.37 67.97 523.15 67.14 C 524.25 67.25 525.38 67.32 526.51 67.39 Z" />
<path fill="#939016" opacity="1.00" d=" M 463.06 71.84 C 464.47 69.79 465.79 67.68 467.16 65.60 C 466.96 67.31 466.74 69.02 466.26 70.67 C 465.78 70.96 464.80 71.53 464.31 71.82 C 464.00 71.82 463.37 71.84 463.06 71.84 Z" />
<path fill="#b05d25" opacity="1.00" d=" M 468.23 72.17 C 468.31 70.42 468.39 68.50 469.66 67.14 C 469.97 68.30 470.18 69.48 470.30 70.68 C 469.78 71.05 468.75 71.80 468.23 72.17 Z" />
<path fill="#70b2c6" opacity="1.00" d=" M 449.74 70.94 C 448.63 70.07 449.05 67.27 450.80 67.86 C 451.97 68.59 452.03 70.77 450.80 71.45 C 450.54 71.33 450.00 71.07 449.74 70.94 Z" />
<path fill="#70b2c6" opacity="1.00" d=" M 453.60 67.73 C 454.13 68.21 455.19 69.16 455.72 69.64 C 457.12 68.97 458.56 68.40 460.02 67.89 C 459.96 68.40 459.83 69.43 459.77 69.94 L 459.28 70.28 C 458.93 70.24 458.23 70.17 457.89 70.14 C 457.38 70.27 456.37 70.52 455.87 70.65 C 454.97 69.79 453.79 69.08 453.60 67.73 Z" />
<path fill="#518ba3" opacity="1.00" d=" M 461.16 68.21 C 464.42 68.49 459.54 71.22 461.16 68.21 Z" />
<path fill="#522711" opacity="1.00" d=" M 516.27 75.07 C 517.25 72.59 516.51 69.29 518.89 67.54 C 518.59 68.57 518.30 69.61 518.01 70.65 C 518.45 70.57 519.34 70.42 519.78 70.34 C 518.87 73.38 518.22 76.54 518.62 79.73 C 516.96 79.53 515.29 79.51 513.64 79.73 C 513.90 79.13 514.43 77.93 514.70 77.32 C 514.23 77.29 513.29 77.23 512.83 77.19 C 514.01 76.57 515.22 75.94 516.27 75.07 Z" />
<path fill="#685816" opacity="1.00" d=" M 447.16 74.64 C 447.27 72.67 446.24 70.23 447.84 68.64 C 447.94 70.40 448.04 72.16 448.12 73.92 C 448.53 73.17 449.33 71.69 449.74 70.94 C 450.00 71.07 450.54 71.33 450.80 71.45 C 452.61 72.34 454.56 73.03 456.12 74.36 L 456.48 75.11 C 453.39 74.73 450.27 74.61 447.16 74.64 Z" />
<path fill="#a91011" opacity="1.00" d=" M 519.78 70.34 C 522.82 69.79 525.91 69.54 528.98 69.18 C 527.31 69.58 525.20 69.55 524.41 71.38 C 526.32 71.62 526.94 72.99 526.98 74.65 C 526.20 75.32 525.43 75.99 524.68 76.67 C 523.27 75.99 521.62 75.71 520.41 74.71 C 521.28 72.91 523.59 71.97 524.94 70.49 C 523.21 70.44 521.49 70.39 519.78 70.34 Z" />
<path fill="#295216" opacity="1.00" d=" M 535.32 70.14 C 538.35 68.67 535.44 73.44 535.32 70.14 Z" />
<path fill="#746e6c" opacity="1.00" d=" M 453.24 71.30 C 453.75 71.84 453.75 71.84 453.24 71.30 Z" />
<path fill="#0f1d05" opacity="1.00" d=" M 464.31 71.82 C 464.80 71.53 465.78 70.96 466.26 70.67 C 466.56 71.20 467.15 72.25 467.44 72.77 C 467.64 72.62 468.03 72.32 468.23 72.17 C 468.75 71.80 469.78 71.05 470.30 70.68 C 470.69 71.67 471.10 72.65 471.51 73.64 C 471.54 74.23 471.62 75.40 471.66 75.99 C 472.72 76.46 473.54 77.19 474.12 78.18 L 472.63 77.88 C 472.21 77.84 471.35 77.76 470.93 77.72 C 470.84 79.30 472.28 80.27 473.41 81.09 L 474.21 81.68 C 472.80 81.76 471.40 81.82 470.00 81.87 C 470.27 81.48 470.82 80.70 471.09 80.31 C 470.68 79.99 469.87 79.37 469.46 79.05 C 468.53 78.12 467.50 77.32 466.38 76.65 C 466.40 76.16 466.44 75.17 466.47 74.68 L 466.47 74.55 L 466.39 74.45 C 465.87 73.79 464.83 72.48 464.31 71.82 Z" />
<path fill="#1b2911" opacity="1.00" d=" M 519.78 70.34 C 521.49 70.39 523.21 70.44 524.94 70.49 C 523.59 71.97 521.28 72.91 520.41 74.71 C 521.62 75.71 523.27 75.99 524.68 76.67 C 526.20 77.17 527.26 78.19 527.86 79.75 L 527.50 81.35 C 526.98 80.91 525.93 80.02 525.41 79.58 C 523.15 79.91 520.87 80.04 518.62 79.73 C 518.22 76.54 518.87 73.38 519.78 70.34 Z" />
<path fill="#ffffff" opacity="1.00" d=" M 456.12 74.36 C 456.59 73.91 457.53 73.02 458.00 72.57 C 460.03 73.22 458.02 76.87 456.48 75.11 L 456.12 74.36 Z" />
<path fill="#2f9d0f" opacity="1.00" d=" M 532.14 74.58 C 533.57 73.82 535.00 73.08 536.46 72.34 C 536.68 73.66 536.91 74.99 537.13 76.31 C 535.43 75.84 533.77 75.24 532.14 74.58 Z" />
<path fill="#84811c" opacity="1.00" d=" M 466.39 74.45 L 466.47 74.55 L 466.47 74.68 C 466.45 74.62 466.41 74.50 466.39 74.45 Z" />
<path fill="#a56c27" opacity="1.00" d=" M 447.32 76.20 C 448.69 75.31 450.09 77.68 448.98 78.67 C 447.65 79.43 446.26 77.19 447.32 76.20 Z" />
<path fill="#cd9034" opacity="1.00" d=" M 454.32 76.26 C 455.71 76.69 456.47 80.18 455.02 81.02 C 453.40 80.28 453.47 77.58 454.32 76.26 Z" />
<path fill="#c07727" opacity="1.00" d=" M 457.21 76.27 C 458.96 76.12 459.69 80.01 458.34 80.80 C 457.01 79.90 456.32 77.67 457.21 76.27 Z" />
<path fill="#de9947" opacity="1.00" d=" M 459.19 76.01 C 462.10 75.44 461.29 79.26 461.71 81.06 C 460.44 79.62 459.79 77.80 459.19 76.01 Z" />
<path fill="#b86d23" opacity="1.00" d=" M 461.92 75.95 C 464.82 75.63 465.54 79.18 466.26 81.30 C 464.03 80.27 463.00 77.99 461.92 75.95 Z" />
<path fill="#e28427" opacity="1.00" d=" M 451.17 77.29 C 452.42 77.59 452.63 78.38 451.81 79.67 C 450.54 79.38 450.33 78.58 451.17 77.29 Z" />
<path fill="#8c6921" opacity="1.00" d=" M 469.46 79.05 C 468.06 80.98 465.65 78.40 466.38 76.65 C 467.50 77.32 468.53 78.12 469.46 79.05 Z" />
<path fill="#e49f4d" opacity="1.00" d=" M 507.35 76.60 C 509.16 76.84 510.99 77.09 512.83 77.19 C 513.29 77.23 514.23 77.29 514.70 77.32 C 514.43 77.93 513.90 79.13 513.64 79.73 C 515.29 79.51 516.96 79.53 518.62 79.73 C 520.87 80.04 523.15 79.91 525.41 79.58 C 525.93 80.02 526.98 80.91 527.50 81.35 L 527.86 79.75 L 528.05 78.96 C 528.15 79.40 528.35 80.29 528.45 80.73 C 529.09 80.88 530.35 81.19 530.99 81.34 C 525.10 83.15 518.80 82.96 513.01 80.88 C 511.20 80.15 509.31 79.63 507.38 79.42 C 507.37 78.71 507.36 77.31 507.35 76.60 Z" />
<path fill="#de9947" opacity="1.00" d=" M 528.00 78.75 C 531.03 78.34 533.93 77.32 536.98 77.01 C 537.79 80.83 533.60 80.79 530.99 81.34 C 530.35 81.19 529.09 80.88 528.45 80.73 C 528.35 80.29 528.15 79.40 528.05 78.96 L 528.00 78.75 Z" />
<path fill="#804e1b" opacity="1.00" d=" M 470.93 77.72 C 471.35 77.76 472.21 77.84 472.63 77.88 C 473.95 78.73 474.21 79.80 473.41 81.09 C 472.28 80.27 470.84 79.30 470.93 77.72 Z" />
<path fill="#bfb2cd" opacity="1.00" d=" M 498.24 88.81 C 496.60 86.27 498.03 83.72 499.35 81.42 C 499.40 84.81 499.48 88.20 499.34 91.60 C 500.84 92.06 502.35 92.73 503.97 92.61 C 515.29 91.78 526.66 92.58 538.00 92.25 C 540.25 92.27 542.50 92.47 544.76 92.58 C 544.88 93.81 545.01 95.04 545.14 96.28 L 544.23 96.27 L 544.34 94.92 C 544.36 94.44 544.42 93.49 544.45 93.02 C 531.61 92.87 518.76 92.99 505.91 92.98 C 503.54 92.98 501.22 92.44 498.94 91.87 C 499.01 93.45 499.08 95.03 499.16 96.61 C 500.20 95.78 501.25 94.95 502.29 94.11 C 503.59 94.26 504.90 94.42 506.21 94.58 C 506.45 95.59 506.71 96.61 506.97 97.63 C 504.33 98.90 500.98 99.75 499.67 102.66 C 498.57 105.35 498.91 108.38 499.66 111.11 C 499.92 111.61 500.43 112.62 500.69 113.12 C 500.87 113.49 501.24 114.24 501.42 114.61 C 498.79 114.58 498.47 118.03 501.16 118.26 C 500.74 122.87 500.50 127.57 501.46 132.14 L 501.58 132.81 L 502.01 134.48 C 500.09 134.16 498.73 132.81 497.57 131.36 C 497.84 129.93 498.24 128.48 497.99 127.01 C 497.25 120.70 497.80 114.34 497.68 108.00 C 497.89 101.60 497.26 95.16 498.24 88.81 Z" />
<path fill="#59a9c0" opacity="1.00" d=" M 434.99 92.71 C 436.15 89.46 436.49 86.02 436.97 82.63 C 436.99 84.90 436.89 87.22 437.44 89.44 C 439.20 90.17 441.11 90.44 443.00 90.66 C 442.96 93.51 442.92 96.36 442.72 99.20 C 442.61 100.63 442.44 102.06 442.31 103.49 C 441.02 103.52 439.74 103.56 438.46 103.60 C 438.36 104.14 438.17 105.24 438.07 105.79 C 437.37 107.11 436.46 108.29 435.47 109.40 C 434.83 103.86 434.40 98.26 434.99 92.71 Z" />
<path fill="#a9b0be" opacity="1.00" d=" M 447.19 85.47 C 449.74 85.46 452.30 85.37 454.85 85.13 C 454.88 85.80 454.94 87.13 454.96 87.80 C 452.44 87.48 449.90 87.46 447.38 87.69 C 447.33 87.14 447.24 86.02 447.19 85.47 Z" />
<path fill="#898c9a" opacity="1.00" d=" M 455.55 88.02 C 454.95 83.86 459.71 85.22 462.24 85.00 L 461.74 85.92 C 461.58 86.21 461.26 86.79 461.10 87.08 L 460.74 87.75 C 459.01 87.85 457.27 87.93 455.55 88.02 M 459.25 86.28 C 459.76 86.81 459.76 86.81 459.25 86.28 Z" />
<path fill="#64385b" opacity="1.00" d=" M 461.74 85.92 C 462.84 84.63 464.48 85.11 465.93 85.26 C 466.22 86.16 466.51 87.07 466.80 87.97 C 464.82 88.18 462.73 88.45 461.10 87.08 C 461.26 86.79 461.58 86.21 461.74 85.92 Z" />
<path fill="#817f37" opacity="1.00" d=" M 465.93 85.26 C 467.41 85.30 468.89 85.30 470.37 85.26 C 470.27 86.18 470.33 87.12 470.56 88.03 C 469.62 88.01 467.74 87.99 466.80 87.97 C 466.51 87.07 466.22 86.16 465.93 85.26 Z" />
<path fill="#207982" opacity="1.00" d=" M 470.37 85.26 C 472.73 83.96 473.05 88.96 470.56 88.03 C 470.33 87.12 470.27 86.18 470.37 85.26 Z" />
<path fill="#464b51" opacity="1.00" d=" M 459.25 86.28 C 459.76 86.81 459.76 86.81 459.25 86.28 Z" />
<path fill="#282b2f" opacity="1.00" d=" M 510.24 86.24 C 512.79 86.28 515.34 86.42 517.90 86.24 C 517.57 87.16 517.25 88.09 516.94 89.01 C 514.36 89.08 511.77 89.22 509.22 88.80 C 508.86 87.67 509.20 86.81 510.24 86.24 Z" />
<path fill="#26282c" opacity="1.00" d=" M 518.95 86.24 C 520.73 86.69 524.31 85.12 524.17 87.92 C 522.38 89.39 520.01 89.06 517.87 89.12 C 518.22 88.16 518.58 87.20 518.95 86.24 Z" />
<path fill="#2a4b5a" opacity="1.00" d=" M 532.06 87.26 C 532.77 85.98 533.53 85.94 534.33 87.15 C 534.28 88.74 533.53 89.29 532.08 88.80 C 532.08 88.41 532.06 87.64 532.06 87.26 Z" />
<path fill="#262868" opacity="1.00" d=" M 526.32 87.28 C 527.55 86.37 528.53 86.60 529.26 87.98 L 529.21 88.64 C 528.25 89.85 525.11 89.04 526.32 87.28 Z" />
<path fill="#8d5c19" opacity="1.00" d=" M 529.80 87.96 C 530.17 87.69 530.91 87.16 531.28 86.89 L 532.06 87.26 C 532.06 87.64 532.08 88.41 532.08 88.80 C 531.54 88.76 530.46 88.69 529.91 88.65 L 529.80 87.96 Z" />
<path fill="#2a8010" opacity="1.00" d=" M 529.26 87.98 L 529.80 87.96 L 529.91 88.65 L 529.21 88.64 L 529.26 87.98 Z" />
<path fill="#2499b0" opacity="1.00" d=" M 443.00 90.66 C 450.11 91.28 457.25 91.82 464.40 91.64 C 462.51 96.04 457.63 93.98 454.03 94.98 C 452.38 95.16 451.44 97.87 453.26 98.55 C 457.61 99.72 462.21 99.16 466.67 99.33 C 466.29 100.44 465.91 101.56 465.53 102.67 C 465.33 102.35 464.92 101.71 464.72 101.39 C 462.97 102.78 461.23 104.18 459.52 105.62 C 457.97 105.63 456.42 105.48 454.90 105.75 C 454.30 106.68 453.74 107.62 453.23 108.59 C 452.79 108.62 451.90 108.69 451.45 108.72 C 451.40 107.21 451.35 105.71 451.22 104.21 L 450.16 104.14 C 449.56 104.12 448.36 104.06 447.76 104.03 C 447.46 102.52 447.16 101.02 446.84 99.52 C 445.46 99.42 444.09 99.31 442.72 99.20 C 442.92 96.36 442.96 93.51 443.00 90.66 Z" />
<path fill="#c5bcd4" opacity="1.00" d=" M 544.55 90.41 L 546.54 90.22 C 546.47 94.75 546.51 99.29 546.46 103.83 C 545.37 103.26 544.27 102.73 543.08 102.45 C 541.56 102.41 540.03 102.43 538.52 102.44 C 537.73 103.22 536.95 104.00 536.11 104.72 L 535.16 105.18 C 534.97 107.03 534.95 108.92 534.50 110.73 C 534.25 108.72 533.54 106.82 532.50 105.09 C 530.90 105.32 529.30 105.48 527.74 105.86 C 527.50 107.98 527.53 110.11 527.64 112.23 C 528.59 113.82 529.65 115.35 530.73 116.87 C 530.64 117.22 530.48 117.92 530.40 118.26 C 527.43 117.43 524.36 117.47 521.37 118.11 C 521.39 117.67 521.45 116.79 521.48 116.35 C 520.09 116.53 518.70 116.70 517.32 116.87 C 517.38 114.79 517.44 112.71 517.52 110.63 C 519.27 110.13 520.46 109.11 520.24 107.18 C 519.49 107.09 517.99 106.89 517.24 106.80 C 517.21 102.99 515.10 99.80 512.92 96.86 C 519.69 97.93 526.58 97.80 533.34 96.65 C 533.59 98.49 533.90 100.32 534.26 102.15 C 536.58 101.12 537.10 98.75 537.45 96.46 C 539.74 95.93 542.03 95.40 544.34 94.92 L 544.23 96.27 L 545.14 96.28 C 545.01 95.04 544.88 93.81 544.76 92.58 L 544.55 90.41 Z" />
<path fill="#1194a9" opacity="1.00" d=" M 464.40 91.64 C 466.39 91.57 468.39 91.45 470.39 91.34 C 471.53 92.14 472.69 92.94 473.85 93.74 C 472.21 93.96 470.58 94.18 468.96 94.39 C 470.43 94.67 471.90 94.95 473.38 95.22 C 472.51 96.80 472.01 98.53 472.29 100.34 C 473.95 100.71 475.63 101.09 477.29 101.50 C 476.91 101.84 476.16 102.52 475.78 102.85 C 475.52 103.40 475.02 104.49 474.76 105.03 L 474.97 106.35 C 474.68 106.11 474.08 105.62 473.78 105.37 C 473.21 105.91 472.65 106.45 472.11 107.01 C 470.92 105.96 469.74 104.43 467.94 104.75 C 466.22 105.25 465.63 107.12 464.66 108.43 C 463.74 108.90 462.81 109.38 461.90 109.85 C 462.45 110.73 463.02 111.61 463.59 112.48 C 461.36 113.25 459.50 114.63 459.04 117.04 C 456.37 118.55 453.52 119.95 450.37 119.77 C 448.75 121.03 447.13 122.28 445.50 123.50 C 445.99 124.03 446.49 124.56 447.00 125.10 C 442.47 127.27 439.91 132.22 434.87 133.46 C 434.66 132.83 434.26 131.58 434.06 130.95 C 437.04 129.18 441.09 128.06 442.41 124.51 C 442.95 120.73 442.68 116.89 442.50 113.09 C 444.08 113.00 445.67 112.91 447.26 112.82 C 447.29 111.54 447.33 110.26 447.37 108.98 C 448.73 108.89 450.09 108.81 451.45 108.72 C 451.90 108.69 452.79 108.62 453.23 108.59 C 453.74 107.62 454.30 106.68 454.90 105.75 C 456.42 105.48 457.97 105.63 459.52 105.62 C 461.23 104.18 462.97 102.78 464.72 101.39 C 464.92 101.71 465.33 102.35 465.53 102.67 C 465.91 101.56 466.29 100.44 466.67 99.33 C 462.21 99.16 457.61 99.72 453.26 98.55 C 451.44 97.87 452.38 95.16 454.03 94.98 C 457.63 93.98 462.51 96.04 464.40 91.64 Z" />
<path fill="#a299b0" opacity="1.00" d=" M 498.94 91.87 C 501.22 92.44 503.54 92.98 505.91 92.98 C 518.76 92.99 531.61 92.87 544.45 93.02 C 544.42 93.49 544.36 94.44 544.34 94.92 C 542.03 95.40 539.74 95.93 537.45 96.46 C 537.10 98.75 536.58 101.12 534.26 102.15 C 533.90 100.32 533.59 98.49 533.34 96.65 C 526.58 97.80 519.69 97.93 512.92 96.86 C 515.10 99.80 517.21 102.99 517.24 106.80 C 517.36 108.07 517.45 109.35 517.52 110.63 C 517.44 112.71 517.38 114.79 517.32 116.87 C 518.70 116.70 520.09 116.53 521.48 116.35 C 521.45 116.79 521.39 117.67 521.37 118.11 C 524.36 117.47 527.43 117.43 530.40 118.26 L 530.06 119.43 C 524.83 119.44 519.61 119.31 514.39 119.33 C 514.31 120.93 514.25 122.54 514.19 124.14 C 514.09 126.74 513.93 129.39 512.85 131.80 C 512.26 127.58 512.69 123.34 512.80 119.12 C 509.15 118.57 505.45 118.68 501.80 119.09 C 502.02 123.44 502.35 127.82 501.46 132.14 C 500.50 127.57 500.74 122.87 501.16 118.26 C 501.92 117.19 502.28 115.74 501.42 114.61 C 501.24 114.24 500.87 113.49 500.69 113.12 C 501.68 113.86 502.68 114.58 503.75 115.21 C 509.70 119.38 517.82 112.51 516.09 105.92 C 515.41 101.31 511.05 98.81 506.97 97.63 C 506.71 96.61 506.45 95.59 506.21 94.58 C 504.90 94.42 503.59 94.26 502.29 94.11 C 501.25 94.95 500.20 95.78 499.16 96.61 C 499.08 95.03 499.01 93.45 498.94 91.87 Z" />
<path fill="#7875a0" opacity="1.00" d=" M 499.67 102.66 C 500.98 99.75 504.33 98.90 506.97 97.63 C 511.05 98.81 515.41 101.31 516.09 105.92 C 517.82 112.51 509.70 119.38 503.75 115.21 C 504.33 115.26 505.47 115.37 506.05 115.42 C 511.25 115.37 515.02 110.12 514.36 105.13 C 513.48 103.37 512.47 101.37 510.50 100.64 C 508.22 99.90 505.81 100.49 503.50 100.72 C 503.45 101.59 503.41 102.47 503.38 103.35 C 502.40 103.49 501.42 103.63 500.45 103.77 C 500.09 106.21 499.83 108.65 499.66 111.11 C 498.91 108.38 498.57 105.35 499.67 102.66 Z" />
<path fill="#2e3034" opacity="1.00" d=" M 442.31 103.49 C 442.44 102.06 442.61 100.63 442.72 99.20 C 444.09 99.31 445.46 99.42 446.84 99.52 C 447.16 101.02 447.46 102.52 447.76 104.03 C 446.19 103.57 444.86 102.61 443.56 101.67 C 444.26 101.66 445.66 101.63 446.37 101.62 C 445.97 100.04 444.45 99.90 443.10 99.64 C 442.99 101.12 442.90 102.60 442.81 104.08 C 441.46 104.12 440.11 104.17 438.77 104.22 C 439.04 105.47 438.68 107.13 439.96 107.91 C 440.18 107.15 440.63 105.63 440.86 104.88 C 442.21 107.06 442.97 109.50 443.22 112.05 C 443.91 112.01 445.30 111.93 446.00 111.89 C 446.08 110.56 446.16 109.23 446.25 107.91 C 447.49 107.85 448.74 107.79 449.99 107.73 C 450.04 106.54 450.10 105.34 450.16 104.14 L 451.22 104.21 C 451.35 105.71 451.40 107.21 451.45 108.72 C 450.09 108.81 448.73 108.89 447.37 108.98 C 447.33 110.26 447.29 111.54 447.26 112.82 C 445.67 112.91 444.08 113.00 442.50 113.09 C 442.37 111.61 442.17 110.13 441.98 108.66 C 440.75 108.59 439.53 108.49 438.32 108.35 C 438.26 107.71 438.13 106.43 438.07 105.79 C 438.17 105.24 438.36 104.14 438.46 103.60 C 439.74 103.56 441.02 103.52 442.31 103.49 Z" />
<path fill="#87817d" opacity="1.00" d=" M 443.10 99.64 C 444.45 99.90 445.97 100.04 446.37 101.62 C 445.66 101.63 444.26 101.66 443.56 101.67 C 444.86 102.61 446.19 103.57 447.76 104.03 C 448.36 104.06 449.56 104.12 450.16 104.14 C 450.10 105.34 450.04 106.54 449.99 107.73 C 448.74 107.79 447.49 107.85 446.25 107.91 C 446.16 109.23 446.08 110.56 446.00 111.89 C 445.30 111.93 443.91 112.01 443.22 112.05 C 442.97 109.50 442.21 107.06 440.86 104.88 C 440.63 105.63 440.18 107.15 439.96 107.91 C 438.68 107.13 439.04 105.47 438.77 104.22 C 440.11 104.17 441.46 104.12 442.81 104.08 C 442.90 102.60 442.99 101.12 443.10 99.64 M 444.30 104.25 C 442.84 104.22 442.11 106.93 443.91 106.95 C 445.36 107.00 446.07 104.26 444.30 104.25 Z" />
<path fill="#524667" opacity="1.00" d=" M 503.50 100.72 C 505.81 100.49 508.22 99.90 510.50 100.64 C 512.47 101.37 513.48 103.37 514.36 105.13 L 513.61 105.29 C 512.73 105.20 510.96 105.02 510.07 104.93 C 509.95 103.61 509.84 102.28 509.74 100.96 C 508.20 100.95 506.67 100.93 505.15 100.97 L 505.06 101.94 C 505.01 102.73 504.92 104.30 504.87 105.09 C 503.60 104.65 502.36 104.73 501.16 105.33 L 501.10 105.87 C 501.00 106.68 500.80 108.30 500.70 109.11 C 501.96 109.84 503.22 110.58 504.49 111.31 C 505.01 112.68 505.52 114.05 506.05 115.42 C 505.47 115.37 504.33 115.26 503.75 115.21 C 502.68 114.58 501.68 113.86 500.69 113.12 C 500.43 112.62 499.92 111.61 499.66 111.11 C 499.83 108.65 500.09 106.21 500.45 103.77 C 501.42 103.63 502.40 103.49 503.38 103.35 C 503.41 102.47 503.45 101.59 503.50 100.72 Z" />
<path fill="#1c1b21" opacity="1.00" d=" M 505.15 100.97 C 506.67 100.93 508.20 100.95 509.74 100.96 C 509.84 102.28 509.95 103.61 510.07 104.93 C 510.96 105.02 512.73 105.20 513.61 105.29 C 512.07 105.65 510.52 105.93 508.98 106.21 C 508.97 104.78 508.97 103.35 508.97 101.92 C 507.66 101.93 506.36 101.94 505.06 101.94 L 505.15 100.97 Z" />
<path fill="#4b4548" opacity="1.00" d=" M 475.78 102.85 C 476.16 102.52 476.91 101.84 477.29 101.50 C 480.22 101.43 482.74 105.27 480.58 107.57 C 478.79 109.45 476.35 107.84 474.97 106.35 L 474.76 105.03 L 475.56 104.72 C 475.62 104.25 475.72 103.32 475.78 102.85 Z" />
<path fill="#3a3c40" opacity="1.00" d=" M 505.06 101.94 C 506.36 101.94 507.66 101.93 508.97 101.92 C 508.97 103.35 508.97 104.78 508.98 106.21 C 510.52 105.93 512.07 105.65 513.61 105.29 L 514.36 105.13 C 515.02 110.12 511.25 115.37 506.05 115.42 C 505.52 114.05 505.01 112.68 504.49 111.31 C 503.22 110.58 501.96 109.84 500.70 109.11 C 500.80 108.30 501.00 106.68 501.10 105.87 C 502.37 106.36 503.62 106.28 504.84 105.64 L 504.87 105.09 C 504.92 104.30 505.01 102.73 505.06 101.94 M 509.05 110.37 C 508.26 111.67 508.51 112.43 509.80 112.66 C 510.58 111.36 510.33 110.59 509.05 110.37 Z" />
<path fill="#2f3236" opacity="1.00" d=" M 538.52 102.44 C 540.03 102.43 541.56 102.41 543.08 102.45 C 543.25 104.46 544.64 107.13 542.63 108.67 C 541.39 110.00 539.44 109.66 537.86 109.42 C 536.61 108.17 536.57 106.31 536.11 104.72 C 536.95 104.00 537.73 103.22 538.52 102.44 Z" />
<path fill="#a69bb3" opacity="1.00" d=" M 543.08 102.45 C 544.27 102.73 545.37 103.26 546.46 103.83 L 546.46 104.26 C 544.36 106.52 544.57 109.71 544.28 112.57 C 543.43 112.52 541.73 112.41 540.88 112.36 C 540.81 114.22 540.75 116.07 540.70 117.93 C 538.02 118.26 535.36 118.65 532.75 119.32 C 532.06 118.51 531.38 117.69 530.73 116.87 C 529.65 115.35 528.59 113.82 527.64 112.23 C 529.93 112.34 533.21 113.30 534.50 110.73 C 534.95 108.92 534.97 107.03 535.16 105.18 L 536.11 104.72 C 536.57 106.31 536.61 108.17 537.86 109.42 C 539.44 109.66 541.39 110.00 542.63 108.67 C 544.64 107.13 543.25 104.46 543.08 102.45 Z" />
<path fill="#6e7276" opacity="1.00" d=" M 474.76 105.03 C 475.02 104.49 475.52 103.40 475.78 102.85 C 475.72 103.32 475.62 104.25 475.56 104.72 L 474.76 105.03 Z" />
<path fill="#675e5e" opacity="1.00" d=" M 444.30 104.25 C 446.07 104.26 445.36 107.00 443.91 106.95 C 442.11 106.93 442.84 104.22 444.30 104.25 Z" />
<path fill="#4e4749" opacity="1.00" d=" M 464.66 108.43 C 465.63 107.12 466.22 105.25 467.94 104.75 C 469.74 104.43 470.92 105.96 472.11 107.01 C 470.85 108.02 470.16 109.58 470.23 111.19 C 467.80 111.64 466.02 110.27 464.66 108.43 Z" />
<path fill="#1b1b1e" opacity="1.00" d=" M 501.16 105.33 C 502.36 104.73 503.60 104.65 504.87 105.09 L 504.84 105.64 C 503.62 106.28 502.37 106.36 501.10 105.87 L 501.16 105.33 Z" />
<path fill="#2e3034" opacity="1.00" d=" M 527.74 105.86 C 529.30 105.48 530.90 105.32 532.50 105.09 C 533.54 106.82 534.25 108.72 534.50 110.73 C 533.21 113.30 529.93 112.34 527.64 112.23 C 527.53 110.11 527.50 107.98 527.74 105.86 Z" />
<path fill="#baadc7" opacity="1.00" d=" M 544.28 112.57 C 544.57 109.71 544.36 106.52 546.46 104.26 C 546.54 110.35 546.90 116.48 546.20 122.55 C 544.37 121.01 542.54 119.46 540.70 117.93 C 540.75 116.07 540.81 114.22 540.88 112.36 C 541.73 112.41 543.43 112.52 544.28 112.57 Z" />
<path fill="#293239" opacity="1.00" d=" M 470.23 111.19 C 470.16 109.58 470.85 108.02 472.11 107.01 C 472.48 108.51 472.28 111.24 470.23 111.19 Z" />
<path fill="#85679b" opacity="1.00" d=" M 517.24 106.80 C 517.99 106.89 519.49 107.09 520.24 107.18 C 520.46 109.11 519.27 110.13 517.52 110.63 C 517.45 109.35 517.36 108.07 517.24 106.80 Z" />
<path fill="#15121a" opacity="1.00" d=" M 509.05 110.37 C 510.33 110.59 510.58 111.36 509.80 112.66 C 508.51 112.43 508.26 111.67 509.05 110.37 Z" />
<path fill="#88689b" opacity="1.00" d=" M 501.16 118.26 C 498.47 118.03 498.79 114.58 501.42 114.61 C 502.28 115.74 501.92 117.19 501.16 118.26 Z" />
<path fill="#3b3257" opacity="1.00" d=" M 530.40 118.26 C 530.48 117.92 530.64 117.22 530.73 116.87 C 531.38 117.69 532.06 118.51 532.75 119.32 C 530.35 119.99 529.73 122.20 529.77 124.48 C 528.23 125.12 526.57 125.33 524.94 125.05 C 521.34 124.52 517.62 125.76 514.19 124.14 C 514.25 122.54 514.31 120.93 514.39 119.33 C 519.61 119.31 524.83 119.44 530.06 119.43 L 530.40 118.26 M 525.20 121.33 C 522.54 122.56 526.57 124.52 527.64 122.76 C 528.35 121.38 526.10 120.86 525.20 121.33 Z" />
<path fill="#55436f" opacity="1.00" d=" M 532.75 119.32 C 535.36 118.65 538.02 118.26 540.70 117.93 C 542.54 119.46 544.37 121.01 546.20 122.55 C 545.96 124.76 545.85 126.99 545.79 129.22 C 545.56 125.55 544.51 121.66 540.92 119.96 C 540.13 121.37 538.83 121.90 537.31 121.86 C 537.72 121.38 538.53 120.42 538.94 119.93 C 537.32 120.21 535.34 119.75 534.09 121.05 C 533.09 122.48 532.80 124.24 532.26 125.87 C 533.74 128.42 534.36 132.06 537.64 132.88 C 537.61 133.47 537.59 134.06 537.57 134.65 C 538.44 135.25 539.31 135.85 540.19 136.45 C 532.50 137.93 524.63 138.53 516.80 138.07 C 516.94 137.67 517.22 136.88 517.36 136.48 C 518.24 134.30 518.52 131.97 518.38 129.63 C 518.70 130.78 519.02 131.93 519.35 133.09 C 519.71 133.21 520.43 133.47 520.80 133.60 C 520.33 133.63 519.39 133.69 518.91 133.72 C 519.11 134.27 519.51 135.39 519.71 135.95 C 520.62 135.60 521.54 135.25 522.46 134.90 C 523.55 135.07 524.64 135.22 525.75 135.38 C 525.55 132.99 525.41 130.60 525.29 128.21 C 525.56 128.27 526.10 128.37 526.37 128.42 C 526.24 130.30 525.80 132.33 526.83 134.05 C 527.90 136.35 530.83 135.19 532.79 135.62 C 532.36 132.70 531.03 130.06 529.41 127.63 C 529.52 126.58 529.63 125.53 529.77 124.48 C 529.73 122.20 530.35 119.99 532.75 119.32 Z" />
<path fill="#676679" opacity="1.00" d=" M 501.80 119.09 C 505.45 118.68 509.15 118.57 512.80 119.12 C 512.69 123.34 512.26 127.58 512.85 131.80 C 512.78 131.98 512.64 132.35 512.57 132.53 C 508.92 132.97 505.24 132.81 501.58 132.81 L 501.46 132.14 C 502.35 127.82 502.02 123.44 501.80 119.09 Z" />
<path fill="#705f7e" opacity="1.00" d=" M 534.09 121.05 C 535.34 119.75 537.32 120.21 538.94 119.93 C 538.53 120.42 537.72 121.38 537.31 121.86 C 538.83 121.90 540.13 121.37 540.92 119.96 C 544.51 121.66 545.56 125.55 545.79 129.22 C 545.94 131.59 543.97 133.35 543.63 135.63 C 542.49 135.94 541.33 136.21 540.19 136.45 C 539.31 135.85 538.44 135.25 537.57 134.65 C 537.59 134.06 537.61 133.47 537.64 132.88 C 534.36 132.06 533.74 128.42 532.26 125.87 C 532.80 124.24 533.09 122.48 534.09 121.05 M 535.61 123.62 C 533.44 125.61 535.79 127.89 536.81 129.77 C 538.45 129.82 540.63 130.42 541.51 128.53 C 543.86 124.95 538.72 120.49 535.61 123.62 Z" />
<path fill="#424e54" opacity="1.00" d=" M 452.77 120.98 C 454.81 120.80 458.87 119.63 458.24 123.09 C 456.31 122.81 453.41 123.51 452.77 120.98 Z" />
<path fill="#3f4f57" opacity="1.00" d=" M 460.82 120.87 C 462.82 120.49 466.02 120.18 466.24 123.00 C 464.32 122.59 460.19 124.17 460.82 120.87 Z" />
<path fill="#202028" opacity="1.00" d=" M 525.20 121.33 C 526.10 120.86 528.35 121.38 527.64 122.76 C 526.57 124.52 522.54 122.56 525.20 121.33 Z" />
<path fill="#b08b8e" opacity="1.00" d=" M 535.61 123.62 C 538.72 120.49 543.86 124.95 541.51 128.53 C 540.63 130.42 538.45 129.82 536.81 129.77 C 535.79 127.89 533.44 125.61 535.61 123.62 Z" />
<path fill="#0e5261" opacity="1.00" d=" M 478.20 124.22 C 478.69 124.75 478.69 124.75 478.20 124.22 Z" />
<path fill="#afa2ba" opacity="1.00" d=" M 512.85 131.80 C 513.93 129.39 514.09 126.74 514.19 124.14 C 517.62 125.76 521.34 124.52 524.94 125.05 C 526.57 125.33 528.23 125.12 529.77 124.48 C 529.63 125.53 529.52 126.58 529.41 127.63 C 531.03 130.06 532.36 132.70 532.79 135.62 C 530.83 135.19 527.90 136.35 526.83 134.05 C 525.80 132.33 526.24 130.30 526.37 128.42 C 526.10 128.37 525.56 128.27 525.29 128.21 C 525.41 130.60 525.55 132.99 525.75 135.38 C 524.64 135.22 523.55 135.07 522.46 134.90 C 521.54 135.25 520.62 135.60 519.71 135.95 C 519.51 135.39 519.11 134.27 518.91 133.72 C 519.39 133.69 520.33 133.63 520.80 133.60 C 520.43 133.47 519.71 133.21 519.35 133.09 C 519.02 131.93 518.70 130.78 518.38 129.63 C 518.52 131.97 518.24 134.30 517.36 136.48 C 512.20 136.20 507.06 135.55 502.01 134.48 L 501.58 132.81 C 505.24 132.81 508.92 132.97 512.57 132.53 C 512.64 132.35 512.78 131.98 512.85 131.80 M 520.01 129.29 C 518.48 132.29 523.33 129.43 520.01 129.29 Z" />
<path fill="#115665" opacity="1.00" d=" M 478.19 127.18 C 478.72 127.66 478.72 127.66 478.19 127.18 Z" />
<path fill="#8a7895" opacity="1.00" d=" M 520.01 129.29 C 523.33 129.43 518.48 132.29 520.01 129.29 Z" />
<path fill="#000000" opacity="0.60" d=" M 496.50 131.76 C 497.56 133.39 498.72 135.27 500.82 135.63 C 506.07 136.86 511.45 137.49 516.80 138.07 C 524.63 138.53 532.50 137.93 540.19 136.45 C 541.33 136.21 542.49 135.94 543.63 135.63 C 545.57 135.11 546.91 133.64 547.83 131.93 C 547.95 135.16 545.13 137.51 542.11 137.85 C 528.65 140.69 514.56 140.41 501.13 137.52 C 498.30 137.11 496.47 134.52 496.50 131.76 Z" />
<path fill="#ffffff" opacity="1.00" d=" M 21.67 297.50 C 25.20 290.44 35.75 289.92 41.45 294.55 C 45.13 297.54 44.62 302.73 44.80 306.97 C 41.35 307.02 37.89 307.04 34.44 306.91 C 34.47 304.29 34.70 301.63 34.16 299.05 C 33.45 297.83 31.06 298.19 31.18 299.79 C 30.83 307.89 30.97 316.03 31.11 324.14 C 31.01 325.86 32.56 326.76 34.04 325.79 C 35.27 322.96 34.58 319.73 34.74 316.73 C 34.21 316.74 33.15 316.75 32.63 316.75 C 32.62 314.75 32.62 312.75 32.62 310.75 C 36.67 310.75 40.72 310.73 44.76 310.78 C 44.73 317.85 44.75 324.92 44.76 332.00 C 42.55 332.00 40.34 331.99 38.14 331.96 C 37.93 331.07 37.72 330.19 37.51 329.31 C 33.57 335.39 23.66 333.04 21.54 326.59 C 20.28 322.18 20.89 317.53 20.75 313.01 C 20.90 307.85 20.24 302.53 21.67 297.50 Z" />
<path fill="#ffffff" opacity="1.00" d=" M 96.51 292.63 C 101.48 290.82 108.06 291.16 111.71 295.42 C 114.71 298.88 113.93 303.76 114.13 307.99 C 113.92 313.98 114.65 320.09 113.43 326.00 C 111.18 332.87 102.21 334.29 96.26 331.75 C 92.82 330.35 90.50 326.79 90.44 323.10 C 90.12 316.07 90.17 309.02 90.40 301.99 C 90.30 297.99 92.73 294.06 96.51 292.63 M 101.54 298.51 C 99.99 299.26 100.77 301.57 100.49 302.98 C 100.65 310.27 100.20 317.60 100.73 324.88 C 100.31 326.73 103.59 326.49 103.60 325.00 C 104.21 317.35 103.73 309.63 103.87 301.96 C 103.98 300.48 103.76 297.57 101.54 298.51 Z" />
<path fill="#ffff00" opacity="1.00" d=" M 150.44 300.95 C 150.58 296.78 153.86 293.20 157.83 292.21 C 162.97 290.85 169.54 291.59 172.82 296.23 C 175.06 300.29 174.34 305.16 174.51 309.62 C 171.09 309.62 167.67 309.62 164.25 309.63 C 164.27 305.95 164.30 302.27 164.05 298.61 C 163.24 298.60 161.62 298.59 160.81 298.58 C 160.23 307.00 160.51 315.47 160.60 323.90 C 159.95 326.06 163.40 327.15 163.97 325.02 C 164.46 322.08 164.21 319.09 164.24 316.13 C 167.68 316.11 171.12 316.10 174.55 316.16 C 174.33 320.10 174.86 324.40 172.88 327.99 C 168.82 333.75 160.03 334.24 154.33 330.77 C 150.69 328.52 150.43 323.86 150.28 320.02 C 150.30 313.67 150.06 307.30 150.44 300.95 Z" />
<path fill="#ffff00" opacity="1.00" d=" M 184.38 292.49 C 190.37 290.27 199.13 291.96 201.05 298.88 C 202.09 304.85 201.44 310.97 201.63 317.00 C 201.53 321.51 202.06 327.04 198.11 330.20 C 192.09 335.04 180.28 333.59 178.24 325.24 C 177.35 317.54 177.77 309.74 177.90 302.01 C 177.78 297.86 180.41 293.81 184.38 292.49 M 188.34 299.11 C 187.64 307.41 188.05 315.82 188.12 324.15 C 187.48 326.83 191.97 326.70 191.26 323.96 C 191.34 315.55 191.72 307.08 191.04 298.70 C 190.53 298.62 189.52 298.46 189.01 298.38 L 188.34 299.11 Z" />
<path fill="#ffff00" opacity="1.00" d=" M 249.52 292.62 C 253.25 291.20 257.56 291.25 261.25 292.80 C 264.82 294.30 267.06 298.12 266.98 301.95 C 267.20 308.98 267.26 316.03 266.93 323.05 C 266.96 327.62 263.38 331.63 258.96 332.48 C 253.35 333.88 245.81 332.09 243.93 325.94 C 242.63 319.06 243.49 311.97 243.27 305.01 C 242.89 300.15 244.45 294.42 249.52 292.62 M 254.52 298.47 C 253.06 299.43 253.71 301.55 253.49 303.03 C 253.66 310.31 253.19 317.63 253.73 324.90 C 253.42 326.67 256.89 326.61 256.63 324.79 C 257.18 317.22 256.74 309.59 256.87 302.00 C 256.95 300.47 256.81 297.62 254.52 298.47 Z" />
<path fill="#ffffff" opacity="1.00" d=" M 63.00 292.50 C 69.16 292.78 75.55 291.71 81.53 293.56 C 86.54 295.82 86.75 302.34 85.89 307.01 C 85.54 309.09 83.30 309.74 81.62 310.41 C 83.59 311.49 86.06 312.56 86.54 315.03 C 87.29 318.67 87.10 322.46 86.77 326.15 C 86.60 328.78 84.74 331.35 81.98 331.59 C 75.69 332.38 69.32 331.84 63.00 332.00 C 63.00 318.83 63.00 305.67 63.00 292.50 M 73.31 299.03 C 73.23 302.07 73.24 305.12 73.26 308.16 C 74.33 307.77 76.35 308.22 76.52 306.64 C 76.96 303.77 77.63 298.78 73.31 299.03 M 73.29 313.94 C 73.23 317.79 73.19 321.64 73.34 325.49 C 74.66 325.03 76.80 325.01 76.65 323.07 C 76.79 320.31 77.04 317.45 76.33 314.75 C 75.33 314.42 74.32 314.15 73.29 313.94 Z" />
<path fill="#ffffff" opacity="1.00" d=" M 115.62 292.50 C 118.79 292.49 121.95 292.49 125.12 292.52 C 125.98 297.67 126.88 302.80 127.55 307.98 C 128.45 302.81 129.35 297.63 130.42 292.50 C 133.57 292.50 136.72 292.50 139.87 292.49 C 137.48 300.70 134.94 308.88 132.59 317.10 C 132.09 322.04 132.51 327.04 132.37 332.00 C 129.21 332.00 126.04 332.00 122.88 332.00 C 122.55 325.69 123.83 319.13 121.55 313.07 C 119.55 306.22 117.60 299.35 115.62 292.50 Z" />
<path fill="#ffff00" opacity="1.00" d=" M 205.53 332.01 C 205.46 318.84 205.51 305.67 205.50 292.50 C 208.88 292.50 212.27 292.52 215.66 292.44 C 215.87 303.00 215.69 313.56 215.75 324.12 C 217.83 324.12 219.91 324.12 222.00 324.12 C 222.00 326.74 222.00 329.37 222.00 332.00 C 216.51 332.00 211.02 331.99 205.53 332.01 Z" />
<path fill="#ffff00" opacity="1.00" d=" M 224.45 331.92 C 224.57 318.78 224.45 305.64 224.51 292.50 C 227.93 292.49 231.36 292.48 234.78 292.55 C 234.71 303.07 234.77 313.60 234.75 324.12 C 236.83 324.12 238.91 324.12 240.99 324.12 C 241.00 326.74 241.00 329.37 241.00 332.00 C 235.48 331.96 229.96 332.08 224.45 331.92 Z" />
<path fill="#ffff00" opacity="1.00" d=" M 271.00 292.50 C 277.13 292.71 283.43 291.88 289.42 293.45 C 294.54 295.79 294.35 302.44 293.70 307.16 C 293.59 309.79 291.06 310.91 288.88 311.54 C 291.08 312.03 293.28 313.42 293.74 315.78 C 294.30 321.16 293.87 326.59 294.00 332.00 C 290.81 332.02 287.63 332.02 284.44 331.92 C 284.42 326.58 284.74 321.23 284.30 315.92 C 284.49 314.20 282.31 314.42 281.30 313.88 C 281.19 319.92 281.28 325.96 281.25 332.00 C 277.83 332.00 274.41 332.00 271.00 332.00 C 271.00 318.83 271.00 305.67 271.00 292.50 M 281.31 299.01 C 281.23 302.05 281.24 305.10 281.25 308.15 C 282.29 307.75 284.14 308.07 284.31 306.56 C 284.67 303.75 285.46 299.02 281.31 299.01 Z" />
<path fill="#ffffff" opacity="1.00" d=" M 47.38 312.50 C 51.71 312.50 56.04 312.50 60.38 312.50 C 60.38 314.75 60.38 317.00 60.38 319.25 C 56.04 319.25 51.71 319.25 47.38 319.25 C 47.38 317.00 47.38 314.75 47.38 312.50 Z" />
</svg>
