<?xml version="1.0" encoding="UTF-8" ?>
<!DOCTYPE svg PUBLIC "-//W3C//DTD SVG 1.1//EN" "http://www.w3.org/Graphics/SVG/1.1/DTD/svg11.dtd">
<svg width="960pt" height="540pt" viewBox="0 0 960 540" version="1.1" xmlns="http://www.w3.org/2000/svg">
<path fill="#646462" opacity="1.00" d=" M 456.52 58.67 C 464.33 52.04 472.87 46.24 481.11 40.17 C 487.99 41.25 494.84 42.67 501.68 44.05 C 499.73 46.04 497.59 47.84 495.30 49.43 C 496.62 49.72 497.92 50.02 499.25 50.33 C 498.58 51.56 498.36 53.26 497.00 53.95 C 493.93 53.65 491.04 52.36 487.95 52.30 C 485.06 52.53 482.34 53.59 479.58 54.37 C 479.52 54.91 479.38 56.01 479.32 56.56 C 476.71 55.12 475.55 52.45 475.49 49.55 C 475.26 50.84 475.03 52.13 474.80 53.42 C 473.56 53.84 471.63 53.61 471.20 55.18 C 470.73 59.72 473.31 64.05 477.28 66.22 C 471.23 64.79 466.00 61.04 459.84 59.96 C 457.15 59.71 454.45 59.88 451.76 59.89 C 453.34 59.45 454.94 59.10 456.52 58.67 M 480.33 42.16 C 477.35 43.71 481.36 45.06 482.50 43.19 C 483.86 41.73 481.10 41.28 480.33 42.16 M 461.75 57.96 C 464.14 58.64 466.56 59.22 469.00 59.75 C 469.23 57.44 467.30 55.99 465.89 54.51 C 464.37 55.49 463.00 56.67 461.75 57.96 Z" />
<path fill="#474746" opacity="1.00" d=" M 480.33 42.16 C 481.10 41.28 483.86 41.73 482.50 43.19 C 481.36 45.06 477.35 43.71 480.33 42.16 Z" />
<path fill="#5b5b5a" opacity="1.00" d=" M 501.68 44.05 C 510.30 46.00 518.59 49.10 527.16 51.25 C 525.99 53.34 525.21 55.62 525.09 58.03 C 527.48 56.72 529.46 54.81 530.92 52.50 C 531.59 52.71 532.93 53.13 533.60 53.33 C 525.85 59.51 518.92 66.64 511.78 73.50 C 511.30 73.67 510.35 74.03 509.87 74.21 C 505.17 72.76 500.37 71.68 495.64 70.37 C 497.17 69.79 498.71 69.21 500.26 68.69 C 500.57 68.64 501.18 68.54 501.48 68.49 C 504.14 69.26 506.72 70.85 509.56 70.73 C 511.02 69.75 512.17 68.40 513.38 67.15 C 512.45 67.06 510.60 66.87 509.67 66.78 C 514.61 63.16 519.67 59.58 523.66 54.87 C 522.45 53.67 521.10 52.64 519.68 51.71 C 518.92 51.19 518.17 50.66 517.44 50.12 C 514.84 54.83 510.42 59.06 504.91 59.84 C 496.34 61.16 487.10 60.75 479.32 56.56 C 479.38 56.01 479.52 54.91 479.58 54.37 C 482.34 53.59 485.06 52.53 487.95 52.30 C 491.04 52.36 493.93 53.65 497.00 53.95 C 498.36 53.26 498.58 51.56 499.25 50.33 C 497.92 50.02 496.62 49.72 495.30 49.43 C 497.59 47.84 499.73 46.04 501.68 44.05 Z" />
<path fill="#3d3b3b" opacity="1.00" d=" M 474.80 53.42 C 475.03 52.13 475.26 50.84 475.49 49.55 C 475.55 52.45 476.71 55.12 479.32 56.56 C 487.10 60.75 496.34 61.16 504.91 59.84 C 510.42 59.06 514.84 54.83 517.44 50.12 C 518.17 50.66 518.92 51.19 519.68 51.71 C 516.74 55.82 512.53 58.68 508.43 61.50 C 505.30 61.08 502.14 61.28 499.07 61.97 C 499.13 63.82 499.19 65.68 499.26 67.53 C 497.02 68.02 494.71 68.05 492.44 67.93 C 492.78 65.94 493.17 63.95 493.54 61.97 C 489.86 61.13 486.11 59.73 482.31 60.45 C 481.27 62.05 480.81 63.92 480.22 65.70 C 482.38 66.42 484.54 67.18 486.75 67.79 C 491.12 69.13 495.76 68.57 500.26 68.69 C 498.71 69.21 497.17 69.79 495.64 70.37 C 500.37 71.68 505.17 72.76 509.87 74.21 C 509.84 76.16 509.94 78.12 510.03 80.07 C 510.49 79.78 511.42 79.20 511.89 78.91 C 511.85 77.11 511.81 75.30 511.78 73.50 C 518.92 66.64 525.85 59.51 533.60 53.33 C 533.87 57.31 533.87 61.30 533.57 65.28 C 529.80 66.82 528.45 71.72 524.12 72.25 C 529.85 74.78 536.05 75.87 541.95 77.92 L 541.60 79.45 C 539.08 78.68 536.55 77.96 534.02 77.25 C 531.85 78.40 529.70 79.59 527.59 80.84 C 523.44 80.22 519.00 79.04 514.96 80.71 C 506.42 85.34 498.09 90.35 489.58 95.05 C 491.69 97.24 493.75 99.48 495.81 101.72 C 493.79 103.17 491.82 104.69 489.93 106.29 C 490.78 107.32 491.63 108.36 492.48 109.41 L 491.03 109.09 C 489.69 108.13 488.78 106.76 487.98 105.37 C 486.04 104.42 484.06 103.53 482.09 102.67 C 480.88 102.10 479.70 101.49 478.53 100.88 C 478.33 104.78 480.13 110.51 475.95 112.76 C 475.34 107.89 475.70 102.97 475.83 98.09 C 484.36 93.59 492.73 88.78 501.47 84.70 C 502.33 84.19 503.18 83.66 504.04 83.14 C 499.18 82.01 494.69 79.71 489.81 78.70 C 490.59 77.77 491.36 76.84 492.14 75.91 C 489.72 74.76 487.15 74.00 484.48 73.77 C 485.34 74.94 486.18 76.13 486.99 77.34 C 486.24 77.23 484.72 77.02 483.96 76.92 C 483.29 76.75 481.95 76.40 481.28 76.23 C 481.58 74.83 481.97 73.45 482.48 72.10 C 480.13 71.00 477.73 69.75 475.07 69.71 C 473.47 70.22 472.55 71.82 471.36 72.89 C 470.80 72.36 470.25 71.84 469.71 71.32 C 469.15 71.49 468.03 71.83 467.47 72.00 C 466.11 67.34 463.53 63.13 459.84 59.96 C 466.00 61.04 471.23 64.79 477.28 66.22 C 473.31 64.05 470.73 59.72 471.20 55.18 C 471.63 53.61 473.56 53.84 474.80 53.42 M 481.42 101.02 C 483.58 100.58 488.13 102.41 488.20 99.01 C 485.89 99.07 481.97 97.74 481.42 101.02 Z" />
<path fill="#464645" opacity="0.94" d=" M 527.16 51.25 C 528.46 51.60 529.75 51.95 531.06 52.31 L 530.92 52.50 C 529.46 54.81 527.48 56.72 525.09 58.03 C 525.21 55.62 525.99 53.34 527.16 51.25 Z" />
<path fill="#272526" opacity="1.00" d=" M 519.68 51.71 C 521.10 52.64 522.45 53.67 523.66 54.87 C 519.67 59.58 514.61 63.16 509.67 66.78 C 506.86 66.94 504.16 67.72 501.48 68.49 C 501.18 68.54 500.57 68.64 500.26 68.69 C 495.76 68.57 491.12 69.13 486.75 67.79 C 488.64 67.84 490.54 67.86 492.44 67.93 C 494.71 68.05 497.02 68.02 499.26 67.53 C 502.40 66.90 505.54 66.24 508.69 65.61 C 508.60 64.24 508.50 62.87 508.43 61.50 C 512.53 58.68 516.74 55.82 519.68 51.71 Z" />
<path fill="#acacaa" opacity="1.00" d=" M 461.75 57.96 C 463.00 56.67 464.37 55.49 465.89 54.51 C 467.30 55.99 469.23 57.44 469.00 59.75 C 466.56 59.22 464.14 58.64 461.75 57.96 Z" />
<path fill="#201f1f" opacity="1.00" d=" M 443.96 63.47 C 446.48 62.16 449.07 60.83 451.76 59.89 C 454.45 59.88 457.15 59.71 459.84 59.96 C 463.53 63.13 466.11 67.34 467.47 72.00 C 468.03 71.83 469.15 71.49 469.71 71.32 C 470.25 71.84 470.80 72.36 471.36 72.89 C 472.55 71.82 473.47 70.22 475.07 69.71 C 477.73 69.75 480.13 71.00 482.48 72.10 C 481.97 73.45 481.58 74.83 481.28 76.23 C 476.24 76.65 471.45 78.39 467.21 81.12 C 462.79 83.84 457.55 84.49 452.45 84.57 C 451.51 82.91 451.01 81.06 450.35 79.29 C 447.45 80.14 444.68 81.62 441.59 81.61 C 441.48 82.21 441.40 82.81 441.32 83.42 C 438.18 83.46 434.53 84.25 431.99 81.88 C 427.52 78.99 426.87 72.50 428.99 68.01 C 430.94 64.38 435.35 64.32 438.91 63.74 C 440.25 63.41 441.55 63.52 442.80 64.09 C 442.92 64.86 442.83 65.61 442.53 66.35 C 442.98 66.81 443.88 67.74 444.32 68.21 C 443.90 68.30 443.05 68.49 442.62 68.59 C 442.18 68.77 441.29 69.14 440.85 69.33 C 440.53 68.86 439.90 67.94 439.59 67.48 C 439.58 67.47 439.56 67.44 439.55 67.42 L 439.42 67.57 C 437.05 69.22 434.58 70.70 432.36 72.55 C 432.63 71.64 433.17 69.82 433.44 68.91 C 432.18 69.39 430.97 69.33 429.94 68.45 C 429.53 70.63 429.00 72.81 428.87 75.03 C 429.25 76.74 430.49 78.07 431.49 79.44 C 432.40 79.15 433.27 78.79 434.18 78.46 C 439.57 81.22 444.79 76.87 450.17 76.23 C 453.74 75.43 457.45 75.18 460.95 74.04 C 464.34 72.34 464.11 67.96 461.99 65.33 C 461.67 65.53 461.02 65.92 460.70 66.12 C 459.68 65.10 458.67 64.07 457.61 63.10 C 457.28 62.83 456.63 62.30 456.31 62.03 C 455.00 60.22 452.18 61.73 453.13 63.81 C 451.25 63.34 449.35 63.71 447.89 65.01 C 446.52 64.63 445.21 64.10 443.96 63.47 M 435.10 66.21 C 433.56 69.25 438.35 66.42 435.10 66.21 M 464.85 73.39 C 463.90 74.88 462.77 76.23 461.50 77.44 C 460.32 77.53 459.16 77.64 457.99 77.78 C 456.55 78.36 455.03 78.56 453.50 78.64 C 453.43 80.00 453.37 81.36 453.32 82.72 C 456.50 83.08 459.77 82.96 462.78 81.78 C 466.73 80.50 471.20 78.21 472.04 73.71 C 469.64 73.55 467.24 73.45 464.85 73.39 Z" />
<path fill="#777776" opacity="1.00" d=" M 482.31 60.45 C 486.11 59.73 489.86 61.13 493.54 61.97 C 493.17 63.95 492.78 65.94 492.44 67.93 C 490.54 67.86 488.64 67.84 486.75 67.79 C 484.54 67.18 482.38 66.42 480.22 65.70 C 480.81 63.92 481.27 62.05 482.31 60.45 M 484.18 62.35 C 483.08 63.08 483.95 65.84 485.20 64.31 C 486.19 63.56 485.49 61.00 484.18 62.35 Z" />
<path fill="#546b95" opacity="1.00" d=" M 453.13 63.81 C 452.18 61.73 455.00 60.22 456.31 62.03 C 456.38 63.76 454.47 64.28 453.13 63.81 Z" />
<path fill="#5e5f5d" opacity="1.00" d=" M 499.07 61.97 C 502.14 61.28 505.30 61.08 508.43 61.50 C 508.50 62.87 508.60 64.24 508.69 65.61 C 505.54 66.24 502.40 66.90 499.26 67.53 C 499.19 65.68 499.13 63.82 499.07 61.97 Z" />
<path fill="#3a3a3a" opacity="1.00" d=" M 456.31 62.03 C 456.63 62.30 457.28 62.83 457.61 63.10 C 457.43 63.57 457.06 64.52 456.88 65.00 C 456.59 65.51 456.01 66.55 455.72 67.06 C 454.81 66.46 453.91 65.85 453.02 65.25 C 451.81 63.81 449.80 65.14 450.08 66.79 C 448.60 69.87 444.58 71.85 446.10 75.76 C 447.45 75.94 448.81 76.09 450.17 76.23 C 444.79 76.87 439.57 81.22 434.18 78.46 C 433.27 78.79 432.40 79.15 431.49 79.44 C 431.53 77.15 431.54 74.81 432.34 72.62 L 432.53 72.75 C 433.50 73.62 434.43 74.53 435.33 75.48 L 435.42 75.57 L 435.57 75.52 L 435.75 75.45 C 436.59 75.36 438.27 75.18 439.11 75.09 C 437.67 77.18 441.21 77.09 439.96 75.00 C 440.26 74.76 440.85 74.29 441.15 74.06 C 442.71 74.45 443.10 73.95 442.32 72.57 C 442.34 72.29 442.38 71.74 442.39 71.46 C 442.45 70.74 442.56 69.31 442.62 68.59 C 443.05 68.49 443.90 68.30 444.32 68.21 C 444.55 68.18 445.00 68.13 445.23 68.10 C 445.59 68.07 446.31 67.99 446.67 67.95 C 446.57 67.51 446.37 66.62 446.27 66.18 C 446.67 65.89 447.48 65.30 447.89 65.01 C 449.35 63.71 451.25 63.34 453.13 63.81 C 454.47 64.28 456.38 63.76 456.31 62.03 Z" />
<path fill="#3d3c3c" opacity="1.00" d=" M 484.18 62.35 C 485.49 61.00 486.19 63.56 485.20 64.31 C 483.95 65.84 483.08 63.08 484.18 62.35 Z" />
<path fill="#777776" opacity="1.00" d=" M 438.91 63.74 C 440.54 63.17 442.26 63.12 443.96 63.47 C 445.21 64.10 446.52 64.63 447.89 65.01 C 447.48 65.30 446.67 65.89 446.27 66.18 C 446.37 66.62 446.57 67.51 446.67 67.95 C 446.31 67.99 445.59 68.07 445.23 68.10 C 445.00 68.13 444.55 68.18 444.32 68.21 C 443.88 67.74 442.98 66.81 442.53 66.35 C 442.83 65.61 442.92 64.86 442.80 64.09 C 441.55 63.52 440.25 63.41 438.91 63.74 Z" />
<path fill="#a79751" opacity="1.00" d=" M 456.88 65.00 C 457.06 64.52 457.43 63.57 457.61 63.10 C 458.67 64.07 459.68 65.10 460.70 66.12 C 459.51 66.72 458.26 67.10 456.95 67.24 C 456.93 66.68 456.90 65.56 456.88 65.00 Z" />
<path fill="#68a471" opacity="1.00" d=" M 450.08 66.79 C 449.80 65.14 451.81 63.81 453.02 65.25 C 453.78 67.06 451.22 67.77 450.08 66.79 Z" />
<path fill="#484747" opacity="1.00" d=" M 453.02 65.25 C 453.91 65.85 454.81 66.46 455.72 67.06 C 456.01 66.55 456.59 65.51 456.88 65.00 C 456.90 65.56 456.93 66.68 456.95 67.24 C 458.26 67.10 459.51 66.72 460.70 66.12 C 461.02 65.92 461.67 65.53 461.99 65.33 C 464.11 67.96 464.34 72.34 460.95 74.04 C 457.45 75.18 453.74 75.43 450.17 76.23 C 448.81 76.09 447.45 75.94 446.10 75.76 C 444.58 71.85 448.60 69.87 450.08 66.79 C 451.22 67.77 453.78 67.06 453.02 65.25 M 454.22 68.12 C 453.09 69.60 455.67 71.13 456.69 69.76 C 457.80 68.29 455.20 66.72 454.22 68.12 Z" />
<path fill="#6f6f6e" opacity="1.00" d=" M 435.10 66.21 C 438.35 66.42 433.56 69.25 435.10 66.21 Z" />
<path fill="#7d7c7b" opacity="1.00" d=" M 439.55 67.42 C 439.56 67.44 439.58 67.47 439.59 67.48 L 439.42 67.57 L 439.55 67.42 Z" />
<path fill="#aaaaa9" opacity="1.00" d=" M 501.48 68.49 C 504.16 67.72 506.86 66.94 509.67 66.78 C 510.60 66.87 512.45 67.06 513.38 67.15 C 512.17 68.40 511.02 69.75 509.56 70.73 C 506.72 70.85 504.14 69.26 501.48 68.49 Z" />
<path fill="#70706e" opacity="1.00" d=" M 429.94 68.45 C 430.97 69.33 432.18 69.39 433.44 68.91 C 433.17 69.82 432.63 71.64 432.36 72.55 C 432.35 72.56 432.35 72.60 432.34 72.62 C 431.54 74.81 431.53 77.15 431.49 79.44 C 430.49 78.07 429.25 76.74 428.87 75.03 C 429.00 72.81 429.53 70.63 429.94 68.45 Z" />
<path fill="#31302f" opacity="1.00" d=" M 432.36 72.55 C 434.58 70.70 437.05 69.22 439.42 67.57 L 439.59 67.48 C 439.90 67.94 440.53 68.86 440.85 69.33 C 441.23 69.86 442.01 70.93 442.39 71.46 C 442.38 71.74 442.34 72.29 442.32 72.57 C 442.03 72.94 441.44 73.69 441.15 74.06 C 440.85 74.29 440.26 74.76 439.96 75.00 L 439.11 75.09 C 438.27 75.18 436.59 75.36 435.75 75.45 L 435.33 75.48 C 434.43 74.53 433.50 73.62 432.53 72.75 L 432.36 72.55 Z" />
<path fill="#b97059" opacity="1.00" d=" M 454.22 68.12 C 455.20 66.72 457.80 68.29 456.69 69.76 C 455.67 71.13 453.09 69.60 454.22 68.12 Z" />
<path fill="#515050" opacity="1.00" d=" M 440.85 69.33 C 441.29 69.14 442.18 68.77 442.62 68.59 C 442.56 69.31 442.45 70.74 442.39 71.46 C 442.01 70.93 441.23 69.86 440.85 69.33 Z" />
<path fill="#abacab" opacity="1.00" d=" M 432.34 72.62 C 432.35 72.60 432.35 72.56 432.36 72.55 L 432.53 72.75 L 432.34 72.62 Z" />
<path fill="#6b6a69" opacity="1.00" d=" M 441.15 74.06 C 441.44 73.69 442.03 72.94 442.32 72.57 C 443.10 73.95 442.71 74.45 441.15 74.06 Z" />
<path fill="#171616" opacity="0.96" d=" M 484.48 73.77 C 487.15 74.00 489.72 74.76 492.14 75.91 C 491.36 76.84 490.59 77.77 489.81 78.70 C 487.82 78.20 485.89 77.55 483.96 76.92 C 484.72 77.02 486.24 77.23 486.99 77.34 C 486.18 76.13 485.34 74.94 484.48 73.77 Z" />
<path fill="#201f20" opacity="1.00" d=" M 509.87 74.21 C 510.35 74.03 511.30 73.67 511.78 73.50 C 511.81 75.30 511.85 77.11 511.89 78.91 C 511.42 79.20 510.49 79.78 510.03 80.07 C 509.94 78.12 509.84 76.16 509.87 74.21 Z" />
<path fill="#999897" opacity="1.00" d=" M 435.33 75.48 L 435.75 75.45 L 435.57 75.52 L 435.42 75.57 L 435.33 75.48 Z" />
<path fill="#91918f" opacity="1.00" d=" M 439.11 75.09 L 439.96 75.00 C 441.21 77.09 437.67 77.18 439.11 75.09 Z" />
<path fill="#050404" opacity="0.46" d=" M 467.21 81.12 C 471.45 78.39 476.24 76.65 481.28 76.23 C 481.95 76.40 483.29 76.75 483.96 76.92 C 485.89 77.55 487.82 78.20 489.81 78.70 C 494.69 79.71 499.18 82.01 504.04 83.14 C 503.18 83.66 502.33 84.19 501.47 84.70 C 496.06 80.61 489.09 80.23 482.86 78.11 C 475.63 76.99 470.27 83.03 463.96 85.33 C 460.28 86.23 455.46 87.72 452.45 84.57 C 457.55 84.49 462.79 83.84 467.21 81.12 Z" />
<path fill="#1d1c1d" opacity="1.00" d=" M 527.59 80.84 C 529.70 79.59 531.85 78.40 534.02 77.25 C 536.55 77.96 539.08 78.68 541.60 79.45 C 550.51 82.31 559.50 85.00 568.18 88.49 C 566.17 89.66 564.23 91.04 562.01 91.78 C 552.25 89.63 543.55 83.98 533.65 82.23 C 531.62 81.78 529.61 81.27 527.59 80.84 Z" />
<path fill="#363334" opacity="1.00" d=" M 541.95 77.92 C 553.45 81.08 564.70 85.01 575.98 88.85 C 579.04 89.92 582.14 90.93 584.96 92.58 C 581.14 94.78 577.01 96.77 574.05 100.11 C 573.64 104.91 574.09 109.74 574.26 114.55 C 572.92 115.52 571.57 116.48 570.22 117.42 C 569.96 112.68 569.90 107.92 569.87 103.17 C 569.25 103.20 568.01 103.26 567.39 103.29 C 567.83 107.54 567.95 111.81 567.75 116.08 C 567.41 115.75 566.75 115.09 566.41 114.76 C 566.38 111.80 566.26 108.84 566.06 105.89 C 565.43 105.92 564.17 105.97 563.54 106.00 C 564.48 111.12 564.31 116.34 564.46 121.51 C 557.46 126.94 549.88 131.55 542.78 136.84 C 541.46 132.37 541.80 127.68 541.73 123.08 C 537.38 121.64 532.77 121.63 528.34 120.65 C 525.76 119.42 523.12 118.30 520.36 117.56 C 520.92 116.99 521.49 116.43 522.07 115.87 C 528.02 115.06 534.04 115.60 540.02 115.14 C 544.10 115.28 546.55 111.57 549.79 109.73 C 555.86 106.07 561.48 101.75 567.44 97.91 C 564.42 95.79 561.43 93.48 557.93 92.23 C 555.93 92.36 554.36 93.84 552.64 94.69 C 549.97 96.49 546.57 96.27 543.77 97.74 C 541.77 98.72 539.88 99.88 537.83 100.75 C 537.86 98.07 533.24 99.00 536.08 101.02 C 535.41 101.77 534.76 102.53 534.11 103.29 C 532.58 103.76 531.06 104.24 529.54 104.74 C 529.86 105.64 530.20 106.53 530.47 107.44 C 520.40 106.21 510.47 103.12 501.78 97.83 C 502.98 97.27 504.16 96.68 505.36 96.10 C 509.18 96.69 513.15 98.21 516.93 96.57 C 521.35 94.70 526.17 95.04 530.85 95.17 C 527.42 92.42 522.93 91.71 519.24 89.41 C 520.46 89.28 521.70 89.15 522.94 89.03 C 523.15 87.93 523.36 86.84 523.57 85.75 C 526.62 83.81 530.21 83.14 533.65 82.23 C 543.55 83.98 552.25 89.63 562.01 91.78 C 564.23 91.04 566.17 89.66 568.18 88.49 C 559.50 85.00 550.51 82.31 541.60 79.45 L 541.95 77.92 M 524.69 89.82 C 526.41 91.58 528.97 91.84 531.23 92.50 C 529.50 90.76 527.00 90.28 524.69 89.82 Z" />
<path fill="#4d4a4b" opacity="1.00" d=" M 514.96 80.71 C 519.00 79.04 523.44 80.22 527.59 80.84 C 529.61 81.27 531.62 81.78 533.65 82.23 C 530.21 83.14 526.62 83.81 523.57 85.75 C 523.36 86.84 523.15 87.93 522.94 89.03 C 521.70 89.15 520.46 89.28 519.24 89.41 C 522.93 91.71 527.42 92.42 530.85 95.17 C 526.17 95.04 521.35 94.70 516.93 96.57 C 513.15 98.21 509.18 96.69 505.36 96.10 C 502.83 95.71 500.30 95.38 497.75 95.21 C 505.13 89.67 513.96 86.43 521.36 80.95 C 519.22 80.81 517.09 80.69 514.96 80.71 Z" />
<path fill="#5c5a5b" opacity="1.00" d=" M 489.58 95.05 C 498.09 90.35 506.42 85.34 514.96 80.71 C 517.09 80.69 519.22 80.81 521.36 80.95 C 513.96 86.43 505.13 89.67 497.75 95.21 C 495.03 95.14 492.30 95.15 489.58 95.05 Z" />
<path fill="#aaaaa9" opacity="1.00" d=" M 524.69 89.82 C 527.00 90.28 529.50 90.76 531.23 92.50 C 528.97 91.84 526.41 91.58 524.69 89.82 Z" />
<path fill="#282526" opacity="1.00" d=" M 552.64 94.69 C 554.36 93.84 555.93 92.36 557.93 92.23 C 561.43 93.48 564.42 95.79 567.44 97.91 C 561.48 101.75 555.86 106.07 549.79 109.73 C 546.55 111.57 544.10 115.28 540.02 115.14 L 540.27 114.18 C 540.32 113.92 540.43 113.38 540.49 113.12 C 537.55 110.46 533.90 108.60 529.92 108.30 L 530.47 107.44 C 530.20 106.53 529.86 105.64 529.54 104.74 C 531.06 104.24 532.58 103.76 534.11 103.29 C 534.76 102.53 535.41 101.77 536.08 101.02 C 536.52 100.95 537.39 100.81 537.83 100.75 C 539.88 99.88 541.77 98.72 543.77 97.74 C 546.57 96.27 549.97 96.49 552.64 94.69 Z" />
<path fill="#2d2b2b" opacity="1.00" d=" M 584.96 92.58 C 585.97 97.26 585.14 102.07 585.63 106.80 C 581.78 109.29 577.96 111.83 574.26 114.55 C 574.09 109.74 573.64 104.91 574.05 100.11 C 577.01 96.77 581.14 94.78 584.96 92.58 Z" />
<path fill="#1e1c1d" opacity="1.00" d=" M 489.58 95.05 C 492.30 95.15 495.03 95.14 497.75 95.21 C 500.30 95.38 502.83 95.71 505.36 96.10 C 504.16 96.68 502.98 97.27 501.78 97.83 L 500.84 98.21 C 502.11 99.44 503.39 100.67 504.77 101.78 C 504.20 103.93 503.64 106.07 503.09 108.22 C 501.75 105.80 500.43 103.29 498.27 101.49 C 498.71 103.60 498.88 105.96 500.32 107.69 C 502.85 109.61 506.01 110.41 508.86 111.75 C 511.20 112.71 513.51 113.85 516.03 114.32 C 519.78 114.11 523.17 111.84 527.00 112.06 C 531.49 112.20 535.89 113.26 540.27 114.18 L 540.02 115.14 C 534.04 115.60 528.02 115.06 522.07 115.87 C 518.33 116.50 514.17 119.05 510.65 116.40 C 505.78 112.67 499.78 109.78 493.48 111.10 C 492.65 110.43 491.83 109.77 491.03 109.09 L 492.48 109.41 C 491.63 108.36 490.78 107.32 489.93 106.29 C 491.82 104.69 493.79 103.17 495.81 101.72 C 493.75 99.48 491.69 97.24 489.58 95.05 Z" />
<path fill="#161515" opacity="1.00" d=" M 500.84 98.21 L 501.78 97.83 C 510.47 103.12 520.40 106.21 530.47 107.44 L 529.92 108.30 C 524.43 107.98 518.94 107.33 513.66 105.77 C 510.57 104.72 507.61 103.35 504.77 101.78 C 503.39 100.67 502.11 99.44 500.84 98.21 Z" />
<path fill="#727271" opacity="1.00" d=" M 481.42 101.02 C 481.97 97.74 485.89 99.07 488.20 99.01 C 488.13 102.41 483.58 100.58 481.42 101.02 Z" />
<path fill="#5e5e5d" opacity="1.00" d=" M 536.08 101.02 C 533.24 99.00 537.86 98.07 537.83 100.75 C 537.39 100.81 536.52 100.95 536.08 101.02 Z" />
<path fill="#1c1a1b" opacity="1.00" d=" M 478.53 100.88 C 479.70 101.49 480.88 102.10 482.09 102.67 C 481.65 102.85 480.77 103.22 480.33 103.40 C 479.77 107.25 479.86 111.14 480.12 115.01 C 480.48 114.00 480.84 112.99 481.20 111.98 C 484.20 110.44 487.44 111.08 490.25 112.74 C 489.58 114.48 488.93 116.23 488.27 117.98 C 488.83 117.90 489.96 117.74 490.53 117.67 C 491.83 115.75 493.10 113.80 494.36 111.85 C 495.32 113.29 495.34 115.03 495.45 116.70 C 499.97 117.93 504.70 117.41 509.26 118.32 C 507.23 119.59 505.18 121.08 502.74 121.35 C 500.43 121.38 498.21 120.56 495.99 120.03 C 495.35 120.76 494.72 121.50 494.10 122.24 C 494.99 123.21 495.88 124.20 496.82 125.14 C 496.12 125.00 494.71 124.72 494.01 124.58 C 488.74 123.46 484.35 119.34 478.84 119.43 C 482.43 121.35 485.99 123.57 488.48 126.87 C 488.52 127.75 488.59 129.52 488.63 130.40 C 482.69 133.21 475.53 130.45 471.92 125.25 C 471.06 125.95 470.21 126.66 469.37 127.37 C 464.88 127.63 460.39 127.32 455.91 127.65 C 451.60 128.76 446.88 128.26 443.00 130.77 L 442.00 130.23 C 440.55 129.12 438.70 129.34 437.07 129.82 C 435.00 130.02 433.72 128.09 432.34 126.91 C 434.40 123.15 438.92 125.55 442.11 124.05 C 442.43 123.79 443.08 123.27 443.40 123.01 C 448.14 123.89 452.97 123.34 457.52 121.83 C 462.37 121.22 467.97 123.84 472.19 120.21 C 474.89 118.61 473.69 115.23 473.32 112.75 C 474.31 114.76 475.07 116.88 475.72 119.03 C 476.83 118.22 477.94 117.41 479.06 116.61 C 478.09 115.27 477.05 113.98 475.95 112.76 C 480.13 110.51 478.33 104.78 478.53 100.88 M 474.43 125.15 C 477.22 128.89 482.68 130.15 487.10 129.17 C 486.42 125.73 483.06 123.73 480.04 122.56 C 477.98 122.05 473.73 121.94 474.43 125.15 Z" />
<path fill="#2c292a" opacity="1.00" d=" M 498.27 101.49 C 500.43 103.29 501.75 105.80 503.09 108.22 C 503.64 106.07 504.20 103.93 504.77 101.78 C 507.61 103.35 510.57 104.72 513.66 105.77 C 513.49 107.17 513.68 108.69 513.07 110.00 C 511.72 110.71 510.27 111.20 508.86 111.75 C 506.01 110.41 502.85 109.61 500.32 107.69 C 498.88 105.96 498.71 103.60 498.27 101.49 Z" />
<path fill="#302d2e" opacity="1.00" d=" M 444.03 108.67 C 444.68 106.83 444.78 103.89 447.13 103.42 C 449.92 103.31 450.34 106.82 451.76 108.57 C 456.25 107.94 460.27 104.85 464.93 105.56 C 466.72 105.67 468.16 106.89 469.66 107.75 C 468.80 107.84 467.07 108.01 466.20 108.09 C 465.35 108.12 463.64 108.16 462.79 108.18 C 459.94 108.60 457.18 109.50 454.33 109.87 C 452.73 109.98 451.14 110.04 449.56 110.24 L 448.32 111.12 C 446.74 111.58 445.13 111.96 443.52 112.26 C 441.21 112.64 438.72 112.87 437.10 114.78 C 437.04 113.37 436.18 112.29 435.41 111.19 C 434.06 112.49 432.71 113.79 431.34 115.07 C 432.44 109.21 438.98 107.81 444.03 108.67 M 445.32 108.26 C 446.78 108.61 448.25 108.95 449.73 109.28 C 449.53 107.53 449.25 104.78 447.06 104.49 C 446.09 105.53 445.51 106.79 445.32 108.26 M 440.26 111.32 C 440.71 111.81 440.71 111.81 440.26 111.32 Z" />
<path fill="#070606" opacity="1.00" d=" M 480.33 103.40 C 480.77 103.22 481.65 102.85 482.09 102.67 C 484.06 103.53 486.04 104.42 487.98 105.37 C 488.78 106.76 489.69 108.13 491.03 109.09 C 491.83 109.77 492.65 110.43 493.48 111.10 L 494.36 111.85 C 493.10 113.80 491.83 115.75 490.53 117.67 C 489.96 117.74 488.83 117.90 488.27 117.98 C 488.93 116.23 489.58 114.48 490.25 112.74 C 487.44 111.08 484.20 110.44 481.20 111.98 C 480.84 112.99 480.48 114.00 480.12 115.01 C 479.86 111.14 479.77 107.25 480.33 103.40 Z" />
<path fill="#262324" opacity="1.00" d=" M 567.39 103.29 C 568.01 103.26 569.25 103.20 569.87 103.17 C 569.90 107.92 569.96 112.68 570.22 117.42 C 568.27 118.75 566.34 120.09 564.46 121.51 C 564.31 116.34 564.48 111.12 563.54 106.00 C 564.17 105.97 565.43 105.92 566.06 105.89 C 566.26 108.84 566.38 111.80 566.41 114.76 C 566.75 115.09 567.41 115.75 567.75 116.08 C 567.95 111.81 567.83 107.54 567.39 103.29 Z" />
<path fill="#070707" opacity="0.39" d=" M 445.32 108.26 C 445.51 106.79 446.09 105.53 447.06 104.49 C 449.25 104.78 449.53 107.53 449.73 109.28 C 448.25 108.95 446.78 108.61 445.32 108.26 Z" />
<path fill="#393637" opacity="1.00" d=" M 513.66 105.77 C 518.94 107.33 524.43 107.98 529.92 108.30 C 533.90 108.60 537.55 110.46 540.49 113.12 C 540.43 113.38 540.32 113.92 540.27 114.18 C 535.89 113.26 531.49 112.20 527.00 112.06 C 523.17 111.84 519.78 114.11 516.03 114.32 C 513.51 113.85 511.20 112.71 508.86 111.75 C 510.27 111.20 511.72 110.71 513.07 110.00 C 513.68 108.69 513.49 107.17 513.66 105.77 Z" />
<path fill="#030203" opacity="0.55" d=" M 574.26 114.55 C 577.96 111.83 581.78 109.29 585.63 106.80 C 585.61 107.34 585.56 108.42 585.54 108.96 C 575.73 116.04 565.81 122.97 556.04 130.09 C 550.51 133.35 545.77 137.84 539.95 140.61 C 537.89 141.78 535.55 140.70 533.43 140.34 C 522.70 137.36 512.57 132.64 502.16 128.77 C 499.49 127.32 496.01 127.00 494.01 124.58 C 494.71 124.72 496.12 125.00 496.82 125.14 C 507.01 129.56 517.43 133.38 527.80 137.36 C 532.19 138.73 537.49 141.14 541.54 137.69 C 541.85 137.48 542.47 137.05 542.78 136.84 C 549.88 131.55 557.46 126.94 564.46 121.51 C 566.34 120.09 568.27 118.75 570.22 117.42 C 571.57 116.48 572.92 115.52 574.26 114.55 Z" />
<path fill="#423f3f" opacity="1.00" d=" M 454.33 109.87 C 457.18 109.50 459.94 108.60 462.79 108.18 C 462.56 108.71 462.10 109.77 461.87 110.30 C 463.21 110.67 464.56 111.02 465.92 111.38 C 465.99 110.56 466.13 108.91 466.20 108.09 C 467.07 108.01 468.80 107.84 469.66 107.75 C 471.01 109.31 472.43 110.86 473.32 112.75 C 473.69 115.23 474.89 118.61 472.19 120.21 C 467.97 123.84 462.37 121.22 457.52 121.83 C 452.97 123.34 448.14 123.89 443.40 123.01 L 442.87 122.32 C 444.39 121.22 446.26 120.03 446.32 117.92 C 446.81 115.57 444.74 113.93 443.52 112.26 C 445.13 111.96 446.74 111.58 448.32 111.12 C 449.94 111.21 451.56 111.33 453.18 111.47 C 451.78 111.63 450.37 111.79 448.99 111.94 C 449.74 113.14 450.50 114.33 451.26 115.53 C 452.24 115.09 453.21 114.61 454.17 114.11 C 454.59 112.73 454.34 111.28 454.33 109.87 M 459.17 111.18 C 456.63 111.86 458.29 115.67 460.63 114.73 C 463.33 114.10 461.44 110.13 459.17 111.18 M 467.09 111.99 C 464.84 113.10 466.30 115.55 468.07 116.24 C 470.81 115.31 470.19 111.05 467.09 111.99 M 462.42 115.37 C 460.27 117.04 462.55 119.76 464.78 118.97 C 467.13 117.44 464.65 114.13 462.42 115.37 M 447.36 116.24 C 447.84 116.69 447.84 116.69 447.36 116.24 M 459.30 116.26 C 459.78 116.78 459.78 116.78 459.30 116.26 M 451.30 118.36 C 449.93 120.73 454.46 120.75 454.63 118.64 C 454.43 117.10 452.06 117.48 451.30 118.36 M 446.28 120.24 C 446.74 120.74 446.74 120.74 446.28 120.24 M 462.28 120.32 C 462.77 120.83 462.77 120.83 462.28 120.32 Z" />
<path fill="#167096" opacity="1.00" d=" M 462.79 108.18 C 463.64 108.16 465.35 108.12 466.20 108.09 C 466.13 108.91 465.99 110.56 465.92 111.38 C 464.56 111.02 463.21 110.67 461.87 110.30 C 462.10 109.77 462.56 108.71 462.79 108.18 Z" />
<path fill="#656464" opacity="1.00" d=" M 449.56 110.24 C 451.14 110.04 452.73 109.98 454.33 109.87 C 454.34 111.28 454.59 112.73 454.17 114.11 C 453.21 114.61 452.24 115.09 451.26 115.53 C 450.50 114.33 449.74 113.14 448.99 111.94 C 450.37 111.79 451.78 111.63 453.18 111.47 C 451.56 111.33 449.94 111.21 448.32 111.12 L 449.56 110.24 Z" />
<path fill="#504f4f" opacity="1.00" d=" M 435.41 111.19 C 436.18 112.29 437.04 113.37 437.10 114.78 L 436.58 115.98 C 436.46 116.26 436.21 116.82 436.08 117.10 C 435.82 117.63 435.31 118.68 435.05 119.21 C 434.20 120.26 433.34 121.31 432.46 122.33 C 432.06 120.03 431.72 117.72 431.39 115.42 L 431.34 115.07 C 432.71 113.79 434.06 112.49 435.41 111.19 Z" />
<path fill="#9c9b9b" opacity="1.00" d=" M 440.26 111.32 C 440.71 111.81 440.71 111.81 440.26 111.32 Z" />
<path fill="#189357" opacity="1.00" d=" M 459.17 111.18 C 461.44 110.13 463.33 114.10 460.63 114.73 C 458.29 115.67 456.63 111.86 459.17 111.18 Z" />
<path fill="#282526" opacity="1.00" d=" M 493.48 111.10 C 499.78 109.78 505.78 112.67 510.65 116.40 C 514.17 119.05 518.33 116.50 522.07 115.87 C 521.49 116.43 520.92 116.99 520.36 117.56 C 523.12 118.30 525.76 119.42 528.34 120.65 C 529.32 125.64 530.24 130.64 530.69 135.70 C 534.31 136.33 537.92 136.99 541.54 137.69 C 537.49 141.14 532.19 138.73 527.80 137.36 C 517.43 133.38 507.01 129.56 496.82 125.14 C 495.88 124.20 494.99 123.21 494.10 122.24 C 494.72 121.50 495.35 120.76 495.99 120.03 C 498.21 120.56 500.43 121.38 502.74 121.35 C 505.18 121.08 507.23 119.59 509.26 118.32 C 504.70 117.41 499.97 117.93 495.45 116.70 C 495.34 115.03 495.32 113.29 494.36 111.85 L 493.48 111.10 M 516.02 122.81 C 516.03 123.61 516.07 125.19 516.09 125.99 C 518.66 127.08 521.25 128.11 523.87 129.08 C 523.93 128.29 524.05 126.71 524.12 125.92 C 521.57 124.51 518.80 123.60 516.02 122.81 Z" />
<path fill="#c38938" opacity="1.00" d=" M 467.09 111.99 C 470.19 111.05 470.81 115.31 468.07 116.24 C 466.30 115.55 464.84 113.10 467.09 111.99 Z" />
<path fill="#100e0e" opacity="1.00" d=" M 437.10 114.78 C 438.72 112.87 441.21 112.64 443.52 112.26 C 444.74 113.93 446.81 115.57 446.32 117.92 C 446.26 120.03 444.39 121.22 442.87 122.32 L 442.09 122.35 C 441.22 122.18 439.46 121.84 438.58 121.67 C 438.51 121.62 438.37 121.52 438.31 121.47 C 437.32 119.79 436.80 117.90 436.58 115.98 L 437.10 114.78 M 438.59 115.97 C 437.75 118.62 441.14 118.63 442.81 118.65 C 442.92 116.62 440.21 113.51 438.59 115.97 M 443.18 116.33 C 441.52 119.28 446.50 116.56 443.18 116.33 Z" />
<path fill="#515050" opacity="1.00" d=" M 438.59 115.97 C 440.21 113.51 442.92 116.62 442.81 118.65 C 441.14 118.63 437.75 118.62 438.59 115.97 Z" />
<path fill="#b2454d" opacity="1.00" d=" M 462.42 115.37 C 464.65 114.13 467.13 117.44 464.78 118.97 C 462.55 119.76 460.27 117.04 462.42 115.37 Z" />
<path fill="#302d2e" opacity="1.00" d=" M 432.34 126.91 C 429.99 123.51 429.88 119.18 431.39 115.42 C 431.72 117.72 432.06 120.03 432.46 122.33 C 433.34 121.31 434.20 120.26 435.05 119.21 L 435.82 118.93 C 435.89 118.48 436.02 117.56 436.08 117.10 C 436.21 116.82 436.46 116.26 436.58 115.98 C 436.80 117.90 437.32 119.79 438.31 121.47 L 438.38 121.63 L 438.58 121.67 C 439.46 121.84 441.22 122.18 442.09 122.35 C 442.10 122.78 442.11 123.63 442.11 124.05 C 438.92 125.55 434.40 123.15 432.34 126.91 Z" />
<path fill="#5c5b5b" opacity="1.00" d=" M 443.18 116.33 C 446.50 116.56 441.52 119.28 443.18 116.33 Z" />
<path fill="#aeaeac" opacity="1.00" d=" M 447.36 116.24 C 447.84 116.69 447.84 116.69 447.36 116.24 Z" />
<path fill="#737170" opacity="1.00" d=" M 459.30 116.26 C 459.78 116.78 459.78 116.78 459.30 116.26 Z" />
<path fill="#888786" opacity="1.00" d=" M 435.05 119.21 C 435.31 118.68 435.82 117.63 436.08 117.10 C 436.02 117.56 435.89 118.48 435.82 118.93 L 435.05 119.21 Z" />
<path fill="#5e5d5d" opacity="1.00" d=" M 451.30 118.36 C 452.06 117.48 454.43 117.10 454.63 118.64 C 454.46 120.75 449.93 120.73 451.30 118.36 Z" />
<path fill="#949392" opacity="1.00" d=" M 446.28 120.24 C 446.74 120.74 446.74 120.74 446.28 120.24 Z" />
<path fill="#787776" opacity="1.00" d=" M 462.28 120.32 C 462.77 120.83 462.77 120.83 462.28 120.32 Z" />
<path fill="#686866" opacity="1.00" d=" M 438.31 121.47 C 438.37 121.52 438.51 121.62 438.58 121.67 L 438.38 121.63 L 438.31 121.47 Z" />
<path fill="#1c1a1b" opacity="1.00" d=" M 528.34 120.65 C 532.77 121.63 537.38 121.64 541.73 123.08 C 541.80 127.68 541.46 132.37 542.78 136.84 C 542.47 137.05 541.85 137.48 541.54 137.69 C 537.92 136.99 534.31 136.33 530.69 135.70 C 530.24 130.64 529.32 125.64 528.34 120.65 Z" />
<path fill="#7b7a79" opacity="1.00" d=" M 442.09 122.35 L 442.87 122.32 L 443.40 123.01 C 443.08 123.27 442.43 123.79 442.11 124.05 C 442.11 123.63 442.10 122.78 442.09 122.35 Z" />
<path fill="#111011" opacity="1.00" d=" M 516.02 122.81 C 518.80 123.60 521.57 124.51 524.12 125.92 C 524.05 126.71 523.93 128.29 523.87 129.08 C 521.25 128.11 518.66 127.08 516.09 125.99 C 516.07 125.19 516.03 123.61 516.02 122.81 Z" />
<path fill="#353333" opacity="0.98" d=" M 437.07 129.82 C 438.70 129.34 440.55 129.12 442.00 130.23 C 440.68 131.38 438.20 131.11 437.07 129.82 Z" />
<path fill="#ffffff" opacity="1.00" d=" M 17.25 292.49 C 23.45 292.49 29.65 292.51 35.86 292.48 C 35.88 295.12 35.88 297.75 35.85 300.39 C 34.15 300.38 32.45 300.37 30.75 300.37 C 30.76 310.91 30.73 321.45 30.76 331.98 C 27.92 332.00 25.08 332.00 22.24 331.99 C 22.26 321.45 22.25 310.92 22.25 300.38 C 20.58 300.37 18.92 300.37 17.26 300.38 C 17.25 297.75 17.25 295.12 17.25 292.49 Z" />
<path fill="#ffffff" opacity="1.00" d=" M 91.04 292.47 C 93.42 292.47 95.80 292.49 98.18 292.58 C 98.05 305.72 98.16 318.86 98.12 332.00 C 95.67 331.99 93.22 332.00 90.77 332.02 C 89.31 326.27 88.01 320.48 86.51 314.75 C 86.21 320.49 86.45 326.25 86.38 332.00 C 84.00 332.00 81.62 332.00 79.24 331.99 C 79.29 318.81 79.19 305.64 79.29 292.47 C 81.61 292.49 83.93 292.50 86.25 292.50 C 87.71 298.37 89.64 304.14 90.61 310.12 C 91.33 304.26 90.85 298.35 91.04 292.47 Z" />
<path fill="#ffffff" opacity="1.00" d=" M 102.46 296.96 C 104.99 290.74 114.24 289.83 118.51 294.67 C 121.59 297.95 120.96 302.86 121.15 307.00 C 118.31 307.00 115.47 307.00 112.62 307.00 C 112.53 304.30 112.93 301.53 112.26 298.89 C 111.08 297.14 109.53 299.64 110.04 300.95 C 110.17 309.14 109.54 317.43 110.38 325.56 C 110.81 325.79 111.66 326.24 112.09 326.46 C 113.24 323.36 112.82 320.02 112.88 316.79 C 112.46 316.76 111.63 316.70 111.22 316.67 C 111.24 314.69 111.25 312.72 111.26 310.75 C 114.55 310.75 117.84 310.75 121.12 310.75 C 121.13 317.83 121.13 324.92 121.12 332.00 C 119.33 332.00 117.55 332.00 115.76 332.00 C 115.48 331.10 115.20 330.22 114.93 329.33 C 113.95 330.79 112.85 332.44 110.97 332.75 C 106.77 333.64 102.84 330.07 102.03 326.11 C 101.08 321.13 101.65 316.03 101.50 311.00 C 101.62 306.32 101.06 301.48 102.46 296.96 Z" />
<path fill="#ffff00" opacity="1.00" d=" M 137.00 292.75 C 141.75 290.28 148.89 291.73 150.99 297.05 C 152.33 301.10 151.96 305.46 151.96 309.66 C 149.13 309.62 146.31 309.62 143.49 309.62 C 143.42 306.07 143.74 302.49 143.23 298.97 C 142.66 297.72 140.26 298.44 140.67 299.88 C 140.27 305.60 140.62 311.33 140.50 317.06 C 140.59 320.02 140.16 323.07 141.01 325.97 C 143.23 327.03 143.55 324.49 143.48 322.93 C 143.56 320.67 143.49 318.41 143.47 316.15 C 146.32 316.11 149.16 316.12 152.01 316.12 C 151.88 320.00 152.30 324.11 150.76 327.78 C 147.89 333.87 138.47 334.64 134.25 329.64 C 132.13 326.91 132.22 323.25 132.02 319.98 C 132.05 313.61 131.83 307.24 132.16 300.88 C 132.29 297.60 134.01 294.28 137.00 292.75 Z" />
<path fill="#ffff00" opacity="1.00" d=" M 160.36 292.52 C 165.89 289.76 173.64 293.06 174.27 299.53 C 174.81 307.97 174.86 316.50 174.27 324.94 C 173.73 330.93 166.92 334.39 161.51 332.41 C 157.46 331.29 155.15 327.05 155.15 323.04 C 154.89 316.02 154.93 308.98 155.12 301.96 C 155.10 298.21 156.77 294.13 160.36 292.52 M 163.89 298.81 C 163.00 306.50 163.74 314.33 163.49 322.08 C 163.63 323.63 163.13 327.49 165.77 325.73 C 166.41 316.82 166.24 307.79 165.86 298.87 L 164.90 298.23 L 163.89 298.81 Z" />
<path fill="#ffff00" opacity="1.00" d=" M 177.74 292.53 C 180.58 292.48 183.42 292.48 186.26 292.52 C 186.23 303.05 186.26 313.58 186.25 324.10 C 187.97 324.12 189.69 324.13 191.41 324.17 C 191.37 326.77 191.37 329.39 191.37 332.00 C 186.83 332.00 182.29 332.00 177.75 332.00 C 177.74 318.84 177.76 305.68 177.74 292.53 Z" />
<path fill="#ffff00" opacity="1.00" d=" M 231.64 292.50 C 235.70 292.49 239.76 292.51 243.82 292.48 C 245.51 305.65 247.11 318.83 248.75 332.00 C 245.84 332.00 242.93 332.00 240.03 332.00 C 239.87 329.62 239.72 327.25 239.58 324.87 C 238.82 324.87 237.31 324.87 236.55 324.87 C 236.40 327.25 236.25 329.62 236.10 332.00 C 233.15 332.00 230.20 332.00 227.26 332.00 C 228.71 318.83 230.19 305.67 231.64 292.50 M 237.37 303.95 C 237.58 308.62 236.76 313.24 236.44 317.89 C 237.40 317.85 238.37 317.81 239.34 317.78 C 238.78 312.28 238.32 306.77 238.55 301.24 C 237.69 301.88 237.17 302.85 237.37 303.95 Z" />
<path fill="#ffff00" opacity="1.00" d=" M 262.07 292.45 C 264.37 292.50 266.68 292.50 268.99 292.44 C 269.30 305.62 269.04 318.81 269.12 332.00 C 266.67 331.99 264.22 332.00 261.78 332.03 C 260.23 326.31 259.18 320.47 257.38 314.83 C 257.35 320.55 257.39 326.28 257.38 332.00 C 254.99 332.00 252.61 332.00 250.24 331.98 C 250.26 318.83 250.26 305.67 250.23 292.52 C 252.57 292.50 254.90 292.49 257.24 292.49 C 258.70 298.36 260.67 304.11 261.56 310.11 C 262.38 304.26 261.80 298.34 262.07 292.45 Z" />
<path fill="#ffff00" opacity="1.00" d=" M 272.72 292.54 C 275.57 292.48 278.41 292.48 281.26 292.52 C 281.24 305.68 281.26 318.84 281.25 332.00 C 278.41 332.00 275.58 332.00 272.75 332.00 C 272.73 318.84 272.78 305.69 272.72 292.54 Z" />
<path fill="#ffff00" opacity="1.00" d=" M 287.17 292.48 C 291.23 292.51 295.29 292.49 299.35 292.50 C 300.99 305.66 302.61 318.83 304.25 331.99 C 301.31 332.02 298.37 332.03 295.44 331.89 C 295.36 329.55 295.23 327.21 295.09 324.88 C 294.33 324.88 292.80 324.87 292.04 324.87 C 291.89 327.22 291.75 329.57 291.66 331.92 C 288.69 332.02 285.72 332.01 282.76 332.00 C 284.24 318.82 285.65 305.65 287.17 292.48 M 293.48 301.09 C 293.05 306.70 292.36 312.30 291.98 317.92 C 292.68 317.90 294.09 317.86 294.79 317.85 C 294.35 312.26 293.99 306.67 293.48 301.09 Z" />
<path fill="#ffffff" opacity="1.00" d=" M 45.24 331.99 C 45.32 318.80 45.13 305.61 45.33 292.43 C 48.14 292.51 50.94 292.51 53.75 292.50 C 53.76 297.36 53.73 302.23 53.75 307.10 C 55.38 302.32 56.32 297.35 57.67 292.50 C 60.29 292.49 62.92 292.49 65.55 292.50 C 63.98 298.39 62.20 304.23 60.74 310.14 C 62.15 317.48 64.23 324.70 65.94 331.99 C 63.01 332.00 60.08 332.00 57.15 331.99 C 56.01 326.58 55.14 321.10 53.71 315.75 C 53.78 321.16 53.74 326.58 53.75 332.00 C 50.91 332.00 48.07 332.00 45.24 331.99 Z" />
<path fill="#ffffff" opacity="1.00" d=" M 67.24 331.98 C 67.32 318.80 67.14 305.61 67.33 292.43 C 70.10 292.52 72.88 292.53 75.65 292.42 C 75.88 305.61 75.68 318.80 75.76 331.99 C 72.92 332.00 70.08 332.00 67.24 331.98 Z" />
<path fill="#ffff00" opacity="1.00" d=" M 193.24 331.98 C 193.31 318.80 193.15 305.62 193.32 292.44 C 198.01 292.54 202.69 292.48 207.37 292.50 C 207.38 295.12 207.38 297.74 207.38 300.37 C 205.50 300.37 203.62 300.38 201.75 300.38 C 201.76 302.85 201.75 305.33 201.67 307.80 C 203.45 307.84 205.22 307.87 207.00 307.90 C 206.99 310.37 207.00 312.85 207.05 315.33 C 205.28 315.36 203.51 315.37 201.75 315.40 C 201.75 318.30 201.75 321.21 201.75 324.12 C 203.83 324.12 205.91 324.12 207.99 324.12 C 208.00 326.74 208.00 329.37 208.00 332.00 C 203.08 331.99 198.16 332.01 193.24 331.98 Z" />
<path fill="#ffff00" opacity="1.00" d=" M 208.75 292.50 C 214.96 292.49 221.17 292.50 227.37 292.50 C 227.37 295.12 227.38 297.75 227.37 300.37 C 225.66 300.37 223.96 300.37 222.25 300.38 C 222.25 310.92 222.25 321.46 222.25 332.00 C 219.41 332.00 216.58 332.00 213.75 332.00 C 213.74 321.46 213.76 310.92 213.74 300.37 C 212.08 300.37 210.41 300.37 208.75 300.37 C 208.75 297.75 208.75 295.12 208.75 292.50 Z" />
<path fill="#ffffff" opacity="1.00" d=" M 36.75 324.00 C 38.79 324.00 40.83 324.00 42.88 324.00 C 42.87 326.66 42.87 329.33 42.88 332.00 C 40.83 332.00 38.79 332.00 36.75 332.00 C 36.75 329.33 36.75 326.66 36.75 324.00 Z" />
</svg>
