<?xml version="1.0" encoding="UTF-8" ?>
<!DOCTYPE svg PUBLIC "-//W3C//DTD SVG 1.1//EN" "http://www.w3.org/Graphics/SVG/1.1/DTD/svg11.dtd">
<svg width="960pt" height="540pt" viewBox="0 0 960 540" version="1.1" xmlns="http://www.w3.org/2000/svg">
<path fill="#a9a8ab" opacity="1.00" d=" M 464.85 58.33 C 469.39 52.37 474.28 46.68 478.85 40.74 C 482.17 41.00 485.50 41.30 488.82 41.66 C 486.12 41.64 484.67 44.01 482.95 45.68 C 477.11 50.15 471.06 54.38 464.85 58.33 Z" />
<path fill="#676869" opacity="1.00" d=" M 482.95 45.68 C 484.67 44.01 486.12 41.64 488.82 41.66 C 495.74 42.95 502.73 43.86 509.62 45.35 C 503.98 46.42 498.11 45.35 492.60 47.20 C 489.38 46.72 486.16 46.19 482.95 45.68 Z" />
<path fill="#555658" opacity="1.00" d=" M 509.62 45.35 C 523.29 47.18 536.93 49.68 550.58 51.81 C 549.65 53.43 548.71 55.03 547.73 56.61 C 546.26 55.52 546.46 53.75 546.48 52.15 C 545.85 52.31 545.23 52.45 544.62 52.59 C 537.22 50.50 529.50 49.46 521.84 48.87 C 525.73 50.49 529.99 50.67 534.07 51.57 C 533.19 51.69 531.43 51.94 530.55 52.07 C 533.12 53.12 535.69 54.17 538.35 54.99 C 530.60 54.10 522.91 52.70 515.22 51.42 C 507.77 49.54 500.08 48.93 492.60 47.20 C 498.11 45.35 503.98 46.42 509.62 45.35 Z" />
<path fill="#252628" opacity="1.00" d=" M 464.85 58.33 C 471.06 54.38 477.11 50.15 482.95 45.68 C 486.16 46.19 489.38 46.72 492.60 47.20 C 500.08 48.93 507.77 49.54 515.22 51.42 C 515.25 51.96 515.31 53.04 515.34 53.58 C 523.89 54.88 532.42 56.36 540.97 57.69 C 542.66 58.05 544.33 57.57 545.96 57.09 C 546.54 56.93 547.13 56.77 547.73 56.61 C 548.71 55.03 549.65 53.43 550.58 51.81 C 555.52 52.74 560.40 53.90 565.34 54.83 C 564.82 55.73 564.31 56.64 563.82 57.56 C 561.69 61.39 559.71 65.31 557.62 69.16 C 556.47 71.29 555.33 73.42 554.28 75.60 C 554.03 76.17 553.54 77.30 553.29 77.86 C 548.26 76.57 543.18 75.13 537.96 75.18 C 536.68 75.08 535.65 75.91 534.56 76.39 C 531.10 72.96 525.81 73.47 521.39 72.44 C 520.67 73.39 519.97 74.35 519.24 75.29 C 517.33 75.09 515.42 74.92 513.52 74.76 C 513.68 73.86 513.85 72.97 514.03 72.08 C 513.68 72.11 512.99 72.17 512.64 72.20 C 507.81 70.41 502.70 69.26 497.52 69.51 C 498.71 70.29 499.92 71.06 501.17 71.77 C 494.41 71.19 487.67 70.28 481.06 68.75 C 476.46 67.52 471.66 69.56 467.12 67.82 C 467.86 67.13 468.61 66.45 469.36 65.76 C 471.77 65.97 474.30 66.65 476.63 65.61 C 473.87 64.83 471.05 64.33 468.22 63.94 L 468.32 65.66 C 465.80 65.88 463.28 65.43 461.54 63.45 C 462.63 61.76 463.31 59.68 464.85 58.33 M 480.74 49.40 C 482.59 49.51 485.22 51.49 486.54 49.33 C 484.62 48.95 482.44 47.90 480.74 49.40 M 486.25 49.74 L 487.10 50.70 C 492.11 51.48 497.30 53.56 502.36 52.54 C 497.04 51.37 491.69 50.12 486.25 49.74 M 503.33 53.10 C 503.54 54.42 504.28 54.67 505.54 53.84 C 505.31 52.52 504.57 52.27 503.33 53.10 M 508.89 67.73 C 518.84 69.43 528.76 71.22 538.72 72.87 C 540.24 69.07 541.84 65.29 543.06 61.38 C 533.33 60.00 523.68 58.09 513.95 56.78 C 511.26 59.61 510.20 64.01 508.89 67.73 Z" />
<path fill="#a9a8ab" opacity="1.00" d=" M 480.74 49.40 C 482.44 47.90 484.62 48.95 486.54 49.33 C 485.22 51.49 482.59 49.51 480.74 49.40 Z" />
<path fill="#a9a8ab" opacity="1.00" d=" M 521.84 48.87 C 529.50 49.46 537.22 50.50 544.62 52.59 C 541.06 53.14 537.56 52.07 534.07 51.57 C 529.99 50.67 525.73 50.49 521.84 48.87 Z" />
<path fill="#4d4e50" opacity="1.00" d=" M 486.25 49.74 C 491.69 50.12 497.04 51.37 502.36 52.54 C 497.30 53.56 492.11 51.48 487.10 50.70 L 486.25 49.74 Z" />
<path fill="#c82c2c" opacity="1.00" d=" M 515.22 51.42 C 522.91 52.70 530.60 54.10 538.35 54.99 C 540.95 55.43 543.50 56.13 545.96 57.09 C 544.33 57.57 542.66 58.05 540.97 57.69 C 532.42 56.36 523.89 54.88 515.34 53.58 C 515.31 53.04 515.25 51.96 515.22 51.42 Z" />
<path fill="#3a3b3d" opacity="1.00" d=" M 530.55 52.07 C 531.43 51.94 533.19 51.69 534.07 51.57 C 537.56 52.07 541.06 53.14 544.62 52.59 C 545.23 52.45 545.85 52.31 546.48 52.15 C 546.46 53.75 546.26 55.52 547.73 56.61 C 547.13 56.77 546.54 56.93 545.96 57.09 C 543.50 56.13 540.95 55.43 538.35 54.99 C 535.69 54.17 533.12 53.12 530.55 52.07 Z" />
<path fill="#525455" opacity="1.00" d=" M 503.33 53.10 C 504.57 52.27 505.31 52.52 505.54 53.84 C 504.28 54.67 503.54 54.42 503.33 53.10 Z" />
<path fill="#949595" opacity="1.00" d=" M 565.34 54.83 C 565.40 55.10 565.51 55.65 565.57 55.92 C 566.19 59.38 565.95 63.09 564.26 66.23 C 560.17 73.35 556.74 80.83 552.66 87.96 L 551.75 88.17 C 551.86 85.86 551.93 83.55 552.15 81.25 C 552.48 80.11 552.86 78.98 553.29 77.86 C 553.54 77.30 554.03 76.17 554.28 75.60 C 554.73 76.62 555.17 77.64 555.63 78.66 C 557.20 76.35 558.78 74.01 559.91 71.44 C 561.36 66.85 565.44 62.64 563.82 57.56 C 564.31 56.64 564.82 55.73 565.34 54.83 Z" />
<path fill="#0c0c0c" opacity="0.64" d=" M 565.57 55.92 C 568.29 60.20 566.30 65.93 564.37 70.25 C 564.62 72.29 565.46 74.18 566.44 75.97 C 565.26 74.92 564.04 73.92 562.85 72.91 C 558.67 78.54 557.12 85.95 551.87 90.75 C 550.56 89.83 549.16 88.97 547.58 88.67 C 544.24 87.98 540.89 87.33 537.69 86.13 C 542.41 86.56 547.05 87.60 551.75 88.17 L 552.66 87.96 C 556.74 80.83 560.17 73.35 564.26 66.23 C 565.95 63.09 566.19 59.38 565.57 55.92 Z" />
<path fill="#c82c2c" opacity="1.00" d=" M 508.89 67.73 C 510.20 64.01 511.26 59.61 513.95 56.78 C 523.68 58.09 533.33 60.00 543.06 61.38 C 541.84 65.29 540.24 69.07 538.72 72.87 C 528.76 71.22 518.84 69.43 508.89 67.73 M 515.98 59.26 C 516.58 59.60 517.77 60.29 518.37 60.64 C 517.96 61.12 517.13 62.10 516.72 62.58 C 516.69 62.62 516.62 62.70 516.59 62.74 L 515.70 63.88 C 516.63 63.97 518.49 64.15 519.43 64.24 L 520.06 63.29 C 521.28 64.15 522.56 64.22 523.89 63.52 C 523.94 63.39 524.03 63.13 524.07 63.00 C 523.26 62.00 522.18 61.69 520.86 62.07 C 521.10 61.20 521.34 60.33 521.57 59.46 C 519.70 59.39 517.84 59.32 515.98 59.26 M 533.12 63.86 C 532.86 64.40 532.33 65.48 532.07 66.03 C 532.50 66.05 533.35 66.10 533.78 66.12 L 533.73 67.11 C 535.37 67.00 537.03 66.89 538.68 66.77 C 538.69 66.11 538.72 64.80 538.74 64.14 C 537.33 64.17 535.92 64.20 534.53 64.24 C 534.17 64.14 533.47 63.95 533.12 63.86 M 517.47 65.19 C 518.03 65.54 519.16 66.25 519.72 66.61 C 516.29 67.63 512.41 64.62 509.42 66.73 C 512.93 66.95 517.72 69.71 520.51 66.64 C 521.22 66.64 522.63 66.66 523.34 66.67 C 521.58 65.57 519.48 65.36 517.47 65.19 M 521.35 68.22 C 521.32 69.63 523.80 69.57 524.61 68.82 C 524.61 67.41 522.14 67.47 521.35 68.22 M 526.35 69.19 C 526.84 70.67 529.53 70.43 530.71 69.76 C 530.14 68.40 527.50 68.48 526.35 69.19 M 532.29 70.16 C 532.84 71.59 535.48 71.50 536.72 70.87 C 536.13 69.48 533.51 69.51 532.29 70.16 Z" />
<path fill="#5c5d5f" opacity="1.00" d=" M 557.62 69.16 C 559.71 65.31 561.69 61.39 563.82 57.56 C 565.44 62.64 561.36 66.85 559.91 71.44 C 559.14 70.68 558.38 69.92 557.62 69.16 Z" />
<path fill="#ffffff" opacity="1.00" d=" M 515.98 59.26 C 517.84 59.32 519.70 59.39 521.57 59.46 C 521.34 60.33 521.10 61.20 520.86 62.07 C 520.00 61.62 519.17 61.15 518.37 60.64 C 517.77 60.29 516.58 59.60 515.98 59.26 Z" />
<path fill="#373738" opacity="1.00" d=" M 516.72 62.58 C 517.13 62.10 517.96 61.12 518.37 60.64 C 519.17 61.15 520.00 61.62 520.86 62.07 C 520.66 62.38 520.26 62.99 520.06 63.29 L 519.43 64.24 C 518.49 64.15 516.63 63.97 515.70 63.88 L 516.59 62.74 C 516.62 62.70 516.69 62.62 516.72 62.58 Z" />
<path fill="#c17174" opacity="1.00" d=" M 516.59 62.74 C 516.62 62.70 516.69 62.62 516.72 62.58 C 516.69 62.62 516.62 62.70 516.59 62.74 Z" />
<path fill="#676059" opacity="1.00" d=" M 520.86 62.07 C 522.18 61.69 523.26 62.00 524.07 63.00 L 523.89 63.52 C 522.56 64.22 521.28 64.15 520.06 63.29 C 520.26 62.99 520.66 62.38 520.86 62.07 Z" />
<path fill="#38393b" opacity="1.00" d=" M 460.49 66.62 C 460.83 65.56 461.18 64.51 461.54 63.45 C 463.28 65.43 465.80 65.88 468.32 65.66 C 468.58 65.68 469.10 65.74 469.36 65.76 C 468.61 66.45 467.86 67.13 467.12 67.82 C 471.66 69.56 476.46 67.52 481.06 68.75 C 487.67 70.28 494.41 71.19 501.17 71.77 C 504.98 72.16 508.82 72.94 512.64 72.20 C 512.99 72.17 513.68 72.11 514.03 72.08 C 513.85 72.97 513.68 73.86 513.52 74.76 C 515.42 74.92 517.33 75.09 519.24 75.29 C 517.31 76.38 515.04 76.41 512.90 76.73 C 514.91 80.73 519.88 80.11 523.08 77.94 C 525.77 78.35 528.45 78.92 531.18 79.11 C 533.49 79.40 535.16 77.47 536.83 76.22 C 540.17 76.47 543.68 76.78 546.48 78.82 C 544.64 79.08 542.81 79.30 540.97 79.51 C 544.69 80.10 548.41 80.70 552.15 81.25 C 551.93 83.55 551.86 85.86 551.75 88.17 C 547.05 87.60 542.41 86.56 537.69 86.13 L 537.03 85.95 C 536.03 84.68 534.39 84.38 532.91 84.86 C 532.46 84.85 531.55 84.82 531.09 84.80 C 529.98 83.80 528.50 83.43 527.06 83.72 C 522.23 83.47 517.61 81.75 512.77 81.60 C 507.84 82.40 502.24 80.23 497.97 83.55 C 497.20 83.49 495.67 83.35 494.91 83.28 C 498.17 86.21 501.70 88.83 504.85 91.90 C 501.87 92.06 498.62 92.25 496.67 94.82 C 495.10 93.49 493.89 91.83 492.60 90.25 C 490.87 88.08 488.95 85.63 485.89 85.62 C 485.15 85.84 483.67 86.28 482.93 86.49 C 481.25 86.99 479.57 87.45 477.86 87.79 C 473.47 84.68 468.75 89.35 464.14 88.79 C 464.14 88.55 464.15 88.08 464.15 87.84 C 471.11 85.60 478.28 83.96 485.17 81.45 C 487.01 84.52 490.63 83.35 493.41 82.63 C 493.88 82.52 494.82 82.29 495.28 82.18 C 495.08 80.94 494.87 79.71 494.68 78.48 C 486.79 77.02 478.93 75.36 470.99 74.22 C 468.48 73.78 465.89 73.44 463.64 72.17 C 465.83 71.94 468.02 71.73 470.21 71.49 C 467.44 69.85 464.29 69.59 461.15 70.03 L 460.81 69.72 C 460.63 69.30 460.29 68.45 460.12 68.03 C 459.64 68.84 459.16 69.65 458.68 70.47 C 458.54 75.32 456.07 79.74 456.18 84.63 C 456.66 85.04 457.61 85.85 458.09 86.26 C 458.38 86.69 458.96 87.53 459.24 87.95 L 457.89 88.24 C 455.57 86.85 453.46 84.08 454.42 81.25 C 455.51 77.86 456.37 74.40 457.08 70.91 C 457.20 68.85 459.06 67.78 460.49 66.62 M 497.22 73.23 C 497.24 73.54 497.27 74.18 497.29 74.50 C 498.81 74.63 500.34 74.77 501.88 74.91 C 501.45 77.04 501.01 79.17 500.58 81.31 C 504.41 80.98 508.25 81.09 512.09 80.86 C 509.88 79.90 507.63 78.95 505.85 77.28 C 507.54 77.41 509.22 77.59 510.91 77.80 C 510.91 77.13 510.90 75.79 510.89 75.12 C 508.71 75.08 506.55 75.29 504.44 75.83 C 504.54 75.39 504.75 74.51 504.85 74.06 C 502.36 73.39 499.78 73.19 497.22 73.23 Z" />
<path fill="#d08d91" opacity="1.00" d=" M 524.07 63.00 C 524.03 63.13 523.94 63.39 523.89 63.52 L 524.07 63.00 Z" />
<path fill="#854f50" opacity="1.00" d=" M 468.22 63.94 C 471.05 64.33 473.87 64.83 476.63 65.61 C 474.30 66.65 471.77 65.97 469.36 65.76 C 469.10 65.74 468.58 65.68 468.32 65.66 L 468.22 63.94 Z" />
<path fill="#313335" opacity="1.00" d=" M 533.12 63.86 C 533.47 63.95 534.17 64.14 534.53 64.24 C 535.89 64.63 537.25 65.05 538.60 65.51 C 537.03 65.99 535.41 66.25 533.78 66.12 C 533.35 66.10 532.50 66.05 532.07 66.03 C 532.33 65.48 532.86 64.40 533.12 63.86 Z" />
<path fill="#9f5557" opacity="1.00" d=" M 534.53 64.24 C 535.92 64.20 537.33 64.17 538.74 64.14 C 538.72 64.80 538.69 66.11 538.68 66.77 C 537.03 66.89 535.37 67.00 533.73 67.11 L 533.78 66.12 C 535.41 66.25 537.03 65.99 538.60 65.51 C 537.25 65.05 535.89 64.63 534.53 64.24 Z" />
<path fill="#ffffff" opacity="1.00" d=" M 517.47 65.19 C 519.48 65.36 521.58 65.57 523.34 66.67 C 522.63 66.66 521.22 66.64 520.51 66.64 L 519.72 66.61 C 519.16 66.25 518.03 65.54 517.47 65.19 Z" />
<path fill="#7d2020" opacity="1.00" d=" M 509.42 66.73 C 512.41 64.62 516.29 67.63 519.72 66.61 L 520.51 66.64 C 517.72 69.71 512.93 66.95 509.42 66.73 Z" />
<path fill="#752020" opacity="1.00" d=" M 521.35 68.22 C 522.14 67.47 524.61 67.41 524.61 68.82 C 523.80 69.57 521.32 69.63 521.35 68.22 Z" />
<path fill="#48494b" opacity="1.00" d=" M 497.52 69.51 C 502.70 69.26 507.81 70.41 512.64 72.20 C 508.82 72.94 504.98 72.16 501.17 71.77 C 499.92 71.06 498.71 70.29 497.52 69.51 Z" />
<path fill="#761f1f" opacity="1.00" d=" M 526.35 69.19 C 527.50 68.48 530.14 68.40 530.71 69.76 C 529.53 70.43 526.84 70.67 526.35 69.19 Z" />
<path fill="#4d4f50" opacity="1.00" d=" M 554.28 75.60 C 555.33 73.42 556.47 71.29 557.62 69.16 C 558.38 69.92 559.14 70.68 559.91 71.44 C 558.78 74.01 557.20 76.35 555.63 78.66 C 555.17 77.64 554.73 76.62 554.28 75.60 Z" />
<path fill="#4c4d4f" opacity="0.98" d=" M 461.15 70.03 C 464.29 69.59 467.44 69.85 470.21 71.49 C 468.02 71.73 465.83 71.94 463.64 72.17 C 462.79 71.47 461.96 70.76 461.15 70.03 Z" />
<path fill="#761f1f" opacity="1.00" d=" M 532.29 70.16 C 533.51 69.51 536.13 69.48 536.72 70.87 C 535.48 71.50 532.84 71.59 532.29 70.16 Z" />
<path fill="#414245" opacity="1.00" d=" M 566.44 75.97 C 565.46 74.18 564.62 72.29 564.37 70.25 C 567.51 74.68 571.47 78.77 572.66 84.27 C 571.25 85.64 569.83 87.00 568.36 88.30 C 565.81 89.30 563.40 90.62 561.22 92.26 C 559.82 92.66 558.41 93.05 557.04 93.52 C 555.57 94.01 554.20 94.73 552.83 95.42 C 551.66 95.43 550.49 95.43 549.34 95.43 C 547.01 95.01 543.50 96.24 541.90 94.88 L 541.91 94.79 C 543.40 94.40 544.90 93.96 546.30 93.28 C 546.64 93.12 547.31 92.82 547.64 92.67 L 547.87 93.03 C 549.68 92.81 551.50 92.58 553.32 92.36 C 557.17 93.16 560.52 90.45 563.74 88.79 C 566.12 87.26 569.21 86.25 570.57 83.58 C 570.06 80.67 568.24 78.23 566.44 75.97 Z" />
<path fill="#141516" opacity="1.00" d=" M 521.39 72.44 C 525.81 73.47 531.10 72.96 534.56 76.39 C 535.65 75.91 536.68 75.08 537.96 75.18 C 543.18 75.13 548.26 76.57 553.29 77.86 C 552.86 78.98 552.48 80.11 552.15 81.25 C 548.41 80.70 544.69 80.10 540.97 79.51 C 542.81 79.30 544.64 79.08 546.48 78.82 C 543.68 76.78 540.17 76.47 536.83 76.22 C 535.16 77.47 533.49 79.40 531.18 79.11 C 528.45 78.92 525.77 78.35 523.08 77.94 C 519.88 80.11 514.91 80.73 512.90 76.73 C 515.04 76.41 517.31 76.38 519.24 75.29 C 519.97 74.35 520.67 73.39 521.39 72.44 Z" />
<path fill="#121314" opacity="1.00" d=" M 497.22 73.23 C 499.78 73.19 502.36 73.39 504.85 74.06 C 504.75 74.51 504.54 75.39 504.44 75.83 C 506.55 75.29 508.71 75.08 510.89 75.12 C 510.90 75.79 510.91 77.13 510.91 77.80 C 509.22 77.59 507.54 77.41 505.85 77.28 C 507.63 78.95 509.88 79.90 512.09 80.86 C 508.25 81.09 504.41 80.98 500.58 81.31 C 501.01 79.17 501.45 77.04 501.88 74.91 C 500.34 74.77 498.81 74.63 497.29 74.50 C 497.27 74.18 497.24 73.54 497.22 73.23 Z" />
<path fill="#192023" opacity="1.00" d=" M 483.39 80.74 C 483.50 80.49 483.71 80.01 483.81 79.76 C 487.18 80.05 490.58 80.66 493.41 82.63 C 490.63 83.35 487.01 84.52 485.17 81.45 C 484.73 81.27 483.84 80.92 483.39 80.74 Z" />
<path fill="#a9a8ab" opacity="1.00" d=" M 459.66 87.48 C 467.66 85.58 475.51 83.08 483.39 80.74 C 483.84 80.92 484.73 81.27 485.17 81.45 C 478.28 83.96 471.11 85.60 464.15 87.84 C 464.15 88.08 464.14 88.55 464.14 88.79 C 468.75 89.35 473.47 84.68 477.86 87.79 C 473.00 88.66 468.41 90.67 463.51 91.31 C 459.40 91.64 455.67 94.03 451.45 93.49 C 453.50 92.84 455.60 92.48 457.73 92.16 C 457.05 91.58 456.37 91.01 455.70 90.44 C 454.15 91.00 452.63 91.57 451.07 92.04 C 449.19 92.13 447.32 92.08 445.45 92.04 C 445.36 92.48 445.16 93.34 445.06 93.77 L 444.47 93.58 C 443.89 93.39 442.74 93.00 442.17 92.81 C 447.41 91.29 452.60 89.60 457.89 88.24 L 459.24 87.95 C 458.96 87.53 458.38 86.69 458.09 86.26 C 458.48 86.57 459.27 87.18 459.66 87.48 M 457.68 91.08 C 459.17 91.48 462.50 91.12 462.73 89.34 C 461.29 88.90 457.91 89.34 457.68 91.08 Z" />
<path fill="#000000" opacity="0.49" d=" M 512.77 81.60 C 517.61 81.75 522.23 83.47 527.06 83.72 C 527.46 85.58 529.73 85.28 531.09 84.80 C 531.55 84.82 532.46 84.85 532.91 84.86 C 533.83 86.26 535.53 86.49 537.03 85.95 L 537.69 86.13 C 540.89 87.33 544.24 87.98 547.58 88.67 C 547.16 88.99 546.32 89.64 545.90 89.96 C 545.68 89.78 545.23 89.41 545.00 89.22 C 544.33 89.23 542.98 89.23 542.30 89.23 C 536.07 88.40 530.01 86.63 523.79 85.75 C 522.97 85.61 522.16 85.47 521.35 85.32 C 519.14 84.91 516.95 84.49 514.74 84.15 C 514.28 84.14 513.35 84.12 512.89 84.11 L 512.80 82.48 L 512.77 81.60 Z" />
<path fill="#555658" opacity="1.00" d=" M 510.55 83.68 C 511.11 83.38 512.23 82.78 512.80 82.48 L 512.89 84.11 C 512.15 86.32 515.54 86.30 514.74 84.15 C 516.95 84.49 519.14 84.91 521.35 85.32 C 521.57 86.84 521.78 88.35 522.02 89.87 C 521.40 89.30 520.78 88.74 520.18 88.18 C 519.22 87.05 517.64 86.94 516.29 87.15 C 516.43 87.62 516.71 88.55 516.85 89.01 C 515.14 88.09 513.38 88.08 512.10 89.67 C 512.04 89.12 511.90 88.00 511.83 87.44 C 510.85 89.47 509.93 91.52 509.04 93.59 C 510.71 93.69 512.39 93.81 514.08 93.90 C 514.35 94.48 514.89 95.65 515.16 96.23 C 514.58 96.18 513.44 96.07 512.86 96.02 C 510.54 95.76 507.95 95.55 506.43 93.52 C 507.91 90.28 509.22 86.98 510.55 83.68 Z" />
<path fill="#252224" opacity="1.00" d=" M 512.89 84.11 C 513.35 84.12 514.28 84.14 514.74 84.15 C 515.54 86.30 512.15 86.32 512.89 84.11 Z" />
<path fill="#070707" opacity="0.77" d=" M 527.06 83.72 C 528.50 83.43 529.98 83.80 531.09 84.80 C 529.73 85.28 527.46 85.58 527.06 83.72 Z" />
<path fill="#1d1e1f" opacity="1.00" d=" M 521.35 85.32 C 522.16 85.47 522.97 85.61 523.79 85.75 C 523.82 86.58 523.87 88.25 523.90 89.08 C 529.32 90.32 535.01 90.62 540.18 92.84 C 539.39 95.01 538.59 97.19 537.59 99.27 C 536.00 99.04 534.41 98.80 532.83 98.56 C 534.13 98.33 535.43 98.11 536.75 97.88 C 537.23 96.52 537.71 95.15 538.21 93.78 C 535.27 92.86 532.37 91.67 529.29 91.33 C 527.06 92.40 527.34 95.01 527.29 97.06 C 523.43 96.69 519.51 96.68 515.74 95.65 C 517.44 95.09 519.13 94.43 520.64 93.45 C 518.46 93.70 516.27 93.98 514.08 93.90 C 512.39 93.81 510.71 93.69 509.04 93.59 C 509.93 91.52 510.85 89.47 511.83 87.44 C 511.90 88.00 512.04 89.12 512.10 89.67 C 513.38 88.08 515.14 88.09 516.85 89.01 C 518.01 89.73 519.89 89.94 520.18 88.18 C 520.78 88.74 521.40 89.30 522.02 89.87 C 521.78 88.35 521.57 86.84 521.35 85.32 M 522.08 92.71 C 521.78 94.32 524.66 94.92 525.83 94.38 C 526.19 92.67 523.27 92.08 522.08 92.71 Z" />
<path fill="#0b0b0b" opacity="0.84" d=" M 532.91 84.86 C 534.39 84.38 536.03 84.68 537.03 85.95 C 535.53 86.49 533.83 86.26 532.91 84.86 Z" />
<path fill="#010203" opacity="1.00" d=" M 477.86 87.79 C 479.57 87.45 481.25 86.99 482.93 86.49 C 483.21 86.85 483.78 87.55 484.07 87.90 C 476.90 89.86 469.93 92.45 462.71 94.19 C 461.13 93.56 459.46 93.39 457.78 93.48 C 458.25 94.70 458.73 95.92 459.21 97.14 C 468.66 94.07 478.29 91.57 487.68 88.29 C 487.23 87.63 486.34 86.29 485.89 85.62 C 488.95 85.63 490.87 88.08 492.60 90.25 C 481.25 95.02 469.00 97.24 457.56 101.78 L 456.73 102.19 C 453.50 99.54 450.41 96.72 447.70 93.53 C 448.26 93.64 449.37 93.86 449.93 93.97 C 450.21 93.49 450.78 92.52 451.07 92.04 C 452.63 91.57 454.15 91.00 455.70 90.44 C 456.37 91.01 457.05 91.58 457.73 92.16 C 455.60 92.48 453.50 92.84 451.45 93.49 C 455.67 94.03 459.40 91.64 463.51 91.31 C 468.41 90.67 473.00 88.66 477.86 87.79 Z" />
<path fill="#624543" opacity="1.00" d=" M 482.93 86.49 C 483.67 86.28 485.15 85.84 485.89 85.62 C 486.34 86.29 487.23 87.63 487.68 88.29 C 478.29 91.57 468.66 94.07 459.21 97.14 C 458.73 95.92 458.25 94.70 457.78 93.48 C 459.46 93.39 461.13 93.56 462.71 94.19 C 469.93 92.45 476.90 89.86 484.07 87.90 C 483.78 87.55 483.21 86.85 482.93 86.49 Z" />
<path fill="#323336" opacity="1.00" d=" M 523.79 85.75 C 530.01 86.63 536.07 88.40 542.30 89.23 L 541.65 89.58 C 539.74 90.03 540.95 92.70 542.56 92.43 C 543.80 92.72 545.05 93.00 546.30 93.28 C 544.90 93.96 543.40 94.40 541.91 94.79 C 541.48 94.30 540.61 93.33 540.18 92.84 C 535.01 90.62 529.32 90.32 523.90 89.08 C 523.87 88.25 523.82 86.58 523.79 85.75 Z" />
<path fill="#636567" opacity="1.00" d=" M 516.29 87.15 C 517.64 86.94 519.22 87.05 520.18 88.18 C 519.89 89.94 518.01 89.73 516.85 89.01 C 516.71 88.55 516.43 87.62 516.29 87.15 Z" />
<path fill="#010203" opacity="1.00" d=" M 457.68 91.08 C 457.91 89.34 461.29 88.90 462.73 89.34 C 462.50 91.12 459.17 91.48 457.68 91.08 Z" />
<path fill="#050505" opacity="0.17" d=" M 542.30 89.23 C 542.98 89.23 544.33 89.23 545.00 89.22 C 545.23 89.41 545.68 89.78 545.90 89.96 C 546.34 90.64 547.21 91.99 547.64 92.67 C 547.31 92.82 546.64 93.12 546.30 93.28 C 545.05 93.00 543.80 92.72 542.56 92.43 C 542.34 91.72 541.88 90.29 541.65 89.58 L 542.30 89.23 Z" />
<path fill="#2c2e32" opacity="1.00" d=" M 547.58 88.67 C 549.16 88.97 550.56 89.83 551.87 90.75 C 552.23 91.15 552.96 91.96 553.32 92.36 C 551.50 92.58 549.68 92.81 547.87 93.03 L 547.64 92.67 C 547.21 91.99 546.34 90.64 545.90 89.96 C 546.32 89.64 547.16 88.99 547.58 88.67 Z" />
<path fill="#25292a" opacity="1.00" d=" M 492.60 90.25 C 493.89 91.83 495.10 93.49 496.67 94.82 C 498.62 92.25 501.87 92.06 504.85 91.90 C 505.24 92.30 506.03 93.11 506.43 93.52 C 507.95 95.55 510.54 95.76 512.86 96.02 C 514.00 96.89 515.08 97.84 516.14 98.81 C 515.46 98.77 514.08 98.70 513.39 98.66 C 513.42 99.34 513.48 100.70 513.51 101.37 C 512.85 105.76 508.00 106.13 504.64 107.49 C 497.41 109.68 490.53 112.88 483.30 115.08 C 483.97 114.26 484.64 113.44 485.32 112.62 C 474.46 115.46 463.97 119.58 453.40 123.33 C 451.91 123.78 450.37 124.04 448.84 124.27 C 448.44 124.33 447.64 124.45 447.24 124.51 C 447.55 124.93 448.17 125.76 448.49 126.18 C 447.81 126.07 446.46 125.85 445.78 125.74 C 442.35 118.92 438.33 112.36 433.55 106.40 C 433.66 105.85 433.89 104.73 434.01 104.18 C 435.03 104.72 436.06 105.27 437.10 105.82 C 438.99 104.49 440.77 102.79 443.06 102.18 C 445.65 101.68 448.30 101.74 450.93 101.65 C 449.21 100.20 447.59 98.58 445.58 97.53 C 440.33 98.11 435.44 100.46 430.22 101.32 C 431.05 99.29 431.87 96.72 434.19 95.96 C 437.53 94.87 441.01 94.25 444.47 93.58 L 445.06 93.77 C 445.16 93.34 445.36 92.48 445.45 92.04 C 447.32 92.08 449.19 92.13 451.07 92.04 C 450.78 92.52 450.21 93.49 449.93 93.97 C 449.37 93.86 448.26 93.64 447.70 93.53 C 450.41 96.72 453.50 99.54 456.73 102.19 C 456.97 104.28 457.31 106.36 457.65 108.44 C 463.19 107.52 468.40 105.40 473.73 103.72 C 477.76 102.38 482.01 101.40 485.53 98.89 C 476.32 98.20 468.27 103.74 459.61 105.90 C 458.92 104.53 458.24 103.15 457.56 101.78 C 469.00 97.24 481.25 95.02 492.60 90.25 M 501.19 100.51 C 501.43 100.73 501.90 101.18 502.13 101.40 C 501.09 101.84 500.38 102.71 499.67 103.54 C 500.11 103.45 501.01 103.29 501.45 103.21 C 504.15 104.23 506.77 102.08 509.42 101.67 C 509.99 100.78 510.57 99.90 511.16 99.02 C 509.77 99.35 508.35 99.75 506.91 99.49 C 506.74 99.38 506.39 99.16 506.21 99.05 L 505.09 99.52 C 503.95 98.60 501.76 99.17 501.19 100.51 M 443.52 105.33 C 443.58 106.96 447.11 107.52 447.79 105.90 C 447.34 104.22 444.63 104.43 443.52 105.33 M 439.28 106.36 C 438.04 107.70 440.32 110.07 441.71 108.90 C 442.73 107.54 440.68 105.30 439.28 106.36 M 447.94 110.18 C 450.43 110.26 453.16 108.84 452.99 106.00 C 451.24 107.31 449.56 108.72 447.94 110.18 M 447.69 117.01 C 450.23 116.72 452.64 115.87 455.01 114.96 C 455.45 115.15 456.34 115.54 456.78 115.73 C 456.78 115.13 456.78 113.94 456.78 113.34 C 453.73 114.50 450.44 115.17 447.69 117.01 M 454.25 119.20 C 454.73 119.71 454.73 119.71 454.25 119.20 Z" />
<path fill="#949595" opacity="1.00" d=" M 542.56 92.43 C 540.95 92.70 539.74 90.03 541.65 89.58 C 541.88 90.29 542.34 91.72 542.56 92.43 Z" />
<path fill="#414245" opacity="1.00" d=" M 529.29 91.33 C 532.37 91.67 535.27 92.86 538.21 93.78 C 537.71 95.15 537.23 96.52 536.75 97.88 C 535.43 98.11 534.13 98.33 532.83 98.56 C 534.41 98.80 536.00 99.04 537.59 99.27 C 537.12 99.91 536.65 100.53 536.17 101.15 C 536.45 101.77 537.01 103.01 537.29 103.63 C 531.78 102.68 526.31 101.51 520.87 100.24 C 519.52 99.86 518.13 99.61 516.76 99.37 L 516.14 98.81 C 515.08 97.84 514.00 96.89 512.86 96.02 C 513.44 96.07 514.58 96.18 515.16 96.23 C 514.89 95.65 514.35 94.48 514.08 93.90 C 516.27 93.98 518.46 93.70 520.64 93.45 C 519.13 94.43 517.44 95.09 515.74 95.65 C 519.51 96.68 523.43 96.69 527.29 97.06 C 527.34 95.01 527.06 92.40 529.29 91.33 Z" />
<path fill="#ffffff" opacity="1.00" d=" M 522.08 92.71 C 523.27 92.08 526.19 92.67 525.83 94.38 C 524.66 94.92 521.78 94.32 522.08 92.71 Z" />
<path fill="#727374" opacity="1.00" d=" M 433.06 95.40 C 436.02 94.32 439.09 93.49 442.17 92.81 C 442.74 93.00 443.89 93.39 444.47 93.58 C 441.01 94.25 437.53 94.87 434.19 95.96 C 431.87 96.72 431.05 99.29 430.22 101.32 C 431.11 103.14 432.25 104.84 433.55 106.40 C 438.33 112.36 442.35 118.92 445.78 125.74 C 445.64 128.08 446.09 130.40 446.44 132.70 C 445.88 132.30 444.76 131.50 444.21 131.10 C 440.85 125.54 436.65 120.45 431.95 115.97 C 428.98 113.58 428.73 109.46 428.10 105.98 C 427.29 101.92 429.00 97.01 433.06 95.40 Z" />
<path fill="#5f6061" opacity="0.98" d=" M 540.18 92.84 C 540.61 93.33 541.48 94.30 541.91 94.79 L 541.90 94.88 C 540.92 97.82 540.52 101.48 538.23 103.63 L 537.29 103.63 C 537.01 103.01 536.45 101.77 536.17 101.15 C 536.65 100.53 537.12 99.91 537.59 99.27 C 538.59 97.19 539.39 95.01 540.18 92.84 Z" />
<path fill="#202124" opacity="1.00" d=" M 552.83 95.42 C 554.20 94.73 555.57 94.01 557.04 93.52 C 558.07 93.52 560.13 93.53 561.17 93.54 C 566.08 95.77 568.43 100.67 571.34 104.88 C 571.81 107.32 571.56 109.82 571.60 112.29 C 570.55 113.45 569.47 114.59 568.37 115.70 C 567.76 115.67 566.53 115.60 565.91 115.57 C 564.92 118.20 562.76 120.14 561.78 122.77 C 560.59 123.00 559.41 123.23 558.23 123.45 C 560.14 122.39 560.63 120.31 561.06 118.38 C 559.65 118.38 558.24 118.39 556.84 118.41 C 553.97 117.05 551.05 115.18 550.03 111.99 C 548.40 107.04 549.02 101.31 551.95 96.95 C 551.30 96.57 549.99 95.81 549.34 95.43 C 550.49 95.43 551.66 95.43 552.83 95.42 M 555.58 111.11 C 556.60 113.35 559.24 112.76 561.22 112.92 C 562.41 109.50 562.08 105.85 562.50 102.31 C 561.67 100.71 559.13 101.72 557.67 101.18 C 555.08 103.84 555.11 107.67 555.58 111.11 Z" />
<path fill="#3b3c3e" opacity="1.00" d=" M 430.22 101.32 C 435.44 100.46 440.33 98.11 445.58 97.53 C 447.59 98.58 449.21 100.20 450.93 101.65 C 448.30 101.74 445.65 101.68 443.06 102.18 C 440.77 102.79 438.99 104.49 437.10 105.82 C 436.06 105.27 435.03 104.72 434.01 104.18 C 433.89 104.73 433.66 105.85 433.55 106.40 C 432.25 104.84 431.11 103.14 430.22 101.32 Z" />
<path fill="#3c403c" opacity="1.00" d=" M 459.61 105.90 C 468.27 103.74 476.32 98.20 485.53 98.89 C 482.01 101.40 477.76 102.38 473.73 103.72 C 468.40 105.40 463.19 107.52 457.65 108.44 C 457.31 106.36 456.97 104.28 456.73 102.19 L 457.56 101.78 C 458.24 103.15 458.92 104.53 459.61 105.90 Z" />
<path fill="#bcbcbb" opacity="1.00" d=" M 501.19 100.51 C 501.76 99.17 503.95 98.60 505.09 99.52 C 504.15 100.21 503.19 100.90 502.13 101.40 C 501.90 101.18 501.43 100.73 501.19 100.51 Z" />
<path fill="#949595" opacity="1.00" d=" M 505.09 99.52 L 506.21 99.05 C 506.39 99.16 506.74 99.38 506.91 99.49 C 508.35 99.75 509.77 99.35 511.16 99.02 C 510.57 99.90 509.99 100.78 509.42 101.67 C 506.77 102.08 504.15 104.23 501.45 103.21 C 501.01 103.29 500.11 103.45 499.67 103.54 C 500.38 102.71 501.09 101.84 502.13 101.40 C 503.19 100.90 504.15 100.21 505.09 99.52 Z" />
<path fill="#dcdbd9" opacity="1.00" d=" M 506.21 99.05 C 506.39 99.16 506.74 99.38 506.91 99.49 C 506.74 99.38 506.39 99.16 506.21 99.05 Z" />
<path fill="#434746" opacity="1.00" d=" M 513.51 101.37 L 514.08 100.36 L 514.16 101.74 C 513.94 105.68 515.26 111.89 510.45 113.50 C 505.60 115.70 500.27 116.39 495.34 118.33 C 485.87 121.98 476.27 125.28 466.75 128.81 C 460.68 131.55 454.64 135.14 447.76 135.14 C 446.29 134.06 445.20 132.59 444.21 131.10 C 444.76 131.50 445.88 132.30 446.44 132.70 C 446.09 130.40 445.64 128.08 445.78 125.74 C 446.46 125.85 447.81 126.07 448.49 126.18 C 450.32 127.04 450.72 124.37 448.84 124.27 C 450.37 124.04 451.91 123.78 453.40 123.33 C 463.97 119.58 474.46 115.46 485.32 112.62 C 484.64 113.44 483.97 114.26 483.30 115.08 C 490.53 112.88 497.41 109.68 504.64 107.49 C 508.00 106.13 512.85 105.76 513.51 101.37 M 489.34 116.26 C 488.12 116.52 486.80 117.20 486.23 118.35 C 486.92 120.72 491.91 117.29 489.34 116.26 M 477.17 120.65 C 477.17 121.20 477.17 122.30 477.18 122.85 C 479.32 122.08 482.37 121.67 482.28 118.69 C 480.55 119.31 478.86 119.97 477.17 120.65 Z" />
<path fill="#050505" opacity="0.55" d=" M 514.16 101.74 C 516.47 105.14 515.94 110.37 513.63 113.66 C 508.43 117.28 501.75 117.57 496.01 120.00 C 483.89 124.79 471.28 128.34 459.52 133.98 C 456.08 135.34 452.50 137.33 448.68 136.35 C 448.45 136.04 447.99 135.44 447.76 135.14 C 454.64 135.14 460.68 131.55 466.75 128.81 C 476.27 125.28 485.87 121.98 495.34 118.33 C 500.27 116.39 505.60 115.70 510.45 113.50 C 515.26 111.89 513.94 105.68 514.16 101.74 Z" />
<path fill="#434746" opacity="1.00" d=" M 529.47 110.24 C 532.96 107.84 537.07 106.30 540.04 103.18 C 541.89 103.47 543.73 103.80 545.58 104.19 L 545.36 104.45 C 544.70 105.42 543.83 106.10 542.75 106.48 C 542.63 106.49 542.39 106.51 542.27 106.52 C 538.80 106.33 536.21 108.99 533.20 110.24 C 532.27 110.24 530.40 110.24 529.47 110.24 Z" />
<path fill="#483d3e" opacity="1.00" d=" M 443.52 105.33 C 444.63 104.43 447.34 104.22 447.79 105.90 C 447.11 107.52 443.58 106.96 443.52 105.33 Z" />
<path fill="#1a1a1e" opacity="1.00" d=" M 542.75 106.48 C 543.83 106.10 544.70 105.42 545.36 104.45 C 546.54 106.04 547.53 107.78 547.62 109.83 L 546.71 108.57 L 545.89 107.41 C 542.24 108.27 541.56 112.22 540.30 115.15 C 540.46 115.36 540.77 115.79 540.93 116.00 L 541.34 116.55 C 542.98 121.15 547.55 123.83 550.36 127.68 C 549.99 129.03 549.03 129.77 547.71 130.00 C 545.08 126.18 541.67 122.90 537.90 120.23 C 535.45 119.69 533.93 122.04 532.65 123.69 C 531.95 122.88 531.26 122.07 530.57 121.27 C 528.38 121.49 526.19 121.72 524.02 122.06 C 526.20 120.35 528.67 119.10 531.26 118.12 C 528.65 116.77 525.72 117.49 522.98 117.90 C 526.23 116.17 529.43 114.32 532.44 112.18 C 531.86 112.09 530.70 111.90 530.12 111.81 C 531.14 111.29 532.16 110.76 533.20 110.24 C 536.21 108.99 538.80 106.33 542.27 106.52 C 542.39 106.51 542.63 106.49 542.75 106.48 M 536.30 110.23 C 536.81 110.72 536.81 110.72 536.30 110.23 Z" />
<path fill="#3c3e3f" opacity="1.00" d=" M 439.28 106.36 C 440.68 105.30 442.73 107.54 441.71 108.90 C 440.32 110.07 438.04 107.70 439.28 106.36 Z" />
<path fill="#424445" opacity="1.00" d=" M 447.94 110.18 C 449.56 108.72 451.24 107.31 452.99 106.00 C 453.16 108.84 450.43 110.26 447.94 110.18 Z" />
<path fill="#7b7e80" opacity="1.00" d=" M 542.27 106.52 C 542.39 106.51 542.63 106.49 542.75 106.48 C 542.63 106.49 542.39 106.51 542.27 106.52 Z" />
<path fill="#494a4b" opacity="0.98" d=" M 540.30 115.15 C 541.56 112.22 542.24 108.27 545.89 107.41 L 546.71 108.57 C 547.49 110.58 545.36 111.21 544.41 112.41 C 543.15 113.51 542.47 115.22 540.93 116.00 C 540.77 115.79 540.46 115.36 540.30 115.15 Z" />
<path fill="#222426" opacity="1.00" d=" M 498.71 128.43 C 508.95 122.35 519.05 115.96 529.47 110.24 C 530.40 110.24 532.27 110.24 533.20 110.24 C 532.16 110.76 531.14 111.29 530.12 111.81 C 530.70 111.90 531.86 112.09 532.44 112.18 C 529.43 114.32 526.23 116.17 522.98 117.90 C 525.72 117.49 528.65 116.77 531.26 118.12 C 528.67 119.10 526.20 120.35 524.02 122.06 C 522.43 122.83 520.79 123.48 519.12 124.04 C 520.66 122.96 522.21 121.89 523.75 120.79 C 519.75 119.40 516.24 122.08 512.97 123.97 C 509.44 125.98 506.58 129.02 502.84 130.68 C 500.20 131.87 497.38 133.08 496.01 135.83 C 494.69 134.85 493.39 133.86 492.11 132.85 C 493.50 130.84 494.89 128.82 496.29 126.81 C 497.09 127.34 497.90 127.88 498.71 128.43 Z" />
<path fill="#615d5f" opacity="1.00" d=" M 536.30 110.23 C 536.81 110.72 536.81 110.72 536.30 110.23 Z" />
<path fill="#676869" opacity="1.00" d=" M 447.69 117.01 C 450.44 115.17 453.73 114.50 456.78 113.34 C 456.78 113.94 456.78 115.13 456.78 115.73 C 456.34 115.54 455.45 115.15 455.01 114.96 C 452.64 115.87 450.23 116.72 447.69 117.01 Z" />
<path fill="#101212" opacity="1.00" d=" M 489.34 116.26 C 491.91 117.29 486.92 120.72 486.23 118.35 C 486.80 117.20 488.12 116.52 489.34 116.26 Z" />
<path fill="#6a6b6e" opacity="1.00" d=" M 454.25 119.20 C 454.73 119.71 454.73 119.71 454.25 119.20 Z" />
<path fill="#141819" opacity="1.00" d=" M 477.17 120.65 C 478.86 119.97 480.55 119.31 482.28 118.69 C 482.37 121.67 479.32 122.08 477.18 122.85 C 477.17 122.30 477.17 121.20 477.17 120.65 Z" />
<path fill="#35373a" opacity="1.00" d=" M 512.97 123.97 C 516.24 122.08 519.75 119.40 523.75 120.79 C 522.21 121.89 520.66 122.96 519.12 124.04 C 520.79 123.48 522.43 122.83 524.02 122.06 C 526.19 121.72 528.38 121.49 530.57 121.27 C 531.26 122.07 531.95 122.88 532.65 123.69 C 533.79 123.50 534.94 123.30 536.10 123.09 C 539.45 126.21 541.57 130.72 545.99 132.59 L 547.09 133.22 C 546.34 133.63 544.85 134.46 544.10 134.88 C 540.82 133.67 538.98 130.53 536.92 127.93 C 535.76 126.18 533.90 125.10 531.87 124.68 C 528.97 123.84 525.87 124.29 523.05 125.19 C 522.05 125.53 521.07 125.89 520.09 126.25 C 519.10 126.59 518.12 126.93 517.15 127.27 C 515.41 127.78 513.76 128.55 512.12 129.29 C 511.10 129.53 510.12 129.88 509.19 130.33 C 504.95 132.46 500.89 135.58 496.01 135.83 C 497.38 133.08 500.20 131.87 502.84 130.68 C 506.58 129.02 509.44 125.98 512.97 123.97 Z" />
<path fill="#2b2c2f" opacity="1.00" d=" M 532.65 123.69 C 533.93 122.04 535.45 119.69 537.90 120.23 C 541.67 122.90 545.08 126.18 547.71 130.00 C 549.03 129.77 549.99 129.03 550.36 127.68 C 550.67 128.14 551.28 129.07 551.59 129.54 C 552.67 129.69 553.76 129.85 554.86 130.01 C 556.19 128.30 557.44 126.50 558.03 124.37 C 558.54 125.01 559.06 125.64 559.59 126.28 C 559.21 126.93 558.45 128.23 558.08 128.88 C 556.95 129.98 555.91 131.17 555.04 132.48 C 552.02 132.54 549.00 132.62 545.99 132.59 C 541.57 130.72 539.45 126.21 536.10 123.09 C 534.94 123.30 533.79 123.50 532.65 123.69 Z" />
<path fill="#ffffff" opacity="1.00" d=" M 447.24 124.51 C 447.64 124.45 448.44 124.33 448.84 124.27 C 450.72 124.37 450.32 127.04 448.49 126.18 C 448.17 125.76 447.55 124.93 447.24 124.51 Z" />
<path fill="#19191a" opacity="0.55" d=" M 531.87 124.68 C 533.90 125.10 535.76 126.18 536.92 127.93 C 535.23 126.88 532.39 126.99 531.87 124.68 Z" />
<path fill="#ffffff" opacity="1.00" d=" M 50.64 292.50 C 54.68 292.49 58.73 292.53 62.78 292.45 C 64.56 305.62 66.08 318.82 67.75 332.00 C 64.84 332.00 61.93 332.00 59.03 332.00 C 58.87 329.62 58.72 327.25 58.58 324.87 C 57.82 324.87 56.30 324.87 55.55 324.87 C 55.40 327.25 55.25 329.62 55.10 332.00 C 52.15 332.00 49.20 332.00 46.26 332.00 C 47.71 318.83 49.19 305.67 50.64 292.50 M 56.71 301.99 C 56.67 307.30 55.81 312.57 55.44 317.86 C 56.40 317.85 57.36 317.83 58.32 317.82 C 57.94 312.32 57.12 306.82 57.54 301.30 C 57.33 301.47 56.92 301.82 56.71 301.99 Z" />
<path fill="#ffffff" opacity="1.00" d=" M 69.11 297.04 C 71.01 290.86 79.75 290.19 84.37 293.61 C 87.73 296.08 86.92 300.74 87.17 304.37 C 84.54 304.37 81.91 304.37 79.29 304.38 C 78.94 302.37 80.03 299.54 78.08 298.16 C 75.69 299.25 76.31 302.75 77.16 304.70 C 80.43 308.34 85.83 310.46 87.23 315.56 C 88.05 319.64 88.31 324.04 87.07 328.07 C 84.02 334.56 72.93 334.55 69.80 328.12 C 68.52 324.87 68.80 321.29 68.73 317.88 C 71.36 317.87 73.99 317.87 76.62 317.87 C 76.73 320.49 76.26 323.22 77.05 325.77 C 79.54 327.39 80.05 323.49 79.76 321.91 C 80.11 317.30 75.22 315.40 72.48 312.63 C 67.77 309.02 68.01 302.27 69.11 297.04 Z" />
<path fill="#ffffff" opacity="1.00" d=" M 89.25 292.49 C 95.45 292.49 101.65 292.52 107.85 292.48 C 107.88 295.12 107.88 297.76 107.84 300.40 C 106.14 300.38 104.45 300.37 102.75 300.37 C 102.76 310.90 102.72 321.44 102.77 331.98 C 99.93 332.00 97.08 332.00 94.24 331.99 C 94.26 321.45 94.25 310.91 94.25 300.37 C 92.58 300.37 90.92 300.38 89.26 300.39 C 89.25 297.75 89.25 295.12 89.25 292.49 Z" />
<path fill="#ffffff" opacity="1.00" d=" M 109.74 292.51 C 114.44 292.47 119.14 292.52 123.84 292.47 C 123.88 295.11 123.88 297.74 123.87 300.38 C 122.00 300.37 120.13 300.37 118.26 300.37 C 118.25 302.87 118.25 305.37 118.25 307.87 C 120.00 307.87 121.75 307.87 123.50 307.88 C 123.50 310.37 123.50 312.87 123.50 315.38 C 121.75 315.37 120.00 315.37 118.26 315.37 C 118.24 318.30 118.24 321.23 118.27 324.16 C 120.35 324.13 122.42 324.11 124.50 324.11 C 124.50 326.74 124.50 329.37 124.50 332.00 C 119.58 332.00 114.67 332.00 109.75 332.00 C 109.74 318.84 109.76 305.68 109.74 292.51 Z" />
<path fill="#ffff00" opacity="1.00" d=" M 157.34 295.34 C 160.35 290.77 167.35 290.61 171.62 293.42 C 175.22 295.79 174.44 300.67 174.67 304.37 C 172.04 304.37 169.42 304.37 166.80 304.38 C 166.67 302.39 167.03 300.30 166.21 298.43 C 163.15 298.03 163.75 302.70 164.56 304.52 C 167.62 308.23 172.88 310.16 174.56 314.99 C 175.60 319.37 175.90 324.17 174.41 328.47 C 171.09 334.37 161.06 334.41 157.56 328.66 C 155.96 325.31 156.32 321.48 156.23 317.88 C 158.86 317.87 161.49 317.87 164.12 317.88 C 164.38 320.63 163.41 323.80 165.00 326.26 C 168.32 325.90 167.26 321.36 166.81 319.03 C 164.07 314.65 157.93 312.91 156.55 307.55 C 155.74 303.56 155.54 299.10 157.34 295.34 Z" />
<path fill="#ffff00" opacity="1.00" d=" M 198.35 295.32 C 201.35 290.80 208.26 290.63 212.53 293.36 C 216.22 295.70 215.44 300.63 215.67 304.37 C 213.04 304.37 210.42 304.37 207.80 304.38 C 207.67 302.37 208.03 300.24 207.18 298.36 C 204.12 298.21 204.78 302.66 205.56 304.52 C 208.61 308.22 213.86 310.15 215.55 314.97 C 216.60 319.38 216.92 324.24 215.36 328.57 C 211.96 334.37 202.02 334.39 198.55 328.64 C 196.96 325.30 197.32 321.47 197.23 317.88 C 199.86 317.87 202.49 317.87 205.12 317.88 C 205.34 320.61 204.50 323.67 205.89 326.19 C 209.34 326.12 208.27 321.36 207.82 319.07 C 205.13 314.68 199.01 312.96 197.58 307.66 C 196.73 303.63 196.52 299.11 198.35 295.32 Z" />
<path fill="#ffffff" opacity="1.00" d=" M 18.75 292.50 C 22.41 292.50 26.07 292.49 29.74 292.51 C 30.33 298.67 31.53 304.79 31.64 310.99 C 32.90 304.90 33.10 298.66 33.90 292.50 C 37.56 292.50 41.22 292.49 44.88 292.50 C 44.87 305.67 44.87 318.83 44.88 332.00 C 42.42 332.00 39.96 332.00 37.50 332.00 C 37.52 323.30 37.44 314.60 37.58 305.91 C 36.25 314.54 35.50 323.25 34.55 331.92 C 32.78 331.97 31.01 332.00 29.24 332.02 C 28.31 323.35 27.00 314.72 26.52 306.01 C 25.82 314.66 26.24 323.34 26.13 332.00 C 23.67 332.00 21.21 332.00 18.75 332.00 C 18.75 318.83 18.75 305.67 18.75 292.50 Z" />
<path fill="#ffffff" opacity="1.00" d=" M 126.75 292.50 C 131.67 292.64 136.71 292.03 141.53 293.28 C 146.31 295.86 145.78 302.27 145.42 306.89 C 145.50 309.39 143.44 310.86 141.36 311.64 C 143.96 311.99 145.57 314.48 145.54 316.97 C 145.75 321.97 145.54 326.97 145.65 331.97 C 143.01 332.00 140.38 332.00 137.75 332.00 C 137.50 326.27 138.28 320.44 137.31 314.78 C 136.81 314.54 135.82 314.05 135.32 313.80 C 135.17 319.87 135.28 325.93 135.25 332.00 C 132.42 332.00 129.58 332.00 126.75 332.00 C 126.75 318.83 126.75 305.67 126.75 292.50 M 135.35 298.90 C 135.21 302.02 135.23 305.15 135.28 308.28 C 136.23 307.77 137.84 307.72 137.64 306.22 C 137.71 303.68 138.76 299.66 135.35 298.90 Z" />
<path fill="#ffff00" opacity="1.00" d=" M 176.25 292.50 C 178.87 292.49 181.48 292.50 184.10 292.50 C 184.97 297.39 185.20 302.39 186.39 307.23 C 186.82 302.28 187.70 297.40 188.51 292.51 C 191.13 292.49 193.75 292.49 196.37 292.50 C 194.41 300.63 192.27 308.72 190.37 316.87 C 189.81 321.88 190.27 326.96 190.12 332.00 C 187.49 332.00 184.87 332.00 182.24 331.99 C 182.01 325.67 183.02 319.18 181.15 313.03 C 179.49 306.19 177.88 299.34 176.25 292.50 Z" />
<path fill="#ffff00" opacity="1.00" d=" M 217.75 292.50 C 223.96 292.50 230.17 292.50 236.38 292.50 C 236.37 295.12 236.38 297.75 236.37 300.38 C 234.66 300.37 232.96 300.37 231.26 300.37 C 231.24 310.91 231.26 321.46 231.25 332.00 C 228.41 332.00 225.58 332.00 222.75 332.00 C 222.74 321.46 222.76 310.91 222.74 300.37 C 221.08 300.37 219.41 300.37 217.75 300.38 C 217.75 297.75 217.75 295.12 217.75 292.50 Z" />
<path fill="#ffff00" opacity="1.00" d=" M 238.22 292.54 C 242.93 292.46 247.65 292.51 252.37 292.50 C 252.37 295.12 252.37 297.74 252.37 300.37 C 250.49 300.37 248.61 300.38 246.73 300.39 C 246.74 302.89 246.75 305.41 246.79 307.92 C 248.52 307.89 250.26 307.87 252.00 307.86 C 252.00 310.36 252.00 312.86 252.01 315.36 C 250.25 315.37 248.50 315.37 246.75 315.39 C 246.75 318.30 246.75 321.21 246.75 324.12 C 248.83 324.12 250.91 324.12 253.00 324.12 C 253.00 326.74 253.00 329.37 253.00 332.00 C 248.07 331.99 243.15 332.02 238.23 331.97 C 238.26 318.83 238.28 305.68 238.22 292.54 Z" />
<path fill="#ffff00" opacity="1.00" d=" M 255.23 331.98 C 255.33 318.80 255.12 305.62 255.34 292.44 C 258.97 292.52 262.60 292.50 266.23 292.50 C 266.97 298.44 267.58 304.40 268.41 310.33 C 269.24 304.40 269.71 298.44 270.40 292.50 C 274.06 292.49 277.72 292.50 281.37 292.50 C 281.38 305.67 281.38 318.83 281.38 332.00 C 278.91 332.00 276.46 332.00 274.00 332.00 C 273.87 323.31 274.38 314.59 273.45 305.94 C 273.16 314.67 271.90 323.32 270.99 331.99 C 269.24 332.00 267.50 332.00 265.76 332.01 C 264.56 323.36 264.04 314.61 262.40 306.02 C 262.84 314.68 262.53 323.34 262.62 332.00 C 260.15 332.00 257.69 332.00 255.23 331.98 Z" />
</svg>
