<?xml version="1.0" encoding="UTF-8" ?>
<!DOCTYPE svg PUBLIC "-//W3C//DTD SVG 1.1//EN" "http://www.w3.org/Graphics/SVG/1.1/DTD/svg11.dtd">
<svg width="960pt" height="540pt" viewBox="0 0 960 540" version="1.1" xmlns="http://www.w3.org/2000/svg">
<path fill="#646462" opacity="1.00" d=" M 464.42 52.38 C 470.06 48.43 475.39 44.01 481.10 40.18 C 488.01 41.21 494.86 42.73 501.73 44.03 C 499.65 45.97 497.50 47.83 495.30 49.62 C 496.61 49.83 497.93 50.05 499.26 50.26 C 498.57 51.55 497.89 52.85 497.22 54.14 C 491.48 52.07 485.29 51.95 479.61 54.30 C 479.55 54.85 479.42 55.95 479.35 56.51 C 478.23 55.64 477.17 54.72 476.11 53.81 C 475.96 52.38 475.82 50.96 475.68 49.53 C 475.37 50.77 475.08 52.00 474.78 53.24 C 473.39 53.96 471.13 53.99 470.91 55.92 C 471.11 60.35 473.83 64.02 477.39 66.46 C 471.44 64.59 466.03 61.28 459.93 59.89 C 457.23 59.79 454.53 59.82 451.85 59.91 C 456.88 59.09 460.39 55.13 464.42 52.38 M 480.29 42.15 C 477.43 43.74 481.37 45.14 482.46 43.20 C 483.72 41.74 481.06 41.27 480.29 42.15 M 461.66 57.74 C 464.12 58.61 466.65 59.28 469.22 59.71 C 468.82 57.57 467.39 55.93 465.91 54.43 C 464.48 55.52 463.06 56.63 461.66 57.74 Z" />
<path fill="#474746" opacity="1.00" d=" M 480.29 42.15 C 481.06 41.27 483.72 41.74 482.46 43.20 C 481.37 45.14 477.43 43.74 480.29 42.15 Z" />
<path fill="#5b5b5a" opacity="1.00" d=" M 501.73 44.03 C 510.26 46.02 518.51 49.07 527.01 51.20 C 526.08 53.47 525.37 55.82 525.02 58.25 C 527.30 56.66 529.31 54.73 531.02 52.53 C 531.65 52.72 532.93 53.09 533.56 53.28 C 525.84 59.46 519.07 66.71 511.74 73.33 C 511.30 73.56 510.42 74.03 509.98 74.26 C 505.25 72.87 500.50 71.52 495.66 70.55 C 497.19 69.88 498.73 69.19 500.30 68.58 C 500.57 68.54 501.12 68.46 501.39 68.42 C 504.07 69.19 506.69 70.88 509.54 70.68 C 511.00 69.68 512.21 68.38 513.48 67.15 C 512.52 67.06 510.59 66.89 509.62 66.80 C 514.62 63.19 519.58 59.46 523.75 54.88 C 522.47 53.80 521.19 52.75 519.86 51.76 C 519.11 51.23 518.36 50.70 517.61 50.17 C 514.59 54.63 510.52 58.98 504.94 59.88 C 496.38 61.25 487.09 60.71 479.35 56.51 C 479.42 55.95 479.55 54.85 479.61 54.30 C 485.29 51.95 491.48 52.07 497.22 54.14 C 497.89 52.85 498.57 51.55 499.26 50.26 C 497.93 50.05 496.61 49.83 495.30 49.62 C 497.50 47.83 499.65 45.97 501.73 44.03 Z" />
<path fill="#3d3b3b" opacity="1.00" d=" M 474.78 53.24 C 475.08 52.00 475.37 50.77 475.68 49.53 C 475.82 50.96 475.96 52.38 476.11 53.81 C 477.17 54.72 478.23 55.64 479.35 56.51 C 487.09 60.71 496.38 61.25 504.94 59.88 C 510.52 58.98 514.59 54.63 517.61 50.17 C 518.36 50.70 519.11 51.23 519.86 51.76 C 516.60 55.53 512.77 58.76 508.56 61.40 C 505.40 61.19 502.23 61.35 499.11 61.83 C 499.16 63.75 499.20 65.66 499.24 67.58 C 496.96 67.95 494.64 67.99 492.34 67.96 C 492.73 65.95 493.14 63.94 493.56 61.93 C 489.89 61.10 486.17 59.81 482.38 60.43 C 481.41 62.02 480.73 63.76 479.98 65.46 C 482.21 66.27 484.42 67.14 486.73 67.71 C 491.16 68.81 495.77 68.73 500.30 68.58 C 498.73 69.19 497.19 69.88 495.66 70.55 C 500.50 71.52 505.25 72.87 509.98 74.26 C 509.87 76.23 509.90 78.20 509.92 80.17 C 510.42 79.85 511.40 79.22 511.90 78.90 C 511.85 77.04 511.79 75.19 511.74 73.33 C 519.07 66.71 525.84 59.46 533.56 53.28 C 533.90 57.38 533.82 61.50 533.60 65.61 C 533.22 65.63 532.45 65.66 532.07 65.68 C 530.50 67.67 528.75 69.50 527.07 71.39 C 526.00 71.65 524.93 71.91 523.88 72.16 C 524.38 72.31 525.37 72.59 525.87 72.73 C 530.94 75.30 536.74 75.95 542.05 77.95 L 541.56 79.42 C 539.08 78.70 536.63 77.71 534.03 77.54 C 531.64 78.12 529.61 79.64 527.50 80.85 C 523.37 80.12 518.96 79.15 514.90 80.73 C 506.42 85.40 498.06 90.32 489.60 95.04 C 491.66 97.25 493.68 99.48 495.69 101.73 C 493.79 103.22 491.89 104.71 490.00 106.20 C 490.83 107.34 491.65 108.50 492.47 109.66 L 491.15 108.90 C 488.47 106.08 485.35 103.68 481.65 102.36 C 480.60 101.89 479.56 101.41 478.52 100.93 C 478.60 104.47 479.10 108.16 477.98 111.59 C 477.49 111.92 476.49 112.58 476.00 112.91 C 475.32 107.99 475.71 103.02 475.82 98.08 C 484.39 93.55 492.84 88.78 501.58 84.59 C 502.39 84.14 503.21 83.68 504.03 83.23 C 499.30 81.81 494.71 79.94 489.92 78.70 C 490.68 77.72 491.44 76.74 492.20 75.75 C 489.63 74.97 487.05 74.19 484.43 73.58 C 485.32 74.87 486.20 76.17 487.07 77.47 C 486.27 77.32 484.67 77.01 483.87 76.85 C 483.23 76.71 481.97 76.41 481.34 76.27 C 481.67 74.78 482.00 73.29 482.33 71.81 C 479.89 70.96 477.44 70.15 474.98 69.36 C 473.74 70.52 472.50 71.67 471.26 72.83 C 470.88 72.49 470.14 71.82 469.76 71.49 C 468.91 71.54 468.06 71.60 467.22 71.65 C 465.96 67.09 463.26 63.18 459.93 59.89 C 466.03 61.28 471.44 64.59 477.39 66.46 C 473.83 64.02 471.11 60.35 470.91 55.92 C 471.13 53.99 473.39 53.96 474.78 53.24 M 481.23 100.99 C 483.55 100.56 487.83 102.42 488.35 99.01 C 485.90 99.00 482.31 97.92 481.23 100.99 Z" />
<path fill="#464645" opacity="0.94" d=" M 527.01 51.20 C 528.39 51.58 529.77 51.97 531.16 52.36 L 531.02 52.53 C 529.31 54.73 527.30 56.66 525.02 58.25 C 525.37 55.82 526.08 53.47 527.01 51.20 Z" />
<path fill="#272526" opacity="1.00" d=" M 519.86 51.76 C 521.19 52.75 522.47 53.80 523.75 54.88 C 519.58 59.46 514.62 63.19 509.62 66.80 C 506.82 67.05 504.10 67.76 501.39 68.42 C 501.12 68.46 500.57 68.54 500.30 68.58 C 495.77 68.73 491.16 68.81 486.73 67.71 C 488.59 67.84 490.47 67.91 492.34 67.96 C 494.64 67.99 496.96 67.95 499.24 67.58 C 502.40 66.95 505.54 66.23 508.71 65.62 C 508.65 64.21 508.59 62.81 508.56 61.40 C 512.77 58.76 516.60 55.53 519.86 51.76 Z" />
<path fill="#acacaa" opacity="1.00" d=" M 461.66 57.74 C 463.06 56.63 464.48 55.52 465.91 54.43 C 467.39 55.93 468.82 57.57 469.22 59.71 C 466.65 59.28 464.12 58.61 461.66 57.74 Z" />
<path fill="#1f1e1e" opacity="1.00" d=" M 444.02 63.41 C 446.60 62.20 449.09 60.70 451.85 59.91 C 454.53 59.82 457.23 59.79 459.93 59.89 C 463.26 63.18 465.96 67.09 467.22 71.65 C 468.06 71.60 468.91 71.54 469.76 71.49 C 470.14 71.82 470.88 72.49 471.26 72.83 C 472.50 71.67 473.74 70.52 474.98 69.36 C 477.44 70.15 479.89 70.96 482.33 71.81 C 482.00 73.29 481.67 74.78 481.34 76.27 C 472.33 76.19 465.85 83.97 456.98 84.28 C 455.42 84.41 453.86 84.53 452.31 84.63 C 451.63 82.84 451.00 81.03 450.44 79.20 C 447.59 80.37 444.65 81.32 441.60 81.79 C 441.52 82.33 441.46 82.87 441.40 83.41 C 438.45 83.38 435.09 84.25 432.56 82.29 C 427.37 79.33 426.32 71.40 429.86 66.86 C 432.08 64.20 435.82 64.39 438.91 63.63 C 440.18 63.60 441.42 63.78 442.62 64.18 C 442.76 64.88 442.84 65.58 442.86 66.29 C 443.29 66.77 444.13 67.74 444.56 68.22 C 444.09 68.32 443.15 68.51 442.68 68.61 C 442.24 68.72 441.37 68.93 440.93 69.04 C 440.61 68.67 439.98 67.93 439.66 67.56 L 439.64 67.54 L 439.51 67.56 L 439.48 67.58 C 439.09 67.98 438.32 68.76 437.93 69.15 C 436.50 70.79 434.29 70.99 432.30 71.41 C 432.73 70.02 433.17 68.63 433.64 67.26 C 429.61 67.31 428.80 71.86 428.75 75.05 C 429.27 76.61 430.40 77.86 431.37 79.16 C 434.82 78.50 438.38 80.00 441.75 78.72 C 444.57 77.85 447.37 76.87 450.26 76.20 C 454.03 75.40 458.07 75.33 461.59 73.65 C 464.49 71.70 463.63 68.05 462.24 65.47 C 461.86 65.61 461.11 65.91 460.73 66.05 C 459.66 65.07 458.60 64.09 457.53 63.11 C 457.25 62.86 456.70 62.36 456.42 62.11 C 455.18 60.17 452.14 61.61 453.11 63.78 C 451.16 63.44 449.23 63.81 447.60 64.94 C 446.41 64.40 445.21 63.89 444.02 63.41 M 435.10 66.22 C 433.51 69.19 438.41 66.44 435.10 66.22 M 464.92 73.41 C 463.84 74.79 462.74 76.14 461.58 77.44 C 460.38 77.56 459.19 77.69 458.01 77.83 C 456.50 78.15 455.00 78.46 453.50 78.74 C 453.43 80.09 453.38 81.44 453.33 82.78 C 460.33 83.37 469.71 81.23 472.14 73.71 C 469.73 73.56 467.32 73.46 464.92 73.41 Z" />
<path fill="#777776" opacity="1.00" d=" M 482.38 60.43 C 486.17 59.81 489.89 61.10 493.56 61.93 C 493.14 63.94 492.73 65.95 492.34 67.96 C 490.47 67.91 488.59 67.84 486.73 67.71 C 484.42 67.14 482.21 66.27 479.98 65.46 C 480.73 63.76 481.41 62.02 482.38 60.43 M 484.12 62.38 C 483.06 63.13 483.95 65.76 485.19 64.32 C 486.22 63.55 485.37 60.97 484.12 62.38 Z" />
<path fill="#546b95" opacity="1.00" d=" M 453.11 63.78 C 452.14 61.61 455.18 60.17 456.42 62.11 C 456.24 63.73 454.43 64.11 453.11 63.78 Z" />
<path fill="#5e5f5d" opacity="1.00" d=" M 499.11 61.83 C 502.23 61.35 505.40 61.19 508.56 61.40 C 508.59 62.81 508.65 64.21 508.71 65.62 C 505.54 66.23 502.40 66.95 499.24 67.58 C 499.20 65.66 499.16 63.75 499.11 61.83 Z" />
<path fill="#3a3a3a" opacity="1.00" d=" M 456.42 62.11 C 456.70 62.36 457.25 62.86 457.53 63.11 C 457.39 63.59 457.10 64.54 456.95 65.02 C 456.40 65.67 455.84 66.31 455.28 66.94 C 454.54 66.37 453.80 65.81 453.06 65.26 C 451.87 63.73 449.97 65.23 450.04 66.78 C 448.82 68.82 447.27 70.63 445.74 72.42 C 445.92 73.55 446.10 74.67 446.28 75.79 C 447.60 75.94 448.92 76.08 450.26 76.20 C 447.37 76.87 444.57 77.85 441.75 78.72 C 438.38 80.00 434.82 78.50 431.37 79.16 C 431.48 77.40 431.57 75.65 431.65 73.90 C 432.06 73.81 432.89 73.62 433.30 73.52 C 433.82 73.90 434.88 74.65 435.40 75.02 L 435.34 75.40 L 435.59 75.53 L 435.89 75.29 C 436.72 75.25 438.40 75.17 439.24 75.14 C 437.49 76.94 441.04 77.28 440.15 75.12 C 440.35 74.80 440.75 74.17 440.95 73.85 C 442.45 74.40 442.87 73.94 442.22 72.48 C 442.27 72.22 442.36 71.72 442.41 71.46 C 442.48 70.75 442.61 69.33 442.68 68.61 C 443.15 68.51 444.09 68.32 444.56 68.22 C 445.07 68.10 445.57 67.95 446.09 67.82 C 446.63 66.88 447.09 65.90 447.60 64.94 C 449.23 63.81 451.16 63.44 453.11 63.78 C 454.43 64.11 456.24 63.73 456.42 62.11 Z" />
<path fill="#3d3c3c" opacity="1.00" d=" M 484.12 62.38 C 485.37 60.97 486.22 63.55 485.19 64.32 C 483.95 65.76 483.06 63.13 484.12 62.38 Z" />
<path fill="#777776" opacity="1.00" d=" M 438.91 63.63 C 440.59 63.39 442.32 62.97 444.02 63.41 C 445.21 63.89 446.41 64.40 447.60 64.94 C 447.09 65.90 446.63 66.88 446.09 67.82 C 445.57 67.95 445.07 68.10 444.56 68.22 C 444.13 67.74 443.29 66.77 442.86 66.29 C 442.84 65.58 442.76 64.88 442.62 64.18 C 441.42 63.78 440.18 63.60 438.91 63.63 Z" />
<path fill="#a79751" opacity="1.00" d=" M 456.95 65.02 C 457.10 64.54 457.39 63.59 457.53 63.11 C 458.60 64.09 459.66 65.07 460.73 66.05 C 459.46 66.51 458.19 66.96 456.92 67.40 C 456.93 66.80 456.94 65.61 456.95 65.02 Z" />
<path fill="#68a471" opacity="1.00" d=" M 450.04 66.78 C 449.97 65.23 451.87 63.73 453.06 65.26 C 453.66 67.06 451.19 67.86 450.04 66.78 Z" />
<path fill="#484747" opacity="1.00" d=" M 453.06 65.26 C 453.80 65.81 454.54 66.37 455.28 66.94 C 455.84 66.31 456.40 65.67 456.95 65.02 C 456.94 65.61 456.93 66.80 456.92 67.40 C 458.19 66.96 459.46 66.51 460.73 66.05 C 461.11 65.91 461.86 65.61 462.24 65.47 C 463.63 68.05 464.49 71.70 461.59 73.65 C 458.07 75.33 454.03 75.40 450.26 76.20 C 448.92 76.08 447.60 75.94 446.28 75.79 C 446.10 74.67 445.92 73.55 445.74 72.42 C 447.27 70.63 448.82 68.82 450.04 66.78 C 451.19 67.86 453.66 67.06 453.06 65.26 M 454.23 68.11 C 453.09 69.59 455.69 71.13 456.70 69.75 C 457.82 68.28 455.22 66.72 454.23 68.11 Z" />
<path fill="#6f6f6e" opacity="1.00" d=" M 435.10 66.22 C 438.41 66.44 433.51 69.19 435.10 66.22 Z" />
<path fill="#696867" opacity="1.00" d=" M 428.75 75.05 C 428.80 71.86 429.61 67.31 433.64 67.26 C 433.17 68.63 432.73 70.02 432.30 71.41 C 434.29 70.99 436.50 70.79 437.93 69.15 C 438.41 69.47 439.38 70.10 439.86 70.41 C 439.72 70.93 439.43 71.97 439.29 72.49 C 438.22 72.02 437.14 71.56 436.07 71.10 C 435.16 71.92 434.23 72.73 433.30 73.52 C 432.89 73.62 432.06 73.81 431.65 73.90 C 431.57 75.65 431.48 77.40 431.37 79.16 C 430.40 77.86 429.27 76.61 428.75 75.05 M 432.53 72.25 C 432.75 72.50 432.75 72.50 432.53 72.25 Z" />
<path fill="#7d7c7b" opacity="1.00" d=" M 439.51 67.56 L 439.64 67.54 L 439.66 67.56 L 439.48 67.58 L 439.51 67.56 Z" />
<path fill="#aaaaa9" opacity="1.00" d=" M 501.39 68.42 C 504.10 67.76 506.82 67.05 509.62 66.80 C 510.59 66.89 512.52 67.06 513.48 67.15 C 512.21 68.38 511.00 69.68 509.54 70.68 C 506.69 70.88 504.07 69.19 501.39 68.42 Z" />
<path fill="#131212" opacity="1.00" d=" M 437.93 69.15 C 438.32 68.76 439.09 67.98 439.48 67.58 L 439.66 67.56 C 439.98 67.93 440.61 68.67 440.93 69.04 C 441.30 69.65 442.04 70.86 442.41 71.46 C 442.36 71.72 442.27 72.22 442.22 72.48 C 441.90 72.82 441.27 73.51 440.95 73.85 C 440.75 74.17 440.35 74.80 440.15 75.12 L 439.24 75.14 C 438.40 75.17 436.72 75.25 435.89 75.29 L 435.40 75.02 C 434.88 74.65 433.82 73.90 433.30 73.52 C 434.23 72.73 435.16 71.92 436.07 71.10 C 437.14 71.56 438.22 72.02 439.29 72.49 C 439.43 71.97 439.72 70.93 439.86 70.41 C 439.38 70.10 438.41 69.47 437.93 69.15 Z" />
<path fill="#b97059" opacity="1.00" d=" M 454.23 68.11 C 455.22 66.72 457.82 68.28 456.70 69.75 C 455.69 71.13 453.09 69.59 454.23 68.11 Z" />
<path fill="#515050" opacity="1.00" d=" M 440.93 69.04 C 441.37 68.93 442.24 68.72 442.68 68.61 C 442.61 69.33 442.48 70.75 442.41 71.46 C 442.04 70.86 441.30 69.65 440.93 69.04 Z" />
<path fill="#abacab" opacity="1.00" d=" M 432.53 72.25 C 432.75 72.50 432.75 72.50 432.53 72.25 Z" />
<path fill="#6b6a69" opacity="1.00" d=" M 440.95 73.85 C 441.27 73.51 441.90 72.82 442.22 72.48 C 442.87 73.94 442.45 74.40 440.95 73.85 Z" />
<path fill="#171616" opacity="0.96" d=" M 484.43 73.58 C 487.05 74.19 489.63 74.97 492.20 75.75 C 491.44 76.74 490.68 77.72 489.92 78.70 C 487.88 78.13 485.88 77.47 483.87 76.85 C 484.67 77.01 486.27 77.32 487.07 77.47 C 486.20 76.17 485.32 74.87 484.43 73.58 Z" />
<path fill="#201f20" opacity="1.00" d=" M 509.98 74.26 C 510.42 74.03 511.30 73.56 511.74 73.33 C 511.79 75.19 511.85 77.04 511.90 78.90 C 511.40 79.22 510.42 79.85 509.92 80.17 C 509.90 78.20 509.87 76.23 509.98 74.26 Z" />
<path fill="#999897" opacity="1.00" d=" M 435.40 75.02 L 435.89 75.29 L 435.59 75.53 L 435.34 75.40 L 435.40 75.02 Z" />
<path fill="#91918f" opacity="1.00" d=" M 439.24 75.14 L 440.15 75.12 C 441.04 77.28 437.49 76.94 439.24 75.14 Z" />
<path fill="#050404" opacity="0.46" d=" M 456.98 84.28 C 465.85 83.97 472.33 76.19 481.34 76.27 C 481.97 76.41 483.23 76.71 483.87 76.85 C 485.88 77.47 487.88 78.13 489.92 78.70 C 494.71 79.94 499.30 81.81 504.03 83.23 C 503.21 83.68 502.39 84.14 501.58 84.59 C 495.98 80.77 489.11 80.00 482.76 78.10 C 475.75 77.05 470.49 82.79 464.42 85.14 C 460.54 86.28 455.67 87.66 452.31 84.63 C 453.86 84.53 455.42 84.41 456.98 84.28 Z" />
<path fill="#1d1c1d" opacity="1.00" d=" M 527.50 80.85 C 529.61 79.64 531.64 78.12 534.03 77.54 C 536.63 77.71 539.08 78.70 541.56 79.42 C 550.50 82.17 559.34 85.21 568.17 88.27 C 565.60 89.77 562.92 92.73 559.70 91.30 C 550.92 88.57 542.74 84.03 533.69 82.15 C 531.63 81.70 529.57 81.26 527.50 80.85 Z" />
<path fill="#363334" opacity="1.00" d=" M 542.05 77.95 C 556.56 82.19 571.03 86.72 585.05 92.40 L 584.18 92.88 C 581.06 94.80 577.79 96.55 575.07 99.02 C 573.82 99.97 574.04 101.66 573.92 103.03 C 573.82 106.88 574.11 110.74 574.27 114.59 C 572.92 115.56 571.56 116.51 570.21 117.47 C 570.00 112.71 569.88 107.96 569.83 103.20 C 569.23 103.23 568.03 103.28 567.43 103.31 C 567.82 107.66 568.00 112.07 567.34 116.41 C 566.29 112.97 566.05 109.36 566.00 105.79 C 565.41 105.84 564.22 105.94 563.62 105.99 C 564.27 111.16 564.52 116.37 564.45 121.58 C 557.37 126.96 549.78 131.63 542.68 136.98 C 541.73 132.39 541.56 127.69 541.71 123.01 C 537.32 121.83 532.77 121.54 528.34 120.58 C 525.68 119.52 523.05 118.37 520.37 117.37 C 520.94 116.89 521.52 116.41 522.10 115.94 C 528.06 114.92 534.13 115.71 540.12 115.15 C 541.41 114.86 542.76 114.61 543.91 113.90 C 551.73 108.57 559.57 103.27 567.41 97.94 C 564.26 95.80 561.23 92.95 557.35 92.35 C 551.15 95.89 544.00 97.08 537.87 100.76 C 537.88 99.54 535.38 97.90 535.24 99.78 C 535.52 100.13 536.08 100.84 536.36 101.20 C 534.51 102.93 532.22 104.03 529.84 104.81 C 529.91 105.66 530.00 106.52 530.10 107.38 C 520.08 106.27 510.43 102.88 501.72 97.87 C 502.92 97.31 504.11 96.71 505.30 96.12 C 509.14 96.75 513.12 97.96 516.93 96.46 C 521.45 94.93 526.26 95.26 530.95 95.07 C 527.26 92.79 523.19 91.27 519.21 89.60 C 520.29 89.35 521.36 89.10 522.45 88.84 C 523.71 83.68 529.58 83.60 533.69 82.15 C 542.74 84.03 550.92 88.57 559.70 91.30 C 562.92 92.73 565.60 89.77 568.17 88.27 C 559.34 85.21 550.50 82.17 541.56 79.42 L 542.05 77.95 M 525.28 89.68 L 525.12 90.74 C 527.17 91.36 529.23 91.96 531.33 92.44 C 529.48 91.18 527.39 90.36 525.28 89.68 Z" />
<path fill="#4d4a4b" opacity="1.00" d=" M 514.90 80.73 C 518.96 79.15 523.37 80.12 527.50 80.85 C 529.57 81.26 531.63 81.70 533.69 82.15 C 529.58 83.60 523.71 83.68 522.45 88.84 C 521.36 89.10 520.29 89.35 519.21 89.60 C 523.19 91.27 527.26 92.79 530.95 95.07 C 526.26 95.26 521.45 94.93 516.93 96.46 C 513.12 97.96 509.14 96.75 505.30 96.12 C 502.78 95.71 500.25 95.39 497.70 95.25 C 505.16 89.73 513.92 86.36 521.43 80.95 C 519.25 80.83 517.07 80.71 514.90 80.73 Z" />
<path fill="#5c5a5b" opacity="1.00" d=" M 489.60 95.04 C 498.06 90.32 506.42 85.40 514.90 80.73 C 517.07 80.71 519.25 80.83 521.43 80.95 C 513.92 86.36 505.16 89.73 497.70 95.25 C 495.00 95.13 492.30 95.11 489.60 95.04 Z" />
<path fill="#aaaaa9" opacity="1.00" d=" M 525.28 89.68 C 527.39 90.36 529.48 91.18 531.33 92.44 C 529.23 91.96 527.17 91.36 525.12 90.74 L 525.28 89.68 Z" />
<path fill="#282526" opacity="1.00" d=" M 557.35 92.35 C 561.23 92.95 564.26 95.80 567.41 97.94 C 559.57 103.27 551.73 108.57 543.91 113.90 C 542.76 114.61 541.41 114.86 540.12 115.15 L 540.88 114.17 C 538.54 110.56 534.29 108.93 530.20 108.31 L 530.10 107.38 C 530.00 106.52 529.91 105.66 529.84 104.81 C 532.22 104.03 534.51 102.93 536.36 101.20 C 536.74 101.09 537.49 100.87 537.87 100.76 C 544.00 97.08 551.15 95.89 557.35 92.35 Z" />
<path fill="#2d2b2b" opacity="1.00" d=" M 584.18 92.88 C 584.46 93.10 585.03 93.54 585.31 93.75 C 585.72 98.09 585.22 102.47 585.67 106.81 C 581.77 109.25 577.98 111.87 574.27 114.59 C 574.11 110.74 573.82 106.88 573.92 103.03 C 574.04 101.66 573.82 99.97 575.07 99.02 C 577.79 96.55 581.06 94.80 584.18 92.88 Z" />
<path fill="#1e1c1d" opacity="1.00" d=" M 489.60 95.04 C 492.30 95.11 495.00 95.13 497.70 95.25 C 500.25 95.39 502.78 95.71 505.30 96.12 C 504.11 96.71 502.92 97.31 501.72 97.87 L 500.78 98.27 C 502.08 99.44 503.38 100.62 504.77 101.70 C 504.23 103.79 503.72 105.88 503.24 107.98 C 501.73 105.70 500.09 103.49 498.24 101.48 C 498.79 103.55 498.85 105.97 500.34 107.65 C 502.92 109.59 506.07 110.53 508.98 111.85 C 512.56 113.40 516.51 115.19 520.36 113.37 C 527.05 110.63 534.13 113.10 540.88 114.17 L 540.12 115.15 C 534.13 115.71 528.06 114.92 522.10 115.94 C 519.20 116.46 516.36 117.67 513.38 117.51 C 509.78 116.50 507.16 113.54 503.68 112.23 C 500.48 110.66 496.85 110.78 493.40 111.01 C 492.65 110.30 491.89 109.60 491.15 108.90 L 492.47 109.66 C 491.65 108.50 490.83 107.34 490.00 106.20 C 491.89 104.71 493.79 103.22 495.69 101.73 C 493.68 99.48 491.66 97.25 489.60 95.04 Z" />
<path fill="#161515" opacity="1.00" d=" M 500.78 98.27 L 501.72 97.87 C 510.43 102.88 520.08 106.27 530.10 107.38 L 530.20 108.31 C 524.67 107.89 519.09 107.45 513.78 105.78 C 510.66 104.70 507.62 103.37 504.77 101.70 C 503.38 100.62 502.08 99.44 500.78 98.27 Z" />
<path fill="#727271" opacity="1.00" d=" M 481.23 100.99 C 482.31 97.92 485.90 99.00 488.35 99.01 C 487.83 102.42 483.55 100.56 481.23 100.99 Z" />
<path fill="#5e5e5d" opacity="1.00" d=" M 535.24 99.78 C 535.38 97.90 537.88 99.54 537.87 100.76 C 537.49 100.87 536.74 101.09 536.36 101.20 C 536.08 100.84 535.52 100.13 535.24 99.78 Z" />
<path fill="#1c1a1b" opacity="1.00" d=" M 478.52 100.93 C 479.56 101.41 480.60 101.89 481.65 102.36 C 478.73 105.89 480.18 110.80 480.21 114.98 C 480.47 114.19 480.99 112.63 481.25 111.85 C 484.23 110.48 487.34 111.25 490.17 112.61 C 489.55 114.56 488.94 116.51 488.40 118.48 C 491.09 117.03 492.87 114.55 494.39 111.98 C 494.97 113.54 495.35 115.16 495.75 116.78 C 500.24 117.62 504.82 117.71 509.34 118.37 C 507.39 119.44 505.51 120.78 503.31 121.22 C 500.61 121.31 497.98 120.44 495.29 120.38 C 493.42 122.07 495.56 123.94 496.68 125.25 C 495.99 125.08 494.60 124.72 493.90 124.54 C 488.62 123.39 484.25 119.33 478.69 119.39 C 482.73 121.78 488.06 124.02 488.87 129.24 C 488.03 130.00 487.21 130.76 486.39 131.53 C 480.79 132.14 475.19 129.89 471.89 125.27 C 471.03 125.98 470.17 126.68 469.32 127.39 C 460.50 127.61 451.17 126.98 442.97 130.79 L 442.04 130.27 C 440.59 129.16 438.73 129.40 437.07 129.75 C 435.00 130.07 433.73 128.00 432.31 126.90 C 432.76 126.39 433.65 125.37 434.09 124.87 C 436.77 124.81 439.46 124.67 442.07 123.98 C 442.41 123.74 443.10 123.27 443.45 123.03 C 447.67 123.81 452.00 123.49 456.10 122.26 C 461.39 120.64 467.57 124.17 472.22 120.19 C 474.98 118.53 473.62 115.06 473.27 112.55 C 474.21 114.66 475.01 116.84 475.78 119.03 C 476.88 118.18 477.99 117.33 479.10 116.49 C 478.08 115.28 477.05 114.08 476.00 112.91 C 476.49 112.58 477.49 111.92 477.98 111.59 C 479.10 108.16 478.60 104.47 478.52 100.93 M 474.84 125.89 C 478.09 128.96 482.90 130.07 487.25 129.21 C 485.89 125.02 481.34 122.02 476.97 122.35 C 475.08 122.07 473.40 124.30 474.84 125.89 Z" />
<path fill="#2c292a" opacity="1.00" d=" M 498.24 101.48 C 500.09 103.49 501.73 105.70 503.24 107.98 C 503.72 105.88 504.23 103.79 504.77 101.70 C 507.62 103.37 510.66 104.70 513.78 105.78 C 513.58 107.14 513.48 108.53 513.10 109.86 C 511.80 110.66 510.37 111.22 508.98 111.85 C 506.07 110.53 502.92 109.59 500.34 107.65 C 498.85 105.97 498.79 103.55 498.24 101.48 Z" />
<path fill="#302d2e" opacity="1.00" d=" M 443.99 108.63 C 444.78 106.68 444.97 103.06 447.88 103.43 C 450.03 104.22 450.51 106.89 451.76 108.58 C 455.25 107.85 458.50 106.30 461.97 105.52 C 464.77 105.01 467.41 106.20 469.69 107.71 C 468.82 107.79 467.09 107.94 466.22 108.01 C 465.35 108.09 463.60 108.26 462.72 108.35 C 459.94 108.74 457.21 109.37 454.44 109.72 C 452.85 109.93 451.27 110.11 449.72 110.45 L 448.23 110.99 C 446.68 111.41 445.12 111.79 443.56 112.15 C 441.28 112.65 439.01 113.33 437.02 114.58 C 436.59 113.41 436.17 112.24 435.89 111.02 C 434.33 112.38 432.78 113.74 431.24 115.11 C 432.50 109.29 438.87 107.82 443.99 108.63 M 445.18 108.25 C 446.74 108.60 448.30 108.94 449.88 109.27 C 449.26 107.56 449.31 104.80 447.04 104.40 C 446.27 105.61 445.65 106.89 445.18 108.25 M 440.23 111.29 C 440.77 111.83 440.77 111.83 440.23 111.29 Z" />
<path fill="#070606" opacity="1.00" d=" M 480.21 114.98 C 480.18 110.80 478.73 105.89 481.65 102.36 C 485.35 103.68 488.47 106.08 491.15 108.90 C 491.89 109.60 492.65 110.30 493.40 111.01 L 494.39 111.98 C 492.87 114.55 491.09 117.03 488.40 118.48 C 488.94 116.51 489.55 114.56 490.17 112.61 C 487.34 111.25 484.23 110.48 481.25 111.85 C 480.99 112.63 480.47 114.19 480.21 114.98 Z" />
<path fill="#262324" opacity="1.00" d=" M 567.43 103.31 C 568.03 103.28 569.23 103.23 569.83 103.20 C 569.88 107.96 570.00 112.71 570.21 117.47 C 568.27 118.82 566.35 120.18 564.45 121.58 C 564.52 116.37 564.27 111.16 563.62 105.99 C 564.22 105.94 565.41 105.84 566.00 105.79 C 566.05 109.36 566.29 112.97 567.34 116.41 C 568.00 112.07 567.82 107.66 567.43 103.31 Z" />
<path fill="#070707" opacity="0.39" d=" M 445.18 108.25 C 445.65 106.89 446.27 105.61 447.04 104.40 C 449.31 104.80 449.26 107.56 449.88 109.27 C 448.30 108.94 446.74 108.60 445.18 108.25 Z" />
<path fill="#393637" opacity="1.00" d=" M 513.78 105.78 C 519.09 107.45 524.67 107.89 530.20 108.31 C 534.29 108.93 538.54 110.56 540.88 114.17 C 534.13 113.10 527.05 110.63 520.36 113.37 C 516.51 115.19 512.56 113.40 508.98 111.85 C 510.37 111.22 511.80 110.66 513.10 109.86 C 513.48 108.53 513.58 107.14 513.78 105.78 Z" />
<path fill="#030203" opacity="0.55" d=" M 574.27 114.59 C 577.98 111.87 581.77 109.25 585.67 106.81 C 585.62 107.34 585.53 108.41 585.48 108.94 C 575.93 115.97 566.11 122.64 556.58 129.70 C 550.36 133.46 544.96 138.52 538.23 141.41 C 526.36 139.12 515.49 133.66 504.20 129.58 C 500.74 127.99 496.76 127.19 493.90 124.54 C 494.60 124.72 495.99 125.08 496.68 125.25 C 502.80 127.47 508.69 130.27 514.84 132.41 C 521.87 134.86 528.61 138.45 536.06 139.48 C 538.10 139.90 539.91 138.66 541.62 137.71 C 541.88 137.53 542.42 137.17 542.68 136.98 C 549.78 131.63 557.37 126.96 564.45 121.58 C 566.35 120.18 568.27 118.82 570.21 117.47 C 571.56 116.51 572.92 115.56 574.27 114.59 Z" />
<path fill="#423f3f" opacity="1.00" d=" M 454.44 109.72 C 457.21 109.37 459.94 108.74 462.72 108.35 C 462.50 108.83 462.06 109.81 461.84 110.30 C 463.19 110.62 464.53 110.98 465.86 111.39 C 465.95 110.55 466.13 108.86 466.22 108.01 C 467.09 107.94 468.82 107.79 469.69 107.71 C 470.95 109.27 472.30 110.78 473.27 112.55 C 473.62 115.06 474.98 118.53 472.22 120.19 C 467.57 124.17 461.39 120.64 456.10 122.26 C 452.00 123.49 447.67 123.81 443.45 123.03 L 442.91 122.37 C 444.32 121.16 446.28 120.03 446.37 117.94 C 446.73 115.61 444.62 113.97 443.56 112.15 C 445.12 111.79 446.68 111.41 448.23 110.99 C 449.90 111.14 451.60 111.33 453.28 111.52 C 451.81 111.66 450.34 111.80 448.88 111.94 C 449.73 113.20 450.58 114.47 451.43 115.74 C 452.33 115.05 453.37 114.51 454.20 113.71 C 454.45 112.40 454.39 111.05 454.44 109.72 M 457.95 113.91 C 459.24 115.20 460.94 114.57 462.40 114.03 C 461.77 112.93 461.55 111.29 460.07 110.98 C 458.44 110.80 457.50 112.48 457.95 113.91 M 465.98 113.03 C 465.56 114.66 467.09 115.45 468.08 116.40 C 468.88 115.33 471.01 113.97 469.38 112.59 C 468.63 111.28 466.59 111.86 465.98 113.03 M 462.39 115.51 C 459.57 117.21 463.97 120.74 465.36 118.21 C 466.87 116.86 463.90 113.94 462.39 115.51 M 447.32 116.22 C 447.90 116.73 447.90 116.73 447.32 116.22 M 459.29 116.29 C 459.77 116.81 459.77 116.81 459.29 116.29 M 451.33 118.35 C 449.98 120.65 454.49 120.77 454.61 118.67 C 454.45 117.08 452.06 117.36 451.33 118.35 M 446.29 120.21 C 446.80 120.74 446.80 120.74 446.29 120.21 M 462.30 120.30 C 462.80 120.80 462.80 120.80 462.30 120.30 Z" />
<path fill="#167096" opacity="1.00" d=" M 462.72 108.35 C 463.60 108.26 465.35 108.09 466.22 108.01 C 466.13 108.86 465.95 110.55 465.86 111.39 C 464.53 110.98 463.19 110.62 461.84 110.30 C 462.06 109.81 462.50 108.83 462.72 108.35 Z" />
<path fill="#656464" opacity="1.00" d=" M 449.72 110.45 C 451.27 110.11 452.85 109.93 454.44 109.72 C 454.39 111.05 454.45 112.40 454.20 113.71 C 453.37 114.51 452.33 115.05 451.43 115.74 C 450.58 114.47 449.73 113.20 448.88 111.94 C 450.34 111.80 451.81 111.66 453.28 111.52 C 451.60 111.33 449.90 111.14 448.23 110.99 L 449.72 110.45 Z" />
<path fill="#504f4f" opacity="1.00" d=" M 431.24 115.11 C 432.78 113.74 434.33 112.38 435.89 111.02 C 436.17 112.24 436.59 113.41 437.02 114.58 L 436.51 115.97 C 436.40 116.25 436.17 116.82 436.06 117.10 C 435.82 117.64 435.33 118.71 435.08 119.25 C 434.23 120.25 433.39 121.26 432.55 122.27 C 432.15 120.02 431.74 117.77 431.32 115.53 L 431.24 115.11 Z" />
<path fill="#9c9b9b" opacity="1.00" d=" M 440.23 111.29 C 440.77 111.83 440.77 111.83 440.23 111.29 Z" />
<path fill="#189357" opacity="1.00" d=" M 457.95 113.91 C 457.50 112.48 458.44 110.80 460.07 110.98 C 461.55 111.29 461.77 112.93 462.40 114.03 C 460.94 114.57 459.24 115.20 457.95 113.91 Z" />
<path fill="#282526" opacity="1.00" d=" M 493.40 111.01 C 496.85 110.78 500.48 110.66 503.68 112.23 C 507.16 113.54 509.78 116.50 513.38 117.51 C 516.36 117.67 519.20 116.46 522.10 115.94 C 521.52 116.41 520.94 116.89 520.37 117.37 C 523.05 118.37 525.68 119.52 528.34 120.58 C 529.26 125.59 530.13 130.62 530.74 135.68 C 534.36 136.36 537.99 137.03 541.62 137.71 C 539.91 138.66 538.10 139.90 536.06 139.48 C 528.61 138.45 521.87 134.86 514.84 132.41 C 508.69 130.27 502.80 127.47 496.68 125.25 C 495.56 123.94 493.42 122.07 495.29 120.38 C 497.98 120.44 500.61 121.31 503.31 121.22 C 505.51 120.78 507.39 119.44 509.34 118.37 C 504.82 117.71 500.24 117.62 495.75 116.78 C 495.35 115.16 494.97 113.54 494.39 111.98 L 493.40 111.01 M 515.78 122.83 C 515.26 127.59 520.98 127.66 524.16 129.06 C 524.10 127.84 523.88 126.67 523.48 125.55 C 521.11 124.16 518.39 123.58 515.78 122.83 Z" />
<path fill="#c38938" opacity="1.00" d=" M 465.98 113.03 C 466.59 111.86 468.63 111.28 469.38 112.59 C 471.01 113.97 468.88 115.33 468.08 116.40 C 467.09 115.45 465.56 114.66 465.98 113.03 Z" />
<path fill="#100e0e" opacity="1.00" d=" M 437.02 114.58 C 439.01 113.33 441.28 112.65 443.56 112.15 C 444.62 113.97 446.73 115.61 446.37 117.94 C 446.28 120.03 444.32 121.16 442.91 122.37 L 442.10 122.39 C 441.19 122.18 439.38 121.76 438.47 121.55 C 438.45 121.54 438.41 121.52 438.40 121.51 C 437.55 119.74 436.91 117.88 436.51 115.97 L 437.02 114.58 M 438.32 115.77 C 438.02 118.71 441.03 118.37 443.02 118.89 C 442.96 116.51 440.65 113.89 438.32 115.77 M 443.25 116.34 C 441.61 119.28 446.58 116.59 443.25 116.34 Z" />
<path fill="#515050" opacity="1.00" d=" M 438.32 115.77 C 440.65 113.89 442.96 116.51 443.02 118.89 C 441.03 118.37 438.02 118.71 438.32 115.77 Z" />
<path fill="#b2454d" opacity="1.00" d=" M 462.39 115.51 C 463.90 113.94 466.87 116.86 465.36 118.21 C 463.97 120.74 459.57 117.21 462.39 115.51 Z" />
<path fill="#302d2e" opacity="1.00" d=" M 432.31 126.90 C 430.04 123.51 429.93 119.28 431.32 115.53 C 431.74 117.77 432.15 120.02 432.55 122.27 C 433.39 121.26 434.23 120.25 435.08 119.25 L 435.90 118.94 C 435.94 118.48 436.02 117.56 436.06 117.10 C 436.17 116.82 436.40 116.25 436.51 115.97 C 436.91 117.88 437.55 119.74 438.40 121.51 L 438.41 121.54 L 438.47 121.55 C 439.38 121.76 441.19 122.18 442.10 122.39 C 442.09 122.79 442.07 123.59 442.07 123.98 C 439.46 124.67 436.77 124.81 434.09 124.87 C 433.65 125.37 432.76 126.39 432.31 126.90 Z" />
<path fill="#5c5b5b" opacity="1.00" d=" M 443.25 116.34 C 446.58 116.59 441.61 119.28 443.25 116.34 Z" />
<path fill="#aeaeac" opacity="1.00" d=" M 447.32 116.22 C 447.90 116.73 447.90 116.73 447.32 116.22 Z" />
<path fill="#737170" opacity="1.00" d=" M 459.29 116.29 C 459.77 116.81 459.77 116.81 459.29 116.29 Z" />
<path fill="#888786" opacity="1.00" d=" M 435.08 119.25 C 435.33 118.71 435.82 117.64 436.06 117.10 C 436.02 117.56 435.94 118.48 435.90 118.94 L 435.08 119.25 Z" />
<path fill="#5e5d5d" opacity="1.00" d=" M 451.33 118.35 C 452.06 117.36 454.45 117.08 454.61 118.67 C 454.49 120.77 449.98 120.65 451.33 118.35 Z" />
<path fill="#949392" opacity="1.00" d=" M 446.29 120.21 C 446.80 120.74 446.80 120.74 446.29 120.21 Z" />
<path fill="#787776" opacity="1.00" d=" M 462.30 120.30 C 462.80 120.80 462.80 120.80 462.30 120.30 Z" />
<path fill="#686866" opacity="1.00" d=" M 438.40 121.51 C 438.41 121.52 438.45 121.54 438.47 121.55 L 438.41 121.54 L 438.40 121.51 Z" />
<path fill="#1c1a1b" opacity="1.00" d=" M 528.34 120.58 C 532.77 121.54 537.32 121.83 541.71 123.01 C 541.56 127.69 541.73 132.39 542.68 136.98 C 542.42 137.17 541.88 137.53 541.62 137.71 C 537.99 137.03 534.36 136.36 530.74 135.68 C 530.13 130.62 529.26 125.59 528.34 120.58 Z" />
<path fill="#7b7a79" opacity="1.00" d=" M 442.10 122.39 L 442.91 122.37 L 443.45 123.03 C 443.10 123.27 442.41 123.74 442.07 123.98 C 442.07 123.59 442.09 122.79 442.10 122.39 Z" />
<path fill="#111011" opacity="1.00" d=" M 515.78 122.83 C 518.39 123.58 521.11 124.16 523.48 125.55 C 523.88 126.67 524.10 127.84 524.16 129.06 C 520.98 127.66 515.26 127.59 515.78 122.83 Z" />
<path fill="#353333" opacity="0.98" d=" M 437.07 129.75 C 438.73 129.40 440.59 129.16 442.04 130.27 C 440.67 131.42 438.17 131.13 437.07 129.75 Z" />
<path fill="#ffffff" opacity="1.00" d=" M 63.37 292.52 C 68.92 289.76 76.67 293.08 77.27 299.56 C 77.81 308.00 77.86 316.53 77.27 324.97 C 76.67 331.55 68.65 334.82 63.14 331.85 C 59.84 330.29 58.21 326.53 58.15 323.03 C 57.89 316.03 57.94 309.02 58.12 302.02 C 58.09 298.25 59.75 294.12 63.37 292.52 M 66.63 299.86 C 66.53 308.71 66.13 317.62 66.89 326.45 C 67.38 326.22 68.36 325.76 68.85 325.53 C 69.46 319.37 68.96 313.16 69.13 306.99 C 68.94 303.86 69.78 300.47 68.01 297.66 C 67.66 298.21 66.97 299.31 66.63 299.86 Z" />
<path fill="#ffffff" opacity="1.00" d=" M 90.45 294.68 C 94.53 289.83 103.38 290.85 106.32 296.46 C 107.81 299.75 107.55 303.46 107.67 306.98 C 104.82 307.00 101.97 307.00 99.12 307.00 C 98.93 303.87 99.83 300.42 97.94 297.64 C 95.77 299.94 96.68 303.18 96.49 306.01 C 96.69 312.77 96.09 319.58 96.89 326.32 C 97.40 326.14 98.43 325.79 98.94 325.62 C 99.58 322.85 99.47 319.97 99.27 317.16 C 98.89 316.96 98.13 316.54 97.75 316.33 C 97.75 314.46 97.75 312.60 97.75 310.75 C 101.04 310.75 104.33 310.75 107.62 310.75 C 107.63 317.83 107.62 324.92 107.63 332.01 C 105.79 332.00 103.96 331.99 102.12 331.97 C 102.00 331.30 101.76 329.96 101.64 329.29 C 100.41 330.77 99.21 332.63 97.10 332.82 C 92.61 333.47 88.80 329.34 88.33 325.11 C 87.66 318.43 88.14 311.70 88.00 305.00 C 88.18 301.49 87.83 297.42 90.45 294.68 Z" />
<path fill="#ffffff" opacity="1.00" d=" M 133.36 292.52 C 137.46 290.69 143.07 291.53 145.67 295.44 C 148.29 299.47 147.41 304.51 147.63 309.05 C 147.38 315.00 148.25 321.12 146.77 326.94 C 144.64 333.70 134.53 334.93 130.31 329.56 C 127.73 326.30 128.12 321.92 128.00 318.02 C 128.07 312.30 127.81 306.58 128.20 300.87 C 128.36 297.47 130.16 293.96 133.36 292.52 M 136.88 298.90 C 136.09 302.87 136.66 306.97 136.50 310.99 C 136.67 316.03 136.07 321.13 136.91 326.12 C 137.37 326.04 138.29 325.89 138.75 325.81 C 139.42 316.91 139.26 307.86 138.85 298.95 L 137.94 298.14 L 136.88 298.90 Z" />
<path fill="#ffff26" opacity="1.00" d=" M 162.96 292.77 C 167.71 290.28 174.87 291.72 176.99 297.04 C 178.33 301.09 177.93 305.44 177.99 309.63 C 175.16 309.62 172.32 309.62 169.49 309.62 C 169.42 306.07 169.76 302.48 169.22 298.96 C 167.90 297.19 165.99 299.42 166.56 301.05 C 166.66 309.34 166.02 317.70 166.93 325.95 C 167.47 325.95 168.53 325.94 169.07 325.94 C 169.75 322.71 169.45 319.40 169.49 316.13 C 172.34 316.12 175.18 316.12 178.02 316.12 C 177.88 319.98 178.29 324.07 176.78 327.73 C 173.95 333.85 164.52 334.65 160.27 329.68 C 157.96 326.65 158.19 322.59 158.00 318.98 C 158.07 312.95 157.82 306.92 158.16 300.90 C 158.28 297.62 159.98 294.31 162.96 292.77 Z" />
<path fill="#ffff26" opacity="1.00" d=" M 186.35 292.53 C 191.38 290.10 198.55 292.39 199.95 298.15 C 201.16 303.99 200.41 310.03 200.63 315.95 C 200.42 320.49 201.29 325.69 198.31 329.56 C 193.99 335.11 183.47 333.56 181.70 326.44 C 180.38 319.37 181.24 312.10 181.01 304.95 C 180.84 300.36 181.61 294.64 186.35 292.53 M 189.86 298.91 C 189.03 306.58 189.72 314.37 189.49 322.09 C 189.72 323.73 189.01 327.31 191.75 325.84 C 192.41 316.90 192.26 307.83 191.85 298.89 L 190.87 298.17 L 189.86 298.91 Z" />
<path fill="#ffff26" opacity="1.00" d=" M 226.08 297.15 C 227.89 290.89 236.67 290.18 241.32 293.57 C 244.73 296.03 243.91 300.73 244.18 304.37 C 241.56 304.37 238.93 304.37 236.31 304.38 C 235.90 302.39 237.09 299.37 234.98 298.14 C 231.91 300.52 233.65 305.57 236.82 307.13 C 239.87 309.57 243.60 312.04 244.37 316.17 C 245.02 320.08 245.29 324.26 244.07 328.09 C 241.00 334.53 230.03 334.54 226.84 328.20 C 225.51 324.94 225.81 321.32 225.72 317.88 C 228.35 317.87 230.98 317.87 233.62 317.87 C 233.74 320.51 233.22 323.28 234.11 325.82 C 236.57 327.31 237.02 323.47 236.77 321.92 C 237.09 317.27 232.16 315.37 229.41 312.58 C 224.79 308.97 225.02 302.33 226.08 297.15 Z" />
<path fill="#ffff26" opacity="1.00" d=" M 252.52 292.69 C 257.52 290.05 264.88 292.19 266.40 298.00 C 267.67 303.89 266.92 309.99 267.13 315.97 C 266.95 320.12 267.62 324.63 265.57 328.43 C 262.39 334.30 252.65 334.43 249.24 328.72 C 247.27 325.54 247.63 321.63 247.49 318.05 C 247.57 312.40 247.32 306.74 247.68 301.10 C 247.80 297.75 249.42 294.25 252.52 292.69 M 256.65 298.74 L 256.28 299.03 C 255.64 306.68 256.17 314.40 255.99 322.07 C 256.19 323.71 255.50 326.56 258.09 326.20 C 259.28 318.19 258.32 309.99 258.63 301.90 C 258.68 300.73 258.49 297.04 256.65 298.74 Z" />
<path fill="#ffff26" opacity="1.00" d=" M 285.75 292.50 C 290.45 292.49 295.16 292.50 299.87 292.49 C 299.87 295.12 299.87 297.75 299.87 300.38 C 297.99 300.37 296.12 300.37 294.25 300.37 C 294.25 302.87 294.25 305.37 294.25 307.87 C 296.00 307.87 297.74 307.87 299.50 307.88 C 299.50 310.37 299.50 312.87 299.50 315.38 C 297.75 315.37 296.00 315.37 294.25 315.38 C 294.25 318.29 294.25 321.20 294.25 324.12 C 296.33 324.12 298.41 324.12 300.50 324.12 C 300.50 326.75 300.50 329.37 300.50 332.00 C 295.58 332.00 290.67 332.00 285.75 332.00 C 285.75 318.83 285.75 305.67 285.75 292.50 Z" />
<path fill="#ffffff" opacity="1.00" d=" M 18.75 292.50 C 21.08 292.49 23.42 292.49 25.75 292.50 C 27.33 298.39 28.87 304.29 30.50 310.16 C 30.51 304.27 30.49 298.39 30.50 292.50 C 32.87 292.50 35.25 292.49 37.62 292.50 C 37.63 305.66 37.61 318.83 37.63 331.99 C 35.16 332.00 32.70 332.00 30.23 331.99 C 29.13 326.99 27.62 322.07 26.80 317.00 C 26.77 315.90 26.27 314.94 25.45 314.24 C 26.22 320.13 25.75 326.08 25.87 332.00 C 23.50 332.00 21.12 332.00 18.75 332.00 C 18.75 318.83 18.75 305.67 18.75 292.50 Z" />
<path fill="#ffffff" opacity="1.00" d=" M 41.25 332.00 C 41.26 318.83 41.24 305.66 41.26 292.49 C 45.96 292.50 50.67 292.49 55.38 292.50 C 55.38 295.12 55.38 297.75 55.38 300.37 C 53.50 300.37 51.62 300.37 49.75 300.38 C 49.75 302.87 49.75 305.37 49.75 307.87 C 51.50 307.87 53.25 307.87 55.01 307.87 C 55.01 310.38 55.00 312.89 54.96 315.41 C 53.22 315.38 51.49 315.37 49.75 315.36 C 49.75 318.28 49.75 321.20 49.75 324.12 C 51.83 324.12 53.91 324.12 56.00 324.12 C 56.00 326.74 56.00 329.37 56.00 332.00 C 51.08 332.00 46.17 332.00 41.25 332.00 Z" />
<path fill="#ffffff" opacity="1.00" d=" M 111.25 292.50 C 115.96 292.49 120.67 292.50 125.38 292.50 C 125.38 295.12 125.38 297.75 125.38 300.37 C 123.50 300.37 121.62 300.37 119.75 300.38 C 119.75 302.87 119.75 305.37 119.75 307.87 C 121.50 307.87 123.25 307.87 125.00 307.88 C 125.00 310.37 125.00 312.87 125.00 315.37 C 123.25 315.37 121.50 315.37 119.75 315.38 C 119.75 318.29 119.75 321.21 119.75 324.12 C 121.83 324.12 123.91 324.12 126.00 324.12 C 126.00 326.74 126.00 329.37 126.00 332.00 C 121.08 332.00 116.16 332.00 111.25 332.00 C 111.25 318.83 111.25 305.67 111.25 292.50 Z" />
<path fill="#ffff26" opacity="1.00" d=" M 203.75 292.50 C 206.08 292.49 208.42 292.50 210.76 292.50 C 212.33 298.36 213.83 304.23 215.49 310.06 C 215.52 304.21 215.49 298.35 215.50 292.50 C 217.87 292.50 220.24 292.49 222.62 292.50 C 222.64 305.66 222.61 318.82 222.63 331.99 C 220.16 332.00 217.70 332.00 215.23 331.99 C 214.13 326.99 212.61 322.07 211.82 317.01 C 211.77 315.78 211.15 314.74 210.49 313.76 C 211.04 319.82 210.86 325.91 210.87 332.00 C 208.50 332.00 206.12 332.00 203.75 332.00 C 203.75 318.83 203.75 305.66 203.75 292.50 Z" />
<path fill="#ffff26" opacity="1.00" d=" M 270.25 332.00 C 270.26 318.83 270.23 305.66 270.26 292.49 C 273.09 292.50 275.92 292.50 278.75 292.50 C 278.74 303.04 278.75 313.58 278.75 324.12 C 280.45 324.12 282.16 324.12 283.87 324.12 C 283.87 326.74 283.87 329.37 283.88 332.00 C 279.33 332.00 274.79 332.00 270.25 332.00 Z" />
</svg>
