<?xml version="1.0" encoding="UTF-8" ?>
<!DOCTYPE svg PUBLIC "-//W3C//DTD SVG 1.1//EN" "http://www.w3.org/Graphics/SVG/1.1/DTD/svg11.dtd">
<svg width="960pt" height="540pt" viewBox="0 0 960 540" version="1.1" xmlns="http://www.w3.org/2000/svg">
<path fill="#cdcdd1" opacity="1.00" d=" M 501.91 43.98 C 503.05 42.95 504.21 41.02 506.06 42.04 C 520.35 45.30 534.68 48.40 548.96 51.72 C 547.68 53.23 546.42 54.77 545.05 56.19 C 541.70 59.20 539.52 63.20 536.53 66.54 C 535.02 68.20 533.93 70.16 532.85 72.11 C 531.80 73.81 530.55 75.43 530.05 77.40 C 529.78 77.38 529.24 77.33 528.97 77.31 C 529.03 78.09 529.16 79.65 529.22 80.43 L 530.95 80.41 C 530.46 80.46 529.47 80.56 528.98 80.61 C 528.83 83.12 528.75 85.63 528.33 88.11 C 524.02 86.75 519.60 85.74 515.26 84.48 C 515.09 83.98 514.73 82.97 514.56 82.47 C 511.23 81.81 507.69 81.48 504.87 79.41 C 508.33 79.94 511.77 80.60 515.25 80.95 C 515.81 79.17 516.43 77.41 517.09 75.66 C 519.18 75.92 521.28 76.05 523.40 76.01 C 518.62 73.76 513.30 73.17 508.35 71.43 C 499.59 68.59 490.38 67.65 481.62 64.79 C 488.17 57.66 495.25 51.01 501.91 43.98 Z" />
<path fill="#181818" opacity="1.00" d=" M 545.05 56.19 C 546.42 54.77 547.68 53.23 548.96 51.72 C 552.78 52.50 556.59 53.39 560.37 54.35 C 559.38 55.85 558.40 57.36 557.44 58.86 C 553.31 57.96 549.24 56.79 545.05 56.19 Z" />
<path fill="#c5c5c9" opacity="1.00" d=" M 560.37 54.35 C 562.96 54.86 565.56 55.39 568.05 56.29 C 565.37 59.66 563.64 63.64 561.18 67.16 C 558.62 70.84 556.12 74.56 553.81 78.41 C 552.93 79.70 551.99 80.94 551.14 82.24 C 548.27 81.55 545.40 80.74 542.89 79.15 C 543.68 77.78 544.59 76.48 545.51 75.18 C 541.30 74.09 537.08 73.09 532.85 72.11 C 533.93 70.16 535.02 68.20 536.53 66.54 C 539.52 63.20 541.70 59.20 545.05 56.19 C 549.24 56.79 553.31 57.96 557.44 58.86 C 558.40 57.36 559.38 55.85 560.37 54.35 Z" />
<path fill="#959598" opacity="1.00" d=" M 568.05 56.29 L 568.66 55.71 C 568.78 58.84 568.71 61.98 568.56 65.11 C 568.61 68.66 565.99 71.36 564.23 74.19 L 563.87 74.45 C 562.21 75.47 560.84 76.85 559.83 78.50 C 559.30 78.17 558.77 77.84 558.25 77.52 C 556.77 77.84 555.29 78.15 553.81 78.41 C 556.12 74.56 558.62 70.84 561.18 67.16 C 563.64 63.64 565.37 59.66 568.05 56.29 Z" />
<path fill="#e1e1e4" opacity="1.00" d=" M 480.96 64.63 L 481.62 64.79 C 490.38 67.65 499.59 68.59 508.35 71.43 C 513.30 73.17 518.62 73.76 523.40 76.01 C 521.28 76.05 519.18 75.92 517.09 75.66 C 516.43 77.41 515.81 79.17 515.25 80.95 C 511.77 80.60 508.33 79.94 504.87 79.41 C 507.69 81.48 511.23 81.81 514.56 82.47 C 514.73 82.97 515.09 83.98 515.26 84.48 C 512.91 83.86 510.55 83.31 508.21 82.67 C 498.70 80.04 489.11 77.77 479.60 75.14 C 480.20 71.66 480.48 68.13 480.96 64.63 M 504.39 76.28 C 504.90 78.03 508.13 78.54 509.70 77.80 C 508.91 76.28 506.01 75.89 504.39 76.28 Z" />
<path fill="#151515" opacity="1.00" d=" M 532.85 72.11 C 537.08 73.09 541.30 74.09 545.51 75.18 C 544.59 76.48 543.68 77.78 542.89 79.15 L 542.29 80.27 C 538.83 79.52 535.33 78.99 531.85 78.34 C 535.30 79.14 538.93 79.66 541.78 81.96 C 541.39 83.92 541.06 85.88 540.78 87.86 C 540.50 89.52 540.17 91.18 539.87 92.84 C 538.95 92.27 538.03 91.70 537.13 91.13 C 536.87 91.42 536.36 91.99 536.10 92.27 C 538.60 94.12 538.63 97.41 538.65 100.23 C 537.98 99.59 537.20 99.19 536.29 99.04 C 536.38 97.74 536.52 96.46 536.66 95.17 C 536.36 94.93 535.76 94.44 535.47 94.20 C 534.69 95.79 534.14 97.59 532.80 98.82 C 530.45 98.43 529.20 96.23 527.84 94.54 C 530.38 94.80 530.43 91.84 528.14 91.41 C 527.83 91.12 527.20 90.53 526.89 90.24 C 527.25 89.71 527.97 88.64 528.33 88.11 C 528.75 85.63 528.83 83.12 528.98 80.61 C 529.47 80.56 530.46 80.46 530.95 80.41 L 529.22 80.43 C 529.16 79.65 529.03 78.09 528.97 77.31 C 529.24 77.33 529.78 77.38 530.05 77.40 C 530.55 75.43 531.80 73.81 532.85 72.11 Z" />
<path fill="#aba9ae" opacity="1.00" d=" M 479.60 75.14 C 489.11 77.77 498.70 80.04 508.21 82.67 C 511.10 86.55 514.22 90.31 516.69 94.47 C 516.31 94.80 515.55 95.44 515.17 95.76 C 504.66 92.94 494.15 90.12 483.64 87.34 C 482.24 83.30 479.65 79.54 479.60 75.14 M 489.73 83.12 C 487.68 81.53 488.11 85.83 489.84 83.92 C 489.94 84.39 490.14 85.33 490.24 85.80 C 492.02 85.89 494.06 86.86 495.57 85.41 C 494.68 85.24 492.92 84.91 492.03 84.74 L 492.08 84.11 C 492.92 84.03 494.62 83.85 495.47 83.77 C 493.75 83.16 491.15 81.04 489.73 83.12 M 496.19 84.36 C 495.33 85.63 495.54 86.40 496.82 86.68 C 497.67 85.41 497.46 84.63 496.19 84.36 M 500.28 85.10 C 500.68 88.38 503.17 83.38 500.28 85.10 M 503.28 85.64 C 503.20 86.46 503.03 88.08 502.95 88.89 C 501.42 88.20 499.83 87.69 498.20 87.36 C 499.99 88.26 501.83 89.05 503.70 89.78 C 504.27 88.38 504.61 86.73 503.28 85.64 Z" />
<path fill="#828284" opacity="1.00" d=" M 559.83 78.50 C 560.84 76.85 562.21 75.47 563.87 74.45 C 560.15 81.31 555.40 87.57 551.42 94.29 L 550.73 93.56 C 550.43 89.79 550.40 85.97 551.14 82.24 C 551.99 80.94 552.93 79.70 553.81 78.41 C 555.29 78.15 556.77 77.84 558.25 77.52 C 558.77 77.84 559.30 78.17 559.83 78.50 Z" />
<path fill="#e1aaa8" opacity="1.00" d=" M 504.39 76.28 C 506.01 75.89 508.91 76.28 509.70 77.80 C 508.13 78.54 504.90 78.03 504.39 76.28 Z" />
<path fill="#d2d2d5" opacity="1.00" d=" M 531.85 78.34 C 535.33 78.99 538.83 79.52 542.29 80.27 L 542.89 79.15 C 545.40 80.74 548.27 81.55 551.14 82.24 C 550.40 85.97 550.43 89.79 550.73 93.56 C 547.38 92.85 544.00 92.25 540.75 91.14 C 540.76 90.32 540.77 88.68 540.78 87.86 C 541.06 85.88 541.39 83.92 541.78 81.96 C 538.93 79.66 535.30 79.14 531.85 78.34 Z" />
<path fill="#e5e5e7" opacity="1.00" d=" M 436.72 83.43 C 436.80 82.20 438.27 81.94 439.09 81.30 C 441.58 83.02 444.47 83.94 447.40 84.60 C 451.35 85.50 455.03 87.74 459.19 87.44 C 459.59 87.45 460.37 87.46 460.76 87.47 C 462.54 88.21 464.29 89.06 466.13 89.66 C 481.05 93.79 496.02 97.77 510.88 102.11 C 510.94 102.58 511.07 103.51 511.13 103.98 C 509.41 115.10 507.14 126.12 505.13 137.19 C 490.63 133.28 476.40 128.43 462.01 124.15 C 452.22 121.03 442.29 118.36 432.59 114.98 L 432.33 114.23 C 433.81 103.97 435.24 93.69 436.72 83.43 M 438.12 87.99 C 437.73 90.21 437.22 92.43 437.09 94.68 C 436.38 101.06 434.99 107.36 434.58 113.77 C 441.25 115.50 447.81 117.63 454.39 119.69 C 454.92 118.52 455.75 118.10 456.89 118.42 C 463.04 120.24 469.25 121.92 475.35 123.93 C 475.38 124.41 475.43 125.37 475.46 125.85 C 476.70 126.29 477.94 126.72 479.21 127.13 C 486.27 129.22 493.31 131.42 500.34 133.63 C 501.42 133.88 503.55 134.99 503.53 133.06 C 505.16 124.61 506.80 116.16 508.29 107.68 C 503.13 106.24 498.02 104.62 492.78 103.53 L 492.81 103.17 C 488.41 102.25 484.15 100.82 479.79 99.78 L 479.86 99.46 C 472.74 97.87 465.81 95.54 458.71 93.84 C 451.91 91.69 444.97 89.98 438.12 87.99 Z" />
<path fill="#ceced2" opacity="1.00" d=" M 439.09 81.30 C 440.96 80.66 442.99 80.25 444.89 81.04 C 449.63 82.32 454.31 83.82 459.09 84.91 C 461.17 83.83 462.85 82.02 465.07 81.14 C 463.07 82.48 461.16 83.96 459.27 85.47 C 459.25 85.96 459.21 86.94 459.19 87.44 C 455.03 87.74 451.35 85.50 447.40 84.60 C 444.47 83.94 441.58 83.02 439.09 81.30 Z" />
<path fill="#151515" opacity="1.00" d=" M 465.07 81.14 C 473.51 78.90 481.92 84.72 485.36 92.21 C 484.70 92.07 483.37 91.80 482.71 91.66 C 479.56 88.53 476.62 84.57 471.97 83.72 C 468.54 82.65 465.07 83.90 461.94 85.27 C 463.32 85.91 464.73 86.55 466.19 87.03 C 464.36 86.62 462.42 86.38 460.76 87.47 C 460.37 87.46 459.59 87.45 459.19 87.44 C 459.21 86.94 459.25 85.96 459.27 85.47 C 461.16 83.96 463.07 82.48 465.07 81.14 Z" />
<path fill="#a08f93" opacity="1.00" d=" M 489.73 83.12 C 491.15 81.04 493.75 83.16 495.47 83.77 C 494.62 83.85 492.92 84.03 492.08 84.11 L 492.03 84.74 C 492.92 84.91 494.68 85.24 495.57 85.41 C 494.06 86.86 492.02 85.89 490.24 85.80 C 490.14 85.33 489.94 84.39 489.84 83.92 L 489.73 83.12 Z" />
<path fill="#df7875" opacity="1.00" d=" M 489.84 83.92 C 488.11 85.83 487.68 81.53 489.73 83.12 L 489.84 83.92 Z" />
<path fill="#9c9aa0" opacity="1.00" d=" M 508.21 82.67 C 510.55 83.31 512.91 83.86 515.26 84.48 C 519.60 85.74 524.02 86.75 528.33 88.11 C 527.97 88.64 527.25 89.71 526.89 90.24 C 525.56 92.18 524.25 94.13 522.93 96.07 C 524.47 96.53 526.01 96.99 527.54 97.52 C 527.67 97.87 527.93 98.58 528.06 98.93 C 526.36 98.32 524.64 97.72 522.96 97.11 C 522.85 99.76 522.69 102.41 522.50 105.05 C 521.88 102.54 523.19 99.07 520.82 97.32 C 518.96 96.69 517.05 96.27 515.17 95.76 C 515.55 95.44 516.31 94.80 516.69 94.47 C 514.22 90.31 511.10 86.55 508.21 82.67 Z" />
<path fill="#656567" opacity="1.00" d=" M 496.19 84.36 C 497.46 84.63 497.67 85.41 496.82 86.68 C 495.54 86.40 495.33 85.63 496.19 84.36 Z" />
<path fill="#7c7b7f" opacity="1.00" d=" M 500.28 85.10 C 503.17 83.38 500.68 88.38 500.28 85.10 Z" />
<path fill="#545455" opacity="1.00" d=" M 503.28 85.64 C 504.61 86.73 504.27 88.38 503.70 89.78 C 501.83 89.05 499.99 88.26 498.20 87.36 C 499.83 87.69 501.42 88.20 502.95 88.89 C 503.03 88.08 503.20 86.46 503.28 85.64 Z" />
<path fill="#c9c9cd" opacity="1.00" d=" M 460.76 87.47 C 462.42 86.38 464.36 86.62 466.19 87.03 C 471.73 88.45 477.25 89.95 482.71 91.66 C 483.37 91.80 484.70 92.07 485.36 92.21 C 495.01 94.93 504.76 97.32 514.30 100.36 C 513.12 101.45 512.04 102.65 511.13 103.98 C 511.07 103.51 510.94 102.58 510.88 102.11 C 496.02 97.77 481.05 93.79 466.13 89.66 C 464.29 89.06 462.54 88.21 460.76 87.47 Z" />
<path fill="#545455" opacity="1.00" d=" M 438.12 87.99 C 444.97 89.98 451.91 91.69 458.71 93.84 C 458.27 95.60 458.21 97.40 460.12 98.27 L 461.23 99.20 C 460.37 99.08 458.65 98.83 457.79 98.70 C 457.82 99.54 457.89 101.21 457.92 102.04 C 464.34 104.76 471.40 105.61 477.90 108.19 L 476.75 108.83 C 470.16 107.11 463.74 104.72 457.01 103.54 C 457.01 104.44 456.99 106.23 456.98 107.13 C 456.58 107.26 455.79 107.54 455.39 107.67 C 455.15 106.60 454.90 105.54 454.64 104.48 L 453.92 104.16 C 452.64 103.69 451.34 103.27 450.05 102.86 C 450.11 101.27 450.17 99.69 450.19 98.10 C 448.16 97.65 446.13 97.21 444.09 96.83 C 444.07 97.81 444.03 99.77 444.01 100.75 C 442.39 100.60 440.78 100.45 439.17 100.32 C 438.43 98.46 437.69 96.60 437.09 94.68 C 437.22 92.43 437.73 90.21 438.12 87.99 Z" />
<path fill="#484748" opacity="1.00" d=" M 539.87 92.84 C 540.17 91.18 540.50 89.52 540.78 87.86 C 540.77 88.68 540.76 90.32 540.75 91.14 C 542.41 94.82 542.44 99.05 540.39 102.60 C 539.54 102.27 538.69 101.93 537.85 101.60 C 538.05 101.26 538.45 100.57 538.65 100.23 C 538.63 97.41 538.60 94.12 536.10 92.27 C 536.36 91.99 536.87 91.42 537.13 91.13 C 538.03 91.70 538.95 92.27 539.87 92.84 M 539.08 94.36 C 538.18 95.58 538.39 96.32 539.71 96.59 C 540.59 95.37 540.38 94.62 539.08 94.36 Z" />
<path fill="#373737" opacity="1.00" d=" M 522.93 96.07 C 524.25 94.13 525.56 92.18 526.89 90.24 C 527.20 90.53 527.83 91.12 528.14 91.41 C 526.97 92.36 526.87 93.40 527.84 94.54 C 529.20 96.23 530.45 98.43 532.80 98.82 C 534.14 97.59 534.69 95.79 535.47 94.20 C 535.76 94.44 536.36 94.93 536.66 95.17 C 536.52 96.46 536.38 97.74 536.29 99.04 C 536.48 99.65 536.86 100.89 537.05 101.51 C 536.32 101.34 534.86 100.99 534.13 100.81 C 532.23 100.33 530.27 100.32 528.35 100.56 C 528.27 100.15 528.13 99.33 528.06 98.93 C 527.93 98.58 527.67 97.87 527.54 97.52 C 526.01 96.99 524.47 96.53 522.93 96.07 Z" />
<path fill="#99979d" opacity="1.00" d=" M 540.75 91.14 C 544.00 92.25 547.38 92.85 550.73 93.56 L 551.42 94.29 C 549.48 97.46 547.46 100.59 545.56 103.79 C 543.82 103.45 542.10 103.03 540.39 102.60 C 542.44 99.05 542.41 94.82 540.75 91.14 Z" />
<path fill="#555556" opacity="1.00" d=" M 527.84 94.54 C 526.87 93.40 526.97 92.36 528.14 91.41 C 530.43 91.84 530.38 94.80 527.84 94.54 Z" />
<path fill="#b9b9b5" opacity="1.00" d=" M 458.71 93.84 C 465.81 95.54 472.74 97.87 479.86 99.46 L 479.79 99.78 C 479.52 100.91 479.26 102.05 479.00 103.19 C 472.68 101.66 466.53 99.41 460.12 98.27 C 458.21 97.40 458.27 95.60 458.71 93.84 Z" />
<path fill="#202020" opacity="1.00" d=" M 539.08 94.36 C 540.38 94.62 540.59 95.37 539.71 96.59 C 538.39 96.32 538.18 95.58 539.08 94.36 Z" />
<path fill="#424242" opacity="1.00" d=" M 437.09 94.68 C 437.69 96.60 438.43 98.46 439.17 100.32 C 439.02 102.48 438.87 104.64 438.74 106.80 C 440.00 107.18 441.26 107.56 442.53 107.94 C 442.31 109.31 442.09 110.69 441.88 112.06 C 442.86 112.45 443.85 112.83 444.85 113.19 C 445.25 113.33 446.04 113.61 446.44 113.75 C 446.79 113.87 447.48 114.11 447.82 114.22 C 448.21 112.74 448.59 111.26 448.99 109.78 C 450.24 110.13 451.49 110.48 452.75 110.82 C 453.18 108.61 453.57 106.39 453.92 104.16 L 454.64 104.48 C 454.90 105.54 455.15 106.60 455.39 107.67 C 455.79 107.54 456.58 107.26 456.98 107.13 C 463.72 109.24 470.58 110.97 477.29 113.19 C 477.60 111.89 477.87 110.58 478.15 109.27 L 476.75 108.83 L 477.90 108.19 C 478.31 106.95 478.66 105.69 479.01 104.44 C 473.11 102.60 467.10 101.13 461.23 99.20 L 460.12 98.27 C 466.53 99.41 472.68 101.66 479.00 103.19 C 479.26 102.05 479.52 100.91 479.79 99.78 C 484.15 100.82 488.41 102.25 492.81 103.17 L 492.78 103.53 C 492.62 105.33 492.46 107.14 492.31 108.94 C 489.33 108.15 486.46 107.02 483.60 105.91 C 484.04 106.92 484.50 107.92 484.99 108.91 C 486.43 111.39 487.88 114.02 487.21 117.00 C 486.84 117.01 486.09 117.03 485.72 117.04 C 484.31 117.35 482.91 117.68 481.53 118.02 L 482.22 117.23 C 483.21 117.10 485.17 116.86 486.16 116.74 C 484.44 116.25 482.74 115.77 481.03 115.28 C 480.34 118.10 479.95 120.99 479.68 123.88 C 479.53 124.96 479.37 126.04 479.21 127.13 C 477.94 126.72 476.70 126.29 475.46 125.85 C 475.43 125.37 475.38 124.41 475.35 123.93 C 469.25 121.92 463.04 120.24 456.89 118.42 C 455.75 118.10 454.92 118.52 454.39 119.69 C 447.81 117.63 441.25 115.50 434.58 113.77 C 434.99 107.36 436.38 101.06 437.09 94.68 M 456.90 108.51 C 456.51 111.05 456.16 113.60 455.82 116.15 C 462.49 118.30 469.21 120.29 475.96 122.18 C 476.52 119.57 476.95 116.92 477.13 114.26 C 470.34 112.48 463.72 110.15 456.90 108.51 Z" />
<path fill="#c5c5c9" opacity="1.00" d=" M 444.09 96.83 C 446.13 97.21 448.16 97.65 450.19 98.10 C 450.17 99.69 450.11 101.27 450.05 102.86 C 451.34 103.27 452.64 103.69 453.92 104.16 C 453.57 106.39 453.18 108.61 452.75 110.82 C 451.49 110.48 450.24 110.13 448.99 109.78 C 448.59 111.26 448.21 112.74 447.82 114.22 C 447.48 114.11 446.79 113.87 446.44 113.75 L 446.31 113.05 C 448.20 112.54 448.47 110.26 448.29 108.61 C 448.84 108.88 449.95 109.41 450.51 109.68 C 450.92 109.79 451.76 110.00 452.18 110.11 C 452.63 108.48 453.19 106.81 453.05 105.09 C 452.09 104.07 450.56 104.01 449.34 103.48 C 449.43 102.03 449.63 100.56 449.36 99.12 C 448.01 98.48 446.58 98.10 445.16 97.71 C 444.76 99.18 444.39 100.65 444.00 102.13 C 442.69 101.69 441.40 101.24 440.10 100.82 C 439.91 102.57 439.74 104.31 439.56 106.06 C 440.76 106.54 441.96 107.00 443.18 107.46 C 442.88 109.55 442.75 111.96 444.85 113.19 C 443.85 112.83 442.86 112.45 441.88 112.06 C 442.09 110.69 442.31 109.31 442.53 107.94 C 441.26 107.56 440.00 107.18 438.74 106.80 C 438.87 104.64 439.02 102.48 439.17 100.32 C 440.78 100.45 442.39 100.60 444.01 100.75 C 444.03 99.77 444.07 97.81 444.09 96.83 Z" />
<path fill="#404041" opacity="1.00" d=" M 445.16 97.71 C 446.58 98.10 448.01 98.48 449.36 99.12 C 449.63 100.56 449.43 102.03 449.34 103.48 C 450.56 104.01 452.09 104.07 453.05 105.09 C 453.19 106.81 452.63 108.48 452.18 110.11 C 451.76 110.00 450.92 109.79 450.51 109.68 C 450.72 108.09 450.93 106.49 451.15 104.90 C 449.14 104.66 447.05 104.57 445.49 106.09 L 445.29 106.22 L 445.07 106.36 C 444.60 106.63 443.65 107.18 443.18 107.46 C 441.96 107.00 440.76 106.54 439.56 106.06 C 439.74 104.31 439.91 102.57 440.10 100.82 C 441.40 101.24 442.69 101.69 444.00 102.13 C 444.39 100.65 444.76 99.18 445.16 97.71 Z" />
<path fill="#191919" opacity="1.00" d=" M 522.50 105.05 C 522.69 102.41 522.85 99.76 522.96 97.11 C 524.64 97.72 526.36 98.32 528.06 98.93 C 528.13 99.33 528.27 100.15 528.35 100.56 C 528.22 101.91 528.08 103.27 527.92 104.63 C 526.99 104.87 526.06 105.11 525.15 105.36 C 522.52 110.08 518.22 114.36 512.76 115.40 C 512.85 114.73 513.02 113.39 513.10 112.72 L 513.35 112.61 C 517.23 111.31 520.17 108.30 522.50 105.05 Z" />
<path fill="#babab5" opacity="1.00" d=" M 457.79 98.70 C 458.65 98.83 460.37 99.08 461.23 99.20 C 467.10 101.13 473.11 102.60 479.01 104.44 C 478.66 105.69 478.31 106.95 477.90 108.19 C 471.40 105.61 464.34 104.76 457.92 102.04 C 457.89 101.21 457.82 99.54 457.79 98.70 Z" />
<path fill="#7d7c7e" opacity="1.00" d=" M 536.29 99.04 C 537.20 99.19 537.98 99.59 538.65 100.23 C 538.45 100.57 538.05 101.26 537.85 101.60 L 537.05 101.51 C 536.86 100.89 536.48 99.65 536.29 99.04 Z" />
<path fill="#828183" opacity="1.00" d=" M 514.30 100.36 L 515.03 99.69 C 515.45 104.08 513.67 108.27 513.35 112.61 L 513.10 112.72 C 513.02 113.39 512.85 114.73 512.76 115.40 C 511.49 121.21 510.48 127.06 509.41 132.91 C 509.14 135.18 506.78 136.07 505.13 137.19 C 507.14 126.12 509.41 115.10 511.13 103.98 C 512.04 102.65 513.12 101.45 514.30 100.36 Z" />
<path fill="#828183" opacity="1.00" d=" M 528.35 100.56 C 530.27 100.32 532.23 100.33 534.13 100.81 C 530.94 99.43 529.87 103.65 528.19 105.51 C 527.17 105.46 526.15 105.41 525.15 105.36 C 526.06 105.11 526.99 104.87 527.92 104.63 C 528.08 103.27 528.22 101.91 528.35 100.56 Z" />
<path fill="#565657" opacity="1.00" d=" M 445.49 106.09 C 447.05 104.57 449.14 104.66 451.15 104.90 C 450.93 106.49 450.72 108.09 450.51 109.68 C 449.95 109.41 448.84 108.88 448.29 108.61 L 447.75 108.24 C 448.07 107.97 448.73 107.42 449.06 107.15 C 447.87 106.76 446.68 106.41 445.49 106.09 Z" />
<path fill="#bf9f9b" opacity="1.00" d=" M 457.01 103.54 C 463.74 104.72 470.16 107.11 476.75 108.83 L 478.15 109.27 C 477.87 110.58 477.60 111.89 477.29 113.19 C 470.58 110.97 463.72 109.24 456.98 107.13 C 456.99 106.23 457.01 104.44 457.01 103.54 M 457.69 104.99 C 459.34 107.28 462.58 107.09 465.08 107.72 C 463.10 105.83 460.23 105.59 457.69 104.99 M 471.54 109.24 C 471.36 110.46 473.32 110.68 474.18 110.96 C 474.74 111.22 477.34 111.09 476.13 110.01 C 474.81 109.22 473.01 108.50 471.54 109.24 Z" />
<path fill="#303030" opacity="1.00" d=" M 492.78 103.53 C 498.02 104.62 503.13 106.24 508.29 107.68 C 506.80 116.16 505.16 124.61 503.53 133.06 C 503.55 134.99 501.42 133.88 500.34 133.63 C 493.31 131.42 486.27 129.22 479.21 127.13 C 479.37 126.04 479.53 124.96 479.68 123.88 C 482.32 124.41 484.93 125.12 487.49 125.98 C 488.00 123.25 488.55 120.53 489.14 117.82 C 488.66 117.62 487.69 117.21 487.21 117.00 C 487.88 114.02 486.43 111.39 484.99 108.91 C 489.86 109.67 494.45 111.72 499.40 112.01 C 497.48 110.11 494.80 109.61 492.31 108.94 C 492.46 107.14 492.62 105.33 492.78 103.53 M 490.94 118.11 C 490.18 120.90 489.72 123.75 489.41 126.62 C 492.07 127.53 494.80 128.16 497.51 128.92 C 498.04 126.07 498.66 123.23 498.89 120.34 C 496.21 119.68 493.57 118.92 490.94 118.11 M 485.31 127.18 C 485.64 130.51 488.21 125.53 485.31 127.18 M 495.21 130.11 C 495.48 133.43 498.15 128.51 495.21 130.11 Z" />
<path fill="#c78b86" opacity="1.00" d=" M 457.69 104.99 C 460.23 105.59 463.10 105.83 465.08 107.72 C 462.58 107.09 459.34 107.28 457.69 104.99 Z" />
<path fill="#afafb1" opacity="1.00" d=" M 445.29 106.22 L 445.49 106.09 C 445.38 106.16 445.18 106.29 445.07 106.36 L 445.29 106.22 Z" />
<path fill="#828183" opacity="1.00" d=" M 445.49 106.09 C 446.68 106.41 447.87 106.76 449.06 107.15 C 448.73 107.42 448.07 107.97 447.75 108.24 C 446.15 109.22 445.99 111.38 446.31 113.05 L 446.44 113.75 C 446.04 113.61 445.25 113.33 444.85 113.19 C 442.75 111.96 442.88 109.55 443.18 107.46 C 443.65 107.18 444.60 106.63 445.07 106.36 C 445.18 106.29 445.38 106.16 445.49 106.09 Z" />
<path fill="#90413f" opacity="1.00" d=" M 483.60 105.91 C 486.46 107.02 489.33 108.15 492.31 108.94 C 494.80 109.61 497.48 110.11 499.40 112.01 C 494.45 111.72 489.86 109.67 484.99 108.91 C 484.50 107.92 484.04 106.92 483.60 105.91 Z" />
<path fill="#151515" opacity="1.00" d=" M 446.31 113.05 C 445.99 111.38 446.15 109.22 447.75 108.24 L 448.29 108.61 C 448.47 110.26 448.20 112.54 446.31 113.05 Z" />
<path fill="#e3e3e5" opacity="1.00" d=" M 456.90 108.51 C 463.72 110.15 470.34 112.48 477.13 114.26 C 476.95 116.92 476.52 119.57 475.96 122.18 C 469.21 120.29 462.49 118.30 455.82 116.15 C 456.16 113.60 456.51 111.05 456.90 108.51 M 459.15 112.11 C 459.04 113.41 459.53 114.74 460.98 114.99 C 462.53 115.42 465.30 116.74 465.23 114.01 C 463.52 112.60 461.24 112.44 459.15 112.11 M 468.00 116.60 C 470.03 117.65 473.18 120.22 475.06 117.77 C 474.54 115.37 471.41 115.43 469.64 114.51 C 469.09 115.20 468.54 115.90 468.00 116.60 Z" />
<path fill="#c78682" opacity="1.00" d=" M 471.54 109.24 C 473.01 108.50 474.81 109.22 476.13 110.01 C 477.34 111.09 474.74 111.22 474.18 110.96 C 473.32 110.68 471.36 110.46 471.54 109.24 Z" />
<path fill="#191919" opacity="1.00" d=" M 459.15 112.11 C 461.24 112.44 463.52 112.60 465.23 114.01 C 465.30 116.74 462.53 115.42 460.98 114.99 C 459.53 114.74 459.04 113.41 459.15 112.11 Z" />
<path fill="#5b5b5c" opacity="1.00" d=" M 468.00 116.60 C 468.54 115.90 469.09 115.20 469.64 114.51 C 471.41 115.43 474.54 115.37 475.06 117.77 C 473.18 120.22 470.03 117.65 468.00 116.60 Z" />
<path fill="#e5e5e7" opacity="1.00" d=" M 481.03 115.28 C 482.74 115.77 484.44 116.25 486.16 116.74 C 485.17 116.86 483.21 117.10 482.22 117.23 L 481.53 118.02 C 480.34 120.19 480.64 122.68 482.49 124.38 C 483.91 124.64 485.31 124.52 486.67 124.02 C 486.70 123.97 486.76 123.86 486.79 123.80 C 489.11 121.47 487.33 119.03 485.72 117.04 C 486.09 117.03 486.84 117.01 487.21 117.00 C 487.69 117.21 488.66 117.62 489.14 117.82 C 488.55 120.53 488.00 123.25 487.49 125.98 C 484.93 125.12 482.32 124.41 479.68 123.88 C 479.95 120.99 480.34 118.10 481.03 115.28 Z" />
<path fill="#f3554f" opacity="1.00" d=" M 481.53 118.02 C 482.91 117.68 484.31 117.35 485.72 117.04 C 487.33 119.03 489.11 121.47 486.79 123.80 L 486.67 124.02 C 486.20 122.31 485.79 120.61 485.39 118.90 C 484.93 119.26 484.01 119.99 483.55 120.35 C 483.29 121.36 482.75 123.38 482.49 124.38 C 480.64 122.68 480.34 120.19 481.53 118.02 Z" />
<path fill="#e1e1e4" opacity="1.00" d=" M 490.94 118.11 C 493.57 118.92 496.21 119.68 498.89 120.34 C 498.66 123.23 498.04 126.07 497.51 128.92 C 494.80 128.16 492.07 127.53 489.41 126.62 C 489.72 123.75 490.18 120.90 490.94 118.11 M 492.28 120.43 C 489.66 121.95 490.70 125.29 492.09 127.28 C 492.74 127.16 494.03 126.94 494.67 126.82 C 494.69 125.53 495.06 124.30 495.45 123.09 C 495.32 124.72 495.17 126.36 495.01 128.00 C 500.46 126.83 497.40 117.85 492.53 120.29 C 492.46 120.32 492.34 120.39 492.28 120.43 Z" />
<path fill="#fd8174" opacity="1.00" d=" M 485.39 118.90 C 485.79 120.61 486.20 122.31 486.67 124.02 L 486.67 124.02 C 485.31 124.52 483.91 124.64 482.49 124.38 C 482.75 123.38 483.29 121.36 483.55 120.35 C 484.01 119.99 484.93 119.26 485.39 118.90 Z" />
<path fill="#424242" opacity="1.00" d=" M 492.28 120.43 C 492.34 120.39 492.46 120.32 492.53 120.29 C 492.46 120.32 492.34 120.39 492.28 120.43 Z" />
<path fill="#f3554f" opacity="1.00" d=" M 492.53 120.29 C 497.40 117.85 500.46 126.83 495.01 128.00 C 495.17 126.36 495.32 124.72 495.45 123.09 C 495.06 124.30 494.69 125.53 494.67 126.82 C 494.03 126.94 492.74 127.16 492.09 127.28 C 490.70 125.29 489.66 121.95 492.28 120.43 C 492.34 120.39 492.46 120.32 492.53 120.29 Z" />
<path fill="#743638" opacity="1.00" d=" M 486.67 124.02 L 486.79 123.80 C 486.76 123.86 486.70 123.97 486.67 124.02 L 486.67 124.02 Z" />
<path fill="#a74441" opacity="1.00" d=" M 485.31 127.18 C 488.21 125.53 485.64 130.51 485.31 127.18 Z" />
<path fill="#a1403e" opacity="1.00" d=" M 495.21 130.11 C 498.15 128.51 495.48 133.43 495.21 130.11 Z" />
<path fill="#ffffff" opacity="1.00" d=" M 65.06 292.45 C 67.44 292.48 69.81 292.49 72.18 292.58 C 72.05 305.72 72.16 318.86 72.13 332.00 C 69.66 332.00 67.20 332.00 64.74 332.00 C 63.26 326.26 62.14 320.42 60.38 314.77 C 60.35 320.51 60.39 326.26 60.38 332.00 C 57.99 332.00 55.61 332.00 53.23 331.98 C 53.32 318.80 53.14 305.62 53.32 292.44 C 55.63 292.49 57.94 292.50 60.25 292.51 C 61.69 298.36 63.66 304.09 64.55 310.07 C 65.39 304.23 64.80 298.32 65.06 292.45 Z" />
<path fill="#ffffff" opacity="1.00" d=" M 74.26 292.49 C 80.45 292.49 86.65 292.52 92.85 292.47 C 92.88 295.12 92.89 297.77 92.83 300.42 C 91.14 300.39 89.44 300.37 87.75 300.36 C 87.76 310.90 87.73 321.44 87.77 331.98 C 84.92 332.00 82.08 332.00 79.23 331.98 C 79.27 321.44 79.24 310.91 79.25 300.37 C 77.59 300.37 75.93 300.38 74.27 300.39 C 74.25 297.75 74.25 295.12 74.26 292.49 Z" />
<path fill="#ffffff" opacity="1.00" d=" M 94.74 292.52 C 99.43 292.46 104.12 292.54 108.81 292.45 C 108.89 295.09 108.88 297.73 108.87 300.38 C 107.00 300.37 105.13 300.37 103.26 300.37 C 103.25 302.87 103.25 305.36 103.24 307.86 C 104.99 307.87 106.75 307.87 108.50 307.88 C 108.50 310.38 108.50 312.87 108.50 315.38 C 106.75 315.37 105.00 315.37 103.26 315.37 C 103.24 318.31 103.24 321.24 103.28 324.18 C 105.35 324.13 107.43 324.11 109.50 324.11 C 109.50 326.74 109.50 329.37 109.50 332.00 C 104.58 332.00 99.67 332.00 94.75 332.00 C 94.74 318.84 94.77 305.68 94.74 292.52 Z" />
<path fill="#ffffff" opacity="1.00" d=" M 162.35 292.53 C 166.04 290.89 170.83 291.36 173.75 294.29 C 175.70 296.33 176.46 299.20 176.50 301.97 C 176.74 307.66 176.58 313.36 176.62 319.06 C 176.50 322.35 176.72 325.94 174.84 328.81 C 171.39 334.43 161.72 334.27 158.57 328.44 C 156.89 325.59 157.13 322.15 157.00 318.98 C 157.07 312.97 156.82 306.96 157.19 300.97 C 157.33 297.54 159.12 293.99 162.35 292.53 M 165.61 299.86 C 165.56 308.68 165.11 317.57 165.89 326.37 C 166.35 326.20 167.27 325.85 167.73 325.67 C 168.54 317.16 168.04 308.49 168.01 299.93 C 167.74 299.40 167.21 298.34 166.94 297.81 C 166.61 298.33 165.94 299.35 165.61 299.86 Z" />
<path fill="#ffff00" opacity="1.00" d=" M 199.08 292.43 C 201.45 292.47 203.82 292.49 206.19 292.61 C 206.04 305.74 206.17 318.87 206.12 332.00 C 203.67 331.99 201.21 332.00 198.76 332.01 C 197.22 326.31 196.21 320.45 194.34 314.83 C 194.38 320.56 194.38 326.28 194.38 332.00 C 191.99 332.00 189.60 331.99 187.22 331.97 C 187.34 318.79 187.12 305.61 187.33 292.44 C 189.64 292.49 191.94 292.50 194.25 292.51 C 195.71 298.35 197.64 304.08 198.57 310.04 C 199.39 304.20 198.78 298.30 199.08 292.43 Z" />
<path fill="#ffff00" opacity="1.00" d=" M 209.73 292.54 C 214.42 292.45 219.12 292.54 223.83 292.47 C 223.88 295.10 223.88 297.74 223.87 300.38 C 221.99 300.37 220.13 300.37 218.26 300.37 C 218.25 302.87 218.25 305.36 218.24 307.87 C 219.99 307.87 221.74 307.87 223.50 307.88 C 223.50 310.38 223.50 312.87 223.50 315.38 C 221.75 315.37 220.00 315.37 218.25 315.37 C 218.27 318.28 218.27 321.19 218.16 324.10 C 220.28 324.11 222.39 324.10 224.50 324.14 C 224.50 326.76 224.50 329.38 224.50 332.00 C 219.58 332.00 214.67 332.00 209.75 332.00 C 209.73 318.84 209.78 305.69 209.73 292.54 Z" />
<path fill="#ffff00" opacity="1.00" d=" M 227.34 295.34 C 230.36 290.77 237.36 290.62 241.62 293.42 C 245.22 295.79 244.44 300.67 244.67 304.37 C 242.04 304.37 239.41 304.37 236.79 304.38 C 236.65 302.36 237.09 300.19 236.12 298.33 C 233.99 297.93 233.90 300.61 233.98 302.01 C 233.94 306.15 238.60 307.48 240.97 310.09 C 246.12 314.04 245.82 321.34 244.88 327.09 C 243.10 333.44 233.98 334.53 229.33 330.72 C 225.58 327.63 226.42 322.19 226.24 317.87 C 228.86 317.87 231.49 317.87 234.12 317.88 C 234.47 320.51 233.25 323.92 235.03 326.06 C 238.33 326.14 237.25 321.16 236.80 318.99 C 234.01 314.65 227.93 312.89 226.54 307.54 C 225.74 303.55 225.54 299.09 227.34 295.34 Z" />
<path fill="#ffffff" opacity="1.00" d=" M 18.75 292.50 C 21.10 292.49 23.44 292.49 25.79 292.53 C 27.35 298.12 28.49 303.85 30.49 309.31 C 30.53 303.70 30.48 298.10 30.50 292.50 C 32.87 292.50 35.23 292.49 37.60 292.48 C 37.69 305.63 37.54 318.78 37.68 331.93 C 35.19 332.01 32.69 332.01 30.20 331.97 C 28.99 326.32 27.31 320.78 26.33 315.09 C 26.10 314.89 25.66 314.49 25.43 314.29 C 26.24 320.16 25.74 326.09 25.87 332.00 C 23.50 331.99 21.12 332.00 18.75 332.00 C 18.75 318.83 18.75 305.66 18.75 292.50 Z" />
<path fill="#ffffff" opacity="1.00" d=" M 41.23 331.97 C 41.34 318.79 41.11 305.60 41.34 292.42 C 44.11 292.53 46.87 292.53 49.64 292.40 C 49.91 305.59 49.65 318.78 49.77 331.98 C 46.92 332.01 44.07 332.01 41.23 331.97 Z" />
<path fill="#ffffff" opacity="1.00" d=" M 111.75 292.50 C 114.09 292.49 116.44 292.49 118.79 292.53 C 120.27 298.13 121.64 303.77 123.35 309.31 C 123.70 303.71 123.40 298.10 123.50 292.50 C 125.87 292.50 128.24 292.49 130.61 292.49 C 130.67 305.64 130.56 318.79 130.67 331.94 C 128.19 332.00 125.70 332.01 123.22 331.98 C 121.97 326.34 120.32 320.79 119.33 315.09 C 119.10 314.89 118.66 314.49 118.43 314.29 C 119.25 320.16 118.74 326.10 118.87 332.00 C 116.50 332.00 114.12 332.00 111.75 332.00 C 111.75 318.83 111.75 305.66 111.75 292.50 Z" />
<path fill="#ffffff" opacity="1.00" d=" M 134.22 331.97 C 134.36 318.78 134.08 305.59 134.36 292.41 C 139.25 292.71 144.24 292.04 149.04 293.23 C 152.39 294.14 153.88 297.81 153.78 301.01 C 153.96 308.69 153.89 316.38 153.82 324.06 C 153.85 326.90 153.14 330.47 150.03 331.44 C 144.85 332.54 139.48 331.80 134.22 331.97 M 142.89 298.84 C 142.58 307.72 142.79 316.62 142.78 325.51 C 143.27 325.31 144.26 324.92 144.76 324.72 C 146.12 318.96 145.04 312.86 145.39 306.97 C 145.04 304.18 146.66 299.68 142.89 298.84 Z" />
</svg>
