<?xml version="1.0" encoding="UTF-8" ?>
<!DOCTYPE svg PUBLIC "-//W3C//DTD SVG 1.1//EN" "http://www.w3.org/Graphics/SVG/1.1/DTD/svg11.dtd">
<svg width="960pt" height="540pt" viewBox="0 0 960 540" version="1.1" xmlns="http://www.w3.org/2000/svg">
<path fill="#646462" opacity="1.00" d=" M 454.74 59.51 C 463.61 53.17 472.21 46.43 481.13 40.16 C 488.02 41.28 494.91 42.68 501.77 44.07 C 499.73 46.05 497.56 47.88 495.26 49.55 C 496.59 49.79 497.93 50.03 499.28 50.27 C 498.59 51.49 498.44 53.30 497.02 53.93 C 493.96 53.61 491.06 52.35 487.98 52.32 C 485.11 52.42 482.40 53.51 479.69 54.33 C 479.60 54.88 479.40 55.98 479.30 56.52 C 478.21 55.64 477.17 54.69 476.12 53.75 C 475.95 52.34 475.77 50.92 475.60 49.51 C 475.30 50.87 475.02 52.23 474.74 53.59 C 473.74 53.68 472.75 53.78 471.76 53.87 C 469.64 58.61 473.32 63.82 477.31 66.32 C 471.29 64.78 466.04 61.12 459.92 59.88 C 457.21 59.85 454.50 59.87 451.80 59.79 C 452.53 59.72 454.01 59.58 454.74 59.51 M 480.35 42.17 C 477.36 43.78 481.38 45.04 482.52 43.17 C 483.86 41.71 481.11 41.27 480.35 42.17 M 461.72 57.95 C 464.13 58.64 466.57 59.20 469.03 59.69 C 469.20 57.39 467.25 55.95 465.83 54.48 C 464.37 55.53 463.00 56.70 461.72 57.95 Z" />
<path fill="#474746" opacity="1.00" d=" M 480.35 42.17 C 481.11 41.27 483.86 41.71 482.52 43.17 C 481.38 45.04 477.36 43.78 480.35 42.17 Z" />
<path fill="#5b5b5a" opacity="1.00" d=" M 501.77 44.07 C 510.34 46.00 518.58 49.13 527.12 51.21 C 525.94 53.34 525.19 55.67 525.15 58.11 C 527.49 56.57 529.52 54.63 531.29 52.46 C 531.86 52.68 532.98 53.11 533.54 53.33 C 525.83 59.54 518.90 66.65 511.76 73.49 C 511.28 73.67 510.32 74.03 509.84 74.21 C 505.20 72.76 500.48 71.63 495.78 70.43 C 497.27 69.79 498.76 69.14 500.28 68.56 C 500.58 68.53 501.18 68.48 501.49 68.45 C 503.94 69.29 506.32 70.46 508.92 70.84 C 510.85 70.37 511.98 68.42 513.39 67.15 C 512.46 67.05 510.60 66.87 509.67 66.78 C 514.24 63.27 519.18 60.09 522.92 55.64 C 523.64 53.64 521.08 52.67 519.83 51.68 C 519.05 51.19 518.28 50.69 517.51 50.20 C 514.54 55.05 509.88 59.43 503.98 60.03 C 495.69 61.15 486.78 60.59 479.30 56.52 C 479.40 55.98 479.60 54.88 479.69 54.33 C 482.40 53.51 485.11 52.42 487.98 52.32 C 491.06 52.35 493.96 53.61 497.02 53.93 C 498.44 53.30 498.59 51.49 499.28 50.27 C 497.93 50.03 496.59 49.79 495.26 49.55 C 497.56 47.88 499.73 46.05 501.77 44.07 Z" />
<path fill="#3d3b3b" opacity="1.00" d=" M 474.74 53.59 C 475.02 52.23 475.30 50.87 475.60 49.51 C 475.77 50.92 475.95 52.34 476.12 53.75 C 477.17 54.69 478.21 55.64 479.30 56.52 C 486.78 60.59 495.69 61.15 503.98 60.03 C 509.88 59.43 514.54 55.05 517.51 50.20 C 518.28 50.69 519.05 51.19 519.83 51.68 C 516.70 55.63 512.64 58.66 508.54 61.50 C 505.36 61.04 502.15 61.27 499.02 61.92 C 499.12 63.80 499.22 65.68 499.32 67.56 C 497.03 68.05 494.68 68.05 492.36 67.92 C 492.74 65.92 493.14 63.93 493.55 61.95 C 489.84 60.91 486.04 60.11 482.17 60.22 C 481.51 62.05 480.86 63.86 480.20 65.68 C 482.37 66.38 484.54 67.13 486.75 67.70 C 491.14 69.03 495.77 68.53 500.28 68.56 C 498.76 69.14 497.27 69.79 495.78 70.43 C 500.48 71.63 505.20 72.76 509.84 74.21 C 509.83 76.17 509.94 78.14 510.05 80.10 C 510.52 79.78 511.44 79.13 511.90 78.80 C 511.85 77.03 511.80 75.26 511.76 73.49 C 518.90 66.65 525.83 59.54 533.54 53.33 C 533.93 57.32 533.85 61.34 533.56 65.34 C 530.86 66.51 528.79 69.05 527.20 71.47 C 526.10 71.72 525.01 71.97 523.92 72.18 C 529.63 74.78 535.95 75.72 541.82 77.96 L 541.82 79.52 C 539.25 78.77 536.73 77.76 534.06 77.46 C 531.68 78.14 529.65 79.62 527.54 80.84 C 523.40 80.16 518.95 78.98 514.91 80.72 C 506.45 85.45 498.01 90.24 489.60 95.06 C 491.67 97.24 493.69 99.47 495.71 101.70 C 493.78 103.18 491.86 104.69 489.99 106.24 C 490.80 107.27 491.62 108.32 492.43 109.37 L 491.14 109.07 C 488.65 106.15 485.67 103.75 481.97 102.55 C 480.79 102.01 479.62 101.44 478.46 100.87 C 478.73 104.49 479.00 108.22 478.03 111.76 C 477.50 112.00 476.43 112.47 475.90 112.71 C 475.39 107.84 475.68 102.94 475.84 98.06 C 484.41 93.57 492.82 88.75 501.58 84.62 C 502.41 84.13 503.23 83.61 504.07 83.10 C 499.24 82.11 494.85 79.71 490.00 78.77 C 490.65 77.66 491.31 76.56 491.97 75.46 C 489.49 74.77 486.99 74.16 484.46 73.69 C 485.30 74.94 486.17 76.17 487.05 77.39 C 486.28 77.27 484.73 77.02 483.96 76.90 C 483.29 76.73 481.95 76.37 481.28 76.20 C 481.65 74.81 482.03 73.42 482.42 72.04 C 480.06 70.95 477.66 69.77 475.03 69.62 C 473.54 70.47 472.36 71.73 471.11 72.88 C 470.80 72.52 470.17 71.79 469.86 71.42 C 468.94 71.50 468.02 71.58 467.11 71.66 C 466.21 66.95 463.18 63.20 459.92 59.88 C 466.04 61.12 471.29 64.78 477.31 66.32 C 473.32 63.82 469.64 58.61 471.76 53.87 C 472.75 53.78 473.74 53.68 474.74 53.59 M 481.35 101.00 C 483.52 100.52 488.21 102.51 488.17 99.02 C 485.84 99.00 482.02 97.78 481.35 101.00 Z" />
<path fill="#464645" opacity="0.94" d=" M 527.12 51.21 C 528.51 51.61 529.90 52.02 531.29 52.46 C 529.52 54.63 527.49 56.57 525.15 58.11 C 525.19 55.67 525.94 53.34 527.12 51.21 Z" />
<path fill="#272526" opacity="1.00" d=" M 519.83 51.68 C 521.08 52.67 523.64 53.64 522.92 55.64 C 519.18 60.09 514.24 63.27 509.67 66.78 C 506.88 66.96 504.17 67.73 501.49 68.45 C 501.18 68.48 500.58 68.53 500.28 68.56 C 495.77 68.53 491.14 69.03 486.75 67.70 C 488.62 67.79 490.49 67.84 492.36 67.92 C 494.68 68.05 497.03 68.05 499.32 67.56 C 502.45 66.88 505.58 66.21 508.73 65.61 C 508.66 64.24 508.58 62.87 508.54 61.50 C 512.64 58.66 516.70 55.63 519.83 51.68 Z" />
<path fill="#acacaa" opacity="1.00" d=" M 461.72 57.95 C 463.00 56.70 464.37 55.53 465.83 54.48 C 467.25 55.95 469.20 57.39 469.03 59.69 C 466.57 59.20 464.13 58.64 461.72 57.95 Z" />
<path fill="#201f1f" opacity="1.00" d=" M 443.38 63.50 C 446.28 62.47 448.94 60.90 451.80 59.79 C 454.50 59.87 457.21 59.85 459.92 59.88 C 463.18 63.20 466.21 66.95 467.11 71.66 C 468.02 71.58 468.94 71.50 469.86 71.42 C 470.17 71.79 470.80 72.52 471.11 72.88 C 472.36 71.73 473.54 70.47 475.03 69.62 C 477.66 69.77 480.06 70.95 482.42 72.04 C 482.03 73.42 481.65 74.81 481.28 76.20 C 476.27 76.71 471.45 78.38 467.22 81.11 C 462.78 83.82 457.54 84.57 452.43 84.50 C 451.47 82.85 450.87 81.03 450.52 79.15 C 448.68 79.90 446.74 80.40 444.99 81.34 C 443.86 81.46 442.73 81.57 441.61 81.65 C 441.52 82.23 441.43 82.81 441.35 83.40 C 438.23 83.45 434.58 84.27 432.04 81.91 C 427.52 79.04 426.84 72.48 429.02 67.97 C 430.97 64.32 435.39 64.35 438.94 63.74 C 440.23 63.42 441.47 63.52 442.66 64.03 C 442.73 64.80 442.73 65.56 442.67 66.33 C 443.16 66.74 444.14 67.55 444.63 67.95 C 444.14 68.12 443.15 68.46 442.66 68.62 C 442.21 68.79 441.33 69.14 440.88 69.31 C 440.58 68.84 439.96 67.91 439.65 67.45 C 439.62 67.40 439.55 67.30 439.52 67.25 L 439.38 67.61 C 437.02 69.09 434.66 70.59 432.72 72.60 C 432.88 71.54 433.20 69.43 433.36 68.38 C 432.86 68.70 431.85 69.35 431.35 69.68 C 431.06 69.27 430.50 68.45 430.21 68.04 C 429.69 70.40 429.15 72.76 428.58 75.11 C 429.50 76.52 430.43 77.94 431.47 79.27 L 431.89 79.37 C 432.65 79.09 433.41 78.80 434.16 78.49 C 439.59 81.02 444.80 77.04 450.14 76.25 C 453.72 75.41 457.45 75.16 460.97 74.06 C 464.13 72.41 464.48 67.86 461.80 65.59 C 461.53 65.72 460.99 65.97 460.71 66.10 C 459.66 65.07 458.62 64.04 457.54 63.06 C 457.24 62.81 456.63 62.31 456.33 62.06 C 455.06 60.26 452.15 61.73 453.13 63.80 C 451.26 63.36 449.34 63.68 447.91 65.01 C 446.39 64.51 444.89 63.99 443.38 63.50 M 435.11 66.19 C 433.55 69.24 438.34 66.46 435.11 66.19 M 464.82 73.39 C 464.02 74.95 462.81 76.21 461.52 77.36 C 458.84 77.78 456.20 78.43 453.49 78.64 C 453.43 80.00 453.37 81.36 453.32 82.72 C 457.25 83.30 461.25 82.62 464.86 80.99 C 468.08 79.72 471.48 77.38 471.98 73.68 C 469.59 73.55 467.20 73.45 464.82 73.39 Z" />
<path fill="#777776" opacity="1.00" d=" M 482.17 60.22 C 486.04 60.11 489.84 60.91 493.55 61.95 C 493.14 63.93 492.74 65.92 492.36 67.92 C 490.49 67.84 488.62 67.79 486.75 67.70 C 484.54 67.13 482.37 66.38 480.20 65.68 C 480.86 63.86 481.51 62.05 482.17 60.22 M 484.15 62.36 C 483.09 63.11 483.94 65.96 485.16 64.30 C 486.13 63.54 485.43 60.89 484.15 62.36 Z" />
<path fill="#546b95" opacity="1.00" d=" M 453.13 63.80 C 452.15 61.73 455.06 60.26 456.33 62.06 C 456.39 63.79 454.47 64.27 453.13 63.80 Z" />
<path fill="#5e5f5d" opacity="1.00" d=" M 499.02 61.92 C 502.15 61.27 505.36 61.04 508.54 61.50 C 508.58 62.87 508.66 64.24 508.73 65.61 C 505.58 66.21 502.45 66.88 499.32 67.56 C 499.22 65.68 499.12 63.80 499.02 61.92 Z" />
<path fill="#3a3a3a" opacity="1.00" d=" M 456.33 62.06 C 456.63 62.31 457.24 62.81 457.54 63.06 C 457.40 63.58 457.12 64.61 456.97 65.13 C 456.40 65.75 455.81 66.35 455.23 66.95 C 454.49 66.39 453.75 65.82 453.01 65.27 C 451.83 63.73 449.79 65.16 450.10 66.81 C 448.48 69.76 444.81 71.90 446.07 75.72 C 447.42 75.92 448.78 76.09 450.14 76.25 C 444.80 77.04 439.59 81.02 434.16 78.49 C 433.41 78.80 432.65 79.09 431.89 79.37 L 431.47 79.27 C 431.51 77.08 431.44 74.85 432.14 72.74 L 432.39 72.93 C 433.39 73.72 434.38 74.52 435.37 75.33 C 435.41 75.37 435.50 75.45 435.55 75.49 L 435.72 75.48 C 436.57 75.38 438.26 75.19 439.11 75.09 C 437.69 77.19 441.22 77.08 439.96 75.00 C 440.26 74.75 440.84 74.27 441.13 74.02 C 442.68 74.47 443.10 73.99 442.37 72.58 C 442.39 72.31 442.42 71.76 442.43 71.48 C 442.49 70.77 442.60 69.34 442.66 68.62 C 443.15 68.46 444.14 68.12 444.63 67.95 C 445.27 67.98 445.89 68.01 446.54 68.04 C 446.53 67.57 446.52 66.63 446.51 66.16 C 446.86 65.87 447.56 65.30 447.91 65.01 C 449.34 63.68 451.26 63.36 453.13 63.80 C 454.47 64.27 456.39 63.79 456.33 62.06 Z" />
<path fill="#3d3c3c" opacity="1.00" d=" M 484.15 62.36 C 485.43 60.89 486.13 63.54 485.16 64.30 C 483.94 65.96 483.09 63.11 484.15 62.36 Z" />
<path fill="#777776" opacity="1.00" d=" M 438.94 63.74 C 440.37 63.26 441.92 62.88 443.38 63.50 C 444.89 63.99 446.39 64.51 447.91 65.01 C 447.56 65.30 446.86 65.87 446.51 66.16 C 446.52 66.63 446.53 67.57 446.54 68.04 C 445.89 68.01 445.27 67.98 444.63 67.95 C 444.14 67.55 443.16 66.74 442.67 66.33 C 442.73 65.56 442.73 64.80 442.66 64.03 C 441.47 63.52 440.23 63.42 438.94 63.74 Z" />
<path fill="#a79751" opacity="1.00" d=" M 456.97 65.13 C 457.12 64.61 457.40 63.58 457.54 63.06 C 458.62 64.04 459.66 65.07 460.71 66.10 C 459.54 66.75 458.28 67.12 456.94 67.19 C 456.95 66.68 456.97 65.65 456.97 65.13 Z" />
<path fill="#68a471" opacity="1.00" d=" M 450.10 66.81 C 449.79 65.16 451.83 63.73 453.01 65.27 C 453.77 67.08 451.23 67.74 450.10 66.81 Z" />
<path fill="#484747" opacity="1.00" d=" M 453.01 65.27 C 453.75 65.82 454.49 66.39 455.23 66.95 C 455.81 66.35 456.40 65.75 456.97 65.13 C 456.97 65.65 456.95 66.68 456.94 67.19 C 458.28 67.12 459.54 66.75 460.71 66.10 C 460.99 65.97 461.53 65.72 461.80 65.59 C 464.48 67.86 464.13 72.41 460.97 74.06 C 457.45 75.16 453.72 75.41 450.14 76.25 C 448.78 76.09 447.42 75.92 446.07 75.72 C 444.81 71.90 448.48 69.76 450.10 66.81 C 451.23 67.74 453.77 67.08 453.01 65.27 M 454.20 68.12 C 453.08 69.63 455.70 71.08 456.71 69.75 C 457.81 68.27 455.17 66.74 454.20 68.12 Z" />
<path fill="#6f6f6e" opacity="1.00" d=" M 435.11 66.19 C 438.34 66.46 433.55 69.24 435.11 66.19 Z" />
<path fill="#7d7c7b" opacity="1.00" d=" M 439.52 67.25 C 439.55 67.30 439.62 67.40 439.65 67.45 L 439.38 67.61 L 439.52 67.25 Z" />
<path fill="#aaaaa9" opacity="1.00" d=" M 501.49 68.45 C 504.17 67.73 506.88 66.96 509.67 66.78 C 510.60 66.87 512.46 67.05 513.39 67.15 C 511.98 68.42 510.85 70.37 508.92 70.84 C 506.32 70.46 503.94 69.29 501.49 68.45 Z" />
<path fill="#70706e" opacity="1.00" d=" M 428.58 75.11 C 429.15 72.76 429.69 70.40 430.21 68.04 C 430.50 68.45 431.06 69.27 431.35 69.68 C 431.85 69.35 432.86 68.70 433.36 68.38 C 433.20 69.43 432.88 71.54 432.72 72.60 C 432.57 72.63 432.29 72.70 432.14 72.74 C 431.44 74.85 431.51 77.08 431.47 79.27 C 430.43 77.94 429.50 76.52 428.58 75.11 Z" />
<path fill="#31302f" opacity="1.00" d=" M 432.72 72.60 C 434.66 70.59 437.02 69.09 439.38 67.61 L 439.65 67.45 C 439.96 67.91 440.58 68.84 440.88 69.31 C 441.27 69.85 442.04 70.94 442.43 71.48 C 442.42 71.76 442.39 72.31 442.37 72.58 C 442.06 72.94 441.44 73.66 441.13 74.02 C 440.84 74.27 440.26 74.75 439.96 75.00 L 439.11 75.09 C 438.26 75.19 436.57 75.38 435.72 75.48 L 435.37 75.33 C 434.38 74.52 433.39 73.72 432.39 72.93 L 432.72 72.60 Z" />
<path fill="#b97059" opacity="1.00" d=" M 454.20 68.12 C 455.17 66.74 457.81 68.27 456.71 69.75 C 455.70 71.08 453.08 69.63 454.20 68.12 Z" />
<path fill="#515050" opacity="1.00" d=" M 440.88 69.31 C 441.33 69.14 442.21 68.79 442.66 68.62 C 442.60 69.34 442.49 70.77 442.43 71.48 C 442.04 70.94 441.27 69.85 440.88 69.31 Z" />
<path fill="#abacab" opacity="1.00" d=" M 432.14 72.74 C 432.29 72.70 432.57 72.63 432.72 72.60 L 432.39 72.93 L 432.14 72.74 Z" />
<path fill="#6b6a69" opacity="1.00" d=" M 441.13 74.02 C 441.44 73.66 442.06 72.94 442.37 72.58 C 443.10 73.99 442.68 74.47 441.13 74.02 Z" />
<path fill="#171616" opacity="0.96" d=" M 484.46 73.69 C 486.99 74.16 489.49 74.77 491.97 75.46 C 491.31 76.56 490.65 77.66 490.00 78.77 C 487.95 78.26 485.95 77.58 483.96 76.90 C 484.73 77.02 486.28 77.27 487.05 77.39 C 486.17 76.17 485.30 74.94 484.46 73.69 Z" />
<path fill="#201f20" opacity="1.00" d=" M 509.84 74.21 C 510.32 74.03 511.28 73.67 511.76 73.49 C 511.80 75.26 511.85 77.03 511.90 78.80 C 511.44 79.13 510.52 79.78 510.05 80.10 C 509.94 78.14 509.83 76.17 509.84 74.21 Z" />
<path fill="#999897" opacity="1.00" d=" M 435.37 75.33 L 435.72 75.48 L 435.55 75.49 C 435.50 75.45 435.41 75.37 435.37 75.33 Z" />
<path fill="#91918f" opacity="1.00" d=" M 439.11 75.09 L 439.96 75.00 C 441.22 77.08 437.69 77.19 439.11 75.09 Z" />
<path fill="#050404" opacity="0.46" d=" M 467.22 81.11 C 471.45 78.38 476.27 76.71 481.28 76.20 C 481.95 76.37 483.29 76.73 483.96 76.90 C 485.95 77.58 487.95 78.26 490.00 78.77 C 494.85 79.71 499.24 82.11 504.07 83.10 C 503.23 83.61 502.41 84.13 501.58 84.62 C 495.77 80.58 488.56 79.91 481.95 77.92 C 473.97 77.53 468.65 84.96 461.04 86.04 C 458.14 86.51 454.50 87.16 452.43 84.50 C 457.54 84.57 462.78 83.82 467.22 81.11 Z" />
<path fill="#1d1c1d" opacity="1.00" d=" M 527.54 80.84 C 529.65 79.62 531.68 78.14 534.06 77.46 C 536.73 77.76 539.25 78.77 541.82 79.52 C 550.63 82.23 559.38 85.15 568.05 88.26 C 565.72 89.63 563.38 92.44 560.43 91.52 C 551.36 88.81 542.95 84.10 533.64 82.15 C 531.60 81.71 529.58 81.26 527.54 80.84 Z" />
<path fill="#363334" opacity="1.00" d=" M 541.82 77.96 C 556.40 82.00 570.79 86.77 584.88 92.27 L 584.19 92.96 C 580.57 95.04 577.00 97.24 573.89 100.04 C 573.92 104.89 574.00 109.74 574.29 114.59 C 572.96 115.56 571.61 116.50 570.26 117.44 C 569.95 112.69 569.87 107.93 569.80 103.17 C 569.20 103.21 568.00 103.31 567.39 103.36 C 567.80 107.67 568.12 112.03 567.45 116.34 C 565.89 113.08 566.27 109.39 566.05 105.90 C 565.42 105.91 564.17 105.94 563.54 105.96 C 564.40 111.13 564.39 116.38 564.42 121.61 C 557.39 126.97 549.84 131.57 542.79 136.90 C 541.42 132.43 541.72 127.72 541.70 123.10 C 537.39 121.55 532.77 121.64 528.35 120.65 C 525.76 119.43 523.14 118.30 520.41 117.50 C 520.97 116.96 521.54 116.42 522.12 115.88 C 528.09 115.03 534.14 115.61 540.14 115.14 C 544.14 115.13 546.57 111.55 549.78 109.72 C 555.91 106.18 561.40 101.67 567.42 97.95 C 564.27 95.76 561.18 92.97 557.31 92.29 C 554.09 93.46 551.39 95.89 547.93 96.43 C 544.26 97.03 541.19 99.20 537.90 100.76 C 537.62 97.98 533.23 99.09 536.30 101.13 C 534.49 103.07 532.06 104.13 529.62 105.03 C 529.81 105.79 529.99 106.56 530.15 107.33 C 520.13 106.32 510.41 102.93 501.74 97.85 C 502.96 97.29 504.17 96.70 505.38 96.11 C 508.08 96.48 510.73 97.36 513.48 97.34 C 516.71 96.99 519.66 95.29 522.93 95.18 C 525.57 95.11 528.21 95.29 530.86 95.23 C 527.55 92.32 522.99 91.68 519.24 89.51 C 520.37 89.32 521.50 89.12 522.65 88.93 C 523.22 83.40 529.71 83.75 533.64 82.15 C 542.95 84.10 551.36 88.81 560.43 91.52 C 563.38 92.44 565.72 89.63 568.05 88.26 C 559.38 85.15 550.63 82.23 541.82 79.52 L 541.82 77.96 M 524.62 89.76 C 526.33 91.57 528.94 91.83 531.22 92.51 C 529.53 90.67 526.91 90.35 524.62 89.76 Z" />
<path fill="#4d4a4b" opacity="1.00" d=" M 514.91 80.72 C 518.95 78.98 523.40 80.16 527.54 80.84 C 529.58 81.26 531.60 81.71 533.64 82.15 C 529.71 83.75 523.22 83.40 522.65 88.93 C 521.50 89.12 520.37 89.32 519.24 89.51 C 522.99 91.68 527.55 92.32 530.86 95.23 C 528.21 95.29 525.57 95.11 522.93 95.18 C 519.66 95.29 516.71 96.99 513.48 97.34 C 510.73 97.36 508.08 96.48 505.38 96.11 C 502.83 95.73 500.27 95.41 497.71 95.23 C 505.14 89.66 514.01 86.42 521.44 80.90 C 519.26 80.77 517.09 80.67 514.91 80.72 Z" />
<path fill="#5c5a5b" opacity="1.00" d=" M 489.60 95.06 C 498.01 90.24 506.45 85.45 514.91 80.72 C 517.09 80.67 519.26 80.77 521.44 80.90 C 514.01 86.42 505.14 89.66 497.71 95.23 C 495.00 95.14 492.30 95.16 489.60 95.06 Z" />
<path fill="#aaaaa9" opacity="1.00" d=" M 524.62 89.76 C 526.91 90.35 529.53 90.67 531.22 92.51 C 528.94 91.83 526.33 91.57 524.62 89.76 Z" />
<path fill="#282526" opacity="1.00" d=" M 557.31 92.29 C 561.18 92.97 564.27 95.76 567.42 97.95 C 561.40 101.67 555.91 106.18 549.78 109.72 C 546.57 111.55 544.14 115.13 540.14 115.14 L 540.30 114.23 C 540.33 113.96 540.40 113.44 540.43 113.18 C 537.66 110.53 534.16 108.71 530.33 108.33 L 530.15 107.33 C 529.99 106.56 529.81 105.79 529.62 105.03 C 532.06 104.13 534.49 103.07 536.30 101.13 C 536.70 101.04 537.50 100.85 537.90 100.76 C 541.19 99.20 544.26 97.03 547.93 96.43 C 551.39 95.89 554.09 93.46 557.31 92.29 Z" />
<path fill="#2d2b2b" opacity="1.00" d=" M 584.19 92.96 C 584.48 93.16 585.05 93.58 585.34 93.78 C 585.67 98.11 585.30 102.46 585.56 106.79 C 581.76 109.34 577.94 111.85 574.29 114.59 C 574.00 109.74 573.92 104.89 573.89 100.04 C 577.00 97.24 580.57 95.04 584.19 92.96 Z" />
<path fill="#1e1c1d" opacity="1.00" d=" M 489.60 95.06 C 492.30 95.16 495.00 95.14 497.71 95.23 C 500.27 95.41 502.83 95.73 505.38 96.11 C 504.17 96.70 502.96 97.29 501.74 97.85 L 500.82 98.22 C 502.10 99.45 503.37 100.69 504.77 101.80 C 504.26 103.89 503.74 105.98 503.21 108.07 C 501.69 105.84 500.27 103.55 498.71 101.36 C 498.18 103.77 498.98 106.49 500.82 108.14 C 503.33 109.76 506.24 110.60 508.95 111.80 C 511.28 112.73 513.56 113.84 516.04 114.30 C 519.80 113.99 523.23 111.95 527.04 112.04 C 531.54 112.17 535.92 113.29 540.30 114.23 L 540.14 115.14 C 534.14 115.61 528.09 115.03 522.12 115.88 C 518.36 116.52 514.13 119.13 510.61 116.40 C 505.83 112.55 499.70 109.87 493.45 111.12 C 492.67 110.44 491.89 109.77 491.14 109.07 L 492.43 109.37 C 491.62 108.32 490.80 107.27 489.99 106.24 C 491.86 104.69 493.78 103.18 495.71 101.70 C 493.69 99.47 491.67 97.24 489.60 95.06 Z" />
<path fill="#161515" opacity="1.00" d=" M 500.82 98.22 L 501.74 97.85 C 510.41 102.93 520.13 106.32 530.15 107.33 L 530.33 108.33 C 524.70 107.96 519.03 107.41 513.62 105.73 C 510.56 104.67 507.61 103.32 504.77 101.80 C 503.37 100.69 502.10 99.45 500.82 98.22 Z" />
<path fill="#727271" opacity="1.00" d=" M 481.35 101.00 C 482.02 97.78 485.84 99.00 488.17 99.02 C 488.21 102.51 483.52 100.52 481.35 101.00 Z" />
<path fill="#5e5e5d" opacity="1.00" d=" M 536.30 101.13 C 533.23 99.09 537.62 97.98 537.90 100.76 C 537.50 100.85 536.70 101.04 536.30 101.13 Z" />
<path fill="#1c1a1b" opacity="1.00" d=" M 478.46 100.87 C 479.62 101.44 480.79 102.01 481.97 102.55 C 480.86 103.00 480.24 103.80 480.13 104.94 C 479.64 108.26 479.98 111.63 480.22 114.96 C 480.46 114.23 480.94 112.77 481.18 112.04 C 484.11 110.13 487.36 111.19 490.18 112.72 C 489.55 114.55 488.94 116.38 488.38 118.24 C 491.42 117.35 492.78 114.38 494.33 111.90 C 495.18 113.34 495.37 115.02 495.60 116.65 C 500.00 118.29 504.83 116.99 509.20 118.66 C 507.12 119.68 505.08 120.99 502.74 121.30 C 500.22 121.27 497.76 120.58 495.29 120.15 C 495.02 120.67 494.49 121.71 494.22 122.23 C 495.04 123.22 495.87 124.21 496.75 125.16 C 496.09 125.02 494.76 124.73 494.10 124.59 C 488.73 123.52 484.31 119.18 478.68 119.51 C 482.43 121.17 485.92 123.58 488.45 126.84 C 488.50 127.77 488.62 129.63 488.67 130.56 C 486.08 131.17 483.53 131.83 480.84 131.34 C 477.23 130.40 474.19 128.23 471.93 125.29 C 471.05 125.98 470.19 126.68 469.33 127.38 C 462.27 127.41 455.25 127.44 448.32 128.85 C 446.70 129.76 444.24 129.56 443.38 131.41 L 442.07 130.35 C 440.69 129.00 438.68 129.35 437.03 129.82 C 434.98 129.99 433.71 128.13 432.37 126.93 C 434.40 123.28 438.91 125.45 442.08 124.02 C 442.40 123.77 443.05 123.26 443.37 123.01 C 448.30 124.08 453.30 123.22 458.04 121.77 C 462.74 121.68 468.08 123.65 472.13 120.24 C 474.96 118.64 473.74 115.22 473.29 112.70 C 474.32 114.71 475.12 116.83 475.72 119.02 C 476.82 118.21 477.94 117.40 479.06 116.60 C 478.09 115.23 477.03 113.93 475.90 112.71 C 476.43 112.47 477.50 112.00 478.03 111.76 C 479.00 108.22 478.73 104.49 478.46 100.87 M 474.72 125.81 C 477.97 128.77 482.76 130.27 487.08 129.13 C 485.88 124.49 480.36 121.58 475.77 122.48 C 474.34 123.25 474.00 124.36 474.72 125.81 Z" />
<path fill="#2c292a" opacity="1.00" d=" M 500.82 108.14 C 498.98 106.49 498.18 103.77 498.71 101.36 C 500.27 103.55 501.69 105.84 503.21 108.07 C 503.74 105.98 504.26 103.89 504.77 101.80 C 507.61 103.32 510.56 104.67 513.62 105.73 C 513.45 107.12 513.62 108.62 513.03 109.92 C 511.73 110.68 510.32 111.21 508.95 111.80 C 506.24 110.60 503.33 109.76 500.82 108.14 Z" />
<path fill="#302d2e" opacity="1.00" d=" M 444.03 108.67 C 444.70 106.65 444.96 103.14 447.85 103.39 C 450.05 104.14 450.46 106.87 451.75 108.56 C 456.29 107.96 460.33 104.79 465.04 105.57 C 466.75 105.70 468.12 106.89 469.57 107.71 C 468.72 107.81 467.04 108.00 466.20 108.10 C 465.24 108.14 463.34 108.23 462.38 108.27 C 459.67 108.78 457.01 109.59 454.25 109.82 C 452.67 109.94 451.09 110.01 449.53 110.23 L 448.31 111.09 C 446.71 111.54 445.09 111.91 443.46 112.23 C 441.25 112.66 438.88 112.96 437.19 114.61 C 436.80 113.38 436.17 112.25 435.54 111.14 C 434.14 112.50 432.75 113.85 431.33 115.17 C 432.34 109.24 438.96 107.80 444.03 108.67 M 445.32 108.31 C 446.78 108.64 448.25 108.95 449.73 109.26 C 449.61 107.49 448.91 105.87 448.11 104.32 C 446.10 104.72 445.74 106.63 445.32 108.31 M 440.26 111.33 C 440.73 111.79 440.73 111.79 440.26 111.33 Z" />
<path fill="#070606" opacity="1.00" d=" M 480.13 104.94 C 480.24 103.80 480.86 103.00 481.97 102.55 C 485.67 103.75 488.65 106.15 491.14 109.07 C 491.89 109.77 492.67 110.44 493.45 111.12 L 494.33 111.90 C 492.78 114.38 491.42 117.35 488.38 118.24 C 488.94 116.38 489.55 114.55 490.18 112.72 C 487.36 111.19 484.11 110.13 481.18 112.04 C 480.94 112.77 480.46 114.23 480.22 114.96 C 479.98 111.63 479.64 108.26 480.13 104.94 Z" />
<path fill="#262324" opacity="1.00" d=" M 567.39 103.36 C 568.00 103.31 569.20 103.21 569.80 103.17 C 569.87 107.93 569.95 112.69 570.26 117.44 C 568.29 118.80 566.33 120.18 564.42 121.61 C 564.39 116.38 564.40 111.13 563.54 105.96 C 564.17 105.94 565.42 105.91 566.05 105.90 C 566.27 109.39 565.89 113.08 567.45 116.34 C 568.12 112.03 567.80 107.67 567.39 103.36 Z" />
<path fill="#070707" opacity="0.39" d=" M 445.32 108.31 C 445.74 106.63 446.10 104.72 448.11 104.32 C 448.91 105.87 449.61 107.49 449.73 109.26 C 448.25 108.95 446.78 108.64 445.32 108.31 Z" />
<path fill="#393637" opacity="1.00" d=" M 513.62 105.73 C 519.03 107.41 524.70 107.96 530.33 108.33 C 534.16 108.71 537.66 110.53 540.43 113.18 C 540.40 113.44 540.33 113.96 540.30 114.23 C 535.92 113.29 531.54 112.17 527.04 112.04 C 523.23 111.95 519.80 113.99 516.04 114.30 C 513.56 113.84 511.28 112.73 508.95 111.80 C 510.32 111.21 511.73 110.68 513.03 109.92 C 513.62 108.62 513.45 107.12 513.62 105.73 Z" />
<path fill="#030203" opacity="0.55" d=" M 574.29 114.59 C 577.94 111.85 581.76 109.34 585.56 106.79 C 587.26 108.49 584.53 109.60 583.46 110.45 C 572.08 118.39 560.99 126.76 549.46 134.48 C 545.91 137.03 542.36 140.02 538.09 141.17 C 532.32 140.55 526.92 138.27 521.48 136.38 C 513.43 132.99 505.18 130.12 497.14 126.69 C 496.05 126.14 494.55 125.90 494.10 124.59 C 494.76 124.73 496.09 125.02 496.75 125.16 C 503.03 127.70 509.21 130.44 515.60 132.69 C 522.37 135.10 528.89 138.48 536.07 139.49 C 538.11 139.97 539.90 138.68 541.58 137.74 C 541.88 137.53 542.49 137.11 542.79 136.90 C 549.84 131.57 557.39 126.97 564.42 121.61 C 566.33 120.18 568.29 118.80 570.26 117.44 C 571.61 116.50 572.96 115.56 574.29 114.59 Z" />
<path fill="#423f3f" opacity="1.00" d=" M 454.25 109.82 C 457.01 109.59 459.67 108.78 462.38 108.27 C 461.73 110.75 463.84 111.46 465.98 111.23 C 466.03 110.45 466.14 108.89 466.20 108.10 C 467.04 108.00 468.72 107.81 469.57 107.71 C 470.96 109.24 472.41 110.79 473.29 112.70 C 473.74 115.22 474.96 118.64 472.13 120.24 C 468.08 123.65 462.74 121.68 458.04 121.77 C 453.30 123.22 448.30 124.08 443.37 123.01 L 442.87 122.30 C 444.39 121.21 446.33 120.06 446.37 117.93 C 446.78 115.57 444.70 113.92 443.46 112.23 C 445.09 111.91 446.71 111.54 448.31 111.09 C 449.97 111.21 451.64 111.37 453.31 111.55 C 451.84 111.69 450.38 111.83 448.92 111.97 C 449.71 113.16 450.49 114.35 451.26 115.56 C 452.28 114.96 453.56 114.66 454.37 113.75 C 454.51 112.44 454.33 111.13 454.25 109.82 M 459.20 111.07 C 456.60 111.97 458.29 115.66 460.65 114.72 C 463.30 113.97 461.49 110.29 459.20 111.07 M 465.84 114.73 C 466.40 115.09 467.51 115.79 468.07 116.15 C 469.09 115.25 471.05 114.00 469.40 112.62 C 468.01 110.64 465.44 112.73 465.84 114.73 M 462.45 115.46 C 459.57 117.11 463.85 120.76 465.31 118.24 C 466.90 116.78 463.95 114.07 462.45 115.46 M 447.37 116.28 C 447.86 116.70 447.86 116.70 447.37 116.28 M 459.31 116.22 C 459.80 116.73 459.80 116.73 459.31 116.22 M 451.28 118.34 C 449.96 120.66 454.46 120.74 454.62 118.66 C 454.40 117.11 452.04 117.42 451.28 118.34 M 446.35 120.25 C 446.83 120.74 446.83 120.74 446.35 120.25 M 462.26 120.33 C 462.76 120.82 462.76 120.82 462.26 120.33 Z" />
<path fill="#167096" opacity="1.00" d=" M 462.38 108.27 C 463.34 108.23 465.24 108.14 466.20 108.10 C 466.14 108.89 466.03 110.45 465.98 111.23 C 463.84 111.46 461.73 110.75 462.38 108.27 Z" />
<path fill="#656464" opacity="1.00" d=" M 449.53 110.23 C 451.09 110.01 452.67 109.94 454.25 109.82 C 454.33 111.13 454.51 112.44 454.37 113.75 C 453.56 114.66 452.28 114.96 451.26 115.56 C 450.49 114.35 449.71 113.16 448.92 111.97 C 450.38 111.83 451.84 111.69 453.31 111.55 C 451.64 111.37 449.97 111.21 448.31 111.09 L 449.53 110.23 Z" />
<path fill="#504f4f" opacity="1.00" d=" M 435.54 111.14 C 436.17 112.25 436.80 113.38 437.19 114.61 L 436.62 115.88 C 436.47 116.19 436.19 116.81 436.04 117.11 C 435.80 117.65 435.32 118.72 435.07 119.25 C 434.20 120.26 433.32 121.27 432.44 122.27 C 432.08 120.00 431.73 117.73 431.38 115.47 L 431.33 115.17 C 432.75 113.85 434.14 112.50 435.54 111.14 Z" />
<path fill="#9c9b9b" opacity="1.00" d=" M 440.26 111.33 C 440.73 111.79 440.73 111.79 440.26 111.33 Z" />
<path fill="#189357" opacity="1.00" d=" M 459.20 111.07 C 461.49 110.29 463.30 113.97 460.65 114.72 C 458.29 115.66 456.60 111.97 459.20 111.07 Z" />
<path fill="#282526" opacity="1.00" d=" M 493.45 111.12 C 499.70 109.87 505.83 112.55 510.61 116.40 C 514.13 119.13 518.36 116.52 522.12 115.88 C 521.54 116.42 520.97 116.96 520.41 117.50 C 523.14 118.30 525.76 119.43 528.35 120.65 C 529.31 125.63 530.12 130.63 530.70 135.67 C 534.32 136.37 537.95 137.06 541.58 137.74 C 539.90 138.68 538.11 139.97 536.07 139.49 C 528.89 138.48 522.37 135.10 515.60 132.69 C 509.21 130.44 503.03 127.70 496.75 125.16 C 495.87 124.21 495.04 123.22 494.22 122.23 C 494.49 121.71 495.02 120.67 495.29 120.15 C 497.76 120.58 500.22 121.27 502.74 121.30 C 505.08 120.99 507.12 119.68 509.20 118.66 C 504.83 116.99 500.00 118.29 495.60 116.65 C 495.37 115.02 495.18 113.34 494.33 111.90 L 493.45 111.12 M 515.98 122.84 C 516.01 123.61 516.05 125.14 516.08 125.91 C 518.60 127.13 521.22 128.15 523.90 129.03 C 523.95 128.26 524.05 126.73 524.10 125.96 C 521.59 124.44 518.79 123.58 515.98 122.84 Z" />
<path fill="#c38938" opacity="1.00" d=" M 465.84 114.73 C 465.44 112.73 468.01 110.64 469.40 112.62 C 471.05 114.00 469.09 115.25 468.07 116.15 C 467.51 115.79 466.40 115.09 465.84 114.73 Z" />
<path fill="#100e0e" opacity="1.00" d=" M 437.19 114.61 C 438.88 112.96 441.25 112.66 443.46 112.23 C 444.70 113.92 446.78 115.57 446.37 117.93 C 446.33 120.06 444.39 121.21 442.87 122.30 L 442.10 122.29 C 441.24 122.12 439.52 121.78 438.66 121.61 C 438.56 121.54 438.37 121.40 438.28 121.33 C 437.31 119.66 436.82 117.79 436.62 115.88 L 437.19 114.61 M 438.36 115.76 C 438.04 118.37 440.80 118.99 442.83 118.51 C 442.37 116.46 440.63 113.82 438.36 115.76 M 443.04 116.41 C 441.57 119.45 446.40 116.37 443.04 116.41 Z" />
<path fill="#515050" opacity="1.00" d=" M 438.36 115.76 C 440.63 113.82 442.37 116.46 442.83 118.51 C 440.80 118.99 438.04 118.37 438.36 115.76 Z" />
<path fill="#b2454d" opacity="1.00" d=" M 462.45 115.46 C 463.95 114.07 466.90 116.78 465.31 118.24 C 463.85 120.76 459.57 117.11 462.45 115.46 Z" />
<path fill="#302d2e" opacity="1.00" d=" M 432.37 126.93 C 430.00 123.57 429.84 119.21 431.38 115.47 C 431.73 117.73 432.08 120.00 432.44 122.27 C 433.32 121.27 434.20 120.26 435.07 119.25 L 435.86 118.95 C 435.91 118.49 436.00 117.57 436.04 117.11 C 436.19 116.81 436.47 116.19 436.62 115.88 C 436.82 117.79 437.31 119.66 438.28 121.33 L 438.39 121.55 L 438.66 121.61 C 439.52 121.78 441.24 122.12 442.10 122.29 C 442.09 122.73 442.08 123.59 442.08 124.02 C 438.91 125.45 434.40 123.28 432.37 126.93 Z" />
<path fill="#5c5b5b" opacity="1.00" d=" M 443.04 116.41 C 446.40 116.37 441.57 119.45 443.04 116.41 Z" />
<path fill="#aeaeac" opacity="1.00" d=" M 447.37 116.28 C 447.86 116.70 447.86 116.70 447.37 116.28 Z" />
<path fill="#737170" opacity="1.00" d=" M 459.31 116.22 C 459.80 116.73 459.80 116.73 459.31 116.22 Z" />
<path fill="#888786" opacity="1.00" d=" M 435.07 119.25 C 435.32 118.72 435.80 117.65 436.04 117.11 C 436.00 117.57 435.91 118.49 435.86 118.95 L 435.07 119.25 Z" />
<path fill="#5e5d5d" opacity="1.00" d=" M 451.28 118.34 C 452.04 117.42 454.40 117.11 454.62 118.66 C 454.46 120.74 449.96 120.66 451.28 118.34 Z" />
<path fill="#949392" opacity="1.00" d=" M 446.35 120.25 C 446.83 120.74 446.83 120.74 446.35 120.25 Z" />
<path fill="#787776" opacity="1.00" d=" M 462.26 120.33 C 462.76 120.82 462.76 120.82 462.26 120.33 Z" />
<path fill="#686866" opacity="1.00" d=" M 438.28 121.33 C 438.37 121.40 438.56 121.54 438.66 121.61 L 438.39 121.55 L 438.28 121.33 Z" />
<path fill="#1c1a1b" opacity="1.00" d=" M 528.35 120.65 C 532.77 121.64 537.39 121.55 541.70 123.10 C 541.72 127.72 541.42 132.43 542.79 136.90 C 542.49 137.11 541.88 137.53 541.58 137.74 C 537.95 137.06 534.32 136.37 530.70 135.67 C 530.12 130.63 529.31 125.63 528.35 120.65 Z" />
<path fill="#7b7a79" opacity="1.00" d=" M 442.10 122.29 L 442.87 122.30 L 443.37 123.01 C 443.05 123.26 442.40 123.77 442.08 124.02 C 442.08 123.59 442.09 122.73 442.10 122.29 Z" />
<path fill="#111011" opacity="1.00" d=" M 515.98 122.84 C 518.79 123.58 521.59 124.44 524.10 125.96 C 524.05 126.73 523.95 128.26 523.90 129.03 C 521.22 128.15 518.60 127.13 516.08 125.91 C 516.05 125.14 516.01 123.61 515.98 122.84 Z" />
<path fill="#353333" opacity="0.98" d=" M 437.03 129.82 C 438.68 129.35 440.69 129.00 442.07 130.35 C 440.61 131.27 438.26 131.02 437.03 129.82 Z" />
<path fill="#ffffff" opacity="1.00" d=" M 18.94 296.13 C 21.46 290.82 29.15 290.45 33.60 293.41 C 37.22 295.77 36.45 300.66 36.66 304.37 C 34.03 304.37 31.40 304.37 28.77 304.37 C 28.64 302.41 29.11 300.28 28.19 298.45 C 26.02 297.67 25.86 300.69 25.99 302.06 C 25.97 306.16 30.59 307.47 32.94 310.06 C 38.13 314.02 37.83 321.36 36.87 327.14 C 35.05 333.45 25.99 334.51 21.34 330.73 C 17.58 327.64 18.41 322.20 18.24 317.87 C 20.87 317.87 23.50 317.87 26.13 317.88 C 26.41 320.62 25.35 323.86 27.04 326.26 C 30.34 325.86 29.23 321.38 28.83 319.06 C 26.11 314.65 19.89 312.92 18.54 307.52 C 17.73 303.79 17.68 299.76 18.94 296.13 Z" />
<path fill="#ffffff" opacity="1.00" d=" M 47.75 292.50 C 52.55 292.51 57.35 292.47 62.16 292.52 C 62.12 295.14 62.12 297.76 62.12 300.38 C 60.17 300.37 58.21 300.37 56.25 300.37 C 56.25 302.87 56.25 305.37 56.25 307.87 C 58.00 307.87 59.75 307.87 61.50 307.88 C 61.50 310.37 61.50 312.87 61.50 315.38 C 59.75 315.37 58.00 315.37 56.25 315.38 C 56.25 320.92 56.25 326.46 56.25 332.00 C 53.42 332.00 50.58 332.00 47.75 332.00 C 47.75 318.83 47.75 305.66 47.75 292.50 Z" />
<path fill="#ffff00" opacity="1.00" d=" M 80.75 295.75 C 84.51 289.69 95.28 290.31 97.99 297.04 C 99.33 301.09 98.94 305.44 98.98 309.64 C 96.15 309.62 93.32 309.62 90.49 309.62 C 90.42 306.09 90.75 302.53 90.24 299.03 C 89.72 297.67 87.23 298.44 87.66 299.92 C 87.55 308.53 87.07 317.24 87.92 325.80 C 88.46 325.80 89.53 325.81 90.07 325.81 C 90.81 322.64 90.42 319.35 90.49 316.13 C 93.33 316.12 96.17 316.12 99.01 316.12 C 98.89 319.98 99.29 324.07 97.79 327.73 C 94.63 334.80 82.37 334.69 79.92 327.14 C 78.35 320.88 79.23 314.35 78.99 307.96 C 79.15 303.89 78.45 299.38 80.75 295.75 Z" />
<path fill="#ffff00" opacity="1.00" d=" M 107.40 292.51 C 112.91 289.79 120.60 293.04 121.26 299.47 C 121.82 307.93 121.85 316.48 121.27 324.94 C 120.73 330.97 113.85 334.43 108.42 332.38 C 104.43 331.23 102.17 327.05 102.16 323.09 C 101.89 316.05 101.94 309.01 102.12 301.98 C 102.10 298.21 103.77 294.10 107.40 292.51 M 110.85 298.91 C 110.12 302.90 110.65 306.99 110.50 311.03 C 110.63 316.12 110.14 321.26 110.90 326.32 C 111.35 326.17 112.27 325.86 112.73 325.71 C 113.46 316.81 113.21 307.75 112.86 298.82 L 111.79 298.24 L 110.85 298.91 Z" />
<path fill="#ffff00" opacity="1.00" d=" M 124.75 292.50 C 127.58 292.50 130.41 292.50 133.25 292.50 C 133.26 303.04 133.25 313.59 133.25 324.13 C 134.96 324.12 136.67 324.12 138.37 324.12 C 138.37 326.73 138.37 329.34 138.40 331.95 C 133.85 332.05 129.30 331.98 124.75 332.00 C 124.75 318.83 124.75 305.66 124.75 292.50 Z" />
<path fill="#ffff00" opacity="1.00" d=" M 178.64 292.50 C 182.70 292.49 186.77 292.50 190.83 292.49 C 192.50 305.66 194.12 318.83 195.74 332.00 C 192.84 332.00 189.93 332.00 187.03 332.00 C 186.87 329.62 186.72 327.24 186.58 324.87 C 185.82 324.87 184.30 324.87 183.55 324.88 C 183.40 327.25 183.25 329.62 183.10 332.00 C 180.15 332.00 177.20 332.00 174.26 332.00 C 175.71 318.83 177.19 305.67 178.64 292.50 M 184.38 303.95 C 184.59 308.62 183.73 313.24 183.46 317.88 C 184.40 317.87 185.34 317.86 186.29 317.85 C 185.96 312.36 185.11 306.86 185.59 301.35 C 184.46 301.41 184.31 303.07 184.38 303.95 Z" />
<path fill="#ffff00" opacity="1.00" d=" M 209.12 292.38 C 211.46 292.50 213.80 292.52 216.15 292.53 C 216.10 305.68 216.14 318.84 216.12 331.99 C 213.72 332.00 211.31 332.08 208.91 331.95 C 207.09 326.22 206.02 320.24 204.48 314.42 C 204.26 320.28 204.43 326.14 204.37 332.00 C 202.00 332.00 199.62 332.00 197.25 332.00 C 197.20 318.84 197.36 305.69 197.17 292.54 C 199.52 292.51 201.88 292.49 204.24 292.49 C 205.71 298.38 207.67 304.16 208.59 310.18 C 209.38 304.27 208.75 298.31 209.12 292.38 Z" />
<path fill="#ffff00" opacity="1.00" d=" M 219.75 292.50 C 222.58 292.50 225.41 292.50 228.25 292.50 C 228.25 305.66 228.25 318.83 228.25 332.00 C 225.41 332.00 222.58 332.00 219.75 332.00 C 219.75 318.83 219.75 305.66 219.75 292.50 Z" />
<path fill="#ffff00" opacity="1.00" d=" M 234.16 292.49 C 238.22 292.50 242.28 292.49 246.35 292.50 C 247.99 305.67 249.62 318.83 251.25 331.99 C 248.42 331.98 245.58 332.08 242.76 331.95 C 242.02 329.72 242.35 327.21 242.09 324.88 C 241.33 324.88 239.80 324.87 239.04 324.87 C 238.89 327.22 238.75 329.57 238.68 331.92 C 235.70 332.02 232.73 332.01 229.76 331.99 C 231.23 318.83 232.67 305.66 234.16 292.49 M 238.97 317.89 C 239.67 317.88 241.08 317.87 241.78 317.87 C 241.36 312.27 240.96 306.67 240.55 301.07 C 240.02 306.68 239.39 312.27 238.97 317.89 Z" />
<path fill="#ffff00" opacity="1.00" d=" M 140.25 332.00 C 140.27 318.82 140.22 305.65 140.27 292.48 C 144.97 292.51 149.67 292.49 154.37 292.50 C 154.38 295.12 154.38 297.75 154.37 300.37 C 152.49 300.37 150.62 300.38 148.75 300.38 C 148.75 302.87 148.75 305.37 148.74 307.86 C 150.49 307.87 152.24 307.87 154.00 307.88 C 154.02 310.41 154.02 312.95 153.90 315.49 C 152.18 315.41 150.46 315.37 148.75 315.35 C 148.75 318.27 148.75 321.19 148.75 324.12 C 150.83 324.12 152.91 324.12 155.00 324.12 C 155.00 326.74 155.00 329.37 155.00 332.00 C 150.08 332.00 145.16 332.00 140.25 332.00 Z" />
<path fill="#ffff00" opacity="1.00" d=" M 155.75 292.50 C 161.96 292.49 168.17 292.49 174.38 292.50 C 174.38 295.12 174.38 297.75 174.38 300.37 C 172.67 300.37 170.96 300.37 169.25 300.38 C 169.25 310.92 169.25 321.46 169.25 332.00 C 166.42 332.00 163.58 332.00 160.75 332.00 C 160.74 321.46 160.76 310.92 160.74 300.37 C 159.08 300.37 157.41 300.37 155.75 300.38 C 155.75 297.75 155.75 295.12 155.75 292.50 Z" />
<path fill="#ffffff" opacity="1.00" d=" M 39.25 324.00 C 41.29 324.00 43.33 324.00 45.37 324.00 C 45.38 326.66 45.38 329.33 45.38 332.00 C 43.33 332.00 41.29 332.00 39.25 332.00 C 39.25 329.33 39.25 326.67 39.25 324.00 Z" />
</svg>
