<?xml version="1.0" encoding="UTF-8" ?>
<!DOCTYPE svg PUBLIC "-//W3C//DTD SVG 1.1//EN" "http://www.w3.org/Graphics/SVG/1.1/DTD/svg11.dtd">
<svg width="960pt" height="540pt" viewBox="0 0 960 540" version="1.1" xmlns="http://www.w3.org/2000/svg">
<path fill="#5d5d5f" opacity="1.00" d=" M 456.86 58.37 C 457.67 57.25 458.73 56.83 460.05 57.11 C 462.89 57.47 465.76 57.68 468.58 58.16 C 474.80 60.03 481.55 58.86 487.60 61.26 C 482.59 63.18 476.43 64.51 473.90 69.85 C 476.41 68.33 478.87 66.73 481.48 65.36 L 482.24 66.21 C 488.40 67.21 494.81 66.01 500.93 67.74 C 499.26 68.67 497.40 68.41 495.63 68.09 C 495.38 69.05 495.13 70.01 494.85 70.96 L 494.16 70.93 C 493.95 70.42 493.54 69.42 493.33 68.92 C 491.13 67.62 488.55 67.69 486.10 67.71 C 485.82 68.21 485.26 69.22 484.97 69.72 C 484.47 69.63 483.47 69.46 482.97 69.37 C 480.96 70.11 478.85 70.47 476.73 70.67 C 476.16 71.79 475.60 72.92 475.01 74.02 C 474.45 74.07 473.32 74.15 472.76 74.19 C 472.83 71.88 472.78 69.57 472.74 67.26 C 469.58 67.28 466.40 67.14 463.34 66.28 C 464.79 64.16 466.15 61.98 467.47 59.76 C 463.91 59.45 460.39 58.84 456.86 58.37 Z" />
<path fill="#3f3f41" opacity="1.00" d=" M 455.48 58.99 C 455.82 58.84 456.51 58.53 456.86 58.37 C 460.39 58.84 463.91 59.45 467.47 59.76 C 466.15 61.98 464.79 64.16 463.34 66.28 C 461.62 68.51 460.28 71.21 457.86 72.76 C 454.24 72.65 450.47 72.65 447.09 71.21 C 449.48 67.43 452.50 64.10 455.10 60.47 C 455.17 60.20 455.31 59.65 455.38 59.38 L 455.48 58.99 Z" />
<path fill="#99999b" opacity="1.00" d=" M 468.58 58.16 C 476.72 58.67 484.80 59.91 492.92 60.50 C 500.97 59.87 509.22 60.03 517.00 62.43 C 522.50 64.20 528.37 63.88 534.03 64.84 C 530.53 64.83 527.03 64.79 523.55 64.67 C 525.38 66.77 527.32 68.90 528.07 71.67 C 527.48 71.63 526.31 71.55 525.73 71.51 C 524.34 69.87 523.27 66.18 520.49 67.89 C 508.86 65.38 496.96 63.71 485.05 64.68 C 483.94 64.80 483.15 65.69 482.24 66.21 L 481.48 65.36 C 478.87 66.73 476.41 68.33 473.90 69.85 C 476.43 64.51 482.59 63.18 487.60 61.26 C 481.55 58.86 474.80 60.03 468.58 58.16 Z" />
<path fill="#afafb1" opacity="1.00" d=" M 445.12 71.37 C 448.66 67.47 451.05 62.50 455.38 59.38 C 455.31 59.65 455.17 60.20 455.10 60.47 C 452.50 64.10 449.48 67.43 447.09 71.21 C 446.99 71.66 446.78 72.55 446.67 72.99 C 446.38 72.69 445.79 72.07 445.50 71.76 L 445.12 71.37 Z" />
<path fill="#1a1a1c" opacity="1.00" d=" M 482.24 66.21 C 483.15 65.69 483.94 64.80 485.05 64.68 C 496.96 63.71 508.86 65.38 520.49 67.89 C 521.62 68.67 522.75 69.48 523.86 70.31 C 517.01 71.46 510.57 67.46 503.68 68.22 C 502.75 68.07 501.83 67.91 500.93 67.74 C 494.81 66.01 488.40 67.21 482.24 66.21 Z" />
<path fill="#646466" opacity="1.00" d=" M 523.55 64.67 C 527.03 64.79 530.53 64.83 534.03 64.84 C 536.50 64.40 538.52 66.00 539.69 68.03 C 538.56 67.35 537.41 66.73 536.27 66.09 C 535.11 68.39 533.99 70.70 532.89 73.03 C 531.70 73.17 530.52 73.32 529.34 73.46 C 529.00 73.89 528.31 74.76 527.97 75.19 C 526.73 74.81 525.51 74.43 524.28 74.08 C 521.82 73.35 519.31 72.85 516.81 72.37 C 513.20 71.55 509.56 70.89 505.97 70.03 C 505.21 69.42 504.44 68.81 503.68 68.22 C 510.57 67.46 517.01 71.46 523.86 70.31 C 522.75 69.48 521.62 68.67 520.49 67.89 C 523.27 66.18 524.34 69.87 525.73 71.51 C 526.31 71.55 527.48 71.63 528.07 71.67 C 527.32 68.90 525.38 66.77 523.55 64.67 Z" />
<path fill="#505052" opacity="1.00" d=" M 457.86 72.76 C 460.28 71.21 461.62 68.51 463.34 66.28 C 466.40 67.14 469.58 67.28 472.74 67.26 C 472.78 69.57 472.83 71.88 472.76 74.19 C 472.61 75.98 472.33 77.76 472.05 79.53 C 468.55 80.67 467.24 84.34 465.07 86.96 C 466.66 83.73 468.49 80.58 469.30 77.04 C 466.91 77.18 464.15 76.54 462.23 78.36 C 460.62 78.18 459.00 77.99 457.40 77.81 C 459.06 77.32 460.73 76.85 462.36 76.22 L 462.82 75.89 C 461.57 73.69 457.97 74.79 456.10 75.77 C 455.57 76.05 454.50 76.61 453.96 76.89 C 452.35 76.95 450.74 76.98 449.14 76.97 C 450.48 76.33 451.81 75.67 453.14 74.98 C 452.86 74.94 452.30 74.87 452.02 74.83 C 450.31 74.57 448.58 74.35 446.88 74.19 C 446.83 73.89 446.72 73.29 446.67 72.99 C 446.78 72.55 446.99 71.66 447.09 71.21 C 450.47 72.65 454.24 72.65 457.86 72.76 Z" />
<path fill="#19191a" opacity="1.00" d=" M 536.27 66.09 C 537.41 66.73 538.56 67.35 539.69 68.03 C 540.10 68.31 540.94 68.85 541.35 69.13 C 540.83 70.74 540.35 72.37 539.89 73.99 C 538.07 78.47 535.59 82.71 534.71 87.52 C 534.61 88.04 534.41 89.09 534.31 89.61 C 535.06 89.68 536.57 89.81 537.32 89.87 L 538.27 89.73 L 537.95 90.88 C 536.81 91.19 535.67 91.47 534.53 91.74 C 533.65 98.05 535.08 104.73 532.68 110.77 C 531.64 108.93 530.82 106.99 530.19 104.98 C 529.55 106.47 528.89 107.96 528.30 109.47 L 528.09 108.76 C 527.66 107.38 527.18 106.02 526.74 104.65 C 530.98 102.27 531.01 96.47 531.67 92.23 C 531.99 90.94 532.41 89.67 532.79 88.39 C 531.64 88.36 530.49 88.32 529.35 88.29 C 528.34 90.86 527.37 93.44 526.67 96.11 L 526.12 97.60 C 507.58 95.44 489.04 93.13 470.50 90.90 C 466.57 89.35 462.49 88.25 458.50 86.89 C 459.39 86.91 461.17 86.94 462.06 86.96 C 461.92 86.33 461.65 85.08 461.52 84.45 C 459.03 84.51 456.55 84.54 454.08 84.74 C 454.72 85.25 456.01 86.28 456.66 86.79 C 454.37 87.61 451.96 87.98 449.57 88.30 C 449.20 86.72 448.88 85.13 448.56 83.55 C 449.02 83.23 449.92 82.60 450.37 82.29 L 448.54 81.20 C 450.04 80.48 451.55 80.94 452.97 81.49 C 453.30 79.96 453.63 78.42 453.96 76.89 C 454.50 76.61 455.57 76.05 456.10 75.77 C 458.18 75.94 460.26 76.21 462.36 76.22 C 460.73 76.85 459.06 77.32 457.40 77.81 C 459.00 77.99 460.62 78.18 462.23 78.36 C 464.15 76.54 466.91 77.18 469.30 77.04 C 468.49 80.58 466.66 83.73 465.07 86.96 C 467.24 84.34 468.55 80.67 472.05 79.53 C 472.33 77.76 472.61 75.98 472.76 74.19 C 473.32 74.15 474.45 74.07 475.01 74.02 C 475.45 73.99 476.33 73.93 476.77 73.90 C 479.40 76.03 482.19 77.97 485.19 79.55 L 484.80 81.21 C 483.96 81.76 483.10 82.28 482.25 82.80 C 493.74 86.08 505.91 84.93 517.66 83.98 C 515.44 85.86 512.74 86.92 510.02 87.82 C 514.15 87.82 518.08 86.55 522.06 85.63 C 524.17 85.80 526.29 85.90 528.42 85.96 C 528.78 85.96 529.49 85.97 529.85 85.97 C 529.87 84.81 529.41 83.86 528.47 83.14 C 529.47 79.57 531.29 76.34 532.89 73.03 C 533.99 70.70 535.11 68.39 536.27 66.09 M 464.41 78.23 C 463.50 78.66 462.44 80.74 463.95 81.03 C 465.48 81.09 466.63 77.08 464.41 78.23 Z" />
<path fill="#979799" opacity="1.00" d=" M 486.10 67.71 C 488.55 67.69 491.13 67.62 493.33 68.92 C 493.35 69.42 493.38 70.40 493.40 70.90 C 490.09 70.67 486.34 71.83 483.30 70.19 C 483.72 70.07 484.56 69.83 484.97 69.72 C 485.26 69.22 485.82 68.21 486.10 67.71 M 490.26 69.28 C 490.79 69.79 490.79 69.79 490.26 69.28 Z" />
<path fill="#c5c4c7" opacity="1.00" d=" M 495.63 68.09 C 497.40 68.41 499.26 68.67 500.93 67.74 C 501.83 67.91 502.75 68.07 503.68 68.22 C 504.44 68.81 505.21 69.42 505.97 70.03 C 509.56 70.89 513.20 71.55 516.81 72.37 C 515.57 73.49 514.11 74.10 512.41 74.22 C 512.83 73.69 513.68 72.63 514.11 72.10 C 511.82 72.62 509.48 72.92 507.14 72.64 C 505.14 72.44 503.14 72.20 501.14 71.98 C 501.24 71.59 501.43 70.81 501.53 70.41 C 501.02 70.39 499.99 70.34 499.48 70.31 L 499.29 72.24 C 498.80 71.68 497.81 70.57 497.32 70.02 L 497.50 71.55 C 496.84 71.41 495.52 71.11 494.85 70.96 C 495.13 70.01 495.38 69.05 495.63 68.09 M 508.43 71.22 C 508.97 71.84 508.97 71.84 508.43 71.22 Z" />
<path fill="#484749" opacity="1.00" d=" M 476.73 70.67 C 478.85 70.47 480.96 70.11 482.97 69.37 L 483.30 70.19 C 486.34 71.83 490.09 70.67 493.40 70.90 L 494.16 70.93 L 494.85 70.96 C 495.52 71.11 496.84 71.41 497.50 71.55 C 494.69 71.60 491.85 71.40 489.08 71.94 C 488.39 72.90 487.86 73.95 487.38 75.02 C 487.06 74.39 486.42 73.11 486.11 72.47 C 483.02 73.09 479.91 73.66 476.77 73.90 C 476.33 73.93 475.45 73.99 475.01 74.02 C 475.60 72.92 476.16 71.79 476.73 70.67 Z" />
<path fill="#e0e0e1" opacity="1.00" d=" M 482.97 69.37 C 483.47 69.46 484.47 69.63 484.97 69.72 C 484.56 69.83 483.72 70.07 483.30 70.19 L 482.97 69.37 Z" />
<path fill="#605f61" opacity="1.00" d=" M 490.26 69.28 C 490.79 69.79 490.79 69.79 490.26 69.28 Z" />
<path fill="#cfced0" opacity="1.00" d=" M 493.33 68.92 C 493.54 69.42 493.95 70.42 494.16 70.93 L 493.40 70.90 C 493.38 70.40 493.35 69.42 493.33 68.92 Z" />
<path fill="#e5e4e6" opacity="1.00" d=" M 541.35 69.13 C 541.36 69.36 541.39 69.82 541.41 70.05 C 541.45 71.19 541.51 72.32 541.57 73.46 C 541.15 73.60 540.31 73.86 539.89 73.99 C 540.35 72.37 540.83 70.74 541.35 69.13 Z" />
<path fill="#121214" opacity="1.00" d=" M 497.32 70.02 C 497.81 70.57 498.80 71.68 499.29 72.24 L 499.48 70.31 C 499.99 70.34 501.02 70.39 501.53 70.41 C 501.43 70.81 501.24 71.59 501.14 71.98 C 503.14 72.20 505.14 72.44 507.14 72.64 C 507.32 73.24 507.68 74.42 507.86 75.01 C 506.80 77.33 505.77 79.68 504.80 82.04 C 511.93 81.70 519.52 79.80 524.28 74.08 C 525.51 74.43 526.73 74.81 527.97 75.19 C 526.50 77.01 524.92 78.89 522.65 79.71 C 516.65 82.11 510.27 83.62 503.84 84.27 C 503.96 83.64 504.20 82.36 504.32 81.73 C 498.13 81.91 491.93 81.31 485.92 79.79 C 486.38 78.19 486.85 76.60 487.38 75.02 C 487.86 73.95 488.39 72.90 489.08 71.94 C 491.85 71.40 494.69 71.60 497.50 71.55 L 497.32 70.02 M 490.04 75.69 C 491.07 77.12 492.96 76.76 494.50 77.04 C 493.78 75.10 491.57 75.89 490.04 75.69 M 494.88 76.16 C 495.24 76.53 495.97 77.28 496.33 77.66 C 497.91 77.62 499.65 77.89 500.92 76.72 L 501.25 78.32 C 501.79 77.78 502.32 77.24 502.87 76.70 C 500.22 76.36 497.55 76.17 494.88 76.16 Z" />
<path fill="#242425" opacity="1.00" d=" M 541.41 70.05 C 542.91 71.53 541.95 74.17 543.97 75.42 L 544.12 76.24 C 543.15 78.29 542.31 80.39 541.46 82.49 C 540.38 84.90 539.23 87.27 538.27 89.73 L 537.32 89.87 C 537.39 88.28 536.52 87.50 534.71 87.52 C 535.59 82.71 538.07 78.47 539.89 73.99 C 540.31 73.86 541.15 73.60 541.57 73.46 C 541.51 72.32 541.45 71.19 541.41 70.05 Z" />
<path fill="#333335" opacity="1.00" d=" M 508.43 71.22 C 508.97 71.84 508.97 71.84 508.43 71.22 Z" />
<path fill="#c5c4c7" opacity="1.00" d=" M 435.00 86.10 C 437.94 80.98 440.90 75.60 445.50 71.76 C 445.79 72.07 446.38 72.69 446.67 72.99 C 446.72 73.29 446.83 73.89 446.88 74.19 C 448.58 74.35 450.31 74.57 452.02 74.83 C 450.62 74.81 449.24 74.80 447.86 74.80 C 449.05 76.79 448.32 79.05 448.54 81.20 L 450.37 82.29 C 449.92 82.60 449.02 83.23 448.56 83.55 C 448.31 83.70 447.80 84.00 447.54 84.15 C 447.01 81.51 447.46 78.84 447.66 76.20 C 446.60 76.35 444.49 76.66 443.43 76.81 C 444.23 76.38 445.82 75.50 446.61 75.06 C 446.05 74.57 445.49 74.08 444.94 73.59 C 441.31 77.51 438.54 82.12 435.00 86.10 Z" />
<path fill="#2b2b2d" opacity="1.00" d=" M 507.14 72.64 C 509.48 72.92 511.82 72.62 514.11 72.10 C 513.68 72.63 512.83 73.69 512.41 74.22 C 514.11 74.10 515.57 73.49 516.81 72.37 C 519.31 72.85 521.82 73.35 524.28 74.08 C 519.52 79.80 511.93 81.70 504.80 82.04 C 505.77 79.68 506.80 77.33 507.86 75.01 C 507.68 74.42 507.32 73.24 507.14 72.64 Z" />
<path fill="#282829" opacity="1.00" d=" M 476.77 73.90 C 479.91 73.66 483.02 73.09 486.11 72.47 C 486.42 73.11 487.06 74.39 487.38 75.02 C 486.85 76.60 486.38 78.19 485.92 79.79 L 485.19 79.55 C 482.19 77.97 479.40 76.03 476.77 73.90 Z" />
<path fill="#434344" opacity="1.00" d=" M 529.34 73.46 C 530.52 73.32 531.70 73.17 532.89 73.03 C 531.29 76.34 529.47 79.57 528.47 83.14 L 527.97 83.12 C 525.15 82.91 522.35 82.52 519.55 82.13 C 519.04 83.04 518.53 83.95 518.02 84.86 C 519.36 85.12 520.71 85.40 522.06 85.63 C 518.08 86.55 514.15 87.82 510.02 87.82 C 512.74 86.92 515.44 85.86 517.66 83.98 C 505.91 84.93 493.74 86.08 482.25 82.80 C 483.10 82.28 483.96 81.76 484.80 81.21 C 484.94 81.59 485.23 82.33 485.37 82.71 C 487.41 83.12 489.51 83.07 491.51 82.43 C 491.40 82.78 491.17 83.48 491.05 83.83 C 495.30 84.16 499.57 84.63 503.84 84.27 C 510.27 83.62 516.65 82.11 522.65 79.71 C 524.92 78.89 526.50 77.01 527.97 75.19 C 528.31 74.76 529.00 73.89 529.34 73.46 Z" />
<path fill="#161617" opacity="1.00" d=" M 444.94 73.59 C 445.49 74.08 446.05 74.57 446.61 75.06 C 445.82 75.50 444.23 76.38 443.43 76.81 C 444.49 76.66 446.60 76.35 447.66 76.20 C 447.46 78.84 447.01 81.51 447.54 84.15 C 446.31 87.47 442.82 87.70 439.77 87.59 C 438.51 87.47 437.25 87.33 436.01 87.18 C 436.02 87.57 436.04 88.33 436.05 88.71 C 437.60 88.90 439.15 89.09 440.72 89.27 C 439.14 90.71 437.14 91.49 435.14 92.13 C 434.62 90.78 434.10 89.43 433.63 88.07 C 433.97 87.57 434.65 86.59 435.00 86.10 C 438.54 82.12 441.31 77.51 444.94 73.59 Z" />
<path fill="#040404" opacity="1.00" d=" M 447.86 74.80 C 449.24 74.80 450.62 74.81 452.02 74.83 C 452.30 74.87 452.86 74.94 453.14 74.98 C 451.81 75.67 450.48 76.33 449.14 76.97 C 450.74 76.98 452.35 76.95 453.96 76.89 C 453.63 78.42 453.30 79.96 452.97 81.49 C 451.55 80.94 450.04 80.48 448.54 81.20 C 448.32 79.05 449.05 76.79 447.86 74.80 Z" />
<path fill="#626163" opacity="1.00" d=" M 456.10 75.77 C 457.97 74.79 461.57 73.69 462.82 75.89 L 462.36 76.22 C 460.26 76.21 458.18 75.94 456.10 75.77 Z" />
<path fill="#99999b" opacity="1.00" d=" M 490.04 75.69 C 491.57 75.89 493.78 75.10 494.50 77.04 C 492.96 76.76 491.07 77.12 490.04 75.69 Z" />
<path fill="#767678" opacity="1.00" d=" M 494.88 76.16 C 497.55 76.17 500.22 76.36 502.87 76.70 C 502.32 77.24 501.79 77.78 501.25 78.32 L 500.92 76.72 C 499.65 77.89 497.91 77.62 496.33 77.66 C 495.97 77.28 495.24 76.53 494.88 76.16 Z" />
<path fill="#e5e4e6" opacity="1.00" d=" M 544.12 76.24 L 544.61 76.25 C 543.81 82.03 544.17 87.90 543.64 93.71 C 543.11 94.11 542.04 94.91 541.50 95.32 C 542.25 91.08 542.96 86.66 541.46 82.49 C 542.31 80.39 543.15 78.29 544.12 76.24 Z" />
<path fill="#000000" opacity="0.51" d=" M 544.61 76.25 C 544.84 76.41 545.30 76.73 545.53 76.89 C 545.17 84.25 545.80 91.69 544.33 98.96 C 542.99 104.78 539.32 110.28 533.72 112.61 C 531.24 117.57 529.48 123.29 524.55 126.45 C 521.71 126.83 518.87 126.19 516.06 125.86 C 512.93 125.37 509.51 125.19 506.97 123.06 C 512.20 124.40 517.56 125.29 522.96 125.47 L 523.86 125.10 C 525.16 124.77 526.43 123.66 526.22 122.19 C 526.94 121.76 527.99 121.60 528.41 120.78 C 529.88 117.90 531.03 114.88 532.24 111.89 C 533.91 111.06 535.58 110.25 537.19 109.30 C 537.28 109.14 537.47 108.82 537.56 108.66 C 538.21 107.51 538.87 106.36 539.54 105.22 C 539.46 104.33 539.31 102.53 539.23 101.64 C 539.47 102.51 539.95 104.26 540.19 105.13 C 542.38 101.70 543.61 97.78 543.64 93.71 C 544.17 87.90 543.81 82.03 544.61 76.25 Z" />
<path fill="#4a4a4c" opacity="1.00" d=" M 464.41 78.23 C 466.63 77.08 465.48 81.09 463.95 81.03 C 462.44 80.74 463.50 78.66 464.41 78.23 Z" />
<path fill="#a81e0b" opacity="1.00" d=" M 485.19 79.55 L 485.92 79.79 C 491.93 81.31 498.13 81.91 504.32 81.73 C 504.20 82.36 503.96 83.64 503.84 84.27 C 499.57 84.63 495.30 84.16 491.05 83.83 C 491.17 83.48 491.40 82.78 491.51 82.43 C 489.51 83.07 487.41 83.12 485.37 82.71 C 485.23 82.33 484.94 81.59 484.80 81.21 L 485.19 79.55 Z" />
<path fill="#767678" opacity="1.00" d=" M 519.55 82.13 C 522.35 82.52 525.15 82.91 527.97 83.12 C 528.08 83.83 528.31 85.25 528.42 85.96 C 526.29 85.90 524.17 85.80 522.06 85.63 C 520.71 85.40 519.36 85.12 518.02 84.86 C 518.53 83.95 519.04 83.04 519.55 82.13 Z" />
<path fill="#88888a" opacity="1.00" d=" M 527.97 83.12 L 528.47 83.14 C 529.41 83.86 529.87 84.81 529.85 85.97 C 529.49 85.97 528.78 85.96 528.42 85.96 C 528.31 85.25 528.08 83.83 527.97 83.12 Z" />
<path fill="#c5c4c7" opacity="1.00" d=" M 538.27 89.73 C 539.23 87.27 540.38 84.90 541.46 82.49 C 542.96 86.66 542.25 91.08 541.50 95.32 C 540.67 97.39 539.66 99.43 539.23 101.64 C 539.31 102.53 539.46 104.33 539.54 105.22 C 538.87 106.36 538.21 107.51 537.56 108.66 C 537.24 102.73 537.83 96.81 537.95 90.88 L 538.27 89.73 Z" />
<path fill="#3a3a3b" opacity="1.00" d=" M 447.54 84.15 C 447.80 84.00 448.31 83.70 448.56 83.55 C 448.88 85.13 449.20 86.72 449.57 88.30 C 451.91 89.29 454.48 89.36 456.98 89.47 C 454.51 89.83 452.06 90.29 449.63 90.87 C 445.61 91.72 441.70 93.05 437.91 94.62 L 439.15 94.79 C 437.65 95.76 436.21 96.81 434.76 97.84 C 433.29 98.34 432.82 100.28 434.27 101.14 C 433.73 101.35 432.63 101.79 432.08 102.00 C 431.56 100.88 431.04 99.75 430.53 98.63 C 430.11 98.67 429.28 98.75 428.86 98.79 L 428.85 97.88 C 429.88 95.76 432.11 94.62 433.89 93.20 C 433.64 91.50 433.56 89.78 433.63 88.07 C 434.10 89.43 434.62 90.78 435.14 92.13 C 437.14 91.49 439.14 90.71 440.72 89.27 C 442.93 89.47 445.12 89.04 447.27 88.55 C 444.78 88.16 442.27 87.86 439.77 87.59 C 442.82 87.70 446.31 87.47 447.54 84.15 Z" />
<path fill="#ffffff" opacity="1.00" d=" M 454.08 84.74 C 456.55 84.54 459.03 84.51 461.52 84.45 C 461.65 85.08 461.92 86.33 462.06 86.96 C 461.17 86.94 459.39 86.91 458.50 86.89 C 458.04 86.87 457.12 86.82 456.66 86.79 C 456.01 86.28 454.72 85.25 454.08 84.74 Z" />
<path fill="#afafb1" opacity="1.00" d=" M 436.01 87.18 C 437.25 87.33 438.51 87.47 439.77 87.59 C 442.27 87.86 444.78 88.16 447.27 88.55 C 445.12 89.04 442.93 89.47 440.72 89.27 C 439.15 89.09 437.60 88.90 436.05 88.71 C 436.04 88.33 436.02 87.57 436.01 87.18 Z" />
<path fill="#464647" opacity="1.00" d=" M 456.66 86.79 C 457.12 86.82 458.04 86.87 458.50 86.89 C 462.49 88.25 466.57 89.35 470.50 90.90 C 471.39 91.56 472.28 92.21 473.19 92.85 C 472.64 94.08 472.10 95.32 471.50 96.53 C 471.34 95.64 471.04 93.86 470.89 92.96 C 468.82 93.19 464.84 91.01 463.99 93.59 C 464.45 93.91 465.35 94.56 465.81 94.89 C 464.15 94.57 462.49 94.30 460.83 94.04 C 459.82 95.37 458.82 96.72 457.76 98.01 C 454.42 95.89 450.54 97.79 446.89 97.41 L 447.26 95.79 C 447.70 95.69 448.58 95.51 449.02 95.41 C 452.02 94.85 455.05 94.47 458.07 94.00 L 457.99 93.25 C 457.92 92.76 457.77 91.79 457.70 91.30 C 455.01 91.11 452.32 90.99 449.63 90.87 C 452.06 90.29 454.51 89.83 456.98 89.47 C 454.48 89.36 451.91 89.29 449.57 88.30 C 451.96 87.98 454.37 87.61 456.66 86.79 M 459.85 90.82 C 459.66 91.27 459.29 92.18 459.10 92.63 C 460.43 93.03 462.06 91.87 462.73 90.73 C 462.40 89.53 460.52 90.34 459.85 90.82 Z" />
<path fill="#2f2f31" opacity="1.00" d=" M 529.35 88.29 C 530.49 88.32 531.64 88.36 532.79 88.39 C 532.41 89.67 531.99 90.94 531.67 92.23 C 530.81 93.88 530.12 95.61 529.47 97.35 C 528.70 97.52 527.17 97.86 526.41 98.03 C 526.47 97.55 526.60 96.59 526.67 96.11 C 527.37 93.44 528.34 90.86 529.35 88.29 Z" />
<path fill="#c5c4c7" opacity="1.00" d=" M 534.31 89.61 C 534.41 89.09 534.61 88.04 534.71 87.52 C 536.52 87.50 537.39 88.28 537.32 89.87 C 536.57 89.81 535.06 89.68 534.31 89.61 Z" />
<path fill="#afafb1" opacity="1.00" d=" M 459.85 90.82 C 460.52 90.34 462.40 89.53 462.73 90.73 C 462.06 91.87 460.43 93.03 459.10 92.63 C 459.29 92.18 459.66 91.27 459.85 90.82 Z" />
<path fill="#6a696b" opacity="1.00" d=" M 437.91 94.62 C 441.70 93.05 445.61 91.72 449.63 90.87 C 452.32 90.99 455.01 91.11 457.70 91.30 C 457.77 91.79 457.92 92.76 457.99 93.25 C 454.06 92.16 450.01 92.10 446.58 94.60 C 447.19 94.80 448.41 95.21 449.02 95.41 C 448.58 95.51 447.70 95.69 447.26 95.79 C 446.19 95.84 445.12 95.85 444.05 95.85 C 442.44 95.38 440.81 94.98 439.15 94.79 L 437.91 94.62 Z" />
<path fill="#afafb1" opacity="1.00" d=" M 470.50 90.90 C 489.04 93.13 507.58 95.44 526.12 97.60 L 526.67 96.11 C 526.60 96.59 526.47 97.55 526.41 98.03 C 521.80 99.57 516.92 97.58 512.23 97.45 C 510.95 97.30 509.68 97.16 508.42 97.05 C 497.67 95.79 486.91 94.60 476.16 93.36 C 475.16 93.21 474.17 93.04 473.19 92.85 C 472.28 92.21 471.39 91.56 470.50 90.90 Z" />
<path fill="#343435" opacity="1.00" d=" M 534.53 91.74 C 535.67 91.47 536.81 91.19 537.95 90.88 C 537.83 96.81 537.24 102.73 537.56 108.66 C 537.47 108.82 537.28 109.14 537.19 109.30 C 535.58 110.25 533.91 111.06 532.24 111.89 C 532.35 111.61 532.57 111.05 532.68 110.77 C 535.08 104.73 533.65 98.05 534.53 91.74 Z" />
<path fill="#99999b" opacity="1.00" d=" M 446.58 94.60 C 450.01 92.10 454.06 92.16 457.99 93.25 L 458.07 94.00 C 455.05 94.47 452.02 94.85 449.02 95.41 C 448.41 95.21 447.19 94.80 446.58 94.60 Z" />
<path fill="#1e1e1f" opacity="1.00" d=" M 463.99 93.59 C 464.84 91.01 468.82 93.19 470.89 92.96 C 471.04 93.86 471.34 95.64 471.50 96.53 L 470.81 96.90 C 470.03 97.06 468.46 97.39 467.68 97.55 L 467.53 97.59 L 467.40 97.65 C 466.75 97.97 465.45 98.61 464.80 98.93 C 463.32 98.42 461.32 99.57 463.00 101.00 C 463.54 100.63 464.61 99.87 465.15 99.50 C 466.49 101.81 468.46 104.09 468.29 106.95 C 467.58 108.89 465.04 107.19 463.66 107.04 C 460.78 102.69 454.91 104.56 450.57 104.27 C 449.42 104.01 448.28 103.75 447.14 103.49 C 448.16 102.40 449.07 101.16 450.36 100.35 C 452.81 99.52 455.93 100.21 457.76 98.01 C 458.82 96.72 459.82 95.37 460.83 94.04 C 462.49 94.30 464.15 94.57 465.81 94.89 C 465.35 94.56 464.45 93.91 463.99 93.59 Z" />
<path fill="#c5c4c7" opacity="1.00" d=" M 529.47 97.35 C 530.12 95.61 530.81 93.88 531.67 92.23 C 531.01 96.47 530.98 102.27 526.74 104.65 C 526.00 104.67 524.53 104.71 523.80 104.74 C 525.05 104.44 526.30 104.07 527.53 103.64 C 527.78 103.41 528.28 102.96 528.53 102.73 C 528.85 100.94 529.09 99.13 529.47 97.35 Z" />
<path fill="#343435" opacity="1.00" d=" M 473.19 92.85 C 474.17 93.04 475.16 93.21 476.16 93.36 C 475.54 93.66 474.29 94.27 473.66 94.57 C 483.40 95.65 493.15 96.63 502.89 97.71 C 504.76 97.95 506.60 97.42 508.42 97.05 C 509.68 97.16 510.95 97.30 512.23 97.45 C 511.41 97.69 509.79 98.19 508.98 98.44 C 513.93 98.87 518.87 99.48 523.77 100.31 C 525.70 100.35 526.42 102.40 527.53 103.64 C 526.30 104.07 525.05 104.44 523.80 104.74 C 516.80 104.40 509.87 103.16 502.91 102.38 C 502.38 101.22 501.86 100.06 501.33 98.91 C 500.00 100.40 499.24 102.19 499.85 104.21 C 498.23 105.11 496.59 105.99 494.96 106.85 C 493.91 106.12 492.86 105.39 491.80 104.68 L 493.00 104.65 C 492.36 104.32 491.73 104.01 491.09 103.71 C 491.76 102.92 492.44 102.13 493.12 101.35 C 487.25 100.47 481.27 100.32 475.46 99.06 C 475.40 98.49 475.26 97.35 475.19 96.78 C 473.70 99.67 472.57 102.72 471.44 105.76 C 471.84 106.24 472.62 107.19 473.02 107.67 C 472.76 107.77 472.26 107.98 472.00 108.08 C 469.48 108.91 466.20 111.07 464.20 108.23 L 463.66 107.04 C 465.04 107.19 467.58 108.89 468.29 106.95 C 468.46 104.09 466.49 101.81 465.15 99.50 L 464.80 98.93 C 465.45 98.61 466.75 97.97 467.40 97.65 C 467.47 97.62 467.61 97.58 467.68 97.55 C 468.46 97.39 470.03 97.06 470.81 96.90 L 471.50 96.53 C 472.10 95.32 472.64 94.08 473.19 92.85 M 507.05 99.52 C 505.29 99.82 506.58 102.32 507.90 102.08 C 509.61 102.08 513.37 103.21 512.95 100.35 C 510.98 100.10 509.03 99.70 507.05 99.52 Z" />
<path fill="#121214" opacity="1.00" d=" M 473.66 94.57 C 474.29 94.27 475.54 93.66 476.16 93.36 C 486.91 94.60 497.67 95.79 508.42 97.05 C 506.60 97.42 504.76 97.95 502.89 97.71 C 493.15 96.63 483.40 95.65 473.66 94.57 Z" />
<path fill="#99999b" opacity="1.00" d=" M 541.50 95.32 C 542.04 94.91 543.11 94.11 543.64 93.71 C 543.61 97.78 542.38 101.70 540.19 105.13 C 539.95 104.26 539.47 102.51 539.23 101.64 C 539.66 99.43 540.67 97.39 541.50 95.32 Z" />
<path fill="#1a1a1b" opacity="1.00" d=" M 439.15 94.79 C 440.81 94.98 442.44 95.38 444.05 95.85 C 445.12 95.85 446.19 95.84 447.26 95.79 L 446.89 97.41 L 446.74 98.09 L 446.41 98.26 L 446.45 98.56 L 446.81 98.66 C 447.14 99.00 447.80 99.68 448.13 100.02 C 447.79 100.56 447.10 101.64 446.76 102.17 C 445.45 101.56 444.14 100.96 442.86 100.33 C 443.36 100.06 444.37 99.52 444.87 99.25 C 444.44 98.90 443.56 98.21 443.13 97.86 C 442.65 97.59 441.70 97.04 441.22 96.76 C 440.57 98.87 439.77 100.93 438.87 102.95 C 439.43 102.94 440.55 102.92 441.11 102.91 L 441.99 102.89 L 441.98 104.03 C 439.67 102.80 440.12 106.39 442.11 104.81 C 443.49 107.42 442.21 110.32 439.66 111.61 C 438.17 111.65 436.70 111.40 435.25 111.14 C 431.59 108.07 428.39 103.84 428.86 98.79 C 429.28 98.75 430.11 98.67 430.53 98.63 C 431.04 99.75 431.56 100.88 432.08 102.00 C 432.63 101.79 433.73 101.35 434.27 101.14 L 434.91 100.87 C 434.87 100.12 434.79 98.60 434.76 97.84 C 436.21 96.81 437.65 95.76 439.15 94.79 M 437.31 97.00 C 435.73 97.26 435.40 100.40 437.46 99.63 C 439.23 99.49 439.42 96.24 437.31 97.00 Z" />
<path fill="#3a3a3b" opacity="1.00" d=" M 437.31 97.00 C 439.42 96.24 439.23 99.49 437.46 99.63 C 435.40 100.40 435.73 97.26 437.31 97.00 Z" />
<path fill="#323233" opacity="1.00" d=" M 441.22 96.76 C 441.70 97.04 442.65 97.59 443.13 97.86 C 442.90 98.40 442.44 99.47 442.21 100.00 L 442.86 100.33 C 444.14 100.96 445.45 101.56 446.76 102.17 C 447.10 101.64 447.79 100.56 448.13 100.02 C 447.80 99.68 447.14 99.00 446.81 98.66 L 446.74 98.09 L 446.89 97.41 C 450.54 97.79 454.42 95.89 457.76 98.01 C 455.93 100.21 452.81 99.52 450.36 100.35 C 449.07 101.16 448.16 102.40 447.14 103.49 C 448.28 103.75 449.42 104.01 450.57 104.27 L 451.29 104.50 C 447.43 105.47 443.73 108.20 443.84 112.58 C 445.55 111.32 446.95 109.61 448.80 108.56 C 451.53 108.35 454.60 108.92 456.65 106.64 C 456.83 106.66 457.18 106.71 457.36 106.74 C 461.42 108.88 465.22 112.13 470.03 112.22 C 475.86 112.48 481.70 112.22 487.53 112.47 C 488.08 112.15 488.64 111.85 489.21 111.56 C 489.67 111.84 490.58 112.41 491.04 112.69 C 496.94 113.95 503.03 114.02 508.96 115.18 C 512.04 115.67 515.81 117.18 517.99 113.97 C 519.00 114.10 520.01 114.24 521.04 114.38 C 520.80 116.34 520.00 119.01 517.46 118.56 C 514.93 117.37 512.11 117.17 509.36 117.07 C 510.18 117.60 511.01 118.11 511.85 118.61 C 513.38 119.59 515.15 120.04 516.97 119.91 C 519.79 120.13 521.49 117.48 523.57 116.02 C 524.24 114.14 524.90 112.24 525.71 110.40 C 526.27 110.21 527.39 109.83 527.96 109.64 L 528.09 108.76 L 528.30 109.47 C 528.52 111.95 528.41 114.45 528.28 116.93 C 527.53 117.00 526.02 117.13 525.27 117.19 C 525.00 118.27 524.73 119.34 524.47 120.42 C 522.46 120.55 520.47 120.83 518.57 121.51 C 519.87 121.89 521.19 122.26 522.51 122.62 C 522.62 123.33 522.85 124.76 522.96 125.47 C 517.56 125.29 512.20 124.40 506.97 123.06 C 506.76 122.73 506.34 122.08 506.12 121.75 C 505.93 121.45 505.53 120.84 505.33 120.54 C 494.62 119.18 483.90 117.87 473.17 116.64 C 469.78 116.22 466.35 117.19 462.94 116.54 C 458.87 115.70 455.03 118.16 450.96 117.28 C 448.03 116.78 445.06 116.52 442.11 116.17 C 439.24 114.66 436.12 113.32 433.91 110.87 L 435.25 111.14 C 436.70 111.40 438.17 111.65 439.66 111.61 C 442.21 110.32 443.49 107.42 442.11 104.81 L 441.98 104.03 L 441.99 102.89 C 443.00 100.71 439.48 101.03 441.11 102.91 C 440.55 102.92 439.43 102.94 438.87 102.95 C 439.77 100.93 440.57 98.87 441.22 96.76 Z" />
<path fill="#b3b3b5" opacity="1.00" d=" M 467.53 97.59 L 467.68 97.55 C 467.61 97.58 467.47 97.62 467.40 97.65 L 467.53 97.59 Z" />
<path fill="#040404" opacity="1.00" d=" M 471.44 105.76 C 472.57 102.72 473.70 99.67 475.19 96.78 C 475.26 97.35 475.40 98.49 475.46 99.06 C 481.27 100.32 487.25 100.47 493.12 101.35 C 492.44 102.13 491.76 102.92 491.09 103.71 C 485.63 103.13 480.11 101.50 474.62 102.40 C 475.19 102.52 476.31 102.74 476.88 102.85 C 475.89 104.35 474.93 105.86 473.88 107.31 L 473.02 107.67 C 472.62 107.19 471.84 106.24 471.44 105.76 Z" />
<path fill="#040404" opacity="1.00" d=" M 526.41 98.03 C 527.17 97.86 528.70 97.52 529.47 97.35 C 529.09 99.13 528.85 100.94 528.53 102.73 C 528.28 102.96 527.78 103.41 527.53 103.64 C 526.42 102.40 525.70 100.35 523.77 100.31 C 518.87 99.48 513.93 98.87 508.98 98.44 C 509.79 98.19 511.41 97.69 512.23 97.45 C 516.92 97.58 521.80 99.57 526.41 98.03 Z" />
<path fill="#646466" opacity="1.00" d=" M 433.91 110.87 C 429.75 108.40 426.66 102.64 428.85 97.88 L 428.86 98.79 C 428.39 103.84 431.59 108.07 435.25 111.14 L 433.91 110.87 Z" />
<path fill="#838284" opacity="1.00" d=" M 434.27 101.14 C 432.82 100.28 433.29 98.34 434.76 97.84 C 434.79 98.60 434.87 100.12 434.91 100.87 L 434.27 101.14 Z" />
<path fill="#5a5a5c" opacity="1.00" d=" M 443.13 97.86 C 443.56 98.21 444.44 98.90 444.87 99.25 C 444.37 99.52 443.36 100.06 442.86 100.33 L 442.21 100.00 C 442.44 99.47 442.90 98.40 443.13 97.86 Z" />
<path fill="#676767" opacity="1.00" d=" M 446.41 98.26 L 446.74 98.09 L 446.81 98.66 L 446.45 98.56 L 446.41 98.26 Z" />
<path fill="#89888b" opacity="1.00" d=" M 463.00 101.00 C 461.32 99.57 463.32 98.42 464.80 98.93 L 465.15 99.50 C 464.61 99.87 463.54 100.63 463.00 101.00 Z" />
<path fill="#080808" opacity="1.00" d=" M 499.85 104.21 C 499.24 102.19 500.00 100.40 501.33 98.91 C 501.86 100.06 502.38 101.22 502.91 102.38 C 509.87 103.16 516.80 104.40 523.80 104.74 C 524.53 104.71 526.00 104.67 526.74 104.65 C 527.18 106.02 527.66 107.38 528.09 108.76 L 527.96 109.64 C 527.39 109.83 526.27 110.21 525.71 110.40 C 524.38 109.77 523.07 109.10 521.76 108.45 C 522.55 108.55 524.12 108.74 524.91 108.84 C 525.16 108.50 525.66 107.81 525.91 107.47 C 518.28 106.77 510.67 105.80 503.07 104.79 C 501.99 104.60 500.92 104.41 499.85 104.21 Z" />
<path fill="#161617" opacity="1.00" d=" M 507.05 99.52 C 509.03 99.70 510.98 100.10 512.95 100.35 C 513.37 103.21 509.61 102.08 507.90 102.08 C 506.58 102.32 505.29 99.82 507.05 99.52 Z" />
<path fill="#737374" opacity="1.00" d=" M 441.11 102.91 C 439.48 101.03 443.00 100.71 441.99 102.89 L 441.11 102.91 Z" />
<path fill="#99999b" opacity="1.00" d=" M 474.62 102.40 C 480.11 101.50 485.63 103.13 491.09 103.71 C 491.73 104.01 492.36 104.32 493.00 104.65 L 491.80 104.68 C 486.84 103.93 481.83 103.64 476.88 102.85 C 476.31 102.74 475.19 102.52 474.62 102.40 Z" />
<path fill="#2c2c2d" opacity="1.00" d=" M 476.88 102.85 C 481.83 103.64 486.84 103.93 491.80 104.68 C 492.86 105.39 493.91 106.12 494.96 106.85 C 496.59 105.99 498.23 105.11 499.85 104.21 C 500.92 104.41 501.99 104.60 503.07 104.79 C 501.93 105.00 500.80 105.23 499.68 105.48 C 500.29 105.61 501.50 105.86 502.10 105.98 C 499.77 106.34 497.42 107.01 495.63 108.62 C 495.20 108.93 494.34 109.56 493.91 109.88 C 493.40 109.94 492.39 110.06 491.88 110.12 C 491.96 110.55 492.14 111.40 492.23 111.82 C 491.48 111.75 489.97 111.62 489.21 111.56 C 488.64 111.85 488.08 112.15 487.53 112.47 C 481.70 112.22 475.86 112.48 470.03 112.22 C 465.22 112.13 461.42 108.88 457.36 106.74 C 457.18 106.71 456.83 106.66 456.65 106.64 C 455.88 106.53 454.33 106.32 453.56 106.22 L 453.46 104.62 C 457.42 104.22 461.37 105.35 464.20 108.23 C 466.20 111.07 469.48 108.91 472.00 108.08 C 472.36 108.39 473.08 109.02 473.44 109.33 C 475.88 109.48 478.32 109.63 480.77 109.67 C 479.30 107.26 476.29 107.58 473.88 107.31 C 474.93 105.86 475.89 104.35 476.88 102.85 Z" />
<path fill="#5f5f61" opacity="1.00" d=" M 442.11 104.81 C 440.12 106.39 439.67 102.80 441.98 104.03 L 442.11 104.81 Z" />
<path fill="#646466" opacity="1.00" d=" M 450.57 104.27 C 454.91 104.56 460.78 102.69 463.66 107.04 L 464.20 108.23 C 461.37 105.35 457.42 104.22 453.46 104.62 L 453.56 106.22 C 454.33 106.32 455.88 106.53 456.65 106.64 C 454.60 108.92 451.53 108.35 448.80 108.56 C 450.65 107.89 452.35 106.90 453.53 105.28 C 452.97 105.09 451.85 104.70 451.29 104.50 L 450.57 104.27 Z" />
<path fill="#121214" opacity="1.00" d=" M 443.84 112.58 C 443.73 108.20 447.43 105.47 451.29 104.50 C 451.85 104.70 452.97 105.09 453.53 105.28 C 452.35 106.90 450.65 107.89 448.80 108.56 C 446.95 109.61 445.55 111.32 443.84 112.58 Z" />
<path fill="#767678" opacity="1.00" d=" M 499.68 105.48 C 500.80 105.23 501.93 105.00 503.07 104.79 C 510.67 105.80 518.28 106.77 525.91 107.47 C 525.66 107.81 525.16 108.50 524.91 108.84 C 524.12 108.74 522.55 108.55 521.76 108.45 C 515.25 107.29 508.63 107.00 502.10 105.98 C 501.50 105.86 500.29 105.61 499.68 105.48 Z" />
<path fill="#afafb1" opacity="1.00" d=" M 528.30 109.47 C 528.89 107.96 529.55 106.47 530.19 104.98 C 530.82 106.99 531.64 108.93 532.68 110.77 C 532.57 111.05 532.35 111.61 532.24 111.89 C 531.03 114.88 529.88 117.90 528.41 120.78 C 528.36 119.49 528.32 118.21 528.28 116.93 C 528.41 114.45 528.52 111.95 528.30 109.47 Z" />
<path fill="#252526" opacity="1.00" d=" M 502.10 105.98 C 508.63 107.00 515.25 107.29 521.76 108.45 C 523.07 109.10 524.38 109.77 525.71 110.40 C 524.90 112.24 524.24 114.14 523.57 116.02 C 521.49 117.48 519.79 120.13 516.97 119.91 C 515.15 120.04 513.38 119.59 511.85 118.61 C 513.72 118.65 515.58 118.63 517.46 118.56 C 520.00 119.01 520.80 116.34 521.04 114.38 C 520.01 114.24 519.00 114.10 517.99 113.97 C 517.06 112.98 516.53 111.22 514.92 111.22 C 508.49 110.32 501.96 110.12 495.63 108.62 C 497.42 107.01 499.77 106.34 502.10 105.98 Z" />
<path fill="#c5c4c7" opacity="1.00" d=" M 473.02 107.67 L 473.88 107.31 C 476.29 107.58 479.30 107.26 480.77 109.67 C 478.32 109.63 475.88 109.48 473.44 109.33 C 473.08 109.02 472.36 108.39 472.00 108.08 C 472.26 107.98 472.76 107.77 473.02 107.67 Z" />
<path fill="#3f3f40" opacity="1.00" d=" M 493.91 109.88 C 494.34 109.56 495.20 108.93 495.63 108.62 C 501.96 110.12 508.49 110.32 514.92 111.22 C 516.53 111.22 517.06 112.98 517.99 113.97 C 515.81 117.18 512.04 115.67 508.96 115.18 C 503.03 114.02 496.94 113.95 491.04 112.69 C 490.58 112.41 489.67 111.84 489.21 111.56 C 489.97 111.62 491.48 111.75 492.23 111.82 C 494.87 112.31 497.55 112.16 500.20 111.77 C 498.13 111.03 496.05 110.35 493.91 109.88 M 500.86 112.98 C 502.64 113.11 504.43 113.19 506.24 113.17 C 505.37 110.36 501.76 110.03 500.86 112.98 M 506.70 112.06 C 508.14 115.45 512.31 114.00 515.10 113.79 C 512.81 111.56 509.64 111.73 506.70 112.06 Z" />
<path fill="#5e5e60" opacity="1.00" d=" M 491.88 110.12 C 492.39 110.06 493.40 109.94 493.91 109.88 C 496.05 110.35 498.13 111.03 500.20 111.77 C 497.55 112.16 494.87 112.31 492.23 111.82 C 492.14 111.40 491.96 110.55 491.88 110.12 Z" />
<path fill="#565658" opacity="1.00" d=" M 500.86 112.98 C 501.76 110.03 505.37 110.36 506.24 113.17 C 504.43 113.19 502.64 113.11 500.86 112.98 Z" />
<path fill="#5b5b5d" opacity="1.00" d=" M 506.70 112.06 C 509.64 111.73 512.81 111.56 515.10 113.79 C 512.31 114.00 508.14 115.45 506.70 112.06 Z" />
<path fill="#040404" opacity="1.00" d=" M 463.15 117.62 C 466.49 117.30 469.82 116.91 473.17 116.64 C 483.90 117.87 494.62 119.18 505.33 120.54 C 505.53 120.84 505.93 121.45 506.12 121.75 C 498.02 121.45 490.04 119.91 481.97 119.18 C 475.71 118.40 469.48 117.15 463.15 117.62 Z" />
<path fill="#afafb1" opacity="1.00" d=" M 509.36 117.07 C 512.11 117.17 514.93 117.37 517.46 118.56 C 515.58 118.63 513.72 118.65 511.85 118.61 C 511.01 118.11 510.18 117.60 509.36 117.07 Z" />
<path fill="#515153" opacity="1.00" d=" M 525.27 117.19 C 526.02 117.13 527.53 117.00 528.28 116.93 C 528.32 118.21 528.36 119.49 528.41 120.78 C 527.99 121.60 526.94 121.76 526.22 122.19 C 524.59 122.18 523.65 123.57 523.86 125.10 L 522.96 125.47 C 522.85 124.76 522.62 123.33 522.51 122.62 C 521.19 122.26 519.87 121.89 518.57 121.51 C 520.47 120.83 522.46 120.55 524.47 120.42 C 524.73 119.34 525.00 118.27 525.27 117.19 Z" />
<path fill="#acabad" opacity="0.97" d=" M 523.86 125.10 C 523.65 123.57 524.59 122.18 526.22 122.19 C 526.43 123.66 525.16 124.77 523.86 125.10 Z" />
<path fill="#6a3030" opacity="0.51" d=" M 287.95 294.98 C 288.94 290.83 291.50 286.42 296.22 286.10 L 295.96 286.55 C 295.68 286.87 295.12 287.53 294.83 287.85 C 293.31 288.89 291.92 290.09 290.64 291.41 L 290.81 291.98 C 289.98 294.04 289.49 296.46 291.02 298.36 L 291.61 299.44 C 291.72 299.59 291.95 299.89 292.06 300.05 C 292.17 300.14 292.38 300.34 292.49 300.44 C 293.03 300.84 294.12 301.63 294.66 302.02 C 296.08 303.43 298.14 302.85 299.68 301.99 L 299.94 301.89 C 300.89 301.55 302.78 300.87 303.73 300.53 C 301.67 304.58 295.80 305.11 292.39 302.56 C 289.69 300.95 288.90 297.74 287.95 294.98 Z" />
<path fill="#bc2631" opacity="0.87" d=" M 296.22 286.10 C 297.64 285.49 298.59 285.72 299.06 286.80 C 298.29 286.74 296.74 286.61 295.96 286.55 L 296.22 286.10 Z" />
<path fill="#a81e0b" opacity="1.00" d=" M 299.82 287.04 C 304.18 287.63 307.04 293.47 305.40 297.31 C 305.20 295.86 304.94 294.44 304.60 293.03 C 303.94 290.81 302.20 289.20 300.54 287.71 L 299.82 287.04 Z" />
<path fill="#58ff60" opacity="1.00" d=" M 290.64 291.41 C 291.92 290.09 293.31 288.89 294.83 287.85 L 296.65 287.51 C 296.02 289.61 293.56 290.09 292.05 291.42 C 294.75 291.40 294.17 293.82 294.15 295.73 C 294.78 295.63 296.04 295.45 296.67 295.35 C 297.03 298.77 293.33 297.73 292.21 296.00 C 292.32 294.46 291.44 293.26 290.81 291.98 L 290.64 291.41 Z" />
<path fill="#39e142" opacity="0.93" d=" M 297.30 287.59 C 298.11 287.62 299.73 287.68 300.54 287.71 C 302.20 289.20 303.94 290.81 304.60 293.03 L 303.30 294.53 C 302.76 293.42 302.18 292.35 301.57 291.29 C 300.69 289.44 297.76 289.77 297.30 287.59 Z" />
<path fill="#ffffff" opacity="1.00" d=" M 69.46 294.66 C 73.66 289.67 82.94 290.95 85.55 296.96 C 86.75 300.15 86.56 303.61 86.68 306.96 C 83.82 307.01 80.97 307.01 78.11 306.99 C 77.84 303.96 78.98 300.42 76.92 297.85 C 74.78 299.66 75.69 302.60 75.49 305.01 C 75.72 312.06 75.05 319.17 75.90 326.19 C 76.40 326.07 77.41 325.83 77.91 325.71 C 78.63 323.00 78.29 320.15 78.46 317.39 C 78.02 317.12 77.15 316.58 76.71 316.32 C 76.74 314.46 76.75 312.60 76.76 310.75 C 80.03 310.75 83.30 310.76 86.57 310.72 C 86.71 317.80 86.55 324.88 86.66 331.96 C 84.80 331.98 82.94 331.98 81.08 331.96 C 80.97 331.28 80.76 329.93 80.66 329.25 C 79.45 330.77 78.21 332.62 76.09 332.82 C 71.61 333.46 67.81 329.35 67.33 325.14 C 66.65 318.77 67.15 312.33 66.99 305.93 C 67.19 302.13 66.63 297.67 69.46 294.66 Z" />
<path fill="#ffffff" opacity="1.00" d=" M 92.64 292.51 C 96.69 292.49 100.75 292.52 104.81 292.47 C 106.53 305.64 108.09 318.82 109.74 332.00 C 106.84 332.00 103.93 332.00 101.03 332.00 C 100.87 329.62 100.72 327.25 100.58 324.87 C 99.82 324.87 98.30 324.87 97.55 324.87 C 97.40 327.25 97.25 329.62 97.10 332.00 C 94.15 332.00 91.20 332.00 88.26 332.00 C 89.71 318.83 91.19 305.67 92.64 292.51 M 98.48 303.88 C 98.59 308.56 97.75 313.19 97.43 317.84 C 98.39 317.83 99.34 317.82 100.31 317.82 C 99.85 312.30 99.28 306.79 99.51 301.25 C 98.75 301.91 98.26 302.83 98.48 303.88 Z" />
<path fill="#ffff26" opacity="1.00" d=" M 154.33 295.36 C 157.33 290.77 164.36 290.61 168.63 293.43 C 172.22 295.80 171.45 300.67 171.66 304.37 C 169.03 304.37 166.41 304.37 163.79 304.37 C 163.64 302.37 164.10 300.21 163.14 298.35 C 160.11 298.27 160.78 302.71 161.59 304.57 C 164.66 308.22 169.86 310.17 171.55 314.96 C 172.60 319.36 172.91 324.21 171.38 328.53 C 168.00 334.40 157.95 334.40 154.52 328.57 C 152.97 325.24 153.32 321.45 153.24 317.88 C 155.86 317.87 158.49 317.87 161.12 317.88 C 161.38 320.63 160.42 323.78 161.98 326.26 C 165.31 325.95 164.27 321.41 163.83 319.10 C 161.14 314.65 154.90 312.94 153.54 307.52 C 152.74 303.54 152.54 299.10 154.33 295.36 Z" />
<path fill="#ffff26" opacity="1.00" d=" M 194.03 295.18 C 197.91 289.80 207.29 290.63 210.32 296.47 C 211.80 299.74 211.52 303.42 211.71 306.92 C 208.84 307.02 205.98 307.01 203.12 306.99 C 202.84 303.97 203.99 300.40 201.89 297.85 C 201.57 298.38 200.93 299.43 200.62 299.95 C 200.56 308.68 200.12 317.48 200.89 326.19 C 201.40 326.06 202.42 325.81 202.93 325.69 C 203.59 322.98 203.32 320.17 203.46 317.42 C 203.03 317.14 202.15 316.57 201.71 316.29 C 201.74 314.44 201.75 312.59 201.76 310.75 C 205.02 310.75 208.28 310.76 211.54 310.71 C 211.74 317.79 211.54 324.88 211.66 331.96 C 209.79 331.98 207.93 331.98 206.07 331.96 C 205.97 331.28 205.77 329.93 205.67 329.25 C 204.45 330.73 203.26 332.58 201.17 332.81 C 196.69 333.52 192.83 329.41 192.34 325.18 C 191.64 318.79 192.15 312.34 191.99 305.93 C 192.20 302.32 191.67 298.21 194.03 295.18 Z" />
<path fill="#ffff26" opacity="1.00" d=" M 217.64 292.50 C 221.69 292.49 225.73 292.52 229.78 292.46 C 231.56 305.62 233.08 318.82 234.75 332.00 C 231.84 332.00 228.93 332.00 226.03 332.00 C 225.87 329.62 225.72 327.25 225.58 324.87 C 224.82 324.87 223.30 324.87 222.55 324.87 C 222.40 327.24 222.25 329.62 222.10 331.99 C 219.15 332.00 216.20 332.00 213.26 332.00 C 214.71 318.83 216.19 305.67 217.64 292.50 M 222.42 317.83 C 223.38 317.82 224.34 317.81 225.31 317.80 C 225.02 312.29 223.98 306.75 224.56 301.24 C 222.79 306.50 223.27 312.34 222.42 317.83 Z" />
<path fill="#ffff26" opacity="1.00" d=" M 246.37 294.32 C 250.83 289.88 259.89 290.88 262.45 296.93 C 263.84 301.00 263.42 305.38 263.51 309.61 C 260.69 309.62 257.87 309.62 255.05 309.66 C 254.78 305.96 255.49 302.13 254.50 298.53 C 253.45 298.13 252.03 298.42 252.16 299.84 C 251.86 307.94 251.95 316.07 252.12 324.18 C 251.67 325.55 253.62 327.02 254.54 325.70 C 255.38 322.59 254.87 319.29 255.01 316.11 C 257.86 316.11 260.71 316.11 263.55 316.17 C 263.35 320.15 263.82 324.38 262.11 328.09 C 259.22 333.55 251.08 334.41 246.58 330.53 C 243.64 327.89 243.73 323.61 243.52 319.99 C 243.51 314.01 243.41 308.03 243.58 302.05 C 243.61 299.26 244.34 296.34 246.37 294.32 Z" />
<path fill="#58ff60" opacity="1.00" d=" M 296.77 293.73 C 297.03 290.70 300.01 291.73 302.02 292.17 C 301.91 293.25 301.54 294.26 300.91 295.19 C 302.06 296.19 303.27 295.39 304.42 294.83 C 304.32 295.67 304.13 297.34 304.03 298.17 C 303.11 299.83 301.59 301.02 299.94 301.89 L 299.68 301.99 L 297.64 302.10 C 298.41 299.94 301.19 299.83 302.37 297.95 C 300.34 297.84 298.31 297.72 296.32 297.29 C 297.13 296.15 297.95 295.01 298.79 293.88 L 296.77 293.73 Z" />
<path fill="#ffffff" opacity="1.00" d=" M 20.75 292.50 C 24.42 292.49 28.08 292.48 31.75 292.53 C 32.32 298.67 33.53 304.77 33.65 310.95 C 34.91 304.88 35.10 298.64 35.90 292.50 C 39.56 292.49 43.22 292.49 46.88 292.50 C 46.87 305.67 46.87 318.83 46.88 331.99 C 44.42 332.00 41.96 332.00 39.50 332.00 C 39.48 323.31 39.51 314.62 39.55 305.94 C 38.32 314.57 37.46 323.25 36.55 331.92 C 34.78 331.97 33.00 331.99 31.23 332.00 C 30.34 323.35 28.98 314.74 28.51 306.05 C 27.80 314.68 28.26 323.35 28.12 332.00 C 25.67 332.00 23.21 332.00 20.75 332.00 C 20.75 318.83 20.75 305.67 20.75 292.50 Z" />
<path fill="#ffffff" opacity="1.00" d=" M 50.23 292.52 C 54.95 292.47 59.66 292.50 64.38 292.50 C 64.38 295.12 64.38 297.74 64.37 300.37 C 62.50 300.37 60.62 300.38 58.74 300.39 C 58.75 302.87 58.75 305.35 58.72 307.83 C 60.48 307.86 62.24 307.87 64.00 307.89 C 64.01 310.40 64.02 312.92 63.90 315.43 C 62.19 315.39 60.47 315.37 58.75 315.36 C 58.75 318.28 58.75 321.20 58.75 324.12 C 60.83 324.12 62.91 324.12 64.99 324.11 C 65.00 326.74 65.00 329.37 65.00 332.00 C 60.08 331.99 55.15 332.02 50.23 331.97 C 50.27 318.82 50.26 305.67 50.23 292.52 Z" />
<path fill="#ffffff" opacity="1.00" d=" M 123.23 331.98 C 123.32 318.80 123.14 305.63 123.33 292.45 C 128.43 292.73 133.72 291.92 138.68 293.46 C 142.00 294.78 142.91 298.65 142.82 301.87 C 142.87 309.62 143.00 317.38 142.75 325.12 C 142.85 327.99 141.28 331.23 138.17 331.68 C 133.23 332.34 128.21 331.87 123.23 331.98 M 131.69 299.24 C 131.83 307.99 131.66 316.75 131.78 325.50 C 132.30 325.29 133.33 324.88 133.84 324.67 C 135.02 317.23 134.12 309.55 134.35 302.02 C 134.73 300.18 133.38 299.07 131.69 299.24 Z" />
<path fill="#ffff26" opacity="1.00" d=" M 175.22 292.55 C 179.94 292.44 184.65 292.51 189.37 292.50 C 189.38 295.12 189.38 297.74 189.38 300.37 C 187.49 300.37 185.62 300.38 183.74 300.40 C 183.75 302.87 183.75 305.34 183.72 307.82 C 185.48 307.85 187.24 307.87 189.00 307.90 C 189.01 310.40 189.01 312.92 188.91 315.43 C 187.19 315.39 185.47 315.37 183.75 315.36 C 183.75 318.28 183.75 321.20 183.75 324.12 C 185.83 324.12 187.91 324.12 189.99 324.11 C 190.00 326.74 190.00 329.37 190.00 332.00 C 185.07 331.99 180.15 332.03 175.22 331.96 C 175.27 318.83 175.27 305.69 175.22 292.55 Z" />
<path fill="#ffff26" opacity="1.00" d=" M 266.75 292.50 C 271.54 292.60 276.41 292.14 281.14 293.12 C 284.29 293.76 286.19 296.98 286.20 300.03 C 286.57 307.68 286.31 315.35 286.36 323.02 C 286.35 326.12 286.09 330.28 282.56 331.43 C 277.38 332.56 272.01 331.76 266.75 332.00 C 266.75 318.83 266.75 305.67 266.75 292.50 M 275.28 325.47 C 275.84 325.22 276.95 324.72 277.51 324.47 C 278.16 316.40 278.00 308.21 277.62 300.14 C 277.08 299.80 275.99 299.12 275.45 298.78 C 275.02 307.67 275.33 316.57 275.28 325.47 Z" />
<path fill="#5fcd64" opacity="0.82" d=" M 291.02 298.36 C 290.68 296.18 292.76 297.80 293.25 298.60 C 294.34 300.02 296.26 300.37 297.31 301.84 C 296.65 301.89 295.32 301.98 294.66 302.02 C 294.12 301.63 293.03 300.84 292.49 300.44 C 292.38 300.34 292.17 300.14 292.06 300.05 C 291.95 299.89 291.72 299.59 291.61 299.44 L 291.02 298.36 Z" />
<path fill="#84262c" opacity="0.58" d=" M 304.03 298.17 C 307.23 298.31 302.54 301.32 304.03 298.17 Z" />
<path fill="#387a3d" opacity="0.48" d=" M 291.61 299.44 C 291.72 299.59 291.95 299.89 292.06 300.05 C 291.95 299.89 291.72 299.59 291.61 299.44 Z" />
<path fill="#438d47" opacity="0.55" d=" M 292.06 300.05 C 292.17 300.14 292.38 300.34 292.49 300.44 C 292.38 300.34 292.17 300.14 292.06 300.05 Z" />
<path fill="#ffffff" opacity="1.00" d=" M 110.26 312.49 C 113.79 312.50 117.32 312.51 120.85 312.47 C 120.88 314.74 120.88 317.02 120.81 319.29 C 117.30 319.23 113.79 319.24 110.28 319.27 C 110.25 317.01 110.25 314.75 110.26 312.49 Z" />
</svg>
