<?xml version="1.0" encoding="UTF-8" ?>
<!DOCTYPE svg PUBLIC "-//W3C//DTD SVG 1.1//EN" "http://www.w3.org/Graphics/SVG/1.1/DTD/svg11.dtd">
<svg width="533pt" height="133pt" viewBox="0 0 533 133" version="1.1" xmlns="http://www.w3.org/2000/svg">
<path fill="#a72a32" opacity="0.78" d=" M 491.32 17.76 C 494.51 6.85 508.03 0.12 518.58 4.54 C 526.50 7.00 531.90 14.52 533.00 22.58 L 533.00 23.96 C 532.32 28.06 531.17 32.27 528.46 35.53 C 528.08 35.37 527.32 35.04 526.94 34.88 C 530.17 30.53 531.75 24.83 530.35 19.50 C 528.48 11.28 520.42 5.28 512.10 5.20 C 504.39 4.82 496.65 9.44 493.64 16.59 C 492.02 20.25 491.93 24.36 492.71 28.24 C 491.89 24.80 492.07 21.22 491.32 17.76 Z" />
<path fill="#43ff4e" opacity="1.00" d=" M 499.16 10.66 C 502.13 8.43 505.63 7.07 509.31 6.57 C 509.33 7.37 509.37 8.95 509.39 9.75 C 507.13 9.81 504.83 10.44 503.13 11.98 C 502.71 12.30 502.29 12.63 501.88 12.95 C 501.20 12.38 499.84 11.24 499.16 10.66 Z" />
<path fill="#3fff4b" opacity="1.00" d=" M 512.46 6.52 C 520.57 6.62 528.63 12.77 528.98 21.23 C 527.71 20.89 526.44 20.76 525.14 20.85 C 524.90 19.84 524.74 18.82 524.44 17.83 C 523.23 12.63 517.55 9.30 512.41 9.99 C 512.42 9.12 512.45 7.38 512.46 6.52 Z" />
<path fill="#324e1b" opacity="0.69" d=" M 503.13 11.98 C 504.83 10.44 507.13 9.81 509.39 9.75 C 508.39 11.46 505.10 12.02 503.13 11.98 Z" />
<path fill="#45802b" opacity="0.82" d=" M 512.41 9.99 C 517.55 9.30 523.23 12.63 524.44 17.83 L 523.21 17.19 L 523.00 16.52 C 521.46 12.15 516.37 11.08 512.41 9.99 Z" />
<path fill="#59ff61" opacity="1.00" d=" M 493.64 21.53 C 494.32 17.42 496.14 13.57 499.16 10.66 C 499.84 11.24 501.20 12.38 501.88 12.95 C 500.90 14.00 499.96 15.09 499.06 16.22 C 500.67 16.36 502.29 16.49 503.91 16.61 C 503.76 19.47 503.59 22.32 503.51 25.17 C 503.11 23.35 502.85 21.48 502.18 19.74 C 501.08 19.54 499.95 19.50 498.85 19.37 C 498.66 18.84 498.30 17.77 498.11 17.23 C 497.86 18.75 497.57 20.27 497.31 21.79 C 496.39 21.73 494.56 21.59 493.64 21.53 Z" />
<path fill="#4dff57" opacity="1.00" d=" M 511.08 21.35 C 511.53 19.47 510.95 17.00 512.66 15.65 C 516.04 16.52 519.56 16.19 523.00 16.52 L 523.21 17.19 C 523.24 17.90 523.30 19.33 523.34 20.04 C 522.00 21.56 520.66 23.10 518.95 24.21 C 517.83 23.19 516.77 22.13 515.71 21.08 L 515.28 20.66 C 513.88 20.90 512.48 21.13 511.08 21.35 Z" />
<path fill="#b85358" opacity="0.80" d=" M 491.32 17.76 C 492.07 21.22 491.89 24.80 492.71 28.24 C 494.61 34.61 499.98 39.77 506.44 41.37 C 513.79 43.38 522.10 40.77 526.94 34.88 C 527.32 35.04 528.08 35.37 528.46 35.53 C 524.28 40.79 517.66 43.81 511.02 44.05 C 504.24 43.41 497.51 40.13 493.69 34.34 C 490.65 29.49 488.85 23.26 491.32 17.76 Z" />
<path fill="#68ff6f" opacity="1.00" d=" M 498.85 19.37 C 499.95 19.50 501.08 19.54 502.18 19.74 C 502.85 21.48 503.11 23.35 503.51 25.17 C 505.47 24.83 507.45 24.55 509.43 24.30 C 509.60 25.76 509.77 27.22 509.96 28.69 C 506.44 29.33 502.88 29.65 499.33 29.97 C 499.16 26.44 498.76 22.91 498.85 19.37 Z" />
<path fill="#5aff62" opacity="1.00" d=" M 515.71 21.08 C 516.77 22.13 517.83 23.19 518.95 24.21 C 520.22 25.49 522.10 24.19 523.61 24.23 C 523.93 26.48 523.39 28.71 521.62 30.22 C 518.17 29.79 514.69 29.76 511.23 29.73 C 511.22 28.74 511.18 26.75 511.17 25.76 C 512.68 24.20 514.20 22.65 515.71 21.08 Z" />
<path fill="#2f5d1d" opacity="0.58" d=" M 525.14 20.85 C 526.44 20.76 527.71 20.89 528.98 21.23 C 528.69 22.76 524.79 22.51 525.14 20.85 Z" />
<path fill="#48ff53" opacity="1.00" d=" M 525.55 23.77 C 526.81 23.73 528.07 23.68 529.34 23.64 C 529.10 25.74 528.74 27.83 528.21 29.88 C 527.03 29.34 525.85 28.80 524.69 28.26 C 524.96 26.76 525.26 25.27 525.55 23.77 Z" />
<path fill="#ffffff" opacity="1.00" d=" M 91.84 31.85 C 97.47 22.49 112.22 21.56 119.49 29.43 C 122.20 32.29 123.90 36.03 124.49 39.91 C 125.78 48.12 125.52 56.45 125.46 64.73 C 119.91 64.78 114.36 64.74 108.81 64.75 C 108.63 57.53 108.87 50.31 108.69 43.10 C 108.47 41.90 108.58 39.93 106.94 39.74 C 104.07 39.63 104.61 43.36 104.29 45.34 C 104.19 60.91 104.29 76.48 104.24 92.05 C 104.19 94.75 104.42 97.46 105.18 100.06 C 106.40 100.10 108.12 100.24 108.32 98.62 C 109.28 91.89 108.45 85.03 108.81 78.25 C 114.37 78.25 119.94 78.24 125.50 78.25 C 125.54 85.26 125.55 92.30 124.59 99.25 C 123.73 105.71 119.60 111.83 113.59 114.51 C 107.14 116.97 99.03 116.05 93.95 111.12 C 89.32 106.74 88.44 100.08 87.99 94.04 C 87.31 82.06 87.51 70.06 87.51 58.06 C 88.12 49.27 86.59 39.58 91.84 31.85 Z" />
<path fill="#ffff26" opacity="1.00" d=" M 280.15 25.14 C 286.93 22.87 295.24 24.45 299.82 30.23 C 306.54 38.15 305.04 49.34 305.46 58.99 C 299.91 59.01 294.35 59.00 288.80 59.00 C 288.46 52.97 289.32 46.83 288.18 40.87 C 286.95 38.14 284.42 40.94 284.85 42.93 C 284.61 59.94 284.84 76.97 284.74 93.99 C 284.79 96.10 284.62 98.48 286.08 100.20 C 288.50 100.55 288.96 97.81 289.07 96.01 C 289.46 90.86 289.15 85.69 289.25 80.53 C 288.50 80.51 287.01 80.46 286.27 80.44 C 286.23 75.81 286.23 71.18 286.27 66.55 C 292.66 66.45 299.05 66.51 305.45 66.51 C 305.53 82.34 305.54 98.17 305.45 113.99 C 301.85 114.00 298.25 114.00 294.66 114.01 C 294.27 112.31 293.90 110.62 293.57 108.92 C 291.89 111.95 289.46 115.02 285.83 115.62 C 279.56 116.82 273.74 112.27 271.17 106.86 C 268.12 101.06 268.22 94.35 268.00 87.98 C 268.00 76.30 267.98 64.62 268.01 52.94 C 268.33 47.45 268.10 41.81 269.70 36.49 C 271.54 31.59 275.11 26.99 280.15 25.14 Z" />
<path fill="#ffff26" opacity="1.00" d=" M 447.69 28.70 C 455.60 21.16 470.97 22.99 475.91 33.10 C 478.28 39.52 477.66 46.53 477.75 53.25 C 472.66 53.25 467.58 53.25 462.50 53.25 C 462.41 49.18 462.81 45.06 462.01 41.04 C 461.85 39.26 459.23 39.38 458.87 40.94 C 457.00 46.48 457.80 53.58 462.90 57.18 C 467.98 61.68 473.14 66.39 476.36 72.47 C 479.43 79.94 479.04 88.21 478.97 96.13 C 478.70 101.37 477.96 107.22 473.86 110.96 C 465.90 118.85 450.41 116.97 445.50 106.55 C 442.22 98.83 443.17 90.19 443.00 82.00 C 448.08 82.00 453.16 82.00 458.25 82.00 C 458.50 87.66 457.63 93.47 458.93 99.03 C 459.32 101.01 462.17 100.23 462.48 98.59 C 463.74 94.83 463.21 90.77 462.80 86.90 C 462.31 82.93 458.90 80.37 456.31 77.69 C 452.90 74.11 449.00 70.93 446.22 66.80 C 442.10 59.91 442.34 51.57 442.56 43.83 C 442.85 38.49 443.72 32.65 447.69 28.70 Z" />
<path fill="#76ff7c" opacity="1.00" d=" M 493.75 24.57 C 494.61 24.56 496.32 24.53 497.17 24.52 C 498.01 27.93 499.24 31.59 502.24 33.72 C 504.43 35.49 507.25 36.01 509.94 36.53 C 509.88 37.72 509.83 38.91 509.79 40.09 C 505.77 39.52 501.62 38.33 498.68 35.38 C 495.64 32.60 494.25 28.56 493.75 24.57 Z" />
<path fill="#ffffff" opacity="1.00" d=" M 0.76 114.00 C 3.38 84.65 5.97 55.31 8.79 25.99 C 16.60 26.02 24.40 25.99 32.20 26.00 C 35.27 55.33 38.41 84.66 41.42 114.00 C 35.78 113.99 30.14 114.02 24.49 113.99 C 24.17 108.75 23.82 103.52 23.69 98.28 C 22.06 98.26 20.43 98.25 18.80 98.25 C 18.55 103.50 18.24 108.75 17.95 114.00 C 12.22 114.00 6.49 114.00 0.76 114.00 M 18.96 82.00 C 20.32 82.00 21.68 82.00 23.04 82.00 C 22.63 71.87 21.19 61.73 21.64 51.60 C 19.76 61.59 19.68 71.87 18.96 82.00 Z" />
<path fill="#ffffff" opacity="1.00" d=" M 45.24 26.00 C 53.67 26.22 62.18 25.39 70.54 26.79 C 76.42 27.74 79.44 33.88 80.33 39.21 C 81.39 46.56 81.51 54.14 80.28 61.47 C 79.82 64.92 77.17 67.61 73.81 68.37 C 78.08 70.00 80.49 74.45 80.90 78.82 C 81.33 90.54 81.32 102.27 81.20 114.00 C 76.07 114.00 70.93 114.00 65.80 114.00 C 65.55 102.28 66.04 90.55 65.55 78.85 C 65.74 76.54 64.28 74.89 62.03 74.57 C 61.94 87.70 62.06 100.84 61.97 113.97 C 56.41 114.02 50.84 114.02 45.28 113.97 C 45.20 84.65 45.27 55.33 45.24 26.00 M 62.03 41.62 C 61.98 47.93 61.98 54.23 62.04 60.54 C 63.47 60.11 65.33 59.75 65.41 57.91 C 65.91 53.45 66.00 48.86 65.42 44.41 C 65.34 42.57 63.42 42.16 62.03 41.62 Z" />
<path fill="#ffffff" opacity="1.00" d=" M 137.30 26.00 C 145.13 26.05 152.97 25.89 160.81 26.08 C 163.85 55.39 166.96 84.68 170.02 113.98 C 164.36 114.02 158.71 113.99 153.05 114.00 C 152.74 108.75 152.44 103.50 152.20 98.25 C 150.57 98.25 148.94 98.26 147.32 98.28 C 147.20 103.47 146.73 108.64 146.61 113.83 C 140.86 114.20 135.10 113.91 129.34 114.00 C 131.94 84.66 134.60 55.33 137.30 26.00 M 147.45 81.99 C 148.47 81.99 150.52 82.00 151.55 82.00 C 150.90 72.09 150.64 62.15 149.48 52.28 C 148.99 62.20 148.01 72.08 147.45 81.99 Z" />
<path fill="#ffffff" opacity="1.00" d=" M 173.80 26.00 C 182.03 26.22 190.34 25.44 198.52 26.67 C 202.70 27.21 206.48 29.83 208.42 33.58 C 211.21 38.91 210.59 45.11 210.98 50.92 C 211.00 64.96 211.04 78.99 210.96 93.03 C 210.56 98.59 211.19 104.82 207.75 109.60 C 205.31 112.94 201.03 113.88 197.13 113.98 C 189.35 114.04 181.58 113.98 173.80 114.00 C 173.71 84.67 173.71 55.33 173.80 26.00 M 190.52 41.64 C 190.50 60.53 190.47 79.42 190.53 98.32 C 194.36 98.11 194.12 93.87 194.25 91.07 C 194.22 75.95 194.30 60.82 194.21 45.70 C 194.32 43.48 192.87 41.57 190.52 41.64 Z" />
<path fill="#ffffff" opacity="1.00" d=" M 218.75 26.00 C 227.67 26.00 236.58 26.00 245.50 26.00 C 245.50 32.08 245.51 38.17 245.50 44.25 C 242.08 44.25 238.67 44.25 235.25 44.25 C 235.25 49.50 235.25 54.75 235.25 60.00 C 238.42 60.00 241.58 60.00 244.76 60.00 C 244.75 65.75 244.76 71.50 244.75 77.25 C 241.58 77.25 238.42 77.25 235.26 77.25 C 235.24 83.41 235.25 89.58 235.25 95.75 C 239.00 95.75 242.75 95.75 246.50 95.75 C 246.51 101.83 246.49 107.91 246.51 113.99 C 237.25 114.01 228.00 114.00 218.75 114.00 C 218.75 84.67 218.75 55.33 218.75 26.00 Z" />
<path fill="#ffff26" opacity="1.00" d=" M 308.76 113.99 C 311.32 84.65 314.01 55.32 316.72 26.00 C 324.54 26.00 332.36 26.00 340.19 26.00 C 343.21 55.33 346.49 84.64 349.32 113.99 C 343.68 113.94 338.02 114.15 332.38 113.87 C 332.19 108.69 331.84 103.51 331.63 98.34 C 330.02 98.29 328.41 98.26 326.80 98.23 C 326.51 103.49 326.22 108.74 325.95 114.00 C 320.22 114.00 314.49 114.01 308.76 113.99 M 326.96 82.00 C 328.31 82.00 329.67 82.00 331.03 82.00 C 330.52 71.75 329.29 61.50 329.49 51.23 C 327.97 61.41 327.54 71.74 326.96 82.00 Z" />
<path fill="#ffff26" opacity="1.00" d=" M 353.24 26.01 C 360.25 25.99 367.25 26.02 374.25 25.99 C 375.60 37.85 376.61 49.76 378.03 61.61 C 379.26 49.76 380.19 37.87 381.31 26.00 C 388.29 26.00 395.27 26.00 402.25 26.00 C 402.25 55.33 402.25 84.67 402.25 114.00 C 397.41 114.00 392.58 114.00 387.75 114.00 C 387.58 97.41 388.08 80.81 387.49 64.23 C 386.38 80.85 384.47 97.40 383.13 114.00 C 379.69 114.00 376.24 114.00 372.80 114.00 C 371.32 98.08 369.28 82.20 368.51 66.23 C 367.44 82.13 368.42 98.08 367.74 114.00 C 362.92 113.99 358.10 114.03 353.28 113.97 C 353.20 84.65 353.27 55.33 353.24 26.01 Z" />
<path fill="#ffff26" opacity="1.00" d=" M 410.03 26.03 C 419.01 25.98 427.99 25.98 436.97 26.03 C 437.03 32.08 436.99 38.14 437.00 44.20 C 433.58 44.27 430.17 44.25 426.75 44.25 C 426.75 49.50 426.75 54.75 426.75 60.00 C 429.90 60.00 433.05 60.00 436.20 60.00 C 436.30 65.74 436.24 71.48 436.24 77.22 C 433.07 77.26 429.91 77.26 426.76 77.25 C 426.75 83.42 426.75 89.58 426.75 95.75 C 430.50 95.75 434.25 95.72 438.00 95.81 C 437.99 101.86 438.03 107.92 437.97 113.97 C 428.66 114.02 419.34 114.02 410.03 113.97 C 409.98 84.66 409.98 55.34 410.03 26.03 Z" />
<path fill="#65ff6d" opacity="1.00" d=" M 524.69 28.26 C 525.85 28.80 527.03 29.34 528.21 29.88 C 525.82 35.95 519.79 39.46 513.55 40.28 C 513.41 39.05 513.30 37.81 513.19 36.58 C 518.03 35.92 523.21 33.23 524.69 28.26 Z" />
</svg>
