<?xml version="1.0" encoding="UTF-8" ?>
<!DOCTYPE svg PUBLIC "-//W3C//DTD SVG 1.1//EN" "http://www.w3.org/Graphics/SVG/1.1/DTD/svg11.dtd">
<svg width="533pt" height="133pt" viewBox="0 0 533 133" version="1.1" xmlns="http://www.w3.org/2000/svg">
<path fill="#a62a32" opacity="0.78" d=" M 489.43 17.90 C 491.53 8.86 501.17 3.34 510.03 2.97 C 517.75 3.82 525.46 7.99 528.79 15.28 C 530.14 18.83 531.77 22.75 530.52 26.56 C 529.76 29.95 528.41 33.22 526.20 35.92 C 525.95 35.59 525.45 34.92 525.21 34.59 C 529.06 29.18 530.13 21.77 527.00 15.76 C 522.64 6.67 510.77 2.72 501.66 6.75 C 493.41 10.00 488.48 19.52 490.68 28.15 C 489.92 24.78 490.03 21.29 489.43 17.90 Z" />
<path fill="#43ff4e" opacity="1.00" d=" M 497.13 10.69 C 500.09 8.44 503.60 7.08 507.28 6.58 C 507.33 7.37 507.43 8.96 507.48 9.76 L 507.17 9.78 C 505.10 9.78 502.99 10.33 501.45 11.76 C 500.91 12.17 500.37 12.58 499.84 12.98 C 499.16 12.41 497.81 11.26 497.13 10.69 Z" />
<path fill="#3fff4b" opacity="1.00" d=" M 510.46 6.51 C 518.57 6.62 526.59 12.76 527.00 21.21 C 525.73 20.88 524.45 20.77 523.16 20.88 C 522.90 19.83 522.73 18.77 522.41 17.74 C 521.18 12.60 515.52 9.29 510.41 9.99 C 510.43 9.12 510.45 7.38 510.46 6.51 Z" />
<path fill="#324e1b" opacity="0.69" d=" M 501.45 11.76 C 502.99 10.33 505.10 9.78 507.17 9.78 C 506.64 11.51 503.15 12.08 501.45 11.76 Z" />
<path fill="#45802b" opacity="0.82" d=" M 510.41 9.99 C 515.52 9.29 521.18 12.60 522.41 17.74 L 521.20 17.24 L 520.99 16.52 C 519.48 12.15 514.37 11.09 510.41 9.99 Z" />
<path fill="#59ff61" opacity="1.00" d=" M 491.64 21.51 C 492.32 17.42 494.13 13.59 497.13 10.69 C 497.81 11.26 499.16 12.41 499.84 12.98 C 498.84 14.00 497.94 15.10 497.13 16.26 C 498.70 16.38 500.28 16.48 501.86 16.57 C 501.77 19.44 501.63 22.31 501.45 25.18 C 501.09 23.28 500.74 21.38 500.40 19.48 C 499.22 19.53 498.03 19.58 496.85 19.57 C 496.67 18.99 496.32 17.81 496.14 17.22 C 495.87 18.74 495.57 20.26 495.31 21.78 C 494.39 21.71 492.56 21.58 491.64 21.51 Z" />
<path fill="#4dff57" opacity="1.00" d=" M 509.08 21.35 C 509.54 19.47 508.93 16.98 510.67 15.66 C 514.04 16.55 517.55 16.17 520.99 16.52 L 521.20 17.24 C 521.23 17.94 521.30 19.34 521.33 20.04 C 520.01 21.56 518.66 23.06 516.99 24.21 C 515.89 23.17 514.82 22.11 513.73 21.06 L 513.31 20.65 C 511.89 20.89 510.49 21.12 509.08 21.35 Z" />
<path fill="#b85358" opacity="0.80" d=" M 489.43 17.90 C 490.03 21.29 489.92 24.78 490.68 28.15 C 492.86 35.74 500.04 41.47 507.92 41.95 C 514.45 42.58 521.09 39.68 525.21 34.59 C 525.45 34.92 525.95 35.59 526.20 35.92 C 522.17 40.68 516.19 43.41 510.05 44.05 C 502.39 43.84 494.66 39.81 490.85 33.00 C 488.54 28.38 486.87 22.80 489.43 17.90 Z" />
<path fill="#68ff6f" opacity="1.00" d=" M 496.85 19.57 C 498.03 19.58 499.22 19.53 500.40 19.48 C 500.74 21.38 501.09 23.28 501.45 25.18 C 503.42 24.82 505.41 24.55 507.41 24.31 C 507.60 25.75 507.81 27.20 508.04 28.64 C 504.50 29.35 500.90 29.64 497.32 29.97 C 497.18 26.50 496.75 23.05 496.85 19.57 Z" />
<path fill="#5aff62" opacity="1.00" d=" M 513.73 21.06 C 514.82 22.11 515.89 23.17 516.99 24.21 C 518.19 25.48 520.09 24.19 521.56 24.25 C 521.54 26.14 521.55 28.04 521.58 29.93 C 517.46 29.88 513.35 29.81 509.24 29.73 C 509.22 28.74 509.18 26.76 509.16 25.77 C 510.68 24.20 512.21 22.64 513.73 21.06 Z" />
<path fill="#2f5d1d" opacity="0.58" d=" M 523.16 20.88 C 524.45 20.77 525.73 20.88 527.00 21.21 C 526.79 22.75 522.87 22.54 523.16 20.88 Z" />
<path fill="#48ff53" opacity="1.00" d=" M 523.54 23.77 C 524.80 23.73 526.07 23.68 527.34 23.64 C 527.09 25.64 526.77 27.63 526.32 29.59 C 525.12 29.12 523.93 28.65 522.74 28.18 C 522.99 26.71 523.27 25.24 523.54 23.77 Z" />
<path fill="#ffff26" opacity="1.00" d=" M 315.50 28.40 C 321.37 24.12 329.02 24.17 335.94 24.65 C 341.32 25.15 347.06 27.24 349.99 32.08 C 354.16 38.70 354.26 47.00 353.33 54.52 C 352.93 58.81 349.67 61.93 346.26 64.15 C 349.51 65.97 352.46 68.79 353.28 72.56 C 354.79 79.27 354.53 86.20 354.47 93.03 C 354.15 98.74 353.66 105.15 349.40 109.45 C 344.44 114.63 336.91 116.06 330.01 115.78 C 323.03 115.94 315.41 113.67 311.23 107.73 C 308.52 104.14 307.77 99.58 307.40 95.21 C 306.84 87.77 306.91 80.21 308.31 72.86 C 308.89 69.23 311.55 66.49 314.31 64.29 C 308.44 59.88 307.52 51.87 307.89 45.06 C 308.15 38.85 310.21 32.14 315.50 28.40 M 329.20 39.32 C 327.04 44.42 328.09 50.47 328.34 55.90 C 328.18 58.62 332.59 59.83 333.15 56.86 C 333.86 51.99 333.44 47.00 333.41 42.08 C 333.80 39.81 331.12 37.72 329.20 39.32 M 329.14 74.29 C 327.35 75.92 327.75 78.75 327.50 80.96 C 327.69 86.93 327.00 92.98 328.06 98.89 C 328.29 101.18 331.01 101.88 332.83 100.90 C 334.41 98.62 333.88 95.64 334.01 93.02 C 333.84 87.63 334.31 82.21 333.75 76.85 C 333.67 74.66 331.05 72.81 329.14 74.29 Z" />
<path fill="#ffff26" opacity="1.00" d=" M 377.34 25.58 C 385.19 23.41 394.27 24.03 401.03 28.92 C 406.06 32.27 408.65 38.27 409.20 44.13 C 410.06 53.04 409.67 62.00 409.75 70.94 C 409.65 79.96 410.12 89.01 409.03 97.98 C 407.97 106.38 401.41 114.15 392.82 115.35 C 385.53 116.26 377.29 116.14 371.12 111.61 C 365.30 106.92 362.90 99.21 362.84 91.95 C 362.64 78.62 362.79 65.29 362.76 51.95 C 363.13 46.17 363.20 40.08 365.84 34.79 C 368.21 30.31 372.56 27.12 377.34 25.58 M 385.10 39.06 C 383.12 40.17 383.48 42.99 383.26 44.95 C 383.24 61.97 383.24 78.99 383.26 96.00 C 383.45 97.96 383.17 101.49 386.05 101.28 C 389.38 101.61 388.96 97.26 389.21 95.08 C 389.24 78.08 389.34 61.07 389.16 44.07 C 389.36 41.65 388.41 37.54 385.10 39.06 Z" />
<path fill="#ffff26" opacity="1.00" d=" M 432.48 25.66 C 441.39 23.03 452.10 24.30 458.94 31.04 C 464.16 36.26 464.96 44.04 465.01 51.05 C 464.92 65.06 465.15 79.08 464.89 93.09 C 464.84 99.84 462.53 106.83 457.24 111.28 C 451.23 116.25 442.83 116.35 435.49 115.28 C 429.87 114.49 424.52 111.29 421.87 106.16 C 417.64 99.56 418.39 91.46 418.00 84.00 C 418.06 71.65 417.77 59.30 418.42 46.97 C 418.90 42.24 419.45 37.23 422.18 33.19 C 424.59 29.57 428.40 27.03 432.48 25.66 M 440.07 39.16 C 438.18 41.65 438.85 45.05 438.52 47.97 C 438.55 63.61 438.37 79.26 438.61 94.90 C 438.89 97.21 438.22 102.04 441.97 101.25 C 444.56 101.28 444.32 97.83 444.49 96.02 C 444.47 78.35 444.56 60.68 444.45 43.01 C 444.84 40.43 442.80 37.64 440.07 39.16 Z" />
<path fill="#76ff7c" opacity="1.00" d=" M 491.76 24.58 C 492.61 24.56 494.32 24.53 495.18 24.52 C 496.01 27.95 497.26 31.64 500.30 33.76 C 502.47 35.50 505.27 36.01 507.94 36.53 C 507.88 37.71 507.84 38.90 507.79 40.09 C 503.99 39.54 500.06 38.49 497.16 35.82 C 493.84 33.04 492.25 28.78 491.76 24.58 Z" />
<path fill="#ffffff" opacity="1.00" d=" M 9.54 26.01 C 19.65 25.99 29.75 26.01 39.86 26.00 C 43.77 55.33 47.75 84.65 51.60 113.98 C 44.34 114.02 37.07 113.99 29.81 114.00 C 29.44 108.74 29.12 103.47 28.68 98.22 C 26.60 98.23 24.52 98.27 22.44 98.29 C 22.12 103.50 21.64 108.69 21.47 113.91 C 14.31 114.11 7.16 113.95 0.00 114.00 L 0.00 106.63 C 3.25 79.76 6.39 52.89 9.54 26.01 M 25.52 51.34 C 24.15 61.53 23.25 71.78 22.23 82.00 C 24.19 82.00 26.15 82.00 28.11 82.00 C 27.17 71.79 26.28 61.57 25.52 51.34 Z" />
<path fill="#ffffff" opacity="1.00" d=" M 53.55 26.01 C 68.78 25.99 84.02 26.00 99.25 26.00 C 99.25 32.08 99.25 38.17 99.25 44.25 C 95.08 44.25 90.92 44.25 86.76 44.25 C 86.75 67.50 86.75 90.75 86.76 113.99 C 79.66 113.95 72.57 114.12 65.48 113.90 C 65.52 90.68 65.50 67.46 65.49 44.25 C 61.49 44.25 57.50 44.29 53.50 44.20 C 53.52 38.14 53.45 32.07 53.55 26.01 Z" />
<path fill="#ffffff" opacity="1.00" d=" M 111.25 26.05 C 121.35 25.94 131.46 26.02 141.57 26.00 C 145.44 55.34 149.52 84.64 153.26 113.99 C 146.02 114.01 138.78 114.00 131.54 114.00 C 131.14 108.75 130.78 103.50 130.45 98.26 C 128.35 98.25 126.25 98.25 124.15 98.27 C 123.78 103.51 123.47 108.76 123.05 114.00 C 115.67 113.99 108.30 114.00 100.93 114.00 C 104.26 84.67 107.86 55.37 111.25 26.05 M 127.46 50.81 C 125.74 61.13 125.02 71.60 123.96 82.00 C 125.91 82.00 127.86 81.99 129.82 81.98 C 129.03 71.59 127.62 61.23 127.46 50.81 Z" />
<path fill="#ffffff" opacity="1.00" d=" M 158.80 26.00 C 168.88 26.19 178.99 25.56 189.05 26.45 C 195.10 26.43 200.86 30.10 203.10 35.77 C 205.92 43.65 205.73 52.37 204.38 60.52 C 203.88 64.93 199.88 67.87 195.70 68.37 C 201.40 69.69 205.36 75.33 205.11 81.10 C 205.40 92.06 205.23 103.03 205.20 114.00 C 198.56 113.99 191.92 114.03 185.28 113.97 C 185.20 103.31 185.27 92.64 185.25 81.98 C 185.20 80.09 185.11 78.14 184.40 76.37 C 183.56 74.83 181.43 75.22 180.01 74.67 C 179.97 87.77 180.04 100.87 179.97 113.97 C 172.91 114.03 165.86 113.99 158.80 114.00 C 158.71 84.67 158.71 55.33 158.80 26.00 M 180.01 41.66 C 179.99 47.90 179.99 54.13 180.01 60.36 C 181.80 60.13 184.37 60.27 184.83 58.00 C 185.56 53.74 185.34 49.32 185.03 45.02 C 184.85 42.43 182.03 42.01 180.01 41.66 Z" />
<path fill="#ffffff" opacity="1.00" d=" M 215.24 26.00 C 222.32 26.02 229.40 25.95 236.48 26.05 C 236.52 55.34 236.50 84.64 236.49 113.94 C 229.41 114.07 222.33 113.97 215.24 114.00 C 215.25 84.66 215.25 55.33 215.24 26.00 Z" />
<path fill="#ffff26" opacity="1.00" d=" M 263.03 26.03 C 275.85 25.97 288.67 26.02 301.50 26.00 C 301.43 32.57 301.65 39.15 301.41 45.72 C 297.38 68.50 293.11 91.24 288.97 114.00 C 282.15 113.99 275.34 114.01 268.52 113.99 C 273.07 90.14 277.91 66.34 282.56 42.51 C 276.06 42.49 269.56 42.52 263.06 42.49 C 262.95 37.00 263.00 31.51 263.03 26.03 Z" />
<path fill="#65ff6d" opacity="1.00" d=" M 522.74 28.18 C 523.93 28.65 525.12 29.12 526.32 29.59 C 523.99 35.80 517.87 39.56 511.45 40.22 C 511.37 39.00 511.29 37.79 511.22 36.58 C 516.28 36.07 520.88 32.99 522.74 28.18 Z" />
</svg>
