<?xml version="1.0" encoding="UTF-8" ?>
<!DOCTYPE svg PUBLIC "-//W3C//DTD SVG 1.1//EN" "http://www.w3.org/Graphics/SVG/1.1/DTD/svg11.dtd">
<svg width="533pt" height="133pt" viewBox="0 0 533 133" version="1.1" xmlns="http://www.w3.org/2000/svg">
<path fill="#a62a32" opacity="0.78" d=" M 489.40 18.13 C 491.88 7.25 505.49 0.33 515.87 4.31 C 522.74 6.29 528.43 12.05 530.13 19.03 C 532.27 24.79 529.66 31.06 526.33 35.82 C 526.00 35.57 525.33 35.07 525.00 34.83 C 528.17 30.46 529.75 24.79 528.35 19.47 C 526.45 11.23 518.34 5.24 509.99 5.20 C 502.60 4.89 495.21 9.12 491.99 15.82 C 490.09 19.65 489.86 24.08 490.71 28.22 C 490.10 24.88 489.83 21.49 489.40 18.13 Z" />
<path fill="#43ff4e" opacity="1.00" d=" M 497.07 10.71 C 500.10 8.46 503.64 7.09 507.36 6.53 C 507.34 7.35 507.29 9.00 507.26 9.82 C 505.22 9.70 503.17 10.29 501.62 11.63 C 501.01 12.08 500.41 12.53 499.82 12.97 C 499.13 12.40 497.76 11.27 497.07 10.71 Z" />
<path fill="#3fff4b" opacity="1.00" d=" M 510.48 6.46 C 518.55 6.70 526.60 12.71 526.97 21.18 C 525.74 20.85 524.50 20.76 523.25 20.91 C 522.96 19.88 522.73 18.84 522.41 17.82 C 521.22 12.53 515.56 9.45 510.41 9.91 C 510.43 9.05 510.46 7.33 510.48 6.46 Z" />
<path fill="#324e1b" opacity="0.69" d=" M 501.62 11.63 C 503.17 10.29 505.22 9.70 507.26 9.82 C 506.49 11.55 503.37 12.14 501.62 11.63 Z" />
<path fill="#45802b" opacity="0.82" d=" M 510.41 9.91 C 515.56 9.45 521.22 12.53 522.41 17.82 L 521.25 17.07 L 521.01 16.51 C 519.40 12.12 514.35 11.13 510.41 9.91 Z" />
<path fill="#59ff61" opacity="1.00" d=" M 491.60 21.69 C 492.28 17.56 494.09 13.68 497.07 10.71 C 497.76 11.27 499.13 12.40 499.82 12.97 C 498.88 14.03 497.96 15.11 497.06 16.19 C 498.68 16.36 500.33 16.52 501.96 16.68 C 501.75 19.50 501.60 22.33 501.46 25.16 C 501.09 23.23 500.71 21.30 500.34 19.37 C 499.16 19.48 497.98 19.59 496.81 19.69 C 496.65 19.06 496.35 17.81 496.19 17.18 C 495.87 18.75 495.56 20.33 495.27 21.90 C 494.35 21.85 492.52 21.75 491.60 21.69 Z" />
<path fill="#4dff57" opacity="1.00" d=" M 509.75 16.10 C 513.50 16.16 517.25 16.27 521.01 16.51 L 521.25 17.07 C 521.28 17.82 521.34 19.32 521.37 20.07 C 520.00 21.53 518.59 22.95 517.09 24.27 C 515.94 23.22 514.83 22.13 513.72 21.05 L 513.31 20.65 C 511.90 20.89 510.49 21.13 509.09 21.36 C 509.30 19.60 509.52 17.85 509.75 16.10 Z" />
<path fill="#b85358" opacity="0.80" d=" M 489.40 18.13 C 489.83 21.49 490.10 24.88 490.71 28.22 C 492.88 35.76 500.03 41.44 507.85 41.95 C 514.30 42.58 520.87 39.79 525.00 34.83 C 525.33 35.07 526.00 35.57 526.33 35.82 C 522.24 40.58 516.28 43.43 510.08 44.05 C 502.18 43.86 494.19 39.56 490.53 32.38 C 488.49 27.97 486.94 22.73 489.40 18.13 Z" />
<path fill="#68ff6f" opacity="1.00" d=" M 496.81 19.69 C 497.98 19.59 499.16 19.48 500.34 19.37 C 500.71 21.30 501.09 23.23 501.46 25.16 C 503.44 24.83 505.44 24.56 507.43 24.29 C 507.60 25.76 507.77 27.23 507.95 28.71 C 504.43 29.31 500.88 29.65 497.33 29.97 C 497.15 26.55 496.83 23.13 496.81 19.69 Z" />
<path fill="#5aff62" opacity="1.00" d=" M 513.72 21.05 C 514.83 22.13 515.94 23.22 517.09 24.27 C 518.29 25.39 520.14 24.18 521.58 24.29 C 521.54 26.26 521.53 28.23 521.54 30.20 C 517.44 29.99 513.34 29.73 509.23 29.72 C 509.22 28.73 509.19 26.74 509.17 25.75 C 510.69 24.19 512.21 22.63 513.72 21.05 Z" />
<path fill="#2f5d1d" opacity="0.58" d=" M 523.25 20.91 C 524.50 20.76 525.74 20.85 526.97 21.18 C 526.81 22.78 522.96 22.57 523.25 20.91 Z" />
<path fill="#48ff53" opacity="1.00" d=" M 523.53 23.77 C 524.81 23.73 526.09 23.68 527.38 23.64 C 527.07 25.67 526.72 27.68 526.31 29.69 C 525.14 29.11 523.98 28.54 522.82 27.97 C 523.04 26.57 523.29 25.17 523.53 23.77 Z" />
<path fill="#ffff26" opacity="1.00" d=" M 324.01 33.98 C 327.23 28.37 333.48 25.13 339.77 24.42 C 347.24 23.74 355.70 24.20 361.51 29.54 C 367.11 34.57 368.14 42.65 368.03 49.75 C 361.28 49.75 354.54 49.76 347.79 49.75 C 347.63 46.90 347.60 44.05 347.39 41.21 C 346.87 37.85 341.54 37.68 341.13 41.17 C 340.38 47.39 340.97 53.67 340.67 59.91 C 345.84 52.62 357.65 53.17 363.38 59.49 C 367.95 64.06 367.94 71.01 368.01 77.03 C 367.77 85.08 368.62 93.24 367.08 101.19 C 365.32 109.09 357.89 114.60 350.06 115.49 C 342.38 116.29 333.63 115.87 327.58 110.45 C 322.48 106.02 320.58 99.06 320.57 92.51 C 320.39 79.02 320.56 65.52 320.49 52.03 C 320.55 45.90 320.46 39.29 324.01 33.98 M 342.50 69.66 C 340.58 71.45 341.03 74.54 340.76 76.95 C 340.94 84.29 340.23 91.70 341.37 98.98 C 341.76 102.20 346.39 101.83 347.00 98.93 C 348.09 94.04 347.66 88.99 347.75 84.02 C 347.67 79.70 348.06 75.27 346.96 71.05 C 346.43 69.20 343.99 68.36 342.50 69.66 Z" />
<path fill="#ffff26" opacity="1.00" d=" M 272.33 31.18 C 277.89 24.11 287.90 23.57 296.08 25.08 C 303.72 26.43 309.93 32.56 311.99 39.95 C 314.34 48.49 312.32 57.63 308.72 65.53 C 303.21 76.95 296.37 87.65 289.89 98.52 C 297.01 98.51 304.13 98.44 311.25 98.55 C 311.24 103.70 311.29 108.85 311.21 114.00 C 296.48 113.99 281.75 114.03 267.03 113.98 C 267.07 109.74 266.81 105.50 267.12 101.28 C 272.12 91.64 277.59 82.24 282.60 72.61 C 286.57 64.96 291.07 57.41 293.13 48.97 C 293.67 45.98 294.04 42.45 292.15 39.85 C 290.38 37.88 286.85 38.87 286.38 41.48 C 285.22 46.47 285.97 51.65 285.72 56.72 C 279.49 56.77 273.26 56.77 267.03 56.73 C 267.01 48.06 266.35 38.27 272.33 31.18 Z" />
<path fill="#ffff26" opacity="1.00" d=" M 391.39 25.58 C 400.52 22.96 411.49 24.48 418.22 31.65 C 423.13 37.20 423.56 44.92 423.73 51.96 C 423.79 62.33 423.73 72.69 423.76 83.05 C 423.79 88.41 423.74 93.80 422.88 99.10 C 421.51 107.11 414.98 114.21 406.79 115.36 C 399.51 116.27 391.33 116.12 385.16 111.63 C 379.36 106.94 376.93 99.26 376.89 92.00 C 376.58 79.00 376.81 66.00 376.77 53.00 C 377.15 46.68 377.10 39.94 380.21 34.23 C 382.61 30.01 386.81 27.05 391.39 25.58 M 398.00 40.16 C 397.21 42.69 397.25 45.37 397.24 47.98 C 397.30 63.97 397.18 79.97 397.30 95.96 C 397.53 97.91 397.16 101.54 400.10 101.28 C 403.10 101.70 403.00 97.92 403.20 95.93 C 403.33 79.60 403.19 63.27 403.26 46.94 C 403.33 44.21 403.09 41.46 402.14 38.89 C 400.66 38.99 398.81 38.54 398.00 40.16 Z" />
<path fill="#ffff26" opacity="1.00" d=" M 448.25 25.16 C 456.75 23.32 466.62 24.66 472.97 31.05 C 477.92 35.95 478.95 43.28 479.00 49.94 C 478.95 64.31 479.09 78.68 478.93 93.05 C 478.91 100.00 476.47 107.25 470.84 111.64 C 464.81 116.23 456.73 116.34 449.56 115.27 C 444.68 114.51 439.92 112.12 437.09 107.97 C 433.21 102.84 432.20 96.24 432.24 89.96 C 432.28 76.61 432.19 63.26 432.29 49.91 C 432.65 44.67 432.92 39.16 435.46 34.43 C 438.15 29.69 443.00 26.42 448.25 25.16 M 452.94 42.02 C 452.21 50.32 452.60 58.67 452.50 66.99 C 452.59 77.02 452.26 87.07 452.79 97.09 C 452.79 98.59 453.33 99.99 453.85 101.37 C 455.27 101.08 457.30 101.65 457.99 99.93 C 459.13 94.37 458.64 88.64 458.75 83.00 C 458.66 70.30 458.94 57.59 458.60 44.89 C 458.31 42.72 458.94 39.07 455.90 38.76 C 453.99 38.60 452.99 40.36 452.94 42.02 Z" />
<path fill="#76ff7c" opacity="1.00" d=" M 491.73 24.58 C 492.58 24.56 494.29 24.53 495.14 24.51 C 496.05 27.91 497.22 31.59 500.24 33.72 C 502.43 35.49 505.26 35.98 507.94 36.55 C 507.88 37.74 507.83 38.92 507.79 40.11 C 503.76 39.50 499.59 38.33 496.65 35.35 C 493.62 32.58 492.29 28.54 491.73 24.58 Z" />
<path fill="#ffffff" opacity="1.00" d=" M 11.46 26.09 C 21.58 25.88 31.70 26.05 41.82 26.00 C 45.69 55.33 49.75 84.64 53.53 113.99 C 46.28 114.02 39.04 113.99 31.79 114.00 C 31.37 108.75 31.04 103.49 30.69 98.24 C 28.58 98.25 26.47 98.25 24.37 98.29 C 24.05 103.54 23.72 108.78 23.28 114.02 C 15.89 113.94 8.51 114.08 1.12 113.94 C 4.58 84.66 8.10 55.38 11.46 26.09 M 24.20 81.99 C 26.15 82.00 28.11 82.00 30.07 82.00 C 29.20 71.63 28.05 61.28 27.59 50.88 C 26.13 61.21 25.20 71.61 24.20 81.99 Z" />
<path fill="#ffffff" opacity="1.00" d=" M 55.54 26.01 C 70.78 25.99 86.01 26.01 101.25 26.00 C 101.24 32.08 101.28 38.16 101.23 44.24 C 97.07 44.26 92.91 44.25 88.75 44.25 C 88.73 67.49 88.79 90.73 88.72 113.97 C 81.64 113.98 74.56 114.10 67.48 113.91 C 67.52 90.69 67.49 67.47 67.49 44.25 C 63.50 44.25 59.50 44.28 55.51 44.21 C 55.51 38.15 55.45 32.08 55.54 26.01 Z" />
<path fill="#ffffff" opacity="1.00" d=" M 113.23 26.06 C 123.20 25.99 133.19 25.92 143.17 26.08 L 143.54 26.35 C 147.48 55.56 151.43 84.77 155.26 114.00 C 148.00 113.98 140.74 114.04 133.48 113.96 C 133.12 108.72 132.70 103.49 132.44 98.25 C 130.31 98.25 128.19 98.25 126.07 98.23 C 125.81 103.49 125.41 108.75 125.00 114.00 C 117.64 114.00 110.28 114.00 102.91 114.00 C 106.20 84.67 109.81 55.37 113.23 26.06 M 129.30 50.61 C 127.84 61.03 126.92 71.52 125.93 82.00 C 127.89 82.00 129.85 82.00 131.81 82.00 C 130.87 71.55 129.71 61.10 129.30 50.61 Z" />
<path fill="#ffffff" opacity="1.00" d=" M 160.80 26.00 C 169.20 26.04 177.61 25.90 186.01 26.07 C 191.31 26.48 197.49 26.34 201.45 30.53 C 206.47 35.21 207.01 42.54 207.26 48.98 C 207.19 53.86 207.31 58.98 205.35 63.55 C 203.93 66.45 200.70 67.67 197.79 68.49 C 203.45 69.67 207.24 75.33 207.04 80.96 C 207.47 91.96 207.19 102.98 207.20 114.00 C 200.56 113.99 193.92 114.03 187.28 113.97 C 187.20 103.32 187.29 92.67 187.24 82.02 C 187.12 80.13 187.10 78.16 186.36 76.40 C 185.38 75.02 183.46 75.13 182.02 74.63 C 181.95 87.74 182.05 100.86 181.97 113.97 C 174.91 114.03 167.85 113.99 160.80 114.00 C 160.72 84.67 160.72 55.33 160.80 26.00 M 182.02 41.62 C 181.99 47.89 181.98 54.15 182.03 60.42 C 183.72 60.08 186.43 60.22 186.78 57.99 C 187.54 53.76 187.39 49.37 187.02 45.11 C 186.87 42.53 184.02 42.03 182.02 41.62 Z" />
<path fill="#ffffff" opacity="1.00" d=" M 217.24 26.00 C 224.25 26.00 231.25 26.00 238.25 26.00 C 238.25 55.33 238.25 84.67 238.25 114.00 C 231.25 114.00 224.25 114.00 217.24 114.00 C 217.25 84.67 217.25 55.33 217.24 26.00 Z" />
<path fill="#65ff6d" opacity="1.00" d=" M 522.82 27.97 C 523.98 28.54 525.14 29.11 526.31 29.69 C 523.92 35.85 517.88 39.42 511.56 40.31 C 511.42 39.08 511.29 37.85 511.18 36.62 C 516.30 36.03 521.05 32.94 522.82 27.97 Z" />
</svg>
