<?xml version="1.0" encoding="UTF-8" ?>
<!DOCTYPE svg PUBLIC "-//W3C//DTD SVG 1.1//EN" "http://www.w3.org/Graphics/SVG/1.1/DTD/svg11.dtd">
<svg width="400pt" height="100pt" viewBox="0 0 400 100" version="1.1" xmlns="http://www.w3.org/2000/svg">
<path fill="#731922" opacity="0.55" d=" M 361.86 15.67 C 363.06 11.22 365.99 6.77 370.87 5.97 C 378.40 5.12 384.36 14.43 381.13 21.06 C 380.27 23.26 378.94 25.40 376.72 26.42 C 377.12 25.19 377.58 23.98 378.12 22.80 C 378.22 22.69 378.43 22.46 378.53 22.35 L 378.80 22.02 C 380.97 19.38 381.16 15.18 378.73 12.64 L 377.91 11.51 C 378.00 11.17 378.19 10.51 378.28 10.17 C 377.56 9.90 376.83 9.64 376.11 9.39 L 375.52 9.03 C 374.13 8.21 372.57 7.81 370.99 7.66 C 367.39 8.58 364.53 11.35 363.94 15.09 C 363.77 15.22 363.44 15.46 363.28 15.59 L 363.12 15.67 L 361.86 15.67 Z" />
<path fill="#37b743" opacity="0.80" d=" M 363.94 15.09 C 364.53 11.35 367.39 8.58 370.99 7.66 C 371.80 10.50 368.74 10.93 366.95 12.02 C 367.08 12.40 367.36 13.17 367.50 13.55 L 366.35 14.77 C 365.75 14.85 364.54 15.01 363.94 15.09 Z" />
<path fill="#32d640" opacity="0.94" d=" M 373.19 8.81 C 373.77 8.87 374.93 8.98 375.52 9.03 L 376.11 9.39 C 376.01 10.24 375.55 10.77 374.73 10.98 C 374.35 10.44 373.57 9.35 373.19 8.81 Z" />
<path fill="#38e246" opacity="0.95" d=" M 379.09 15.19 C 377.81 14.79 376.55 12.54 377.91 11.51 L 378.73 12.64 C 378.82 13.28 379.00 14.55 379.09 15.19 Z" />
<path fill="#52c35a" opacity="0.78" d=" M 367.50 13.55 L 368.85 13.50 C 368.66 14.83 368.48 16.16 368.31 17.49 C 369.11 17.49 370.72 17.50 371.52 17.50 C 371.64 20.69 368.70 20.32 366.45 20.57 C 367.67 22.18 369.47 23.09 371.31 23.82 C 371.27 24.49 371.24 25.17 371.22 25.84 C 370.15 25.51 369.09 25.13 368.05 24.73 C 367.67 24.40 366.91 23.75 366.52 23.42 C 366.40 23.31 366.16 23.07 366.04 22.96 C 365.90 22.78 365.63 22.42 365.50 22.25 L 364.83 21.20 C 364.73 21.00 364.54 20.60 364.44 20.39 L 364.12 19.10 L 363.85 17.59 C 364.44 17.64 365.62 17.75 366.21 17.80 C 366.22 17.28 366.22 16.25 366.23 15.73 L 363.51 15.61 C 363.62 15.48 363.83 15.22 363.94 15.09 C 364.54 15.01 365.75 14.85 366.35 14.77 L 367.50 13.55 Z" />
<path fill="#51f15a" opacity="0.95" d=" M 371.54 15.53 C 371.27 11.71 376.46 12.77 377.60 15.21 C 376.80 15.93 376.00 16.65 375.21 17.37 C 375.80 17.46 376.98 17.62 377.58 17.70 C 378.09 21.60 373.85 20.14 371.47 20.37 C 371.26 18.44 372.88 17.16 373.85 15.72 C 373.27 15.68 372.11 15.58 371.54 15.53 Z" />
<path fill="#7d353d" opacity="0.55" d=" M 363.12 15.67 L 363.28 15.59 C 363.53 16.76 363.81 17.93 364.12 19.10 L 364.44 20.39 L 364.52 20.78 L 364.83 21.20 L 365.50 22.25 C 365.63 22.42 365.90 22.78 366.04 22.96 C 366.16 23.07 366.40 23.31 366.52 23.42 C 366.91 23.75 367.67 24.40 368.05 24.73 C 367.88 25.22 367.53 26.20 367.36 26.69 C 363.80 24.54 362.23 20.38 361.70 16.45 L 363.12 15.67 Z" />
<path fill="#ffff26" opacity="1.00" d=" M 198.41 22.09 C 202.65 16.12 212.53 16.41 216.89 22.09 C 221.75 28.05 220.91 36.37 220.89 43.57 C 217.09 43.46 213.30 43.50 209.50 43.50 C 209.23 38.75 210.19 33.81 208.73 29.20 C 206.22 28.07 206.05 31.24 206.03 32.88 C 205.95 45.26 206.03 57.63 206.00 70.00 C 206.23 71.84 205.59 74.55 207.77 75.41 C 209.53 75.11 209.36 73.05 209.65 71.73 C 209.83 67.78 209.84 63.80 209.64 59.85 C 209.17 59.79 208.22 59.67 207.75 59.62 C 207.75 56.33 207.75 53.04 207.75 49.75 C 212.17 49.75 216.58 49.75 221.00 49.75 C 221.00 61.50 221.00 73.25 221.00 85.00 C 218.57 84.99 216.15 85.00 213.73 85.03 C 213.35 83.45 212.98 81.87 212.63 80.28 C 211.43 83.48 208.94 86.96 205.05 86.51 C 198.65 85.66 195.29 78.76 194.86 72.92 C 194.10 61.97 194.68 50.99 194.49 40.03 C 194.78 33.95 194.14 27.02 198.41 22.09 Z" />
<path fill="#44c24e" opacity="0.78" d=" M 376.01 22.18 C 377.73 20.63 377.41 17.43 380.11 16.80 C 379.79 18.11 379.13 20.72 378.80 22.02 L 378.53 22.35 C 378.43 22.46 378.22 22.69 378.12 22.80 C 377.02 23.18 376.14 23.82 375.45 24.74 C 374.75 25.17 374.05 25.59 373.34 25.99 C 373.16 25.49 372.81 24.48 372.64 23.98 C 373.77 23.40 374.93 22.88 376.01 22.18 Z" />
<path fill="#ffffff" opacity="1.00" d=" M 4.33 19.22 C 9.85 19.26 15.38 19.27 20.90 19.21 C 23.23 41.13 25.25 63.08 27.52 85.00 C 23.62 85.00 19.71 85.00 15.80 85.00 C 15.59 81.09 15.36 77.18 15.20 73.27 C 13.82 73.25 12.44 73.24 11.07 73.23 C 10.89 77.15 10.66 81.08 10.44 85.01 C 6.96 85.00 3.48 85.00 0.00 85.00 L 0.00 67.21 C 1.58 51.23 2.80 35.21 4.33 19.22 M 13.49 33.78 C 11.96 42.92 11.67 52.24 11.21 61.49 C 12.11 61.49 13.90 61.49 14.80 61.49 C 14.55 52.25 13.24 43.03 13.49 33.78 Z" />
<path fill="#ffffff" opacity="1.00" d=" M 27.25 19.25 C 35.67 19.25 44.09 19.24 52.51 19.25 C 52.50 23.67 52.50 28.08 52.50 32.50 C 50.17 32.50 47.84 32.50 45.50 32.50 C 45.52 49.98 45.45 67.46 45.54 84.94 C 41.69 85.04 37.85 85.00 34.00 85.00 C 34.00 67.50 34.00 50.00 34.00 32.50 C 31.75 32.50 29.50 32.50 27.25 32.51 C 27.24 28.09 27.25 23.67 27.25 19.25 Z" />
<path fill="#ffffff" opacity="1.00" d=" M 58.11 19.20 C 63.63 19.28 69.14 19.26 74.66 19.21 C 76.98 41.13 79.00 63.08 81.28 85.00 C 77.34 84.99 73.41 85.07 69.48 84.90 C 69.39 81.00 69.10 77.10 68.92 73.21 C 67.54 73.24 66.16 73.26 64.78 73.30 C 64.67 77.20 64.39 81.10 64.20 85.00 C 60.21 85.00 56.21 85.00 52.22 85.00 C 54.27 63.07 56.00 41.12 58.11 19.20 M 66.36 33.83 C 66.70 43.07 64.95 52.25 64.96 61.50 C 65.86 61.50 67.65 61.49 68.55 61.49 C 67.83 52.28 68.01 42.94 66.36 33.83 Z" />
<path fill="#ffffff" opacity="1.00" d=" M 83.03 19.22 C 89.04 19.41 95.13 18.81 101.07 19.94 C 105.25 20.68 107.26 25.11 107.88 28.88 C 108.74 34.53 108.88 40.39 107.73 46.01 C 107.22 48.65 104.90 50.24 102.35 50.56 C 106.30 51.76 108.35 55.80 108.40 59.72 C 108.67 68.12 108.37 76.53 108.55 84.93 C 104.95 85.04 101.35 85.00 97.75 85.00 C 97.66 76.17 97.92 67.34 97.63 58.52 C 97.78 56.57 96.44 55.10 94.49 55.15 C 94.55 65.07 94.42 74.99 94.56 84.91 C 90.71 85.06 86.85 84.99 83.00 85.00 C 83.02 63.07 82.96 41.15 83.03 19.22 M 94.56 30.24 C 94.46 35.25 94.48 40.26 94.55 45.26 C 95.64 44.80 97.52 44.59 97.47 43.00 C 97.94 39.71 97.85 36.34 97.59 33.04 C 97.56 31.30 96.02 30.63 94.56 30.24 Z" />
<path fill="#ffffff" opacity="1.00" d=" M 110.46 19.23 C 113.94 19.26 117.43 19.26 120.91 19.22 C 121.85 27.65 123.05 36.07 123.42 44.56 C 125.10 36.20 125.48 27.65 126.81 19.23 C 130.40 19.27 133.98 19.23 137.56 19.23 C 134.20 32.71 132.10 46.49 129.22 60.08 C 128.71 68.36 129.14 76.69 129.00 85.00 C 125.48 85.00 121.96 85.05 118.44 84.91 C 118.51 76.98 118.59 69.04 118.41 61.12 C 115.89 47.14 113.14 33.19 110.46 19.23 Z" />
<path fill="#ffff26" opacity="1.00" d=" M 151.49 19.25 C 155.32 19.24 159.14 19.26 162.97 19.22 C 163.04 37.15 162.98 55.07 163.00 73.00 C 162.92 76.67 162.69 81.03 159.58 83.52 C 155.91 85.83 151.32 84.78 147.23 84.97 C 147.26 81.19 147.25 77.41 147.25 73.64 C 149.49 73.84 151.70 72.47 151.43 69.97 C 151.59 53.07 151.45 36.16 151.49 19.25 Z" />
<path fill="#ffff26" opacity="1.00" d=" M 169.79 19.27 C 175.33 19.21 180.88 19.27 186.43 19.24 C 188.70 41.15 190.77 63.08 193.02 85.00 C 189.11 85.00 185.19 85.01 181.28 84.98 C 181.12 81.07 180.85 77.16 180.70 73.24 C 179.31 73.25 177.92 73.26 176.54 73.27 C 176.41 77.18 176.14 81.09 175.95 85.00 C 171.96 85.00 167.96 85.00 163.97 85.00 C 165.97 63.10 167.84 41.18 169.79 19.27 M 178.49 33.78 C 177.94 43.02 176.96 52.24 176.71 61.50 C 177.61 61.49 179.40 61.49 180.30 61.49 C 179.85 52.25 179.22 43.01 178.49 33.78 Z" />
<path fill="#ffff26" opacity="1.00" d=" M 225.82 19.21 C 229.62 19.27 233.42 19.25 237.23 19.24 C 237.30 36.83 237.20 54.42 237.28 72.01 C 237.34 73.07 237.56 74.11 237.94 75.12 C 240.02 76.05 240.10 73.28 240.20 72.02 C 240.32 54.43 240.21 36.84 240.25 19.25 C 244.08 19.25 247.91 19.25 251.74 19.23 C 251.77 35.47 251.75 51.70 251.75 67.93 C 251.75 73.31 251.11 79.20 247.25 83.30 C 242.59 88.11 233.96 87.36 229.70 82.35 C 225.95 78.20 225.87 72.27 225.75 67.00 C 225.79 51.07 225.66 35.14 225.82 19.21 Z" />
<path fill="#ffff26" opacity="1.00" d=" M 258.79 19.28 C 264.34 19.21 269.88 19.27 275.43 19.24 C 277.70 41.15 279.77 63.09 282.02 85.00 C 278.11 85.00 274.19 85.01 270.28 84.98 C 270.12 81.07 269.84 77.16 269.70 73.24 C 268.31 73.25 266.92 73.25 265.54 73.26 C 265.41 77.18 265.14 81.09 264.95 85.00 C 260.96 85.00 256.96 85.00 252.97 85.00 C 254.97 63.10 256.83 41.18 258.79 19.28 M 265.71 61.49 C 266.61 61.49 268.40 61.49 269.30 61.49 C 268.88 52.29 268.18 43.11 267.55 33.92 C 266.86 43.11 265.99 52.29 265.71 61.49 Z" />
<path fill="#ffff26" opacity="1.00" d=" M 283.68 19.38 C 290.44 19.44 297.62 18.32 304.07 20.78 C 309.65 24.91 309.15 32.80 309.26 39.01 C 309.24 43.42 308.92 50.04 303.20 50.55 C 307.13 51.94 309.22 56.01 309.17 60.02 C 309.37 68.34 309.19 76.67 309.25 85.00 C 305.68 84.99 302.12 84.99 298.56 85.03 C 298.36 76.38 298.65 67.73 298.42 59.08 C 298.53 57.01 297.57 55.27 295.43 54.83 C 295.02 64.88 295.36 74.94 295.25 85.00 C 291.42 85.00 287.58 85.00 283.75 85.00 C 283.70 63.12 283.84 41.25 283.68 19.38 M 295.36 30.25 C 295.15 35.23 295.28 40.21 295.26 45.19 C 296.39 44.73 298.35 44.66 298.23 42.94 C 298.68 39.04 298.80 35.00 297.87 31.16 C 297.03 30.86 296.19 30.55 295.36 30.25 Z" />
<path fill="#235c2c" opacity="0.41" d=" M 364.44 20.39 C 364.54 20.60 364.73 21.00 364.83 21.20 L 364.52 20.78 L 364.44 20.39 Z" />
<path fill="#29512c" opacity="0.40" d=" M 365.50 22.25 C 365.63 22.42 365.90 22.78 366.04 22.96 C 365.90 22.78 365.63 22.42 365.50 22.25 Z" />
<path fill="#1e5b24" opacity="0.44" d=" M 378.12 22.80 C 378.22 22.69 378.43 22.46 378.53 22.35 C 378.43 22.46 378.22 22.69 378.12 22.80 Z" />
<path fill="#356c3b" opacity="0.49" d=" M 366.04 22.96 C 366.16 23.07 366.40 23.31 366.52 23.42 C 366.40 23.31 366.16 23.07 366.04 22.96 Z" />
<path fill="#55312d" opacity="0.42" d=" M 375.45 24.74 C 376.14 23.82 377.02 23.18 378.12 22.80 C 377.58 23.98 377.12 25.19 376.72 26.42 L 376.54 26.94 C 375.45 27.17 374.35 28.33 373.24 27.67 C 372.43 26.67 370.90 26.49 370.04 27.52 L 369.53 27.93 C 368.97 27.67 367.85 27.15 367.29 26.89 L 367.36 26.69 C 367.53 26.20 367.88 25.22 368.05 24.73 C 369.09 25.13 370.15 25.51 371.22 25.84 C 371.75 25.88 372.81 25.96 373.34 25.99 C 374.05 25.59 374.75 25.17 375.45 24.74 Z" />
<path fill="#be515a" opacity="0.76" d=" M 370.04 27.52 C 370.90 26.49 372.43 26.67 373.24 27.67 C 372.44 27.64 370.84 27.56 370.04 27.52 Z" />
</svg>
