<?xml version="1.0" encoding="UTF-8" ?>
<!DOCTYPE svg PUBLIC "-//W3C//DTD SVG 1.1//EN" "http://www.w3.org/Graphics/SVG/1.1/DTD/svg11.dtd">
<svg width="533pt" height="133pt" viewBox="0 0 533 133" version="1.1" xmlns="http://www.w3.org/2000/svg">
<path fill="#a62a32" opacity="0.78" d=" M 489.26 17.92 C 492.56 6.34 507.14 -0.30 517.97 5.05 C 525.60 8.09 530.70 15.95 531.00 24.06 C 530.39 28.29 528.92 32.44 526.29 35.85 C 525.97 35.60 525.32 35.09 524.99 34.83 C 529.38 29.09 530.20 20.80 526.36 14.56 C 521.42 6.00 509.68 2.79 500.89 7.08 C 493.06 10.60 488.59 19.80 490.67 28.14 C 490.06 24.75 489.99 21.29 489.26 17.92 Z" />
<path fill="#43ff4e" opacity="1.00" d=" M 497.13 10.66 C 500.14 8.44 503.67 7.08 507.37 6.53 C 507.33 7.36 507.27 9.02 507.24 9.85 C 505.22 9.67 503.18 10.27 501.66 11.61 C 501.04 12.06 500.43 12.51 499.82 12.96 C 499.15 12.39 497.80 11.24 497.13 10.66 Z" />
<path fill="#3fff4b" opacity="1.00" d=" M 510.48 6.47 C 518.55 6.69 526.63 12.72 526.96 21.20 C 525.73 20.86 524.49 20.76 523.23 20.89 C 522.94 19.86 522.73 18.82 522.39 17.80 C 521.20 12.54 515.55 9.42 510.41 9.92 C 510.43 9.06 510.46 7.33 510.48 6.47 Z" />
<path fill="#324e1b" opacity="0.69" d=" M 501.66 11.61 C 503.18 10.27 505.22 9.67 507.24 9.85 C 506.48 11.55 503.37 12.13 501.66 11.61 Z" />
<path fill="#45802b" opacity="0.82" d=" M 510.41 9.92 C 515.55 9.42 521.20 12.54 522.39 17.80 L 521.25 17.07 L 521.02 16.51 C 519.40 12.12 514.35 11.14 510.41 9.92 Z" />
<path fill="#59ff61" opacity="1.00" d=" M 491.61 21.71 C 492.26 17.54 494.12 13.64 497.13 10.66 C 497.80 11.24 499.15 12.39 499.82 12.96 C 498.88 14.04 497.96 15.13 497.06 16.23 C 498.65 16.36 500.26 16.47 501.87 16.57 C 501.77 19.44 501.63 22.31 501.43 25.18 C 501.08 23.22 500.74 21.27 500.41 19.31 C 499.20 19.45 498.00 19.59 496.81 19.73 C 496.66 19.10 496.36 17.84 496.21 17.20 C 495.88 18.76 495.56 20.32 495.27 21.88 C 494.36 21.84 492.53 21.75 491.61 21.71 Z" />
<path fill="#4dff57" opacity="1.00" d=" M 509.05 21.30 C 509.73 19.65 508.64 16.63 510.74 15.91 C 514.16 16.13 517.58 16.37 521.02 16.51 L 521.25 17.07 C 521.28 17.82 521.33 19.31 521.36 20.06 C 520.00 21.53 518.59 22.96 517.09 24.28 C 515.94 23.23 514.84 22.14 513.72 21.07 L 513.30 20.67 C 511.88 20.88 510.46 21.10 509.05 21.30 Z" />
<path fill="#b85358" opacity="0.80" d=" M 489.26 17.92 C 489.99 21.29 490.06 24.75 490.67 28.14 C 492.86 35.74 500.04 41.47 507.93 41.95 C 514.35 42.56 520.88 39.77 524.99 34.83 C 525.32 35.09 525.97 35.60 526.29 35.85 C 521.96 40.84 515.53 43.88 508.94 44.05 C 501.91 43.37 494.95 39.80 491.22 33.63 C 488.57 28.91 486.97 23.11 489.26 17.92 Z" />
<path fill="#68ff6f" opacity="1.00" d=" M 496.81 19.73 C 498.00 19.59 499.20 19.45 500.41 19.31 C 500.74 21.27 501.08 23.22 501.43 25.18 C 503.42 24.83 505.42 24.55 507.43 24.29 C 507.60 25.76 507.77 27.23 507.95 28.70 C 504.43 29.31 500.88 29.65 497.33 29.97 C 497.16 26.56 496.83 23.15 496.81 19.73 Z" />
<path fill="#5aff62" opacity="1.00" d=" M 513.72 21.07 C 514.84 22.14 515.94 23.23 517.09 24.28 C 518.27 25.39 520.14 24.17 521.57 24.29 C 521.54 26.27 521.54 28.24 521.56 30.22 C 517.46 29.98 513.35 29.73 509.24 29.73 C 509.22 28.74 509.17 26.78 509.15 25.80 C 510.66 24.22 512.19 22.65 513.72 21.07 Z" />
<path fill="#2f5d1d" opacity="0.58" d=" M 523.23 20.89 C 524.49 20.76 525.73 20.86 526.96 21.20 C 526.76 22.79 522.90 22.56 523.23 20.89 Z" />
<path fill="#48ff53" opacity="1.00" d=" M 523.54 23.76 C 524.81 23.72 526.09 23.68 527.38 23.65 C 527.07 25.70 526.71 27.75 526.27 29.77 C 525.12 29.14 523.98 28.50 522.84 27.86 C 523.06 26.49 523.30 25.12 523.54 23.76 Z" />
<path fill="#76ff7c" opacity="1.00" d=" M 491.73 24.58 C 492.59 24.56 494.30 24.53 495.15 24.52 C 496.02 27.71 497.04 31.14 499.72 33.31 C 501.98 35.34 505.03 35.97 507.93 36.54 C 507.88 37.72 507.84 38.91 507.81 40.09 C 503.75 39.52 499.58 38.32 496.62 35.33 C 493.61 32.55 492.28 28.53 491.73 24.58 Z" />
<path fill="#ffffff" opacity="1.00" d=" M 11.02 25.75 C 21.59 25.75 32.15 25.75 42.72 25.75 C 46.85 55.16 51.11 84.56 55.11 113.99 C 47.48 113.98 39.84 114.05 32.21 113.95 C 31.83 108.71 31.45 103.47 31.05 98.23 C 28.82 98.24 26.60 98.26 24.37 98.29 C 24.05 103.54 23.70 108.78 23.24 114.01 C 15.49 113.97 7.75 114.03 0.00 113.98 L 0.00 113.01 C 3.77 83.94 7.33 54.83 11.02 25.75 M 27.49 50.65 C 26.59 61.05 25.21 71.40 24.31 81.80 C 26.33 81.76 28.36 81.74 30.38 81.73 C 29.30 71.38 28.58 61.00 27.49 50.65 Z" />
<path fill="#ffffff" opacity="1.00" d=" M 56.56 25.81 C 72.54 25.69 88.52 25.74 104.49 25.79 C 104.51 31.94 104.50 38.10 104.50 44.25 C 100.25 44.25 96.01 44.26 91.77 44.24 C 91.74 67.49 91.76 90.74 91.76 114.00 C 84.26 113.99 76.76 114.04 69.27 113.96 C 69.21 90.73 69.27 67.49 69.24 44.25 C 65.00 44.25 60.75 44.28 56.51 44.22 C 56.52 38.08 56.44 31.95 56.56 25.81 Z" />
<path fill="#ffffff" opacity="1.00" d=" M 105.91 114.00 C 109.39 84.57 113.33 55.19 116.86 25.76 C 127.46 25.72 138.05 25.77 148.65 25.74 C 152.75 55.15 156.97 84.55 161.06 113.97 C 153.39 114.04 145.73 113.98 138.06 114.00 C 137.77 108.73 137.38 103.47 136.92 98.22 C 134.71 98.25 132.51 98.25 130.31 98.25 C 129.99 103.51 129.52 108.75 129.19 114.00 C 121.43 114.00 113.67 114.00 105.91 114.00 M 133.46 51.46 C 132.26 61.53 131.23 71.63 130.17 81.71 C 132.20 81.74 134.24 81.76 136.28 81.78 C 135.23 71.68 134.56 61.55 133.46 51.46 Z" />
<path fill="#ffffff" opacity="1.00" d=" M 166.24 25.82 C 177.64 25.73 189.09 25.55 200.45 26.73 C 207.42 27.24 212.94 33.26 214.03 39.96 C 215.35 47.17 215.55 54.78 213.67 61.90 C 212.70 65.81 208.76 67.62 205.19 68.48 C 210.43 69.66 214.58 74.48 214.72 79.88 C 215.29 91.23 214.89 102.61 214.97 113.97 C 208.07 114.01 201.17 114.03 194.27 113.97 C 194.20 103.29 194.30 92.62 194.23 81.95 C 194.06 79.97 194.15 77.80 193.05 76.05 C 191.87 75.00 190.19 75.06 188.76 74.66 C 188.72 87.76 188.79 100.86 188.73 113.96 C 181.24 114.02 173.76 114.02 166.27 113.97 C 166.21 84.58 166.28 55.20 166.24 25.82 M 188.76 41.71 C 188.75 47.94 188.74 54.18 188.77 60.41 C 190.51 60.07 193.34 60.28 193.75 57.98 C 194.55 53.69 194.45 49.18 193.91 44.86 C 193.61 42.28 190.74 42.14 188.76 41.71 Z" />
<path fill="#ffffff" opacity="1.00" d=" M 224.76 25.77 C 232.24 25.76 239.72 25.69 247.19 25.81 C 247.30 55.20 247.27 84.60 247.20 114.00 C 239.73 114.00 232.26 114.00 224.80 114.00 C 224.70 84.59 224.76 55.18 224.76 25.77 Z" />
<path fill="#ffff26" opacity="1.00" d=" M 278.25 25.80 C 285.74 25.77 293.25 25.59 300.74 25.90 C 300.77 49.10 300.74 72.30 300.75 95.49 C 305.00 95.53 309.24 95.38 313.49 95.64 C 313.50 101.76 313.54 107.87 313.46 113.99 C 301.72 114.01 289.98 114.00 278.24 113.99 C 278.25 84.60 278.24 55.20 278.25 25.80 Z" />
<path fill="#ffff26" opacity="1.00" d=" M 315.70 25.83 C 322.59 25.65 329.49 25.80 336.39 25.74 C 338.24 35.98 339.74 46.28 341.29 56.57 C 342.67 46.24 344.60 35.99 346.48 25.74 C 353.38 25.79 360.28 25.68 367.19 25.81 C 362.19 44.26 356.93 62.64 351.87 81.07 C 351.40 82.67 351.50 84.36 351.48 86.01 C 351.56 95.31 351.42 104.62 351.56 113.92 C 344.64 114.09 337.72 113.96 330.80 114.00 C 330.69 103.99 330.78 93.98 330.76 83.98 C 330.80 80.70 329.51 77.63 328.75 74.49 C 324.42 58.27 319.94 42.08 315.70 25.83 Z" />
<path fill="#ffff26" opacity="1.00" d=" M 373.05 25.83 C 379.25 25.66 385.45 25.79 391.64 25.75 C 395.25 37.85 399.05 49.90 402.66 62.01 C 402.90 49.95 402.62 37.88 402.81 25.81 C 409.12 25.71 415.44 25.72 421.75 25.80 C 421.74 55.19 421.78 84.58 421.73 113.97 C 415.18 114.04 408.63 113.98 402.09 114.00 C 398.85 101.91 395.13 89.94 392.29 77.75 C 391.64 89.81 392.19 101.90 391.97 113.98 C 385.66 114.02 379.34 114.01 373.03 113.98 C 373.00 84.60 372.95 55.21 373.05 25.83 Z" />
<path fill="#ffff26" opacity="1.00" d=" M 428.10 25.83 C 435.33 25.66 442.56 25.77 449.80 25.77 C 451.13 33.00 452.49 40.24 453.86 47.47 C 455.32 40.25 456.61 32.99 457.97 25.75 C 464.28 25.78 470.59 25.67 476.90 25.82 C 474.63 38.63 471.79 51.35 469.38 64.13 C 469.21 66.79 470.34 69.35 470.83 71.94 C 474.08 85.96 477.57 99.92 480.65 113.98 C 473.74 114.02 466.83 113.99 459.93 114.00 C 457.52 104.70 455.78 95.24 454.01 85.80 C 452.66 95.20 451.28 104.58 450.10 114.00 C 442.86 114.00 435.63 114.00 428.40 114.00 C 430.81 97.61 433.91 81.30 436.23 64.90 C 433.77 51.83 430.60 38.89 428.10 25.83 Z" />
<path fill="#65ff6d" opacity="1.00" d=" M 522.84 27.86 C 523.98 28.50 525.12 29.14 526.27 29.77 C 523.84 35.87 517.80 39.63 511.40 40.17 C 511.34 38.98 511.29 37.79 511.24 36.59 C 516.36 36.00 521.16 32.88 522.84 27.86 Z" />
</svg>
