<?xml version="1.0" encoding="UTF-8" ?>
<!DOCTYPE svg PUBLIC "-//W3C//DTD SVG 1.1//EN" "http://www.w3.org/Graphics/SVG/1.1/DTD/svg11.dtd">
<svg width="533pt" height="133pt" viewBox="0 0 533 133" version="1.1" xmlns="http://www.w3.org/2000/svg">
<path fill="#a62a32" opacity="0.78" d=" M 504.80 3.84 C 509.43 2.06 514.35 3.61 518.73 5.38 C 525.95 8.61 530.65 16.17 531.01 23.98 C 530.38 28.23 528.97 32.45 526.27 35.85 C 525.95 35.58 525.32 35.06 525.00 34.80 C 527.65 31.10 529.31 26.52 528.76 21.92 C 528.17 14.96 523.08 8.81 516.57 6.47 C 509.20 3.64 500.09 5.56 494.87 11.60 C 490.71 15.95 489.41 22.43 490.70 28.22 C 489.84 25.07 490.27 21.74 489.49 18.58 L 489.05 17.50 C 491.82 10.82 497.58 5.29 504.80 3.84 Z" />
<path fill="#43ff4e" opacity="1.00" d=" M 497.12 10.68 C 500.12 8.43 503.65 7.09 507.34 6.54 C 507.33 7.38 507.30 9.06 507.28 9.90 C 505.25 9.67 503.17 10.22 501.67 11.62 C 501.02 12.11 500.38 12.59 499.74 13.07 C 499.08 12.47 497.78 11.28 497.12 10.68 Z" />
<path fill="#3fff4b" opacity="1.00" d=" M 510.51 6.49 C 518.60 6.68 526.57 12.75 527.00 21.18 C 525.74 20.87 524.48 20.78 523.21 20.93 C 522.92 19.85 522.72 18.77 522.39 17.71 C 521.00 12.60 515.47 9.36 510.34 9.93 C 510.38 9.07 510.46 7.35 510.51 6.49 Z" />
<path fill="#324e1b" opacity="0.69" d=" M 501.67 11.62 C 503.17 10.22 505.25 9.67 507.28 9.90 C 506.53 11.56 503.37 12.04 501.67 11.62 Z" />
<path fill="#45802b" opacity="0.82" d=" M 510.34 9.93 C 515.47 9.36 521.00 12.60 522.39 17.71 L 521.21 17.20 L 521.00 16.53 C 519.48 12.09 514.29 11.11 510.34 9.93 Z" />
<path fill="#59ff61" opacity="1.00" d=" M 491.62 21.55 C 492.32 17.45 494.13 13.60 497.12 10.68 C 497.78 11.28 499.08 12.47 499.74 13.07 C 498.81 14.09 497.93 15.16 497.10 16.26 C 498.68 16.37 500.26 16.47 501.85 16.56 C 501.78 19.44 501.66 22.33 501.38 25.20 C 501.09 23.29 500.82 21.38 500.57 19.46 C 499.32 19.52 498.07 19.58 496.83 19.64 C 496.66 19.11 496.31 18.05 496.13 17.52 C 495.83 18.95 495.55 20.38 495.29 21.82 C 494.37 21.75 492.54 21.62 491.62 21.55 Z" />
<path fill="#4dff57" opacity="1.00" d=" M 509.07 21.33 C 509.30 19.57 509.55 17.81 509.81 16.06 C 513.54 16.19 517.27 16.25 521.00 16.53 L 521.21 17.20 C 521.25 17.91 521.32 19.34 521.35 20.06 C 520.02 21.56 518.62 22.98 517.07 24.24 C 515.93 23.20 514.84 22.12 513.71 21.06 L 513.30 20.68 C 511.88 20.90 510.47 21.12 509.07 21.33 Z" />
<path fill="#b85358" opacity="0.80" d=" M 489.49 18.58 C 490.27 21.74 489.84 25.07 490.70 28.22 C 492.90 35.77 500.05 41.47 507.90 41.95 C 514.33 42.56 520.91 39.80 525.00 34.80 C 525.32 35.06 525.95 35.58 526.27 35.85 C 522.23 40.62 516.27 43.40 510.12 44.05 C 501.72 43.88 493.15 38.97 489.90 31.00 C 488.45 27.07 486.90 22.42 489.49 18.58 Z" />
<path fill="#68ff6f" opacity="1.00" d=" M 496.83 19.64 C 498.07 19.58 499.32 19.52 500.57 19.46 C 500.82 21.38 501.09 23.29 501.38 25.20 C 503.38 24.84 505.39 24.55 507.42 24.29 C 507.60 25.75 507.78 27.21 507.99 28.67 C 504.46 29.32 500.90 29.64 497.34 29.98 C 497.15 26.53 496.80 23.09 496.83 19.64 Z" />
<path fill="#5aff62" opacity="1.00" d=" M 513.71 21.06 C 514.84 22.12 515.93 23.20 517.07 24.24 C 518.27 25.42 520.12 24.20 521.57 24.27 C 521.54 26.25 521.54 28.23 521.58 30.21 C 517.47 29.98 513.36 29.73 509.24 29.73 C 509.22 28.75 509.17 26.78 509.15 25.79 C 510.67 24.22 512.19 22.65 513.71 21.06 Z" />
<path fill="#2f5d1d" opacity="0.58" d=" M 523.21 20.93 C 524.48 20.78 525.74 20.87 527.00 21.18 C 526.85 22.76 522.96 22.58 523.21 20.93 Z" />
<path fill="#48ff53" opacity="1.00" d=" M 523.56 23.74 C 524.82 23.72 526.09 23.70 527.36 23.68 C 527.07 25.64 526.75 27.59 526.36 29.53 C 525.17 29.01 523.98 28.49 522.80 27.97 C 523.04 26.56 523.30 25.15 523.56 23.74 Z" />
<path fill="#ffffff" opacity="1.00" d=" M 7.54 26.48 C 14.20 21.62 24.81 24.72 27.70 32.49 C 29.93 39.13 29.39 46.30 29.49 53.21 C 25.33 53.29 21.16 53.24 17.00 53.25 C 16.86 48.64 17.51 43.88 16.03 39.43 C 13.86 40.42 13.82 42.93 13.74 44.98 C 13.65 48.63 13.69 52.70 16.26 55.60 C 21.40 61.86 27.74 67.89 29.35 76.17 C 30.71 84.04 30.81 92.11 30.12 100.05 C 29.78 104.44 28.51 109.07 25.09 112.08 C 21.23 116.14 14.62 116.88 9.77 114.25 C 5.96 112.08 3.35 108.16 2.41 103.92 C 0.83 96.72 1.32 89.31 1.25 82.00 C 5.42 82.00 9.58 82.00 13.75 82.00 C 13.96 87.68 13.28 93.43 14.19 99.06 C 14.60 99.45 15.41 100.24 15.81 100.64 C 18.02 97.93 17.77 94.24 17.67 90.96 C 17.43 88.25 17.53 85.31 16.00 82.92 C 12.41 77.32 7.35 72.77 4.08 66.94 C 0.39 59.50 0.93 50.95 1.07 42.89 C 1.35 36.99 2.45 30.23 7.54 26.48 Z" />
<path fill="#ffffff" opacity="1.00" d=" M 67.46 29.43 C 71.12 23.57 79.90 22.50 85.18 26.73 C 89.54 30.25 91.74 35.85 92.31 41.31 C 92.90 47.17 93.09 53.08 92.97 58.97 C 88.47 59.01 83.97 59.02 79.48 58.97 C 79.65 53.60 79.30 48.24 79.21 42.87 C 79.16 41.82 78.85 38.74 77.17 39.96 C 76.20 41.46 76.33 43.32 76.24 45.02 C 76.26 61.69 76.25 78.36 76.25 95.03 C 76.23 96.78 76.63 98.50 76.98 100.22 C 78.47 100.14 79.22 99.37 79.23 97.90 C 79.82 92.14 79.75 86.31 79.75 80.52 C 79.19 80.51 78.06 80.49 77.50 80.48 C 77.50 75.82 77.49 71.16 77.50 66.50 C 82.64 66.50 87.78 66.50 92.91 66.49 C 93.10 82.32 92.98 98.15 92.97 113.97 C 90.00 114.01 87.02 114.00 84.04 114.00 C 83.71 112.41 83.38 110.81 83.08 109.21 C 81.81 111.69 80.39 114.52 77.54 115.44 C 74.03 116.64 70.28 114.69 68.13 111.93 C 63.80 106.68 62.91 99.57 62.75 93.00 C 62.75 78.32 62.75 63.65 62.75 48.98 C 62.90 42.26 63.11 34.97 67.46 29.43 Z" />
<path fill="#ffff26" opacity="1.00" d=" M 219.50 24.69 C 224.38 23.25 230.07 24.82 233.16 28.96 C 237.67 34.93 238.34 42.76 238.26 49.99 C 238.71 60.99 238.43 71.99 238.50 82.99 C 237.98 90.85 238.98 99.09 235.73 106.50 C 233.94 110.96 230.15 115.11 225.14 115.65 C 219.87 116.59 214.52 113.59 212.00 108.98 C 207.99 102.02 208.21 93.72 208.25 85.95 C 207.86 75.31 207.88 64.65 208.25 54.01 C 208.24 46.96 207.99 39.55 211.00 32.98 C 212.62 29.29 215.50 25.84 219.50 24.69 M 221.75 44.97 C 221.75 61.64 221.76 78.31 221.74 94.97 C 221.91 96.94 221.36 99.83 223.85 100.48 C 224.45 98.72 224.82 96.87 224.76 95.00 C 224.74 77.98 224.75 60.97 224.76 43.96 C 224.77 42.42 224.35 40.92 224.01 39.43 C 221.55 40.22 221.82 42.91 221.75 44.97 Z" />
<path fill="#ffff26" opacity="1.00" d=" M 314.01 26.92 C 320.36 21.69 331.16 24.22 334.42 31.84 C 337.13 38.58 336.32 46.09 336.50 53.20 C 332.33 53.29 328.16 53.25 324.00 53.25 C 323.92 49.16 324.26 45.04 323.63 40.99 C 323.26 40.58 322.53 39.75 322.16 39.33 C 320.09 43.79 320.21 49.37 322.09 53.87 C 327.15 61.05 334.72 67.09 336.38 76.18 C 337.80 84.70 337.89 93.46 336.90 102.04 C 336.41 107.96 332.43 113.76 326.55 115.35 C 319.94 117.33 312.81 113.24 310.44 106.95 C 307.52 98.99 308.41 90.31 308.25 82.00 C 312.41 82.00 316.58 82.00 320.75 82.00 C 321.07 87.87 320.01 93.92 321.49 99.66 C 322.99 101.41 324.17 98.99 324.36 97.58 C 325.07 93.15 324.87 88.48 323.67 84.15 C 320.14 77.66 314.12 72.87 310.75 66.28 C 307.50 58.98 307.91 50.79 308.08 42.99 C 308.37 37.27 309.31 30.80 314.01 26.92 Z" />
<path fill="#76ff7c" opacity="1.00" d=" M 491.75 24.58 C 492.60 24.56 494.30 24.52 495.15 24.50 C 496.04 27.92 497.23 31.61 500.27 33.74 C 502.45 35.50 505.26 35.99 507.93 36.53 C 507.88 37.72 507.84 38.90 507.80 40.09 C 503.77 39.52 499.61 38.33 496.67 35.37 C 493.64 32.59 492.26 28.56 491.75 24.58 Z" />
<path fill="#ffffff" opacity="1.00" d=" M 35.80 26.00 C 43.12 26.00 50.43 26.00 57.75 26.00 C 57.75 32.08 57.75 38.17 57.75 44.25 C 54.92 44.25 52.09 44.25 49.25 44.25 C 49.25 49.50 49.25 54.75 49.25 60.00 C 51.92 60.00 54.58 60.00 57.25 60.00 C 57.25 65.75 57.25 71.50 57.25 77.25 C 54.58 77.25 51.92 77.25 49.25 77.25 C 49.25 83.42 49.25 89.58 49.25 95.75 C 52.42 95.75 55.58 95.75 58.75 95.75 C 58.75 101.83 58.75 107.92 58.75 114.00 C 51.10 114.00 43.45 114.00 35.80 114.00 C 35.72 84.67 35.72 55.33 35.80 26.00 Z" />
<path fill="#ffffff" opacity="1.00" d=" M 96.20 114.00 C 98.10 84.65 100.47 55.33 102.55 26.00 C 108.94 26.01 115.34 25.98 121.73 26.01 C 124.27 55.34 126.74 84.67 129.22 114.00 C 124.57 114.00 119.93 114.00 115.29 114.00 C 115.14 108.75 114.70 103.52 114.74 98.26 C 113.50 98.25 112.26 98.24 111.03 98.22 C 110.60 103.45 110.55 108.70 110.25 113.93 C 105.57 114.07 100.88 113.98 96.20 114.00 M 112.45 52.73 C 112.10 62.50 111.27 72.24 110.83 82.01 C 111.69 82.00 113.41 82.00 114.27 82.00 C 113.56 72.25 113.46 62.46 112.45 52.73 Z" />
<path fill="#ffff26" opacity="1.00" d=" M 142.26 113.99 C 144.42 84.65 146.47 55.31 148.78 25.99 C 155.16 26.01 161.55 25.99 167.93 26.00 C 170.32 55.34 173.00 84.65 175.31 113.99 C 170.70 114.00 166.09 114.02 161.48 113.97 C 161.12 108.72 161.13 103.46 160.69 98.21 C 159.47 98.23 158.25 98.25 157.03 98.26 C 156.99 103.49 156.49 108.71 156.51 113.94 C 151.76 114.05 147.01 113.99 142.26 113.99 M 158.40 51.95 C 158.61 61.98 157.31 71.98 156.95 82.00 C 157.78 82.00 159.45 82.00 160.28 82.00 C 159.77 71.98 159.74 61.90 158.40 51.95 Z" />
<path fill="#ffff26" opacity="1.00" d=" M 176.00 26.00 C 185.58 26.00 195.17 26.00 204.75 26.00 C 204.75 32.08 204.75 38.17 204.75 44.25 C 202.17 44.25 199.58 44.25 197.00 44.25 C 197.00 67.50 197.00 90.75 197.00 114.00 C 192.53 114.00 188.06 113.99 183.59 114.02 C 183.38 90.77 183.55 67.51 183.50 44.26 C 181.00 44.26 178.50 44.25 176.00 44.20 C 176.00 38.13 176.00 32.07 176.00 26.00 Z" />
<path fill="#ffff26" opacity="1.00" d=" M 243.44 26.08 C 249.19 25.91 254.95 26.04 260.71 26.00 C 261.60 37.42 262.87 48.83 263.37 60.28 C 265.24 48.97 265.17 37.41 266.30 26.00 C 272.12 26.00 277.93 26.00 283.75 26.00 C 283.75 55.33 283.75 84.67 283.75 114.00 C 279.75 114.00 275.75 114.00 271.75 114.00 C 271.55 97.89 272.14 81.76 271.47 65.68 C 270.67 81.80 269.16 97.90 267.98 114.00 C 265.14 114.01 262.31 114.01 259.48 113.94 C 258.17 97.87 257.00 81.79 255.44 65.74 C 255.51 81.82 255.51 97.91 255.50 114.00 C 251.50 113.99 247.50 114.04 243.50 113.93 C 243.45 84.65 243.58 55.37 243.44 26.08 Z" />
<path fill="#ffff26" opacity="1.00" d=" M 289.75 26.00 C 294.23 26.00 298.72 26.00 303.20 26.00 C 303.28 55.33 303.28 84.67 303.20 114.00 C 298.72 114.00 294.23 114.00 289.75 114.00 C 289.75 84.67 289.75 55.33 289.75 26.00 Z" />
<path fill="#ffff26" opacity="1.00" d=" M 340.28 26.00 C 344.76 26.01 349.23 25.98 353.71 26.03 C 353.99 42.79 355.64 59.52 355.37 76.28 C 355.67 74.13 356.01 71.98 356.20 69.81 C 357.02 55.20 357.91 40.59 359.05 26.00 C 363.68 26.00 368.31 26.00 372.95 26.00 C 373.80 43.48 374.44 60.97 375.43 78.44 C 376.23 60.95 377.27 43.46 378.56 26.00 C 382.97 26.00 387.38 26.00 391.80 26.00 C 390.14 55.34 387.92 84.66 386.15 114.00 C 380.55 113.94 374.95 114.14 369.36 113.87 C 367.95 100.41 367.36 86.85 365.51 73.45 C 365.13 86.99 363.54 100.48 362.69 114.00 C 357.15 114.00 351.60 114.00 346.05 114.00 C 344.21 84.66 342.18 55.33 340.28 26.00 Z" />
<path fill="#ffff26" opacity="1.00" d=" M 398.54 26.01 C 404.94 26.00 411.34 25.99 417.74 26.01 C 420.23 55.34 422.74 84.67 425.20 114.00 C 420.56 114.00 415.93 114.00 411.29 114.00 C 411.09 108.78 410.75 103.56 410.69 98.34 C 409.44 98.29 408.19 98.25 406.95 98.21 C 406.63 103.47 406.56 108.74 406.20 114.00 C 401.50 114.00 396.80 114.00 392.10 114.00 C 394.20 84.67 396.39 55.34 398.54 26.01 M 408.48 52.77 C 407.98 62.52 407.34 72.26 406.78 82.01 C 407.65 82.01 409.38 82.00 410.25 82.00 C 409.60 72.26 409.37 62.50 408.48 52.77 Z" />
<path fill="#ffff26" opacity="1.00" d=" M 425.35 26.00 C 430.06 26.02 434.77 25.95 439.49 26.05 C 440.34 43.80 441.61 61.53 442.44 79.26 C 443.12 61.50 444.09 43.75 444.80 25.99 C 449.51 26.01 454.23 26.00 458.95 26.00 C 456.86 55.32 454.63 84.64 452.67 113.98 C 446.00 114.04 439.32 113.96 432.65 114.02 C 430.22 84.68 427.71 55.35 425.35 26.00 Z" />
<path fill="#ffff26" opacity="1.00" d=" M 462.25 26.00 C 469.58 26.00 476.91 26.00 484.25 26.00 C 484.25 32.07 484.26 38.15 484.24 44.22 C 481.41 44.26 478.58 44.25 475.75 44.25 C 475.75 49.50 475.75 54.75 475.75 60.00 C 478.42 60.00 481.08 60.00 483.75 60.00 C 483.72 65.75 483.81 71.49 483.69 77.24 C 481.04 77.25 478.40 77.25 475.75 77.25 C 475.75 83.42 475.75 89.58 475.75 95.75 C 478.91 95.75 482.08 95.75 485.25 95.75 C 485.23 101.83 485.30 107.91 485.20 114.00 C 477.55 114.01 469.90 114.00 462.25 114.00 C 462.25 84.67 462.25 55.33 462.25 26.00 Z" />
<path fill="#65ff6d" opacity="1.00" d=" M 522.80 27.97 C 523.98 28.49 525.17 29.01 526.36 29.53 C 524.01 35.74 517.90 39.65 511.40 40.15 C 511.34 38.97 511.29 37.78 511.23 36.59 C 516.31 36.01 521.10 32.94 522.80 27.97 Z" />
</svg>
