<?xml version="1.0" encoding="UTF-8" ?>
<!DOCTYPE svg PUBLIC "-//W3C//DTD SVG 1.1//EN" "http://www.w3.org/Graphics/SVG/1.1/DTD/svg11.dtd">
<svg width="710pt" height="177pt" viewBox="0 0 710 177" version="1.1" xmlns="http://www.w3.org/2000/svg">
<path fill="#a92731" opacity="0.79" d=" M 516.48 11.06 C 521.33 6.04 528.21 3.62 535.03 2.96 C 541.07 3.33 547.07 5.33 551.95 8.98 C 551.57 9.40 550.83 10.23 550.46 10.64 C 547.80 8.41 544.59 6.91 541.27 5.98 C 537.85 4.83 534.18 4.77 530.70 5.69 C 525.05 6.69 520.12 9.94 516.30 14.13 C 515.86 12.92 515.42 11.71 514.98 10.51 C 515.35 10.65 516.11 10.92 516.48 11.06 Z" />
<path fill="#8a7e79" opacity="0.87" d=" M 504.04 6.95 C 505.31 5.74 506.96 5.16 508.60 4.63 C 509.98 5.45 511.40 6.22 512.84 6.95 C 511.62 6.78 510.46 6.92 509.36 7.36 L 509.19 7.70 C 509.89 7.94 511.28 8.43 511.98 8.67 C 510.58 8.62 509.19 8.59 507.81 8.56 C 507.05 9.68 506.29 10.80 505.54 11.91 C 506.90 12.20 508.30 12.48 509.67 12.77 L 510.53 13.48 C 510.33 14.16 509.93 15.53 509.72 16.21 C 508.11 16.06 507.10 14.60 505.86 13.73 C 505.44 15.08 505.02 16.42 504.59 17.77 C 502.10 16.30 504.46 14.51 505.40 12.93 C 505.44 12.30 505.51 11.03 505.54 10.39 C 506.42 9.35 507.45 8.40 508.02 7.14 C 506.77 6.74 505.44 6.67 504.04 6.95 Z" />
<path fill="#3e0207" opacity="0.56" d=" M 530.70 5.69 C 534.18 4.77 537.85 4.83 541.27 5.98 C 537.75 5.74 534.22 5.65 530.70 5.69 Z" />
<path fill="#e5e5e5" opacity="1.00" d=" M 504.04 6.95 C 505.44 6.67 506.77 6.74 508.02 7.14 C 507.45 8.40 506.42 9.35 505.54 10.39 C 505.51 11.03 505.44 12.30 505.40 12.93 C 504.46 14.51 502.10 16.30 504.59 17.77 C 505.02 18.00 505.88 18.48 506.31 18.72 C 504.79 18.41 503.27 18.11 501.77 17.78 L 501.19 17.65 L 501.06 17.05 C 499.85 13.83 501.00 10.53 502.75 7.78 C 503.07 7.57 503.72 7.15 504.04 6.95 Z" />
<path fill="#e8c6b4" opacity="0.97" d=" M 509.36 7.36 C 510.46 6.92 511.62 6.78 512.84 6.95 C 513.22 7.44 513.99 8.44 514.37 8.94 C 513.86 9.87 513.36 10.81 512.86 11.75 C 511.79 12.09 510.73 12.43 509.67 12.77 C 508.30 12.48 506.90 12.20 505.54 11.91 C 506.29 10.80 507.05 9.68 507.81 8.56 C 509.19 8.59 510.58 8.62 511.98 8.67 C 511.28 8.43 509.89 7.94 509.19 7.70 L 509.36 7.36 Z" />
<path fill="#774520" opacity="1.00" d=" M 551.95 8.98 C 553.90 5.95 557.94 6.62 561.03 6.70 C 562.69 6.90 565.27 7.13 565.17 9.42 C 564.42 11.02 563.58 12.57 562.75 14.13 L 561.56 13.61 C 560.32 13.15 559.05 12.77 557.81 12.37 C 556.64 11.99 555.50 11.60 554.36 11.20 C 554.07 11.94 553.48 13.42 553.19 14.16 C 552.73 13.79 551.82 13.06 551.37 12.69 L 551.26 12.48 C 551.06 12.02 550.66 11.10 550.46 10.64 C 550.83 10.23 551.57 9.40 551.95 8.98 Z" />
<path fill="#575757" opacity="0.76" d=" M 501.06 17.05 C 497.59 14.71 500.05 9.77 502.75 7.78 C 501.00 10.53 499.85 13.83 501.06 17.05 Z" />
<path fill="#44ff50" opacity="1.00" d=" M 518.74 13.40 C 522.37 9.45 527.60 7.63 532.80 6.95 C 532.75 7.96 532.66 9.99 532.61 11.00 C 529.02 11.44 525.43 12.62 522.78 15.17 C 521.43 14.58 520.08 13.99 518.74 13.40 Z" />
<path fill="#3dff4a" opacity="1.00" d=" M 536.41 6.92 C 541.83 7.16 547.04 9.07 551.26 12.48 L 551.37 12.69 C 552.03 16.17 554.61 19.31 554.67 22.77 C 553.23 24.46 552.04 22.21 551.15 21.14 C 550.25 19.35 549.34 17.57 548.29 15.87 C 545.72 12.02 540.84 10.70 536.44 10.74 C 536.43 9.79 536.42 7.88 536.41 6.92 Z" />
<path fill="#ab9d98" opacity="0.94" d=" M 514.37 8.94 C 514.52 9.33 514.82 10.12 514.98 10.51 C 515.42 11.71 515.86 12.92 516.30 14.13 C 515.61 14.81 514.93 15.49 514.26 16.19 L 513.84 15.11 C 513.77 14.43 513.64 13.08 513.57 12.41 C 513.26 12.94 512.64 14.02 512.33 14.56 C 511.88 14.29 510.98 13.75 510.53 13.48 L 509.67 12.77 C 510.73 12.43 511.79 12.09 512.86 11.75 C 513.36 10.81 513.86 9.87 514.37 8.94 Z" />
<path fill="#5a4534" opacity="0.87" d=" M 565.17 9.42 L 565.36 9.02 C 565.74 11.25 568.54 13.85 566.43 15.90 C 565.65 16.85 564.92 17.84 564.09 18.73 C 564.33 17.52 564.59 16.31 564.87 15.10 C 564.34 14.86 563.28 14.37 562.75 14.13 C 563.58 12.57 564.42 11.02 565.17 9.42 Z" />
<path fill="#774520" opacity="1.00" d=" M 536.44 10.74 C 540.84 10.70 545.72 12.02 548.29 15.87 C 544.81 13.18 540.70 11.67 536.44 10.74 Z" />
<path fill="#ebd5c1" opacity="0.98" d=" M 554.36 11.20 C 555.50 11.60 556.64 11.99 557.81 12.37 C 558.04 12.45 558.51 12.60 558.74 12.68 C 558.51 13.93 558.01 15.21 558.44 16.48 C 559.43 16.75 560.45 16.99 561.48 17.19 C 561.49 16.00 561.53 14.80 561.56 13.61 L 562.75 14.13 C 563.28 14.37 564.34 14.86 564.87 15.10 C 564.59 16.31 564.33 17.52 564.09 18.73 C 563.97 18.96 563.74 19.42 563.62 19.65 C 561.68 21.50 558.96 22.86 556.26 21.92 C 555.38 20.99 554.63 19.97 553.87 18.96 C 554.01 17.99 554.15 17.02 554.29 16.05 C 554.74 16.62 555.63 17.77 556.08 18.35 C 556.05 17.42 555.98 15.57 555.95 14.64 C 555.19 14.72 553.67 14.88 552.92 14.96 C 552.98 14.76 553.12 14.36 553.19 14.16 C 553.48 13.42 554.07 11.94 554.36 11.20 M 557.28 19.38 C 556.25 21.47 560.28 21.38 560.64 19.69 C 560.36 18.25 558.08 18.57 557.28 19.38 Z" />
<path fill="#8a7a72" opacity="0.95" d=" M 557.81 12.37 C 559.05 12.77 560.32 13.15 561.56 13.61 C 561.53 14.80 561.49 16.00 561.48 17.19 C 560.45 16.99 559.43 16.75 558.44 16.48 C 558.01 15.21 558.51 13.93 558.74 12.68 C 558.51 12.60 558.04 12.45 557.81 12.37 Z" />
<path fill="#774520" opacity="1.00" d=" M 512.33 14.56 C 512.64 14.02 513.26 12.94 513.57 12.41 C 513.64 13.08 513.77 14.43 513.84 15.11 C 513.59 15.53 513.07 16.36 512.81 16.77 L 513.72 17.05 C 513.63 18.74 513.52 20.42 513.35 22.09 C 512.90 22.17 511.99 22.33 511.54 22.40 C 511.27 22.03 510.74 21.28 510.47 20.91 C 510.42 20.85 510.33 20.71 510.28 20.65 L 510.26 20.85 C 509.91 20.76 509.21 20.59 508.87 20.50 C 508.57 20.19 507.98 19.57 507.69 19.26 C 509.71 18.97 513.19 20.61 513.51 17.26 C 512.72 17.38 511.12 17.61 510.32 17.73 C 511.00 16.68 511.69 15.64 512.33 14.56 Z" />
<path fill="#515f40" opacity="0.92" d=" M 551.37 12.69 C 551.82 13.06 552.73 13.79 553.19 14.16 C 553.12 14.36 552.98 14.76 552.92 14.96 C 553.67 14.88 555.19 14.72 555.95 14.64 C 555.98 15.57 556.05 17.42 556.08 18.35 C 555.63 17.77 554.74 16.62 554.29 16.05 C 554.15 17.02 554.01 17.99 553.87 18.96 C 554.63 19.97 555.38 20.99 556.26 21.92 C 558.96 22.86 561.68 21.50 563.62 19.65 C 562.22 21.42 564.41 23.02 565.07 24.57 C 564.34 25.34 563.63 26.10 562.92 26.87 C 562.39 25.81 561.83 24.77 561.29 23.72 C 561.02 24.59 560.49 26.34 560.22 27.21 C 559.68 26.68 559.12 26.17 558.55 25.67 L 557.70 25.45 C 557.83 24.77 558.10 23.39 558.23 22.71 C 556.32 23.38 554.36 23.96 552.32 24.07 C 552.06 23.96 551.53 23.73 551.27 23.62 C 551.24 23.00 551.18 21.76 551.15 21.14 C 552.04 22.21 553.23 24.46 554.67 22.77 C 554.61 19.31 552.03 16.17 551.37 12.69 Z" />
<path fill="#efcdb9" opacity="0.98" d=" M 505.86 13.73 C 507.10 14.60 508.11 16.06 509.72 16.21 C 509.93 15.53 510.33 14.16 510.53 13.48 C 510.98 13.75 511.88 14.29 512.33 14.56 C 511.69 15.64 511.00 16.68 510.32 17.73 C 511.12 17.61 512.72 17.38 513.51 17.26 C 513.19 20.61 509.71 18.97 507.69 19.26 C 507.34 19.12 506.66 18.85 506.31 18.72 C 505.88 18.48 505.02 18.00 504.59 17.77 C 505.02 16.42 505.44 15.08 505.86 13.73 Z" />
<path fill="#5afe61" opacity="1.00" d=" M 514.18 24.41 C 514.46 20.34 516.13 16.51 518.74 13.40 C 520.08 13.99 521.43 14.58 522.78 15.17 L 521.81 16.01 C 520.37 16.88 520.35 17.52 521.75 17.93 C 523.24 18.04 524.73 18.13 526.24 18.21 C 526.25 19.42 526.27 20.63 526.32 21.84 C 524.22 22.42 522.13 23.00 520.08 23.71 C 520.16 22.46 520.24 21.21 520.33 19.96 C 519.77 21.35 519.22 22.74 518.64 24.12 C 518.29 24.15 517.58 24.21 517.22 24.25 C 516.46 24.29 514.94 24.37 514.18 24.41 Z" />
<path fill="#f2d7c4" opacity="0.98" d=" M 512.81 16.77 C 513.07 16.36 513.59 15.53 513.84 15.11 L 514.26 16.19 L 513.72 17.05 L 512.81 16.77 Z" />
<path fill="#173f19" opacity="0.59" d=" M 521.75 17.93 C 520.35 17.52 520.37 16.88 521.81 16.01 C 521.79 16.49 521.76 17.45 521.75 17.93 Z" />
<path fill="#322014" opacity="0.75" d=" M 564.09 18.73 C 564.92 17.84 565.65 16.85 566.43 15.90 C 567.93 17.45 565.49 21.58 563.62 19.65 C 563.74 19.42 563.97 18.96 564.09 18.73 Z" />
<path fill="#2a2625" opacity="0.50" d=" M 501.77 17.78 C 503.27 18.11 504.79 18.41 506.31 18.72 C 506.66 18.85 507.34 19.12 507.69 19.26 C 507.98 19.57 508.57 20.19 508.87 20.50 L 507.81 20.34 C 505.70 19.84 503.02 19.86 501.77 17.78 Z" />
<path fill="#4aff55" opacity="1.00" d=" M 535.34 18.59 C 535.56 18.35 536.01 17.86 536.23 17.61 C 540.60 17.53 544.96 17.85 549.33 17.90 C 549.37 18.44 549.43 19.51 549.46 20.05 C 549.08 21.35 548.65 22.63 548.15 23.88 C 547.81 24.15 547.12 24.70 546.77 24.98 C 546.05 25.55 545.33 26.11 544.61 26.67 C 542.02 27.83 545.40 30.42 546.26 27.88 C 547.32 27.56 548.38 27.24 549.46 26.92 C 549.68 28.17 549.96 29.41 550.30 30.64 C 551.30 29.21 552.04 27.61 552.76 26.02 C 553.99 26.17 555.24 26.31 556.49 26.45 C 556.18 28.24 555.86 30.02 555.54 31.80 C 554.31 31.78 553.08 31.76 551.86 31.74 L 550.96 31.71 C 552.03 33.20 552.93 34.81 553.38 36.62 L 552.96 37.52 C 552.33 37.46 551.05 37.33 550.42 37.26 C 550.56 37.80 550.85 38.88 551.00 39.41 C 549.57 40.10 548.27 41.01 547.04 41.98 C 546.21 41.26 545.39 40.54 544.57 39.82 C 544.59 39.31 544.64 38.30 544.66 37.79 L 545.96 38.62 C 546.27 39.86 547.04 40.39 548.26 40.20 C 550.67 39.43 548.14 36.97 546.58 37.90 C 546.51 37.45 546.38 36.54 546.32 36.09 C 547.40 36.18 549.56 36.36 550.64 36.45 C 550.60 35.39 550.52 33.27 550.48 32.21 L 549.65 31.91 L 548.90 31.88 C 547.61 31.65 546.54 31.98 545.69 32.86 L 545.60 32.96 C 544.39 29.84 540.82 30.91 538.23 30.58 C 538.13 31.28 537.93 32.69 537.83 33.39 C 536.69 33.09 535.56 32.78 534.44 32.44 L 534.45 31.21 C 535.33 28.30 537.16 25.88 539.07 23.57 C 537.57 23.53 536.08 23.49 534.59 23.45 C 534.83 21.83 535.08 20.21 535.34 18.59 M 543.97 22.14 C 543.43 23.75 543.99 24.30 545.64 23.80 C 546.16 22.19 545.60 21.63 543.97 22.14 M 541.34 25.73 L 541.81 25.69 C 543.59 25.88 543.58 23.23 541.89 23.16 C 540.11 22.59 539.47 25.64 541.34 25.73 Z" />
<path fill="#fdfefd" opacity="1.00" d=" M 526.32 21.84 C 526.54 20.73 526.69 19.60 526.85 18.48 C 529.67 18.70 532.51 18.80 535.34 18.59 C 535.08 20.21 534.83 21.83 534.59 23.45 C 536.08 23.49 537.57 23.53 539.07 23.57 C 537.16 25.88 535.33 28.30 534.45 31.21 C 534.21 31.31 533.72 31.50 533.48 31.60 C 533.21 30.11 532.97 28.62 532.75 27.13 C 532.71 26.71 532.64 25.87 532.60 25.45 C 531.31 24.75 529.83 26.07 530.11 27.44 C 526.74 28.07 523.27 29.21 520.03 27.40 C 520.28 28.19 520.80 29.78 521.06 30.57 C 520.68 30.61 519.94 30.68 519.56 30.71 C 519.31 29.56 519.05 28.40 518.77 27.25 C 518.36 27.23 517.54 27.19 517.12 27.17 C 517.15 26.44 517.20 24.98 517.22 24.25 C 517.58 24.21 518.29 24.15 518.64 24.12 C 519.22 22.74 519.77 21.35 520.33 19.96 C 520.24 21.21 520.16 22.46 520.08 23.71 C 522.13 23.00 524.22 22.42 526.32 21.84 M 520.64 24.89 L 520.63 26.23 C 521.97 26.47 523.78 26.30 523.75 28.30 C 525.14 27.35 526.51 26.36 527.87 25.36 C 526.66 24.59 525.60 23.48 524.21 23.07 C 523.03 23.69 521.88 24.38 520.64 24.89 Z" />
<path fill="#cebca9" opacity="0.96" d=" M 557.28 19.38 C 558.08 18.57 560.36 18.25 560.64 19.69 C 560.28 21.38 556.25 21.47 557.28 19.38 Z" />
<path fill="#1f2328" opacity="0.70" d=" M 510.28 20.65 C 510.33 20.71 510.42 20.85 510.47 20.91 L 510.26 20.85 L 510.28 20.65 Z" />
<path fill="#beb9ba" opacity="0.93" d=" M 549.46 20.05 C 549.88 20.32 550.73 20.87 551.15 21.14 C 551.18 21.76 551.24 23.00 551.27 23.62 C 551.53 23.73 552.06 23.96 552.32 24.07 C 552.43 24.56 552.65 25.54 552.76 26.02 C 552.04 27.61 551.30 29.21 550.30 30.64 C 549.96 29.41 549.68 28.17 549.46 26.92 C 548.38 27.24 547.32 27.56 546.26 27.88 C 545.85 27.58 545.02 26.97 544.61 26.67 C 545.33 26.11 546.05 25.55 546.77 24.98 C 547.46 27.92 551.06 24.95 548.15 23.88 C 548.65 22.63 549.08 21.35 549.46 20.05 Z" />
<path fill="#e5e5e5" opacity="1.00" d=" M 505.94 22.68 C 506.41 22.09 507.34 20.92 507.81 20.34 L 508.87 20.50 C 509.21 20.59 509.91 20.76 510.26 20.85 L 510.47 20.91 C 510.74 21.28 511.27 22.03 511.54 22.40 C 509.88 22.80 508.25 23.23 506.62 23.70 C 506.45 23.44 506.11 22.93 505.94 22.68 Z" />
<path fill="#403934" opacity="0.80" d=" M 505.53 22.09 L 505.94 22.68 C 506.11 22.93 506.45 23.44 506.62 23.70 C 508.25 23.23 509.88 22.80 511.54 22.40 C 511.99 22.33 512.90 22.17 513.35 22.09 C 513.07 23.28 512.75 24.46 512.40 25.63 C 511.99 25.81 511.18 26.17 510.78 26.35 C 509.69 25.51 508.61 24.66 507.53 23.82 C 507.86 24.68 508.51 26.38 508.83 27.24 C 508.45 27.39 507.70 27.71 507.32 27.87 L 506.21 28.29 C 506.41 27.30 506.61 26.30 506.83 25.31 C 505.68 24.58 505.59 23.30 505.53 22.09 Z" />
<path fill="#4179cf" opacity="0.96" d=" M 543.97 22.14 C 545.60 21.63 546.16 22.19 545.64 23.80 C 543.99 24.30 543.43 23.75 543.97 22.14 Z" />
<path fill="#666e76" opacity="0.98" d=" M 520.64 24.89 C 521.88 24.38 523.03 23.69 524.21 23.07 C 525.60 23.48 526.66 24.59 527.87 25.36 C 526.51 26.36 525.14 27.35 523.75 28.30 C 523.78 26.30 521.97 26.47 520.63 26.23 L 520.64 24.89 Z" />
<path fill="#e5e5e5" opacity="1.00" d=" M 541.34 25.73 C 539.47 25.64 540.11 22.59 541.89 23.16 C 543.58 23.23 543.59 25.88 541.81 25.69 C 541.70 25.70 541.46 25.72 541.34 25.73 Z" />
<path fill="#e5e5e5" opacity="1.00" d=" M 507.53 23.82 C 508.61 24.66 509.69 25.51 510.78 26.35 L 510.73 27.25 C 510.56 28.39 510.42 29.55 510.30 30.70 L 509.55 30.79 C 509.42 30.13 509.16 28.83 509.03 28.17 C 508.17 29.29 507.33 30.42 506.50 31.56 C 506.71 30.64 507.11 28.79 507.32 27.87 C 507.70 27.71 508.45 27.39 508.83 27.24 C 508.51 26.38 507.86 24.68 507.53 23.82 Z" />
<path fill="#e33f55" opacity="0.98" d=" M 546.77 24.98 C 547.12 24.70 547.81 24.15 548.15 23.88 C 551.06 24.95 547.46 27.92 546.77 24.98 Z" />
<path fill="#4d5c6b" opacity="0.89" d=" M 561.29 23.72 C 561.83 24.77 562.39 25.81 562.92 26.87 C 563.68 28.22 563.88 29.78 564.11 31.29 C 563.79 31.73 563.16 32.61 562.84 33.05 L 562.11 32.64 C 559.43 31.79 558.73 29.55 559.40 26.78 C 559.93 28.09 561.00 30.72 561.54 32.03 C 562.88 30.20 561.49 28.54 560.22 27.21 C 560.49 26.34 561.02 24.59 561.29 23.72 Z" />
<path fill="#c94b53" opacity="1.00" d=" M 510.78 26.35 C 511.18 26.17 511.99 25.81 512.40 25.63 C 512.16 26.04 511.69 26.87 511.45 27.28 L 510.73 27.25 L 510.78 26.35 Z" />
<path fill="#2c9450" opacity="1.00" d=" M 541.34 25.73 C 541.46 25.72 541.70 25.70 541.81 25.69 L 541.34 25.73 Z" />
<path fill="#908978" opacity="1.00" d=" M 557.70 25.45 L 558.55 25.67 C 558.62 26.09 558.77 26.91 558.84 27.33 C 558.51 27.06 557.87 26.53 557.54 26.27 L 557.70 25.45 Z" />
<path fill="#ffff00" opacity="1.00" d=" M 510.73 27.25 L 511.45 27.28 C 511.75 27.35 512.36 27.49 512.67 27.56 C 512.63 28.27 512.54 29.70 512.50 30.41 C 511.95 30.48 510.85 30.63 510.30 30.70 C 510.42 29.55 510.56 28.39 510.73 27.25 Z" />
<path fill="#63d166" opacity="0.94" d=" M 515.25 27.31 C 515.72 27.27 516.66 27.20 517.12 27.17 C 517.54 27.19 518.36 27.23 518.77 27.25 C 519.05 28.40 519.31 29.56 519.56 30.71 C 518.74 30.80 517.10 30.97 516.28 31.05 C 515.95 29.80 515.60 28.55 515.25 27.31 Z" />
<path fill="#68ff72" opacity="1.00" d=" M 530.11 27.44 C 530.77 27.36 532.09 27.21 532.75 27.13 C 532.97 28.62 533.21 30.11 533.48 31.60 C 532.74 31.77 531.25 32.11 530.51 32.28 L 529.83 32.30 C 529.50 32.27 528.83 32.22 528.50 32.19 C 526.42 31.94 524.34 32.14 522.31 32.52 C 522.00 32.04 521.37 31.06 521.06 30.57 C 520.80 29.78 520.28 28.19 520.03 27.40 C 523.27 29.21 526.74 28.07 530.11 27.44 Z" />
<path fill="#f7c61f" opacity="0.98" d=" M 546.26 27.88 C 545.40 30.42 542.02 27.83 544.61 26.67 C 545.02 26.97 545.85 27.58 546.26 27.88 Z" />
<path fill="#5f542e" opacity="0.94" d=" M 512.67 27.56 C 513.31 27.50 514.61 27.37 515.25 27.31 C 515.60 28.55 515.95 29.80 516.28 31.05 L 515.14 31.23 C 514.56 31.34 513.41 31.57 512.84 31.69 L 512.72 31.72 C 510.46 32.05 508.18 32.26 505.92 32.41 L 506.50 31.56 C 507.33 30.42 508.17 29.29 509.03 28.17 C 509.16 28.83 509.42 30.13 509.55 30.79 L 510.30 30.70 C 510.85 30.63 511.95 30.48 512.50 30.41 C 512.54 29.70 512.63 28.27 512.67 27.56 Z" />
<path fill="#a31518" opacity="0.91" d=" M 555.72 36.10 C 556.76 32.93 557.70 29.69 559.40 26.78 C 558.73 29.55 559.43 31.79 562.11 32.64 C 561.82 33.95 561.53 35.27 561.26 36.59 C 559.29 35.98 558.76 34.69 559.66 32.91 C 557.97 33.52 558.44 36.11 556.58 36.37 L 555.72 36.10 Z" />
<path fill="#ab3716" opacity="0.93" d=" M 538.23 30.58 C 540.82 30.91 544.39 29.84 545.60 32.96 C 545.28 33.29 544.64 33.97 544.32 34.30 C 544.39 34.90 544.51 36.10 544.58 36.70 C 543.28 35.80 541.98 34.89 540.69 33.99 C 541.30 33.59 542.52 32.80 543.13 32.40 C 542.47 32.36 541.14 32.29 540.48 32.26 C 540.27 33.76 540.06 35.27 539.84 36.77 C 538.51 36.09 538.01 34.78 537.83 33.39 C 537.93 32.69 538.13 31.28 538.23 30.58 Z" />
<path fill="#ffff00" opacity="1.00" d=" M 428.24 42.13 C 434.88 33.43 446.60 30.70 457.04 30.98 C 467.63 30.76 479.32 33.17 486.77 41.25 C 492.74 49.31 491.22 60.05 491.51 69.48 C 481.92 69.51 472.33 69.53 462.74 69.47 C 462.76 64.61 462.80 59.72 462.22 54.89 C 462.16 52.69 460.19 50.93 457.98 51.21 C 454.76 50.84 452.79 54.28 452.60 57.07 C 452.32 61.23 452.10 65.82 454.34 69.53 C 458.16 74.33 464.07 76.64 469.02 80.05 C 476.10 84.77 483.63 89.37 488.77 96.32 C 494.36 105.09 494.09 115.99 494.00 126.01 C 493.73 133.07 492.70 141.09 486.92 145.92 C 476.79 154.51 462.49 155.75 449.83 153.79 C 440.80 152.05 431.07 147.45 427.30 138.51 C 423.71 129.29 424.63 119.21 424.48 109.53 C 434.08 109.49 443.67 109.45 453.27 109.55 C 453.36 116.68 452.86 123.88 453.98 130.95 C 454.73 135.15 461.13 135.43 463.09 132.04 C 464.92 129.00 464.48 125.30 464.51 121.91 C 464.35 117.61 463.87 112.63 460.18 109.79 C 451.57 102.59 441.44 97.44 432.86 90.20 C 425.98 84.29 423.34 74.81 423.46 66.00 C 423.44 57.92 423.37 49.01 428.24 42.13 Z" />
<path fill="#8e0000" opacity="0.66" d=" M 500.90 36.04 C 500.92 34.45 499.63 30.90 502.17 30.98 C 501.82 32.24 501.83 33.48 502.20 34.70 C 503.32 34.95 504.46 35.16 505.61 35.33 L 505.93 35.71 C 504.92 36.99 502.31 36.61 500.90 36.04 Z" />
<path fill="#6b0000" opacity="0.55" d=" M 502.17 30.98 C 503.32 32.14 504.34 34.32 505.61 35.33 C 504.46 35.16 503.32 34.95 502.20 34.70 C 501.83 33.48 501.82 32.24 502.17 30.98 Z" />
<path fill="#b60e07" opacity="0.89" d=" M 515.14 31.23 L 516.28 31.05 C 517.10 30.97 518.74 30.80 519.56 30.71 C 519.94 30.68 520.68 30.61 521.06 30.57 C 521.37 31.06 522.00 32.04 522.31 32.52 C 524.34 32.14 526.42 31.94 528.50 32.19 C 528.61 33.44 528.72 34.69 528.83 35.94 C 526.94 36.15 525.00 36.52 523.12 36.07 C 523.00 35.31 522.76 33.79 522.64 33.03 L 522.58 33.11 C 522.10 34.25 521.60 35.37 521.09 36.49 C 520.36 36.43 518.90 36.31 518.17 36.25 C 517.46 36.30 516.05 36.40 515.34 36.44 C 515.27 34.70 515.21 32.97 515.14 31.23 M 517.40 32.22 C 517.64 33.53 518.38 33.75 519.62 32.89 C 519.37 31.57 518.63 31.35 517.40 32.22 M 524.27 33.39 C 523.08 34.94 525.99 36.04 526.94 34.85 C 528.13 33.27 525.20 32.12 524.27 33.39 M 517.45 34.12 C 517.67 35.42 518.41 35.63 519.69 34.77 C 519.46 33.47 518.72 33.25 517.45 34.12 Z" />
<path fill="#9f0100" opacity="0.78" d=" M 564.11 31.29 C 565.56 31.93 567.84 31.41 568.61 33.09 C 568.61 33.89 568.61 35.49 568.62 36.29 C 566.58 36.34 564.55 36.34 562.52 36.28 C 562.60 35.47 562.76 33.85 562.84 33.05 C 563.16 32.61 563.79 31.73 564.11 31.29 M 564.19 33.34 C 562.97 34.93 565.85 36.07 566.81 34.80 C 567.93 33.23 565.12 32.05 564.19 33.34 Z" />
<path fill="#b00606" opacity="0.90" d=" M 505.92 32.41 C 508.18 32.26 510.46 32.05 512.72 31.72 L 511.98 33.04 C 511.52 33.40 510.61 34.11 510.15 34.47 C 510.68 34.89 511.73 35.74 512.25 36.16 C 510.51 36.45 508.83 36.34 507.21 35.81 C 506.71 34.49 508.31 34.14 509.07 33.45 C 508.28 33.19 506.70 32.67 505.92 32.41 Z" />
<path fill="#e8c6b4" opacity="0.97" d=" M 512.72 31.72 L 512.84 31.69 C 513.77 33.74 514.76 35.77 515.78 37.78 C 515.26 37.77 514.20 37.73 513.67 37.71 C 513.10 36.16 512.41 34.64 511.98 33.04 L 512.72 31.72 Z" />
<path fill="#560000" opacity="0.46" d=" M 517.40 32.22 C 518.63 31.35 519.37 31.57 519.62 32.89 C 518.38 33.75 517.64 33.53 517.40 32.22 Z" />
<path fill="#b30503" opacity="0.83" d=" M 529.83 32.30 L 530.51 32.28 C 531.41 32.25 533.21 32.18 534.10 32.15 C 534.04 33.06 533.90 34.89 533.83 35.80 C 532.45 35.88 531.08 35.99 529.72 36.11 C 530.03 34.84 530.07 33.57 529.83 32.30 Z" />
<path fill="#c9140d" opacity="0.94" d=" M 545.69 32.86 C 546.54 31.98 547.61 31.65 548.90 31.88 C 547.73 33.07 547.13 34.67 546.32 36.09 C 546.05 35.02 545.84 33.95 545.69 32.86 Z" />
<path fill="#860201" opacity="0.68" d=" M 548.90 31.88 L 549.65 31.91 L 550.48 32.21 C 550.52 33.27 550.60 35.39 550.64 36.45 C 549.56 36.36 547.40 36.18 546.32 36.09 C 547.13 34.67 547.73 33.07 548.90 31.88 Z" />
<path fill="#bb0a04" opacity="0.89" d=" M 550.96 31.71 L 551.86 31.74 C 553.35 31.80 554.84 31.87 556.34 31.93 C 555.96 32.37 555.18 33.25 554.79 33.69 C 554.56 34.16 554.11 35.11 553.88 35.58 L 553.38 36.62 C 552.93 34.81 552.03 33.20 550.96 31.71 Z" />
<path fill="#ffffff" opacity="1.00" d=" M 87.09 33.44 C 109.48 33.59 131.87 33.42 154.26 33.53 C 154.24 41.43 154.26 49.34 154.25 57.25 C 148.17 57.24 142.10 57.27 136.02 57.23 C 135.97 88.82 136.01 120.41 136.00 152.00 C 125.74 151.97 115.47 152.05 105.21 151.96 C 105.27 120.38 105.28 88.81 105.21 57.23 C 99.14 57.27 93.07 57.24 87.00 57.25 C 87.05 49.31 86.89 41.38 87.09 33.44 Z" />
<path fill="#ffff00" opacity="1.00" d=" M 216.21 33.46 C 229.56 33.58 242.92 33.40 256.27 33.55 C 256.22 73.03 256.27 112.52 256.25 152.00 C 247.17 152.00 238.08 152.00 229.00 152.00 C 229.00 128.99 229.00 105.99 229.00 82.98 C 228.98 80.27 228.78 77.57 228.45 74.88 C 228.24 77.63 228.14 80.39 227.79 83.12 C 224.79 106.07 221.62 129.01 218.70 151.97 C 212.24 152.03 205.78 152.00 199.32 151.99 C 195.72 126.69 192.29 101.36 188.44 76.10 C 188.57 101.40 188.47 126.70 188.50 152.00 C 179.40 151.98 170.31 152.05 161.21 151.96 C 161.26 112.50 161.28 73.03 161.20 33.57 C 174.59 33.42 187.98 33.52 201.36 33.51 C 204.07 51.66 206.22 69.92 209.43 87.98 C 209.43 86.00 209.57 84.03 209.85 82.07 C 212.00 65.87 214.02 49.65 216.21 33.46 Z" />
<path fill="#ffff00" opacity="1.00" d=" M 268.73 33.55 C 278.98 33.43 289.24 33.53 299.50 33.50 C 299.53 62.35 299.47 91.20 299.53 120.04 C 299.84 124.04 299.40 128.14 300.41 132.06 C 301.38 135.44 307.15 135.01 307.68 131.50 C 308.58 127.05 308.13 122.47 308.48 117.97 C 308.52 89.81 308.48 61.66 308.50 33.50 C 318.76 33.52 329.01 33.44 339.27 33.54 C 339.23 63.02 339.26 92.51 339.25 121.99 C 339.13 125.70 338.96 129.44 338.23 133.09 C 335.57 143.47 326.52 151.54 316.05 153.52 C 305.61 155.43 294.27 155.07 284.60 150.32 C 276.81 146.91 270.80 139.57 269.50 131.11 C 268.54 123.43 268.77 115.68 268.75 107.96 C 268.74 83.16 268.77 58.35 268.73 33.55 Z" />
<path fill="#1c0000" opacity="0.18" d=" M 564.19 33.34 C 565.12 32.05 567.93 33.23 566.81 34.80 C 565.85 36.07 562.97 34.93 564.19 33.34 Z" />
<path fill="#ffffff" opacity="1.00" d=" M 9.21 33.55 C 21.82 33.44 34.43 33.50 47.04 33.51 C 55.40 34.01 64.86 34.59 71.10 40.93 C 77.80 47.31 78.84 57.21 78.77 65.96 C 78.78 71.26 78.94 77.17 75.65 81.65 C 72.56 85.30 67.71 86.89 63.15 87.71 C 68.74 89.32 74.96 91.55 77.84 97.03 C 82.03 105.06 80.44 114.38 80.76 123.06 C 80.80 130.97 80.91 140.02 75.31 146.29 C 70.09 151.70 61.98 151.38 55.05 151.94 C 39.78 152.06 24.50 151.99 9.22 151.97 C 9.25 112.50 9.28 73.02 9.21 33.55 M 40.00 53.95 C 40.03 62.57 39.93 71.20 40.06 79.82 C 43.28 79.76 48.42 80.38 49.14 76.08 C 49.96 70.14 50.25 63.90 49.10 58.00 C 48.19 53.78 43.40 53.87 40.00 53.95 M 40.00 98.67 C 40.01 109.65 39.97 120.62 40.02 131.60 C 43.38 131.37 48.41 131.42 49.23 127.24 C 50.43 119.26 50.15 111.05 49.40 103.03 C 48.83 98.55 43.38 98.88 40.00 98.67 Z" />
<path fill="#ffff00" opacity="1.00" d=" M 351.22 151.97 C 351.35 112.46 351.09 72.94 351.35 33.44 C 363.89 33.60 376.43 33.41 388.98 33.53 C 396.79 33.96 405.37 35.02 411.37 40.56 C 417.90 47.24 417.52 57.28 417.50 65.95 C 417.22 74.34 418.36 82.91 416.18 91.12 C 414.82 96.96 409.56 101.05 404.00 102.61 C 396.90 104.92 389.36 104.14 382.02 104.23 C 381.97 120.15 382.02 136.08 382.00 152.00 C 371.74 151.98 361.48 152.04 351.22 151.97 M 382.00 53.91 C 382.01 63.88 381.96 73.85 382.03 83.82 C 384.51 83.64 387.39 84.19 389.43 82.39 C 391.40 80.50 391.36 77.51 391.54 74.99 C 391.77 69.33 392.13 63.55 390.97 57.98 C 390.07 53.98 385.25 53.99 382.00 53.91 Z" />
<path fill="#4b0000" opacity="0.47" d=" M 517.45 34.12 C 518.72 33.25 519.46 33.47 519.69 34.77 C 518.41 35.63 517.67 35.42 517.45 34.12 Z" />
<path fill="#669b47" opacity="0.79" d=" M 518.17 36.25 C 518.90 36.31 520.36 36.43 521.09 36.49 L 520.92 36.99 C 520.64 37.47 520.06 38.41 519.78 38.89 C 519.25 38.58 518.20 37.96 517.68 37.65 C 517.80 37.30 518.05 36.60 518.17 36.25 Z" />
<path fill="#e2783f" opacity="0.95" d=" M 555.72 36.10 L 556.58 36.37 L 557.03 37.35 L 556.83 38.24 L 556.04 38.36 L 555.22 37.75 C 555.34 37.34 555.60 36.51 555.72 36.10 Z" />
<path fill="#929714" opacity="0.75" d=" M 505.82 37.63 C 508.43 37.34 511.06 37.52 513.67 37.71 C 514.20 37.73 515.26 37.77 515.78 37.78 C 516.41 37.76 517.04 37.72 517.68 37.65 C 518.20 37.96 519.25 38.58 519.78 38.89 L 521.54 39.71 C 520.82 39.85 519.39 40.14 518.67 40.29 C 517.65 40.30 516.65 40.30 515.65 40.26 C 512.58 40.05 509.51 40.16 506.45 40.38 C 506.29 39.69 505.98 38.32 505.82 37.63 Z" />
<path fill="#68ff72" opacity="1.00" d=" M 519.78 38.89 C 520.06 38.41 520.64 37.47 520.92 36.99 C 522.46 37.26 524.01 37.53 525.57 37.71 C 526.19 38.36 526.81 39.01 527.47 39.63 C 529.38 39.91 531.31 40.06 533.24 40.28 C 533.34 41.07 533.53 42.66 533.63 43.45 C 531.35 43.39 529.07 43.42 526.79 43.36 C 524.82 42.60 523.03 41.46 521.25 40.36 C 522.21 40.34 524.12 40.30 525.08 40.28 L 524.70 39.39 C 524.56 37.47 522.08 37.79 522.13 39.61 L 521.54 39.71 L 519.78 38.89 Z" />
<path fill="#ffff00" opacity="1.00" d=" M 525.57 37.71 C 530.79 37.30 536.01 37.94 541.23 37.54 C 541.43 38.04 541.84 39.04 542.04 39.54 C 541.71 39.49 541.03 39.40 540.70 39.35 C 540.20 39.21 539.22 38.92 538.73 38.77 C 538.27 39.08 537.34 39.68 536.88 39.98 L 535.87 39.14 C 535.37 39.32 534.36 39.68 533.86 39.86 C 533.39 39.43 532.45 38.57 531.98 38.14 C 531.86 38.53 531.61 39.30 531.49 39.68 C 531.01 39.70 530.05 39.73 529.57 39.75 C 529.22 39.23 528.51 38.20 528.15 37.69 C 527.98 38.17 527.64 39.15 527.47 39.63 C 526.81 39.01 526.19 38.36 525.57 37.71 Z" />
<path fill="#a9d62f" opacity="0.88" d=" M 550.42 37.26 C 551.05 37.33 552.33 37.46 552.96 37.52 C 552.66 37.96 552.04 38.85 551.73 39.29 L 551.00 39.41 C 550.85 38.88 550.56 37.80 550.42 37.26 Z" />
<path fill="#ffff00" opacity="1.00" d=" M 557.03 37.35 C 558.00 37.48 558.98 37.59 559.97 37.69 C 560.80 37.85 562.46 38.16 563.29 38.32 C 563.03 38.82 562.52 39.83 562.27 40.33 C 560.31 39.02 557.92 39.45 555.85 40.24 C 555.37 39.98 554.39 39.45 553.91 39.19 C 553.81 38.89 553.63 38.30 553.54 38.01 L 555.22 37.75 L 556.04 38.36 L 556.28 38.88 L 556.80 38.80 L 556.83 38.24 L 557.03 37.35 Z" />
<path fill="#d3e32a" opacity="0.96" d=" M 522.13 39.61 C 522.08 37.79 524.56 37.47 524.70 39.39 C 524.06 39.44 522.77 39.55 522.13 39.61 Z" />
<path fill="#9bb927" opacity="0.84" d=" M 542.92 39.68 C 542.57 37.82 543.15 37.20 544.66 37.79 C 544.64 38.30 544.59 39.31 544.57 39.82 C 544.16 39.78 543.33 39.71 542.92 39.68 Z" />
<path fill="#a99f11" opacity="0.72" d=" M 545.96 38.62 L 546.58 37.90 C 548.14 36.97 550.67 39.43 548.26 40.20 C 547.04 40.39 546.27 39.86 545.96 38.62 Z" />
<path fill="#182f00" opacity="0.19" d=" M 556.04 38.36 L 556.83 38.24 L 556.80 38.80 L 556.28 38.88 L 556.04 38.36 Z" />
<path fill="#34672a" opacity="0.65" d=" M 536.88 39.98 C 537.34 39.68 538.27 39.08 538.73 38.77 C 539.22 38.92 540.20 39.21 540.70 39.35 C 539.05 40.23 537.14 41.14 537.70 43.39 C 540.54 43.55 543.39 43.19 546.19 42.69 C 546.09 43.00 545.89 43.63 545.80 43.95 L 545.21 44.23 C 542.55 44.28 539.91 44.43 537.28 44.77 C 537.17 43.17 537.06 41.57 536.88 39.98 Z" />
<path fill="#a34b4e" opacity="0.75" d=" M 515.65 40.26 C 516.65 40.30 517.65 40.30 518.67 40.29 C 525.57 46.62 536.90 49.24 545.21 44.23 L 545.80 43.95 C 548.99 43.35 551.23 40.83 553.91 39.19 L 553.78 40.81 C 553.49 41.19 552.90 41.96 552.61 42.35 C 551.95 42.89 551.28 43.41 550.60 43.91 C 544.63 47.88 536.94 50.29 529.86 48.21 C 526.84 47.48 523.83 46.47 521.23 44.75 C 520.23 44.09 519.27 43.38 518.34 42.64 C 517.41 41.87 516.51 41.08 515.65 40.26 Z" />
<path fill="#64ff74" opacity="1.00" d=" M 537.70 43.39 C 537.14 41.14 539.05 40.23 540.70 39.35 C 541.03 39.40 541.71 39.49 542.04 39.54 L 542.92 39.68 C 543.33 39.71 544.16 39.78 544.57 39.82 C 545.39 40.54 546.21 41.26 547.04 41.98 L 546.19 42.69 C 543.39 43.19 540.54 43.55 537.70 43.39 Z" />
<path fill="#070303" opacity="0.33" d=" M 550.60 43.91 C 551.28 43.41 551.95 42.89 552.61 42.35 C 554.53 42.61 556.44 42.86 558.37 43.14 C 557.22 46.33 553.00 44.46 550.60 43.91 Z" />
<path fill="#020101" opacity="0.29" d=" M 511.96 44.78 C 512.41 41.83 516.26 43.16 518.34 42.64 C 519.27 43.38 520.23 44.09 521.23 44.75 C 518.14 44.84 515.05 44.86 511.96 44.78 Z" />
<path fill="#774520" opacity="1.00" d=" M 526.79 43.36 C 529.07 43.42 531.35 43.39 533.63 43.45 C 533.67 43.72 533.73 44.27 533.77 44.55 C 531.41 44.35 529.04 44.13 526.79 43.36 Z" />
</svg>
