<?xml version="1.0" encoding="UTF-8" ?>
<!DOCTYPE svg PUBLIC "-//W3C//DTD SVG 1.1//EN" "http://www.w3.org/Graphics/SVG/1.1/DTD/svg11.dtd">
<svg width="533pt" height="133pt" viewBox="0 0 533 133" version="1.1" xmlns="http://www.w3.org/2000/svg">
<path fill="#a72a32" opacity="0.78" d=" M 491.29 17.90 C 494.40 6.88 508.04 0.08 518.63 4.56 C 526.51 7.03 531.88 14.52 533.00 22.54 L 533.00 23.92 C 532.37 28.19 531.01 32.47 528.24 35.86 C 527.94 35.59 527.33 35.04 527.03 34.77 C 531.40 29.05 532.18 20.78 528.36 14.57 C 523.56 6.27 512.34 2.93 503.64 6.75 C 495.37 10.01 490.48 19.56 492.68 28.20 C 492.06 24.79 491.92 21.31 491.29 17.90 Z" />
<path fill="#43ff4e" opacity="1.00" d=" M 499.17 10.63 C 502.17 8.43 505.66 7.08 509.35 6.55 C 509.33 7.37 509.30 9.02 509.29 9.84 C 507.19 9.73 505.04 10.29 503.47 11.74 C 502.88 12.19 502.30 12.64 501.73 13.09 C 501.09 12.48 499.81 11.25 499.17 10.63 Z" />
<path fill="#3fff4b" opacity="1.00" d=" M 512.47 6.49 C 520.57 6.65 528.60 12.74 528.99 21.20 C 527.74 20.87 526.47 20.77 525.20 20.89 C 524.93 19.85 524.74 18.80 524.41 17.79 C 523.21 12.55 517.54 9.37 512.41 9.96 C 512.42 9.09 512.45 7.36 512.47 6.49 Z" />
<path fill="#324e1b" opacity="0.69" d=" M 503.47 11.74 C 505.04 10.29 507.19 9.73 509.29 9.84 C 508.41 11.51 505.29 12.08 503.47 11.74 Z" />
<path fill="#45802b" opacity="0.82" d=" M 512.41 9.96 C 517.54 9.37 523.21 12.55 524.41 17.79 L 523.21 17.16 L 523.00 16.52 C 521.45 12.13 516.35 11.11 512.41 9.96 Z" />
<path fill="#59ff61" opacity="1.00" d=" M 493.61 21.59 C 494.31 17.45 496.15 13.58 499.17 10.63 C 499.81 11.25 501.09 12.48 501.73 13.09 C 500.83 14.14 499.94 15.19 499.04 16.22 C 500.64 16.36 502.25 16.48 503.87 16.58 C 503.77 19.45 503.63 22.32 503.43 25.18 C 503.10 23.31 502.77 21.45 502.46 19.58 C 501.25 19.60 500.05 19.60 498.85 19.54 C 498.67 18.96 498.30 17.81 498.12 17.23 C 497.86 18.77 497.57 20.29 497.31 21.82 C 496.38 21.76 494.54 21.65 493.61 21.59 Z" />
<path fill="#4dff57" opacity="1.00" d=" M 511.08 21.35 C 511.30 19.59 511.54 17.83 511.77 16.07 C 515.51 16.18 519.26 16.26 523.00 16.52 L 523.21 17.16 C 523.25 17.89 523.32 19.33 523.36 20.05 C 522.00 21.54 520.57 22.97 519.09 24.33 C 517.97 23.23 516.87 22.12 515.74 21.04 L 515.32 20.64 C 513.90 20.89 512.49 21.12 511.08 21.35 Z" />
<path fill="#b85358" opacity="0.80" d=" M 491.29 17.90 C 491.92 21.31 492.06 24.79 492.68 28.20 C 494.81 35.41 501.41 40.98 508.88 41.84 C 515.63 42.82 522.72 40.06 527.03 34.77 C 527.33 35.04 527.94 35.59 528.24 35.86 C 523.99 40.88 517.52 43.85 510.99 44.05 C 504.21 43.40 497.47 40.10 493.66 34.30 C 490.67 29.49 488.87 23.34 491.29 17.90 Z" />
<path fill="#68ff6f" opacity="1.00" d=" M 498.85 19.54 C 500.05 19.60 501.25 19.60 502.46 19.58 C 502.77 21.45 503.10 23.31 503.43 25.18 C 505.42 24.85 507.42 24.55 509.43 24.29 C 509.60 25.76 509.77 27.23 509.96 28.70 C 506.44 29.31 502.88 29.65 499.33 29.97 C 499.15 26.49 498.78 23.02 498.85 19.54 Z" />
<path fill="#5aff62" opacity="1.00" d=" M 515.74 21.04 C 516.87 22.12 517.97 23.23 519.09 24.33 L 519.60 24.84 C 520.91 24.64 522.22 24.43 523.54 24.22 C 523.54 26.15 523.55 28.08 523.58 30.02 C 519.45 30.20 515.35 29.65 511.23 29.72 C 511.21 28.73 511.18 26.74 511.17 25.75 C 512.70 24.19 514.22 22.62 515.74 21.04 Z" />
<path fill="#2f5d1d" opacity="0.58" d=" M 525.20 20.89 C 526.47 20.77 527.74 20.87 528.99 21.20 C 528.77 22.77 524.88 22.55 525.20 20.89 Z" />
<path fill="#48ff53" opacity="1.00" d=" M 525.55 23.77 C 526.81 23.73 528.08 23.68 529.36 23.64 C 529.07 25.63 528.75 27.60 528.35 29.57 C 527.13 29.15 525.91 28.73 524.69 28.31 C 524.96 26.79 525.26 25.28 525.55 23.77 Z" />
<path fill="#ffffff" opacity="1.00" d=" M 7.99 28.00 C 12.87 24.08 19.58 23.51 25.52 24.76 C 32.27 26.31 37.72 32.14 38.99 38.92 C 40.73 47.42 40.16 56.14 40.25 64.75 C 34.42 64.75 28.58 64.75 22.75 64.75 C 22.61 57.01 23.15 49.21 22.18 41.51 C 21.96 39.66 19.75 39.22 18.54 40.48 C 17.49 42.82 17.66 45.47 17.50 47.98 C 17.49 62.32 17.52 76.66 17.49 91.01 C 17.53 93.59 17.54 96.22 18.16 98.75 C 18.63 101.01 22.11 100.36 22.12 98.17 C 23.05 91.58 22.66 84.88 22.75 78.25 C 28.58 78.25 34.42 78.24 40.25 78.25 C 40.25 85.59 40.45 93.00 39.11 100.25 C 37.71 107.66 31.66 114.25 24.10 115.50 C 17.67 116.48 10.30 115.26 5.78 110.21 C 0.82 105.21 0.67 97.73 0.00 91.16 L 0.00 46.86 C 0.19 39.92 2.32 32.45 7.99 28.00 Z" />
<path fill="#ffffff" opacity="1.00" d=" M 137.56 32.52 C 144.24 21.34 162.74 21.39 169.78 32.16 C 172.63 36.13 173.16 41.13 173.58 45.85 C 173.97 52.13 174.09 58.43 173.97 64.72 C 168.07 64.77 162.17 64.77 156.28 64.72 C 156.15 57.85 156.39 50.96 156.17 44.09 C 155.95 42.60 156.09 39.96 154.06 39.76 C 151.24 39.59 151.41 43.06 151.26 45.01 C 151.24 61.69 151.24 78.38 151.26 95.06 C 151.42 96.87 151.25 99.12 153.04 100.20 C 154.57 100.36 155.69 99.42 155.84 97.91 C 156.66 91.39 156.07 84.80 156.25 78.25 C 162.16 78.26 168.07 78.22 173.98 78.28 C 173.97 85.20 173.93 92.17 172.96 99.04 C 171.96 106.88 165.79 114.06 157.89 115.46 C 151.53 116.51 144.30 115.28 139.64 110.53 C 134.56 105.38 134.13 97.70 133.72 90.89 C 133.22 78.62 133.64 66.32 133.49 54.04 C 133.69 46.74 133.34 38.87 137.56 32.52 Z" />
<path fill="#ffffff" opacity="1.00" d=" M 195.51 24.62 C 201.37 23.48 207.93 24.39 212.54 28.43 C 217.41 32.77 219.56 39.48 219.71 45.87 C 220.31 58.91 219.85 71.98 220.01 85.03 C 219.80 92.73 220.26 101.08 215.78 107.79 C 210.57 116.34 198.15 118.08 189.93 113.05 C 185.04 109.97 182.22 104.44 181.19 98.89 C 180.17 91.98 180.58 84.98 180.50 78.02 C 180.55 68.03 180.39 58.04 180.58 48.06 C 180.67 42.42 181.61 36.58 184.86 31.83 C 187.34 28.20 191.16 25.46 195.51 24.62 M 199.20 40.18 C 197.92 42.20 198.18 44.73 198.00 47.01 C 197.99 62.01 198.01 77.01 198.00 92.00 C 198.06 94.21 198.08 96.43 198.48 98.61 C 198.68 100.43 201.51 100.85 201.77 98.82 C 202.92 90.96 202.35 82.94 202.50 75.01 C 202.35 64.35 202.85 53.67 202.15 43.02 C 202.25 41.34 201.26 38.62 199.20 40.18 Z" />
<path fill="#ffff26" opacity="1.00" d=" M 308.87 32.85 C 315.12 21.97 332.53 21.18 340.26 30.78 C 342.88 33.89 344.21 37.87 344.68 41.86 C 345.61 49.44 345.56 57.10 345.46 64.73 C 339.58 64.78 333.70 64.74 327.82 64.76 C 327.56 57.49 328.00 50.21 327.59 42.95 C 327.62 41.46 326.88 39.48 325.03 39.71 C 322.72 40.36 322.99 43.09 322.78 44.96 C 322.73 61.66 322.73 78.36 322.78 95.06 C 322.85 97.18 322.99 100.63 326.01 100.21 C 327.56 98.96 327.50 96.85 327.67 95.07 C 327.89 89.46 327.63 83.85 327.80 78.25 C 333.69 78.26 339.58 78.22 345.46 78.27 C 345.56 85.21 345.42 92.19 344.49 99.08 C 343.55 106.57 337.84 113.37 330.48 115.25 C 323.22 116.83 314.54 115.23 309.85 109.01 C 305.38 103.01 305.56 95.12 305.10 88.01 C 304.87 76.68 305.07 65.34 305.00 54.01 C 305.26 46.85 304.82 39.14 308.87 32.85 Z" />
<path fill="#ffff26" opacity="1.00" d=" M 399.63 28.73 C 404.44 24.14 411.63 23.54 417.89 24.65 C 423.63 25.83 429.32 29.85 430.60 35.86 C 431.80 41.55 431.73 47.41 431.76 53.20 C 426.25 53.29 420.75 53.27 415.25 53.21 C 414.72 48.84 416.48 43.70 413.96 39.86 C 413.48 39.95 412.51 40.13 412.03 40.22 C 409.59 45.27 410.02 52.73 414.84 56.37 C 421.94 62.57 430.66 68.91 432.04 78.94 C 433.21 87.24 433.57 95.86 431.67 104.07 C 429.30 112.79 419.20 117.01 410.81 115.60 C 403.99 114.85 397.60 109.91 395.94 103.12 C 394.31 96.22 394.45 89.06 394.55 82.01 C 400.02 82.00 405.50 81.98 410.97 82.03 C 411.26 87.56 410.47 93.19 411.45 98.67 C 411.71 100.48 414.55 100.72 415.23 99.06 C 416.45 96.91 416.25 94.34 416.28 91.97 C 416.12 88.67 416.13 84.91 413.67 82.38 C 408.78 76.95 402.69 72.69 398.15 66.93 C 394.13 60.72 393.85 52.97 394.06 45.81 C 394.35 39.83 394.91 33.03 399.63 28.73 Z" />
<path fill="#76ff7c" opacity="1.00" d=" M 493.74 24.58 C 494.60 24.56 496.30 24.53 497.16 24.52 C 498.04 27.95 499.25 31.65 502.31 33.77 C 504.48 35.51 507.28 35.99 509.94 36.54 C 509.88 37.73 509.83 38.91 509.80 40.10 C 505.99 39.53 502.06 38.50 499.16 35.82 C 495.83 33.03 494.27 28.77 493.74 24.58 Z" />
<path fill="#ffffff" opacity="1.00" d=" M 52.06 26.00 C 60.40 26.00 68.74 26.00 77.07 26.00 C 80.34 55.30 83.57 84.60 86.85 113.90 C 80.83 114.10 74.82 113.96 68.80 114.00 C 68.56 108.74 68.18 103.50 67.94 98.24 C 66.23 98.24 64.51 98.25 62.80 98.24 C 62.42 103.47 62.10 108.71 61.91 113.96 C 55.83 114.04 49.75 113.99 43.67 113.99 C 46.30 84.65 49.32 55.34 52.06 26.00 M 65.35 52.18 C 64.04 62.07 63.36 72.04 62.69 81.99 C 64.22 82.00 65.76 82.00 67.29 82.00 C 66.59 72.06 65.95 62.12 65.35 52.18 Z" />
<path fill="#ffffff" opacity="1.00" d=" M 91.24 26.00 C 98.20 26.03 105.17 25.93 112.13 26.04 C 116.68 26.28 121.76 27.49 124.59 31.37 C 127.99 36.21 127.85 42.39 128.01 48.03 C 127.83 54.88 128.48 61.79 127.32 68.58 C 126.79 71.99 124.96 75.32 121.87 77.01 C 117.94 79.39 113.16 79.02 108.75 79.00 C 108.76 90.66 108.75 102.33 108.76 113.99 C 102.92 114.00 97.08 114.00 91.24 114.00 C 91.25 84.66 91.25 55.33 91.24 26.00 M 108.78 41.54 C 108.74 48.87 108.72 56.20 108.80 63.53 C 110.17 62.94 112.28 62.84 112.63 61.03 C 113.46 55.45 113.62 49.64 112.65 44.07 C 112.37 42.18 110.20 42.09 108.78 41.54 Z" />
<path fill="#ffffff" opacity="1.00" d=" M 227.75 26.00 C 235.27 26.00 242.80 26.00 250.32 26.00 C 251.73 38.01 252.72 50.07 254.41 62.04 C 255.45 50.02 256.71 38.02 257.81 26.00 C 265.38 26.05 272.95 25.88 280.52 26.09 C 280.48 55.37 280.51 84.65 280.50 113.93 C 275.34 114.08 270.17 113.97 265.00 114.00 C 264.74 97.21 265.57 80.38 264.47 63.61 C 263.72 80.47 261.30 97.19 259.92 114.00 C 256.12 114.00 252.33 114.01 248.53 113.98 C 246.90 97.77 244.87 81.60 243.51 65.36 C 242.92 81.56 243.42 97.79 243.25 114.00 C 238.10 114.00 232.95 114.00 227.80 114.00 C 227.69 84.67 227.78 55.33 227.75 26.00 Z" />
<path fill="#ffff26" opacity="1.00" d=" M 352.49 26.01 C 359.69 26.05 366.89 25.87 374.08 26.09 C 379.57 26.23 385.60 28.85 387.51 34.39 C 390.25 42.29 388.92 50.83 389.26 59.02 C 389.13 64.75 389.48 71.67 384.78 75.83 C 380.74 79.40 375.02 79.08 370.00 79.00 C 370.00 90.67 370.00 102.33 370.00 114.00 C 364.16 114.00 358.33 114.01 352.49 113.99 C 352.50 84.66 352.50 55.34 352.49 26.01 M 370.03 41.53 C 369.98 48.84 369.98 56.15 370.03 63.46 C 371.49 63.02 373.60 62.80 373.91 60.92 C 374.78 55.38 374.82 49.62 373.95 44.08 C 373.66 42.22 371.41 42.10 370.03 41.53 Z" />
<path fill="#ffff26" opacity="1.00" d=" M 471.26 26.02 C 474.68 25.98 478.10 25.99 481.53 26.04 C 481.46 55.34 481.54 84.65 481.48 113.96 C 475.82 114.02 470.16 114.05 464.50 113.93 C 464.44 94.65 464.62 75.36 464.41 56.08 C 464.40 50.21 457.26 51.13 453.27 50.93 C 453.23 47.35 453.25 43.76 453.23 40.17 C 460.79 38.00 467.43 32.93 471.26 26.02 Z" />
<path fill="#65ff6d" opacity="1.00" d=" M 524.69 28.31 C 525.91 28.73 527.13 29.15 528.35 29.57 C 525.99 35.79 519.89 39.54 513.45 40.23 C 513.37 39.02 513.29 37.80 513.22 36.59 C 518.23 36.05 522.79 33.06 524.69 28.31 Z" />
</svg>
