<?xml version="1.0" encoding="UTF-8" ?>
<!DOCTYPE svg PUBLIC "-//W3C//DTD SVG 1.1//EN" "http://www.w3.org/Graphics/SVG/1.1/DTD/svg11.dtd">
<svg width="533pt" height="133pt" viewBox="0 0 533 133" version="1.1" xmlns="http://www.w3.org/2000/svg">
<path fill="#a72a32" opacity="0.78" d=" M 491.29 17.84 C 494.45 6.89 508.01 0.10 518.59 4.54 C 526.50 7.01 531.89 14.51 533.00 22.56 L 533.00 23.92 C 532.36 28.27 530.95 32.63 528.07 36.04 C 527.88 35.66 527.49 34.91 527.30 34.54 C 530.83 29.28 532.10 22.34 529.33 16.47 C 525.28 6.93 513.03 2.60 503.68 6.74 C 495.41 9.97 490.46 19.51 492.69 28.14 C 492.10 24.73 491.79 21.27 491.29 17.84 Z" />
<path fill="#43ff4e" opacity="1.00" d=" M 499.16 10.62 C 502.17 8.44 505.67 7.10 509.34 6.52 C 509.33 7.33 509.31 8.96 509.30 9.78 C 507.18 9.79 505.01 10.36 503.40 11.79 C 502.85 12.21 502.30 12.64 501.76 13.06 C 501.11 12.45 499.81 11.23 499.16 10.62 Z" />
<path fill="#3fff4b" opacity="1.00" d=" M 512.48 6.46 C 520.55 6.71 528.63 12.71 528.95 21.20 C 527.73 20.86 526.49 20.75 525.24 20.88 C 524.95 19.88 524.74 18.88 524.42 17.90 C 523.28 12.56 517.58 9.45 512.41 9.91 C 512.43 9.05 512.46 7.32 512.48 6.46 Z" />
<path fill="#324e1b" opacity="0.69" d=" M 503.40 11.79 C 505.01 10.36 507.18 9.79 509.30 9.78 C 508.42 11.52 505.26 12.10 503.40 11.79 Z" />
<path fill="#45802b" opacity="0.82" d=" M 512.41 9.91 C 517.58 9.45 523.28 12.56 524.42 17.90 L 523.27 17.01 L 523.03 16.51 C 521.37 12.13 516.36 11.13 512.41 9.91 Z" />
<path fill="#59ff61" opacity="1.00" d=" M 493.60 21.70 C 494.28 17.52 496.13 13.61 499.16 10.62 C 499.81 11.23 501.11 12.45 501.76 13.06 C 500.83 14.11 499.91 15.16 499.01 16.23 C 500.62 16.35 502.24 16.47 503.86 16.57 C 503.77 19.44 503.62 22.30 503.46 25.17 C 503.13 23.31 502.81 21.45 502.50 19.59 C 501.29 19.60 500.07 19.60 498.86 19.55 C 498.67 18.97 498.29 17.82 498.09 17.25 C 497.85 18.81 497.55 20.36 497.29 21.91 C 496.37 21.86 494.52 21.75 493.60 21.70 Z" />
<path fill="#4dff57" opacity="1.00" d=" M 511.08 21.36 C 511.30 19.59 511.53 17.83 511.77 16.07 C 515.52 16.18 519.28 16.27 523.03 16.51 L 523.27 17.01 C 523.30 17.77 523.34 19.30 523.36 20.07 C 522.00 21.53 520.59 22.95 519.08 24.25 C 517.93 23.22 516.83 22.14 515.73 21.06 L 515.31 20.65 C 513.90 20.89 512.49 21.13 511.08 21.36 Z" />
<path fill="#b85358" opacity="0.80" d=" M 491.29 17.84 C 491.79 21.27 492.10 24.73 492.69 28.14 C 494.92 36.12 502.75 41.96 511.01 42.01 C 517.26 42.30 523.33 39.30 527.30 34.54 C 527.49 34.91 527.88 35.66 528.07 36.04 C 523.84 40.96 517.44 43.85 511.00 44.04 C 504.21 43.41 497.46 40.10 493.65 34.29 C 490.64 29.47 488.89 23.31 491.29 17.84 Z" />
<path fill="#68ff6f" opacity="1.00" d=" M 498.86 19.55 C 500.07 19.60 501.29 19.60 502.50 19.59 C 502.81 21.45 503.13 23.31 503.46 25.17 C 505.43 24.84 507.41 24.56 509.40 24.29 C 509.60 25.75 509.80 27.21 510.03 28.66 C 506.49 29.31 502.91 29.64 499.33 29.98 C 499.15 26.50 498.78 23.03 498.86 19.55 Z" />
<path fill="#5aff62" opacity="1.00" d=" M 515.73 21.06 C 516.83 22.14 517.93 23.22 519.08 24.25 C 520.30 25.43 522.12 24.18 523.57 24.27 C 523.54 26.22 523.53 28.17 523.55 30.11 C 519.44 30.07 515.34 29.72 511.23 29.72 C 511.22 28.73 511.18 26.75 511.17 25.76 C 512.69 24.19 514.21 22.63 515.73 21.06 Z" />
<path fill="#2f5d1d" opacity="0.58" d=" M 525.24 20.88 C 526.49 20.75 527.73 20.86 528.95 21.20 C 528.77 22.79 524.91 22.55 525.24 20.88 Z" />
<path fill="#48ff53" opacity="1.00" d=" M 525.54 23.77 C 526.82 23.73 528.09 23.68 529.38 23.65 C 529.07 25.64 528.73 27.62 528.35 29.60 C 527.13 29.16 525.92 28.72 524.71 28.28 C 524.98 26.78 525.26 25.27 525.54 23.77 Z" />
<path fill="#ffffff" opacity="1.00" d=" M 7.11 29.22 C 16.09 20.37 33.83 23.33 38.43 35.45 C 41.60 44.85 40.57 54.97 40.72 64.72 C 34.90 64.78 29.07 64.74 23.25 64.75 C 23.19 57.21 23.47 49.64 22.81 42.11 C 22.90 40.24 20.70 39.00 19.20 40.28 C 17.89 42.23 18.29 44.79 18.02 47.01 C 17.97 61.98 18.02 76.96 17.99 91.93 C 18.09 94.34 18.02 96.85 18.81 99.15 C 19.78 101.07 22.77 100.00 22.69 97.98 C 23.40 91.44 23.22 84.82 23.25 78.25 C 29.08 78.25 34.92 78.25 40.75 78.25 C 40.79 85.19 40.86 92.17 39.83 99.06 C 39.02 105.18 35.15 110.80 29.74 113.76 C 25.18 116.15 19.72 116.24 14.78 115.13 C 8.68 113.78 3.66 108.77 2.12 102.73 C 0.88 97.93 0.59 92.93 0.49 87.99 C 0.55 74.26 0.41 60.53 0.56 46.80 C 0.63 40.44 2.43 33.76 7.11 29.22 Z" />
<path fill="#ffffff" opacity="1.00" d=" M 138.23 32.27 C 144.88 21.59 162.37 21.47 169.74 31.41 C 173.00 35.54 173.69 40.98 174.08 46.06 C 174.43 52.28 174.62 58.50 174.46 64.73 C 168.58 64.78 162.69 64.75 156.80 64.75 C 156.65 58.06 156.86 51.37 156.69 44.69 C 156.47 42.83 156.73 39.82 154.17 39.64 C 151.70 40.16 151.94 42.99 151.77 44.94 C 151.72 61.30 151.78 77.66 151.74 94.03 C 151.76 96.65 151.61 100.30 155.12 100.47 C 155.89 99.09 156.60 97.64 156.58 96.02 C 156.96 90.10 156.65 84.17 156.75 78.25 C 162.66 78.25 168.56 78.22 174.47 78.27 C 174.43 85.21 174.43 92.20 173.44 99.09 C 172.39 106.98 166.13 114.23 158.12 115.50 C 151.47 116.54 143.85 115.04 139.36 109.67 C 134.96 104.53 134.65 97.43 134.20 91.01 C 133.75 78.68 134.13 66.34 133.99 54.01 C 134.15 46.63 133.85 38.63 138.23 32.27 Z" />
<path fill="#ffffff" opacity="1.00" d=" M 195.57 24.72 C 201.43 23.47 208.09 24.23 212.79 28.22 C 217.63 32.36 219.87 38.85 220.17 45.07 C 220.82 58.36 220.36 71.68 220.51 84.98 C 220.27 92.78 220.76 101.27 216.11 108.01 C 211.22 115.88 200.08 117.76 192.07 113.93 C 186.20 111.21 182.77 104.99 181.68 98.83 C 180.61 91.62 181.11 84.31 181.00 77.06 C 181.17 66.01 180.62 54.94 181.34 43.92 C 181.81 35.55 186.85 26.58 195.57 24.72 M 200.05 39.78 C 198.37 41.41 198.76 43.95 198.52 46.07 C 198.50 62.05 198.47 78.03 198.53 94.00 C 198.89 95.97 198.18 98.72 200.03 100.06 C 201.83 100.76 202.58 98.52 202.61 97.16 C 203.23 86.46 202.93 75.73 203.00 65.01 C 202.94 57.39 203.23 49.75 202.56 42.14 C 202.43 40.72 201.69 39.41 200.05 39.78 Z" />
<path fill="#ffff26" opacity="1.00" d=" M 315.52 26.74 C 319.95 23.93 325.49 23.79 330.51 24.62 C 337.95 26.03 343.83 32.57 344.88 40.00 C 346.17 48.17 346.02 56.48 345.97 64.72 C 340.07 64.77 334.17 64.77 328.28 64.72 C 328.15 57.88 328.38 51.02 328.17 44.18 C 327.90 42.67 328.20 39.87 326.03 39.76 C 323.33 39.66 323.44 43.06 323.27 44.96 C 323.21 60.64 323.29 76.32 323.24 92.00 C 323.25 94.27 323.19 96.59 323.79 98.80 C 324.35 100.79 327.39 100.54 327.68 98.52 C 328.85 91.85 327.96 85.01 328.28 78.28 C 334.17 78.23 340.07 78.23 345.98 78.28 C 345.99 85.21 345.95 92.19 344.96 99.06 C 343.95 107.16 337.34 114.54 329.10 115.58 C 322.94 116.40 316.06 115.09 311.61 110.47 C 308.31 107.19 306.94 102.54 306.35 98.04 C 305.13 88.42 305.58 78.70 305.50 69.02 C 305.57 60.27 305.22 51.50 306.03 42.77 C 306.74 36.45 309.84 29.99 315.52 26.74 Z" />
<path fill="#ffff26" opacity="1.00" d=" M 406.85 24.95 C 414.69 22.96 424.52 24.50 429.30 31.65 C 432.97 38.15 431.92 46.05 432.25 53.23 C 426.75 53.26 421.25 53.26 415.76 53.23 C 415.40 48.88 416.61 44.18 414.81 40.06 C 412.91 38.83 411.55 41.25 411.43 42.84 C 411.05 46.97 410.69 51.92 413.98 55.06 C 419.46 60.18 425.76 64.66 429.79 71.12 C 433.40 77.44 433.27 85.00 433.50 92.05 C 433.16 97.51 433.36 103.47 430.28 108.24 C 422.80 118.98 403.82 118.30 397.71 106.50 C 394.41 98.82 395.11 90.19 395.03 82.02 C 400.51 81.99 405.99 81.98 411.47 82.03 C 411.69 87.35 411.15 92.71 411.76 98.01 C 411.65 99.94 413.74 99.93 415.05 100.34 C 417.73 95.52 417.11 89.44 415.56 84.36 C 410.61 77.18 402.34 72.90 397.72 65.43 C 393.57 56.91 394.08 46.96 395.39 37.83 C 396.28 31.75 400.92 26.55 406.85 24.95 Z" />
<path fill="#ffff26" opacity="1.00" d=" M 459.27 32.26 C 465.08 21.13 483.44 22.10 489.28 32.73 C 494.85 42.17 493.45 53.94 490.17 63.92 C 485.85 75.81 480.06 87.09 474.65 98.50 C 480.26 98.50 485.88 98.50 491.50 98.50 C 491.49 103.66 491.54 108.83 491.46 113.99 C 479.47 114.00 467.48 114.02 455.49 113.98 C 455.96 109.40 455.30 104.70 456.14 100.19 C 462.01 86.65 468.29 73.28 473.68 59.53 C 475.42 54.90 477.00 50.11 477.19 45.13 C 476.99 42.81 477.01 39.16 474.01 38.72 C 472.31 38.84 471.36 40.45 471.19 41.98 C 470.38 46.85 470.90 51.81 470.73 56.72 C 465.65 56.77 460.58 56.77 455.50 56.73 C 455.85 48.52 454.89 39.64 459.27 32.26 Z" />
<path fill="#76ff7c" opacity="1.00" d=" M 493.73 24.58 C 494.58 24.56 496.29 24.53 497.14 24.51 C 498.05 27.90 499.22 31.57 502.22 33.70 C 504.41 35.49 507.26 35.97 509.95 36.56 C 509.89 37.75 509.83 38.93 509.79 40.12 C 505.75 39.49 501.57 38.33 498.63 35.33 C 495.61 32.56 494.29 28.53 493.73 24.58 Z" />
<path fill="#ffffff" opacity="1.00" d=" M 52.57 26.00 C 60.90 26.01 69.24 25.99 77.58 26.01 C 80.80 55.34 84.14 84.65 87.27 113.99 C 81.28 114.01 75.29 114.00 69.30 114.00 C 69.06 108.75 68.66 103.51 68.45 98.26 C 66.73 98.25 65.02 98.24 63.31 98.22 C 62.86 103.48 62.67 108.74 62.32 114.00 C 56.27 113.99 50.22 114.02 44.17 113.98 C 46.79 84.64 49.80 55.33 52.57 26.00 M 65.31 52.10 C 65.10 62.09 63.60 72.00 63.18 81.98 C 64.72 81.99 66.25 82.00 67.79 82.00 C 66.82 72.05 67.00 61.97 65.31 52.10 Z" />
<path fill="#ffffff" opacity="1.00" d=" M 91.75 26.00 C 98.86 26.05 105.97 25.90 113.08 26.06 C 118.53 26.26 124.63 28.61 126.62 34.13 C 129.51 42.09 128.17 50.76 128.51 59.04 C 128.31 64.63 128.73 71.25 124.40 75.48 C 120.38 79.35 114.42 79.11 109.25 79.00 C 109.23 90.67 109.31 102.33 109.20 114.00 C 103.39 114.00 97.57 114.00 91.75 114.00 C 91.75 84.67 91.75 55.33 91.75 26.00 M 109.30 63.49 C 111.00 63.15 113.11 62.47 113.26 60.41 C 113.89 55.15 114.03 49.78 113.26 44.53 C 113.20 42.41 110.88 42.06 109.30 41.52 C 109.22 48.84 109.22 56.17 109.30 63.49 Z" />
<path fill="#ffffff" opacity="1.00" d=" M 228.24 26.00 C 235.78 26.00 243.31 25.99 250.84 26.01 C 252.02 38.04 253.58 50.02 254.61 62.06 C 256.31 50.10 257.01 38.01 258.32 26.00 C 265.87 26.01 273.42 25.97 280.97 26.03 C 281.02 55.34 281.02 84.66 280.97 113.97 C 275.81 114.02 270.66 113.99 265.50 114.00 C 265.56 97.20 265.36 80.39 265.62 63.59 C 263.53 80.35 262.11 97.19 260.43 114.00 C 256.63 114.00 252.84 114.00 249.05 114.00 C 247.13 97.78 245.84 81.48 243.62 65.31 C 243.92 81.54 243.67 97.77 243.75 114.00 C 238.59 113.99 233.43 114.03 228.28 113.97 C 228.20 84.65 228.27 55.33 228.24 26.00 Z" />
<path fill="#ffff26" opacity="1.00" d=" M 353.00 26.00 C 359.70 26.02 366.39 25.97 373.09 26.01 C 377.74 26.15 382.91 27.17 386.02 30.94 C 389.37 35.17 389.53 40.85 389.75 46.00 C 389.74 51.70 389.82 57.42 389.70 63.12 C 389.40 67.70 388.94 72.98 385.05 76.03 C 381.00 79.40 375.43 79.07 370.50 79.00 C 370.50 90.67 370.49 102.33 370.51 113.99 C 364.67 114.01 358.83 114.00 353.00 114.00 C 353.00 84.67 353.00 55.33 353.00 26.00 M 370.55 41.50 C 370.48 48.84 370.46 56.19 370.55 63.53 C 372.00 62.98 374.17 62.73 374.43 60.83 C 375.29 55.58 375.20 50.15 374.62 44.87 C 374.59 42.61 372.31 42.01 370.55 41.50 Z" />
<path fill="#65ff6d" opacity="1.00" d=" M 524.71 28.28 C 525.92 28.72 527.13 29.16 528.35 29.60 C 525.96 35.80 519.88 39.52 513.46 40.24 C 513.37 39.03 513.29 37.82 513.22 36.61 C 518.23 36.03 522.81 33.06 524.71 28.28 Z" />
</svg>
