<?xml version="1.0" encoding="UTF-8" ?>
<!DOCTYPE svg PUBLIC "-//W3C//DTD SVG 1.1//EN" "http://www.w3.org/Graphics/SVG/1.1/DTD/svg11.dtd">
<svg width="533pt" height="133pt" viewBox="0 0 533 133" version="1.1" xmlns="http://www.w3.org/2000/svg">
<path fill="#a72a32" opacity="0.78" d=" M 491.24 18.00 C 494.34 6.94 507.98 0.07 518.62 4.55 C 526.48 7.02 531.83 14.47 533.00 22.45 L 533.00 23.89 C 532.36 28.30 530.94 32.74 527.96 36.15 C 527.76 35.80 527.35 35.08 527.15 34.72 C 530.84 29.45 532.13 22.38 529.31 16.42 C 525.23 6.89 512.96 2.59 503.62 6.76 C 495.38 10.02 490.51 19.51 492.66 28.12 C 491.94 24.78 492.20 21.29 491.24 18.00 Z" />
<path fill="#43ff4e" opacity="1.00" d=" M 499.22 10.59 C 502.22 8.40 505.73 7.06 509.41 6.55 C 509.34 7.39 509.20 9.09 509.13 9.93 C 507.19 9.57 505.24 10.22 503.82 11.52 C 503.12 12.05 502.42 12.57 501.73 13.09 C 501.10 12.47 499.85 11.22 499.22 10.59 Z" />
<path fill="#3fff4b" opacity="1.00" d=" M 512.48 6.47 C 520.55 6.69 528.61 12.71 528.96 21.18 C 527.73 20.86 526.49 20.78 525.24 20.94 C 524.93 19.84 524.70 18.73 524.34 17.65 C 523.17 12.43 517.47 9.42 512.41 9.94 C 512.43 9.07 512.46 7.34 512.48 6.47 Z" />
<path fill="#324e1b" opacity="0.69" d=" M 503.82 11.52 C 505.24 10.22 507.19 9.57 509.13 9.93 C 508.57 11.65 505.41 12.08 503.82 11.52 Z" />
<path fill="#45802b" opacity="0.82" d=" M 512.41 9.94 C 517.47 9.42 523.17 12.43 524.34 17.65 L 523.28 17.04 L 523.05 16.51 C 521.38 12.15 516.39 11.12 512.41 9.94 Z" />
<path fill="#59ff61" opacity="1.00" d=" M 493.63 21.75 C 494.24 17.51 496.13 13.57 499.22 10.59 C 499.85 11.22 501.10 12.47 501.73 13.09 C 500.83 14.12 499.94 15.15 499.06 16.19 C 500.67 16.36 502.32 16.52 503.96 16.68 C 503.77 19.53 503.63 22.38 503.34 25.22 C 503.06 23.29 502.82 21.35 502.58 19.41 C 501.32 19.49 500.06 19.57 498.80 19.65 C 498.68 19.08 498.42 17.93 498.29 17.36 C 497.88 19.97 497.12 23.31 493.63 21.75 Z" />
<path fill="#4dff57" opacity="1.00" d=" M 511.06 21.32 C 511.44 19.42 511.12 17.18 512.55 15.65 C 515.99 16.44 519.55 16.26 523.05 16.51 L 523.28 17.04 C 523.30 17.79 523.33 19.30 523.35 20.06 C 522.03 21.55 520.62 22.96 519.09 24.22 C 517.94 23.19 516.83 22.13 515.70 21.07 L 515.25 20.65 C 513.85 20.88 512.45 21.11 511.06 21.32 Z" />
<path fill="#b85358" opacity="0.80" d=" M 491.24 18.00 C 492.20 21.29 491.94 24.78 492.66 28.12 C 494.85 35.72 502.03 41.48 509.93 41.95 C 516.43 42.59 522.96 39.68 527.15 34.72 C 527.35 35.08 527.76 35.80 527.96 36.15 C 523.98 40.81 518.04 43.44 512.02 44.04 C 504.63 43.84 497.17 40.08 493.25 33.67 C 490.59 28.98 488.96 23.18 491.24 18.00 Z" />
<path fill="#68ff6f" opacity="1.00" d=" M 498.80 19.65 C 500.06 19.57 501.32 19.49 502.58 19.41 C 502.82 21.35 503.06 23.29 503.34 25.22 C 505.36 24.84 507.40 24.55 509.44 24.29 C 509.60 25.77 509.76 27.24 509.94 28.72 C 506.42 29.31 502.87 29.65 499.33 29.97 C 499.15 26.53 498.82 23.10 498.80 19.65 Z" />
<path fill="#5aff62" opacity="1.00" d=" M 515.70 21.07 C 516.83 22.13 517.94 23.19 519.09 24.22 C 520.29 25.47 522.13 24.17 523.59 24.27 C 523.54 26.15 523.53 28.02 523.53 29.90 C 519.44 30.31 515.34 29.61 511.24 29.72 C 511.22 28.75 511.17 26.79 511.14 25.81 C 512.65 24.23 514.18 22.66 515.70 21.07 Z" />
<path fill="#2f5d1d" opacity="0.58" d=" M 525.24 20.94 C 526.49 20.78 527.73 20.86 528.96 21.18 C 528.85 22.78 524.98 22.61 525.24 20.94 Z" />
<path fill="#48ff53" opacity="1.00" d=" M 525.60 23.71 C 526.84 23.70 528.09 23.70 529.35 23.70 C 529.06 25.65 528.74 27.60 528.36 29.54 C 527.18 29.00 526.00 28.47 524.82 27.94 C 525.06 26.52 525.33 25.11 525.60 23.71 Z" />
<path fill="#ffffff" opacity="1.00" d=" M 5.96 29.90 C 11.06 24.07 19.73 22.99 26.81 25.22 C 32.86 27.23 37.47 32.77 38.63 39.00 C 40.37 47.47 39.58 56.17 39.75 64.75 C 34.00 64.73 28.24 64.82 22.48 64.68 C 22.31 57.12 22.93 49.52 22.12 42.00 C 22.27 39.97 19.86 39.18 18.42 40.31 C 17.06 43.69 17.59 47.44 17.29 50.99 C 17.22 63.67 17.23 76.35 17.28 89.03 C 17.49 92.30 17.25 95.64 18.06 98.84 C 18.56 100.57 21.42 100.69 21.78 98.80 C 23.16 92.05 22.23 85.09 22.50 78.25 C 28.25 78.24 34.00 78.25 39.75 78.25 C 39.70 85.79 40.13 93.42 38.59 100.85 C 36.97 108.23 30.69 114.74 23.03 115.63 C 16.62 116.43 9.38 114.82 5.20 109.54 C 0.52 103.99 0.68 96.32 0.00 89.48 L 0.00 48.63 C 0.22 42.02 1.26 34.92 5.96 29.90 Z" />
<path fill="#ffffff" opacity="1.00" d=" M 144.41 25.48 C 151.43 22.93 160.25 23.91 165.63 29.44 C 168.79 32.45 170.51 36.66 171.09 40.93 C 172.21 48.81 172.05 56.81 171.94 64.75 C 166.13 64.74 160.32 64.80 154.52 64.71 C 154.44 57.82 154.57 50.93 154.47 44.04 C 154.34 42.36 154.29 39.80 152.05 39.67 C 149.55 40.14 149.79 43.16 149.55 45.08 C 149.44 61.40 149.52 77.73 149.51 94.06 C 149.71 96.08 149.40 98.55 151.09 100.04 C 153.69 100.92 154.40 97.88 154.41 95.97 C 154.64 90.08 154.40 84.18 154.53 78.28 C 160.34 78.22 166.14 78.24 171.95 78.26 C 172.09 85.17 172.00 92.12 171.06 98.98 C 170.18 105.87 165.49 112.26 158.92 114.72 C 154.32 116.25 149.19 116.15 144.60 114.61 C 139.30 112.88 135.22 108.21 133.85 102.85 C 132.16 96.40 132.27 89.67 132.00 83.05 C 132.11 69.99 131.68 56.90 132.46 43.85 C 132.93 36.28 137.02 28.32 144.41 25.48 Z" />
<path fill="#ffffff" opacity="1.00" d=" M 193.53 24.67 C 200.25 23.15 208.07 24.85 212.47 30.45 C 217.36 36.47 217.88 44.57 217.75 52.00 C 218.22 66.03 218.05 80.07 217.61 94.10 C 217.41 100.00 215.71 106.13 211.59 110.52 C 203.82 118.75 188.05 117.31 182.59 107.13 C 178.48 100.53 179.08 92.50 178.75 85.07 C 178.76 74.70 178.73 64.33 178.76 53.96 C 179.12 47.94 178.64 41.66 181.01 35.97 C 183.07 30.52 187.70 25.86 193.53 24.67 M 197.24 40.29 C 196.32 41.63 196.31 43.34 196.25 44.91 C 196.24 61.26 196.27 77.61 196.24 93.96 C 196.25 95.95 196.24 98.04 197.11 99.89 C 200.35 101.34 200.32 96.90 200.42 94.90 C 200.55 77.99 200.55 61.07 200.42 44.16 C 200.51 42.44 199.74 38.36 197.24 40.29 Z" />
<path fill="#ffff26" opacity="1.00" d=" M 309.17 27.15 C 313.78 23.93 319.78 23.65 325.13 24.76 C 331.93 26.23 337.26 32.18 338.58 38.93 C 340.28 47.43 339.63 56.14 339.75 64.75 C 334.00 64.75 328.25 64.76 322.49 64.75 C 322.34 57.16 322.90 49.53 322.07 41.97 C 322.37 39.62 318.88 38.98 318.02 41.01 C 317.33 43.61 317.38 46.35 317.26 49.02 C 317.23 62.68 317.26 76.34 317.25 89.99 C 317.31 92.98 317.30 96.02 318.00 98.95 C 318.66 100.56 321.34 100.61 321.78 98.80 C 323.01 92.03 322.31 85.10 322.49 78.25 C 328.25 78.24 334.00 78.25 339.75 78.25 C 339.74 85.83 340.04 93.49 338.51 100.96 C 336.95 108.01 331.12 114.23 323.90 115.49 C 317.25 116.59 309.67 115.02 305.20 109.64 C 300.43 103.94 300.53 96.02 300.02 89.00 C 300.04 74.98 299.87 60.95 300.11 46.93 C 300.16 39.53 302.67 31.37 309.17 27.15 Z" />
<path fill="#ffff26" opacity="1.00" d=" M 400.92 24.89 C 409.10 22.75 419.71 25.04 423.56 33.33 C 425.87 39.65 425.40 46.59 425.49 53.21 C 420.07 53.26 414.65 53.33 409.23 53.16 C 409.13 49.11 409.58 45.01 408.92 40.99 C 408.49 40.57 407.62 39.75 407.18 39.33 C 404.37 41.78 404.96 45.81 405.09 49.14 C 405.19 51.92 406.69 54.40 408.77 56.17 C 414.18 61.09 420.22 65.67 423.77 72.23 C 426.40 77.74 426.51 84.02 426.76 90.00 C 426.62 95.79 426.86 101.97 424.21 107.29 C 418.21 117.60 401.88 118.73 394.08 109.94 C 391.42 107.12 390.23 103.28 389.75 99.50 C 389.00 93.71 388.92 87.85 389.03 82.02 C 394.42 81.98 399.81 82.00 405.20 82.00 C 405.34 86.71 405.14 91.43 405.29 96.14 C 405.48 97.57 405.36 99.68 407.12 100.19 C 409.77 100.27 409.79 96.93 409.99 95.04 C 409.96 90.53 410.60 85.19 407.14 81.68 C 401.33 74.90 392.30 70.18 389.94 60.99 C 387.97 53.20 388.20 44.97 389.57 37.11 C 390.66 31.31 395.15 26.31 400.92 24.89 Z" />
<path fill="#ffff26" opacity="1.00" d=" M 450.94 31.15 C 453.69 25.73 460.35 24.07 465.98 24.21 C 471.89 24.01 478.90 25.24 482.33 30.61 C 486.64 37.55 486.64 46.17 485.96 54.04 C 485.69 58.07 483.47 61.67 480.33 64.11 C 483.74 66.25 485.91 69.95 486.15 73.97 C 486.99 82.32 487.13 90.81 486.08 99.15 C 485.43 104.60 483.12 110.33 478.21 113.25 C 473.32 116.16 467.25 116.26 461.80 115.18 C 455.56 113.87 450.54 108.47 449.45 102.23 C 448.04 94.48 448.61 86.58 448.50 78.75 C 454.08 78.75 459.66 78.75 465.25 78.75 C 465.43 85.65 464.84 92.59 465.65 99.45 C 465.50 101.83 469.16 102.08 469.50 99.90 C 470.52 94.33 470.23 88.61 470.21 82.97 C 469.96 80.16 470.11 76.99 468.27 74.65 C 466.25 72.84 463.22 73.37 460.74 72.89 C 460.75 68.45 460.75 64.01 460.74 59.57 C 463.67 58.98 468.40 60.38 469.51 56.65 C 470.62 51.49 470.42 46.09 469.85 40.87 C 469.75 39.14 467.64 37.53 466.23 39.18 C 464.53 43.81 465.51 48.92 465.25 53.75 C 459.66 53.75 454.08 53.76 448.50 53.75 C 448.70 46.21 447.57 38.19 450.94 31.15 Z" />
<path fill="#76ff7c" opacity="1.00" d=" M 493.74 24.58 C 494.59 24.56 496.30 24.53 497.15 24.51 C 498.04 27.93 499.23 31.61 502.26 33.73 C 504.43 35.49 507.23 35.99 509.90 36.51 C 509.87 37.70 509.85 38.88 509.83 40.07 C 505.99 39.55 502.03 38.49 499.12 35.78 C 495.81 33.00 494.28 28.76 493.74 24.58 Z" />
<path fill="#ffffff" opacity="1.00" d=" M 52.02 26.00 C 60.20 26.08 68.39 25.84 76.57 26.12 C 79.59 55.43 82.99 84.70 86.08 114.00 C 80.20 113.96 74.33 114.09 68.45 113.92 C 68.18 108.71 67.88 103.50 67.58 98.29 C 65.83 98.26 64.09 98.26 62.36 98.28 C 62.14 103.51 61.77 108.72 61.51 113.94 C 55.51 114.06 49.52 113.97 43.52 114.00 C 46.31 84.66 49.12 55.33 52.02 26.00 M 62.25 82.00 C 63.81 82.00 65.38 82.00 66.94 82.00 C 65.96 71.68 66.13 61.22 64.40 50.99 C 64.57 61.35 62.74 71.65 62.25 82.00 Z" />
<path fill="#ffffff" opacity="1.00" d=" M 90.00 26.00 C 96.68 26.02 103.36 25.97 110.04 26.01 C 114.89 26.12 120.39 27.52 123.18 31.85 C 126.23 36.63 126.08 42.54 126.26 47.99 C 126.07 55.16 126.80 62.42 125.38 69.50 C 124.69 73.11 122.19 76.32 118.79 77.74 C 115.16 79.33 111.10 78.98 107.24 79.01 C 107.23 90.67 107.31 102.33 107.20 114.00 C 101.47 114.00 95.73 114.00 90.00 114.00 C 90.00 84.67 90.00 55.33 90.00 26.00 M 107.25 41.58 C 107.33 48.91 107.08 56.24 107.39 63.55 C 109.03 63.10 111.12 62.44 111.26 60.42 C 111.84 55.14 112.04 49.76 111.26 44.49 C 111.15 42.37 108.87 42.02 107.25 41.58 Z" />
<path fill="#ffffff" opacity="1.00" d=" M 225.00 26.00 C 232.33 26.00 239.65 26.00 246.98 26.00 C 248.48 37.72 249.28 49.53 251.04 61.21 C 252.36 49.52 253.36 37.79 254.48 26.08 C 261.83 25.93 269.18 25.99 276.53 26.04 C 276.50 55.34 276.46 84.63 276.55 113.93 C 271.45 114.07 266.35 113.97 261.25 114.00 C 261.25 101.35 261.25 88.70 261.25 76.05 C 261.27 71.94 261.04 67.81 261.64 63.72 C 261.08 65.75 260.67 67.81 260.54 69.91 C 259.21 84.58 257.62 99.22 256.41 113.89 C 252.77 113.92 249.06 114.34 245.46 113.73 C 243.73 98.06 242.46 82.33 240.44 66.68 C 240.73 82.46 240.08 98.22 240.25 114.00 C 235.17 114.00 230.08 114.00 225.00 114.00 C 225.00 84.67 225.00 55.33 225.00 26.00 Z" />
<path fill="#ffff26" opacity="1.00" d=" M 347.02 26.03 C 353.69 25.98 360.36 25.99 367.03 26.00 C 371.90 26.09 377.39 27.40 380.30 31.66 C 383.49 36.47 383.28 42.51 383.51 48.05 C 383.32 55.35 384.09 62.76 382.53 69.95 C 381.76 73.46 379.18 76.42 375.89 77.80 C 372.30 79.33 368.30 78.98 364.50 79.00 C 364.44 90.68 364.63 102.35 364.40 114.03 C 358.61 113.96 352.82 114.04 347.03 113.97 C 346.98 84.66 346.98 55.34 347.02 26.03 M 364.54 41.53 C 364.48 48.85 364.47 56.17 364.55 63.50 C 366.50 63.18 368.55 62.20 368.61 59.95 C 368.84 54.93 368.86 49.88 368.60 44.86 C 368.59 42.60 366.31 41.99 364.54 41.53 Z" />
<path fill="#65ff6d" opacity="1.00" d=" M 524.82 27.94 C 526.00 28.47 527.18 29.00 528.36 29.54 C 525.99 35.72 519.90 39.71 513.38 40.11 C 513.34 38.93 513.30 37.75 513.27 36.56 C 518.43 36.07 522.98 32.83 524.82 27.94 Z" />
</svg>
