<?xml version="1.0" encoding="UTF-8" ?>
<!DOCTYPE svg PUBLIC "-//W3C//DTD SVG 1.1//EN" "http://www.w3.org/Graphics/SVG/1.1/DTD/svg11.dtd">
<svg width="533pt" height="133pt" viewBox="0 0 533 133" version="1.1" xmlns="http://www.w3.org/2000/svg">
<path fill="#a62a32" opacity="0.78" d=" M 499.02 6.00 C 503.66 3.81 509.10 1.97 514.17 3.82 C 521.74 5.45 528.31 11.43 530.13 19.04 C 532.27 24.80 529.64 31.08 526.32 35.83 C 526.00 35.57 525.37 35.03 525.05 34.76 C 529.22 29.20 530.17 21.31 526.70 15.17 C 522.10 6.44 510.50 2.81 501.58 6.78 C 493.36 10.05 488.50 19.56 490.68 28.16 C 490.12 25.44 490.06 22.64 489.76 19.89 C 489.67 19.57 489.49 18.94 489.40 18.63 C 489.28 18.18 489.04 17.29 488.92 16.84 C 491.72 12.76 494.40 8.28 499.02 6.00 Z" />
<path fill="#43ff4e" opacity="1.00" d=" M 497.21 10.58 C 500.22 8.42 503.71 7.10 507.36 6.51 C 507.33 7.34 507.28 8.99 507.25 9.82 C 505.21 9.75 503.11 10.27 501.58 11.66 C 500.92 12.18 500.27 12.70 499.62 13.22 C 499.02 12.56 497.82 11.24 497.21 10.58 Z" />
<path fill="#3fff4b" opacity="1.00" d=" M 510.49 6.46 C 518.55 6.71 526.62 12.71 526.96 21.19 C 525.74 20.85 524.50 20.75 523.25 20.89 C 522.96 19.87 522.73 18.84 522.40 17.84 C 521.16 12.57 515.57 9.46 510.40 9.88 C 510.42 9.03 510.47 7.31 510.49 6.46 Z" />
<path fill="#324e1b" opacity="0.69" d=" M 501.58 11.66 C 503.11 10.27 505.21 9.75 507.25 9.82 C 506.51 11.56 503.34 12.10 501.58 11.66 Z" />
<path fill="#45802b" opacity="0.82" d=" M 510.40 9.88 C 515.57 9.46 521.16 12.57 522.40 17.84 L 521.25 17.05 L 521.01 16.51 C 519.40 12.10 514.33 11.17 510.40 9.88 Z" />
<path fill="#59ff61" opacity="1.00" d=" M 491.59 21.69 C 492.29 17.49 494.15 13.57 497.21 10.58 C 497.82 11.24 499.02 12.56 499.62 13.22 C 498.72 14.21 497.84 15.20 496.96 16.21 C 498.60 16.35 500.24 16.48 501.89 16.60 C 501.76 19.46 501.63 22.33 501.42 25.18 C 501.09 23.31 500.78 21.44 500.48 19.57 C 499.27 19.56 498.06 19.55 496.86 19.48 C 496.67 18.94 496.29 17.84 496.10 17.29 C 495.85 18.84 495.55 20.37 495.28 21.91 C 494.36 21.86 492.52 21.75 491.59 21.69 Z" />
<path fill="#4dff57" opacity="1.00" d=" M 509.06 21.35 C 509.75 19.70 508.61 16.59 510.74 15.93 C 514.16 16.11 517.58 16.37 521.01 16.51 L 521.25 17.05 C 521.28 17.80 521.34 19.31 521.37 20.07 C 519.98 21.53 518.56 22.96 517.09 24.35 C 515.97 23.24 514.86 22.14 513.72 21.06 L 513.30 20.66 C 511.89 20.89 510.47 21.12 509.06 21.35 Z" />
<path fill="#b85358" opacity="0.80" d=" M 489.40 18.63 C 489.49 18.94 489.67 19.57 489.76 19.89 C 490.06 22.64 490.12 25.44 490.68 28.16 C 492.86 35.73 500.02 41.45 507.88 41.95 C 514.35 42.58 520.93 39.76 525.05 34.76 C 525.37 35.03 526.00 35.57 526.32 35.83 C 521.97 40.82 515.53 43.89 508.93 44.05 C 501.90 43.36 494.95 39.80 491.23 33.64 C 488.60 28.94 486.97 23.19 489.20 17.99 L 489.40 18.63 Z" />
<path fill="#68ff6f" opacity="1.00" d=" M 496.86 19.48 C 498.06 19.55 499.27 19.56 500.48 19.57 C 500.78 21.44 501.09 23.31 501.42 25.18 C 503.40 24.84 505.40 24.56 507.41 24.29 C 507.60 25.75 507.79 27.21 508.01 28.67 C 504.47 29.31 500.90 29.64 497.34 29.98 C 497.15 26.48 496.77 22.99 496.86 19.48 Z" />
<path fill="#5aff62" opacity="1.00" d=" M 513.72 21.06 C 514.86 22.14 515.97 23.24 517.09 24.35 L 517.61 24.86 C 518.92 24.65 520.23 24.43 521.56 24.22 C 521.53 26.22 521.53 28.22 521.56 30.22 C 517.45 29.97 513.34 29.74 509.23 29.72 C 509.21 28.73 509.18 26.75 509.17 25.76 C 510.68 24.19 512.21 22.64 513.72 21.06 Z" />
<path fill="#2f5d1d" opacity="0.58" d=" M 523.25 20.89 C 524.50 20.75 525.74 20.85 526.96 21.19 C 526.77 22.79 522.91 22.56 523.25 20.89 Z" />
<path fill="#48ff53" opacity="1.00" d=" M 523.55 23.75 C 524.82 23.72 526.10 23.69 527.38 23.66 C 527.06 25.66 526.72 27.67 526.33 29.66 C 525.16 29.07 523.99 28.49 522.84 27.91 C 523.06 26.52 523.30 25.14 523.55 23.75 Z" />
<path fill="#ffffff" opacity="1.00" d=" M 5.18 28.02 C 11.81 21.24 24.90 23.72 28.49 32.58 C 30.90 39.17 30.11 46.36 30.25 53.25 C 25.83 53.25 21.41 53.28 16.99 53.21 C 16.89 48.52 17.54 43.70 16.04 39.16 C 15.05 40.08 13.66 40.87 13.65 42.41 C 12.91 47.13 13.06 52.70 16.72 56.26 C 22.53 62.54 29.47 68.96 30.69 77.89 C 31.83 86.11 31.91 94.54 30.84 102.76 C 30.05 109.60 24.10 115.58 17.11 115.76 C 10.02 116.44 3.48 110.92 1.91 104.18 C 0.21 96.92 0.52 89.40 0.50 82.00 C 4.92 82.00 9.34 82.00 13.76 82.00 C 13.96 88.23 13.04 94.65 14.94 100.70 C 15.93 99.90 17.49 99.42 17.59 97.92 C 18.30 93.38 18.35 88.52 16.91 84.11 C 13.23 77.69 7.03 73.15 3.27 66.77 C 0.92 62.36 0.37 57.29 0.00 52.39 L 0.00 44.61 C 0.46 38.84 0.85 32.37 5.18 28.02 Z" />
<path fill="#ffffff" opacity="1.00" d=" M 69.96 30.76 C 72.45 26.61 77.12 23.72 82.06 24.22 C 89.27 24.12 94.75 30.50 96.40 37.04 C 98.07 44.21 97.86 51.65 97.99 58.97 C 93.16 59.01 88.34 59.03 83.52 58.95 C 83.25 53.04 84.01 47.04 83.08 41.18 C 82.82 40.69 82.29 39.71 82.02 39.22 C 80.69 40.44 80.16 42.17 80.26 43.94 C 80.24 61.31 80.23 78.68 80.27 96.05 C 80.49 97.47 80.23 99.83 82.03 100.25 C 83.75 99.76 83.65 97.58 83.90 96.17 C 84.13 90.94 83.99 85.70 83.94 80.47 C 83.26 80.46 81.91 80.43 81.24 80.42 C 81.26 75.79 81.22 71.16 81.27 66.53 C 86.84 66.48 92.42 66.46 97.99 66.55 C 97.99 82.36 98.03 98.17 97.97 113.97 C 94.89 114.01 91.81 114.00 88.73 114.00 C 88.40 112.37 88.07 110.73 87.76 109.09 C 86.41 112.05 84.29 115.10 80.86 115.69 C 75.83 116.60 71.60 112.66 69.36 108.58 C 65.56 101.70 66.08 93.61 65.75 86.02 C 65.79 74.97 65.66 63.93 65.81 52.88 C 66.29 45.44 65.45 37.21 69.96 30.76 Z" />
<path fill="#ffff26" opacity="1.00" d=" M 346.24 28.35 C 350.80 23.47 358.98 22.81 364.41 26.60 C 368.43 29.44 370.79 34.13 371.60 38.90 C 373.04 47.44 372.33 56.13 372.51 64.74 C 367.76 64.76 363.02 64.77 358.28 64.72 C 357.95 56.82 358.82 48.83 357.79 40.99 C 357.41 38.52 354.34 40.06 354.74 42.04 C 353.77 56.99 354.46 72.00 354.25 86.97 C 354.55 91.23 353.99 95.67 355.26 99.78 C 356.38 101.32 357.96 99.34 357.92 98.17 C 358.63 91.57 358.05 84.90 358.28 78.28 C 363.02 78.22 367.76 78.25 372.50 78.25 C 372.41 86.33 372.97 94.52 371.22 102.48 C 369.82 107.77 366.43 113.04 361.11 115.02 C 354.90 117.21 347.22 114.81 343.90 108.97 C 339.94 102.06 340.50 93.75 340.02 86.07 C 340.10 72.34 339.71 58.60 340.30 44.89 C 340.53 38.98 342.14 32.79 346.24 28.35 Z" />
<path fill="#ffff26" opacity="1.00" d=" M 417.30 28.30 C 423.89 21.05 437.73 23.73 440.99 33.04 C 443.09 39.51 442.59 46.49 442.76 53.20 C 438.25 53.28 433.75 53.27 429.25 53.21 C 428.76 48.57 430.45 43.40 427.94 39.18 C 425.05 41.58 425.75 45.64 425.79 48.96 C 425.85 54.04 430.14 57.33 433.27 60.73 C 437.19 65.19 441.37 69.90 442.62 75.88 C 443.90 81.89 444.07 88.08 443.94 94.20 C 443.60 100.06 443.62 106.80 439.15 111.25 C 434.45 116.59 425.59 117.31 419.99 112.99 C 416.24 110.20 414.19 105.69 413.63 101.14 C 412.80 94.80 412.73 88.38 412.79 82.00 C 417.26 82.00 421.73 82.00 426.21 82.00 C 426.48 87.53 425.83 93.11 426.58 98.59 C 426.64 100.75 429.54 100.64 429.73 98.56 C 430.65 93.97 430.56 89.00 429.42 84.44 C 425.80 77.75 419.23 73.19 415.51 66.55 C 412.49 60.58 412.32 53.69 412.35 47.15 C 412.65 40.70 412.54 33.30 417.30 28.30 Z" />
<path fill="#76ff7c" opacity="1.00" d=" M 491.72 24.58 C 492.57 24.56 494.28 24.53 495.14 24.51 C 496.06 27.91 497.23 31.60 500.26 33.73 C 502.45 35.50 505.28 35.97 507.95 36.56 C 507.89 37.75 507.83 38.93 507.78 40.12 C 503.55 39.48 499.15 38.17 496.19 34.89 C 493.43 32.15 492.29 28.32 491.72 24.58 Z" />
<path fill="#ffffff" opacity="1.00" d=" M 37.28 26.02 C 44.85 25.97 52.43 26.01 60.00 26.00 C 60.00 32.08 60.00 38.17 60.00 44.25 C 57.17 44.25 54.33 44.25 51.50 44.25 C 51.50 49.50 51.51 54.75 51.50 59.99 C 54.17 60.00 56.83 60.00 59.50 60.00 C 59.50 65.75 59.50 71.50 59.50 77.25 C 56.83 77.25 54.17 77.25 51.50 77.25 C 51.50 83.42 51.50 89.58 51.50 95.75 C 54.67 95.75 57.83 95.75 61.00 95.75 C 61.00 101.83 61.00 107.92 61.00 114.00 C 53.09 113.99 45.18 114.03 37.28 113.97 C 37.23 84.66 37.22 55.34 37.28 26.02 Z" />
<path fill="#ffffff" opacity="1.00" d=" M 108.13 26.03 C 114.90 25.97 121.67 26.00 128.44 26.01 C 130.89 55.35 133.69 84.66 136.20 114.00 C 131.44 113.94 126.67 114.12 121.92 113.93 C 120.98 108.91 121.37 103.42 120.95 98.23 C 119.56 98.24 118.17 98.25 116.79 98.26 C 116.74 103.51 116.25 108.75 116.22 114.00 C 111.26 114.00 106.30 114.00 101.35 114.00 C 103.53 84.67 105.93 55.36 108.13 26.03 M 116.83 82.00 C 117.74 82.00 119.56 82.00 120.47 82.00 C 119.69 72.21 119.81 62.35 118.48 52.61 C 118.34 62.42 117.19 72.19 116.83 82.00 Z" />
<path fill="#ffff26" opacity="1.00" d=" M 152.48 26.03 C 159.49 26.16 166.57 25.48 173.52 26.68 C 177.66 27.29 181.06 30.53 182.36 34.43 C 184.35 39.38 183.91 44.81 184.23 50.02 C 184.25 64.68 184.30 79.35 184.20 94.01 C 183.84 99.37 184.34 105.30 181.19 109.97 C 179.23 112.95 175.50 113.90 172.14 113.96 C 165.59 114.07 159.04 113.97 152.49 113.99 C 152.50 84.67 152.52 55.35 152.48 26.03 M 166.81 41.44 C 166.70 60.44 166.73 79.44 166.80 98.44 C 167.91 97.90 169.27 97.31 169.39 95.89 C 170.18 89.30 169.97 82.62 170.00 75.99 C 169.87 65.62 170.32 55.23 169.67 44.87 C 169.78 43.10 168.33 41.96 166.81 41.44 Z" />
<path fill="#ffff26" opacity="1.00" d=" M 190.49 113.99 C 190.51 84.66 190.49 55.33 190.50 26.00 C 197.50 26.21 204.57 25.45 211.51 26.69 C 214.46 27.09 216.89 29.13 218.15 31.76 C 221.77 38.87 221.24 47.17 221.19 54.92 C 220.96 59.89 220.72 66.55 215.06 68.45 C 220.48 71.06 221.25 77.70 221.24 83.04 C 221.24 93.36 221.30 103.68 221.21 114.00 C 216.80 114.00 212.40 114.00 208.00 114.00 C 207.95 103.31 208.09 92.61 207.93 81.92 C 207.64 79.22 208.34 75.23 204.81 74.44 C 204.66 87.61 204.82 100.79 204.73 113.97 C 199.98 114.02 195.23 114.00 190.49 113.99 M 204.83 41.38 C 204.69 47.83 204.74 54.29 204.80 60.74 C 206.08 60.18 207.66 59.54 207.64 57.87 C 208.13 53.29 208.28 48.60 207.56 44.03 C 207.38 42.59 205.80 42.16 204.83 41.38 Z" />
<path fill="#ffff26" opacity="1.00" d=" M 227.49 26.01 C 235.08 25.99 242.66 26.01 250.25 26.00 C 250.25 32.08 250.25 38.17 250.25 44.25 C 247.42 44.25 244.58 44.25 241.75 44.25 C 241.75 49.50 241.75 54.75 241.75 60.00 C 244.42 60.00 247.09 60.00 249.76 60.00 C 249.75 65.75 249.76 71.50 249.75 77.26 C 247.08 77.25 244.42 77.25 241.75 77.25 C 241.75 83.42 241.75 89.58 241.76 95.75 C 244.92 95.75 248.08 95.75 251.25 95.75 C 251.25 101.83 251.25 107.92 251.25 114.00 C 243.33 114.00 235.42 114.00 227.50 114.00 C 227.49 84.67 227.51 55.34 227.49 26.01 Z" />
<path fill="#ffff26" opacity="1.00" d=" M 260.30 26.00 C 267.03 26.02 273.76 25.96 280.49 26.03 C 283.11 55.35 285.77 84.67 288.32 113.99 C 283.48 114.01 278.64 114.00 273.80 114.00 C 273.47 108.74 273.41 103.47 272.94 98.22 C 271.64 98.23 270.35 98.24 269.05 98.24 C 268.66 103.49 268.57 108.76 268.21 114.00 C 263.30 113.99 258.40 114.01 253.49 113.99 C 255.66 84.65 258.01 55.33 260.30 26.00 M 268.94 82.00 C 269.85 82.00 271.65 81.99 272.55 81.99 C 271.92 72.25 271.79 62.47 270.76 52.77 C 270.31 62.52 269.39 72.25 268.94 82.00 Z" />
<path fill="#ffff26" opacity="1.00" d=" M 291.48 26.03 C 297.58 25.99 303.68 25.95 309.79 26.06 C 310.61 37.73 311.98 49.36 312.51 61.05 C 314.17 49.45 314.45 37.68 315.55 26.01 C 321.54 26.01 327.54 25.96 333.53 26.04 C 333.47 55.36 333.51 84.68 333.51 113.99 C 329.34 114.00 325.17 114.00 321.00 114.00 C 320.81 97.87 321.47 81.72 320.49 65.62 C 319.95 81.78 318.23 97.88 317.05 114.00 C 314.13 114.00 311.21 114.00 308.29 114.00 C 307.06 98.56 305.41 83.14 304.51 67.68 C 303.75 83.10 304.07 98.56 304.00 114.00 C 299.83 113.99 295.65 114.06 291.48 113.91 C 291.50 84.62 291.51 55.32 291.48 26.03 Z" />
<path fill="#ffff26" opacity="1.00" d=" M 382.31 26.00 C 389.09 26.01 395.87 25.99 402.65 26.01 C 405.13 55.35 407.92 84.66 410.41 114.00 C 405.53 114.00 400.66 114.00 395.78 114.00 C 395.77 108.75 395.26 103.51 395.21 98.26 C 393.82 98.25 392.43 98.24 391.05 98.23 C 390.92 103.46 390.50 108.67 390.45 113.90 C 385.49 114.09 380.52 113.97 375.56 114.00 C 377.75 84.66 380.21 55.34 382.31 26.00 M 391.03 82.00 C 391.94 82.00 393.76 82.00 394.67 82.00 C 394.10 72.58 393.76 63.14 393.05 53.73 C 392.02 63.12 391.65 72.57 391.03 82.00 Z" />
<path fill="#ffff26" opacity="1.00" d=" M 447.48 26.02 C 457.39 25.98 467.30 26.01 477.21 26.00 C 477.29 32.08 477.24 38.16 477.24 44.23 C 474.66 44.26 472.08 44.25 469.51 44.24 C 469.45 67.50 469.60 90.76 469.43 114.01 C 464.70 113.99 459.97 114.00 455.24 114.00 C 455.27 90.76 455.21 67.53 455.27 44.29 C 452.68 44.25 450.09 44.25 447.50 44.25 C 447.49 38.17 447.51 32.10 447.48 26.02 Z" />
<path fill="#65ff6d" opacity="1.00" d=" M 522.84 27.91 C 523.99 28.49 525.16 29.07 526.33 29.66 C 523.92 35.83 517.86 39.53 511.46 40.24 C 511.37 39.03 511.29 37.82 511.22 36.61 C 516.33 35.99 521.12 32.92 522.84 27.91 Z" />
</svg>
