<?xml version="1.0" encoding="UTF-8" ?>
<!DOCTYPE svg PUBLIC "-//W3C//DTD SVG 1.1//EN" "http://www.w3.org/Graphics/SVG/1.1/DTD/svg11.dtd">
<svg width="533pt" height="133pt" viewBox="0 0 533 133" version="1.1" xmlns="http://www.w3.org/2000/svg">
<path fill="#b42933" opacity="0.82" d=" M 496.39 7.89 C 499.79 4.82 504.51 3.80 508.90 3.00 C 518.00 3.28 527.30 9.00 529.82 18.09 C 532.37 24.35 529.87 31.66 525.52 36.47 C 525.51 35.97 525.48 34.96 525.47 34.45 C 527.36 30.91 529.20 27.10 528.84 22.97 C 528.70 15.00 522.56 7.89 514.95 5.91 C 508.40 3.97 501.26 5.90 495.98 10.04 L 496.39 7.89 Z" />
<path fill="#43ff4e" opacity="1.00" d=" M 497.07 10.69 C 500.11 8.46 503.66 7.10 507.37 6.51 C 507.34 7.34 507.27 8.99 507.23 9.82 C 505.21 9.73 503.16 10.31 501.62 11.63 C 501.01 12.09 500.40 12.54 499.80 12.99 C 499.12 12.42 497.75 11.27 497.07 10.69 Z" />
<path fill="#3fff4b" opacity="1.00" d=" M 510.49 6.44 C 518.54 6.73 526.63 12.70 526.95 21.19 C 525.74 20.85 524.52 20.75 523.29 20.90 C 522.98 19.89 522.73 18.87 522.40 17.87 C 521.25 12.50 515.57 9.52 510.40 9.87 C 510.42 9.01 510.47 7.30 510.49 6.44 Z" />
<path fill="#b34d52" opacity="0.79" d=" M 489.41 29.70 C 486.09 21.98 489.89 12.69 496.39 7.89 L 495.98 10.04 C 493.91 12.67 491.70 15.34 490.80 18.63 C 489.74 21.78 489.77 25.20 490.79 28.35 C 493.14 36.56 501.49 42.36 509.97 42.00 C 515.99 42.04 521.56 38.88 525.47 34.45 C 525.48 34.96 525.51 35.97 525.52 36.47 C 522.03 40.92 516.42 43.01 511.02 43.99 C 501.86 44.36 492.30 38.63 489.41 29.70 Z" />
<path fill="#324e1b" opacity="0.69" d=" M 501.62 11.63 C 503.16 10.31 505.21 9.73 507.23 9.82 C 506.55 11.60 503.36 12.11 501.62 11.63 Z" />
<path fill="#45802b" opacity="0.82" d=" M 510.40 9.87 C 515.57 9.52 521.25 12.50 522.40 17.87 L 521.28 16.97 L 521.03 16.49 C 519.34 12.11 514.35 11.16 510.40 9.87 Z" />
<path fill="#59ff61" opacity="1.00" d=" M 491.60 21.71 C 492.26 17.56 494.12 13.70 497.07 10.69 C 497.75 11.27 499.12 12.42 499.80 12.99 C 498.86 14.06 497.94 15.14 497.03 16.23 C 498.64 16.36 500.26 16.47 501.88 16.58 C 501.77 19.46 501.63 22.33 501.38 25.20 C 501.07 23.28 500.78 21.36 500.51 19.44 C 499.27 19.52 498.04 19.60 496.82 19.68 C 496.65 19.10 496.32 17.92 496.15 17.34 C 495.84 18.86 495.55 20.38 495.27 21.90 C 494.35 21.85 492.52 21.76 491.60 21.71 Z" />
<path fill="#4dff57" opacity="1.00" d=" M 509.03 21.35 C 509.30 19.42 509.41 17.40 510.39 15.66 C 513.90 16.32 517.47 16.34 521.03 16.49 L 521.28 16.97 C 521.30 17.75 521.35 19.30 521.37 20.07 C 519.97 21.53 518.56 22.97 517.11 24.36 C 515.97 23.25 514.86 22.15 513.72 21.06 L 513.29 20.65 C 511.87 20.89 510.45 21.13 509.03 21.35 Z" />
<path fill="#2c1113" opacity="0.40" d=" M 490.79 28.35 C 489.77 25.20 489.74 21.78 490.80 18.63 C 490.61 21.87 490.59 25.11 490.79 28.35 Z" />
<path fill="#68ff6f" opacity="1.00" d=" M 496.82 19.68 C 498.04 19.60 499.27 19.52 500.51 19.44 C 500.78 21.36 501.07 23.28 501.38 25.20 C 503.39 24.85 505.40 24.56 507.43 24.28 C 507.60 25.76 507.77 27.24 507.95 28.71 C 504.43 29.31 500.88 29.64 497.33 29.98 C 497.15 26.55 496.82 23.12 496.82 19.68 Z" />
<path fill="#ffffff" opacity="1.00" d=" M 18.57 21.69 C 26.84 20.36 36.31 21.24 42.67 27.26 C 45.86 30.03 47.85 33.97 48.47 38.13 C 49.86 45.93 49.51 53.88 49.43 61.76 C 42.38 61.73 35.33 61.79 28.28 61.73 C 28.02 54.19 28.67 46.61 27.91 39.10 C 27.75 36.70 24.93 36.31 23.18 37.33 C 21.75 39.23 22.02 41.78 21.78 44.01 C 21.70 58.69 21.79 73.37 21.74 88.05 C 21.80 90.61 21.77 93.24 22.57 95.70 C 23.00 97.24 24.85 97.08 26.10 96.99 C 28.17 96.20 27.95 93.67 28.18 91.88 C 28.36 86.35 28.16 80.81 28.28 75.28 C 35.35 75.21 42.42 75.28 49.49 75.24 C 49.55 82.34 49.62 89.50 48.28 96.51 C 46.61 105.13 38.46 111.32 30.04 112.50 C 21.99 113.46 12.82 112.46 6.81 106.45 C 1.94 101.69 1.27 94.53 0.82 88.10 C 0.18 76.10 0.63 64.06 0.50 52.04 C 0.90 45.93 0.24 39.46 2.90 33.75 C 5.69 27.43 11.82 22.94 18.57 21.69 Z" />
<path fill="#ffffff" opacity="1.00" d=" M 116.01 25.80 C 122.33 20.85 130.89 20.62 138.49 21.66 C 144.47 22.81 151.03 25.82 153.38 31.84 C 155.33 37.76 154.98 44.11 155.00 50.25 C 148.33 50.23 141.66 50.30 135.00 50.21 C 134.84 46.33 135.38 42.39 134.66 38.57 C 134.48 36.58 131.63 36.10 130.63 37.73 C 127.71 42.79 129.09 50.57 134.57 53.42 C 140.20 57.37 146.02 61.20 150.77 66.22 C 155.82 71.47 156.55 79.14 156.76 86.06 C 156.73 92.05 157.01 98.54 153.89 103.90 C 149.29 110.51 140.73 113.09 132.98 112.78 C 124.91 112.90 115.94 109.41 112.20 101.84 C 109.43 94.59 109.79 86.63 109.80 79.00 C 116.45 79.00 123.10 79.00 129.76 79.00 C 129.94 84.32 129.29 89.71 130.22 94.98 C 130.56 97.50 134.59 97.87 135.58 95.62 C 136.83 93.31 136.49 90.58 136.51 88.05 C 136.32 85.26 136.15 82.07 133.95 80.05 C 127.98 74.30 120.53 70.30 114.73 64.35 C 109.04 57.73 108.89 48.33 109.58 40.08 C 109.84 34.76 111.60 29.13 116.01 25.80 Z" />
<path fill="#ffff26" opacity="1.00" d=" M 446.06 26.96 C 450.43 21.96 457.68 21.13 463.95 21.22 C 470.41 21.09 477.60 21.86 482.55 26.47 C 488.58 33.05 488.87 42.71 487.91 51.10 C 487.50 55.35 484.58 58.78 481.16 61.09 C 487.38 63.78 488.89 70.87 488.92 76.97 C 488.92 86.04 490.02 95.90 485.39 104.13 C 481.06 111.32 471.86 113.24 464.05 112.77 C 455.89 112.94 446.79 108.99 443.91 100.85 C 441.48 92.72 442.45 84.11 442.25 75.75 C 449.00 75.75 455.75 75.75 462.50 75.75 C 462.68 82.83 462.03 89.98 463.11 97.01 C 463.72 98.69 465.75 98.05 467.11 98.36 C 468.07 96.37 468.55 94.21 468.53 92.00 C 468.69 86.11 469.30 80.04 467.85 74.27 C 466.54 69.49 460.77 70.47 457.00 69.94 C 457.20 65.43 456.55 60.82 457.34 56.37 C 460.84 55.71 466.76 57.74 468.03 53.10 C 469.05 48.09 469.02 42.83 468.19 37.80 C 467.99 35.26 463.82 34.67 463.20 37.26 C 462.16 41.67 462.58 46.26 462.51 50.75 C 455.75 50.76 449.00 50.75 442.25 50.75 C 442.47 42.80 440.98 33.80 446.06 26.96 Z" />
<path fill="#5aff62" opacity="1.00" d=" M 513.72 21.06 C 514.86 22.15 515.97 23.25 517.11 24.36 L 517.61 24.86 C 518.93 24.65 520.25 24.44 521.57 24.23 C 521.54 26.11 521.54 28.00 521.55 29.89 C 517.44 30.25 513.34 29.67 509.23 29.72 C 509.22 28.73 509.18 26.76 509.16 25.77 C 510.68 24.20 512.20 22.64 513.72 21.06 Z" />
<path fill="#2f5d1d" opacity="0.58" d=" M 523.29 20.90 C 524.52 20.75 525.74 20.85 526.95 21.19 C 526.78 22.80 522.93 22.59 523.29 20.90 Z" />
<path fill="#ffff26" opacity="1.00" d=" M 265.69 21.50 C 270.96 21.50 276.22 21.49 281.48 21.51 C 273.73 51.94 265.90 82.35 258.05 112.75 C 252.80 112.73 247.55 112.81 242.30 112.69 C 250.03 82.28 257.91 51.90 265.69 21.50 Z" />
<path fill="#ffff26" opacity="1.00" d=" M 312.17 28.05 C 317.77 20.99 327.84 20.58 336.01 22.13 C 343.00 23.49 348.89 28.78 351.21 35.48 C 354.53 45.14 351.82 55.69 347.46 64.56 C 342.03 75.16 335.75 85.30 329.59 95.49 C 336.72 95.53 343.86 95.45 350.99 95.54 C 351.00 100.68 351.02 105.83 350.98 110.97 C 336.23 111.03 321.49 110.98 306.75 111.00 C 306.83 106.74 306.55 102.46 306.87 98.21 C 313.78 85.01 321.30 72.12 327.88 58.74 C 330.70 52.46 334.60 45.54 332.70 38.47 C 332.05 35.21 327.12 34.93 326.17 38.12 C 324.87 43.21 325.77 48.53 325.48 53.73 C 319.23 53.78 312.99 53.74 306.76 53.76 C 306.75 45.03 305.97 35.09 312.17 28.05 Z" />
<path fill="#ffff26" opacity="1.00" d=" M 400.61 21.49 C 405.88 21.51 411.14 21.47 416.40 21.52 C 408.69 51.95 400.83 82.35 392.99 112.76 C 387.72 112.74 382.46 112.78 377.19 112.73 C 385.00 82.32 392.85 51.91 400.61 21.49 Z" />
<path fill="#ffffff" opacity="1.00" d=" M 58.49 110.99 C 58.51 81.66 58.49 52.33 58.50 23.00 C 67.01 23.02 75.53 22.98 84.04 23.01 C 89.31 23.27 95.11 24.18 98.99 28.09 C 101.97 31.31 102.99 35.80 103.19 40.06 C 103.59 48.01 103.86 56.02 102.87 63.93 C 102.47 67.92 100.23 71.73 96.63 73.62 C 91.51 76.56 85.42 75.97 79.75 76.00 C 79.73 87.65 79.79 99.31 79.72 110.97 C 72.65 111.03 65.57 110.99 58.49 110.99 M 79.76 38.65 C 79.74 45.82 79.75 52.98 79.76 60.14 C 81.94 60.19 85.02 59.75 85.08 56.93 C 85.76 52.02 85.71 46.95 85.15 42.03 C 85.00 39.23 81.83 39.08 79.76 38.65 Z" />
<path fill="#ffff26" opacity="1.00" d=" M 203.44 23.03 C 207.63 22.98 211.81 23.00 216.00 23.00 C 216.00 52.33 216.00 81.67 216.00 111.00 C 209.17 110.98 202.34 111.05 195.51 110.96 C 195.48 92.95 195.49 74.95 195.51 56.95 C 195.34 54.25 195.90 50.53 192.98 49.10 C 189.41 47.85 185.52 48.11 181.79 47.96 C 181.73 44.35 181.75 40.74 181.74 37.13 C 190.31 35.07 198.43 30.43 203.44 23.03 Z" />
<path fill="#48ff53" opacity="1.00" d=" M 523.56 23.76 C 524.83 23.72 526.10 23.68 527.38 23.65 C 527.07 25.63 526.73 27.61 526.35 29.59 C 525.12 29.14 523.89 28.70 522.67 28.25 C 522.95 26.75 523.26 25.26 523.56 23.76 Z" />
<path fill="#76ff7c" opacity="1.00" d=" M 491.72 24.58 C 492.57 24.56 494.28 24.53 495.13 24.51 C 496.07 27.90 497.21 31.58 500.23 33.71 C 502.42 35.49 505.26 35.96 507.94 36.56 C 507.88 37.74 507.84 38.92 507.80 40.10 C 503.53 39.49 499.10 38.14 496.13 34.83 C 493.41 32.10 492.29 28.29 491.72 24.58 Z" />
<path fill="#65ff6d" opacity="1.00" d=" M 522.67 28.25 C 523.89 28.70 525.12 29.14 526.35 29.59 C 523.99 35.80 517.91 39.44 511.54 40.30 C 511.41 39.07 511.29 37.85 511.18 36.63 C 516.21 36.03 520.80 33.07 522.67 28.25 Z" />
</svg>
