<?xml version="1.0" encoding="UTF-8" ?>
<!DOCTYPE svg PUBLIC "-//W3C//DTD SVG 1.1//EN" "http://www.w3.org/Graphics/SVG/1.1/DTD/svg11.dtd">
<svg width="400pt" height="100pt" viewBox="0 0 400 100" version="1.1" xmlns="http://www.w3.org/2000/svg">
<path fill="#731922" opacity="0.55" d=" M 361.82 15.63 C 363.14 11.52 365.51 7.32 370.01 6.17 C 376.77 4.55 382.62 11.71 382.01 18.08 C 381.39 21.37 379.84 24.70 376.84 26.45 C 377.34 25.21 377.86 23.98 378.40 22.76 C 378.45 22.66 378.56 22.48 378.61 22.39 L 378.75 22.13 C 380.73 19.57 381.23 15.80 379.22 13.11 L 378.53 12.09 C 377.76 11.11 377.02 10.08 376.07 9.27 L 375.57 8.84 C 374.21 8.17 372.72 7.85 371.23 7.67 C 367.30 8.33 364.85 11.56 363.64 15.13 C 363.53 15.39 363.30 15.91 363.19 16.17 L 361.82 15.63 Z" />
<path fill="#37b743" opacity="0.80" d=" M 363.64 15.13 C 364.85 11.56 367.30 8.33 371.23 7.67 C 371.42 10.33 368.74 10.92 367.00 12.12 C 367.16 12.53 367.48 13.34 367.64 13.75 C 366.30 14.19 364.96 14.65 363.64 15.13 Z" />
<path fill="#32d640" opacity="0.94" d=" M 373.44 8.86 C 373.97 8.85 375.04 8.85 375.57 8.84 L 376.07 9.27 C 375.98 9.69 375.79 10.51 375.70 10.93 C 374.24 10.63 373.49 9.93 373.44 8.86 Z" />
<path fill="#38e246" opacity="0.95" d=" M 377.06 11.51 C 377.43 11.65 378.16 11.94 378.53 12.09 L 379.22 13.11 C 379.20 13.63 379.18 14.66 379.16 15.17 C 377.95 14.41 377.46 12.81 377.06 11.51 Z" />
<path fill="#52c35a" opacity="0.78" d=" M 367.64 13.75 L 368.82 13.43 C 368.66 14.77 368.50 16.11 368.34 17.46 C 369.16 17.49 370.81 17.56 371.63 17.60 C 371.47 20.57 368.63 20.32 366.45 20.66 C 367.84 22.13 369.58 23.14 371.43 23.94 C 371.31 24.57 371.21 25.20 371.11 25.83 C 369.96 25.49 368.83 25.11 367.72 24.68 C 367.39 24.35 366.72 23.69 366.39 23.35 C 366.30 23.25 366.10 23.05 366.00 22.94 C 365.87 22.79 365.61 22.47 365.49 22.31 L 364.93 21.47 C 364.86 21.35 364.73 21.09 364.66 20.96 L 364.01 18.97 C 364.77 18.11 365.59 17.31 366.31 16.43 C 365.64 16.10 364.31 15.45 363.64 15.13 C 364.96 14.65 366.30 14.19 367.64 13.75 Z" />
<path fill="#51f15a" opacity="0.95" d=" M 371.49 15.44 C 371.15 11.84 377.16 12.51 377.22 15.56 C 376.60 16.12 375.99 16.67 375.37 17.21 C 377.22 17.42 377.83 18.43 377.19 20.25 C 375.26 20.45 373.33 20.40 371.41 20.37 C 371.41 18.52 372.80 17.19 373.77 15.76 C 373.20 15.68 372.06 15.52 371.49 15.44 Z" />
<path fill="#7d353d" opacity="0.55" d=" M 361.82 15.63 L 363.19 16.17 C 363.45 17.10 363.73 18.04 364.01 18.97 L 364.66 20.96 C 364.73 21.09 364.86 21.35 364.93 21.47 L 365.49 22.31 C 365.61 22.47 365.87 22.79 366.00 22.94 C 366.10 23.05 366.30 23.25 366.39 23.35 C 366.72 23.69 367.39 24.35 367.72 24.68 C 367.63 25.21 367.45 26.28 367.36 26.81 C 363.71 24.32 361.85 19.96 361.82 15.63 Z" />
<path fill="#ffffff" opacity="1.00" d=" M 4.95 22.02 C 9.33 16.01 19.40 16.46 23.64 22.40 C 28.29 28.33 27.26 36.43 27.51 43.49 C 23.70 43.51 19.90 43.47 16.09 43.56 C 15.75 38.86 16.51 34.06 15.43 29.42 C 14.87 29.30 13.74 29.06 13.18 28.94 C 12.74 30.94 12.42 32.98 12.48 35.04 C 12.52 46.70 12.50 58.36 12.50 70.03 C 12.59 71.64 12.49 73.37 13.26 74.85 C 14.38 76.16 16.09 74.46 15.93 73.16 C 16.57 68.74 16.12 64.26 16.25 59.81 C 15.74 59.78 14.72 59.71 14.22 59.67 C 14.26 56.37 14.25 53.06 14.24 49.76 C 18.65 49.74 23.06 49.76 27.46 49.73 C 27.58 61.47 27.42 73.20 27.55 84.93 C 25.06 85.00 22.58 85.00 20.10 85.01 C 19.83 83.43 19.55 81.84 19.35 80.25 C 17.86 83.18 15.83 86.67 12.04 86.55 C 5.47 86.06 1.85 79.07 1.38 73.16 C 0.58 62.14 1.19 51.06 0.99 40.01 C 1.29 33.91 0.64 26.96 4.95 22.02 Z" />
<path fill="#ffff26" opacity="1.00" d=" M 136.37 22.46 C 140.45 16.20 150.55 16.25 155.05 21.99 C 160.06 27.91 159.03 36.28 159.25 43.49 C 155.42 43.51 151.58 43.51 147.75 43.50 C 147.48 38.78 148.43 33.87 147.01 29.29 C 146.48 29.20 145.42 29.03 144.89 28.95 C 144.48 30.95 144.18 32.98 144.23 35.03 C 144.26 46.36 144.26 57.68 144.23 69.01 C 144.28 71.05 144.17 73.19 145.10 75.07 C 146.43 75.90 147.72 74.41 147.68 73.17 C 148.32 68.73 147.88 64.23 148.00 59.76 C 147.51 59.76 146.52 59.78 146.03 59.78 C 145.99 56.44 145.99 53.09 146.00 49.75 C 150.42 49.75 154.83 49.75 159.25 49.75 C 159.25 61.50 159.25 73.25 159.25 85.00 C 156.82 85.00 154.39 85.00 151.96 85.00 C 151.57 83.42 151.17 81.84 150.80 80.26 C 149.82 83.00 148.04 85.92 144.93 86.44 C 141.07 87.12 137.79 84.29 135.77 81.32 C 132.90 76.79 132.88 71.22 132.75 66.04 C 132.76 56.70 132.72 47.36 132.77 38.02 C 133.06 32.73 132.76 26.79 136.37 22.46 Z" />
<path fill="#44c24e" opacity="0.78" d=" M 376.59 21.77 C 377.51 19.92 377.88 17.51 380.07 16.65 C 379.74 18.02 379.08 20.76 378.75 22.13 L 378.61 22.39 C 378.56 22.48 378.45 22.66 378.40 22.76 C 376.72 24.15 374.84 25.29 372.82 26.08 C 372.32 23.52 374.93 22.88 376.59 21.77 Z" />
<path fill="#ffffff" opacity="1.00" d=" M 35.32 19.23 C 40.85 19.25 46.37 19.28 51.89 19.21 C 54.24 41.12 56.24 63.08 58.53 85.00 C 54.62 85.00 50.71 85.00 46.80 85.00 C 46.60 81.10 46.34 77.20 46.21 73.29 C 44.83 73.26 43.46 73.23 42.08 73.20 C 41.88 77.11 41.63 81.02 41.50 84.93 C 37.49 85.04 33.48 85.00 29.47 85.00 C 31.50 63.08 33.29 41.15 35.32 19.23 M 42.21 61.49 C 43.11 61.49 44.91 61.49 45.81 61.48 C 45.59 52.30 44.14 43.14 44.60 33.96 C 42.80 43.00 42.75 52.31 42.21 61.49 Z" />
<path fill="#ffffff" opacity="1.00" d=" M 60.02 19.23 C 64.98 19.25 69.93 19.29 74.89 19.20 C 75.84 29.45 77.26 39.70 77.52 50.00 C 79.17 39.83 79.45 29.49 80.55 19.26 C 85.51 19.22 90.47 19.29 95.44 19.20 C 95.59 41.13 95.46 63.07 95.50 85.00 C 92.17 85.00 88.83 85.00 85.50 85.00 C 85.55 70.30 85.37 55.60 85.63 40.90 C 83.83 55.53 82.91 70.26 81.53 84.93 C 79.09 85.01 76.65 85.01 74.21 84.94 C 73.03 70.59 71.15 56.29 70.50 41.90 C 69.53 56.24 70.20 70.63 70.00 85.00 C 66.67 85.00 63.33 85.00 60.00 85.00 C 60.01 63.08 59.97 41.15 60.02 19.23 Z" />
<path fill="#ffffff" opacity="1.00" d=" M 100.03 19.22 C 106.43 19.27 112.82 19.26 119.21 19.23 C 119.28 23.64 119.23 28.04 119.27 32.45 C 116.68 32.51 114.09 32.51 111.50 32.51 C 111.50 36.67 111.50 40.83 111.50 45.00 C 113.93 45.00 116.35 45.00 118.78 45.03 C 118.74 49.19 118.76 53.35 118.74 57.51 C 116.33 57.50 113.93 57.50 111.52 57.49 C 111.48 62.24 111.51 66.99 111.49 71.74 C 114.33 71.75 117.16 71.75 120.00 71.75 C 120.00 76.17 120.00 80.58 120.00 85.00 C 113.33 85.00 106.67 85.00 100.00 85.00 C 100.02 63.07 99.95 41.15 100.03 19.22 Z" />
<path fill="#ffff26" opacity="1.00" d=" M 163.82 19.22 C 170.20 19.27 176.59 19.26 182.97 19.22 C 183.02 23.65 183.00 28.07 183.00 32.50 C 180.42 32.50 177.84 32.50 175.27 32.49 C 175.24 36.65 175.27 40.80 175.22 44.96 C 177.66 44.99 180.10 45.00 182.54 45.07 C 182.48 49.21 182.50 53.35 182.50 57.49 C 180.07 57.49 177.63 57.51 175.20 57.58 C 175.29 62.30 175.24 67.03 175.25 71.75 C 178.08 71.75 180.91 71.75 183.74 71.75 C 183.73 76.17 183.89 80.59 183.57 85.01 C 176.96 84.99 170.36 85.00 163.75 85.00 C 163.80 63.07 163.65 41.14 163.82 19.22 Z" />
<path fill="#ffff26" opacity="1.00" d=" M 189.79 19.28 C 195.34 19.22 200.89 19.26 206.44 19.25 C 208.68 41.16 210.78 63.09 213.02 85.00 C 209.11 85.00 205.19 85.01 201.28 84.98 C 201.11 81.07 200.86 77.15 200.69 73.23 C 199.30 73.25 197.92 73.26 196.54 73.27 C 196.40 77.18 196.15 81.09 195.94 85.00 C 191.88 85.00 187.81 85.00 183.74 85.00 C 186.26 63.16 187.68 41.17 189.79 19.28 M 198.44 33.89 C 197.98 43.10 196.95 52.28 196.71 61.50 C 197.61 61.49 199.41 61.49 200.31 61.48 C 199.80 52.28 199.30 43.07 198.44 33.89 Z" />
<path fill="#ffff26" opacity="1.00" d=" M 214.78 19.23 C 220.87 19.41 227.05 18.77 233.06 20.01 C 237.12 20.84 238.98 25.18 239.63 28.86 C 240.47 34.68 240.71 40.75 239.33 46.50 C 238.74 48.91 236.48 50.08 234.25 50.60 C 238.20 51.96 240.21 56.07 240.17 60.06 C 240.37 68.37 240.19 76.68 240.25 85.00 C 236.65 85.01 233.05 85.03 229.45 84.93 C 229.56 77.27 229.46 69.61 229.51 61.95 C 229.42 59.27 229.90 55.45 226.42 54.80 C 226.04 64.86 226.35 74.94 226.25 85.00 C 222.41 85.00 218.58 85.00 214.75 85.00 C 214.77 63.08 214.70 41.15 214.78 19.23 M 226.31 30.29 C 226.20 35.27 226.25 40.24 226.26 45.22 C 227.33 44.71 229.32 44.67 229.21 43.01 C 229.72 39.08 229.76 35.03 228.90 31.15 C 228.03 30.86 227.17 30.57 226.31 30.29 Z" />
<path fill="#235c2c" opacity="0.41" d=" M 364.66 20.96 C 364.73 21.09 364.86 21.35 364.93 21.47 C 364.86 21.35 364.73 21.09 364.66 20.96 Z" />
<path fill="#29512c" opacity="0.40" d=" M 365.49 22.31 C 365.61 22.47 365.87 22.79 366.00 22.94 C 365.87 22.79 365.61 22.47 365.49 22.31 Z" />
<path fill="#1e5b24" opacity="0.44" d=" M 378.40 22.76 C 378.45 22.66 378.56 22.48 378.61 22.39 C 378.56 22.48 378.45 22.66 378.40 22.76 Z" />
<path fill="#356c3b" opacity="0.49" d=" M 366.00 22.94 C 366.10 23.05 366.30 23.25 366.39 23.35 C 366.30 23.25 366.10 23.05 366.00 22.94 Z" />
<path fill="#55312d" opacity="0.42" d=" M 372.82 26.08 C 374.84 25.29 376.72 24.15 378.40 22.76 C 377.86 23.98 377.34 25.21 376.84 26.45 L 376.62 26.97 C 375.48 27.25 374.37 28.02 373.16 27.74 C 372.50 26.53 370.98 26.63 370.08 27.47 C 369.16 28.07 368.16 27.21 367.36 26.81 C 367.45 26.28 367.63 25.21 367.72 24.68 C 368.83 25.11 369.96 25.49 371.11 25.83 C 371.54 25.89 372.39 26.02 372.82 26.08 Z" />
<path fill="#be515a" opacity="0.76" d=" M 370.08 27.47 C 370.98 26.63 372.50 26.53 373.16 27.74 L 372.28 28.24 C 371.73 28.05 370.63 27.66 370.08 27.47 Z" />
</svg>
