<?xml version="1.0" encoding="UTF-8" ?>
<!DOCTYPE svg PUBLIC "-//W3C//DTD SVG 1.1//EN" "http://www.w3.org/Graphics/SVG/1.1/DTD/svg11.dtd">
<svg width="533pt" height="133pt" viewBox="0 0 533 133" version="1.1" xmlns="http://www.w3.org/2000/svg">
<path fill="#a62a32" opacity="0.78" d=" M 489.40 17.83 C 492.24 7.12 505.55 0.36 515.90 4.32 C 522.77 6.30 528.47 12.09 530.13 19.08 C 532.23 24.82 529.68 31.15 526.27 35.84 C 525.96 35.57 525.33 35.04 525.02 34.77 C 527.66 31.07 529.31 26.51 528.76 21.92 C 528.18 15.25 523.50 9.33 517.38 6.79 C 510.09 3.62 500.83 5.21 495.35 11.09 C 490.87 15.45 489.33 22.18 490.69 28.20 C 489.92 24.79 490.04 21.26 489.40 17.83 Z" />
<path fill="#43ff4e" opacity="1.00" d=" M 497.15 10.67 C 500.13 8.42 503.65 7.06 507.34 6.57 C 507.33 7.39 507.31 9.04 507.29 9.86 C 505.22 9.68 503.11 10.25 501.57 11.68 C 500.98 12.13 500.38 12.57 499.78 13.00 C 499.12 12.42 497.81 11.25 497.15 10.67 Z" />
<path fill="#3fff4b" opacity="1.00" d=" M 510.46 6.52 C 518.57 6.62 526.60 12.76 527.00 21.22 C 525.73 20.88 524.45 20.77 523.16 20.88 C 522.90 19.82 522.72 18.76 522.41 17.72 C 521.13 12.61 515.52 9.27 510.41 10.00 C 510.43 9.13 510.45 7.39 510.46 6.52 Z" />
<path fill="#324e1b" opacity="0.69" d=" M 501.57 11.68 C 503.11 10.25 505.22 9.68 507.29 9.86 C 506.48 11.50 503.32 12.05 501.57 11.68 Z" />
<path fill="#45802b" opacity="0.82" d=" M 510.41 10.00 C 515.52 9.27 521.13 12.61 522.41 17.72 L 521.20 17.24 L 520.99 16.52 C 519.48 12.16 514.37 11.08 510.41 10.00 Z" />
<path fill="#59ff61" opacity="1.00" d=" M 491.64 21.52 C 492.32 17.42 494.14 13.57 497.15 10.67 C 497.81 11.25 499.12 12.42 499.78 13.00 C 498.81 14.02 497.93 15.11 497.13 16.26 C 498.70 16.38 500.28 16.48 501.86 16.57 C 501.77 19.44 501.64 22.32 501.44 25.19 C 501.11 23.30 500.80 21.42 500.49 19.53 C 499.26 19.55 498.02 19.55 496.80 19.56 C 496.66 19.02 496.38 17.93 496.24 17.38 C 495.89 18.84 495.56 20.31 495.27 21.78 C 494.36 21.72 492.55 21.59 491.64 21.52 Z" />
<path fill="#4dff57" opacity="1.00" d=" M 509.06 21.24 C 509.73 19.59 508.65 16.57 510.76 15.88 C 514.16 16.19 517.57 16.34 520.99 16.52 L 521.20 17.24 C 521.23 17.95 521.30 19.35 521.33 20.06 C 520.02 21.56 518.62 23.00 517.07 24.25 C 515.95 23.17 514.91 22.04 513.76 21.01 C 512.24 20.50 510.60 21.19 509.06 21.24 Z" />
<path fill="#b85358" opacity="0.80" d=" M 489.40 17.83 C 490.04 21.26 489.92 24.79 490.69 28.20 C 492.59 34.59 497.96 39.77 504.44 41.37 C 511.83 43.38 520.21 40.75 525.02 34.77 C 525.33 35.04 525.96 35.57 526.27 35.84 C 522.24 40.63 516.26 43.40 510.10 44.05 C 502.43 43.86 494.69 39.83 490.86 33.02 C 488.51 28.38 486.91 22.78 489.40 17.83 Z" />
<path fill="#68ff6f" opacity="1.00" d=" M 496.80 19.56 C 498.02 19.55 499.26 19.55 500.49 19.53 C 500.80 21.42 501.11 23.30 501.44 25.19 C 503.42 24.83 505.42 24.55 507.43 24.30 C 507.60 25.76 507.77 27.22 507.96 28.68 C 504.44 29.33 500.88 29.65 497.32 29.97 C 497.17 26.50 496.80 23.04 496.80 19.56 Z" />
<path fill="#5aff62" opacity="1.00" d=" M 513.76 21.01 C 514.91 22.04 515.95 23.17 517.07 24.25 C 518.23 25.50 520.12 24.15 521.55 24.24 C 521.53 26.23 521.54 28.22 521.59 30.21 C 517.47 30.00 513.35 29.71 509.23 29.73 C 509.21 28.74 509.18 26.75 509.16 25.76 C 510.70 24.18 512.24 22.61 513.76 21.01 Z" />
<path fill="#2f5d1d" opacity="0.58" d=" M 523.16 20.88 C 524.45 20.77 525.73 20.88 527.00 21.22 C 526.75 22.75 522.85 22.53 523.16 20.88 Z" />
<path fill="#48ff53" opacity="1.00" d=" M 523.54 23.77 C 524.80 23.72 526.07 23.68 527.34 23.64 C 527.09 25.67 526.76 27.69 526.29 29.68 C 525.13 29.08 523.97 28.49 522.82 27.90 C 523.04 26.52 523.29 25.14 523.54 23.77 Z" />
<path fill="#ffffff" opacity="1.00" d=" M 13.87 24.98 C 21.26 22.83 30.17 24.77 34.83 31.22 C 40.87 39.08 39.50 49.70 39.75 59.00 C 34.00 58.99 28.24 59.04 22.48 58.96 C 22.44 52.99 22.79 46.97 21.91 41.05 C 21.18 38.71 18.11 39.98 18.39 42.13 C 17.54 55.39 18.22 68.72 18.00 82.01 C 18.19 87.69 17.46 93.52 18.77 99.10 C 19.58 100.90 21.97 100.19 22.23 98.44 C 23.53 92.57 22.82 86.46 22.99 80.49 C 22.18 80.50 20.56 80.50 19.75 80.50 C 19.75 75.83 19.75 71.17 19.75 66.50 C 26.41 66.49 33.08 66.51 39.74 66.49 C 39.77 82.32 39.74 98.16 39.76 113.99 C 36.02 114.00 32.29 114.02 28.56 113.96 C 28.19 112.26 27.83 110.55 27.49 108.83 C 25.77 111.79 23.44 114.86 19.86 115.52 C 13.84 116.95 7.82 113.24 4.74 108.22 C 1.33 102.83 0.80 96.25 0.74 90.03 C 0.77 76.68 0.72 63.33 0.77 49.97 C 1.06 45.44 1.02 40.78 2.47 36.44 C 4.49 31.31 8.48 26.63 13.87 24.98 Z" />
<path fill="#ffff26" opacity="1.00" d=" M 261.52 24.73 C 267.15 23.54 273.56 24.13 278.16 27.87 C 283.22 31.95 285.53 38.58 285.86 44.91 C 286.56 57.93 286.13 70.98 286.26 84.02 C 285.89 91.82 286.64 100.25 282.37 107.20 C 276.87 117.35 261.19 118.70 253.41 110.53 C 249.32 106.11 247.58 100.01 247.39 94.10 C 246.90 79.75 246.82 65.37 247.25 51.02 C 247.24 45.05 247.55 38.80 250.52 33.46 C 252.75 29.17 256.81 25.89 261.52 24.73 M 265.46 40.36 C 264.44 42.02 264.64 44.12 264.50 45.99 C 264.50 61.66 264.51 77.33 264.49 93.00 C 264.50 94.99 264.56 97.00 264.99 98.95 C 265.48 100.56 267.95 100.74 268.21 98.82 C 268.86 96.59 268.74 94.25 268.76 91.96 C 268.69 75.74 268.84 59.51 268.69 43.29 C 268.85 41.49 267.47 38.36 265.46 40.36 Z" />
<path fill="#76ff7c" opacity="1.00" d=" M 491.75 24.57 C 492.61 24.56 494.32 24.53 495.18 24.52 C 496.01 27.95 497.26 31.62 500.28 33.75 C 502.45 35.49 505.25 36.02 507.93 36.52 C 507.88 37.71 507.84 38.90 507.80 40.09 C 504.00 39.54 500.08 38.50 497.18 35.84 C 493.84 33.05 492.25 28.79 491.75 24.57 Z" />
<path fill="#ffffff" opacity="1.00" d=" M 52.35 26.13 C 60.55 25.83 68.75 26.08 76.95 26.00 C 80.11 55.33 83.46 84.65 86.51 113.99 C 80.67 114.01 74.83 113.99 68.99 114.00 C 68.54 108.75 68.48 103.46 67.94 98.21 C 66.22 98.24 64.51 98.25 62.79 98.26 C 62.67 103.52 62.21 108.75 61.95 114.00 C 55.95 113.98 49.95 114.05 43.95 113.95 C 46.75 84.68 49.72 55.42 52.35 26.13 M 65.52 50.71 C 64.36 61.12 63.53 71.56 62.72 82.00 C 64.26 82.00 65.80 82.00 67.34 82.00 C 66.86 71.56 65.82 61.16 65.52 50.71 Z" />
<path fill="#ffffff" opacity="1.00" d=" M 90.03 26.03 C 97.41 25.97 104.79 26.01 112.17 26.00 C 113.39 38.17 114.69 50.34 116.14 62.48 C 117.21 50.30 118.52 38.15 119.59 25.97 C 126.97 26.05 134.34 25.95 141.72 26.03 C 141.77 55.34 141.77 84.66 141.72 113.97 C 136.56 114.03 131.41 113.99 126.25 114.00 C 126.36 97.55 126.01 81.09 126.43 64.65 C 124.22 81.02 123.14 97.55 121.44 114.00 C 117.81 114.00 114.18 114.00 110.56 114.00 C 108.86 97.79 107.40 81.55 105.46 65.37 C 105.53 81.58 105.50 97.79 105.50 114.00 C 100.34 113.99 95.18 114.03 90.03 113.97 C 89.98 84.66 89.98 55.34 90.03 26.03 Z" />
<path fill="#ffffff" opacity="1.00" d=" M 149.75 26.00 C 159.17 26.00 168.58 26.00 178.00 26.00 C 178.00 32.07 178.00 38.13 178.00 44.20 C 174.33 44.28 170.67 44.25 167.00 44.25 C 166.99 49.50 167.00 54.75 167.00 60.00 C 170.42 60.00 173.83 60.00 177.25 60.00 C 177.24 65.74 177.27 71.49 177.23 77.23 C 173.82 77.26 170.41 77.25 167.01 77.25 C 166.99 83.41 167.00 89.58 167.00 95.75 C 171.00 95.75 175.00 95.75 179.00 95.75 C 178.99 101.82 179.03 107.90 178.97 113.97 C 169.23 114.03 159.49 113.99 149.75 114.00 C 149.75 84.67 149.75 55.33 149.75 26.00 Z" />
<path fill="#ffff26" opacity="1.00" d=" M 201.24 26.01 C 209.95 26.32 218.78 25.23 227.40 26.76 C 233.59 27.75 237.37 33.80 238.35 39.57 C 239.44 46.27 239.78 53.23 238.47 59.93 C 237.77 63.24 234.92 65.48 231.90 66.62 C 234.51 67.98 237.26 69.61 238.49 72.44 C 241.21 78.58 240.36 85.47 240.51 91.99 C 240.44 97.87 240.71 104.26 237.58 109.48 C 235.15 113.32 230.14 113.67 226.05 113.94 C 217.78 114.09 209.51 113.96 201.24 113.99 C 201.25 84.66 201.25 55.34 201.24 26.01 M 218.51 41.64 C 218.48 47.90 218.51 54.16 218.50 60.42 C 219.91 60.10 222.11 60.59 222.54 58.71 C 223.27 53.88 223.55 48.81 222.57 43.98 C 222.21 42.10 220.04 41.89 218.51 41.64 M 218.51 74.67 C 218.50 82.50 218.49 90.34 218.52 98.18 C 220.33 97.98 222.83 97.42 222.82 95.10 C 223.42 89.09 223.54 82.97 222.71 76.97 C 222.48 74.91 219.94 75.19 218.51 74.67 Z" />
<path fill="#ffff26" opacity="1.00" d=" M 289.21 26.00 C 294.50 26.00 299.80 26.00 305.10 26.00 C 306.25 36.36 308.31 46.69 308.53 57.12 C 310.45 46.82 311.52 36.36 313.09 26.00 C 318.41 26.02 323.73 25.94 329.05 26.06 C 325.37 42.75 321.85 59.47 318.21 76.17 C 317.66 78.75 316.90 81.33 316.99 84.00 C 316.99 93.99 317.03 103.98 316.97 113.97 C 311.58 114.02 306.19 113.99 300.80 114.00 C 300.56 103.11 301.02 92.20 300.57 81.32 C 296.86 62.87 292.94 44.45 289.21 26.00 Z" />
<path fill="#ffff26" opacity="1.00" d=" M 354.34 26.03 C 362.54 25.96 370.73 26.02 378.92 26.00 C 382.07 55.34 385.37 84.65 388.50 113.99 C 382.63 114.01 376.76 113.99 370.89 114.00 C 370.55 108.74 370.39 103.47 369.92 98.21 C 368.21 98.24 366.50 98.25 364.80 98.26 C 364.57 103.51 364.15 108.75 363.95 114.00 C 357.95 113.98 351.94 114.05 345.94 113.95 C 348.68 84.64 351.67 55.35 354.34 26.03 M 367.49 51.70 C 366.10 61.75 365.51 71.89 364.70 82.00 C 366.23 82.00 367.76 82.00 369.30 82.00 C 368.81 71.89 367.85 61.81 367.49 51.70 Z" />
<path fill="#ffff26" opacity="1.00" d=" M 392.00 26.00 C 400.38 26.19 408.80 25.53 417.14 26.53 C 421.23 26.97 425.39 28.80 427.68 32.36 C 431.04 37.21 430.97 43.39 431.00 49.04 C 431.46 62.01 431.19 74.99 431.23 87.97 C 430.62 94.79 431.92 102.18 428.53 108.45 C 426.27 112.43 421.49 113.87 417.18 113.95 C 408.80 114.07 400.41 113.99 392.03 113.97 C 391.97 84.65 392.02 55.32 392.00 26.00 M 409.53 41.57 C 409.48 60.48 409.49 79.39 409.53 98.30 C 410.73 97.69 412.98 97.80 413.06 95.96 C 414.19 90.71 413.61 85.30 413.75 79.98 C 413.63 68.52 413.98 57.04 413.58 45.59 C 413.75 43.10 411.78 41.78 409.53 41.57 Z" />
<path fill="#ffff26" opacity="1.00" d=" M 434.69 26.00 C 440.75 26.03 446.81 25.91 452.87 26.08 C 454.01 43.46 455.84 60.81 456.35 78.23 C 457.27 73.92 457.30 69.50 457.61 65.12 C 458.44 52.09 459.43 39.06 460.25 26.02 C 466.27 25.98 472.29 26.00 478.31 26.01 C 475.67 55.35 472.80 84.68 469.99 114.01 C 461.42 113.99 452.85 114.02 444.29 113.99 C 441.09 84.66 437.83 55.34 434.69 26.00 Z" />
<path fill="#65ff6d" opacity="1.00" d=" M 522.82 27.90 C 523.97 28.49 525.13 29.08 526.29 29.68 C 523.95 35.85 517.86 39.49 511.51 40.26 C 511.39 39.03 511.29 37.80 511.21 36.58 C 516.32 36.04 521.15 32.91 522.82 27.90 Z" />
</svg>
