<?xml version="1.0" encoding="UTF-8" ?>
<!DOCTYPE svg PUBLIC "-//W3C//DTD SVG 1.1//EN" "http://www.w3.org/Graphics/SVG/1.1/DTD/svg11.dtd">
<svg width="533pt" height="133pt" viewBox="0 0 533 133" version="1.1" xmlns="http://www.w3.org/2000/svg">
<path fill="#a62a32" opacity="0.78" d=" M 489.26 17.97 C 492.34 6.92 505.99 0.09 516.60 4.55 C 524.92 7.17 530.72 15.46 531.00 24.07 C 530.39 28.32 528.91 32.48 526.26 35.89 C 525.95 35.62 525.32 35.08 525.01 34.81 C 527.43 31.34 529.11 27.18 528.82 22.88 C 528.63 16.12 524.15 9.89 518.06 7.10 C 510.87 3.65 501.57 4.93 495.85 10.58 C 491.02 14.97 489.27 21.96 490.69 28.24 C 490.05 24.84 490.02 21.35 489.26 17.97 Z" />
<path fill="#43ff4e" opacity="1.00" d=" M 497.11 10.68 C 500.13 8.44 503.66 7.09 507.37 6.52 C 507.33 7.37 507.25 9.06 507.22 9.90 C 505.21 9.64 503.19 10.27 501.68 11.60 C 501.05 12.06 500.43 12.52 499.80 12.97 C 499.13 12.40 497.78 11.25 497.11 10.68 Z" />
<path fill="#3fff4b" opacity="1.00" d=" M 510.51 6.47 C 518.57 6.71 526.60 12.73 526.97 21.19 C 525.74 20.86 524.49 20.77 523.24 20.92 C 522.95 19.87 522.73 18.82 522.39 17.79 C 521.09 12.59 515.52 9.38 510.35 9.91 C 510.39 9.05 510.47 7.33 510.51 6.47 Z" />
<path fill="#324e1b" opacity="0.69" d=" M 501.68 11.60 C 503.19 10.27 505.21 9.64 507.22 9.90 C 506.49 11.59 503.38 12.10 501.68 11.60 Z" />
<path fill="#45802b" opacity="0.82" d=" M 510.35 9.91 C 515.52 9.38 521.09 12.59 522.39 17.79 L 521.29 17.00 L 521.07 16.53 C 519.39 12.13 514.35 11.12 510.35 9.91 Z" />
<path fill="#59ff61" opacity="1.00" d=" M 491.60 21.68 C 492.28 17.53 494.11 13.65 497.11 10.68 C 497.78 11.25 499.13 12.40 499.80 12.97 C 498.88 14.06 497.97 15.15 497.07 16.24 C 498.66 16.36 500.26 16.47 501.87 16.56 C 501.78 19.45 501.64 22.33 501.37 25.20 C 501.06 23.28 500.77 21.35 500.49 19.42 C 499.26 19.51 498.03 19.60 496.80 19.69 C 496.66 19.08 496.38 17.84 496.24 17.23 C 495.89 18.77 495.56 20.31 495.27 21.86 C 494.35 21.82 492.52 21.73 491.60 21.68 Z" />
<path fill="#4dff57" opacity="1.00" d=" M 509.05 21.36 C 509.29 19.61 509.45 17.85 509.88 16.14 C 513.61 16.06 517.34 16.32 521.07 16.53 L 521.29 17.00 C 521.31 17.77 521.34 19.30 521.35 20.07 C 520.01 21.55 518.59 22.95 517.09 24.25 C 515.94 23.21 514.84 22.12 513.73 21.05 L 513.32 20.65 C 511.89 20.88 510.47 21.11 509.05 21.36 Z" />
<path fill="#b85358" opacity="0.80" d=" M 489.26 17.97 C 490.02 21.35 490.05 24.84 490.69 28.24 C 492.92 35.78 500.06 41.47 507.91 41.95 C 514.35 42.57 520.90 39.78 525.01 34.81 C 525.32 35.08 525.95 35.62 526.26 35.89 C 521.93 40.85 515.52 43.87 508.96 44.05 C 501.93 43.37 494.98 39.82 491.24 33.66 C 488.59 28.96 486.95 23.16 489.26 17.97 Z" />
<path fill="#68ff6f" opacity="1.00" d=" M 496.80 19.69 C 498.03 19.60 499.26 19.51 500.49 19.42 C 500.77 21.35 501.06 23.28 501.37 25.20 C 503.38 24.85 505.40 24.55 507.43 24.29 C 507.60 25.76 507.77 27.23 507.96 28.70 C 504.44 29.31 500.89 29.65 497.34 29.98 C 497.15 26.55 496.82 23.13 496.80 19.69 Z" />
<path fill="#5aff62" opacity="1.00" d=" M 513.73 21.05 C 514.84 22.12 515.94 23.21 517.09 24.25 C 518.30 25.41 520.13 24.19 521.58 24.28 C 521.54 26.14 521.54 28.00 521.55 29.86 C 517.45 30.34 513.34 29.61 509.23 29.72 C 509.22 28.73 509.18 26.75 509.17 25.76 C 510.69 24.19 512.21 22.63 513.73 21.05 Z" />
<path fill="#2f5d1d" opacity="0.58" d=" M 523.24 20.92 C 524.49 20.77 525.74 20.86 526.97 21.19 C 526.81 22.78 522.95 22.58 523.24 20.92 Z" />
<path fill="#48ff53" opacity="1.00" d=" M 523.58 23.75 C 524.84 23.72 526.10 23.69 527.38 23.65 C 527.06 25.63 526.74 27.60 526.36 29.55 C 525.13 29.09 523.91 28.63 522.69 28.17 C 522.97 26.69 523.27 25.22 523.58 23.75 Z" />
<path fill="#ffffff" opacity="1.00" d=" M 1.75 40.17 C 3.23 30.80 12.44 23.32 21.98 24.21 C 30.98 23.73 39.94 30.02 42.05 38.86 C 43.54 45.45 43.59 52.27 43.46 58.99 C 37.13 58.97 30.81 59.09 24.49 58.92 C 24.27 52.95 25.06 46.90 23.93 41.00 C 22.67 38.32 19.34 40.61 19.95 43.07 C 19.49 57.02 19.88 71.01 19.75 84.97 C 19.91 89.47 19.31 94.06 20.31 98.50 C 20.68 100.78 23.91 100.61 24.33 98.44 C 25.65 92.57 24.73 86.48 24.99 80.51 C 24.13 80.50 22.39 80.47 21.52 80.46 C 21.49 75.81 21.48 71.17 21.53 66.52 C 28.84 66.48 36.15 66.49 43.46 66.51 C 43.50 82.35 43.59 98.19 43.41 114.03 C 39.34 113.98 35.27 114.00 31.20 114.00 C 30.74 112.32 30.28 110.64 29.84 108.95 C 27.60 112.81 23.70 116.06 19.00 115.79 C 9.50 116.07 2.36 107.00 1.43 98.14 C 0.18 85.15 0.98 72.07 0.74 59.03 C 0.79 52.74 0.87 46.41 1.75 40.17 Z" />
<path fill="#ffff26" opacity="1.00" d=" M 223.87 33.86 C 231.08 21.07 252.14 20.85 260.13 32.93 C 262.67 36.74 263.30 41.42 263.66 45.89 C 264.23 52.16 263.93 58.47 264.00 64.76 C 257.67 64.74 251.35 64.78 245.03 64.73 C 244.92 57.77 245.10 50.81 244.96 43.85 C 244.93 42.07 244.54 39.55 242.20 39.68 C 239.01 40.11 239.64 43.90 239.31 46.24 C 239.17 60.49 239.30 74.74 239.24 88.99 C 239.25 92.27 239.17 95.61 239.98 98.81 C 240.91 101.03 244.53 100.33 244.64 97.91 C 245.45 91.41 244.76 84.81 245.03 78.27 C 251.35 78.22 257.67 78.26 263.99 78.24 C 264.00 85.51 264.19 92.86 262.80 100.02 C 261.09 109.13 252.16 116.08 242.93 115.79 C 236.39 116.06 229.25 113.96 225.19 108.52 C 221.23 103.23 220.91 96.31 220.53 89.97 C 220.08 78.98 220.27 67.99 220.27 56.99 C 220.81 49.24 219.59 40.81 223.87 33.86 Z" />
<path fill="#ffff26" opacity="1.00" d=" M 287.54 24.66 C 293.97 23.50 301.21 24.25 306.36 28.61 C 311.35 32.92 313.73 39.61 313.84 46.10 C 314.43 62.03 314.43 77.99 313.83 93.92 C 313.64 100.15 311.58 106.57 306.90 110.88 C 300.49 116.55 290.67 117.16 283.05 113.77 C 275.97 110.45 272.22 102.49 271.89 94.97 C 271.12 81.67 271.66 68.34 271.49 55.02 C 271.81 47.53 271.25 39.41 275.59 32.87 C 278.23 28.63 282.66 25.64 287.54 24.66 M 292.11 39.86 C 290.34 41.34 290.60 43.84 290.49 45.91 C 290.55 62.58 290.42 79.25 290.55 95.92 C 290.43 97.85 291.22 101.33 293.93 99.86 C 295.39 97.89 294.96 95.24 295.23 92.94 C 295.24 76.99 295.30 61.03 295.20 45.07 C 295.01 43.07 295.21 39.10 292.11 39.86 Z" />
<path fill="#ffff26" opacity="1.00" d=" M 409.55 24.71 C 417.76 22.93 427.69 25.14 432.27 32.75 C 436.91 39.58 436.10 48.13 436.50 55.96 C 436.49 65.64 436.54 75.31 436.48 84.99 C 436.09 92.26 436.74 100.12 432.69 106.57 C 425.61 119.06 404.52 118.98 397.52 106.45 C 393.21 99.40 394.23 90.86 393.75 82.98 C 393.88 69.60 393.34 56.18 394.40 42.83 C 395.20 34.49 401.03 26.38 409.55 24.71 M 414.02 40.24 C 412.73 41.85 412.88 44.05 412.75 45.99 C 412.75 60.33 412.76 74.67 412.75 89.01 C 412.75 92.06 412.60 95.13 413.13 98.15 C 413.23 99.74 414.53 100.40 416.00 100.09 C 417.69 98.17 417.34 95.41 417.51 93.04 C 417.44 76.72 417.60 60.39 417.43 44.07 C 417.61 42.24 416.48 38.36 414.02 40.24 Z" />
<path fill="#76ff7c" opacity="1.00" d=" M 491.73 24.58 C 492.59 24.56 494.29 24.53 495.15 24.51 C 496.05 27.92 497.23 31.60 500.25 33.73 C 502.43 35.49 505.25 35.98 507.92 36.54 C 507.87 37.72 507.83 38.91 507.80 40.10 C 503.76 39.51 499.58 38.32 496.63 35.33 C 493.61 32.56 492.28 28.53 491.73 24.58 Z" />
<path fill="#ffffff" opacity="1.00" d=" M 47.42 113.99 C 50.47 84.65 53.62 55.32 56.79 26.00 C 65.61 26.00 74.43 26.01 83.25 25.99 C 86.78 55.32 90.33 84.65 93.74 114.00 C 87.34 114.00 80.94 114.00 74.54 114.00 C 74.12 108.76 73.93 103.50 73.49 98.26 C 71.68 98.25 69.88 98.24 68.07 98.22 C 67.57 103.47 67.45 108.75 66.99 114.00 C 60.47 113.99 53.94 114.01 47.42 113.99 M 67.94 82.01 C 69.57 82.00 71.19 81.99 72.82 81.98 C 71.94 71.82 71.34 61.65 70.52 51.49 C 69.74 61.67 68.67 71.82 67.94 82.01 Z" />
<path fill="#ffffff" opacity="1.00" d=" M 98.50 26.07 C 106.56 25.92 114.61 26.04 122.67 26.00 C 123.78 38.44 126.00 50.81 126.53 63.29 C 128.39 50.93 129.25 38.43 130.58 26.00 C 138.71 26.01 146.84 25.97 154.97 26.03 C 155.02 55.34 155.02 84.66 154.97 113.97 C 149.40 114.03 143.82 113.99 138.25 114.00 C 138.34 97.22 138.05 80.44 138.40 63.66 C 136.02 80.37 134.69 97.23 132.68 114.00 C 128.73 114.00 124.78 114.00 120.83 114.00 C 119.11 97.49 117.01 81.01 115.47 64.48 C 114.97 80.97 115.39 97.49 115.25 114.00 C 109.67 113.97 104.09 114.06 98.51 113.94 C 98.49 84.65 98.50 55.36 98.50 26.07 Z" />
<path fill="#ffffff" opacity="1.00" d=" M 163.75 26.00 C 173.99 26.01 184.22 25.99 194.46 26.01 C 194.55 32.08 194.49 38.14 194.50 44.21 C 190.58 44.28 186.67 44.24 182.75 44.25 C 182.75 49.50 182.75 54.75 182.75 60.00 C 186.41 60.00 190.07 59.97 193.74 60.04 C 193.77 65.76 193.74 71.47 193.75 77.19 C 190.09 77.29 186.42 77.25 182.75 77.25 C 182.75 83.42 182.75 89.59 182.76 95.76 C 187.09 95.75 191.42 95.71 195.75 95.80 C 195.74 101.86 195.78 107.91 195.73 113.97 C 185.07 114.04 174.41 113.98 163.75 114.00 C 163.75 84.67 163.75 55.33 163.75 26.00 Z" />
<path fill="#ffff26" opacity="1.00" d=" M 322.03 26.03 C 328.35 25.97 334.67 26.01 341.00 26.00 C 341.00 49.25 340.99 72.50 341.01 95.75 C 344.67 95.75 348.33 95.75 352.00 95.75 C 352.00 101.83 352.00 107.92 352.00 114.00 C 342.01 113.98 332.02 114.03 322.03 113.97 C 321.98 84.66 321.98 55.34 322.03 26.03 Z" />
<path fill="#ffff26" opacity="1.00" d=" M 358.24 26.00 C 364.49 26.00 370.75 26.00 377.00 26.00 C 377.00 49.25 376.99 72.50 377.00 95.75 C 380.67 95.75 384.33 95.75 388.00 95.75 C 388.00 101.83 388.00 107.92 388.00 114.00 C 378.08 114.00 368.16 114.01 358.24 114.00 C 358.25 84.66 358.25 55.33 358.24 26.00 Z" />
<path fill="#ffff26" opacity="1.00" d=" M 444.48 26.02 C 452.03 26.04 459.58 25.87 467.12 26.10 C 471.56 26.46 476.73 26.50 479.98 30.06 C 484.50 34.40 485.30 41.06 485.50 47.01 C 485.44 52.61 486.01 58.51 483.77 63.80 C 482.66 66.43 479.82 67.49 477.40 68.54 C 482.51 69.99 485.38 75.36 485.45 80.41 C 485.59 91.59 485.43 102.78 485.52 113.97 C 479.68 114.03 473.84 113.99 468.00 114.00 C 467.75 101.96 468.53 89.87 467.54 77.86 C 467.62 75.52 465.05 74.96 463.28 74.54 C 463.21 87.69 463.27 100.85 463.25 114.00 C 456.99 113.99 450.74 114.01 444.49 113.99 C 444.50 84.66 444.51 55.34 444.48 26.02 M 463.25 41.58 C 463.28 47.90 463.20 54.22 463.30 60.54 C 464.87 60.09 467.27 60.01 467.53 57.94 C 468.16 53.46 468.35 48.81 467.51 44.35 C 467.15 42.25 464.87 42.13 463.25 41.58 Z" />
<path fill="#65ff6d" opacity="1.00" d=" M 522.69 28.17 C 523.91 28.63 525.13 29.09 526.36 29.55 C 523.99 35.77 517.90 39.58 511.44 40.21 C 511.36 39.00 511.29 37.80 511.23 36.60 C 516.28 36.04 520.86 33.01 522.69 28.17 Z" />
</svg>
