<?xml version="1.0" encoding="UTF-8" ?>
<!DOCTYPE svg PUBLIC "-//W3C//DTD SVG 1.1//EN" "http://www.w3.org/Graphics/SVG/1.1/DTD/svg11.dtd">
<svg width="533pt" height="133pt" viewBox="0 0 533 133" version="1.1" xmlns="http://www.w3.org/2000/svg">
<path fill="#a62a32" opacity="0.78" d=" M 503.96 4.06 C 516.85 -0.29 531.86 11.46 530.85 25.02 C 530.17 28.94 528.68 32.72 526.27 35.91 C 525.95 35.64 525.32 35.11 525.00 34.84 C 529.37 29.08 530.21 20.79 526.35 14.55 C 521.27 5.76 509.05 2.65 500.21 7.42 C 492.75 11.14 488.68 20.06 490.66 28.17 C 490.16 24.71 489.87 21.23 489.28 17.79 C 491.30 11.05 497.18 5.78 503.96 4.06 Z" />
<path fill="#43ff4e" opacity="1.00" d=" M 497.17 10.61 C 500.21 8.43 503.71 7.10 507.39 6.51 C 507.34 7.35 507.23 9.04 507.18 9.89 C 505.19 9.64 503.20 10.27 501.71 11.58 C 501.00 12.11 500.31 12.65 499.62 13.20 C 499.01 12.55 497.78 11.25 497.17 10.61 Z" />
<path fill="#3fff4b" opacity="1.00" d=" M 510.48 6.45 C 518.53 6.72 526.60 12.69 526.96 21.16 C 525.74 20.85 524.52 20.77 523.29 20.92 C 522.97 19.90 522.74 18.86 522.40 17.85 C 521.24 12.53 515.56 9.47 510.41 9.90 C 510.43 9.04 510.46 7.31 510.48 6.45 Z" />
<path fill="#324e1b" opacity="0.69" d=" M 501.71 11.58 C 503.20 10.27 505.19 9.64 507.18 9.89 C 506.47 11.65 503.42 12.10 501.71 11.58 Z" />
<path fill="#45802b" opacity="0.82" d=" M 510.41 9.90 C 515.56 9.47 521.24 12.53 522.40 17.85 L 521.27 16.98 L 521.03 16.50 C 519.36 12.13 514.36 11.14 510.41 9.90 Z" />
<path fill="#59ff61" opacity="1.00" d=" M 491.58 21.72 C 492.28 17.52 494.14 13.62 497.17 10.61 C 497.78 11.25 499.01 12.55 499.62 13.20 C 498.76 14.24 497.88 15.25 496.96 16.22 C 498.58 16.33 500.21 16.45 501.85 16.56 C 501.76 19.44 501.64 22.31 501.40 25.18 C 501.07 23.28 500.76 21.38 500.45 19.48 C 499.24 19.53 498.02 19.58 496.81 19.62 C 496.64 19.06 496.31 17.92 496.14 17.36 C 495.84 18.87 495.56 20.37 495.29 21.89 C 494.36 21.84 492.51 21.76 491.58 21.72 Z" />
<path fill="#4dff57" opacity="1.00" d=" M 509.79 16.29 C 513.51 15.85 517.29 16.42 521.03 16.50 L 521.27 16.98 C 521.30 17.75 521.36 19.29 521.38 20.06 C 520.00 21.52 518.58 22.95 517.09 24.30 C 515.95 23.23 514.84 22.14 513.73 21.05 L 513.30 20.62 C 511.88 20.87 510.46 21.12 509.06 21.37 C 509.27 19.67 509.45 17.97 509.79 16.29 Z" />
<path fill="#b85358" opacity="0.80" d=" M 489.28 17.79 C 489.87 21.23 490.16 24.71 490.66 28.17 C 492.88 35.74 500.05 41.48 507.94 41.95 C 514.37 42.57 520.86 39.76 525.00 34.84 C 525.32 35.11 525.95 35.64 526.27 35.91 C 521.91 40.84 515.51 43.90 508.93 44.05 C 502.19 43.38 495.51 40.12 491.70 34.36 C 488.65 29.51 486.88 23.30 489.28 17.79 Z" />
<path fill="#68ff6f" opacity="1.00" d=" M 496.81 19.62 C 498.02 19.58 499.24 19.53 500.45 19.48 C 500.76 21.38 501.07 23.28 501.40 25.18 C 503.40 24.85 505.42 24.57 507.43 24.28 C 507.60 25.76 507.77 27.24 507.95 28.72 C 504.43 29.28 500.88 29.66 497.34 29.97 C 497.11 26.53 496.85 23.08 496.81 19.62 Z" />
<path fill="#5aff62" opacity="1.00" d=" M 513.73 21.05 C 514.84 22.14 515.95 23.23 517.09 24.30 L 517.63 24.81 C 518.93 24.63 520.24 24.44 521.56 24.25 C 521.56 26.21 521.55 28.18 521.53 30.15 C 517.43 30.00 513.34 29.76 509.24 29.72 C 509.22 28.74 509.17 26.77 509.15 25.79 C 510.67 24.21 512.21 22.64 513.73 21.05 Z" />
<path fill="#2f5d1d" opacity="0.58" d=" M 523.29 20.92 C 524.52 20.77 525.74 20.85 526.96 21.16 C 526.86 22.80 522.97 22.60 523.29 20.92 Z" />
<path fill="#ffffff" opacity="1.00" d=" M 1.52 23.04 C 10.59 22.97 19.67 22.98 28.74 23.04 C 30.20 35.48 32.23 47.85 33.47 60.31 C 35.21 47.91 36.41 35.43 37.88 23.00 C 47.10 23.03 56.32 22.95 65.53 23.04 C 65.48 52.35 65.48 81.65 65.53 110.96 C 59.27 111.04 53.01 110.98 46.75 111.00 C 46.68 94.18 46.88 77.36 46.65 60.54 C 44.70 77.34 42.68 94.13 40.79 110.93 C 36.14 111.05 31.48 110.99 26.83 111.00 C 24.84 94.07 22.26 77.21 20.54 60.26 C 19.97 61.37 20.45 62.71 20.27 63.90 C 20.22 79.60 20.27 95.30 20.25 111.00 C 14.00 110.97 7.75 111.06 1.50 110.94 C 1.50 81.64 1.48 52.34 1.52 23.04 Z" />
<path fill="#ffffff" opacity="1.00" d=" M 70.56 111.00 C 73.92 81.66 77.51 52.34 80.89 23.00 C 90.99 23.00 101.09 23.00 111.19 23.00 C 115.13 52.33 119.10 81.65 122.95 110.99 C 115.67 110.99 108.39 111.04 101.11 110.97 C 100.83 105.72 100.41 100.49 100.06 95.25 C 97.98 95.24 95.89 95.25 93.81 95.26 C 93.44 100.50 93.09 105.75 92.70 111.00 C 85.32 111.00 77.94 111.00 70.56 111.00 M 93.63 79.00 C 95.59 79.00 97.55 79.00 99.51 79.00 C 98.29 68.62 97.93 58.14 96.57 47.78 C 96.00 58.22 94.35 68.57 93.63 79.00 Z" />
<path fill="#ffffff" opacity="1.00" d=" M 128.46 23.05 C 137.51 22.94 146.56 23.03 155.61 23.00 C 157.23 35.19 158.67 47.42 160.59 59.57 C 162.01 47.38 163.35 35.18 164.80 23.00 C 174.03 23.03 183.26 22.94 192.49 23.05 C 192.48 52.37 192.56 81.69 192.45 111.00 C 186.22 111.00 179.98 111.00 173.75 111.00 C 173.73 94.50 173.83 78.00 173.61 61.50 C 171.28 77.95 169.63 94.50 167.66 111.00 C 163.04 111.00 158.41 111.00 153.78 111.00 C 151.59 94.26 149.35 77.51 147.40 60.73 C 147.06 77.49 147.34 94.24 147.25 111.00 C 140.99 110.99 134.73 111.04 128.48 110.97 C 128.51 81.66 128.53 52.36 128.46 23.05 Z" />
<path fill="#ffffff" opacity="1.00" d=" M 202.00 23.00 C 213.66 23.02 225.32 22.97 236.97 23.02 C 237.03 29.09 236.99 35.15 237.00 41.21 C 232.41 41.28 227.83 41.24 223.25 41.25 C 223.25 46.50 223.25 51.75 223.25 57.00 C 227.57 57.00 231.89 57.00 236.21 57.00 C 236.29 62.75 236.25 68.49 236.24 74.24 C 231.91 74.26 227.58 74.25 223.25 74.25 C 223.25 80.42 223.25 86.58 223.25 92.75 C 228.33 92.76 233.41 92.72 238.49 92.78 C 238.49 98.85 238.54 104.92 238.46 110.99 C 226.31 111.01 214.15 110.99 202.00 111.00 C 202.00 81.67 202.00 52.33 202.00 23.00 Z" />
<path fill="#ffff26" opacity="1.00" d=" M 272.22 23.06 C 282.34 22.97 292.46 22.94 302.58 23.08 C 306.40 52.39 310.47 81.68 314.28 110.99 C 307.03 111.01 299.78 110.99 292.53 111.00 C 292.10 105.76 291.75 100.50 291.43 95.25 C 289.31 95.25 287.19 95.25 285.07 95.24 C 284.83 100.50 284.42 105.75 284.03 111.00 C 276.66 111.00 269.28 111.00 261.91 111.00 C 265.23 81.67 268.84 52.38 272.22 23.06 M 284.93 79.00 C 286.89 79.00 288.85 79.00 290.82 78.99 C 289.95 68.60 288.61 58.21 288.46 47.77 C 286.70 58.10 285.99 68.58 284.93 79.00 Z" />
<path fill="#ffff26" opacity="1.00" d=" M 319.79 23.00 C 326.86 23.00 333.93 23.00 341.00 23.00 C 341.00 46.25 341.00 69.50 341.00 92.75 C 345.25 92.75 349.49 92.75 353.74 92.74 C 353.75 98.82 353.76 104.89 353.74 110.96 C 342.42 111.05 331.11 110.98 319.79 111.00 C 319.72 81.67 319.72 52.33 319.79 23.00 Z" />
<path fill="#ffff26" opacity="1.00" d=" M 360.02 23.03 C 367.10 22.97 374.17 23.01 381.25 23.00 C 381.25 46.25 381.25 69.50 381.25 92.75 C 385.50 92.75 389.75 92.75 394.00 92.75 C 394.00 98.83 394.00 104.92 394.00 111.00 C 382.67 110.98 371.35 111.03 360.02 110.97 C 359.98 81.66 359.98 52.34 360.02 23.03 Z" />
<path fill="#ffff26" opacity="1.00" d=" M 420.47 23.04 C 431.45 23.21 442.50 22.37 453.42 23.78 C 460.38 24.53 465.19 30.96 466.17 37.53 C 467.25 44.80 467.61 52.46 465.44 59.56 C 464.43 63.11 460.76 64.60 457.54 65.52 C 462.74 66.60 466.57 71.59 466.69 76.82 C 467.29 88.19 466.90 99.59 466.97 110.98 C 460.32 111.01 453.67 111.02 447.02 110.97 C 446.98 100.96 447.00 90.95 447.02 80.94 C 447.04 78.20 446.67 75.48 446.08 72.81 C 444.63 72.44 443.19 72.03 441.77 71.61 C 441.72 84.73 441.79 97.85 441.73 110.97 C 434.66 111.01 427.58 111.03 420.51 110.96 C 420.46 81.65 420.55 52.35 420.47 23.04 M 441.77 38.67 C 441.75 44.93 441.74 51.19 441.77 57.46 C 443.48 57.02 446.18 57.27 446.51 54.96 C 447.25 50.71 447.22 46.28 446.69 42.00 C 446.46 39.49 443.75 39.04 441.77 38.67 Z" />
<path fill="#48ff53" opacity="1.00" d=" M 523.56 23.73 C 524.83 23.71 526.11 23.68 527.40 23.66 C 527.05 25.65 526.70 27.64 526.35 29.62 C 525.17 29.05 524.00 28.48 522.84 27.91 C 523.06 26.51 523.32 25.13 523.56 23.73 Z" />
<path fill="#76ff7c" opacity="1.00" d=" M 491.72 24.58 C 492.57 24.56 494.28 24.53 495.13 24.51 C 496.07 27.91 497.21 31.60 500.25 33.72 C 502.42 35.50 505.26 35.95 507.92 36.55 C 507.88 37.73 507.84 38.91 507.82 40.09 C 503.56 39.51 499.16 38.16 496.18 34.89 C 493.43 32.14 492.29 28.32 491.72 24.58 Z" />
<path fill="#65ff6d" opacity="1.00" d=" M 522.84 27.91 C 524.00 28.48 525.17 29.05 526.35 29.62 C 523.95 35.80 517.92 39.44 511.55 40.30 C 511.41 39.08 511.29 37.85 511.18 36.63 C 516.33 36.02 521.05 32.90 522.84 27.91 Z" />
<path fill="#ffff26" opacity="1.00" d=" M 474.75 92.50 C 479.91 92.50 485.08 92.49 490.25 92.50 C 490.25 98.67 490.25 104.83 490.25 111.00 C 485.08 111.00 479.91 111.00 474.75 111.00 C 474.75 104.83 474.75 98.67 474.75 92.50 Z" />
</svg>
