<?xml version="1.0" encoding="UTF-8" ?>
<!DOCTYPE svg PUBLIC "-//W3C//DTD SVG 1.1//EN" "http://www.w3.org/Graphics/SVG/1.1/DTD/svg11.dtd">
<svg width="533pt" height="133pt" viewBox="0 0 533 133" version="1.1" xmlns="http://www.w3.org/2000/svg">
<path fill="#a72a32" opacity="0.78" d=" M 491.35 17.67 C 494.59 6.82 508.04 0.13 518.56 4.53 C 526.49 6.99 531.89 14.51 533.00 22.57 L 533.00 23.99 C 532.35 28.17 531.04 32.35 528.36 35.71 C 528.05 35.45 527.43 34.92 527.12 34.66 C 531.42 28.93 532.16 20.73 528.36 14.56 C 523.40 5.98 511.63 2.77 502.83 7.11 C 495.01 10.65 490.57 19.86 492.69 28.20 C 492.04 24.72 491.85 21.17 491.35 17.67 Z" />
<path fill="#43ff4e" opacity="1.00" d=" M 499.13 10.67 C 502.12 8.45 505.62 7.09 509.31 6.54 C 509.33 7.34 509.36 8.95 509.38 9.75 C 507.13 9.80 504.88 10.46 503.18 11.95 C 502.74 12.28 502.31 12.60 501.88 12.93 C 501.19 12.36 499.82 11.23 499.13 10.67 Z" />
<path fill="#3fff4b" opacity="1.00" d=" M 512.47 6.49 C 520.57 6.66 528.62 12.75 528.98 21.22 C 527.73 20.88 526.47 20.76 525.19 20.86 C 524.93 19.86 524.75 18.85 524.44 17.88 C 523.26 12.60 517.58 9.38 512.41 9.95 C 512.42 9.08 512.45 7.35 512.47 6.49 Z" />
<path fill="#324e1b" opacity="0.69" d=" M 503.18 11.95 C 504.88 10.46 507.13 9.80 509.38 9.75 C 508.34 11.48 505.15 12.07 503.18 11.95 Z" />
<path fill="#45802b" opacity="0.82" d=" M 512.41 9.95 C 517.58 9.38 523.26 12.60 524.44 17.88 L 523.24 17.11 L 523.01 16.51 C 521.41 12.13 516.36 11.12 512.41 9.95 Z" />
<path fill="#59ff61" opacity="1.00" d=" M 493.61 21.60 C 494.31 17.48 496.12 13.62 499.13 10.67 C 499.82 11.23 501.19 12.36 501.88 12.93 C 500.92 14.02 499.97 15.11 499.03 16.21 C 500.65 16.35 502.28 16.49 503.91 16.62 C 503.75 19.47 503.61 22.32 503.48 25.16 C 503.08 23.28 502.69 21.40 502.30 19.51 C 501.13 19.53 499.96 19.54 498.80 19.55 C 498.64 18.95 498.33 17.77 498.18 17.18 C 497.87 18.73 497.57 20.28 497.29 21.84 C 496.37 21.78 494.53 21.66 493.61 21.60 Z" />
<path fill="#4dff57" opacity="1.00" d=" M 511.08 21.35 C 511.75 19.69 510.62 16.58 512.75 15.91 C 516.17 16.10 519.58 16.40 523.01 16.51 L 523.24 17.11 C 523.27 17.85 523.32 19.31 523.35 20.05 C 522.02 21.58 520.59 23.02 518.97 24.24 C 517.84 23.23 516.76 22.17 515.70 21.09 L 515.28 20.67 C 513.87 20.90 512.47 21.13 511.08 21.35 Z" />
<path fill="#b85358" opacity="0.80" d=" M 491.35 17.67 C 491.85 21.17 492.04 24.72 492.69 28.20 C 494.60 34.60 499.98 39.78 506.47 41.38 C 513.90 43.40 522.32 40.70 527.12 34.66 C 527.43 34.92 528.05 35.45 528.36 35.71 C 524.33 40.61 518.22 43.46 511.96 44.05 C 504.58 43.81 497.15 40.06 493.25 33.66 C 490.51 28.87 488.95 22.95 491.35 17.67 Z" />
<path fill="#68ff6f" opacity="1.00" d=" M 498.80 19.55 C 499.96 19.54 501.13 19.53 502.30 19.51 C 502.69 21.40 503.08 23.28 503.48 25.16 C 505.45 24.84 507.44 24.56 509.43 24.29 C 509.60 25.76 509.77 27.23 509.96 28.70 C 506.44 29.31 502.88 29.65 499.33 29.97 C 499.14 26.50 498.83 23.03 498.80 19.55 Z" />
<path fill="#5aff62" opacity="1.00" d=" M 515.70 21.09 C 516.76 22.17 517.84 23.23 518.97 24.24 C 520.24 25.43 522.06 24.21 523.55 24.25 C 523.54 26.25 523.55 28.24 523.58 30.24 C 519.47 29.97 515.35 29.74 511.23 29.72 C 511.21 28.73 511.19 26.74 511.17 25.74 C 512.68 24.19 514.19 22.65 515.70 21.09 Z" />
<path fill="#2f5d1d" opacity="0.58" d=" M 525.19 20.86 C 526.47 20.76 527.73 20.88 528.98 21.22 C 528.71 22.77 524.81 22.52 525.19 20.86 Z" />
<path fill="#48ff53" opacity="1.00" d=" M 525.53 23.77 C 526.80 23.73 528.08 23.68 529.37 23.65 C 529.07 25.76 528.71 27.85 528.21 29.92 C 527.06 29.32 525.91 28.71 524.77 28.11 C 525.01 26.66 525.28 25.22 525.53 23.77 Z" />
<path fill="#ffffff" opacity="1.00" d=" M 96.06 30.05 C 102.60 21.03 118.87 22.56 123.41 32.82 C 125.88 39.32 125.12 46.44 125.25 53.25 C 120.42 53.25 115.59 53.27 110.76 53.23 C 110.57 49.12 111.19 44.92 110.26 40.87 C 109.43 38.33 107.46 40.43 107.22 42.04 C 106.38 46.73 106.40 52.40 110.14 55.92 C 115.48 61.19 121.46 66.36 124.41 73.45 C 126.93 80.68 126.50 88.47 126.48 96.01 C 126.31 101.65 125.42 108.00 120.78 111.83 C 113.44 118.53 100.06 116.54 95.58 107.46 C 91.87 99.55 92.97 90.48 92.75 82.00 C 97.58 82.00 102.42 82.00 107.25 82.00 C 107.40 87.46 106.86 92.98 107.72 98.39 C 107.91 99.63 108.65 100.27 109.94 100.31 C 112.02 98.06 111.72 94.73 111.76 91.90 C 111.51 88.74 111.69 85.19 109.61 82.57 C 105.39 77.12 99.80 72.81 95.93 67.06 C 92.10 60.37 92.08 52.36 92.28 44.87 C 92.59 39.79 92.90 34.30 96.06 30.05 Z" />
<path fill="#ffff26" opacity="1.00" d=" M 256.74 29.80 C 263.39 20.99 279.48 22.70 283.92 32.89 C 286.34 39.38 285.63 46.46 285.74 53.25 C 280.91 53.25 276.08 53.25 271.25 53.25 C 270.82 48.74 272.35 43.58 269.88 39.54 C 267.89 39.96 267.59 42.19 267.38 43.87 C 267.05 47.92 267.28 52.57 270.34 55.63 C 275.51 60.77 281.25 65.73 284.46 72.42 C 287.34 79.57 287.01 87.47 287.00 95.04 C 286.88 101.09 286.09 108.06 280.97 112.07 C 273.45 118.62 260.06 116.31 255.86 107.04 C 252.44 99.20 253.44 90.35 253.25 82.00 C 258.08 82.00 262.92 82.00 267.76 82.00 C 267.96 87.63 267.23 93.37 268.34 98.92 C 268.78 100.85 271.33 100.38 271.59 98.58 C 272.68 93.88 272.53 88.75 271.05 84.15 C 267.04 77.64 260.31 73.26 256.26 66.77 C 252.54 60.17 252.61 52.33 252.77 44.98 C 253.05 39.77 253.42 34.10 256.74 29.80 Z" />
<path fill="#ffff26" opacity="1.00" d=" M 330.49 30.58 C 336.67 20.99 353.55 22.34 358.15 32.78 C 360.72 39.27 359.83 46.43 360.00 53.25 C 355.18 53.25 350.36 53.26 345.54 53.24 C 345.18 48.96 346.23 44.39 344.73 40.31 C 343.52 38.57 342.08 40.90 341.96 42.12 C 341.26 46.85 341.17 52.56 345.03 56.04 C 351.59 62.50 359.49 69.22 360.57 78.97 C 361.53 87.10 361.77 95.47 360.37 103.56 C 358.73 112.86 347.77 118.09 339.19 114.95 C 334.04 113.28 330.06 108.72 328.82 103.48 C 327.24 96.44 327.50 89.17 327.50 82.00 C 332.33 82.00 337.17 82.00 342.00 82.00 C 342.23 87.74 341.40 93.70 342.81 99.30 C 344.17 101.71 346.42 98.77 346.27 96.97 C 346.57 91.81 347.30 85.61 343.52 81.46 C 339.43 76.58 334.43 72.48 330.81 67.21 C 327.02 60.83 326.89 53.11 327.02 45.91 C 327.31 40.69 327.48 35.07 330.49 30.58 Z" />
<path fill="#76ff7c" opacity="1.00" d=" M 493.74 24.58 C 494.59 24.56 496.30 24.53 497.15 24.51 C 498.04 27.92 499.23 31.60 502.25 33.72 C 504.43 35.50 507.26 35.98 509.94 36.55 C 509.89 37.73 509.83 38.92 509.79 40.11 C 505.76 39.50 501.59 38.33 498.65 35.35 C 495.62 32.58 494.28 28.54 493.74 24.58 Z" />
<path fill="#ffffff" opacity="1.00" d=" M 1.28 26.02 C 7.91 25.97 14.55 26.01 21.18 26.00 C 22.17 38.27 23.74 50.48 24.43 62.77 C 25.66 50.56 26.65 38.32 27.60 26.09 C 34.22 25.91 40.84 26.02 47.46 26.02 C 47.53 55.34 47.52 84.65 47.47 113.97 C 42.90 114.03 38.32 113.99 33.75 114.00 C 33.60 97.87 34.05 81.73 33.51 65.62 C 32.48 81.77 30.73 97.87 29.44 114.00 C 26.15 114.00 22.86 114.00 19.57 114.00 C 18.33 97.85 16.18 81.78 15.49 65.59 C 14.52 81.71 15.21 97.86 15.00 114.00 C 10.43 113.99 5.85 114.02 1.28 113.97 C 1.23 84.66 1.22 55.34 1.28 26.02 Z" />
<path fill="#ffffff" opacity="1.00" d=" M 58.86 26.00 C 66.22 26.00 73.57 26.00 80.92 26.00 C 83.71 55.34 86.68 84.66 89.48 114.00 C 84.17 113.95 78.85 114.12 73.54 113.89 C 73.51 108.68 73.00 103.48 72.94 98.28 C 71.45 98.26 69.96 98.25 68.47 98.26 C 68.17 103.50 67.86 108.75 67.72 114.00 C 62.31 113.99 56.90 114.01 51.49 114.00 C 53.80 84.65 56.50 55.34 58.86 26.00 M 68.45 82.00 C 69.41 82.00 71.34 82.00 72.30 81.99 C 71.77 72.07 71.20 62.14 70.54 52.23 C 69.71 62.14 69.06 72.07 68.45 82.00 Z" />
<path fill="#ffffff" opacity="1.00" d=" M 129.54 26.01 C 140.51 25.99 151.49 25.99 162.46 26.01 C 162.55 32.07 162.49 38.14 162.50 44.21 C 159.67 44.26 156.83 44.26 154.00 44.25 C 153.98 67.49 154.04 90.73 153.97 113.97 C 148.74 114.02 143.51 114.01 138.28 113.97 C 138.21 90.74 138.27 67.50 138.25 44.26 C 135.33 44.25 132.42 44.26 129.50 44.21 C 129.51 38.14 129.45 32.07 129.54 26.01 Z" />
<path fill="#ffffff" opacity="1.00" d=" M 166.80 26.00 C 175.27 26.00 183.73 26.00 192.20 26.00 C 192.29 32.08 192.25 38.16 192.23 44.23 C 188.99 44.26 185.74 44.25 182.50 44.25 C 182.50 49.50 182.50 54.75 182.50 59.99 C 185.48 60.00 188.47 60.00 191.46 60.01 C 191.55 65.74 191.49 71.47 191.50 77.21 C 188.50 77.26 185.50 77.25 182.50 77.25 C 182.50 83.42 182.50 89.58 182.50 95.74 C 186.07 95.75 189.65 95.74 193.23 95.76 C 193.26 101.84 193.29 107.92 193.20 114.00 C 184.40 114.00 175.60 114.00 166.80 114.00 C 166.72 84.67 166.72 55.33 166.80 26.00 Z" />
<path fill="#ffffff" opacity="1.00" d=" M 198.49 26.01 C 206.38 26.22 214.35 25.38 222.16 26.79 C 227.91 27.88 230.48 34.06 231.33 39.22 C 232.30 46.33 232.33 53.63 231.43 60.74 C 231.09 64.29 228.78 67.39 225.33 68.44 C 230.17 70.51 232.04 76.12 231.99 81.01 C 232.02 92.01 231.99 103.00 232.00 114.00 C 227.18 113.99 222.35 114.02 217.53 113.98 C 217.45 103.28 217.53 92.59 217.49 81.89 C 217.31 79.10 217.74 75.01 214.04 74.53 C 213.94 87.68 214.03 100.84 214.00 114.00 C 208.84 113.99 203.69 114.02 198.54 113.98 C 198.44 84.66 198.53 55.33 198.49 26.01 M 214.05 41.49 C 213.96 47.87 213.97 54.26 214.05 60.64 C 218.37 60.18 217.28 55.10 217.52 52.01 C 217.22 48.42 218.76 42.70 214.05 41.49 Z" />
<path fill="#ffff26" opacity="1.00" d=" M 289.26 26.02 C 294.06 25.99 298.87 26.00 303.67 26.00 C 304.65 35.85 306.05 45.66 306.66 55.54 C 308.20 45.74 309.05 35.84 310.39 26.00 C 315.19 26.00 319.99 26.00 324.79 26.00 C 321.27 44.64 317.48 63.24 314.09 81.90 C 313.85 92.58 314.10 103.28 313.98 113.97 C 309.16 114.02 304.35 114.01 299.53 113.98 C 299.46 104.00 299.51 94.02 299.51 84.05 C 299.58 81.35 298.97 78.71 298.48 76.08 C 295.39 59.39 292.33 42.70 289.26 26.02 Z" />
<path fill="#ffff26" opacity="1.00" d=" M 364.49 26.01 C 375.41 25.99 386.33 26.00 397.25 26.00 C 397.24 32.08 397.27 38.16 397.23 44.23 C 394.40 44.26 391.58 44.25 388.76 44.25 C 388.73 67.49 388.80 90.73 388.72 113.98 C 383.56 114.02 378.40 113.99 373.24 114.00 C 373.25 90.75 373.25 67.50 373.25 44.25 C 370.33 44.25 367.41 44.25 364.50 44.25 C 364.49 38.17 364.50 32.09 364.49 26.01 Z" />
<path fill="#ffff26" opacity="1.00" d=" M 401.53 26.03 C 410.01 25.98 418.49 25.98 426.97 26.03 C 427.02 32.08 426.99 38.14 427.00 44.20 C 423.75 44.27 420.50 44.26 417.25 44.25 C 417.25 49.50 417.25 54.75 417.25 60.00 C 420.23 60.00 423.22 60.00 426.20 60.00 C 426.29 65.74 426.24 71.49 426.24 77.23 C 423.24 77.26 420.24 77.25 417.25 77.25 C 417.25 83.42 417.25 89.58 417.25 95.75 C 420.83 95.75 424.41 95.73 428.00 95.80 C 427.99 101.86 428.02 107.92 427.97 113.98 C 419.14 113.98 410.31 114.10 401.49 113.91 C 401.54 84.62 401.45 55.32 401.53 26.03 Z" />
<path fill="#ffff26" opacity="1.00" d=" M 433.24 26.00 C 439.84 25.99 446.43 26.00 453.03 26.00 C 454.20 37.88 455.37 49.76 456.44 61.65 C 457.77 49.80 458.49 37.88 459.56 26.00 C 466.12 26.00 472.69 26.00 479.25 26.00 C 479.25 55.33 479.25 84.67 479.25 114.00 C 474.75 114.00 470.25 114.00 465.75 114.00 C 465.58 97.54 466.09 81.05 465.49 64.60 C 464.49 81.10 462.67 97.55 461.35 114.03 C 458.08 113.99 454.82 113.99 451.55 114.00 C 450.16 98.19 448.27 82.41 447.44 66.55 C 446.44 82.35 447.49 98.20 446.71 114.00 C 442.23 113.99 437.75 114.02 433.28 113.97 C 433.20 84.65 433.27 55.33 433.24 26.00 Z" />
<path fill="#65ff6d" opacity="1.00" d=" M 524.77 28.11 C 525.91 28.71 527.06 29.32 528.21 29.92 C 525.76 35.97 519.75 39.51 513.47 40.26 C 513.38 39.04 513.29 37.82 513.22 36.60 C 518.25 36.00 523.01 33.02 524.77 28.11 Z" />
</svg>
