<?xml version="1.0" encoding="UTF-8" ?>
<!DOCTYPE svg PUBLIC "-//W3C//DTD SVG 1.1//EN" "http://www.w3.org/Graphics/SVG/1.1/DTD/svg11.dtd">
<svg width="533pt" height="133pt" viewBox="0 0 533 133" version="1.1" xmlns="http://www.w3.org/2000/svg">
<path fill="#a62a32" opacity="0.78" d=" M 505.49 3.66 C 509.65 2.15 514.00 3.63 517.96 5.05 C 525.59 8.08 530.70 15.94 531.00 24.05 C 530.38 28.28 528.94 32.44 526.30 35.84 C 525.98 35.57 525.35 35.03 525.04 34.77 C 529.24 29.21 530.17 21.29 526.68 15.14 C 522.08 6.45 510.54 2.83 501.64 6.75 C 493.38 10.01 488.47 19.55 490.69 28.18 C 490.05 24.86 489.89 21.48 489.43 18.13 C 490.87 10.63 498.20 5.13 505.49 3.66 Z" />
<path fill="#43ff4e" opacity="1.00" d=" M 497.12 10.68 C 500.13 8.44 503.65 7.07 507.36 6.55 C 507.34 7.37 507.30 9.02 507.28 9.84 C 505.22 9.69 503.15 10.28 501.60 11.65 C 501.01 12.09 500.42 12.52 499.83 12.95 C 499.16 12.38 497.80 11.24 497.12 10.68 Z" />
<path fill="#3fff4b" opacity="1.00" d=" M 510.47 6.49 C 518.56 6.66 526.60 12.73 526.98 21.20 C 525.74 20.87 524.48 20.76 523.21 20.89 C 522.93 19.85 522.73 18.80 522.40 17.78 C 521.18 12.56 515.54 9.38 510.41 9.94 C 510.42 9.08 510.46 7.35 510.47 6.49 Z" />
<path fill="#324e1b" opacity="0.69" d=" M 501.60 11.65 C 503.15 10.28 505.22 9.69 507.28 9.84 C 506.52 11.54 503.35 12.08 501.60 11.65 Z" />
<path fill="#45802b" opacity="0.82" d=" M 510.41 9.94 C 515.54 9.38 521.18 12.56 522.40 17.78 L 521.22 17.15 L 521.00 16.52 C 519.45 12.12 514.35 11.13 510.41 9.94 Z" />
<path fill="#59ff61" opacity="1.00" d=" M 491.61 21.62 C 492.29 17.48 494.12 13.63 497.12 10.68 C 497.80 11.24 499.16 12.38 499.83 12.95 C 498.88 14.03 497.96 15.13 497.08 16.25 C 498.66 16.36 500.25 16.46 501.84 16.55 C 501.78 19.43 501.64 22.31 501.43 25.18 C 501.11 23.29 500.81 21.40 500.51 19.51 C 499.29 19.54 498.07 19.57 496.86 19.54 C 496.67 18.98 496.30 17.84 496.12 17.27 C 495.86 18.80 495.56 20.32 495.30 21.84 C 494.38 21.78 492.54 21.67 491.61 21.62 Z" />
<path fill="#4dff57" opacity="1.00" d=" M 509.71 16.13 C 513.48 16.15 517.24 16.26 521.00 16.52 L 521.22 17.15 C 521.26 17.88 521.32 19.33 521.36 20.06 C 520.02 21.55 518.61 22.97 517.07 24.24 C 515.93 23.19 514.85 22.10 513.74 21.03 L 513.33 20.63 C 511.91 20.88 510.51 21.12 509.11 21.36 C 509.29 19.62 509.51 17.87 509.71 16.13 Z" />
<path fill="#b85358" opacity="0.80" d=" M 489.43 18.13 C 489.89 21.48 490.05 24.86 490.69 28.18 C 492.87 35.74 500.02 41.44 507.86 41.95 C 514.33 42.58 520.92 39.78 525.04 34.77 C 525.35 35.03 525.98 35.57 526.30 35.84 C 522.22 40.61 516.25 43.43 510.06 44.05 C 502.15 43.84 494.17 39.54 490.51 32.36 C 488.51 27.95 486.90 22.71 489.43 18.13 Z" />
<path fill="#68ff6f" opacity="1.00" d=" M 496.86 19.54 C 498.07 19.57 499.29 19.54 500.51 19.51 C 500.81 21.40 501.11 23.29 501.43 25.18 C 503.41 24.83 505.41 24.56 507.42 24.29 C 507.60 25.75 507.79 27.21 507.99 28.67 C 504.47 29.32 500.89 29.65 497.33 29.97 C 497.16 26.50 496.77 23.03 496.86 19.54 Z" />
<path fill="#5aff62" opacity="1.00" d=" M 513.74 21.03 C 514.85 22.10 515.93 23.19 517.07 24.24 C 518.26 25.43 520.13 24.18 521.57 24.27 C 521.54 26.24 521.53 28.21 521.55 30.19 C 517.44 30.01 513.35 29.72 509.24 29.72 C 509.22 28.75 509.17 26.79 509.14 25.81 C 510.67 24.21 512.21 22.63 513.74 21.03 Z" />
<path fill="#2f5d1d" opacity="0.58" d=" M 523.21 20.89 C 524.48 20.76 525.74 20.87 526.98 21.20 C 526.79 22.77 522.91 22.55 523.21 20.89 Z" />
<path fill="#48ff53" opacity="1.00" d=" M 523.55 23.76 C 524.82 23.72 526.09 23.69 527.37 23.65 C 527.07 25.64 526.74 27.63 526.34 29.60 C 525.14 29.09 523.96 28.58 522.78 28.07 C 523.02 26.63 523.29 25.20 523.55 23.76 Z" />
<path fill="#ffffff" opacity="1.00" d=" M 4.72 28.77 C 11.55 21.17 26.06 23.19 30.13 32.73 C 32.64 39.25 31.85 46.42 32.00 53.25 C 27.33 53.25 22.66 53.25 18.00 53.25 C 17.48 48.60 19.44 42.97 16.08 39.11 C 12.50 44.38 13.38 52.55 18.20 56.83 C 23.00 61.64 28.15 66.47 30.95 72.79 C 33.66 80.19 33.28 88.23 33.23 95.98 C 32.99 101.12 32.50 106.85 28.71 110.73 C 24.51 115.61 17.20 116.99 11.28 114.79 C 6.49 112.86 2.83 108.43 1.73 103.40 C 0.19 96.37 0.51 89.14 0.50 82.00 C 5.17 82.00 9.84 82.00 14.51 82.00 C 14.59 87.02 14.26 92.06 14.73 97.06 C 14.82 98.31 15.15 100.19 16.73 100.28 C 18.79 99.55 18.67 96.89 18.95 95.11 C 18.99 91.28 19.22 87.15 17.54 83.61 C 13.53 77.59 7.56 73.19 3.62 67.11 C 1.13 62.95 0.46 58.04 0.00 53.29 L 0.00 43.84 C 0.46 38.60 0.98 32.83 4.72 28.77 Z" />
<path fill="#ffffff" opacity="1.00" d=" M 73.77 31.84 C 76.38 27.12 81.52 23.70 87.05 24.22 C 95.05 24.02 101.34 31.12 102.74 38.55 C 103.98 45.27 103.99 52.16 103.97 58.97 C 98.91 59.02 93.86 58.99 88.80 59.00 C 88.45 52.97 89.32 46.84 88.26 40.87 C 86.88 37.77 85.04 41.54 85.31 43.31 C 85.16 59.85 85.31 76.39 85.24 92.93 C 85.23 95.27 85.15 97.71 86.13 99.89 C 88.23 101.28 88.93 98.22 89.05 96.78 C 89.50 91.38 89.13 85.96 89.25 80.55 C 88.56 80.52 87.19 80.45 86.51 80.42 C 86.49 75.79 86.49 71.17 86.51 66.55 C 92.30 66.43 98.10 66.54 103.90 66.48 C 104.12 82.31 103.97 98.14 103.97 113.97 C 100.74 114.01 97.50 114.00 94.27 114.00 C 93.94 112.35 93.62 110.70 93.32 109.05 C 91.87 111.75 89.98 114.60 86.87 115.48 C 83.11 116.54 79.08 114.94 76.51 112.15 C 72.20 107.66 70.62 101.28 70.32 95.23 C 69.74 81.48 70.07 67.71 70.03 53.95 C 70.59 46.54 69.55 38.41 73.77 31.84 Z" />
<path fill="#ffff26" opacity="1.00" d=" M 167.53 28.57 C 172.10 23.61 180.01 22.99 185.84 25.93 C 190.51 28.60 193.57 33.61 194.46 38.85 C 195.94 47.41 195.40 56.11 195.50 64.75 C 190.50 64.76 185.50 64.76 180.50 64.75 C 180.24 56.85 181.09 48.87 179.93 41.03 C 179.96 39.22 176.86 39.33 176.86 41.15 C 176.32 43.71 176.29 46.35 176.25 48.95 C 176.26 63.32 176.24 77.68 176.25 92.04 C 176.40 94.61 176.21 97.33 177.24 99.75 C 178.48 101.17 180.16 99.46 180.04 98.07 C 180.89 91.50 180.35 84.85 180.50 78.25 C 185.50 78.24 190.50 78.24 195.50 78.25 C 195.48 86.00 195.76 93.84 194.32 101.49 C 193.10 106.89 189.73 112.14 184.62 114.56 C 178.14 117.33 169.60 115.48 165.61 109.44 C 161.54 103.47 161.71 95.94 161.27 89.02 C 161.22 75.68 161.24 62.33 161.26 48.99 C 161.36 41.83 162.30 33.94 167.53 28.57 Z" />
<path fill="#ffff26" opacity="1.00" d=" M 258.42 29.58 C 265.13 20.64 281.60 23.13 285.01 33.94 C 286.67 40.20 286.44 46.78 286.49 53.21 C 281.74 53.27 276.99 53.29 272.25 53.19 C 271.72 48.61 273.56 43.35 270.81 39.30 C 267.65 41.41 268.57 45.69 268.56 48.94 C 268.54 53.33 272.08 56.26 274.91 59.09 C 279.72 64.27 285.24 69.62 286.54 76.88 C 287.96 84.85 288.07 93.05 287.15 101.09 C 286.74 105.14 285.17 109.24 281.95 111.89 C 276.16 117.28 266.15 117.10 260.58 111.48 C 257.45 108.52 255.97 104.28 255.50 100.09 C 254.81 94.09 254.65 88.04 254.80 82.00 C 259.52 82.00 264.25 81.98 268.97 82.03 C 269.25 87.65 268.48 93.36 269.44 98.93 C 270.41 101.73 273.33 99.08 273.09 97.06 C 273.23 91.94 274.21 85.87 270.55 81.67 C 266.53 76.62 261.48 72.41 257.92 66.99 C 254.65 61.27 254.37 54.43 254.28 48.00 C 254.64 41.76 254.38 34.79 258.42 29.58 Z" />
<path fill="#ffff26" opacity="1.00" d=" M 332.01 28.96 C 338.86 21.03 353.89 23.18 357.79 33.10 C 360.03 39.55 359.39 46.53 359.50 53.25 C 354.83 53.25 350.16 53.25 345.50 53.25 C 345.13 48.62 346.55 43.44 343.99 39.26 C 340.88 41.41 341.46 45.67 341.65 48.95 C 341.77 54.09 346.27 57.21 349.46 60.60 C 353.48 64.97 357.85 69.54 359.32 75.49 C 360.94 82.22 360.85 89.21 360.71 96.10 C 360.43 101.51 359.86 107.64 355.48 111.44 C 348.70 118.49 335.49 116.73 330.98 107.95 C 327.02 99.94 328.23 90.65 328.00 82.00 C 332.67 82.00 337.33 82.00 342.00 82.00 C 342.19 87.52 341.54 93.11 342.48 98.58 C 342.61 100.48 345.35 100.81 345.67 98.84 C 347.08 94.18 346.63 89.02 345.39 84.37 C 341.45 77.66 334.64 73.14 330.70 66.42 C 327.15 59.50 327.36 51.50 327.55 43.95 C 327.83 38.73 328.45 33.09 332.01 28.96 Z" />
<path fill="#76ff7c" opacity="1.00" d=" M 491.74 24.58 C 492.59 24.56 494.30 24.53 495.15 24.52 C 496.04 27.93 497.24 31.62 500.28 33.75 C 502.46 35.50 505.27 35.99 507.94 36.55 C 507.88 37.73 507.83 38.92 507.79 40.10 C 503.78 39.51 499.63 38.34 496.69 35.39 C 493.64 32.61 492.27 28.56 491.74 24.58 Z" />
<path fill="#ffffff" opacity="1.00" d=" M 39.28 26.03 C 47.44 25.97 55.60 26.01 63.76 26.00 C 63.75 32.09 63.75 38.17 63.75 44.25 C 60.59 44.25 57.42 44.25 54.25 44.25 C 54.25 49.50 54.26 54.75 54.25 59.99 C 57.16 60.00 60.08 60.00 63.00 60.00 C 63.00 65.75 63.00 71.50 63.00 77.25 C 60.08 77.25 57.17 77.25 54.25 77.25 C 54.24 83.41 54.26 89.57 54.24 95.73 C 57.74 95.76 61.23 95.76 64.73 95.74 C 64.78 101.82 64.74 107.91 64.76 114.00 C 56.26 113.99 47.77 114.03 39.28 113.97 C 39.23 84.66 39.23 55.34 39.28 26.03 Z" />
<path fill="#ffffff" opacity="1.00" d=" M 107.44 113.99 C 109.68 84.64 112.27 55.32 114.72 25.99 C 121.79 26.01 128.86 26.00 135.93 26.00 C 138.66 55.34 141.54 84.66 144.24 114.00 C 139.15 114.00 134.07 114.00 128.98 114.00 C 128.65 108.76 128.36 103.51 128.21 98.26 C 126.73 98.25 125.25 98.25 123.77 98.25 C 123.40 103.49 123.18 108.75 122.95 114.00 C 117.78 113.99 112.61 114.01 107.44 113.99 M 123.71 82.00 C 124.67 82.00 126.58 82.00 127.54 82.00 C 126.91 71.88 126.87 61.68 125.41 51.64 C 125.56 61.78 124.08 71.87 123.71 82.00 Z" />
<path fill="#ffff26" opacity="1.00" d=" M 201.49 26.01 C 209.14 26.21 216.88 25.41 224.46 26.76 C 228.33 27.43 231.65 30.20 233.13 33.83 C 235.54 39.21 235.19 45.27 235.26 51.03 C 235.23 66.34 235.29 81.65 235.23 96.96 C 234.95 101.82 234.90 107.51 231.08 111.11 C 228.46 113.75 224.49 113.93 221.00 114.01 C 214.51 113.98 208.01 114.06 201.51 113.94 C 201.48 84.63 201.52 55.32 201.49 26.01 M 216.54 41.54 C 216.48 60.51 216.47 79.49 216.54 98.46 C 220.76 97.86 219.97 93.12 220.24 90.01 C 220.23 75.64 220.28 61.27 220.22 46.91 C 220.34 44.45 219.56 41.53 216.54 41.54 Z" />
<path fill="#ffff26" opacity="1.00" d=" M 290.38 26.02 C 294.98 25.98 299.58 26.01 304.18 26.00 C 305.41 35.85 306.40 45.73 307.52 55.59 C 308.72 45.73 309.92 35.88 311.21 26.04 C 315.81 25.97 320.42 26.01 325.03 26.00 C 321.69 44.73 317.87 63.37 314.59 82.11 C 314.38 92.70 314.55 103.31 314.52 113.91 C 309.84 114.07 305.15 114.00 300.47 113.96 C 300.54 104.64 300.46 95.32 300.52 86.00 C 300.67 81.96 299.60 78.04 298.95 74.09 C 296.11 58.06 293.10 42.06 290.38 26.02 Z" />
<path fill="#ffff26" opacity="1.00" d=" M 364.49 26.01 C 375.08 25.98 385.66 26.01 396.25 26.00 C 396.25 32.08 396.25 38.17 396.25 44.25 C 393.50 44.25 390.75 44.25 388.01 44.25 C 387.99 67.50 388.00 90.75 388.00 114.00 C 383.01 113.99 378.02 114.02 373.03 113.97 C 372.96 90.73 373.03 67.49 372.99 44.25 C 370.19 44.25 367.39 44.25 364.60 44.27 C 364.38 38.19 364.56 32.10 364.49 26.01 Z" />
<path fill="#ffff26" opacity="1.00" d=" M 400.80 26.00 C 409.02 26.00 417.24 25.99 425.46 26.01 C 425.55 32.07 425.49 38.14 425.50 44.21 C 422.33 44.27 419.17 44.26 416.01 44.24 C 415.99 49.50 416.00 54.75 416.00 60.00 C 418.90 60.00 421.81 59.99 424.72 60.03 C 424.77 65.76 424.77 71.49 424.72 77.22 C 421.81 77.26 418.90 77.25 416.00 77.25 C 416.00 83.42 415.99 89.59 416.01 95.75 C 419.50 95.74 423.00 95.73 426.50 95.79 C 426.49 101.86 426.55 107.92 426.46 113.99 C 417.90 114.01 409.35 114.00 400.80 114.00 C 400.72 84.67 400.72 55.33 400.80 26.00 Z" />
<path fill="#ffff26" opacity="1.00" d=" M 431.80 26.00 C 438.26 25.99 444.72 26.00 451.18 26.00 C 452.21 38.10 453.20 50.21 454.53 62.28 C 455.07 50.18 456.33 38.12 457.13 26.03 C 463.66 25.98 470.19 25.98 476.72 26.03 C 476.77 55.34 476.77 84.66 476.72 113.97 C 472.23 114.02 467.74 113.99 463.25 114.00 C 463.45 98.17 462.83 82.30 463.58 66.49 C 462.56 70.57 462.47 74.78 462.09 78.95 C 461.13 90.63 460.11 102.31 459.19 114.00 C 455.98 114.00 452.77 114.00 449.56 114.00 C 448.35 98.14 446.59 82.33 445.48 66.46 C 444.94 82.30 445.40 98.16 445.25 114.00 C 440.76 114.00 436.28 114.00 431.80 114.00 C 431.72 84.67 431.72 55.33 431.80 26.00 Z" />
<path fill="#65ff6d" opacity="1.00" d=" M 522.78 28.07 C 523.96 28.58 525.14 29.09 526.34 29.60 C 523.96 35.78 517.87 39.62 511.41 40.18 C 511.35 38.98 511.29 37.78 511.24 36.59 C 516.30 36.02 520.99 32.97 522.78 28.07 Z" />
</svg>
