<?xml version="1.0" encoding="UTF-8" ?>
<!DOCTYPE svg PUBLIC "-//W3C//DTD SVG 1.1//EN" "http://www.w3.org/Graphics/SVG/1.1/DTD/svg11.dtd">
<svg width="533pt" height="133pt" viewBox="0 0 533 133" version="1.1" xmlns="http://www.w3.org/2000/svg">
<path fill="#a62a32" opacity="0.78" d=" M 490.39 17.78 C 493.56 6.26 508.27 -0.28 518.98 5.06 C 526.58 8.08 531.67 15.91 532.00 23.99 C 531.44 28.27 529.88 32.41 527.30 35.88 C 526.98 35.61 526.35 35.06 526.04 34.79 C 529.16 30.41 530.75 24.78 529.35 19.48 C 527.38 10.88 518.65 4.76 509.95 5.22 C 501.73 5.22 493.77 11.06 491.80 19.11 C 490.86 22.00 491.42 25.02 491.70 27.96 C 490.83 24.63 490.89 21.16 490.39 17.78 Z" />
<path fill="#43ff4e" opacity="1.00" d=" M 498.13 10.64 C 501.12 8.47 504.60 7.15 508.23 6.51 C 508.30 7.32 508.44 8.96 508.51 9.77 L 507.99 9.79 C 506.03 9.74 504.09 10.36 502.62 11.63 C 501.99 12.10 501.38 12.58 500.77 13.04 C 500.11 12.44 498.79 11.24 498.13 10.64 Z" />
<path fill="#3fff4b" opacity="1.00" d=" M 511.53 6.44 C 519.57 6.76 527.61 12.70 527.96 21.17 C 526.74 20.84 525.52 20.75 524.29 20.91 C 523.98 19.91 523.74 18.89 523.41 17.91 C 522.18 12.56 516.55 9.47 511.34 9.86 C 511.38 9.00 511.48 7.29 511.53 6.44 Z" />
<path fill="#324e1b" opacity="0.69" d=" M 502.62 11.63 C 504.09 10.36 506.03 9.74 507.99 9.79 C 507.63 11.65 504.25 12.17 502.62 11.63 Z" />
<path fill="#45802b" opacity="0.82" d=" M 511.34 9.86 C 516.55 9.47 522.18 12.56 523.41 17.91 L 522.29 16.93 L 522.06 16.50 C 520.33 12.10 515.32 11.14 511.34 9.86 Z" />
<path fill="#59ff61" opacity="1.00" d=" M 492.60 21.70 C 493.27 17.53 495.14 13.65 498.13 10.64 C 498.79 11.24 500.11 12.44 500.77 13.04 C 499.81 14.08 498.90 15.14 498.02 16.23 C 499.64 16.35 501.26 16.47 502.88 16.59 C 502.76 19.45 502.63 22.32 502.41 25.18 C 502.10 23.27 501.80 21.37 501.52 19.46 C 500.28 19.55 499.04 19.63 497.81 19.70 C 497.66 19.07 497.36 17.81 497.21 17.18 C 496.88 18.75 496.55 20.33 496.25 21.91 C 495.34 21.86 493.51 21.75 492.60 21.70 Z" />
<path fill="#4dff57" opacity="1.00" d=" M 510.07 21.32 C 510.29 19.57 510.54 17.82 510.78 16.07 C 514.54 16.17 518.30 16.28 522.06 16.50 L 522.29 16.93 C 522.31 17.71 522.35 19.29 522.37 20.08 C 520.98 21.51 519.60 22.94 518.11 24.26 C 516.93 23.25 515.80 22.19 514.68 21.12 L 514.24 20.69 C 512.84 20.91 511.45 21.11 510.07 21.32 Z" />
<path fill="#b85358" opacity="0.80" d=" M 490.39 17.78 C 490.89 21.16 490.83 24.63 491.70 27.96 C 493.74 36.03 501.67 41.91 509.93 42.00 C 516.06 42.30 522.12 39.47 526.04 34.79 C 526.35 35.06 526.98 35.61 527.30 35.88 C 522.92 40.83 516.49 43.92 509.88 44.05 C 502.88 43.34 495.96 39.80 492.24 33.66 C 489.57 28.90 487.86 22.99 490.39 17.78 Z" />
<path fill="#68ff6f" opacity="1.00" d=" M 497.81 19.70 C 499.04 19.63 500.28 19.55 501.52 19.46 C 501.80 21.37 502.10 23.27 502.41 25.18 C 504.40 24.84 506.40 24.56 508.41 24.28 C 508.59 25.75 508.79 27.21 509.00 28.68 C 505.47 29.31 501.90 29.64 498.33 29.98 C 498.15 26.56 497.83 23.14 497.81 19.70 Z" />
<path fill="#5aff62" opacity="1.00" d=" M 514.68 21.12 C 515.80 22.19 516.93 23.25 518.11 24.26 C 519.33 25.40 521.13 24.19 522.57 24.28 C 522.54 26.26 522.53 28.24 522.55 30.22 C 518.44 29.95 514.34 29.75 510.23 29.72 C 510.21 28.73 510.18 26.74 510.17 25.75 C 511.67 24.21 513.18 22.67 514.68 21.12 Z" />
<path fill="#2f5d1d" opacity="0.58" d=" M 524.29 20.91 C 525.52 20.75 526.74 20.84 527.96 21.17 C 527.82 22.79 523.97 22.59 524.29 20.91 Z" />
<path fill="#48ff53" opacity="1.00" d=" M 524.53 23.76 C 525.81 23.72 527.10 23.69 528.39 23.66 C 528.07 25.65 527.73 27.64 527.34 29.62 C 526.17 29.06 525.00 28.50 523.83 27.95 C 524.05 26.55 524.29 25.15 524.53 23.76 Z" />
<path fill="#ffffff" opacity="1.00" d=" M 3.20 31.20 C 9.63 20.50 28.73 22.22 32.84 34.13 C 34.72 40.32 34.17 46.88 34.25 53.25 C 29.33 53.25 24.41 53.25 19.49 53.25 C 19.36 48.93 20.02 44.46 18.73 40.26 C 16.87 38.49 15.44 41.22 15.31 42.88 C 14.73 47.24 14.76 52.49 18.28 55.69 C 23.48 60.79 29.31 65.56 32.77 72.10 C 35.88 79.28 35.51 87.31 35.50 94.96 C 35.31 100.43 34.91 106.64 30.74 110.70 C 25.92 115.88 17.82 117.06 11.38 114.52 C 6.63 112.59 3.00 108.27 1.81 103.30 C 0.16 96.33 0.53 89.11 0.50 82.00 C 5.42 82.00 10.34 82.00 15.25 82.00 C 15.33 87.03 15.02 92.07 15.51 97.08 C 15.57 98.28 15.99 99.51 17.02 100.24 C 19.29 100.45 19.90 97.76 20.09 96.04 C 20.40 92.02 20.45 87.74 18.98 83.94 C 14.63 77.49 7.72 73.18 3.54 66.58 C 1.17 62.52 0.44 57.79 0.00 53.19 L 0.00 44.40 C 0.39 39.89 0.72 35.12 3.20 31.20 Z" />
<path fill="#ffffff" opacity="1.00" d=" M 78.28 30.38 C 84.24 21.79 98.44 22.30 104.50 30.52 C 110.79 38.53 109.26 49.45 109.73 58.97 C 104.33 59.02 98.92 59.03 93.52 58.96 C 93.27 53.01 94.01 46.99 93.00 41.09 C 92.89 39.31 90.14 39.23 89.92 41.07 C 89.36 43.33 89.51 45.68 89.49 47.99 C 89.59 64.26 89.36 80.54 89.60 96.81 C 89.07 98.86 91.87 101.96 93.15 99.02 C 94.83 93.05 93.65 86.67 94.00 80.54 C 92.92 80.50 91.84 80.47 90.76 80.44 C 90.75 75.79 90.72 71.15 90.78 66.51 C 97.10 66.51 103.42 66.46 109.74 66.54 C 109.75 82.35 109.78 98.16 109.72 113.98 C 106.19 114.01 102.66 114.00 99.13 114.00 C 98.76 112.34 98.39 110.68 98.01 109.02 C 96.38 112.13 93.83 115.32 90.08 115.70 C 84.73 116.55 79.98 112.83 77.24 108.58 C 74.65 104.20 73.66 99.05 73.51 94.01 C 72.96 80.68 73.37 67.33 73.25 53.99 C 73.74 46.00 72.79 36.97 78.28 30.38 Z" />
<path fill="#ffff26" opacity="1.00" d=" M 451.22 31.26 C 453.48 25.98 459.67 23.99 465.01 24.21 C 470.45 23.99 476.76 25.48 479.70 30.52 C 483.67 37.60 483.59 46.07 483.03 53.93 C 482.83 57.91 480.76 61.42 477.90 64.07 C 480.42 66.02 482.43 68.72 482.90 71.93 C 484.16 78.91 483.69 86.05 483.72 93.10 C 483.31 99.46 482.78 106.56 478.19 111.45 C 473.79 115.97 466.76 116.55 460.93 115.11 C 454.95 113.67 450.85 107.98 449.90 102.12 C 448.67 94.39 449.06 86.54 449.00 78.75 C 454.00 78.75 459.00 78.75 464.00 78.75 C 464.22 86.00 463.44 93.34 464.64 100.53 C 465.75 102.77 468.10 100.78 468.08 99.00 C 468.77 93.69 468.43 88.31 468.50 82.97 C 468.32 80.07 468.49 76.73 466.46 74.40 C 464.55 72.97 461.96 73.28 459.74 72.85 C 459.75 68.43 459.75 64.01 459.74 59.59 C 462.70 59.18 467.69 60.19 468.07 55.99 C 468.70 50.74 468.86 45.31 467.95 40.09 C 468.04 38.35 465.09 37.82 464.77 39.60 C 463.57 44.20 464.12 49.04 464.00 53.76 C 459.01 53.74 454.01 53.78 449.03 53.72 C 449.13 46.23 448.24 38.34 451.22 31.26 Z" />
<path fill="#76ff7c" opacity="1.00" d=" M 492.71 24.58 C 493.57 24.56 495.27 24.53 496.13 24.51 C 497.04 27.68 498.02 31.11 500.70 33.29 C 502.96 35.35 506.04 35.95 508.94 36.56 C 508.88 37.75 508.83 38.94 508.79 40.13 C 504.75 39.48 500.56 38.32 497.61 35.32 C 494.60 32.54 493.30 28.52 492.71 24.58 Z" />
<path fill="#ffffff" opacity="1.00" d=" M 41.52 26.04 C 50.34 25.97 59.16 25.99 67.97 26.03 C 68.02 32.09 67.99 38.14 68.00 44.20 C 64.58 44.27 61.17 44.25 57.75 44.25 C 57.75 49.50 57.75 54.75 57.75 60.00 C 60.90 60.00 64.06 60.00 67.21 60.00 C 67.29 65.75 67.25 71.49 67.24 77.24 C 64.07 77.26 60.91 77.24 57.74 77.27 C 57.77 83.43 57.75 89.59 57.75 95.75 C 61.50 95.75 65.25 95.72 69.00 95.80 C 68.99 101.86 69.03 107.91 68.97 113.97 C 59.82 113.99 50.66 114.07 41.50 113.94 C 41.50 84.64 41.47 55.34 41.52 26.04 Z" />
<path fill="#ffffff" opacity="1.00" d=" M 120.39 26.07 C 127.99 25.91 135.58 26.04 143.18 26.00 C 146.02 55.33 149.09 84.64 151.84 113.97 C 146.47 114.03 141.10 113.98 135.73 114.01 C 135.34 108.79 135.11 103.55 134.87 98.32 C 133.27 98.27 131.67 98.24 130.07 98.21 C 129.71 103.47 129.44 108.73 129.20 114.00 C 123.71 114.00 118.22 114.01 112.74 113.99 C 115.21 84.68 117.92 55.39 120.39 26.07 M 130.11 82.00 C 131.50 82.00 132.89 82.00 134.29 82.00 C 133.67 71.80 132.73 61.60 132.63 51.38 C 131.33 61.54 130.76 71.78 130.11 82.00 Z" />
<path fill="#ffffff" opacity="1.00" d=" M 170.52 26.04 C 177.39 25.96 184.25 26.02 191.12 26.00 C 192.18 37.87 193.41 49.72 194.49 61.59 C 195.76 49.75 196.59 37.87 197.56 26.00 C 204.44 26.00 211.32 25.99 218.21 26.00 C 218.28 55.33 218.28 84.67 218.21 114.00 C 213.47 114.00 208.73 114.00 204.00 114.00 C 203.79 97.56 204.50 81.10 203.49 64.68 C 202.82 81.17 200.68 97.54 199.44 113.99 C 196.06 114.00 192.69 114.00 189.31 114.00 C 187.63 98.13 186.76 82.14 184.51 66.34 C 185.06 82.21 184.60 98.11 184.75 114.00 C 180.00 113.98 175.25 114.05 170.51 113.94 C 170.50 84.64 170.47 55.34 170.52 26.04 Z" />
<path fill="#ffff26" opacity="1.00" d=" M 255.24 26.00 C 263.31 26.21 271.46 25.41 279.46 26.75 C 283.32 27.33 286.78 29.85 288.47 33.38 C 290.87 37.84 290.84 43.03 291.00 47.95 C 290.98 63.98 291.04 80.01 290.97 96.04 C 290.68 100.92 290.74 106.46 287.30 110.36 C 284.77 113.31 280.65 113.94 276.98 114.00 C 269.73 114.02 262.49 113.99 255.24 114.00 C 255.25 84.66 255.25 55.33 255.24 26.00 M 271.29 41.49 C 271.23 60.49 271.21 79.49 271.30 98.48 C 275.35 97.69 274.68 93.24 274.94 90.15 C 275.08 76.43 274.97 62.70 275.00 48.97 C 274.92 46.08 275.19 41.82 271.29 41.49 Z" />
<path fill="#ffff26" opacity="1.00" d=" M 297.51 26.05 C 305.73 26.17 314.05 25.39 322.19 26.82 C 327.34 27.71 330.21 32.89 331.28 37.57 C 332.75 44.96 332.70 52.62 331.83 60.09 C 331.57 63.87 329.20 67.36 325.45 68.41 C 329.69 70.16 331.83 74.69 332.17 79.04 C 332.68 90.68 332.49 102.34 332.46 113.99 C 327.49 114.01 322.53 113.99 317.56 114.01 C 317.30 102.36 317.76 90.70 317.34 79.06 C 317.57 76.67 316.06 74.97 313.80 74.45 C 313.67 87.63 313.82 100.80 313.72 113.97 C 308.32 114.01 302.92 114.03 297.52 113.96 C 297.48 84.66 297.50 55.36 297.51 26.05 M 313.80 41.46 C 313.71 47.86 313.74 54.27 313.78 60.68 C 318.66 60.14 317.28 54.45 317.52 51.02 C 317.43 47.58 318.41 42.29 313.80 41.46 Z" />
<path fill="#ffff26" opacity="1.00" d=" M 338.79 26.00 C 344.19 26.00 349.58 25.98 354.98 26.03 C 355.02 55.34 355.02 84.66 354.98 113.97 C 349.58 114.02 344.19 114.00 338.79 114.00 C 338.72 84.67 338.72 55.33 338.79 26.00 Z" />
<path fill="#ffff26" opacity="1.00" d=" M 358.52 26.00 C 364.17 26.01 369.81 25.97 375.46 26.03 C 376.31 43.73 378.34 61.40 378.42 79.13 C 378.78 76.45 379.17 73.78 379.28 71.08 C 380.07 56.04 381.24 41.03 382.06 26.00 C 387.68 26.00 393.29 26.00 398.91 26.00 C 396.37 55.34 393.69 84.67 391.08 114.00 C 383.17 114.00 375.25 114.00 367.33 114.00 C 364.46 84.66 361.40 55.34 358.52 26.00 Z" />
<path fill="#ffff26" opacity="1.00" d=" M 402.27 26.03 C 411.09 25.98 419.91 25.99 428.72 26.02 C 428.78 32.08 428.74 38.14 428.76 44.20 C 425.33 44.27 421.92 44.25 418.50 44.25 C 418.50 49.50 418.50 54.75 418.50 59.99 C 421.65 60.00 424.81 59.99 427.98 60.02 C 428.02 65.75 427.99 71.48 428.00 77.21 C 424.83 77.26 421.66 77.25 418.50 77.25 C 418.50 83.42 418.50 89.58 418.50 95.75 C 422.25 95.75 426.00 95.72 429.75 95.79 C 429.74 101.85 429.78 107.91 429.72 113.98 C 420.57 114.01 411.42 114.02 402.27 113.97 C 402.23 84.66 402.23 55.34 402.27 26.03 Z" />
<path fill="#65ff6d" opacity="1.00" d=" M 523.83 27.95 C 525.00 28.50 526.17 29.06 527.34 29.62 C 524.97 35.81 518.91 39.43 512.55 40.30 C 512.41 39.08 512.29 37.86 512.17 36.64 C 517.29 36.00 522.07 32.95 523.83 27.95 Z" />
<path fill="#ffffff" opacity="1.00" d=" M 223.25 95.50 C 227.16 95.50 231.07 95.51 234.98 95.48 C 235.02 101.65 234.99 107.83 235.00 114.00 C 231.08 114.00 227.16 114.00 223.24 114.00 C 223.25 107.83 223.24 101.66 223.25 95.50 Z" />
</svg>
