<?xml version="1.0" encoding="UTF-8" ?>
<!DOCTYPE svg PUBLIC "-//W3C//DTD SVG 1.1//EN" "http://www.w3.org/Graphics/SVG/1.1/DTD/svg11.dtd">
<svg width="533pt" height="133pt" viewBox="0 0 533 133" version="1.1" xmlns="http://www.w3.org/2000/svg">
<path fill="#a72a32" opacity="0.78" d=" M 491.23 18.02 C 494.33 6.94 507.99 0.06 518.64 4.56 C 526.48 7.03 531.81 14.45 533.00 22.42 L 533.00 23.88 C 532.37 28.22 530.98 32.56 528.14 35.97 C 527.84 35.71 527.24 35.17 526.94 34.90 C 529.39 31.42 531.11 27.25 530.83 22.92 C 530.65 16.14 526.16 9.89 520.06 7.09 C 512.88 3.66 503.59 4.92 497.87 10.55 C 493.04 14.93 491.28 21.90 492.67 28.17 C 491.99 24.81 492.18 21.33 491.23 18.02 Z" />
<path fill="#43ff4e" opacity="1.00" d=" M 499.09 10.72 C 502.09 8.41 505.68 7.10 509.41 6.52 C 509.34 7.38 509.20 9.09 509.13 9.94 C 507.20 9.56 505.27 10.23 503.83 11.51 C 503.12 12.03 502.41 12.55 501.72 13.08 C 501.06 12.49 499.75 11.31 499.09 10.72 Z" />
<path fill="#3fff4b" opacity="1.00" d=" M 512.49 6.46 C 520.55 6.71 528.62 12.71 528.95 21.18 C 527.73 20.86 526.51 20.78 525.27 20.95 C 524.95 19.85 524.69 18.74 524.32 17.66 C 523.17 12.41 517.46 9.47 512.40 9.91 C 512.42 9.05 512.47 7.33 512.49 6.46 Z" />
<path fill="#324e1b" opacity="0.69" d=" M 503.83 11.51 C 505.27 10.23 507.20 9.56 509.13 9.94 C 508.53 11.66 505.43 12.11 503.83 11.51 Z" />
<path fill="#45802b" opacity="0.82" d=" M 512.40 9.91 C 517.46 9.47 523.17 12.41 524.32 17.66 L 523.32 16.94 L 523.09 16.50 C 521.33 12.16 516.40 11.12 512.40 9.91 Z" />
<path fill="#59ff61" opacity="1.00" d=" M 493.62 21.76 C 494.24 17.60 496.06 13.68 499.09 10.72 C 499.75 11.31 501.06 12.49 501.72 13.08 C 500.81 14.11 499.94 15.18 499.11 16.27 C 500.68 16.37 502.25 16.46 503.84 16.54 C 503.79 19.43 503.65 22.32 503.38 25.20 C 503.07 23.28 502.78 21.36 502.50 19.45 C 501.28 19.52 500.05 19.59 498.84 19.66 C 498.66 19.13 498.30 18.06 498.12 17.53 C 497.83 18.97 497.55 20.41 497.30 21.85 C 496.38 21.83 494.54 21.79 493.62 21.76 Z" />
<path fill="#4dff57" opacity="1.00" d=" M 511.06 21.33 C 511.40 19.43 511.20 17.27 512.47 15.67 C 515.96 16.38 519.54 16.29 523.09 16.50 L 523.32 16.94 C 523.33 17.72 523.34 19.28 523.35 20.06 C 522.01 21.52 520.63 22.93 519.14 24.22 C 517.95 23.21 516.81 22.17 515.67 21.12 L 515.21 20.69 C 513.82 20.91 512.44 21.12 511.06 21.33 Z" />
<path fill="#b85358" opacity="0.80" d=" M 491.23 18.02 C 492.18 21.33 491.99 24.81 492.67 28.17 C 494.79 35.39 501.40 40.98 508.88 41.84 C 515.59 42.82 522.59 40.09 526.94 34.90 C 527.24 35.17 527.84 35.71 528.14 35.97 C 524.12 40.70 518.14 43.45 512.03 44.04 C 504.39 43.85 496.69 39.82 492.90 33.05 C 490.49 28.48 489.05 22.98 491.23 18.02 Z" />
<path fill="#68ff6f" opacity="1.00" d=" M 498.84 19.66 C 500.05 19.59 501.28 19.52 502.50 19.45 C 502.78 21.36 503.07 23.28 503.38 25.20 C 505.39 24.84 507.42 24.56 509.45 24.29 C 509.60 25.77 509.76 27.25 509.93 28.73 C 506.41 29.31 502.87 29.65 499.32 29.96 C 499.15 26.53 498.81 23.10 498.84 19.66 Z" />
<path fill="#5aff62" opacity="1.00" d=" M 515.67 21.12 C 516.81 22.17 517.95 23.21 519.14 24.22 C 520.32 25.46 522.13 24.18 523.59 24.29 C 523.55 26.24 523.53 28.19 523.53 30.14 C 519.43 30.06 515.33 29.72 511.23 29.72 C 511.21 28.73 511.17 26.76 511.15 25.78 C 512.65 24.22 514.17 22.68 515.67 21.12 Z" />
<path fill="#2f5d1d" opacity="0.58" d=" M 525.27 20.95 C 526.51 20.78 527.73 20.86 528.95 21.18 C 528.83 22.79 524.99 22.63 525.27 20.95 Z" />
<path fill="#ffffff" opacity="1.00" d=" M 49.46 23.01 C 53.67 24.85 58.10 26.16 62.22 28.20 C 57.97 30.00 53.63 31.56 49.34 33.26 C 45.68 39.83 42.08 46.44 38.09 52.81 C 41.86 51.37 45.66 50.03 49.39 48.49 C 52.93 49.79 56.41 51.26 59.94 52.60 C 63.00 48.85 66.22 45.21 69.51 41.67 C 73.83 39.35 78.56 37.85 83.11 36.02 C 87.71 37.57 92.20 39.49 96.71 41.30 C 92.17 42.80 87.80 44.75 83.26 46.25 C 83.24 58.23 83.27 70.21 83.24 82.20 C 76.74 72.74 70.07 63.40 63.57 53.94 C 58.83 55.71 54.11 57.54 49.38 59.35 C 49.49 78.66 49.44 97.97 49.40 117.28 C 44.56 115.70 39.93 113.55 35.21 111.65 C 28.54 98.92 22.14 86.05 15.50 73.31 C 15.36 83.30 15.46 93.30 15.45 103.30 C 10.98 101.42 6.60 99.34 2.03 97.72 C 1.95 78.97 2.03 60.23 1.99 41.49 C 6.27 39.31 10.87 37.87 15.28 35.98 C 19.86 37.57 24.30 39.53 28.87 41.17 C 31.45 36.96 33.36 32.30 36.31 28.35 C 40.43 26.01 45.14 24.95 49.46 23.01 M 39.28 29.18 C 39.22 30.63 41.65 31.44 42.82 30.84 C 42.96 29.34 40.44 28.60 39.28 29.18 M 44.25 31.13 C 44.55 34.43 47.19 29.48 44.25 31.13 M 47.34 32.30 C 47.85 32.84 47.85 32.84 47.34 32.30 M 5.09 42.26 C 5.62 42.77 5.62 42.77 5.09 42.26 M 15.31 46.38 C 22.17 58.58 28.38 71.15 35.13 83.42 C 35.08 74.06 35.23 64.70 35.04 55.34 C 34.96 54.40 35.38 54.10 36.30 54.45 L 36.83 54.42 C 37.50 53.33 35.11 53.35 34.50 52.87 C 32.68 48.94 30.77 45.06 28.69 41.27 C 24.24 43.00 19.77 44.67 15.31 46.38 M 72.30 42.08 C 72.39 45.38 75.34 40.60 72.30 42.08 M 7.29 43.10 C 7.49 46.39 10.29 41.54 7.29 43.10 M 75.02 42.78 L 75.00 43.84 C 77.47 44.68 79.93 45.56 82.48 46.13 C 80.60 43.96 77.58 43.70 75.02 42.78 M 10.32 44.16 C 10.16 45.60 12.63 46.45 13.77 45.82 C 13.99 44.33 11.46 43.60 10.32 44.16 M 38.33 55.08 C 38.53 58.38 41.32 53.52 38.33 55.08 M 41.27 56.06 C 41.28 59.37 44.34 54.66 41.27 56.06 M 44.30 57.18 C 44.15 58.63 46.65 59.45 47.78 58.82 C 47.99 57.31 45.44 56.63 44.30 57.18 Z" />
<path fill="#48ff53" opacity="1.00" d=" M 525.60 23.72 C 526.85 23.70 528.11 23.68 529.37 23.67 C 529.07 25.66 528.73 27.64 528.32 29.60 C 527.15 29.01 525.99 28.41 524.83 27.82 C 525.08 26.45 525.33 25.09 525.60 23.72 Z" />
<path fill="#ffffff" opacity="1.00" d=" M 369.47 24.57 C 374.64 23.44 380.51 24.66 384.22 28.61 C 388.74 33.55 390.19 40.49 390.26 47.00 C 390.65 62.32 390.65 77.66 390.26 92.98 C 390.18 99.45 388.78 106.38 384.26 111.28 C 378.88 117.11 368.82 117.28 363.04 111.94 C 357.19 106.31 356.27 97.70 356.25 90.00 C 356.25 76.67 356.25 63.35 356.25 50.02 C 356.35 44.08 356.70 37.88 359.60 32.54 C 361.63 28.71 365.16 25.51 369.47 24.57 M 372.49 40.28 C 371.40 41.57 371.77 43.45 371.53 45.01 C 371.46 61.34 371.52 77.66 371.50 93.99 C 371.64 95.91 371.46 97.97 372.29 99.75 C 374.33 101.32 374.77 98.58 374.91 97.10 C 375.57 84.08 375.11 71.05 375.25 58.02 C 375.25 52.63 375.34 47.22 374.84 41.84 C 374.87 40.86 373.38 38.47 372.49 40.28 Z" />
<path fill="#ffff26" opacity="1.00" d=" M 417.97 27.93 C 424.55 22.09 436.47 22.94 441.39 30.56 C 445.01 36.21 445.33 43.24 445.25 49.76 C 440.43 49.75 435.62 49.75 430.81 49.76 C 430.38 46.33 431.65 42.34 429.71 39.30 C 428.51 37.38 426.22 39.15 426.14 40.82 C 425.42 47.12 425.99 53.47 425.62 59.79 C 427.19 57.12 429.68 54.56 433.04 54.72 C 438.49 54.16 442.58 59.05 444.06 63.79 C 445.74 70.06 445.15 76.61 445.25 83.01 C 445.14 89.54 445.68 96.14 444.36 102.58 C 443.08 108.20 439.27 113.74 433.44 115.23 C 428.41 116.42 422.60 115.89 418.47 112.55 C 414.17 108.96 412.34 103.26 411.71 97.87 C 411.00 88.60 411.31 79.30 411.25 70.01 C 411.30 60.69 411.02 51.36 411.70 42.06 C 412.34 36.91 414.14 31.60 417.97 27.93 M 427.29 69.34 C 425.69 71.15 426.06 73.80 425.81 76.04 C 425.77 83.06 425.53 90.11 426.04 97.13 C 426.22 98.74 426.25 100.94 428.17 101.52 C 430.74 100.60 430.53 97.28 430.74 95.03 C 430.65 87.57 430.98 80.09 430.56 72.65 C 430.65 70.97 429.31 68.00 427.29 69.34 Z" />
<path fill="#76ff7c" opacity="1.00" d=" M 493.74 24.57 C 494.59 24.56 496.30 24.54 497.15 24.52 C 498.06 27.94 499.25 31.64 502.30 33.76 C 504.46 35.50 507.26 35.97 509.90 36.53 C 509.87 37.71 509.85 38.89 509.83 40.07 C 505.56 39.54 501.16 38.15 498.18 34.88 C 495.44 32.14 494.27 28.32 493.74 24.57 Z" />
<path fill="#ffffff" opacity="1.00" d=" M 106.75 26.00 C 110.95 26.22 115.47 25.55 119.48 26.32 C 121.94 37.92 124.31 49.54 126.56 61.18 C 126.99 49.47 126.63 37.73 126.75 26.00 C 131.01 26.01 135.28 25.95 139.54 26.06 C 139.46 55.34 139.51 84.62 139.52 113.90 C 135.08 114.08 130.64 113.99 126.20 113.98 C 123.90 102.57 122.14 91.03 119.49 79.70 C 119.48 91.13 119.56 102.56 119.46 113.99 C 115.22 114.01 110.98 114.00 106.75 114.00 C 106.75 84.67 106.75 55.33 106.75 26.00 Z" />
<path fill="#ffffff" opacity="1.00" d=" M 147.00 26.00 C 152.08 26.00 157.17 26.00 162.25 26.00 C 162.25 55.33 162.25 84.67 162.25 114.00 C 157.17 113.99 152.10 114.03 147.02 113.97 C 146.97 84.65 147.02 55.32 147.00 26.00 Z" />
<path fill="#ffffff" opacity="1.00" d=" M 169.75 26.00 C 173.98 26.00 178.21 26.01 182.44 25.98 C 184.88 37.72 187.19 49.48 189.66 61.20 C 189.87 49.47 189.69 37.74 189.75 26.00 C 194.02 26.01 198.29 25.94 202.55 26.08 C 202.44 55.36 202.52 84.63 202.51 113.91 C 198.07 114.07 193.62 113.98 189.17 114.00 C 186.87 102.57 185.18 91.00 182.43 79.67 C 182.55 91.11 182.53 102.55 182.46 113.99 C 178.22 114.01 173.98 114.00 169.75 114.00 C 169.75 84.67 169.75 55.33 169.75 26.00 Z" />
<path fill="#ffffff" opacity="1.00" d=" M 207.46 26.06 C 218.22 25.92 228.99 26.03 239.76 26.01 C 239.74 32.09 239.77 38.18 239.73 44.26 C 236.91 44.25 234.10 44.25 231.28 44.23 C 231.21 67.49 231.27 90.74 231.25 114.00 C 226.17 113.99 221.10 114.02 216.03 113.97 C 215.96 90.73 216.02 67.49 216.00 44.25 C 213.18 44.25 210.37 44.25 207.57 44.25 C 207.40 38.19 207.57 32.12 207.46 26.06 Z" />
<path fill="#ffffff" opacity="1.00" d=" M 244.47 26.05 C 252.73 25.94 260.99 26.03 269.25 26.00 C 269.25 32.08 269.26 38.17 269.25 44.25 C 266.08 44.25 262.91 44.25 259.75 44.25 C 259.75 49.50 259.75 54.75 259.75 60.00 C 262.67 60.00 265.58 60.00 268.50 60.00 C 268.50 65.75 268.50 71.50 268.50 77.25 C 265.57 77.24 262.65 77.23 259.72 77.31 C 259.79 83.46 259.73 89.61 259.76 95.75 C 263.26 95.75 266.75 95.75 270.25 95.75 C 270.25 101.83 270.25 107.92 270.25 114.00 C 261.65 113.97 253.06 114.07 244.46 113.94 C 244.53 84.65 244.52 55.35 244.47 26.05 Z" />
<path fill="#ffffff" opacity="1.00" d=" M 276.00 26.00 C 280.25 26.01 284.50 25.97 288.76 26.04 C 291.01 37.77 293.82 49.40 295.63 61.21 C 296.42 49.50 295.80 37.73 296.00 26.00 C 300.25 26.00 304.51 25.99 308.76 26.01 C 308.75 55.34 308.74 84.66 308.77 113.98 C 304.33 114.01 299.90 114.01 295.46 113.98 C 293.23 102.25 291.15 90.48 288.73 78.79 C 288.77 90.53 288.74 102.26 288.75 114.00 C 284.50 114.00 280.25 114.00 276.00 114.00 C 276.00 84.67 276.00 55.33 276.00 26.00 Z" />
<path fill="#ffffff" opacity="1.00" d=" M 316.26 26.05 C 323.77 26.15 331.36 25.49 338.81 26.65 C 342.92 27.19 346.57 29.95 348.14 33.78 C 351.16 40.44 349.85 47.92 350.47 54.97 C 350.45 69.96 350.76 84.97 350.09 99.94 C 349.82 103.89 349.16 108.30 346.08 111.11 C 343.47 113.75 339.51 113.93 336.03 114.01 C 329.44 113.98 322.85 114.04 316.26 113.96 C 316.23 84.65 316.24 55.35 316.26 26.05 M 331.80 41.49 C 331.72 60.46 331.73 79.44 331.80 98.41 C 335.34 97.69 334.71 93.73 334.98 91.03 C 334.99 75.99 335.06 60.94 334.95 45.90 C 335.08 43.80 333.95 41.93 331.80 41.49 Z" />
<path fill="#ffff26" opacity="1.00" d=" M 461.45 26.04 C 467.80 26.00 474.16 25.92 480.51 26.08 C 480.49 45.13 480.50 64.18 480.50 83.22 C 481.82 83.24 483.15 83.27 484.48 83.29 C 484.52 88.43 484.50 93.56 484.49 98.70 C 483.16 98.72 481.85 98.74 480.54 98.76 C 480.45 103.84 480.55 108.92 480.46 113.99 C 475.57 114.01 470.69 113.99 465.81 114.00 C 465.68 108.92 465.77 103.84 465.74 98.75 C 460.36 98.76 454.98 98.72 449.61 98.78 C 449.52 93.55 449.25 88.29 449.71 83.08 C 453.57 64.06 457.56 45.06 461.45 26.04 M 460.66 83.24 C 462.35 83.24 464.05 83.24 465.75 83.24 C 465.67 73.14 465.91 63.03 465.61 52.93 C 464.05 63.05 462.36 73.14 460.66 83.24 Z" />
<path fill="#65ff6d" opacity="1.00" d=" M 524.83 27.82 C 525.99 28.41 527.15 29.01 528.32 29.60 C 525.96 35.77 519.87 39.69 513.39 40.11 C 513.34 38.93 513.29 37.76 513.25 36.58 C 518.41 36.03 523.13 32.84 524.83 27.82 Z" />
<path fill="#d4d4d4" opacity="0.83" d=" M 39.28 29.18 C 40.44 28.60 42.96 29.34 42.82 30.84 C 41.65 31.44 39.22 30.63 39.28 29.18 Z" />
<path fill="#cbcbcb" opacity="0.80" d=" M 44.25 31.13 C 47.19 29.48 44.55 34.43 44.25 31.13 Z" />
<path fill="#c0c0c0" opacity="0.75" d=" M 47.34 32.30 C 47.85 32.84 47.85 32.84 47.34 32.30 Z" />
<path fill="#bebebe" opacity="0.75" d=" M 5.09 42.26 C 5.62 42.77 5.62 42.77 5.09 42.26 Z" />
<path fill="#c5c5c5" opacity="0.78" d=" M 72.30 42.08 C 75.34 40.60 72.39 45.38 72.30 42.08 Z" />
<path fill="#c5c5c5" opacity="0.78" d=" M 7.29 43.10 C 10.29 41.54 7.49 46.39 7.29 43.10 Z" />
<path fill="#d7d7d7" opacity="0.84" d=" M 75.02 42.78 C 77.58 43.70 80.60 43.96 82.48 46.13 C 79.93 45.56 77.47 44.68 75.00 43.84 L 75.02 42.78 Z" />
<path fill="#d7d7d7" opacity="0.84" d=" M 10.32 44.16 C 11.46 43.60 13.99 44.33 13.77 45.82 C 12.63 46.45 10.16 45.60 10.32 44.16 Z" />
<path fill="#c7c7c7" opacity="0.78" d=" M 38.33 55.08 C 41.32 53.52 38.53 58.38 38.33 55.08 Z" />
<path fill="#cbcbcb" opacity="0.80" d=" M 41.27 56.06 C 44.34 54.66 41.28 59.37 41.27 56.06 Z" />
<path fill="#d7d7d7" opacity="0.84" d=" M 44.30 57.18 C 45.44 56.63 47.99 57.31 47.78 58.82 C 46.65 59.45 44.15 58.63 44.30 57.18 Z" />
<path fill="#ffffff" opacity="1.00" d=" M 63.44 77.29 C 70.06 85.95 76.59 94.69 83.35 103.24 C 78.62 101.45 73.90 99.64 69.21 97.75 C 66.42 96.70 65.37 93.61 63.51 91.53 C 63.48 86.78 63.57 82.03 63.44 77.29 Z" />
</svg>
