<?xml version="1.0" encoding="UTF-8" ?>
<!DOCTYPE svg PUBLIC "-//W3C//DTD SVG 1.1//EN" "http://www.w3.org/Graphics/SVG/1.1/DTD/svg11.dtd">
<svg width="533pt" height="133pt" viewBox="0 0 533 133" version="1.1" xmlns="http://www.w3.org/2000/svg">
<path fill="#a72a32" opacity="0.78" d=" M 491.32 17.79 C 494.50 6.83 508.09 0.09 518.66 4.57 C 526.53 7.05 531.88 14.53 533.00 22.54 L 533.00 23.94 C 532.36 28.16 531.04 32.39 528.32 35.75 C 528.00 35.50 527.36 35.00 527.04 34.75 C 531.40 29.04 532.18 20.81 528.39 14.61 C 523.46 6.02 511.70 2.78 502.90 7.08 C 495.03 10.60 490.55 19.86 492.70 28.23 C 491.99 24.78 491.95 21.24 491.32 17.79 Z" />
<path fill="#43ff4e" opacity="1.00" d=" M 499.11 10.70 C 502.10 8.45 505.62 7.07 509.33 6.56 C 509.33 7.37 509.34 8.99 509.34 9.80 C 507.19 9.74 505.02 10.35 503.40 11.79 C 502.87 12.18 502.35 12.57 501.83 12.96 C 501.15 12.40 499.79 11.26 499.11 10.70 Z" />
<path fill="#3fff4b" opacity="1.00" d=" M 512.47 6.50 C 520.56 6.64 528.61 12.75 528.98 21.21 C 527.72 20.88 526.45 20.76 525.17 20.87 C 524.91 19.84 524.73 18.81 524.43 17.80 C 523.21 12.59 517.54 9.34 512.41 9.97 C 512.42 9.10 512.45 7.37 512.47 6.50 Z" />
<path fill="#324e1b" opacity="0.69" d=" M 503.40 11.79 C 505.02 10.35 507.19 9.74 509.34 9.80 C 508.41 11.47 505.25 12.10 503.40 11.79 Z" />
<path fill="#45802b" opacity="0.82" d=" M 512.41 9.97 C 517.54 9.34 523.21 12.59 524.43 17.80 L 523.22 17.17 L 523.00 16.52 C 521.45 12.13 516.36 11.10 512.41 9.97 Z" />
<path fill="#59ff61" opacity="1.00" d=" M 493.62 21.57 C 494.31 17.46 496.12 13.62 499.11 10.70 C 499.79 11.26 501.15 12.40 501.83 12.96 C 500.87 14.02 499.96 15.11 499.10 16.25 C 500.68 16.37 502.27 16.48 503.87 16.57 C 503.76 19.44 503.62 22.31 503.47 25.17 C 503.13 23.30 502.80 21.42 502.48 19.54 C 501.27 19.56 500.05 19.59 498.85 19.56 C 498.67 18.97 498.31 17.80 498.13 17.22 C 497.86 18.75 497.57 20.28 497.31 21.82 C 496.39 21.75 494.54 21.63 493.62 21.57 Z" />
<path fill="#4dff57" opacity="1.00" d=" M 511.08 21.35 C 511.49 19.46 511.01 17.07 512.63 15.65 C 516.02 16.49 519.54 16.22 523.00 16.52 L 523.22 17.17 C 523.25 17.89 523.31 19.33 523.34 20.05 C 522.02 21.57 520.62 23.02 519.01 24.23 C 517.88 23.20 516.81 22.14 515.72 21.07 L 515.30 20.66 C 513.88 20.90 512.48 21.13 511.08 21.35 Z" />
<path fill="#b85358" opacity="0.80" d=" M 491.32 17.79 C 491.95 21.24 491.99 24.78 492.70 28.23 C 494.61 34.61 499.99 39.78 506.47 41.38 C 513.86 43.38 522.23 40.73 527.04 34.75 C 527.36 35.00 528.00 35.50 528.32 35.75 C 524.08 40.84 517.57 43.84 511.00 44.05 C 504.23 43.40 497.50 40.12 493.68 34.33 C 490.65 29.48 488.86 23.27 491.32 17.79 Z" />
<path fill="#68ff6f" opacity="1.00" d=" M 498.85 19.56 C 500.05 19.59 501.27 19.56 502.48 19.54 C 502.80 21.42 503.13 23.30 503.47 25.17 C 505.44 24.83 507.43 24.55 509.43 24.29 C 509.60 25.76 509.77 27.23 509.96 28.69 C 506.44 29.32 502.88 29.65 499.33 29.97 C 499.16 26.50 498.77 23.04 498.85 19.56 Z" />
<path fill="#5aff62" opacity="1.00" d=" M 515.72 21.07 C 516.81 22.14 517.88 23.20 519.01 24.23 C 520.25 25.45 522.17 24.17 523.66 24.25 C 523.79 26.39 523.32 28.42 522.08 30.18 C 518.47 29.87 514.85 29.75 511.23 29.73 C 511.21 28.73 511.18 26.74 511.17 25.75 C 512.68 24.19 514.20 22.64 515.72 21.07 Z" />
<path fill="#2f5d1d" opacity="0.58" d=" M 525.17 20.87 C 526.45 20.76 527.72 20.88 528.98 21.21 C 528.75 22.77 524.85 22.52 525.17 20.87 Z" />
<path fill="#48ff53" opacity="1.00" d=" M 525.55 23.77 C 526.81 23.73 528.08 23.68 529.35 23.64 C 529.08 25.71 528.73 27.78 528.25 29.81 C 527.07 29.19 525.90 28.56 524.74 27.94 C 525.01 26.55 525.28 25.16 525.55 23.77 Z" />
<path fill="#ffffff" opacity="1.00" d=" M 79.44 24.64 C 84.99 23.13 91.47 25.16 94.61 30.11 C 98.86 36.20 99.12 43.88 99.25 51.03 C 99.24 64.01 99.28 77.00 99.23 89.99 C 99.09 97.14 98.58 104.92 93.94 110.76 C 89.64 116.47 80.56 117.47 75.01 113.06 C 68.36 107.71 67.44 98.50 67.34 90.55 C 67.12 78.04 67.31 65.52 67.24 53.01 C 67.48 46.10 67.26 38.83 70.49 32.49 C 72.26 28.82 75.44 25.72 79.44 24.64 M 82.50 40.27 C 81.33 42.65 81.68 45.46 81.50 48.03 C 81.58 63.65 81.36 79.27 81.61 94.88 C 81.98 96.71 81.05 100.57 84.06 100.14 C 85.43 95.90 84.88 91.34 85.00 86.96 C 84.87 72.26 85.26 57.54 84.80 42.86 C 84.92 41.74 83.96 38.30 82.50 40.27 Z" />
<path fill="#ffffff" opacity="1.00" d=" M 129.95 29.97 C 133.27 24.68 140.40 22.86 146.08 25.08 C 151.19 27.00 154.44 32.04 155.87 37.10 C 157.62 44.26 157.21 51.69 157.25 59.00 C 152.51 58.99 147.77 59.02 143.03 58.97 C 142.88 53.60 143.21 48.21 142.84 42.85 C 142.87 41.52 142.24 40.38 141.48 39.35 C 139.00 41.00 139.98 44.32 139.56 46.81 C 139.42 61.56 139.53 76.31 139.51 91.05 C 139.73 93.90 139.40 96.91 140.40 99.62 C 142.27 101.51 143.16 98.47 143.24 96.94 C 143.79 91.50 143.37 86.02 143.50 80.57 C 142.81 80.52 141.43 80.43 140.74 80.38 C 140.76 75.75 140.75 71.13 140.75 66.50 C 146.25 66.50 151.75 66.50 157.25 66.50 C 157.25 82.33 157.25 98.17 157.25 114.00 C 154.21 114.00 151.18 114.00 148.14 114.00 C 147.84 112.37 147.55 110.74 147.27 109.11 C 145.80 112.08 143.61 115.37 139.99 115.72 C 135.25 116.40 131.28 112.78 129.02 109.00 C 125.38 102.62 125.43 95.10 125.24 87.98 C 125.27 75.98 125.22 63.99 125.26 51.99 C 125.67 44.52 125.08 36.23 129.95 29.97 Z" />
<path fill="#ffffff" opacity="1.00" d=" M 204.48 24.67 C 209.37 23.34 215.01 24.68 218.42 28.53 C 222.69 33.35 223.97 40.02 224.18 46.27 C 224.32 59.16 224.86 72.07 224.25 84.96 C 224.28 93.75 224.71 103.60 218.91 110.87 C 213.75 117.62 202.29 117.33 197.41 110.41 C 191.73 102.82 192.68 92.93 192.25 84.01 C 192.35 70.09 191.90 56.14 192.82 42.25 C 193.54 35.10 196.93 26.78 204.48 24.67 M 206.77 43.92 C 206.72 60.61 206.79 77.30 206.74 94.00 C 206.76 95.66 206.67 97.36 207.10 98.98 C 207.17 100.80 209.35 100.37 209.56 98.91 C 210.14 96.33 209.98 93.67 210.01 91.04 C 209.99 75.69 210.00 60.34 210.00 44.99 C 209.96 42.97 210.08 40.65 208.23 39.34 C 207.14 40.62 206.72 42.26 206.77 43.92 Z" />
<path fill="#ffff4d" opacity="1.00" d=" M 248.95 27.92 C 253.68 23.27 261.73 22.99 267.03 26.81 C 271.28 30.10 273.64 35.34 274.16 40.61 C 275.06 48.61 275.05 56.68 274.97 64.72 C 270.16 64.77 265.35 64.77 260.54 64.73 C 260.43 57.83 260.55 50.94 260.49 44.04 C 260.39 42.46 260.48 40.51 258.93 39.57 C 256.49 40.14 257.01 43.08 256.76 44.97 C 256.74 61.67 256.76 78.36 256.75 95.05 C 256.98 96.84 256.52 99.62 258.66 100.36 C 260.51 99.80 260.16 97.48 260.45 96.00 C 260.61 90.09 260.41 84.18 260.54 78.27 C 265.35 78.23 270.16 78.23 274.97 78.28 C 274.99 85.51 274.93 92.78 274.02 99.96 C 273.13 105.82 270.00 111.79 264.56 114.56 C 258.59 117.25 250.65 115.54 246.90 109.99 C 243.29 105.07 243.01 98.70 242.58 92.84 C 242.03 77.24 242.13 61.62 242.53 46.02 C 242.68 39.56 244.24 32.64 248.95 27.92 Z" />
<path fill="#ffff4d" opacity="1.00" d=" M 292.41 24.70 C 296.85 23.56 302.05 24.26 305.43 27.55 C 310.42 32.19 311.97 39.35 312.20 45.90 C 312.67 61.96 312.64 78.04 312.20 94.10 C 311.92 100.42 310.56 107.28 305.96 111.95 C 301.35 116.71 293.14 117.07 288.00 112.97 C 284.33 110.10 282.46 105.56 281.43 101.14 C 279.91 93.86 280.84 86.39 280.27 79.03 C 280.28 71.38 280.07 63.71 280.48 56.07 C 280.58 48.73 280.00 41.05 282.88 34.12 C 284.56 29.86 287.86 25.94 292.41 24.70 M 294.74 46.01 C 294.77 62.36 294.75 78.71 294.75 95.06 C 294.75 97.04 294.84 99.17 296.30 100.68 C 298.18 98.98 297.97 96.32 298.02 94.01 C 297.97 77.32 298.02 60.64 298.00 43.95 C 298.07 42.35 297.53 40.83 296.99 39.36 C 294.39 40.56 294.85 43.64 294.74 46.01 Z" />
<path fill="#ffff4d" opacity="1.00" d=" M 358.87 27.96 C 365.58 21.26 378.69 23.74 382.18 32.68 C 384.42 39.26 383.90 46.36 383.99 53.20 C 379.58 53.29 375.16 53.24 370.75 53.25 C 370.70 49.31 370.97 45.34 370.33 41.45 C 370.24 39.93 368.49 38.74 367.84 40.69 C 366.46 44.99 366.42 50.20 368.74 54.19 C 372.69 59.25 377.75 63.43 381.07 69.00 C 384.39 74.04 384.77 80.27 385.15 86.11 C 385.39 91.92 385.37 97.78 384.33 103.52 C 383.35 109.05 379.11 113.97 373.60 115.36 C 365.28 117.81 356.57 111.44 355.30 103.12 C 353.82 96.18 354.33 89.05 354.24 82.00 C 358.66 82.00 363.08 81.99 367.51 82.01 C 367.84 87.90 366.71 93.99 368.26 99.75 C 368.68 99.90 369.51 100.20 369.93 100.35 C 371.70 98.37 371.60 95.52 371.72 93.04 C 371.47 89.47 371.80 85.48 369.57 82.43 C 365.72 76.97 360.46 72.61 356.97 66.88 C 353.44 60.19 353.65 52.40 353.75 45.05 C 353.90 39.10 354.49 32.46 358.87 27.96 Z" />
<path fill="#ffff4d" opacity="1.00" d=" M 402.44 24.72 C 407.09 23.42 412.54 24.41 415.99 27.95 C 419.91 31.92 421.54 37.61 422.08 43.03 C 422.73 52.36 422.44 61.70 422.50 71.04 C 422.44 80.06 422.76 89.10 421.95 98.10 C 421.27 103.35 419.53 108.86 415.43 112.46 C 409.92 117.66 400.04 116.63 395.62 110.51 C 391.16 104.69 390.62 97.06 390.51 89.99 C 390.48 76.99 390.51 64.00 390.50 51.00 C 390.64 44.48 390.78 37.62 394.08 31.80 C 395.80 28.46 398.81 25.79 402.44 24.72 M 404.76 45.92 C 404.74 60.29 404.76 74.66 404.75 89.04 C 404.75 92.37 404.64 95.72 405.18 99.02 C 405.65 100.36 406.38 100.57 407.37 99.64 C 408.31 97.23 408.02 94.56 408.23 92.02 C 408.28 77.35 408.23 62.68 408.25 48.02 C 408.13 45.10 408.32 42.02 406.95 39.34 C 404.42 40.56 404.99 43.62 404.76 45.92 Z" />
<path fill="#76ff7c" opacity="1.00" d=" M 493.75 24.58 C 494.60 24.56 496.31 24.53 497.16 24.51 C 498.03 27.94 499.24 31.62 502.28 33.74 C 504.46 35.50 507.27 36.00 509.94 36.54 C 509.88 37.72 509.83 38.91 509.79 40.10 C 505.74 39.51 501.57 38.32 498.62 35.32 C 495.61 32.55 494.27 28.53 493.75 24.58 Z" />
<path fill="#ffffff" opacity="1.00" d=" M 1.75 26.00 C 5.64 26.00 9.54 26.02 13.43 25.97 C 15.78 37.73 17.93 49.53 20.23 61.30 C 20.27 49.53 20.23 37.77 20.25 26.00 C 24.25 26.00 28.25 26.00 32.25 26.00 C 32.22 55.33 32.32 84.67 32.20 114.00 C 28.14 114.00 24.09 114.00 20.03 114.00 C 17.83 102.23 15.92 90.41 13.70 78.64 C 13.79 90.42 13.78 102.20 13.71 113.99 C 9.72 114.01 5.74 114.00 1.75 114.00 C 1.75 84.67 1.75 55.33 1.75 26.00 Z" />
<path fill="#ffffff" opacity="1.00" d=" M 38.75 26.00 C 46.33 26.00 53.92 26.00 61.50 26.00 C 61.50 32.08 61.50 38.17 61.50 44.25 C 58.67 44.25 55.84 44.25 53.00 44.25 C 53.00 49.50 53.00 54.75 53.00 60.00 C 55.67 60.00 58.33 60.00 61.00 60.00 C 61.00 65.75 61.00 71.50 61.00 77.25 C 58.33 77.25 55.67 77.25 53.00 77.25 C 53.00 83.42 53.00 89.58 53.00 95.75 C 56.17 95.75 59.33 95.75 62.50 95.75 C 62.51 101.83 62.50 107.91 62.51 113.99 C 54.59 114.01 46.67 114.00 38.75 114.00 C 38.75 84.67 38.75 55.33 38.75 26.00 Z" />
<path fill="#ffffff" opacity="1.00" d=" M 163.80 26.00 C 171.37 26.00 178.93 26.00 186.50 26.00 C 186.50 32.08 186.50 38.17 186.50 44.25 C 183.67 44.25 180.83 44.25 178.00 44.25 C 178.00 49.50 178.00 54.75 178.00 60.00 C 180.67 60.00 183.33 60.00 186.00 60.00 C 186.00 65.75 186.00 71.50 186.00 77.25 C 183.33 77.25 180.67 77.25 178.00 77.25 C 178.00 83.42 178.00 89.58 178.00 95.75 C 181.17 95.75 184.33 95.75 187.50 95.75 C 187.48 101.84 187.55 107.94 187.46 114.03 C 179.57 113.96 171.69 114.02 163.80 114.00 C 163.72 84.67 163.72 55.33 163.80 26.00 Z" />
<path fill="#ffff4d" opacity="1.00" d=" M 318.00 26.00 C 321.90 26.00 325.81 25.97 329.72 26.04 C 331.92 37.84 334.15 49.64 336.49 61.41 C 336.52 49.61 336.49 37.81 336.50 26.00 C 340.50 26.01 344.50 25.95 348.50 26.08 C 348.50 55.36 348.50 84.64 348.50 113.92 C 344.39 114.06 340.27 113.99 336.16 114.00 C 334.30 102.48 331.84 91.05 330.36 79.47 C 329.58 90.95 330.22 102.47 329.97 113.97 C 325.98 114.02 321.99 114.00 318.00 114.00 C 318.00 84.67 318.00 55.33 318.00 26.00 Z" />
<path fill="#ffff4d" opacity="1.00" d=" M 428.00 26.00 C 432.75 26.00 437.50 26.00 442.25 26.00 C 442.25 49.25 442.25 72.50 442.25 95.75 C 444.91 95.75 447.58 95.75 450.25 95.75 C 450.25 101.83 450.25 107.92 450.25 114.00 C 442.83 114.00 435.42 114.00 428.00 114.00 C 428.00 84.67 428.00 55.33 428.00 26.00 Z" />
<path fill="#ffff4d" opacity="1.00" d=" M 455.00 26.00 C 462.58 26.00 470.17 26.00 477.76 26.00 C 477.75 32.09 477.75 38.17 477.75 44.25 C 474.92 44.25 472.08 44.25 469.25 44.25 C 469.25 49.50 469.25 54.75 469.25 60.00 C 471.91 60.00 474.58 60.00 477.25 60.00 C 477.25 65.75 477.25 71.50 477.25 77.25 C 474.58 77.25 471.91 77.25 469.25 77.25 C 469.25 83.42 469.25 89.58 469.25 95.75 C 472.40 95.75 475.56 95.75 478.72 95.73 C 478.79 101.82 478.73 107.91 478.76 114.00 C 470.84 114.01 462.92 114.00 455.00 114.00 C 455.00 84.67 455.00 55.33 455.00 26.00 Z" />
<path fill="#65ff6d" opacity="1.00" d=" M 524.74 27.94 C 525.90 28.56 527.07 29.19 528.25 29.81 C 525.84 35.91 519.79 39.54 513.45 40.23 C 513.37 39.01 513.29 37.80 513.22 36.59 C 517.16 36.12 520.59 34.15 523.37 31.40 C 523.83 30.25 524.27 29.09 524.74 27.94 Z" />
<path fill="#ffffff" opacity="1.00" d=" M 103.24 70.00 C 109.08 70.00 114.92 70.00 120.76 70.00 C 120.75 75.25 120.75 80.50 120.75 85.75 C 114.93 85.74 109.10 85.79 103.28 85.72 C 103.21 80.48 103.26 75.24 103.24 70.00 Z" />
</svg>
