<?xml version="1.0" encoding="UTF-8" ?>
<!DOCTYPE svg PUBLIC "-//W3C//DTD SVG 1.1//EN" "http://www.w3.org/Graphics/SVG/1.1/DTD/svg11.dtd">
<svg width="533pt" height="133pt" viewBox="0 0 533 133" version="1.1" xmlns="http://www.w3.org/2000/svg">
<path fill="#a72a32" opacity="0.78" d=" M 491.31 17.82 C 494.46 6.86 508.06 0.10 518.62 4.56 C 526.51 7.02 531.89 14.53 533.00 22.55 L 533.00 23.90 C 532.38 28.14 531.05 32.36 528.33 35.74 C 528.01 35.50 527.36 35.02 527.03 34.78 C 531.40 29.04 532.19 20.77 528.35 14.55 C 523.54 6.26 512.33 2.94 503.64 6.75 C 495.37 10.02 490.47 19.57 492.68 28.21 C 492.04 24.77 491.91 21.27 491.31 17.82 Z" />
<path fill="#43ff4e" opacity="1.00" d=" M 499.11 10.68 C 502.12 8.44 505.64 7.08 509.34 6.55 C 509.33 7.38 509.32 9.03 509.31 9.85 C 507.14 9.74 504.93 10.36 503.32 11.85 C 502.80 12.25 502.29 12.66 501.79 13.07 C 501.12 12.47 499.78 11.28 499.11 10.68 Z" />
<path fill="#3fff4b" opacity="1.00" d=" M 512.47 6.49 C 520.56 6.65 528.60 12.74 528.99 21.20 C 527.73 20.88 526.46 20.77 525.18 20.88 C 524.92 19.86 524.76 18.83 524.43 17.84 C 523.26 12.58 517.55 9.35 512.41 9.96 C 512.42 9.09 512.45 7.36 512.47 6.49 Z" />
<path fill="#324e1b" opacity="0.69" d=" M 503.32 11.85 C 504.93 10.36 507.14 9.74 509.31 9.85 C 508.28 11.48 505.21 12.10 503.32 11.85 Z" />
<path fill="#45802b" opacity="0.82" d=" M 512.41 9.96 C 517.55 9.35 523.26 12.58 524.43 17.84 L 523.23 17.14 L 523.01 16.51 C 521.43 12.13 516.36 11.11 512.41 9.96 Z" />
<path fill="#59ff61" opacity="1.00" d=" M 493.61 21.55 C 494.31 17.45 496.14 13.62 499.11 10.68 C 499.78 11.28 501.12 12.47 501.79 13.07 C 500.84 14.12 499.90 15.16 498.96 16.19 C 500.60 16.33 502.24 16.47 503.89 16.61 C 503.75 19.46 503.62 22.31 503.47 25.17 C 503.12 23.31 502.76 21.45 502.43 19.60 C 501.24 19.60 500.04 19.58 498.86 19.50 C 498.67 18.94 498.30 17.80 498.12 17.24 C 497.86 18.77 497.57 20.29 497.31 21.81 C 496.39 21.75 494.54 21.62 493.61 21.55 Z" />
<path fill="#4dff57" opacity="1.00" d=" M 511.08 21.37 C 511.50 19.47 511.01 17.08 512.62 15.65 C 516.02 16.49 519.54 16.23 523.01 16.51 L 523.23 17.14 C 523.26 17.87 523.32 19.32 523.35 20.04 C 522.06 21.60 520.57 22.95 519.05 24.26 C 517.92 23.21 516.80 22.17 515.72 21.09 L 515.28 20.63 C 513.87 20.86 512.47 21.11 511.08 21.37 Z" />
<path fill="#b85358" opacity="0.80" d=" M 491.31 17.82 C 491.91 21.27 492.04 24.77 492.68 28.21 C 494.74 35.10 500.85 40.53 507.95 41.70 C 514.96 43.05 522.51 40.31 527.03 34.78 C 527.36 35.02 528.01 35.50 528.33 35.74 C 524.09 40.84 517.56 43.86 510.97 44.04 C 504.19 43.39 497.46 40.09 493.65 34.29 C 490.66 29.46 488.86 23.28 491.31 17.82 Z" />
<path fill="#68ff6f" opacity="1.00" d=" M 498.86 19.50 C 500.04 19.58 501.24 19.60 502.43 19.60 C 502.76 21.45 503.12 23.31 503.47 25.17 C 505.44 24.85 507.41 24.55 509.41 24.30 C 509.60 25.75 509.82 27.20 510.03 28.65 C 506.49 29.32 502.91 29.66 499.32 29.97 C 499.16 26.48 498.77 23.00 498.86 19.50 Z" />
<path fill="#5aff62" opacity="1.00" d=" M 515.72 21.09 C 516.80 22.17 517.92 23.21 519.05 24.26 C 520.21 25.48 522.12 24.12 523.56 24.26 C 523.55 26.25 523.55 28.23 523.56 30.21 C 519.45 29.98 515.34 29.74 511.23 29.72 C 511.21 28.73 511.18 26.74 511.16 25.75 C 512.70 24.21 514.18 22.63 515.72 21.09 Z" />
<path fill="#2f5d1d" opacity="0.58" d=" M 525.18 20.88 C 526.46 20.77 527.73 20.88 528.99 21.20 C 528.78 22.77 524.88 22.53 525.18 20.88 Z" />
<path fill="#48ff53" opacity="1.00" d=" M 525.54 23.77 C 526.80 23.73 528.08 23.68 529.36 23.64 C 529.07 25.67 528.73 27.68 528.31 29.68 C 527.13 29.15 525.95 28.62 524.78 28.09 C 525.02 26.65 525.27 25.21 525.54 23.77 Z" />
<path fill="#ffffff" opacity="1.00" d=" M 311.53 24.74 C 317.65 23.50 324.64 24.11 329.57 28.29 C 334.98 32.76 337.08 40.05 337.19 46.85 C 337.67 62.26 337.67 77.70 337.19 93.11 C 337.07 98.73 335.73 104.54 332.18 109.02 C 324.45 118.89 306.60 118.00 300.39 106.91 C 296.11 100.06 296.94 91.74 296.51 84.03 C 296.51 74.35 296.46 64.66 296.53 54.98 C 296.95 48.14 296.25 40.88 299.54 34.60 C 301.82 29.74 306.29 25.97 311.53 24.74 M 314.75 45.97 C 314.78 62.34 314.72 78.71 314.77 95.08 C 314.72 97.34 314.96 100.76 318.15 100.23 C 319.13 97.60 319.31 94.79 319.26 92.01 C 319.18 76.03 319.34 60.05 319.18 44.07 C 319.16 42.25 318.76 38.88 316.13 39.97 C 314.62 41.58 314.91 43.95 314.75 45.97 Z" />
<path fill="#ffff26" opacity="1.00" d=" M 445.43 37.88 C 446.53 30.39 453.44 24.67 460.89 24.31 C 468.61 23.41 477.90 25.92 481.50 33.44 C 483.89 39.70 483.39 46.62 483.50 53.21 C 477.86 53.30 472.23 53.22 466.59 53.27 C 466.13 48.96 467.26 44.40 465.71 40.28 C 463.90 38.70 462.03 41.16 461.96 42.90 C 461.45 47.34 461.28 52.82 465.22 55.83 C 470.63 60.38 476.44 64.63 480.69 70.36 C 483.07 73.65 483.95 77.75 484.46 81.71 C 485.22 88.80 485.37 96.05 483.93 103.06 C 482.58 109.72 476.22 114.28 469.81 115.43 C 464.08 116.35 457.75 115.68 452.96 112.16 C 449.19 109.64 446.73 105.44 446.03 101.00 C 444.93 94.74 444.94 88.35 445.03 82.02 C 450.68 81.99 456.32 81.98 461.97 82.03 C 462.12 87.05 461.78 92.10 462.16 97.12 C 462.21 98.57 463.16 100.74 465.00 100.06 C 467.17 99.60 467.28 96.80 467.48 95.02 C 467.45 91.09 467.94 86.65 465.67 83.22 C 460.34 76.93 452.87 72.68 448.11 65.87 C 443.53 57.36 444.11 47.15 445.43 37.88 Z" />
<path fill="#76ff7c" opacity="1.00" d=" M 493.74 24.58 C 494.60 24.56 496.30 24.53 497.16 24.51 C 498.01 31.02 503.30 36.23 509.94 36.54 C 509.87 37.73 509.83 38.91 509.80 40.10 C 505.54 39.51 501.14 38.15 498.17 34.87 C 495.44 32.13 494.26 28.32 493.74 24.58 Z" />
<path fill="#ffffff" opacity="1.00" d=" M 1.00 26.00 C 6.04 26.00 11.09 26.00 16.13 26.00 C 18.84 37.91 22.31 49.64 24.70 61.62 C 25.35 49.77 24.84 37.87 25.00 26.00 C 30.16 26.01 35.32 25.97 40.48 26.03 C 40.52 55.34 40.52 84.66 40.48 113.97 C 35.17 114.03 29.86 114.00 24.55 113.99 C 21.86 102.19 19.21 90.37 16.49 78.58 C 16.48 90.38 16.55 102.19 16.46 113.99 C 11.31 114.00 6.17 114.02 1.02 113.98 C 0.97 84.65 1.02 55.32 1.00 26.00 Z" />
<path fill="#ffffff" opacity="1.00" d=" M 48.75 26.00 C 54.75 26.00 60.75 26.00 66.76 26.00 C 66.75 55.33 66.75 84.67 66.76 114.00 C 60.75 114.00 54.75 114.00 48.75 114.00 C 48.75 84.67 48.75 55.33 48.75 26.00 Z" />
<path fill="#ffffff" opacity="1.00" d=" M 75.49 26.01 C 80.55 26.00 85.60 25.98 90.65 26.02 C 93.56 37.87 96.43 49.74 99.50 61.55 C 99.50 49.70 99.50 37.85 99.50 26.00 C 104.66 26.01 109.82 25.98 114.97 26.02 C 115.02 55.34 115.02 84.66 114.98 113.97 C 109.67 114.02 104.37 113.99 99.07 114.00 C 96.55 102.22 93.38 90.57 91.37 78.70 C 90.55 90.43 91.23 102.22 90.97 113.98 C 85.83 114.02 80.69 113.99 75.55 114.00 C 75.43 84.67 75.54 55.34 75.49 26.01 Z" />
<path fill="#ffffff" opacity="1.00" d=" M 120.24 26.00 C 133.08 26.00 145.92 26.00 158.76 26.00 C 158.75 32.09 158.76 38.17 158.75 44.25 C 155.33 44.25 151.92 44.25 148.50 44.25 C 148.51 67.50 148.49 90.74 148.51 113.99 C 142.49 113.98 136.47 114.06 130.45 113.94 C 130.56 90.71 130.47 67.48 130.50 44.25 C 127.08 44.25 123.67 44.25 120.25 44.25 C 120.24 38.17 120.25 32.09 120.24 26.00 Z" />
<path fill="#ffffff" opacity="1.00" d=" M 164.00 26.00 C 173.83 26.00 183.67 26.00 193.50 26.00 C 193.50 32.08 193.50 38.17 193.50 44.25 C 189.67 44.25 185.83 44.25 182.00 44.25 C 182.00 49.50 182.00 54.75 182.00 60.00 C 185.58 60.00 189.17 60.00 192.76 60.00 C 192.75 65.75 192.76 71.50 192.75 77.25 C 189.16 77.25 185.58 77.25 182.00 77.25 C 182.00 83.42 182.00 89.58 182.00 95.75 C 186.25 95.75 190.50 95.75 194.75 95.75 C 194.76 101.83 194.75 107.91 194.76 114.00 C 184.50 114.00 174.25 114.00 164.00 114.00 C 164.00 84.67 164.00 55.33 164.00 26.00 Z" />
<path fill="#ffffff" opacity="1.00" d=" M 200.75 26.00 C 205.78 26.00 210.80 26.00 215.83 26.00 C 218.67 38.01 221.78 49.96 224.74 61.94 C 224.77 49.96 224.74 37.98 224.75 26.00 C 229.83 26.00 234.92 26.00 240.00 26.00 C 240.00 55.33 240.00 84.67 240.00 114.00 C 234.73 113.99 229.47 114.02 224.20 113.98 C 221.71 101.90 218.36 89.98 216.39 77.80 C 215.55 89.84 216.21 101.94 216.00 114.00 C 210.92 114.00 205.83 114.00 200.75 114.00 C 200.75 84.67 200.75 55.33 200.75 26.00 Z" />
<path fill="#ffffff" opacity="1.00" d=" M 248.28 26.03 C 256.88 26.15 265.52 25.57 274.09 26.47 C 278.72 26.85 283.63 28.77 286.06 32.96 C 289.21 37.67 288.97 43.55 289.23 48.98 C 289.26 64.00 289.27 79.03 289.23 94.06 C 288.91 99.34 289.21 105.27 285.71 109.65 C 282.60 113.29 277.49 114.00 272.97 114.01 C 264.74 113.98 256.51 114.03 248.28 113.98 C 248.23 84.66 248.23 55.34 248.28 26.03 M 266.53 41.59 C 266.48 60.49 266.49 79.39 266.52 98.29 C 267.85 97.79 270.19 97.81 270.42 95.96 C 271.07 93.34 271.01 90.62 271.01 87.95 C 270.91 73.65 271.14 59.33 270.90 45.04 C 270.80 42.61 268.57 41.87 266.53 41.59 Z" />
<path fill="#ffff26" opacity="1.00" d=" M 361.52 26.04 C 366.60 25.96 371.68 26.01 376.77 26.01 C 379.57 37.74 382.54 49.44 385.50 61.13 C 385.53 49.42 385.44 37.71 385.54 26.01 C 390.69 25.99 395.85 26.00 401.00 26.00 C 401.00 55.33 401.00 84.67 401.00 114.00 C 395.72 114.00 390.43 114.01 385.15 113.99 C 382.58 102.00 379.52 90.12 377.22 78.07 C 376.74 90.04 377.12 102.02 377.00 114.00 C 371.90 113.75 366.47 114.50 361.57 113.65 C 361.41 84.45 361.52 55.24 361.52 26.04 Z" />
<path fill="#ffff26" opacity="1.00" d=" M 409.28 26.03 C 419.17 25.98 429.07 25.98 438.98 26.03 C 439.02 32.09 438.99 38.15 439.00 44.21 C 435.16 44.27 431.33 44.26 427.50 44.25 C 427.49 49.48 427.54 54.71 427.46 59.94 C 431.04 60.01 434.62 60.02 438.20 59.99 C 438.29 65.74 438.25 71.49 438.23 77.23 C 434.66 77.26 431.08 77.26 427.51 77.24 C 427.50 83.42 427.50 89.59 427.51 95.76 C 431.75 95.74 435.99 95.74 440.24 95.77 C 440.25 101.84 440.29 107.92 440.20 114.00 C 429.89 113.99 419.58 114.03 409.27 113.97 C 409.23 84.66 409.23 55.34 409.28 26.03 Z" />
<path fill="#65ff6d" opacity="1.00" d=" M 524.78 28.09 C 525.95 28.62 527.13 29.15 528.31 29.68 C 525.91 35.83 519.85 39.56 513.45 40.22 C 513.37 39.01 513.30 37.80 513.22 36.59 C 518.28 36.03 522.99 32.99 524.78 28.09 Z" />
</svg>
