<?xml version="1.0" encoding="UTF-8" ?>
<!DOCTYPE svg PUBLIC "-//W3C//DTD SVG 1.1//EN" "http://www.w3.org/Graphics/SVG/1.1/DTD/svg11.dtd">
<svg width="710pt" height="177pt" viewBox="0 0 710 177" version="1.1" xmlns="http://www.w3.org/2000/svg">
<path fill="#a92731" opacity="0.79" d=" M 585.80 11.63 C 591.06 6.20 598.52 3.22 606.02 2.97 C 611.73 3.63 617.36 5.51 621.99 9.00 C 621.67 9.44 621.05 10.33 620.73 10.78 C 617.95 8.58 614.74 6.92 611.32 5.99 C 607.87 4.84 604.17 4.77 600.66 5.69 C 595.06 6.73 590.09 9.90 586.35 14.13 C 585.86 12.84 585.39 11.54 584.90 10.25 C 585.12 10.60 585.57 11.29 585.80 11.63 Z" />
<path fill="#8a7e79" opacity="0.87" d=" M 578.27 4.57 C 579.74 5.36 581.25 6.10 582.75 6.87 C 581.53 7.03 580.33 7.19 579.14 7.35 L 579.16 7.52 C 579.85 7.82 581.23 8.43 581.93 8.73 C 580.50 8.62 579.06 8.51 577.65 8.40 C 577.14 9.50 576.11 10.48 576.27 11.78 C 577.31 12.31 578.47 12.48 579.63 12.63 L 580.31 13.33 C 580.19 14.15 579.95 15.79 579.83 16.61 C 578.46 15.70 577.14 14.72 575.82 13.76 C 575.44 15.05 575.06 16.35 574.69 17.65 C 574.29 17.30 573.47 16.59 573.06 16.24 C 573.79 15.15 574.52 14.06 575.27 12.98 C 575.30 12.34 575.35 11.07 575.38 10.44 C 576.29 9.47 577.16 8.44 577.81 7.27 C 576.55 7.07 575.29 6.92 574.04 6.83 C 575.38 5.96 576.81 5.25 578.27 4.57 Z" />
<path fill="#3e0207" opacity="0.56" d=" M 600.66 5.69 C 604.17 4.77 607.87 4.84 611.32 5.99 C 607.77 5.75 604.21 5.66 600.66 5.69 Z" />
<path fill="#e5e5e5" opacity="1.00" d=" M 574.04 6.83 C 575.29 6.92 576.55 7.07 577.81 7.27 C 577.16 8.44 576.29 9.47 575.38 10.44 C 575.35 11.07 575.30 12.34 575.27 12.98 C 574.52 14.06 573.79 15.15 573.06 16.24 C 573.47 16.59 574.29 17.30 574.69 17.65 C 575.11 17.93 575.94 18.49 576.35 18.77 C 574.79 18.43 573.22 18.10 571.68 17.75 L 571.38 17.69 L 571.18 17.07 C 570.93 16.28 570.42 14.69 570.16 13.90 C 570.92 11.83 571.67 9.75 572.71 7.81 C 573.04 7.56 573.71 7.08 574.04 6.83 Z" />
<path fill="#e8c6b4" opacity="0.97" d=" M 579.14 7.35 C 580.33 7.19 581.53 7.03 582.75 6.87 C 583.16 7.39 583.97 8.42 584.38 8.94 C 583.88 9.93 583.39 10.91 582.90 11.90 C 581.81 12.16 580.72 12.40 579.63 12.63 C 578.47 12.48 577.31 12.31 576.27 11.78 C 576.11 10.48 577.14 9.50 577.65 8.40 C 579.06 8.51 580.50 8.62 581.93 8.73 C 581.23 8.43 579.85 7.82 579.16 7.52 L 579.14 7.35 Z" />
<path fill="#774520" opacity="1.00" d=" M 621.99 9.00 C 623.53 6.13 627.22 6.62 629.97 6.64 C 631.88 6.83 635.03 6.73 635.26 9.32 C 634.46 10.95 633.59 12.53 632.72 14.12 L 631.54 13.61 C 630.43 13.17 629.31 12.79 628.20 12.41 C 626.91 11.99 625.64 11.58 624.36 11.17 C 624.04 11.95 623.41 13.50 623.09 14.28 C 622.63 13.86 621.73 13.02 621.27 12.60 L 621.16 12.45 C 621.05 12.03 620.84 11.19 620.73 10.78 C 621.05 10.33 621.67 9.44 621.99 9.00 Z" />
<path fill="#575757" opacity="0.76" d=" M 571.18 17.07 C 567.53 14.81 570.06 9.86 572.71 7.81 C 571.67 9.75 570.92 11.83 570.16 13.90 C 570.42 14.69 570.93 16.28 571.18 17.07 Z" />
<path fill="#44ff50" opacity="1.00" d=" M 588.74 13.39 C 592.36 9.44 597.58 7.70 602.74 6.89 C 602.72 7.90 602.68 9.93 602.66 10.95 C 599.05 11.47 595.44 12.64 592.75 15.19 C 591.40 14.59 590.07 13.99 588.74 13.39 Z" />
<path fill="#3dff4a" opacity="1.00" d=" M 606.43 6.87 C 611.78 7.23 617.00 8.99 621.16 12.45 L 621.27 12.60 C 622.26 16.05 624.41 19.24 624.75 22.81 C 623.32 24.26 622.11 22.19 621.17 21.23 C 620.28 19.42 619.44 17.58 618.26 15.94 C 615.75 11.98 610.82 10.79 606.43 10.68 C 606.43 9.73 606.43 7.83 606.43 6.87 Z" />
<path fill="#ab9d98" opacity="0.94" d=" M 584.38 8.94 C 584.51 9.27 584.77 9.93 584.90 10.25 C 585.39 11.54 585.86 12.84 586.35 14.13 C 585.62 14.93 584.91 15.73 584.21 16.54 L 583.71 15.23 C 583.72 14.54 583.74 13.15 583.75 12.45 C 583.39 12.99 582.68 14.07 582.32 14.61 C 581.82 14.29 580.81 13.65 580.31 13.33 L 579.63 12.63 C 580.72 12.40 581.81 12.16 582.90 11.90 C 583.39 10.91 583.88 9.93 584.38 8.94 Z" />
<path fill="#5a4534" opacity="0.87" d=" M 635.26 9.32 L 635.39 9.05 C 635.76 11.28 638.47 13.86 636.44 15.90 C 635.66 16.85 634.94 17.85 634.09 18.73 C 634.36 17.51 634.65 16.30 634.96 15.10 C 634.40 14.85 633.28 14.36 632.72 14.12 C 633.59 12.53 634.46 10.95 635.26 9.32 Z" />
<path fill="#774520" opacity="1.00" d=" M 606.43 10.68 C 610.82 10.79 615.75 11.98 618.26 15.94 C 614.90 13.04 610.63 11.76 606.43 10.68 Z" />
<path fill="#ebd5c1" opacity="0.98" d=" M 624.36 11.17 C 625.64 11.58 626.91 11.99 628.20 12.41 C 628.43 14.00 628.55 15.59 628.71 17.19 C 629.41 17.09 630.80 16.90 631.49 16.80 C 631.50 15.74 631.51 14.67 631.54 13.61 L 632.72 14.12 C 633.28 14.36 634.40 14.85 634.96 15.10 C 634.65 16.30 634.36 17.51 634.09 18.73 C 633.97 18.96 633.72 19.41 633.59 19.64 C 631.68 21.44 629.02 22.88 626.36 21.92 C 625.44 21.02 624.65 20.01 623.85 19.03 C 623.99 18.04 624.13 17.05 624.28 16.06 C 624.73 16.64 625.64 17.79 626.09 18.36 C 626.05 17.42 625.97 15.52 625.94 14.58 C 625.19 14.68 623.71 14.89 622.97 14.99 C 623.00 14.81 623.06 14.46 623.09 14.28 C 623.41 13.50 624.04 11.95 624.36 11.17 M 627.34 19.41 C 626.23 21.52 630.35 21.42 630.60 19.66 C 630.34 18.20 628.09 18.56 627.34 19.41 Z" />
<path fill="#8a7a72" opacity="0.95" d=" M 628.20 12.41 C 629.31 12.79 630.43 13.17 631.54 13.61 C 631.51 14.67 631.50 15.74 631.49 16.80 C 630.80 16.90 629.41 17.09 628.71 17.19 C 628.55 15.59 628.43 14.00 628.20 12.41 Z" />
<path fill="#774520" opacity="1.00" d=" M 582.32 14.61 C 582.68 14.07 583.39 12.99 583.75 12.45 C 583.74 13.15 583.72 14.54 583.71 15.23 C 582.69 15.82 582.69 16.45 583.69 17.14 L 583.70 17.72 C 583.62 19.18 583.51 20.64 583.37 22.09 C 582.94 22.18 582.07 22.35 581.64 22.43 C 581.35 22.04 580.78 21.25 580.49 20.86 C 580.44 20.80 580.35 20.68 580.31 20.63 L 580.20 20.77 C 579.90 20.71 579.31 20.61 579.02 20.55 C 578.65 20.23 577.91 19.59 577.54 19.28 C 578.63 18.78 582.61 20.63 581.81 18.26 C 581.48 18.01 580.83 17.52 580.51 17.27 C 581.11 16.39 581.73 15.51 582.32 14.61 Z" />
<path fill="#515f40" opacity="0.92" d=" M 621.27 12.60 C 621.73 13.02 622.63 13.86 623.09 14.28 C 623.06 14.46 623.00 14.81 622.97 14.99 C 623.71 14.89 625.19 14.68 625.94 14.58 C 625.97 15.52 626.05 17.42 626.09 18.36 C 625.64 17.79 624.73 16.64 624.28 16.06 C 624.13 17.05 623.99 18.04 623.85 19.03 C 624.65 20.01 625.44 21.02 626.36 21.92 C 629.02 22.88 631.68 21.44 633.59 19.64 C 632.49 21.46 634.36 22.97 635.02 24.53 C 634.32 25.32 633.62 26.12 632.93 26.91 C 632.47 25.83 632.00 24.75 631.53 23.68 C 631.05 24.84 630.59 25.99 630.13 27.15 C 629.60 26.66 629.06 26.18 628.51 25.73 L 627.66 25.52 C 627.79 24.82 628.07 23.41 628.21 22.71 C 626.29 23.41 624.31 23.97 622.28 24.13 C 622.02 23.99 621.51 23.73 621.26 23.60 C 621.24 23.00 621.19 21.82 621.17 21.23 C 622.11 22.19 623.32 24.26 624.75 22.81 C 624.41 19.24 622.26 16.05 621.27 12.60 Z" />
<path fill="#efcdb9" opacity="0.98" d=" M 575.82 13.76 C 577.14 14.72 578.46 15.70 579.83 16.61 C 579.95 15.79 580.19 14.15 580.31 13.33 C 580.81 13.65 581.82 14.29 582.32 14.61 C 581.73 15.51 581.11 16.39 580.51 17.27 C 580.83 17.52 581.48 18.01 581.81 18.26 C 582.61 20.63 578.63 18.78 577.54 19.28 C 577.24 19.15 576.65 18.89 576.35 18.77 C 575.94 18.49 575.11 17.93 574.69 17.65 C 575.06 16.35 575.44 15.05 575.82 13.76 Z" />
<path fill="#5afe61" opacity="1.00" d=" M 584.15 24.40 C 584.52 20.35 586.11 16.50 588.74 13.39 C 590.07 13.99 591.40 14.59 592.75 15.19 L 591.77 16.02 C 590.35 16.91 590.35 17.55 591.77 17.93 C 593.26 18.04 594.75 18.13 596.25 18.21 C 596.25 19.42 596.27 20.63 596.31 21.84 C 594.20 22.48 592.09 23.08 590.01 23.75 C 590.10 22.81 590.29 20.92 590.38 19.98 C 589.78 21.37 589.19 22.76 588.57 24.15 C 588.23 24.17 587.56 24.23 587.22 24.26 C 586.45 24.29 584.92 24.37 584.15 24.40 Z" />
<path fill="#f2d7c4" opacity="0.98" d=" M 583.69 17.14 C 582.69 16.45 582.69 15.82 583.71 15.23 L 584.21 16.54 L 583.69 17.14 Z" />
<path fill="#173f19" opacity="0.59" d=" M 591.77 17.93 C 590.35 17.55 590.35 16.91 591.77 16.02 C 591.77 16.50 591.77 17.45 591.77 17.93 Z" />
<path fill="#322014" opacity="0.75" d=" M 634.09 18.73 C 634.94 17.85 635.66 16.85 636.44 15.90 C 637.99 17.44 635.42 21.60 633.59 19.64 C 633.72 19.41 633.97 18.96 634.09 18.73 Z" />
<path fill="#2a2625" opacity="0.50" d=" M 571.68 17.75 C 573.22 18.10 574.79 18.43 576.35 18.77 C 576.65 18.89 577.24 19.15 577.54 19.28 C 577.91 19.59 578.65 20.23 579.02 20.55 L 577.84 20.38 C 575.63 19.98 573.13 19.68 571.68 17.75 Z" />
<path fill="#4aff55" opacity="1.00" d=" M 605.35 18.58 C 605.58 18.34 606.05 17.86 606.28 17.62 C 610.63 17.53 614.98 17.85 619.33 17.90 C 619.36 18.42 619.42 19.47 619.45 20.00 C 619.07 21.31 618.66 22.60 618.16 23.86 C 617.82 24.14 617.13 24.70 616.78 24.98 C 616.08 25.55 615.38 26.10 614.68 26.64 C 612.11 27.67 615.05 30.41 616.20 28.07 C 617.31 27.59 618.45 27.17 619.60 26.75 C 619.68 28.40 619.77 30.06 619.87 31.72 C 620.86 29.83 621.81 27.92 622.86 26.07 C 623.95 26.17 625.05 26.27 626.16 26.37 C 626.22 27.45 626.33 29.61 626.39 30.69 C 624.90 31.08 623.39 31.34 621.97 31.87 L 621.47 32.05 C 621.99 33.59 622.71 35.05 623.25 36.59 L 622.88 37.48 C 622.28 37.42 621.07 37.31 620.47 37.26 C 620.59 37.81 620.83 38.90 620.95 39.45 C 619.55 40.15 618.27 41.06 617.03 42.01 C 616.26 41.27 615.48 40.54 614.72 39.80 C 614.71 39.30 614.69 38.29 614.68 37.79 L 615.98 38.63 C 616.33 39.88 617.11 40.41 618.33 40.20 C 620.63 39.32 618.07 36.96 616.55 37.90 C 616.48 37.43 616.34 36.48 616.27 36.01 C 617.44 36.13 619.76 36.37 620.93 36.48 C 620.83 34.92 620.41 33.47 619.66 32.13 L 618.91 31.65 C 617.69 31.58 616.66 31.98 615.82 32.85 L 615.69 32.96 C 614.34 29.92 610.78 30.90 608.14 30.59 C 608.08 31.29 607.96 32.70 607.90 33.40 C 606.73 33.08 605.57 32.74 604.43 32.38 L 604.42 31.19 C 605.42 28.33 607.21 25.88 609.09 23.55 C 607.57 23.51 606.06 23.48 604.56 23.45 C 604.81 21.82 605.07 20.20 605.35 18.58 M 613.94 22.12 C 613.41 23.74 613.98 24.30 615.62 23.79 C 616.13 22.17 615.57 21.62 613.94 22.12 M 611.36 25.72 L 611.79 25.68 C 613.47 25.86 613.73 23.27 612.00 23.16 C 610.16 22.52 609.45 25.56 611.36 25.72 Z" />
<path fill="#fdfefd" opacity="1.00" d=" M 596.31 21.84 C 596.54 20.73 596.69 19.61 596.87 18.49 C 599.68 18.70 602.52 18.80 605.35 18.58 C 605.07 20.20 604.81 21.82 604.56 23.45 C 606.06 23.48 607.57 23.51 609.09 23.55 C 607.21 25.88 605.42 28.33 604.42 31.19 C 604.19 31.29 603.72 31.50 603.48 31.60 C 603.22 30.11 602.98 28.62 602.77 27.13 C 602.72 26.71 602.62 25.88 602.58 25.47 C 601.25 24.72 599.77 26.15 600.16 27.52 C 596.74 28.05 593.25 29.05 589.94 27.42 C 590.21 28.24 590.76 29.88 591.03 30.70 C 590.67 30.71 589.95 30.72 589.60 30.73 C 589.32 29.56 589.04 28.40 588.75 27.24 C 588.34 27.23 587.53 27.21 587.12 27.21 C 587.15 26.47 587.19 25.00 587.22 24.26 C 587.56 24.23 588.23 24.17 588.57 24.15 C 589.19 22.76 589.78 21.37 590.38 19.98 C 590.29 20.92 590.10 22.81 590.01 23.75 C 592.09 23.08 594.20 22.48 596.31 21.84 M 590.62 24.88 L 590.70 26.11 C 591.98 26.44 593.47 26.66 593.90 28.19 C 595.21 27.32 596.53 26.44 597.85 25.58 C 596.82 24.72 595.79 23.86 594.71 23.07 C 593.23 23.36 591.97 24.29 590.62 24.88 Z" />
<path fill="#cebca9" opacity="0.96" d=" M 627.34 19.41 C 628.09 18.56 630.34 18.20 630.60 19.66 C 630.35 21.42 626.23 21.52 627.34 19.41 Z" />
<path fill="#1f2328" opacity="0.70" d=" M 580.31 20.63 C 580.35 20.68 580.44 20.80 580.49 20.86 L 580.20 20.77 L 580.31 20.63 Z" />
<path fill="#beb9ba" opacity="0.93" d=" M 619.45 20.00 C 619.88 20.31 620.74 20.92 621.17 21.23 C 621.19 21.82 621.24 23.00 621.26 23.60 C 621.51 23.73 622.02 23.99 622.28 24.13 C 622.43 24.61 622.72 25.58 622.86 26.07 C 621.81 27.92 620.86 29.83 619.87 31.72 C 619.77 30.06 619.68 28.40 619.60 26.75 C 618.45 27.17 617.31 27.59 616.20 28.07 C 615.82 27.71 615.06 27.00 614.68 26.64 C 615.38 26.10 616.08 25.55 616.78 24.98 C 617.44 27.92 621.06 24.92 618.16 23.86 C 618.66 22.60 619.07 21.31 619.45 20.00 Z" />
<path fill="#e5e5e5" opacity="1.00" d=" M 575.68 22.12 C 576.22 21.68 577.30 20.81 577.84 20.38 L 579.02 20.55 C 579.31 20.61 579.90 20.71 580.20 20.77 L 580.49 20.86 C 580.78 21.25 581.35 22.04 581.64 22.43 C 579.98 22.81 578.32 23.18 576.67 23.55 C 576.42 23.20 575.93 22.48 575.68 22.12 Z" />
<path fill="#403934" opacity="0.80" d=" M 576.61 25.34 C 575.80 24.43 575.70 23.27 575.68 22.12 C 575.93 22.48 576.42 23.20 576.67 23.55 C 578.32 23.18 579.98 22.81 581.64 22.43 C 582.07 22.35 582.94 22.18 583.37 22.09 C 583.09 23.31 582.76 24.52 582.40 25.72 C 581.99 25.88 581.17 26.21 580.76 26.37 C 579.67 25.51 578.58 24.64 577.51 23.78 C 577.83 24.61 578.48 26.27 578.80 27.10 C 578.41 27.42 577.62 28.06 577.23 28.38 C 575.83 27.91 576.78 26.35 576.61 25.34 Z" />
<path fill="#4179cf" opacity="0.96" d=" M 613.94 22.12 C 615.57 21.62 616.13 22.17 615.62 23.79 C 613.98 24.30 613.41 23.74 613.94 22.12 Z" />
<path fill="#666e76" opacity="0.98" d=" M 590.62 24.88 C 591.97 24.29 593.23 23.36 594.71 23.07 C 595.79 23.86 596.82 24.72 597.85 25.58 C 596.53 26.44 595.21 27.32 593.90 28.19 C 593.47 26.66 591.98 26.44 590.70 26.11 L 590.62 24.88 Z" />
<path fill="#e5e5e5" opacity="1.00" d=" M 611.36 25.72 C 609.45 25.56 610.16 22.52 612.00 23.16 C 613.73 23.27 613.47 25.86 611.79 25.68 C 611.68 25.69 611.47 25.71 611.36 25.72 Z" />
<path fill="#e5e5e5" opacity="1.00" d=" M 577.51 23.78 C 578.58 24.64 579.67 25.51 580.76 26.37 L 580.69 27.26 C 580.52 28.40 580.39 29.55 580.28 30.70 L 579.56 30.81 C 579.43 30.14 579.17 28.80 579.05 28.13 C 578.17 29.29 577.31 30.45 576.44 31.61 C 576.64 30.80 577.03 29.19 577.23 28.38 C 577.62 28.06 578.41 27.42 578.80 27.10 C 578.48 26.27 577.83 24.61 577.51 23.78 Z" />
<path fill="#e33f55" opacity="0.98" d=" M 616.78 24.98 C 617.13 24.70 617.82 24.14 618.16 23.86 C 621.06 24.92 617.44 27.92 616.78 24.98 Z" />
<path fill="#4d5c6b" opacity="0.89" d=" M 630.13 27.15 C 630.59 25.99 631.05 24.84 631.53 23.68 C 632.00 24.75 632.47 25.83 632.93 26.91 C 633.55 28.28 633.87 29.76 634.15 31.24 C 633.81 31.71 633.12 32.65 632.78 33.12 L 632.06 32.66 C 629.49 31.65 628.84 29.29 629.27 26.60 C 629.92 27.95 631.22 30.66 631.87 32.02 C 632.47 30.11 631.49 28.42 630.13 27.15 Z" />
<path fill="#c94b53" opacity="1.00" d=" M 580.76 26.37 C 581.17 26.21 581.99 25.88 582.40 25.72 C 582.15 26.12 581.67 26.92 581.42 27.31 L 580.69 27.26 L 580.76 26.37 Z" />
<path fill="#2c9450" opacity="1.00" d=" M 611.36 25.72 C 611.47 25.71 611.68 25.69 611.79 25.68 L 611.36 25.72 Z" />
<path fill="#908978" opacity="1.00" d=" M 627.66 25.52 L 628.51 25.73 C 628.58 26.14 628.72 26.96 628.79 27.38 C 628.46 27.12 627.82 26.59 627.49 26.33 L 627.66 25.52 Z" />
<path fill="#ffff26" opacity="1.00" d=" M 580.69 27.26 L 581.42 27.31 C 581.74 27.38 582.37 27.50 582.68 27.56 C 582.63 28.26 582.53 29.65 582.48 30.35 C 581.93 30.44 580.83 30.62 580.28 30.70 C 580.39 29.55 580.52 28.40 580.69 27.26 Z" />
<path fill="#63d166" opacity="0.94" d=" M 585.18 27.34 C 585.66 27.31 586.64 27.24 587.12 27.21 C 587.53 27.21 588.34 27.23 588.75 27.24 C 589.04 28.40 589.32 29.56 589.60 30.73 C 588.78 30.80 587.16 30.94 586.35 31.02 C 585.97 29.78 585.58 28.56 585.18 27.34 Z" />
<path fill="#68ff72" opacity="1.00" d=" M 600.16 27.52 C 600.81 27.42 602.11 27.22 602.77 27.13 C 602.98 28.62 603.22 30.11 603.48 31.60 C 602.75 31.76 601.28 32.09 600.54 32.25 L 599.87 32.26 C 599.60 32.25 599.04 32.23 598.76 32.22 C 596.61 32.11 594.47 32.19 592.35 32.39 C 592.02 31.97 591.36 31.12 591.03 30.70 C 590.76 29.88 590.21 28.24 589.94 27.42 C 593.25 29.05 596.74 28.05 600.16 27.52 Z" />
<path fill="#f7c61f" opacity="0.98" d=" M 616.20 28.07 C 615.05 30.41 612.11 27.67 614.68 26.64 C 615.06 27.00 615.82 27.71 616.20 28.07 Z" />
<path fill="#5f542e" opacity="0.94" d=" M 582.68 27.56 C 583.31 27.51 584.55 27.40 585.18 27.34 C 585.58 28.56 585.97 29.78 586.35 31.02 L 585.16 31.21 C 584.59 31.34 583.44 31.59 582.87 31.71 L 582.82 31.72 C 580.51 32.03 578.19 32.22 575.88 32.38 L 576.44 31.61 C 577.31 30.45 578.17 29.29 579.05 28.13 C 579.17 28.80 579.43 30.14 579.56 30.81 L 580.28 30.70 C 580.83 30.62 581.93 30.44 582.48 30.35 C 582.53 29.65 582.63 28.26 582.68 27.56 Z" />
<path fill="#a31518" opacity="0.91" d=" M 625.73 36.08 C 626.83 32.89 627.88 29.68 629.27 26.60 C 628.84 29.29 629.49 31.65 632.06 32.66 C 631.79 33.97 631.55 35.28 631.32 36.60 C 630.73 36.15 629.54 35.27 628.95 34.82 C 629.15 34.27 629.55 33.15 629.75 32.59 C 628.63 33.74 628.54 36.53 626.63 36.42 L 625.73 36.08 Z" />
<path fill="#ab3716" opacity="0.93" d=" M 608.14 30.59 C 610.78 30.90 614.34 29.92 615.69 32.96 C 615.30 33.30 614.52 33.98 614.13 34.32 C 614.29 34.93 614.62 36.14 614.79 36.75 C 613.35 35.81 611.91 34.85 610.50 33.88 C 611.20 33.62 612.58 33.09 613.28 32.83 C 612.39 32.58 611.52 32.34 610.64 32.10 C 610.37 33.52 610.07 34.94 609.75 36.35 C 607.94 36.47 608.13 34.66 607.90 33.40 C 607.96 32.70 608.08 31.29 608.14 30.59 Z" />
<path fill="#ffffff" opacity="1.00" d=" M 34.50 31.68 C 44.76 30.15 55.90 30.61 65.11 35.86 C 73.70 40.72 79.13 50.31 79.31 60.13 C 80.25 78.41 79.52 96.74 79.76 115.04 C 79.41 123.28 79.85 132.14 75.35 139.44 C 70.83 147.58 62.00 152.45 53.02 153.90 C 43.22 155.27 32.70 154.85 23.79 150.13 C 15.88 146.00 10.20 137.88 9.05 129.02 C 7.95 119.72 8.30 110.34 8.25 100.99 C 8.27 89.98 8.18 78.96 8.27 67.95 C 8.63 60.64 8.54 52.86 12.47 46.38 C 16.87 38.23 25.56 33.22 34.50 31.68 M 42.31 51.41 C 41.10 52.04 40.00 53.11 39.81 54.52 C 39.04 58.28 39.30 62.14 39.02 65.95 C 38.98 83.31 38.98 100.68 39.03 118.04 C 39.46 122.68 38.80 127.45 40.04 131.99 C 41.27 135.54 47.64 134.99 48.08 131.12 C 49.17 126.16 48.53 121.04 48.97 116.02 C 49.02 99.37 49.02 82.71 48.97 66.06 C 48.54 61.79 49.26 57.32 47.83 53.20 C 46.93 51.07 44.26 50.94 42.31 51.41 Z" />
<path fill="#ffff26" opacity="1.00" d=" M 443.52 31.67 C 453.57 30.18 464.41 30.60 473.53 35.53 C 481.78 39.98 487.46 48.78 488.14 58.13 C 489.17 69.72 488.61 81.37 488.75 92.99 C 488.60 104.65 489.20 116.35 488.07 127.97 C 487.22 136.98 481.80 145.47 473.82 149.80 C 465.78 154.44 456.17 155.04 447.11 154.32 C 439.82 153.56 432.51 151.04 427.00 146.08 C 421.94 141.37 418.52 134.83 417.92 127.91 C 416.83 116.97 417.38 105.96 417.25 94.99 C 417.38 82.65 416.78 70.27 417.88 57.96 C 418.57 49.90 422.81 42.13 429.46 37.45 C 433.59 34.41 438.51 32.63 443.52 31.67 M 451.32 51.40 C 448.35 52.69 448.48 56.33 448.29 59.03 C 447.67 78.03 448.15 97.04 448.00 116.05 C 448.30 121.08 447.93 126.17 448.80 131.15 C 449.21 135.44 456.56 135.39 457.06 131.15 C 458.17 126.18 457.53 121.05 457.97 116.01 C 458.02 99.33 458.03 82.65 457.96 65.96 C 457.54 61.70 458.26 57.24 456.80 53.13 C 455.86 51.05 453.24 50.95 451.32 51.40 Z" />
<path fill="#8e0000" opacity="0.66" d=" M 570.90 36.15 C 571.03 34.55 569.67 31.03 572.10 31.03 C 571.91 32.30 572.05 33.53 572.53 34.70 C 573.54 34.96 574.57 35.07 575.62 35.02 C 575.52 37.50 572.46 36.42 570.90 36.15 Z" />
<path fill="#6b0000" opacity="0.55" d=" M 572.10 31.03 C 572.87 31.55 573.50 32.30 574.00 33.27 C 574.87 33.69 575.41 34.27 575.62 35.02 C 574.57 35.07 573.54 34.96 572.53 34.70 C 572.05 33.53 571.91 32.30 572.10 31.03 Z" />
<path fill="#b60e07" opacity="0.89" d=" M 585.16 31.21 L 586.35 31.02 C 587.16 30.94 588.78 30.80 589.60 30.73 C 589.95 30.72 590.67 30.71 591.03 30.70 C 591.36 31.12 592.02 31.97 592.35 32.39 C 594.47 32.19 596.61 32.11 598.76 32.22 C 598.52 33.50 598.95 35.10 598.01 36.13 C 596.23 36.34 594.44 36.28 592.68 36.30 C 592.74 35.40 592.85 33.59 592.91 32.69 C 592.23 33.93 591.56 35.17 590.85 36.38 C 590.21 36.37 588.95 36.35 588.31 36.35 C 587.56 36.38 586.06 36.44 585.31 36.47 C 585.26 34.72 585.21 32.96 585.16 31.21 M 587.49 32.19 C 587.66 33.53 588.36 33.77 589.61 32.92 C 589.44 31.57 588.73 31.33 587.49 32.19 M 594.31 33.37 C 593.12 34.93 595.98 36.07 596.94 34.85 C 598.12 33.29 595.24 32.07 594.31 33.37 M 587.49 34.10 C 587.70 35.43 588.42 35.65 589.66 34.77 C 589.44 33.44 588.72 33.22 587.49 34.10 Z" />
<path fill="#9f0100" opacity="0.78" d=" M 634.15 31.24 C 635.57 31.90 637.78 31.50 638.59 33.08 C 638.61 33.89 638.64 35.50 638.66 36.31 C 636.59 36.34 634.53 36.34 632.47 36.29 C 632.55 35.50 632.70 33.91 632.78 33.12 C 633.12 32.65 633.81 31.71 634.15 31.24 M 634.25 33.29 C 632.95 34.83 635.75 36.11 636.77 34.87 C 637.99 33.35 635.23 32.02 634.25 33.29 Z" />
<path fill="#b00606" opacity="0.90" d=" M 575.88 32.38 C 578.19 32.22 580.51 32.03 582.82 31.72 L 581.90 32.96 C 581.48 33.37 580.65 34.17 580.24 34.58 C 580.73 34.94 581.73 35.67 582.22 36.03 C 580.93 36.13 578.34 36.33 577.05 36.43 C 577.05 35.99 577.06 35.09 577.07 34.65 C 577.59 34.37 578.62 33.81 579.14 33.53 C 578.33 33.24 576.69 32.66 575.88 32.38 Z" />
<path fill="#e8c6b4" opacity="0.97" d=" M 582.82 31.72 L 582.87 31.71 C 583.78 33.75 584.74 35.76 585.73 37.76 C 585.23 37.75 584.21 37.71 583.70 37.70 C 583.10 36.12 582.39 34.58 581.90 32.96 L 582.82 31.72 Z" />
<path fill="#560000" opacity="0.46" d=" M 587.49 32.19 C 588.73 31.33 589.44 31.57 589.61 32.92 C 588.36 33.77 587.66 33.53 587.49 32.19 Z" />
<path fill="#b30503" opacity="0.83" d=" M 599.87 32.26 L 600.54 32.25 C 601.46 32.23 603.29 32.18 604.20 32.16 C 604.15 33.07 604.06 34.88 604.01 35.79 C 602.60 35.88 601.19 36.00 599.79 36.13 C 599.86 34.84 599.88 33.55 599.87 32.26 Z" />
<path fill="#c9140d" opacity="0.94" d=" M 615.82 32.85 C 616.66 31.98 617.69 31.58 618.91 31.65 C 617.98 33.08 617.14 34.56 616.27 36.01 C 616.03 34.97 615.88 33.91 615.82 32.85 Z" />
<path fill="#860201" opacity="0.68" d=" M 618.91 31.65 L 619.66 32.13 C 620.41 33.47 620.83 34.92 620.93 36.48 C 619.76 36.37 617.44 36.13 616.27 36.01 C 617.14 34.56 617.98 33.08 618.91 31.65 Z" />
<path fill="#bb0a04" opacity="0.89" d=" M 621.47 32.05 L 621.97 31.87 C 623.58 31.83 625.20 31.83 626.83 31.81 C 625.74 33.01 624.73 34.23 623.82 35.56 L 623.25 36.59 C 622.71 35.05 621.99 33.59 621.47 32.05 Z" />
<path fill="#1c0000" opacity="0.18" d=" M 634.25 33.29 C 635.23 32.02 637.99 33.35 636.77 34.87 C 635.75 36.11 632.95 34.83 634.25 33.29 Z" />
<path fill="#ffffff" opacity="1.00" d=" M 91.22 151.97 C 91.31 112.47 91.17 72.97 91.30 33.47 C 103.84 33.56 116.39 33.44 128.94 33.53 C 136.59 33.95 144.92 34.96 150.95 40.16 C 156.11 44.93 157.27 52.29 157.47 58.97 C 157.54 66.67 157.51 74.37 157.48 82.08 C 157.22 88.37 156.11 95.65 150.47 99.46 C 142.21 105.31 131.58 104.18 122.01 104.24 C 121.99 120.16 122.01 136.08 122.00 152.00 C 111.74 151.98 101.48 152.04 91.22 151.97 M 122.00 53.92 C 122.01 63.88 121.96 73.84 122.03 83.81 C 124.51 83.65 127.37 84.19 129.41 82.41 C 131.13 80.83 131.32 78.31 131.48 76.12 C 131.75 70.08 132.19 63.90 130.97 57.94 C 130.04 53.99 125.23 53.97 122.00 53.92 Z" />
<path fill="#ffffff" opacity="1.00" d=" M 166.23 151.98 C 166.31 112.47 166.17 72.97 166.30 33.47 C 183.36 33.53 200.43 33.48 217.50 33.50 C 217.50 41.42 217.52 49.34 217.48 57.26 C 210.66 57.23 203.84 57.28 197.02 57.23 C 196.99 64.74 196.98 72.26 197.02 79.77 C 203.43 79.73 209.84 79.76 216.25 79.75 C 216.25 87.25 216.25 94.75 216.25 102.25 C 209.84 102.25 203.43 102.26 197.02 102.24 C 196.98 110.91 197.01 119.58 197.00 128.25 C 204.49 128.24 211.99 128.27 219.48 128.23 C 219.53 136.15 219.49 144.08 219.50 152.00 C 201.74 151.98 183.99 152.03 166.23 151.98 Z" />
<path fill="#ffffff" opacity="1.00" d=" M 228.23 33.52 C 236.86 33.47 245.50 33.51 254.13 33.50 C 259.90 50.75 265.15 68.19 271.10 85.38 C 271.46 68.09 271.10 50.78 271.29 33.48 C 279.86 33.53 288.43 33.48 297.00 33.50 C 297.00 73.00 297.00 112.50 297.00 152.00 C 287.94 152.00 278.89 152.00 269.83 152.00 C 264.77 134.28 258.98 116.77 254.39 98.94 C 254.13 100.94 253.97 102.96 253.99 104.99 C 254.01 120.66 253.99 136.33 254.00 152.00 C 245.41 151.99 236.82 152.02 228.24 151.99 C 228.25 112.50 228.26 73.01 228.23 33.52 Z" />
<path fill="#ffff26" opacity="1.00" d=" M 335.23 151.98 C 335.32 112.47 335.14 72.96 335.32 33.46 C 348.20 33.59 361.08 33.39 373.95 33.55 C 382.03 34.07 391.13 34.81 397.13 40.96 C 403.82 47.36 404.83 57.27 404.77 66.03 C 404.77 71.28 404.92 77.12 401.71 81.58 C 398.65 85.32 393.75 86.73 389.24 87.81 C 394.62 89.24 400.50 91.39 403.50 96.44 C 406.95 102.33 406.86 109.43 406.75 116.04 C 406.56 124.34 407.61 132.97 404.63 140.92 C 402.94 145.60 398.88 149.29 394.03 150.44 C 387.15 151.99 380.04 152.04 373.02 152.00 C 360.42 151.98 347.82 152.03 335.23 151.98 M 366.00 53.93 C 366.02 62.56 365.95 71.19 366.04 79.82 C 368.90 79.57 372.74 80.48 374.58 77.62 C 376.08 73.96 375.66 69.87 375.77 66.00 C 375.69 62.61 376.14 58.81 374.02 55.90 C 372.16 53.44 368.67 54.22 366.00 53.93 M 366.01 98.65 C 366.00 109.64 365.97 120.63 366.03 131.63 C 368.71 131.35 371.71 131.41 373.98 129.72 C 375.52 127.86 375.64 125.31 375.77 123.01 C 376.09 116.20 376.25 109.29 375.27 102.53 C 374.38 98.42 369.23 99.00 366.01 98.65 Z" />
<path fill="#ffff26" opacity="1.00" d=" M 500.23 151.98 C 500.31 112.47 500.16 72.97 500.30 33.47 C 513.86 33.70 527.43 33.12 540.97 33.82 C 547.71 34.27 555.21 34.61 560.49 39.42 C 567.04 44.86 568.79 53.84 569.00 61.93 C 568.94 69.13 569.60 76.80 566.32 83.45 C 563.73 88.28 557.83 89.30 552.95 90.32 C 561.25 91.34 568.95 98.22 568.84 106.94 C 569.21 121.95 568.89 136.98 569.00 152.00 C 559.40 151.98 549.81 152.05 540.22 151.96 C 540.18 137.30 540.49 122.64 539.99 107.99 C 539.83 105.45 539.78 102.73 538.43 100.50 C 536.39 98.72 533.55 98.82 531.02 98.64 C 530.98 116.43 531.01 134.21 531.00 152.00 C 520.74 151.99 510.48 152.03 500.23 151.98 M 531.01 53.89 C 531.03 62.55 530.93 71.22 531.06 79.88 C 534.08 79.69 538.77 79.87 539.46 76.01 C 540.44 70.11 540.58 63.96 539.57 58.05 C 538.72 54.22 534.17 53.96 531.01 53.89 Z" />
<path fill="#4b0000" opacity="0.47" d=" M 587.49 34.10 C 588.72 33.22 589.44 33.44 589.66 34.77 C 588.42 35.65 587.70 35.43 587.49 34.10 Z" />
<path fill="#669b47" opacity="0.79" d=" M 588.31 36.35 C 588.95 36.35 590.21 36.37 590.85 36.38 L 591.03 36.99 C 590.89 37.50 590.62 38.53 590.48 39.04 C 589.81 38.67 588.46 37.91 587.78 37.53 C 587.91 37.23 588.18 36.64 588.31 36.35 Z" />
<path fill="#e2783f" opacity="0.95" d=" M 625.73 36.08 L 626.63 36.42 L 627.02 37.50 L 626.51 38.25 L 625.93 38.33 L 625.15 38.00 C 625.30 37.52 625.59 36.56 625.73 36.08 Z" />
<path fill="#929714" opacity="0.75" d=" M 575.76 37.65 C 578.40 37.37 581.05 37.52 583.70 37.70 C 584.21 37.71 585.23 37.75 585.73 37.76 C 586.41 37.71 587.09 37.64 587.78 37.53 C 588.46 37.91 589.81 38.67 590.48 39.04 L 590.97 39.31 L 590.69 39.70 C 590.31 39.88 589.56 40.24 589.18 40.42 C 587.98 40.38 586.78 40.33 585.60 40.26 C 582.56 40.02 579.52 40.19 576.50 40.37 C 576.31 39.69 575.95 38.33 575.76 37.65 Z" />
<path fill="#68ff72" opacity="1.00" d=" M 590.48 39.04 C 590.62 38.53 590.89 37.50 591.03 36.99 C 592.49 37.31 593.99 37.55 595.50 37.72 C 596.06 38.29 596.63 38.85 597.23 39.40 L 597.35 39.49 C 599.28 40.01 601.24 40.43 603.24 40.60 C 603.32 41.32 603.48 42.75 603.56 43.47 C 601.29 43.39 599.02 43.42 596.76 43.34 C 595.04 42.75 593.33 41.89 592.20 40.43 C 592.85 40.35 594.16 40.21 594.82 40.14 L 594.57 39.26 C 594.40 37.37 592.12 38.29 591.56 39.42 L 590.97 39.31 L 590.48 39.04 Z" />
<path fill="#ffff26" opacity="1.00" d=" M 595.50 37.72 C 599.32 37.71 603.24 37.19 607.01 38.14 C 608.34 37.87 609.69 37.61 611.04 37.36 C 611.33 37.89 611.91 38.94 612.20 39.47 C 611.83 39.41 611.09 39.29 610.72 39.23 C 610.08 39.12 608.81 38.90 608.18 38.79 C 607.92 39.15 607.40 39.85 607.15 40.21 L 605.80 39.27 C 604.70 39.45 603.60 39.63 602.52 39.82 L 602.82 37.99 L 601.90 38.44 C 601.81 38.75 601.63 39.37 601.54 39.68 C 600.18 40.29 599.31 38.64 598.27 38.11 C 598.04 38.46 597.58 39.15 597.35 39.49 L 597.23 39.40 C 596.63 38.85 596.06 38.29 595.50 37.72 Z" />
<path fill="#a9d62f" opacity="0.88" d=" M 620.47 37.26 C 621.07 37.31 622.28 37.42 622.88 37.48 C 622.59 37.94 621.99 38.87 621.70 39.34 L 620.95 39.45 C 620.83 38.90 620.59 37.81 620.47 37.26 Z" />
<path fill="#ffff26" opacity="1.00" d=" M 627.02 37.50 C 627.98 37.52 628.94 37.56 629.92 37.63 C 630.76 37.83 632.45 38.25 633.30 38.45 C 632.72 40.01 631.94 41.11 630.57 39.41 C 628.35 39.40 625.86 40.30 623.86 39.15 C 623.69 38.78 623.34 38.04 623.17 37.68 L 625.15 38.00 L 625.93 38.33 C 626.08 38.31 626.37 38.27 626.51 38.25 L 627.02 37.50 Z" />
<path fill="#d3e32a" opacity="0.96" d=" M 591.56 39.42 C 592.12 38.29 594.40 37.37 594.57 39.26 C 593.82 39.30 592.32 39.38 591.56 39.42 Z" />
<path fill="#9bb927" opacity="0.84" d=" M 613.04 39.64 C 612.61 37.81 613.15 37.19 614.68 37.79 C 614.69 38.29 614.71 39.30 614.72 39.80 C 614.30 39.76 613.46 39.68 613.04 39.64 Z" />
<path fill="#a99f11" opacity="0.72" d=" M 615.98 38.63 L 616.55 37.90 C 618.07 36.96 620.63 39.32 618.33 40.20 C 617.11 40.41 616.33 39.88 615.98 38.63 Z" />
<path fill="#182f00" opacity="0.19" d=" M 625.93 38.33 L 626.51 38.25 C 626.37 38.27 626.08 38.31 625.93 38.33 Z" />
<path fill="#34672a" opacity="0.65" d=" M 608.18 38.79 C 608.81 38.90 610.08 39.12 610.72 39.23 C 608.98 40.17 607.70 41.63 607.25 43.57 C 610.23 43.42 613.22 43.17 616.18 42.69 C 616.01 42.99 615.67 43.58 615.50 43.88 L 615.06 44.19 C 612.42 44.25 609.81 44.47 607.20 44.78 C 607.17 43.26 607.15 41.73 607.15 40.21 C 607.40 39.85 607.92 39.15 608.18 38.79 Z" />
<path fill="#a34b4e" opacity="0.75" d=" M 585.60 40.26 C 586.78 40.33 587.98 40.38 589.18 40.42 C 595.61 46.86 606.63 48.85 614.75 44.58 L 615.06 44.19 L 615.50 43.88 L 615.58 43.86 C 618.89 43.41 621.24 40.94 623.86 39.15 L 623.82 40.88 C 623.51 41.25 622.90 41.99 622.59 42.35 C 621.91 42.91 621.22 43.45 620.53 43.96 C 616.02 47.09 610.54 48.80 605.09 49.05 C 600.27 48.62 595.37 47.35 591.24 44.77 C 590.23 44.08 589.27 43.36 588.33 42.61 C 587.40 41.84 586.48 41.06 585.60 40.26 Z" />
<path fill="#64ff74" opacity="1.00" d=" M 607.25 43.57 C 607.70 41.63 608.98 40.17 610.72 39.23 C 611.09 39.29 611.83 39.41 612.20 39.47 L 613.04 39.64 C 613.46 39.68 614.30 39.76 614.72 39.80 C 615.48 40.54 616.26 41.27 617.03 42.01 L 616.18 42.69 C 613.22 43.17 610.23 43.42 607.25 43.57 Z" />
<path fill="#070303" opacity="0.33" d=" M 620.53 43.96 C 621.22 43.45 621.91 42.91 622.59 42.35 C 624.55 42.61 626.51 42.86 628.48 43.13 C 627.16 46.41 623.05 44.33 620.53 43.96 Z" />
<path fill="#020101" opacity="0.29" d=" M 581.76 44.67 C 582.79 42.02 586.14 43.10 588.33 42.61 C 589.27 43.36 590.23 44.08 591.24 44.77 C 588.07 44.86 584.91 44.86 581.76 44.67 Z" />
<path fill="#774520" opacity="1.00" d=" M 596.76 43.34 C 599.02 43.42 601.29 43.39 603.56 43.47 C 603.59 43.74 603.66 44.29 603.69 44.56 C 601.35 44.34 599.00 44.07 596.76 43.34 Z" />
</svg>
