<?xml version="1.0" encoding="UTF-8" ?>
<!DOCTYPE svg PUBLIC "-//W3C//DTD SVG 1.1//EN" "http://www.w3.org/Graphics/SVG/1.1/DTD/svg11.dtd">
<svg width="533pt" height="133pt" viewBox="0 0 533 133" version="1.1" xmlns="http://www.w3.org/2000/svg">
<path fill="#a72a32" opacity="0.78" d=" M 491.29 17.86 C 494.44 6.89 508.02 0.09 518.60 4.54 C 526.50 7.02 531.88 14.51 533.00 22.55 L 533.00 23.95 C 532.35 28.29 530.96 32.63 528.08 36.02 C 527.89 35.65 527.51 34.89 527.33 34.51 C 530.84 29.25 532.10 22.33 529.33 16.46 C 525.28 6.94 513.05 2.61 503.71 6.72 C 495.42 9.95 490.45 19.53 492.70 28.18 C 492.11 24.76 491.80 21.29 491.29 17.86 Z" />
<path fill="#43ff4e" opacity="1.00" d=" M 499.15 10.63 C 502.16 8.45 505.67 7.09 509.34 6.52 C 509.33 7.34 509.31 8.98 509.29 9.79 C 507.18 9.75 505.06 10.36 503.45 11.75 C 502.91 12.15 502.37 12.56 501.83 12.96 C 501.16 12.38 499.82 11.22 499.15 10.63 Z" />
<path fill="#3fff4b" opacity="1.00" d=" M 512.48 6.46 C 520.55 6.70 528.64 12.72 528.95 21.20 C 527.73 20.86 526.49 20.75 525.24 20.87 C 524.95 19.87 524.73 18.86 524.41 17.87 C 523.25 12.54 517.57 9.47 512.41 9.90 C 512.42 9.04 512.46 7.32 512.48 6.46 Z" />
<path fill="#324e1b" opacity="0.69" d=" M 503.45 11.75 C 505.06 10.36 507.18 9.75 509.29 9.79 C 508.44 11.53 505.29 12.11 503.45 11.75 Z" />
<path fill="#45802b" opacity="0.82" d=" M 512.41 9.90 C 517.57 9.47 523.25 12.54 524.41 17.87 L 523.27 17.02 L 523.02 16.51 C 521.38 12.11 516.35 11.15 512.41 9.90 Z" />
<path fill="#59ff61" opacity="1.00" d=" M 493.60 21.70 C 494.28 17.53 496.13 13.62 499.15 10.63 C 499.82 11.22 501.16 12.38 501.83 12.96 C 500.88 14.04 499.95 15.13 499.04 16.23 C 500.64 16.36 502.25 16.47 503.87 16.57 C 503.77 19.44 503.63 22.30 503.45 25.17 C 503.11 23.31 502.79 21.44 502.47 19.58 C 501.24 19.58 500.02 19.57 498.80 19.57 C 498.64 18.98 498.33 17.79 498.17 17.20 C 497.86 18.77 497.56 20.34 497.27 21.92 C 496.35 21.86 494.52 21.76 493.60 21.70 Z" />
<path fill="#4dff57" opacity="1.00" d=" M 511.08 21.35 C 511.30 19.59 511.54 17.83 511.77 16.06 C 515.52 16.18 519.27 16.27 523.02 16.51 L 523.27 17.02 C 523.29 17.79 523.34 19.31 523.37 20.07 C 521.99 21.54 520.57 22.97 519.06 24.29 C 517.91 23.24 516.81 22.16 515.71 21.08 L 515.29 20.67 C 513.88 20.90 512.48 21.13 511.08 21.35 Z" />
<path fill="#b85358" opacity="0.80" d=" M 491.29 17.86 C 491.80 21.29 492.11 24.76 492.70 28.18 C 494.95 36.14 502.78 41.97 511.03 42.00 C 517.28 42.30 523.37 39.28 527.33 34.51 C 527.51 34.89 527.89 35.65 528.08 36.02 C 523.84 40.96 517.41 43.87 510.94 44.04 C 504.18 43.39 497.46 40.09 493.66 34.30 C 490.64 29.48 488.90 23.32 491.29 17.86 Z" />
<path fill="#68ff6f" opacity="1.00" d=" M 498.80 19.57 C 500.02 19.57 501.24 19.58 502.47 19.58 C 502.79 21.44 503.11 23.31 503.45 25.17 C 505.42 24.84 507.41 24.56 509.41 24.29 C 509.60 25.75 509.80 27.21 510.02 28.66 C 506.48 29.32 502.90 29.64 499.33 29.98 C 499.14 26.51 498.82 23.04 498.80 19.57 Z" />
<path fill="#5aff62" opacity="1.00" d=" M 515.71 21.08 C 516.81 22.16 517.91 23.24 519.06 24.29 C 520.29 25.36 522.13 24.19 523.58 24.29 C 523.54 26.16 523.53 28.04 523.55 29.91 C 519.44 30.26 515.34 29.66 511.24 29.72 C 511.22 28.73 511.18 26.76 511.16 25.78 C 512.67 24.21 514.19 22.65 515.71 21.08 Z" />
<path fill="#2f5d1d" opacity="0.58" d=" M 525.24 20.87 C 526.49 20.75 527.73 20.86 528.95 21.20 C 528.74 22.79 524.88 22.55 525.24 20.87 Z" />
<path fill="#48ff53" opacity="1.00" d=" M 525.58 23.75 C 526.84 23.72 528.11 23.68 529.38 23.65 C 529.06 25.66 528.73 27.65 528.33 29.64 C 527.10 29.20 525.87 28.76 524.64 28.32 C 524.94 26.80 525.26 25.27 525.58 23.75 Z" />
<path fill="#ffffff" opacity="1.00" d=" M 137.25 28.31 C 144.14 21.08 158.20 23.61 161.75 33.11 C 163.86 39.56 163.41 46.51 163.49 53.22 C 158.99 53.28 154.50 53.24 150.00 53.25 C 149.88 48.80 150.39 44.17 149.05 39.86 C 148.60 39.89 147.71 39.93 147.26 39.96 C 144.97 45.15 145.27 52.28 149.57 56.41 C 154.34 61.31 159.43 66.21 162.32 72.50 C 164.71 79.04 164.69 86.14 164.76 93.01 C 164.44 99.39 164.59 106.83 159.49 111.53 C 153.13 118.16 140.88 116.88 136.17 108.92 C 131.47 100.80 133.07 90.96 132.75 82.00 C 137.23 82.00 141.72 82.00 146.20 82.00 C 146.34 86.76 146.14 91.51 146.30 96.27 C 146.44 97.78 146.51 99.76 148.27 100.34 C 150.88 99.55 150.68 96.22 150.89 94.06 C 150.72 90.11 151.20 85.63 148.56 82.34 C 144.59 77.06 139.43 72.75 135.78 67.22 C 131.58 59.78 132.16 50.96 132.31 42.73 C 132.66 37.64 133.42 32.06 137.25 28.31 Z" />
<path fill="#ffffff" opacity="1.00" d=" M 304.39 24.64 C 310.32 23.01 317.09 25.49 320.23 30.84 C 324.65 37.71 324.31 46.14 324.51 53.98 C 324.36 67.67 324.81 81.38 324.21 95.07 C 323.91 101.12 322.30 107.57 317.90 112.00 C 312.54 117.38 302.70 116.99 297.79 111.19 C 293.07 105.71 292.15 98.14 292.06 91.17 C 291.92 78.11 292.05 65.05 291.99 51.99 C 292.13 45.29 292.13 38.22 295.43 32.16 C 297.31 28.67 300.46 25.61 304.39 24.64 M 306.51 46.05 C 306.52 62.35 306.44 78.65 306.55 94.95 C 306.86 96.96 306.19 99.98 308.88 100.48 C 309.98 97.45 309.87 94.19 310.00 91.02 C 310.01 76.69 309.99 62.36 310.01 48.03 C 309.87 45.09 310.17 41.88 308.53 39.28 C 306.23 40.78 306.78 43.73 306.51 46.05 Z" />
<path fill="#ffff26" opacity="1.00" d=" M 394.45 24.64 C 399.60 23.30 405.52 24.82 408.91 29.05 C 414.01 35.12 414.35 43.42 414.50 50.96 C 414.46 64.26 414.59 77.57 414.43 90.88 C 414.30 98.03 413.52 105.92 408.46 111.45 C 403.40 117.17 393.53 117.23 388.30 111.72 C 384.40 107.53 382.72 101.73 382.35 96.13 C 381.72 86.40 382.10 76.65 382.00 66.91 C 382.10 58.11 381.63 49.25 382.74 40.49 C 383.75 33.82 387.39 26.44 394.45 24.64 M 396.51 46.93 C 396.49 61.95 396.51 76.97 396.50 91.99 C 396.58 94.60 396.54 97.27 397.26 99.81 C 397.71 99.89 398.62 100.04 399.07 100.12 C 399.98 97.52 399.90 94.71 400.00 92.00 C 400.01 77.33 399.98 62.66 400.01 48.00 C 399.89 45.04 400.32 41.70 398.34 39.23 C 396.36 41.30 396.67 44.30 396.51 46.93 Z" />
<path fill="#76ff7c" opacity="1.00" d=" M 493.72 24.58 C 494.58 24.56 496.29 24.53 497.14 24.51 C 498.06 27.93 499.24 31.62 502.28 33.75 C 504.47 35.50 507.29 35.97 509.95 36.56 C 509.89 37.75 509.83 38.93 509.78 40.12 C 505.98 39.50 502.04 38.50 499.14 35.80 C 495.81 33.02 494.29 28.76 493.72 24.58 Z" />
<path fill="#ffffff" opacity="1.00" d=" M 1.28 26.02 C 6.89 26.00 12.50 25.96 18.12 26.02 C 22.15 26.14 26.68 27.46 28.88 31.12 C 32.03 36.15 31.62 42.31 31.96 47.99 C 32.01 54.95 32.24 61.96 31.29 68.88 C 30.81 72.37 29.05 75.82 25.88 77.56 C 22.87 79.31 19.33 79.00 16.00 79.02 C 15.98 90.67 16.03 102.32 15.97 113.97 C 11.08 114.01 6.18 114.02 1.28 113.97 C 1.23 84.66 1.23 55.34 1.28 26.02 M 16.04 41.53 C 15.97 48.87 15.97 56.21 16.05 63.55 C 17.81 63.05 19.40 62.03 19.35 59.98 C 19.63 55.05 19.55 50.09 19.41 45.17 C 19.45 43.07 17.91 41.93 16.04 41.53 Z" />
<path fill="#ffffff" opacity="1.00" d=" M 36.28 26.03 C 41.18 25.98 46.08 25.98 50.97 26.03 C 51.04 49.27 50.98 72.51 51.00 95.75 C 53.83 95.74 56.66 95.74 59.50 95.79 C 59.49 101.85 59.55 107.92 59.46 113.99 C 51.73 114.00 44.00 114.02 36.28 113.98 C 36.23 84.66 36.23 55.34 36.28 26.03 Z" />
<path fill="#ffffff" opacity="1.00" d=" M 67.13 26.03 C 74.06 25.97 80.99 26.02 87.93 26.00 C 90.45 55.33 93.29 84.64 95.84 113.97 C 90.86 114.03 85.89 113.99 80.91 114.00 C 80.68 108.75 80.38 103.51 80.20 98.26 C 78.81 98.25 77.42 98.24 76.03 98.24 C 76.04 103.50 75.50 108.74 75.47 114.00 C 70.37 113.96 65.27 114.09 60.17 113.91 C 62.53 84.62 64.88 55.33 67.13 26.03 M 78.21 52.31 C 77.12 62.17 76.70 72.10 76.08 82.00 C 76.99 82.00 78.83 82.00 79.74 82.00 C 79.19 72.11 78.51 62.21 78.21 52.31 Z" />
<path fill="#ffffff" opacity="1.00" d=" M 96.12 26.03 C 100.64 25.97 105.16 26.01 109.68 26.00 C 110.53 36.24 112.08 46.43 112.38 56.70 C 113.81 46.50 114.66 36.22 115.93 26.00 C 120.46 26.00 124.99 26.00 129.52 26.00 C 126.27 44.68 122.72 63.31 119.57 82.00 C 119.40 92.64 119.54 103.28 119.51 113.92 C 114.94 114.07 110.37 113.98 105.79 114.00 C 105.63 103.09 105.90 92.18 105.66 81.28 C 102.62 62.84 99.13 44.47 96.12 26.03 Z" />
<path fill="#ffffff" opacity="1.00" d=" M 167.24 26.00 C 177.50 26.00 187.75 26.00 198.00 26.00 C 198.00 32.07 198.00 38.14 198.00 44.20 C 195.25 44.26 192.50 44.26 189.76 44.25 C 189.73 67.49 189.80 90.73 189.72 113.98 C 184.90 114.02 180.07 113.99 175.24 114.00 C 175.25 90.75 175.25 67.50 175.25 44.25 C 172.58 44.25 169.91 44.25 167.25 44.25 C 167.24 38.17 167.25 32.09 167.24 26.00 Z" />
<path fill="#ffffff" opacity="1.00" d=" M 206.22 26.05 C 213.12 25.95 220.03 26.02 226.93 26.00 C 229.51 55.33 232.38 84.64 234.83 113.98 C 229.89 114.02 224.95 113.99 220.01 114.00 C 219.64 108.75 219.52 103.49 219.19 98.23 C 217.84 98.25 216.50 98.28 215.15 98.31 C 214.93 103.54 214.66 108.76 214.46 114.00 C 209.39 114.00 204.32 114.01 199.25 113.99 C 201.56 84.67 203.88 55.36 206.22 26.05 M 215.21 82.00 C 216.11 82.00 217.90 81.99 218.80 81.99 C 218.40 71.85 217.15 61.71 217.56 51.56 C 215.98 61.62 215.77 71.85 215.21 82.00 Z" />
<path fill="#ffffff" opacity="1.00" d=" M 236.24 26.00 C 246.50 26.00 256.75 26.00 267.00 26.00 C 267.00 32.07 267.00 38.14 267.00 44.21 C 264.25 44.26 261.50 44.26 258.76 44.25 C 258.73 67.49 258.79 90.73 258.72 113.97 C 253.90 114.02 249.07 113.99 244.24 114.00 C 244.25 90.75 244.25 67.50 244.25 44.25 C 241.58 44.25 238.91 44.25 236.24 44.25 C 236.25 38.17 236.25 32.08 236.24 26.00 Z" />
<path fill="#ffffff" opacity="1.00" d=" M 271.46 26.05 C 276.31 25.95 281.15 26.02 286.00 26.00 C 285.98 55.32 286.03 84.65 285.97 113.97 C 281.15 114.02 276.32 113.99 271.50 114.00 C 271.47 84.68 271.54 55.36 271.46 26.05 Z" />
<path fill="#ffffff" opacity="1.00" d=" M 330.49 26.01 C 334.56 25.99 338.64 26.00 342.72 26.01 C 345.08 37.79 347.44 49.57 349.67 61.38 C 349.85 49.59 349.70 37.79 349.75 26.00 C 353.83 26.00 357.91 26.00 362.00 26.00 C 362.00 55.33 362.00 84.67 362.00 114.00 C 357.75 114.00 353.51 114.01 349.26 113.99 C 347.03 102.23 345.01 90.43 342.75 78.67 C 342.75 90.45 342.75 102.22 342.75 114.00 C 338.67 114.00 334.59 113.99 330.51 114.01 C 330.48 84.68 330.52 55.34 330.49 26.01 Z" />
<path fill="#ffff26" opacity="1.00" d=" M 420.49 26.01 C 424.58 25.99 428.68 26.00 432.77 26.00 C 435.10 37.75 437.43 49.50 439.71 61.27 C 439.80 49.51 439.72 37.76 439.75 26.00 C 443.83 26.00 447.91 26.00 452.00 26.00 C 452.00 55.33 452.00 84.67 452.00 114.00 C 447.75 114.00 443.50 114.01 439.26 113.99 C 437.12 102.20 435.00 90.41 432.77 78.64 C 432.73 90.42 432.76 102.21 432.75 114.00 C 428.67 114.00 424.60 114.02 420.52 113.96 C 420.46 84.65 420.52 55.33 420.49 26.01 Z" />
<path fill="#ffff26" opacity="1.00" d=" M 458.49 26.01 C 466.33 25.99 474.16 26.00 482.00 26.00 C 482.00 32.08 482.00 38.17 482.00 44.25 C 479.00 44.25 476.00 44.25 473.00 44.25 C 472.99 49.50 473.00 54.75 473.00 60.00 C 475.83 60.00 478.66 60.00 481.50 60.00 C 481.50 65.75 481.50 71.50 481.50 77.25 C 478.66 77.25 475.83 77.25 473.00 77.25 C 473.00 83.42 473.00 89.58 473.00 95.75 C 476.33 95.75 479.66 95.75 483.00 95.75 C 483.00 101.83 483.00 107.92 483.00 114.00 C 474.83 113.96 466.66 114.09 458.49 113.93 C 458.50 84.62 458.50 55.31 458.49 26.01 Z" />
<path fill="#65ff6d" opacity="1.00" d=" M 524.64 28.32 C 525.87 28.76 527.10 29.20 528.33 29.64 C 525.94 35.82 519.86 39.53 513.46 40.24 C 513.37 39.03 513.29 37.82 513.22 36.61 C 518.21 36.03 522.77 33.09 524.64 28.32 Z" />
</svg>
