<?xml version="1.0" encoding="UTF-8" ?>
<!DOCTYPE svg PUBLIC "-//W3C//DTD SVG 1.1//EN" "http://www.w3.org/Graphics/SVG/1.1/DTD/svg11.dtd">
<svg width="533pt" height="133pt" viewBox="0 0 533 133" version="1.1" xmlns="http://www.w3.org/2000/svg">
<path fill="#a62a32" opacity="0.78" d=" M 489.27 17.90 C 492.48 6.67 506.47 -0.07 517.17 4.75 C 525.20 7.54 530.69 15.64 531.00 24.03 C 530.40 28.27 528.92 32.44 526.29 35.86 C 525.95 35.62 525.28 35.14 524.95 34.90 C 529.22 29.32 530.20 21.35 526.69 15.16 C 522.09 6.46 510.54 2.82 501.64 6.76 C 493.38 10.01 488.48 19.55 490.68 28.18 C 490.07 24.77 489.98 21.29 489.27 17.90 Z" />
<path fill="#43ff4e" opacity="1.00" d=" M 497.05 10.73 C 500.07 8.45 503.64 7.09 507.38 6.53 C 507.34 7.37 507.26 9.04 507.22 9.87 C 505.21 9.66 503.19 10.27 501.68 11.60 C 501.05 12.07 500.42 12.53 499.80 12.98 C 499.11 12.42 497.74 11.30 497.05 10.73 Z" />
<path fill="#3fff4b" opacity="1.00" d=" M 510.48 6.47 C 518.54 6.69 526.63 12.71 526.96 21.20 C 525.73 20.86 524.49 20.76 523.25 20.91 C 522.95 19.87 522.73 18.81 522.39 17.79 C 521.20 12.53 515.55 9.43 510.41 9.91 C 510.43 9.05 510.46 7.33 510.48 6.47 Z" />
<path fill="#324e1b" opacity="0.69" d=" M 501.68 11.60 C 503.19 10.27 505.21 9.66 507.22 9.87 C 506.52 11.59 503.38 12.09 501.68 11.60 Z" />
<path fill="#45802b" opacity="0.82" d=" M 510.41 9.91 C 515.55 9.43 521.20 12.53 522.39 17.79 L 521.24 17.09 L 521.00 16.50 C 519.41 12.11 514.35 11.14 510.41 9.91 Z" />
<path fill="#59ff61" opacity="1.00" d=" M 491.61 21.70 C 492.27 17.57 494.08 13.71 497.05 10.73 C 497.74 11.30 499.11 12.42 499.80 12.98 C 498.87 14.06 497.96 15.14 497.07 16.24 C 498.66 16.36 500.26 16.47 501.87 16.57 C 501.78 19.45 501.64 22.33 501.38 25.20 C 501.06 23.27 500.76 21.34 500.47 19.41 C 499.25 19.51 498.03 19.60 496.81 19.70 C 496.67 19.11 496.38 17.93 496.24 17.34 C 495.88 18.85 495.55 20.37 495.25 21.89 C 494.34 21.84 492.52 21.75 491.61 21.70 Z" />
<path fill="#4dff57" opacity="1.00" d=" M 509.06 21.36 C 509.38 19.43 509.22 17.28 510.48 15.65 C 513.94 16.40 517.49 16.28 521.00 16.50 L 521.24 17.09 C 521.27 17.83 521.33 19.32 521.36 20.07 C 520.01 21.54 518.60 22.95 517.09 24.25 C 515.94 23.21 514.85 22.12 513.73 21.05 L 513.30 20.63 C 511.88 20.88 510.47 21.12 509.06 21.36 Z" />
<path fill="#b85358" opacity="0.80" d=" M 489.27 17.90 C 489.98 21.29 490.07 24.77 490.68 28.18 C 492.88 35.76 500.06 41.48 507.94 41.95 C 514.33 42.56 520.82 39.79 524.95 34.90 C 525.28 35.14 525.95 35.62 526.29 35.86 C 521.96 40.84 515.54 43.87 508.96 44.05 C 501.94 43.38 494.99 39.82 491.25 33.68 C 488.58 28.95 486.95 23.12 489.27 17.90 Z" />
<path fill="#68ff6f" opacity="1.00" d=" M 496.81 19.70 C 498.03 19.60 499.25 19.51 500.47 19.41 C 500.76 21.34 501.06 23.27 501.38 25.20 C 503.39 24.84 505.41 24.56 507.43 24.29 C 507.60 25.76 507.77 27.23 507.96 28.70 C 504.43 29.31 500.88 29.65 497.33 29.97 C 497.15 26.55 496.82 23.13 496.81 19.70 Z" />
<path fill="#5aff62" opacity="1.00" d=" M 513.73 21.05 C 514.85 22.12 515.94 23.21 517.09 24.25 C 518.26 25.42 520.14 24.16 521.57 24.28 C 521.54 26.18 521.54 28.09 521.56 29.99 C 517.45 30.19 513.35 29.67 509.24 29.72 C 509.22 28.74 509.17 26.78 509.15 25.80 C 510.67 24.21 512.20 22.64 513.73 21.05 Z" />
<path fill="#2f5d1d" opacity="0.58" d=" M 523.25 20.91 C 524.49 20.76 525.73 20.86 526.96 21.20 C 526.78 22.79 522.93 22.58 523.25 20.91 Z" />
<path fill="#48ff53" opacity="1.00" d=" M 523.57 23.75 C 524.83 23.72 526.10 23.68 527.37 23.65 C 527.07 25.60 526.75 27.55 526.38 29.49 C 525.15 29.06 523.93 28.64 522.71 28.22 C 522.98 26.73 523.28 25.24 523.57 23.75 Z" />
<path fill="#ffffff" opacity="1.00" d=" M 7.64 26.59 C 15.86 21.79 28.59 23.97 32.89 33.07 C 35.29 39.49 34.66 46.52 34.75 53.25 C 29.66 53.25 24.58 53.25 19.50 53.25 C 19.35 48.93 20.04 44.42 18.66 40.24 C 17.72 38.92 15.80 40.20 15.65 41.50 C 14.46 46.19 14.56 52.08 18.41 55.58 C 23.79 60.82 29.87 65.68 33.36 72.49 C 36.31 79.59 36.04 87.49 35.99 95.05 C 35.79 100.40 35.31 106.36 31.40 110.44 C 23.78 118.76 8.03 117.28 2.93 106.92 C -0.59 99.14 0.43 90.30 0.25 82.00 C 5.34 82.00 10.42 82.00 15.51 82.01 C 15.77 87.87 14.78 93.90 16.35 99.63 C 17.90 101.14 19.75 99.48 20.00 97.76 C 20.90 93.40 20.59 88.73 19.34 84.47 C 15.14 77.91 8.28 73.58 3.76 67.26 C 1.49 63.85 0.51 59.77 0.00 55.75 L 0.00 40.71 C 0.59 35.29 2.62 29.42 7.64 26.59 Z" />
<path fill="#ffffff" opacity="1.00" d=" M 84.00 26.91 C 87.96 24.06 93.18 23.74 97.84 24.62 C 104.78 26.06 109.96 32.31 111.31 39.09 C 112.55 45.64 112.60 52.35 112.45 58.99 C 106.90 59.01 101.35 59.00 95.80 59.00 C 95.28 52.77 96.68 46.27 94.98 40.22 C 92.50 38.44 92.10 42.37 92.09 43.92 C 91.91 61.02 92.00 78.14 92.05 95.24 C 92.24 97.13 92.09 100.98 95.06 99.90 C 97.48 93.81 95.70 86.94 96.25 80.53 C 95.50 80.51 94.01 80.47 93.27 80.45 C 93.23 75.81 93.23 71.17 93.27 66.54 C 99.68 66.45 106.09 66.52 112.50 66.50 C 112.51 82.31 112.50 98.12 112.50 113.93 C 108.91 114.04 105.33 114.00 101.74 114.00 C 101.38 112.34 101.01 110.68 100.67 109.03 C 98.96 111.90 96.75 114.94 93.24 115.59 C 86.63 117.03 80.64 111.87 78.12 106.17 C 74.78 98.92 75.76 90.80 75.26 83.08 C 75.27 69.67 75.02 56.24 75.88 42.85 C 76.07 36.68 79.02 30.61 84.00 26.91 Z" />
<path fill="#ffff26" opacity="1.00" d=" M 273.72 26.94 C 277.67 24.07 282.87 23.73 287.53 24.61 C 294.44 26.01 299.65 32.27 301.01 39.02 C 302.29 45.59 302.31 52.33 302.20 59.00 C 296.63 58.96 291.05 59.10 285.48 58.90 C 285.17 52.70 286.29 46.30 284.75 40.24 C 282.35 38.37 281.72 42.43 281.80 44.03 C 281.68 60.68 281.79 77.33 281.75 93.98 C 282.00 96.12 281.40 99.20 283.75 100.33 C 285.81 99.50 285.83 96.99 285.97 95.13 C 286.07 90.26 285.97 85.38 285.99 80.51 C 285.24 80.49 283.75 80.46 283.01 80.44 C 282.99 75.82 283.01 71.19 282.99 66.57 C 289.41 66.45 295.83 66.46 302.25 66.56 C 302.22 82.37 302.31 98.18 302.20 113.99 C 298.60 114.00 295.00 114.03 291.40 113.94 C 291.06 112.31 290.73 110.68 290.42 109.05 C 288.81 111.47 287.15 114.15 284.27 115.20 C 279.74 116.90 274.65 114.95 271.47 111.54 C 267.26 107.18 265.67 100.96 265.36 95.06 C 264.73 82.36 265.09 69.64 265.00 56.93 C 265.24 51.59 265.15 46.22 265.82 40.91 C 266.37 35.44 269.28 30.21 273.72 26.94 Z" />
<path fill="#ffff26" opacity="1.00" d=" M 366.98 30.99 C 369.22 26.14 374.94 24.26 379.94 24.23 C 385.69 23.92 392.43 24.90 395.97 29.98 C 400.57 37.11 400.31 46.04 399.77 54.17 C 399.50 58.10 397.35 61.56 394.51 64.18 C 396.82 65.90 398.87 68.17 399.47 71.08 C 401.02 78.62 400.42 86.38 400.45 94.03 C 400.11 101.48 398.46 110.53 391.02 114.13 C 384.67 116.76 376.47 116.60 370.99 112.10 C 367.77 109.32 365.78 105.26 365.27 101.07 C 364.25 93.67 364.53 86.19 364.50 78.75 C 369.75 78.75 375.00 78.75 380.25 78.75 C 380.53 86.09 379.56 93.64 381.14 100.84 C 382.90 102.85 384.63 99.79 384.48 98.11 C 384.74 91.09 385.29 83.92 384.10 76.97 C 383.52 73.00 379.05 73.21 376.00 72.89 C 376.00 68.44 375.97 63.98 376.04 59.53 C 378.83 59.12 383.56 60.27 384.22 56.45 C 385.08 51.68 384.80 46.77 384.60 41.95 C 384.66 40.18 383.60 38.74 382.00 38.06 C 379.18 42.74 380.66 48.56 380.25 53.76 C 375.01 53.74 369.77 53.78 364.53 53.73 C 364.62 46.14 363.70 38.08 366.98 30.99 Z" />
<path fill="#ffff26" opacity="1.00" d=" M 410.90 30.90 C 416.78 21.43 432.72 22.59 438.06 32.05 C 443.91 41.74 442.45 53.91 439.18 64.24 C 435.03 75.97 429.54 87.18 424.32 98.47 C 429.80 98.53 435.27 98.49 440.75 98.50 C 440.75 103.65 440.77 108.81 440.73 113.96 C 429.40 114.05 418.08 113.98 406.75 114.00 C 406.84 109.66 406.54 105.32 406.88 100.99 C 410.61 91.41 414.84 82.01 418.62 72.45 C 421.72 64.49 425.39 56.63 426.71 48.12 C 427.12 45.21 427.19 41.95 425.51 39.39 C 423.86 37.77 421.73 39.58 421.53 41.44 C 420.54 46.48 421.20 51.64 420.96 56.74 C 416.22 56.77 411.48 56.75 406.75 56.75 C 406.80 48.05 405.86 38.55 410.90 30.90 Z" />
<path fill="#76ff7c" opacity="1.00" d=" M 491.73 24.58 C 492.59 24.56 494.29 24.53 495.15 24.52 C 496.05 27.93 497.23 31.61 500.26 33.74 C 502.44 35.49 505.26 35.98 507.93 36.55 C 507.88 37.73 507.84 38.91 507.81 40.09 C 503.77 39.53 499.60 38.33 496.65 35.35 C 493.62 32.58 492.28 28.54 491.73 24.58 Z" />
<path fill="#ffffff" opacity="1.00" d=" M 42.27 26.03 C 51.25 25.96 60.23 26.01 69.20 26.00 C 69.29 32.08 69.25 38.16 69.24 44.23 C 65.82 44.26 62.41 44.25 59.00 44.25 C 59.00 49.50 59.00 54.75 59.00 60.00 C 62.15 60.00 65.30 59.99 68.46 60.01 C 68.55 65.74 68.49 71.48 68.49 77.21 C 65.33 77.27 62.17 77.25 59.00 77.25 C 59.00 83.42 59.00 89.58 59.00 95.75 C 62.75 95.75 66.49 95.74 70.24 95.77 C 70.25 101.84 70.29 107.92 70.20 114.00 C 60.89 113.98 51.58 114.05 42.27 113.96 C 42.24 84.65 42.23 55.34 42.27 26.03 Z" />
<path fill="#ffffff" opacity="1.00" d=" M 124.55 26.02 C 132.32 25.99 140.08 25.98 147.85 26.02 C 150.83 55.35 153.94 84.67 156.93 114.00 C 151.30 114.00 145.68 114.00 140.05 114.00 C 139.82 108.74 139.52 103.49 139.20 98.24 C 137.60 98.25 136.00 98.27 134.41 98.30 C 134.19 103.50 133.79 108.69 133.66 113.89 C 127.94 114.11 122.22 113.96 116.49 113.99 C 119.13 84.66 121.94 55.35 124.55 26.02 M 136.39 52.76 C 136.12 62.52 135.01 72.24 134.47 82.00 C 135.50 82.00 137.56 82.00 138.59 82.00 C 137.87 72.26 137.92 62.41 136.39 52.76 Z" />
<path fill="#ffff26" opacity="1.00" d=" M 175.47 113.89 C 175.59 84.59 175.37 55.28 175.58 25.98 C 182.59 26.05 189.61 25.92 196.63 26.06 C 197.87 38.08 198.81 50.14 200.50 62.10 C 201.21 50.06 202.65 38.07 203.53 26.04 C 210.60 25.97 217.66 25.99 224.73 26.03 C 224.77 55.34 224.77 84.66 224.73 113.97 C 219.82 114.03 214.91 113.99 210.00 114.00 C 209.82 97.56 210.43 81.10 209.54 64.67 C 208.74 81.16 206.68 97.55 205.44 114.00 C 201.97 114.00 198.51 114.00 195.06 114.00 C 193.59 97.97 191.64 81.98 190.55 65.92 C 189.87 81.93 190.44 97.98 190.25 114.00 C 185.32 113.96 180.39 114.11 175.47 113.89 Z" />
<path fill="#ffff26" opacity="1.00" d=" M 232.03 26.03 C 241.01 25.98 249.99 25.98 258.97 26.03 C 259.02 32.08 258.99 38.14 259.00 44.20 C 255.58 44.27 252.17 44.25 248.75 44.25 C 248.75 49.50 248.75 54.75 248.75 60.00 C 251.90 60.00 255.05 60.00 258.20 60.00 C 258.29 65.75 258.24 71.49 258.24 77.23 C 255.06 77.25 251.89 77.23 248.72 77.32 C 248.79 83.46 248.73 89.60 248.75 95.75 C 252.50 95.75 256.25 95.72 260.00 95.80 C 259.99 101.86 260.02 107.92 259.98 113.97 C 250.66 114.02 241.34 114.02 232.03 113.97 C 231.98 84.66 231.98 55.34 232.03 26.03 Z" />
<path fill="#ffff26" opacity="1.00" d=" M 314.31 26.00 C 322.08 26.06 329.85 25.88 337.61 26.10 C 340.46 55.41 343.78 84.67 346.58 113.98 C 340.99 114.02 335.39 113.99 329.80 114.00 C 329.53 108.74 329.23 103.48 328.93 98.23 C 327.33 98.24 325.73 98.26 324.13 98.27 C 323.87 103.52 323.65 108.77 323.24 114.01 C 317.57 113.99 311.91 114.01 306.24 114.00 C 308.84 84.66 311.63 55.33 314.31 26.00 M 326.47 52.68 C 325.56 62.44 324.84 72.21 324.19 81.98 C 325.22 81.99 327.27 82.00 328.30 82.01 C 327.75 72.23 327.29 62.44 326.47 52.68 Z" />
<path fill="#ffff26" opacity="1.00" d=" M 445.13 26.03 C 450.40 25.98 455.67 26.01 460.95 26.00 C 461.91 32.84 462.77 39.68 463.76 46.52 C 464.96 39.71 465.65 32.83 466.65 25.99 C 471.27 26.01 475.89 26.00 480.51 26.00 C 478.90 38.36 477.04 50.69 475.36 63.05 C 475.18 64.34 475.20 65.62 475.44 66.91 C 478.12 82.60 480.93 98.28 483.54 113.99 C 478.41 114.01 473.27 114.00 468.14 114.00 C 466.25 104.56 465.40 94.96 463.52 85.54 C 463.41 95.06 461.94 104.52 461.19 114.00 C 455.83 113.98 450.48 114.05 445.12 113.95 C 446.83 98.25 448.74 82.57 450.56 66.88 C 450.72 65.63 450.70 64.38 450.51 63.14 C 448.74 50.76 446.77 38.42 445.13 26.03 Z" />
<path fill="#65ff6d" opacity="1.00" d=" M 522.71 28.22 C 523.93 28.64 525.15 29.06 526.38 29.49 C 524.06 35.75 517.97 39.41 511.58 40.31 C 511.44 39.07 511.30 37.84 511.17 36.61 C 516.23 36.05 520.84 33.04 522.71 28.22 Z" />
</svg>
