<?xml version="1.0" encoding="UTF-8" ?>
<!DOCTYPE svg PUBLIC "-//W3C//DTD SVG 1.1//EN" "http://www.w3.org/Graphics/SVG/1.1/DTD/svg11.dtd">
<svg width="400pt" height="100pt" viewBox="0 0 400 100" version="1.1" xmlns="http://www.w3.org/2000/svg">
<path fill="#731922" opacity="0.55" d=" M 361.97 15.14 C 363.34 10.93 366.17 6.73 370.86 5.98 C 378.42 5.12 384.36 14.44 381.13 21.09 C 380.34 23.38 378.71 25.23 376.70 26.54 C 377.10 25.28 377.58 24.05 378.14 22.85 C 378.24 22.73 378.43 22.49 378.53 22.37 L 378.74 22.09 C 381.03 19.29 380.89 15.46 378.86 12.59 L 378.27 11.55 C 378.33 11.27 378.47 10.71 378.54 10.43 C 377.97 10.21 376.85 9.77 376.28 9.55 L 376.01 9.46 L 375.53 9.12 C 374.13 8.58 372.72 8.05 371.30 7.58 C 367.51 8.45 364.81 11.45 363.63 15.06 C 363.52 15.41 363.31 16.11 363.20 16.46 L 361.97 15.14 Z" />
<path fill="#49be52" opacity="0.79" d=" M 363.63 15.06 C 364.81 11.45 367.51 8.45 371.30 7.58 C 371.26 10.31 368.58 11.09 366.69 12.31 C 367.23 12.70 368.31 13.49 368.84 13.89 C 368.66 15.07 368.47 16.25 368.30 17.44 C 369.19 17.49 370.98 17.59 371.87 17.64 C 371.21 20.34 368.53 20.41 366.31 20.87 C 367.91 21.93 369.54 22.94 371.20 23.92 C 371.24 24.59 371.29 25.26 371.36 25.94 C 370.14 25.53 368.93 25.09 367.74 24.63 C 367.41 24.30 366.75 23.65 366.42 23.32 C 366.30 23.20 366.07 22.96 365.96 22.84 C 365.82 22.65 365.54 22.25 365.40 22.06 L 364.91 21.19 C 364.83 21.01 364.67 20.66 364.59 20.48 L 364.40 19.95 L 363.66 17.70 C 364.45 17.65 366.04 17.56 366.84 17.51 C 365.77 16.68 364.70 15.87 363.63 15.06 Z" />
<path fill="#32d640" opacity="0.94" d=" M 373.43 8.83 C 373.96 8.90 375.01 9.05 375.53 9.12 L 376.01 9.46 C 375.86 10.32 375.36 10.86 374.52 11.07 C 374.25 10.51 373.71 9.39 373.43 8.83 Z" />
<path fill="#38e246" opacity="0.95" d=" M 379.09 14.93 C 377.69 14.75 376.35 12.12 378.27 11.55 L 378.86 12.59 C 378.92 13.17 379.03 14.35 379.09 14.93 Z" />
<path fill="#51f15a" opacity="0.95" d=" M 371.35 15.47 C 371.67 11.70 376.29 12.89 377.67 15.18 C 376.83 15.90 375.99 16.63 375.17 17.36 C 375.82 17.46 377.12 17.67 377.77 17.77 C 377.79 21.60 373.65 20.13 371.21 20.33 C 371.77 18.63 372.73 17.13 373.80 15.71 C 373.18 15.65 371.96 15.53 371.35 15.47 Z" />
<path fill="#7d353d" opacity="0.55" d=" M 361.97 15.14 L 363.20 16.46 C 363.60 17.62 364.00 18.78 364.40 19.95 L 364.59 20.48 C 364.67 20.66 364.83 21.01 364.91 21.19 L 365.40 22.06 C 365.54 22.25 365.82 22.65 365.96 22.84 C 366.07 22.96 366.30 23.20 366.42 23.32 C 366.75 23.65 367.41 24.30 367.74 24.63 C 367.64 25.17 367.46 26.24 367.37 26.77 C 363.65 24.21 361.55 19.63 361.97 15.14 Z" />
<path fill="#44c24e" opacity="0.78" d=" M 376.49 21.75 C 377.47 19.83 378.18 17.59 380.28 16.54 C 379.90 17.93 379.12 20.70 378.74 22.09 L 378.53 22.37 C 378.43 22.49 378.24 22.73 378.14 22.85 C 377.65 23.03 376.67 23.40 376.19 23.59 C 375.18 24.62 374.04 25.51 372.79 26.23 C 372.38 23.70 374.80 22.89 376.49 21.75 Z" />
<path fill="#235c2c" opacity="0.41" d=" M 364.59 20.48 C 364.67 20.66 364.83 21.01 364.91 21.19 C 364.83 21.01 364.67 20.66 364.59 20.48 Z" />
<path fill="#232323" opacity="1.00" d=" M 0.00 21.02 C 53.32 21.01 106.64 20.99 159.96 21.00 C 165.62 21.04 171.30 20.74 176.93 21.42 C 172.34 22.30 167.67 22.41 163.01 22.25 C 126.34 22.26 89.67 22.17 52.99 22.07 C 35.33 21.86 17.66 21.70 0.00 21.80 L 0.00 21.02 Z" />
<path fill="#222222" opacity="1.00" d=" M 180.30 21.50 C 185.84 20.71 191.44 21.03 197.01 21.00 C 252.01 20.99 307.00 21.02 361.99 21.01 L 361.99 21.87 C 350.68 21.76 339.36 21.64 328.05 22.04 C 283.70 22.10 239.35 22.36 195.00 22.23 C 190.09 22.35 185.15 22.36 180.30 21.50 Z" />
<path fill="#000000" opacity="1.00" d=" M 0.00 21.80 C 17.66 21.70 35.33 21.86 52.99 22.07 C 89.67 22.17 126.34 22.26 163.01 22.25 C 167.67 22.41 172.34 22.30 176.93 21.42 C 178.05 21.45 179.18 21.48 180.30 21.50 C 185.15 22.36 190.09 22.35 195.00 22.23 C 239.35 22.36 283.70 22.10 328.05 22.04 C 339.36 21.64 350.68 21.76 361.99 21.87 C 362.01 42.52 361.99 63.17 362.00 83.81 C 299.68 83.56 237.36 83.94 175.04 83.89 C 153.70 84.27 132.35 83.97 111.01 84.02 C 95.01 84.50 79.00 84.17 62.99 84.25 C 56.21 84.34 49.39 83.78 42.66 84.89 C 28.44 85.14 14.22 84.93 0.00 85.00 L 0.00 74.16 C 6.28 74.89 11.70 78.62 17.97 79.44 C 26.30 81.25 35.43 80.38 42.80 75.90 C 45.81 74.08 47.65 71.00 49.43 68.07 C 49.58 64.46 50.11 60.73 49.14 57.20 C 47.16 52.59 42.68 49.57 38.02 48.12 C 30.59 45.50 22.40 46.75 15.00 44.02 C 11.86 43.14 11.38 38.67 13.65 36.65 C 17.44 32.97 23.21 33.22 28.10 33.61 C 33.69 34.42 39.79 36.37 43.02 41.36 C 43.32 41.46 43.93 41.64 44.23 41.73 C 46.05 37.54 48.07 33.42 50.41 29.50 C 47.97 29.65 45.45 29.90 43.21 28.68 C 34.19 24.76 23.81 22.54 14.22 25.71 C 8.98 27.58 3.58 31.17 2.17 36.88 C 1.63 37.21 0.54 37.87 0.00 38.20 L 0.00 21.80 M 100.01 24.64 C 98.89 25.73 97.64 26.69 95.98 26.36 C 81.56 26.46 67.12 26.07 52.71 26.55 C 53.44 27.07 54.90 28.12 55.64 28.64 C 55.09 44.43 55.47 60.25 55.44 76.06 C 54.49 76.98 51.81 77.82 53.79 79.21 C 68.50 79.43 83.23 79.19 97.95 79.31 C 99.52 78.98 100.16 80.47 100.95 81.49 C 101.40 81.51 102.32 81.55 102.78 81.57 C 102.60 76.90 102.60 72.22 102.77 67.55 C 102.17 67.57 100.97 67.61 100.37 67.63 C 100.32 68.14 100.22 69.15 100.17 69.65 C 97.55 70.55 94.76 70.24 92.05 70.28 C 83.61 70.26 75.17 70.24 66.73 70.32 C 67.73 65.64 67.18 60.83 67.17 56.09 C 73.81 56.17 80.45 56.09 87.09 56.16 C 88.20 57.08 89.42 57.82 90.75 58.37 C 90.73 53.90 90.89 49.42 90.73 44.95 C 88.84 43.72 88.16 46.14 87.37 47.31 L 88.50 47.27 C 81.19 47.59 73.86 47.42 66.55 47.38 C 66.62 43.15 66.61 38.92 66.57 34.70 C 77.09 34.66 87.61 34.69 98.13 34.68 C 98.50 35.15 99.25 36.09 99.62 36.55 C 100.11 36.63 101.08 36.80 101.57 36.88 C 101.32 32.63 101.34 28.37 101.55 24.12 C 101.17 24.25 100.39 24.51 100.01 24.64 M 122.93 26.51 C 116.46 28.40 111.30 33.23 108.10 39.05 C 107.92 39.67 107.55 40.92 107.37 41.54 L 106.77 41.58 C 105.64 47.26 104.63 53.18 106.10 58.90 C 106.45 60.24 106.78 61.58 107.15 62.92 C 109.67 68.39 113.57 73.55 119.19 76.11 C 126.87 80.10 135.83 78.81 144.11 78.27 C 150.56 76.69 156.75 74.22 162.42 70.77 C 161.53 69.79 160.64 68.81 159.75 67.83 C 159.70 63.57 159.73 59.31 159.72 55.05 C 160.79 54.15 161.96 53.26 162.26 51.79 C 154.53 51.55 146.78 51.81 139.05 51.71 C 137.62 51.89 136.49 51.09 136.07 49.75 C 135.66 49.72 134.82 49.67 134.41 49.64 C 134.66 53.61 134.70 57.60 134.36 61.57 C 134.83 61.57 135.78 61.56 136.25 61.56 C 136.44 61.13 136.81 60.28 136.99 59.86 C 141.49 59.04 146.14 59.75 150.70 59.49 C 150.70 62.02 150.71 64.56 150.62 67.10 C 144.04 69.29 136.96 71.51 130.01 69.83 C 125.39 68.97 121.44 65.97 118.72 62.23 C 118.07 60.51 117.37 58.82 116.66 57.13 C 116.29 52.92 115.91 48.47 117.66 44.49 C 119.73 38.87 125.09 34.80 130.90 33.74 C 137.01 32.88 143.36 34.23 148.80 37.05 C 150.29 37.59 150.64 39.13 151.05 40.48 C 151.78 40.59 152.51 40.70 153.25 40.82 C 153.74 39.48 154.26 38.16 154.75 36.83 C 155.20 35.91 155.65 34.98 156.10 34.06 C 156.94 32.24 157.86 30.46 158.76 28.66 C 156.14 28.81 153.42 28.94 150.99 27.76 C 142.13 24.20 132.03 23.21 122.93 26.51 M 182.07 25.32 C 182.17 25.74 182.37 26.56 182.47 26.97 C 183.00 27.43 184.06 28.34 184.59 28.80 C 182.86 33.33 180.88 37.77 179.20 42.33 L 178.68 42.59 C 178.24 44.20 177.70 45.79 177.28 47.41 L 176.79 47.65 C 174.38 53.86 171.73 59.98 169.29 66.18 C 168.40 68.06 167.63 69.99 166.81 71.90 C 166.34 73.12 165.84 74.33 165.35 75.54 C 164.50 76.02 163.64 76.49 162.78 76.96 C 162.68 77.31 162.48 78.03 162.39 78.39 C 167.74 78.32 173.09 78.37 178.45 78.34 C 178.39 78.01 178.26 77.36 178.19 77.04 C 177.27 76.44 176.37 75.82 175.49 75.17 C 175.82 72.95 177.02 70.99 177.83 68.92 C 178.17 67.87 178.50 66.81 178.82 65.75 C 179.30 65.47 180.27 64.92 180.76 64.65 C 186.91 64.73 193.06 64.75 199.21 64.68 C 199.69 64.95 200.64 65.50 201.12 65.78 C 201.47 66.82 201.83 67.87 202.22 68.91 C 202.48 69.40 203.00 70.38 203.25 70.87 C 203.69 72.28 204.22 73.65 204.52 75.10 C 203.57 76.14 202.28 76.92 201.74 78.28 C 207.83 78.54 213.95 78.49 220.04 78.29 C 218.72 77.19 217.38 76.13 216.05 75.04 C 215.40 73.04 214.66 71.06 213.80 69.13 C 213.14 67.79 212.47 66.45 211.80 65.12 C 210.83 62.77 209.80 60.44 208.78 58.11 C 207.89 55.73 206.87 53.41 205.77 51.12 C 205.23 49.71 204.67 48.31 204.16 46.89 C 203.16 44.55 202.14 42.23 201.07 39.93 C 200.44 38.49 199.82 37.06 199.22 35.61 L 198.80 35.38 C 198.05 33.23 197.06 31.18 196.31 29.03 C 196.98 27.69 198.25 26.77 199.15 25.61 C 193.47 25.17 187.76 25.59 182.07 25.32 M 231.24 26.34 C 231.45 44.09 231.24 61.85 231.35 79.60 C 231.71 79.48 232.43 79.25 232.80 79.14 C 236.52 79.50 240.26 79.30 243.99 79.33 C 279.98 79.30 315.97 79.24 351.96 79.23 C 354.52 79.27 357.06 78.85 359.59 78.48 C 359.42 77.62 359.09 75.90 358.93 75.04 C 359.64 71.41 357.84 67.65 359.26 64.07 C 359.28 62.37 359.27 60.67 359.25 58.98 C 358.56 56.71 358.67 54.33 358.79 51.99 C 359.72 48.40 359.22 44.65 359.15 40.99 C 359.22 39.02 359.29 37.05 359.28 35.08 C 359.27 32.27 359.31 29.45 359.35 26.63 L 358.24 26.48 C 315.91 26.36 273.57 26.39 231.24 26.34 Z" />
<path fill="#29512c" opacity="0.40" d=" M 365.40 22.06 C 365.54 22.25 365.82 22.65 365.96 22.84 C 365.82 22.65 365.54 22.25 365.40 22.06 Z" />
<path fill="#1e5b24" opacity="0.44" d=" M 378.14 22.85 C 378.24 22.73 378.43 22.49 378.53 22.37 C 378.43 22.49 378.24 22.73 378.14 22.85 Z" />
<path fill="#356c3b" opacity="0.49" d=" M 365.96 22.84 C 366.07 22.96 366.30 23.20 366.42 23.32 C 366.30 23.20 366.07 22.96 365.96 22.84 Z" />
<path fill="#55312d" opacity="0.42" d=" M 376.19 23.59 C 376.67 23.40 377.65 23.03 378.14 22.85 C 377.58 24.05 377.10 25.28 376.70 26.54 L 376.51 27.07 C 375.39 27.26 374.24 28.22 373.11 27.64 C 372.36 26.76 370.69 26.24 370.08 27.55 L 369.67 28.08 C 369.09 27.78 367.92 27.20 367.34 26.90 L 367.37 26.77 C 367.46 26.24 367.64 25.17 367.74 24.63 C 368.93 25.09 370.14 25.53 371.36 25.94 L 372.04 26.17 L 372.79 26.23 C 374.04 25.51 375.18 24.62 376.19 23.59 Z" />
<path fill="#ffffff" opacity="1.00" d=" M 14.22 25.71 C 23.81 22.54 34.19 24.76 43.21 28.68 C 45.45 29.90 47.97 29.65 50.41 29.50 C 48.07 33.42 46.05 37.54 44.23 41.73 C 43.93 41.64 43.32 41.46 43.02 41.36 C 39.79 36.37 33.69 34.42 28.10 33.61 C 23.21 33.22 17.44 32.97 13.65 36.65 C 11.38 38.67 11.86 43.14 15.00 44.02 C 22.40 46.75 30.59 45.50 38.02 48.12 C 42.68 49.57 47.16 52.59 49.14 57.20 C 50.11 60.73 49.58 64.46 49.43 68.07 C 47.65 71.00 45.81 74.08 42.80 75.90 C 35.43 80.38 26.30 81.25 17.97 79.44 C 11.70 78.62 6.28 74.89 0.00 74.16 L 0.00 73.51 C 1.53 69.02 3.46 64.66 5.93 60.61 C 6.82 62.70 7.21 65.32 9.40 66.51 C 15.90 70.51 23.99 71.53 31.43 70.25 C 34.85 69.47 39.22 67.01 38.65 62.90 C 38.86 60.84 36.56 59.71 34.97 59.00 C 27.61 56.58 19.57 58.18 12.21 55.68 C 8.10 54.17 4.57 51.26 2.28 47.53 C 1.57 44.03 1.34 40.39 2.17 36.88 C 3.58 31.17 8.98 27.58 14.22 25.71 Z" />
<path fill="#ffffff" opacity="1.00" d=" M 100.01 24.64 C 100.39 24.51 101.17 24.25 101.55 24.12 C 101.34 28.37 101.32 32.63 101.57 36.88 C 101.08 36.80 100.11 36.63 99.62 36.55 C 99.25 36.09 98.50 35.15 98.13 34.68 C 87.61 34.69 77.09 34.66 66.57 34.70 C 66.61 38.92 66.62 43.15 66.55 47.38 C 73.86 47.42 81.19 47.59 88.50 47.27 L 89.69 47.21 C 89.64 50.18 89.64 53.15 89.68 56.12 C 84.17 55.00 78.54 55.47 72.96 55.35 C 70.66 55.36 68.31 55.28 66.08 55.91 C 66.01 60.65 64.91 65.83 66.73 70.32 C 75.17 70.24 83.61 70.26 92.05 70.28 C 94.76 70.24 97.55 70.55 100.17 69.65 L 101.78 69.24 C 101.69 72.69 101.69 76.14 101.81 79.59 C 98.97 78.64 96.00 78.18 93.01 78.30 C 80.45 78.52 67.88 78.19 55.32 78.49 C 55.96 76.05 56.47 73.55 56.43 71.01 C 56.36 58.66 56.32 46.31 56.45 33.97 C 56.45 32.16 56.40 30.30 55.64 28.64 C 54.90 28.12 53.44 27.07 52.71 26.55 C 67.12 26.07 81.56 26.46 95.98 26.36 C 97.64 26.69 98.89 25.73 100.01 24.64 Z" />
<path fill="#ffffff" opacity="1.00" d=" M 122.93 26.51 C 132.03 23.21 142.13 24.20 150.99 27.76 C 153.42 28.94 156.14 28.81 158.76 28.66 C 157.86 30.46 156.94 32.24 156.10 34.06 C 155.65 34.98 155.20 35.91 154.75 36.83 C 154.26 38.16 153.74 39.48 153.25 40.82 C 152.51 40.70 151.78 40.59 151.05 40.48 C 150.64 39.13 150.29 37.59 148.80 37.05 C 143.36 34.23 137.01 32.88 130.90 33.74 C 125.09 34.80 119.73 38.87 117.66 44.49 C 115.91 48.47 116.29 52.92 116.66 57.13 C 117.37 58.82 118.07 60.51 118.72 62.23 C 121.44 65.97 125.39 68.97 130.01 69.83 C 136.96 71.51 144.04 69.29 150.62 67.10 C 150.71 64.56 150.70 62.02 150.70 59.49 C 146.14 59.75 141.49 59.04 136.99 59.86 C 136.81 60.28 136.44 61.13 136.25 61.56 C 135.78 61.56 134.83 61.57 134.36 61.57 C 134.70 57.60 134.66 53.61 134.41 49.64 C 134.82 49.67 135.66 49.72 136.07 49.75 C 136.49 51.09 137.62 51.89 139.05 51.71 C 146.78 51.81 154.53 51.55 162.26 51.79 C 161.96 53.26 160.79 54.15 159.72 55.05 C 159.73 59.31 159.70 63.57 159.75 67.83 C 160.64 68.81 161.53 69.79 162.42 70.77 C 156.75 74.22 150.56 76.69 144.11 78.27 C 135.83 78.81 126.87 80.10 119.19 76.11 C 113.57 73.55 109.67 68.39 107.15 62.92 C 106.78 61.58 106.45 60.24 106.10 58.90 C 104.63 53.18 105.64 47.26 106.77 41.58 L 107.37 41.54 C 107.55 40.92 107.92 39.67 108.10 39.05 C 111.30 33.23 116.46 28.40 122.93 26.51 Z" />
<path fill="#ffffff" opacity="1.00" d=" M 182.07 25.32 C 187.76 25.59 193.47 25.17 199.15 25.61 C 198.25 26.77 196.98 27.69 196.31 29.03 C 197.06 31.18 198.05 33.23 198.80 35.38 L 199.22 35.61 C 199.82 37.06 200.44 38.49 201.07 39.93 C 202.14 42.23 203.16 44.55 204.16 46.89 C 204.67 48.31 205.23 49.71 205.77 51.12 C 206.87 53.41 207.89 55.73 208.78 58.11 C 209.80 60.44 210.83 62.77 211.80 65.12 C 212.47 66.45 213.14 67.79 213.80 69.13 C 214.66 71.06 215.40 73.04 216.05 75.04 C 217.38 76.13 218.72 77.19 220.04 78.29 C 213.95 78.49 207.83 78.54 201.74 78.28 C 202.28 76.92 203.57 76.14 204.52 75.10 C 204.22 73.65 203.69 72.28 203.25 70.87 C 203.00 70.38 202.48 69.40 202.22 68.91 C 201.83 67.87 201.47 66.82 201.12 65.78 C 200.64 65.50 199.69 64.95 199.21 64.68 C 193.06 64.75 186.91 64.73 180.76 64.65 C 180.27 64.92 179.30 65.47 178.82 65.75 C 178.50 66.81 178.17 67.87 177.83 68.92 C 177.02 70.99 175.82 72.95 175.49 75.17 C 176.37 75.82 177.27 76.44 178.19 77.04 C 178.26 77.36 178.39 78.01 178.45 78.34 C 173.09 78.37 167.74 78.32 162.39 78.39 C 162.48 78.03 162.68 77.31 162.78 76.96 C 163.64 76.49 164.50 76.02 165.35 75.54 C 165.84 74.33 166.34 73.12 166.81 71.90 C 167.63 69.99 168.40 68.06 169.29 66.18 C 171.73 59.98 174.38 53.86 176.79 47.65 L 177.28 47.41 C 177.70 45.79 178.24 44.20 178.68 42.59 L 179.20 42.33 C 180.88 37.77 182.86 33.33 184.59 28.80 C 184.06 28.34 183.00 27.43 182.47 26.97 C 182.37 26.56 182.17 25.74 182.07 25.32 M 188.75 40.34 C 188.30 41.96 187.78 43.55 187.29 45.16 C 186.43 47.05 185.68 49.00 184.90 50.92 C 184.53 51.89 184.14 52.85 183.74 53.81 C 183.23 55.00 182.72 56.20 182.22 57.40 C 187.25 57.46 192.28 57.45 197.31 57.41 C 196.03 53.84 194.46 50.39 193.26 46.80 C 192.72 45.59 192.18 44.37 191.63 43.17 C 191.56 42.45 191.43 41.01 191.36 40.29 C 190.49 40.31 189.62 40.32 188.75 40.34 Z" />
<path fill="#ffff00" opacity="1.00" d=" M 231.24 26.34 C 273.57 26.39 315.91 26.36 358.24 26.48 C 358.31 43.66 358.00 60.83 358.26 78.01 C 321.18 78.40 284.08 78.01 246.99 78.10 C 242.27 78.30 237.31 77.32 232.80 79.14 C 232.43 79.25 231.71 79.48 231.35 79.60 C 231.24 61.85 231.45 44.09 231.24 26.34 M 324.68 29.20 C 320.22 30.89 315.27 29.51 310.63 30.31 C 307.37 31.50 303.84 31.08 300.44 31.12 C 299.15 31.99 297.86 32.85 296.59 33.75 C 302.86 34.05 309.14 33.88 315.41 34.15 C 318.07 34.99 320.83 35.56 323.61 35.75 L 323.72 35.79 C 325.97 37.71 329.35 38.55 330.45 41.57 C 331.84 44.14 330.54 47.06 329.85 49.64 C 328.72 50.87 327.63 52.16 326.72 53.57 C 326.63 53.65 326.44 53.81 326.35 53.89 C 322.08 56.09 318.17 59.02 313.51 60.42 C 312.18 60.86 310.84 61.27 309.51 61.72 C 308.13 62.07 306.75 62.42 305.39 62.81 C 304.15 62.90 302.92 62.98 301.70 63.07 C 301.72 61.61 301.75 60.15 301.75 58.70 C 299.89 56.03 302.24 51.74 299.70 49.80 C 299.67 49.46 299.61 48.78 299.57 48.43 C 299.67 47.50 299.86 45.62 299.95 44.68 C 299.01 45.14 298.07 45.61 297.14 46.09 C 297.15 53.42 296.88 60.75 297.01 68.09 C 298.46 67.97 299.91 67.85 301.37 67.72 C 303.41 67.17 305.48 66.72 307.55 66.26 C 308.51 66.06 309.48 65.86 310.44 65.66 C 314.74 64.11 319.22 63.16 323.52 61.62 C 331.09 58.46 338.71 55.14 345.55 50.57 C 349.28 47.30 354.12 43.88 354.02 38.36 C 351.52 34.79 347.30 33.20 343.54 31.36 C 342.14 31.03 340.75 30.69 339.38 30.28 C 336.05 29.82 332.51 30.56 329.35 29.22 C 327.79 29.15 326.23 29.15 324.68 29.20 M 283.71 36.28 C 283.35 36.39 282.65 36.60 282.30 36.71 L 281.55 36.08 L 280.48 36.35 L 280.22 37.23 C 279.68 37.27 278.60 37.35 278.06 37.38 L 277.29 36.85 L 276.27 37.24 L 276.08 38.13 L 275.72 38.19 C 273.25 38.35 270.86 39.03 268.51 39.77 C 267.53 39.95 266.55 40.12 265.58 40.30 C 264.52 40.66 263.47 41.02 262.42 41.37 C 261.48 41.81 260.55 42.26 259.63 42.70 C 252.66 45.14 246.18 48.83 240.42 53.44 C 239.00 55.44 237.50 57.37 236.13 59.39 C 236.22 60.02 236.41 61.26 236.50 61.89 L 234.96 61.99 C 235.98 63.74 236.97 65.52 237.99 67.27 C 238.15 67.39 238.46 67.64 238.62 67.76 C 241.32 70.95 245.53 72.37 249.47 73.36 C 251.54 73.75 253.62 74.14 255.64 74.75 C 259.20 74.96 262.78 74.97 266.34 74.75 C 268.89 73.70 271.70 73.96 274.38 73.72 C 276.42 73.17 278.49 72.72 280.57 72.30 C 282.34 71.96 284.34 72.00 285.77 70.69 C 286.32 70.57 287.43 70.31 287.98 70.18 C 288.03 70.16 288.13 70.12 288.18 70.10 C 288.62 69.86 289.50 69.38 289.94 69.14 L 288.85 69.44 C 288.17 67.88 287.65 67.93 287.28 69.61 C 286.77 69.61 285.75 69.60 285.24 69.60 C 281.06 68.30 276.60 69.69 272.41 68.45 C 270.02 68.04 267.66 67.50 265.33 66.84 C 262.32 65.11 260.29 62.39 258.74 59.35 C 258.31 52.74 264.05 48.38 268.27 44.21 C 271.07 42.92 273.99 41.75 276.41 39.78 L 276.95 39.52 L 277.74 40.04 L 278.75 39.64 L 278.92 38.74 L 280.13 38.40 C 281.62 39.48 282.53 39.18 282.85 37.48 L 283.50 37.53 C 284.90 37.89 287.68 36.80 287.65 35.21 C 286.32 34.65 284.67 35.31 283.71 36.28 Z" />
<path fill="#ffffff" opacity="1.00" d=" M 358.24 26.48 L 359.35 26.63 C 359.31 29.45 359.27 32.27 359.28 35.08 C 359.29 37.05 359.22 39.02 359.15 40.99 C 359.22 44.65 359.72 48.40 358.79 51.99 C 358.67 54.33 358.56 56.71 359.25 58.98 C 359.27 60.67 359.28 62.37 359.26 64.07 C 357.84 67.65 359.64 71.41 358.93 75.04 C 359.09 75.90 359.42 77.62 359.59 78.48 C 357.06 78.85 354.52 79.27 351.96 79.23 C 315.97 79.24 279.98 79.30 243.99 79.33 C 240.26 79.30 236.52 79.50 232.80 79.14 C 237.31 77.32 242.27 78.30 246.99 78.10 C 284.08 78.01 321.18 78.40 358.26 78.01 C 358.00 60.83 358.31 43.66 358.24 26.48 Z" />
<path fill="#be515a" opacity="0.76" d=" M 370.08 27.55 C 370.69 26.24 372.36 26.76 373.11 27.64 C 372.35 27.62 370.84 27.57 370.08 27.55 Z" />
<path fill="#acacac" opacity="1.00" d=" M 55.64 28.64 C 56.40 30.30 56.45 32.16 56.45 33.97 C 56.32 46.31 56.36 58.66 56.43 71.01 C 56.47 73.55 55.96 76.05 55.32 78.49 C 67.88 78.19 80.45 78.52 93.01 78.30 C 96.00 78.18 98.97 78.64 101.81 79.59 C 101.69 76.14 101.69 72.69 101.78 69.24 L 100.17 69.65 C 100.22 69.15 100.32 68.14 100.37 67.63 C 100.97 67.61 102.17 67.57 102.77 67.55 C 102.60 72.22 102.60 76.90 102.78 81.57 C 102.32 81.55 101.40 81.51 100.95 81.49 C 100.16 80.47 99.52 78.98 97.95 79.31 C 83.23 79.19 68.50 79.43 53.79 79.21 C 51.81 77.82 54.49 76.98 55.44 76.06 C 55.47 60.25 55.09 44.43 55.64 28.64 Z" />
<path fill="#ffffff" opacity="1.00" d=" M 324.68 29.20 C 326.23 29.15 327.79 29.15 329.35 29.22 C 332.51 30.56 336.05 29.82 339.38 30.28 C 340.75 30.69 342.14 31.03 343.54 31.36 C 347.30 33.20 351.52 34.79 354.02 38.36 C 354.12 43.88 349.28 47.30 345.55 50.57 C 338.71 55.14 331.09 58.46 323.52 61.62 C 319.22 63.16 314.74 64.11 310.44 65.66 C 309.48 65.86 308.51 66.06 307.55 66.26 C 305.48 66.72 303.41 67.17 301.37 67.72 C 299.91 67.85 298.46 67.97 297.01 68.09 C 296.88 60.75 297.15 53.42 297.14 46.09 C 298.07 45.61 299.01 45.14 299.95 44.68 C 299.86 45.62 299.67 47.50 299.57 48.43 C 299.36 48.09 298.94 47.40 298.72 47.06 C 298.43 48.43 298.09 49.79 297.70 51.13 C 297.53 56.66 297.62 62.20 297.59 67.73 C 310.05 65.20 322.53 62.06 333.98 56.39 C 340.14 53.41 346.47 50.13 350.94 44.80 C 353.14 42.51 353.77 38.04 350.98 36.00 C 345.65 31.77 338.61 30.76 332.01 30.45 C 321.01 30.16 309.90 30.70 299.11 33.04 C 307.28 33.70 315.82 32.60 323.61 35.75 C 320.83 35.56 318.07 34.99 315.41 34.15 C 309.14 33.88 302.86 34.05 296.59 33.75 C 297.86 32.85 299.15 31.99 300.44 31.12 C 303.84 31.08 307.37 31.50 310.63 30.31 C 315.27 29.51 320.22 30.89 324.68 29.20 Z" />
<path fill="#000000" opacity="1.00" d=" M 299.11 33.04 C 309.90 30.70 321.01 30.16 332.01 30.45 C 338.61 30.76 345.65 31.77 350.98 36.00 C 353.77 38.04 353.14 42.51 350.94 44.80 C 346.47 50.13 340.14 53.41 333.98 56.39 C 322.53 62.06 310.05 65.20 297.59 67.73 C 297.62 62.20 297.53 56.66 297.70 51.13 C 298.09 49.79 298.43 48.43 298.72 47.06 C 298.94 47.40 299.36 48.09 299.57 48.43 C 299.61 48.78 299.67 49.46 299.70 49.80 C 299.59 54.34 301.05 58.96 300.92 63.60 C 310.09 63.31 319.20 59.61 326.35 53.89 C 326.44 53.81 326.63 53.65 326.72 53.57 C 329.72 51.32 332.19 47.88 331.74 43.93 C 331.89 39.46 327.36 37.06 323.72 35.79 L 323.61 35.75 C 315.82 32.60 307.28 33.70 299.11 33.04 Z" />
<path fill="#d1d1d1" opacity="1.00" d=" M 283.71 36.28 C 284.67 35.31 286.32 34.65 287.65 35.21 C 287.68 36.80 284.90 37.89 283.50 37.53 C 283.55 37.22 283.66 36.60 283.71 36.28 Z" />
<path fill="#cecece" opacity="1.00" d=" M 280.48 36.35 L 281.55 36.08 L 282.30 36.71 C 281.78 36.84 280.74 37.10 280.22 37.23 L 280.48 36.35 Z" />
<path fill="#000000" opacity="1.00" d=" M 282.30 36.71 C 282.65 36.60 283.35 36.39 283.71 36.28 C 283.66 36.60 283.55 37.22 283.50 37.53 L 282.85 37.48 C 281.82 37.36 280.92 37.67 280.13 38.40 L 278.92 38.74 C 278.43 38.93 277.45 39.32 276.95 39.52 L 276.41 39.78 C 269.13 42.54 261.87 47.02 258.48 54.33 C 256.24 58.30 259.04 62.91 262.26 65.38 C 268.80 70.26 277.48 70.06 285.24 69.60 C 285.75 69.60 286.77 69.61 287.28 69.61 C 287.67 69.57 288.46 69.48 288.85 69.44 L 289.94 69.14 C 289.50 69.38 288.62 69.86 288.18 70.10 L 288.10 70.14 L 287.98 70.18 C 287.43 70.31 286.32 70.57 285.77 70.69 C 277.63 72.37 269.40 73.93 261.05 73.75 C 253.23 73.93 244.94 72.74 238.62 67.76 C 238.46 67.64 238.15 67.39 237.99 67.27 C 237.09 64.55 236.87 61.63 237.44 58.82 C 238.80 55.55 241.61 53.16 244.41 51.12 C 253.76 44.55 264.88 41.33 275.72 38.19 L 276.08 38.13 C 276.58 37.95 277.56 37.57 278.06 37.38 C 278.60 37.35 279.68 37.27 280.22 37.23 C 280.74 37.10 281.78 36.84 282.30 36.71 Z" />
<path fill="#ffffff" opacity="1.00" d=" M 323.72 35.79 C 327.36 37.06 331.89 39.46 331.74 43.93 C 332.19 47.88 329.72 51.32 326.72 53.57 C 327.63 52.16 328.72 50.87 329.85 49.64 C 330.54 47.06 331.84 44.14 330.45 41.57 C 329.35 38.55 325.97 37.71 323.72 35.79 Z" />
<path fill="#1c1c1c" opacity="1.00" d=" M 0.00 38.20 C 0.54 37.87 1.63 37.21 2.17 36.88 C 1.34 40.39 1.57 44.03 2.28 47.53 C 1.51 46.52 0.75 45.51 0.00 44.49 L 0.00 38.20 Z" />
<path fill="#c7c7c7" opacity="1.00" d=" M 276.27 37.24 L 277.29 36.85 L 278.06 37.38 C 277.56 37.57 276.58 37.95 276.08 38.13 L 276.27 37.24 Z" />
<path fill="#ffffff" opacity="1.00" d=" M 268.51 39.77 C 270.86 39.03 273.25 38.35 275.72 38.19 C 264.88 41.33 253.76 44.55 244.41 51.12 C 241.61 53.16 238.80 55.55 237.44 58.82 C 236.87 61.63 237.09 64.55 237.99 67.27 C 236.97 65.52 235.98 63.74 234.96 61.99 L 236.50 61.89 C 236.41 61.26 236.22 60.02 236.13 59.39 C 237.50 57.37 239.00 55.44 240.42 53.44 C 246.18 48.83 252.66 45.14 259.63 42.70 C 260.55 42.26 261.48 41.81 262.42 41.37 C 263.47 41.02 264.52 40.66 265.58 40.30 C 266.55 40.12 267.53 39.95 268.51 39.77 Z" />
<path fill="#cacaca" opacity="1.00" d=" M 280.13 38.40 C 280.92 37.67 281.82 37.36 282.85 37.48 C 282.53 39.18 281.62 39.48 280.13 38.40 Z" />
<path fill="#b9b9b9" opacity="1.00" d=" M 276.95 39.52 C 277.45 39.32 278.43 38.93 278.92 38.74 L 278.75 39.64 L 277.74 40.04 L 276.95 39.52 Z" />
<path fill="#000000" opacity="1.00" d=" M 188.75 40.34 C 189.62 40.32 190.49 40.31 191.36 40.29 C 191.43 41.01 191.56 42.45 191.63 43.17 C 192.18 44.37 192.72 45.59 193.26 46.80 C 194.46 50.39 196.03 53.84 197.31 57.41 C 192.28 57.45 187.25 57.46 182.22 57.40 C 182.72 56.20 183.23 55.00 183.74 53.81 C 184.14 52.85 184.53 51.89 184.90 50.92 C 185.68 49.00 186.43 47.05 187.29 45.16 C 187.78 43.55 188.30 41.96 188.75 40.34 Z" />
<path fill="#ffffff" opacity="1.00" d=" M 258.48 54.33 C 261.87 47.02 269.13 42.54 276.41 39.78 C 273.99 41.75 271.07 42.92 268.27 44.21 C 264.05 48.38 258.31 52.74 258.74 59.35 C 260.29 62.39 262.32 65.11 265.33 66.84 C 267.66 67.50 270.02 68.04 272.41 68.45 C 276.60 69.69 281.06 68.30 285.24 69.60 C 277.48 70.06 268.80 70.26 262.26 65.38 C 259.04 62.91 256.24 58.30 258.48 54.33 Z" />
<path fill="#000000" opacity="1.00" d=" M 0.00 44.49 C 0.75 45.51 1.51 46.52 2.28 47.53 C 4.57 51.26 8.10 54.17 12.21 55.68 C 19.57 58.18 27.61 56.58 34.97 59.00 C 36.56 59.71 38.86 60.84 38.65 62.90 C 39.22 67.01 34.85 69.47 31.43 70.25 C 23.99 71.53 15.90 70.51 9.40 66.51 C 7.21 65.32 6.82 62.70 5.93 60.61 C 3.46 64.66 1.53 69.02 0.00 73.51 L 0.00 44.49 Z" />
<path fill="#969696" opacity="1.00" d=" M 87.37 47.31 C 88.16 46.14 88.84 43.72 90.73 44.95 C 90.89 49.42 90.73 53.90 90.75 58.37 C 89.42 57.82 88.20 57.08 87.09 56.16 C 80.45 56.09 73.81 56.17 67.17 56.09 C 67.18 60.83 67.73 65.64 66.73 70.32 C 64.91 65.83 66.01 60.65 66.08 55.91 C 68.31 55.28 70.66 55.36 72.96 55.35 C 78.54 55.47 84.17 55.00 89.68 56.12 C 89.64 53.15 89.64 50.18 89.69 47.21 L 88.50 47.27 L 87.37 47.31 Z" />
<path fill="#ffffff" opacity="1.00" d=" M 299.70 49.80 C 302.24 51.74 299.89 56.03 301.75 58.70 C 301.75 60.15 301.72 61.61 301.70 63.07 C 302.92 62.98 304.15 62.90 305.39 62.81 C 306.75 62.42 308.13 62.07 309.51 61.72 C 310.84 61.27 312.18 60.86 313.51 60.42 C 318.17 59.02 322.08 56.09 326.35 53.89 C 319.20 59.61 310.09 63.31 300.92 63.60 C 301.05 58.96 299.59 54.34 299.70 49.80 Z" />
<path fill="#ffffff" opacity="1.00" d=" M 238.62 67.76 C 244.94 72.74 253.23 73.93 261.05 73.75 C 269.40 73.93 277.63 72.37 285.77 70.69 C 284.34 72.00 282.34 71.96 280.57 72.30 C 278.49 72.72 276.42 73.17 274.38 73.72 C 271.70 73.96 268.89 73.70 266.34 74.75 C 262.78 74.97 259.20 74.96 255.64 74.75 C 253.62 74.14 251.54 73.75 249.47 73.36 C 245.53 72.37 241.32 70.95 238.62 67.76 Z" />
<path fill="#eaeaea" opacity="1.00" d=" M 287.28 69.61 C 287.65 67.93 288.17 67.88 288.85 69.44 C 288.46 69.48 287.67 69.57 287.28 69.61 Z" />
<path fill="#e0e0e0" opacity="1.00" d=" M 288.10 70.14 L 288.18 70.10 C 288.13 70.12 288.03 70.16 287.98 70.18 L 288.10 70.14 Z" />
<path fill="#1c1c1c" opacity="1.00" d=" M 42.66 84.89 C 49.39 83.78 56.21 84.34 62.99 84.25 C 79.00 84.17 95.01 84.50 111.01 84.02 C 132.35 83.97 153.70 84.27 175.04 83.89 C 237.36 83.94 299.68 83.56 362.00 83.81 L 362.00 85.00 C 255.55 84.95 149.10 85.11 42.66 84.89 Z" />
</svg>
