<?xml version="1.0" encoding="UTF-8" ?>
<!DOCTYPE svg PUBLIC "-//W3C//DTD SVG 1.1//EN" "http://www.w3.org/Graphics/SVG/1.1/DTD/svg11.dtd">
<svg width="710pt" height="177pt" viewBox="0 0 710 177" version="1.1" xmlns="http://www.w3.org/2000/svg">
<path fill="#a92731" opacity="0.79" d=" M 654.75 11.69 C 659.98 6.21 667.47 3.27 674.96 2.97 C 680.68 3.64 686.35 5.46 690.96 9.00 C 690.65 9.44 690.02 10.31 689.71 10.74 C 686.93 8.56 683.72 6.93 680.31 5.99 C 676.87 4.83 673.18 4.74 669.69 5.68 C 664.07 6.74 659.07 9.89 655.33 14.16 C 654.85 12.84 654.40 11.53 653.91 10.22 C 654.12 10.59 654.54 11.33 654.75 11.69 Z" />
<path fill="#8a7e79" opacity="0.87" d=" M 643.00 6.99 C 644.27 5.68 646.02 5.16 647.73 4.66 C 649.04 5.46 650.39 6.19 651.77 6.90 C 650.61 6.96 649.46 7.07 648.32 7.22 C 648.12 8.64 650.17 8.19 651.03 8.72 C 649.61 8.64 648.20 8.57 646.80 8.52 C 646.06 9.67 645.31 10.82 644.57 11.96 C 645.92 12.22 647.31 12.48 648.68 12.76 L 649.52 13.46 C 649.32 14.13 648.94 15.46 648.74 16.13 C 647.21 16.20 646.25 14.64 645.01 13.96 C 644.44 15.21 643.90 16.48 643.40 17.75 C 641.08 16.15 643.49 14.48 644.48 12.92 C 644.49 12.29 644.50 11.03 644.51 10.40 C 645.40 9.37 646.71 8.54 647.01 7.12 C 645.81 6.67 644.47 6.62 643.00 6.99 Z" />
<path fill="#3e0207" opacity="0.56" d=" M 669.69 5.68 C 673.18 4.74 676.87 4.83 680.31 5.99 C 676.77 5.76 673.23 5.67 669.69 5.68 Z" />
<path fill="#e5e5e5" opacity="1.00" d=" M 643.00 6.99 C 644.47 6.62 645.81 6.67 647.01 7.12 C 646.71 8.54 645.40 9.37 644.51 10.40 C 644.50 11.03 644.49 12.29 644.48 12.92 C 643.49 14.48 641.08 16.15 643.40 17.75 C 643.88 18.00 644.85 18.49 645.34 18.74 C 643.83 18.43 642.31 18.12 640.82 17.78 L 640.19 17.63 L 640.07 17.05 C 638.86 13.83 639.97 10.49 641.78 7.76 C 642.09 7.57 642.70 7.19 643.00 6.99 Z" />
<path fill="#e8c6b4" opacity="0.97" d=" M 648.32 7.22 C 649.46 7.07 650.61 6.96 651.77 6.90 C 652.17 7.39 652.97 8.39 653.38 8.88 C 652.87 9.84 652.38 10.80 651.90 11.76 C 650.82 12.09 649.75 12.42 648.68 12.76 C 647.31 12.48 645.92 12.22 644.57 11.96 C 645.31 10.82 646.06 9.67 646.80 8.52 C 648.20 8.57 649.61 8.64 651.03 8.72 C 650.17 8.19 648.12 8.64 648.32 7.22 Z" />
<path fill="#774520" opacity="1.00" d=" M 690.96 9.00 C 692.55 6.10 696.26 6.62 699.04 6.64 C 700.94 6.82 704.13 6.75 704.20 9.39 C 703.45 10.99 702.61 12.54 701.77 14.09 L 700.85 13.75 C 699.51 13.28 698.15 12.83 696.82 12.38 C 695.65 11.99 694.52 11.58 693.38 11.18 C 693.07 11.92 692.45 13.42 692.14 14.17 C 691.68 13.80 690.76 13.06 690.31 12.69 L 690.09 12.47 C 690.00 12.04 689.81 11.17 689.71 10.74 C 690.02 10.31 690.65 9.44 690.96 9.00 Z" />
<path fill="#575757" opacity="0.76" d=" M 640.07 17.05 C 636.60 14.72 639.04 9.75 641.78 7.76 C 639.97 10.49 638.86 13.83 640.07 17.05 Z" />
<path fill="#44ff50" opacity="1.00" d=" M 657.80 13.33 C 661.42 9.42 666.62 7.64 671.78 6.94 C 671.74 7.96 671.67 9.98 671.63 11.00 C 668.04 11.44 664.43 12.60 661.78 15.17 C 660.45 14.55 659.12 13.94 657.80 13.33 Z" />
<path fill="#3dff4a" opacity="1.00" d=" M 675.40 6.94 C 680.75 7.19 686.01 8.93 690.09 12.47 L 690.31 12.69 C 691.09 16.14 693.59 19.27 693.69 22.76 C 692.26 24.46 690.88 22.21 690.03 21.09 C 689.20 19.30 688.32 17.52 687.27 15.85 C 684.69 12.03 679.83 10.66 675.44 10.76 C 675.43 9.80 675.41 7.89 675.40 6.94 Z" />
<path fill="#ab9d98" opacity="0.94" d=" M 653.38 8.88 C 653.51 9.22 653.77 9.89 653.91 10.22 C 654.40 11.53 654.85 12.84 655.33 14.16 C 654.60 14.91 653.88 15.68 653.19 16.46 L 652.71 15.21 C 652.70 14.51 652.69 13.11 652.68 12.41 C 652.33 12.96 651.62 14.05 651.27 14.60 C 650.83 14.31 649.96 13.75 649.52 13.46 L 648.68 12.76 C 649.75 12.42 650.82 12.09 651.90 11.76 C 652.38 10.80 652.87 9.84 653.38 8.88 Z" />
<path fill="#5a4534" opacity="0.87" d=" M 704.20 9.39 L 704.39 9.00 C 704.75 11.23 707.46 13.85 705.45 15.89 C 704.65 16.84 703.92 17.84 703.06 18.73 C 703.34 17.51 703.65 16.29 703.97 15.07 C 703.42 14.83 702.32 14.34 701.77 14.09 C 702.61 12.54 703.45 10.99 704.20 9.39 Z" />
<path fill="#774520" opacity="1.00" d=" M 675.44 10.76 C 679.83 10.66 684.69 12.03 687.27 15.85 C 683.79 13.17 679.70 11.64 675.44 10.76 Z" />
<path fill="#ebd5c1" opacity="0.98" d=" M 693.38 11.18 C 694.52 11.58 695.65 11.99 696.82 12.38 C 697.06 12.47 697.54 12.63 697.78 12.72 C 697.59 14.09 697.35 15.45 697.05 16.80 C 698.21 16.84 699.37 16.89 700.55 16.93 C 700.46 15.98 700.41 15.04 700.37 14.09 L 700.85 13.75 L 701.77 14.09 C 702.32 14.34 703.42 14.83 703.97 15.07 C 703.65 16.29 703.34 17.51 703.06 18.73 C 702.94 18.97 702.69 19.45 702.56 19.68 C 700.66 21.53 697.95 22.87 695.28 21.93 C 694.40 21.02 693.65 19.99 692.89 18.99 C 692.97 18.25 693.12 16.77 693.20 16.03 C 693.83 16.83 694.48 17.62 695.13 18.41 C 695.08 17.46 694.98 15.56 694.94 14.61 C 694.19 14.70 692.70 14.87 691.95 14.96 C 692.00 14.76 692.09 14.37 692.14 14.17 C 692.45 13.42 693.07 11.92 693.38 11.18 M 696.30 19.48 C 695.16 21.88 700.38 21.10 699.55 19.10 C 698.38 18.49 697.30 18.62 696.30 19.48 Z" />
<path fill="#8a7a72" opacity="0.95" d=" M 696.82 12.38 C 698.15 12.83 699.51 13.28 700.85 13.75 L 700.37 14.09 C 700.41 15.04 700.46 15.98 700.55 16.93 C 699.37 16.89 698.21 16.84 697.05 16.80 C 697.35 15.45 697.59 14.09 697.78 12.72 C 697.54 12.63 697.06 12.47 696.82 12.38 Z" />
<path fill="#774520" opacity="1.00" d=" M 651.27 14.60 C 651.62 14.05 652.33 12.96 652.68 12.41 C 652.69 13.11 652.70 14.51 652.71 15.21 C 651.74 15.75 651.65 16.46 652.45 17.33 L 652.64 18.28 C 652.60 19.58 652.49 20.88 652.40 22.17 C 651.93 22.22 651.00 22.32 650.53 22.37 C 650.29 22.01 649.79 21.29 649.55 20.94 C 649.49 20.86 649.39 20.71 649.34 20.63 L 649.30 20.86 C 648.93 20.77 648.20 20.57 647.83 20.48 C 647.54 20.15 646.96 19.50 646.67 19.17 C 648.40 19.29 650.13 19.38 651.87 19.44 L 651.91 17.09 C 651.26 17.28 649.96 17.64 649.31 17.83 C 649.94 16.74 650.61 15.67 651.27 14.60 Z" />
<path fill="#515f40" opacity="0.92" d=" M 690.31 12.69 C 690.76 13.06 691.68 13.80 692.14 14.17 C 692.09 14.37 692.00 14.76 691.95 14.96 C 692.70 14.87 694.19 14.70 694.94 14.61 C 694.98 15.56 695.08 17.46 695.13 18.41 C 694.48 17.62 693.83 16.83 693.20 16.03 C 693.12 16.77 692.97 18.25 692.89 18.99 C 693.65 19.99 694.40 21.02 695.28 21.93 C 697.95 22.87 700.66 21.53 702.56 19.68 C 701.38 21.48 703.36 23.05 704.08 24.58 C 703.35 25.34 702.63 26.10 701.92 26.86 C 701.45 25.82 700.99 24.78 700.52 23.75 C 700.04 24.89 699.58 26.03 699.12 27.17 C 698.59 26.66 698.05 26.16 697.50 25.68 L 696.65 25.47 C 696.79 24.76 697.08 23.36 697.22 22.66 C 695.22 23.39 693.18 24.01 691.10 24.39 C 690.96 24.11 690.69 23.55 690.55 23.28 C 690.42 22.73 690.16 21.64 690.03 21.09 C 690.88 22.21 692.26 24.46 693.69 22.76 C 693.59 19.27 691.09 16.14 690.31 12.69 Z" />
<path fill="#efcdb9" opacity="0.98" d=" M 645.01 13.96 C 646.25 14.64 647.21 16.20 648.74 16.13 C 648.94 15.46 649.32 14.13 649.52 13.46 C 649.96 13.75 650.83 14.31 651.27 14.60 C 650.61 15.67 649.94 16.74 649.31 17.83 C 649.96 17.64 651.26 17.28 651.91 17.09 L 651.87 19.44 C 650.13 19.38 648.40 19.29 646.67 19.17 C 646.34 19.06 645.67 18.85 645.34 18.74 C 644.85 18.49 643.88 18.00 643.40 17.75 C 643.90 16.48 644.44 15.21 645.01 13.96 Z" />
<path fill="#5afe61" opacity="1.00" d=" M 653.19 24.40 C 653.45 20.29 655.16 16.46 657.80 13.33 C 659.12 13.94 660.45 14.55 661.78 15.17 L 660.78 16.04 C 659.36 16.94 659.36 17.58 660.76 17.96 C 662.24 18.06 663.73 18.13 665.23 18.19 C 665.24 19.42 665.27 20.64 665.32 21.87 C 663.18 22.40 661.05 22.99 659.01 23.82 C 659.11 22.86 659.32 20.93 659.43 19.97 C 658.83 21.37 658.22 22.77 657.59 24.15 C 657.25 24.17 656.56 24.23 656.22 24.26 C 655.46 24.29 653.95 24.37 653.19 24.40 Z" />
<path fill="#f2d7c4" opacity="0.98" d=" M 652.45 17.33 C 651.65 16.46 651.74 15.75 652.71 15.21 L 653.19 16.46 L 652.45 17.33 Z" />
<path fill="#173f19" opacity="0.59" d=" M 660.76 17.96 C 659.36 17.58 659.36 16.94 660.78 16.04 C 660.78 16.52 660.77 17.48 660.76 17.96 Z" />
<path fill="#322014" opacity="0.75" d=" M 703.06 18.73 C 703.92 17.84 704.65 16.84 705.45 15.89 C 706.89 17.48 704.42 21.58 702.56 19.68 C 702.69 19.45 702.94 18.97 703.06 18.73 Z" />
<path fill="#2a2625" opacity="0.50" d=" M 640.82 17.78 C 642.31 18.12 643.83 18.43 645.34 18.74 C 645.67 18.85 646.34 19.06 646.67 19.17 C 646.96 19.50 647.54 20.15 647.83 20.48 L 646.83 20.34 C 644.78 19.80 641.90 19.93 640.82 17.78 Z" />
<path fill="#4aff55" opacity="1.00" d=" M 674.37 18.60 C 674.57 18.35 674.98 17.85 675.19 17.60 C 679.56 17.53 683.94 17.85 688.32 17.90 C 688.36 18.44 688.44 19.52 688.48 20.06 C 688.09 21.35 687.65 22.63 687.15 23.89 C 686.81 24.16 686.12 24.70 685.77 24.98 C 685.03 25.56 684.30 26.13 683.57 26.70 C 680.99 27.89 684.49 30.42 685.26 27.87 C 686.37 27.54 687.48 27.21 688.61 26.89 C 688.72 28.50 688.82 30.11 688.90 31.72 C 689.71 29.74 690.89 27.94 691.86 26.03 C 693.01 26.16 694.18 26.28 695.36 26.39 C 695.20 27.94 695.05 29.50 694.91 31.05 C 693.56 31.35 692.21 31.67 690.90 32.01 L 690.57 32.09 C 691.09 33.61 691.74 35.08 692.28 36.59 L 691.91 37.50 C 691.28 37.45 690.02 37.34 689.39 37.29 C 689.54 37.82 689.84 38.89 689.99 39.42 C 688.56 40.11 687.25 40.99 686.02 41.96 C 685.23 41.26 684.45 40.56 683.67 39.85 C 683.67 39.33 683.65 38.29 683.65 37.77 L 684.95 38.61 C 685.23 39.86 685.98 40.38 687.20 40.17 C 689.69 39.46 687.20 36.95 685.60 37.90 C 685.53 37.44 685.38 36.52 685.31 36.06 C 686.41 36.16 688.62 36.36 689.73 36.46 C 689.95 34.83 689.58 33.39 688.63 32.14 L 687.80 31.61 C 686.59 31.59 685.56 32.01 684.73 32.87 L 684.57 33.02 C 683.47 29.80 679.79 30.91 677.21 30.60 C 677.13 31.28 676.98 32.65 676.90 33.34 C 676.13 33.16 674.58 32.82 673.80 32.65 C 673.71 32.30 673.51 31.59 673.41 31.23 C 674.36 28.34 676.15 25.87 678.08 23.56 C 676.57 23.52 675.06 23.48 673.56 23.44 C 673.81 21.82 674.08 20.21 674.37 18.60 M 682.96 22.11 C 682.43 23.73 682.99 24.29 684.64 23.79 C 685.15 22.17 684.59 21.61 682.96 22.11 M 680.30 25.71 L 680.78 25.66 C 682.59 25.96 682.69 23.26 680.95 23.18 C 679.21 22.57 678.43 25.58 680.30 25.71 Z" />
<path fill="#fdfefd" opacity="1.00" d=" M 665.32 21.87 C 665.54 20.75 665.68 19.61 665.84 18.48 C 668.67 18.70 671.53 18.79 674.37 18.60 C 674.08 20.21 673.81 21.82 673.56 23.44 C 675.06 23.48 676.57 23.52 678.08 23.56 C 676.15 25.87 674.36 28.34 673.41 31.23 C 673.18 31.33 672.73 31.51 672.51 31.61 C 672.24 30.12 671.99 28.62 671.76 27.13 C 671.72 26.71 671.63 25.87 671.59 25.45 C 670.30 24.76 668.82 26.05 669.12 27.42 C 665.74 28.00 662.24 29.37 659.06 27.26 C 659.28 28.13 659.73 29.86 659.95 30.72 C 659.59 30.72 658.89 30.72 658.53 30.72 C 658.29 29.55 658.03 28.38 657.77 27.22 C 657.36 27.21 656.54 27.19 656.13 27.18 C 656.15 26.45 656.20 24.99 656.22 24.26 C 656.56 24.23 657.25 24.17 657.59 24.15 C 658.22 22.77 658.83 21.37 659.43 19.97 C 659.32 20.93 659.11 22.86 659.01 23.82 C 661.05 22.99 663.18 22.40 665.32 21.87 M 659.76 24.95 L 659.60 26.23 C 660.93 26.46 662.67 26.33 662.71 28.25 C 664.10 27.35 665.51 26.48 666.87 25.53 C 665.84 24.69 664.81 23.85 663.73 23.11 C 662.24 23.11 661.12 24.49 659.76 24.95 Z" />
<path fill="#cebca9" opacity="0.96" d=" M 696.30 19.48 C 697.30 18.62 698.38 18.49 699.55 19.10 C 700.38 21.10 695.16 21.88 696.30 19.48 Z" />
<path fill="#1f2328" opacity="0.70" d=" M 649.34 20.63 C 649.39 20.71 649.49 20.86 649.55 20.94 L 649.30 20.86 L 649.34 20.63 Z" />
<path fill="#beb9ba" opacity="0.93" d=" M 688.48 20.06 C 688.87 20.32 689.64 20.83 690.03 21.09 C 690.16 21.64 690.42 22.73 690.55 23.28 C 690.69 23.55 690.96 24.11 691.10 24.39 C 691.29 24.80 691.67 25.62 691.86 26.03 C 690.89 27.94 689.71 29.74 688.90 31.72 C 688.82 30.11 688.72 28.50 688.61 26.89 C 687.48 27.21 686.37 27.54 685.26 27.87 C 684.84 27.57 683.99 26.99 683.57 26.70 C 684.30 26.13 685.03 25.56 685.77 24.98 C 686.47 27.93 690.05 24.98 687.15 23.89 C 687.65 22.63 688.09 21.35 688.48 20.06 Z" />
<path fill="#e5e5e5" opacity="1.00" d=" M 644.99 22.64 C 645.45 22.06 646.37 20.91 646.83 20.34 L 647.83 20.48 C 648.20 20.57 648.93 20.77 649.30 20.86 L 649.55 20.94 C 649.79 21.29 650.29 22.01 650.53 22.37 C 648.86 22.78 647.20 23.23 645.57 23.73 C 645.42 23.45 645.13 22.91 644.99 22.64 Z" />
<path fill="#403934" opacity="0.80" d=" M 644.66 22.04 L 644.99 22.64 C 645.13 22.91 645.42 23.45 645.57 23.73 C 647.20 23.23 648.86 22.78 650.53 22.37 C 651.00 22.32 651.93 22.22 652.40 22.17 C 652.09 23.34 651.75 24.51 651.39 25.66 C 650.98 25.84 650.17 26.19 649.77 26.37 C 648.67 25.53 647.59 24.67 646.53 23.80 C 646.83 24.64 647.45 26.32 647.76 27.16 C 647.38 27.45 646.61 28.04 646.23 28.33 C 644.57 27.96 645.86 26.27 645.76 25.24 C 644.52 24.55 644.60 23.25 644.66 22.04 Z" />
<path fill="#4179cf" opacity="0.96" d=" M 682.96 22.11 C 684.59 21.61 685.15 22.17 684.64 23.79 C 682.99 24.29 682.43 23.73 682.96 22.11 Z" />
<path fill="#666e76" opacity="0.98" d=" M 659.76 24.95 C 661.12 24.49 662.24 23.11 663.73 23.11 C 664.81 23.85 665.84 24.69 666.87 25.53 C 665.51 26.48 664.10 27.35 662.71 28.25 C 662.67 26.33 660.93 26.46 659.60 26.23 L 659.76 24.95 Z" />
<path fill="#e5e5e5" opacity="1.00" d=" M 680.30 25.71 C 678.43 25.58 679.21 22.57 680.95 23.18 C 682.69 23.26 682.59 25.96 680.78 25.66 C 680.66 25.68 680.42 25.70 680.30 25.71 Z" />
<path fill="#e5e5e5" opacity="1.00" d=" M 646.53 23.80 C 647.59 24.67 648.67 25.53 649.77 26.37 L 649.72 27.27 C 649.53 28.39 649.38 29.53 649.25 30.66 L 648.50 30.73 C 648.40 30.03 648.20 28.65 648.10 27.96 C 647.23 29.15 646.36 30.35 645.50 31.55 C 645.69 30.74 646.05 29.14 646.23 28.33 C 646.61 28.04 647.38 27.45 647.76 27.16 C 647.45 26.32 646.83 24.64 646.53 23.80 Z" />
<path fill="#e33f55" opacity="0.98" d=" M 685.77 24.98 C 686.12 24.70 686.81 24.16 687.15 23.89 C 690.05 24.98 686.47 27.93 685.77 24.98 Z" />
<path fill="#4d5c6b" opacity="0.89" d=" M 699.12 27.17 C 699.58 26.03 700.04 24.89 700.52 23.75 C 700.99 24.78 701.45 25.82 701.92 26.86 C 702.60 28.25 702.91 29.77 703.11 31.30 C 702.79 31.73 702.14 32.58 701.82 33.01 L 701.10 32.61 C 698.40 31.77 697.73 29.52 698.41 26.75 C 698.92 28.08 699.95 30.75 700.46 32.08 C 701.97 30.23 700.49 28.48 699.12 27.17 Z" />
<path fill="#c94b53" opacity="1.00" d=" M 649.77 26.37 C 650.17 26.19 650.98 25.84 651.39 25.66 C 651.15 26.07 650.68 26.89 650.44 27.30 L 649.72 27.27 L 649.77 26.37 Z" />
<path fill="#2c9450" opacity="1.00" d=" M 680.30 25.71 C 680.42 25.70 680.66 25.68 680.78 25.66 L 680.30 25.71 Z" />
<path fill="#908978" opacity="1.00" d=" M 696.65 25.47 L 697.50 25.68 C 697.58 26.09 697.73 26.91 697.81 27.32 C 697.48 27.06 696.82 26.54 696.49 26.28 L 696.65 25.47 Z" />
<path fill="#ffff26" opacity="1.00" d=" M 649.72 27.27 L 650.44 27.30 C 650.74 27.37 651.35 27.51 651.65 27.58 C 651.61 28.30 651.52 29.72 651.47 30.44 C 650.92 30.49 649.80 30.61 649.25 30.66 C 649.38 29.53 649.53 28.39 649.72 27.27 Z" />
<path fill="#63d166" opacity="0.94" d=" M 653.91 27.37 C 654.46 27.32 655.57 27.23 656.13 27.18 C 656.54 27.19 657.36 27.21 657.77 27.22 C 658.03 28.38 658.29 29.55 658.53 30.72 C 657.66 30.80 655.92 30.95 655.04 31.03 C 655.01 30.28 654.93 28.78 654.89 28.03 L 653.91 27.37 Z" />
<path fill="#68ff72" opacity="1.00" d=" M 669.12 27.42 C 669.78 27.35 671.10 27.20 671.76 27.13 C 671.99 28.62 672.24 30.12 672.51 31.61 C 671.75 31.77 670.24 32.10 669.48 32.27 L 668.67 32.30 C 668.42 32.28 667.92 32.23 667.67 32.21 C 665.58 31.88 663.49 32.09 661.44 32.49 C 661.07 32.05 660.32 31.16 659.95 30.72 C 659.73 29.86 659.28 28.13 659.06 27.26 C 662.24 29.37 665.74 28.00 669.12 27.42 Z" />
<path fill="#f7c61f" opacity="0.98" d=" M 685.26 27.87 C 684.49 30.42 680.99 27.89 683.57 26.70 C 683.99 26.99 684.84 27.57 685.26 27.87 Z" />
<path fill="#5f542e" opacity="0.94" d=" M 651.65 27.58 C 652.22 27.53 653.35 27.42 653.91 27.37 L 654.89 28.03 C 654.93 28.78 655.01 30.28 655.04 31.03 L 654.15 31.19 C 653.57 31.32 652.43 31.57 651.86 31.70 L 651.69 31.74 C 649.44 32.07 647.18 32.25 644.93 32.38 L 645.50 31.55 C 646.36 30.35 647.23 29.15 648.10 27.96 C 648.20 28.65 648.40 30.03 648.50 30.73 L 649.25 30.66 C 649.80 30.61 650.92 30.49 651.47 30.44 C 651.52 29.72 651.61 28.30 651.65 27.58 Z" />
<path fill="#a31518" opacity="0.91" d=" M 694.74 36.11 C 695.89 32.97 696.66 29.65 698.41 26.75 C 697.73 29.52 698.40 31.77 701.10 32.61 C 700.83 33.99 700.54 35.37 700.23 36.74 C 698.89 35.60 697.25 34.42 698.63 32.55 C 697.56 33.76 697.61 36.48 695.64 36.43 L 694.74 36.11 Z" />
<path fill="#ab3716" opacity="0.93" d=" M 677.21 30.60 C 679.79 30.91 683.47 29.80 684.57 33.02 C 684.24 33.31 683.57 33.90 683.24 34.19 C 683.32 35.09 683.39 35.98 683.48 36.88 C 682.22 35.89 680.97 34.90 679.73 33.91 C 680.35 33.55 681.58 32.83 682.20 32.47 C 681.55 32.41 680.24 32.30 679.58 32.25 C 678.99 33.66 679.81 37.09 677.34 36.09 C 677.23 35.40 677.01 34.03 676.90 33.34 C 676.98 32.65 677.13 31.28 677.21 30.60 Z" />
<path fill="#ffffff" opacity="1.00" d=" M 11.24 42.12 C 17.64 33.74 28.84 30.86 38.94 30.98 C 48.12 30.67 57.75 32.21 65.48 37.46 C 68.76 39.58 71.47 42.71 72.63 46.48 C 74.97 53.91 74.45 61.81 74.51 69.49 C 64.92 69.50 55.33 69.53 45.74 69.48 C 45.70 64.35 45.93 59.14 45.04 54.07 C 44.21 50.03 37.79 50.35 36.48 53.97 C 34.93 57.75 35.30 62.05 35.93 66.00 C 36.57 70.10 40.20 72.64 43.42 74.76 C 52.34 80.22 61.50 85.58 69.02 92.95 C 76.47 100.54 77.10 111.99 77.01 122.02 C 77.03 130.28 76.73 140.03 69.97 145.88 C 59.83 154.51 45.49 155.76 32.80 153.78 C 23.79 152.04 14.09 147.45 10.31 138.55 C 6.71 129.31 7.62 119.21 7.49 109.52 C 17.08 109.49 26.67 109.47 36.26 109.53 C 36.36 116.66 35.86 123.86 36.97 130.93 C 37.72 135.15 44.15 135.44 46.10 132.03 C 47.91 129.01 47.48 125.36 47.51 122.00 C 47.37 117.68 46.89 112.67 43.20 109.81 C 34.75 102.75 24.86 97.64 16.36 90.64 C 9.13 84.75 6.31 75.01 6.47 65.98 C 6.44 57.90 6.37 48.99 11.24 42.12 Z" />
<path fill="#8e0000" opacity="0.66" d=" M 639.88 35.94 C 639.90 34.37 638.67 30.96 641.13 30.95 C 640.81 32.27 640.92 33.53 641.46 34.74 C 642.49 34.98 643.54 35.07 644.62 35.01 C 644.64 37.46 641.24 36.74 639.88 35.94 Z" />
<path fill="#6b0000" opacity="0.55" d=" M 641.13 30.95 C 641.87 31.54 642.46 32.36 642.90 33.40 C 643.78 33.77 644.35 34.31 644.62 35.01 C 643.54 35.07 642.49 34.98 641.46 34.74 C 640.92 33.53 640.81 32.27 641.13 30.95 Z" />
<path fill="#b60e07" opacity="0.89" d=" M 654.15 31.19 L 655.04 31.03 C 655.92 30.95 657.66 30.80 658.53 30.72 C 658.89 30.72 659.59 30.72 659.95 30.72 C 660.32 31.16 661.07 32.05 661.44 32.49 C 663.49 32.09 665.58 31.88 667.67 32.21 C 667.66 33.36 667.67 34.51 667.59 35.66 C 665.84 36.72 663.67 36.14 661.76 36.28 C 661.79 35.47 661.85 33.85 661.88 33.04 L 661.34 33.02 C 661.25 33.67 661.07 34.97 660.98 35.63 L 659.69 36.23 C 659.05 36.24 657.77 36.24 657.13 36.24 C 656.43 36.30 655.03 36.42 654.32 36.48 C 654.26 34.72 654.21 32.95 654.15 31.19 M 656.43 32.20 C 656.64 33.50 657.38 33.72 658.66 32.87 C 658.43 31.57 657.68 31.34 656.43 32.20 M 663.27 33.38 C 662.07 34.94 664.99 36.03 665.95 34.86 C 667.15 33.28 664.20 32.15 663.27 33.38 M 656.40 34.10 C 656.67 35.37 657.44 35.58 658.72 34.73 C 658.43 33.46 657.66 33.24 656.40 34.10 Z" />
<path fill="#9f0100" opacity="0.78" d=" M 703.11 31.30 C 704.59 31.93 706.84 31.46 707.68 33.13 C 707.66 33.92 707.61 35.50 707.58 36.29 C 705.56 36.36 703.55 36.35 701.55 36.28 C 701.62 35.46 701.75 33.83 701.82 33.01 C 702.14 32.58 702.79 31.73 703.11 31.30 M 703.22 33.32 C 701.94 34.89 704.81 36.07 705.80 34.83 C 706.98 33.28 704.18 32.06 703.22 33.32 Z" />
<path fill="#b00606" opacity="0.90" d=" M 644.93 32.38 C 647.18 32.25 649.44 32.07 651.69 31.74 L 651.01 33.11 C 650.53 33.46 649.57 34.14 649.09 34.49 C 649.64 34.87 650.74 35.65 651.29 36.04 C 649.97 36.13 647.33 36.33 646.01 36.42 C 646.03 35.98 646.06 35.10 646.08 34.66 C 646.60 34.39 647.64 33.85 648.16 33.58 C 647.35 33.28 645.74 32.68 644.93 32.38 Z" />
<path fill="#e8c6b4" opacity="0.97" d=" M 651.69 31.74 L 651.86 31.70 C 652.77 33.75 653.73 35.78 654.74 37.78 C 654.22 37.77 653.19 37.74 652.67 37.73 C 652.09 36.20 651.43 34.70 651.01 33.11 L 651.69 31.74 Z" />
<path fill="#560000" opacity="0.46" d=" M 656.43 32.20 C 657.68 31.34 658.43 31.57 658.66 32.87 C 657.38 33.72 656.64 33.50 656.43 32.20 Z" />
<path fill="#b30503" opacity="0.83" d=" M 668.67 32.30 L 669.48 32.27 C 670.42 32.23 672.28 32.16 673.22 32.12 C 673.14 33.05 672.99 34.90 672.91 35.83 C 671.44 35.91 669.98 36.01 668.53 36.12 C 669.23 34.85 669.28 33.58 668.67 32.30 Z" />
<path fill="#c9140d" opacity="0.94" d=" M 684.73 32.87 C 685.56 32.01 686.59 31.59 687.80 31.61 C 686.90 33.06 686.12 34.57 685.31 36.06 C 685.05 35.01 684.86 33.95 684.73 32.87 Z" />
<path fill="#860201" opacity="0.68" d=" M 687.80 31.61 L 688.63 32.14 C 689.58 33.39 689.95 34.83 689.73 36.46 C 688.62 36.36 686.41 36.16 685.31 36.06 C 686.12 34.57 686.90 33.06 687.80 31.61 Z" />
<path fill="#bb0a04" opacity="0.89" d=" M 690.57 32.09 L 690.90 32.01 C 692.56 31.90 694.24 31.88 695.92 31.82 C 694.71 32.95 693.63 34.15 692.79 35.57 L 692.28 36.59 C 691.74 35.08 691.09 33.61 690.57 32.09 Z" />
<path fill="#ffffff" opacity="1.00" d=" M 169.74 33.52 C 179.99 33.46 190.25 33.51 200.50 33.50 C 200.52 62.34 200.47 91.18 200.52 120.01 C 200.86 124.01 200.39 128.11 201.40 132.02 C 202.25 135.18 207.53 135.16 208.48 132.07 C 209.73 127.82 209.01 123.32 209.46 118.96 C 209.55 90.48 209.47 61.99 209.50 33.50 C 219.75 33.52 230.01 33.45 240.27 33.53 C 240.23 63.02 240.26 92.51 240.25 122.00 C 240.13 125.71 239.96 129.44 239.24 133.08 C 236.86 142.00 229.85 149.57 221.02 152.39 C 212.37 155.23 202.90 155.13 194.05 153.33 C 185.43 151.30 176.71 146.50 172.81 138.17 C 169.79 132.62 170.09 126.14 169.76 120.03 C 169.72 91.19 169.78 62.36 169.74 33.52 Z" />
<path fill="#ffffff" opacity="1.00" d=" M 247.11 33.43 C 269.49 33.61 291.88 33.42 314.26 33.52 C 314.24 41.43 314.26 49.34 314.25 57.25 C 308.17 57.24 302.10 57.27 296.03 57.23 C 295.97 88.82 296.02 120.41 296.00 152.00 C 285.74 151.98 275.48 152.04 265.22 151.97 C 265.27 120.39 265.25 88.82 265.23 57.24 C 259.15 57.26 253.08 57.25 247.00 57.25 C 247.06 49.31 246.87 41.36 247.11 33.43 Z" />
<path fill="#ffff26" opacity="1.00" d=" M 496.73 33.55 C 506.99 33.44 517.24 33.53 527.50 33.50 C 527.56 62.98 527.38 92.47 527.59 121.96 C 528.20 125.93 526.64 131.02 529.93 134.08 C 531.95 134.56 534.73 134.51 535.46 132.11 C 536.72 127.87 536.03 123.36 536.45 119.01 C 536.56 90.51 536.46 62.00 536.51 33.50 C 546.76 33.54 557.02 33.42 567.28 33.56 C 567.21 63.04 567.27 92.53 567.25 122.01 C 567.13 125.72 566.96 129.46 566.23 133.10 C 563.60 143.28 554.83 151.30 544.58 153.40 C 532.86 155.72 519.90 154.98 509.49 148.65 C 502.89 144.77 498.25 137.73 497.37 130.12 C 496.52 122.13 496.78 114.08 496.75 106.06 C 496.74 81.89 496.77 57.72 496.73 33.55 Z" />
<path fill="#1c0000" opacity="0.18" d=" M 703.22 33.32 C 704.18 32.06 706.98 33.28 705.80 34.83 C 704.81 36.07 701.94 34.89 703.22 33.32 Z" />
<path fill="#ffffff" opacity="1.00" d=" M 87.23 151.99 C 87.33 112.47 87.10 72.95 87.35 33.44 C 97.57 33.58 107.78 33.46 118.00 33.50 C 118.00 47.67 118.00 61.83 118.00 76.00 C 121.08 76.00 124.16 76.00 127.25 76.00 C 127.31 61.81 127.11 47.62 127.35 33.44 C 137.56 33.58 147.78 33.46 158.00 33.50 C 158.00 73.00 158.00 112.50 158.00 152.00 C 147.74 151.97 137.47 152.05 127.21 151.96 C 127.27 135.38 127.26 118.81 127.22 102.23 C 124.16 102.26 121.09 102.26 118.03 102.22 C 117.96 118.82 118.02 135.41 118.00 152.00 C 107.74 151.99 97.49 152.02 87.23 151.99 Z" />
<path fill="#ffff26" opacity="1.00" d=" M 347.22 33.54 C 357.48 33.45 367.74 33.52 378.00 33.50 C 378.00 73.00 378.00 112.50 378.00 152.00 C 367.74 151.99 357.48 152.03 347.23 151.98 C 347.26 112.50 347.27 73.02 347.22 33.54 Z" />
<path fill="#ffff26" opacity="1.00" d=" M 390.20 33.57 C 398.84 33.40 407.49 33.54 416.13 33.50 C 421.76 50.48 427.05 67.58 432.75 84.53 C 433.44 82.74 433.24 80.80 433.27 78.92 C 433.19 63.80 433.32 48.68 433.20 33.56 C 441.80 33.42 450.40 33.53 459.00 33.50 C 459.00 73.00 459.00 112.50 459.00 152.00 C 449.94 152.00 440.88 152.01 431.83 151.99 C 426.73 134.30 421.08 116.76 416.32 98.98 C 415.60 116.63 416.20 134.33 416.00 152.00 C 407.40 151.98 398.81 152.04 390.22 151.97 C 390.25 112.50 390.29 73.04 390.20 33.57 Z" />
<path fill="#ffff26" opacity="1.00" d=" M 579.23 151.98 C 579.33 112.47 579.11 72.95 579.34 33.44 C 591.87 33.60 604.41 33.41 616.94 33.53 C 624.94 33.98 633.90 35.05 639.83 41.04 C 645.93 47.79 645.49 57.52 645.50 66.02 C 645.22 74.37 646.35 82.91 644.18 91.10 C 642.88 96.74 637.92 100.79 632.56 102.43 C 625.31 104.94 617.55 104.15 610.02 104.23 C 609.97 120.15 610.01 136.08 610.00 152.00 C 599.74 151.99 589.49 152.02 579.23 151.98 M 610.00 53.92 C 610.03 63.89 609.94 73.86 610.05 83.83 C 612.53 83.64 615.40 84.19 617.44 82.38 C 619.41 80.49 619.36 77.49 619.54 74.96 C 619.76 69.31 620.14 63.52 618.96 57.95 C 618.05 53.98 613.23 53.98 610.00 53.92 Z" />
<path fill="#4b0000" opacity="0.47" d=" M 656.40 34.10 C 657.66 33.24 658.43 33.46 658.72 34.73 C 657.44 35.58 656.67 35.37 656.40 34.10 Z" />
<path fill="#669b47" opacity="0.79" d=" M 657.13 36.24 C 657.77 36.24 659.05 36.24 659.69 36.23 L 659.96 36.83 C 659.69 37.32 659.14 38.30 658.86 38.79 C 658.32 38.50 657.24 37.94 656.71 37.65 C 656.81 37.30 657.03 36.60 657.13 36.24 Z" />
<path fill="#e2783f" opacity="0.95" d=" M 694.74 36.11 L 695.64 36.43 L 696.04 37.46 L 695.53 38.26 L 694.92 38.35 L 694.14 37.97 C 694.29 37.50 694.59 36.58 694.74 36.11 Z" />
<path fill="#929714" opacity="0.75" d=" M 644.78 37.69 C 647.40 37.32 650.04 37.46 652.67 37.73 C 653.19 37.74 654.22 37.77 654.74 37.78 C 655.39 37.76 656.04 37.72 656.71 37.65 C 657.24 37.94 658.32 38.50 658.86 38.79 L 660.86 39.50 C 660.07 39.72 658.49 40.15 657.70 40.37 C 656.67 40.35 655.65 40.31 654.63 40.26 C 651.58 40.01 648.53 40.18 645.49 40.38 C 645.31 39.71 644.96 38.37 644.78 37.69 Z" />
<path fill="#68ff72" opacity="1.00" d=" M 658.86 38.79 C 659.14 38.30 659.69 37.32 659.96 36.83 C 661.46 37.27 663.02 37.57 664.58 37.75 C 665.08 38.32 665.60 38.89 666.13 39.45 L 666.25 39.57 C 668.24 39.89 670.25 40.07 672.25 40.31 C 672.35 41.09 672.55 42.66 672.64 43.45 C 670.36 43.38 668.08 43.42 665.80 43.36 C 663.80 42.62 662.02 41.43 660.22 40.32 C 661.18 40.32 663.09 40.31 664.05 40.31 L 663.65 39.36 C 663.50 37.50 661.13 37.81 661.12 39.56 L 660.86 39.50 L 658.86 38.79 Z" />
<path fill="#ffff26" opacity="1.00" d=" M 664.58 37.75 C 668.36 37.79 672.30 36.95 675.97 38.24 C 677.36 37.93 678.75 37.62 680.16 37.32 C 680.38 37.83 680.80 38.87 681.02 39.39 C 680.71 39.40 680.08 39.41 679.77 39.42 C 678.48 39.43 677.19 39.39 675.91 39.38 L 674.73 39.39 C 674.26 39.50 673.30 39.71 672.82 39.81 C 672.26 39.26 671.14 38.16 670.58 37.60 C 670.60 38.14 670.64 39.21 670.66 39.75 C 670.09 39.76 668.94 39.76 668.37 39.77 C 668.28 39.26 668.11 38.24 668.02 37.73 C 667.58 38.19 666.69 39.11 666.25 39.57 L 666.13 39.45 C 665.60 38.89 665.08 38.32 664.58 37.75 Z" />
<path fill="#a9d62f" opacity="0.88" d=" M 689.39 37.29 C 690.02 37.34 691.28 37.45 691.91 37.50 C 691.61 37.95 691.03 38.86 690.74 39.31 L 689.99 39.42 C 689.84 38.89 689.54 37.82 689.39 37.29 Z" />
<path fill="#ffff26" opacity="1.00" d=" M 696.04 37.46 C 698.14 37.49 700.15 38.19 702.26 38.33 C 701.77 40.06 701.00 41.12 699.58 39.38 C 697.30 39.53 694.90 40.06 692.70 39.27 C 692.60 38.86 692.40 38.05 692.29 37.65 L 694.14 37.97 L 694.92 38.35 C 695.08 38.32 695.38 38.28 695.53 38.26 L 696.04 37.46 Z" />
<path fill="#d3e32a" opacity="0.96" d=" M 661.12 39.56 C 661.13 37.81 663.50 37.50 663.65 39.36 C 663.02 39.41 661.75 39.51 661.12 39.56 Z" />
<path fill="#9bb927" opacity="0.84" d=" M 682.04 39.61 C 681.58 37.77 682.12 37.16 683.65 37.77 C 683.65 38.29 683.67 39.33 683.67 39.85 C 683.26 39.79 682.45 39.67 682.04 39.61 Z" />
<path fill="#a99f11" opacity="0.72" d=" M 684.95 38.61 L 685.60 37.90 C 687.20 36.95 689.69 39.46 687.20 40.17 C 685.98 40.38 685.23 39.86 684.95 38.61 Z" />
<path fill="#182f00" opacity="0.19" d=" M 694.92 38.35 L 695.53 38.26 C 695.38 38.28 695.08 38.32 694.92 38.35 Z" />
<path fill="#34672a" opacity="0.65" d=" M 675.91 39.38 C 677.19 39.39 678.48 39.43 679.77 39.42 C 677.93 40.17 676.47 41.43 676.37 43.55 C 679.31 43.42 682.26 43.18 685.17 42.70 C 685.08 43.00 684.88 43.60 684.78 43.89 L 684.16 44.20 C 681.52 44.25 678.89 44.43 676.29 44.81 C 676.18 43.00 676.06 41.19 675.91 39.38 Z" />
<path fill="#a34b4e" opacity="0.75" d=" M 654.63 40.26 C 655.65 40.31 656.67 40.35 657.70 40.37 C 664.63 46.56 675.94 49.29 684.16 44.20 L 684.78 43.89 C 687.89 43.26 690.15 40.97 692.70 39.27 L 693.09 40.83 C 692.73 41.20 692.01 41.94 691.64 42.31 C 690.97 42.87 690.28 43.40 689.58 43.92 C 683.64 47.87 675.98 50.28 668.93 48.22 C 665.89 47.49 662.87 46.49 660.24 44.76 C 659.23 44.09 658.26 43.38 657.33 42.64 C 656.40 41.87 655.50 41.08 654.63 40.26 Z" />
<path fill="#64ff74" opacity="1.00" d=" M 676.37 43.55 C 676.47 41.43 677.93 40.17 679.77 39.42 C 680.08 39.41 680.71 39.40 681.02 39.39 L 682.04 39.61 C 682.45 39.67 683.26 39.79 683.67 39.85 C 684.45 40.56 685.23 41.26 686.02 41.96 L 685.17 42.70 C 682.26 43.18 679.31 43.42 676.37 43.55 Z" />
<path fill="#070303" opacity="0.33" d=" M 689.58 43.92 C 690.28 43.40 690.97 42.87 691.64 42.31 C 693.52 42.59 695.38 42.85 697.27 43.13 C 696.51 46.46 691.91 44.45 689.58 43.92 Z" />
<path fill="#020101" opacity="0.29" d=" M 651.03 44.76 C 651.24 41.72 655.27 43.24 657.33 42.64 C 658.26 43.38 659.23 44.09 660.24 44.76 C 657.17 44.85 654.09 44.86 651.03 44.76 Z" />
<path fill="#774520" opacity="1.00" d=" M 665.80 43.36 C 668.08 43.42 670.36 43.38 672.64 43.45 C 672.68 43.72 672.75 44.27 672.78 44.55 C 670.42 44.37 668.05 44.13 665.80 43.36 Z" />
</svg>
