<?xml version="1.0" encoding="UTF-8" ?>
<!DOCTYPE svg PUBLIC "-//W3C//DTD SVG 1.1//EN" "http://www.w3.org/Graphics/SVG/1.1/DTD/svg11.dtd">
<svg width="533pt" height="133pt" viewBox="0 0 533 133" version="1.1" xmlns="http://www.w3.org/2000/svg">
<path fill="#a62a32" opacity="0.78" d=" M 505.54 3.65 C 509.69 2.14 514.02 3.66 517.98 5.05 C 525.61 8.10 530.73 15.98 531.00 24.11 C 530.33 28.42 528.88 32.70 526.06 36.09 C 525.85 35.71 525.43 34.97 525.22 34.60 C 527.40 31.11 529.14 27.14 528.83 22.92 C 528.64 15.88 523.80 9.43 517.35 6.78 C 509.84 3.52 500.26 5.35 494.86 11.62 C 490.71 15.97 489.42 22.42 490.69 28.20 C 490.02 24.92 489.97 21.56 489.43 18.26 C 490.73 10.69 498.21 5.11 505.54 3.65 Z" />
<path fill="#43ff4e" opacity="1.00" d=" M 497.15 10.66 C 500.15 8.43 503.67 7.07 507.36 6.55 C 507.33 7.39 507.27 9.05 507.25 9.89 C 505.21 9.65 503.14 10.25 501.63 11.63 C 501.02 12.08 500.41 12.53 499.81 12.97 C 499.15 12.39 497.82 11.24 497.15 10.66 Z" />
<path fill="#3fff4b" opacity="1.00" d=" M 510.47 6.49 C 518.56 6.66 526.58 12.73 526.99 21.19 C 525.74 20.86 524.48 20.78 523.21 20.92 C 522.93 19.86 522.73 18.78 522.40 17.73 C 521.08 12.61 515.55 9.34 510.41 9.95 C 510.43 9.08 510.45 7.35 510.47 6.49 Z" />
<path fill="#324e1b" opacity="0.69" d=" M 501.63 11.63 C 503.14 10.25 505.21 9.65 507.25 9.89 C 506.45 11.54 503.35 12.09 501.63 11.63 Z" />
<path fill="#45802b" opacity="0.82" d=" M 510.41 9.95 C 515.55 9.34 521.08 12.61 522.40 17.73 L 521.21 17.20 L 520.99 16.52 C 519.46 12.13 514.35 11.12 510.41 9.95 Z" />
<path fill="#59ff61" opacity="1.00" d=" M 491.62 21.60 C 492.30 17.47 494.13 13.59 497.15 10.66 C 497.82 11.24 499.15 12.39 499.81 12.97 C 498.87 14.01 497.97 15.09 497.12 16.21 C 498.72 16.38 500.35 16.53 501.97 16.68 C 501.76 19.52 501.61 22.36 501.41 25.19 C 501.11 23.27 500.83 21.34 500.56 19.42 C 499.30 19.50 498.05 19.58 496.80 19.67 C 496.66 19.05 496.37 17.82 496.23 17.20 C 495.89 18.74 495.57 20.28 495.28 21.82 C 494.36 21.77 492.54 21.66 491.62 21.60 Z" />
<path fill="#4dff57" opacity="1.00" d=" M 509.08 21.35 C 509.75 19.68 508.61 16.60 510.76 15.89 C 514.16 16.17 517.58 16.35 520.99 16.52 L 521.21 17.20 C 521.25 17.92 521.32 19.35 521.35 20.07 C 519.99 21.55 518.58 22.99 517.08 24.33 C 516.00 23.19 514.90 22.08 513.74 21.03 L 513.31 20.64 C 511.89 20.89 510.48 21.12 509.08 21.35 Z" />
<path fill="#b85358" opacity="0.80" d=" M 489.43 18.26 C 489.97 21.56 490.02 24.92 490.69 28.20 C 492.90 35.78 500.08 41.49 507.96 41.95 C 514.50 42.58 521.08 39.65 525.22 34.60 C 525.43 34.97 525.85 35.71 526.06 36.09 C 522.03 40.74 516.13 43.42 510.07 44.05 C 502.19 43.85 494.21 39.57 490.55 32.42 C 488.57 28.04 486.85 22.79 489.43 18.26 Z" />
<path fill="#68ff6f" opacity="1.00" d=" M 496.80 19.67 C 498.05 19.58 499.30 19.50 500.56 19.42 C 500.83 21.34 501.11 23.27 501.41 25.19 C 503.40 24.83 505.41 24.55 507.43 24.29 C 507.60 25.76 507.78 27.22 507.97 28.69 C 504.45 29.32 500.88 29.65 497.33 29.97 C 497.16 26.53 496.82 23.11 496.80 19.67 Z" />
<path fill="#5aff62" opacity="1.00" d=" M 513.74 21.03 C 514.90 22.08 516.00 23.19 517.08 24.33 L 517.57 24.84 C 518.90 24.64 520.23 24.44 521.56 24.24 C 521.54 26.23 521.54 28.23 521.58 30.23 C 517.47 29.99 513.36 29.72 509.24 29.73 C 509.22 28.75 509.17 26.78 509.15 25.80 C 510.67 24.21 512.21 22.63 513.74 21.03 Z" />
<path fill="#2f5d1d" opacity="0.58" d=" M 523.21 20.92 C 524.48 20.78 525.74 20.86 526.99 21.19 C 526.83 22.76 522.95 22.57 523.21 20.92 Z" />
<path fill="#48ff53" opacity="1.00" d=" M 523.54 23.76 C 524.81 23.72 526.09 23.69 527.37 23.66 C 527.07 25.64 526.75 27.60 526.35 29.56 C 525.15 29.04 523.97 28.53 522.79 28.02 C 523.02 26.59 523.28 25.18 523.54 23.76 Z" />
<path fill="#ffffff" opacity="1.00" d=" M 8.60 26.67 C 16.55 21.29 29.69 24.71 32.41 34.40 C 33.90 40.54 33.74 46.92 33.75 53.19 C 28.92 53.29 24.08 53.27 19.25 53.20 C 18.71 48.61 20.54 43.39 17.92 39.27 C 14.96 41.57 15.81 45.75 15.84 49.02 C 15.90 53.23 19.08 56.32 21.96 58.96 C 26.06 63.22 30.44 67.54 32.73 73.09 C 34.97 79.45 34.92 86.33 35.00 92.99 C 34.71 98.79 34.84 105.27 31.00 110.04 C 25.66 116.91 14.40 117.81 8.05 111.85 C 4.08 108.41 2.66 103.06 2.29 98.01 C 1.92 92.69 1.66 87.34 1.80 82.00 C 6.60 82.00 11.40 82.00 16.20 82.00 C 16.60 87.68 15.60 93.51 16.79 99.10 C 17.33 101.43 19.94 99.68 19.93 98.07 C 20.40 93.40 20.80 88.37 19.11 83.88 C 15.07 77.46 8.55 72.99 4.62 66.48 C 0.76 58.66 1.18 49.63 1.68 41.15 C 2.04 35.73 3.81 29.78 8.60 26.67 Z" />
<path fill="#ffff26" opacity="1.00" d=" M 464.50 24.63 C 469.50 23.47 475.18 24.48 478.97 28.11 C 483.37 32.54 485.19 38.93 485.43 45.03 C 486.06 58.35 485.62 71.69 485.76 85.03 C 485.47 93.39 486.06 102.63 480.81 109.73 C 475.74 117.20 463.75 117.82 457.66 111.32 C 452.89 106.11 451.67 98.76 451.55 91.93 C 451.42 78.29 451.54 64.64 451.49 50.99 C 451.60 44.55 451.79 37.74 455.16 32.04 C 457.15 28.50 460.49 25.58 464.50 24.63 M 467.54 40.42 C 466.85 42.20 466.84 44.16 466.75 46.04 C 466.74 61.70 466.77 77.36 466.74 93.02 C 466.79 95.23 466.79 97.50 467.46 99.64 C 468.76 101.10 469.98 99.53 470.02 98.09 C 470.87 88.78 470.36 79.41 470.50 70.08 C 470.33 60.74 470.88 51.38 470.11 42.06 C 470.26 40.59 468.70 38.66 467.54 40.42 Z" />
<path fill="#76ff7c" opacity="1.00" d=" M 491.74 24.58 C 492.60 24.56 494.31 24.53 495.17 24.51 C 496.02 27.94 497.25 31.61 500.27 33.74 C 502.45 35.49 505.26 36.00 507.93 36.53 C 507.88 37.72 507.84 38.90 507.80 40.09 C 503.77 39.53 499.63 38.33 496.68 35.38 C 493.64 32.60 492.27 28.56 491.74 24.58 Z" />
<path fill="#ffffff" opacity="1.00" d=" M 40.50 90.06 C 40.51 68.70 40.48 47.34 40.52 25.98 C 45.60 26.02 50.68 25.99 55.76 26.00 C 55.77 48.67 55.72 71.35 55.78 94.02 C 56.04 96.15 55.57 98.65 57.12 100.38 C 58.12 99.95 58.63 99.19 58.66 98.10 C 59.13 95.08 58.99 92.01 59.00 88.97 C 59.00 67.98 59.00 46.99 59.00 26.00 C 64.08 26.00 69.17 26.00 74.25 26.00 C 74.25 48.35 74.26 70.70 74.24 93.05 C 74.27 99.54 73.00 106.49 68.47 111.43 C 62.56 117.97 51.10 116.92 45.66 110.29 C 40.76 104.78 40.67 97.02 40.50 90.06 Z" />
<path fill="#ffffff" opacity="1.00" d=" M 80.80 26.00 C 88.03 26.27 95.35 25.38 102.51 26.57 C 107.59 27.47 111.09 32.05 111.83 36.96 C 113.12 44.88 112.71 52.95 112.71 60.94 C 112.37 65.99 112.59 71.74 108.93 75.72 C 105.68 79.16 100.63 79.16 96.25 79.01 C 96.23 90.67 96.31 102.34 96.20 114.00 C 91.07 114.00 85.93 114.00 80.80 114.00 C 80.72 84.67 80.72 55.33 80.80 26.00 M 96.26 41.56 C 96.26 48.86 96.22 56.16 96.28 63.47 C 98.58 63.22 99.79 61.31 99.70 59.11 C 99.66 54.12 100.09 49.07 99.45 44.11 C 99.34 42.39 97.57 42.05 96.26 41.56 Z" />
<path fill="#ffffff" opacity="1.00" d=" M 118.00 26.00 C 126.25 26.00 134.50 26.00 142.76 26.00 C 142.75 32.08 142.75 38.17 142.76 44.25 C 139.59 44.25 136.42 44.25 133.25 44.25 C 133.25 49.50 133.25 54.75 133.25 60.00 C 136.16 60.00 139.08 60.00 142.00 60.00 C 142.00 65.75 142.00 71.50 142.00 77.25 C 139.08 77.25 136.17 77.25 133.25 77.25 C 133.25 83.42 133.24 89.58 133.26 95.75 C 136.75 95.75 140.25 95.75 143.75 95.75 C 143.76 101.83 143.75 107.91 143.76 114.00 C 135.17 114.00 126.59 114.00 118.00 114.00 C 118.00 84.67 118.00 55.33 118.00 26.00 Z" />
<path fill="#ffffff" opacity="1.00" d=" M 149.03 26.03 C 156.73 26.20 164.53 25.40 172.15 26.80 C 176.97 27.67 179.60 32.56 180.64 36.92 C 182.28 44.43 182.06 52.24 181.37 59.85 C 181.11 63.62 179.13 67.51 175.15 68.39 C 180.29 70.69 182.06 76.79 181.76 82.00 C 182.05 92.65 182.05 103.31 181.97 113.97 C 177.15 114.00 172.33 114.05 167.50 113.94 C 167.48 102.97 167.52 92.01 167.49 81.05 C 167.37 78.62 167.60 75.20 164.54 74.52 C 164.38 87.69 164.67 100.87 164.40 114.03 C 159.27 113.95 154.15 114.04 149.03 113.97 C 148.98 84.66 148.98 55.34 149.03 26.03 M 164.54 41.52 C 164.48 47.90 164.44 54.28 164.56 60.65 C 168.80 59.52 167.15 54.25 167.52 51.02 C 167.24 47.81 168.62 42.76 164.54 41.52 Z" />
<path fill="#ffff26" opacity="1.00" d=" M 203.24 26.00 C 207.48 26.00 211.72 26.00 215.96 26.00 C 218.48 37.74 220.68 49.55 223.25 61.28 C 223.25 49.52 223.24 37.76 223.25 26.00 C 227.50 26.00 231.75 26.00 236.00 26.00 C 236.00 55.33 236.00 84.67 236.00 114.00 C 231.58 114.00 227.16 113.99 222.74 114.01 C 220.68 102.24 217.94 90.58 216.41 78.73 C 215.53 90.46 216.21 102.25 216.00 114.00 C 211.75 114.00 207.50 114.00 203.24 114.00 C 203.25 84.67 203.25 55.33 203.24 26.00 Z" />
<path fill="#ffff26" opacity="1.00" d=" M 243.27 26.04 C 248.42 25.98 253.58 25.98 258.73 26.04 C 258.76 55.35 258.77 84.66 258.73 113.97 C 253.58 114.02 248.43 114.01 243.28 113.97 C 243.22 84.66 243.24 55.35 243.27 26.04 Z" />
<path fill="#ffff26" opacity="1.00" d=" M 265.27 26.04 C 269.57 25.97 273.87 26.00 278.16 26.00 C 280.58 37.45 282.74 48.96 285.24 60.39 C 285.28 48.93 285.19 37.47 285.29 26.01 C 289.59 25.99 293.90 26.00 298.20 26.00 C 298.28 55.33 298.28 84.67 298.20 114.00 C 293.77 114.00 289.34 114.00 284.91 114.00 C 282.75 102.47 280.52 90.95 278.42 79.41 C 278.00 90.93 278.42 102.47 278.20 114.00 C 273.89 114.00 269.58 114.02 265.27 113.97 C 265.23 84.66 265.23 55.35 265.27 26.04 Z" />
<path fill="#ffff26" opacity="1.00" d=" M 303.00 26.00 C 313.75 26.00 324.50 26.00 335.25 26.00 C 335.25 32.08 335.25 38.17 335.25 44.25 C 332.42 44.25 329.58 44.25 326.76 44.25 C 326.75 67.50 326.75 90.75 326.76 113.99 C 321.70 114.02 316.65 113.96 311.60 114.04 C 311.36 90.78 311.56 67.52 311.50 44.26 C 308.67 44.26 305.83 44.26 303.00 44.20 C 302.99 38.13 303.00 32.07 303.00 26.00 Z" />
<path fill="#ffff26" opacity="1.00" d=" M 339.49 26.08 C 347.81 25.90 356.13 26.04 364.46 26.01 C 364.55 32.07 364.49 38.14 364.49 44.21 C 361.33 44.27 358.17 44.26 355.00 44.25 C 354.99 49.50 355.00 54.75 355.00 60.00 C 357.90 60.00 360.81 59.99 363.72 60.03 C 363.60 65.73 364.10 71.53 363.51 77.17 C 360.67 77.36 357.83 77.22 355.00 77.25 C 355.00 83.42 354.99 89.59 355.00 95.75 C 358.50 95.74 362.00 95.73 365.49 95.79 C 365.49 101.86 365.55 107.92 365.46 113.99 C 356.80 113.96 348.14 114.10 339.49 113.92 C 339.50 84.64 339.50 55.36 339.49 26.08 Z" />
<path fill="#ffff26" opacity="1.00" d=" M 370.75 26.00 C 374.99 26.00 379.24 25.97 383.49 26.03 C 385.90 37.78 388.23 49.55 390.69 61.28 C 390.83 49.52 390.71 37.76 390.75 26.00 C 395.01 26.00 399.26 25.97 403.52 26.03 C 403.48 55.33 403.51 84.63 403.51 113.92 C 399.08 114.07 394.64 113.98 390.21 114.00 C 387.90 102.26 385.97 90.43 383.38 78.75 C 383.62 90.50 383.49 102.25 383.45 113.99 C 379.22 114.01 374.98 114.00 370.75 114.00 C 370.75 84.67 370.75 55.33 370.75 26.00 Z" />
<path fill="#ffff26" opacity="1.00" d=" M 410.80 26.00 C 418.14 26.19 425.54 25.50 432.83 26.58 C 436.46 27.03 439.99 28.98 441.82 32.23 C 444.96 37.58 444.75 44.00 444.75 49.99 C 445.20 62.66 444.97 75.34 444.96 88.02 C 444.39 94.63 445.55 101.62 442.88 107.90 C 441.26 111.76 437.15 113.89 433.09 113.90 C 425.66 114.15 418.23 113.93 410.80 114.00 C 410.72 84.67 410.72 55.33 410.80 26.00 M 426.28 41.53 C 426.24 60.47 426.21 79.41 426.30 98.36 C 427.30 97.75 429.02 97.46 429.00 95.95 C 429.60 92.68 429.51 89.35 429.50 86.04 C 429.45 72.72 429.57 59.40 429.46 46.08 C 429.58 43.92 428.54 41.93 426.28 41.53 Z" />
<path fill="#65ff6d" opacity="1.00" d=" M 522.79 28.02 C 523.97 28.53 525.15 29.04 526.35 29.56 C 524.02 35.79 517.93 39.43 511.56 40.30 C 511.42 39.06 511.30 37.83 511.18 36.59 C 516.25 36.03 521.08 32.99 522.79 28.02 Z" />
</svg>
