<?xml version="1.0" encoding="UTF-8" ?>
<!DOCTYPE svg PUBLIC "-//W3C//DTD SVG 1.1//EN" "http://www.w3.org/Graphics/SVG/1.1/DTD/svg11.dtd">
<svg width="960pt" height="540pt" viewBox="0 0 960 540" version="1.1" xmlns="http://www.w3.org/2000/svg">
<path fill="#41403f" opacity="1.00" d=" M 500.38 45.07 C 502.40 47.39 503.88 50.11 505.82 52.50 C 506.45 52.36 507.72 52.06 508.35 51.91 C 508.26 53.24 508.13 54.57 508.01 55.89 C 508.27 56.23 508.80 56.91 509.06 57.24 C 509.55 59.28 509.57 61.40 508.54 63.27 C 508.34 61.45 508.11 59.63 507.87 57.81 C 505.32 59.43 503.46 61.82 501.57 64.11 C 498.73 59.45 500.91 53.84 499.00 48.97 L 499.73 48.75 C 499.84 48.15 500.06 46.94 500.17 46.34 L 500.38 45.07 Z" />
<path fill="#241d1d" opacity="0.75" d=" M 454.59 47.50 C 456.71 46.94 458.87 46.49 461.06 46.23 C 460.86 46.65 460.46 47.51 460.26 47.94 C 458.36 47.78 456.48 47.59 454.59 47.50 Z" />
<path fill="#9e6255" opacity="1.00" d=" M 461.06 46.23 L 461.76 45.36 C 461.30 49.08 461.62 53.04 460.29 56.57 C 459.74 56.36 458.65 55.93 458.11 55.72 C 458.31 55.36 458.70 54.65 458.89 54.30 C 458.32 54.23 457.16 54.09 456.58 54.02 C 456.86 53.77 457.42 53.27 457.70 53.02 C 458.26 52.94 459.36 52.78 459.92 52.70 C 460.05 51.11 460.12 49.52 460.26 47.94 C 460.46 47.51 460.86 46.65 461.06 46.23 Z" />
<path fill="#4c4142" opacity="1.00" d=" M 461.76 45.36 C 462.69 46.01 463.64 46.65 464.61 47.28 L 464.62 47.46 C 464.41 51.54 467.60 57.04 462.69 59.38 C 461.91 58.42 461.12 57.47 460.29 56.57 C 461.62 53.04 461.30 49.08 461.76 45.36 M 462.21 52.01 C 461.55 53.00 462.62 55.14 463.89 54.76 C 464.35 53.65 464.03 52.78 462.91 52.17 C 463.21 51.87 463.82 51.28 464.12 50.99 C 463.96 48.60 460.59 50.41 462.21 52.01 Z" />
<path fill="#2c2924" opacity="0.94" d=" M 491.52 48.12 C 494.36 47.33 497.36 47.28 500.17 46.34 C 500.06 46.94 499.84 48.15 499.73 48.75 L 499.00 48.97 C 497.86 49.25 496.73 49.51 495.59 49.69 C 494.78 49.73 493.17 49.79 492.37 49.83 C 490.37 49.86 488.39 50.11 486.50 50.75 C 484.81 51.28 483.06 51.25 481.33 51.05 L 481.28 51.82 C 479.48 51.90 477.68 51.97 475.89 52.04 C 475.31 54.72 475.16 57.46 474.95 60.19 L 474.87 61.43 C 473.62 57.95 473.50 54.24 473.62 50.59 C 479.65 50.71 485.72 49.78 491.52 48.12 Z" />
<path fill="#fdfef4" opacity="1.00" d=" M 524.44 48.23 C 529.47 47.63 534.54 47.52 539.59 47.00 C 540.13 47.03 541.20 47.09 541.74 47.11 C 541.43 49.53 541.41 51.97 541.60 54.39 C 541.35 52.96 541.00 51.55 540.56 50.17 L 539.54 50.32 C 539.40 50.33 539.13 50.35 538.99 50.36 C 538.05 50.41 537.11 50.43 536.20 50.62 C 536.19 51.45 536.16 53.12 536.14 53.96 L 535.99 53.71 C 535.89 52.53 535.81 51.34 535.76 50.16 C 534.60 50.26 533.44 50.35 532.29 50.44 C 532.31 52.16 532.32 53.88 532.30 55.61 C 532.25 56.21 532.14 57.41 532.08 58.02 C 529.88 58.32 527.66 58.57 525.47 58.92 C 523.83 58.77 522.21 58.62 520.58 58.40 L 520.36 57.92 L 520.73 57.98 C 523.91 58.94 527.07 57.89 530.21 57.35 L 530.50 56.72 C 530.72 56.36 531.17 55.64 531.39 55.28 C 530.98 53.38 531.78 49.92 528.72 50.51 C 528.79 51.07 528.93 52.20 529.00 52.76 L 528.24 52.45 C 528.59 51.00 528.07 50.63 526.67 51.35 C 524.71 50.84 522.69 50.99 520.77 51.56 L 520.33 51.66 C 520.29 51.13 520.21 50.06 520.17 49.52 C 523.72 51.04 528.62 51.70 531.53 48.54 C 529.15 48.43 526.80 48.33 524.44 48.23 M 532.11 48.07 C 532.65 51.72 537.85 47.99 540.32 49.50 L 540.94 47.48 C 538.00 47.13 534.96 47.26 532.11 48.07 Z" />
<path fill="#0f0e0d" opacity="1.00" d=" M 539.59 47.00 C 540.64 45.84 542.98 45.56 543.30 47.51 C 543.80 50.85 543.19 54.26 543.39 57.64 C 540.74 60.56 536.62 61.62 534.24 64.82 C 537.19 70.21 540.66 75.35 543.09 81.00 L 542.41 81.01 C 540.97 80.58 539.53 79.99 538.01 80.15 C 536.88 78.34 535.88 76.46 534.86 74.59 C 534.41 74.70 533.52 74.92 533.08 75.03 C 533.54 74.84 534.47 74.46 534.93 74.26 C 534.00 73.33 533.68 71.26 532.07 71.30 C 529.47 71.45 526.96 72.27 524.41 72.72 C 522.86 74.09 520.88 74.73 519.01 75.49 C 518.66 75.50 517.95 75.53 517.60 75.55 C 518.30 77.03 519.01 78.51 519.74 79.98 C 520.74 81.97 521.71 83.99 522.58 86.04 L 521.07 86.20 C 517.65 81.22 515.26 75.62 511.94 70.59 C 511.84 74.44 512.10 78.29 512.42 82.13 C 512.07 81.98 511.37 81.66 511.02 81.50 C 510.93 75.51 511.03 69.38 509.38 63.57 C 508.79 70.73 508.45 77.92 507.58 85.06 C 507.24 86.68 507.96 88.13 508.90 89.40 L 508.96 89.81 C 506.68 89.75 507.03 92.10 506.81 93.69 C 506.58 99.10 505.54 104.44 505.54 109.86 C 500.94 110.14 496.58 111.73 492.05 112.32 C 489.04 111.80 486.82 108.88 483.58 109.35 C 482.83 110.66 482.07 111.97 481.33 113.28 C 480.86 111.33 480.37 109.39 479.82 107.47 C 477.80 109.94 474.47 110.23 471.93 111.87 C 470.99 113.92 471.54 116.46 470.25 118.43 C 470.09 116.72 469.90 115.02 469.70 113.32 C 469.49 112.50 469.27 111.68 469.06 110.86 C 468.66 108.15 468.63 105.39 467.94 102.73 C 467.46 100.68 465.52 99.70 463.74 98.98 L 462.94 99.73 C 461.67 97.47 460.63 95.10 459.75 92.67 C 463.96 94.10 468.02 95.97 472.30 97.19 L 472.95 97.40 C 479.58 99.78 486.11 102.59 492.93 104.35 C 495.40 101.86 497.01 98.65 499.48 96.15 C 500.21 95.50 501.71 93.53 499.90 93.34 C 499.30 93.16 498.10 92.79 497.50 92.60 C 496.84 92.09 496.19 91.57 495.55 91.05 C 497.23 87.56 498.83 84.03 500.16 80.39 C 501.78 82.66 504.23 83.96 506.80 84.87 C 507.04 82.28 507.17 79.68 507.27 77.07 C 507.55 72.46 508.16 67.87 508.54 63.27 C 509.57 61.40 509.55 59.28 509.06 57.24 C 511.81 59.94 510.69 64.11 511.60 67.52 C 514.79 65.51 517.63 63.00 520.26 60.29 C 522.04 60.05 523.81 59.64 525.47 58.92 C 527.66 58.57 529.88 58.32 532.08 58.02 C 535.30 57.51 538.52 57.01 541.73 56.41 C 541.71 56.07 541.67 55.38 541.65 55.03 L 541.60 54.39 C 541.41 51.97 541.43 49.53 541.74 47.11 C 541.20 47.09 540.13 47.03 539.59 47.00 M 526.14 69.12 C 526.38 72.36 529.19 67.61 526.14 69.12 M 521.05 70.20 C 520.61 71.59 521.11 72.02 522.56 71.47 C 522.99 70.11 522.49 69.68 521.05 70.20 M 516.34 71.30 C 515.90 72.88 516.50 73.40 518.13 72.84 C 518.59 71.21 517.99 70.70 516.34 71.30 Z" />
<path fill="#312e2a" opacity="1.00" d=" M 439.95 49.94 C 444.74 48.73 449.70 48.19 454.59 47.50 C 456.48 47.59 458.36 47.78 460.26 47.94 C 460.12 49.52 460.05 51.11 459.92 52.70 C 459.36 52.78 458.26 52.94 457.70 53.02 C 457.97 52.70 458.52 52.05 458.79 51.73 C 457.92 51.39 457.05 51.06 456.19 50.73 C 456.75 50.23 457.86 49.24 458.41 48.74 C 452.72 48.60 446.26 48.65 441.44 52.05 C 441.50 52.44 441.63 53.23 441.69 53.62 C 441.70 53.89 441.72 54.43 441.72 54.70 C 441.49 55.05 441.01 55.75 440.78 56.11 C 440.62 56.34 440.30 56.82 440.14 57.05 C 441.86 57.26 443.59 57.21 445.33 57.12 C 443.34 57.54 441.42 58.23 439.56 59.01 L 439.00 59.23 C 438.92 57.80 439.06 56.39 439.43 55.02 C 440.21 53.44 440.44 51.65 439.95 49.94 Z" />
<path fill="#d2464c" opacity="1.00" d=" M 462.69 59.38 C 467.60 57.04 464.41 51.54 464.62 47.46 C 467.33 49.04 470.05 50.62 472.68 52.33 C 473.90 58.00 473.14 64.02 473.14 69.82 L 472.73 70.66 C 472.04 72.04 471.47 73.47 470.91 74.90 C 470.62 74.08 470.03 72.43 469.73 71.60 L 469.77 70.51 C 470.04 67.47 468.88 64.61 467.59 61.93 C 467.72 63.95 467.72 66.02 466.68 67.84 C 465.33 70.45 465.85 73.47 465.59 76.29 C 463.30 72.84 467.54 68.29 464.46 65.24 C 463.74 67.56 463.39 70.09 461.89 72.08 C 462.08 70.33 462.42 68.60 462.94 66.92 C 463.47 65.22 464.00 63.52 464.54 61.82 C 463.92 61.00 463.31 60.18 462.69 59.38 Z" />
<path fill="#b6b5b3" opacity="1.00" d=" M 473.62 50.59 C 479.58 49.78 485.52 48.73 491.52 48.12 C 485.72 49.78 479.65 50.71 473.62 50.59 Z" />
<path fill="#98422d" opacity="1.00" d=" M 508.37 51.64 C 511.70 50.24 514.97 48.71 518.29 47.27 C 520.18 48.36 522.32 48.29 524.44 48.23 C 526.80 48.33 529.15 48.43 531.53 48.54 C 528.62 51.70 523.72 51.04 520.17 49.52 C 520.21 50.06 520.29 51.13 520.33 51.66 C 519.93 53.70 519.34 55.95 520.36 57.92 L 520.58 58.40 C 522.21 58.62 523.83 58.77 525.47 58.92 C 523.81 59.64 522.04 60.05 520.26 60.29 C 517.63 63.00 514.79 65.51 511.60 67.52 C 510.69 64.11 511.81 59.94 509.06 57.24 C 508.80 56.91 508.27 56.23 508.01 55.89 C 508.13 54.57 508.26 53.24 508.35 51.91 L 508.37 51.64 Z" />
<path fill="#cd603b" opacity="1.00" d=" M 532.11 48.07 C 534.96 47.26 538.00 47.13 540.94 47.48 L 540.32 49.50 C 537.85 47.99 532.65 51.72 532.11 48.07 Z" />
<path fill="#9b8b75" opacity="1.00" d=" M 441.44 52.05 C 446.26 48.65 452.72 48.60 458.41 48.74 C 457.86 49.24 456.75 50.23 456.19 50.73 C 457.05 51.06 457.92 51.39 458.79 51.73 C 458.52 52.05 457.97 52.70 457.70 53.02 C 457.42 53.27 456.86 53.77 456.58 54.02 C 455.97 53.49 455.39 52.94 454.84 52.36 C 454.29 51.41 453.64 50.56 452.88 49.82 C 451.90 50.24 451.77 52.20 452.53 52.92 C 452.93 52.99 453.72 53.12 454.12 53.18 C 452.67 55.73 448.45 53.48 447.41 56.22 C 449.97 56.18 452.53 56.09 455.09 55.94 C 452.33 56.27 449.57 56.59 446.81 56.85 C 445.18 55.32 442.76 55.82 440.78 56.11 C 441.01 55.75 441.49 55.05 441.72 54.70 C 444.09 53.76 446.63 54.11 449.11 54.18 C 450.47 53.57 450.50 52.03 450.81 50.78 C 448.02 52.47 445.10 54.13 441.69 53.62 C 441.63 53.23 441.50 52.44 441.44 52.05 Z" />
<path fill="#191a19" opacity="1.00" d=" M 495.59 49.69 C 496.73 49.51 497.86 49.25 499.00 48.97 C 500.91 53.84 498.73 59.45 501.57 64.11 L 501.88 64.87 C 499.97 66.53 498.16 69.37 495.24 68.55 C 492.13 68.66 491.54 65.43 490.70 63.13 C 489.81 67.35 487.22 62.83 486.72 60.96 C 487.37 60.69 488.67 60.15 489.31 59.89 L 490.00 59.85 C 492.96 59.18 497.52 61.07 499.38 58.11 C 498.70 57.91 497.34 57.52 496.66 57.32 C 497.33 57.20 498.68 56.97 499.35 56.85 C 498.68 56.64 497.35 56.21 496.68 56.00 C 496.83 54.41 496.54 52.93 495.83 51.54 L 495.71 53.81 C 495.05 53.79 493.73 53.74 493.07 53.72 C 492.58 54.51 492.09 55.31 491.61 56.10 C 491.29 56.17 490.66 56.32 490.35 56.39 L 490.57 55.66 C 490.81 55.38 491.30 54.80 491.54 54.52 C 491.78 54.29 492.26 53.82 492.51 53.59 C 493.94 52.65 494.72 51.11 495.59 49.69 M 498.07 51.31 C 497.35 52.17 497.08 54.78 498.58 54.81 C 499.21 53.92 499.35 51.53 498.07 51.31 Z" />
<path fill="#48322d" opacity="0.37" d=" M 439.43 55.02 C 438.40 53.69 438.44 50.80 439.95 49.94 C 440.44 51.65 440.21 53.44 439.43 55.02 Z" />
<path fill="#e5e3d4" opacity="1.00" d=" M 452.53 52.92 C 451.77 52.20 451.90 50.24 452.88 49.82 C 453.64 50.56 454.29 51.41 454.84 52.36 C 454.66 52.56 454.30 52.98 454.12 53.18 C 453.72 53.12 452.93 52.99 452.53 52.92 Z" />
<path fill="#9a9680" opacity="1.00" d=" M 462.21 52.01 C 460.59 50.41 463.96 48.60 464.12 50.99 C 463.82 51.28 463.21 51.87 462.91 52.17 L 462.21 52.01 Z" />
<path fill="#efe6ad" opacity="1.00" d=" M 486.50 50.75 C 488.39 50.11 490.37 49.86 492.37 49.83 C 492.36 53.25 488.27 52.08 486.50 50.75 Z" />
<path fill="#debd60" opacity="1.00" d=" M 492.37 49.83 C 493.17 49.79 494.78 49.73 495.59 49.69 C 494.72 51.11 493.94 52.65 492.51 53.59 C 490.35 52.91 490.02 53.22 491.54 54.52 C 491.30 54.80 490.81 55.38 490.57 55.66 L 489.45 54.98 C 486.99 53.01 483.81 54.69 481.07 54.99 C 481.13 53.93 481.22 52.87 481.28 51.82 L 481.33 51.05 C 483.06 51.25 484.81 51.28 486.50 50.75 C 488.27 52.08 492.36 53.25 492.37 49.83 Z" />
<path fill="#030205" opacity="1.00" d=" M 532.29 50.44 C 533.44 50.35 534.60 50.26 535.76 50.16 C 535.81 51.34 535.89 52.53 535.99 53.71 C 535.42 53.13 534.85 52.56 534.28 52.00 C 533.70 52.96 533.15 53.95 532.63 54.94 L 532.30 55.61 C 532.32 53.88 532.31 52.16 532.29 50.44 Z" />
<path fill="#bc3439" opacity="1.00" d=" M 536.20 50.62 C 537.11 50.43 538.05 50.41 538.99 50.36 L 539.54 50.32 L 540.56 50.17 C 541.00 51.55 541.35 52.96 541.60 54.39 L 541.65 55.03 C 538.77 55.77 535.81 56.11 532.85 56.08 L 532.63 54.94 C 533.15 53.95 533.70 52.96 534.28 52.00 C 534.85 52.56 535.42 53.13 535.99 53.71 L 536.14 53.96 C 536.16 53.12 536.19 51.45 536.20 50.62 Z" />
<path fill="#341a26" opacity="1.00" d=" M 538.99 50.36 C 539.13 50.35 539.40 50.33 539.54 50.32 L 538.99 50.36 Z" />
<path fill="#fdfef4" opacity="1.00" d=" M 441.69 53.62 C 445.10 54.13 448.02 52.47 450.81 50.78 C 450.50 52.03 450.47 53.57 449.11 54.18 C 446.63 54.11 444.09 53.76 441.72 54.70 C 441.72 54.43 441.70 53.89 441.69 53.62 Z" />
<path fill="#63594c" opacity="1.00" d=" M 498.07 51.31 C 499.35 51.53 499.21 53.92 498.58 54.81 C 497.08 54.78 497.35 52.17 498.07 51.31 Z" />
<path fill="#b3323d" opacity="1.00" d=" M 520.77 51.56 C 522.69 50.99 524.71 50.84 526.67 51.35 C 527.07 51.62 527.85 52.17 528.24 52.45 L 529.00 52.76 C 529.50 54.08 530.00 55.40 530.50 56.72 L 530.21 57.35 C 527.07 57.89 523.91 58.94 520.73 57.98 C 521.09 55.86 521.22 53.67 520.77 51.56 M 525.26 53.25 C 525.83 53.79 525.83 53.79 525.26 53.25 Z" />
<path fill="#502221" opacity="1.00" d=" M 526.67 51.35 C 528.07 50.63 528.59 51.00 528.24 52.45 C 527.85 52.17 527.07 51.62 526.67 51.35 Z" />
<path fill="#201f23" opacity="1.00" d=" M 528.72 50.51 C 531.78 49.92 530.98 53.38 531.39 55.28 C 531.17 55.64 530.72 56.36 530.50 56.72 C 530.00 55.40 529.50 54.08 529.00 52.76 C 528.93 52.20 528.79 51.07 528.72 50.51 Z" />
<path fill="#decf6b" opacity="1.00" d=" M 454.84 52.36 C 455.39 52.94 455.97 53.49 456.58 54.02 C 457.16 54.09 458.32 54.23 458.89 54.30 C 458.70 54.65 458.31 55.36 458.11 55.72 C 457.36 55.77 455.85 55.88 455.09 55.94 C 452.53 56.09 449.97 56.18 447.41 56.22 C 448.45 53.48 452.67 55.73 454.12 53.18 C 454.30 52.98 454.66 52.56 454.84 52.36 Z" />
<path fill="#aba451" opacity="1.00" d=" M 462.21 52.01 L 462.91 52.17 C 464.03 52.78 464.35 53.65 463.89 54.76 C 462.62 55.14 461.55 53.00 462.21 52.01 Z" />
<path fill="#66614c" opacity="1.00" d=" M 475.89 52.04 C 477.68 51.97 479.48 51.90 481.28 51.82 C 481.22 52.87 481.13 53.93 481.07 54.99 C 479.42 53.60 477.61 54.08 475.96 55.15 C 475.97 55.89 476.00 57.37 476.01 58.11 C 476.59 57.85 477.75 57.35 478.33 57.09 C 478.31 57.81 478.27 59.26 478.25 59.98 C 477.42 60.03 475.78 60.14 474.95 60.19 C 475.16 57.46 475.31 54.72 475.89 52.04 Z" />
<path fill="#4c696b" opacity="1.00" d=" M 520.33 51.66 L 520.77 51.56 C 521.22 53.67 521.09 55.86 520.73 57.98 L 520.36 57.92 C 519.34 55.95 519.93 53.70 520.33 51.66 Z" />
<path fill="#50402a" opacity="1.00" d=" M 491.54 54.52 C 490.02 53.22 490.35 52.91 492.51 53.59 C 492.26 53.82 491.78 54.29 491.54 54.52 Z" />
<path fill="#decf6b" opacity="1.00" d=" M 495.71 53.81 L 495.83 51.54 C 496.54 52.93 496.83 54.41 496.68 56.00 C 497.35 56.21 498.68 56.64 499.35 56.85 C 498.68 56.97 497.33 57.20 496.66 57.32 C 497.34 57.52 498.70 57.91 499.38 58.11 C 497.52 61.07 492.96 59.18 490.00 59.85 C 491.15 59.45 492.23 58.87 493.30 58.28 C 492.46 58.13 490.77 57.83 489.93 57.68 C 490.03 57.36 490.24 56.71 490.35 56.39 C 490.66 56.32 491.29 56.17 491.61 56.10 C 492.09 55.31 492.58 54.51 493.07 53.72 C 493.73 53.74 495.05 53.79 495.71 53.81 Z" />
<path fill="#f86465" opacity="1.00" d=" M 525.26 53.25 C 525.83 53.79 525.83 53.79 525.26 53.25 Z" />
<path fill="#c9bf77" opacity="1.00" d=" M 475.96 55.15 C 477.61 54.08 479.42 53.60 481.07 54.99 C 483.81 54.69 486.99 53.01 489.45 54.98 L 489.29 55.96 C 487.47 55.22 485.51 54.97 483.57 54.89 C 483.92 55.51 484.60 56.76 484.95 57.38 C 482.83 58.07 480.84 59.08 478.79 59.94 L 478.25 59.98 C 478.27 59.26 478.31 57.81 478.33 57.09 C 477.75 57.35 476.59 57.85 476.01 58.11 C 476.00 57.37 475.97 55.89 475.96 55.15 M 480.21 57.21 C 480.80 57.79 480.80 57.79 480.21 57.21 Z" />
<path fill="#7e6e3a" opacity="1.00" d=" M 483.57 54.89 C 485.51 54.97 487.47 55.22 489.29 55.96 C 488.14 57.08 486.38 56.95 484.95 57.38 C 484.60 56.76 483.92 55.51 483.57 54.89 Z" />
<path fill="#ffffea" opacity="1.00" d=" M 489.45 54.98 L 490.57 55.66 L 490.35 56.39 C 490.24 56.71 490.03 57.36 489.93 57.68 C 490.77 57.83 492.46 58.13 493.30 58.28 C 492.23 58.87 491.15 59.45 490.00 59.85 L 489.31 59.89 C 485.80 59.91 482.30 59.90 478.79 59.94 C 480.84 59.08 482.83 58.07 484.95 57.38 C 486.38 56.95 488.14 57.08 489.29 55.96 L 489.45 54.98 Z" />
<path fill="#dbb078" opacity="1.00" d=" M 532.30 55.61 L 532.63 54.94 L 532.85 56.08 C 535.81 56.11 538.77 55.77 541.65 55.03 C 541.67 55.38 541.71 56.07 541.73 56.41 C 538.52 57.01 535.30 57.51 532.08 58.02 C 532.14 57.41 532.25 56.21 532.30 55.61 Z" />
<path fill="#dac666" opacity="1.00" d=" M 440.14 57.05 C 440.30 56.82 440.62 56.34 440.78 56.11 C 442.76 55.82 445.18 55.32 446.81 56.85 C 446.44 56.92 445.70 57.06 445.33 57.12 C 443.59 57.21 441.86 57.26 440.14 57.05 Z" />
<path fill="#010103" opacity="1.00" d=" M 455.09 55.94 C 455.85 55.88 457.36 55.77 458.11 55.72 C 458.65 55.93 459.74 56.36 460.29 56.57 C 461.12 57.47 461.91 58.42 462.69 59.38 C 463.31 60.18 463.92 61.00 464.54 61.82 C 464.00 63.52 463.47 65.22 462.94 66.92 C 462.35 67.09 461.16 67.42 460.56 67.58 C 460.30 67.94 459.78 68.67 459.53 69.03 C 457.19 69.32 454.84 69.27 452.50 69.18 C 450.56 66.17 446.35 65.81 444.04 62.99 C 443.80 62.79 443.31 62.40 443.07 62.21 C 441.76 61.29 440.51 60.30 439.56 59.01 C 441.42 58.23 443.34 57.54 445.33 57.12 C 445.70 57.06 446.44 56.92 446.81 56.85 C 449.57 56.59 452.33 56.27 455.09 55.94 Z" />
<path fill="#645d3f" opacity="1.00" d=" M 480.21 57.21 C 480.80 57.79 480.80 57.79 480.21 57.21 Z" />
<path fill="#676d78" opacity="1.00" d=" M 501.57 64.11 C 503.46 61.82 505.32 59.43 507.87 57.81 C 508.11 59.63 508.34 61.45 508.54 63.27 C 508.16 67.87 507.55 72.46 507.27 77.07 C 505.75 75.70 504.26 74.31 502.80 72.89 C 503.82 70.19 502.99 67.39 501.88 64.87 L 501.57 64.11 Z" />
<path fill="#36322e" opacity="1.00" d=" M 474.95 60.19 C 475.78 60.14 477.42 60.03 478.25 59.98 L 478.79 59.94 C 482.30 59.90 485.80 59.91 489.31 59.89 C 488.67 60.15 487.37 60.69 486.72 60.96 C 485.98 60.86 484.50 60.67 483.76 60.58 C 483.02 62.92 482.26 65.26 481.06 67.40 C 480.14 66.95 479.23 66.48 478.34 66.00 C 476.98 64.65 475.82 63.09 474.87 61.43 L 474.95 60.19 Z" />
<path fill="#0f0e0e" opacity="1.00" d=" M 481.06 67.40 C 482.26 65.26 483.02 62.92 483.76 60.58 C 484.50 60.67 485.98 60.86 486.72 60.96 C 487.22 62.83 489.81 67.35 490.70 63.13 C 491.54 65.43 492.13 68.66 495.24 68.55 C 498.16 69.37 499.97 66.53 501.88 64.87 C 502.99 67.39 503.82 70.19 502.80 72.89 C 501.79 75.18 501.24 78.11 498.66 79.17 C 498.86 77.37 499.47 75.70 500.63 74.30 C 499.03 73.89 497.44 73.46 495.82 73.18 L 495.22 73.14 L 493.77 73.06 L 493.15 73.03 C 492.57 73.00 491.40 72.94 490.81 72.91 L 490.21 72.85 C 488.76 72.61 487.31 72.42 485.85 72.56 L 485.03 72.87 C 484.48 73.08 483.38 73.48 482.82 73.68 C 482.51 73.79 481.88 73.99 481.56 74.10 C 481.79 72.62 482.40 70.88 480.43 70.42 C 480.64 68.61 479.17 67.41 478.34 66.00 C 479.23 66.48 480.14 66.95 481.06 67.40 Z" />
<path fill="#dfa37e" opacity="1.00" d=" M 443.07 62.21 C 443.31 62.40 443.80 62.79 444.04 62.99 C 443.00 69.38 440.50 75.45 438.44 81.56 C 437.76 83.25 437.27 85.00 437.00 86.79 C 438.75 87.30 440.51 87.81 442.28 88.29 C 442.46 88.63 442.82 89.32 443.00 89.66 C 442.63 89.56 441.89 89.35 441.51 89.25 C 439.69 88.80 437.82 88.62 435.96 88.47 C 435.93 87.89 435.87 86.74 435.85 86.16 C 436.90 84.94 437.23 83.34 437.76 81.86 C 439.70 75.89 442.09 70.06 443.81 64.02 C 443.62 63.57 443.26 62.66 443.07 62.21 Z" />
<path fill="#201f23" opacity="1.00" d=" M 467.59 61.93 C 468.88 64.61 470.04 67.47 469.77 70.51 C 466.41 70.11 467.30 74.28 468.37 76.09 C 468.05 76.57 467.40 77.53 467.08 78.00 C 466.56 78.21 465.52 78.63 464.99 78.84 C 464.18 78.94 462.56 79.13 461.75 79.23 C 462.35 80.58 462.99 81.92 463.66 83.24 L 464.18 84.32 C 465.60 83.73 466.92 82.95 468.15 82.02 C 468.11 81.18 468.05 79.50 468.01 78.66 C 469.45 79.24 470.01 80.45 469.69 82.28 C 469.45 83.47 469.22 84.67 469.00 85.87 L 468.10 85.50 C 467.14 83.71 465.19 85.31 465.88 86.87 C 465.52 87.28 464.79 88.11 464.43 88.53 C 464.29 87.09 463.92 85.72 463.34 84.42 C 463.24 85.45 463.03 87.52 462.93 88.56 C 462.42 88.08 461.41 87.11 460.90 86.63 C 461.29 87.68 461.67 88.74 462.04 89.80 C 461.70 90.24 461.01 91.11 460.67 91.55 C 460.31 91.55 459.58 91.56 459.21 91.56 C 459.35 91.84 459.62 92.39 459.75 92.67 C 460.63 95.10 461.67 97.47 462.94 99.73 C 462.77 100.38 462.41 101.67 462.23 102.32 C 461.83 103.52 461.80 104.73 462.14 105.95 C 463.21 105.14 463.63 104.04 463.40 102.66 C 464.70 102.62 466.00 102.58 467.31 102.56 C 467.02 103.02 466.44 103.96 466.15 104.42 C 467.74 105.63 466.31 106.66 465.46 107.59 C 465.45 109.06 465.50 110.53 465.60 112.00 C 466.06 111.49 466.96 110.47 467.41 109.96 C 467.59 110.55 467.93 111.73 468.10 112.31 C 468.34 111.95 468.82 111.22 469.06 110.86 C 469.27 111.68 469.49 112.50 469.70 113.32 C 467.79 114.64 465.84 115.99 464.58 118.00 C 465.04 118.15 465.95 118.45 466.40 118.60 C 465.61 119.88 465.36 121.28 465.64 122.81 C 464.25 124.19 462.65 125.33 461.01 126.39 C 460.79 125.63 460.56 124.88 460.35 124.12 C 459.18 124.81 458.01 125.50 456.88 126.23 C 455.55 126.00 454.13 125.87 453.13 124.86 C 452.82 120.62 451.99 115.90 453.97 111.93 C 453.46 112.29 452.44 113.02 451.93 113.38 C 451.99 111.65 452.03 109.91 452.07 108.17 C 454.31 106.73 457.53 106.03 458.40 103.17 C 456.28 104.19 454.20 105.27 452.08 106.27 C 451.82 105.06 451.58 103.85 451.34 102.65 C 450.49 103.26 449.66 103.90 448.85 104.55 C 448.56 104.91 447.98 105.65 447.69 106.02 C 447.59 109.03 447.75 112.04 447.87 115.05 C 446.05 115.96 444.20 117.42 442.04 117.05 C 439.29 116.16 436.67 114.88 433.85 114.20 C 434.42 115.11 435.00 116.02 435.59 116.93 C 434.07 116.94 432.55 116.95 431.04 116.97 C 431.05 113.73 430.69 110.51 430.34 107.30 C 430.66 107.34 431.30 107.43 431.61 107.47 C 433.19 106.04 434.92 104.75 436.95 104.04 C 436.13 106.82 440.64 106.73 439.91 103.95 C 440.38 103.75 441.34 103.36 441.81 103.17 C 441.81 105.18 441.82 107.19 441.78 109.20 C 441.70 109.33 441.53 109.57 441.44 109.69 L 441.84 109.75 C 442.10 111.54 442.31 113.34 442.52 115.14 C 442.58 112.11 442.70 109.08 442.90 106.05 C 444.12 105.85 445.34 105.62 446.56 105.38 C 446.83 105.06 447.37 104.41 447.64 104.08 C 448.29 102.84 447.94 101.28 448.12 99.92 C 448.57 100.14 449.45 100.60 449.89 100.82 C 452.55 99.03 458.18 98.77 457.58 94.49 C 454.28 95.59 450.66 96.36 448.14 98.93 C 448.01 98.50 447.74 97.66 447.60 97.23 C 448.68 96.27 449.81 95.36 450.73 94.24 C 449.85 93.85 448.97 93.49 448.08 93.14 C 448.55 93.16 449.49 93.19 449.96 93.21 C 450.34 92.74 451.10 91.80 451.48 91.34 C 451.79 91.34 452.42 91.34 452.74 91.35 C 452.54 92.12 452.38 92.91 452.24 93.70 C 454.03 92.86 455.63 91.69 457.24 90.56 C 458.31 84.28 461.22 78.43 461.89 72.08 C 463.39 70.09 463.74 67.56 464.46 65.24 C 467.54 68.29 463.30 72.84 465.59 76.29 C 465.85 73.47 465.33 70.45 466.68 67.84 C 467.72 66.02 467.72 63.95 467.59 61.93 M 435.07 106.19 C 432.82 107.92 433.74 110.96 435.93 112.27 C 436.26 111.74 436.92 110.68 437.25 110.15 C 438.39 109.94 441.16 110.01 439.88 108.10 C 438.36 107.28 436.69 106.78 435.07 106.19 M 460.00 107.36 C 460.59 107.49 461.77 107.74 462.36 107.86 C 462.26 109.54 460.05 109.54 459.47 110.83 C 460.43 113.41 456.59 114.23 457.60 116.91 L 455.61 116.71 C 455.66 114.52 455.71 112.33 455.79 110.14 L 455.28 110.24 C 454.95 114.86 455.74 119.40 455.46 124.00 C 455.53 123.40 455.68 122.20 455.75 121.60 L 456.43 121.73 C 456.27 121.21 455.94 120.18 455.78 119.66 C 457.76 118.74 459.85 118.38 461.99 118.96 C 460.83 118.00 458.01 117.27 459.78 115.44 C 459.27 115.50 458.25 115.62 457.74 115.68 C 458.59 113.99 460.20 112.25 462.20 112.10 C 462.27 112.84 462.41 114.31 462.48 115.05 C 463.22 113.62 462.67 111.98 461.76 110.77 C 462.11 109.67 462.46 108.57 462.80 107.47 C 462.10 107.44 460.70 107.39 460.00 107.36 M 461.34 120.29 C 460.29 120.83 459.69 123.92 461.63 122.86 C 463.13 122.54 463.15 119.49 461.34 120.29 Z" />
<path fill="#121313" opacity="1.00" d=" M 444.04 62.99 C 446.35 65.81 450.56 66.17 452.50 69.18 C 449.85 69.11 447.19 69.20 444.55 69.48 L 444.43 69.48 C 444.37 69.91 444.26 70.77 444.20 71.20 C 444.04 71.59 443.71 72.38 443.55 72.78 L 443.28 73.49 C 442.48 75.48 441.84 77.52 441.22 79.58 C 445.09 79.89 448.96 80.14 452.80 80.76 L 452.25 79.54 C 454.00 79.53 455.76 79.57 457.52 79.62 L 457.86 77.40 C 455.86 77.04 453.89 76.63 451.92 76.22 C 452.40 76.06 453.36 75.75 453.84 75.59 C 455.49 75.66 457.14 75.62 458.80 75.51 C 459.23 74.20 459.66 72.89 460.11 71.58 C 459.49 71.57 458.26 71.56 457.65 71.55 L 457.90 70.75 C 458.30 70.32 459.12 69.46 459.53 69.03 C 459.78 68.67 460.30 67.94 460.56 67.58 C 461.16 67.42 462.35 67.09 462.94 66.92 C 462.42 68.60 462.08 70.33 461.89 72.08 C 459.64 77.26 458.55 82.85 456.71 88.18 C 452.11 87.95 447.63 86.91 443.17 85.86 C 441.95 84.06 440.28 82.67 438.44 81.56 C 440.50 75.45 443.00 69.38 444.04 62.99 Z" />
<path fill="#cd603b" opacity="1.00" d=" M 509.38 63.57 C 511.03 69.38 510.93 75.51 511.02 81.50 C 510.49 81.54 509.44 81.62 508.92 81.66 C 508.83 84.24 508.86 86.82 508.90 89.40 C 507.96 88.13 507.24 86.68 507.58 85.06 C 508.45 77.92 508.79 70.73 509.38 63.57 Z" />
<path fill="#9e877f" opacity="1.00" d=" M 444.43 69.48 L 444.55 69.48 C 446.96 69.90 449.40 69.99 451.84 69.95 C 451.60 70.92 451.36 71.90 451.13 72.88 C 453.13 72.69 455.36 71.69 457.16 73.11 C 457.28 72.72 457.52 71.94 457.65 71.55 C 458.26 71.56 459.49 71.57 460.11 71.58 C 459.66 72.89 459.23 74.20 458.80 75.51 C 457.14 75.62 455.49 75.66 453.84 75.59 C 453.36 75.19 452.38 74.41 451.90 74.01 C 451.55 74.14 450.86 74.41 450.52 74.54 C 448.63 75.28 446.89 76.33 445.27 77.54 C 444.57 76.20 443.88 74.86 443.28 73.49 L 443.55 72.78 C 444.69 72.68 445.85 72.59 447.00 72.50 C 446.82 73.22 446.45 74.65 446.27 75.37 C 447.66 74.62 448.93 73.65 450.07 72.55 C 448.10 72.14 446.13 71.75 444.20 71.20 C 444.26 70.77 444.37 69.91 444.43 69.48 Z" />
<path fill="#fdfef4" opacity="1.00" d=" M 444.55 69.48 C 447.19 69.20 449.85 69.11 452.50 69.18 C 454.84 69.27 457.19 69.32 459.53 69.03 C 459.12 69.46 458.30 70.32 457.90 70.75 L 457.65 71.55 C 457.52 71.94 457.28 72.72 457.16 73.11 C 455.36 71.69 453.13 72.69 451.13 72.88 C 451.36 71.90 451.60 70.92 451.84 69.95 C 449.40 69.99 446.96 69.90 444.55 69.48 Z" />
<path fill="#705b49" opacity="1.00" d=" M 526.14 69.12 C 529.19 67.61 526.38 72.36 526.14 69.12 Z" />
<path fill="#6c5545" opacity="1.00" d=" M 521.05 70.20 C 522.49 69.68 522.99 70.11 522.56 71.47 C 521.11 72.02 520.61 71.59 521.05 70.20 Z" />
<path fill="#cecdb5" opacity="1.00" d=" M 444.20 71.20 C 446.13 71.75 448.10 72.14 450.07 72.55 C 448.93 73.65 447.66 74.62 446.27 75.37 C 446.45 74.65 446.82 73.22 447.00 72.50 C 445.85 72.59 444.69 72.68 443.55 72.78 C 443.71 72.38 444.04 71.59 444.20 71.20 Z" />
<path fill="#dfa37e" opacity="1.00" d=" M 468.37 76.09 C 467.30 74.28 466.41 70.11 469.77 70.51 L 469.73 71.60 C 469.56 72.68 469.38 73.75 469.19 74.82 C 470.53 74.98 471.10 75.64 470.87 76.79 C 469.61 77.21 468.33 77.58 467.08 78.00 C 467.40 77.53 468.05 76.57 468.37 76.09 Z" />
<path fill="#181715" opacity="1.00" d=" M 470.91 74.90 C 471.47 73.47 472.04 72.04 472.73 70.66 C 474.86 75.24 471.05 80.35 473.62 84.75 C 473.70 85.14 473.87 85.93 473.95 86.33 C 473.46 86.27 472.49 86.17 472.00 86.11 L 470.63 85.98 C 470.35 83.53 470.47 81.07 470.69 78.63 C 470.74 78.17 470.83 77.25 470.87 76.79 C 471.10 75.64 470.53 74.98 469.19 74.82 C 469.38 73.75 469.56 72.68 469.73 71.60 C 470.03 72.43 470.62 74.08 470.91 74.90 Z" />
<path fill="#3f403e" opacity="1.00" d=" M 480.43 70.42 C 482.40 70.88 481.79 72.62 481.56 74.10 C 481.88 73.99 482.51 73.79 482.82 73.68 C 481.79 76.08 480.63 78.41 479.66 80.83 C 479.15 82.12 478.69 83.42 478.23 84.72 C 479.30 84.82 480.37 84.93 481.45 85.05 C 485.47 85.47 489.27 87.08 493.29 87.41 L 493.98 85.79 C 493.25 85.52 491.79 84.97 491.06 84.69 L 491.33 83.92 C 492.45 84.47 493.57 85.03 494.70 85.59 C 494.43 86.28 493.87 87.66 493.59 88.35 C 496.20 87.89 496.06 84.74 497.04 82.84 L 497.37 82.06 C 497.78 81.09 498.21 80.13 498.66 79.17 C 501.24 78.11 501.79 75.18 502.80 72.89 C 504.26 74.31 505.75 75.70 507.27 77.07 C 507.17 79.68 507.04 82.28 506.80 84.87 C 504.23 83.96 501.78 82.66 500.16 80.39 C 498.83 84.03 497.23 87.56 495.55 91.05 C 494.33 90.84 493.12 90.62 491.92 90.37 C 491.25 90.22 489.90 89.91 489.23 89.76 C 484.90 88.66 480.57 87.50 476.16 86.78 C 475.61 86.67 474.50 86.44 473.95 86.33 C 473.87 85.93 473.70 85.14 473.62 84.75 C 475.58 79.84 478.02 75.13 480.43 70.42 Z" />
<path fill="#cd603b" opacity="1.00" d=" M 511.94 70.59 C 515.26 75.62 517.65 81.22 521.07 86.20 C 521.17 87.46 521.06 88.69 520.72 89.90 C 520.31 89.67 519.49 89.20 519.07 88.96 C 518.76 87.90 518.43 86.84 518.09 85.79 C 516.74 83.88 514.36 83.23 512.42 82.13 C 512.10 78.29 511.84 74.44 511.94 70.59 Z" />
<path fill="#5e4b34" opacity="1.00" d=" M 516.34 71.30 C 517.99 70.70 518.59 71.21 518.13 72.84 C 516.50 73.40 515.90 72.88 516.34 71.30 Z" />
<path fill="#8f678f" opacity="1.00" d=" M 532.07 71.30 C 533.68 71.26 534.00 73.33 534.93 74.26 C 534.47 74.46 533.54 74.84 533.08 75.03 C 531.64 75.57 530.23 76.14 528.80 76.65 L 528.04 76.90 C 526.32 77.45 524.61 78.00 522.93 78.64 C 523.04 78.18 523.25 77.27 523.36 76.81 C 523.47 76.70 523.68 76.47 523.79 76.36 L 523.46 76.30 C 522.35 76.09 520.12 75.69 519.01 75.49 C 520.88 74.73 522.86 74.09 524.41 72.72 C 526.96 72.27 529.47 71.45 532.07 71.30 M 529.27 73.98 C 529.33 77.20 532.40 72.52 529.27 73.98 Z" />
<path fill="#dfa37e" opacity="1.00" d=" M 456.71 88.18 C 458.55 82.85 459.64 77.26 461.89 72.08 C 461.22 78.43 458.31 84.28 457.24 90.56 C 455.63 91.69 454.03 92.86 452.24 93.70 C 452.38 92.91 452.54 92.12 452.74 91.35 C 452.42 91.34 451.79 91.34 451.48 91.34 C 450.79 91.22 449.42 90.98 448.73 90.85 L 449.46 89.77 C 451.65 90.14 453.85 90.44 456.08 90.47 C 456.24 89.90 456.55 88.75 456.71 88.18 Z" />
<path fill="#756a5b" opacity="1.00" d=" M 485.85 72.56 C 487.31 72.42 488.76 72.61 490.21 72.85 C 490.33 73.01 490.57 73.31 490.69 73.46 L 490.81 72.91 C 491.40 72.94 492.57 73.00 493.15 73.03 L 493.25 73.66 C 493.38 73.51 493.64 73.21 493.77 73.06 L 495.22 73.14 L 495.32 73.72 C 495.45 73.59 495.70 73.32 495.82 73.18 C 497.44 73.46 499.03 73.89 500.63 74.30 C 499.47 75.70 498.86 77.37 498.66 79.17 C 498.21 80.13 497.78 81.09 497.37 82.06 C 497.07 81.74 496.47 81.09 496.18 80.76 C 495.92 80.55 495.42 80.14 495.17 79.93 C 495.23 79.38 495.37 78.27 495.44 77.72 C 493.25 77.75 491.07 77.82 488.90 77.97 C 489.18 78.28 489.75 78.91 490.03 79.22 C 489.34 80.68 488.66 82.15 488.00 83.62 C 487.39 83.23 486.18 82.46 485.58 82.07 L 486.95 81.91 C 486.85 81.53 486.64 80.76 486.54 80.38 C 487.17 79.54 487.81 78.70 488.45 77.85 C 485.72 79.44 483.00 81.37 479.66 80.83 C 480.63 78.41 481.79 76.08 482.82 73.68 C 483.38 73.48 484.48 73.08 485.03 72.87 C 484.71 75.24 488.23 73.54 485.85 72.56 M 482.15 78.15 C 482.71 78.69 482.71 78.69 482.15 78.15 Z" />
<path fill="#899780" opacity="1.00" d=" M 485.03 72.87 L 485.85 72.56 C 488.23 73.54 484.71 75.24 485.03 72.87 Z" />
<path fill="#9aa28a" opacity="1.00" d=" M 490.21 72.85 L 490.81 72.91 L 490.69 73.46 C 490.57 73.31 490.33 73.01 490.21 72.85 Z" />
<path fill="#7fbfd7" opacity="1.00" d=" M 493.15 73.03 L 493.77 73.06 C 493.64 73.21 493.38 73.51 493.25 73.66 L 493.15 73.03 Z" />
<path fill="#b2bf9b" opacity="1.00" d=" M 495.22 73.14 L 495.82 73.18 C 495.70 73.32 495.45 73.59 495.32 73.72 L 495.22 73.14 Z" />
<path fill="#b6b5b3" opacity="1.00" d=" M 443.28 73.49 C 443.88 74.86 444.57 76.20 445.27 77.54 C 446.89 76.33 448.63 75.28 450.52 74.54 C 450.07 76.51 450.88 78.17 452.25 79.54 L 452.80 80.76 C 448.96 80.14 445.09 79.89 441.22 79.58 C 441.84 77.52 442.48 75.48 443.28 73.49 Z" />
<path fill="#cfdbdd" opacity="1.00" d=" M 450.52 74.54 C 450.86 74.41 451.55 74.14 451.90 74.01 C 452.38 74.41 453.36 75.19 453.84 75.59 C 453.36 75.75 452.40 76.06 451.92 76.22 C 453.89 76.63 455.86 77.04 457.86 77.40 L 457.52 79.62 C 455.76 79.57 454.00 79.53 452.25 79.54 C 450.88 78.17 450.07 76.51 450.52 74.54 Z" />
<path fill="#c299ba" opacity="1.00" d=" M 529.27 73.98 C 532.40 72.52 529.33 77.20 529.27 73.98 Z" />
<path fill="#c79042" opacity="1.00" d=" M 528.80 76.65 C 530.23 76.14 531.64 75.57 533.08 75.03 C 533.52 74.92 534.41 74.70 534.86 74.59 C 535.88 76.46 536.88 78.34 538.01 80.15 C 532.90 82.16 528.04 85.08 522.58 86.04 C 521.71 83.99 520.74 81.97 519.74 79.98 C 520.79 79.52 521.86 79.07 522.93 78.64 C 524.61 78.00 526.32 77.45 528.04 76.90 C 527.80 77.40 527.32 78.40 527.08 78.90 C 526.77 79.50 526.16 80.70 525.85 81.30 C 525.39 83.13 527.25 82.88 528.40 82.59 C 530.24 82.21 531.87 81.24 533.48 80.32 C 533.87 79.98 534.65 79.31 535.04 78.98 C 534.74 78.60 534.15 77.84 533.85 77.46 C 533.67 77.45 533.29 77.42 533.10 77.41 L 532.35 77.97 C 531.80 77.96 530.68 77.95 530.13 77.95 C 529.79 77.62 529.13 76.98 528.80 76.65 Z" />
<path fill="#765674" opacity="1.00" d=" M 517.60 75.55 C 517.95 75.53 518.66 75.50 519.01 75.49 C 520.12 75.69 522.35 76.09 523.46 76.30 L 523.36 76.81 C 523.25 77.27 523.04 78.18 522.93 78.64 C 521.86 79.07 520.79 79.52 519.74 79.98 C 519.01 78.51 518.30 77.03 517.60 75.55 Z" />
<path fill="#cfa4c6" opacity="1.00" d=" M 523.46 76.30 L 523.79 76.36 C 523.68 76.47 523.47 76.70 523.36 76.81 L 523.46 76.30 Z" />
<path fill="#4e978b" opacity="1.00" d=" M 467.08 78.00 C 468.33 77.58 469.61 77.21 470.87 76.79 C 470.83 77.25 470.74 78.17 470.69 78.63 C 470.36 79.85 470.00 81.05 469.69 82.28 C 470.01 80.45 469.45 79.24 468.01 78.66 C 468.05 79.50 468.11 81.18 468.15 82.02 C 466.92 82.95 465.60 83.73 464.18 84.32 L 463.66 83.24 C 464.07 81.77 464.54 80.31 464.99 78.84 C 465.52 78.63 466.56 78.21 467.08 78.00 Z" />
<path fill="#6e4a3d" opacity="1.00" d=" M 528.04 76.90 L 528.80 76.65 C 529.13 76.98 529.79 77.62 530.13 77.95 C 529.21 78.64 528.20 78.96 527.08 78.90 C 527.32 78.40 527.80 77.40 528.04 76.90 Z" />
<path fill="#2f4289" opacity="1.00" d=" M 533.10 77.41 C 533.29 77.42 533.67 77.45 533.85 77.46 L 533.10 77.41 Z" />
<path fill="#5f81ad" opacity="1.00" d=" M 482.15 78.15 C 482.71 78.69 482.71 78.69 482.15 78.15 Z" />
<path fill="#a4b5a3" opacity="1.00" d=" M 479.66 80.83 C 483.00 81.37 485.72 79.44 488.45 77.85 C 487.81 78.70 487.17 79.54 486.54 80.38 C 486.64 80.76 486.85 81.53 486.95 81.91 L 485.58 82.07 C 483.57 81.94 482.32 83.46 481.45 85.05 C 480.37 84.93 479.30 84.82 478.23 84.72 C 478.69 83.42 479.15 82.12 479.66 80.83 Z" />
<path fill="#eeede5" opacity="1.00" d=" M 488.90 77.97 C 491.07 77.82 493.25 77.75 495.44 77.72 C 495.37 78.27 495.23 79.38 495.17 79.93 C 494.18 80.42 493.19 80.90 492.21 81.39 C 491.66 80.85 490.57 79.76 490.03 79.22 C 489.75 78.91 489.18 78.28 488.90 77.97 Z" />
<path fill="#755b68" opacity="1.00" d=" M 527.08 78.90 C 528.20 78.96 529.21 78.64 530.13 77.95 C 530.68 77.95 531.80 77.96 532.35 77.97 C 532.64 78.56 533.20 79.73 533.48 80.32 C 531.87 81.24 530.24 82.21 528.40 82.59 C 527.25 82.88 525.39 83.13 525.85 81.30 C 526.16 80.70 526.77 79.50 527.08 78.90 M 528.19 80.23 C 528.68 80.83 528.68 80.83 528.19 80.23 Z" />
<path fill="#985b2f" opacity="1.00" d=" M 532.35 77.97 L 533.10 77.41 L 533.85 77.46 C 534.15 77.84 534.74 78.60 535.04 78.98 C 534.65 79.31 533.87 79.98 533.48 80.32 C 533.20 79.73 532.64 78.56 532.35 77.97 Z" />
<path fill="#817d6f" opacity="1.00" d=" M 461.75 79.23 C 462.56 79.13 464.18 78.94 464.99 78.84 C 464.54 80.31 464.07 81.77 463.66 83.24 C 462.99 81.92 462.35 80.58 461.75 79.23 Z" />
<path fill="#dbb078" opacity="1.00" d=" M 469.69 82.28 C 470.00 81.05 470.36 79.85 470.69 78.63 C 470.47 81.07 470.35 83.53 470.63 85.98 L 472.00 86.11 C 471.48 86.93 470.95 87.75 470.50 88.61 C 470.30 89.87 470.51 91.12 471.12 92.33 C 467.65 91.87 464.15 91.76 460.67 91.55 C 461.01 91.11 461.70 90.24 462.04 89.80 C 461.67 88.74 461.29 87.68 460.90 86.63 C 461.41 87.11 462.42 88.08 462.93 88.56 C 463.03 87.52 463.24 85.45 463.34 84.42 C 463.92 85.72 464.29 87.09 464.43 88.53 C 464.79 88.11 465.52 87.28 465.88 86.87 C 466.44 86.53 467.54 85.84 468.10 85.50 L 469.00 85.87 C 469.22 84.67 469.45 83.47 469.69 82.28 M 467.30 88.19 C 466.73 89.68 467.14 90.12 468.52 89.53 C 469.11 88.04 468.70 87.60 467.30 88.19 Z" />
<path fill="#b3957c" opacity="1.00" d=" M 488.00 83.62 C 488.66 82.15 489.34 80.68 490.03 79.22 C 490.57 79.76 491.66 80.85 492.21 81.39 C 491.91 82.23 491.62 83.07 491.33 83.92 L 491.06 84.69 C 490.03 84.33 489.00 84.00 488.00 83.62 Z" />
<path fill="#99ba95" opacity="1.00" d=" M 492.21 81.39 C 493.19 80.90 494.18 80.42 495.17 79.93 C 495.42 80.14 495.92 80.55 496.18 80.76 C 496.39 81.28 496.82 82.32 497.04 82.84 C 496.06 84.74 496.20 87.89 493.59 88.35 C 493.87 87.66 494.43 86.28 494.70 85.59 C 493.57 85.03 492.45 84.47 491.33 83.92 C 491.62 83.07 491.91 82.23 492.21 81.39 M 493.20 82.12 C 493.55 85.32 496.21 80.51 493.20 82.12 Z" />
<path fill="#71271f" opacity="1.00" d=" M 528.19 80.23 C 528.68 80.83 528.68 80.83 528.19 80.23 Z" />
<path fill="#151513" opacity="1.00" d=" M 522.58 86.04 C 528.04 85.08 532.90 82.16 538.01 80.15 C 539.53 79.99 540.97 80.58 542.41 81.01 C 534.98 84.56 527.59 88.26 519.88 91.14 C 519.86 92.98 521.24 94.22 522.56 95.28 C 525.29 97.34 528.07 99.36 530.89 101.31 C 533.19 99.99 535.47 98.63 537.79 97.33 C 538.20 97.11 539.01 96.67 539.42 96.45 C 539.68 96.15 540.21 95.54 540.47 95.23 C 540.57 94.39 540.75 92.71 540.85 91.87 C 541.64 93.19 543.70 92.61 543.84 91.12 C 543.93 91.65 544.11 92.71 544.20 93.24 C 545.60 93.10 546.77 92.32 547.91 91.55 C 549.97 90.08 552.20 88.88 554.41 87.65 C 554.38 88.48 554.31 90.14 554.28 90.98 C 554.02 91.09 553.52 91.32 553.26 91.43 C 549.93 91.71 547.58 94.97 544.09 94.32 C 542.27 95.14 541.23 96.81 540.18 98.40 C 537.56 100.44 534.34 101.62 531.98 104.01 C 538.47 100.54 544.20 95.81 550.85 92.61 C 550.62 101.01 549.28 109.31 548.54 117.67 C 542.30 122.42 536.65 127.88 530.78 133.05 C 531.26 124.66 532.08 116.27 531.84 107.85 C 531.86 107.38 531.90 106.44 531.93 105.97 C 530.59 105.67 529.26 105.37 527.94 105.07 C 527.42 104.00 526.91 102.94 526.41 101.87 C 527.08 101.78 528.43 101.60 529.10 101.51 C 528.56 101.46 527.47 101.35 526.93 101.29 C 524.68 99.80 522.33 98.45 520.09 96.94 C 519.81 96.63 519.23 96.00 518.94 95.69 C 519.23 93.46 519.45 91.20 519.07 88.96 C 519.49 89.20 520.31 89.67 520.72 89.90 C 521.06 88.69 521.17 87.46 521.07 86.20 L 522.58 86.04 M 544.32 101.27 C 543.67 102.69 544.07 103.13 545.53 102.58 C 546.18 101.16 545.77 100.72 544.32 101.27 M 537.32 106.28 C 536.18 106.28 534.55 107.40 535.09 108.68 C 536.28 109.63 538.97 107.11 537.32 106.28 Z" />
<path fill="#bcd8c7" opacity="1.00" d=" M 496.18 80.76 C 496.47 81.09 497.07 81.74 497.37 82.06 L 497.04 82.84 C 496.82 82.32 496.39 81.28 496.18 80.76 Z" />
<path fill="#ffffe7" opacity="1.00" d=" M 508.92 81.66 C 509.44 81.62 510.49 81.54 511.02 81.50 C 511.37 81.66 512.07 81.98 512.42 82.13 C 514.36 83.23 516.74 83.88 518.09 85.79 C 517.41 85.35 516.06 84.49 515.39 84.06 C 515.19 85.65 514.96 87.24 514.72 88.83 C 516.55 91.49 516.98 94.70 517.16 97.85 L 516.67 98.45 C 516.33 96.69 516.03 94.93 515.73 93.17 C 512.95 94.64 515.28 97.96 515.25 100.24 C 515.48 101.55 515.73 102.86 516.06 104.15 C 517.09 107.57 517.74 111.06 518.02 114.62 C 518.20 114.70 518.55 114.88 518.72 114.97 C 519.62 111.54 518.95 107.95 518.85 104.46 C 518.18 104.04 516.83 103.22 516.16 102.80 C 516.10 101.79 516.04 100.79 515.97 99.78 C 516.91 100.09 517.85 100.40 518.80 100.71 C 519.17 104.08 519.24 107.47 519.39 110.85 C 519.44 112.95 520.33 115.51 518.07 116.82 C 517.90 116.43 517.57 115.65 517.41 115.26 C 517.23 113.13 517.22 110.93 516.37 108.93 C 514.46 105.86 512.93 102.57 511.62 99.20 C 510.94 96.84 510.88 94.34 510.03 92.02 C 510.44 90.58 510.84 89.15 511.22 87.71 C 511.72 87.58 512.74 87.31 513.24 87.18 C 513.25 85.77 513.26 84.36 513.29 82.96 C 512.12 82.62 510.96 82.28 509.81 81.93 L 508.92 81.66 Z" />
<path fill="#4b423e" opacity="1.00" d=" M 542.41 81.01 L 543.09 81.00 C 542.62 83.70 543.61 86.38 543.76 89.08 C 545.13 89.91 546.52 90.74 547.91 91.55 C 546.77 92.32 545.60 93.10 544.20 93.24 C 544.11 92.71 543.93 91.65 543.84 91.12 L 543.70 90.34 C 542.79 89.77 541.83 89.63 540.83 89.91 C 538.98 88.02 536.53 86.97 534.12 86.02 C 535.20 87.07 536.29 88.11 537.40 89.16 C 536.83 89.17 535.68 89.21 535.11 89.22 C 534.81 89.39 534.21 89.73 533.91 89.90 L 534.13 90.74 L 533.23 91.05 C 531.84 91.00 530.46 90.97 529.08 90.95 C 528.72 91.20 528.00 91.70 527.63 91.94 C 526.50 92.96 526.69 93.62 528.20 93.92 L 528.30 95.07 C 527.99 95.30 527.36 95.78 527.04 96.01 C 526.66 95.56 525.88 94.66 525.50 94.21 C 524.51 94.57 523.53 94.92 522.56 95.28 C 521.24 94.22 519.86 92.98 519.88 91.14 C 527.59 88.26 534.98 84.56 542.41 81.01 M 537.27 85.19 C 537.83 85.74 537.83 85.74 537.27 85.19 M 541.19 86.02 C 539.70 89.11 544.41 86.25 541.19 86.02 M 532.24 87.25 C 532.80 87.83 532.80 87.83 532.24 87.25 M 526.20 90.19 C 526.78 90.76 526.78 90.76 526.20 90.19 Z" />
<path fill="#b06b5f" opacity="1.00" d=" M 543.09 81.00 L 543.29 80.42 C 543.88 82.70 544.26 86.38 547.26 86.65 C 547.46 86.25 547.88 85.45 548.08 85.05 C 548.22 84.48 548.50 83.35 548.63 82.78 L 549.97 82.96 C 552.00 84.04 553.95 85.26 556.03 86.26 C 555.63 86.61 554.81 87.30 554.41 87.65 C 552.20 88.88 549.97 90.08 547.91 91.55 C 546.52 90.74 545.13 89.91 543.76 89.08 C 543.61 86.38 542.62 83.70 543.09 81.00 Z" />
<path fill="#5d4843" opacity="0.93" d=" M 543.29 80.42 C 545.85 79.79 547.91 81.80 549.97 82.96 L 548.63 82.78 C 546.89 82.01 546.22 84.84 548.08 85.05 C 547.88 85.45 547.46 86.25 547.26 86.65 C 544.26 86.38 543.88 82.70 543.29 80.42 Z" />
<path fill="#33302d" opacity="1.00" d=" M 438.44 81.56 C 440.28 82.67 441.95 84.06 443.17 85.86 C 442.65 85.89 441.62 85.93 441.11 85.95 C 441.40 86.54 441.99 87.71 442.28 88.29 C 440.51 87.81 438.75 87.30 437.00 86.79 C 437.27 85.00 437.76 83.25 438.44 81.56 Z" />
<path fill="#cecdb5" opacity="1.00" d=" M 481.45 85.05 C 482.32 83.46 483.57 81.94 485.58 82.07 C 486.18 82.46 487.39 83.23 488.00 83.62 C 489.00 84.00 490.03 84.33 491.06 84.69 C 491.79 84.97 493.25 85.52 493.98 85.79 L 493.29 87.41 C 489.27 87.08 485.47 85.47 481.45 85.05 Z" />
<path fill="#ddc2ba" opacity="1.00" d=" M 493.20 82.12 C 496.21 80.51 493.55 85.32 493.20 82.12 Z" />
<path fill="#777587" opacity="1.00" d=" M 508.92 81.66 L 509.81 81.93 C 509.82 83.97 509.85 86.02 509.89 88.06 L 511.22 87.71 C 510.84 89.15 510.44 90.58 510.03 92.02 C 510.88 94.34 510.94 96.84 511.62 99.20 C 510.53 101.54 511.19 104.16 510.98 106.64 L 510.68 108.34 C 510.58 107.76 510.37 106.59 510.27 106.00 C 509.92 100.60 509.76 95.17 508.96 89.81 L 508.90 89.40 C 508.86 86.82 508.83 84.24 508.92 81.66 Z" />
<path fill="#092770" opacity="1.00" d=" M 509.81 81.93 C 510.96 82.28 512.12 82.62 513.29 82.96 C 513.26 84.36 513.25 85.77 513.24 87.18 C 512.74 87.31 511.72 87.58 511.22 87.71 L 509.89 88.06 C 509.85 86.02 509.82 83.97 509.81 81.93 Z" />
<path fill="#ba3338" opacity="1.00" d=" M 548.08 85.05 C 546.22 84.84 546.89 82.01 548.63 82.78 C 548.50 83.35 548.22 84.48 548.08 85.05 Z" />
<path fill="#6cc0af" opacity="1.00" d=" M 465.88 86.87 C 465.19 85.31 467.14 83.71 468.10 85.50 C 467.54 85.84 466.44 86.53 465.88 86.87 Z" />
<path fill="#e11c28" opacity="1.00" d=" M 515.39 84.06 C 516.06 84.49 517.41 85.35 518.09 85.79 C 518.08 89.47 518.52 93.18 518.01 96.85 L 517.16 97.85 C 516.98 94.70 516.55 91.49 514.72 88.83 C 514.96 87.24 515.19 85.65 515.39 84.06 Z" />
<path fill="#a62d25" opacity="1.00" d=" M 537.27 85.19 C 537.83 85.74 537.83 85.74 537.27 85.19 Z" />
<path fill="#4b423e" opacity="1.00" d=" M 428.90 89.52 C 431.17 88.32 433.44 87.09 435.85 86.16 C 435.87 86.74 435.93 87.89 435.96 88.47 C 435.93 89.20 435.87 90.66 435.84 91.39 C 433.74 90.09 431.37 89.34 428.90 89.52 M 434.20 89.22 C 434.79 89.82 434.79 89.82 434.20 89.22 Z" />
<path fill="#3f403e" opacity="1.00" d=" M 441.11 85.95 C 441.62 85.93 442.65 85.89 443.17 85.86 C 447.63 86.91 452.11 87.95 456.71 88.18 C 456.55 88.75 456.24 89.90 456.08 90.47 C 453.85 90.44 451.65 90.14 449.46 89.77 C 449.02 89.68 448.14 89.50 447.70 89.41 L 447.21 89.31 C 446.10 88.91 445.00 88.50 443.91 88.09 C 444.18 89.16 444.48 90.23 444.79 91.30 L 445.43 92.29 C 444.82 92.56 443.60 93.08 443.00 93.35 C 443.00 91.40 441.64 90.68 439.95 90.39 C 440.34 90.11 441.12 89.53 441.51 89.25 C 441.89 89.35 442.63 89.56 443.00 89.66 C 442.82 89.32 442.46 88.63 442.28 88.29 C 441.99 87.71 441.40 86.54 441.11 85.95 Z" />
<path fill="#ffffea" opacity="1.00" d=" M 472.00 86.11 C 472.49 86.17 473.46 86.27 473.95 86.33 C 474.50 86.44 475.61 86.67 476.16 86.78 C 475.33 87.52 474.52 88.26 473.72 89.01 C 475.85 89.33 477.99 89.70 480.11 90.12 C 477.26 90.16 474.45 89.71 471.74 88.84 C 471.43 88.78 470.81 88.66 470.50 88.61 C 470.95 87.75 471.48 86.93 472.00 86.11 Z" />
<path fill="#dc958d" opacity="1.00" d=" M 518.09 85.79 C 518.43 86.84 518.76 87.90 519.07 88.96 C 519.45 91.20 519.23 93.46 518.94 95.69 C 518.71 97.35 518.63 99.03 518.80 100.71 C 517.85 100.40 516.91 100.09 515.97 99.78 C 516.04 100.79 516.10 101.79 516.16 102.80 C 516.14 103.14 516.09 103.82 516.06 104.15 C 515.73 102.86 515.48 101.55 515.25 100.24 C 515.71 99.64 516.19 99.04 516.67 98.45 L 517.16 97.85 L 518.01 96.85 C 518.52 93.18 518.08 89.47 518.09 85.79 Z" />
<path fill="#9e7868" opacity="1.00" d=" M 534.12 86.02 C 536.53 86.97 538.98 88.02 540.83 89.91 C 540.84 90.40 540.84 91.38 540.85 91.87 C 540.75 92.71 540.57 94.39 540.47 95.23 C 538.70 94.90 538.35 95.31 539.42 96.45 C 539.01 96.67 538.20 97.11 537.79 97.33 C 536.28 96.59 534.59 95.89 533.84 94.28 C 533.72 93.68 533.47 92.50 533.35 91.90 L 534.12 92.14 C 534.34 91.85 534.77 91.27 534.98 90.97 C 535.01 90.54 535.08 89.66 535.11 89.22 C 535.68 89.21 536.83 89.17 537.40 89.16 C 536.29 88.11 535.20 87.07 534.12 86.02 M 537.24 90.42 C 536.57 91.43 537.79 93.26 539.01 92.74 C 539.92 91.74 538.40 89.82 537.24 90.42 Z" />
<path fill="#c9272a" opacity="1.00" d=" M 541.19 86.02 C 544.41 86.25 539.70 89.11 541.19 86.02 Z" />
<path fill="#040303" opacity="0.53" d=" M 556.03 86.26 C 557.11 89.85 554.84 93.07 552.04 95.02 C 551.47 102.95 550.72 110.87 549.52 118.74 C 544.48 122.57 539.87 126.92 535.13 131.09 C 533.91 132.05 533.09 133.37 532.42 134.73 C 531.49 134.61 530.34 134.81 530.03 133.70 L 530.78 133.05 C 536.65 127.88 542.30 122.42 548.54 117.67 C 549.28 109.31 550.62 101.01 550.85 92.61 C 551.45 92.32 552.66 91.73 553.26 91.43 C 553.52 91.32 554.02 91.09 554.28 90.98 C 554.31 90.14 554.38 88.48 554.41 87.65 C 554.81 87.30 555.63 86.61 556.03 86.26 Z" />
<path fill="#c39f8b" opacity="1.00" d=" M 476.16 86.78 C 480.57 87.50 484.90 88.66 489.23 89.76 C 487.42 89.93 485.63 90.18 483.84 90.35 C 483.04 90.31 481.44 90.23 480.64 90.19 L 480.11 90.12 C 477.99 89.70 475.85 89.33 473.72 89.01 C 474.52 88.26 475.33 87.52 476.16 86.78 Z" />
<path fill="#bc2220" opacity="1.00" d=" M 532.24 87.25 C 532.80 87.83 532.80 87.83 532.24 87.25 Z" />
<path fill="#af8e7a" opacity="1.00" d=" M 443.91 88.09 C 445.00 88.50 446.10 88.91 447.21 89.31 C 447.35 89.42 447.64 89.65 447.78 89.76 L 447.70 89.41 C 448.14 89.50 449.02 89.68 449.46 89.77 L 448.73 90.85 C 447.41 91.00 446.10 91.14 444.79 91.30 C 444.48 90.23 444.18 89.16 443.91 88.09 Z" />
<path fill="#ad7553" opacity="1.00" d=" M 467.30 88.19 C 468.70 87.60 469.11 88.04 468.52 89.53 C 467.14 90.12 466.73 89.68 467.30 88.19 Z" />
<path fill="#dfa37e" opacity="1.00" d=" M 425.93 91.20 C 426.90 90.62 427.85 89.98 428.90 89.52 C 431.37 89.34 433.74 90.09 435.84 91.39 L 436.44 91.71 C 437.63 91.35 438.79 90.90 439.95 90.39 C 441.64 90.68 443.00 91.40 443.00 93.35 C 443.60 93.08 444.82 92.56 445.43 92.29 C 446.31 92.57 447.19 92.86 448.08 93.14 C 448.97 93.49 449.85 93.85 450.73 94.24 C 449.81 95.36 448.68 96.27 447.60 97.23 L 447.18 97.11 C 442.81 95.90 438.44 94.69 434.05 93.54 C 432.68 92.29 430.92 91.36 429.04 92.00 C 428.50 91.86 427.40 91.58 426.86 91.44 C 426.63 91.38 426.16 91.26 425.93 91.20 M 439.36 92.14 C 439.66 93.38 440.46 93.60 441.75 92.78 C 441.44 91.52 440.64 91.30 439.36 92.14 M 444.45 94.72 C 445.74 95.29 446.72 95.05 447.38 93.99 C 447.09 92.01 443.28 92.98 444.45 94.72 Z" />
<path fill="#bfb373" opacity="1.00" d=" M 434.20 89.22 C 434.79 89.82 434.79 89.82 434.20 89.22 Z" />
<path fill="#4d6da1" opacity="1.00" d=" M 435.96 88.47 C 437.82 88.62 439.69 88.80 441.51 89.25 C 441.12 89.53 440.34 90.11 439.95 90.39 C 438.79 90.90 437.63 91.35 436.44 91.71 L 435.84 91.39 C 435.87 90.66 435.93 89.20 435.96 88.47 Z" />
<path fill="#f4efdc" opacity="1.00" d=" M 447.21 89.31 L 447.70 89.41 L 447.78 89.76 C 447.64 89.65 447.35 89.42 447.21 89.31 Z" />
<path fill="#483d49" opacity="1.00" d=" M 470.50 88.61 C 470.81 88.66 471.43 88.78 471.74 88.84 C 472.01 90.07 472.10 91.32 472.04 92.59 C 471.81 92.53 471.35 92.40 471.12 92.33 C 470.51 91.12 470.30 89.87 470.50 88.61 Z" />
<path fill="#dfa37e" opacity="1.00" d=" M 471.74 88.84 C 474.45 89.71 477.26 90.16 480.11 90.12 L 480.64 90.19 C 481.87 90.88 483.08 91.61 484.31 92.33 C 483.01 92.94 481.72 93.53 480.43 94.11 C 480.07 93.57 479.37 92.48 479.01 91.93 C 478.76 92.12 478.25 92.50 477.99 92.69 C 477.20 92.80 475.63 93.01 474.84 93.12 C 474.41 93.06 473.55 92.94 473.12 92.88 L 472.04 92.59 C 472.10 91.32 472.01 90.07 471.74 88.84 Z" />
<path fill="#3567ce" opacity="1.00" d=" M 533.91 89.90 C 534.21 89.73 534.81 89.39 535.11 89.22 C 535.08 89.66 535.01 90.54 534.98 90.97 L 534.13 90.74 L 533.91 89.90 Z" />
<path fill="#bebc96" opacity="1.00" d=" M 480.64 90.19 C 481.44 90.23 483.04 90.31 483.84 90.35 C 485.36 90.93 486.87 91.65 487.97 92.90 C 487.72 93.15 487.23 93.65 486.98 93.90 C 486.09 93.37 485.19 92.85 484.31 92.33 C 483.08 91.61 481.87 90.88 480.64 90.19 Z" />
<path fill="#d2886b" opacity="1.00" d=" M 483.84 90.35 C 485.63 90.18 487.42 89.93 489.23 89.76 C 489.90 89.91 491.25 90.22 491.92 90.37 C 491.18 91.21 490.44 92.05 489.72 92.89 C 492.04 93.58 494.63 93.80 495.55 91.05 C 496.19 91.57 496.84 92.09 497.50 92.60 C 498.10 92.79 499.30 93.16 499.90 93.34 C 496.65 94.81 493.03 93.75 489.71 94.77 C 489.12 94.15 488.54 93.53 487.97 92.90 C 486.87 91.65 485.36 90.93 483.84 90.35 Z" />
<path fill="#e2e0db" opacity="1.00" d=" M 491.92 90.37 C 493.12 90.62 494.33 90.84 495.55 91.05 C 494.63 93.80 492.04 93.58 489.72 92.89 C 490.44 92.05 491.18 91.21 491.92 90.37 Z" />
<path fill="#8d4129" opacity="1.00" d=" M 506.81 93.69 C 507.03 92.10 506.68 89.75 508.96 89.81 C 509.76 95.17 509.92 100.60 510.27 106.00 C 509.39 105.47 508.55 104.95 507.69 104.43 L 507.51 104.32 C 507.26 100.78 507.08 97.23 506.81 93.69 Z" />
<path fill="#cf4d46" opacity="1.00" d=" M 526.20 90.19 C 526.78 90.76 526.78 90.76 526.20 90.19 Z" />
<path fill="#b88579" opacity="1.00" d=" M 537.24 90.42 C 538.40 89.82 539.92 91.74 539.01 92.74 C 537.79 93.26 536.57 91.43 537.24 90.42 Z" />
<path fill="#b4afa5" opacity="1.00" d=" M 540.83 89.91 C 541.83 89.63 542.79 89.77 543.70 90.34 L 543.84 91.12 C 543.70 92.61 541.64 93.19 540.85 91.87 C 540.84 91.38 540.84 90.40 540.83 89.91 Z" />
<path fill="#562a1d" opacity="1.00" d=" M 425.47 91.09 L 425.93 91.20 C 426.16 91.26 426.63 91.38 426.86 91.44 C 426.87 93.10 426.91 94.75 426.98 96.40 C 427.46 96.83 427.96 97.23 428.49 97.62 L 429.80 98.16 C 429.96 101.21 430.06 104.26 430.34 107.30 C 430.69 110.51 431.05 113.73 431.04 116.97 C 431.03 120.20 430.77 123.50 431.75 126.63 C 431.55 126.51 431.14 126.27 430.94 126.15 C 430.22 116.94 429.75 107.72 429.14 98.50 C 425.09 98.73 426.04 93.72 425.47 91.09 Z" />
<path fill="#5d90d3" opacity="1.00" d=" M 444.79 91.30 C 446.10 91.14 447.41 91.00 448.73 90.85 C 449.42 90.98 450.79 91.22 451.48 91.34 C 451.10 91.80 450.34 92.74 449.96 93.21 C 449.49 93.19 448.55 93.16 448.08 93.14 C 447.19 92.86 446.31 92.57 445.43 92.29 L 444.79 91.30 Z" />
<path fill="#867365" opacity="1.00" d=" M 459.21 91.56 C 459.58 91.56 460.31 91.55 460.67 91.55 C 464.15 91.76 467.65 91.87 471.12 92.33 C 471.35 92.40 471.81 92.53 472.04 92.59 L 473.12 92.88 C 473.33 93.38 473.76 94.39 473.97 94.90 L 473.25 94.90 C 471.97 94.49 470.68 94.11 469.35 94.13 C 470.27 95.21 471.26 96.22 472.30 97.19 C 468.02 95.97 463.96 94.10 459.75 92.67 C 459.62 92.39 459.35 91.84 459.21 91.56 Z" />
<path fill="#7a5e50" opacity="1.00" d=" M 527.63 91.94 C 528.00 91.70 528.72 91.20 529.08 90.95 C 530.46 90.97 531.84 91.00 533.23 91.05 L 533.35 91.90 C 533.47 92.50 533.72 93.68 533.84 94.28 C 532.00 94.65 530.14 94.80 528.30 95.07 L 528.20 93.92 C 528.06 93.43 527.78 92.44 527.63 91.94 Z" />
<path fill="#201822" opacity="1.00" d=" M 533.23 91.05 L 534.13 90.74 L 534.98 90.97 C 534.77 91.27 534.34 91.85 534.12 92.14 L 533.35 91.90 L 533.23 91.05 Z" />
<path fill="#af8e7a" opacity="1.00" d=" M 544.09 94.32 C 547.58 94.97 549.93 91.71 553.26 91.43 C 552.66 91.73 551.45 92.32 550.85 92.61 C 544.20 95.81 538.47 100.54 531.98 104.01 C 534.34 101.62 537.56 100.44 540.18 98.40 C 541.23 96.81 542.27 95.14 544.09 94.32 Z" />
<path fill="#181715" opacity="1.00" d=" M 426.86 91.44 C 427.40 91.58 428.50 91.86 429.04 92.00 C 430.00 93.89 432.20 94.18 434.05 93.54 C 438.44 94.69 442.81 95.90 447.18 97.11 C 446.90 98.86 446.83 100.63 446.83 102.40 C 443.90 100.69 440.67 99.06 437.17 99.61 C 438.73 98.96 441.66 98.72 439.84 96.45 C 438.00 96.45 436.16 96.40 434.32 96.43 C 433.13 95.31 431.51 95.25 429.99 95.11 L 429.38 95.02 C 429.15 94.84 428.70 94.49 428.47 94.32 C 428.10 94.84 427.35 95.88 426.98 96.40 C 426.91 94.75 426.87 93.10 426.86 91.44 Z" />
<path fill="#77251f" opacity="1.00" d=" M 429.04 92.00 C 430.92 91.36 432.68 92.29 434.05 93.54 C 432.20 94.18 430.00 93.89 429.04 92.00 Z" />
<path fill="#6c5851" opacity="1.00" d=" M 439.36 92.14 C 440.64 91.30 441.44 91.52 441.75 92.78 C 440.46 93.60 439.66 93.38 439.36 92.14 Z" />
<path fill="#8c4032" opacity="1.00" d=" M 477.99 92.69 C 478.25 92.50 478.76 92.12 479.01 91.93 C 479.37 92.48 480.07 93.57 480.43 94.11 C 480.33 94.74 480.15 95.98 480.06 96.60 L 479.30 96.57 C 478.79 95.30 478.29 94.02 477.99 92.69 Z" />
<path fill="#af8e7a" opacity="1.00" d=" M 484.31 92.33 C 485.19 92.85 486.09 93.37 486.98 93.90 C 487.81 95.45 488.65 97.00 489.57 98.50 C 489.87 99.01 490.18 99.51 490.50 100.01 C 490.69 99.30 491.07 97.88 491.25 97.16 C 493.79 95.62 496.70 94.32 499.48 96.15 C 497.01 98.65 495.40 101.86 492.93 104.35 C 486.11 102.59 479.58 99.78 472.95 97.40 C 473.66 96.65 473.76 95.81 473.25 94.90 L 473.97 94.90 L 474.69 94.69 C 474.73 94.30 474.80 93.51 474.84 93.12 C 475.63 93.01 477.20 92.80 477.99 92.69 C 478.29 94.02 478.79 95.30 479.30 96.57 C 476.29 98.54 482.26 99.20 480.06 96.60 C 480.15 95.98 480.33 94.74 480.43 94.11 C 481.72 93.53 483.01 92.94 484.31 92.33 M 483.27 95.10 C 483.63 96.32 484.46 96.51 485.76 95.69 C 485.38 94.46 484.55 94.26 483.27 95.10 M 482.27 98.13 C 482.64 99.37 483.46 99.59 484.71 98.76 C 484.32 97.51 483.51 97.29 482.27 98.13 Z" />
<path fill="#3265d2" opacity="1.00" d=" M 528.20 93.92 C 526.69 93.62 526.50 92.96 527.63 91.94 C 527.78 92.44 528.06 93.43 528.20 93.92 Z" />
<path fill="#41403f" opacity="1.00" d=" M 444.45 94.72 C 443.28 92.98 447.09 92.01 447.38 93.99 C 446.72 95.05 445.74 95.29 444.45 94.72 Z" />
<path fill="#5972ad" opacity="1.00" d=" M 473.12 92.88 C 473.55 92.94 474.41 93.06 474.84 93.12 C 474.80 93.51 474.73 94.30 474.69 94.69 L 473.97 94.90 C 473.76 94.39 473.33 93.38 473.12 92.88 Z" />
<path fill="#713725" opacity="1.00" d=" M 486.98 93.90 C 487.23 93.65 487.72 93.15 487.97 92.90 C 488.54 93.53 489.12 94.15 489.71 94.77 C 489.84 96.02 489.80 97.27 489.57 98.50 C 488.65 97.00 487.81 95.45 486.98 93.90 Z" />
<path fill="#7a5e50" opacity="1.00" d=" M 499.90 93.34 C 501.71 93.53 500.21 95.50 499.48 96.15 C 496.70 94.32 493.79 95.62 491.25 97.16 C 491.07 97.88 490.69 99.30 490.50 100.01 C 490.18 99.51 489.87 99.01 489.57 98.50 C 489.80 97.27 489.84 96.02 489.71 94.77 C 493.03 93.75 496.65 94.81 499.90 93.34 Z" />
<path fill="#5c473e" opacity="0.98" d=" M 428.47 94.32 C 428.70 94.49 429.15 94.84 429.38 95.02 L 429.41 95.57 L 429.84 95.63 L 429.99 95.11 C 431.51 95.25 433.13 95.31 434.32 96.43 C 433.70 96.50 432.45 96.64 431.82 96.71 C 430.62 96.72 429.51 97.02 428.49 97.62 C 427.96 97.23 427.46 96.83 426.98 96.40 C 427.35 95.88 428.10 94.84 428.47 94.32 Z" />
<path fill="#983c41" opacity="1.00" d=" M 448.14 98.93 C 450.66 96.36 454.28 95.59 457.58 94.49 C 458.18 98.77 452.55 99.03 449.89 100.82 C 449.45 100.60 448.57 100.14 448.12 99.92 L 448.14 98.93 M 455.35 96.33 C 455.92 96.87 455.92 96.87 455.35 96.33 Z" />
<path fill="#91a3bb" opacity="1.00" d=" M 469.35 94.13 C 470.68 94.11 471.97 94.49 473.25 94.90 C 473.76 95.81 473.66 96.65 472.95 97.40 L 472.30 97.19 C 471.26 96.22 470.27 95.21 469.35 94.13 Z" />
<path fill="#e45151" opacity="1.00" d=" M 515.25 100.24 C 515.28 97.96 512.95 94.64 515.73 93.17 C 516.03 94.93 516.33 96.69 516.67 98.45 C 516.19 99.04 515.71 99.64 515.25 100.24 Z" />
<path fill="#4d6da1" opacity="1.00" d=" M 522.56 95.28 C 523.53 94.92 524.51 94.57 525.50 94.21 C 525.88 94.66 526.66 95.56 527.04 96.01 C 527.36 95.78 527.99 95.30 528.30 95.07 C 530.14 94.80 532.00 94.65 533.84 94.28 C 534.59 95.89 536.28 96.59 537.79 97.33 C 535.47 98.63 533.19 99.99 530.89 101.31 C 528.07 99.36 525.29 97.34 522.56 95.28 M 529.19 96.23 C 529.67 99.42 532.20 94.68 529.19 96.23 Z" />
<path fill="#a59c85" opacity="1.00" d=" M 429.38 95.02 L 429.99 95.11 L 429.84 95.63 L 429.41 95.57 L 429.38 95.02 Z" />
<path fill="#58a391" opacity="1.00" d=" M 483.27 95.10 C 484.55 94.26 485.38 94.46 485.76 95.69 C 484.46 96.51 483.63 96.32 483.27 95.10 Z" />
<path fill="#c58f77" opacity="1.00" d=" M 539.42 96.45 C 538.35 95.31 538.70 94.90 540.47 95.23 C 540.21 95.54 539.68 96.15 539.42 96.45 Z" />
<path fill="#cecdb5" opacity="1.00" d=" M 431.82 96.71 C 432.45 96.64 433.70 96.50 434.32 96.43 C 436.16 96.40 438.00 96.45 439.84 96.45 C 441.66 98.72 438.73 98.96 437.17 99.61 L 436.25 99.80 C 436.07 99.83 435.71 99.89 435.53 99.93 L 435.55 99.63 L 435.72 97.73 C 434.42 97.38 433.12 97.04 431.82 96.71 M 436.96 97.44 L 436.90 98.18 C 438.99 99.63 439.02 95.56 436.96 97.44 Z" />
<path fill="#9d7e88" opacity="1.00" d=" M 455.35 96.33 C 455.92 96.87 455.92 96.87 455.35 96.33 Z" />
<path fill="#974a31" opacity="1.00" d=" M 518.94 95.69 C 519.23 96.00 519.81 96.63 520.09 96.94 L 520.40 97.28 C 520.57 101.88 522.28 106.25 522.51 110.87 C 522.34 111.36 522.02 112.35 521.85 112.85 C 521.02 112.18 520.21 111.52 519.39 110.85 C 519.24 107.47 519.17 104.08 518.80 100.71 C 518.63 99.03 518.71 97.35 518.94 95.69 Z" />
<path fill="#c1c8cc" opacity="1.00" d=" M 529.19 96.23 C 532.20 94.68 529.67 99.42 529.19 96.23 Z" />
<path fill="#9c5339" opacity="1.00" d=" M 428.49 97.62 C 429.51 97.02 430.62 96.72 431.82 96.71 C 433.12 97.04 434.42 97.38 435.72 97.73 L 435.55 99.63 C 433.62 99.18 431.69 98.75 429.80 98.16 L 428.49 97.62 Z" />
<path fill="#0f0e0d" opacity="1.00" d=" M 436.96 97.44 C 439.02 95.56 438.99 99.63 436.90 98.18 L 436.96 97.44 Z" />
<path fill="#ad3227" opacity="1.00" d=" M 447.18 97.11 L 447.60 97.23 C 447.74 97.66 448.01 98.50 448.14 98.93 L 448.12 99.92 C 447.94 101.28 448.29 102.84 447.64 104.08 L 447.15 103.58 L 446.83 102.40 C 446.83 100.63 446.90 98.86 447.18 97.11 Z" />
<path fill="#bfd0a5" opacity="1.00" d=" M 480.06 96.60 C 482.26 99.20 476.29 98.54 479.30 96.57 L 480.06 96.60 Z" />
<path fill="#b6b5b3" opacity="1.00" d=" M 520.09 96.94 C 522.33 98.45 524.68 99.80 526.93 101.29 C 527.47 101.35 528.56 101.46 529.10 101.51 C 528.43 101.60 527.08 101.78 526.41 101.87 C 526.91 102.94 527.42 104.00 527.94 105.07 C 526.87 104.85 525.82 104.55 524.81 104.18 C 523.81 102.52 522.85 100.82 522.33 98.94 C 521.85 98.52 520.88 97.69 520.40 97.28 L 520.09 96.94 Z" />
<path fill="#030205" opacity="1.00" d=" M 429.80 98.16 C 431.69 98.75 433.62 99.18 435.55 99.63 L 435.53 99.93 C 435.71 99.89 436.07 99.83 436.25 99.80 C 439.71 101.52 443.46 102.49 447.15 103.58 L 447.64 104.08 C 447.37 104.41 446.83 105.06 446.56 105.38 C 445.34 105.62 444.12 105.85 442.90 106.05 C 442.70 109.08 442.58 112.11 442.52 115.14 C 442.31 113.34 442.10 111.54 441.84 109.75 L 441.78 109.20 C 441.82 107.19 441.81 105.18 441.81 103.17 C 441.34 103.36 440.38 103.75 439.91 103.95 C 439.17 103.97 437.69 104.01 436.95 104.04 C 434.92 104.75 433.19 106.04 431.61 107.47 C 431.30 107.43 430.66 107.34 430.34 107.30 C 430.06 104.26 429.96 101.21 429.80 98.16 Z" />
<path fill="#bed7aa" opacity="1.00" d=" M 482.27 98.13 C 483.51 97.29 484.32 97.51 484.71 98.76 C 483.46 99.59 482.64 99.37 482.27 98.13 Z" />
<path fill="#030205" opacity="1.00" d=" M 520.40 97.28 C 520.88 97.69 521.85 98.52 522.33 98.94 C 522.85 100.82 523.81 102.52 524.81 104.18 C 524.27 103.99 523.18 103.59 522.64 103.40 C 522.96 107.94 523.87 112.41 524.78 116.86 C 525.85 122.68 528.69 127.96 530.03 133.70 C 528.81 132.66 527.56 131.68 526.32 130.68 C 528.17 127.19 525.02 123.41 524.54 119.82 C 523.89 116.83 523.13 113.86 522.51 110.87 C 522.28 106.25 520.57 101.88 520.40 97.28 Z" />
<path fill="#c79042" opacity="1.00" d=" M 436.25 99.80 L 437.17 99.61 C 440.67 99.06 443.90 100.69 446.83 102.40 L 447.15 103.58 C 443.46 102.49 439.71 101.52 436.25 99.80 Z" />
<path fill="#dfa37e" opacity="1.00" d=" M 462.94 99.73 L 463.74 98.98 C 465.52 99.70 467.46 100.68 467.94 102.73 L 467.31 102.56 C 466.00 102.58 464.70 102.62 463.40 102.66 C 463.11 102.58 462.53 102.40 462.23 102.32 C 462.41 101.67 462.77 100.38 462.94 99.73 Z" />
<path fill="#092770" opacity="1.00" d=" M 510.98 106.64 C 511.19 104.16 510.53 101.54 511.62 99.20 C 512.93 102.57 514.46 105.86 516.37 108.93 L 515.18 109.03 C 514.04 108.47 512.94 107.85 511.87 107.21 L 510.98 106.64 Z" />
<path fill="#511913" opacity="1.00" d=" M 544.32 101.27 C 545.77 100.72 546.18 101.16 545.53 102.58 C 544.07 103.13 543.67 102.69 544.32 101.27 Z" />
<path fill="#5da493" opacity="1.00" d=" M 462.23 102.32 C 462.53 102.40 463.11 102.58 463.40 102.66 C 463.63 104.04 463.21 105.14 462.14 105.95 C 461.80 104.73 461.83 103.52 462.23 102.32 Z" />
<path fill="#080b0d" opacity="1.00" d=" M 448.85 104.55 C 449.66 103.90 450.49 103.26 451.34 102.65 C 451.56 106.81 451.63 110.97 451.50 115.14 C 450.20 121.67 451.47 128.40 451.11 135.03 C 450.59 135.22 449.55 135.62 449.03 135.81 C 448.90 125.39 449.28 114.96 448.85 104.55 Z" />
<path fill="#d2464c" opacity="1.00" d=" M 451.34 102.65 C 451.58 103.85 451.82 105.06 452.08 106.27 C 454.20 105.27 456.28 104.19 458.40 103.17 C 457.53 106.03 454.31 106.73 452.07 108.17 C 452.03 109.91 451.99 111.65 451.93 113.38 C 451.91 113.61 451.89 114.07 451.87 114.29 L 451.50 115.14 C 451.63 110.97 451.56 106.81 451.34 102.65 Z" />
<path fill="#a8b083" opacity="1.00" d=" M 467.31 102.56 L 467.94 102.73 C 468.63 105.39 468.66 108.15 469.06 110.86 C 468.82 111.22 468.34 111.95 468.10 112.31 C 467.93 111.73 467.59 110.55 467.41 109.96 C 466.96 110.47 466.06 111.49 465.60 112.00 C 465.50 110.53 465.45 109.06 465.46 107.59 C 466.31 106.66 467.74 105.63 466.15 104.42 C 466.44 103.96 467.02 103.02 467.31 102.56 Z" />
<path fill="#e62c33" opacity="1.00" d=" M 516.06 104.15 C 516.09 103.82 516.14 103.14 516.16 102.80 C 516.83 103.22 518.18 104.04 518.85 104.46 C 518.95 107.95 519.62 111.54 518.72 114.97 C 518.55 114.88 518.20 114.70 518.02 114.62 C 517.74 111.06 517.09 107.57 516.06 104.15 Z" />
<path fill="#5a2320" opacity="1.00" d=" M 436.95 104.04 C 437.69 104.01 439.17 103.97 439.91 103.95 C 440.64 106.73 436.13 106.82 436.95 104.04 Z" />
<path fill="#633223" opacity="1.00" d=" M 507.69 104.43 C 508.55 104.95 509.39 105.47 510.27 106.00 C 510.37 106.59 510.58 107.76 510.68 108.34 C 510.85 110.12 511.73 111.69 512.97 112.95 C 512.89 114.24 512.83 115.53 512.76 116.82 C 511.31 115.77 509.84 114.73 508.38 113.71 C 508.15 110.62 507.77 107.53 507.69 104.43 Z" />
<path fill="#92452c" opacity="1.00" d=" M 522.64 103.40 C 523.18 103.59 524.27 103.99 524.81 104.18 C 525.82 104.55 526.87 104.85 527.94 105.07 C 529.26 105.37 530.59 105.67 531.93 105.97 C 531.90 106.44 531.86 107.38 531.84 107.85 C 531.55 110.38 531.04 112.89 530.52 115.39 C 528.51 115.39 526.38 115.45 524.78 116.86 C 523.87 112.41 522.96 107.94 522.64 103.40 Z" />
<path fill="#7e2419" opacity="1.00" d=" M 447.69 106.02 C 447.98 105.65 448.56 104.91 448.85 104.55 C 449.28 114.96 448.90 125.39 449.03 135.81 L 448.28 136.12 C 447.94 129.10 448.10 122.07 447.87 115.05 C 447.75 112.04 447.59 109.03 447.69 106.02 Z" />
<path fill="#33302d" opacity="1.00" d=" M 435.07 106.19 C 436.69 106.78 438.36 107.28 439.88 108.10 C 441.16 110.01 438.39 109.94 437.25 110.15 C 436.92 110.68 436.26 111.74 435.93 112.27 C 433.74 110.96 432.82 107.92 435.07 106.19 Z" />
<path fill="#4b1a14" opacity="1.00" d=" M 537.32 106.28 C 538.97 107.11 536.28 109.63 535.09 108.68 C 534.55 107.40 536.18 106.28 537.32 106.28 Z" />
<path fill="#ffffe7" opacity="1.00" d=" M 460.00 107.36 C 460.70 107.39 462.10 107.44 462.80 107.47 C 462.46 108.57 462.11 109.67 461.76 110.77 C 462.67 111.98 463.22 113.62 462.48 115.05 C 462.41 114.31 462.27 112.84 462.20 112.10 C 460.20 112.25 458.59 113.99 457.74 115.68 C 458.25 115.62 459.27 115.50 459.78 115.44 C 458.01 117.27 460.83 118.00 461.99 118.96 C 459.85 118.38 457.76 118.74 455.78 119.66 C 455.94 120.18 456.27 121.21 456.43 121.73 L 455.75 121.60 C 455.68 122.20 455.53 123.40 455.46 124.00 C 455.74 119.40 454.95 114.86 455.28 110.24 L 455.79 110.14 C 455.71 112.33 455.66 114.52 455.61 116.71 L 457.60 116.91 C 456.59 114.23 460.43 113.41 459.47 110.83 C 460.05 109.54 462.26 109.54 462.36 107.86 C 461.77 107.74 460.59 107.49 460.00 107.36 M 456.98 119.17 C 458.07 118.39 457.96 117.69 456.66 117.06 C 455.45 117.93 455.55 118.64 456.98 119.17 Z" />
<path fill="#312e2a" opacity="1.00" d=" M 471.93 111.87 C 474.47 110.23 477.80 109.94 479.82 107.47 C 480.37 109.39 480.86 111.33 481.33 113.28 C 482.07 111.97 482.83 110.66 483.58 109.35 C 486.82 108.88 489.04 111.80 492.05 112.32 C 496.58 111.73 500.94 110.14 505.54 109.86 C 505.48 111.67 505.43 113.48 505.41 115.30 C 504.89 116.14 504.37 116.98 503.84 117.82 C 503.98 117.39 504.27 116.52 504.41 116.09 C 502.59 116.70 500.43 116.75 498.92 117.99 C 498.47 119.14 498.40 120.39 498.21 121.61 C 494.93 123.73 495.47 127.63 495.57 131.00 C 495.53 131.51 495.44 132.51 495.40 133.01 C 495.20 132.68 494.80 132.02 494.60 131.69 C 493.81 130.06 492.59 128.72 491.16 127.63 C 490.74 130.72 490.64 133.85 490.74 136.96 C 484.09 132.45 477.31 128.07 470.85 123.30 C 470.67 122.74 470.29 121.63 470.11 121.07 C 469.92 120.67 469.54 119.88 469.35 119.48 C 469.57 119.22 470.03 118.69 470.25 118.43 C 471.54 116.46 470.99 113.92 471.93 111.87 Z" />
<path fill="#505f8d" opacity="1.00" d=" M 510.98 106.64 L 511.87 107.21 C 511.95 107.85 512.11 109.15 512.20 109.79 C 513.37 110.73 514.63 111.56 515.99 112.21 C 515.72 111.15 515.45 110.09 515.18 109.03 L 516.37 108.93 C 517.22 110.93 517.23 113.13 517.41 115.26 C 516.77 115.00 515.49 114.47 514.86 114.20 C 514.38 113.89 513.44 113.26 512.97 112.95 C 511.73 111.69 510.85 110.12 510.68 108.34 L 510.98 106.64 Z" />
<path fill="#ffffe7" opacity="1.00" d=" M 511.87 107.21 C 512.94 107.85 514.04 108.47 515.18 109.03 C 515.45 110.09 515.72 111.15 515.99 112.21 C 514.63 111.56 513.37 110.73 512.20 109.79 C 512.11 109.15 511.95 107.85 511.87 107.21 Z" />
<path fill="#6c3524" opacity="1.00" d=" M 530.52 115.39 C 531.04 112.89 531.55 110.38 531.84 107.85 C 532.08 116.27 531.26 124.66 530.78 133.05 L 530.03 133.70 C 528.69 127.96 525.85 122.68 524.78 116.86 C 526.38 115.45 528.51 115.39 530.52 115.39 Z" />
<path fill="#5a5755" opacity="1.00" d=" M 441.44 109.69 C 441.53 109.57 441.70 109.33 441.78 109.20 L 441.84 109.75 L 441.44 109.69 Z" />
<path fill="#713725" opacity="1.00" d=" M 519.39 110.85 C 520.21 111.52 521.02 112.18 521.85 112.85 C 522.02 112.35 522.34 111.36 522.51 110.87 C 523.13 113.86 523.89 116.83 524.54 119.82 C 524.36 120.33 524.00 121.35 523.83 121.86 C 521.56 120.69 517.92 120.05 518.07 116.82 C 520.33 115.51 519.44 112.95 519.39 110.85 Z" />
<path fill="#867365" opacity="1.00" d=" M 451.93 113.38 C 452.44 113.02 453.46 112.29 453.97 111.93 C 451.99 115.90 452.82 120.62 453.13 124.86 C 454.13 125.87 455.55 126.00 456.88 126.23 C 454.98 127.41 453.62 129.23 452.47 131.11 C 452.58 129.52 451.92 127.44 453.93 126.79 C 450.59 123.71 452.61 118.33 451.87 114.29 C 451.89 114.07 451.91 113.61 451.93 113.38 Z" />
<path fill="#412218" opacity="1.00" d=" M 512.97 112.95 C 513.44 113.26 514.38 113.89 514.86 114.20 C 514.97 116.77 515.04 119.34 515.18 121.91 C 511.97 120.33 507.92 117.81 508.38 113.71 C 509.84 114.73 511.31 115.77 512.76 116.82 C 512.83 115.53 512.89 114.24 512.97 112.95 Z" />
<path fill="#131311" opacity="1.00" d=" M 433.85 114.20 C 436.67 114.88 439.29 116.16 442.04 117.05 C 444.20 117.42 446.05 115.96 447.87 115.05 C 448.10 122.07 447.94 129.10 448.28 136.12 L 449.03 135.81 C 449.55 135.62 450.59 135.22 451.11 135.03 C 452.04 133.93 452.16 132.46 452.47 131.11 C 453.62 129.23 454.98 127.41 456.88 126.23 C 458.01 125.50 459.18 124.81 460.35 124.12 C 460.56 124.88 460.79 125.63 461.01 126.39 C 462.65 125.33 464.25 124.19 465.64 122.81 C 466.87 121.69 468.13 120.61 469.35 119.48 C 469.54 119.88 469.92 120.67 470.11 121.07 C 463.95 125.84 458.63 131.58 452.38 136.23 C 451.25 136.69 449.96 137.93 448.72 137.11 C 443.19 133.41 437.20 130.45 431.75 126.63 C 430.77 123.50 431.03 120.20 431.04 116.97 C 432.55 116.95 434.07 116.94 435.59 116.93 C 435.00 116.02 434.42 115.11 433.85 114.20 M 441.04 123.22 C 439.40 126.25 444.26 123.47 441.04 123.22 Z" />
<path fill="#963a3f" opacity="1.00" d=" M 464.58 118.00 C 465.84 115.99 467.79 114.64 469.70 113.32 C 469.90 115.02 470.09 116.72 470.25 118.43 C 470.03 118.69 469.57 119.22 469.35 119.48 C 468.13 120.61 466.87 121.69 465.64 122.81 C 465.36 121.28 465.61 119.88 466.40 118.60 C 465.95 118.45 465.04 118.15 464.58 118.00 Z" />
<path fill="#562a1d" opacity="1.00" d=" M 514.86 114.20 C 515.49 114.47 516.77 115.00 517.41 115.26 C 517.57 115.65 517.90 116.43 518.07 116.82 C 517.92 120.05 521.56 120.69 523.83 121.86 C 524.00 121.35 524.36 120.33 524.54 119.82 C 525.02 123.41 528.17 127.19 526.32 130.68 C 522.91 127.39 518.59 125.10 515.18 121.91 C 515.04 119.34 514.97 116.77 514.86 114.20 Z" />
<path fill="#3e0c09" opacity="1.00" d=" M 451.50 115.14 L 451.87 114.29 C 452.61 118.33 450.59 123.71 453.93 126.79 C 451.92 127.44 452.58 129.52 452.47 131.11 C 452.16 132.46 452.04 133.93 451.11 135.03 C 451.47 128.40 450.20 121.67 451.50 115.14 Z" />
<path fill="#191a19" opacity="1.00" d=" M 498.92 117.99 C 500.43 116.75 502.59 116.70 504.41 116.09 C 504.27 116.52 503.98 117.39 503.84 117.82 C 501.20 122.26 499.09 127.21 495.57 131.00 C 495.47 127.63 494.93 123.73 498.21 121.61 C 498.40 120.39 498.47 119.14 498.92 117.99 Z" />
<path fill="#010103" opacity="1.00" d=" M 456.98 119.17 C 455.55 118.64 455.45 117.93 456.66 117.06 C 457.96 117.69 458.07 118.39 456.98 119.17 Z" />
<path fill="#604542" opacity="1.00" d=" M 461.34 120.29 C 463.15 119.49 463.13 122.54 461.63 122.86 C 459.69 123.92 460.29 120.83 461.34 120.29 Z" />
<path fill="#413f3f" opacity="1.00" d=" M 441.04 123.22 C 444.26 123.47 439.40 126.25 441.04 123.22 Z" />
<path fill="#5d564c" opacity="1.00" d=" M 491.16 127.63 C 492.59 128.72 493.81 130.06 494.60 131.69 L 494.50 133.07 C 493.13 134.30 493.02 137.09 490.74 136.96 C 490.64 133.85 490.74 130.72 491.16 127.63 Z" />
<path fill="#ffffff" opacity="1.00" d=" M 21.20 292.47 C 25.25 292.52 29.30 292.48 33.35 292.51 C 34.99 305.67 36.62 318.83 38.25 332.00 C 35.37 331.99 32.49 331.98 29.62 332.04 C 29.33 329.66 29.20 327.27 29.09 324.88 C 28.32 324.88 26.80 324.87 26.04 324.87 C 25.89 327.21 25.75 329.56 25.66 331.91 C 22.69 332.04 19.73 332.01 16.76 332.00 C 18.25 318.82 19.62 305.63 21.20 292.47 M 27.39 301.34 C 27.12 306.88 26.30 312.39 26.00 317.93 C 26.70 317.90 28.10 317.85 28.80 317.82 C 28.19 312.41 28.22 306.43 27.39 301.34 Z" />
<path fill="#ffffff" opacity="1.00" d=" M 66.96 292.77 C 71.71 290.27 78.88 291.72 81.00 297.06 C 82.30 301.12 82.03 305.49 81.89 309.69 C 79.09 309.60 76.29 309.61 73.49 309.62 C 73.40 306.07 73.76 302.49 73.23 298.97 C 71.96 297.23 69.97 299.33 70.55 301.00 C 70.72 309.31 69.93 317.73 70.98 325.96 C 71.50 325.94 72.52 325.90 73.03 325.88 C 73.86 322.72 73.41 319.41 73.45 316.19 C 76.30 316.09 79.15 316.11 82.00 316.12 C 81.89 319.99 82.29 324.10 80.77 327.76 C 78.02 333.62 69.26 334.56 64.78 330.23 C 62.14 327.58 62.24 323.54 62.02 320.07 C 62.05 313.70 61.84 307.32 62.15 300.96 C 62.26 297.67 63.96 294.32 66.96 292.77 Z" />
<path fill="#ffffff" opacity="1.00" d=" M 87.64 292.51 C 91.67 292.47 95.70 292.55 99.74 292.44 C 101.62 305.59 103.05 318.81 104.74 332.00 C 101.84 332.00 98.93 332.00 96.03 332.00 C 95.87 329.62 95.72 327.25 95.58 324.87 C 94.82 324.87 93.30 324.87 92.55 324.87 C 92.41 327.25 92.25 329.63 92.08 332.00 C 89.14 332.00 86.20 332.00 83.26 332.00 C 84.71 318.84 86.20 305.68 87.64 292.51 M 93.70 303.60 C 93.46 308.37 92.80 313.11 92.43 317.87 C 93.40 317.82 94.37 317.78 95.34 317.74 C 94.92 312.28 94.10 306.80 94.56 301.32 C 93.72 301.79 93.08 302.42 93.70 303.60 Z" />
<path fill="#ffff00" opacity="1.00" d=" M 213.54 292.68 C 218.83 289.84 226.54 292.56 227.63 298.80 C 228.55 305.47 227.96 312.25 228.12 318.98 C 228.08 323.07 228.13 327.91 224.65 330.77 C 219.68 334.97 210.54 332.82 209.11 326.11 C 207.96 319.17 208.70 312.07 208.51 305.07 C 208.39 300.55 208.97 294.94 213.54 292.68 M 217.12 299.83 C 216.83 307.20 217.09 314.58 216.99 321.95 C 217.12 323.65 216.54 326.34 219.07 326.33 C 220.03 322.63 219.50 318.77 219.62 315.00 C 219.50 309.79 219.88 304.56 219.43 299.37 C 219.32 297.64 216.89 298.33 217.12 299.83 Z" />
<path fill="#ffff00" opacity="1.00" d=" M 233.45 294.68 C 237.54 289.80 246.44 290.86 249.35 296.52 C 250.79 299.78 250.53 303.43 250.70 306.92 C 247.84 307.03 244.97 307.02 242.11 306.98 C 242.11 304.26 242.26 301.52 241.86 298.82 C 239.60 296.92 239.37 300.57 239.50 302.01 C 239.73 310.03 239.01 318.12 239.92 326.10 C 240.41 326.02 241.39 325.85 241.88 325.76 C 242.66 323.08 242.26 320.23 242.48 317.48 C 242.04 317.18 241.15 316.56 240.71 316.25 C 240.74 314.42 240.75 312.58 240.77 310.75 C 244.01 310.75 247.26 310.77 250.50 310.69 C 250.81 317.76 250.47 324.83 250.69 331.90 C 248.84 331.98 246.99 332.00 245.15 331.98 C 244.94 331.07 244.74 330.16 244.55 329.25 C 243.35 331.24 241.49 333.13 238.96 332.91 C 234.51 332.66 231.38 328.35 231.19 324.14 C 230.78 317.77 231.09 311.38 231.00 305.00 C 231.18 301.50 230.82 297.43 233.45 294.68 Z" />
<path fill="#ffff00" opacity="1.00" d=" M 259.41 292.50 C 263.48 290.70 269.05 291.54 271.65 295.41 C 273.98 298.81 273.48 303.12 273.63 307.03 C 273.50 313.00 273.92 319.01 273.27 324.97 C 272.77 329.52 268.56 333.07 264.00 332.90 C 259.39 333.23 255.01 329.77 254.39 325.17 C 253.67 317.80 254.07 310.37 254.07 302.98 C 253.94 298.92 255.40 294.25 259.41 292.50 M 262.61 300.06 C 262.56 308.78 262.10 317.57 262.90 326.26 C 263.36 326.12 264.29 325.86 264.76 325.73 C 265.58 318.20 264.89 310.57 265.14 303.00 C 264.93 301.33 265.62 299.03 263.83 298.02 C 263.53 298.53 262.92 299.55 262.61 300.06 Z" />
<path fill="#ffff00" opacity="1.00" d=" M 276.95 296.09 C 279.50 290.82 287.15 290.46 291.60 293.41 C 295.21 295.78 294.47 300.67 294.63 304.38 C 292.01 304.38 289.39 304.37 286.77 304.37 C 286.61 302.40 287.16 300.23 286.15 298.43 C 283.11 298.12 283.75 302.81 284.62 304.62 C 287.71 308.23 292.88 310.20 294.56 314.98 C 295.60 319.39 295.92 324.26 294.36 328.58 C 290.94 334.39 280.95 334.38 277.52 328.58 C 275.97 325.25 276.31 321.45 276.25 317.87 C 278.87 317.87 281.50 317.87 284.12 317.88 C 284.40 320.62 283.38 323.80 284.99 326.25 C 288.34 325.91 287.24 321.42 286.84 319.09 C 284.13 314.65 277.88 312.93 276.54 307.51 C 275.73 303.78 275.68 299.73 276.95 296.09 Z" />
<path fill="#ffffff" opacity="1.00" d=" M 39.75 292.50 C 44.48 292.59 49.29 292.16 53.96 293.09 C 57.64 294.24 58.56 298.59 58.62 301.98 C 58.65 305.35 59.05 310.31 54.85 311.34 C 56.56 312.42 58.32 313.91 58.46 316.09 C 58.86 321.34 58.44 326.61 58.71 331.86 C 56.06 332.04 53.40 332.02 50.75 331.99 C 50.51 326.24 51.27 320.39 50.31 314.70 C 49.81 314.51 48.79 314.12 48.28 313.93 C 48.21 319.95 48.27 325.97 48.25 332.00 C 45.42 332.00 42.58 332.00 39.75 332.00 C 39.75 318.83 39.75 305.67 39.75 292.50 M 48.30 299.03 C 48.23 302.06 48.24 305.10 48.25 308.14 C 49.31 307.80 50.86 307.74 50.66 306.19 C 50.63 303.72 51.84 299.46 48.30 299.03 Z" />
<path fill="#ffffff" opacity="1.00" d=" M 106.20 292.60 C 111.13 292.51 116.17 292.13 121.02 293.22 C 124.36 294.13 125.89 297.78 125.77 300.98 C 125.96 308.65 125.89 316.33 125.82 324.00 C 125.87 326.89 125.12 330.54 121.95 331.47 C 116.79 332.50 111.44 331.84 106.21 331.94 C 106.27 318.83 106.29 305.72 106.20 292.60 M 114.66 299.38 C 114.87 308.05 114.66 316.74 114.77 325.41 C 117.79 325.46 117.30 322.13 117.39 320.05 C 117.31 313.65 117.53 307.23 117.28 300.84 C 117.20 299.37 115.77 299.17 114.66 299.38 Z" />
<path fill="#ffffff" opacity="1.00" d=" M 129.19 292.61 C 133.92 292.37 138.65 292.54 143.38 292.50 C 143.38 295.12 143.38 297.75 143.37 300.37 C 141.49 300.37 139.62 300.38 137.74 300.39 C 137.73 302.89 137.73 305.39 137.80 307.90 C 139.53 307.88 141.26 307.87 142.99 307.87 C 143.02 310.40 143.06 312.93 142.85 315.46 C 141.15 315.40 139.45 315.37 137.75 315.36 C 137.75 318.28 137.75 321.20 137.75 324.12 C 139.83 324.12 141.91 324.12 143.99 324.12 C 144.00 326.74 144.00 329.37 144.00 332.00 C 139.07 331.98 134.15 332.04 129.22 331.96 C 129.25 318.84 129.31 305.72 129.19 292.61 Z" />
<path fill="#ffff00" opacity="1.00" d=" M 153.75 292.51 C 157.42 292.50 161.10 292.45 164.77 292.56 C 165.30 298.38 166.36 304.15 166.63 310.00 C 168.20 304.33 168.00 298.31 168.90 292.51 C 172.57 292.50 176.23 292.47 179.90 292.54 C 179.86 305.68 179.86 318.83 179.90 331.97 C 177.43 332.00 174.97 332.00 172.50 332.00 C 172.46 323.34 172.53 314.68 172.53 306.02 C 171.34 314.60 170.41 323.22 169.60 331.85 C 167.80 331.99 166.00 332.02 164.20 331.97 C 163.37 323.33 161.95 314.75 161.52 306.08 C 160.77 314.70 161.27 323.36 161.12 332.00 C 158.66 332.00 156.21 332.00 153.75 332.00 C 153.75 318.83 153.75 305.67 153.75 292.51 Z" />
<path fill="#ffff00" opacity="1.00" d=" M 197.09 292.55 C 199.91 292.49 202.73 292.49 205.55 292.45 C 205.70 303.28 205.61 314.11 205.60 324.94 C 205.65 327.41 204.99 330.33 202.52 331.43 C 199.73 332.31 196.75 331.93 193.88 332.00 C 193.87 329.75 193.87 327.51 193.86 325.27 C 195.23 325.23 197.19 324.88 197.05 323.07 C 197.21 312.90 197.11 302.72 197.09 292.55 Z" />
<path fill="#ffff00" opacity="1.00" d=" M 182.27 312.48 C 185.78 312.50 189.30 312.52 192.82 312.46 C 192.91 314.74 192.90 317.03 192.76 319.31 C 189.28 319.22 185.80 319.23 182.32 319.28 C 182.24 317.01 182.23 314.75 182.27 312.48 Z" />
</svg>
