<?xml version="1.0" encoding="UTF-8" ?>
<!DOCTYPE svg PUBLIC "-//W3C//DTD SVG 1.1//EN" "http://www.w3.org/Graphics/SVG/1.1/DTD/svg11.dtd">
<svg width="960pt" height="540pt" viewBox="0 0 960 540" version="1.1" xmlns="http://www.w3.org/2000/svg">
<path fill="#54626c" opacity="1.00" d=" M 462.02 48.03 C 463.98 46.43 466.59 45.80 469.09 46.09 C 475.73 46.71 482.30 48.12 488.98 48.32 C 501.72 48.79 514.41 49.97 527.10 51.20 C 532.54 51.69 537.95 52.76 543.44 52.42 C 543.07 54.62 542.31 56.75 542.19 58.99 C 541.71 64.78 539.87 70.34 539.15 76.09 C 538.35 78.81 537.62 81.54 537.06 84.30 C 532.99 83.46 528.88 82.90 524.77 82.35 C 509.57 80.33 494.31 78.61 479.02 77.41 C 470.79 77.52 462.58 76.99 454.37 76.51 C 454.89 77.77 455.42 79.04 455.95 80.30 C 452.94 81.48 449.78 81.06 446.76 80.21 C 449.26 80.19 451.76 80.25 454.26 80.28 C 450.15 76.31 449.94 70.13 451.12 64.88 C 452.67 58.22 456.69 52.27 462.02 48.03 M 493.98 51.91 C 491.36 58.82 489.36 65.94 486.96 72.93 C 498.86 74.57 510.86 75.42 522.78 76.90 C 524.96 69.63 526.27 62.14 528.23 54.80 C 516.86 53.52 505.43 52.20 493.98 51.91 M 532.28 53.23 C 532.76 53.77 532.76 53.77 532.28 53.23 M 532.52 67.08 C 531.52 71.03 530.66 75.03 530.12 79.08 C 513.36 77.63 496.71 75.07 479.94 74.09 C 480.67 74.60 481.41 75.10 482.17 75.61 C 486.40 74.50 490.73 76.00 495.02 75.84 C 505.55 77.35 516.32 77.57 526.66 80.28 C 528.01 80.36 529.33 79.93 530.67 79.73 C 531.53 75.36 532.29 70.98 533.02 66.59 C 534.35 68.30 538.50 70.24 539.25 67.11 C 537.41 66.82 535.58 66.57 533.75 66.33 C 533.78 65.38 533.83 63.47 533.86 62.52 C 535.85 63.43 537.96 63.99 540.15 64.14 C 540.05 61.16 536.43 62.54 534.54 62.00 C 535.09 59.68 535.54 57.34 535.74 54.96 C 533.86 58.75 533.54 63.03 532.52 67.08 M 465.92 60.57 C 465.06 61.89 465.55 62.48 467.37 62.34 C 467.47 62.79 467.69 63.70 467.79 64.15 L 467.78 65.18 C 469.40 65.15 471.07 65.01 471.37 63.07 C 472.59 63.02 473.82 62.97 475.05 62.92 C 475.10 62.34 475.18 61.16 475.22 60.58 C 474.65 60.41 473.51 60.07 472.94 59.90 L 473.31 59.05 C 472.96 58.83 472.27 58.39 471.92 58.18 L 471.84 57.16 C 469.58 57.72 468.42 60.33 465.92 60.57 M 485.17 58.10 C 485.22 58.75 485.32 60.07 485.37 60.73 L 486.04 60.44 C 486.84 61.56 489.81 61.79 489.83 60.02 C 490.49 57.02 486.92 58.42 485.17 58.10 M 484.36 64.29 C 484.09 66.35 488.75 66.37 488.51 64.32 C 487.36 63.48 485.49 63.40 484.36 64.29 M 466.78 68.53 C 470.14 69.23 474.14 68.70 476.51 65.98 C 473.25 66.78 470.02 67.69 466.78 68.53 M 532.75 72.63 C 534.58 72.80 536.43 72.89 538.29 72.92 C 537.49 70.60 534.15 71.23 532.75 72.63 Z" />
<path fill="#414a54" opacity="1.00" d=" M 493.98 51.91 C 505.43 52.20 516.86 53.52 528.23 54.80 C 526.27 62.14 524.96 69.63 522.78 76.90 C 510.86 75.42 498.86 74.57 486.96 72.93 C 489.36 65.94 491.36 58.82 493.98 51.91 M 501.32 54.18 C 501.84 54.74 501.84 54.74 501.32 54.18 M 505.29 54.25 C 504.37 55.56 506.78 56.39 507.51 55.36 C 508.49 54.04 506.02 53.26 505.29 54.25 M 510.00 54.38 C 507.50 56.03 513.33 57.11 513.56 55.30 C 512.61 54.49 511.21 54.14 510.00 54.38 M 515.08 57.02 C 508.41 57.49 501.74 55.44 495.15 56.16 C 493.14 60.54 491.40 65.31 491.04 70.16 C 492.43 67.34 493.23 64.29 494.13 61.29 C 494.58 61.16 495.48 60.90 495.92 60.77 C 495.56 62.13 495.35 63.52 495.13 64.91 C 494.70 65.44 493.83 66.50 493.39 67.03 C 493.73 67.47 494.42 68.33 494.76 68.76 C 494.35 69.06 493.55 69.65 493.14 69.95 C 498.20 67.82 503.60 69.56 508.84 68.87 L 507.81 69.78 C 510.71 70.06 513.59 70.62 516.30 71.72 C 518.56 70.67 522.94 72.46 522.36 68.58 L 522.61 68.56 C 522.69 67.24 522.74 65.92 522.76 64.60 C 524.31 65.08 525.10 61.40 523.47 61.40 C 522.30 60.89 521.10 60.46 519.88 60.13 C 521.59 60.24 523.31 60.26 525.04 60.29 C 525.05 59.71 525.07 58.55 525.08 57.97 C 521.86 57.93 518.64 57.71 515.49 57.08 C 516.61 56.77 518.46 57.30 519.00 55.96 C 518.40 53.79 514.31 54.71 515.08 57.02 M 503.18 72.60 C 502.92 74.44 507.46 74.91 507.81 73.17 C 506.68 71.99 504.59 72.08 503.18 72.60 Z" />
<path fill="#202428" opacity="1.00" d=" M 532.28 53.23 C 532.76 53.77 532.76 53.77 532.28 53.23 Z" />
<path fill="#505b64" opacity="1.00" d=" M 542.56 59.86 C 543.31 57.44 543.90 54.99 543.93 52.45 C 549.06 53.49 554.74 51.99 559.50 54.57 C 557.56 55.20 555.63 55.80 553.69 56.37 C 554.01 57.93 553.39 60.29 555.55 60.64 C 558.64 62.29 561.67 59.26 561.25 56.11 C 562.40 57.67 563.46 59.30 564.53 60.92 L 564.53 61.78 C 565.19 70.32 562.53 79.35 556.13 85.25 C 552.76 88.09 548.11 86.76 544.17 86.26 C 541.94 85.89 539.72 85.52 537.50 85.14 C 538.02 82.12 538.51 79.09 539.15 76.09 C 540.50 70.75 540.97 65.17 542.56 59.86 M 548.44 56.12 C 548.70 57.12 548.96 58.13 549.23 59.13 C 547.43 59.01 547.06 57.37 546.58 55.97 C 545.35 56.71 544.35 58.23 545.61 59.49 C 546.75 61.55 549.21 60.85 551.14 60.92 L 550.92 59.79 C 552.47 59.35 552.70 58.43 551.63 57.04 L 552.06 56.59 C 551.43 56.29 550.17 55.69 549.54 55.38 C 549.27 55.57 548.71 55.94 548.44 56.12 M 542.43 82.39 C 544.34 83.10 547.35 83.17 548.23 80.89 C 548.67 79.47 547.35 78.55 546.54 77.66 C 546.63 79.27 546.54 80.89 546.19 82.47 C 543.74 82.24 542.39 80.51 542.28 78.14 C 541.88 79.49 540.56 81.58 542.43 82.39 M 552.99 79.07 C 553.91 79.90 554.84 80.70 555.79 81.51 C 555.23 82.33 554.81 83.29 554.05 83.95 C 551.99 83.76 551.30 81.55 550.18 80.17 C 549.73 81.36 548.90 82.83 550.35 83.73 C 552.37 86.05 555.32 84.44 557.30 82.98 C 557.32 80.45 555.22 79.31 552.99 79.07 Z" />
<path fill="#e1846b" opacity="1.00" d=" M 501.32 54.18 C 501.84 54.74 501.84 54.74 501.32 54.18 Z" />
<path fill="#93665f" opacity="1.00" d=" M 505.29 54.25 C 506.02 53.26 508.49 54.04 507.51 55.36 C 506.78 56.39 504.37 55.56 505.29 54.25 Z" />
<path fill="#93675f" opacity="1.00" d=" M 510.00 54.38 C 511.21 54.14 512.61 54.49 513.56 55.30 C 513.33 57.11 507.50 56.03 510.00 54.38 Z" />
<path fill="#8f6560" opacity="1.00" d=" M 515.08 57.02 C 514.31 54.71 518.40 53.79 519.00 55.96 C 518.46 57.30 516.61 56.77 515.49 57.08 L 515.08 57.02 Z" />
<path fill="#13191d" opacity="1.00" d=" M 532.52 67.08 C 533.54 63.03 533.86 58.75 535.74 54.96 C 535.54 57.34 535.09 59.68 534.54 62.00 C 536.43 62.54 540.05 61.16 540.15 64.14 C 537.96 63.99 535.85 63.43 533.86 62.52 C 533.83 63.47 533.78 65.38 533.75 66.33 C 535.58 66.57 537.41 66.82 539.25 67.11 C 538.50 70.24 534.35 68.30 533.02 66.59 C 532.29 70.98 531.53 75.36 530.67 79.73 C 529.33 79.93 528.01 80.36 526.66 80.28 C 516.32 77.57 505.55 77.35 495.02 75.84 C 490.73 76.00 486.40 74.50 482.17 75.61 C 481.41 75.10 480.67 74.60 479.94 74.09 C 496.71 75.07 513.36 77.63 530.12 79.08 C 530.66 75.03 531.52 71.03 532.52 67.08 Z" />
<path fill="#31393f" opacity="1.00" d=" M 548.44 56.12 C 548.71 55.94 549.27 55.57 549.54 55.38 C 550.17 55.69 551.43 56.29 552.06 56.59 L 551.63 57.04 C 550.81 57.80 550.57 58.72 550.92 59.79 L 551.14 60.92 C 549.21 60.85 546.75 61.55 545.61 59.49 C 544.35 58.23 545.35 56.71 546.58 55.97 C 547.06 57.37 547.43 59.01 549.23 59.13 C 548.96 58.13 548.70 57.12 548.44 56.12 Z" />
<path fill="#3f484f" opacity="1.00" d=" M 553.69 56.37 C 555.63 55.80 557.56 55.20 559.50 54.57 L 560.05 54.39 C 560.35 54.82 560.95 55.68 561.25 56.11 C 561.67 59.26 558.64 62.29 555.55 60.64 C 553.39 60.29 554.01 57.93 553.69 56.37 Z" />
<path fill="#64737f" opacity="1.00" d=" M 495.15 56.16 C 501.74 55.44 508.41 57.49 515.08 57.02 L 515.49 57.08 C 518.64 57.71 521.86 57.93 525.08 57.97 C 525.07 58.55 525.05 59.71 525.04 60.29 C 523.31 60.26 521.59 60.24 519.88 60.13 C 512.57 59.57 505.30 58.53 497.99 58.03 C 496.41 57.63 495.19 58.49 494.44 59.80 C 495.19 59.91 496.70 60.12 497.45 60.22 C 497.07 60.36 496.31 60.63 495.92 60.77 C 495.48 60.90 494.58 61.16 494.13 61.29 C 493.23 64.29 492.43 67.34 491.04 70.16 C 491.40 65.31 493.14 60.54 495.15 56.16 Z" />
<path fill="#3c464f" opacity="1.00" d=" M 465.92 60.57 C 468.42 60.33 469.58 57.72 471.84 57.16 L 471.92 58.18 C 471.99 58.56 472.14 59.33 472.21 59.72 L 472.94 59.90 C 473.51 60.07 474.65 60.41 475.22 60.58 C 472.76 61.81 470.31 63.05 467.79 64.15 C 467.69 63.70 467.47 62.79 467.37 62.34 C 467.54 61.17 467.06 60.58 465.92 60.57 Z" />
<path fill="#0b0d0f" opacity="1.00" d=" M 550.92 59.79 C 550.57 58.72 550.81 57.80 551.63 57.04 C 552.70 58.43 552.47 59.35 550.92 59.79 Z" />
<path fill="#1d2124" opacity="1.00" d=" M 471.92 58.18 C 472.27 58.39 472.96 58.83 473.31 59.05 L 472.94 59.90 L 472.21 59.72 C 472.14 59.33 471.99 58.56 471.92 58.18 Z" />
<path fill="#3f474f" opacity="1.00" d=" M 485.17 58.10 C 486.92 58.42 490.49 57.02 489.83 60.02 C 488.56 59.57 487.19 59.85 486.04 60.44 L 485.37 60.73 C 485.32 60.07 485.22 58.75 485.17 58.10 Z" />
<path fill="#2d5933" opacity="1.00" d=" M 494.44 59.80 C 495.19 58.49 496.41 57.63 497.99 58.03 C 505.30 58.53 512.57 59.57 519.88 60.13 C 521.10 60.46 522.30 60.89 523.47 61.40 L 522.92 61.90 C 520.57 61.77 518.25 61.47 515.91 61.30 C 515.44 61.27 514.49 61.20 514.02 61.17 C 513.52 61.21 512.53 61.31 512.03 61.35 L 511.60 61.45 C 508.74 60.83 505.86 60.24 502.95 59.97 C 501.95 59.87 500.95 59.79 499.96 59.72 C 499.53 59.78 498.66 59.90 498.23 59.96 L 497.45 60.22 C 496.70 60.12 495.19 59.91 494.44 59.80 Z" />
<path fill="#8b5526" opacity="1.00" d=" M 499.96 59.72 C 500.95 59.79 501.95 59.87 502.95 59.97 C 502.97 60.48 503.03 61.51 503.06 62.02 C 503.15 63.95 503.23 65.89 503.31 67.82 C 504.41 67.67 505.52 67.53 506.63 67.38 C 507.18 67.75 508.29 68.50 508.84 68.87 C 503.60 69.56 498.20 67.82 493.14 69.95 C 493.55 69.65 494.35 69.06 494.76 68.76 C 494.42 68.33 493.73 67.47 493.39 67.03 C 495.48 67.10 497.57 67.19 499.66 67.14 C 499.83 66.68 500.16 65.76 500.32 65.31 C 500.38 64.96 500.50 64.28 500.56 63.93 C 500.44 63.36 500.19 62.21 500.07 61.63 C 500.04 61.15 499.99 60.20 499.96 59.72 Z" />
<path fill="#15191c" opacity="1.00" d=" M 486.04 60.44 C 487.19 59.85 488.56 59.57 489.83 60.02 C 489.81 61.79 486.84 61.56 486.04 60.44 Z" />
<path fill="#5b5e40" opacity="1.00" d=" M 497.45 60.22 L 498.23 59.96 C 498.22 60.41 498.20 61.31 498.19 61.76 C 497.98 62.35 497.58 63.53 497.38 64.12 L 497.22 64.72 C 496.70 64.76 495.66 64.86 495.13 64.91 C 495.35 63.52 495.56 62.13 495.92 60.77 C 496.31 60.63 497.07 60.36 497.45 60.22 Z" />
<path fill="#4caf8e" opacity="1.00" d=" M 498.23 59.96 C 498.66 59.90 499.53 59.78 499.96 59.72 C 499.99 60.20 500.04 61.15 500.07 61.63 C 499.60 61.66 498.66 61.73 498.19 61.76 C 498.20 61.31 498.22 60.41 498.23 59.96 Z" />
<path fill="#4bbaa0" opacity="1.00" d=" M 502.95 59.97 C 505.86 60.24 508.74 60.83 511.60 61.45 C 508.83 62.33 505.91 62.16 503.06 62.02 C 503.03 61.51 502.97 60.48 502.95 59.97 Z" />
<path fill="#1d2123" opacity="1.00" d=" M 467.37 62.34 C 465.55 62.48 465.06 61.89 465.92 60.57 C 467.06 60.58 467.54 61.17 467.37 62.34 Z" />
<path fill="#181b1e" opacity="1.00" d=" M 467.79 64.15 C 470.31 63.05 472.76 61.81 475.22 60.58 C 475.18 61.16 475.10 62.34 475.05 62.92 C 473.82 62.97 472.59 63.02 471.37 63.07 C 471.07 65.01 469.40 65.15 467.78 65.18 L 467.79 64.15 Z" />
<path fill="#2b9d26" opacity="1.00" d=" M 511.60 61.45 L 512.03 61.35 C 510.57 63.83 515.44 63.50 514.02 61.17 C 514.49 61.20 515.44 61.27 515.91 61.30 C 515.66 61.68 515.16 62.45 514.90 62.83 C 517.51 63.15 520.11 63.51 522.72 63.91 L 522.76 64.60 C 522.74 65.92 522.69 67.24 522.61 68.56 L 522.36 68.58 C 517.86 69.13 513.34 68.78 508.84 68.87 C 508.29 68.50 507.18 67.75 506.63 67.38 C 505.52 67.53 504.41 67.67 503.31 67.82 C 503.23 65.89 503.15 63.95 503.06 62.02 C 505.91 62.16 508.83 62.33 511.60 61.45 M 503.87 64.52 C 506.17 65.77 509.35 67.36 511.70 65.39 C 509.11 64.90 506.50 64.57 503.87 64.52 M 514.28 65.76 C 516.08 67.82 519.36 67.04 521.83 67.78 C 521.86 67.37 521.91 66.55 521.94 66.14 C 519.38 65.97 516.83 65.80 514.28 65.76 Z" />
<path fill="#5e6871" opacity="1.00" d=" M 512.03 61.35 C 512.53 61.31 513.52 61.21 514.02 61.17 C 515.44 63.50 510.57 63.83 512.03 61.35 Z" />
<path fill="#4bba9e" opacity="1.00" d=" M 515.91 61.30 C 518.25 61.47 520.57 61.77 522.92 61.90 C 522.87 62.40 522.77 63.41 522.72 63.91 C 520.11 63.51 517.51 63.15 514.90 62.83 C 515.16 62.45 515.66 61.68 515.91 61.30 Z" />
<path fill="#795530" opacity="1.00" d=" M 523.47 61.40 C 525.10 61.40 524.31 65.08 522.76 64.60 L 522.72 63.91 C 522.77 63.41 522.87 62.40 522.92 61.90 L 523.47 61.40 Z" />
<path fill="#2aa02a" opacity="1.00" d=" M 498.19 61.76 C 498.66 61.73 499.60 61.66 500.07 61.63 C 500.19 62.21 500.44 63.36 500.56 63.93 C 499.48 63.89 498.42 63.95 497.38 64.12 C 497.58 63.53 497.98 62.35 498.19 61.76 Z" />
<path fill="#242a2f" opacity="1.00" d=" M 564.53 61.78 C 566.47 65.86 565.98 70.55 565.80 74.93 C 565.61 81.23 561.00 85.95 558.09 91.16 C 553.01 93.35 546.66 93.52 541.61 91.34 C 543.29 90.46 545.12 89.94 546.98 89.55 C 545.12 89.14 543.32 88.54 541.59 87.78 C 542.63 87.72 543.67 87.67 544.72 87.62 C 544.59 87.28 544.31 86.60 544.17 86.26 C 548.11 86.76 552.76 88.09 556.13 85.25 C 562.53 79.35 565.19 70.32 564.53 61.78 Z" />
<path fill="#272c32" opacity="1.00" d=" M 484.36 64.29 C 485.49 63.40 487.36 63.48 488.51 64.32 C 488.75 66.37 484.09 66.35 484.36 64.29 Z" />
<path fill="#32298c" opacity="1.00" d=" M 497.38 64.12 C 498.42 63.95 499.48 63.89 500.56 63.93 C 500.50 64.28 500.38 64.96 500.32 65.31 C 499.55 65.16 498.00 64.86 497.22 64.72 L 497.38 64.12 Z" />
<path fill="#252a92" opacity="1.00" d=" M 503.87 64.52 C 506.50 64.57 509.11 64.90 511.70 65.39 C 509.35 67.36 506.17 65.77 503.87 64.52 Z" />
<path fill="#22b02a" opacity="1.00" d=" M 493.39 67.03 C 493.83 66.50 494.70 65.44 495.13 64.91 C 495.66 64.86 496.70 64.76 497.22 64.72 C 498.00 64.86 499.55 65.16 500.32 65.31 C 500.16 65.76 499.83 66.68 499.66 67.14 C 497.57 67.19 495.48 67.10 493.39 67.03 Z" />
<path fill="#414b53" opacity="1.00" d=" M 466.78 68.53 C 470.02 67.69 473.25 66.78 476.51 65.98 C 474.14 68.70 470.14 69.23 466.78 68.53 Z" />
<path fill="#25348b" opacity="1.00" d=" M 514.28 65.76 C 516.83 65.80 519.38 65.97 521.94 66.14 C 521.91 66.55 521.86 67.37 521.83 67.78 C 519.36 67.04 516.08 67.82 514.28 65.76 Z" />
<path fill="#866049" opacity="1.00" d=" M 508.84 68.87 C 513.34 68.78 517.86 69.13 522.36 68.58 C 522.94 72.46 518.56 70.67 516.30 71.72 C 513.59 70.62 510.71 70.06 507.81 69.78 L 508.84 68.87 Z" />
<path fill="#000409" opacity="1.00" d=" M 532.75 72.63 C 534.15 71.23 537.49 70.60 538.29 72.92 C 536.43 72.89 534.58 72.80 532.75 72.63 Z" />
<path fill="#868d95" opacity="1.00" d=" M 503.18 72.60 C 504.59 72.08 506.68 71.99 507.81 73.17 C 507.46 74.91 502.92 74.44 503.18 72.60 Z" />
<path fill="#13191d" opacity="1.00" d=" M 537.06 84.30 C 537.62 81.54 538.35 78.81 539.15 76.09 C 538.51 79.09 538.02 82.12 537.50 85.14 C 539.72 85.52 541.94 85.89 544.17 86.26 C 544.31 86.60 544.59 87.28 544.72 87.62 C 543.67 87.67 542.63 87.72 541.59 87.78 C 543.32 88.54 545.12 89.14 546.98 89.55 C 545.12 89.94 543.29 90.46 541.61 91.34 L 541.01 91.63 C 537.36 91.29 533.78 90.41 530.13 90.15 L 530.47 92.00 C 529.99 91.42 529.50 90.86 529.00 90.30 C 528.25 89.45 527.50 88.60 526.77 87.75 C 528.58 87.42 530.36 86.95 532.15 86.48 C 529.93 84.71 527.45 83.28 524.77 82.35 C 528.88 82.90 532.99 83.46 537.06 84.30 Z" />
<path fill="#000409" opacity="1.00" d=" M 454.37 76.51 C 462.58 76.99 470.79 77.52 479.02 77.41 C 494.31 78.61 509.57 80.33 524.77 82.35 C 527.45 83.28 529.93 84.71 532.15 86.48 C 530.36 86.95 528.58 87.42 526.77 87.75 C 522.66 87.59 518.56 87.38 514.45 87.28 L 514.43 87.27 C 514.07 87.15 513.37 86.91 513.02 86.79 C 503.93 85.36 494.72 84.77 485.67 83.11 C 483.39 82.69 481.08 82.90 478.79 83.11 C 474.56 83.13 470.34 82.77 466.14 82.33 C 464.16 82.09 462.18 81.78 460.23 81.37 C 458.80 81.03 457.37 80.65 455.95 80.30 C 455.42 79.04 454.89 77.77 454.37 76.51 Z" />
<path fill="#000409" opacity="1.00" d=" M 542.43 82.39 C 540.56 81.58 541.88 79.49 542.28 78.14 C 542.39 80.51 543.74 82.24 546.19 82.47 C 546.54 80.89 546.63 79.27 546.54 77.66 C 547.35 78.55 548.67 79.47 548.23 80.89 C 547.35 83.17 544.34 83.10 542.43 82.39 Z" />
<path fill="#13191d" opacity="1.00" d=" M 552.99 79.07 C 555.22 79.31 557.32 80.45 557.30 82.98 C 555.32 84.44 552.37 86.05 550.35 83.73 C 548.90 82.83 549.73 81.36 550.18 80.17 C 551.30 81.55 551.99 83.76 554.05 83.95 C 554.81 83.29 555.23 82.33 555.79 81.51 C 554.84 80.70 553.91 79.90 552.99 79.07 Z" />
<path fill="#5e6871" opacity="1.00" d=" M 442.95 80.95 C 443.93 79.88 445.44 79.78 446.76 80.21 C 449.78 81.06 452.94 81.48 455.95 80.30 C 457.37 80.65 458.80 81.03 460.23 81.37 C 457.66 84.40 455.08 87.45 453.09 90.90 L 452.14 90.39 C 451.75 90.19 450.98 89.79 450.60 89.59 C 449.34 91.19 448.27 92.91 447.24 94.66 C 446.55 94.47 445.87 94.28 445.19 94.08 C 445.11 93.28 444.95 91.67 444.87 90.87 C 443.32 90.93 441.77 91.00 440.23 91.07 C 439.66 91.83 439.09 92.60 438.53 93.36 C 436.17 93.90 433.89 94.79 433.62 97.51 C 432.62 98.89 434.76 99.80 435.76 98.98 C 435.56 100.15 435.29 101.31 434.97 102.45 C 434.32 103.05 433.67 103.65 433.01 104.24 C 432.38 103.16 431.76 102.09 431.14 101.02 C 430.35 104.32 429.83 107.67 429.47 111.03 C 429.10 109.33 428.71 107.62 428.40 105.91 C 430.23 96.25 435.78 87.55 442.95 80.95 Z" />
<path fill="#424c54" opacity="1.00" d=" M 453.09 90.90 C 455.08 87.45 457.66 84.40 460.23 81.37 C 462.18 81.78 464.16 82.09 466.14 82.33 C 465.65 82.69 464.68 83.41 464.19 83.77 C 467.21 83.85 470.23 84.14 473.20 84.74 C 473.20 85.24 473.18 86.24 473.18 86.74 C 471.33 86.91 469.50 87.15 467.67 87.30 C 466.01 87.58 463.70 86.86 462.72 88.65 C 460.81 91.59 459.62 94.92 458.20 98.11 C 457.96 97.86 457.48 97.36 457.24 97.11 C 457.85 95.08 458.47 93.05 459.08 91.02 C 458.72 91.34 458.00 91.98 457.64 92.31 C 456.91 94.17 455.98 95.94 454.83 97.57 C 454.81 98.30 454.80 99.03 454.79 99.77 C 451.40 100.00 449.05 102.12 447.82 105.18 C 448.15 101.90 449.18 98.77 450.81 95.91 C 450.91 96.61 451.11 98.02 451.20 98.72 C 453.19 98.41 453.06 95.10 450.81 95.91 C 451.58 94.25 452.28 92.55 453.09 90.90 M 458.34 89.28 C 458.89 89.73 458.89 89.73 458.34 89.28 Z" />
<path fill="#4a5258" opacity="1.00" d=" M 464.19 83.77 C 464.68 83.41 465.65 82.69 466.14 82.33 C 470.34 82.77 474.56 83.13 478.79 83.11 C 490.75 83.87 502.40 87.67 514.43 87.27 L 514.45 87.28 C 518.26 88.47 522.22 88.97 526.13 89.66 C 525.57 89.88 524.43 90.32 523.86 90.54 C 524.59 90.90 526.04 91.62 526.77 91.98 C 526.00 93.19 524.97 94.12 523.60 94.56 C 523.02 92.80 522.73 90.69 520.57 90.23 C 520.90 92.11 521.31 93.98 521.77 95.84 C 523.51 95.88 525.27 95.92 527.02 95.96 C 527.01 94.68 526.99 93.40 526.96 92.13 L 527.72 92.69 C 531.46 103.93 527.47 116.14 521.15 125.64 L 519.71 126.33 C 520.18 125.20 520.64 124.06 521.10 122.91 L 519.95 122.40 C 517.78 121.36 515.55 120.45 513.29 119.65 C 512.39 121.43 511.45 123.19 510.76 125.05 C 512.15 126.25 513.72 127.24 515.26 128.26 C 509.34 126.86 502.38 127.39 497.48 123.33 C 498.28 122.18 499.14 121.08 500.01 119.98 C 500.59 120.30 501.73 120.95 502.31 121.28 C 504.33 122.36 506.46 123.23 508.60 124.06 C 509.61 122.43 510.64 120.81 511.68 119.19 C 510.96 118.71 510.25 118.25 509.53 117.80 C 507.51 116.22 505.07 115.70 502.67 116.69 C 504.25 113.86 505.75 110.34 502.98 107.71 L 502.81 109.12 C 501.79 110.04 500.77 110.95 499.82 111.94 C 500.16 110.70 500.53 109.47 500.90 108.25 C 499.88 107.44 498.88 106.64 497.87 105.84 C 499.29 101.33 500.50 96.61 499.88 91.85 L 499.88 91.43 C 489.28 88.98 478.30 89.59 467.67 87.30 C 469.50 87.15 471.33 86.91 473.18 86.74 C 474.41 87.44 475.31 87.29 475.88 86.29 C 475.32 85.27 474.42 84.75 473.20 84.74 C 470.23 84.14 467.21 83.85 464.19 83.77 M 477.32 85.20 C 477.03 86.58 477.59 87.10 478.99 86.76 C 479.27 85.38 478.71 84.87 477.32 85.20 M 481.91 85.63 C 481.96 86.11 482.06 87.06 482.10 87.54 C 483.86 87.37 486.38 88.49 487.34 86.43 L 486.54 86.16 C 485.22 87.45 483.40 85.68 481.91 85.63 M 488.23 86.56 C 487.78 88.36 491.46 89.89 492.09 87.95 C 491.57 86.60 489.46 85.83 488.23 86.56 M 515.43 89.74 C 515.62 91.08 515.86 92.42 515.93 93.77 C 513.43 96.75 513.38 90.89 510.91 90.64 C 511.02 91.94 511.14 93.25 511.29 94.56 C 510.93 94.96 510.57 95.36 510.22 95.76 C 512.60 95.51 516.06 96.98 517.64 94.66 C 517.71 92.77 517.16 90.74 515.43 89.74 M 502.45 95.08 C 502.83 96.11 503.72 96.51 505.13 96.26 C 505.06 97.96 504.53 99.64 503.27 100.70 C 502.24 101.61 502.57 102.21 504.27 102.51 C 504.07 104.08 503.04 105.47 502.55 106.76 C 504.96 107.90 506.04 103.87 504.92 102.34 C 505.03 102.00 505.24 101.31 505.35 100.96 C 506.54 99.73 506.51 97.42 505.59 96.05 C 505.75 94.52 503.32 94.16 502.45 95.08 M 517.34 98.46 C 516.55 99.66 516.50 101.47 517.29 102.69 C 518.72 102.45 518.71 98.75 517.34 98.46 M 520.48 97.98 C 520.62 103.52 519.34 108.86 518.11 114.21 C 520.81 109.28 521.19 103.46 520.48 97.98 M 512.95 110.47 C 514.82 108.34 514.89 105.43 514.77 102.76 C 513.98 105.28 513.32 107.85 512.95 110.47 M 514.02 114.49 C 516.25 111.78 517.28 108.24 516.89 104.75 C 515.85 107.97 514.92 111.23 514.02 114.49 M 523.29 107.23 C 523.78 107.76 523.78 107.76 523.29 107.23 M 507.27 109.36 C 506.40 110.28 507.58 112.36 508.82 111.71 C 509.65 110.79 508.49 108.73 507.27 109.36 Z" />
<path fill="#a3644f" opacity="1.00" d=" M 473.20 84.74 C 474.42 84.75 475.32 85.27 475.88 86.29 C 475.31 87.29 474.41 87.44 473.18 86.74 C 473.18 86.24 473.20 85.24 473.20 84.74 Z" />
<path fill="#c26e50" opacity="1.00" d=" M 477.32 85.20 C 478.71 84.87 479.27 85.38 478.99 86.76 C 477.59 87.10 477.03 86.58 477.32 85.20 Z" />
<path fill="#9e6450" opacity="1.00" d=" M 481.91 85.63 C 483.40 85.68 485.22 87.45 486.54 86.16 L 487.34 86.43 C 486.38 88.49 483.86 87.37 482.10 87.54 C 482.06 87.06 481.96 86.11 481.91 85.63 Z" />
<path fill="#b06754" opacity="1.00" d=" M 488.23 86.56 C 489.46 85.83 491.57 86.60 492.09 87.95 C 491.46 89.89 487.78 88.36 488.23 86.56 Z" />
<path fill="#7b8a9a" opacity="1.00" d=" M 462.72 88.65 C 463.70 86.86 466.01 87.58 467.67 87.30 C 478.30 89.59 489.28 88.98 499.88 91.43 L 499.88 91.85 C 499.45 100.07 496.34 107.71 493.05 115.13 C 488.97 114.67 484.88 114.47 480.79 114.37 C 480.53 114.33 480.03 114.25 479.77 114.21 C 478.81 112.27 476.26 112.02 475.02 113.83 C 468.74 112.88 462.53 111.44 456.19 111.02 C 456.58 108.65 457.18 106.18 456.42 103.82 L 456.09 103.03 C 456.27 102.75 456.61 102.18 456.79 101.89 C 457.53 100.75 457.84 99.41 458.20 98.11 C 459.62 94.92 460.81 91.59 462.72 88.65 M 465.00 91.82 C 464.56 93.24 464.11 94.65 463.67 96.07 C 461.63 99.69 460.52 103.72 459.08 107.60 L 459.34 107.51 C 465.76 109.06 472.36 109.70 478.90 110.55 C 478.46 109.87 477.57 108.51 477.13 107.83 C 477.80 107.95 479.15 108.21 479.82 108.34 C 479.70 108.74 479.46 109.55 479.34 109.95 C 481.77 112.77 486.62 112.12 490.12 111.79 C 491.70 112.41 492.28 111.89 491.86 110.21 C 492.16 109.34 492.41 108.45 492.62 107.55 C 493.08 106.25 493.54 104.95 493.99 103.64 C 494.62 101.30 495.31 98.97 496.23 96.72 C 495.17 94.91 492.72 95.72 491.03 95.24 C 482.37 93.95 473.71 92.71 465.00 91.82 Z" />
<path fill="#925f57" opacity="1.00" d=" M 458.34 89.28 C 458.89 89.73 458.89 89.73 458.34 89.28 Z" />
<path fill="#43505d" opacity="1.00" d=" M 447.24 94.66 C 448.27 92.91 449.34 91.19 450.60 89.59 C 450.98 89.79 451.75 90.19 452.14 90.39 C 449.39 94.65 447.54 99.40 446.27 104.29 C 445.65 102.98 445.02 101.68 444.40 100.38 C 443.80 100.14 442.61 99.68 442.02 99.44 C 441.77 99.35 441.27 99.16 441.03 99.07 C 442.22 98.31 443.45 97.62 444.65 96.85 C 444.80 97.26 445.08 98.06 445.23 98.47 C 446.71 99.00 446.90 95.76 445.29 96.33 C 443.37 96.35 441.47 96.51 439.56 96.68 C 439.10 97.86 438.63 99.04 438.22 100.25 C 438.60 100.59 439.36 101.27 439.74 101.61 L 440.26 102.09 C 438.77 103.56 436.74 102.71 434.97 102.45 C 435.29 101.31 435.56 100.15 435.76 98.98 C 435.23 98.61 434.15 97.88 433.62 97.51 C 433.89 94.79 436.17 93.90 438.53 93.36 C 439.09 92.60 439.66 91.83 440.23 91.07 C 441.77 91.00 443.32 90.93 444.87 90.87 C 444.95 91.67 445.11 93.28 445.19 94.08 C 445.87 94.28 446.55 94.47 447.24 94.66 M 443.15 93.23 C 441.55 96.21 446.44 93.47 443.15 93.23 Z" />
<path fill="#22272a" opacity="1.00" d=" M 515.43 89.74 C 517.16 90.74 517.71 92.77 517.64 94.66 C 516.06 96.98 512.60 95.51 510.22 95.76 C 510.57 95.36 510.93 94.96 511.29 94.56 C 511.14 93.25 511.02 91.94 510.91 90.64 C 513.38 90.89 513.43 96.75 515.93 93.77 C 515.86 92.42 515.62 91.08 515.43 89.74 Z" />
<path fill="#24292c" opacity="1.00" d=" M 523.86 90.54 C 524.43 90.32 525.57 89.88 526.13 89.66 C 526.85 89.82 528.29 90.14 529.00 90.30 C 529.50 90.86 529.99 91.42 530.47 92.00 C 532.84 94.44 533.09 98.05 533.39 101.25 C 533.97 112.44 530.53 123.79 523.39 132.47 C 522.50 133.42 521.31 134.00 520.20 134.62 C 520.34 133.99 520.63 132.72 520.77 132.08 C 519.61 131.60 518.46 131.12 517.32 130.64 C 518.70 129.06 520.03 127.43 521.15 125.64 C 527.47 116.14 531.46 103.93 527.72 92.69 L 526.96 92.13 L 526.77 91.98 C 526.04 91.62 524.59 90.90 523.86 90.54 Z" />
<path fill="#54626c" opacity="1.00" d=" M 446.27 104.29 C 447.54 99.40 449.39 94.65 452.14 90.39 L 453.09 90.90 C 452.28 92.55 451.58 94.25 450.81 95.91 C 449.18 98.77 448.15 101.90 447.82 105.18 C 449.05 102.12 451.40 100.00 454.79 99.77 C 454.80 99.03 454.81 98.30 454.83 97.57 C 455.98 95.94 456.91 94.17 457.64 92.31 C 458.00 91.98 458.72 91.34 459.08 91.02 C 458.47 93.05 457.85 95.08 457.24 97.11 C 456.43 98.50 455.56 100.14 456.28 101.78 C 454.85 101.46 453.43 101.14 452.02 100.83 C 451.30 102.26 450.58 103.68 449.92 105.13 L 449.87 105.83 L 449.17 106.12 C 448.67 106.19 447.69 106.33 447.20 106.40 C 446.93 109.60 446.76 112.81 446.70 116.03 C 445.20 116.30 443.71 116.57 442.23 116.84 C 437.28 116.16 432.30 115.66 427.32 115.35 C 427.45 112.18 427.64 109.00 428.40 105.91 C 428.71 107.62 429.10 109.33 429.47 111.03 C 429.83 107.67 430.35 104.32 431.14 101.02 C 431.76 102.09 432.38 103.16 433.01 104.24 C 433.67 103.65 434.32 103.05 434.97 102.45 C 436.74 102.71 438.77 103.56 440.26 102.09 C 441.17 101.46 441.75 100.58 442.02 99.44 C 442.61 99.68 443.80 100.14 444.40 100.38 C 445.02 101.68 445.65 102.98 446.27 104.29 Z" />
<path fill="#141719" opacity="1.00" d=" M 520.57 90.23 C 522.73 90.69 523.02 92.80 523.60 94.56 C 524.97 94.12 526.00 93.19 526.77 91.98 L 526.96 92.13 C 526.99 93.40 527.01 94.68 527.02 95.96 C 525.27 95.92 523.51 95.88 521.77 95.84 C 521.31 93.98 520.90 92.11 520.57 90.23 Z" />
<path fill="#222325" opacity="1.00" d=" M 465.00 91.82 C 473.71 92.71 482.37 93.95 491.03 95.24 C 492.72 95.72 495.17 94.91 496.23 96.72 C 492.46 96.35 488.70 95.85 484.94 95.45 C 481.81 94.99 478.67 94.53 475.53 94.21 C 472.55 93.80 469.61 93.19 466.69 92.53 C 465.68 93.71 464.68 94.89 463.67 96.07 C 464.11 94.65 464.56 93.24 465.00 91.82 Z" />
<path fill="#d7d7d9" opacity="1.00" d=" M 493.05 115.13 C 496.34 107.71 499.45 100.07 499.88 91.85 C 500.50 96.61 499.29 101.33 497.87 105.84 C 496.69 109.25 495.05 112.47 493.46 115.71 C 489.20 115.73 484.96 115.23 480.79 114.37 C 484.88 114.47 488.97 114.67 493.05 115.13 Z" />
<path fill="#16191b" opacity="1.00" d=" M 443.15 93.23 C 446.44 93.47 441.55 96.21 443.15 93.23 Z" />
<path fill="#982426" opacity="1.00" d=" M 463.67 96.07 C 464.68 94.89 465.68 93.71 466.69 92.53 C 469.61 93.19 472.55 93.80 475.53 94.21 C 474.14 95.33 472.75 96.42 471.45 97.62 C 470.64 98.38 469.84 99.14 469.05 99.91 L 468.23 99.69 C 466.89 99.33 465.56 98.94 464.23 98.57 C 464.09 97.94 463.81 96.69 463.67 96.07 Z" />
<path fill="#d7d7d9" opacity="1.00" d=" M 471.45 97.62 C 472.75 96.42 474.14 95.33 475.53 94.21 C 478.67 94.53 481.81 94.99 484.94 95.45 C 486.08 97.53 486.73 99.81 486.88 102.19 C 483.18 101.64 479.43 101.24 475.86 100.08 C 475.40 100.09 474.50 100.11 474.04 100.12 C 473.21 99.25 472.33 98.43 471.45 97.62 Z" />
<path fill="#7b6161" opacity="1.00" d=" M 502.45 95.08 C 503.32 94.16 505.75 94.52 505.59 96.05 L 505.13 96.26 C 503.72 96.51 502.83 96.11 502.45 95.08 Z" />
<path fill="#5b656e" opacity="1.00" d=" M 439.56 96.68 C 441.47 96.51 443.37 96.35 445.29 96.33 L 444.65 96.85 C 443.45 97.62 442.22 98.31 441.03 99.07 C 440.70 99.70 440.06 100.97 439.74 101.61 C 439.36 101.27 438.60 100.59 438.22 100.25 C 438.63 99.04 439.10 97.86 439.56 96.68 Z" />
<path fill="#171a1c" opacity="1.00" d=" M 445.29 96.33 C 446.90 95.76 446.71 99.00 445.23 98.47 C 445.08 98.06 444.80 97.26 444.65 96.85 L 445.29 96.33 Z" />
<path fill="#798189" opacity="1.00" d=" M 450.81 95.91 C 453.06 95.10 453.19 98.41 451.20 98.72 C 451.11 98.02 450.91 96.61 450.81 95.91 Z" />
<path fill="#343b41" opacity="1.00" d=" M 459.08 107.60 C 460.52 103.72 461.63 99.69 463.67 96.07 C 463.81 96.69 464.09 97.94 464.23 98.57 C 465.56 98.94 466.89 99.33 468.23 99.69 C 467.69 99.69 466.63 99.68 466.09 99.68 C 465.29 99.69 463.69 99.72 462.89 99.74 C 462.58 101.18 462.27 102.63 462.03 104.08 L 461.90 105.05 C 464.11 105.64 466.36 106.09 468.63 106.47 L 467.30 106.85 C 464.62 106.70 461.86 106.31 459.34 107.51 L 459.08 107.60 Z" />
<path fill="#982426" opacity="1.00" d=" M 484.94 95.45 C 488.70 95.85 492.46 96.35 496.23 96.72 C 495.31 98.97 494.62 101.30 493.99 103.64 C 491.64 103.07 489.28 102.54 486.88 102.19 C 486.73 99.81 486.08 97.53 484.94 95.45 Z" />
<path fill="#15181a" opacity="1.00" d=" M 505.13 96.26 L 505.59 96.05 C 506.51 97.42 506.54 99.73 505.35 100.96 C 504.83 100.90 503.79 100.76 503.27 100.70 C 504.53 99.64 505.06 97.96 505.13 96.26 Z" />
<path fill="#282d32" opacity="1.00" d=" M 457.24 97.11 C 457.48 97.36 457.96 97.86 458.20 98.11 C 457.84 99.41 457.53 100.75 456.79 101.89 L 456.28 101.78 C 455.56 100.14 456.43 98.50 457.24 97.11 Z" />
<path fill="#222629" opacity="1.00" d=" M 435.76 98.98 C 434.76 99.80 432.62 98.89 433.62 97.51 C 434.15 97.88 435.23 98.61 435.76 98.98 Z" />
<path fill="#252a92" opacity="1.00" d=" M 471.45 97.62 C 472.33 98.43 473.21 99.25 474.04 100.12 C 474.88 101.52 475.48 101.51 475.86 100.08 C 479.43 101.24 483.18 101.64 486.88 102.19 C 489.28 102.54 491.64 103.07 493.99 103.64 C 493.54 104.95 493.08 106.25 492.62 107.55 C 492.28 106.48 491.86 105.44 491.37 104.44 C 490.02 103.18 488.13 104.00 486.66 104.50 L 486.23 104.78 C 484.99 103.84 483.84 102.31 482.08 102.79 C 481.10 103.62 480.24 104.56 479.36 105.49 C 477.03 105.53 474.70 105.54 472.38 105.56 C 472.37 103.99 472.37 102.43 472.38 100.86 C 471.27 100.54 470.16 100.22 469.05 99.91 C 469.84 99.14 470.64 98.38 471.45 97.62 Z" />
<path fill="#33383c" opacity="1.00" d=" M 517.34 98.46 C 518.71 98.75 518.72 102.45 517.29 102.69 C 516.50 101.47 516.55 99.66 517.34 98.46 Z" />
<path fill="#222325" opacity="1.00" d=" M 520.48 97.98 C 521.19 103.46 520.81 109.28 518.11 114.21 C 519.34 108.86 520.62 103.52 520.48 97.98 Z" />
<path fill="#181c20" opacity="1.00" d=" M 439.74 101.61 C 440.06 100.97 440.70 99.70 441.03 99.07 C 441.27 99.16 441.77 99.35 442.02 99.44 C 441.75 100.58 441.17 101.46 440.26 102.09 L 439.74 101.61 Z" />
<path fill="#060707" opacity="0.51" d=" M 533.39 101.25 C 533.72 100.53 534.07 99.83 534.46 99.13 C 534.46 104.73 535.13 110.47 533.49 115.92 C 531.57 123.15 528.33 130.49 522.60 135.49 C 513.87 137.34 505.54 132.98 496.99 131.98 C 482.30 129.88 467.71 127.10 453.06 124.70 C 445.84 124.61 438.46 124.03 431.70 121.28 C 430.48 120.89 429.54 120.03 428.87 118.97 C 433.29 120.86 437.98 122.15 442.78 122.55 C 461.27 123.92 479.38 128.25 497.77 130.54 C 497.40 129.11 496.98 127.70 496.67 126.26 C 497.71 127.86 497.95 130.33 500.08 130.89 C 506.50 133.27 513.37 134.40 520.20 134.62 C 521.31 134.00 522.50 133.42 523.39 132.47 C 530.53 123.79 533.97 112.44 533.39 101.25 Z" />
<path fill="#ab713d" opacity="1.00" d=" M 462.89 99.74 C 463.69 99.72 465.29 99.69 466.09 99.68 C 466.02 101.13 465.95 102.58 465.89 104.04 C 464.59 104.05 463.31 104.07 462.03 104.08 C 462.27 102.63 462.58 101.18 462.89 99.74 Z" />
<path fill="#945633" opacity="1.00" d=" M 466.09 99.68 C 466.63 99.68 467.69 99.69 468.23 99.69 L 469.05 99.91 C 470.16 100.22 471.27 100.54 472.38 100.86 C 472.37 102.43 472.37 103.99 472.38 105.56 C 474.70 105.54 477.03 105.53 479.36 105.49 C 480.24 104.56 481.10 103.62 482.08 102.79 C 483.84 102.31 484.99 103.84 486.23 104.78 C 485.32 105.75 484.46 106.76 483.61 107.78 C 484.49 107.83 486.25 107.95 487.13 108.00 C 487.02 107.13 486.78 105.37 486.66 104.50 C 488.13 104.00 490.02 103.18 491.37 104.44 C 491.86 105.44 492.28 106.48 492.62 107.55 C 492.41 108.45 492.16 109.34 491.86 110.21 C 491.42 110.12 490.54 109.95 490.10 109.86 C 488.39 109.57 486.68 109.29 484.98 109.05 L 484.17 108.93 C 482.72 108.72 481.26 108.52 479.82 108.34 C 479.15 108.21 477.80 107.95 477.13 107.83 C 474.34 107.12 471.50 106.58 468.63 106.47 C 466.36 106.09 464.11 105.64 461.90 105.05 L 462.03 104.08 C 463.31 104.07 464.59 104.05 465.89 104.04 C 465.95 102.58 466.02 101.13 466.09 99.68 Z" />
<path fill="#a79963" opacity="1.00" d=" M 474.04 100.12 C 474.50 100.11 475.40 100.09 475.86 100.08 C 475.48 101.51 474.88 101.52 474.04 100.12 Z" />
<path fill="#3a454f" opacity="1.00" d=" M 452.02 100.83 C 453.43 101.14 454.85 101.46 456.28 101.78 L 456.79 101.89 C 456.61 102.18 456.27 102.75 456.09 103.03 C 454.90 103.46 454.03 105.70 455.86 105.83 C 455.33 107.46 454.96 109.15 454.66 110.84 L 456.19 111.02 C 462.53 111.44 468.74 112.88 475.02 113.83 C 476.57 114.16 478.17 114.22 479.77 114.21 C 480.03 114.25 480.53 114.33 480.79 114.37 C 484.96 115.23 489.20 115.73 493.46 115.71 C 495.05 112.47 496.69 109.25 497.87 105.84 C 498.88 106.64 499.88 107.44 500.90 108.25 C 500.53 109.47 500.16 110.70 499.82 111.94 C 499.77 112.13 499.67 112.51 499.63 112.70 C 499.00 112.68 497.74 112.66 497.11 112.65 C 496.63 114.71 499.88 114.64 500.86 113.44 C 502.66 112.75 503.02 110.81 502.81 109.12 L 502.98 107.71 C 505.75 110.34 504.25 113.86 502.67 116.69 C 505.07 115.70 507.51 116.22 509.53 117.80 C 509.39 119.24 509.25 120.68 509.11 122.12 C 507.63 122.13 506.16 122.14 504.69 122.14 C 504.70 120.79 504.73 119.44 504.78 118.09 C 504.19 119.35 504.01 121.14 502.31 121.28 C 501.73 120.95 500.59 120.30 500.01 119.98 C 499.14 121.08 498.28 122.18 497.48 123.33 L 497.40 123.46 C 490.87 122.51 484.28 121.92 477.81 120.57 C 467.54 118.41 457.08 117.49 446.70 116.03 C 446.76 112.81 446.93 109.60 447.20 106.40 C 447.69 106.33 448.67 106.19 449.17 106.12 C 450.42 107.33 452.35 107.74 453.89 106.77 C 453.38 106.49 452.37 105.92 451.87 105.64 C 453.14 104.00 450.33 103.62 449.92 105.13 C 450.58 103.68 451.30 102.26 452.02 100.83 M 467.84 115.34 C 470.39 116.62 473.29 116.70 476.09 116.67 C 473.99 114.45 470.54 115.69 467.84 115.34 Z" />
<path fill="#896563" opacity="1.00" d=" M 504.27 102.51 C 502.57 102.21 502.24 101.61 503.27 100.70 C 503.79 100.76 504.83 100.90 505.35 100.96 C 505.24 101.31 505.03 102.00 504.92 102.34 L 504.27 102.51 Z" />
<path fill="#1e2224" opacity="1.00" d=" M 504.27 102.51 L 504.92 102.34 C 506.04 103.87 504.96 107.90 502.55 106.76 C 503.04 105.47 504.07 104.08 504.27 102.51 Z" />
<path fill="#1f262a" opacity="1.00" d=" M 455.86 105.83 C 454.03 105.70 454.90 103.46 456.09 103.03 L 456.42 103.82 C 456.28 104.32 456.00 105.33 455.86 105.83 Z" />
<path fill="#30353a" opacity="1.00" d=" M 512.95 110.47 C 513.32 107.85 513.98 105.28 514.77 102.76 C 514.89 105.43 514.82 108.34 512.95 110.47 Z" />
<path fill="#1d2328" opacity="1.00" d=" M 449.92 105.13 C 450.33 103.62 453.14 104.00 451.87 105.64 C 451.37 105.69 450.37 105.78 449.87 105.83 L 449.92 105.13 Z" />
<path fill="#9ba4ae" opacity="1.00" d=" M 456.42 103.82 C 457.18 106.18 456.58 108.65 456.19 111.02 L 454.66 110.84 C 454.96 109.15 455.33 107.46 455.86 105.83 C 456.00 105.33 456.28 104.32 456.42 103.82 Z" />
<path fill="#4b634d" opacity="1.00" d=" M 483.61 107.78 C 484.46 106.76 485.32 105.75 486.23 104.78 L 486.66 104.50 C 486.78 105.37 487.02 107.13 487.13 108.00 C 486.25 107.95 484.49 107.83 483.61 107.78 Z" />
<path fill="#353b3f" opacity="1.00" d=" M 514.02 114.49 C 514.92 111.23 515.85 107.97 516.89 104.75 C 517.28 108.24 516.25 111.78 514.02 114.49 Z" />
<path fill="#805a57" opacity="1.00" d=" M 449.17 106.12 L 449.87 105.83 C 450.37 105.78 451.37 105.69 451.87 105.64 C 452.37 105.92 453.38 106.49 453.89 106.77 C 452.35 107.74 450.42 107.33 449.17 106.12 Z" />
<path fill="#222325" opacity="1.00" d=" M 459.34 107.51 C 461.86 106.31 464.62 106.70 467.30 106.85 L 468.63 106.47 C 471.50 106.58 474.34 107.12 477.13 107.83 C 477.57 108.51 478.46 109.87 478.90 110.55 C 472.36 109.70 465.76 109.06 459.34 107.51 Z" />
<path fill="#101417" opacity="1.00" d=" M 523.29 107.23 C 523.78 107.76 523.78 107.76 523.29 107.23 Z" />
<path fill="#6f6a7c" opacity="1.00" d=" M 479.82 108.34 C 481.26 108.52 482.72 108.72 484.17 108.93 C 482.54 110.84 486.23 111.26 484.98 109.05 C 486.68 109.29 488.39 109.57 490.10 109.86 C 490.10 110.34 490.11 111.31 490.12 111.79 C 486.62 112.12 481.77 112.77 479.34 109.95 C 479.46 109.55 479.70 108.74 479.82 108.34 M 481.23 109.27 C 481.76 109.77 481.76 109.77 481.23 109.27 M 487.32 110.27 C 487.83 110.79 487.83 110.79 487.32 110.27 Z" />
<path fill="#1817a0" opacity="1.00" d=" M 481.23 109.27 C 481.76 109.77 481.76 109.77 481.23 109.27 Z" />
<path fill="#373399" opacity="1.00" d=" M 484.17 108.93 L 484.98 109.05 C 486.23 111.26 482.54 110.84 484.17 108.93 Z" />
<path fill="#1d2124" opacity="1.00" d=" M 502.81 109.12 C 503.02 110.81 502.66 112.75 500.86 113.44 C 500.55 113.25 499.94 112.88 499.63 112.70 C 499.67 112.51 499.77 112.13 499.82 111.94 C 500.77 110.95 501.79 110.04 502.81 109.12 Z" />
<path fill="#32393e" opacity="1.00" d=" M 507.27 109.36 C 508.49 108.73 509.65 110.79 508.82 111.71 C 507.58 112.36 506.40 110.28 507.27 109.36 Z" />
<path fill="#19179c" opacity="1.00" d=" M 487.32 110.27 C 487.83 110.79 487.83 110.79 487.32 110.27 Z" />
<path fill="#464591" opacity="1.00" d=" M 490.10 109.86 C 490.54 109.95 491.42 110.12 491.86 110.21 C 492.28 111.89 491.70 112.41 490.12 111.79 C 490.11 111.31 490.10 110.34 490.10 109.86 Z" />
<path fill="#785a56" opacity="1.00" d=" M 497.11 112.65 C 497.74 112.66 499.00 112.68 499.63 112.70 C 499.94 112.88 500.55 113.25 500.86 113.44 C 499.88 114.64 496.63 114.71 497.11 112.65 Z" />
<path fill="#a3abb5" opacity="1.00" d=" M 475.02 113.83 C 476.26 112.02 478.81 112.27 479.77 114.21 C 478.17 114.22 476.57 114.16 475.02 113.83 Z" />
<path fill="#3f4952" opacity="1.00" d=" M 427.32 115.35 C 432.30 115.66 437.28 116.16 442.23 116.84 C 441.11 117.39 440.03 117.97 438.95 118.55 C 440.48 118.87 442.03 119.18 443.58 119.50 C 443.98 120.32 444.38 121.13 444.79 121.95 C 444.29 122.10 443.28 122.40 442.78 122.55 C 437.98 122.15 433.29 120.86 428.87 118.97 C 427.70 118.11 427.63 116.63 427.32 115.35 Z" />
<path fill="#d7d7d9" opacity="1.00" d=" M 467.84 115.34 C 470.54 115.69 473.99 114.45 476.09 116.67 C 473.29 116.70 470.39 116.62 467.84 115.34 Z" />
<path fill="#343b41" opacity="1.00" d=" M 442.23 116.84 C 443.71 116.57 445.20 116.30 446.70 116.03 C 447.09 116.46 447.88 117.34 448.27 117.78 C 462.16 120.10 476.10 122.16 489.99 124.48 C 492.13 124.81 494.30 125.04 496.48 125.14 C 496.71 124.72 497.17 123.88 497.40 123.46 L 497.48 123.33 C 502.38 127.39 509.34 126.86 515.26 128.26 C 513.72 127.24 512.15 126.25 510.76 125.05 C 511.45 123.19 512.39 121.43 513.29 119.65 C 515.55 120.45 517.78 121.36 519.95 122.40 C 519.65 122.96 519.06 124.10 518.77 124.67 L 518.28 124.95 C 517.35 124.11 516.27 123.47 515.19 122.86 C 515.21 123.60 515.26 125.07 515.28 125.81 C 515.73 125.94 516.62 126.21 517.07 126.34 C 516.70 126.81 515.98 127.76 515.61 128.23 C 516.98 127.61 518.36 127.00 519.71 126.33 L 521.15 125.64 C 520.03 127.43 518.70 129.06 517.32 130.64 C 518.46 131.12 519.61 131.60 520.77 132.08 C 520.63 132.72 520.34 133.99 520.20 134.62 C 513.37 134.40 506.50 133.27 500.08 130.89 C 497.95 130.33 497.71 127.86 496.67 126.26 C 496.98 127.70 497.40 129.11 497.77 130.54 C 479.38 128.25 461.27 123.92 442.78 122.55 C 443.28 122.40 444.29 122.10 444.79 121.95 C 444.38 121.13 443.98 120.32 443.58 119.50 C 442.03 119.18 440.48 118.87 438.95 118.55 C 440.03 117.97 441.11 117.39 442.23 116.84 Z" />
<path fill="#13191d" opacity="1.00" d=" M 446.70 116.03 C 457.08 117.49 467.54 118.41 477.81 120.57 C 484.28 121.92 490.87 122.51 497.40 123.46 C 497.17 123.88 496.71 124.72 496.48 125.14 C 494.30 125.04 492.13 124.81 489.99 124.48 C 476.10 122.16 462.16 120.10 448.27 117.78 C 447.88 117.34 447.09 116.46 446.70 116.03 Z" />
<path fill="#000409" opacity="1.00" d=" M 502.31 121.28 C 504.01 121.14 504.19 119.35 504.78 118.09 C 504.73 119.44 504.70 120.79 504.69 122.14 C 506.16 122.14 507.63 122.13 509.11 122.12 C 509.25 120.68 509.39 119.24 509.53 117.80 C 510.25 118.25 510.96 118.71 511.68 119.19 C 510.64 120.81 509.61 122.43 508.60 124.06 C 506.46 123.23 504.33 122.36 502.31 121.28 Z" />
<path fill="#484e54" opacity="1.00" d=" M 515.19 122.86 C 516.27 123.47 517.35 124.11 518.28 124.95 C 517.98 125.29 517.37 125.99 517.07 126.34 C 516.62 126.21 515.73 125.94 515.28 125.81 C 515.26 125.07 515.21 123.60 515.19 122.86 Z" />
<path fill="#0d0f11" opacity="1.00" d=" M 518.77 124.67 C 519.06 124.10 519.65 122.96 519.95 122.40 L 521.10 122.91 C 520.64 124.06 520.18 125.20 519.71 126.33 C 518.36 127.00 516.98 127.61 515.61 128.23 C 515.98 127.76 516.70 126.81 517.07 126.34 C 517.37 125.99 517.98 125.29 518.28 124.95 L 518.77 124.67 Z" />
<path fill="#ffffff" opacity="1.00" d=" M 21.19 292.47 C 25.24 292.52 29.30 292.49 33.35 292.50 C 34.98 305.67 36.62 318.83 38.25 332.00 C 35.32 332.01 32.39 332.03 29.46 331.91 C 29.37 329.56 29.23 327.22 29.09 324.88 C 28.33 324.88 26.80 324.87 26.04 324.87 C 25.90 327.22 25.75 329.58 25.65 331.94 C 22.68 332.02 19.72 332.00 16.76 332.00 C 18.25 318.82 19.63 305.63 21.19 292.47 M 25.99 317.93 C 26.69 317.90 28.10 317.85 28.80 317.83 C 28.33 312.27 27.98 306.71 27.56 301.15 C 27.01 306.74 26.36 312.32 25.99 317.93 Z" />
<path fill="#ffffff" opacity="1.00" d=" M 38.26 292.49 C 44.46 292.50 50.65 292.51 56.85 292.48 C 56.88 295.12 56.89 297.76 56.83 300.41 C 55.13 300.39 53.44 300.37 51.75 300.37 C 51.76 310.90 51.72 321.43 51.77 331.97 C 48.93 332.01 46.08 332.01 43.23 331.98 C 43.28 321.45 43.24 310.91 43.25 300.38 C 41.59 300.37 39.93 300.38 38.26 300.38 C 38.25 297.75 38.25 295.12 38.26 292.49 Z" />
<path fill="#ffffff" opacity="1.00" d=" M 61.19 292.47 C 65.24 292.52 69.30 292.49 73.35 292.51 C 74.98 305.67 76.62 318.83 78.25 331.99 C 75.43 331.98 72.60 332.08 69.78 331.96 C 68.98 329.74 69.38 327.21 69.09 324.88 C 68.32 324.88 66.80 324.87 66.04 324.87 C 65.90 327.22 65.75 329.58 65.64 331.94 C 62.68 332.02 59.72 332.00 56.76 332.00 C 58.25 318.82 59.63 305.64 61.19 292.47 M 65.99 317.93 C 66.69 317.90 68.09 317.85 68.80 317.83 C 68.34 312.24 67.97 306.64 67.52 301.05 C 67.03 306.68 66.36 312.29 65.99 317.93 Z" />
<path fill="#ffff00" opacity="1.00" d=" M 121.73 292.56 C 124.57 292.47 127.43 292.47 130.28 292.56 C 130.21 303.05 130.28 313.54 130.24 324.03 C 131.96 324.09 133.69 324.14 135.41 324.22 C 135.37 326.77 135.37 329.33 135.44 331.89 C 130.88 332.09 126.31 331.97 121.75 332.00 C 121.73 318.85 121.78 305.70 121.73 292.56 Z" />
<path fill="#ffffff" opacity="1.00" d=" M 79.75 292.50 C 84.50 292.60 89.33 292.14 94.03 293.11 C 97.34 294.17 98.44 298.01 98.57 301.13 C 98.77 304.96 99.12 310.41 94.44 311.63 C 96.60 312.05 98.24 313.86 98.45 316.05 C 98.85 321.33 98.49 326.65 98.66 331.95 C 96.02 332.00 93.39 332.00 90.75 332.00 C 90.53 326.28 91.22 320.48 90.36 314.81 C 89.85 314.57 88.82 314.07 88.31 313.83 C 88.19 319.88 88.28 325.94 88.25 332.00 C 85.42 332.00 82.58 332.00 79.75 332.00 C 79.75 318.83 79.75 305.67 79.75 292.50 M 88.33 298.92 C 88.21 302.04 88.23 305.15 88.28 308.27 C 89.32 307.81 90.86 307.63 90.66 306.10 C 90.70 303.58 91.74 299.61 88.33 298.92 Z" />
<path fill="#ffffff" opacity="1.00" d=" M 102.22 331.96 C 102.36 318.78 102.09 305.61 102.36 292.43 C 105.16 292.50 107.97 292.49 110.78 292.55 C 110.72 305.69 110.74 318.83 110.77 331.98 C 107.92 332.01 105.07 332.01 102.22 331.96 Z" />
<path fill="#ffff00" opacity="1.00" d=" M 135.26 292.49 C 137.87 292.49 140.49 292.50 143.11 292.51 C 143.92 297.39 144.30 302.33 145.28 307.18 C 145.93 302.27 146.66 297.38 147.52 292.51 C 150.13 292.49 152.75 292.49 155.37 292.51 C 153.41 300.63 151.27 308.72 149.37 316.86 C 148.81 321.88 149.27 326.96 149.12 332.00 C 146.49 332.00 143.86 332.00 141.23 331.97 C 141.02 325.68 142.01 319.22 140.17 313.09 C 138.50 306.23 136.87 299.36 135.26 292.49 Z" />
<path fill="#ffff00" opacity="1.00" d=" M 156.75 292.49 C 159.11 292.49 161.47 292.50 163.83 292.56 C 165.35 298.12 166.44 303.84 168.53 309.22 C 168.50 303.65 168.49 298.08 168.50 292.51 C 170.85 292.50 173.21 292.49 175.56 292.46 C 175.74 305.62 175.52 318.78 175.68 331.93 C 173.18 332.00 170.69 332.01 168.20 331.97 C 166.98 326.33 165.32 320.80 164.34 315.11 C 164.11 314.90 163.65 314.49 163.42 314.28 C 164.22 320.15 163.77 326.09 163.87 332.00 C 161.49 332.00 159.12 332.00 156.75 332.00 C 156.74 318.83 156.75 305.66 156.75 292.49 Z" />
<path fill="#ffff00" opacity="1.00" d=" M 177.57 292.50 C 180.33 292.49 183.09 292.49 185.86 292.52 C 186.38 296.05 186.91 299.59 187.54 303.11 C 188.25 299.57 188.81 296.01 189.48 292.47 C 191.83 292.49 194.19 292.50 196.55 292.50 C 195.67 297.72 194.69 302.92 193.77 308.14 C 193.30 309.98 193.85 311.83 194.20 313.64 C 195.52 319.75 196.78 325.88 198.06 332.00 C 195.42 332.00 192.79 332.00 190.16 331.99 C 189.15 327.31 188.45 322.58 187.44 317.90 C 186.96 322.60 186.37 327.28 185.84 331.97 C 183.09 332.00 180.33 332.00 177.58 332.00 C 178.53 324.68 179.87 317.41 180.67 310.08 C 179.93 304.18 178.53 298.37 177.57 292.50 Z" />
</svg>
