<?xml version="1.0" encoding="UTF-8" ?>
<!DOCTYPE svg PUBLIC "-//W3C//DTD SVG 1.1//EN" "http://www.w3.org/Graphics/SVG/1.1/DTD/svg11.dtd">
<svg width="1280pt" height="720pt" viewBox="0 0 1280 720" version="1.1" xmlns="http://www.w3.org/2000/svg">
<path fill="#cd6d25" opacity="1.00" d=" M 660.67 38.01 C 675.02 36.82 689.42 36.11 703.72 34.39 C 703.69 36.31 703.67 38.23 703.65 40.15 C 703.59 42.72 703.53 45.29 703.49 47.86 C 703.41 51.27 703.38 54.68 703.34 58.09 C 702.96 58.01 702.18 57.84 701.79 57.75 C 701.44 57.70 700.74 57.60 700.39 57.55 C 700.55 54.32 700.65 51.09 700.69 47.85 C 700.75 44.41 700.85 40.96 700.61 37.53 C 700.60 37.28 700.56 36.79 700.55 36.55 C 694.07 37.67 687.48 37.60 680.96 38.34 C 673.99 38.62 667.07 39.83 660.08 39.61 C 660.05 39.30 659.98 38.70 659.94 38.40 L 660.67 38.01 Z" />
<path fill="#328d55" opacity="1.00" d=" M 703.72 34.39 C 706.55 35.91 709.52 37.15 712.43 38.53 C 709.52 39.22 706.59 39.75 703.65 40.15 C 703.67 38.23 703.69 36.31 703.72 34.39 Z" />
<path fill="#001418" opacity="1.00" d=" M 680.96 38.34 C 687.48 37.60 694.07 37.67 700.55 36.55 C 700.56 36.79 700.60 37.28 700.61 37.53 C 697.63 37.56 694.68 37.85 691.73 38.19 C 666.87 39.83 642.04 42.03 617.17 43.54 C 617.35 48.24 617.89 52.91 618.60 57.56 C 618.71 58.19 618.95 59.46 619.07 60.10 C 618.46 60.40 617.23 61.00 616.62 61.30 C 615.23 55.30 615.28 49.10 614.50 43.02 C 628.99 42.35 643.43 40.82 657.93 40.22 C 656.37 37.39 652.56 39.18 650.01 38.87 C 652.97 37.90 656.13 38.04 659.21 38.03 L 659.94 38.40 C 659.98 38.70 660.05 39.30 660.08 39.61 C 667.07 39.83 673.99 38.62 680.96 38.34 Z" />
<path fill="#0aa133" opacity="1.00" d=" M 691.73 38.19 C 694.68 37.85 697.63 37.56 700.61 37.53 C 700.85 40.96 700.75 44.41 700.69 47.85 C 697.18 49.03 693.65 50.20 690.32 51.82 C 689.61 51.72 688.18 51.52 687.47 51.42 C 685.73 49.35 689.05 49.14 690.07 48.13 C 688.99 47.58 687.91 47.02 686.85 46.46 C 687.80 46.20 689.70 45.67 690.65 45.40 C 689.67 44.55 688.43 44.36 687.19 44.33 C 685.73 44.15 684.29 43.92 682.85 43.67 C 687.32 42.15 692.12 41.54 696.29 39.20 C 694.77 38.84 693.25 38.50 691.73 38.19 Z" />
<path fill="#d6762c" opacity="1.00" d=" M 612.55 41.72 C 625.03 40.67 637.52 39.80 650.01 38.87 C 652.56 39.18 656.37 37.39 657.93 40.22 C 643.43 40.82 628.99 42.35 614.50 43.02 C 615.28 49.10 615.23 55.30 616.62 61.30 C 617.23 61.00 618.46 60.40 619.07 60.10 C 623.42 60.08 627.78 60.42 632.13 60.15 C 627.42 60.65 622.59 60.42 617.99 61.67 C 622.60 63.40 627.04 65.56 631.37 67.91 C 631.27 74.07 630.58 80.20 630.57 86.36 L 630.52 85.55 C 629.59 79.63 631.66 73.46 629.73 67.71 C 624.89 65.12 619.76 63.16 614.85 60.73 C 613.32 54.53 613.63 48.01 612.55 41.72 Z" />
<path fill="#23b74c" opacity="1.00" d=" M 617.17 43.54 C 642.04 42.03 666.87 39.83 691.73 38.19 C 693.25 38.50 694.77 38.84 696.29 39.20 C 692.12 41.54 687.32 42.15 682.85 43.67 C 684.29 43.92 685.73 44.15 687.19 44.33 C 686.10 44.53 685.02 44.74 683.94 44.98 L 683.10 45.18 C 682.90 47.51 682.82 49.85 682.68 52.18 C 682.59 51.81 682.41 51.07 682.32 50.70 C 681.86 48.78 681.44 46.85 681.02 44.92 L 680.05 45.31 C 678.57 45.30 677.09 45.26 675.63 45.20 C 672.91 45.05 670.19 45.20 667.51 45.63 C 660.78 46.50 653.96 46.77 647.19 46.78 C 645.30 46.57 643.39 46.51 641.50 46.55 C 641.09 46.18 640.26 45.45 639.85 45.09 C 638.54 45.45 637.20 45.73 636.06 46.45 C 635.46 46.05 634.27 45.25 633.67 44.85 L 633.32 44.65 C 632.08 44.60 630.86 44.61 629.64 44.61 C 629.14 46.76 628.68 48.91 628.28 51.07 C 627.78 53.38 627.49 55.72 627.22 58.06 C 627.11 56.88 627.00 55.69 626.90 54.51 C 624.34 56.02 621.60 57.30 618.60 57.56 C 617.89 52.91 617.35 48.24 617.17 43.54 Z" />
<path fill="#267a3a" opacity="1.00" d=" M 703.65 40.15 C 706.59 39.75 709.52 39.22 712.43 38.53 C 714.06 39.26 715.71 39.99 717.37 40.72 C 718.00 43.16 718.55 45.63 719.06 48.11 C 713.86 48.86 708.68 47.97 703.49 47.86 C 703.53 45.29 703.59 42.72 703.65 40.15 Z" />
<path fill="#ffaa1e" opacity="1.00" d=" M 629.64 44.61 C 630.86 44.61 632.08 44.60 633.32 44.65 L 633.67 44.85 C 633.46 45.80 633.27 46.74 633.09 47.69 C 631.80 47.86 630.51 48.02 629.24 48.19 C 628.90 49.14 628.58 50.11 628.28 51.07 C 628.68 48.91 629.14 46.76 629.64 44.61 Z" />
<path fill="#c8e0cd" opacity="1.00" d=" M 687.19 44.33 C 688.43 44.36 689.67 44.55 690.65 45.40 C 689.70 45.67 687.80 46.20 686.85 46.46 C 687.91 47.02 688.99 47.58 690.07 48.13 C 689.05 49.14 685.73 49.35 687.47 51.42 C 688.18 51.52 689.61 51.72 690.32 51.82 C 689.98 52.10 689.30 52.67 688.96 52.95 C 687.30 52.91 685.65 52.83 684.00 52.84 C 683.95 50.22 683.93 47.60 683.94 44.98 C 685.02 44.74 686.10 44.53 687.19 44.33 Z" />
<path fill="#8ec221" opacity="1.00" d=" M 633.09 47.69 C 633.27 46.74 633.46 45.80 633.67 44.85 C 634.27 45.25 635.46 46.05 636.06 46.45 C 636.04 46.75 636.02 47.35 636.01 47.66 C 635.41 49.99 634.47 52.21 633.67 54.47 C 633.30 54.09 632.57 53.33 632.20 52.95 C 632.49 51.20 632.75 49.44 633.09 47.69 Z" />
<path fill="#ff9b01" opacity="1.00" d=" M 636.06 46.45 C 637.20 45.73 638.54 45.45 639.85 45.09 C 640.26 45.45 641.09 46.18 641.50 46.55 C 643.39 46.51 645.30 46.57 647.19 46.78 L 645.31 46.81 C 645.34 48.95 645.33 51.10 645.16 53.24 C 644.55 51.30 644.53 49.24 644.57 47.22 C 643.65 47.33 641.79 47.54 640.86 47.65 L 640.22 47.69 C 638.81 47.70 637.41 47.67 636.01 47.66 C 636.02 47.35 636.04 46.75 636.06 46.45 Z" />
<path fill="#018f24" opacity="1.00" d=" M 667.51 45.63 C 670.19 45.20 672.91 45.05 675.63 45.20 C 673.76 47.79 674.81 51.16 674.88 54.10 C 675.43 53.27 676.52 51.62 677.07 50.80 C 677.51 51.41 678.38 52.63 678.81 53.24 L 680.40 52.99 L 680.82 52.97 C 681.62 52.94 683.20 52.87 684.00 52.84 C 685.65 52.83 687.30 52.91 688.96 52.95 C 689.30 52.67 689.98 52.10 690.32 51.82 C 693.65 50.20 697.18 49.03 700.69 47.85 C 700.65 51.09 700.55 54.32 700.39 57.55 C 685.99 57.54 671.60 58.70 657.20 59.02 C 652.09 58.61 646.86 58.93 641.90 57.45 C 644.33 56.60 646.78 55.82 649.28 55.22 C 651.08 54.86 652.91 54.59 654.75 54.44 C 657.69 54.27 660.64 54.19 663.60 54.07 C 664.86 54.07 666.24 54.08 667.01 52.87 C 668.18 50.78 667.14 48.48 664.63 48.38 C 665.59 47.47 666.54 46.55 667.51 45.63 M 667.52 45.81 C 667.52 48.21 667.47 50.63 667.89 53.00 C 669.14 54.85 672.28 53.26 674.24 53.40 C 674.00 50.68 674.07 47.94 674.54 45.25 L 672.97 45.45 C 671.66 45.53 670.37 45.60 669.08 45.69 L 667.52 45.81 Z" />
<path fill="#ffffff" opacity="1.00" d=" M 675.63 45.20 C 677.09 45.26 678.57 45.30 680.05 45.31 C 678.85 45.88 677.69 46.51 676.55 47.14 C 674.50 47.96 676.04 50.44 677.84 50.11 C 678.68 51.07 679.52 52.04 680.40 52.99 L 678.81 53.24 C 678.38 52.63 677.51 51.41 677.07 50.80 C 676.52 51.62 675.43 53.27 674.88 54.10 C 674.81 51.16 673.76 47.79 675.63 45.20 Z" />
<path fill="#b3d6bd" opacity="1.00" d=" M 680.05 45.31 L 681.02 44.92 C 681.44 46.85 681.86 48.78 682.32 50.70 C 681.95 51.26 681.20 52.40 680.82 52.97 L 680.40 52.99 C 679.52 52.04 678.68 51.07 677.84 50.11 C 677.61 49.02 677.18 48.03 676.55 47.14 C 677.69 46.51 678.85 45.88 680.05 45.31 Z" />
<path fill="#e4f7ea" opacity="1.00" d=" M 683.10 45.18 L 683.94 44.98 C 683.93 47.60 683.95 50.22 684.00 52.84 C 683.20 52.87 681.62 52.94 680.82 52.97 C 681.20 52.40 681.95 51.26 682.32 50.70 C 682.41 51.07 682.59 51.81 682.68 52.18 C 682.82 49.85 682.90 47.51 683.10 45.18 Z" />
<path fill="#bfdfc7" opacity="1.00" d=" M 647.19 46.78 C 653.96 46.77 660.78 46.50 667.51 45.63 C 666.54 46.55 665.59 47.47 664.63 48.38 C 667.14 48.48 668.18 50.78 667.01 52.87 C 666.24 54.08 664.86 54.07 663.60 54.07 L 662.70 53.74 C 663.84 52.81 664.95 51.81 665.99 50.75 C 664.83 50.45 663.67 50.16 662.53 49.87 C 662.47 50.80 662.37 52.67 662.32 53.60 C 661.86 53.31 660.94 52.74 660.48 52.45 C 659.83 51.09 659.27 49.69 658.71 48.29 C 657.14 48.27 655.59 48.25 654.05 48.24 C 654.27 50.30 654.50 52.37 654.75 54.44 C 652.91 54.59 651.08 54.86 649.28 55.22 C 649.01 52.67 648.78 50.11 648.42 47.57 C 647.48 49.83 647.50 52.30 647.49 54.70 C 645.74 54.74 643.81 55.09 642.53 53.62 C 641.93 54.10 640.73 55.06 640.13 55.55 C 640.54 52.93 640.84 50.30 640.86 47.65 C 641.79 47.54 643.65 47.33 644.57 47.22 C 644.53 49.24 644.55 51.30 645.16 53.24 C 645.33 51.10 645.34 48.95 645.31 46.81 L 647.19 46.78 M 649.95 52.95 C 650.51 52.97 651.64 53.00 652.20 53.01 C 652.13 51.21 652.04 49.42 651.92 47.63 C 649.93 48.67 650.40 51.12 649.95 52.95 M 642.07 50.31 C 640.64 53.27 645.51 50.27 642.07 50.31 Z" />
<path fill="#d7eddd" opacity="1.00" d=" M 667.52 45.81 L 669.08 45.69 C 668.96 47.83 668.85 49.98 668.75 52.13 C 670.21 52.11 671.67 52.09 673.14 52.07 C 673.08 49.87 673.01 47.66 672.97 45.45 L 674.54 45.25 C 674.07 47.94 674.00 50.68 674.24 53.40 C 672.28 53.26 669.14 54.85 667.89 53.00 C 667.47 50.63 667.52 48.21 667.52 45.81 Z" />
<path fill="#b8d5bf" opacity="1.00" d=" M 669.08 45.69 C 670.37 45.60 671.66 45.53 672.97 45.45 C 673.01 47.66 673.08 49.87 673.14 52.07 C 671.67 52.09 670.21 52.11 668.75 52.13 C 668.85 49.98 668.96 47.83 669.08 45.69 Z" />
<path fill="#ffee1b" opacity="1.00" d=" M 636.01 47.66 C 637.41 47.67 638.81 47.70 640.22 47.69 C 640.18 49.48 640.16 51.27 640.17 53.07 C 638.60 53.22 637.05 53.38 635.51 53.53 C 635.14 53.87 634.40 54.53 634.04 54.86 L 633.67 54.47 C 634.47 52.21 635.41 49.99 636.01 47.66 Z" />
<path fill="#6fb27a" opacity="1.00" d=" M 677.84 50.11 C 676.04 50.44 674.50 47.96 676.55 47.14 C 677.18 48.03 677.61 49.02 677.84 50.11 Z" />
<path fill="#429353" opacity="1.00" d=" M 703.49 47.86 C 708.68 47.97 713.86 48.86 719.06 48.11 C 720.15 53.20 721.43 58.27 722.39 63.39 C 721.80 64.79 721.18 66.18 720.50 67.53 L 719.29 67.69 C 719.32 65.58 719.38 63.47 719.45 61.36 C 719.21 61.33 718.73 61.29 718.49 61.26 C 718.46 62.25 718.42 64.23 718.40 65.22 C 715.47 64.45 716.31 61.39 716.07 59.15 C 715.34 60.56 714.64 61.98 713.89 63.37 C 713.49 61.39 713.40 59.38 713.45 57.38 C 713.03 57.40 712.18 57.45 711.76 57.47 C 711.75 59.61 711.75 61.75 711.77 63.89 C 713.84 65.14 715.91 66.42 717.95 67.75 L 718.49 69.20 C 716.13 67.97 713.82 66.64 711.50 65.34 C 711.56 65.99 711.67 67.30 711.73 67.95 L 710.95 67.34 C 709.69 63.40 706.12 60.93 703.34 58.09 C 703.38 54.68 703.41 51.27 703.49 47.86 Z" />
<path fill="#ffe618" opacity="1.00" d=" M 629.24 48.19 C 630.51 48.02 631.80 47.86 633.09 47.69 C 632.75 49.44 632.49 51.20 632.20 52.95 C 631.92 54.51 631.64 56.06 631.37 57.62 C 629.98 57.76 628.60 57.91 627.22 58.06 C 627.49 55.72 627.78 53.38 628.28 51.07 C 628.58 50.11 628.90 49.14 629.24 48.19 Z" />
<path fill="#0b9d32" opacity="1.00" d=" M 640.22 47.69 L 640.86 47.65 C 640.84 50.30 640.54 52.93 640.13 55.55 C 640.73 55.06 641.93 54.10 642.53 53.62 C 643.81 55.09 645.74 54.74 647.49 54.70 C 647.50 52.30 647.48 49.83 648.42 47.57 C 648.78 50.11 649.01 52.67 649.28 55.22 C 646.78 55.82 644.33 56.60 641.90 57.45 C 646.86 58.93 652.09 58.61 657.20 59.02 C 648.85 59.64 640.46 59.30 632.13 60.15 C 627.78 60.42 623.42 60.08 619.07 60.10 C 618.95 59.46 618.71 58.19 618.60 57.56 C 621.60 57.30 624.34 56.02 626.90 54.51 C 627.00 55.69 627.11 56.88 627.22 58.06 C 628.60 57.91 629.98 57.76 631.37 57.62 C 631.64 56.06 631.92 54.51 632.20 52.95 C 632.57 53.33 633.30 54.09 633.67 54.47 L 634.04 54.86 L 634.63 55.41 C 635.88 55.45 637.14 55.43 638.41 55.42 C 638.99 54.63 639.57 53.85 640.17 53.07 C 640.16 51.27 640.18 49.48 640.22 47.69 Z" />
<path fill="#89c69a" opacity="1.00" d=" M 649.95 52.95 C 650.40 51.12 649.93 48.67 651.92 47.63 C 652.04 49.42 652.13 51.21 652.20 53.01 C 651.64 53.00 650.51 52.97 649.95 52.95 Z" />
<path fill="#b6d7c0" opacity="1.00" d=" M 654.05 48.24 C 655.59 48.25 657.14 48.27 658.71 48.29 C 659.27 49.69 659.83 51.09 660.48 52.45 C 660.94 52.74 661.86 53.31 662.32 53.60 L 662.70 53.74 L 663.60 54.07 C 660.64 54.19 657.69 54.27 654.75 54.44 C 654.50 52.37 654.27 50.30 654.05 48.24 Z" />
<path fill="#ffffff" opacity="1.00" d=" M 642.07 50.31 C 645.51 50.27 640.64 53.27 642.07 50.31 Z" />
<path fill="#018f24" opacity="1.00" d=" M 662.53 49.87 C 663.67 50.16 664.83 50.45 665.99 50.75 C 664.95 51.81 663.84 52.81 662.70 53.74 L 662.32 53.60 C 662.37 52.67 662.47 50.80 662.53 49.87 Z" />
<path fill="#fa811a" opacity="1.00" d=" M 635.51 53.53 C 637.05 53.38 638.60 53.22 640.17 53.07 C 639.57 53.85 638.99 54.63 638.41 55.42 C 637.14 55.43 635.88 55.45 634.63 55.41 L 634.04 54.86 C 634.40 54.53 635.14 53.87 635.51 53.53 Z" />
<path fill="#04060a" opacity="1.00" d=" M 657.20 59.02 C 671.60 58.70 685.99 57.54 700.39 57.55 C 700.74 57.60 701.44 57.70 701.79 57.75 C 703.67 61.18 707.34 63.23 708.95 66.81 C 700.33 65.98 691.66 66.34 683.03 66.87 C 674.03 67.04 665.01 66.96 656.02 67.19 C 654.20 67.14 652.88 68.51 651.48 69.43 C 646.52 69.54 641.56 69.31 636.62 68.91 C 634.84 68.74 633.07 68.45 631.37 67.91 C 627.04 65.56 622.60 63.40 617.99 61.67 C 622.59 60.42 627.42 60.65 632.13 60.15 C 640.46 59.30 648.85 59.64 657.20 59.02 Z" />
<path fill="#fcfffd" opacity="1.00" d=" M 711.76 57.47 C 712.18 57.45 713.03 57.40 713.45 57.38 C 713.40 59.38 713.49 61.39 713.89 63.37 C 714.64 61.98 715.34 60.56 716.07 59.15 C 716.31 61.39 715.47 64.45 718.40 65.22 C 718.42 64.23 718.46 62.25 718.49 61.26 C 718.73 61.29 719.21 61.33 719.45 61.36 C 719.38 63.47 719.32 65.58 719.29 67.69 C 718.95 67.71 718.28 67.74 717.95 67.75 C 715.91 66.42 713.84 65.14 711.77 63.89 C 711.75 61.75 711.75 59.61 711.76 57.47 Z" />
<path fill="#ae571b" opacity="1.00" d=" M 701.79 57.75 C 702.18 57.84 702.96 58.01 703.34 58.09 C 706.12 60.93 709.69 63.40 710.95 67.34 C 710.35 73.64 709.79 79.95 709.14 86.24 C 709.04 85.53 708.85 84.11 708.75 83.40 C 708.29 83.49 707.35 83.67 706.88 83.76 C 707.50 80.42 707.44 77.01 707.32 73.63 C 707.35 73.26 707.40 72.51 707.42 72.14 L 707.65 71.18 C 707.79 70.67 708.08 69.66 708.22 69.15 C 708.40 68.57 708.77 67.40 708.95 66.81 C 707.34 63.23 703.67 61.18 701.79 57.75 Z" />
<path fill="#499a5b" opacity="1.00" d=" M 720.50 67.53 C 721.18 66.18 721.80 64.79 722.39 63.39 C 722.99 65.95 723.69 68.49 724.12 71.09 C 722.69 93.29 721.40 115.53 720.25 137.72 C 719.80 138.91 719.33 140.09 718.86 141.27 C 718.00 141.10 717.20 140.92 716.36 140.81 L 715.21 139.66 C 714.92 138.86 714.66 138.06 714.45 137.25 C 715.21 136.17 716.13 135.01 715.22 133.71 L 714.95 132.92 C 715.42 132.31 716.34 131.09 716.81 130.48 C 714.63 130.33 712.44 130.40 710.28 130.55 C 710.19 129.75 710.01 128.15 709.92 127.36 C 712.08 127.08 714.24 126.81 716.40 126.51 C 716.47 124.43 716.54 122.36 716.63 120.29 C 715.99 120.13 714.72 119.80 714.09 119.64 L 713.96 118.46 C 715.20 119.69 717.55 118.70 717.14 116.87 C 717.16 116.25 717.21 115.01 717.23 114.39 C 717.24 113.98 717.26 113.18 717.27 112.78 C 714.74 112.38 712.01 112.40 709.85 110.82 C 712.31 110.74 714.77 110.80 717.24 110.80 C 717.10 109.12 717.09 107.43 717.24 105.75 C 715.15 104.27 712.52 104.26 710.09 103.89 C 710.14 104.50 710.23 105.73 710.28 106.35 C 711.89 106.76 713.70 106.76 715.13 107.73 C 713.40 107.97 711.71 108.09 710.01 108.35 C 709.48 110.21 709.56 112.16 709.47 114.07 C 708.71 114.02 707.21 113.91 706.46 113.86 C 707.38 104.65 708.35 95.46 709.14 86.24 C 709.79 79.95 710.35 73.64 710.95 67.34 L 711.73 67.95 C 714.03 69.68 716.69 70.83 719.37 71.85 C 719.15 71.19 718.71 69.87 718.49 69.20 L 717.95 67.75 C 718.28 67.74 718.95 67.71 719.29 67.69 L 720.50 67.53 M 711.32 71.53 C 711.39 72.17 711.53 73.43 711.60 74.07 C 713.88 74.59 716.21 74.85 718.54 75.19 C 718.63 74.48 718.80 73.05 718.89 72.33 C 716.35 72.24 713.82 71.91 711.32 71.53 M 711.49 75.58 C 711.41 76.37 711.25 77.95 711.16 78.74 C 712.89 78.42 714.98 77.84 716.22 79.56 C 716.82 79.29 718.00 78.75 718.59 78.47 C 718.60 77.93 718.60 76.84 718.61 76.29 C 716.23 76.05 713.85 75.81 711.49 75.58 M 710.91 78.98 C 710.88 83.07 715.75 82.95 718.47 84.49 C 719.11 82.67 717.38 81.67 716.49 80.45 C 714.53 80.38 712.71 79.60 710.91 78.98 M 710.20 83.60 C 711.29 87.27 716.29 86.10 717.88 89.29 C 715.32 88.65 712.85 87.67 710.26 87.20 C 710.59 91.06 715.44 90.89 718.28 91.76 C 718.26 89.84 718.28 87.91 718.29 85.99 C 715.65 85.10 713.10 82.92 710.20 83.60 M 710.51 91.06 C 710.51 91.70 710.50 92.97 710.50 93.61 C 712.81 94.42 715.17 95.09 717.57 95.65 C 717.66 94.86 717.83 93.27 717.91 92.47 C 715.32 93.13 712.93 91.71 710.51 91.06 M 710.27 95.51 C 710.29 97.85 710.31 100.18 710.39 102.51 C 711.49 102.65 712.60 102.78 713.71 102.92 C 713.71 101.50 713.71 100.08 713.73 98.67 C 714.37 98.74 715.66 98.87 716.31 98.94 C 716.45 100.64 716.45 102.36 716.56 104.06 C 718.46 102.36 717.20 99.28 717.67 97.03 C 716.29 96.67 714.92 96.32 713.56 95.99 C 713.28 97.73 714.00 100.57 711.27 99.99 C 711.35 98.52 711.44 97.06 711.54 95.59 L 710.27 95.51 Z" />
<path fill="#0c161d" opacity="1.00" d=" M 683.03 66.87 C 691.66 66.34 700.33 65.98 708.95 66.81 C 708.77 67.40 708.40 68.57 708.22 69.15 C 698.78 68.28 689.36 69.85 679.92 69.35 C 670.43 69.62 660.96 68.94 651.48 69.43 C 652.88 68.51 654.20 67.14 656.02 67.19 C 665.01 66.96 674.03 67.04 683.03 66.87 Z" />
<path fill="#ffffff" opacity="1.00" d=" M 711.50 65.34 C 713.82 66.64 716.13 67.97 718.49 69.20 C 718.71 69.87 719.15 71.19 719.37 71.85 C 716.69 70.83 714.03 69.68 711.73 67.95 C 711.67 67.30 711.56 65.99 711.50 65.34 Z" />
<path fill="#b26f35" opacity="0.96" d=" M 629.73 67.71 C 631.66 73.46 629.59 79.63 630.52 85.55 C 630.60 93.12 629.65 100.68 630.10 108.25 C 629.75 108.45 629.04 108.85 628.68 109.04 C 627.86 105.08 628.49 101.03 628.57 97.03 C 628.77 93.03 628.33 88.98 629.14 85.03 C 629.34 79.25 629.35 73.47 629.73 67.71 Z" />
<path fill="#050e17" opacity="1.00" d=" M 631.37 67.91 C 633.07 68.45 634.84 68.74 636.62 68.91 C 636.78 69.42 637.10 70.42 637.26 70.92 C 637.16 72.70 636.87 74.47 636.64 76.24 C 638.61 76.61 640.58 76.96 642.57 77.29 C 640.72 78.67 638.98 80.21 637.58 82.06 C 635.43 87.78 636.62 94.15 636.01 100.14 C 637.19 100.24 638.37 100.34 639.56 100.43 C 642.44 100.82 645.33 101.19 648.21 101.60 C 643.69 102.31 638.60 99.97 634.52 102.62 C 637.19 103.12 639.89 103.51 642.61 103.72 C 642.67 104.88 642.74 106.04 642.82 107.19 C 638.73 106.96 634.64 106.98 630.56 106.92 C 630.41 100.07 630.93 93.21 630.57 86.36 C 630.58 80.20 631.27 74.07 631.37 67.91 Z" />
<path fill="#5c5f5b" opacity="1.00" d=" M 636.62 68.91 C 641.56 69.31 646.52 69.54 651.48 69.43 C 660.96 68.94 670.43 69.62 679.92 69.35 C 689.36 69.85 698.78 68.28 708.22 69.15 C 708.08 69.66 707.79 70.67 707.65 71.18 C 703.96 68.92 699.69 71.40 695.74 70.35 C 694.40 69.75 693.12 69.76 691.92 70.38 L 691.43 70.71 C 691.25 71.25 690.90 72.34 690.72 72.88 C 694.51 73.06 698.31 73.27 702.06 73.89 L 702.21 74.69 C 698.07 73.99 693.84 73.57 689.65 74.08 C 688.52 71.80 685.58 72.83 683.62 73.03 C 680.49 72.68 677.33 72.67 674.25 73.30 C 677.09 74.85 680.38 74.07 683.38 73.50 C 685.22 73.98 687.11 74.21 689.02 74.31 C 689.58 74.41 690.69 74.61 691.25 74.71 L 690.90 75.87 C 690.65 76.27 690.15 77.09 689.89 77.50 C 685.67 76.81 681.42 76.36 677.20 75.66 C 677.58 76.34 677.96 77.03 678.35 77.71 C 678.02 79.19 676.65 80.80 677.73 82.25 C 681.90 81.51 686.00 80.39 690.22 79.94 C 692.34 79.65 694.44 79.29 696.54 78.85 C 697.24 79.31 698.64 80.23 699.34 80.69 C 698.49 81.04 697.65 81.40 696.82 81.76 C 694.28 82.37 691.74 81.66 689.20 81.55 C 685.41 82.48 682.03 84.57 678.82 86.72 C 677.19 86.54 675.56 86.35 673.96 86.16 C 674.29 84.51 674.78 82.90 675.33 81.31 C 676.62 79.32 675.56 77.46 674.13 75.93 L 674.72 74.73 C 672.60 72.86 669.79 72.22 667.04 72.65 C 666.80 75.41 670.80 73.66 672.43 74.39 C 670.17 76.46 667.02 75.10 664.40 74.84 L 664.93 73.99 C 665.09 73.73 665.40 73.21 665.56 72.96 L 666.33 72.49 C 666.66 72.14 667.33 71.45 667.66 71.10 C 665.98 70.06 663.92 71.00 662.14 71.15 C 656.62 70.38 651.04 70.34 645.51 70.78 C 644.10 70.86 642.70 70.93 641.31 71.01 C 639.95 71.01 638.60 70.98 637.26 70.92 C 637.10 70.42 636.78 69.42 636.62 68.91 M 674.19 70.36 C 673.90 70.63 673.32 71.18 673.03 71.45 C 673.83 74.88 678.13 69.83 674.19 70.36 Z" />
<path fill="#c19f6a" opacity="1.00" d=" M 674.19 70.36 C 678.13 69.83 673.83 74.88 673.03 71.45 C 673.32 71.18 673.90 70.63 674.19 70.36 Z" />
<path fill="#978a80" opacity="1.00" d=" M 691.43 70.71 L 691.92 70.38 C 691.14 73.44 695.19 72.11 696.08 70.51 C 698.32 71.67 700.81 71.98 703.31 71.94 C 704.60 72.71 706.06 73.04 707.42 72.14 C 707.40 72.51 707.35 73.26 707.32 73.63 C 706.40 74.99 705.41 76.42 703.83 77.05 C 699.83 75.38 695.43 75.54 691.25 74.71 C 690.69 74.61 689.58 74.41 689.02 74.31 L 689.65 74.08 C 693.84 73.57 698.07 73.99 702.21 74.69 C 703.08 75.86 706.10 74.69 703.89 73.77 C 703.43 73.80 702.52 73.86 702.06 73.89 C 698.31 73.27 694.51 73.06 690.72 72.88 C 690.90 72.34 691.25 71.25 691.43 70.71 Z" />
<path fill="#d5c8b3" opacity="1.00" d=" M 691.92 70.38 C 693.12 69.76 694.40 69.75 695.74 70.35 L 696.08 70.51 C 695.19 72.11 691.14 73.44 691.92 70.38 Z" />
<path fill="#cdac7e" opacity="1.00" d=" M 695.74 70.35 C 699.69 71.40 703.96 68.92 707.65 71.18 L 707.42 72.14 C 706.06 73.04 704.60 72.71 703.31 71.94 C 700.81 71.98 698.32 71.67 696.08 70.51 L 695.74 70.35 Z" />
<path fill="#2b342f" opacity="1.00" d=" M 637.26 70.92 C 638.60 70.98 639.95 71.01 641.31 71.01 C 641.06 71.47 640.56 72.40 640.31 72.86 C 639.92 73.13 639.15 73.67 638.76 73.94 C 640.74 75.89 643.28 77.33 646.07 76.05 C 646.61 76.28 647.17 76.52 647.73 76.77 C 648.45 77.19 649.89 78.02 650.61 78.44 C 649.16 78.44 647.73 78.43 646.30 78.41 C 647.20 79.22 648.11 80.04 649.02 80.86 C 645.41 82.50 641.45 82.81 637.58 82.06 C 638.98 80.21 640.72 78.67 642.57 77.29 C 640.58 76.96 638.61 76.61 636.64 76.24 C 636.87 74.47 637.16 72.70 637.26 70.92 M 641.01 79.07 C 640.48 80.45 640.95 80.89 642.41 80.40 C 642.93 79.02 642.46 78.58 641.01 79.07 Z" />
<path fill="#5f461d" opacity="1.00" d=" M 641.31 71.01 C 642.70 70.93 644.10 70.86 645.51 70.78 C 645.86 71.31 646.56 72.38 646.92 72.91 C 645.01 72.81 643.09 72.79 641.20 72.83 L 640.31 72.86 C 640.56 72.40 641.06 71.47 641.31 71.01 Z" />
<path fill="#8b723e" opacity="1.00" d=" M 645.51 70.78 C 651.04 70.34 656.62 70.38 662.14 71.15 C 663.52 71.62 664.86 72.23 666.33 72.49 L 665.56 72.96 C 663.72 72.88 661.87 72.97 660.09 73.38 C 658.38 72.76 656.55 72.91 654.89 73.53 C 652.23 73.32 649.57 73.08 646.92 72.91 C 646.56 72.38 645.86 71.31 645.51 70.78 Z" />
<path fill="#9f7019" opacity="1.00" d=" M 662.14 71.15 C 663.92 71.00 665.98 70.06 667.66 71.10 C 667.33 71.45 666.66 72.14 666.33 72.49 C 664.86 72.23 663.52 71.62 662.14 71.15 Z" />
<path fill="#f0f5f1" opacity="1.00" d=" M 711.32 71.53 C 713.82 71.91 716.35 72.24 718.89 72.33 C 718.80 73.05 718.63 74.48 718.54 75.19 C 716.21 74.85 713.88 74.59 711.60 74.07 C 711.53 73.43 711.39 72.17 711.32 71.53 Z" />
<path fill="#766969" opacity="1.00" d=" M 638.76 73.94 C 639.15 73.67 639.92 73.13 640.31 72.86 L 641.20 72.83 C 642.46 74.39 644.22 75.34 646.07 76.05 C 643.28 77.33 640.74 75.89 638.76 73.94 Z" />
<path fill="#1d1f1c" opacity="1.00" d=" M 641.20 72.83 C 643.09 72.79 645.01 72.81 646.92 72.91 C 649.57 73.08 652.23 73.32 654.89 73.53 C 656.48 74.42 658.35 74.64 660.08 73.93 C 661.64 74.32 663.37 74.72 664.93 73.99 L 664.40 74.84 C 664.02 75.21 663.28 75.95 662.90 76.32 C 661.70 76.40 660.50 76.44 659.31 76.45 C 657.83 76.42 656.38 76.40 654.92 76.41 C 652.73 74.82 648.59 72.78 647.73 76.77 C 647.17 76.52 646.61 76.28 646.07 76.05 C 644.22 75.34 642.46 74.39 641.20 72.83 Z" />
<path fill="#1eaf29" opacity="1.00" d=" M 654.89 73.53 C 656.55 72.91 658.38 72.76 660.09 73.38 L 660.08 73.93 C 658.35 74.64 656.48 74.42 654.89 73.53 Z" />
<path fill="#259f8f" opacity="1.00" d=" M 660.09 73.38 C 661.87 72.97 663.72 72.88 665.56 72.96 C 665.40 73.21 665.09 73.73 664.93 73.99 C 663.37 74.72 661.64 74.32 660.08 73.93 L 660.09 73.38 Z" />
<path fill="#dccb88" opacity="1.00" d=" M 667.04 72.65 C 669.79 72.22 672.60 72.86 674.72 74.73 L 674.13 75.93 C 673.96 76.27 673.61 76.95 673.44 77.29 C 674.12 78.19 674.81 79.09 675.50 79.99 C 674.22 80.16 672.94 80.32 671.67 80.49 C 671.14 81.76 670.62 83.04 670.10 84.31 C 669.39 83.48 668.67 82.65 667.95 81.84 C 668.89 80.73 669.82 79.61 670.77 78.49 C 669.05 78.56 667.33 78.65 665.63 78.75 C 664.71 77.94 663.80 77.13 662.90 76.32 C 663.28 75.95 664.02 75.21 664.40 74.84 C 667.02 75.10 670.17 76.46 672.43 74.39 C 670.80 73.66 666.80 75.41 667.04 72.65 Z" />
<path fill="#51c4af" opacity="1.00" d=" M 674.25 73.30 C 677.33 72.67 680.49 72.68 683.62 73.03 L 683.38 73.50 C 680.38 74.07 677.09 74.85 674.25 73.30 Z" />
<path fill="#61ca66" opacity="1.00" d=" M 683.62 73.03 C 685.58 72.83 688.52 71.80 689.65 74.08 L 689.02 74.31 C 687.11 74.21 685.22 73.98 683.38 73.50 L 683.62 73.03 Z" />
<path fill="#c7a392" opacity="1.00" d=" M 702.06 73.89 C 702.52 73.86 703.43 73.80 703.89 73.77 C 706.10 74.69 703.08 75.86 702.21 74.69 L 702.06 73.89 Z" />
<path fill="#505051" opacity="1.00" d=" M 703.83 77.05 C 705.41 76.42 706.40 74.99 707.32 73.63 C 707.44 77.01 707.50 80.42 706.88 83.76 C 706.82 84.20 706.69 85.07 706.63 85.51 C 706.40 85.14 705.94 84.40 705.70 84.03 C 704.48 82.76 702.94 82.08 701.08 82.00 C 702.46 81.33 703.86 80.71 705.24 80.04 C 703.26 80.10 701.27 80.22 699.34 80.69 C 698.64 80.23 697.24 79.31 696.54 78.85 C 698.98 78.32 701.42 77.74 703.83 77.05 Z" />
<path fill="#724f16" opacity="1.00" d=" M 647.73 76.77 C 648.59 72.78 652.73 74.82 654.92 76.41 C 653.66 77.44 652.25 78.27 650.61 78.44 C 649.89 78.02 648.45 77.19 647.73 76.77 Z" />
<path fill="#7e8581" opacity="1.00" d=" M 677.20 75.66 C 681.42 76.36 685.67 76.81 689.89 77.50 C 690.15 77.09 690.65 76.27 690.90 75.87 C 690.64 77.22 690.44 78.58 690.22 79.94 C 686.00 80.39 681.90 81.51 677.73 82.25 C 676.65 80.80 678.02 79.19 678.35 77.71 C 677.96 77.03 677.58 76.34 677.20 75.66 Z" />
<path fill="#c9af94" opacity="1.00" d=" M 691.25 74.71 C 695.43 75.54 699.83 75.38 703.83 77.05 C 701.42 77.74 698.98 78.32 696.54 78.85 C 694.44 79.29 692.34 79.65 690.22 79.94 C 690.44 78.58 690.64 77.22 690.90 75.87 L 691.25 74.71 Z" />
<path fill="#5b615c" opacity="1.00" d=" M 654.92 76.41 C 656.38 76.40 657.83 76.42 659.31 76.45 C 660.92 77.06 662.55 77.69 664.03 78.61 C 664.21 79.30 664.57 80.67 664.74 81.35 C 666.05 82.32 667.36 83.28 668.68 84.24 C 668.26 84.40 667.41 84.73 666.99 84.90 C 661.70 85.53 656.45 86.40 651.14 86.71 C 648.00 89.01 644.55 91.21 640.44 90.26 C 642.54 88.47 644.75 86.83 647.01 85.23 C 643.91 86.15 640.82 87.07 637.72 87.97 C 637.36 89.89 636.99 91.80 636.65 93.72 C 642.79 93.38 648.94 92.97 655.08 92.52 C 655.19 93.11 655.39 94.28 655.49 94.87 C 652.25 94.95 648.98 95.27 645.88 96.26 C 643.11 93.86 639.48 94.41 636.36 95.66 C 636.48 96.47 636.72 98.09 636.83 98.91 L 637.77 98.91 C 640.96 99.17 644.21 99.14 647.26 98.03 C 647.37 98.49 647.60 99.43 647.71 99.89 C 644.98 99.88 642.26 100.08 639.56 100.43 C 638.37 100.34 637.19 100.24 636.01 100.14 C 636.62 94.15 635.43 87.78 637.58 82.06 C 641.45 82.81 645.41 82.50 649.02 80.86 C 648.11 80.04 647.20 79.22 646.30 78.41 C 647.73 78.43 649.16 78.44 650.61 78.44 C 652.25 78.27 653.66 77.44 654.92 76.41 Z" />
<path fill="#fcfffd" opacity="1.00" d=" M 659.31 76.45 C 660.50 76.44 661.70 76.40 662.90 76.32 C 663.80 77.13 664.71 77.94 665.63 78.75 C 667.33 78.65 669.05 78.56 670.77 78.49 C 669.82 79.61 668.89 80.73 667.95 81.84 C 666.77 80.62 665.44 79.55 664.03 78.61 C 662.55 77.69 660.92 77.06 659.31 76.45 Z" />
<path fill="#a59d85" opacity="1.00" d=" M 673.44 77.29 C 673.61 76.95 673.96 76.27 674.13 75.93 C 675.56 77.46 676.62 79.32 675.33 81.31 C 674.54 81.31 672.98 81.31 672.20 81.31 C 672.29 82.39 672.41 83.48 672.52 84.57 C 671.40 84.92 670.29 85.27 669.21 85.67 C 668.86 86.06 668.15 86.85 667.80 87.25 C 666.05 87.17 664.29 87.09 662.56 87.01 C 664.02 86.30 665.49 85.57 666.99 84.90 C 667.41 84.73 668.26 84.40 668.68 84.24 C 667.36 83.28 666.05 82.32 664.74 81.35 C 664.57 80.67 664.21 79.30 664.03 78.61 C 665.44 79.55 666.77 80.62 667.95 81.84 C 668.67 82.65 669.39 83.48 670.10 84.31 C 670.62 83.04 671.14 81.76 671.67 80.49 C 672.94 80.32 674.22 80.16 675.50 79.99 C 674.81 79.09 674.12 78.19 673.44 77.29 Z" />
<path fill="#ffffff" opacity="1.00" d=" M 711.49 75.58 C 713.85 75.81 716.23 76.05 718.61 76.29 C 718.60 76.84 718.60 77.93 718.59 78.47 C 718.00 78.75 716.82 79.29 716.22 79.56 C 714.98 77.84 712.89 78.42 711.16 78.74 C 711.25 77.95 711.41 76.37 711.49 75.58 Z" />
<path fill="#7c6649" opacity="1.00" d=" M 641.01 79.07 C 642.46 78.58 642.93 79.02 642.41 80.40 C 640.95 80.89 640.48 80.45 641.01 79.07 Z" />
<path fill="#cdac7e" opacity="1.00" d=" M 699.34 80.69 C 701.27 80.22 703.26 80.10 705.24 80.04 C 703.86 80.71 702.46 81.33 701.08 82.00 C 702.94 82.08 704.48 82.76 705.70 84.03 C 704.05 84.17 702.42 84.32 700.77 84.29 L 699.67 83.73 L 701.70 83.32 C 701.03 82.65 700.34 82.01 699.64 81.38 C 698.94 81.48 697.53 81.66 696.82 81.76 C 697.65 81.40 698.49 81.04 699.34 80.69 Z" />
<path fill="#f6f9f7" opacity="1.00" d=" M 710.91 78.98 C 712.71 79.60 714.53 80.38 716.49 80.45 C 717.38 81.67 719.11 82.67 718.47 84.49 C 715.75 82.95 710.88 83.07 710.91 78.98 Z" />
<path fill="#8a8b83" opacity="1.00" d=" M 672.20 81.31 C 672.98 81.31 674.54 81.31 675.33 81.31 C 674.78 82.90 674.29 84.51 673.96 86.16 C 674.30 88.00 674.78 90.09 676.86 90.68 C 676.89 91.27 676.95 92.45 676.98 93.04 C 677.57 93.06 678.77 93.10 679.36 93.12 C 679.07 93.56 678.49 94.45 678.20 94.89 C 676.25 93.64 674.31 92.39 672.40 91.09 C 672.03 90.80 671.28 90.23 670.91 89.95 C 671.55 88.64 672.20 87.32 672.85 86.00 C 671.63 85.88 670.42 85.77 669.21 85.67 C 670.29 85.27 671.40 84.92 672.52 84.57 C 672.41 83.48 672.29 82.39 672.20 81.31 M 673.36 89.11 C 673.88 89.64 673.88 89.64 673.36 89.11 Z" />
<path fill="#474c4a" opacity="1.00" d=" M 678.82 86.72 C 682.03 84.57 685.41 82.48 689.20 81.55 C 691.74 81.66 694.28 82.37 696.82 81.76 C 697.53 81.66 698.94 81.48 699.64 81.38 C 700.34 82.01 701.03 82.65 701.70 83.32 L 699.67 83.73 C 699.22 83.49 698.30 83.01 697.85 82.77 C 696.01 84.84 693.95 86.71 691.57 88.14 C 690.34 87.83 689.13 87.51 687.90 87.26 C 685.88 87.98 684.22 89.37 683.02 91.12 C 681.82 91.38 680.64 91.65 679.47 91.92 C 679.26 90.19 679.04 88.45 678.82 86.72 Z" />
<path fill="#1d1f1c" opacity="1.00" d=" M 691.57 88.14 C 693.95 86.71 696.01 84.84 697.85 82.77 C 698.30 83.01 699.22 83.49 699.67 83.73 L 700.77 84.29 C 702.42 84.32 704.05 84.17 705.70 84.03 C 705.94 84.40 706.40 85.14 706.63 85.51 L 706.62 85.95 C 705.26 86.40 703.90 86.84 702.55 87.26 C 701.49 87.39 700.44 87.53 699.40 87.70 C 698.59 87.85 696.95 88.15 696.14 88.30 C 695.93 89.60 695.74 90.91 695.55 92.21 L 695.43 93.00 C 693.00 92.75 690.58 92.51 688.17 92.13 L 687.23 91.54 L 686.45 90.98 C 686.95 89.75 687.43 88.51 687.90 87.26 C 689.13 87.51 690.34 87.83 691.57 88.14 Z" />
<path fill="#c16324" opacity="1.00" d=" M 706.88 83.76 C 707.35 83.67 708.29 83.49 708.75 83.40 C 708.85 84.11 709.04 85.53 709.14 86.24 C 708.35 95.46 707.38 104.65 706.46 113.86 C 706.45 114.32 706.43 115.26 706.42 115.72 C 705.74 115.88 704.39 116.18 703.72 116.33 C 703.69 114.79 704.15 113.30 704.46 111.80 C 702.89 111.69 701.35 111.58 699.80 111.45 C 701.34 111.38 702.89 111.31 704.45 111.25 C 704.72 106.57 704.78 101.86 705.63 97.24 C 706.30 93.51 706.55 89.73 706.62 85.95 L 706.63 85.51 C 706.69 85.07 706.82 84.20 706.88 83.76 Z" />
<path fill="#ffffff" opacity="1.00" d=" M 710.20 83.60 C 713.10 82.92 715.65 85.10 718.29 85.99 C 718.28 87.91 718.26 89.84 718.28 91.76 C 715.44 90.89 710.59 91.06 710.26 87.20 C 712.85 87.67 715.32 88.65 717.88 89.29 C 716.29 86.10 711.29 87.27 710.20 83.60 Z" />
<path fill="#958a72" opacity="1.00" d=" M 637.72 87.97 C 640.82 87.07 643.91 86.15 647.01 85.23 C 644.75 86.83 642.54 88.47 640.44 90.26 C 644.55 91.21 648.00 89.01 651.14 86.71 C 656.45 86.40 661.70 85.53 666.99 84.90 C 665.49 85.57 664.02 86.30 662.56 87.01 C 664.29 87.09 666.05 87.17 667.80 87.25 C 667.53 87.56 666.99 88.18 666.72 88.50 C 665.69 88.72 664.67 88.95 663.67 89.21 C 663.48 89.75 663.11 90.83 662.93 91.37 C 660.96 92.00 658.88 92.12 656.85 92.29 C 656.73 93.03 656.49 94.50 656.37 95.24 C 656.15 95.14 655.71 94.96 655.49 94.87 C 655.39 94.28 655.19 93.11 655.08 92.52 C 648.94 92.97 642.79 93.38 636.65 93.72 C 636.99 91.80 637.36 89.89 637.72 87.97 Z" />
<path fill="#4e3c34" opacity="1.00" d=" M 630.52 85.55 L 630.57 86.36 C 630.93 93.21 630.41 100.07 630.56 106.92 C 634.64 106.98 638.73 106.96 642.82 107.19 C 651.49 108.14 660.24 107.78 668.91 108.85 C 679.19 109.20 689.43 110.14 699.72 110.15 C 695.86 112.59 691.24 111.04 687.02 111.07 C 677.72 110.97 668.46 110.02 659.18 109.64 C 654.89 109.38 650.61 108.92 646.33 109.07 C 645.72 107.43 643.20 107.35 642.51 108.94 C 638.39 108.52 634.25 108.14 630.10 108.25 C 629.65 100.68 630.60 93.12 630.52 85.55 Z" />
<path fill="#6c6c5d" opacity="1.00" d=" M 667.80 87.25 C 668.15 86.85 668.86 86.06 669.21 85.67 C 670.42 85.77 671.63 85.88 672.85 86.00 C 672.20 87.32 671.55 88.64 670.91 89.95 C 668.16 89.72 665.52 90.63 662.93 91.37 C 663.11 90.83 663.48 89.75 663.67 89.21 C 664.67 88.95 665.69 88.72 666.72 88.50 C 666.99 88.18 667.53 87.56 667.80 87.25 Z" />
<path fill="#b3c4e1" opacity="1.00" d=" M 673.96 86.16 C 675.56 86.35 677.19 86.54 678.82 86.72 C 679.04 88.45 679.26 90.19 679.47 91.92 C 680.64 91.65 681.82 91.38 683.02 91.12 C 681.76 93.15 680.56 95.29 678.64 96.79 L 677.52 95.93 L 678.20 94.89 C 678.49 94.45 679.07 93.56 679.36 93.12 C 678.77 93.10 677.57 93.06 676.98 93.04 C 676.95 92.45 676.89 91.27 676.86 90.68 C 674.78 90.09 674.30 88.00 673.96 86.16 Z" />
<path fill="#544c2b" opacity="1.00" d=" M 702.55 87.26 C 703.90 86.84 705.26 86.40 706.62 85.95 C 706.55 89.73 706.30 93.51 705.63 97.24 C 704.88 97.32 703.38 97.49 702.64 97.58 C 701.54 97.71 700.46 97.86 699.39 98.02 C 699.13 98.34 698.63 98.98 698.38 99.30 C 695.97 97.12 692.42 98.17 689.51 98.15 C 691.42 99.64 693.80 100.14 696.17 100.42 C 695.54 101.27 694.95 102.13 694.38 103.01 L 694.37 103.01 C 690.14 102.68 685.90 102.60 681.68 102.11 L 682.22 101.29 C 683.78 101.51 685.52 101.44 686.75 100.29 C 685.22 99.73 683.51 99.73 682.06 100.49 L 681.25 99.90 C 681.15 99.50 680.96 98.71 680.86 98.32 L 682.02 98.37 C 684.29 98.42 686.49 97.80 688.63 97.11 C 688.49 95.45 688.38 93.79 688.17 92.13 C 690.58 92.51 693.00 92.75 695.43 93.00 L 695.55 92.21 L 696.39 92.30 C 698.14 93.06 699.68 94.22 701.14 95.44 C 702.17 94.42 703.20 93.40 704.24 92.39 C 704.34 90.64 704.46 88.90 704.59 87.16 C 704.08 87.19 703.06 87.24 702.55 87.26 M 689.07 95.17 C 688.48 96.73 689.04 97.30 690.73 96.88 C 691.30 95.32 690.75 94.75 689.07 95.17 Z" />
<path fill="#e5b269" opacity="1.00" d=" M 699.40 87.70 C 700.44 87.53 701.49 87.39 702.55 87.26 C 703.06 87.24 704.08 87.19 704.59 87.16 C 704.46 88.90 704.34 90.64 704.24 92.39 C 703.20 93.40 702.17 94.42 701.14 95.44 C 699.68 94.22 698.14 93.06 696.39 92.30 C 697.14 92.36 698.65 92.48 699.40 92.53 C 699.39 90.92 699.39 89.31 699.40 87.70 M 701.52 90.43 C 701.30 90.91 700.85 91.86 700.63 92.34 C 702.04 95.75 705.21 88.23 701.52 90.43 Z" />
<path fill="#728f97" opacity="1.00" d=" M 683.02 91.12 C 684.22 89.37 685.88 87.98 687.90 87.26 C 687.43 88.51 686.95 89.75 686.45 90.98 C 685.24 91.31 684.79 92.06 685.07 93.23 C 685.83 95.85 688.26 93.15 687.23 91.54 L 688.17 92.13 C 688.38 93.79 688.49 95.45 688.63 97.11 C 686.49 97.80 684.29 98.42 682.02 98.37 C 682.72 98.17 684.12 97.78 684.82 97.59 C 683.11 96.27 680.87 96.85 678.92 96.99 L 678.64 96.79 C 680.56 95.29 681.76 93.15 683.02 91.12 Z" />
<path fill="#0d0c0b" opacity="1.00" d=" M 696.14 88.30 C 696.95 88.15 698.59 87.85 699.40 87.70 C 699.39 89.31 699.39 90.92 699.40 92.53 C 698.65 92.48 697.14 92.36 696.39 92.30 L 695.55 92.21 C 695.74 90.91 695.93 89.60 696.14 88.30 Z" />
<path fill="#cdac7e" opacity="1.00" d=" M 662.93 91.37 C 665.52 90.63 668.16 89.72 670.91 89.95 C 671.28 90.23 672.03 90.80 672.40 91.09 C 674.02 92.78 675.72 94.41 677.52 95.93 L 678.64 96.79 L 678.92 96.99 L 678.25 97.29 C 674.33 97.78 670.49 96.24 666.56 96.65 C 663.98 96.64 661.40 96.55 658.85 96.24 C 658.23 95.99 656.99 95.49 656.37 95.24 C 656.49 94.50 656.73 93.03 656.85 92.29 C 658.88 92.12 660.96 92.00 662.93 91.37 M 666.04 91.24 C 667.09 93.34 669.35 94.20 671.29 95.24 C 671.33 94.32 671.41 92.47 671.45 91.55 C 669.64 91.42 667.84 91.32 666.04 91.24 Z" />
<path fill="#4d4533" opacity="1.00" d=" M 673.36 89.11 C 673.88 89.64 673.88 89.64 673.36 89.11 Z" />
<path fill="#634118" opacity="1.00" d=" M 701.52 90.43 C 705.21 88.23 702.04 95.75 700.63 92.34 C 700.85 91.86 701.30 90.91 701.52 90.43 Z" />
<path fill="#0c161d" opacity="1.00" d=" M 672.40 91.09 C 674.31 92.39 676.25 93.64 678.20 94.89 L 677.52 95.93 C 675.72 94.41 674.02 92.78 672.40 91.09 Z" />
<path fill="#ffffff" opacity="1.00" d=" M 685.07 93.23 C 684.79 92.06 685.24 91.31 686.45 90.98 L 687.23 91.54 C 688.26 93.15 685.83 95.85 685.07 93.23 Z" />
<path fill="#ffffff" opacity="1.00" d=" M 710.51 91.06 C 712.93 91.71 715.32 93.13 717.91 92.47 C 717.83 93.27 717.66 94.86 717.57 95.65 C 715.17 95.09 712.81 94.42 710.50 93.61 C 710.50 92.97 710.51 91.70 710.51 91.06 Z" />
<path fill="#635e46" opacity="1.00" d=" M 666.04 91.24 C 667.84 91.32 669.64 91.42 671.45 91.55 C 671.41 92.47 671.33 94.32 671.29 95.24 C 669.35 94.20 667.09 93.34 666.04 91.24 Z" />
<path fill="#a49276" opacity="1.00" d=" M 636.36 95.66 C 639.48 94.41 643.11 93.86 645.88 96.26 C 643.22 97.27 640.55 98.28 637.77 98.91 L 636.83 98.91 C 636.72 98.09 636.48 96.47 636.36 95.66 Z" />
<path fill="#7e7052" opacity="1.00" d=" M 645.88 96.26 C 648.98 95.27 652.25 94.95 655.49 94.87 C 655.71 94.96 656.15 95.14 656.37 95.24 C 656.99 95.49 658.23 95.99 658.85 96.24 C 658.10 96.91 657.44 97.64 656.85 98.44 C 655.26 98.60 653.69 98.75 652.11 98.75 C 650.74 98.46 649.39 98.11 648.04 97.84 L 647.26 98.03 C 644.21 99.14 640.96 99.17 637.77 98.91 C 640.55 98.28 643.22 97.27 645.88 96.26 Z" />
<path fill="#22200c" opacity="1.00" d=" M 689.07 95.17 C 690.75 94.75 691.30 95.32 690.73 96.88 C 689.04 97.30 688.48 96.73 689.07 95.17 Z" />
<path fill="#04060a" opacity="1.00" d=" M 656.85 98.44 C 657.44 97.64 658.10 96.91 658.85 96.24 C 661.40 96.55 663.98 96.64 666.56 96.65 C 662.00 98.70 657.13 100.14 652.08 99.73 L 652.11 98.75 C 653.69 98.75 655.26 98.60 656.85 98.44 Z" />
<path fill="#ffffff" opacity="1.00" d=" M 710.27 95.51 L 711.54 95.59 C 711.44 97.06 711.35 98.52 711.27 99.99 C 714.00 100.57 713.28 97.73 713.56 95.99 C 714.92 96.32 716.29 96.67 717.67 97.03 C 717.20 99.28 718.46 102.36 716.56 104.06 C 716.45 102.36 716.45 100.64 716.31 98.94 C 715.66 98.87 714.37 98.74 713.73 98.67 C 713.71 100.08 713.71 101.50 713.71 102.92 C 712.60 102.78 711.49 102.65 710.39 102.51 C 710.31 100.18 710.29 97.85 710.27 95.51 Z" />
<path fill="#4d4623" opacity="1.00" d=" M 666.56 96.65 C 670.49 96.24 674.33 97.78 678.25 97.29 L 678.21 97.68 C 678.46 98.30 678.95 99.55 679.20 100.18 C 678.94 100.61 678.43 101.49 678.17 101.93 C 669.40 100.91 660.53 101.60 651.74 100.79 L 652.08 99.73 C 657.13 100.14 662.00 98.70 666.56 96.65 Z" />
<path fill="#311b14" opacity="1.00" d=" M 678.25 97.29 L 678.92 96.99 C 680.87 96.85 683.11 96.27 684.82 97.59 C 684.12 97.78 682.72 98.17 682.02 98.37 L 680.86 98.32 C 680.20 98.16 678.87 97.84 678.21 97.68 L 678.25 97.29 Z" />
<path fill="#20242c" opacity="1.00" d=" M 702.64 97.58 C 703.38 97.49 704.88 97.32 705.63 97.24 C 704.78 101.86 704.72 106.57 704.45 111.25 C 702.89 111.31 701.34 111.38 699.80 111.45 C 701.35 111.58 702.89 111.69 704.46 111.80 C 704.15 113.30 703.69 114.79 703.72 116.33 C 703.78 117.56 703.89 118.80 704.04 120.04 C 696.89 120.08 689.75 119.68 682.60 119.66 C 683.13 119.49 684.18 119.13 684.70 118.96 C 685.80 118.58 686.90 118.20 688.02 117.83 C 685.80 116.48 683.26 115.12 680.66 116.28 C 679.86 116.58 678.26 117.19 677.46 117.49 C 673.86 116.15 669.14 113.95 665.89 117.12 C 665.24 116.45 664.61 115.79 663.98 115.12 C 662.83 116.13 661.69 117.14 660.52 118.12 C 660.54 117.42 660.58 116.01 660.60 115.31 C 659.41 115.50 658.23 115.70 657.06 115.90 C 656.72 116.42 656.05 117.47 655.71 117.99 C 655.44 117.96 654.92 117.92 654.65 117.90 C 654.72 117.02 654.78 116.14 654.83 115.26 C 654.80 113.54 654.69 111.83 654.57 110.11 C 656.10 109.94 657.62 109.76 659.18 109.64 C 668.46 110.02 677.72 110.97 687.02 111.07 C 691.24 111.04 695.86 112.59 699.72 110.15 C 689.43 110.14 679.19 109.20 668.91 108.85 C 660.24 107.78 651.49 108.14 642.82 107.19 C 642.74 106.04 642.67 104.88 642.61 103.72 C 653.76 103.92 664.88 105.05 676.05 104.94 C 685.08 105.36 694.16 106.61 703.20 105.62 C 700.37 104.36 697.13 104.49 694.38 103.01 C 697.12 102.74 699.88 102.67 702.64 102.65 C 702.63 100.96 702.63 99.27 702.64 97.58 M 656.35 111.67 C 653.44 113.20 658.27 114.43 659.46 112.95 C 659.27 111.31 657.56 111.20 656.35 111.67 M 660.83 113.09 C 662.36 115.93 664.51 111.64 666.87 112.38 C 666.62 112.19 666.13 111.81 665.88 111.62 C 664.98 111.89 664.10 112.16 663.22 112.44 C 663.27 110.14 658.51 111.61 660.83 113.09 M 687.76 116.21 C 687.58 118.08 691.54 119.70 692.15 117.30 C 694.50 117.42 696.73 119.31 699.00 117.83 C 697.29 117.11 695.59 116.42 693.91 115.69 C 693.40 116.04 692.38 116.74 691.88 117.10 C 690.60 116.58 689.14 115.73 687.76 116.21 Z" />
<path fill="#33383f" opacity="1.00" d=" M 647.26 98.03 L 648.04 97.84 C 649.39 98.11 650.74 98.46 652.11 98.75 L 652.08 99.73 L 651.74 100.79 C 651.58 101.24 651.28 102.16 651.12 102.61 C 655.10 102.63 659.08 102.75 663.05 103.16 C 671.34 104.05 679.69 103.69 688.01 104.17 C 690.21 104.42 692.34 103.80 694.37 103.01 L 694.38 103.01 C 697.13 104.49 700.37 104.36 703.20 105.62 C 694.16 106.61 685.08 105.36 676.05 104.94 C 664.88 105.05 653.76 103.92 642.61 103.72 C 639.89 103.51 637.19 103.12 634.52 102.62 C 638.60 99.97 643.69 102.31 648.21 101.60 C 645.33 101.19 642.44 100.82 639.56 100.43 C 642.26 100.08 644.98 99.88 647.71 99.89 C 647.60 99.43 647.37 98.49 647.26 98.03 Z" />
<path fill="#69585f" opacity="1.00" d=" M 678.21 97.68 C 678.87 97.84 680.20 98.16 680.86 98.32 C 680.96 98.71 681.15 99.50 681.25 99.90 C 680.73 99.97 679.71 100.11 679.20 100.18 C 678.95 99.55 678.46 98.30 678.21 97.68 Z" />
<path fill="#57625d" opacity="1.00" d=" M 689.51 98.15 C 692.42 98.17 695.97 97.12 698.38 99.30 C 697.83 99.58 696.72 100.14 696.17 100.42 C 693.80 100.14 691.42 99.64 689.51 98.15 Z" />
<path fill="#3d381a" opacity="1.00" d=" M 699.39 98.02 C 700.46 97.86 701.54 97.71 702.64 97.58 C 702.63 99.27 702.63 100.96 702.64 102.65 C 699.88 102.67 697.12 102.74 694.38 103.01 C 694.95 102.13 695.54 101.27 696.17 100.42 C 696.72 100.14 697.83 99.58 698.38 99.30 C 698.63 98.98 699.13 98.34 699.39 98.02 Z" />
<path fill="#824a19" opacity="1.00" d=" M 679.20 100.18 C 679.71 100.11 680.73 99.97 681.25 99.90 L 682.06 100.49 L 682.22 101.29 L 681.68 102.11 C 680.50 102.20 679.32 102.14 678.17 101.93 C 678.43 101.49 678.94 100.61 679.20 100.18 Z" />
<path fill="#0b0702" opacity="1.00" d=" M 682.06 100.49 C 683.51 99.73 685.22 99.73 686.75 100.29 C 685.52 101.44 683.78 101.51 682.22 101.29 L 682.06 100.49 Z" />
<path fill="#161b25" opacity="1.00" d=" M 651.12 102.61 C 651.28 102.16 651.58 101.24 651.74 100.79 C 660.53 101.60 669.40 100.91 678.17 101.93 C 679.32 102.14 680.50 102.20 681.68 102.11 C 685.90 102.60 690.14 102.68 694.37 103.01 C 692.34 103.80 690.21 104.42 688.01 104.17 C 679.69 103.69 671.34 104.05 663.05 103.16 C 659.08 102.75 655.10 102.63 651.12 102.61 Z" />
<path fill="#ffffff" opacity="1.00" d=" M 710.09 103.89 C 712.52 104.26 715.15 104.27 717.24 105.75 C 717.09 107.43 717.10 109.12 717.24 110.80 C 714.77 110.80 712.31 110.74 709.85 110.82 C 712.01 112.40 714.74 112.38 717.27 112.78 C 717.26 113.18 717.24 113.98 717.23 114.39 C 717.16 114.43 717.02 114.52 716.95 114.56 C 714.44 114.42 711.96 114.25 709.47 114.07 C 709.56 112.16 709.48 110.21 710.01 108.35 C 711.71 108.09 713.40 107.97 715.13 107.73 C 713.70 106.76 711.89 106.76 710.28 106.35 C 710.23 105.73 710.14 104.50 710.09 103.89 Z" />
<path fill="#1b202a" opacity="1.00" d=" M 614.62 107.75 C 615.28 107.57 616.61 107.20 617.27 107.02 C 617.51 107.80 617.74 108.59 617.96 109.39 C 618.20 110.56 618.68 111.65 619.44 112.60 C 619.06 112.61 618.32 112.62 617.95 112.63 C 618.09 113.32 618.37 114.69 618.51 115.38 L 618.77 116.48 C 617.65 116.25 616.52 116.04 615.40 115.84 C 615.54 115.04 615.82 113.45 615.96 112.65 C 615.49 112.59 614.55 112.46 614.08 112.40 C 615.51 111.97 615.73 111.25 614.74 110.23 C 614.71 109.61 614.65 108.37 614.62 107.75 Z" />
<path fill="#282e38" opacity="1.00" d=" M 630.10 108.25 C 634.25 108.14 638.39 108.52 642.51 108.94 C 643.60 109.95 645.14 109.93 646.33 109.07 C 650.61 108.92 654.89 109.38 659.18 109.64 C 657.62 109.76 656.10 109.94 654.57 110.11 C 654.69 111.83 654.80 113.54 654.83 115.26 C 654.08 114.75 653.33 114.23 652.59 113.71 C 651.43 112.68 650.24 112.57 649.02 113.38 C 647.73 114.70 646.52 116.10 645.30 117.47 C 644.53 116.32 643.77 115.18 643.02 114.04 C 641.26 114.13 639.50 114.14 637.78 113.77 C 637.46 113.73 636.81 113.63 636.49 113.58 C 635.05 113.37 633.63 113.14 632.22 112.90 C 631.33 112.69 630.47 112.46 629.61 112.21 C 629.41 111.68 629.02 110.62 628.82 110.09 C 626.76 109.91 624.66 109.95 622.62 110.16 C 622.56 109.93 622.44 109.47 622.38 109.24 C 624.46 109.00 626.58 109.19 628.68 109.04 C 629.04 108.85 629.75 108.45 630.10 108.25 Z" />
<path fill="#716362" opacity="1.00" d=" M 642.51 108.94 C 643.20 107.35 645.72 107.43 646.33 109.07 C 645.14 109.93 643.60 109.95 642.51 108.94 Z" />
<path fill="#969193" opacity="1.00" d=" M 617.96 109.39 C 619.04 109.26 621.20 109.00 622.28 108.87 L 622.38 109.24 C 622.44 109.47 622.56 109.93 622.62 110.16 C 624.66 109.95 626.76 109.91 628.82 110.09 C 629.02 110.62 629.41 111.68 629.61 112.21 C 628.81 112.53 627.20 113.16 626.39 113.47 L 625.78 113.22 C 623.94 112.07 621.99 113.34 620.88 114.84 C 620.29 114.97 619.11 115.24 618.51 115.38 C 618.37 114.69 618.09 113.32 617.95 112.63 C 618.32 112.62 619.06 112.61 619.44 112.60 C 618.68 111.65 618.20 110.56 617.96 109.39 Z" />
<path fill="#cdac7e" opacity="1.00" d=" M 611.65 111.14 C 612.43 110.91 613.97 110.46 614.74 110.23 C 615.73 111.25 615.51 111.97 614.08 112.40 C 613.47 112.09 612.26 111.45 611.65 111.14 Z" />
<path fill="#89888a" opacity="1.00" d=" M 602.23 113.30 C 605.28 112.27 608.43 111.47 611.65 111.14 C 612.26 111.45 613.47 112.09 614.08 112.40 C 614.55 112.46 615.49 112.59 615.96 112.65 C 615.82 113.45 615.54 115.04 615.40 115.84 C 610.98 115.15 606.60 114.24 602.23 113.30 Z" />
<path fill="#cdac7e" opacity="1.00" d=" M 656.35 111.67 C 657.56 111.20 659.27 111.31 659.46 112.95 C 658.27 114.43 653.44 113.20 656.35 111.67 Z" />
<path fill="#ffe618" opacity="1.00" d=" M 660.83 113.09 C 658.51 111.61 663.27 110.14 663.22 112.44 C 662.62 112.61 661.42 112.93 660.83 113.09 Z" />
<path fill="#cdac7e" opacity="1.00" d=" M 663.22 112.44 C 664.10 112.16 664.98 111.89 665.88 111.62 C 666.13 111.81 666.62 112.19 666.87 112.38 C 664.51 111.64 662.36 115.93 660.83 113.09 C 661.42 112.93 662.62 112.61 663.22 112.44 Z" />
<path fill="#a74c5f" opacity="1.00" d=" M 629.61 112.21 C 630.47 112.46 631.33 112.69 632.22 112.90 C 630.93 113.74 629.64 114.57 628.33 115.37 C 627.69 114.72 627.04 114.09 626.39 113.47 C 627.20 113.16 628.81 112.53 629.61 112.21 Z" />
<path fill="#d6762c" opacity="1.00" d=" M 599.98 113.32 C 600.54 113.32 601.67 113.31 602.23 113.30 C 606.60 114.24 610.98 115.15 615.40 115.84 C 616.52 116.04 617.65 116.25 618.77 116.48 C 622.52 117.40 626.37 117.71 630.21 117.92 L 630.79 117.98 C 634.17 118.35 637.57 118.47 640.96 118.79 C 648.50 119.40 656.03 120.11 663.59 120.49 C 676.22 120.73 688.87 120.65 701.49 121.22 C 698.30 122.07 695.02 122.57 691.72 122.65 C 684.62 122.60 677.52 122.47 670.43 122.49 C 666.79 122.30 663.15 122.36 659.53 122.18 C 649.76 121.29 639.99 120.52 630.22 119.78 C 621.14 119.19 612.29 116.89 603.38 115.15 C 602.13 114.75 600.39 114.88 599.98 113.32 Z" />
<path fill="#37b599" opacity="1.00" d=" M 620.88 114.84 C 621.99 113.34 623.94 112.07 625.78 113.22 C 624.68 114.84 622.66 115.03 620.88 114.84 Z" />
<path fill="#7a7b80" opacity="1.00" d=" M 625.78 113.22 L 626.39 113.47 C 627.04 114.09 627.69 114.72 628.33 115.37 C 628.95 116.22 629.58 117.07 630.21 117.92 C 626.37 117.71 622.52 117.40 618.77 116.48 L 618.51 115.38 C 619.11 115.24 620.29 114.97 620.88 114.84 C 622.66 115.03 624.68 114.84 625.78 113.22 Z" />
<path fill="#2f5a8b" opacity="1.00" d=" M 632.22 112.90 C 633.63 113.14 635.05 113.37 636.49 113.58 C 634.99 114.15 633.52 114.80 632.08 115.48 C 631.98 115.53 631.77 115.62 631.66 115.67 C 631.44 116.25 631.00 117.41 630.79 117.98 L 630.21 117.92 C 629.58 117.07 628.95 116.22 628.33 115.37 C 629.64 114.57 630.93 113.74 632.22 112.90 Z" />
<path fill="#ffffff" opacity="1.00" d=" M 636.49 113.58 C 636.81 113.63 637.46 113.73 637.78 113.77 C 637.68 114.08 637.48 114.71 637.38 115.02 C 635.66 115.58 633.86 115.68 632.08 115.48 C 633.52 114.80 634.99 114.15 636.49 113.58 Z" />
<path fill="#41424b" opacity="1.00" d=" M 637.78 113.77 C 639.50 114.14 641.26 114.13 643.02 114.04 C 643.77 115.18 644.53 116.32 645.30 117.47 C 646.52 116.10 647.73 114.70 649.02 113.38 C 648.45 115.73 652.08 115.53 652.59 113.71 C 653.33 114.23 654.08 114.75 654.83 115.26 C 654.78 116.14 654.72 117.02 654.65 117.90 C 654.92 117.92 655.44 117.96 655.71 117.99 C 657.30 118.16 658.92 118.30 660.52 118.12 C 661.69 117.14 662.83 116.13 663.98 115.12 C 664.61 115.79 665.24 116.45 665.89 117.12 C 665.09 118.22 664.33 119.36 663.59 120.49 C 656.03 120.11 648.50 119.40 640.96 118.79 C 639.29 118.04 638.09 116.68 637.38 115.02 C 637.48 114.71 637.68 114.08 637.78 113.77 Z" />
<path fill="#c35360" opacity="1.00" d=" M 649.02 113.38 C 650.24 112.57 651.43 112.68 652.59 113.71 C 652.08 115.53 648.45 115.73 649.02 113.38 Z" />
<path fill="#292a2c" opacity="1.00" d=" M 706.46 113.86 C 707.21 113.91 708.71 114.02 709.47 114.07 C 711.96 114.25 714.44 114.42 716.95 114.56 C 714.22 116.55 711.60 118.71 708.68 120.41 C 706.13 120.40 706.84 117.43 706.42 115.72 C 706.43 115.26 706.45 114.32 706.46 113.86 Z" />
<path fill="#222721" opacity="1.00" d=" M 603.38 115.15 C 612.29 116.89 621.14 119.19 630.22 119.78 C 627.64 121.59 624.93 123.22 622.01 124.43 C 616.91 123.12 611.78 121.86 606.60 120.94 C 606.21 121.03 605.44 121.22 605.05 121.32 L 604.85 121.70 C 603.34 119.87 605.48 116.75 603.38 115.15 Z" />
<path fill="#16232e" opacity="1.00" d=" M 631.66 115.67 C 631.77 115.62 631.98 115.53 632.08 115.48 C 633.86 115.68 635.66 115.58 637.38 115.02 C 638.09 116.68 639.29 118.04 640.96 118.79 C 637.57 118.47 634.17 118.35 630.79 117.98 C 631.00 117.41 631.44 116.25 631.66 115.67 Z" />
<path fill="#c9af94" opacity="1.00" d=" M 657.06 115.90 C 658.23 115.70 659.41 115.50 660.60 115.31 C 660.58 116.01 660.54 117.42 660.52 118.12 C 658.92 118.30 657.30 118.16 655.71 117.99 C 656.05 117.47 656.72 116.42 657.06 115.90 Z" />
<path fill="#3a3942" opacity="1.00" d=" M 665.89 117.12 C 669.14 113.95 673.86 116.15 677.46 117.49 C 679.13 118.27 680.70 119.51 682.60 119.66 C 689.75 119.68 696.89 120.08 704.04 120.04 L 704.16 120.91 C 703.49 120.99 702.16 121.15 701.49 121.22 C 688.87 120.65 676.22 120.73 663.59 120.49 C 664.33 119.36 665.09 118.22 665.89 117.12 Z" />
<path fill="#fa811a" opacity="1.00" d=" M 716.95 114.56 C 717.02 114.52 717.16 114.43 717.23 114.39 C 717.21 115.01 717.16 116.25 717.14 116.87 C 715.78 116.15 714.58 117.39 713.96 118.46 C 712.34 119.69 710.69 120.88 709.03 122.05 C 708.67 121.73 707.93 121.08 707.56 120.75 C 707.84 120.67 708.40 120.50 708.68 120.41 C 711.60 118.71 714.22 116.55 716.95 114.56 Z" />
<path fill="#ac4245" opacity="1.00" d=" M 680.66 116.28 C 683.26 115.12 685.80 116.48 688.02 117.83 C 686.90 118.20 685.80 118.58 684.70 118.96 C 683.35 118.06 681.99 117.17 680.66 116.28 Z" />
<path fill="#226dad" opacity="1.00" d=" M 687.76 116.21 C 689.14 115.73 690.60 116.58 691.88 117.10 L 692.15 117.30 C 691.54 119.70 687.58 118.08 687.76 116.21 Z" />
<path fill="#ffffff" opacity="1.00" d=" M 691.88 117.10 C 692.38 116.74 693.40 116.04 693.91 115.69 C 695.59 116.42 697.29 117.11 699.00 117.83 C 696.73 119.31 694.50 117.42 692.15 117.30 L 691.88 117.10 Z" />
<path fill="#20406d" opacity="1.00" d=" M 703.72 116.33 C 704.39 116.18 705.74 115.88 706.42 115.72 C 706.84 117.43 706.13 120.40 708.68 120.41 C 708.40 120.50 707.84 120.67 707.56 120.75 C 706.42 120.78 705.28 120.84 704.16 120.91 L 704.04 120.04 C 703.89 118.80 703.78 117.56 703.72 116.33 Z" />
<path fill="#259279" opacity="1.00" d=" M 677.46 117.49 C 678.26 117.19 679.86 116.58 680.66 116.28 C 681.99 117.17 683.35 118.06 684.70 118.96 C 684.18 119.13 683.13 119.49 682.60 119.66 C 680.70 119.51 679.13 118.27 677.46 117.49 Z" />
<path fill="#fcfffd" opacity="1.00" d=" M 713.96 118.46 C 714.58 117.39 715.78 116.15 717.14 116.87 C 717.55 118.70 715.20 119.69 713.96 118.46 Z" />
<path fill="#66676a" opacity="1.00" d=" M 709.03 122.05 C 710.69 120.88 712.34 119.69 713.96 118.46 L 714.09 119.64 C 714.14 120.22 714.24 121.39 714.30 121.98 C 710.53 123.94 707.30 126.73 703.76 129.03 C 703.79 127.09 703.83 125.16 703.88 123.23 C 705.67 123.27 707.53 123.16 709.03 122.05 Z" />
<path fill="#39393a" opacity="1.00" d=" M 630.22 119.78 C 639.99 120.52 649.76 121.29 659.53 122.18 C 660.03 123.63 660.56 125.09 661.08 126.54 C 659.28 127.07 657.50 127.62 655.71 128.08 C 644.48 126.86 633.11 126.52 622.01 124.43 C 624.93 123.22 627.64 121.59 630.22 119.78 Z" />
<path fill="#fcfffd" opacity="1.00" d=" M 714.09 119.64 C 714.72 119.80 715.99 120.13 716.63 120.29 C 716.54 122.36 716.47 124.43 716.40 126.51 C 714.24 126.81 712.08 127.08 709.92 127.36 C 710.01 128.15 710.19 129.75 710.28 130.55 C 712.44 130.40 714.63 130.33 716.81 130.48 C 716.34 131.09 715.42 132.31 714.95 132.92 C 714.51 132.91 713.63 132.90 713.19 132.90 C 711.97 133.04 710.80 133.30 709.67 133.68 C 709.49 134.65 709.13 136.58 708.95 137.55 C 710.84 136.49 712.75 135.42 714.54 134.18 L 715.22 133.71 C 716.13 135.01 715.21 136.17 714.45 137.25 C 714.19 137.51 713.66 138.05 713.39 138.31 C 711.72 138.83 710.06 139.41 708.42 139.98 C 708.62 137.41 708.64 134.82 708.65 132.24 C 708.65 130.97 708.66 129.70 708.66 128.44 C 708.78 128.32 709.02 128.08 709.14 127.97 C 710.91 125.69 713.45 124.34 716.06 123.24 C 715.62 122.92 714.74 122.29 714.30 121.98 C 714.24 121.39 714.14 120.22 714.09 119.64 Z" />
<path fill="#b26f35" opacity="0.96" d=" M 605.05 121.32 C 605.44 121.22 606.21 121.03 606.60 120.94 C 611.78 121.86 616.91 123.12 622.01 124.43 C 633.11 126.52 644.48 126.86 655.71 128.08 C 663.52 128.97 671.39 128.87 679.25 128.83 C 683.25 128.91 687.25 128.93 691.26 129.02 C 689.02 129.54 686.84 130.23 684.61 130.77 C 676.25 130.78 667.90 130.68 659.54 130.62 C 643.82 128.34 627.63 128.84 612.36 123.95 C 612.37 125.40 612.41 126.84 612.47 128.29 C 612.57 130.27 612.78 132.24 613.04 134.21 C 613.48 138.79 613.90 143.38 614.38 147.97 C 614.85 156.17 615.66 164.34 616.57 172.51 C 616.66 174.35 616.69 176.19 616.76 178.04 C 616.27 177.87 615.30 177.54 614.82 177.37 C 614.70 174.75 614.58 172.14 614.54 169.52 C 614.09 160.93 613.57 152.30 612.25 143.80 C 611.49 137.07 610.79 130.32 610.39 123.57 C 608.52 123.00 606.56 122.66 604.85 121.70 L 605.05 121.32 Z" />
<path fill="#a75e27" opacity="1.00" d=" M 701.49 121.22 C 702.16 121.15 703.49 120.99 704.16 120.91 C 705.28 120.84 706.42 120.78 707.56 120.75 C 707.93 121.08 708.67 121.73 709.03 122.05 C 707.53 123.16 705.67 123.27 703.88 123.23 C 699.82 123.11 695.77 122.80 691.72 122.65 C 695.02 122.57 698.30 122.07 701.49 121.22 Z" />
<path fill="#ac6b30" opacity="1.00" d=" M 703.76 129.03 C 707.30 126.73 710.53 123.94 714.30 121.98 C 714.74 122.29 715.62 122.92 716.06 123.24 C 713.45 124.34 710.91 125.69 709.14 127.97 C 709.02 128.08 708.78 128.32 708.66 128.44 C 704.70 131.59 699.59 131.44 694.81 131.24 C 694.55 131.58 694.03 132.28 693.77 132.63 C 693.34 132.07 692.92 131.53 692.50 130.98 C 689.87 130.90 687.24 130.80 684.61 130.77 C 686.84 130.23 689.02 129.54 691.26 129.02 C 695.42 128.99 699.59 129.32 703.76 129.03 Z" />
<path fill="#29292c" opacity="1.00" d=" M 659.53 122.18 C 663.15 122.36 666.79 122.30 670.43 122.49 C 672.25 123.16 674.06 123.88 675.82 124.74 C 675.68 125.84 675.10 126.81 674.67 127.81 C 676.18 128.16 677.71 128.53 679.25 128.83 C 671.39 128.87 663.52 128.97 655.71 128.08 C 657.50 127.62 659.28 127.07 661.08 126.54 C 660.56 125.09 660.03 123.63 659.53 122.18 Z" />
<path fill="#191a1e" opacity="1.00" d=" M 670.43 122.49 C 677.52 122.47 684.62 122.60 691.72 122.65 C 695.77 122.80 699.82 123.11 703.88 123.23 C 703.83 125.16 703.79 127.09 703.76 129.03 C 699.59 129.32 695.42 128.99 691.26 129.02 C 687.25 128.93 683.25 128.91 679.25 128.83 C 677.71 128.53 676.18 128.16 674.67 127.81 C 675.10 126.81 675.68 125.84 675.82 124.74 C 674.06 123.88 672.25 123.16 670.43 122.49 Z" />
<path fill="#125b1b" opacity="1.00" d=" M 612.36 123.95 C 627.63 128.84 643.82 128.34 659.54 130.62 C 663.44 133.38 668.41 131.91 672.83 132.63 C 679.39 133.61 686.09 134.02 692.47 135.97 C 692.45 138.25 692.44 140.53 692.45 142.82 C 687.45 140.40 681.77 140.57 676.43 139.57 C 667.22 138.43 658.16 136.45 648.99 135.10 C 648.22 136.23 647.44 137.36 646.69 138.49 C 646.08 137.42 646.03 135.80 644.91 135.14 C 642.38 134.53 639.76 134.51 637.20 134.17 C 629.61 131.63 621.74 129.88 614.47 126.48 C 613.97 126.93 612.97 127.84 612.47 128.29 C 612.41 126.84 612.37 125.40 612.36 123.95 Z" />
<path fill="#2a8536" opacity="1.00" d=" M 614.47 126.48 C 621.74 129.88 629.61 131.63 637.20 134.17 C 635.78 134.03 634.36 133.89 632.95 133.76 C 631.54 138.05 630.41 142.42 629.23 146.78 C 628.89 148.00 628.56 149.23 628.30 150.48 C 625.39 143.38 619.88 137.61 613.04 134.21 C 612.78 132.24 612.57 130.27 612.47 128.29 C 612.97 127.84 613.97 126.93 614.47 126.48 Z" />
<path fill="#53a566" opacity="1.00" d=" M 694.81 131.24 C 699.59 131.44 704.70 131.59 708.66 128.44 C 708.66 129.70 708.65 130.97 708.65 132.24 L 707.53 133.16 C 705.44 134.63 706.29 137.64 705.76 139.82 C 702.07 140.29 698.32 140.30 694.71 139.32 C 694.71 136.62 694.75 133.93 694.81 131.24 Z" />
<path fill="#073911" opacity="1.00" d=" M 659.54 130.62 C 667.90 130.68 676.25 130.78 684.61 130.77 C 687.24 130.80 689.87 130.90 692.50 130.98 C 692.48 132.64 692.47 134.30 692.47 135.97 C 686.09 134.02 679.39 133.61 672.83 132.63 C 668.41 131.91 663.44 133.38 659.54 130.62 Z" />
<path fill="#d66b22" opacity="1.00" d=" M 692.50 130.98 C 692.92 131.53 693.34 132.07 693.77 132.63 C 694.03 132.28 694.55 131.58 694.81 131.24 C 694.75 133.93 694.71 136.62 694.71 139.32 C 694.77 151.03 694.47 162.75 694.76 174.46 C 694.75 180.33 693.79 186.39 695.37 192.13 L 695.51 192.56 C 694.49 193.30 693.48 193.65 692.29 193.78 C 692.45 176.80 692.32 159.81 692.45 142.82 C 692.44 140.53 692.45 138.25 692.47 135.97 C 692.47 134.30 692.48 132.64 692.50 130.98 Z" />
<path fill="#47934f" opacity="1.00" d=" M 705.76 139.82 C 706.29 137.64 705.44 134.63 707.53 133.16 C 707.29 136.58 706.79 140.22 708.25 143.45 C 709.04 143.35 710.64 143.16 711.43 143.06 C 710.16 143.48 708.90 143.91 707.65 144.34 C 707.14 144.30 706.14 144.21 705.63 144.17 C 705.48 147.17 705.36 150.17 705.49 153.17 L 707.54 153.16 C 706.62 154.47 705.65 155.75 704.58 156.93 C 700.06 158.47 700.70 163.96 699.41 167.72 C 698.88 167.74 697.82 167.79 697.29 167.81 C 697.17 163.15 697.31 158.46 696.59 153.83 C 694.82 160.60 696.94 167.76 694.76 174.46 C 694.47 162.75 694.77 151.03 694.71 139.32 C 698.32 140.30 702.07 140.29 705.76 139.82 Z" />
<path fill="#e87e08" opacity="1.00" d=" M 707.53 133.16 L 708.65 132.24 C 708.64 134.82 708.62 137.41 708.42 139.98 C 710.06 139.41 711.72 138.83 713.39 138.31 C 713.66 138.05 714.19 137.51 714.45 137.25 C 714.66 138.06 714.92 138.86 715.21 139.66 C 712.85 139.63 710.56 140.22 708.25 140.56 C 708.25 141.29 708.25 142.73 708.25 143.45 C 706.79 140.22 707.29 136.58 707.53 133.16 Z" />
<path fill="#e0cf26" opacity="1.00" d=" M 709.67 133.68 C 710.80 133.30 711.97 133.04 713.19 132.90 C 713.52 133.22 714.20 133.86 714.54 134.18 C 712.75 135.42 710.84 136.49 708.95 137.55 C 709.13 136.58 709.49 134.65 709.67 133.68 Z" />
<path fill="#68742c" opacity="1.00" d=" M 713.19 132.90 C 713.63 132.90 714.51 132.91 714.95 132.92 L 715.22 133.71 L 714.54 134.18 C 714.20 133.86 713.52 133.22 713.19 132.90 Z" />
<path fill="#4fa05b" opacity="1.00" d=" M 613.04 134.21 C 619.88 137.61 625.39 143.38 628.30 150.48 C 628.27 150.92 628.21 151.81 628.18 152.25 C 628.08 152.50 627.89 153.01 627.79 153.26 C 625.94 157.81 624.86 162.62 623.41 167.31 C 625.57 167.74 627.73 168.19 629.88 168.70 C 630.28 168.80 631.08 168.98 631.48 169.07 C 630.06 169.38 628.66 169.74 627.25 170.02 C 625.72 169.88 624.19 169.71 622.68 169.51 C 622.08 171.02 621.57 172.59 622.70 174.04 C 623.09 173.32 623.88 171.88 624.27 171.16 C 624.99 172.55 625.76 173.93 627.12 174.81 C 627.16 173.83 627.23 171.86 627.27 170.88 C 627.70 170.86 628.58 170.83 629.02 170.81 C 628.63 171.98 628.27 173.16 627.93 174.35 C 626.76 175.58 625.60 176.80 624.44 178.03 C 624.42 178.51 624.39 179.47 624.37 179.95 C 624.18 179.87 623.80 179.70 623.61 179.62 C 621.39 178.84 619.05 178.48 616.76 178.04 C 616.69 176.19 616.66 174.35 616.57 172.51 C 622.26 165.25 621.50 154.47 615.85 147.40 C 615.48 147.54 614.74 147.83 614.38 147.97 C 613.90 143.38 613.48 138.79 613.04 134.21 Z" />
<path fill="#bc5f10" opacity="1.00" d=" M 629.23 146.78 C 630.41 142.42 631.54 138.05 632.95 133.76 C 634.03 136.78 635.16 139.79 636.27 142.81 C 636.44 143.27 636.78 144.20 636.96 144.67 C 637.74 146.90 638.58 149.11 639.34 151.36 C 635.46 151.23 632.24 148.98 629.23 146.78 Z" />
<path fill="#ddf1de" opacity="1.00" d=" M 632.95 133.76 C 634.36 133.89 635.78 134.03 637.20 134.17 C 639.76 134.51 642.38 134.53 644.91 135.14 C 646.03 135.80 646.08 137.42 646.69 138.49 C 647.04 139.54 647.38 140.60 647.71 141.67 C 647.56 142.12 647.27 143.03 647.12 143.49 C 643.79 141.38 639.86 141.44 636.27 142.81 C 635.16 139.79 634.03 136.78 632.95 133.76 Z" />
<path fill="#167d24" opacity="1.00" d=" M 646.69 138.49 C 647.44 137.36 648.22 136.23 648.99 135.10 C 658.16 136.45 667.22 138.43 676.43 139.57 C 681.77 140.57 687.45 140.40 692.45 142.82 C 692.32 159.81 692.45 176.80 692.29 193.78 C 677.48 190.55 662.60 187.57 647.68 184.86 L 648.35 184.51 C 648.75 184.30 649.54 183.89 649.94 183.68 C 648.64 183.21 647.34 182.75 646.05 182.29 C 647.18 180.98 648.30 179.63 648.93 177.99 C 649.50 176.82 649.61 175.50 649.83 174.23 C 651.85 174.20 653.89 174.32 655.92 174.48 C 656.27 173.02 657.22 171.58 656.89 170.04 C 656.23 168.75 655.09 167.80 654.07 166.83 C 654.74 166.79 656.09 166.71 656.76 166.67 C 656.95 166.61 657.33 166.49 657.52 166.43 C 658.48 164.06 659.33 161.64 660.15 159.22 C 660.58 160.22 661.05 161.22 661.56 162.20 C 662.22 163.18 662.73 164.56 664.10 164.73 C 667.93 165.82 671.93 166.17 675.89 166.51 C 676.89 164.02 677.87 161.52 678.82 159.01 C 679.49 157.25 680.18 155.51 680.87 153.76 C 681.71 151.56 682.45 149.32 683.15 147.06 C 678.16 146.52 673.20 145.29 668.15 145.77 C 668.05 145.50 667.83 144.96 667.72 144.70 C 667.29 143.57 666.87 142.44 666.46 141.32 C 662.00 140.64 657.51 140.17 653.04 139.66 C 652.10 142.49 651.15 145.32 650.21 148.15 C 649.83 147.20 649.48 146.27 649.11 145.33 C 648.62 144.12 648.15 142.89 647.71 141.67 C 647.38 140.60 647.04 139.54 646.69 138.49 M 660.42 177.17 C 659.66 177.68 658.55 179.67 660.01 179.98 C 661.69 180.15 662.58 176.02 660.42 177.17 M 664.25 177.22 C 663.06 177.69 661.92 179.42 662.54 180.65 C 664.21 181.31 665.94 177.94 664.25 177.22 M 666.32 178.18 C 666.15 178.68 665.81 179.66 665.64 180.16 C 667.13 183.87 669.69 176.25 666.32 178.18 M 668.45 177.60 C 669.00 179.54 668.78 182.35 671.51 182.52 C 671.54 180.16 671.86 177.07 668.45 177.60 M 672.64 178.28 C 672.58 179.29 672.45 181.30 672.38 182.31 C 673.56 182.75 674.76 183.08 676.01 183.30 C 678.06 183.67 678.48 181.14 678.78 179.70 C 676.82 177.93 676.33 180.85 675.44 182.07 C 674.67 180.71 674.25 178.90 672.64 178.28 M 678.65 184.05 C 679.26 184.01 680.48 183.93 681.10 183.88 L 680.81 184.98 C 682.25 184.92 683.70 184.86 685.16 184.79 C 684.15 184.36 683.15 183.93 682.17 183.51 C 683.99 183.15 685.55 182.23 686.05 180.33 C 684.74 180.10 683.44 179.87 682.15 179.64 C 679.50 179.48 679.33 182.18 678.65 184.05 Z" />
<path fill="#3c8d49" opacity="1.00" d=" M 718.86 141.27 C 719.33 140.09 719.80 138.91 720.25 137.72 C 720.75 145.16 719.36 152.53 719.43 159.97 C 718.94 159.01 718.44 158.06 717.91 157.14 L 716.81 157.19 C 715.07 157.32 713.34 157.54 711.63 157.75 C 712.77 156.20 713.97 154.67 715.06 153.07 C 715.47 149.83 716.23 146.21 714.34 143.28 L 713.90 142.31 C 714.72 141.82 715.54 141.32 716.36 140.81 C 717.20 140.92 718.00 141.10 718.86 141.27 Z" />
<path fill="#b75500" opacity="1.00" d=" M 650.21 148.15 C 651.15 145.32 652.10 142.49 653.04 139.66 C 653.67 141.47 654.31 143.28 654.97 145.08 C 655.98 147.79 656.93 150.53 657.99 153.22 C 655.99 152.66 653.93 152.49 651.87 152.58 C 651.32 151.09 650.77 149.62 650.21 148.15 Z" />
<path fill="#daf0da" opacity="1.00" d=" M 653.04 139.66 C 657.51 140.17 662.00 140.64 666.46 141.32 C 666.87 142.44 667.29 143.57 667.72 144.70 C 667.64 145.23 667.47 146.29 667.38 146.82 C 663.83 146.10 659.97 144.02 656.39 145.48 C 656.03 145.38 655.33 145.18 654.97 145.08 C 654.31 143.28 653.67 141.47 653.04 139.66 Z" />
<path fill="#fcfffd" opacity="1.00" d=" M 708.25 140.56 C 710.56 140.22 712.85 139.63 715.21 139.66 L 716.36 140.81 C 715.54 141.32 714.72 141.82 713.90 142.31 C 713.28 142.49 712.05 142.87 711.43 143.06 C 710.64 143.16 709.04 143.35 708.25 143.45 C 708.25 142.73 708.25 141.29 708.25 140.56 Z" />
<path fill="#c0e9c3" opacity="1.00" d=" M 636.27 142.81 C 639.86 141.44 643.79 141.38 647.12 143.49 C 647.27 143.03 647.56 142.12 647.71 141.67 C 648.15 142.89 648.62 144.12 649.11 145.33 C 645.04 145.81 640.99 145.11 636.96 144.67 C 636.78 144.20 636.44 143.27 636.27 142.81 Z" />
<path fill="#b7c104" opacity="1.00" d=" M 711.43 143.06 C 712.05 142.87 713.28 142.49 713.90 142.31 L 714.34 143.28 C 714.16 143.70 713.80 144.55 713.62 144.97 C 712.03 144.84 710.45 144.68 708.89 144.49 C 708.58 144.45 707.96 144.38 707.65 144.34 C 708.90 143.91 710.16 143.48 711.43 143.06 Z" />
<path fill="#643517" opacity="0.48" d=" M 612.25 143.80 C 613.57 152.30 614.09 160.93 614.54 169.52 C 613.37 167.20 613.58 164.55 613.37 162.04 C 613.08 155.95 611.79 149.91 612.25 143.80 Z" />
<path fill="#8cd59a" opacity="1.00" d=" M 636.96 144.67 C 640.99 145.11 645.04 145.81 649.11 145.33 C 649.48 146.27 649.83 147.20 650.21 148.15 C 650.77 149.62 651.32 151.09 651.87 152.58 C 647.82 151.51 643.60 151.15 639.45 151.72 C 639.42 151.63 639.36 151.45 639.34 151.36 C 638.58 149.11 637.74 146.90 636.96 144.67 Z" />
<path fill="#99daa4" opacity="1.00" d=" M 656.39 145.48 C 659.97 144.02 663.83 146.10 667.38 146.82 C 667.47 146.29 667.64 145.23 667.72 144.70 C 667.83 144.96 668.05 145.50 668.15 145.77 C 669.22 148.31 670.06 150.94 670.84 153.59 C 666.68 153.66 662.51 153.69 658.37 153.31 C 658.28 153.29 658.09 153.24 657.99 153.22 C 656.93 150.53 655.98 147.79 654.97 145.08 C 655.33 145.18 656.03 145.38 656.39 145.48 Z" />
<path fill="#ffa100" opacity="1.00" d=" M 705.63 144.17 C 706.14 144.21 707.14 144.30 707.65 144.34 C 707.96 144.38 708.58 144.45 708.89 144.49 C 708.74 147.36 708.67 150.24 708.69 153.13 C 708.40 153.13 707.83 153.15 707.54 153.16 L 705.49 153.17 C 705.36 150.17 705.48 147.17 705.63 144.17 Z" />
<path fill="#e87e08" opacity="1.00" d=" M 714.34 143.28 C 716.23 146.21 715.47 149.83 715.06 153.07 C 714.39 153.07 713.06 153.06 712.40 153.05 C 712.82 150.36 713.13 147.65 713.62 144.97 C 713.80 144.55 714.16 143.70 714.34 143.28 Z" />
<path fill="#b15505" opacity="1.00" d=" M 668.15 145.77 C 673.20 145.29 678.16 146.52 683.15 147.06 C 682.45 149.32 681.71 151.56 680.87 153.76 C 677.62 153.26 674.33 153.37 671.07 153.58 L 670.84 153.59 C 670.06 150.94 669.22 148.31 668.15 145.77 Z" />
<path fill="#fdf402" opacity="1.00" d=" M 708.89 144.49 C 710.45 144.68 712.03 144.84 713.62 144.97 C 713.13 147.65 712.82 150.36 712.40 153.05 C 711.90 153.06 710.90 153.07 710.40 153.08 L 708.69 153.13 C 708.67 150.24 708.74 147.36 708.89 144.49 Z" />
<path fill="#6fb27a" opacity="1.00" d=" M 614.38 147.97 C 614.74 147.83 615.48 147.54 615.85 147.40 C 621.50 154.47 622.26 165.25 616.57 172.51 C 615.66 164.34 614.85 156.17 614.38 147.97 Z" />
<path fill="#db7515" opacity="1.00" d=" M 629.23 146.78 C 632.24 148.98 635.46 151.23 639.34 151.36 C 639.36 151.45 639.42 151.63 639.45 151.72 C 639.55 152.09 639.74 152.84 639.84 153.21 C 639.51 154.21 639.18 155.22 638.86 156.22 C 638.51 155.77 637.81 154.87 637.45 154.42 C 637.06 154.78 636.27 155.52 635.88 155.89 C 633.25 155.00 630.56 153.93 629.17 151.35 C 628.92 151.58 628.43 152.03 628.18 152.25 C 628.21 151.81 628.27 150.92 628.30 150.48 C 628.56 149.23 628.89 148.00 629.23 146.78 Z" />
<path fill="#fa811a" opacity="1.00" d=" M 628.18 152.25 C 628.43 152.03 628.92 151.58 629.17 151.35 C 630.56 153.93 633.25 155.00 635.88 155.89 C 636.27 155.52 637.06 154.78 637.45 154.42 C 637.81 154.87 638.51 155.77 638.86 156.22 C 637.51 160.58 636.29 164.97 635.06 169.37 C 633.86 169.27 632.66 169.17 631.48 169.07 C 631.08 168.98 630.28 168.80 629.88 168.70 C 630.19 163.49 630.80 157.87 627.79 153.26 C 627.89 153.01 628.08 152.50 628.18 152.25 Z" />
<path fill="#52c476" opacity="1.00" d=" M 639.45 151.72 C 643.60 151.15 647.82 151.51 651.87 152.58 C 652.07 153.14 652.47 154.26 652.67 154.82 C 648.58 154.69 644.50 154.51 640.42 154.17 L 639.84 153.21 C 639.74 152.84 639.55 152.09 639.45 151.72 Z" />
<path fill="#f36f00" opacity="1.00" d=" M 651.87 152.58 C 653.93 152.49 655.99 152.66 657.99 153.22 C 658.09 153.24 658.28 153.29 658.37 153.31 C 658.85 155.00 659.37 156.70 659.89 158.39 C 659.96 158.59 660.09 159.01 660.15 159.22 C 659.33 161.64 658.48 164.06 657.52 166.43 C 657.33 166.49 656.95 166.61 656.76 166.67 C 656.09 164.68 655.42 162.69 654.73 160.72 C 654.29 159.52 653.87 158.33 653.46 157.13 C 653.27 156.55 652.87 155.40 652.67 154.82 C 652.47 154.26 652.07 153.14 651.87 152.58 Z" />
<path fill="#ce6200" opacity="1.00" d=" M 671.07 153.58 C 674.33 153.37 677.62 153.26 680.87 153.76 C 680.18 155.51 679.49 157.25 678.82 159.01 C 678.58 158.65 678.10 157.94 677.86 157.59 C 676.23 158.09 674.62 158.58 673.00 159.08 C 672.32 157.26 671.68 155.42 671.07 153.58 Z" />
<path fill="#5fb601" opacity="1.00" d=" M 707.54 153.16 C 707.83 153.15 708.40 153.13 708.69 153.13 L 710.40 153.08 C 710.29 154.69 710.18 156.30 710.09 157.92 C 709.26 158.00 707.60 158.17 706.77 158.26 C 706.02 158.32 704.51 158.44 703.75 158.49 L 704.58 156.93 C 705.65 155.75 706.62 154.47 707.54 153.16 Z" />
<path fill="#9fd408" opacity="1.00" d=" M 710.40 153.08 C 710.90 153.07 711.90 153.06 712.40 153.05 C 713.06 153.06 714.39 153.07 715.06 153.07 C 713.97 154.67 712.77 156.20 711.63 157.75 C 711.43 157.78 711.03 157.82 710.83 157.85 L 710.09 157.92 C 710.18 156.30 710.29 154.69 710.40 153.08 Z" />
<path fill="#fb8c2d" opacity="1.00" d=" M 627.79 153.26 C 630.80 157.87 630.19 163.49 629.88 168.70 C 627.73 168.19 625.57 167.74 623.41 167.31 C 624.86 162.62 625.94 157.81 627.79 153.26 Z" />
<path fill="#1f842e" opacity="1.00" d=" M 639.84 153.21 L 640.42 154.17 C 640.92 155.02 641.39 155.90 641.82 156.80 C 642.04 157.42 642.47 158.68 642.69 159.31 C 643.28 161.08 643.80 162.90 644.64 164.58 C 647.60 165.91 650.91 166.18 654.07 166.83 C 655.09 167.80 656.23 168.75 656.89 170.04 C 657.22 171.58 656.27 173.02 655.92 174.48 C 653.89 174.32 651.85 174.20 649.83 174.23 C 647.77 174.06 645.99 178.00 648.93 177.99 C 648.30 179.63 647.18 180.98 646.05 182.29 C 647.34 182.75 648.64 183.21 649.94 183.68 C 649.54 183.89 648.75 184.30 648.35 184.51 C 642.77 183.68 637.28 182.38 631.73 181.38 C 632.94 179.56 634.23 177.79 635.38 175.93 C 637.31 176.07 639.26 176.20 641.21 176.33 C 641.25 175.52 641.34 173.90 641.39 173.09 C 639.90 172.63 638.44 172.15 636.98 171.69 C 635.20 171.13 633.37 170.73 631.52 170.65 C 630.90 170.69 629.65 170.77 629.02 170.81 C 628.58 170.83 627.70 170.86 627.27 170.88 L 627.25 170.02 C 628.66 169.74 630.06 169.38 631.48 169.07 C 632.66 169.17 633.86 169.27 635.06 169.37 C 636.29 164.97 637.51 160.58 638.86 156.22 C 639.18 155.22 639.51 154.21 639.84 153.21 M 642.52 173.39 C 641.71 174.41 641.61 175.49 642.22 176.63 C 644.20 177.32 645.03 172.07 642.52 173.39 M 645.34 174.24 C 644.53 174.76 643.68 176.80 645.08 177.09 C 646.73 177.12 647.51 173.22 645.34 174.24 Z" />
<path fill="#2fba61" opacity="1.00" d=" M 640.42 154.17 C 644.50 154.51 648.58 154.69 652.67 154.82 C 652.87 155.40 653.27 156.55 653.46 157.13 C 649.57 157.21 645.69 157.07 641.82 156.80 C 641.39 155.90 640.92 155.02 640.42 154.17 Z" />
<path fill="#42bf6b" opacity="1.00" d=" M 658.37 153.31 C 662.51 153.69 666.68 153.66 670.84 153.59 L 671.07 153.58 C 671.68 155.42 672.32 157.26 673.00 159.08 C 673.15 159.47 673.45 160.25 673.60 160.64 C 668.96 160.39 664.35 159.69 659.89 158.39 C 659.37 156.70 658.85 155.00 658.37 153.31 Z" />
<path fill="#398844" opacity="1.00" d=" M 694.76 174.46 C 696.94 167.76 694.82 160.60 696.59 153.83 C 697.31 158.46 697.17 163.15 697.29 167.81 C 697.82 167.79 698.88 167.74 699.41 167.72 C 700.70 163.96 700.06 158.47 704.58 156.93 L 703.75 158.49 C 703.35 161.46 703.36 164.47 703.29 167.46 C 704.48 167.35 705.68 167.26 706.88 167.18 C 709.52 168.66 707.94 171.49 707.77 173.75 C 707.28 176.79 708.28 179.77 709.22 182.62 C 705.84 187.51 702.84 192.64 699.30 197.41 C 699.29 194.53 699.09 191.67 698.97 188.80 C 697.78 189.93 696.60 191.07 695.37 192.13 C 693.79 186.39 694.75 180.33 694.76 174.46 Z" />
<path fill="#04b047" opacity="1.00" d=" M 641.82 156.80 C 645.69 157.07 649.57 157.21 653.46 157.13 C 653.87 158.33 654.29 159.52 654.73 160.72 C 650.70 160.33 646.69 159.82 642.69 159.31 C 642.47 158.68 642.04 157.42 641.82 156.80 Z" />
<path fill="#ff7201" opacity="1.00" d=" M 673.00 159.08 C 674.62 158.58 676.23 158.09 677.86 157.59 C 678.10 157.94 678.58 158.65 678.82 159.01 C 677.87 161.52 676.89 164.02 675.89 166.51 C 675.62 165.82 675.09 164.46 674.82 163.78 C 674.40 162.73 673.99 161.69 673.60 160.64 C 673.45 160.25 673.15 159.47 673.00 159.08 Z" />
<path fill="#ff9b01" opacity="1.00" d=" M 710.83 157.85 C 711.03 157.82 711.43 157.78 711.63 157.75 C 713.34 157.54 715.07 157.32 716.81 157.19 C 716.73 159.90 716.65 162.62 716.56 165.34 C 715.16 165.59 713.77 165.85 712.38 166.10 C 713.25 163.56 713.67 160.89 713.31 158.22 C 712.69 158.13 711.45 157.94 710.83 157.85 Z" />
<path fill="#307f3d" opacity="1.00" d=" M 716.81 157.19 L 717.91 157.14 C 718.44 158.06 718.94 159.01 719.43 159.97 C 719.46 162.38 719.32 164.78 719.31 167.19 C 715.91 172.31 712.61 177.50 709.22 182.62 C 708.28 179.77 707.28 176.79 707.77 173.75 C 707.94 171.49 709.52 168.66 706.88 167.18 L 706.60 166.86 C 708.53 166.64 710.45 166.39 712.38 166.10 C 713.77 165.85 715.16 165.59 716.56 165.34 C 716.65 162.62 716.73 159.90 716.81 157.19 Z" />
<path fill="#09ac3d" opacity="1.00" d=" M 659.89 158.39 C 664.35 159.69 668.96 160.39 673.60 160.64 C 673.99 161.69 674.40 162.73 674.82 163.78 C 670.38 163.37 665.99 162.60 661.56 162.20 C 661.05 161.22 660.58 160.22 660.15 159.22 C 660.09 159.01 659.96 158.59 659.89 158.39 Z" />
<path fill="#ff7800" opacity="1.00" d=" M 703.75 158.49 C 704.51 158.44 706.02 158.32 706.77 158.26 C 706.58 161.12 706.36 163.99 706.60 166.86 L 706.88 167.18 C 705.68 167.26 704.48 167.35 703.29 167.46 C 703.36 164.47 703.35 161.46 703.75 158.49 Z" />
<path fill="#fce901" opacity="1.00" d=" M 706.77 158.26 C 707.60 158.17 709.26 158.00 710.09 157.92 L 710.83 157.85 C 711.45 157.94 712.69 158.13 713.31 158.22 C 713.67 160.89 713.25 163.56 712.38 166.10 C 710.45 166.39 708.53 166.64 706.60 166.86 C 706.36 163.99 706.58 161.12 706.77 158.26 Z" />
<path fill="#01a50f" opacity="1.00" d=" M 642.69 159.31 C 646.69 159.82 650.70 160.33 654.73 160.72 C 655.42 162.69 656.09 164.68 656.76 166.67 C 656.09 166.71 654.74 166.79 654.07 166.83 C 650.91 166.18 647.60 165.91 644.64 164.58 C 643.80 162.90 643.28 161.08 642.69 159.31 Z" />
<path fill="#04a317" opacity="1.00" d=" M 661.56 162.20 C 665.99 162.60 670.38 163.37 674.82 163.78 C 675.09 164.46 675.62 165.82 675.89 166.51 C 671.93 166.17 667.93 165.82 664.10 164.73 C 662.73 164.56 662.22 163.18 661.56 162.20 Z" />
<path fill="#354b38" opacity="1.00" d=" M 622.70 174.04 C 621.57 172.59 622.08 171.02 622.68 169.51 C 624.19 169.71 625.72 169.88 627.25 170.02 L 627.27 170.88 C 627.23 171.86 627.16 173.83 627.12 174.81 C 625.76 173.93 624.99 172.55 624.27 171.16 C 623.88 171.88 623.09 173.32 622.70 174.04 Z" />
<path fill="#1f3823" opacity="1.00" d=" M 629.02 170.81 C 629.65 170.77 630.90 170.69 631.52 170.65 C 631.12 171.92 630.72 173.19 630.33 174.47 C 629.52 174.42 628.72 174.38 627.93 174.35 C 628.27 173.16 628.63 171.98 629.02 170.81 Z" />
<path fill="#2f8d3c" opacity="1.00" d=" M 631.52 170.65 C 633.37 170.73 635.20 171.13 636.98 171.69 C 636.46 173.11 635.95 174.53 635.38 175.93 C 634.23 177.79 632.94 179.56 631.73 181.38 C 629.27 180.89 626.82 180.40 624.37 179.95 C 624.39 179.47 624.42 178.51 624.44 178.03 C 625.60 176.80 626.76 175.58 627.93 174.35 C 628.72 174.38 629.52 174.42 630.33 174.47 C 630.72 173.19 631.12 171.92 631.52 170.65 M 634.23 172.11 C 633.09 172.33 632.36 174.72 633.83 174.92 C 634.94 174.68 635.70 172.29 634.23 172.11 Z" />
<path fill="#0d1b0e" opacity="1.00" d=" M 634.23 172.11 C 635.70 172.29 634.94 174.68 633.83 174.92 C 632.36 174.72 633.09 172.33 634.23 172.11 Z" />
<path fill="#132f17" opacity="1.00" d=" M 636.98 171.69 C 638.44 172.15 639.90 172.63 641.39 173.09 C 641.34 173.90 641.25 175.52 641.21 176.33 C 639.26 176.20 637.31 176.07 635.38 175.93 C 635.95 174.53 636.46 173.11 636.98 171.69 Z" />
<path fill="#0a200c" opacity="1.00" d=" M 642.52 173.39 C 645.03 172.07 644.20 177.32 642.22 176.63 C 641.61 175.49 641.71 174.41 642.52 173.39 Z" />
<path fill="#09180b" opacity="1.00" d=" M 645.34 174.24 C 647.51 173.22 646.73 177.12 645.08 177.09 C 643.68 176.80 644.53 174.76 645.34 174.24 Z" />
<path fill="#0a1f0c" opacity="1.00" d=" M 648.93 177.99 C 645.99 178.00 647.77 174.06 649.83 174.23 C 649.61 175.50 649.50 176.82 648.93 177.99 Z" />
<path fill="#061107" opacity="1.00" d=" M 660.42 177.17 C 662.58 176.02 661.69 180.15 660.01 179.98 C 658.55 179.67 659.66 177.68 660.42 177.17 Z" />
<path fill="#071709" opacity="1.00" d=" M 664.25 177.22 C 665.94 177.94 664.21 181.31 662.54 180.65 C 661.92 179.42 663.06 177.69 664.25 177.22 Z" />
<path fill="#071408" opacity="1.00" d=" M 666.32 178.18 C 669.69 176.25 667.13 183.87 665.64 180.16 C 665.81 179.66 666.15 178.68 666.32 178.18 Z" />
<path fill="#0b210d" opacity="1.00" d=" M 668.45 177.60 C 671.86 177.07 671.54 180.16 671.51 182.52 C 668.78 182.35 669.00 179.54 668.45 177.60 Z" />
<path fill="#091e0c" opacity="1.00" d=" M 672.64 178.28 C 674.25 178.90 674.67 180.71 675.44 182.07 C 676.33 180.85 676.82 177.93 678.78 179.70 C 678.48 181.14 678.06 183.67 676.01 183.30 C 674.76 183.08 673.56 182.75 672.38 182.31 C 672.45 181.30 672.58 179.29 672.64 178.28 Z" />
<path fill="#b26f35" opacity="0.96" d=" M 623.61 179.62 C 623.80 179.70 624.18 179.87 624.37 179.95 C 624.61 180.53 625.08 181.68 625.32 182.26 C 626.21 182.55 627.11 182.81 628.02 183.04 C 626.50 182.86 624.99 182.75 623.48 182.63 C 623.51 181.88 623.58 180.37 623.61 179.62 Z" />
<path fill="#28292f" opacity="1.00" d=" M 624.37 179.95 C 626.82 180.40 629.27 180.89 631.73 181.38 C 637.28 182.38 642.77 183.68 648.35 184.51 L 647.68 184.86 C 646.66 185.41 645.63 185.94 644.61 186.46 C 639.04 185.52 633.54 184.21 628.02 183.04 C 627.11 182.81 626.21 182.55 625.32 182.26 C 625.08 181.68 624.61 180.53 624.37 179.95 Z" />
<path fill="#061307" opacity="1.00" d=" M 678.65 184.05 C 679.33 182.18 679.50 179.48 682.15 179.64 C 681.80 181.05 681.47 182.47 681.10 183.88 C 680.48 183.93 679.26 184.01 678.65 184.05 Z" />
<path fill="#16591e" opacity="1.00" d=" M 682.15 179.64 C 683.44 179.87 684.74 180.10 686.05 180.33 C 685.55 182.23 683.99 183.15 682.17 183.51 C 683.15 183.93 684.15 184.36 685.16 184.79 C 683.70 184.86 682.25 184.92 680.81 184.98 L 681.10 183.88 C 681.47 182.47 681.80 181.05 682.15 179.64 Z" />
<path fill="#14161a" opacity="1.00" d=" M 644.61 186.46 C 645.63 185.94 646.66 185.41 647.68 184.86 C 662.60 187.57 677.48 190.55 692.29 193.78 C 693.48 193.65 694.49 193.30 695.51 192.56 C 696.14 194.10 696.57 195.72 696.69 197.40 C 679.27 194.05 661.94 190.21 644.61 186.46 Z" />
<path fill="#a05523" opacity="1.00" d=" M 695.37 192.13 C 696.60 191.07 697.78 189.93 698.97 188.80 C 699.09 191.67 699.29 194.53 699.30 197.41 C 699.63 198.89 697.64 198.28 696.80 198.53 C 696.77 198.24 696.71 197.68 696.69 197.40 C 696.57 195.72 696.14 194.10 695.51 192.56 L 695.37 192.13 Z" />
<path fill="#7f1722" opacity="0.63" d=" M 381.35 380.57 C 384.46 375.42 392.29 374.41 396.44 378.97 C 396.05 379.19 395.27 379.62 394.88 379.84 C 394.78 379.77 394.57 379.62 394.46 379.55 L 393.72 378.91 C 391.19 377.15 387.65 377.21 385.19 379.08 L 384.71 379.35 L 384.39 379.52 L 384.08 379.84 C 383.70 380.12 382.92 380.69 382.54 380.97 C 382.18 380.99 381.47 381.03 381.12 381.04 L 381.35 380.57 Z" />
<path fill="#4a4b4c" opacity="0.66" d=" M 377.20 377.32 C 377.60 377.21 378.41 376.99 378.81 376.89 L 379.02 377.58 C 378.62 377.70 377.81 377.95 377.40 378.08 L 377.20 377.32 Z" />
<path fill="#f4d3be" opacity="1.00" d=" M 374.37 381.93 C 374.74 380.38 375.44 377.97 377.40 378.08 C 377.81 377.95 378.62 377.70 379.02 377.58 C 380.07 378.36 380.84 379.36 381.35 380.57 L 381.12 381.04 C 379.77 381.17 378.42 381.23 377.08 381.22 L 379.36 381.88 L 377.47 383.01 C 378.48 382.64 379.78 381.96 380.55 383.16 C 380.05 383.56 379.06 384.35 378.56 384.74 C 378.44 385.87 378.78 386.84 379.59 387.65 C 379.18 388.26 378.36 389.47 377.95 390.08 L 377.87 389.97 C 377.47 388.09 377.44 386.12 377.74 384.23 C 376.43 383.78 374.89 383.37 374.37 381.93 Z" />
<path fill="#673611" opacity="1.00" d=" M 396.44 378.97 C 397.94 377.83 399.94 377.86 401.68 378.37 C 402.53 379.61 402.56 381.16 402.87 382.59 C 401.78 382.53 400.72 382.57 399.64 382.62 C 399.07 381.71 398.47 380.85 397.93 379.94 C 397.76 380.39 397.42 381.28 397.25 381.73 C 396.45 381.10 395.66 380.48 394.88 379.84 C 395.27 379.62 396.05 379.19 396.44 378.97 Z" />
<path fill="#0d5a1a" opacity="0.45" d=" M 384.39 379.52 L 384.71 379.35 L 384.46 379.60 L 384.08 379.84 L 384.39 379.52 Z" />
<path fill="#4adc54" opacity="0.93" d=" M 384.71 379.35 L 385.19 379.08 C 386.14 378.88 388.02 378.49 388.96 378.30 C 387.80 380.62 384.88 381.14 383.64 383.40 C 384.41 383.56 385.95 383.88 386.72 384.03 C 385.08 385.21 383.37 386.33 381.50 387.10 L 380.64 385.94 C 381.14 384.24 381.78 382.58 382.54 380.97 C 382.92 380.69 383.70 380.12 384.08 379.84 L 384.46 379.60 L 384.71 379.35 Z" />
<path fill="#3ce546" opacity="0.97" d=" M 389.98 378.30 C 390.91 378.45 392.79 378.76 393.72 378.91 L 394.46 379.55 L 394.68 379.69 L 394.88 379.84 C 395.66 380.48 396.45 381.10 397.25 381.73 C 397.33 383.12 397.43 384.52 397.53 385.93 C 397.23 385.70 396.65 385.23 396.36 384.99 C 395.59 383.93 394.89 382.84 394.16 381.77 C 393.40 380.29 391.62 379.70 390.06 379.97 L 389.98 378.30 Z" />
<path fill="#0e6a1d" opacity="0.46" d=" M 394.46 379.55 C 394.57 379.62 394.78 379.77 394.88 379.84 L 394.68 379.69 L 394.46 379.55 Z" />
<path fill="#253211" opacity="0.40" d=" M 390.06 379.97 C 391.62 379.70 393.40 380.29 394.16 381.77 C 392.72 381.93 390.12 381.92 390.06 379.97 Z" />
<path fill="#ffffff" opacity="1.00" d=" M 397.93 379.94 C 398.47 380.85 399.07 381.71 399.64 382.62 C 400.72 382.57 401.78 382.53 402.87 382.59 L 401.59 383.91 C 400.64 384.64 399.40 386.27 398.08 385.22 C 397.77 384.05 397.49 382.89 397.25 381.73 C 397.42 381.28 397.76 380.39 397.93 379.94 Z" />
<path fill="#474c4a" opacity="1.00" d=" M 397.25 381.73 C 397.49 382.89 397.77 384.05 398.08 385.22 C 399.40 386.27 400.64 384.64 401.59 383.91 C 401.66 386.12 401.09 388.48 402.16 390.55 C 401.18 389.79 400.04 389.18 399.53 388.00 C 399.40 386.61 398.74 385.92 397.53 385.93 C 397.43 384.52 397.33 383.12 397.25 381.73 Z" />
<path fill="#04060a" opacity="1.00" d=" M 378.56 384.74 C 379.06 384.35 380.05 383.56 380.55 383.16 C 380.48 384.94 379.85 387.31 381.68 388.49 L 381.71 388.60 C 381.18 388.36 380.12 387.89 379.59 387.65 C 378.78 386.84 378.44 385.87 378.56 384.74 Z" />
<path fill="#fffeff" opacity="1.00" d=" M 386.72 384.03 C 387.70 383.89 388.69 383.75 389.68 383.63 C 389.55 384.27 389.27 385.56 389.14 386.20 L 390.42 386.34 L 390.91 386.66 C 390.64 387.11 390.09 388.01 389.81 388.46 C 387.59 388.34 385.36 388.36 383.15 388.42 L 383.54 389.94 C 383.30 389.86 382.83 389.70 382.59 389.62 C 382.37 389.36 381.93 388.85 381.71 388.60 L 381.68 388.49 L 381.50 387.10 C 383.37 386.33 385.08 385.21 386.72 384.03 M 384.09 386.38 C 383.52 387.95 384.09 388.47 385.81 387.94 C 386.35 386.36 385.78 385.84 384.09 386.38 Z" />
<path fill="#48fa51" opacity="1.00" d=" M 389.68 383.63 C 391.84 383.31 394.27 383.09 396.00 384.74 C 394.18 385.41 392.32 385.96 390.42 386.34 L 389.14 386.20 C 389.27 385.56 389.55 384.27 389.68 383.63 Z" />
<path fill="#86c38b" opacity="0.95" d=" M 390.42 386.34 C 392.32 385.96 394.18 385.41 396.00 384.74 L 396.36 384.99 C 396.65 385.23 397.23 385.70 397.53 385.93 C 397.42 386.34 397.21 387.15 397.10 387.55 C 396.88 388.16 396.44 389.39 396.21 390.01 C 395.59 389.63 394.33 388.89 393.71 388.52 C 393.63 388.47 393.46 388.36 393.38 388.31 C 392.76 387.90 391.53 387.07 390.91 386.66 L 390.42 386.34 Z" />
<path fill="#7e7b8d" opacity="0.97" d=" M 384.09 386.38 C 385.78 385.84 386.35 386.36 385.81 387.94 C 384.09 388.47 383.52 387.95 384.09 386.38 Z" />
<path fill="#69d258" opacity="0.95" d=" M 390.91 386.66 C 391.53 387.07 392.76 387.90 393.38 388.31 C 393.46 388.36 393.63 388.47 393.71 388.52 C 394.33 388.89 395.59 389.63 396.21 390.01 C 396.44 389.39 396.88 388.16 397.10 387.55 C 397.40 388.12 397.98 389.26 398.27 389.83 C 397.43 391.04 396.85 392.38 396.53 393.84 C 396.42 393.88 396.19 393.94 396.08 393.98 L 395.68 394.09 L 395.49 394.49 C 394.15 395.85 392.59 396.36 390.81 396.02 L 390.64 395.77 C 391.69 394.83 392.84 394.00 393.95 393.13 C 395.21 392.44 396.30 391.54 397.24 390.41 C 392.68 389.72 387.99 391.24 383.54 389.94 L 383.15 388.42 C 385.36 388.36 387.59 388.34 389.81 388.46 C 390.09 388.01 390.64 387.11 390.91 386.66 Z" />
<path fill="#7e7052" opacity="1.00" d=" M 379.59 387.65 C 380.12 387.89 381.18 388.36 381.71 388.60 C 381.93 388.85 382.37 389.36 382.59 389.62 C 381.90 389.88 380.52 390.40 379.82 390.66 C 380.12 391.37 380.70 392.78 380.99 393.49 L 380.87 393.44 C 379.86 392.32 378.88 391.24 377.95 390.08 C 378.36 389.47 379.18 388.26 379.59 387.65 Z" />
<path fill="#e5d13f" opacity="0.96" d=" M 393.38 388.31 C 393.46 388.36 393.63 388.47 393.71 388.52 C 393.63 388.47 393.46 388.36 393.38 388.31 Z" />
<path fill="#721112" opacity="0.69" d=" M 399.53 388.00 C 400.04 389.18 401.18 389.79 402.16 390.55 C 402.10 391.07 401.97 392.10 401.91 392.61 C 400.98 392.79 399.11 393.16 398.18 393.35 C 397.77 393.47 396.94 393.72 396.53 393.84 C 396.85 392.38 397.43 391.04 398.27 389.83 C 398.58 389.37 399.21 388.46 399.53 388.00 Z" />
<path fill="#ffffff" opacity="1.00" d=" M 30.60 389.48 C 36.96 389.51 43.31 389.51 49.67 389.48 C 52.25 406.65 54.84 423.81 57.34 440.99 C 52.83 441.01 48.33 440.99 43.82 441.00 C 43.55 437.92 43.31 434.83 43.11 431.75 C 41.45 431.75 39.78 431.76 38.12 431.78 C 37.95 434.86 37.71 437.95 37.41 441.02 C 32.83 440.97 28.25 441.01 23.67 440.99 C 25.90 423.81 28.23 406.64 30.60 389.48 M 40.47 400.92 C 39.75 408.23 38.65 415.50 38.08 422.83 C 39.61 422.78 41.13 422.76 42.65 422.75 C 41.96 415.47 41.46 408.17 40.47 400.92 Z" />
<path fill="#ffffff" opacity="1.00" d=" M 57.50 389.50 C 67.17 389.50 76.83 389.50 86.50 389.50 C 86.50 392.91 86.50 396.33 86.51 399.75 C 83.84 399.75 81.17 399.75 78.50 399.75 C 78.48 413.51 78.54 427.26 78.47 441.01 C 74.06 440.98 69.65 441.01 65.23 440.98 C 65.26 427.24 65.24 413.50 65.24 399.76 C 62.66 399.75 60.08 399.75 57.50 399.75 C 57.50 396.33 57.50 392.91 57.50 389.50 Z" />
<path fill="#ffffff" opacity="1.00" d=" M 99.20 389.17 C 105.19 387.66 112.45 388.39 116.87 393.09 C 120.36 396.84 120.15 402.25 120.26 407.02 C 120.06 415.22 120.71 423.46 119.73 431.62 C 116.95 445.51 93.01 445.65 89.86 431.96 C 88.75 424.70 89.44 417.31 89.24 409.99 C 89.34 405.47 88.96 400.77 90.51 396.44 C 92.04 392.80 95.42 390.16 99.20 389.17 M 102.87 397.80 C 102.14 403.83 102.65 409.91 102.50 415.97 C 102.66 421.68 102.10 427.43 102.95 433.11 C 104.47 433.39 106.82 433.34 106.78 431.23 C 107.22 420.80 107.01 410.32 106.89 399.87 C 107.14 397.39 104.70 396.71 102.87 397.80 Z" />
<path fill="#ffffff" opacity="1.00" d=" M 125.74 389.52 C 131.45 389.45 137.17 389.55 142.89 389.46 C 144.11 397.62 145.22 405.79 146.49 413.95 C 147.25 405.76 148.51 397.63 149.60 389.48 C 155.31 389.52 161.03 389.49 166.75 389.49 C 166.77 406.66 166.74 423.82 166.76 440.99 C 162.84 441.00 158.92 441.00 155.00 441.00 C 154.78 429.29 155.51 417.55 154.50 405.88 C 153.74 417.66 151.70 429.31 150.20 441.01 C 147.60 441.01 145.01 441.01 142.42 440.91 C 140.78 429.54 139.45 418.11 137.37 406.82 C 137.64 418.21 137.44 429.61 137.50 441.00 C 133.58 441.00 129.67 441.00 125.75 441.00 C 125.74 423.84 125.76 406.68 125.74 389.52 Z" />
<path fill="#ffffff" opacity="1.00" d=" M 190.02 396.97 C 190.84 392.25 195.55 389.41 199.98 388.80 C 205.15 388.05 210.99 388.44 215.29 391.68 C 219.39 394.76 218.57 400.47 218.79 404.97 C 214.60 405.01 210.42 405.01 206.23 404.98 C 206.20 402.65 206.49 400.27 205.92 398.00 C 205.13 397.18 203.55 396.71 202.82 397.87 C 201.29 400.57 201.60 404.81 204.42 406.57 C 209.01 409.91 214.49 412.43 217.86 417.17 C 220.51 421.96 220.26 427.82 219.61 433.09 C 218.95 438.20 213.77 440.98 209.13 441.69 C 203.23 442.65 196.14 441.67 192.21 436.71 C 189.50 432.52 190.03 427.20 190.09 422.44 C 194.23 422.54 198.37 422.49 202.51 422.50 C 202.73 425.90 201.87 429.51 203.20 432.76 C 204.73 434.05 206.98 432.84 207.11 430.95 C 207.36 428.38 207.53 425.43 206.01 423.20 C 202.09 419.56 197.14 417.23 193.15 413.67 C 188.90 409.32 189.04 402.57 190.02 396.97 Z" />
<path fill="#ffff26" opacity="1.00" d=" M 222.05 389.46 C 226.32 389.51 230.59 389.55 234.85 389.42 C 235.92 401.30 237.29 413.21 237.47 425.14 C 239.15 413.30 239.87 401.33 241.60 389.48 C 246.13 389.51 250.66 389.49 255.20 389.50 C 256.43 401.71 257.00 413.99 258.64 426.16 C 258.92 413.87 260.23 401.58 262.13 389.44 C 266.41 389.54 270.68 389.51 274.96 389.46 C 273.05 406.65 270.97 423.82 268.96 441.00 C 263.42 440.97 257.87 441.07 252.33 440.93 C 250.84 431.94 249.25 422.94 248.52 413.85 C 246.93 422.82 245.79 431.87 244.59 440.91 C 239.08 441.10 233.56 440.96 228.05 441.00 C 226.08 423.82 223.94 406.65 222.05 389.46 Z" />
<path fill="#ffff26" opacity="1.00" d=" M 281.60 389.48 C 287.95 389.51 294.31 389.51 300.66 389.48 C 303.26 406.64 305.84 423.81 308.34 440.99 C 303.83 441.00 299.32 440.99 294.81 441.00 C 294.55 437.92 294.31 434.83 294.11 431.75 C 292.44 431.75 290.78 431.76 289.12 431.78 C 288.93 434.83 288.69 437.88 288.50 440.93 C 283.89 441.06 279.28 440.98 274.67 440.99 C 276.90 423.81 279.24 406.64 281.60 389.48 M 291.48 400.81 C 290.75 408.15 289.66 415.46 289.08 422.82 C 290.60 422.78 292.12 422.76 293.65 422.75 C 292.97 415.43 292.42 408.10 291.48 400.81 Z" />
<path fill="#ffff26" opacity="1.00" d=" M 307.76 389.53 C 312.40 389.46 317.05 389.52 321.69 389.48 C 323.34 401.62 323.70 413.91 325.54 426.02 C 325.38 413.79 327.39 401.64 328.33 389.46 C 332.98 389.54 337.62 389.45 342.27 389.54 C 339.82 406.66 337.97 423.90 335.26 440.97 C 328.60 441.05 321.94 441.00 315.28 440.96 C 312.83 423.81 310.23 406.68 307.76 389.53 Z" />
<path fill="#ffffff" opacity="1.00" d=" M 172.25 389.50 C 176.67 389.50 181.08 389.50 185.50 389.50 C 185.50 391.74 185.50 394.00 185.50 396.25 C 181.08 396.25 176.67 396.25 172.25 396.25 C 172.25 394.00 172.24 391.75 172.25 389.50 Z" />
<path fill="#ffff26" opacity="1.00" d=" M 344.75 389.50 C 352.05 389.46 359.35 389.57 366.64 389.43 C 366.81 392.87 366.76 396.31 366.75 399.75 C 363.83 399.75 360.91 399.75 358.00 399.75 C 358.00 403.00 358.00 406.25 358.00 409.50 C 360.75 409.49 363.51 409.49 366.27 409.54 C 366.24 412.77 366.25 416.01 366.25 419.25 C 363.51 419.25 360.77 419.25 358.03 419.23 C 357.98 423.07 357.99 426.91 358.01 430.76 C 361.26 430.74 364.50 430.74 367.75 430.75 C 367.75 434.16 367.75 437.58 367.75 441.00 C 360.08 441.00 352.42 441.00 344.75 441.00 C 344.75 423.83 344.75 406.67 344.75 389.50 Z" />
<path fill="#560402" opacity="0.46" d=" M 374.80 389.70 C 375.83 390.87 376.86 390.96 377.87 389.97 L 377.95 390.08 C 378.88 391.24 379.86 392.32 380.87 393.44 C 380.00 393.38 378.27 393.25 377.40 393.19 C 376.79 393.13 375.58 393.01 374.98 392.95 C 374.93 392.14 374.85 390.51 374.80 389.70 Z" />
<path fill="#862c15" opacity="0.74" d=" M 379.82 390.66 C 380.52 390.40 381.90 389.88 382.59 389.62 C 382.83 389.70 383.30 389.86 383.54 389.94 C 387.99 391.24 392.68 389.72 397.24 390.41 C 396.30 391.54 395.21 392.44 393.95 393.13 C 393.68 392.75 393.12 391.98 392.85 391.60 C 391.77 391.45 390.69 391.30 389.62 391.17 C 388.24 391.37 386.84 391.50 385.46 391.71 C 384.97 391.89 383.98 392.25 383.49 392.43 C 383.06 392.77 382.21 393.45 381.78 393.79 L 380.99 393.49 C 380.70 392.78 380.12 391.37 379.82 390.66 Z" />
<path fill="#3e0501" opacity="0.31" d=" M 385.46 391.71 C 386.84 391.50 388.24 391.37 389.62 391.17 C 390.69 391.30 391.77 391.45 392.85 391.60 C 393.12 391.98 393.68 392.75 393.95 393.13 C 390.62 393.56 387.25 393.76 383.91 393.35 L 383.49 392.43 C 383.98 392.25 384.97 391.89 385.46 391.71 Z" />
<path fill="#950000" opacity="0.89" d=" M 403.26 391.26 C 403.51 391.51 403.51 391.51 403.26 391.26 Z" />
<path fill="#99daa4" opacity="1.00" d=" M 381.78 393.79 C 382.21 393.45 383.06 392.77 383.49 392.43 L 383.91 393.35 L 383.48 394.38 L 382.67 394.66 C 382.45 394.44 382.00 394.00 381.78 393.79 Z" />
<path fill="#ffff26" opacity="1.00" d=" M 377.40 393.19 C 378.27 393.25 380.00 393.38 380.87 393.44 L 380.99 393.49 L 381.78 393.79 C 382.00 394.00 382.45 394.44 382.67 394.66 L 382.99 394.90 L 382.62 394.78 C 380.95 394.12 379.17 394.33 377.43 394.37 C 377.42 394.07 377.41 393.48 377.40 393.19 Z" />
<path fill="#fdf402" opacity="1.00" d=" M 383.91 393.35 C 387.25 393.76 390.62 393.56 393.95 393.13 C 392.84 394.00 391.69 394.83 390.64 395.77 C 390.25 395.26 389.87 394.74 389.51 394.22 L 388.31 394.41 C 387.12 394.40 385.95 394.49 384.78 394.68 C 384.46 394.61 383.80 394.45 383.48 394.38 L 383.91 393.35 Z" />
<path fill="#ffff26" opacity="1.00" d=" M 396.08 393.98 C 396.19 393.94 396.42 393.88 396.53 393.84 C 396.94 393.72 397.77 393.47 398.18 393.35 C 398.85 393.32 400.20 393.26 400.88 393.23 C 400.85 393.53 400.78 394.13 400.74 394.43 C 400.09 394.37 398.79 394.24 398.14 394.18 C 397.63 394.13 396.59 394.03 396.08 393.98 Z" />
<path fill="#73de67" opacity="0.93" d=" M 384.78 394.68 C 385.95 394.49 387.12 394.40 388.31 394.41 C 389.69 397.14 385.46 396.40 384.78 394.68 Z" />
<path fill="#2b5011" opacity="0.31" d=" M 395.68 394.09 L 396.08 393.98 L 396.01 394.50 L 395.49 394.49 L 395.68 394.09 Z" />
<path fill="#b26f35" opacity="0.96" d=" M 396.08 393.98 C 396.59 394.03 397.63 394.13 398.14 394.18 C 395.96 396.50 393.22 398.43 390.04 399.03 C 387.31 399.15 385.00 397.41 382.75 396.13 C 382.09 396.28 380.79 396.58 380.14 396.73 C 381.21 396.37 382.04 395.72 382.62 394.78 L 382.99 394.90 C 386.43 398.38 391.64 398.26 395.66 395.89 L 395.49 394.49 L 396.01 394.50 L 396.08 393.98 Z" />
<path fill="#ffffff" opacity="1.00" d=" M 172.23 399.02 C 176.67 399.00 181.11 398.95 185.54 399.06 C 185.49 413.01 185.45 426.96 185.56 440.91 C 181.12 441.08 176.68 440.98 172.24 440.99 C 172.25 427.00 172.26 413.01 172.23 399.02 Z" />
</svg>
