<?xml version="1.0" encoding="UTF-8" ?>
<!DOCTYPE svg PUBLIC "-//W3C//DTD SVG 1.1//EN" "http://www.w3.org/Graphics/SVG/1.1/DTD/svg11.dtd">
<svg width="1280pt" height="720pt" viewBox="0 0 1280 720" version="1.1" xmlns="http://www.w3.org/2000/svg">
<path fill="#424040" opacity="1.00" d=" M 695.08 53.10 C 699.09 50.61 703.50 53.63 707.42 54.83 C 725.16 62.23 742.87 69.79 759.86 78.78 C 758.53 79.33 757.21 79.86 755.88 80.36 C 741.70 73.32 727.37 66.53 712.71 60.58 C 709.23 61.88 706.64 65.17 703.71 67.49 C 701.56 66.67 699.39 67.17 697.51 68.38 L 696.87 67.79 C 694.86 65.74 691.55 66.65 689.03 66.92 C 686.51 68.28 684.82 70.72 682.49 72.34 C 677.56 75.73 673.19 79.83 668.61 83.65 C 664.33 87.75 659.06 90.60 654.80 94.72 C 657.59 94.88 660.38 95.04 663.18 95.26 C 660.03 95.55 656.88 95.86 653.73 95.93 C 654.11 96.48 654.87 97.56 655.25 98.10 C 654.79 99.53 654.28 100.94 653.61 102.28 C 651.15 100.55 648.12 98.14 645.02 99.93 C 642.62 100.50 641.66 102.72 640.93 104.82 C 641.27 104.58 641.93 104.11 642.27 103.87 C 642.84 104.93 643.41 105.98 644.00 107.04 C 643.17 107.09 641.52 107.20 640.69 107.26 C 638.99 105.59 637.18 104.03 635.15 102.79 C 636.30 105.18 637.98 107.23 639.35 109.49 C 639.09 116.89 638.48 124.33 638.62 131.75 C 638.98 132.17 639.68 133.02 640.04 133.44 C 640.37 133.81 641.02 134.53 641.35 134.89 C 642.05 132.78 642.38 130.58 642.74 128.39 L 642.99 127.84 C 644.34 129.26 645.40 131.26 647.45 131.76 C 649.25 132.12 651.11 131.71 652.93 131.55 C 652.23 132.12 651.54 132.69 650.86 133.26 C 648.37 132.65 645.97 133.14 644.40 135.28 C 643.77 135.29 643.15 135.29 642.54 135.30 C 640.52 138.62 637.36 140.96 634.11 142.98 C 634.67 142.11 635.23 141.25 635.86 140.42 C 636.96 138.87 638.54 137.66 639.47 135.98 C 638.55 134.01 636.61 132.70 635.68 130.72 C 634.05 127.74 634.62 124.22 634.51 120.97 C 634.66 114.46 634.26 107.92 634.67 101.42 C 641.02 94.82 648.94 89.85 655.90 83.88 C 661.96 78.50 669.25 74.69 675.05 69.01 C 681.99 64.13 688.59 58.61 695.08 53.10 Z" />
<path fill="#222122" opacity="1.00" d=" M 703.71 67.49 C 706.64 65.17 709.23 61.88 712.71 60.58 C 727.37 66.53 741.70 73.32 755.88 80.36 C 756.41 80.62 757.46 81.14 757.98 81.40 C 755.50 84.13 753.09 87.05 749.93 89.02 C 747.56 89.21 745.58 87.38 743.53 86.41 C 733.76 81.21 724.61 74.75 714.15 70.94 C 710.70 69.70 707.22 68.55 703.71 67.49 Z" />
<path fill="#5e5b5b" opacity="1.00" d=" M 682.49 72.34 C 684.82 70.72 686.51 68.28 689.03 66.92 C 691.55 66.65 694.86 65.74 696.87 67.79 C 688.82 73.67 681.10 80.01 673.55 86.52 C 669.95 89.27 666.31 91.98 663.18 95.26 C 660.38 95.04 657.59 94.88 654.80 94.72 C 659.06 90.60 664.33 87.75 668.61 83.65 C 673.19 79.83 677.56 75.73 682.49 72.34 Z" />
<path fill="#4e4c4c" opacity="1.00" d=" M 697.51 68.38 C 699.39 67.17 701.56 66.67 703.71 67.49 C 707.22 68.55 710.70 69.70 714.15 70.94 C 714.29 71.43 714.56 72.41 714.70 72.90 C 712.31 72.84 709.51 71.72 707.48 73.47 C 706.34 74.23 705.26 75.07 704.17 75.89 C 703.79 77.54 703.42 79.20 703.05 80.86 C 700.35 83.12 697.64 85.38 694.57 87.12 C 692.96 86.56 691.37 85.97 689.79 85.35 C 689.43 85.84 688.72 86.82 688.36 87.32 C 689.21 87.88 690.12 88.34 691.08 88.70 C 696.65 89.47 700.53 94.19 706.12 95.01 C 706.45 94.63 707.10 93.86 707.42 93.48 C 708.05 93.56 708.70 93.64 709.35 93.71 C 710.62 94.79 711.86 95.91 713.11 97.03 C 712.49 97.71 711.88 98.39 711.28 99.06 C 709.00 98.63 706.69 98.55 704.39 98.77 C 700.16 95.52 695.33 92.66 689.91 92.22 C 686.53 93.41 683.41 95.23 680.04 96.43 C 679.36 97.08 678.66 97.73 677.98 98.37 C 673.94 96.87 669.73 95.86 665.46 95.35 C 664.69 95.30 663.93 95.27 663.18 95.26 C 666.31 91.98 669.95 89.27 673.55 86.52 C 681.10 80.01 688.82 73.67 696.87 67.79 L 697.51 68.38 Z" />
<path fill="#3c3a3a" opacity="1.00" d=" M 714.15 70.94 C 724.61 74.75 733.76 81.21 743.53 86.41 C 745.58 87.38 747.56 89.21 749.93 89.02 C 753.09 87.05 755.50 84.13 757.98 81.40 C 757.46 81.14 756.41 80.62 755.88 80.36 C 757.21 79.86 758.53 79.33 759.86 78.78 L 760.10 78.68 C 766.03 81.89 772.23 84.60 778.00 88.09 C 780.10 89.23 780.26 91.91 780.31 94.02 C 780.38 101.00 780.39 107.98 780.49 114.95 C 780.73 117.58 779.07 119.75 777.30 121.47 C 777.10 113.62 776.99 105.77 777.27 97.92 C 777.40 95.82 778.20 93.84 778.86 91.86 C 777.06 92.87 775.27 93.90 773.52 94.96 C 774.93 101.55 774.32 108.33 774.61 115.02 C 774.88 117.49 773.45 120.64 775.73 122.50 C 774.95 123.18 774.19 123.86 773.44 124.55 C 771.86 115.75 773.04 106.73 772.72 97.84 C 771.62 98.44 769.06 98.00 769.59 99.88 C 770.48 108.56 770.64 117.31 770.04 126.01 C 770.73 125.98 772.12 125.93 772.81 125.90 C 769.72 128.75 766.75 131.74 763.93 134.85 C 764.38 132.60 764.43 130.30 764.29 128.01 C 763.86 120.67 764.39 113.32 763.91 105.98 C 762.91 106.61 761.91 107.25 760.93 107.89 C 762.22 113.52 761.71 119.32 761.90 125.04 C 762.03 128.82 760.96 132.66 762.10 136.36 C 761.36 137.25 760.64 138.14 759.91 139.02 C 759.89 129.75 759.73 120.49 759.71 111.22 C 758.93 111.13 757.36 110.95 756.58 110.86 C 756.37 111.03 755.95 111.36 755.74 111.52 C 754.61 112.74 753.50 113.98 752.32 115.15 C 752.36 114.15 752.41 113.15 752.47 112.15 C 751.56 112.30 750.66 112.44 749.77 112.59 C 750.64 107.42 755.91 105.13 758.70 101.12 C 758.34 100.79 757.60 100.13 757.23 99.80 C 752.86 95.95 748.39 92.19 743.74 88.69 C 737.88 84.97 731.80 81.26 725.09 79.32 C 724.41 82.28 723.69 85.41 720.50 86.60 C 720.87 87.37 721.24 88.13 721.63 88.90 C 719.94 89.53 718.25 90.16 716.58 90.82 C 715.68 92.02 714.86 93.30 713.75 94.31 C 712.84 94.12 711.96 93.84 711.09 93.62 C 710.65 93.65 709.79 93.69 709.35 93.71 C 708.70 93.64 708.05 93.56 707.42 93.48 C 703.16 91.32 699.18 88.53 694.57 87.12 C 697.64 85.38 700.35 83.12 703.05 80.86 C 703.42 79.20 703.79 77.54 704.17 75.89 C 705.26 75.07 706.34 74.23 707.48 73.47 C 709.51 71.72 712.31 72.84 714.70 72.90 C 714.56 72.41 714.29 71.43 714.15 70.94 M 699.97 85.59 C 701.98 86.76 704.13 87.68 706.29 88.56 C 706.62 88.87 707.27 89.50 707.60 89.81 C 707.51 89.34 707.33 88.40 707.23 87.94 C 704.54 87.85 702.69 85.26 699.97 85.59 Z" />
<path fill="#323131" opacity="1.00" d=" M 725.09 79.32 C 731.80 81.26 737.88 84.97 743.74 88.69 C 743.26 89.23 742.80 89.77 742.36 90.33 C 739.29 93.93 735.52 96.82 731.97 99.91 C 725.34 106.35 718.07 112.07 711.65 118.74 C 711.13 118.81 710.09 118.95 709.57 119.03 L 709.44 119.01 C 708.31 117.65 707.09 116.34 705.61 115.37 C 700.28 112.04 695.64 107.32 689.29 105.98 C 689.71 107.86 690.16 109.74 690.63 111.61 C 688.92 111.44 687.20 111.40 685.49 111.54 C 679.19 108.99 673.98 104.50 668.94 100.07 C 667.41 98.80 666.44 97.04 665.46 95.35 C 669.73 95.86 673.94 96.87 677.98 98.37 C 683.37 100.98 688.94 103.20 694.47 105.51 C 695.85 106.23 697.04 104.80 698.25 104.31 C 700.05 104.12 701.89 104.01 703.70 103.68 C 705.07 102.21 703.92 100.39 703.43 98.84 L 704.39 98.77 C 706.69 98.55 709.00 98.63 711.28 99.06 C 711.88 98.39 712.49 97.71 713.11 97.03 C 711.86 95.91 710.62 94.79 709.35 93.71 C 709.79 93.69 710.65 93.65 711.09 93.62 C 711.96 93.84 712.84 94.12 713.75 94.31 C 714.86 93.30 715.68 92.02 716.58 90.82 C 718.25 90.16 719.94 89.53 721.63 88.90 C 721.24 88.13 720.87 87.37 720.50 86.60 C 723.69 85.41 724.41 82.28 725.09 79.32 M 717.65 107.04 C 717.66 106.35 717.69 104.95 717.70 104.26 C 716.44 103.67 715.27 102.75 713.86 102.65 C 712.06 104.82 716.09 106.17 717.65 107.04 Z" />
<path fill="#706e6d" opacity="1.00" d=" M 689.79 85.35 C 691.37 85.97 692.96 86.56 694.57 87.12 C 699.18 88.53 703.16 91.32 707.42 93.48 C 707.10 93.86 706.45 94.63 706.12 95.01 C 700.53 94.19 696.65 89.47 691.08 88.70 C 690.12 88.34 689.21 87.88 688.36 87.32 C 688.72 86.82 689.43 85.84 689.79 85.35 Z" />
<path fill="#fffeff" opacity="1.00" d=" M 699.97 85.59 C 702.69 85.26 704.54 87.85 707.23 87.94 C 707.33 88.40 707.51 89.34 707.60 89.81 C 707.27 89.50 706.62 88.87 706.29 88.56 C 704.13 87.68 701.98 86.76 699.97 85.59 Z" />
<path fill="#2b2a2a" opacity="1.00" d=" M 742.36 90.33 C 742.80 89.77 743.26 89.23 743.74 88.69 C 748.39 92.19 752.86 95.95 757.23 99.80 C 754.80 102.61 752.46 105.68 748.91 107.11 C 745.60 109.75 744.31 114.29 740.69 116.70 C 734.27 121.27 729.33 127.46 723.95 133.12 C 722.67 133.12 721.41 133.12 720.15 133.12 C 719.87 132.55 719.31 131.40 719.03 130.83 C 719.53 130.84 720.53 130.88 721.03 130.89 C 718.42 127.53 715.48 124.40 712.01 121.93 C 711.65 121.65 710.91 121.07 710.54 120.79 C 710.30 120.35 709.81 119.47 709.57 119.03 C 710.09 118.95 711.13 118.81 711.65 118.74 C 714.23 118.38 715.95 116.33 717.71 114.62 C 720.84 111.41 724.44 108.72 727.65 105.59 C 732.48 100.87 738.11 96.92 742.26 91.54 L 742.36 90.33 Z" />
<path fill="#0d0c0d" opacity="1.00" d=" M 731.97 99.91 C 735.52 96.82 739.29 93.93 742.36 90.33 L 742.26 91.54 C 738.11 96.92 732.48 100.87 727.65 105.59 C 724.44 108.72 720.84 111.41 717.71 114.62 C 715.95 116.33 714.23 118.38 711.65 118.74 C 718.07 112.07 725.34 106.35 731.97 99.91 Z" />
<path fill="#3c3a3b" opacity="1.00" d=" M 680.04 96.43 C 683.41 95.23 686.53 93.41 689.91 92.22 C 695.33 92.66 700.16 95.52 704.39 98.77 L 703.43 98.84 C 703.92 100.39 705.07 102.21 703.70 103.68 C 701.89 104.01 700.05 104.12 698.25 104.31 C 697.04 104.80 695.85 106.23 694.47 105.51 C 688.94 103.20 683.37 100.98 677.98 98.37 C 678.66 97.73 679.36 97.08 680.04 96.43 Z" />
<path fill="#252424" opacity="1.00" d=" M 773.52 94.96 C 775.27 93.90 777.06 92.87 778.86 91.86 C 778.20 93.84 777.40 95.82 777.27 97.92 C 776.99 105.77 777.10 113.62 777.30 121.47 C 776.91 121.73 776.12 122.24 775.73 122.50 C 773.45 120.64 774.88 117.49 774.61 115.02 C 774.32 108.33 774.93 101.55 773.52 94.96 Z" />
<path fill="#232223" opacity="1.00" d=" M 663.18 95.26 C 663.93 95.27 664.69 95.30 665.46 95.35 C 664.83 96.14 663.90 97.07 664.92 98.01 C 672.33 107.18 682.92 112.97 693.40 117.95 C 690.27 117.85 687.29 116.88 684.57 115.38 C 681.54 113.93 678.49 112.52 675.49 111.02 C 675.56 111.89 675.63 112.77 675.72 113.65 C 674.69 113.48 673.66 113.33 672.64 113.20 C 672.37 115.31 672.60 117.45 672.37 119.57 C 670.85 120.07 670.18 118.44 669.76 117.32 C 668.65 114.21 667.72 110.99 665.81 108.24 C 664.63 112.16 665.65 116.62 668.17 119.79 C 671.13 122.94 675.07 124.93 678.80 127.03 C 681.96 128.59 684.82 130.78 688.15 132.00 C 693.14 132.06 696.99 127.81 701.98 127.78 C 705.35 127.85 708.69 128.47 712.02 129.08 C 714.36 129.60 716.66 130.35 719.03 130.83 C 719.31 131.40 719.87 132.55 720.15 133.12 L 719.45 133.12 C 714.06 132.73 708.65 132.76 703.25 132.67 C 696.50 132.58 691.77 138.82 685.10 139.00 C 682.20 137.02 679.85 134.32 676.74 132.63 C 676.60 131.65 676.48 130.67 676.36 129.68 C 675.62 130.37 674.88 131.06 674.16 131.75 C 671.81 127.90 668.07 124.70 663.31 124.94 C 663.04 126.05 662.78 127.17 662.56 128.30 C 659.63 125.19 657.61 121.37 654.72 118.25 C 653.97 117.02 652.59 117.44 651.44 117.55 C 647.92 115.51 644.75 112.96 641.31 110.80 C 639.91 118.29 640.54 125.90 640.04 133.44 C 639.68 133.02 638.98 132.17 638.62 131.75 C 638.48 124.33 639.09 116.89 639.35 109.49 C 637.98 107.23 636.30 105.18 635.15 102.79 C 637.18 104.03 638.99 105.59 640.69 107.26 C 644.62 110.96 649.54 113.38 654.41 115.61 C 656.70 113.23 658.93 110.79 661.01 108.22 C 659.64 104.55 657.77 101.10 655.25 98.10 C 654.87 97.56 654.11 96.48 653.73 95.93 C 656.88 95.86 660.03 95.55 663.18 95.26 Z" />
<path fill="#0d0c0d" opacity="1.00" d=" M 664.92 98.01 C 663.90 97.07 664.83 96.14 665.46 95.35 C 666.44 97.04 667.41 98.80 668.94 100.07 C 673.98 104.50 679.19 108.99 685.49 111.54 C 692.93 115.47 701.03 118.23 709.44 119.01 L 709.57 119.03 C 709.81 119.47 710.30 120.35 710.54 120.79 C 704.72 120.61 699.00 119.48 693.40 117.95 C 682.92 112.97 672.33 107.18 664.92 98.01 Z" />
<path fill="#383737" opacity="1.00" d=" M 655.25 98.10 C 657.77 101.10 659.64 104.55 661.01 108.22 C 658.93 110.79 656.70 113.23 654.41 115.61 C 649.54 113.38 644.62 110.96 640.69 107.26 C 641.52 107.20 643.17 107.09 644.00 107.04 C 647.00 106.89 650.44 106.88 652.34 104.12 C 652.66 103.66 653.29 102.74 653.61 102.28 C 654.28 100.94 654.79 99.53 655.25 98.10 Z" />
<path fill="#242324" opacity="1.00" d=" M 769.59 99.88 C 769.06 98.00 771.62 98.44 772.72 97.84 C 773.04 106.73 771.86 115.75 773.44 124.55 C 773.28 124.89 772.97 125.56 772.81 125.90 C 772.12 125.93 770.73 125.98 770.04 126.01 C 770.64 117.31 770.48 108.56 769.59 99.88 Z" />
<path fill="#201f20" opacity="1.00" d=" M 645.02 99.93 C 648.12 98.14 651.15 100.55 653.61 102.28 C 653.29 102.74 652.66 103.66 652.34 104.12 C 649.79 100.67 645.08 100.90 642.27 103.87 C 641.93 104.11 641.27 104.58 640.93 104.82 C 641.66 102.72 642.62 100.50 645.02 99.93 Z" />
<path fill="#383737" opacity="1.00" d=" M 757.23 99.80 C 757.60 100.13 758.34 100.79 758.70 101.12 C 755.91 105.13 750.64 107.42 749.77 112.59 C 750.66 112.44 751.56 112.30 752.47 112.15 C 752.41 113.15 752.36 114.15 752.32 115.15 C 753.50 113.98 754.61 112.74 755.74 111.52 C 755.95 111.36 756.37 111.03 756.58 110.86 C 757.06 116.24 757.61 121.63 757.36 127.04 C 757.45 131.54 756.52 136.21 758.18 140.55 C 757.69 140.99 756.69 141.87 756.19 142.31 C 753.94 133.35 755.67 124.05 754.76 114.96 C 753.98 115.47 753.24 116.02 752.53 116.59 C 753.24 125.57 753.68 134.70 752.37 143.65 C 753.04 143.76 754.38 143.97 755.06 144.08 C 744.54 155.10 733.74 165.93 723.24 177.00 C 722.75 177.23 721.79 177.69 721.31 177.92 C 722.22 176.75 723.88 175.71 723.69 174.03 C 723.18 166.38 723.22 158.70 723.09 151.04 C 722.89 149.12 723.74 147.42 725.18 146.21 C 733.03 138.71 740.53 130.86 748.35 123.32 C 749.66 122.14 750.50 120.57 751.16 118.95 C 747.16 121.24 744.58 125.19 741.04 128.05 C 733.65 134.33 727.16 141.55 720.19 148.26 C 716.48 146.43 712.31 146.02 708.27 145.56 C 702.39 145.15 699.21 139.45 693.71 137.97 C 697.78 134.31 703.35 135.73 708.29 135.34 C 712.11 135.23 715.82 134.27 719.45 133.12 L 720.15 133.12 C 721.41 133.12 722.67 133.12 723.95 133.12 C 729.33 127.46 734.27 121.27 740.69 116.70 C 744.31 114.29 745.60 109.75 748.91 107.11 C 752.46 105.68 754.80 102.61 757.23 99.80 Z" />
<path fill="#727171" opacity="1.00" d=" M 642.27 103.87 C 645.08 100.90 649.79 100.67 652.34 104.12 C 650.44 106.88 647.00 106.89 644.00 107.04 C 643.41 105.98 642.84 104.93 642.27 103.87 Z" />
<path fill="#5e5c5c" opacity="1.00" d=" M 717.65 107.04 C 716.09 106.17 712.06 104.82 713.86 102.65 C 715.27 102.75 716.44 103.67 717.70 104.26 C 717.69 104.95 717.66 106.35 717.65 107.04 Z" />
<path fill="#3b3a3b" opacity="1.00" d=" M 689.29 105.98 C 695.64 107.32 700.28 112.04 705.61 115.37 C 707.09 116.34 708.31 117.65 709.44 119.01 C 701.03 118.23 692.93 115.47 685.49 111.54 C 687.20 111.40 688.92 111.44 690.63 111.61 C 690.16 109.74 689.71 107.86 689.29 105.98 Z" />
<path fill="#232222" opacity="1.00" d=" M 760.93 107.89 C 761.91 107.25 762.91 106.61 763.91 105.98 C 764.39 113.32 763.86 120.67 764.29 128.01 C 764.43 130.30 764.38 132.60 763.93 134.85 C 763.47 135.23 762.56 135.98 762.10 136.36 C 760.96 132.66 762.03 128.82 761.90 125.04 C 761.71 119.32 762.22 113.52 760.93 107.89 Z" />
<path fill="#302e2f" opacity="1.00" d=" M 668.17 119.79 C 665.65 116.62 664.63 112.16 665.81 108.24 C 667.72 110.99 668.65 114.21 669.76 117.32 C 670.18 118.44 670.85 120.07 672.37 119.57 C 672.60 117.45 672.37 115.31 672.64 113.20 C 673.66 113.33 674.69 113.48 675.72 113.65 C 675.63 112.77 675.56 111.89 675.49 111.02 C 678.49 112.52 681.54 113.93 684.57 115.38 C 684.89 116.35 685.21 117.33 685.53 118.32 C 684.83 121.06 684.24 123.84 683.69 126.62 C 681.92 126.12 680.16 125.62 678.41 125.12 C 678.50 125.60 678.70 126.55 678.80 127.03 C 675.07 124.93 671.13 122.94 668.17 119.79 Z" />
<path fill="#2d2c2d" opacity="1.00" d=" M 592.86 120.81 C 593.42 117.42 593.20 112.45 597.14 111.10 C 601.67 111.47 601.11 117.45 602.67 120.65 C 607.20 119.42 611.38 117.34 615.49 115.14 C 622.26 112.70 628.05 119.40 629.84 125.28 C 627.81 123.94 625.68 122.76 623.40 121.91 C 623.14 121.75 622.62 121.42 622.36 121.25 C 620.96 120.25 619.37 119.57 617.63 119.76 C 613.97 120.73 610.43 122.23 607.53 124.70 C 607.14 124.53 606.35 124.19 605.95 124.02 L 605.32 123.36 C 604.55 123.43 603.79 123.50 603.04 123.57 C 602.26 123.78 600.69 124.18 599.91 124.39 C 599.38 125.18 598.90 126.00 598.49 126.86 C 598.03 127.82 597.62 128.79 597.22 129.76 C 596.45 129.26 595.69 128.77 594.93 128.28 C 593.36 127.60 592.72 128.14 593.00 129.90 C 591.78 129.28 590.53 128.73 589.27 128.25 L 589.02 128.15 C 589.86 126.34 587.38 124.92 586.66 127.03 C 585.59 127.91 584.23 128.22 582.92 128.51 C 583.47 127.29 584.05 126.09 584.62 124.88 C 581.61 125.72 578.92 127.91 578.31 131.10 C 577.35 135.62 576.13 140.34 576.92 144.97 C 577.48 145.50 578.60 146.58 579.16 147.11 C 579.68 144.95 580.09 142.76 580.48 140.57 C 581.00 140.59 582.05 140.64 582.57 140.66 C 584.03 143.73 586.27 147.12 590.01 147.39 C 588.66 149.10 591.26 151.36 592.41 149.17 C 592.60 148.97 592.99 148.59 593.19 148.40 C 594.63 149.63 596.37 148.75 598.01 148.64 C 600.63 148.38 603.26 149.21 605.89 148.84 C 607.77 148.21 609.43 147.06 611.13 146.05 C 616.19 146.15 621.24 146.55 626.25 147.30 C 623.55 149.98 619.47 148.90 616.06 149.27 C 611.64 149.19 607.46 150.95 603.06 151.06 C 594.64 150.60 586.25 155.35 577.91 152.43 C 577.87 152.88 577.79 153.78 577.76 154.24 C 576.72 152.32 575.39 150.40 575.34 148.14 C 574.88 141.66 576.47 135.31 577.26 128.93 C 578.50 125.34 581.30 122.03 584.95 120.74 C 587.57 120.35 590.22 120.70 592.86 120.81 M 596.44 114.33 C 595.57 116.57 595.27 118.95 595.38 121.34 C 596.75 121.30 598.12 121.27 599.50 121.25 C 600.09 118.86 599.13 116.55 598.43 114.31 C 597.93 114.31 596.94 114.33 596.44 114.33 M 584.17 145.98 C 583.60 147.60 584.13 148.17 585.77 147.68 C 586.34 146.05 585.81 145.49 584.17 145.98 Z" />
<path fill="#0d0c0d" opacity="1.00" d=" M 641.31 110.80 C 644.75 112.96 647.92 115.51 651.44 117.55 C 654.53 120.29 656.43 124.02 658.99 127.21 C 658.20 130.82 657.14 134.46 654.59 137.26 C 654.60 138.09 654.63 138.92 654.66 139.75 C 653.90 139.42 653.14 139.09 652.40 138.77 C 653.00 135.85 653.82 132.96 654.10 129.99 C 652.78 127.15 649.40 126.27 646.89 124.79 C 645.57 125.78 644.24 126.77 642.99 127.84 L 642.74 128.39 C 642.38 130.58 642.05 132.78 641.35 134.89 C 641.02 134.53 640.37 133.81 640.04 133.44 C 640.54 125.90 639.91 118.29 641.31 110.80 Z" />
<path fill="#232222" opacity="1.00" d=" M 756.58 110.86 C 757.36 110.95 758.93 111.13 759.71 111.22 C 759.73 120.49 759.89 129.75 759.91 139.02 C 759.48 139.40 758.62 140.16 758.18 140.55 C 756.52 136.21 757.45 131.54 757.36 127.04 C 757.61 121.63 757.06 116.24 756.58 110.86 Z" />
<path fill="#212020" opacity="1.00" d=" M 752.53 116.59 C 753.24 116.02 753.98 115.47 754.76 114.96 C 755.67 124.05 753.94 133.35 756.19 142.31 C 756.07 142.98 755.70 143.57 755.06 144.08 C 754.38 143.97 753.04 143.76 752.37 143.65 C 753.68 134.70 753.24 125.57 752.53 116.59 Z" />
<path fill="#3b3a3b" opacity="1.00" d=" M 685.53 118.32 C 685.21 117.33 684.89 116.35 684.57 115.38 C 687.29 116.88 690.27 117.85 693.40 117.95 C 699.00 119.48 704.72 120.61 710.54 120.79 C 710.91 121.07 711.65 121.65 712.01 121.93 C 711.49 121.98 710.43 122.07 709.90 122.11 C 711.65 124.34 713.70 126.31 715.93 128.07 C 714.02 127.75 712.11 127.45 710.21 127.15 C 710.80 127.79 711.41 128.43 712.02 129.08 C 708.69 128.47 705.35 127.85 701.98 127.78 C 696.99 127.81 693.14 132.06 688.15 132.00 C 684.82 130.78 681.96 128.59 678.80 127.03 C 678.70 126.55 678.50 125.60 678.41 125.12 C 680.16 125.62 681.92 126.12 683.69 126.62 C 684.24 123.84 684.83 121.06 685.53 118.32 Z" />
<path fill="#3e3c3d" opacity="1.00" d=" M 651.44 117.55 C 652.59 117.44 653.97 117.02 654.72 118.25 C 657.61 121.37 659.63 125.19 662.56 128.30 C 662.44 129.00 662.34 129.71 662.27 130.42 C 661.15 129.36 660.04 128.32 658.99 127.21 C 656.43 124.02 654.53 120.29 651.44 117.55 Z" />
<path fill="#2b2a2a" opacity="1.00" d=" M 741.04 128.05 C 744.58 125.19 747.16 121.24 751.16 118.95 C 750.50 120.57 749.66 122.14 748.35 123.32 C 740.53 130.86 733.03 138.71 725.18 146.21 C 723.74 147.42 722.89 149.12 723.09 151.04 C 723.22 158.70 723.18 166.38 723.69 174.03 C 723.88 175.71 722.22 176.75 721.31 177.92 C 717.57 183.19 710.61 180.01 705.87 178.11 C 690.27 169.83 674.91 161.08 659.83 151.88 C 661.19 151.85 662.55 151.80 663.92 151.73 C 662.56 150.85 661.20 149.97 659.85 149.09 C 660.73 147.15 661.44 145.13 661.76 143.02 C 664.39 144.09 666.94 146.07 669.90 145.85 C 673.28 144.73 676.07 142.39 678.98 140.40 C 676.89 139.49 674.79 137.98 672.40 138.53 C 668.76 139.17 664.40 139.16 661.69 136.26 C 660.23 134.76 661.41 132.90 662.15 131.40 C 662.18 131.16 662.24 130.67 662.27 130.42 C 662.34 129.71 662.44 129.00 662.56 128.30 C 662.78 127.17 663.04 126.05 663.31 124.94 C 668.07 124.70 671.81 127.90 674.16 131.75 C 674.88 131.06 675.62 130.37 676.36 129.68 C 676.48 130.67 676.60 131.65 676.74 132.63 C 679.85 134.32 682.20 137.02 685.10 139.00 C 691.77 138.82 696.50 132.58 703.25 132.67 C 708.65 132.76 714.06 132.73 719.45 133.12 C 715.82 134.27 712.11 135.23 708.29 135.34 C 703.35 135.73 697.78 134.31 693.71 137.97 C 699.21 139.45 702.39 145.15 708.27 145.56 C 707.52 145.67 706.02 145.88 705.27 145.98 C 705.63 149.96 705.60 153.97 706.20 157.94 C 706.89 162.13 705.28 166.63 707.51 170.55 C 706.37 170.86 705.23 171.18 704.12 171.50 C 708.61 173.98 713.59 175.42 718.62 176.34 C 720.05 176.69 721.24 175.60 722.51 175.11 C 721.08 166.56 722.41 157.87 721.84 149.25 C 721.43 149.01 720.60 148.51 720.19 148.26 C 727.16 141.55 733.65 134.33 741.04 128.05 M 689.47 152.12 C 691.67 154.96 695.78 155.16 698.43 157.55 C 700.16 153.13 693.94 151.43 690.82 150.50 C 690.48 150.91 689.81 151.71 689.47 152.12 Z" />
<path fill="#403e3f" opacity="1.00" d=" M 607.53 124.70 C 610.43 122.23 613.97 120.73 617.63 119.76 C 617.38 121.85 617.32 123.98 618.05 125.98 C 618.17 127.67 620.36 127.27 621.09 126.24 C 621.86 126.48 622.61 126.76 623.36 127.10 C 622.70 129.37 620.91 132.87 623.90 134.31 C 624.54 134.31 625.82 134.29 626.47 134.29 C 628.50 135.88 629.21 138.36 629.61 140.81 C 630.51 140.58 631.42 140.35 632.34 140.12 C 630.92 142.98 628.59 145.20 626.25 147.30 C 621.24 146.55 616.19 146.15 611.13 146.05 C 609.43 147.06 607.77 148.21 605.89 148.84 C 603.26 149.21 600.63 148.38 598.01 148.64 C 596.37 148.75 594.63 149.63 593.19 148.40 C 592.99 148.59 592.60 148.97 592.41 149.17 C 592.25 148.68 591.94 147.72 591.78 147.24 C 592.78 146.18 593.81 145.15 594.81 144.08 C 594.88 144.60 595.04 145.65 595.12 146.17 C 599.78 144.85 598.93 138.59 599.09 134.78 C 598.30 134.75 596.73 134.69 595.94 134.66 C 595.10 132.99 594.13 131.39 593.00 129.90 C 594.55 130.41 595.19 129.87 594.93 128.28 C 595.69 128.77 596.45 129.26 597.22 129.76 C 597.62 128.79 598.03 127.82 598.49 126.86 C 599.00 131.63 605.10 129.21 607.81 127.82 C 607.29 126.51 606.63 125.26 605.95 124.02 C 606.35 124.19 607.14 124.53 607.53 124.70 M 613.38 126.36 C 609.98 127.47 611.18 133.01 614.60 132.71 C 617.94 131.60 616.52 125.74 613.38 126.36 M 600.97 133.13 C 603.47 133.94 606.28 132.83 607.14 130.27 C 605.03 130.71 600.05 129.64 600.97 133.13 M 617.29 134.37 C 615.63 136.56 616.21 141.59 619.83 140.77 C 623.10 139.27 621.32 132.47 617.29 134.37 M 612.32 135.20 C 611.22 136.58 613.63 137.97 614.50 136.59 C 615.62 135.21 613.17 133.86 612.32 135.20 M 602.13 140.04 C 599.46 144.65 608.03 143.78 606.97 139.83 C 605.36 139.60 603.65 139.35 602.13 140.04 M 617.00 143.35 C 615.47 146.34 620.33 143.48 617.00 143.35 Z" />
<path fill="#4b779c" opacity="1.00" d=" M 617.63 119.76 C 619.37 119.57 620.96 120.25 622.36 121.25 C 621.94 122.92 621.53 124.58 621.09 126.24 C 620.33 126.18 618.81 126.05 618.05 125.98 C 617.32 123.98 617.38 121.85 617.63 119.76 Z" />
<path fill="#4d4a4d" opacity="1.00" d=" M 622.36 121.25 C 622.62 121.42 623.14 121.75 623.40 121.91 C 625.68 122.76 627.81 123.94 629.84 125.28 L 630.00 125.88 C 631.31 130.52 633.01 135.21 632.34 140.12 C 631.42 140.35 630.51 140.58 629.61 140.81 C 629.21 138.36 628.50 135.88 626.47 134.29 C 626.54 132.66 626.99 130.95 626.51 129.35 C 625.77 128.25 624.43 127.78 623.36 127.10 C 622.61 126.76 621.86 126.48 621.09 126.24 C 621.53 124.58 621.94 122.92 622.36 121.25 M 628.06 133.38 C 626.65 136.44 631.38 133.34 628.06 133.38 Z" />
<path fill="#494849" opacity="1.00" d=" M 709.90 122.11 C 710.43 122.07 711.49 121.98 712.01 121.93 C 715.48 124.40 718.42 127.53 721.03 130.89 C 720.53 130.88 719.53 130.84 719.03 130.83 C 716.66 130.35 714.36 129.60 712.02 129.08 C 711.41 128.43 710.80 127.79 710.21 127.15 C 712.11 127.45 714.02 127.75 715.93 128.07 C 713.70 126.31 711.65 124.34 709.90 122.11 Z" />
<path fill="#5f5f5e" opacity="1.00" d=" M 603.04 123.57 C 603.79 123.50 604.55 123.43 605.32 123.36 L 605.95 124.02 C 606.63 125.26 607.29 126.51 607.81 127.82 C 605.10 129.21 599.00 131.63 598.49 126.86 C 598.90 126.00 599.38 125.18 599.91 124.39 C 599.91 126.86 604.09 125.46 604.50 124.21 C 604.13 124.05 603.40 123.73 603.04 123.57 Z" />
<path fill="#858482" opacity="1.00" d=" M 599.91 124.39 C 600.69 124.18 602.26 123.78 603.04 123.57 C 603.40 123.73 604.13 124.05 604.50 124.21 C 604.09 125.46 599.91 126.86 599.91 124.39 Z" />
<path fill="#504e4f" opacity="1.00" d=" M 578.31 131.10 C 578.92 127.91 581.61 125.72 584.62 124.88 C 584.05 126.09 583.47 127.29 582.92 128.51 C 584.23 128.22 585.59 127.91 586.66 127.03 C 587.25 127.31 588.43 127.87 589.02 128.15 L 589.27 128.25 C 586.97 128.51 585.19 129.85 584.19 131.90 C 583.30 129.05 580.38 132.23 582.96 133.33 C 582.81 134.87 582.55 136.41 582.27 137.94 C 581.90 138.22 581.16 138.79 580.79 139.07 C 580.71 139.44 580.56 140.20 580.48 140.57 C 580.09 142.76 579.68 144.95 579.16 147.11 C 578.60 146.58 577.48 145.50 576.92 144.97 C 576.13 140.34 577.35 135.62 578.31 131.10 Z" />
<path fill="#201f20" opacity="1.00" d=" M 642.99 127.84 C 644.24 126.77 645.57 125.78 646.89 124.79 C 649.40 126.27 652.78 127.15 654.10 129.99 C 653.82 132.96 653.00 135.85 652.40 138.77 C 653.14 139.09 653.90 139.42 654.66 139.75 C 654.63 138.92 654.60 138.09 654.59 137.26 C 657.14 134.46 658.20 130.82 658.99 127.21 C 660.04 128.32 661.15 129.36 662.27 130.42 C 662.24 130.67 662.18 131.16 662.15 131.40 C 661.41 132.90 660.23 134.76 661.69 136.26 C 664.40 139.16 668.76 139.17 672.40 138.53 C 674.79 137.98 676.89 139.49 678.98 140.40 C 676.07 142.39 673.28 144.73 669.90 145.85 C 666.94 146.07 664.39 144.09 661.76 143.02 C 661.44 145.13 660.73 147.15 659.85 149.09 C 661.20 149.97 662.56 150.85 663.92 151.73 C 662.55 151.80 661.19 151.85 659.83 151.88 C 658.30 151.30 656.99 150.30 655.64 149.42 C 651.18 146.22 645.96 144.12 641.97 140.26 C 640.93 141.14 639.90 142.02 638.86 142.89 C 640.88 144.10 642.84 145.41 644.71 146.85 C 644.00 147.19 642.57 147.88 641.86 148.22 C 639.40 146.94 636.60 143.49 633.83 145.81 C 633.24 145.18 632.65 144.56 632.07 143.93 C 630.97 146.84 629.87 149.80 628.07 152.36 C 627.66 152.78 626.84 153.64 626.43 154.07 C 616.43 154.54 606.13 154.05 596.60 157.64 C 593.34 158.78 590.38 160.78 586.96 161.40 C 582.78 161.15 579.51 157.81 577.76 154.24 C 577.79 153.78 577.87 152.88 577.91 152.43 C 586.25 155.35 594.64 150.60 603.06 151.06 C 607.46 150.95 611.64 149.19 616.06 149.27 C 619.47 148.90 623.55 149.98 626.25 147.30 C 628.59 145.20 630.92 142.98 632.34 140.12 C 633.01 135.21 631.31 130.52 630.00 125.88 C 632.73 130.22 633.63 135.53 633.53 140.61 C 634.11 140.56 635.28 140.47 635.86 140.42 C 635.23 141.25 634.67 142.11 634.11 142.98 C 637.36 140.96 640.52 138.62 642.54 135.30 C 643.15 135.29 643.77 135.29 644.40 135.28 C 645.97 133.14 648.37 132.65 650.86 133.26 C 651.54 132.69 652.23 132.12 652.93 131.55 C 651.11 131.71 649.25 132.12 647.45 131.76 C 645.40 131.26 644.34 129.26 642.99 127.84 Z" />
<path fill="#807f7f" opacity="1.00" d=" M 586.66 127.03 C 587.38 124.92 589.86 126.34 589.02 128.15 C 588.43 127.87 587.25 127.31 586.66 127.03 Z" />
<path fill="#629f6b" opacity="1.00" d=" M 613.38 126.36 C 616.52 125.74 617.94 131.60 614.60 132.71 C 611.18 133.01 609.98 127.47 613.38 126.36 Z" />
<path fill="#164760" opacity="1.00" d=" M 618.05 125.98 C 618.81 126.05 620.33 126.18 621.09 126.24 C 620.36 127.27 618.17 127.67 618.05 125.98 Z" />
<path fill="#6e6d6d" opacity="1.00" d=" M 593.00 129.90 C 592.72 128.14 593.36 127.60 594.93 128.28 C 595.19 129.87 594.55 130.41 593.00 129.90 Z" />
<path fill="#c39953" opacity="1.00" d=" M 623.36 127.10 C 624.43 127.78 625.77 128.25 626.51 129.35 C 626.99 130.95 626.54 132.66 626.47 134.29 C 625.82 134.29 624.54 134.31 623.90 134.31 C 620.91 132.87 622.70 129.37 623.36 127.10 Z" />
<path fill="#3d3939" opacity="0.78" d=" M 574.81 138.87 C 575.49 135.54 575.61 131.98 577.26 128.93 C 576.47 135.31 574.88 141.66 575.34 148.14 C 575.39 150.40 576.72 152.32 577.76 154.24 C 579.51 157.81 582.78 161.15 586.96 161.40 C 590.38 160.78 593.34 158.78 596.60 157.64 C 606.13 154.05 616.43 154.54 626.43 154.07 C 623.22 156.84 618.80 155.24 615.00 155.75 C 606.08 156.70 596.86 158.25 589.21 163.24 C 582.56 164.52 577.10 158.52 575.39 152.65 C 573.60 148.26 573.86 143.43 574.81 138.87 Z" />
<path fill="#141313" opacity="1.00" d=" M 584.19 131.90 C 585.19 129.85 586.97 128.51 589.27 128.25 C 590.53 128.73 591.78 129.28 593.00 129.90 C 594.13 131.39 595.10 132.99 595.94 134.66 C 596.57 137.86 596.70 141.27 594.81 144.08 C 593.81 145.15 592.78 146.18 591.78 147.24 C 591.34 147.28 590.46 147.35 590.01 147.39 C 586.27 147.12 584.03 143.73 582.57 140.66 C 582.43 139.76 582.33 138.85 582.27 137.94 C 582.55 136.41 582.81 134.87 582.96 133.33 C 583.27 132.97 583.88 132.25 584.19 131.90 M 585.75 133.69 C 584.46 135.83 585.01 138.42 585.25 140.75 C 587.92 141.70 591.25 143.26 593.50 140.61 C 594.25 137.82 594.66 133.85 591.74 132.16 C 589.76 130.41 587.07 131.92 585.75 133.69 Z" />
<path fill="#656363" opacity="1.00" d=" M 600.97 133.13 C 600.05 129.64 605.03 130.71 607.14 130.27 C 606.28 132.83 603.47 133.94 600.97 133.13 Z" />
<path fill="#767375" opacity="1.00" d=" M 582.96 133.33 C 580.38 132.23 583.30 129.05 584.19 131.90 C 583.88 132.25 583.27 132.97 582.96 133.33 Z" />
<path fill="#262426" opacity="1.00" d=" M 585.75 133.69 C 587.07 131.92 589.76 130.41 591.74 132.16 C 594.66 133.85 594.25 137.82 593.50 140.61 C 591.25 143.26 587.92 141.70 585.25 140.75 C 585.01 138.42 584.46 135.83 585.75 133.69 M 585.64 137.04 C 586.31 138.42 587.81 141.52 589.51 139.47 C 590.23 137.28 589.44 135.04 588.05 133.32 C 587.18 134.44 585.09 135.29 585.64 137.04 M 592.30 136.13 C 590.91 136.58 590.54 138.63 591.36 139.73 C 593.28 140.78 594.39 136.38 592.30 136.13 Z" />
<path fill="#6f7179" opacity="1.00" d=" M 628.06 133.38 C 631.38 133.34 626.65 136.44 628.06 133.38 Z" />
<path fill="#575556" opacity="1.00" d=" M 585.64 137.04 C 585.09 135.29 587.18 134.44 588.05 133.32 C 589.44 135.04 590.23 137.28 589.51 139.47 C 587.81 141.52 586.31 138.42 585.64 137.04 Z" />
<path fill="#b3585d" opacity="1.00" d=" M 617.29 134.37 C 621.32 132.47 623.10 139.27 619.83 140.77 C 616.21 141.59 615.63 136.56 617.29 134.37 Z" />
<path fill="#686566" opacity="1.00" d=" M 595.94 134.66 C 596.73 134.69 598.30 134.75 599.09 134.78 C 598.93 138.59 599.78 144.85 595.12 146.17 C 595.04 145.65 594.88 144.60 594.81 144.08 C 596.70 141.27 596.57 137.86 595.94 134.66 Z" />
<path fill="#605f60" opacity="1.00" d=" M 612.32 135.20 C 613.17 133.86 615.62 135.21 614.50 136.59 C 613.63 137.97 611.22 136.58 612.32 135.20 Z" />
<path fill="#565556" opacity="1.00" d=" M 592.30 136.13 C 594.39 136.38 593.28 140.78 591.36 139.73 C 590.54 138.63 590.91 136.58 592.30 136.13 Z" />
<path fill="#f4d3be" opacity="1.00" d=" M 580.79 139.07 C 581.16 138.79 581.90 138.22 582.27 137.94 C 582.33 138.85 582.43 139.76 582.57 140.66 C 582.05 140.64 581.00 140.59 580.48 140.57 C 580.56 140.20 580.71 139.44 580.79 139.07 Z" />
<path fill="#666464" opacity="1.00" d=" M 602.13 140.04 C 603.65 139.35 605.36 139.60 606.97 139.83 C 608.03 143.78 599.46 144.65 602.13 140.04 Z" />
<path fill="#6c6b6b" opacity="1.00" d=" M 617.00 143.35 C 620.33 143.48 615.47 146.34 617.00 143.35 Z" />
<path fill="#2f2d2e" opacity="1.00" d=" M 632.07 143.93 C 632.65 144.56 633.24 145.18 633.83 145.81 C 632.66 148.03 631.49 150.77 632.77 153.21 C 635.28 157.64 640.06 160.45 644.95 161.48 C 646.66 161.76 649.85 161.33 649.61 159.02 C 648.52 154.60 645.24 151.09 641.86 148.22 C 642.57 147.88 644.00 147.19 644.71 146.85 C 648.13 150.61 652.38 154.87 651.74 160.40 C 651.81 162.52 650.04 164.30 648.01 164.56 C 640.23 165.68 632.20 159.91 629.95 152.55 C 629.48 152.51 628.54 152.41 628.07 152.36 C 629.87 149.80 630.97 146.84 632.07 143.93 Z" />
<path fill="#5f5e5e" opacity="1.00" d=" M 584.17 145.98 C 585.81 145.49 586.34 146.05 585.77 147.68 C 584.13 148.17 583.60 147.60 584.17 145.98 Z" />
<path fill="#212020" opacity="1.00" d=" M 705.27 145.98 C 706.02 145.88 707.52 145.67 708.27 145.56 C 712.31 146.02 716.48 146.43 720.19 148.26 C 720.60 148.51 721.43 149.01 721.84 149.25 C 722.41 157.87 721.08 166.56 722.51 175.11 C 721.24 175.60 720.05 176.69 718.62 176.34 C 713.59 175.42 708.61 173.98 704.12 171.50 C 705.23 171.18 706.37 170.86 707.51 170.55 C 705.28 166.63 706.89 162.13 706.20 157.94 C 705.60 153.97 705.63 149.96 705.27 145.98 Z" />
<path fill="#737171" opacity="1.00" d=" M 590.01 147.39 C 590.46 147.35 591.34 147.28 591.78 147.24 C 591.94 147.72 592.25 148.68 592.41 149.17 C 591.26 151.36 588.66 149.10 590.01 147.39 Z" />
<path fill="#090808" opacity="1.00" d=" M 689.47 152.12 C 689.81 151.71 690.48 150.91 690.82 150.50 C 693.94 151.43 700.16 153.13 698.43 157.55 C 695.78 155.16 691.67 154.96 689.47 152.12 Z" />
<path fill="#7f1722" opacity="0.63" d=" M 249.76 381.06 C 251.40 378.50 254.12 376.92 256.98 376.06 C 260.16 375.32 263.04 377.17 265.55 378.85 C 265.11 379.06 264.23 379.46 263.80 379.67 C 263.70 379.59 263.51 379.44 263.41 379.36 L 262.99 379.05 L 261.76 378.13 C 259.16 377.48 256.26 377.35 254.06 379.15 L 253.69 379.37 L 253.48 379.49 L 253.31 379.64 C 252.89 380.02 252.05 380.77 251.63 381.15 C 251.12 381.17 250.12 381.21 249.62 381.23 L 249.76 381.06 Z" />
<path fill="#4a4b4c" opacity="0.66" d=" M 246.23 377.19 C 246.65 377.16 247.48 377.10 247.90 377.07 L 247.95 377.86 C 247.54 377.89 246.73 377.95 246.32 377.98 L 246.23 377.19 Z" />
<path fill="#f4d3be" opacity="1.00" d=" M 243.38 381.86 C 243.75 380.32 244.46 378.13 246.32 377.98 C 246.73 377.95 247.54 377.89 247.95 377.86 C 249.53 378.27 250.13 379.34 249.76 381.06 L 249.62 381.23 C 248.51 381.34 247.38 381.32 246.33 381.70 C 247.38 382.33 248.76 382.41 249.47 383.54 C 248.96 383.83 247.93 384.41 247.42 384.70 C 247.59 385.26 247.94 386.38 248.12 386.94 L 248.66 387.68 C 248.20 388.27 247.28 389.44 246.82 390.03 L 246.53 390.32 C 246.60 388.30 246.56 386.27 246.72 384.26 C 245.45 383.73 243.79 383.39 243.38 381.86 Z" />
<path fill="#673611" opacity="1.00" d=" M 265.55 378.85 C 267.11 377.95 269.04 377.79 270.74 378.42 C 271.56 379.68 271.58 381.25 271.89 382.70 C 270.81 382.59 269.75 382.53 268.67 382.46 C 267.97 381.61 267.27 380.77 266.56 379.94 C 266.51 380.43 266.42 381.42 266.38 381.91 C 265.52 381.15 264.66 380.40 263.80 379.67 C 264.23 379.46 265.11 379.06 265.55 378.85 Z" />
<path fill="#0d5a1a" opacity="0.45" d=" M 253.48 379.49 L 253.69 379.37 C 253.59 379.44 253.40 379.58 253.31 379.64 L 253.48 379.49 Z" />
<path fill="#4adc54" opacity="0.93" d=" M 253.69 379.37 L 254.06 379.15 C 255.04 378.94 257.00 378.52 257.97 378.31 C 257.15 380.10 255.24 380.80 253.75 381.89 C 251.69 382.90 254.30 384.26 255.51 384.02 C 253.97 385.21 252.33 386.25 250.60 387.13 L 249.69 385.86 C 250.13 384.21 250.77 382.62 251.63 381.15 C 252.05 380.77 252.89 380.02 253.31 379.64 C 253.40 379.58 253.59 379.44 253.69 379.37 Z" />
<path fill="#3ce546" opacity="0.97" d=" M 258.95 378.29 C 259.96 378.48 261.98 378.86 262.99 379.05 L 263.41 379.36 C 263.51 379.44 263.70 379.59 263.80 379.67 C 264.66 380.40 265.52 381.15 266.38 381.91 C 266.40 383.25 266.42 384.60 266.45 385.96 C 266.16 385.71 265.58 385.20 265.30 384.95 C 264.53 383.87 263.82 382.77 263.08 381.68 C 262.37 380.21 260.62 379.67 259.11 379.98 L 258.95 378.29 Z" />
<path fill="#0e6a1d" opacity="0.46" d=" M 263.41 379.36 C 263.51 379.44 263.70 379.59 263.80 379.67 C 263.70 379.59 263.51 379.44 263.41 379.36 Z" />
<path fill="#253211" opacity="0.40" d=" M 259.11 379.98 C 260.62 379.67 262.37 380.21 263.08 381.68 C 261.66 382.01 259.17 381.90 259.11 379.98 Z" />
<path fill="#fffeff" opacity="1.00" d=" M 266.56 379.94 C 267.27 380.77 267.97 381.61 268.67 382.46 C 269.75 382.53 270.81 382.59 271.89 382.70 L 270.53 383.93 C 269.65 384.66 268.73 385.34 267.78 385.96 C 267.05 384.70 266.65 383.31 266.38 381.91 C 266.42 381.42 266.51 380.43 266.56 379.94 Z" />
<path fill="#4d4a4d" opacity="1.00" d=" M 266.38 381.91 C 266.65 383.31 267.05 384.70 267.78 385.96 C 268.73 385.34 269.65 384.66 270.53 383.93 C 270.55 386.01 270.56 388.09 270.60 390.18 C 269.72 389.62 268.89 388.94 268.54 387.93 C 268.34 386.61 267.64 385.95 266.45 385.96 C 266.42 384.60 266.40 383.25 266.38 381.91 Z" />
<path fill="#0d0c0d" opacity="1.00" d=" M 247.42 384.70 C 247.93 384.41 248.96 383.83 249.47 383.54 C 249.50 385.22 249.18 387.14 250.42 388.52 L 250.41 388.70 C 249.97 388.44 249.09 387.93 248.66 387.68 L 248.12 386.94 C 247.94 386.38 247.59 385.26 247.42 384.70 Z" />
<path fill="#fffeff" opacity="1.00" d=" M 255.51 384.02 C 256.56 383.91 257.62 383.78 258.69 383.65 C 258.57 384.27 258.33 385.52 258.21 386.14 L 259.35 386.24 L 259.98 386.67 C 259.69 387.11 259.12 387.98 258.83 388.41 C 256.74 388.31 254.64 388.35 252.56 388.54 L 252.54 389.91 C 252.22 389.74 251.58 389.39 251.25 389.22 C 251.04 389.09 250.62 388.83 250.41 388.70 L 250.42 388.52 L 250.60 387.13 C 252.33 386.25 253.97 385.21 255.51 384.02 M 253.07 386.34 C 252.52 387.91 253.09 388.43 254.80 387.89 C 255.32 386.31 254.75 385.79 253.07 386.34 Z" />
<path fill="#48fa51" opacity="1.00" d=" M 258.69 383.65 C 260.74 383.41 263.15 382.97 264.81 384.58 C 264.50 384.81 263.87 385.27 263.56 385.50 C 262.17 385.83 260.75 386.03 259.35 386.24 L 258.21 386.14 C 258.33 385.52 258.57 384.27 258.69 383.65 Z" />
<path fill="#86c38b" opacity="0.95" d=" M 259.35 386.24 C 260.75 386.03 262.17 385.83 263.56 385.50 C 263.87 385.27 264.50 384.81 264.81 384.58 L 265.30 384.95 C 265.58 385.20 266.16 385.71 266.45 385.96 C 266.36 386.36 266.17 387.15 266.08 387.55 C 265.94 388.13 265.67 389.30 265.53 389.88 C 264.59 389.45 263.66 389.00 262.75 388.54 C 262.65 388.48 262.45 388.36 262.35 388.30 C 261.76 387.90 260.57 387.08 259.98 386.67 L 259.35 386.24 Z" />
<path fill="#7e7b8d" opacity="0.97" d=" M 253.07 386.34 C 254.75 385.79 255.32 386.31 254.80 387.89 C 253.09 388.43 252.52 387.91 253.07 386.34 Z" />
<path fill="#69d258" opacity="0.95" d=" M 259.98 386.67 C 260.57 387.08 261.76 387.90 262.35 388.30 C 262.45 388.36 262.65 388.48 262.75 388.54 C 263.66 389.00 264.59 389.45 265.53 389.88 C 265.67 389.30 265.94 388.13 266.08 387.55 C 266.38 388.11 266.97 389.24 267.27 389.81 C 266.41 390.99 265.82 392.31 265.49 393.77 C 265.40 393.84 265.20 393.97 265.11 394.04 L 264.63 394.35 L 264.87 394.89 C 263.26 395.67 261.58 396.05 259.83 396.03 L 259.66 395.79 C 260.72 394.82 261.88 393.97 262.97 393.03 C 263.94 392.25 264.90 391.45 265.83 390.63 C 261.44 389.60 256.84 391.22 252.54 389.91 L 252.56 388.54 C 254.64 388.35 256.74 388.31 258.83 388.41 C 259.12 387.98 259.69 387.11 259.98 386.67 Z" />
<path fill="#785339" opacity="0.82" d=" M 248.66 387.68 C 249.09 387.93 249.97 388.44 250.41 388.70 C 250.62 388.83 251.04 389.09 251.25 389.22 C 249.96 390.36 249.47 391.80 249.78 393.55 L 249.48 393.52 C 248.57 392.35 247.70 391.20 246.82 390.03 C 247.28 389.44 248.20 388.27 248.66 387.68 Z" />
<path fill="#e5d13f" opacity="0.96" d=" M 262.35 388.30 C 262.45 388.36 262.65 388.48 262.75 388.54 C 262.65 388.48 262.45 388.36 262.35 388.30 Z" />
<path fill="#721112" opacity="0.69" d=" M 268.54 387.93 C 268.89 388.94 269.72 389.62 270.60 390.18 L 272.19 391.04 C 271.39 392.33 270.16 392.82 268.51 392.51 L 267.45 393.34 C 266.96 393.45 265.98 393.66 265.49 393.77 C 265.82 392.31 266.41 390.99 267.27 389.81 C 267.59 389.34 268.23 388.40 268.54 387.93 Z" />
<path fill="#ffffff" opacity="1.00" d=" M 60.50 389.49 C 70.17 389.50 79.83 389.50 89.50 389.50 C 89.50 392.90 89.49 396.32 89.52 399.73 C 86.85 399.75 84.18 399.75 81.51 399.75 C 81.53 413.47 81.42 427.18 81.57 440.90 C 77.12 441.09 72.67 440.99 68.23 440.98 C 68.27 427.24 68.23 413.50 68.25 399.76 C 65.66 399.75 63.07 399.75 60.49 399.74 C 60.50 396.32 60.50 392.91 60.50 389.49 Z" />
<path fill="#ffff26" opacity="1.00" d=" M 92.73 389.56 C 98.42 389.39 104.12 389.62 109.81 389.41 C 111.21 397.52 112.13 405.71 113.49 413.84 C 114.26 405.69 115.52 397.60 116.58 389.49 C 122.30 389.50 128.02 389.51 133.73 389.49 C 133.81 406.64 133.68 423.79 133.80 440.94 C 129.87 441.03 125.93 441.00 122.00 441.00 C 121.76 429.35 122.53 417.65 121.49 406.03 C 120.64 417.72 118.88 429.37 117.07 440.93 C 114.52 441.11 111.96 441.00 109.40 440.89 C 107.79 429.59 106.49 418.24 104.37 407.03 C 104.63 418.35 104.45 429.68 104.50 441.00 C 100.58 441.00 96.67 441.00 92.75 441.00 C 92.74 423.85 92.78 406.71 92.73 389.56 Z" />
<path fill="#ffff26" opacity="1.00" d=" M 156.73 389.55 C 161.12 389.44 165.52 389.55 169.92 389.44 C 170.11 401.62 169.93 413.80 170.01 425.98 C 169.98 429.81 169.96 434.08 167.22 437.11 C 163.63 441.68 157.24 442.58 151.82 441.77 C 147.75 441.13 143.34 439.34 141.26 435.55 C 139.48 432.70 139.67 429.22 139.50 426.00 C 139.49 413.84 139.50 401.67 139.50 389.50 C 143.87 389.48 148.24 389.56 152.61 389.42 C 153.20 403.92 152.12 418.49 153.17 432.97 C 153.93 433.02 155.45 433.14 156.21 433.19 C 156.59 431.16 156.81 429.09 156.77 427.02 C 156.71 414.53 156.78 402.04 156.73 389.55 Z" />
<path fill="#ffff26" opacity="1.00" d=" M 208.03 396.96 C 208.85 392.21 213.62 389.37 218.07 388.78 C 223.23 388.07 229.05 388.46 233.33 391.72 C 237.39 394.80 236.56 400.48 236.80 404.97 C 232.61 405.02 228.41 405.02 224.21 404.95 C 223.99 402.46 225.58 396.30 221.21 397.40 C 218.96 400.23 219.62 405.25 222.98 406.98 C 227.73 410.39 233.65 412.99 236.51 418.37 C 238.41 423.29 238.37 428.86 237.41 433.99 C 236.33 438.63 231.48 440.95 227.18 441.68 C 221.26 442.66 214.13 441.68 210.19 436.69 C 207.48 432.52 208.13 427.24 207.99 422.51 C 212.16 422.49 216.33 422.50 220.50 422.50 C 220.66 425.64 220.07 428.90 220.88 431.98 C 221.33 433.87 224.32 433.60 224.85 431.85 C 225.52 429.06 225.63 425.69 224.00 423.21 C 219.98 419.41 214.76 417.12 210.77 413.27 C 206.90 408.86 207.07 402.40 208.03 396.96 Z" />
<path fill="#ffffff" opacity="1.00" d=" M 26.75 389.50 C 33.88 389.71 41.08 388.95 48.15 390.11 C 51.82 390.62 55.14 393.26 56.12 396.88 C 57.15 400.65 57.39 404.72 56.51 408.54 C 55.74 411.41 52.66 412.33 50.19 413.22 C 53.72 413.80 57.11 416.28 57.44 420.06 C 57.89 425.04 58.15 430.19 57.10 435.12 C 56.52 438.44 53.34 440.54 50.12 440.64 C 42.35 441.37 34.54 440.84 26.75 441.00 C 26.75 423.83 26.75 406.67 26.75 389.50 M 40.12 397.99 C 39.93 401.98 39.94 405.97 40.11 409.97 C 41.50 409.52 43.91 410.10 44.14 408.05 C 44.61 405.15 44.97 401.95 43.77 399.18 C 42.78 398.28 41.33 398.36 40.12 397.99 M 40.01 417.61 C 39.99 422.54 39.99 427.47 40.01 432.40 C 41.64 431.91 44.23 432.27 44.30 429.92 C 44.66 426.62 44.60 423.27 44.35 419.96 C 44.18 417.69 41.63 417.98 40.01 417.61 Z" />
<path fill="#ffff26" opacity="1.00" d=" M 175.75 389.51 C 181.81 389.61 187.88 389.24 193.93 389.70 C 197.74 389.96 202.13 391.43 203.57 395.36 C 204.95 399.74 204.40 404.43 204.51 408.97 C 204.40 412.02 204.37 415.66 201.80 417.79 C 198.19 420.59 193.36 420.30 189.05 420.22 C 188.95 427.15 189.03 434.07 189.00 441.00 C 184.58 441.00 180.17 441.00 175.75 441.00 C 175.75 423.83 175.75 406.67 175.75 389.51 M 189.11 397.97 C 188.91 402.52 189.02 407.07 189.01 411.63 C 190.38 411.32 192.34 411.68 192.90 410.00 C 193.39 406.45 193.65 402.68 192.69 399.20 C 191.66 398.42 190.30 398.35 189.11 397.97 Z" />
<path fill="#560402" opacity="0.46" d=" M 243.83 389.63 C 244.27 390.01 245.15 390.78 245.59 391.16 C 245.83 390.95 246.30 390.53 246.53 390.32 L 246.82 390.03 C 247.70 391.20 248.57 392.35 249.48 393.52 C 248.70 393.44 247.14 393.29 246.36 393.22 C 245.76 393.15 244.56 393.02 243.96 392.95 C 243.93 392.12 243.87 390.46 243.83 389.63 Z" />
<path fill="#862c15" opacity="0.74" d=" M 249.78 393.55 C 249.47 391.80 249.96 390.36 251.25 389.22 C 251.58 389.39 252.22 389.74 252.54 389.91 C 256.84 391.22 261.44 389.60 265.83 390.63 C 264.90 391.45 263.94 392.25 262.97 393.03 C 261.70 391.23 259.40 391.04 257.39 391.30 C 255.69 391.53 253.98 391.79 252.32 392.24 C 251.97 392.60 251.26 393.32 250.90 393.68 L 249.78 393.55 Z" />
<path fill="#3e0501" opacity="0.31" d=" M 252.32 392.24 C 253.98 391.79 255.69 391.53 257.39 391.30 C 259.40 391.04 261.70 391.23 262.97 393.03 C 259.64 393.39 256.06 394.35 252.87 392.88 L 252.32 392.24 Z" />
<path fill="#950000" opacity="0.89" d=" M 272.12 391.26 C 272.76 391.80 272.76 391.80 272.12 391.26 Z" />
<path fill="#ffffff" opacity="1.00" d=" M 250.90 393.68 C 251.26 393.32 251.97 392.60 252.32 392.24 L 252.87 392.88 L 252.90 393.79 L 252.23 394.45 C 251.90 394.26 251.24 393.87 250.90 393.68 Z" />
<path fill="#ffff26" opacity="1.00" d=" M 246.36 393.22 C 247.14 393.29 248.70 393.44 249.48 393.52 L 249.78 393.55 L 250.90 393.68 C 251.24 393.87 251.90 394.26 252.23 394.45 L 252.31 395.28 L 251.75 395.03 C 250.14 393.90 248.22 394.41 246.43 394.36 C 246.41 394.08 246.38 393.51 246.36 393.22 Z" />
<path fill="#ffff26" opacity="1.00" d=" M 252.87 392.88 C 256.06 394.35 259.64 393.39 262.97 393.03 C 261.88 393.97 260.72 394.82 259.66 395.79 C 259.26 395.26 258.88 394.74 258.50 394.22 L 257.25 394.42 C 256.04 394.28 254.88 394.46 253.79 394.96 C 253.57 394.67 253.13 394.09 252.90 393.79 L 252.87 392.88 Z" />
<path fill="#ffff26" opacity="1.00" d=" M 265.11 394.04 C 265.20 393.97 265.40 393.84 265.49 393.77 C 265.98 393.66 266.96 393.45 267.45 393.34 C 268.04 393.30 269.23 393.21 269.83 393.17 C 269.80 393.48 269.73 394.11 269.70 394.42 C 269.07 394.37 267.81 394.26 267.17 394.20 C 266.66 394.16 265.62 394.08 265.11 394.04 Z" />
<path fill="#73de67" opacity="0.93" d=" M 253.79 394.96 C 254.88 394.46 256.04 394.28 257.25 394.42 C 258.55 396.79 254.39 396.64 253.79 394.96 Z" />
<path fill="#2b5011" opacity="0.31" d=" M 264.63 394.35 L 265.11 394.04 C 265.05 394.25 264.93 394.67 264.87 394.89 L 264.63 394.35 Z" />
<path fill="#b3585d" opacity="1.00" d=" M 265.11 394.04 C 265.62 394.08 266.66 394.16 267.17 394.20 C 264.92 396.45 262.24 398.44 259.03 399.02 C 256.38 399.13 254.18 397.39 251.84 396.43 C 251.00 396.52 250.16 396.58 249.32 396.60 C 249.93 396.21 251.15 395.42 251.75 395.03 L 252.31 395.28 C 255.84 398.34 261.74 398.74 264.87 394.89 C 264.93 394.67 265.05 394.25 265.11 394.04 Z" />
</svg>
