<?xml version="1.0" encoding="UTF-8" ?>
<!DOCTYPE svg PUBLIC "-//W3C//DTD SVG 1.1//EN" "http://www.w3.org/Graphics/SVG/1.1/DTD/svg11.dtd">
<svg width="960pt" height="540pt" viewBox="0 0 960 540" version="1.1" xmlns="http://www.w3.org/2000/svg">
<path fill="#8ea282" opacity="1.00" d=" M 484.92 45.67 C 485.88 45.36 486.90 44.27 487.96 44.98 C 494.63 48.14 501.29 51.33 507.95 54.52 C 509.15 55.14 510.32 55.80 511.50 56.47 C 510.03 56.49 508.57 56.46 507.12 56.29 C 506.12 55.54 505.02 55.08 503.83 54.90 C 502.04 55.37 504.22 57.33 505.18 57.45 C 504.94 58.06 504.70 58.66 504.48 59.26 C 501.67 61.40 498.69 63.35 495.37 64.58 C 496.79 63.14 498.33 61.82 499.92 60.56 C 499.60 60.14 498.96 59.29 498.64 58.86 C 499.54 58.21 500.20 57.29 500.68 56.29 C 500.32 56.26 499.62 56.20 499.27 56.17 C 496.60 56.02 493.92 55.79 491.30 55.26 C 490.56 54.99 489.84 54.73 489.12 54.46 C 488.21 54.01 487.31 53.54 486.42 53.06 C 485.87 54.24 485.32 55.42 484.78 56.60 C 485.34 56.60 486.45 56.60 487.00 56.60 L 487.28 57.05 C 487.93 58.10 488.62 59.13 489.31 60.17 C 489.24 59.57 489.08 58.38 489.01 57.78 C 490.33 57.58 491.66 57.38 492.99 57.18 C 493.67 56.93 495.04 56.45 495.73 56.20 C 495.91 58.60 494.72 60.62 493.34 62.46 C 493.90 62.80 495.02 63.48 495.58 63.82 C 493.85 66.22 491.89 68.51 489.31 70.00 C 485.98 67.77 482.42 65.90 479.31 63.36 L 479.97 62.60 C 481.24 62.79 483.32 63.59 484.04 62.01 C 483.71 60.52 481.67 61.46 480.74 61.72 C 481.91 60.70 483.32 60.05 484.74 59.44 C 482.33 59.12 480.05 58.28 478.01 56.98 L 477.81 55.96 C 479.19 55.66 480.59 55.36 482.01 55.14 C 483.57 55.37 484.96 54.38 484.99 52.73 C 486.63 51.49 488.22 50.01 490.27 49.50 C 494.54 50.14 497.75 53.56 501.82 54.71 C 502.25 54.42 503.11 53.83 503.54 53.54 C 499.22 51.51 494.83 49.63 490.69 47.27 C 488.94 46.21 486.94 45.73 484.92 45.67 Z" />
<path fill="#766f6c" opacity="1.00" d=" M 473.16 52.33 C 476.96 49.92 481.01 47.91 484.92 45.67 C 486.94 45.73 488.94 46.21 490.69 47.27 C 494.83 49.63 499.22 51.51 503.54 53.54 C 503.11 53.83 502.25 54.42 501.82 54.71 C 497.75 53.56 494.54 50.14 490.27 49.50 C 488.22 50.01 486.63 51.49 484.99 52.73 C 483.73 53.02 482.04 53.58 482.01 55.14 C 480.59 55.36 479.19 55.66 477.81 55.96 C 477.65 55.15 477.52 54.34 477.39 53.52 C 475.98 53.10 474.58 52.69 473.16 52.33 Z" />
<path fill="#030202" opacity="0.09" d=" M 514.46 52.39 C 515.20 51.61 515.94 50.82 516.75 50.10 C 517.85 51.04 517.99 52.50 518.35 53.81 C 518.89 53.08 519.44 52.34 520.01 51.61 C 521.85 53.00 523.68 54.58 524.10 56.98 C 524.64 60.48 530.19 60.65 529.56 64.69 C 523.56 61.91 517.63 58.97 511.51 56.48 L 511.50 56.47 C 510.32 55.80 509.15 55.14 507.95 54.52 C 508.46 53.41 508.98 52.30 509.50 51.18 C 509.71 51.99 509.93 52.80 510.16 53.61 C 511.59 53.21 513.02 52.80 514.46 52.39 Z" />
<path fill="#476a4f" opacity="1.00" d=" M 471.85 52.71 C 472.18 52.62 472.83 52.43 473.16 52.33 C 474.58 52.69 475.98 53.10 477.39 53.52 C 477.52 54.34 477.65 55.15 477.81 55.96 L 478.01 56.98 C 476.12 56.67 475.42 57.25 475.90 58.74 C 476.70 60.16 478.56 60.11 479.91 60.70 C 479.68 60.94 479.21 61.42 478.97 61.66 C 478.52 61.47 477.63 61.09 477.18 60.89 C 477.15 61.59 477.08 63.00 477.04 63.70 C 476.23 64.28 475.43 64.87 474.65 65.47 C 473.66 64.35 472.76 62.67 470.98 63.24 C 471.25 64.16 471.55 65.08 471.87 65.99 C 471.43 66.19 470.55 66.59 470.11 66.79 C 469.00 65.93 467.89 65.07 466.79 64.22 C 467.39 63.19 468.00 62.17 468.61 61.14 C 468.68 61.41 468.81 61.93 468.88 62.19 C 468.31 64.47 471.78 64.04 470.77 62.05 C 470.29 59.47 468.43 57.58 466.72 55.74 C 467.13 55.51 467.95 55.06 468.35 54.83 C 469.87 56.95 471.46 59.03 473.14 61.02 C 474.05 59.16 474.93 57.28 475.81 55.40 C 474.48 54.51 473.16 53.62 471.85 52.71 Z" />
<path fill="#383637" opacity="1.00" d=" M 468.35 54.83 C 469.52 54.14 470.70 53.45 471.85 52.71 C 473.16 53.62 474.48 54.51 475.81 55.40 C 474.93 57.28 474.05 59.16 473.14 61.02 C 471.46 59.03 469.87 56.95 468.35 54.83 Z" />
<path fill="#cfd0c6" opacity="1.00" d=" M 482.01 55.14 C 482.04 53.58 483.73 53.02 484.99 52.73 C 484.96 54.38 483.57 55.37 482.01 55.14 Z" />
<path fill="#807f73" opacity="1.00" d=" M 484.78 56.60 C 485.32 55.42 485.87 54.24 486.42 53.06 C 487.31 53.54 488.21 54.01 489.12 54.46 C 488.59 55.00 487.53 56.07 487.00 56.60 C 486.45 56.60 485.34 56.60 484.78 56.60 Z" />
<path fill="#d7d3cb" opacity="1.00" d=" M 489.12 54.46 C 489.84 54.73 490.56 54.99 491.30 55.26 C 490.22 56.31 488.85 57.23 487.28 57.05 L 487.00 56.60 C 487.53 56.07 488.59 55.00 489.12 54.46 Z" />
<path fill="#505148" opacity="1.00" d=" M 491.30 55.26 C 493.92 55.79 496.60 56.02 499.27 56.17 C 497.55 56.35 495.64 59.43 498.64 58.86 C 498.96 59.29 499.60 60.14 499.92 60.56 C 498.33 61.82 496.79 63.14 495.37 64.58 C 498.69 63.35 501.67 61.40 504.48 59.26 C 504.49 60.64 504.54 62.01 504.62 63.39 C 504.30 64.24 503.99 65.09 503.69 65.94 C 504.94 65.60 506.20 65.26 507.46 64.92 C 506.10 66.21 504.72 67.49 503.28 68.69 L 502.77 69.11 C 501.71 68.73 500.68 68.33 499.61 68.02 C 498.72 67.96 496.95 67.83 496.06 67.76 C 493.01 71.19 488.42 72.49 485.17 75.66 C 484.91 74.84 484.65 74.02 484.40 73.20 C 486.02 72.12 487.66 71.06 489.31 70.00 C 491.89 68.51 493.85 66.22 495.58 63.82 C 495.02 63.48 493.90 62.80 493.34 62.46 C 494.72 60.62 495.91 58.60 495.73 56.20 C 495.04 56.45 493.67 56.93 492.99 57.18 C 491.66 57.38 490.33 57.58 489.01 57.78 C 489.08 58.38 489.24 59.57 489.31 60.17 C 488.62 59.13 487.93 58.10 487.28 57.05 C 488.85 57.23 490.22 56.31 491.30 55.26 M 502.22 66.22 C 502.74 66.76 502.74 66.76 502.22 66.22 Z" />
<path fill="#393b35" opacity="1.00" d=" M 505.18 57.45 C 504.22 57.33 502.04 55.37 503.83 54.90 C 505.02 55.08 506.12 55.54 507.12 56.29 C 506.63 56.58 505.66 57.16 505.18 57.45 Z" />
<path fill="#4d4c4e" opacity="1.00" d=" M 461.69 58.48 C 463.36 57.57 465.05 56.67 466.72 55.74 C 468.43 57.58 470.29 59.47 470.77 62.05 C 470.30 62.09 469.35 62.16 468.88 62.19 C 468.81 61.93 468.68 61.41 468.61 61.14 C 468.00 62.17 467.39 63.19 466.79 64.22 L 466.10 63.66 C 464.30 62.23 462.97 60.35 461.69 58.48 Z" />
<path fill="#bfc1b6" opacity="1.00" d=" M 499.27 56.17 C 499.62 56.20 500.32 56.26 500.68 56.29 C 500.20 57.29 499.54 58.21 498.64 58.86 C 495.64 59.43 497.55 56.35 499.27 56.17 Z" />
<path fill="#736b63" opacity="1.00" d=" M 507.12 56.29 C 508.57 56.46 510.03 56.49 511.50 56.47 L 511.51 56.48 C 513.03 57.89 514.69 59.18 516.58 60.08 C 513.70 60.66 510.82 58.95 508.02 60.08 C 513.53 62.87 518.89 65.96 524.24 69.06 L 524.40 70.10 C 523.71 70.30 522.34 70.68 521.66 70.87 C 521.52 70.31 521.24 69.19 521.11 68.62 C 520.12 69.43 519.14 70.22 518.21 71.08 C 519.15 71.45 520.11 71.80 521.08 72.13 C 519.67 73.43 518.16 74.61 516.74 75.89 C 516.10 75.53 514.82 74.81 514.18 74.45 C 514.90 73.54 515.54 72.59 516.20 71.63 C 514.92 72.30 513.64 72.96 512.45 73.76 C 511.86 73.46 510.67 72.86 510.08 72.55 C 510.44 72.08 511.16 71.13 511.52 70.65 C 510.60 70.95 509.69 71.27 508.79 71.60 C 506.55 71.96 505.03 70.51 503.70 68.98 L 503.28 68.69 C 504.72 67.49 506.10 66.21 507.46 64.92 C 506.20 65.26 504.94 65.60 503.69 65.94 C 503.99 65.09 504.30 64.24 504.62 63.39 C 504.54 62.01 504.49 60.64 504.48 59.26 C 504.70 58.66 504.94 58.06 505.18 57.45 C 505.66 57.16 506.63 56.58 507.12 56.29 M 507.94 65.32 C 509.78 65.47 511.24 66.52 512.19 68.06 C 513.22 67.66 514.18 67.12 515.10 66.49 C 513.72 65.64 512.27 64.86 511.19 63.62 C 509.75 63.32 508.64 64.11 507.94 65.32 M 514.57 69.01 C 516.07 70.35 517.78 69.72 519.21 68.68 C 518.13 66.21 515.62 66.92 514.57 69.01 M 507.32 68.13 C 505.70 68.34 505.94 70.95 507.68 70.00 C 509.23 69.77 509.03 67.21 507.32 68.13 Z" />
<path fill="#a79d99" opacity="1.00" d=" M 511.51 56.48 C 517.63 58.97 523.56 61.91 529.56 64.69 C 530.02 65.06 530.93 65.79 531.38 66.16 C 526.11 65.03 521.61 61.88 516.58 60.08 C 514.69 59.18 513.03 57.89 511.51 56.48 Z" />
<path fill="#77736b" opacity="1.00" d=" M 475.90 58.74 C 475.42 57.25 476.12 56.67 478.01 56.98 C 480.05 58.28 482.33 59.12 484.74 59.44 C 483.32 60.05 481.91 60.70 480.74 61.72 C 480.55 61.94 480.16 62.38 479.97 62.60 L 479.31 63.36 C 482.42 65.90 485.98 67.77 489.31 70.00 C 487.66 71.06 486.02 72.12 484.40 73.20 C 484.65 74.02 484.91 74.84 485.17 75.66 C 488.42 72.49 493.01 71.19 496.06 67.76 C 495.60 69.19 495.17 70.63 494.77 72.08 C 496.57 70.96 498.19 69.59 499.61 68.02 C 500.68 68.33 501.71 68.73 502.77 69.11 C 502.31 69.49 501.39 70.26 500.93 70.64 C 503.45 70.07 505.00 72.06 506.26 73.89 L 506.36 74.87 C 506.66 74.91 507.25 74.99 507.55 75.02 C 508.18 75.31 509.45 75.87 510.08 76.15 C 510.47 76.33 511.24 76.68 511.62 76.86 C 512.32 77.16 513.73 77.78 514.43 78.09 C 513.65 78.84 512.89 79.60 512.13 80.36 C 510.75 79.66 509.38 78.97 508.02 78.27 C 506.37 80.36 504.28 82.01 501.95 83.27 C 502.45 83.36 503.47 83.54 503.98 83.63 C 502.95 84.95 501.92 86.26 500.89 87.57 C 501.49 88.03 502.69 88.94 503.29 89.40 L 503.25 89.54 C 502.22 89.96 501.21 90.40 500.22 90.87 C 499.28 90.24 498.35 89.60 497.43 88.96 C 496.45 89.81 495.47 90.66 494.50 91.51 C 495.50 92.21 496.51 92.90 497.54 93.59 C 496.86 94.27 496.17 94.95 495.48 95.60 C 495.05 94.42 494.30 93.48 493.22 92.78 C 492.08 93.86 490.94 94.93 489.81 96.01 C 489.48 95.71 488.80 95.10 488.46 94.80 C 487.49 94.72 486.54 94.62 485.58 94.59 C 480.03 94.64 477.55 100.33 473.65 103.31 C 473.49 103.08 473.18 102.62 473.02 102.39 L 473.14 101.17 C 473.60 100.86 474.53 100.25 474.99 99.95 C 475.60 99.25 476.22 98.54 476.88 97.87 C 478.62 96.62 480.41 95.43 482.05 94.05 C 482.12 93.39 482.25 92.07 482.32 91.42 C 483.56 89.35 484.81 87.26 486.50 85.51 C 483.01 84.71 481.21 80.66 478.06 78.93 C 478.42 77.28 479.06 75.72 479.75 74.18 C 478.52 74.49 477.28 74.79 476.06 75.08 C 476.61 74.03 477.17 72.98 477.74 71.93 C 476.19 72.27 474.64 72.61 473.10 72.95 C 473.80 71.74 474.51 70.53 475.22 69.31 C 475.42 68.95 475.84 68.22 476.04 67.85 C 475.69 67.26 475.00 66.07 474.65 65.47 C 475.43 64.87 476.23 64.28 477.04 63.70 C 477.08 63.00 477.15 61.59 477.18 60.89 C 477.63 61.09 478.52 61.47 478.97 61.66 C 479.21 61.42 479.68 60.94 479.91 60.70 C 478.56 60.11 476.70 60.16 475.90 58.74 M 492.22 80.29 C 492.76 80.80 492.76 80.80 492.22 80.29 M 490.82 88.40 C 491.59 89.18 492.36 89.96 493.14 90.75 C 494.41 89.76 495.63 88.67 496.36 87.19 C 494.29 85.42 492.35 86.77 490.82 88.40 Z" />
<path fill="#938a88" opacity="1.00" d=" M 455.21 61.92 C 457.38 60.81 459.53 59.64 461.69 58.48 C 462.97 60.35 464.30 62.23 466.10 63.66 C 463.58 65.04 461.08 66.45 458.86 68.26 C 457.87 66.07 456.72 63.95 455.28 62.03 L 455.21 61.92 Z" />
<path fill="#5e5654" opacity="1.00" d=" M 508.02 60.08 C 510.82 58.95 513.70 60.66 516.58 60.08 C 521.61 61.88 526.11 65.03 531.38 66.16 L 531.98 66.31 C 532.24 67.74 532.47 69.18 532.73 70.61 C 532.31 70.80 531.48 71.17 531.07 71.36 C 528.70 70.87 526.39 70.15 524.24 69.06 C 518.89 65.96 513.53 62.87 508.02 60.08 Z" />
<path fill="#aebb9f" opacity="1.00" d=" M 480.74 61.72 C 481.67 61.46 483.71 60.52 484.04 62.01 C 483.32 63.59 481.24 62.79 479.97 62.60 C 480.16 62.38 480.55 61.94 480.74 61.72 Z" />
<path fill="#6a9573" opacity="1.00" d=" M 468.88 62.19 C 469.35 62.16 470.30 62.09 470.77 62.05 C 471.78 64.04 468.31 64.47 468.88 62.19 Z" />
<path fill="#a79d99" opacity="1.00" d=" M 433.40 73.85 C 440.61 69.80 447.93 65.87 455.28 62.03 C 456.72 63.95 457.87 66.07 458.86 68.26 C 457.37 69.44 455.80 70.49 454.18 71.44 C 453.11 70.60 452.01 69.81 450.88 69.06 C 449.68 68.24 448.44 67.47 447.19 66.72 C 443.91 68.52 440.60 70.28 437.31 72.06 C 437.11 72.57 436.72 73.61 436.52 74.13 C 434.13 74.24 435.66 76.25 436.84 77.02 C 438.26 78.83 439.76 80.59 441.26 82.34 C 441.10 83.75 441.00 85.18 441.03 86.61 C 440.54 86.07 439.55 85.00 439.06 84.47 C 439.50 83.98 440.37 83.01 440.81 82.53 C 438.77 80.87 437.60 76.94 434.60 77.24 C 434.20 76.10 433.82 74.97 433.40 73.85 Z" />
<path fill="#3f3f3b" opacity="1.00" d=" M 470.98 63.24 C 472.76 62.67 473.66 64.35 474.65 65.47 C 475.00 66.07 475.69 67.26 476.04 67.85 C 475.84 68.22 475.42 68.95 475.22 69.31 C 474.58 69.17 473.29 68.88 472.65 68.73 C 472.45 67.97 472.24 67.22 472.03 66.47 L 471.87 65.99 C 471.55 65.08 471.25 64.16 470.98 63.24 Z" />
<path fill="#fcfcfc" opacity="1.00" d=" M 507.94 65.32 C 508.64 64.11 509.75 63.32 511.19 63.62 C 512.27 64.86 513.72 65.64 515.10 66.49 C 514.18 67.12 513.22 67.66 512.19 68.06 C 511.24 66.52 509.78 65.47 507.94 65.32 Z" />
<path fill="#97928b" opacity="1.00" d=" M 458.86 68.26 C 461.08 66.45 463.58 65.04 466.10 63.66 L 466.79 64.22 C 467.89 65.07 469.00 65.93 470.11 66.79 C 470.55 66.59 471.43 66.19 471.87 65.99 L 472.03 66.47 C 472.24 67.22 472.45 67.97 472.65 68.73 C 473.29 68.88 474.58 69.17 475.22 69.31 C 474.51 70.53 473.80 71.74 473.10 72.95 C 474.64 72.61 476.19 72.27 477.74 71.93 C 477.17 72.98 476.61 74.03 476.06 75.08 C 477.28 74.79 478.52 74.49 479.75 74.18 C 479.06 75.72 478.42 77.28 478.06 78.93 C 474.20 76.89 471.14 73.63 467.25 71.67 C 464.07 70.77 460.81 72.18 458.12 73.80 C 457.59 73.55 456.53 73.04 456.00 72.78 C 455.38 72.35 454.77 71.90 454.18 71.44 C 455.80 70.49 457.37 69.44 458.86 68.26 Z" />
<path fill="#a6a593" opacity="1.00" d=" M 502.22 66.22 C 502.74 66.76 502.74 66.76 502.22 66.22 Z" />
<path fill="#d9cdc5" opacity="1.00" d=" M 514.57 69.01 C 515.62 66.92 518.13 66.21 519.21 68.68 C 517.78 69.72 516.07 70.35 514.57 69.01 Z" />
<path fill="#8b9483" opacity="1.00" d=" M 496.06 67.76 C 496.95 67.83 498.72 67.96 499.61 68.02 C 498.19 69.59 496.57 70.96 494.77 72.08 C 495.17 70.63 495.60 69.19 496.06 67.76 Z" />
<path fill="#554d45" opacity="1.00" d=" M 507.32 68.13 C 509.03 67.21 509.23 69.77 507.68 70.00 C 505.94 70.95 505.70 68.34 507.32 68.13 Z" />
<path fill="#679d67" opacity="1.00" d=" M 450.88 69.06 C 452.01 69.81 453.11 70.60 454.18 71.44 C 454.77 71.90 455.38 72.35 456.00 72.78 C 454.10 72.79 452.45 73.60 451.11 74.91 C 452.05 75.95 453.00 76.98 453.95 78.02 C 452.21 79.65 450.44 81.23 448.63 82.79 C 449.37 82.92 450.83 83.20 451.56 83.33 C 451.44 83.78 451.21 84.67 451.09 85.11 L 450.84 86.16 C 448.91 83.70 443.83 82.21 444.80 78.47 C 445.39 77.34 445.98 76.21 446.64 75.13 C 448.83 73.93 451.04 72.76 453.23 71.56 C 452.46 70.71 451.69 69.87 450.88 69.06 Z" />
<path fill="#fcfcfc" opacity="1.00" d=" M 502.77 69.11 L 503.28 68.69 L 503.70 68.98 C 505.03 70.51 506.55 71.96 508.79 71.60 C 507.92 72.33 507.07 73.10 506.26 73.89 C 505.00 72.06 503.45 70.07 500.93 70.64 C 501.39 70.26 502.31 69.49 502.77 69.11 Z" />
<path fill="#fcfcfc" opacity="1.00" d=" M 518.21 71.08 C 519.14 70.22 520.12 69.43 521.11 68.62 C 521.24 69.19 521.52 70.31 521.66 70.87 C 521.51 71.19 521.22 71.81 521.08 72.13 C 520.11 71.80 519.15 71.45 518.21 71.08 Z" />
<path fill="#75876b" opacity="1.00" d=" M 524.24 69.06 C 526.39 70.15 528.70 70.87 531.07 71.36 C 530.74 71.69 530.09 72.35 529.76 72.68 C 528.25 74.46 526.68 76.19 524.84 77.62 C 523.24 78.99 521.73 80.45 520.32 82.00 C 516.36 85.94 512.41 89.88 508.47 93.83 C 508.22 94.08 507.72 94.59 507.46 94.85 C 507.20 95.12 506.66 95.65 506.39 95.92 C 505.22 96.88 504.07 97.88 503.14 99.08 C 502.28 98.21 501.43 97.33 500.59 96.46 C 498.11 97.78 495.62 99.06 493.12 100.32 C 494.55 101.82 495.99 103.31 497.45 104.78 C 497.19 105.05 496.67 105.59 496.41 105.85 C 495.26 106.47 494.09 107.02 492.94 107.62 C 492.64 107.93 492.04 108.56 491.74 108.88 C 491.68 109.40 491.55 110.46 491.49 110.99 C 489.92 112.59 488.34 114.18 486.73 115.74 C 485.53 116.92 484.35 118.10 483.21 119.34 C 482.87 118.75 482.20 117.58 481.86 116.99 C 481.81 116.91 481.70 116.74 481.65 116.65 C 481.20 115.60 480.76 114.55 480.33 113.50 L 480.48 113.53 C 481.95 113.91 483.43 114.27 484.90 114.67 C 485.73 114.13 486.56 113.58 487.39 113.02 C 488.89 111.64 489.67 109.74 490.27 107.83 C 488.77 108.07 487.28 108.32 485.80 108.65 C 488.39 106.83 490.97 104.82 492.63 102.07 C 492.42 101.33 492.00 99.83 491.79 99.09 L 491.34 98.83 C 491.99 98.37 492.66 97.92 493.32 97.44 C 496.45 98.59 498.72 95.78 500.80 93.93 C 502.14 92.81 502.99 91.28 503.25 89.54 L 503.29 89.40 C 505.15 86.94 507.66 85.12 510.04 83.20 C 508.31 83.40 506.58 83.60 504.84 83.71 C 505.98 82.50 507.13 81.28 508.28 80.07 C 510.54 80.67 513.44 82.82 515.26 80.28 C 518.43 77.02 523.40 74.98 524.40 70.10 L 524.24 69.06 M 491.21 105.29 C 490.71 106.74 491.17 107.17 492.58 106.58 C 493.06 105.14 492.60 104.71 491.21 105.29 Z" />
<path fill="#3c3c37" opacity="1.00" d=" M 521.66 70.87 C 522.34 70.68 523.71 70.30 524.40 70.10 C 523.40 74.98 518.43 77.02 515.26 80.28 C 513.44 82.82 510.54 80.67 508.28 80.07 C 507.13 81.28 505.98 82.50 504.84 83.71 L 503.98 83.63 C 503.47 83.54 502.45 83.36 501.95 83.27 C 504.28 82.01 506.37 80.36 508.02 78.27 C 509.38 78.97 510.75 79.66 512.13 80.36 C 512.89 79.60 513.65 78.84 514.43 78.09 C 515.18 77.35 515.96 76.61 516.74 75.89 C 518.16 74.61 519.67 73.43 521.08 72.13 C 521.22 71.81 521.51 71.19 521.66 70.87 Z" />
<path fill="#fcfcfc" opacity="1.00" d=" M 458.12 73.80 C 460.81 72.18 464.07 70.77 467.25 71.67 C 471.14 73.63 474.20 76.89 478.06 78.93 C 481.21 80.66 483.01 84.71 486.50 85.51 C 484.81 87.26 483.56 89.35 482.32 91.42 C 481.73 91.73 480.57 92.35 479.98 92.66 C 478.25 92.81 476.52 92.89 474.80 92.92 L 474.04 92.55 C 470.16 90.28 467.07 86.95 463.59 84.14 C 461.49 82.32 459.13 80.72 457.44 78.48 C 456.31 76.96 457.65 75.29 458.12 73.80 M 459.26 75.28 L 458.71 75.00 C 458.24 76.39 458.35 77.81 458.92 79.16 L 459.52 78.55 C 460.08 79.63 460.63 80.72 461.19 81.82 C 463.18 82.89 465.12 84.07 467.00 85.36 C 467.79 86.17 468.59 86.98 469.40 87.79 L 469.53 87.70 C 470.40 89.03 471.62 90.12 473.20 90.54 L 472.55 90.94 C 474.96 91.73 477.49 92.25 479.93 91.22 L 480.19 91.43 C 482.42 89.80 484.89 86.76 482.89 83.99 C 481.34 82.26 480.20 84.10 479.72 85.49 C 479.25 85.12 478.32 84.37 477.85 84.00 C 477.28 84.91 476.69 85.79 476.07 86.65 C 475.34 86.30 474.63 85.93 473.93 85.54 C 474.54 85.59 475.74 85.71 476.34 85.77 C 476.76 84.18 477.07 82.36 478.81 81.60 C 478.03 80.76 477.24 79.93 476.43 79.14 C 476.54 82.72 472.89 82.69 470.82 81.00 C 469.68 81.38 468.55 81.75 467.42 82.11 C 468.24 79.54 471.05 78.73 472.93 77.11 C 471.96 75.20 471.05 75.36 470.21 77.59 C 469.66 77.03 468.55 75.92 468.00 75.36 C 466.60 75.67 465.70 76.74 464.91 77.83 C 465.83 78.00 467.66 78.33 468.58 78.50 C 467.00 80.81 464.16 78.78 462.09 78.43 C 463.63 75.91 465.82 73.77 469.03 73.97 C 466.56 71.22 460.90 71.81 459.26 75.28 M 472.41 79.21 C 471.98 80.57 472.48 81.10 473.90 80.79 C 474.32 79.42 473.83 78.89 472.41 79.21 M 478.34 82.97 C 478.54 86.35 481.29 81.42 478.34 82.97 Z" />
<path fill="#534942" opacity="1.00" d=" M 508.79 71.60 C 509.69 71.27 510.60 70.95 511.52 70.65 C 511.16 71.13 510.44 72.08 510.08 72.55 C 509.26 73.41 508.41 74.23 507.55 75.02 C 507.25 74.99 506.66 74.91 506.36 74.87 L 506.26 73.89 C 507.07 73.10 507.92 72.33 508.79 71.60 Z" />
<path fill="#090808" opacity="0.24" d=" M 531.07 71.36 C 531.48 71.17 532.31 70.80 532.73 70.61 C 532.82 72.06 532.92 73.50 533.03 74.95 C 531.79 75.30 530.56 75.64 529.34 75.99 C 529.48 74.89 529.62 73.79 529.76 72.68 C 530.09 72.35 530.74 71.69 531.07 71.36 Z" />
<path fill="#8f8a87" opacity="1.00" d=" M 459.26 75.28 C 460.90 71.81 466.56 71.22 469.03 73.97 C 465.82 73.77 463.63 75.91 462.09 78.43 C 464.16 78.78 467.00 80.81 468.58 78.50 C 467.66 78.33 465.83 78.00 464.91 77.83 C 465.70 76.74 466.60 75.67 468.00 75.36 C 468.55 75.92 469.66 77.03 470.21 77.59 C 471.05 75.36 471.96 75.20 472.93 77.11 C 471.05 78.73 468.24 79.54 467.42 82.11 C 468.55 81.75 469.68 81.38 470.82 81.00 C 472.89 82.69 476.54 82.72 476.43 79.14 C 477.24 79.93 478.03 80.76 478.81 81.60 C 477.07 82.36 476.76 84.18 476.34 85.77 C 475.74 85.71 474.54 85.59 473.93 85.54 C 474.63 85.93 475.34 86.30 476.07 86.65 C 476.69 85.79 477.28 84.91 477.85 84.00 C 478.32 84.37 479.25 85.12 479.72 85.49 C 480.20 84.10 481.34 82.26 482.89 83.99 C 484.89 86.76 482.42 89.80 480.19 91.43 L 479.93 91.22 C 478.50 90.06 477.09 88.91 475.66 87.78 C 475.09 88.95 474.27 89.87 473.20 90.54 C 471.62 90.12 470.40 89.03 469.53 87.70 C 470.68 86.85 471.84 86.02 473.02 85.20 C 471.51 85.01 470.02 84.81 468.53 84.57 C 468.15 84.77 467.38 85.16 467.00 85.36 C 465.12 84.07 463.18 82.89 461.19 81.82 C 460.63 80.72 460.08 79.63 459.52 78.55 C 460.19 77.86 460.87 77.16 461.56 76.47 C 460.98 76.17 459.83 75.58 459.26 75.28 M 463.19 80.23 C 463.72 80.78 463.72 80.78 463.19 80.23 M 465.29 81.28 C 465.82 81.84 465.82 81.84 465.29 81.28 M 473.21 87.11 C 471.83 87.83 471.76 88.51 473.00 89.15 C 474.37 88.43 474.44 87.75 473.21 87.11 Z" />
<path fill="#564b44" opacity="1.00" d=" M 512.45 73.76 C 513.64 72.96 514.92 72.30 516.20 71.63 C 515.54 72.59 514.90 73.54 514.18 74.45 C 513.34 75.27 512.48 76.07 511.62 76.86 C 511.24 76.68 510.47 76.33 510.08 76.15 C 510.86 75.35 511.65 74.55 512.45 73.76 Z" />
<path fill="#527062" opacity="1.00" d=" M 444.51 77.46 C 443.50 76.04 441.99 74.60 442.83 72.71 C 443.77 73.68 444.71 74.65 445.65 75.62 L 446.64 75.13 C 445.98 76.21 445.39 77.34 444.80 78.47 C 443.83 82.21 448.91 83.70 450.84 86.16 C 451.90 87.39 452.96 88.64 454.08 89.84 L 452.71 90.08 L 451.97 90.22 C 448.58 87.52 446.06 83.85 442.38 81.51 C 443.37 85.80 447.03 88.64 449.92 91.70 C 449.50 91.91 448.67 92.34 448.26 92.55 C 447.79 92.86 446.86 93.46 446.40 93.77 C 446.05 90.74 442.30 89.34 441.03 86.61 C 441.00 85.18 441.10 83.75 441.26 82.34 C 441.63 82.02 442.37 81.40 442.74 81.09 C 441.43 79.16 440.39 77.06 439.70 74.83 C 440.85 76.48 441.97 78.35 444.51 77.46 Z" />
<path fill="#5e5855" opacity="1.00" d=" M 451.11 74.91 C 452.45 73.60 454.10 72.79 456.00 72.78 C 456.53 73.04 457.59 73.55 458.12 73.80 C 457.65 75.29 456.31 76.96 457.44 78.48 C 459.13 80.72 461.49 82.32 463.59 84.14 C 467.07 86.95 470.16 90.28 474.04 92.55 L 473.48 93.14 C 473.64 93.47 473.95 94.12 474.10 94.44 C 472.98 95.49 471.82 96.50 470.67 97.50 L 470.18 97.65 C 470.27 97.69 470.44 97.77 470.52 97.81 C 471.48 98.24 472.45 98.64 473.43 99.03 C 473.88 97.31 474.34 95.60 474.73 93.87 L 474.80 92.92 C 476.52 92.89 478.25 92.81 479.98 92.66 C 478.78 94.19 474.80 95.61 476.88 97.87 C 476.22 98.54 475.60 99.25 474.99 99.95 C 474.55 100.05 473.68 100.26 473.24 100.37 L 473.14 101.17 L 473.02 102.39 C 471.62 102.23 470.23 102.09 468.85 101.98 C 469.33 101.51 470.31 100.58 470.79 100.12 C 469.10 99.66 467.39 99.22 465.71 98.77 C 467.62 97.00 469.57 95.29 471.57 93.61 C 471.37 93.30 470.99 92.68 470.80 92.37 C 469.04 93.28 466.92 94.08 466.74 96.38 C 465.49 96.31 464.25 96.25 463.02 96.18 C 463.17 95.62 463.48 94.49 463.63 93.92 C 462.35 93.66 461.07 93.39 459.80 93.13 C 459.99 92.63 460.36 91.63 460.55 91.14 C 459.36 91.05 458.17 90.96 457.00 90.87 C 457.19 89.96 457.39 89.05 457.59 88.14 C 456.44 88.09 455.29 88.04 454.15 87.99 C 454.31 87.49 454.64 86.50 454.80 86.01 C 453.56 85.71 452.32 85.41 451.09 85.11 C 451.21 84.67 451.44 83.78 451.56 83.33 C 450.83 83.20 449.37 82.92 448.63 82.79 C 450.44 81.23 452.21 79.65 453.95 78.02 C 453.00 76.98 452.05 75.95 451.11 74.91 M 452.90 82.13 C 453.28 82.56 454.04 83.43 454.43 83.86 C 455.96 83.18 457.48 82.34 458.19 80.71 C 456.35 80.88 454.60 81.47 452.90 82.13 M 455.93 86.05 C 457.84 86.21 459.55 85.42 461.04 84.30 C 459.01 82.30 456.86 83.90 455.93 86.05 M 458.78 87.05 C 459.38 87.90 459.32 89.71 460.76 89.56 C 462.05 88.82 462.75 87.46 463.20 86.09 C 461.70 86.30 460.23 86.62 458.78 87.05 M 465.32 90.61 C 464.82 90.83 463.83 91.26 463.34 91.47 C 464.06 92.14 464.80 92.81 465.54 93.49 C 466.20 92.84 466.87 92.19 467.54 91.54 C 466.79 91.23 466.05 90.92 465.32 90.61 Z" />
<path fill="#d5cbc3" opacity="1.00" d=" M 507.55 75.02 C 508.41 74.23 509.26 73.41 510.08 72.55 C 510.67 72.86 511.86 73.46 512.45 73.76 C 511.65 74.55 510.86 75.35 510.08 76.15 C 509.45 75.87 508.18 75.31 507.55 75.02 Z" />
<path fill="#565049" opacity="1.00" d=" M 458.71 75.00 L 459.26 75.28 C 459.83 75.58 460.98 76.17 461.56 76.47 C 460.87 77.16 460.19 77.86 459.52 78.55 L 458.92 79.16 C 458.35 77.81 458.24 76.39 458.71 75.00 Z" />
<path fill="#d4c8bf" opacity="1.00" d=" M 511.62 76.86 C 512.48 76.07 513.34 75.27 514.18 74.45 C 514.82 74.81 516.10 75.53 516.74 75.89 C 515.96 76.61 515.18 77.35 514.43 78.09 C 513.73 77.78 512.32 77.16 511.62 76.86 Z" />
<path fill="#000000" opacity="0.10" d=" M 520.32 82.00 C 521.73 80.45 523.24 78.99 524.84 77.62 C 526.38 77.58 527.92 77.55 529.47 77.52 C 529.44 80.20 527.12 81.75 525.47 83.51 C 520.34 88.77 514.80 93.67 510.23 99.45 C 510.04 99.45 509.67 99.46 509.48 99.46 L 508.53 99.21 L 507.96 99.02 C 508.23 98.75 508.78 98.20 509.05 97.92 C 509.26 97.70 509.68 97.27 509.89 97.05 C 510.14 96.59 510.64 95.68 510.90 95.22 C 511.89 94.85 512.89 94.48 513.89 94.10 C 515.55 89.80 519.72 86.70 520.32 82.00 Z" />
<path fill="#8f8a87" opacity="1.00" d=" M 472.41 79.21 C 473.83 78.89 474.32 79.42 473.90 80.79 C 472.48 81.10 471.98 80.57 472.41 79.21 Z" />
<path fill="#e6e2e0" opacity="1.00" d=" M 463.19 80.23 C 463.72 80.78 463.72 80.78 463.19 80.23 Z" />
<path fill="#b8b9a8" opacity="1.00" d=" M 492.22 80.29 C 492.76 80.80 492.76 80.80 492.22 80.29 Z" />
<path fill="#7f7a76" opacity="1.00" d=" M 452.90 82.13 C 454.60 81.47 456.35 80.88 458.19 80.71 C 457.48 82.34 455.96 83.18 454.43 83.86 C 454.04 83.43 453.28 82.56 452.90 82.13 Z" />
<path fill="#f2f1ef" opacity="1.00" d=" M 465.29 81.28 C 465.82 81.84 465.82 81.84 465.29 81.28 Z" />
<path fill="#aeabb4" opacity="1.00" d=" M 442.38 81.51 C 446.06 83.85 448.58 87.52 451.97 90.22 C 451.98 90.70 452.00 91.67 452.01 92.16 C 451.49 92.04 450.44 91.81 449.92 91.70 C 447.03 88.64 443.37 85.80 442.38 81.51 Z" />
<path fill="#7c7975" opacity="1.00" d=" M 455.93 86.05 C 456.86 83.90 459.01 82.30 461.04 84.30 C 459.55 85.42 457.84 86.21 455.93 86.05 Z" />
<path fill="#958f89" opacity="1.00" d=" M 478.34 82.97 C 481.29 81.42 478.54 86.35 478.34 82.97 Z" />
<path fill="#92a082" opacity="1.00" d=" M 504.84 83.71 C 506.58 83.60 508.31 83.40 510.04 83.20 C 507.66 85.12 505.15 86.94 503.29 89.40 C 502.69 88.94 501.49 88.03 500.89 87.57 C 501.92 86.26 502.95 84.95 503.98 83.63 L 504.84 83.71 Z" />
<path fill="#010101" opacity="0.22" d=" M 508.47 93.83 C 512.41 89.88 516.36 85.94 520.32 82.00 C 519.72 86.70 515.55 89.80 513.89 94.10 C 512.89 94.48 511.89 94.85 510.90 95.22 C 510.29 94.87 509.07 94.18 508.47 93.83 Z" />
<path fill="#383637" opacity="1.00" d=" M 467.00 85.36 C 467.38 85.16 468.15 84.77 468.53 84.57 C 470.02 84.81 471.51 85.01 473.02 85.20 C 471.84 86.02 470.68 86.85 469.53 87.70 L 469.40 87.79 C 468.59 86.98 467.79 86.17 467.00 85.36 Z" />
<path fill="#68a068" opacity="1.00" d=" M 451.09 85.11 C 452.32 85.41 453.56 85.71 454.80 86.01 C 454.64 86.50 454.31 87.49 454.15 87.99 C 455.29 88.04 456.44 88.09 457.59 88.14 C 457.39 89.05 457.19 89.96 457.00 90.87 C 458.17 90.96 459.36 91.05 460.55 91.14 C 460.36 91.63 459.99 92.63 459.80 93.13 C 461.07 93.39 462.35 93.66 463.63 93.92 C 463.48 94.49 463.17 95.62 463.02 96.18 C 464.25 96.25 465.49 96.31 466.74 96.38 C 466.92 94.08 469.04 93.28 470.80 92.37 C 470.99 92.68 471.37 93.30 471.57 93.61 C 469.57 95.29 467.62 97.00 465.71 98.77 C 467.39 99.22 469.10 99.66 470.79 100.12 C 470.31 100.58 469.33 101.51 468.85 101.98 C 470.23 102.09 471.62 102.23 473.02 102.39 C 473.18 102.62 473.49 103.08 473.65 103.31 C 474.63 104.75 475.58 106.22 476.49 107.72 C 476.33 106.57 476.17 105.42 476.03 104.28 L 475.43 103.76 C 475.77 103.41 476.43 102.70 476.76 102.34 C 477.84 103.25 478.94 104.16 480.03 105.07 C 479.34 105.87 478.68 106.69 478.04 107.53 C 477.47 108.29 476.89 109.06 476.33 109.83 C 477.64 111.04 478.96 112.23 480.29 113.42 L 480.33 113.50 C 480.76 114.55 481.20 115.60 481.65 116.65 C 481.28 116.43 480.54 115.99 480.17 115.77 C 479.46 115.22 478.77 114.66 478.09 114.10 C 477.83 113.74 477.32 113.01 477.07 112.64 C 469.53 104.92 461.85 97.33 454.08 89.84 C 452.96 88.64 451.90 87.39 450.84 86.16 L 451.09 85.11 Z" />
<path fill="#777470" opacity="1.00" d=" M 458.78 87.05 C 460.23 86.62 461.70 86.30 463.20 86.09 C 462.75 87.46 462.05 88.82 460.76 89.56 C 459.32 89.71 459.38 87.90 458.78 87.05 Z" />
<path fill="#d8d0ca" opacity="1.00" d=" M 490.82 88.40 C 492.35 86.77 494.29 85.42 496.36 87.19 C 495.63 88.67 494.41 89.76 493.14 90.75 C 492.36 89.96 491.59 89.18 490.82 88.40 Z" />
<path fill="#605d56" opacity="1.00" d=" M 473.21 87.11 C 474.44 87.75 474.37 88.43 473.00 89.15 C 471.76 88.51 471.83 87.83 473.21 87.11 Z" />
<path fill="#3c3c37" opacity="1.00" d=" M 475.66 87.78 C 477.09 88.91 478.50 90.06 479.93 91.22 C 477.49 92.25 474.96 91.73 472.55 90.94 L 473.20 90.54 C 474.27 89.87 475.09 88.95 475.66 87.78 Z" />
<path fill="#ded8d3" opacity="1.00" d=" M 497.43 88.96 C 498.35 89.60 499.28 90.24 500.22 90.87 C 499.31 91.77 498.41 92.67 497.54 93.59 C 496.51 92.90 495.50 92.21 494.50 91.51 C 495.47 90.66 496.45 89.81 497.43 88.96 Z" />
<path fill="#8c9b7c" opacity="1.00" d=" M 451.97 90.22 L 452.71 90.08 C 453.37 91.68 454.06 93.27 454.73 94.87 C 455.46 95.24 456.21 95.61 456.95 95.99 C 457.25 96.49 457.84 97.50 458.14 98.01 C 457.00 97.32 455.84 96.69 454.69 96.06 C 456.42 99.01 458.04 102.97 461.99 103.23 L 462.29 101.93 C 464.04 103.54 465.78 105.17 467.57 106.75 C 468.06 107.65 468.55 108.56 469.04 109.47 C 468.56 109.42 467.60 109.32 467.13 109.27 C 466.85 109.71 466.31 110.58 466.04 111.02 C 464.24 109.83 462.43 108.61 460.98 107.01 C 456.66 102.26 452.24 97.59 448.26 92.55 C 448.67 92.34 449.50 91.91 449.92 91.70 C 450.44 91.81 451.49 92.04 452.01 92.16 C 452.00 91.67 451.98 90.70 451.97 90.22 Z" />
<path fill="#565049" opacity="1.00" d=" M 452.71 90.08 L 454.08 89.84 C 461.85 97.33 469.53 104.92 477.07 112.64 C 476.04 113.85 476.38 114.33 478.09 114.10 C 478.77 114.66 479.46 115.22 480.17 115.77 L 479.98 117.41 C 479.40 117.37 478.23 117.28 477.65 117.24 C 476.92 117.10 476.20 116.96 475.49 116.82 C 474.83 116.61 473.53 116.20 472.88 116.00 C 473.67 114.77 474.46 113.54 475.25 112.31 C 473.00 110.08 470.86 107.41 467.57 106.75 C 465.78 105.17 464.04 103.54 462.29 101.93 C 460.90 100.61 459.50 99.33 458.14 98.01 C 457.84 97.50 457.25 96.49 456.95 95.99 C 456.21 95.61 455.46 95.24 454.73 94.87 C 454.06 93.27 453.37 91.68 452.71 90.08 Z" />
<path fill="#a79d99" opacity="1.00" d=" M 465.32 90.61 C 466.05 90.92 466.79 91.23 467.54 91.54 C 466.87 92.19 466.20 92.84 465.54 93.49 C 464.80 92.81 464.06 92.14 463.34 91.47 C 463.83 91.26 464.82 90.83 465.32 90.61 Z" />
<path fill="#5c5b54" opacity="1.00" d=" M 500.22 90.87 C 501.21 90.40 502.22 89.96 503.25 89.54 C 502.99 91.28 502.14 92.81 500.80 93.93 C 498.72 95.78 496.45 98.59 493.32 97.44 C 493.86 96.98 494.94 96.06 495.48 95.60 C 496.17 94.95 496.86 94.27 497.54 93.59 C 498.41 92.67 499.31 91.77 500.22 90.87 Z" />
<path fill="#2d3029" opacity="1.00" d=" M 479.98 92.66 C 480.57 92.35 481.73 91.73 482.32 91.42 C 482.25 92.07 482.12 93.39 482.05 94.05 C 480.41 95.43 478.62 96.62 476.88 97.87 C 474.80 95.61 478.78 94.19 479.98 92.66 Z" />
<path fill="#c1beb5" opacity="1.00" d=" M 446.40 93.77 C 446.86 93.46 447.79 92.86 448.26 92.55 C 452.24 97.59 456.66 102.26 460.98 107.01 C 462.43 108.61 464.24 109.83 466.04 111.02 L 465.68 111.54 C 465.13 111.98 464.03 112.85 463.48 113.29 C 463.07 113.21 462.24 113.06 461.82 112.98 C 460.85 111.87 459.87 110.78 458.89 109.69 C 458.75 109.52 458.47 109.18 458.33 109.00 C 456.46 106.34 454.33 103.85 451.84 101.76 C 451.12 101.13 450.40 100.51 449.68 99.89 C 450.14 98.81 450.63 97.74 451.14 96.68 C 450.57 97.03 449.44 97.74 448.87 98.09 C 448.23 97.46 447.60 96.83 446.97 96.21 C 446.55 95.78 445.70 94.93 445.27 94.51 L 446.40 93.77 Z" />
<path fill="#131611" opacity="1.00" d=" M 473.48 93.14 L 474.04 92.55 L 474.80 92.92 L 474.73 93.87 L 474.10 94.44 C 473.95 94.12 473.64 93.47 473.48 93.14 Z" />
<path fill="#696c61" opacity="1.00" d=" M 474.10 94.44 L 474.73 93.87 C 474.34 95.60 473.88 97.31 473.43 99.03 C 472.45 98.64 471.48 98.24 470.52 97.81 L 470.67 97.50 C 471.82 96.50 472.98 95.49 474.10 94.44 Z" />
<path fill="#fcfcfc" opacity="1.00" d=" M 485.58 94.59 C 486.54 94.62 487.49 94.72 488.46 94.80 C 488.80 95.10 489.48 95.71 489.81 96.01 C 490.94 94.93 492.08 93.86 493.22 92.78 C 494.30 93.48 495.05 94.42 495.48 95.60 C 494.94 96.06 493.86 96.98 493.32 97.44 C 492.66 97.92 491.99 98.37 491.34 98.83 C 489.84 98.63 488.32 98.60 486.82 98.55 C 487.07 98.30 487.58 97.80 487.83 97.55 C 487.78 96.94 487.66 95.71 487.61 95.09 C 486.95 95.17 485.65 95.31 484.99 95.39 L 485.58 94.59 Z" />
<path fill="#383637" opacity="1.00" d=" M 507.46 94.85 C 507.72 94.59 508.22 94.08 508.47 93.83 C 509.07 94.18 510.29 94.87 510.90 95.22 C 510.64 95.68 510.14 96.59 509.89 97.05 C 509.05 96.34 508.24 95.60 507.46 94.85 Z" />
<path fill="#383637" opacity="1.00" d=" M 473.65 103.31 C 477.55 100.33 480.03 94.64 485.58 94.59 L 484.99 95.39 C 482.44 97.93 479.39 99.88 476.76 102.34 C 476.43 102.70 475.77 103.41 475.43 103.76 L 476.03 104.28 C 476.17 105.42 476.33 106.57 476.49 107.72 C 475.58 106.22 474.63 104.75 473.65 103.31 Z" />
<path fill="#4a443b" opacity="0.75" d=" M 446.97 96.21 C 447.60 96.83 448.23 97.46 448.87 98.09 C 449.44 97.74 450.57 97.03 451.14 96.68 C 450.63 97.74 450.14 98.81 449.68 99.89 C 448.25 99.10 447.49 97.70 446.97 96.21 Z" />
<path fill="#aeba9d" opacity="1.00" d=" M 454.69 96.06 C 455.84 96.69 457.00 97.32 458.14 98.01 C 459.50 99.33 460.90 100.61 462.29 101.93 L 461.99 103.23 C 458.04 102.97 456.42 99.01 454.69 96.06 Z" />
<path fill="#687955" opacity="1.00" d=" M 476.76 102.34 C 479.39 99.88 482.44 97.93 484.99 95.39 C 485.65 95.31 486.95 95.17 487.61 95.09 C 487.66 95.71 487.78 96.94 487.83 97.55 C 487.58 97.80 487.07 98.30 486.82 98.55 C 485.74 99.57 484.63 100.56 483.55 101.56 C 482.32 102.68 481.14 103.84 480.03 105.07 C 478.94 104.16 477.84 103.25 476.76 102.34 Z" />
<path fill="#879781" opacity="1.00" d=" M 493.12 100.32 C 495.62 99.06 498.11 97.78 500.59 96.46 C 501.43 97.33 502.28 98.21 503.14 99.08 C 501.17 100.91 499.28 102.82 497.45 104.78 C 495.99 103.31 494.55 101.82 493.12 100.32 Z" />
<path fill="#111111" opacity="0.49" d=" M 503.14 99.08 C 504.07 97.88 505.22 96.88 506.39 95.92 C 506.55 96.31 506.88 97.07 507.04 97.45 C 506.36 98.38 505.59 99.19 504.71 99.91 C 504.32 99.70 503.54 99.29 503.14 99.08 Z" />
<path fill="#b3c6ab" opacity="1.00" d=" M 470.18 97.65 L 470.67 97.50 L 470.52 97.81 C 470.44 97.77 470.27 97.69 470.18 97.65 Z" />
<path fill="#d6d4d6" opacity="1.00" d=" M 486.82 98.55 C 488.32 98.60 489.84 98.63 491.34 98.83 L 491.79 99.09 C 489.88 100.68 488.00 102.29 486.19 103.99 C 485.30 103.18 484.42 102.37 483.55 101.56 C 484.63 100.56 485.74 99.57 486.82 98.55 Z" />
<path fill="#010101" opacity="0.13" d=" M 504.71 99.91 C 505.59 99.19 506.36 98.38 507.04 97.45 C 507.54 97.57 508.55 97.80 509.05 97.92 C 508.78 98.20 508.23 98.75 507.96 99.02 L 508.53 99.21 C 505.08 102.87 501.08 106.02 498.10 110.10 C 496.66 112.02 494.90 113.65 493.11 115.23 C 493.56 113.27 494.00 111.31 494.41 109.34 C 495.16 109.44 495.92 109.54 496.68 109.64 C 497.94 107.68 499.18 105.70 500.39 103.71 C 499.05 104.42 497.73 105.14 496.41 105.85 C 496.67 105.59 497.19 105.05 497.45 104.78 C 499.28 102.82 501.17 100.91 503.14 99.08 C 503.54 99.29 504.32 99.70 504.71 99.91 Z" />
<path fill="#9fad94" opacity="1.00" d=" M 473.24 100.37 C 473.68 100.26 474.55 100.05 474.99 99.95 C 474.53 100.25 473.60 100.86 473.14 101.17 L 473.24 100.37 Z" />
<path fill="#3c3c37" opacity="1.00" d=" M 486.19 103.99 C 488.00 102.29 489.88 100.68 491.79 99.09 C 492.00 99.83 492.42 101.33 492.63 102.07 C 490.97 104.82 488.39 106.83 485.80 108.65 L 484.69 109.06 C 483.61 109.45 482.55 109.85 481.47 110.19 C 481.30 110.07 480.97 109.83 480.81 109.71 C 482.55 107.76 484.29 105.80 486.19 103.99 Z" />
<path fill="#5e5855" opacity="1.00" d=" M 498.10 110.10 C 501.08 106.02 505.08 102.87 508.53 99.21 L 509.48 99.46 C 500.51 108.49 491.83 117.81 483.09 127.07 C 482.12 127.75 481.45 129.43 480.05 129.00 C 479.75 128.68 479.16 128.04 478.86 127.72 C 480.68 127.24 482.48 126.58 483.72 125.07 C 485.70 123.33 487.55 121.43 489.37 119.53 C 490.68 118.21 491.99 116.88 493.21 115.48 L 493.11 115.23 C 494.90 113.65 496.66 112.02 498.10 110.10 Z" />
<path fill="#3d3730" opacity="0.78" d=" M 451.84 101.76 C 454.33 103.85 456.46 106.34 458.33 109.00 C 455.47 107.43 453.29 104.64 451.84 101.76 Z" />
<path fill="#ececed" opacity="1.00" d=" M 480.03 105.07 C 481.14 103.84 482.32 102.68 483.55 101.56 C 484.42 102.37 485.30 103.18 486.19 103.99 C 484.29 105.80 482.55 107.76 480.81 109.71 C 479.88 108.99 478.96 108.26 478.04 107.53 C 478.68 106.69 479.34 105.87 480.03 105.07 Z" />
<path fill="#101311" opacity="0.56" d=" M 496.41 105.85 C 497.73 105.14 499.05 104.42 500.39 103.71 C 499.18 105.70 497.94 107.68 496.68 109.64 C 495.92 109.54 495.16 109.44 494.41 109.34 C 494.00 111.31 493.56 113.27 493.11 115.23 C 492.46 113.85 491.84 112.47 491.49 110.99 C 491.55 110.46 491.68 109.40 491.74 108.88 C 491.99 109.10 492.49 109.56 492.74 109.78 C 493.95 109.13 494.01 108.41 492.94 107.62 C 494.09 107.02 495.26 106.47 496.41 105.85 Z" />
<path fill="#96ab8e" opacity="1.00" d=" M 491.21 105.29 C 492.60 104.71 493.06 105.14 492.58 106.58 C 491.17 107.17 490.71 106.74 491.21 105.29 Z" />
<path fill="#79879d" opacity="1.00" d=" M 467.57 106.75 C 470.86 107.41 473.00 110.08 475.25 112.31 C 474.46 113.54 473.67 114.77 472.88 116.00 C 471.61 115.49 470.35 114.96 469.12 114.39 C 469.59 115.08 470.53 116.47 471.00 117.16 C 473.19 120.17 476.33 122.25 479.40 124.26 L 479.46 124.32 L 477.98 126.34 L 478.65 124.74 L 477.58 124.25 L 477.64 126.04 C 474.67 122.51 471.03 119.56 468.48 115.67 C 467.53 114.30 466.60 112.92 465.68 111.54 L 466.04 111.02 C 466.31 110.58 466.85 109.71 467.13 109.27 C 467.60 109.32 468.56 109.42 469.04 109.47 C 468.55 108.56 468.06 107.65 467.57 106.75 Z" />
<path fill="#619561" opacity="1.00" d=" M 478.04 107.53 C 478.96 108.26 479.88 108.99 480.81 109.71 C 480.97 109.83 481.30 110.07 481.47 110.19 C 482.55 109.85 483.61 109.45 484.69 109.06 C 484.56 110.10 484.43 111.15 484.29 112.20 C 485.32 112.47 486.36 112.75 487.39 113.02 C 486.56 113.58 485.73 114.13 484.90 114.67 C 483.43 114.27 481.95 113.91 480.48 113.53 C 480.43 113.50 480.34 113.45 480.29 113.42 C 478.96 112.23 477.64 111.04 476.33 109.83 C 476.89 109.06 477.47 108.29 478.04 107.53 Z" />
<path fill="#85a580" opacity="1.00" d=" M 485.80 108.65 C 487.28 108.32 488.77 108.07 490.27 107.83 C 489.67 109.74 488.89 111.64 487.39 113.02 C 486.36 112.75 485.32 112.47 484.29 112.20 C 484.43 111.15 484.56 110.10 484.69 109.06 L 485.80 108.65 Z" />
<path fill="#8ea282" opacity="1.00" d=" M 491.74 108.88 C 492.04 108.56 492.64 107.93 492.94 107.62 C 494.01 108.41 493.95 109.13 492.74 109.78 C 492.49 109.56 491.99 109.10 491.74 108.88 Z" />
<path fill="#060606" opacity="0.22" d=" M 458.89 109.69 C 459.87 110.78 460.85 111.87 461.82 112.98 C 462.24 113.06 463.07 113.21 463.48 113.29 C 463.64 114.30 462.72 115.92 464.23 116.27 C 465.65 116.14 467.06 115.94 468.48 115.67 C 471.03 119.56 474.67 122.51 477.64 126.04 C 477.95 126.46 478.56 127.30 478.86 127.72 C 479.16 128.04 479.75 128.68 480.05 129.00 C 478.09 129.01 476.13 129.02 474.18 129.01 C 473.19 125.17 470.64 121.77 467.24 119.74 C 465.80 118.88 464.51 117.82 463.41 116.57 C 462.67 116.64 461.94 116.71 461.22 116.79 C 460.99 116.29 460.52 115.31 460.29 114.82 C 460.37 114.45 460.53 113.72 460.61 113.35 C 459.87 112.22 458.82 111.16 458.89 109.69 Z" />
<path fill="#010101" opacity="0.22" d=" M 491.49 110.99 C 491.84 112.47 492.46 113.85 493.11 115.23 L 493.21 115.48 C 491.99 116.88 490.68 118.21 489.37 119.53 L 488.10 119.06 C 488.37 118.57 488.92 117.59 489.19 117.10 C 488.58 116.76 487.35 116.08 486.73 115.74 C 488.34 114.18 489.92 112.59 491.49 110.99 Z" />
<path fill="#20201c" opacity="0.95" d=" M 463.48 113.29 C 464.03 112.85 465.13 111.98 465.68 111.54 C 466.60 112.92 467.53 114.30 468.48 115.67 C 467.06 115.94 465.65 116.14 464.23 116.27 C 462.72 115.92 463.64 114.30 463.48 113.29 Z" />
<path fill="#a7a49f" opacity="1.00" d=" M 478.09 114.10 C 476.38 114.33 476.04 113.85 477.07 112.64 C 477.32 113.01 477.83 113.74 478.09 114.10 Z" />
<path fill="#b0d0a2" opacity="1.00" d=" M 480.29 113.42 C 480.34 113.45 480.43 113.50 480.48 113.53 L 480.33 113.50 L 480.29 113.42 Z" />
<path fill="#27433e" opacity="1.00" d=" M 469.12 114.39 C 470.35 114.96 471.61 115.49 472.88 116.00 C 473.53 116.20 474.83 116.61 475.49 116.82 C 475.27 117.41 474.84 118.59 474.63 119.18 C 473.35 118.62 472.13 117.96 471.00 117.16 C 470.53 116.47 469.59 115.08 469.12 114.39 Z" />
<path fill="#8ea282" opacity="1.00" d=" M 475.49 116.82 C 476.20 116.96 476.92 117.10 477.65 117.24 C 477.44 117.44 477.01 117.82 476.80 118.01 C 477.23 118.96 477.70 119.89 478.13 120.84 C 478.55 121.98 478.97 123.12 479.40 124.26 C 476.33 122.25 473.19 120.17 471.00 117.16 C 472.13 117.96 473.35 118.62 474.63 119.18 C 474.84 118.59 475.27 117.41 475.49 116.82 Z" />
<path fill="#fcfcfc" opacity="1.00" d=" M 480.17 115.77 C 480.54 115.99 481.28 116.43 481.65 116.65 C 481.70 116.74 481.81 116.91 481.86 116.99 C 480.35 118.01 478.59 118.93 478.13 120.84 C 477.70 119.89 477.23 118.96 476.80 118.01 C 477.01 117.82 477.44 117.44 477.65 117.24 C 478.23 117.28 479.40 117.37 479.98 117.41 L 480.17 115.77 Z" />
<path fill="#08110b" opacity="0.59" d=" M 483.21 119.34 C 484.35 118.10 485.53 116.92 486.73 115.74 C 487.35 116.08 488.58 116.76 489.19 117.10 C 488.92 117.59 488.37 118.57 488.10 119.06 C 487.47 118.82 486.22 118.33 485.59 118.09 C 485.68 119.11 485.76 120.13 485.85 121.16 C 484.37 121.33 482.89 121.50 481.40 121.55 C 481.85 121.00 482.76 119.89 483.21 119.34 Z" />
<path fill="#5e5855" opacity="1.00" d=" M 478.13 120.84 C 478.59 118.93 480.35 118.01 481.86 116.99 C 482.20 117.58 482.87 118.75 483.21 119.34 C 482.76 119.89 481.85 121.00 481.40 121.55 C 480.73 122.46 480.10 123.40 479.46 124.32 L 479.40 124.26 C 478.97 123.12 478.55 121.98 478.13 120.84 Z" />
<path fill="#3c3c37" opacity="1.00" d=" M 477.58 124.25 L 478.65 124.74 L 477.98 126.34 C 479.88 125.92 481.81 125.50 483.72 125.07 C 482.48 126.58 480.68 127.24 478.86 127.72 C 478.56 127.30 477.95 126.46 477.64 126.04 L 477.58 124.25 Z" />
<path fill="#ffffff" opacity="1.00" d=" M 23.85 292.56 C 28.54 290.41 35.28 291.81 37.43 296.88 C 38.85 300.96 38.42 305.37 38.51 309.62 C 35.69 309.62 32.87 309.61 30.05 309.66 C 29.93 306.36 30.15 303.05 29.86 299.75 C 30.12 297.80 26.89 297.95 27.17 299.81 C 26.80 307.56 27.06 315.34 27.03 323.10 C 26.79 324.70 27.71 327.34 29.64 325.70 C 30.25 322.54 29.94 319.31 30.00 316.12 C 32.85 316.12 35.69 316.11 38.54 316.15 C 38.37 320.12 38.82 324.34 37.13 328.06 C 34.27 333.53 26.18 334.40 21.65 330.59 C 18.65 327.97 18.73 323.65 18.52 320.00 C 18.54 313.70 18.34 307.39 18.64 301.09 C 18.72 297.60 20.58 294.04 23.85 292.56 Z" />
<path fill="#ffffff" opacity="1.00" d=" M 44.19 292.47 C 48.24 292.52 52.30 292.49 56.35 292.50 C 57.99 305.66 59.61 318.83 61.25 332.00 C 58.32 332.01 55.38 332.04 52.45 331.90 C 52.37 329.55 52.23 327.21 52.09 324.88 C 51.32 324.88 49.80 324.87 49.04 324.87 C 48.90 327.22 48.75 329.57 48.66 331.92 C 45.69 332.03 42.72 332.01 39.76 332.00 C 41.25 318.82 42.63 305.63 44.19 292.47 M 49.01 317.95 C 49.71 317.92 51.10 317.85 51.80 317.82 C 51.33 312.25 50.99 306.68 50.53 301.11 C 50.05 306.73 49.33 312.32 49.01 317.95 Z" />
<path fill="#ffffff" opacity="1.00" d=" M 85.04 296.09 C 88.57 289.74 99.58 290.16 102.44 296.90 C 103.85 300.98 103.42 305.38 103.51 309.62 C 100.69 309.62 97.87 309.61 95.05 309.66 C 94.76 305.95 95.53 302.10 94.47 298.49 C 93.55 298.21 91.96 298.39 92.18 299.75 C 91.83 307.86 91.97 316.00 92.10 324.12 C 91.90 325.71 93.29 326.87 94.64 325.70 C 95.25 322.54 94.94 319.30 95.01 316.11 C 97.86 316.12 100.71 316.11 103.55 316.17 C 103.36 320.13 103.82 324.35 102.13 328.05 C 98.77 334.67 87.29 334.59 84.54 327.53 C 82.85 321.52 83.71 315.18 83.50 309.03 C 83.68 304.72 82.86 300.02 85.04 296.09 Z" />
<path fill="#ffffff" opacity="1.00" d=" M 111.55 292.67 C 117.21 289.56 125.37 293.11 125.81 299.84 C 126.29 308.24 126.37 316.72 125.75 325.11 C 125.12 330.67 119.02 334.12 113.80 332.61 C 109.76 331.86 106.92 327.99 106.73 323.99 C 106.32 316.66 106.46 309.30 106.62 301.97 C 106.62 298.33 108.13 294.37 111.55 292.67 M 115.14 299.72 C 114.80 306.80 115.11 313.89 114.98 320.98 C 115.21 322.95 114.23 326.14 117.09 326.42 C 118.14 321.02 117.41 315.49 117.62 310.03 C 117.43 306.31 118.08 302.47 117.23 298.83 C 116.66 297.51 115.08 298.76 115.14 299.72 Z" />
<path fill="#ffff00" opacity="1.00" d=" M 167.72 295.78 C 171.47 289.69 182.26 290.30 184.98 297.03 C 186.32 301.09 185.99 305.47 185.92 309.68 C 183.11 309.61 180.30 309.61 177.49 309.62 C 177.42 306.08 177.75 302.52 177.23 299.02 C 176.72 297.65 174.18 298.47 174.66 299.96 C 174.48 308.67 174.18 317.44 174.87 326.14 C 175.41 326.06 176.50 325.89 177.05 325.81 C 177.82 322.65 177.42 319.37 177.47 316.16 C 180.32 316.11 183.16 316.11 186.01 316.12 C 185.88 320.00 186.30 324.11 184.76 327.78 C 181.56 334.82 169.31 334.66 166.91 327.10 C 165.36 320.85 166.23 314.33 165.99 307.97 C 166.15 303.90 165.45 299.41 167.72 295.78 Z" />
<path fill="#ffff00" opacity="1.00" d=" M 210.09 297.10 C 211.96 290.85 220.76 290.17 225.40 293.63 C 228.73 296.11 227.91 300.75 228.17 304.37 C 225.54 304.37 222.92 304.37 220.29 304.38 C 219.88 302.43 221.13 299.36 219.01 298.22 C 216.68 299.31 217.31 302.83 218.20 304.75 C 221.60 308.46 227.26 310.70 228.36 316.11 C 228.99 320.24 229.44 324.76 227.78 328.71 C 224.32 334.32 214.65 334.35 211.13 328.77 C 209.41 325.43 209.84 321.50 209.73 317.88 C 212.36 317.87 214.99 317.87 217.62 317.88 C 217.74 320.51 217.23 323.26 218.09 325.81 C 220.53 327.31 221.03 323.57 220.77 322.01 C 221.16 317.33 216.22 315.40 213.44 312.60 C 208.78 309.00 209.02 302.30 210.09 297.10 Z" />
<path fill="#ffffff" opacity="1.00" d=" M 62.75 292.50 C 67.44 292.71 72.29 291.91 76.86 293.24 C 79.67 294.14 80.86 297.21 80.89 299.93 C 80.99 304.11 81.40 308.40 80.37 312.49 C 79.04 316.22 74.52 316.19 71.23 316.19 C 71.27 321.46 71.24 326.73 71.25 332.00 C 68.42 332.00 65.58 332.00 62.75 332.00 C 62.75 318.83 62.75 305.67 62.75 292.50 M 71.33 298.96 C 71.22 302.56 71.16 306.17 71.41 309.77 C 72.55 309.21 74.09 308.75 73.81 307.13 C 73.63 304.38 75.20 299.62 71.33 298.96 Z" />
<path fill="#ffffff" opacity="1.00" d=" M 129.22 331.96 C 129.37 318.78 129.08 305.60 129.36 292.43 C 132.98 292.53 136.60 292.49 140.22 292.50 C 141.00 298.38 141.49 304.30 142.48 310.15 C 143.23 304.28 143.72 298.38 144.40 292.50 C 148.06 292.50 151.72 292.49 155.38 292.50 C 155.38 305.67 155.38 318.83 155.38 332.00 C 152.92 332.00 150.46 332.00 148.00 332.00 C 147.86 323.43 148.39 314.81 147.47 306.28 C 147.07 314.89 145.92 323.43 144.99 332.00 C 143.24 332.00 141.50 332.00 139.76 332.01 C 138.55 323.35 138.08 314.58 136.35 306.01 C 136.89 314.66 136.51 323.34 136.62 332.01 C 134.15 332.00 131.68 332.00 129.22 331.96 Z" />
<path fill="#ffff00" opacity="1.00" d=" M 189.22 331.96 C 189.35 318.79 189.11 305.61 189.34 292.45 C 194.65 293.04 200.88 291.09 205.48 294.54 C 208.77 299.22 207.30 305.57 207.24 310.95 C 206.95 315.74 201.50 316.42 197.74 316.20 C 197.76 321.45 197.72 326.71 197.78 331.96 C 194.92 332.01 192.07 332.01 189.22 331.96 M 197.77 299.08 C 197.74 302.58 197.73 306.08 197.77 309.59 C 200.88 309.58 200.36 306.16 200.42 304.03 C 200.43 301.97 200.64 299.04 197.77 299.08 Z" />
<path fill="#ffff00" opacity="1.00" d=" M 250.57 293.51 C 251.78 291.71 254.22 292.76 256.00 292.47 C 256.00 305.65 256.00 318.82 256.00 332.00 C 253.29 332.00 250.58 332.00 247.88 332.00 C 247.86 324.00 247.90 316.01 247.87 308.02 C 247.73 306.65 248.04 304.94 246.81 303.96 C 245.33 303.52 243.78 303.53 242.26 303.42 C 242.25 301.95 242.25 300.49 242.25 299.03 C 245.47 297.96 248.48 296.24 250.57 293.51 Z" />
<path fill="#ffff00" opacity="1.00" d=" M 230.75 312.50 C 234.29 312.49 237.83 312.49 241.37 312.50 C 241.37 314.75 241.37 317.00 241.38 319.25 C 237.83 319.25 234.29 319.25 230.75 319.25 C 230.75 317.00 230.75 314.75 230.75 312.50 Z" />
</svg>
