<?xml version="1.0" encoding="UTF-8" ?>
<!DOCTYPE svg PUBLIC "-//W3C//DTD SVG 1.1//EN" "http://www.w3.org/Graphics/SVG/1.1/DTD/svg11.dtd">
<svg width="960pt" height="540pt" viewBox="0 0 960 540" version="1.1" xmlns="http://www.w3.org/2000/svg">
<path fill="#441218" opacity="1.00" d=" M 639.46 30.94 C 639.93 31.76 640.35 32.60 640.74 33.46 C 641.70 36.72 641.58 40.15 641.18 43.49 C 640.60 49.12 643.25 54.75 641.15 60.32 L 640.30 58.23 C 640.42 56.76 640.58 55.29 640.75 53.83 C 640.34 55.30 639.94 56.77 639.53 58.25 C 638.79 58.73 638.07 59.23 637.36 59.74 C 636.98 60.31 636.23 61.45 635.86 62.02 C 634.45 66.01 633.66 70.19 632.18 74.16 L 630.99 74.15 C 631.74 70.83 632.53 67.52 633.22 64.19 C 633.62 62.22 633.94 60.23 634.25 58.24 C 634.67 58.36 635.49 58.60 635.91 58.71 C 636.64 55.82 637.67 52.60 635.62 49.99 C 634.72 48.75 633.90 47.40 632.67 46.47 C 629.62 46.22 626.54 46.31 623.51 45.83 C 623.78 45.48 624.32 44.76 624.59 44.41 C 627.06 46.10 629.99 44.88 632.69 44.52 C 633.04 42.34 633.39 40.17 633.77 38.00 C 632.93 38.00 631.23 38.00 630.39 38.00 C 630.32 37.77 630.19 37.32 630.13 37.09 C 630.85 37.08 632.29 37.06 633.01 37.05 C 633.60 36.47 634.32 34.16 635.28 35.43 C 636.35 37.03 637.41 38.69 639.04 39.80 C 639.26 36.85 639.26 33.89 639.46 30.94 M 635.72 38.86 L 635.29 40.62 L 637.21 41.12 C 636.32 42.75 635.41 44.38 634.93 46.19 C 635.29 45.56 636.00 44.30 636.36 43.67 C 637.88 44.95 638.39 46.81 638.43 48.75 C 637.83 48.66 636.63 48.47 636.03 48.38 C 636.88 49.35 637.74 50.32 638.56 51.32 C 638.49 52.03 638.35 53.45 638.28 54.16 C 638.51 53.49 638.95 52.17 639.17 51.50 C 639.66 51.84 640.64 52.51 641.13 52.84 C 640.17 50.99 638.52 49.31 638.58 47.10 C 638.23 44.24 638.58 40.58 635.72 38.86 Z" />
<path fill="#0a0909" opacity="1.00" d=" M 669.67 33.50 C 670.19 32.94 671.21 31.83 671.72 31.27 C 671.74 33.01 671.73 34.76 671.70 36.51 L 670.67 36.20 C 667.56 35.27 668.42 40.22 671.15 39.74 C 671.16 40.62 671.20 42.38 671.22 43.26 C 667.06 42.79 662.38 43.84 658.63 41.72 C 661.26 39.70 664.67 40.61 667.73 40.56 C 667.86 39.51 668.01 38.46 668.16 37.41 L 667.98 37.46 C 664.80 37.12 661.63 36.84 658.47 36.44 L 658.79 36.00 C 659.02 35.73 659.49 35.18 659.73 34.91 C 658.65 33.40 656.51 33.59 655.48 35.04 C 654.46 35.16 653.44 35.27 652.43 35.37 C 652.44 35.86 652.46 36.85 652.47 37.35 C 649.44 36.56 646.32 36.78 643.27 37.28 C 643.18 38.04 643.00 39.55 642.91 40.30 C 642.41 41.41 641.80 42.45 641.18 43.49 C 641.58 40.15 641.70 36.72 640.74 33.46 C 650.39 33.54 660.03 33.55 669.67 33.50 Z" />
<path fill="#a8d9d7" opacity="1.00" d=" M 655.48 35.04 C 656.51 33.59 658.65 33.40 659.73 34.91 C 659.49 35.18 659.02 35.73 658.79 36.00 L 658.47 36.44 C 658.05 36.35 657.21 36.17 656.79 36.08 C 656.47 35.82 655.81 35.30 655.48 35.04 Z" />
<path fill="#d01a1e" opacity="1.00" d=" M 652.43 35.37 C 653.44 35.27 654.46 35.16 655.48 35.04 C 655.81 35.30 656.47 35.82 656.79 36.08 C 657.21 36.17 658.05 36.35 658.47 36.44 C 661.63 36.84 664.80 37.12 667.98 37.46 C 666.14 38.19 664.13 38.40 662.38 39.36 C 662.26 39.04 662.01 38.42 661.89 38.11 C 660.05 38.37 658.15 38.82 656.35 38.15 C 656.09 37.68 655.57 36.74 655.31 36.27 C 655.12 36.98 654.75 38.40 654.57 39.11 C 653.87 38.51 653.17 37.93 652.47 37.35 C 652.46 36.85 652.44 35.86 652.43 35.37 Z" />
<path fill="#080030" opacity="1.00" d=" M 676.11 34.74 C 676.50 35.16 677.26 36.01 677.64 36.44 C 679.13 36.32 680.63 36.21 682.14 36.10 C 687.00 38.14 692.54 36.53 697.27 38.97 C 698.66 40.29 697.99 42.27 697.94 43.94 C 696.80 44.47 696.22 45.65 696.03 46.83 L 695.15 46.85 C 695.24 46.20 695.41 44.89 695.50 44.23 L 695.38 43.05 C 695.32 42.45 695.21 41.26 695.16 40.66 C 695.40 41.43 695.88 42.97 696.12 43.74 C 698.57 41.04 695.41 37.99 692.31 39.26 C 692.34 40.17 692.42 42.01 692.45 42.92 L 691.96 42.88 C 691.86 41.53 691.78 40.17 691.71 38.82 C 689.13 38.70 686.57 38.51 684.02 38.25 C 684.09 38.93 684.23 40.29 684.30 40.96 C 684.10 40.73 683.69 40.26 683.49 40.02 C 683.42 39.47 683.28 38.36 683.22 37.80 C 680.98 37.67 678.75 37.52 676.53 37.36 C 677.36 39.63 677.80 42.02 677.38 44.43 C 677.22 45.17 677.06 45.91 676.90 46.65 C 676.11 47.78 675.28 48.88 674.49 50.01 C 673.63 51.50 672.42 53.07 672.96 54.89 C 673.64 58.69 674.72 62.40 675.95 66.05 C 674.55 65.66 673.14 65.26 671.76 64.87 C 671.44 59.56 669.67 54.03 671.59 48.85 L 671.69 48.48 C 676.36 48.35 674.73 42.96 674.45 39.95 C 674.03 40.39 673.19 41.28 672.77 41.72 C 672.54 41.17 672.10 40.06 671.87 39.51 C 673.25 37.89 674.75 36.38 676.11 34.74 Z" />
<path fill="#aaaaa9" opacity="1.00" d=" M 655.31 36.27 C 655.57 36.74 656.09 37.68 656.35 38.15 C 656.32 38.62 656.25 39.54 656.22 40.00 C 655.93 40.11 655.35 40.31 655.06 40.42 C 654.93 40.09 654.69 39.44 654.57 39.11 C 654.75 38.40 655.12 36.98 655.31 36.27 Z" />
<path fill="#25373d" opacity="1.00" d=" M 671.15 39.74 C 668.42 40.22 667.56 35.27 670.67 36.20 C 671.04 37.34 671.20 38.52 671.15 39.74 Z" />
<path fill="#9c3834" opacity="1.00" d=" M 670.67 36.20 L 671.70 36.51 C 671.74 37.26 671.83 38.76 671.87 39.51 C 672.10 40.06 672.54 41.17 672.77 41.72 C 672.25 42.24 671.73 42.75 671.22 43.26 C 671.20 42.38 671.16 40.62 671.15 39.74 C 671.20 38.52 671.04 37.34 670.67 36.20 Z" />
<path fill="#171511" opacity="1.00" d=" M 621.03 37.83 C 624.01 37.13 627.08 37.18 630.13 37.09 C 630.19 37.32 630.32 37.77 630.39 38.00 C 630.42 38.53 630.48 39.59 630.51 40.12 C 630.22 39.57 629.65 38.47 629.36 37.92 C 628.90 38.26 627.97 38.93 627.51 39.26 C 626.23 39.17 624.96 39.08 623.70 38.99 C 623.43 38.97 622.89 38.92 622.61 38.90 C 622.28 40.53 621.93 42.15 621.51 43.75 C 621.39 42.62 621.17 40.38 621.05 39.26 C 618.21 39.60 615.38 40.00 612.57 40.55 C 612.39 42.57 612.19 44.60 612.08 46.63 C 613.25 46.98 614.44 47.29 615.64 47.61 C 615.11 47.99 614.06 48.73 613.53 49.11 C 615.08 50.46 616.87 51.62 619.05 51.39 C 624.57 51.29 630.36 52.14 635.62 49.99 C 637.67 52.60 636.64 55.82 635.91 58.71 C 635.49 58.60 634.67 58.36 634.25 58.24 C 629.91 57.19 625.34 57.33 620.98 58.10 C 619.04 58.45 618.69 60.74 617.99 62.22 L 617.92 62.44 C 616.60 66.04 615.35 69.66 614.39 73.37 C 619.92 73.66 625.46 73.89 630.99 74.15 L 632.18 74.16 C 631.75 75.39 631.36 76.64 630.98 77.90 C 629.68 77.77 628.39 77.67 627.10 77.59 C 621.06 77.20 614.99 76.73 608.96 77.45 C 610.87 77.66 612.79 77.85 614.71 78.03 C 614.68 78.31 614.61 78.86 614.58 79.14 C 613.11 79.08 611.65 79.02 610.20 78.96 C 609.49 79.52 608.79 80.08 608.09 80.64 C 608.67 80.94 609.81 81.53 610.39 81.83 C 608.09 81.89 605.80 81.91 603.52 81.88 C 604.72 81.28 605.93 80.68 607.15 80.07 C 604.98 79.41 603.13 80.67 601.36 81.73 C 600.27 82.24 599.20 82.77 598.15 83.30 C 597.62 83.16 596.55 82.89 596.02 82.75 C 598.70 81.47 601.47 80.34 604.05 78.86 C 604.14 78.36 604.30 77.34 604.39 76.84 L 604.55 77.06 C 605.03 77.15 605.99 77.32 606.47 77.41 C 606.96 77.16 607.95 76.66 608.44 76.41 C 610.95 69.21 613.42 62.01 615.93 54.81 C 614.54 52.21 612.32 50.21 610.51 47.93 C 610.67 44.62 610.88 41.32 610.95 38.02 C 614.12 39.82 617.73 38.41 621.03 37.83 Z" />
<path fill="#b46c2d" opacity="1.00" d=" M 643.27 37.28 C 646.32 36.78 649.44 36.56 652.47 37.35 C 653.17 37.93 653.87 38.51 654.57 39.11 C 654.69 39.44 654.93 40.09 655.06 40.42 C 654.67 40.55 653.90 40.81 653.51 40.94 C 650.03 40.19 646.45 40.17 642.91 40.30 C 643.00 39.55 643.18 38.04 643.27 37.28 Z" />
<path fill="#a1a227" opacity="1.00" d=" M 667.98 37.46 L 668.16 37.41 C 668.01 38.46 667.86 39.51 667.73 40.56 C 664.67 40.61 661.26 39.70 658.63 41.72 L 658.24 41.42 C 657.61 40.87 656.94 40.40 656.22 40.00 C 656.25 39.54 656.32 38.62 656.35 38.15 C 658.15 38.82 660.05 38.37 661.89 38.11 C 662.01 38.42 662.26 39.04 662.38 39.36 C 664.13 38.40 666.14 38.19 667.98 37.46 Z" />
<path fill="#c8a76f" opacity="1.00" d=" M 630.39 38.00 C 631.23 38.00 632.93 38.00 633.77 38.00 C 633.39 40.17 633.04 42.34 632.69 44.52 C 629.99 44.88 627.06 46.10 624.59 44.41 C 624.32 44.76 623.78 45.48 623.51 45.83 C 619.66 45.28 615.90 46.50 612.08 46.63 C 612.19 44.60 612.39 42.57 612.57 40.55 C 615.38 40.00 618.21 39.60 621.05 39.26 C 621.17 40.38 621.39 42.62 621.51 43.75 C 621.93 42.15 622.28 40.53 622.61 38.90 C 622.89 38.92 623.43 38.97 623.70 38.99 C 625.13 40.25 626.08 41.91 627.16 43.45 C 628.33 42.88 629.46 42.21 630.61 41.56 C 630.58 41.20 630.53 40.48 630.51 40.12 C 630.48 39.59 630.42 38.53 630.39 38.00 Z" />
<path fill="#c384d8" opacity="1.00" d=" M 676.53 37.36 C 678.75 37.52 680.98 37.67 683.22 37.80 C 683.28 38.36 683.42 39.47 683.49 40.02 C 682.72 40.07 681.18 40.17 680.41 40.22 C 680.16 42.24 680.12 44.65 677.38 44.43 C 677.80 42.02 677.36 39.63 676.53 37.36 Z" />
<path fill="#e5dade" opacity="1.00" d=" M 684.02 38.25 C 686.57 38.51 689.13 38.70 691.71 38.82 C 691.78 40.17 691.86 41.53 691.96 42.88 C 691.67 42.84 691.08 42.77 690.79 42.73 C 690.25 42.07 689.17 40.76 688.63 40.10 C 688.92 41.80 689.14 43.51 689.29 45.23 C 688.08 44.59 686.97 43.84 685.98 42.93 C 686.41 44.12 686.84 45.32 687.27 46.52 C 686.74 46.40 685.66 46.18 685.12 46.07 C 685.03 45.43 684.85 44.15 684.76 43.51 C 683.62 43.54 682.48 43.58 681.35 43.61 C 681.34 43.34 681.33 42.80 681.32 42.54 C 682.62 42.50 683.93 42.46 685.25 42.42 C 685.01 42.06 684.54 41.33 684.30 40.96 C 684.23 40.29 684.09 38.93 684.02 38.25 Z" />
<path fill="#191c17" opacity="1.00" d=" M 696.94 38.53 C 697.45 38.33 698.48 37.91 699.00 37.71 C 699.53 41.10 699.77 44.55 699.58 47.98 C 698.02 50.39 695.40 52.10 694.54 54.95 C 696.00 61.58 699.65 67.45 700.97 74.12 C 700.88 75.25 700.77 76.38 700.66 77.51 C 700.35 77.53 699.73 77.58 699.43 77.60 C 696.38 77.12 693.30 76.81 690.21 76.89 C 686.55 76.92 682.88 76.88 679.23 76.87 C 678.76 74.30 678.23 71.72 677.29 69.27 C 676.83 68.20 676.38 67.13 675.95 66.05 C 674.72 62.40 673.64 58.69 672.96 54.89 C 672.42 53.07 673.63 51.50 674.49 50.01 C 674.76 52.45 676.20 53.93 678.67 53.71 C 683.83 53.09 689.78 55.66 694.33 52.41 C 695.93 50.73 697.30 48.78 697.91 46.51 C 697.92 45.87 697.93 44.58 697.94 43.94 C 697.99 42.27 698.66 40.29 697.27 38.97 L 696.94 38.53 M 675.58 57.63 C 676.23 63.20 678.33 68.43 680.21 73.67 C 682.48 73.64 684.75 73.66 687.03 73.64 C 686.91 73.35 686.68 72.79 686.56 72.50 C 687.81 72.65 689.11 72.75 690.35 72.40 L 689.96 72.99 C 691.96 73.03 693.98 73.04 696.00 73.02 C 695.46 69.82 694.65 66.65 693.42 63.63 C 692.49 61.38 691.80 58.66 689.27 57.70 C 688.80 57.74 687.86 57.81 687.39 57.84 C 683.66 56.23 679.43 56.84 675.58 57.63 Z" />
<path fill="#e1ce88" opacity="1.00" d=" M 623.70 38.99 C 624.96 39.08 626.23 39.17 627.51 39.26 C 627.97 38.93 628.90 38.26 629.36 37.92 C 629.65 38.47 630.22 39.57 630.51 40.12 C 630.53 40.48 630.58 41.20 630.61 41.56 C 629.46 42.21 628.33 42.88 627.16 43.45 C 626.08 41.91 625.13 40.25 623.70 38.99 Z" />
<path fill="#646462" opacity="1.00" d=" M 456.53 58.64 C 464.33 52.06 472.83 46.28 481.03 40.21 C 487.95 41.16 494.84 42.72 501.72 44.05 C 499.71 46.04 497.55 47.88 495.27 49.54 C 496.61 49.76 497.95 49.99 499.30 50.22 C 498.50 51.36 498.45 53.42 496.99 53.87 C 493.92 53.64 491.03 52.29 487.95 52.33 C 485.05 52.61 482.29 53.58 479.48 54.28 C 479.48 54.87 479.46 56.04 479.45 56.62 C 476.73 55.20 475.42 52.55 475.56 49.52 C 475.32 50.86 475.06 52.20 474.81 53.54 C 473.48 53.80 471.74 53.61 471.06 55.08 C 470.67 59.64 473.23 64.02 477.27 66.17 C 471.20 64.79 465.99 61.03 459.85 59.90 C 457.17 59.82 454.48 59.87 451.80 59.88 C 453.36 59.44 454.95 59.07 456.53 58.64 M 480.29 42.21 C 477.28 43.70 481.35 45.10 482.49 43.28 C 483.80 41.84 481.06 41.39 480.29 42.21 M 461.71 57.54 C 463.91 58.82 466.45 59.22 468.91 59.75 C 469.30 57.45 467.30 56.00 465.91 54.54 C 464.50 55.53 463.10 56.52 461.71 57.54 Z" />
<path fill="#c8a76f" opacity="1.00" d=" M 635.72 38.86 C 638.58 40.58 638.23 44.24 638.58 47.10 C 638.52 49.31 640.17 50.99 641.13 52.84 C 640.64 52.51 639.66 51.84 639.17 51.50 C 638.95 52.17 638.51 53.49 638.28 54.16 C 638.35 53.45 638.49 52.03 638.56 51.32 C 637.74 50.32 636.88 49.35 636.03 48.38 C 636.63 48.47 637.83 48.66 638.43 48.75 C 638.39 46.81 637.88 44.95 636.36 43.67 C 636.00 44.30 635.29 45.56 634.93 46.19 C 635.41 44.38 636.32 42.75 637.21 41.12 L 635.29 40.62 L 635.72 38.86 Z" />
<path fill="#191a14" opacity="1.00" d=" M 642.91 40.30 C 646.45 40.17 650.03 40.19 653.51 40.94 L 653.19 41.51 C 651.67 42.14 650.16 42.74 648.66 43.39 C 650.44 43.39 652.23 43.40 654.02 43.21 C 654.31 43.02 654.88 42.63 655.17 42.44 C 655.94 42.19 657.47 41.68 658.24 41.42 L 658.63 41.72 C 662.38 43.84 667.06 42.79 671.22 43.26 C 671.73 42.75 672.25 42.24 672.77 41.72 C 673.19 41.28 674.03 40.39 674.45 39.95 C 674.73 42.96 676.36 48.35 671.69 48.48 L 671.32 48.56 L 671.27 48.87 L 671.59 48.85 C 669.67 54.03 671.44 59.56 671.76 64.87 L 671.89 65.93 C 671.87 66.63 671.84 68.05 671.82 68.76 C 671.86 70.95 672.00 73.14 672.18 75.33 C 672.21 75.80 672.27 76.74 672.30 77.21 C 672.96 78.09 673.62 78.97 674.30 79.85 C 674.09 80.64 673.67 82.22 673.47 83.01 C 673.36 82.81 673.16 82.40 673.06 82.19 C 672.16 81.04 671.49 79.37 669.94 79.00 C 666.56 78.65 663.17 79.04 659.79 78.95 C 654.83 78.78 649.87 78.57 644.92 78.94 C 643.24 79.04 641.57 79.14 639.91 79.23 C 640.53 72.94 640.92 66.63 641.15 60.32 C 643.25 54.75 640.60 49.12 641.18 43.49 C 641.80 42.45 642.41 41.41 642.91 40.30 M 673.25 43.51 C 672.37 44.77 672.54 45.59 673.78 45.95 C 674.65 44.69 674.48 43.87 673.25 43.51 M 644.87 51.28 C 651.91 51.18 658.97 51.38 666.00 51.16 C 669.33 51.14 669.15 47.11 670.00 44.80 C 661.00 44.48 651.97 44.45 642.97 44.72 C 639.98 46.31 643.95 49.36 644.87 51.28 M 645.11 57.05 C 644.79 59.88 643.27 63.29 645.02 65.87 L 644.70 67.20 L 644.14 67.26 C 643.78 69.72 643.68 72.22 644.05 74.69 C 651.89 74.65 659.74 75.06 667.57 74.54 C 667.65 72.42 667.71 70.31 667.76 68.19 C 665.77 67.81 663.80 67.33 661.79 67.22 C 663.35 67.21 664.92 67.19 666.50 67.16 C 666.09 65.94 665.69 64.72 665.30 63.49 C 664.96 63.48 664.30 63.46 663.96 63.45 C 664.70 63.32 666.17 63.04 666.91 62.91 C 666.76 61.16 666.98 59.32 666.35 57.66 C 664.94 56.29 662.83 56.33 661.03 56.10 C 655.71 55.79 650.34 55.99 645.11 57.05 Z" />
<path fill="#b6363e" opacity="1.00" d=" M 656.22 40.00 C 656.94 40.40 657.61 40.87 658.24 41.42 C 657.47 41.68 655.94 42.19 655.17 42.44 C 654.68 42.21 653.69 41.74 653.19 41.51 L 653.51 40.94 C 653.90 40.81 654.67 40.55 655.06 40.42 C 655.35 40.31 655.93 40.11 656.22 40.00 Z" />
<path fill="#874f9d" opacity="1.00" d=" M 680.41 40.22 C 681.18 40.17 682.72 40.07 683.49 40.02 C 683.69 40.26 684.10 40.73 684.30 40.96 C 684.54 41.33 685.01 42.06 685.25 42.42 C 683.93 42.46 682.62 42.50 681.32 42.54 C 681.33 42.80 681.34 43.34 681.35 43.61 C 682.48 43.58 683.62 43.54 684.76 43.51 C 684.85 44.15 685.03 45.43 685.12 46.07 C 683.14 45.90 681.17 45.84 679.20 45.78 C 678.75 45.44 677.84 44.77 677.38 44.43 C 680.12 44.65 680.16 42.24 680.41 40.22 Z" />
<path fill="#aa67ca" opacity="1.00" d=" M 692.31 39.26 C 695.41 37.99 698.57 41.04 696.12 43.74 C 695.88 42.97 695.40 41.43 695.16 40.66 C 695.21 41.26 695.32 42.45 695.38 43.05 C 694.65 43.02 693.18 42.95 692.45 42.92 C 692.42 42.01 692.34 40.17 692.31 39.26 Z" />
<path fill="#9c8498" opacity="1.00" d=" M 688.63 40.10 C 689.17 40.76 690.25 42.07 690.79 42.73 C 691.08 42.77 691.67 42.84 691.96 42.88 L 692.45 42.92 C 693.18 42.95 694.65 43.02 695.38 43.05 L 695.50 44.23 C 693.99 43.61 692.09 45.40 693.29 46.82 C 691.96 46.83 690.63 46.86 689.32 46.92 C 689.31 46.35 689.29 45.79 689.29 45.23 C 689.14 43.51 688.92 41.80 688.63 40.10 Z" />
<path fill="#474746" opacity="1.00" d=" M 480.29 42.21 C 481.06 41.39 483.80 41.84 482.49 43.28 C 481.35 45.10 477.28 43.70 480.29 42.21 Z" />
<path fill="#a8d9d7" opacity="1.00" d=" M 648.66 43.39 C 650.16 42.74 651.67 42.14 653.19 41.51 C 653.69 41.74 654.68 42.21 655.17 42.44 C 654.88 42.63 654.31 43.02 654.02 43.21 C 652.23 43.40 650.44 43.39 648.66 43.39 Z" />
<path fill="#947e7c" opacity="1.00" d=" M 673.25 43.51 C 674.48 43.87 674.65 44.69 673.78 45.95 C 672.54 45.59 672.37 44.77 673.25 43.51 Z" />
<path fill="#3f3f40" opacity="1.00" d=" M 685.98 42.93 C 686.97 43.84 688.08 44.59 689.29 45.23 C 689.29 45.79 689.31 46.35 689.32 46.92 C 690.63 46.86 691.96 46.83 693.29 46.82 C 693.75 46.83 694.68 46.85 695.15 46.85 L 696.03 46.83 C 696.50 46.75 697.44 46.59 697.91 46.51 C 697.30 48.78 695.93 50.73 694.33 52.41 C 688.72 51.20 682.98 50.65 677.24 50.70 C 677.10 49.35 676.99 48.00 676.90 46.65 C 677.06 45.91 677.22 45.17 677.38 44.43 C 677.84 44.77 678.75 45.44 679.20 45.78 C 681.17 45.84 683.14 45.90 685.12 46.07 C 685.66 46.18 686.74 46.40 687.27 46.52 C 686.84 45.32 686.41 44.12 685.98 42.93 Z" />
<path fill="#5b5b5a" opacity="1.00" d=" M 501.72 44.05 C 510.30 46.01 518.59 49.08 527.13 51.25 C 525.97 53.35 525.22 55.63 525.10 58.03 C 527.38 56.72 529.28 54.88 530.81 52.74 C 531.51 52.88 532.93 53.16 533.63 53.30 C 525.92 59.51 518.95 66.57 511.83 73.44 C 511.33 73.63 510.33 74.02 509.83 74.21 C 505.18 72.80 500.49 71.55 495.74 70.54 C 497.22 69.91 498.70 69.27 500.21 68.71 C 500.52 68.65 501.13 68.55 501.44 68.50 C 504.11 69.29 506.69 70.79 509.54 70.74 C 511.01 69.76 512.17 68.41 513.39 67.14 C 512.46 67.05 510.60 66.87 509.67 66.77 C 514.21 63.29 519.19 60.17 522.83 55.68 C 523.68 53.62 521.14 52.47 519.61 51.86 C 518.90 51.24 518.20 50.62 517.51 50.00 C 514.87 54.73 510.50 59.06 504.92 59.81 C 496.39 61.11 487.19 60.80 479.45 56.62 C 479.46 56.04 479.48 54.87 479.48 54.28 C 482.29 53.58 485.05 52.61 487.95 52.33 C 491.03 52.29 493.92 53.64 496.99 53.87 C 498.45 53.42 498.50 51.36 499.30 50.22 C 497.95 49.99 496.61 49.76 495.27 49.54 C 497.55 47.88 499.71 46.04 501.72 44.05 Z" />
<path fill="#cd8cd7" opacity="1.00" d=" M 693.29 46.82 C 692.09 45.40 693.99 43.61 695.50 44.23 C 695.41 44.89 695.24 46.20 695.15 46.85 C 694.68 46.85 693.75 46.83 693.29 46.82 Z" />
<path fill="#9f45d6" opacity="1.00" d=" M 696.03 46.83 C 696.22 45.65 696.80 44.47 697.94 43.94 C 697.93 44.58 697.92 45.87 697.91 46.51 C 697.44 46.59 696.50 46.75 696.03 46.83 Z" />
<path fill="#302b2a" opacity="1.00" d=" M 612.08 46.63 C 615.90 46.50 619.66 45.28 623.51 45.83 C 626.54 46.31 629.62 46.22 632.67 46.47 C 633.90 47.40 634.72 48.75 635.62 49.99 C 630.36 52.14 624.57 51.29 619.05 51.39 C 616.87 51.62 615.08 50.46 613.53 49.11 C 614.06 48.73 615.11 47.99 615.64 47.61 C 614.44 47.29 613.25 46.98 612.08 46.63 Z" />
<path fill="#3c3a39" opacity="1.00" d=" M 644.87 51.28 C 643.95 49.36 639.98 46.31 642.97 44.72 C 651.97 44.45 661.00 44.48 670.00 44.80 C 669.15 47.11 669.33 51.14 666.00 51.16 C 658.97 51.38 651.91 51.18 644.87 51.28 Z" />
<path fill="#2e2e2c" opacity="1.00" d=" M 674.49 50.01 C 675.28 48.88 676.11 47.78 676.90 46.65 C 676.99 48.00 677.10 49.35 677.24 50.70 C 682.98 50.65 688.72 51.20 694.33 52.41 C 689.78 55.66 683.83 53.09 678.67 53.71 C 676.20 53.93 674.76 52.45 674.49 50.01 Z" />
<path fill="#6a6077" opacity="1.00" d=" M 671.32 48.56 L 671.69 48.48 L 671.59 48.85 L 671.27 48.87 L 671.32 48.56 Z" />
<path fill="#3d3b3b" opacity="1.00" d=" M 474.81 53.54 C 475.06 52.20 475.32 50.86 475.56 49.52 C 475.42 52.55 476.73 55.20 479.45 56.62 C 487.19 60.80 496.39 61.11 504.92 59.81 C 510.50 59.06 514.87 54.73 517.51 50.00 C 518.20 50.62 518.90 51.24 519.61 51.86 C 516.58 55.85 512.48 58.77 508.37 61.53 C 505.21 61.05 502.04 61.36 498.94 61.99 C 499.06 63.82 499.20 65.66 499.32 67.50 C 497.07 67.97 494.76 68.05 492.48 67.94 C 492.81 65.97 493.17 64.00 493.53 62.03 C 490.03 61.10 486.49 60.06 482.83 60.17 C 481.24 61.56 480.93 63.80 480.20 65.68 C 482.36 66.43 484.50 67.24 486.72 67.84 C 491.10 69.09 495.71 68.59 500.21 68.71 C 498.70 69.27 497.22 69.91 495.74 70.54 C 500.49 71.55 505.18 72.80 509.83 74.21 C 509.80 76.26 509.93 78.31 510.11 80.35 C 512.48 78.80 511.71 75.82 511.83 73.44 C 518.95 66.57 525.92 59.51 533.63 53.30 C 533.83 57.28 533.88 61.28 533.58 65.26 C 529.88 66.88 528.47 71.75 524.14 72.30 C 529.82 74.71 535.91 75.85 541.72 77.87 L 541.85 79.51 C 539.28 78.74 536.73 77.75 534.05 77.49 C 531.67 78.10 529.67 79.63 527.58 80.84 C 523.42 80.24 518.92 78.92 514.89 80.71 C 506.45 85.45 498.04 90.28 489.60 95.01 C 491.73 97.20 493.79 99.46 495.81 101.75 C 493.81 103.21 491.84 104.72 489.91 106.28 C 490.77 107.31 491.62 108.36 492.48 109.41 L 491.00 109.05 C 490.09 108.29 489.27 107.43 488.46 106.59 L 488.74 106.25 C 487.00 104.33 484.38 103.71 482.10 102.70 C 480.88 102.14 479.70 101.50 478.52 100.88 C 478.71 104.45 478.95 108.14 477.85 111.59 C 477.36 111.88 476.37 112.44 475.87 112.73 C 475.63 107.88 475.28 102.89 476.08 98.10 C 484.36 93.37 492.81 88.84 501.42 84.73 C 502.28 84.22 503.13 83.68 503.98 83.15 C 499.25 81.99 494.84 79.79 490.07 78.78 C 490.63 77.75 491.66 76.86 491.66 75.60 C 489.41 74.50 486.93 74.11 484.49 73.75 C 485.30 74.96 486.14 76.17 487.00 77.36 C 486.22 77.24 484.68 77.01 483.91 76.89 C 483.34 76.73 482.21 76.43 481.65 76.27 C 481.58 75.74 481.45 74.67 481.38 74.14 C 481.76 73.69 482.53 72.80 482.91 72.35 C 480.43 71.06 477.82 69.82 474.98 69.70 C 473.15 70.58 471.38 74.23 469.57 71.27 C 469.04 71.48 468.00 71.90 467.48 72.11 C 466.14 67.37 463.45 63.24 459.85 59.90 C 465.99 61.03 471.20 64.79 477.27 66.17 C 473.23 64.02 470.67 59.64 471.06 55.08 C 471.74 53.61 473.48 53.80 474.81 53.54 M 481.41 101.07 C 483.61 100.59 487.98 102.36 488.24 99.02 C 485.92 99.06 481.98 97.80 481.41 101.07 Z" />
<path fill="#464645" opacity="0.94" d=" M 527.13 51.25 C 528.47 51.59 529.81 51.93 531.17 52.28 L 530.81 52.74 C 529.28 54.88 527.38 56.72 525.10 58.03 C 525.22 55.63 525.97 53.35 527.13 51.25 Z" />
<path fill="#272526" opacity="1.00" d=" M 519.61 51.86 C 521.14 52.47 523.68 53.62 522.83 55.68 C 519.19 60.17 514.21 63.29 509.67 66.77 C 506.85 66.96 504.13 67.73 501.44 68.50 C 501.13 68.55 500.52 68.65 500.21 68.71 C 495.71 68.59 491.10 69.09 486.72 67.84 C 488.63 67.88 490.56 67.88 492.48 67.94 C 494.76 68.05 497.07 67.97 499.32 67.50 C 502.46 66.87 505.59 66.24 508.74 65.62 C 508.61 64.26 508.47 62.89 508.37 61.53 C 512.48 58.77 516.58 55.85 519.61 51.86 Z" />
<path fill="#ffff26" opacity="1.00" d=" M 639.53 58.25 C 639.94 56.77 640.34 55.30 640.75 53.83 C 640.58 55.29 640.42 56.76 640.30 58.23 C 639.42 59.93 638.42 61.56 637.43 63.19 C 637.96 63.65 639.03 64.56 639.56 65.02 C 639.49 65.89 639.37 67.63 639.30 68.50 C 638.15 67.39 636.97 66.29 636.16 64.90 C 637.50 63.54 638.05 61.55 637.36 59.74 C 638.07 59.23 638.79 58.73 639.53 58.25 Z" />
<path fill="#acacaa" opacity="1.00" d=" M 461.71 57.54 C 463.10 56.52 464.50 55.53 465.91 54.54 C 467.30 56.00 469.30 57.45 468.91 59.75 C 466.45 59.22 463.91 58.82 461.71 57.54 Z" />
<path fill="#030031" opacity="1.00" d=" M 645.11 57.05 C 650.34 55.99 655.71 55.79 661.03 56.10 C 662.83 56.33 664.94 56.29 666.35 57.66 C 666.98 59.32 666.76 61.16 666.91 62.91 C 666.17 63.04 664.70 63.32 663.96 63.45 C 661.51 63.51 659.14 62.91 656.86 62.09 L 656.13 61.87 C 656.04 62.59 655.85 64.03 655.76 64.75 C 655.77 65.40 655.81 66.72 655.83 67.38 C 656.25 68.79 656.86 68.74 657.67 67.22 C 659.04 67.21 660.41 67.21 661.79 67.22 C 663.80 67.33 665.77 67.81 667.76 68.19 C 667.71 70.31 667.65 72.42 667.57 74.54 C 659.74 75.06 651.89 74.65 644.05 74.69 C 643.68 72.22 643.78 69.72 644.14 67.26 L 644.70 67.20 C 648.06 66.74 651.50 66.58 654.77 67.69 L 655.04 67.76 C 655.16 66.08 655.40 64.34 654.87 62.71 C 653.87 60.76 653.32 63.73 653.68 64.50 C 652.54 64.40 651.58 64.76 650.80 65.58 C 650.40 65.23 649.61 64.54 649.22 64.19 C 648.80 64.27 647.95 64.41 647.53 64.48 C 647.00 62.20 644.00 64.18 645.02 65.87 C 643.27 63.29 644.79 59.88 645.11 57.05 M 646.52 59.11 C 646.66 60.47 647.35 60.69 648.58 59.78 C 648.42 58.42 647.73 58.20 646.52 59.11 M 651.43 69.15 C 650.54 71.14 654.37 71.61 654.75 69.77 C 654.44 68.42 652.31 68.36 651.43 69.15 Z" />
<path fill="#0e1010" opacity="1.00" d=" M 675.58 57.63 C 679.43 56.84 683.66 56.23 687.39 57.84 C 685.97 57.95 684.56 58.05 683.15 58.15 C 682.63 58.64 682.12 59.13 681.62 59.62 C 680.38 58.94 679.13 58.28 677.88 57.63 C 678.89 61.12 679.85 64.63 680.22 68.25 C 680.94 68.13 682.39 67.90 683.11 67.78 L 684.09 67.66 C 684.30 68.29 684.71 69.55 684.92 70.18 C 685.42 70.97 685.97 71.75 686.56 72.50 C 686.68 72.79 686.91 73.35 687.03 73.64 C 684.75 73.66 682.48 73.64 680.21 73.67 C 678.33 68.43 676.23 63.20 675.58 57.63 Z" />
<path fill="#700e1a" opacity="1.00" d=" M 617.99 62.22 C 618.69 60.74 619.04 58.45 620.98 58.10 C 625.34 57.33 629.91 57.19 634.25 58.24 C 633.94 60.23 633.62 62.22 633.22 64.19 C 633.07 63.80 632.78 63.01 632.64 62.62 C 632.03 62.52 631.43 62.43 630.84 62.36 C 630.73 61.28 630.51 59.12 630.40 58.04 C 629.68 59.17 629.06 60.36 628.51 61.57 C 627.87 60.63 627.24 59.68 626.63 58.73 C 623.43 58.29 620.54 59.87 619.24 62.81 C 618.93 62.66 618.30 62.37 617.99 62.22 Z" />
<path fill="#392f2c" opacity="1.00" d=" M 677.88 57.63 C 679.13 58.28 680.38 58.94 681.62 59.62 C 682.12 59.13 682.63 58.64 683.15 58.15 C 684.56 58.05 685.97 57.95 687.39 57.84 C 687.86 57.81 688.80 57.74 689.27 57.70 C 689.69 59.67 690.10 61.64 690.50 63.62 C 691.55 64.81 692.61 66.00 693.68 67.18 C 692.56 68.92 691.49 70.68 690.35 72.40 C 689.11 72.75 687.81 72.65 686.56 72.50 C 685.97 71.75 685.42 70.97 684.92 70.18 L 685.09 67.96 C 686.42 68.91 687.76 69.88 689.10 70.84 C 691.96 65.74 683.83 64.21 684.06 59.29 C 683.82 59.35 683.36 59.47 683.12 59.53 C 684.08 61.72 686.76 63.69 686.24 66.18 C 685.78 66.11 684.86 65.98 684.40 65.91 C 684.27 66.14 684.01 66.60 683.88 66.83 C 683.32 66.33 682.21 65.31 681.66 64.81 C 682.12 65.81 682.60 66.80 683.11 67.78 C 682.39 67.90 680.94 68.13 680.22 68.25 C 679.85 64.63 678.89 61.12 677.88 57.63 M 687.19 59.11 C 685.87 59.28 685.77 61.62 687.16 61.76 C 688.47 61.64 688.58 59.18 687.19 59.11 Z" />
<path fill="#030102" opacity="1.00" d=" M 689.27 57.70 C 691.80 58.66 692.49 61.38 693.42 63.63 C 694.65 66.65 695.46 69.82 696.00 73.02 C 693.98 73.04 691.96 73.03 689.96 72.99 L 690.35 72.40 C 691.49 70.68 692.56 68.92 693.68 67.18 C 692.61 66.00 691.55 64.81 690.50 63.62 C 690.10 61.64 689.69 59.67 689.27 57.70 Z" />
<path fill="#b76b43" opacity="1.00" d=" M 628.51 61.57 C 629.06 60.36 629.68 59.17 630.40 58.04 C 630.51 59.12 630.73 61.28 630.84 62.36 L 630.24 62.31 C 630.24 63.40 630.29 64.50 630.26 65.60 C 627.85 65.22 625.39 65.18 623.16 66.28 C 622.82 65.99 622.13 65.42 621.79 65.14 C 620.87 65.31 619.96 65.48 619.05 65.64 C 618.66 64.58 618.28 63.51 617.92 62.44 L 617.99 62.22 C 618.30 62.37 618.93 62.66 619.24 62.81 C 620.54 59.87 623.43 58.29 626.63 58.73 C 627.24 59.68 627.87 60.63 628.51 61.57 Z" />
<path fill="#573015" opacity="1.00" d=" M 637.43 63.19 C 638.42 61.56 639.42 59.93 640.30 58.23 L 641.15 60.32 C 640.92 66.63 640.53 72.94 639.91 79.23 C 639.18 80.74 638.29 82.17 637.42 83.60 L 638.62 83.49 C 638.11 84.60 637.47 85.62 636.67 86.55 C 636.46 86.87 636.03 87.50 635.82 87.81 C 635.47 88.39 634.79 89.55 634.44 90.12 C 636.42 90.35 638.43 90.59 640.43 90.68 L 639.45 90.68 C 637.79 90.71 636.13 90.74 634.48 90.77 C 634.48 93.22 634.53 95.67 634.62 98.13 C 635.38 98.24 636.90 98.47 637.65 98.59 C 637.73 101.98 637.77 105.38 637.63 108.77 C 636.53 110.37 635.55 112.04 634.69 113.78 C 634.16 114.77 633.61 115.76 633.04 116.73 C 630.96 113.88 631.60 110.26 631.92 106.99 C 632.69 101.28 632.27 95.45 633.57 89.80 C 633.70 89.09 633.85 88.38 634.01 87.68 C 636.23 83.25 638.36 78.69 639.20 73.77 C 639.29 73.19 639.48 72.03 639.57 71.45 C 637.23 72.79 635.24 74.69 634.40 77.31 C 634.32 77.71 634.15 78.50 634.06 78.89 C 633.22 79.09 632.39 79.28 631.56 79.46 L 630.53 79.41 L 630.98 77.90 C 631.36 76.64 631.75 75.39 632.18 74.16 C 633.66 70.19 634.45 66.01 635.86 62.02 C 635.94 62.74 636.09 64.18 636.16 64.90 C 636.97 66.29 638.15 67.39 639.30 68.50 C 639.37 67.63 639.49 65.89 639.56 65.02 C 639.03 64.56 637.96 63.65 637.43 63.19 Z" />
<path fill="#1c2960" opacity="1.00" d=" M 646.52 59.11 C 647.73 58.20 648.42 58.42 648.58 59.78 C 647.35 60.69 646.66 60.47 646.52 59.11 Z" />
<path fill="#bfadb2" opacity="1.00" d=" M 683.12 59.53 C 683.36 59.47 683.82 59.35 684.06 59.29 C 683.83 64.21 691.96 65.74 689.10 70.84 C 687.76 69.88 686.42 68.91 685.09 67.96 L 684.92 70.18 C 684.71 69.55 684.30 68.29 684.09 67.66 L 683.11 67.78 C 682.60 66.80 682.12 65.81 681.66 64.81 C 682.21 65.31 683.32 66.33 683.88 66.83 C 684.01 66.60 684.27 66.14 684.40 65.91 C 684.86 65.98 685.78 66.11 686.24 66.18 C 686.76 63.69 684.08 61.72 683.12 59.53 Z" />
<path fill="#76545d" opacity="1.00" d=" M 687.19 59.11 C 688.58 59.18 688.47 61.64 687.16 61.76 C 685.77 61.62 685.87 59.28 687.19 59.11 Z" />
<path fill="#201f1f" opacity="1.00" d=" M 443.37 63.55 C 446.25 62.49 448.88 60.82 451.80 59.88 C 454.48 59.87 457.17 59.82 459.85 59.90 C 463.45 63.24 466.14 67.37 467.48 72.11 C 468.00 71.90 469.04 71.48 469.57 71.27 C 471.38 74.23 473.15 70.58 474.98 69.70 C 477.82 69.82 480.43 71.06 482.91 72.35 C 482.53 72.80 481.76 73.69 481.38 74.14 C 481.45 74.67 481.58 75.74 481.65 76.27 C 476.74 76.50 472.00 78.10 467.88 80.75 C 463.32 83.68 457.87 84.49 452.56 84.62 C 451.59 83.04 451.04 81.28 450.54 79.52 C 447.58 79.83 444.83 81.67 441.74 81.62 C 441.42 84.42 437.97 83.38 435.98 83.54 C 428.71 82.70 425.66 73.20 429.36 67.47 C 431.48 64.26 435.61 64.32 438.99 63.76 C 440.37 63.65 441.74 63.57 443.13 63.49 C 442.89 64.45 442.66 65.41 442.44 66.38 C 442.89 66.80 443.81 67.65 444.26 68.07 C 443.89 68.23 443.15 68.54 442.78 68.70 C 442.31 68.82 441.37 69.07 440.90 69.20 C 440.60 68.82 439.98 68.06 439.67 67.69 C 439.61 67.62 439.49 67.49 439.43 67.42 L 439.26 67.67 C 436.86 69.17 434.51 70.77 432.34 72.58 C 432.59 71.69 433.07 69.89 433.32 69.00 C 432.12 69.31 430.90 69.40 429.97 68.45 C 429.58 70.72 429.08 72.97 428.54 75.21 C 429.49 76.58 430.45 77.95 431.49 79.26 L 432.01 79.28 C 432.72 79.00 433.43 78.71 434.14 78.41 C 439.56 81.21 444.82 76.96 450.20 76.22 C 453.95 75.21 458.10 75.37 461.58 73.60 C 464.56 71.56 463.72 67.79 461.98 65.26 C 461.65 65.48 461.00 65.92 460.67 66.14 C 459.67 65.08 458.67 64.03 457.62 63.02 C 457.29 62.77 456.65 62.25 456.32 61.99 C 454.99 60.21 452.19 61.75 453.15 63.82 C 451.22 63.35 449.31 63.76 447.68 64.85 C 446.24 64.41 444.81 63.96 443.37 63.55 M 435.09 66.22 C 433.60 69.28 438.36 66.37 435.09 66.22 M 464.84 73.38 C 463.90 74.80 462.83 76.13 461.65 77.36 C 458.91 77.65 456.23 78.29 453.51 78.68 C 453.43 80.02 453.37 81.37 453.31 82.71 C 456.48 83.07 459.76 82.96 462.77 81.79 C 466.73 80.50 471.17 78.20 472.05 73.72 C 469.65 73.55 467.24 73.45 464.84 73.38 Z" />
<path fill="#777776" opacity="1.00" d=" M 480.20 65.68 C 480.93 63.80 481.24 61.56 482.83 60.17 C 486.49 60.06 490.03 61.10 493.53 62.03 C 493.17 64.00 492.81 65.97 492.48 67.94 C 490.56 67.88 488.63 67.88 486.72 67.84 C 484.50 67.24 482.36 66.43 480.20 65.68 M 484.15 62.36 C 483.02 63.14 484.04 65.81 485.24 64.22 C 486.26 63.43 485.40 60.95 484.15 62.36 Z" />
<path fill="#e5dade" opacity="1.00" d=" M 635.86 62.02 C 636.23 61.45 636.98 60.31 637.36 59.74 C 638.05 61.55 637.50 63.54 636.16 64.90 C 636.09 64.18 635.94 62.74 635.86 62.02 Z" />
<path fill="#546b95" opacity="1.00" d=" M 453.15 63.82 C 452.19 61.75 454.99 60.21 456.32 61.99 C 456.37 63.69 454.51 64.31 453.15 63.82 Z" />
<path fill="#5e5f5d" opacity="1.00" d=" M 498.94 61.99 C 502.04 61.36 505.21 61.05 508.37 61.53 C 508.47 62.89 508.61 64.26 508.74 65.62 C 505.59 66.24 502.46 66.87 499.32 67.50 C 499.20 65.66 499.06 63.82 498.94 61.99 Z" />
<path fill="#3a3a3a" opacity="1.00" d=" M 456.32 61.99 C 456.65 62.25 457.29 62.77 457.62 63.02 C 457.45 63.53 457.13 64.53 456.97 65.03 C 456.37 65.70 455.76 66.37 455.15 67.04 C 454.42 66.42 453.69 65.82 452.96 65.22 C 451.77 63.66 449.82 65.25 450.07 66.82 C 448.63 69.92 444.64 71.86 446.08 75.78 C 447.45 75.94 448.82 76.09 450.20 76.22 C 444.82 76.96 439.56 81.21 434.14 78.41 C 433.43 78.71 432.72 79.00 432.01 79.28 L 431.49 79.26 C 431.54 77.03 431.66 74.78 432.33 72.63 L 432.50 72.76 C 433.47 73.65 434.43 74.54 435.40 75.43 L 435.48 75.50 C 435.52 75.49 435.60 75.49 435.64 75.48 C 436.50 75.39 438.24 75.21 439.10 75.12 C 437.65 77.20 441.21 77.07 439.96 75.01 C 440.26 74.79 440.86 74.35 441.17 74.13 C 442.75 74.41 443.10 73.88 442.23 72.56 C 442.28 72.30 442.38 71.78 442.43 71.52 C 442.52 70.81 442.69 69.40 442.78 68.70 C 443.15 68.54 443.89 68.23 444.26 68.07 C 444.52 68.08 445.04 68.10 445.30 68.11 C 445.54 68.11 446.03 68.13 446.27 68.14 C 446.38 66.90 446.91 65.81 447.68 64.85 C 449.31 63.76 451.22 63.35 453.15 63.82 C 454.51 64.31 456.37 63.69 456.32 61.99 Z" />
<path fill="#3d3c3c" opacity="1.00" d=" M 484.15 62.36 C 485.40 60.95 486.26 63.43 485.24 64.22 C 484.04 65.81 483.02 63.14 484.15 62.36 Z" />
<path fill="#d01a1e" opacity="1.00" d=" M 630.24 62.31 L 630.84 62.36 C 631.43 62.43 632.03 62.52 632.64 62.62 C 632.78 63.01 633.07 63.80 633.22 64.19 C 632.53 67.52 631.74 70.83 630.99 74.15 C 625.46 73.89 619.92 73.66 614.39 73.37 C 615.35 69.66 616.60 66.04 617.92 62.44 C 618.28 63.51 618.66 64.58 619.05 65.64 C 618.61 67.22 618.34 68.84 618.26 70.47 C 621.58 70.62 624.90 70.68 628.23 70.64 C 628.92 68.96 629.62 67.29 630.26 65.60 C 630.29 64.50 630.24 63.40 630.24 62.31 Z" />
<path fill="#e5241c" opacity="1.00" d=" M 653.68 64.50 C 653.32 63.73 653.87 60.76 654.87 62.71 C 655.40 64.34 655.16 66.08 655.04 67.76 L 654.77 67.69 C 654.49 66.89 653.95 65.30 653.68 64.50 Z" />
<path fill="#d61223" opacity="1.00" d=" M 656.13 61.87 L 656.86 62.09 C 657.31 63.26 656.94 64.14 655.76 64.75 C 655.85 64.03 656.04 62.59 656.13 61.87 Z" />
<path fill="#9c3834" opacity="1.00" d=" M 656.86 62.09 C 659.14 62.91 661.51 63.51 663.96 63.45 C 664.30 63.46 664.96 63.48 665.30 63.49 C 665.69 64.72 666.09 65.94 666.50 67.16 C 664.92 67.19 663.35 67.21 661.79 67.22 C 660.41 67.21 659.04 67.21 657.67 67.22 C 657.21 67.26 656.29 67.34 655.83 67.38 C 655.81 66.72 655.77 65.40 655.76 64.75 C 656.94 64.14 657.31 63.26 656.86 62.09 Z" />
<path fill="#777776" opacity="1.00" d=" M 438.99 63.76 C 440.40 63.26 441.91 63.01 443.37 63.55 C 444.81 63.96 446.24 64.41 447.68 64.85 C 446.91 65.81 446.38 66.90 446.27 68.14 C 446.03 68.13 445.54 68.11 445.30 68.11 C 445.04 68.10 444.52 68.08 444.26 68.07 C 443.81 67.65 442.89 66.80 442.44 66.38 C 442.66 65.41 442.89 64.45 443.13 63.49 C 441.74 63.57 440.37 63.65 438.99 63.76 Z" />
<path fill="#a79751" opacity="1.00" d=" M 456.97 65.03 C 457.13 64.53 457.45 63.53 457.62 63.02 C 458.67 64.03 459.67 65.08 460.67 66.14 C 459.47 66.67 458.22 67.04 456.93 67.27 C 456.94 66.71 456.96 65.59 456.97 65.03 Z" />
<path fill="#cb4835" opacity="1.00" d=" M 645.02 65.87 C 644.00 64.18 647.00 62.20 647.53 64.48 C 646.90 64.83 645.65 65.52 645.02 65.87 Z" />
<path fill="#68a471" opacity="1.00" d=" M 450.07 66.82 C 449.82 65.25 451.77 63.66 452.96 65.22 C 453.77 67.02 451.23 67.77 450.07 66.82 Z" />
<path fill="#484747" opacity="1.00" d=" M 452.96 65.22 C 453.69 65.82 454.42 66.42 455.15 67.04 C 455.76 66.37 456.37 65.70 456.97 65.03 C 456.96 65.59 456.94 66.71 456.93 67.27 C 458.22 67.04 459.47 66.67 460.67 66.14 C 461.00 65.92 461.65 65.48 461.98 65.26 C 463.72 67.79 464.56 71.56 461.58 73.60 C 458.10 75.37 453.95 75.21 450.20 76.22 C 448.82 76.09 447.45 75.94 446.08 75.78 C 444.64 71.86 448.63 69.92 450.07 66.82 C 451.23 67.77 453.77 67.02 452.96 65.22 M 454.23 68.12 C 453.09 69.61 455.69 71.13 456.70 69.76 C 457.82 68.29 455.22 66.73 454.23 68.12 Z" />
<path fill="#c26d3f" opacity="1.00" d=" M 619.05 65.64 C 619.96 65.48 620.87 65.31 621.79 65.14 C 622.13 65.42 622.82 65.99 623.16 66.28 C 625.39 65.18 627.85 65.22 630.26 65.60 C 629.62 67.29 628.92 68.96 628.23 70.64 C 624.90 70.68 621.58 70.62 618.26 70.47 C 618.34 68.84 618.61 67.22 619.05 65.64 Z" />
<path fill="#c26d3f" opacity="1.00" d=" M 647.53 64.48 C 647.95 64.41 648.80 64.27 649.22 64.19 C 649.61 64.54 650.40 65.23 650.80 65.58 C 651.58 64.76 652.54 64.40 653.68 64.50 C 653.95 65.30 654.49 66.89 654.77 67.69 C 651.50 66.58 648.06 66.74 644.70 67.20 L 645.02 65.87 C 645.65 65.52 646.90 64.83 647.53 64.48 Z" />
<path fill="#1f0546" opacity="1.00" d=" M 671.76 64.87 C 673.14 65.26 674.55 65.66 675.95 66.05 C 676.38 67.13 676.83 68.20 677.29 69.27 C 676.45 69.88 675.61 70.49 674.76 71.08 C 673.07 71.61 673.72 73.78 675.34 73.75 C 675.52 74.58 675.67 75.41 675.81 76.24 C 674.38 78.43 672.90 76.84 672.18 75.33 C 672.00 73.14 671.86 70.95 671.82 68.76 C 672.38 69.04 673.49 69.61 674.05 69.89 C 674.57 68.16 673.19 66.79 671.89 65.93 L 671.76 64.87 Z" />
<path fill="#6f6f6e" opacity="1.00" d=" M 435.09 66.22 C 438.36 66.37 433.60 69.28 435.09 66.22 Z" />
<path fill="#714d64" opacity="1.00" d=" M 671.89 65.93 C 673.19 66.79 674.57 68.16 674.05 69.89 C 673.49 69.61 672.38 69.04 671.82 68.76 C 671.84 68.05 671.87 66.63 671.89 65.93 Z" />
<path fill="#7d7c7b" opacity="1.00" d=" M 439.43 67.42 C 439.49 67.49 439.61 67.62 439.67 67.69 L 439.26 67.67 L 439.43 67.42 Z" />
<path fill="#aaaaa9" opacity="1.00" d=" M 501.44 68.50 C 504.13 67.73 506.85 66.96 509.67 66.77 C 510.60 66.87 512.46 67.05 513.39 67.14 C 512.17 68.41 511.01 69.76 509.54 70.74 C 506.69 70.79 504.11 69.29 501.44 68.50 Z" />
<path fill="#b5061b" opacity="1.00" d=" M 655.83 67.38 C 656.29 67.34 657.21 67.26 657.67 67.22 C 656.86 68.74 656.25 68.79 655.83 67.38 Z" />
<path fill="#70706e" opacity="1.00" d=" M 429.97 68.45 C 430.90 69.40 432.12 69.31 433.32 69.00 C 433.07 69.89 432.59 71.69 432.34 72.58 C 432.34 72.59 432.33 72.62 432.33 72.63 C 431.66 74.78 431.54 77.03 431.49 79.26 C 430.45 77.95 429.49 76.58 428.54 75.21 C 429.08 72.97 429.58 70.72 429.97 68.45 Z" />
<path fill="#31302f" opacity="1.00" d=" M 432.34 72.58 C 434.51 70.77 436.86 69.17 439.26 67.67 L 439.67 67.69 C 439.98 68.06 440.60 68.82 440.90 69.20 C 441.29 69.78 442.05 70.94 442.43 71.52 C 442.38 71.78 442.28 72.30 442.23 72.56 C 441.96 72.95 441.43 73.73 441.17 74.13 C 440.86 74.35 440.26 74.79 439.96 75.01 L 439.10 75.12 C 438.24 75.21 436.50 75.39 435.64 75.48 L 435.40 75.43 C 434.43 74.54 433.47 73.65 432.50 72.76 L 432.34 72.58 Z" />
<path fill="#b97059" opacity="1.00" d=" M 454.23 68.12 C 455.22 66.73 457.82 68.29 456.70 69.76 C 455.69 71.13 453.09 69.61 454.23 68.12 Z" />
<path fill="#515050" opacity="1.00" d=" M 440.90 69.20 C 441.37 69.07 442.31 68.82 442.78 68.70 C 442.69 69.40 442.52 70.81 442.43 71.52 C 442.05 70.94 441.29 69.78 440.90 69.20 Z" />
<path fill="#2f4480" opacity="1.00" d=" M 651.43 69.15 C 652.31 68.36 654.44 68.42 654.75 69.77 C 654.37 71.61 650.54 71.14 651.43 69.15 Z" />
<path fill="#3a0015" opacity="1.00" d=" M 677.29 69.27 C 678.23 71.72 678.76 74.30 679.23 76.87 C 679.35 77.45 679.59 78.62 679.70 79.20 C 679.31 79.18 678.52 79.14 678.12 79.11 L 677.27 79.26 C 676.83 79.64 675.94 80.41 675.50 80.80 C 675.36 80.18 675.08 78.94 674.94 78.32 C 675.22 77.63 675.54 76.95 675.81 76.24 C 675.67 75.41 675.52 74.58 675.34 73.75 C 675.20 73.08 674.91 71.75 674.76 71.08 C 675.61 70.49 676.45 69.88 677.29 69.27 Z" />
<path fill="#825268" opacity="1.00" d=" M 675.34 73.75 C 673.72 73.78 673.07 71.61 674.76 71.08 C 674.91 71.75 675.20 73.08 675.34 73.75 Z" />
<path fill="#abacab" opacity="1.00" d=" M 432.33 72.63 C 432.33 72.62 432.34 72.59 432.34 72.58 L 432.50 72.76 L 432.33 72.63 Z" />
<path fill="#b4b43c" opacity="1.00" d=" M 634.40 77.31 C 635.24 74.69 637.23 72.79 639.57 71.45 C 639.48 72.03 639.29 73.19 639.20 73.77 C 638.03 75.43 637.01 78.32 634.40 77.31 Z" />
<path fill="#6b6a69" opacity="1.00" d=" M 441.17 74.13 C 441.43 73.73 441.96 72.95 442.23 72.56 C 443.10 73.88 442.75 74.41 441.17 74.13 Z" />
<path fill="#171616" opacity="0.96" d=" M 484.49 73.75 C 486.93 74.11 489.41 74.50 491.66 75.60 C 491.66 76.86 490.63 77.75 490.07 78.78 C 487.98 78.25 485.94 77.57 483.91 76.89 C 484.68 77.01 486.22 77.24 487.00 77.36 C 486.14 76.17 485.30 74.96 484.49 73.75 Z" />
<path fill="#201f20" opacity="1.00" d=" M 509.83 74.21 C 510.33 74.02 511.33 73.63 511.83 73.44 C 511.71 75.82 512.48 78.80 510.11 80.35 C 509.93 78.31 509.80 76.26 509.83 74.21 Z" />
<path fill="#a1a227" opacity="1.00" d=" M 634.40 77.31 C 637.01 78.32 638.03 75.43 639.20 73.77 C 638.36 78.69 636.23 83.25 634.01 87.68 C 633.99 84.75 633.85 81.81 634.06 78.89 C 634.15 78.50 634.32 77.71 634.40 77.31 Z" />
<path fill="#5a3250" opacity="1.00" d=" M 700.97 74.12 C 701.36 75.13 701.76 76.14 702.15 77.16 C 707.00 79.30 711.84 81.45 716.68 83.63 C 716.68 85.13 716.67 86.62 716.68 88.12 C 715.94 88.66 715.33 89.31 714.86 90.09 C 715.28 88.20 715.55 86.29 715.63 84.36 L 714.17 84.45 C 713.30 84.51 711.56 84.64 710.68 84.70 C 711.93 84.35 713.17 83.97 714.42 83.57 C 711.05 82.24 707.57 81.20 704.01 80.52 C 703.71 80.61 703.11 80.80 702.80 80.90 C 702.41 81.02 701.61 81.27 701.22 81.39 C 700.20 80.42 699.19 79.44 698.20 78.46 C 697.39 78.52 695.77 78.63 694.96 78.68 C 696.46 78.38 697.92 77.96 699.43 77.60 C 699.73 77.58 700.35 77.53 700.66 77.51 C 700.77 76.38 700.88 75.25 700.97 74.12 Z" />
<path fill="#999897" opacity="1.00" d=" M 435.40 75.43 L 435.64 75.48 C 435.60 75.49 435.52 75.49 435.48 75.50 L 435.40 75.43 Z" />
<path fill="#91918f" opacity="1.00" d=" M 439.10 75.12 L 439.96 75.01 C 441.21 77.07 437.65 77.20 439.10 75.12 Z" />
<path fill="#bfadb2" opacity="1.00" d=" M 672.18 75.33 C 672.90 76.84 674.38 78.43 675.81 76.24 C 675.54 76.95 675.22 77.63 674.94 78.32 C 674.78 78.70 674.46 79.47 674.30 79.85 C 673.62 78.97 672.96 78.09 672.30 77.21 C 672.27 76.74 672.21 75.80 672.18 75.33 Z" />
<path fill="#050404" opacity="0.46" d=" M 467.88 80.75 C 472.00 78.10 476.74 76.50 481.65 76.27 C 482.21 76.43 483.34 76.73 483.91 76.89 C 485.94 77.57 487.98 78.25 490.07 78.78 C 494.84 79.79 499.25 81.99 503.98 83.15 C 503.13 83.68 502.28 84.22 501.42 84.73 C 496.68 80.92 490.47 80.59 484.94 78.66 C 481.06 77.07 476.83 78.52 473.27 80.26 C 469.33 82.48 465.64 85.51 461.00 86.08 C 458.17 86.45 454.60 87.15 452.56 84.62 C 457.87 84.49 463.32 83.68 467.88 80.75 Z" />
<path fill="#510a15" opacity="0.78" d=" M 605.13 76.43 C 605.46 76.68 606.13 77.16 606.47 77.41 C 605.99 77.32 605.03 77.15 604.55 77.06 L 605.13 76.43 Z" />
<path fill="#1d1c1d" opacity="1.00" d=" M 527.58 80.84 C 529.67 79.63 531.67 78.10 534.05 77.49 C 536.73 77.75 539.28 78.74 541.85 79.51 C 550.65 82.27 559.39 85.19 568.08 88.26 C 565.75 89.60 563.43 92.34 560.49 91.49 C 551.36 88.93 543.00 84.02 533.66 82.18 C 531.63 81.73 529.61 81.26 527.58 80.84 Z" />
<path fill="#421619" opacity="1.00" d=" M 608.96 77.45 C 614.99 76.73 621.06 77.20 627.10 77.59 C 625.52 77.81 623.96 78.13 622.44 78.60 C 621.94 78.79 620.92 79.17 620.42 79.36 L 619.96 80.23 C 619.77 80.62 619.39 81.39 619.21 81.78 C 619.88 81.58 621.24 81.18 621.91 80.97 L 621.00 82.74 C 619.66 83.10 618.34 83.49 617.02 83.88 C 614.58 83.51 612.14 83.17 609.69 82.93 L 610.39 81.83 C 611.69 81.53 613.00 81.32 614.34 81.11 C 614.40 80.61 614.52 79.63 614.58 79.14 C 614.61 78.86 614.68 78.31 614.71 78.03 C 612.79 77.85 610.87 77.66 608.96 77.45 M 618.32 79.38 C 618.82 79.85 618.82 79.85 618.32 79.38 Z" />
<path fill="#403239" opacity="1.00" d=" M 679.23 76.87 C 682.88 76.88 686.55 76.92 690.21 76.89 C 690.21 77.64 690.20 79.13 690.20 79.88 C 689.66 80.79 689.12 81.69 688.58 82.60 C 688.39 81.73 688.01 79.99 687.82 79.12 L 686.75 78.88 C 684.65 78.74 682.60 79.17 680.70 80.01 C 680.45 79.81 679.95 79.40 679.70 79.20 C 679.59 78.62 679.35 77.45 679.23 76.87 Z" />
<path fill="#383b41" opacity="1.00" d=" M 690.21 76.89 C 693.30 76.81 696.38 77.12 699.43 77.60 C 697.92 77.96 696.46 78.38 694.96 78.68 C 693.33 78.91 691.68 79.14 690.20 79.88 C 690.20 79.13 690.21 77.64 690.21 76.89 Z" />
<path fill="#363334" opacity="1.00" d=" M 541.72 77.87 C 553.63 81.11 565.27 85.21 576.95 89.19 C 579.65 90.24 582.63 90.87 584.88 92.82 C 580.88 94.61 577.05 96.96 574.06 100.19 C 573.60 104.95 574.10 109.74 574.26 114.51 C 572.91 115.48 571.56 116.46 570.20 117.41 C 569.98 112.67 569.89 107.93 569.78 103.20 C 569.17 103.21 567.96 103.25 567.35 103.26 C 567.82 107.62 568.09 112.04 567.45 116.40 C 565.70 113.19 566.35 109.41 566.10 105.92 C 565.46 105.94 564.18 105.99 563.54 106.02 C 564.49 111.13 564.35 116.35 564.43 121.53 C 557.43 126.94 549.87 131.56 542.77 136.83 C 541.43 132.36 541.79 127.66 541.80 123.06 C 537.44 121.46 532.73 121.82 528.29 120.65 C 525.73 119.40 523.09 118.29 520.34 117.52 C 520.91 116.97 521.48 116.42 522.06 115.87 C 528.01 115.09 534.05 115.60 540.03 115.11 C 544.07 115.18 546.58 111.59 549.79 109.72 C 555.87 106.10 561.43 101.70 567.43 97.93 C 564.25 95.74 561.14 93.08 557.30 92.21 C 554.11 93.43 551.45 95.88 547.99 96.40 C 544.30 96.98 541.26 99.27 537.87 100.67 C 537.69 97.95 533.30 99.18 536.15 101.10 C 535.35 101.78 534.66 102.57 534.06 103.42 C 532.39 103.65 530.82 104.24 529.38 105.08 C 529.80 105.86 530.21 106.64 530.61 107.43 C 520.49 106.24 510.46 103.19 501.78 97.77 C 502.90 97.16 504.06 96.61 505.25 96.12 C 508.81 96.57 512.46 98.10 516.03 96.82 C 519.35 95.72 522.77 94.81 526.31 94.97 C 527.79 95.12 529.26 95.21 530.76 95.30 C 527.50 92.33 522.81 91.84 519.19 89.39 C 520.35 89.26 521.52 89.13 522.70 88.99 C 523.07 83.26 529.74 83.85 533.66 82.18 C 543.00 84.02 551.36 88.93 560.49 91.49 C 563.43 92.34 565.75 89.60 568.08 88.26 C 559.39 85.19 550.65 82.27 541.85 79.51 L 541.72 77.87 M 525.24 89.85 L 525.12 90.74 C 527.13 91.32 529.13 91.96 531.15 92.52 C 529.66 90.81 527.30 90.48 525.24 89.85 Z" />
<path fill="#4b4945" opacity="1.00" d=" M 622.44 78.60 C 623.96 78.13 625.52 77.81 627.10 77.59 C 628.39 77.67 629.68 77.77 630.98 77.90 L 630.53 79.41 C 627.83 79.14 625.14 78.75 622.44 78.60 Z" />
<path fill="#8a725b" opacity="1.00" d=" M 610.20 78.96 C 611.65 79.02 613.11 79.08 614.58 79.14 C 614.52 79.63 614.40 80.61 614.34 81.11 C 613.00 81.32 611.69 81.53 610.39 81.83 C 609.81 81.53 608.67 80.94 608.09 80.64 C 608.79 80.08 609.49 79.52 610.20 78.96 Z" />
<path fill="#938e4f" opacity="1.00" d=" M 618.32 79.38 C 618.82 79.85 618.82 79.85 618.32 79.38 Z" />
<path fill="#100f0b" opacity="1.00" d=" M 620.42 79.36 C 620.92 79.17 621.94 78.79 622.44 78.60 C 625.14 78.75 627.83 79.14 630.53 79.41 L 631.56 79.46 C 632.39 79.28 633.22 79.09 634.06 78.89 C 633.85 81.81 633.99 84.75 634.01 87.68 C 633.85 88.38 633.70 89.09 633.57 89.80 C 631.52 90.59 629.30 91.16 627.59 92.59 C 627.18 98.37 627.63 104.20 627.60 110.00 C 627.88 113.84 627.27 118.00 629.19 121.51 C 627.72 122.27 626.21 122.91 624.68 123.49 C 621.99 123.54 619.20 123.50 616.71 122.40 C 612.92 120.78 608.68 120.69 604.92 119.05 C 603.67 118.68 603.79 117.15 603.59 116.15 C 602.97 108.04 601.71 99.94 602.24 91.79 C 600.17 91.57 598.10 91.33 596.05 91.03 C 595.54 91.32 594.52 91.92 594.01 92.22 C 593.83 89.59 593.59 86.97 593.33 84.35 C 595.03 84.68 596.74 85.04 598.46 85.36 C 598.34 86.95 598.22 88.55 598.11 90.14 C 599.17 89.70 600.25 89.27 601.33 88.84 C 601.30 88.02 601.23 86.39 601.20 85.57 C 605.34 85.72 609.48 86.15 613.56 86.94 C 614.20 87.18 615.49 87.66 616.14 87.90 C 615.19 89.27 614.39 90.74 613.89 92.32 C 614.45 91.52 615.57 89.92 616.13 89.12 C 616.73 90.14 617.34 91.15 617.97 92.16 C 617.59 90.46 617.15 88.78 616.67 87.11 C 618.11 87.45 620.07 86.85 621.20 87.99 C 621.61 90.38 621.79 92.80 622.21 95.20 C 622.38 91.94 622.31 88.66 622.85 85.44 L 623.06 85.00 C 624.02 83.45 625.56 82.46 627.29 81.95 C 625.40 79.75 622.59 79.80 619.96 80.23 L 620.42 79.36 M 608.40 96.29 C 607.31 97.26 608.36 100.22 609.92 99.00 C 611.09 98.01 609.95 95.08 608.40 96.29 M 611.91 100.01 C 613.44 99.65 613.25 96.94 611.77 96.63 C 610.06 96.84 610.19 99.93 611.91 100.01 M 614.24 100.26 C 612.94 100.42 612.73 102.76 614.17 102.85 C 615.51 102.77 615.69 100.27 614.24 100.26 M 614.39 114.06 C 613.98 115.49 614.47 115.98 615.84 115.54 C 616.24 114.11 615.75 113.62 614.39 114.06 Z" />
<path fill="#512a27" opacity="1.00" d=" M 639.91 79.23 C 641.57 79.14 643.24 79.04 644.92 78.94 C 644.96 79.59 645.03 80.88 645.06 81.53 C 645.10 82.88 645.13 84.22 645.14 85.57 C 644.15 84.90 643.29 84.11 642.55 83.19 C 641.23 83.26 639.91 83.36 638.62 83.49 L 637.42 83.60 C 638.29 82.17 639.18 80.74 639.91 79.23 Z" />
<path fill="#232423" opacity="1.00" d=" M 644.92 78.94 C 649.87 78.57 654.83 78.78 659.79 78.95 C 659.81 79.78 659.84 81.45 659.86 82.29 C 655.76 81.93 651.64 81.71 647.53 81.71 C 646.70 81.67 645.87 81.61 645.06 81.53 C 645.03 80.88 644.96 79.59 644.92 78.94 Z" />
<path fill="#2f2927" opacity="1.00" d=" M 659.79 78.95 C 663.17 79.04 666.56 78.65 669.94 79.00 C 671.49 79.37 672.16 81.04 673.06 82.19 C 672.56 82.41 671.56 82.85 671.06 83.07 C 670.55 83.02 669.52 82.92 669.01 82.87 C 668.02 82.75 666.05 82.50 665.06 82.38 C 665.26 83.89 665.88 85.18 666.91 86.27 C 666.21 86.30 665.51 86.31 664.82 86.30 C 664.72 84.08 663.91 82.09 662.37 80.49 C 661.61 82.18 660.90 83.88 660.15 85.57 C 660.09 84.92 659.96 83.62 659.90 82.97 L 659.86 82.29 C 659.84 81.45 659.81 79.78 659.79 78.95 Z" />
<path fill="#23041e" opacity="1.00" d=" M 674.94 78.32 C 675.08 78.94 675.36 80.18 675.50 80.80 C 675.70 82.60 675.78 84.41 675.88 86.23 C 676.39 86.36 677.41 86.63 677.92 86.76 C 678.64 89.15 679.36 91.55 679.87 94.00 C 677.62 93.65 677.92 97.40 680.03 95.69 C 680.25 97.23 680.58 98.75 681.03 100.24 C 677.45 101.79 679.86 106.63 678.02 109.51 C 677.31 108.00 676.65 106.49 675.98 104.97 C 677.20 103.25 676.85 101.26 676.04 99.45 C 676.76 96.66 676.82 93.76 676.91 90.90 C 675.55 91.10 674.20 91.30 672.85 91.50 C 672.15 91.37 670.77 91.12 670.07 90.99 L 671.30 89.90 C 672.85 89.67 674.42 89.57 676.00 89.45 C 675.44 87.90 674.90 86.34 674.29 84.82 L 674.01 84.18 L 673.47 83.01 C 673.67 82.22 674.09 80.64 674.30 79.85 C 674.46 79.47 674.78 78.70 674.94 78.32 Z" />
<path fill="#963755" opacity="1.00" d=" M 677.27 79.26 L 678.12 79.11 C 678.02 81.66 677.90 84.21 677.92 86.76 C 677.41 86.63 676.39 86.36 675.88 86.23 C 675.78 84.41 675.70 82.60 675.50 80.80 C 675.94 80.41 676.83 79.64 677.27 79.26 Z" />
<path fill="#131311" opacity="1.00" d=" M 678.12 79.11 C 678.52 79.14 679.31 79.18 679.70 79.20 C 679.95 79.40 680.45 79.81 680.70 80.01 C 682.90 81.86 685.28 83.50 687.64 85.16 C 688.01 85.44 688.75 86.00 689.12 86.28 C 689.38 86.48 689.90 86.90 690.16 87.11 C 690.21 89.35 690.18 91.60 690.19 93.85 C 693.63 93.38 697.09 93.00 700.55 92.58 C 700.98 92.20 701.85 91.45 702.28 91.07 C 705.72 90.28 709.29 90.45 712.78 89.92 C 711.26 90.48 709.87 91.31 708.56 92.23 C 708.98 101.05 707.59 109.87 706.87 118.64 L 706.35 118.74 C 701.83 119.46 697.48 120.85 693.13 122.22 C 689.33 123.63 685.33 122.31 681.48 121.93 C 683.69 126.26 680.59 130.25 678.69 133.99 C 672.20 134.02 665.73 133.97 659.25 134.02 C 658.85 133.62 658.05 132.81 657.65 132.41 C 655.06 132.20 652.48 131.99 649.89 131.99 C 648.04 127.39 648.93 122.09 651.02 117.75 C 651.45 117.86 652.33 118.09 652.77 118.20 C 653.19 120.81 652.65 123.44 652.19 126.01 C 655.52 127.71 659.21 128.44 662.80 129.38 C 661.32 129.93 659.88 130.55 658.67 131.55 C 662.60 131.75 667.23 133.07 670.76 130.84 C 674.16 125.97 672.79 119.56 673.48 113.96 C 672.26 113.28 671.03 112.65 669.91 111.86 C 669.73 110.11 669.85 108.35 669.90 106.60 C 670.39 106.52 671.36 106.38 671.85 106.30 C 671.85 105.80 671.86 104.80 671.87 104.30 C 668.88 105.22 665.82 106.20 663.48 108.37 C 663.08 108.09 662.28 107.54 661.89 107.26 L 661.08 106.96 C 662.32 105.20 663.33 103.27 664.67 101.57 C 666.53 100.19 668.92 101.26 670.74 102.20 C 672.10 101.54 673.45 100.87 674.82 100.21 C 674.79 99.72 674.72 98.75 674.68 98.26 C 674.06 98.12 672.81 97.85 672.18 97.71 C 673.01 95.74 673.10 93.61 672.85 91.50 C 674.20 91.30 675.55 91.10 676.91 90.90 C 676.82 93.76 676.76 96.66 676.04 99.45 C 673.72 104.29 674.06 109.86 675.96 114.78 C 677.69 116.70 679.72 118.32 681.78 119.89 C 682.13 117.99 682.52 116.08 682.77 114.16 C 683.52 109.43 682.96 104.62 681.03 100.24 C 680.58 98.75 680.25 97.23 680.03 95.69 C 679.99 95.27 679.91 94.43 679.87 94.00 C 679.36 91.55 678.64 89.15 677.92 86.76 C 677.90 84.21 678.02 81.66 678.12 79.11 M 700.25 96.33 C 699.38 97.62 699.57 98.40 700.83 98.69 C 701.69 97.40 701.49 96.61 700.25 96.33 M 702.06 96.17 C 701.48 97.86 701.99 98.45 703.57 97.93 C 704.14 96.24 703.64 95.65 702.06 96.17 M 703.15 99.17 C 702.63 100.59 703.07 101.08 704.48 100.64 C 704.98 99.22 704.54 98.73 703.15 99.17 M 702.16 111.45 C 701.71 112.87 702.19 113.36 703.59 112.93 C 704.01 111.52 703.54 111.03 702.16 111.45 Z" />
<path fill="#563866" opacity="1.00" d=" M 680.70 80.01 C 682.60 79.17 684.65 78.74 686.75 78.88 C 687.32 80.91 688.25 83.01 687.64 85.16 C 685.28 83.50 682.90 81.86 680.70 80.01 Z" />
<path fill="#5b6ba9" opacity="1.00" d=" M 686.75 78.88 L 687.82 79.12 C 688.01 79.99 688.39 81.73 688.58 82.60 C 689.12 81.69 689.66 80.79 690.20 79.88 C 691.68 79.14 693.33 78.91 694.96 78.68 C 695.77 78.63 697.39 78.52 698.20 78.46 C 699.19 79.44 700.20 80.42 701.22 81.39 C 700.91 81.42 700.30 81.49 699.99 81.52 C 699.48 81.41 698.47 81.20 697.96 81.09 C 696.59 81.65 695.21 82.21 693.86 82.78 C 693.48 86.77 697.77 85.46 700.32 85.70 C 696.59 85.99 692.86 86.61 689.12 86.28 C 688.75 86.00 688.01 85.44 687.64 85.16 C 688.25 83.01 687.32 80.91 686.75 78.88 M 691.84 82.08 C 691.49 83.51 692.00 83.90 693.38 83.23 C 693.72 81.78 693.20 81.40 691.84 82.08 Z" />
<path fill="#4d4a4b" opacity="1.00" d=" M 514.89 80.71 C 518.92 78.92 523.42 80.24 527.58 80.84 C 529.61 81.26 531.63 81.73 533.66 82.18 C 529.74 83.85 523.07 83.26 522.70 88.99 C 521.52 89.13 520.35 89.26 519.19 89.39 C 522.81 91.84 527.50 92.33 530.76 95.30 C 529.26 95.21 527.79 95.12 526.31 94.97 C 522.77 94.81 519.35 95.72 516.03 96.82 C 512.46 98.10 508.81 96.57 505.25 96.12 C 502.73 95.73 500.22 95.36 497.70 95.14 C 505.20 89.81 513.88 86.38 521.29 80.96 C 519.16 80.81 517.02 80.69 514.89 80.71 Z" />
<path fill="#700e1a" opacity="1.00" d=" M 601.36 81.73 C 603.13 80.67 604.98 79.41 607.15 80.07 C 605.93 80.68 604.72 81.28 603.52 81.88 C 605.80 81.91 608.09 81.89 610.39 81.83 L 609.69 82.93 C 607.47 83.11 604.00 81.51 602.96 84.35 C 607.26 84.59 611.54 85.54 615.85 85.29 L 617.25 83.98 L 617.02 83.88 C 618.34 83.49 619.66 83.10 621.00 82.74 L 621.85 83.67 C 620.75 84.11 618.38 84.29 618.36 85.69 C 619.79 86.32 621.40 85.78 622.85 85.44 C 622.31 88.66 622.38 91.94 622.21 95.20 C 621.79 92.80 621.61 90.38 621.20 87.99 C 620.07 86.85 618.11 87.45 616.67 87.11 C 615.90 87.07 614.34 86.98 613.56 86.94 C 609.48 86.15 605.34 85.72 601.20 85.57 C 600.40 85.53 599.62 85.48 598.84 85.41 L 598.46 85.36 C 596.74 85.04 595.03 84.68 593.33 84.35 C 594.22 83.82 595.12 83.28 596.02 82.75 C 596.55 82.89 597.62 83.16 598.15 83.30 C 599.58 84.46 603.67 84.05 601.36 81.73 Z" />
<path fill="#c8a76f" opacity="1.00" d=" M 619.96 80.23 C 622.59 79.80 625.40 79.75 627.29 81.95 C 625.56 82.46 624.02 83.45 623.06 85.00 C 622.76 84.67 622.15 84.00 621.85 83.67 L 621.00 82.74 L 621.91 80.97 C 621.24 81.18 619.88 81.58 619.21 81.78 C 619.39 81.39 619.77 80.62 619.96 80.23 M 623.31 82.48 C 623.56 82.74 623.56 82.74 623.31 82.48 Z" />
<path fill="#6685b7" opacity="1.00" d=" M 702.80 80.90 C 703.11 80.80 703.71 80.61 704.01 80.52 C 707.57 81.20 711.05 82.24 714.42 83.57 C 713.17 83.97 711.93 84.35 710.68 84.70 C 710.27 84.74 709.44 84.82 709.02 84.86 C 708.13 83.48 706.73 82.63 705.36 81.83 C 704.72 81.60 703.44 81.13 702.80 80.90 Z" />
<path fill="#5c5a5b" opacity="1.00" d=" M 489.60 95.01 C 498.04 90.28 506.45 85.45 514.89 80.71 C 517.02 80.69 519.16 80.81 521.29 80.96 C 513.88 86.38 505.20 89.81 497.70 95.14 C 494.99 95.20 492.29 95.17 489.60 95.01 Z" />
<path fill="#a8d9d7" opacity="1.00" d=" M 645.06 81.53 C 645.87 81.61 646.70 81.67 647.53 81.71 C 647.58 82.46 647.69 83.95 647.74 84.70 L 647.83 85.93 C 645.16 85.78 642.48 85.72 639.84 86.16 C 638.77 86.28 637.73 86.42 636.67 86.55 C 637.47 85.62 638.11 84.60 638.62 83.49 C 639.91 83.36 641.23 83.26 642.55 83.19 C 643.29 84.11 644.15 84.90 645.14 85.57 C 645.13 84.22 645.10 82.88 645.06 81.53 Z" />
<path fill="#8e9fa4" opacity="1.00" d=" M 662.37 80.49 C 663.91 82.09 664.72 84.08 664.82 86.30 C 662.12 86.11 659.43 85.92 656.73 85.81 C 656.76 85.14 656.80 83.80 656.83 83.13 C 657.60 83.09 659.13 83.01 659.90 82.97 C 659.96 83.62 660.09 84.92 660.15 85.57 C 660.90 83.88 661.61 82.18 662.37 80.49 Z" />
<path fill="#a8d9d7" opacity="1.00" d=" M 693.86 82.78 C 695.21 82.21 696.59 81.65 697.96 81.09 C 698.47 81.20 699.48 81.41 699.99 81.52 C 700.30 81.49 700.91 81.42 701.22 81.39 C 701.61 81.27 702.41 81.02 702.80 80.90 C 702.22 82.59 704.57 83.18 705.36 81.83 C 706.73 82.63 708.13 83.48 709.02 84.86 C 706.80 85.13 704.56 85.18 702.38 84.70 C 702.12 84.94 701.59 85.42 701.33 85.66 L 700.32 85.70 C 697.77 85.46 693.48 86.77 693.86 82.78 Z" />
<path fill="#b46c2d" opacity="1.00" d=" M 702.80 80.90 C 703.44 81.13 704.72 81.60 705.36 81.83 C 704.57 83.18 702.22 82.59 702.80 80.90 Z" />
<path fill="#757a2d" opacity="1.00" d=" M 601.36 81.73 C 603.67 84.05 599.58 84.46 598.15 83.30 C 599.20 82.77 600.27 82.24 601.36 81.73 Z" />
<path fill="#0d0c36" opacity="1.00" d=" M 623.31 82.48 C 623.56 82.74 623.56 82.74 623.31 82.48 Z" />
<path fill="#515f73" opacity="1.00" d=" M 647.53 81.71 C 651.64 81.71 655.76 81.93 659.86 82.29 L 659.90 82.97 C 659.13 83.01 657.60 83.09 656.83 83.13 C 656.80 83.80 656.76 85.14 656.73 85.81 C 659.43 85.92 662.12 86.11 664.82 86.30 C 665.51 86.31 666.21 86.30 666.91 86.27 C 667.46 86.22 668.55 86.14 669.09 86.10 C 669.07 85.29 669.03 83.68 669.01 82.87 C 669.52 82.92 670.55 83.02 671.06 83.07 C 671.56 82.85 672.56 82.41 673.06 82.19 C 673.16 82.40 673.36 82.81 673.47 83.01 L 674.01 84.18 C 672.85 83.82 670.54 83.19 670.09 84.77 C 670.77 86.50 673.45 86.37 674.29 84.82 C 674.90 86.34 675.44 87.90 676.00 89.45 C 674.42 89.57 672.85 89.67 671.30 89.90 L 670.07 90.99 C 669.29 90.88 668.53 90.78 667.77 90.67 C 665.29 90.13 662.76 89.98 660.29 90.55 L 659.89 90.61 C 657.59 90.09 655.28 89.70 652.94 89.49 C 652.91 89.02 652.84 88.10 652.80 87.63 C 652.37 87.55 651.51 87.38 651.08 87.30 C 651.11 87.00 651.18 86.40 651.21 86.09 C 654.07 83.93 650.17 82.54 648.82 84.85 L 647.74 84.70 C 647.69 83.95 647.58 82.46 647.53 81.71 M 655.44 83.44 C 654.66 84.23 654.00 85.68 654.58 86.73 C 656.37 87.38 657.28 83.58 655.44 83.44 Z" />
<path fill="#573015" opacity="1.00" d=" M 691.84 82.08 C 693.20 81.40 693.72 81.78 693.38 83.23 C 692.00 83.90 691.49 83.51 691.84 82.08 Z" />
<path fill="#c8a76f" opacity="1.00" d=" M 602.96 84.35 C 604.00 81.51 607.47 83.11 609.69 82.93 C 612.14 83.17 614.58 83.51 617.02 83.88 L 617.25 83.98 L 615.85 85.29 C 611.54 85.54 607.26 84.59 602.96 84.35 Z" />
<path fill="#353e4a" opacity="1.00" d=" M 655.44 83.44 C 657.28 83.58 656.37 87.38 654.58 86.73 C 654.00 85.68 654.66 84.23 655.44 83.44 Z" />
<path fill="#a6b5b8" opacity="1.00" d=" M 665.06 82.38 C 666.05 82.50 668.02 82.75 669.01 82.87 C 669.03 83.68 669.07 85.29 669.09 86.10 C 668.55 86.14 667.46 86.22 666.91 86.27 C 665.88 85.18 665.26 83.89 665.06 82.38 Z" />
<path fill="#8b8335" opacity="1.00" d=" M 618.36 85.69 C 618.38 84.29 620.75 84.11 621.85 83.67 C 622.15 84.00 622.76 84.67 623.06 85.00 L 622.85 85.44 C 621.40 85.78 619.79 86.32 618.36 85.69 Z" />
<path fill="#a6b6b6" opacity="1.00" d=" M 648.82 84.85 C 650.17 82.54 654.07 83.93 651.21 86.09 L 650.19 86.19 C 649.85 85.85 649.16 85.18 648.82 84.85 Z" />
<path fill="#7a9ca5" opacity="1.00" d=" M 670.09 84.77 C 670.54 83.19 672.85 83.82 674.01 84.18 L 674.29 84.82 C 673.45 86.37 670.77 86.50 670.09 84.77 Z" />
<path fill="#100f0b" opacity="1.00" d=" M 701.33 85.66 C 701.59 85.42 702.12 84.94 702.38 84.70 C 704.56 85.18 706.80 85.13 709.02 84.86 C 709.44 84.82 710.27 84.74 710.68 84.70 C 711.56 84.64 713.30 84.51 714.17 84.45 C 713.41 85.99 712.68 87.54 711.96 89.10 C 709.60 88.36 707.34 87.32 704.93 86.79 C 702.81 87.33 701.26 89.01 699.36 90.02 C 699.52 89.07 699.68 88.12 699.86 87.18 C 698.30 87.28 696.74 87.38 695.20 87.50 C 693.51 87.48 691.82 87.34 690.16 87.11 C 689.90 86.90 689.38 86.48 689.12 86.28 C 692.86 86.61 696.59 85.99 700.32 85.70 L 701.33 85.66 Z" />
<path fill="#636129" opacity="1.00" d=" M 598.84 85.41 C 599.62 85.48 600.40 85.53 601.20 85.57 C 601.23 86.39 601.30 88.02 601.33 88.84 C 600.25 89.27 599.17 89.70 598.11 90.14 C 598.22 88.55 598.34 86.95 598.46 85.36 L 598.84 85.41 Z" />
<path fill="#573015" opacity="1.00" d=" M 647.74 84.70 L 648.82 84.85 C 649.16 85.18 649.85 85.85 650.19 86.19 C 646.75 86.92 643.28 86.62 639.84 86.16 C 642.48 85.72 645.16 85.78 647.83 85.93 L 647.74 84.70 Z" />
<path fill="#5b6e83" opacity="1.00" d=" M 635.82 87.81 C 636.03 87.50 636.46 86.87 636.67 86.55 C 637.73 86.42 638.77 86.28 639.84 86.16 C 643.28 86.62 646.75 86.92 650.19 86.19 L 651.21 86.09 C 651.18 86.40 651.11 87.00 651.08 87.30 C 651.51 87.38 652.37 87.55 652.80 87.63 C 652.84 88.10 652.91 89.02 652.94 89.49 C 647.18 89.21 641.41 89.85 635.65 89.48 L 635.82 87.81 Z" />
<path fill="#c8a76f" opacity="1.00" d=" M 613.56 86.94 C 614.34 86.98 615.90 87.07 616.67 87.11 C 617.15 88.78 617.59 90.46 617.97 92.16 C 617.34 91.15 616.73 90.14 616.13 89.12 C 615.57 89.92 614.45 91.52 613.89 92.32 C 614.39 90.74 615.19 89.27 616.14 87.90 C 615.49 87.66 614.20 87.18 613.56 86.94 Z" />
<path fill="#000000" opacity="1.00" d=" M 690.16 87.11 C 691.82 87.34 693.51 87.48 695.20 87.50 C 694.80 87.69 694.02 88.08 693.62 88.27 C 693.34 89.59 693.14 90.92 692.95 92.25 C 696.08 92.09 699.22 91.79 702.28 91.07 C 701.85 91.45 700.98 92.20 700.55 92.58 C 697.09 93.00 693.63 93.38 690.19 93.85 C 690.18 91.60 690.21 89.35 690.16 87.11 Z" />
<path fill="#3d090b" opacity="1.00" d=" M 695.20 87.50 C 696.74 87.38 698.30 87.28 699.86 87.18 C 699.68 88.12 699.52 89.07 699.36 90.02 C 701.26 89.01 702.81 87.33 704.93 86.79 C 707.34 87.32 709.60 88.36 711.96 89.10 L 712.78 89.92 C 709.29 90.45 705.72 90.28 702.28 91.07 C 699.22 91.79 696.08 92.09 692.95 92.25 C 693.14 90.92 693.34 89.59 693.62 88.27 C 694.02 88.08 694.80 87.69 695.20 87.50 M 703.26 88.39 C 703.74 88.87 703.74 88.87 703.26 88.39 Z" />
<path fill="#3a0015" opacity="1.00" d=" M 634.44 90.12 C 634.79 89.55 635.47 88.39 635.82 87.81 L 635.65 89.48 C 641.41 89.85 647.18 89.21 652.94 89.49 C 655.28 89.70 657.59 90.09 659.89 90.61 C 657.48 91.07 655.04 91.13 652.62 90.98 C 652.57 91.43 652.48 92.34 652.44 92.80 L 652.03 92.87 C 651.96 92.26 651.84 91.05 651.78 90.44 C 648.53 90.48 645.29 90.61 642.05 90.69 C 641.64 90.69 640.84 90.68 640.43 90.68 C 638.43 90.59 636.42 90.35 634.44 90.12 Z" />
<path fill="#a77740" opacity="1.00" d=" M 703.26 88.39 C 703.74 88.87 703.74 88.87 703.26 88.39 Z" />
<path fill="#100204" opacity="0.47" d=" M 714.86 90.09 C 715.33 89.31 715.94 88.66 716.68 88.12 C 718.94 90.05 714.75 93.98 714.86 90.09 Z" />
<path fill="#aaaaa9" opacity="1.00" d=" M 525.24 89.85 C 527.30 90.48 529.66 90.81 531.15 92.52 C 529.13 91.96 527.13 91.32 525.12 90.74 L 525.24 89.85 Z" />
<path fill="#700e1a" opacity="1.00" d=" M 627.59 92.59 C 629.30 91.16 631.52 90.59 633.57 89.80 C 632.27 95.45 632.69 101.28 631.92 106.99 C 631.60 110.26 630.96 113.88 633.04 116.73 C 631.92 118.45 630.57 120.01 629.19 121.51 C 627.27 118.00 627.88 113.84 627.60 110.00 C 627.63 104.20 627.18 98.37 627.59 92.59 Z" />
<path fill="#010001" opacity="1.00" d=" M 642.05 90.69 C 645.29 90.61 648.53 90.48 651.78 90.44 C 651.84 91.05 651.96 92.26 652.03 92.87 L 652.13 93.87 C 652.14 95.42 652.13 96.97 652.13 98.52 C 654.46 98.33 656.79 98.30 659.13 98.40 C 659.44 97.30 659.74 96.20 660.01 95.09 C 659.99 94.29 659.95 92.69 659.93 91.90 L 660.29 90.55 C 662.76 89.98 665.29 90.13 667.77 90.67 C 667.32 92.42 666.16 94.27 666.92 96.10 C 667.74 96.90 668.69 97.57 669.61 98.28 L 668.89 97.17 C 669.71 97.31 671.36 97.58 672.18 97.71 C 672.81 97.85 674.06 98.12 674.68 98.26 C 674.72 98.75 674.79 99.72 674.82 100.21 C 673.45 100.87 672.10 101.54 670.74 102.20 C 668.92 101.26 666.53 100.19 664.67 101.57 C 663.33 103.27 662.32 105.20 661.08 106.96 C 660.68 107.34 659.88 108.10 659.48 108.48 C 656.26 108.63 653.06 109.03 649.87 109.48 C 651.30 108.32 652.77 107.20 654.27 106.12 C 657.73 106.76 656.02 100.59 653.88 103.95 C 653.12 104.25 652.37 104.54 651.62 104.82 C 650.82 103.62 650.03 102.42 649.23 101.22 C 649.73 100.44 650.23 99.67 650.74 98.90 C 648.51 98.40 646.29 97.91 644.07 97.43 C 644.56 94.94 644.74 91.98 642.05 90.69 M 658.03 105.96 C 660.09 107.25 659.65 103.87 659.85 102.84 C 657.74 102.42 656.67 104.54 658.03 105.96 Z" />
<path fill="#21201c" opacity="1.00" d=" M 634.48 90.77 C 636.13 90.74 637.79 90.71 639.45 90.68 C 638.79 92.36 637.85 94.05 638.05 95.92 C 638.94 96.78 640.02 97.29 641.31 97.44 C 640.42 96.57 639.52 95.70 638.62 94.84 C 638.99 93.64 639.37 92.44 639.76 91.23 C 640.37 91.49 641.59 92.00 642.20 92.26 C 641.43 93.11 640.67 93.96 639.91 94.81 C 640.61 94.88 642.01 95.02 642.72 95.09 C 643.05 95.68 643.73 96.85 644.07 97.43 C 646.29 97.91 648.51 98.40 650.74 98.90 C 650.23 99.67 649.73 100.44 649.23 101.22 C 650.03 102.42 650.82 103.62 651.62 104.82 C 652.37 104.54 653.12 104.25 653.88 103.95 C 653.97 104.49 654.17 105.58 654.27 106.12 C 652.77 107.20 651.30 108.32 649.87 109.48 C 653.06 109.03 656.26 108.63 659.48 108.48 C 659.88 108.10 660.68 107.34 661.08 106.96 C 659.44 108.70 663.14 109.52 661.89 107.26 C 662.28 107.54 663.08 108.09 663.48 108.37 C 665.82 106.20 668.88 105.22 671.87 104.30 C 671.86 104.80 671.85 105.80 671.85 106.30 C 671.36 106.38 670.39 106.52 669.90 106.60 C 669.85 108.35 669.73 110.11 669.91 111.86 C 671.03 112.65 672.26 113.28 673.48 113.96 C 672.79 119.56 674.16 125.97 670.76 130.84 C 667.23 133.07 662.60 131.75 658.67 131.55 C 659.88 130.55 661.32 129.93 662.80 129.38 C 659.21 128.44 655.52 127.71 652.19 126.01 C 652.65 123.44 653.19 120.81 652.77 118.20 C 652.33 118.09 651.45 117.86 651.02 117.75 C 648.93 122.09 648.04 127.39 649.89 131.99 C 646.65 131.66 642.09 133.34 640.13 129.83 C 636.80 124.89 639.28 118.51 637.26 113.11 C 636.62 113.28 635.33 113.61 634.69 113.78 C 635.55 112.04 636.53 110.37 637.63 108.77 C 637.77 105.38 637.73 101.98 637.65 98.59 C 636.90 98.47 635.38 98.24 634.62 98.13 C 634.53 95.67 634.48 93.22 634.48 90.77 M 661.25 122.11 C 659.82 122.17 659.91 124.52 661.26 124.63 C 662.71 124.65 662.64 122.15 661.25 122.11 Z" />
<path fill="#c8a76f" opacity="1.00" d=" M 639.45 90.68 L 640.43 90.68 C 640.84 90.68 641.64 90.69 642.05 90.69 C 644.74 91.98 644.56 94.94 644.07 97.43 C 643.73 96.85 643.05 95.68 642.72 95.09 C 642.01 95.02 640.61 94.88 639.91 94.81 C 640.67 93.96 641.43 93.11 642.20 92.26 C 641.59 92.00 640.37 91.49 639.76 91.23 C 639.37 92.44 638.99 93.64 638.62 94.84 C 639.52 95.70 640.42 96.57 641.31 97.44 C 640.02 97.29 638.94 96.78 638.05 95.92 C 637.85 94.05 638.79 92.36 639.45 90.68 Z" />
<path fill="#62c8d1" opacity="1.00" d=" M 652.62 90.98 C 655.04 91.13 657.48 91.07 659.89 90.61 L 660.29 90.55 L 659.93 91.90 C 657.43 92.25 654.92 92.44 652.44 92.80 C 652.48 92.34 652.57 91.43 652.62 90.98 Z" />
<path fill="#c8a76f" opacity="1.00" d=" M 667.77 90.67 C 668.53 90.78 669.29 90.88 670.07 90.99 C 670.77 91.12 672.15 91.37 672.85 91.50 C 673.10 93.61 673.01 95.74 672.18 97.71 C 671.36 97.58 669.71 97.31 668.89 97.17 L 669.61 98.28 C 668.69 97.57 667.74 96.90 666.92 96.10 C 666.16 94.27 667.32 92.42 667.77 90.67 M 668.11 91.75 C 668.10 93.06 668.16 94.37 668.30 95.68 C 669.35 96.80 672.12 97.81 672.16 95.40 C 671.31 95.24 669.59 94.91 668.74 94.75 C 669.32 93.79 670.11 93.01 671.09 92.42 C 670.09 92.20 669.10 91.98 668.11 91.75 Z" />
<path fill="#282526" opacity="1.00" d=" M 557.30 92.21 C 561.14 93.08 564.25 95.74 567.43 97.93 C 561.43 101.70 555.87 106.10 549.79 109.72 C 546.58 111.59 544.07 115.18 540.03 115.11 L 540.37 114.22 C 540.39 113.94 540.44 113.39 540.46 113.11 C 537.53 110.42 533.84 108.58 529.84 108.27 L 530.61 107.43 C 530.21 106.64 529.80 105.86 529.38 105.08 C 530.82 104.24 532.39 103.65 534.06 103.42 C 534.66 102.57 535.35 101.78 536.15 101.10 C 536.58 100.99 537.44 100.78 537.87 100.67 C 541.26 99.27 544.30 96.98 547.99 96.40 C 551.45 95.88 554.11 93.43 557.30 92.21 Z" />
<path fill="#9bb96b" opacity="1.00" d=" M 652.44 92.80 C 654.92 92.44 657.43 92.25 659.93 91.90 C 659.95 92.69 659.99 94.29 660.01 95.09 C 659.56 94.95 658.65 94.67 658.20 94.53 C 657.03 94.14 655.94 94.33 654.92 95.09 C 654.55 95.29 653.81 95.68 653.44 95.87 C 652.97 95.22 652.53 94.55 652.13 93.87 L 652.03 92.87 L 652.44 92.80 Z" />
<path fill="#030102" opacity="1.00" d=" M 668.11 91.75 C 669.10 91.98 670.09 92.20 671.09 92.42 C 670.11 93.01 669.32 93.79 668.74 94.75 C 669.59 94.91 671.31 95.24 672.16 95.40 C 672.12 97.81 669.35 96.80 668.30 95.68 C 668.16 94.37 668.10 93.06 668.11 91.75 Z" />
<path fill="#2d2b2b" opacity="1.00" d=" M 584.88 92.82 C 586.19 97.36 585.00 102.20 585.64 106.85 C 581.76 109.28 577.94 111.80 574.26 114.51 C 574.10 109.74 573.60 104.95 574.06 100.19 C 577.05 96.96 580.88 94.61 584.88 92.82 Z" />
<path fill="#5f9291" opacity="1.00" d=" M 652.13 93.87 C 652.53 94.55 652.97 95.22 653.44 95.87 C 653.81 95.68 654.55 95.29 654.92 95.09 C 655.60 97.14 659.62 97.20 658.20 94.53 C 658.65 94.67 659.56 94.95 660.01 95.09 C 659.74 96.20 659.44 97.30 659.13 98.40 C 656.79 98.30 654.46 98.33 652.13 98.52 C 652.13 96.97 652.14 95.42 652.13 93.87 Z" />
<path fill="#ffffff" opacity="1.00" d=" M 654.92 95.09 C 655.94 94.33 657.03 94.14 658.20 94.53 C 659.62 97.20 655.60 97.14 654.92 95.09 Z" />
<path fill="#501e74" opacity="1.00" d=" M 680.03 95.69 C 677.92 97.40 677.62 93.65 679.87 94.00 C 679.91 94.43 679.99 95.27 680.03 95.69 Z" />
<path fill="#1e1c1d" opacity="1.00" d=" M 489.60 95.01 C 492.29 95.17 494.99 95.20 497.70 95.14 C 500.22 95.36 502.73 95.73 505.25 96.12 C 504.06 96.61 502.90 97.16 501.78 97.77 L 500.94 98.25 C 502.12 99.52 503.39 100.72 504.78 101.78 C 504.17 103.87 503.65 106.00 503.23 108.14 C 501.75 105.86 500.30 103.56 498.77 101.32 C 498.32 103.74 498.91 106.52 500.86 108.15 C 503.38 109.71 506.25 110.56 508.95 111.78 C 511.26 112.73 513.55 113.84 516.04 114.31 C 519.77 114.07 523.17 111.93 526.98 112.09 C 531.51 112.18 535.95 113.26 540.37 114.22 L 540.03 115.11 C 534.05 115.60 528.01 115.09 522.06 115.87 C 518.74 116.34 515.29 118.71 511.97 117.11 C 510.08 116.41 508.52 115.11 507.08 113.74 C 502.82 111.77 498.35 110.01 493.56 111.08 C 492.69 110.42 491.82 109.76 491.00 109.05 L 492.48 109.41 C 491.62 108.36 490.77 107.31 489.91 106.28 C 491.84 104.72 493.81 103.21 495.81 101.75 C 493.79 99.46 491.73 97.20 489.60 95.01 Z" />
<path fill="#d01a1e" opacity="1.00" d=" M 608.40 96.29 C 609.95 95.08 611.09 98.01 609.92 99.00 C 608.36 100.22 607.31 97.26 608.40 96.29 Z" />
<path fill="#c9390f" opacity="1.00" d=" M 700.25 96.33 C 701.49 96.61 701.69 97.40 700.83 98.69 C 699.57 98.40 699.38 97.62 700.25 96.33 Z" />
<path fill="#982f15" opacity="1.00" d=" M 702.06 96.17 C 703.64 95.65 704.14 96.24 703.57 97.93 C 701.99 98.45 701.48 97.86 702.06 96.17 Z" />
<path fill="#d01a1e" opacity="1.00" d=" M 611.91 100.01 C 610.19 99.93 610.06 96.84 611.77 96.63 C 613.25 96.94 613.44 99.65 611.91 100.01 Z" />
<path fill="#161515" opacity="1.00" d=" M 500.94 98.25 L 501.78 97.77 C 510.46 103.19 520.49 106.24 530.61 107.43 L 529.84 108.27 C 524.37 108.00 518.90 107.29 513.63 105.77 C 510.55 104.75 507.61 103.36 504.78 101.78 C 503.39 100.72 502.12 99.52 500.94 98.25 Z" />
<path fill="#727271" opacity="1.00" d=" M 481.41 101.07 C 481.98 97.80 485.92 99.06 488.24 99.02 C 487.98 102.36 483.61 100.59 481.41 101.07 Z" />
<path fill="#5e5e5d" opacity="1.00" d=" M 536.15 101.10 C 533.30 99.18 537.69 97.95 537.87 100.67 C 537.44 100.78 536.58 100.99 536.15 101.10 Z" />
<path fill="#4e5253" opacity="1.00" d=" M 703.15 99.17 C 704.54 98.73 704.98 99.22 704.48 100.64 C 703.07 101.08 702.63 100.59 703.15 99.17 Z" />
<path fill="#383635" opacity="1.00" d=" M 614.24 100.26 C 615.69 100.27 615.51 102.77 614.17 102.85 C 612.73 102.76 612.94 100.42 614.24 100.26 Z" />
<path fill="#21005d" opacity="1.00" d=" M 676.04 99.45 C 676.85 101.26 677.20 103.25 675.98 104.97 C 674.70 106.99 675.62 109.32 676.01 111.46 C 676.51 110.97 677.52 110.00 678.02 109.51 C 679.86 106.63 677.45 101.79 681.03 100.24 C 682.96 104.62 683.52 109.43 682.77 114.16 C 681.91 113.15 681.06 112.13 680.21 111.12 C 678.79 112.34 677.37 113.56 675.96 114.78 C 674.06 109.86 673.72 104.29 676.04 99.45 Z" />
<path fill="#1c1a1b" opacity="1.00" d=" M 478.52 100.88 C 479.70 101.50 480.88 102.14 482.10 102.70 C 481.66 102.87 480.77 103.22 480.33 103.39 C 479.72 107.20 479.92 111.06 480.10 114.90 C 480.81 113.68 481.09 111.94 482.58 111.42 C 485.17 110.05 487.85 111.78 490.25 112.72 C 489.57 114.57 488.90 116.43 488.28 118.31 C 491.50 117.48 492.86 114.34 494.38 111.72 C 495.24 113.23 495.36 114.97 495.53 116.66 C 499.99 118.21 504.86 116.95 509.26 118.68 C 507.15 119.69 505.06 120.87 502.75 121.30 C 500.42 121.37 498.19 120.52 495.96 120.01 C 495.30 120.73 494.65 121.46 494.01 122.19 C 494.95 123.18 495.87 124.17 496.85 125.13 C 496.15 124.99 494.74 124.73 494.03 124.60 C 488.79 123.45 484.42 119.42 478.94 119.40 C 482.33 121.53 486.24 123.41 488.37 126.98 C 489.40 129.02 487.70 130.32 486.41 131.59 C 480.81 132.05 475.11 129.96 471.90 125.20 C 471.06 125.92 470.23 126.64 469.41 127.37 C 464.58 127.60 459.75 127.36 454.93 127.69 C 452.26 129.20 448.83 127.81 446.29 129.50 C 444.90 129.74 443.51 129.97 442.12 130.18 C 440.62 129.09 438.74 129.44 437.08 129.81 C 434.95 130.01 433.65 128.02 432.25 126.79 C 434.55 123.27 438.93 125.59 442.13 124.06 C 442.46 123.80 443.10 123.27 443.42 123.01 C 448.15 123.84 452.97 123.38 457.51 121.84 C 462.36 121.38 467.93 123.68 472.19 120.24 C 474.87 118.64 473.67 115.28 473.32 112.82 C 474.38 114.82 475.11 116.96 475.78 119.12 C 476.87 118.16 477.98 117.22 479.09 116.27 C 478.01 115.08 476.95 113.90 475.87 112.73 C 476.37 112.44 477.36 111.88 477.85 111.59 C 478.95 108.14 478.71 104.45 478.52 100.88 M 474.43 125.07 C 477.10 128.92 482.70 130.12 487.12 129.17 C 486.41 125.75 483.10 123.77 480.10 122.58 C 478.07 122.08 473.82 121.86 474.43 125.07 Z" />
<path fill="#2c292a" opacity="1.00" d=" M 500.86 108.15 C 498.91 106.52 498.32 103.74 498.77 101.32 C 500.30 103.56 501.75 105.86 503.23 108.14 C 503.65 106.00 504.17 103.87 504.78 101.78 C 507.61 103.36 510.55 104.75 513.63 105.77 C 513.53 107.18 513.63 108.64 513.17 110.00 C 511.81 110.71 510.36 111.22 508.95 111.78 C 506.25 110.56 503.38 109.71 500.86 108.15 Z" />
<path fill="#302d2e" opacity="1.00" d=" M 443.96 108.69 C 444.74 106.68 444.95 103.10 447.89 103.41 C 450.03 104.20 450.47 106.89 451.76 108.57 C 454.93 107.92 457.92 106.68 460.99 105.69 C 464.02 104.89 467.10 105.87 469.57 107.65 C 468.74 107.76 467.08 107.99 466.24 108.10 C 465.31 108.11 463.44 108.14 462.51 108.16 C 459.80 108.68 457.18 109.58 454.44 109.92 C 452.81 110.00 451.18 110.04 449.57 110.21 L 448.37 111.11 C 446.78 111.60 445.16 112.01 443.52 112.32 C 441.28 112.73 438.81 112.85 437.16 114.64 C 436.76 113.37 436.16 112.20 435.52 111.05 C 434.13 112.40 432.75 113.75 431.33 115.07 C 432.43 109.25 438.93 107.79 443.96 108.69 M 445.32 108.25 C 446.79 108.60 448.27 108.94 449.76 109.27 C 449.49 107.51 449.27 104.79 447.02 104.51 C 446.10 105.56 445.53 106.81 445.32 108.25 M 440.22 111.32 C 440.71 111.82 440.71 111.82 440.22 111.32 Z" />
<path fill="#070606" opacity="1.00" d=" M 480.33 103.39 C 480.77 103.22 481.66 102.87 482.10 102.70 C 484.38 103.71 487.00 104.33 488.74 106.25 L 488.46 106.59 C 489.27 107.43 490.09 108.29 491.00 109.05 C 491.82 109.76 492.69 110.42 493.56 111.08 L 494.38 111.72 C 492.86 114.34 491.50 117.48 488.28 118.31 C 488.90 116.43 489.57 114.57 490.25 112.72 C 487.85 111.78 485.17 110.05 482.58 111.42 C 481.09 111.94 480.81 113.68 480.10 114.90 C 479.92 111.06 479.72 107.20 480.33 103.39 Z" />
<path fill="#262324" opacity="1.00" d=" M 567.35 103.26 C 567.96 103.25 569.17 103.21 569.78 103.20 C 569.89 107.93 569.98 112.67 570.20 117.41 C 568.26 118.76 566.31 120.10 564.43 121.53 C 564.35 116.35 564.49 111.13 563.54 106.02 C 564.18 105.99 565.46 105.94 566.10 105.92 C 566.35 109.41 565.70 113.19 567.45 116.40 C 568.09 112.04 567.82 107.62 567.35 103.26 Z" />
<path fill="#9f2a13" opacity="1.00" d=" M 653.88 103.95 C 656.02 100.59 657.73 106.76 654.27 106.12 C 654.17 105.58 653.97 104.49 653.88 103.95 Z" />
<path fill="#d01a1e" opacity="1.00" d=" M 658.03 105.96 C 656.67 104.54 657.74 102.42 659.85 102.84 C 659.65 103.87 660.09 107.25 658.03 105.96 Z" />
<path fill="#070707" opacity="0.39" d=" M 445.32 108.25 C 445.53 106.81 446.10 105.56 447.02 104.51 C 449.27 104.79 449.49 107.51 449.76 109.27 C 448.27 108.94 446.79 108.60 445.32 108.25 Z" />
<path fill="#643655" opacity="1.00" d=" M 676.01 111.46 C 675.62 109.32 674.70 106.99 675.98 104.97 C 676.65 106.49 677.31 108.00 678.02 109.51 C 677.52 110.00 676.51 110.97 676.01 111.46 Z" />
<path fill="#393637" opacity="1.00" d=" M 513.63 105.77 C 518.90 107.29 524.37 108.00 529.84 108.27 C 533.84 108.58 537.53 110.42 540.46 113.11 C 540.44 113.39 540.39 113.94 540.37 114.22 C 535.95 113.26 531.51 112.18 526.98 112.09 C 523.17 111.93 519.77 114.07 516.04 114.31 C 513.55 113.84 511.26 112.73 508.95 111.78 C 510.36 111.22 511.81 110.71 513.17 110.00 C 513.63 108.64 513.53 107.18 513.63 105.77 Z" />
<path fill="#030203" opacity="0.55" d=" M 574.26 114.51 C 577.94 111.80 581.76 109.28 585.64 106.85 C 585.62 107.38 585.58 108.43 585.55 108.95 C 575.77 116.07 565.82 122.96 556.05 130.10 C 550.22 133.52 545.26 138.35 539.01 141.05 C 532.89 141.08 527.19 138.20 521.45 136.37 C 512.72 132.75 503.75 129.69 495.15 125.77 C 494.87 125.48 494.31 124.89 494.03 124.60 C 494.74 124.73 496.15 124.99 496.85 125.13 C 507.04 129.58 517.49 133.39 527.87 137.39 C 532.24 138.78 537.53 141.11 541.56 137.66 C 541.86 137.45 542.46 137.04 542.77 136.83 C 549.87 131.56 557.43 126.94 564.43 121.53 C 566.31 120.10 568.26 118.76 570.20 117.41 C 571.56 116.46 572.91 115.48 574.26 114.51 Z" />
<path fill="#5d5e5e" opacity="1.00" d=" M 661.08 106.96 L 661.89 107.26 C 663.14 109.52 659.44 108.70 661.08 106.96 Z" />
<path fill="#423f3f" opacity="1.00" d=" M 454.44 109.92 C 457.18 109.58 459.80 108.68 462.51 108.16 C 462.45 108.98 462.43 109.80 462.44 110.63 C 463.56 110.91 464.70 111.16 465.86 111.36 C 465.95 110.55 466.15 108.92 466.24 108.10 C 467.08 107.99 468.74 107.76 469.57 107.65 C 470.98 109.25 472.45 110.85 473.32 112.82 C 473.67 115.28 474.87 118.64 472.19 120.24 C 467.93 123.68 462.36 121.38 457.51 121.84 C 452.97 123.38 448.15 123.84 443.42 123.01 L 442.88 122.34 C 444.37 121.20 446.18 119.97 446.34 117.91 C 446.82 115.58 444.72 113.98 443.52 112.32 C 445.16 112.01 446.78 111.60 448.37 111.11 C 449.96 111.21 451.57 111.36 453.17 111.52 C 451.77 111.64 450.38 111.75 448.99 111.85 C 449.78 113.10 450.56 114.36 451.34 115.62 C 454.32 115.09 454.87 112.48 454.44 109.92 M 457.95 112.96 C 457.84 115.29 460.77 114.87 462.06 113.98 C 461.92 113.31 461.63 111.97 461.48 111.31 C 460.18 111.10 457.59 110.93 457.95 112.96 M 465.79 114.75 C 466.36 115.09 467.50 115.78 468.07 116.13 C 469.17 115.34 470.96 113.93 469.38 112.60 C 467.83 110.64 465.54 112.77 465.79 114.75 M 462.38 115.35 C 460.47 117.08 462.41 119.72 464.70 118.98 C 467.25 117.55 464.67 114.16 462.38 115.35 M 447.30 116.23 C 447.77 116.75 447.77 116.75 447.30 116.23 M 459.29 116.25 C 459.78 116.76 459.78 116.76 459.29 116.25 M 451.21 118.31 C 450.01 120.60 454.48 120.77 454.63 118.67 C 454.31 117.20 452.03 117.42 451.21 118.31 M 446.28 120.22 C 446.76 120.72 446.76 120.72 446.28 120.22 M 462.27 120.30 C 462.76 120.80 462.76 120.80 462.27 120.30 Z" />
<path fill="#167096" opacity="1.00" d=" M 462.51 108.16 C 463.44 108.14 465.31 108.11 466.24 108.10 C 466.15 108.92 465.95 110.55 465.86 111.36 C 464.70 111.16 463.56 110.91 462.44 110.63 C 462.43 109.80 462.45 108.98 462.51 108.16 Z" />
<path fill="#656464" opacity="1.00" d=" M 449.57 110.21 C 451.18 110.04 452.81 110.00 454.44 109.92 C 454.87 112.48 454.32 115.09 451.34 115.62 C 450.56 114.36 449.78 113.10 448.99 111.85 C 450.38 111.75 451.77 111.64 453.17 111.52 C 451.57 111.36 449.96 111.21 448.37 111.11 L 449.57 110.21 Z" />
<path fill="#504f4f" opacity="1.00" d=" M 435.52 111.05 C 436.16 112.20 436.76 113.37 437.16 114.64 L 436.61 115.87 C 436.48 116.17 436.21 116.76 436.08 117.06 C 435.83 117.59 435.33 118.66 435.08 119.19 C 434.21 120.25 433.34 121.31 432.45 122.34 C 432.06 120.05 431.72 117.75 431.39 115.45 L 431.33 115.07 C 432.75 113.75 434.13 112.40 435.52 111.05 Z" />
<path fill="#9c9b9b" opacity="1.00" d=" M 440.22 111.32 C 440.71 111.82 440.71 111.82 440.22 111.32 Z" />
<path fill="#189357" opacity="1.00" d=" M 457.95 112.96 C 457.59 110.93 460.18 111.10 461.48 111.31 C 461.63 111.97 461.92 113.31 462.06 113.98 C 460.77 114.87 457.84 115.29 457.95 112.96 Z" />
<path fill="#282526" opacity="1.00" d=" M 493.56 111.08 C 498.35 110.01 502.82 111.77 507.08 113.74 C 508.52 115.11 510.08 116.41 511.97 117.11 C 515.29 118.71 518.74 116.34 522.06 115.87 C 521.48 116.42 520.91 116.97 520.34 117.52 C 523.09 118.29 525.73 119.40 528.29 120.65 C 529.34 125.62 530.31 130.62 530.67 135.70 C 534.29 136.36 537.92 137.00 541.56 137.66 C 537.53 141.11 532.24 138.78 527.87 137.39 C 517.49 133.39 507.04 129.58 496.85 125.13 C 495.87 124.17 494.95 123.18 494.01 122.19 C 494.65 121.46 495.30 120.73 495.96 120.01 C 498.19 120.52 500.42 121.37 502.75 121.30 C 505.06 120.87 507.15 119.69 509.26 118.68 C 504.86 116.95 499.99 118.21 495.53 116.66 C 495.36 114.97 495.24 113.23 494.38 111.72 L 493.56 111.08 M 515.86 122.90 C 515.19 127.60 521.00 127.52 524.05 129.00 C 525.05 124.13 519.09 124.00 515.86 122.90 Z" />
<path fill="#09001e" opacity="1.00" d=" M 675.96 114.78 C 677.37 113.56 678.79 112.34 680.21 111.12 C 681.06 112.13 681.91 113.15 682.77 114.16 C 682.52 116.08 682.13 117.99 681.78 119.89 C 679.72 118.32 677.69 116.70 675.96 114.78 Z" />
<path fill="#444647" opacity="1.00" d=" M 702.16 111.45 C 703.54 111.03 704.01 111.52 703.59 112.93 C 702.19 113.36 701.71 112.87 702.16 111.45 Z" />
<path fill="#c38938" opacity="1.00" d=" M 465.79 114.75 C 465.54 112.77 467.83 110.64 469.38 112.60 C 470.96 113.93 469.17 115.34 468.07 116.13 C 467.50 115.78 466.36 115.09 465.79 114.75 Z" />
<path fill="#100e0e" opacity="1.00" d=" M 437.16 114.64 C 438.81 112.85 441.28 112.73 443.52 112.32 C 444.72 113.98 446.82 115.58 446.34 117.91 C 446.18 119.97 444.37 121.20 442.88 122.34 L 442.10 122.38 C 441.27 122.20 439.62 121.85 438.80 121.67 L 438.51 121.47 L 438.24 121.26 C 437.18 119.65 436.81 117.75 436.61 115.87 L 437.16 114.64 M 438.52 115.89 C 437.80 118.81 440.82 118.40 442.75 118.63 C 442.77 116.59 440.31 113.33 438.52 115.89 M 443.22 116.33 C 441.50 119.25 446.53 116.63 443.22 116.33 Z" />
<path fill="#040404" opacity="1.00" d=" M 634.69 113.78 C 635.33 113.61 636.62 113.28 637.26 113.11 C 639.28 118.51 636.80 124.89 640.13 129.83 C 642.09 133.34 646.65 131.66 649.89 131.99 C 652.48 131.99 655.06 132.20 657.65 132.41 C 658.05 132.81 658.85 133.62 659.25 134.02 C 652.57 132.65 645.88 134.59 639.16 133.91 C 635.95 128.62 630.59 125.08 624.68 123.49 C 626.21 122.91 627.72 122.27 629.19 121.51 C 630.57 120.01 631.92 118.45 633.04 116.73 C 633.61 115.76 634.16 114.77 634.69 113.78 Z" />
<path fill="#3a3836" opacity="1.00" d=" M 614.39 114.06 C 615.75 113.62 616.24 114.11 615.84 115.54 C 614.47 115.98 613.98 115.49 614.39 114.06 Z" />
<path fill="#515050" opacity="1.00" d=" M 438.52 115.89 C 440.31 113.33 442.77 116.59 442.75 118.63 C 440.82 118.40 437.80 118.81 438.52 115.89 Z" />
<path fill="#b2454d" opacity="1.00" d=" M 462.38 115.35 C 464.67 114.16 467.25 117.55 464.70 118.98 C 462.41 119.72 460.47 117.08 462.38 115.35 Z" />
<path fill="#302d2e" opacity="1.00" d=" M 432.25 126.79 C 430.00 123.42 429.89 119.15 431.39 115.45 C 431.72 117.75 432.06 120.05 432.45 122.34 C 433.34 121.31 434.21 120.25 435.08 119.19 L 435.86 118.90 C 435.91 118.44 436.02 117.52 436.08 117.06 C 436.21 116.76 436.48 116.17 436.61 115.87 C 436.81 117.75 437.18 119.65 438.24 121.26 L 438.42 121.57 L 438.80 121.67 C 439.62 121.85 441.27 122.20 442.10 122.38 C 442.11 122.80 442.13 123.64 442.13 124.06 C 438.93 125.59 434.55 123.27 432.25 126.79 Z" />
<path fill="#5c5b5b" opacity="1.00" d=" M 443.22 116.33 C 446.53 116.63 441.50 119.25 443.22 116.33 Z" />
<path fill="#aeaeac" opacity="1.00" d=" M 447.30 116.23 C 447.77 116.75 447.77 116.75 447.30 116.23 Z" />
<path fill="#737170" opacity="1.00" d=" M 459.29 116.25 C 459.78 116.76 459.78 116.76 459.29 116.25 Z" />
<path fill="#888786" opacity="1.00" d=" M 435.08 119.19 C 435.33 118.66 435.83 117.59 436.08 117.06 C 436.02 117.52 435.91 118.44 435.86 118.90 L 435.08 119.19 Z" />
<path fill="#5e5d5d" opacity="1.00" d=" M 451.21 118.31 C 452.03 117.42 454.31 117.20 454.63 118.67 C 454.48 120.77 450.01 120.60 451.21 118.31 Z" />
<path fill="#070707" opacity="1.00" d=" M 693.13 122.22 C 697.48 120.85 701.83 119.46 706.35 118.74 C 706.37 120.38 706.21 122.01 705.93 123.63 C 700.68 125.36 696.35 129.21 693.77 134.06 C 692.05 133.83 690.35 133.48 688.73 132.88 C 688.31 133.16 687.46 133.72 687.04 134.00 C 684.25 134.00 681.46 134.00 678.69 133.99 C 680.59 130.25 683.69 126.26 681.48 121.93 C 685.33 122.31 689.33 123.63 693.13 122.22 Z" />
<path fill="#949392" opacity="1.00" d=" M 446.28 120.22 C 446.76 120.72 446.76 120.72 446.28 120.22 Z" />
<path fill="#787776" opacity="1.00" d=" M 462.27 120.30 C 462.76 120.80 462.76 120.80 462.27 120.30 Z" />
<path fill="#686866" opacity="1.00" d=" M 438.24 121.26 L 438.51 121.47 L 438.80 121.67 L 438.42 121.57 L 438.24 121.26 Z" />
<path fill="#1c1a1b" opacity="1.00" d=" M 528.29 120.65 C 532.73 121.82 537.44 121.46 541.80 123.06 C 541.79 127.66 541.43 132.36 542.77 136.83 C 542.46 137.04 541.86 137.45 541.56 137.66 C 537.92 137.00 534.29 136.36 530.67 135.70 C 530.31 130.62 529.34 125.62 528.29 120.65 Z" />
<path fill="#7b7a79" opacity="1.00" d=" M 442.10 122.38 L 442.88 122.34 L 443.42 123.01 C 443.10 123.27 442.46 123.80 442.13 124.06 C 442.13 123.64 442.11 122.80 442.10 122.38 Z" />
<path fill="#505050" opacity="1.00" d=" M 661.25 122.11 C 662.64 122.15 662.71 124.65 661.26 124.63 C 659.91 124.52 659.82 122.17 661.25 122.11 Z" />
<path fill="#111011" opacity="1.00" d=" M 515.86 122.90 C 519.09 124.00 525.05 124.13 524.05 129.00 C 521.00 127.52 515.19 127.60 515.86 122.90 Z" />
<path fill="#353333" opacity="0.98" d=" M 437.08 129.81 C 438.74 129.44 440.62 129.09 442.12 130.18 C 440.77 131.34 438.25 131.14 437.08 129.81 Z" />
<path fill="#ffff26" opacity="1.00" d=" M 178.74 288.64 C 180.04 286.70 181.22 283.89 183.95 283.84 C 186.46 284.19 188.68 285.53 191.08 286.29 C 191.44 285.71 192.17 284.55 192.53 283.97 C 193.70 284.79 194.85 285.64 195.99 286.50 C 195.01 288.55 193.61 290.96 191.04 291.04 C 188.55 290.62 186.36 289.28 183.99 288.49 C 183.31 289.34 182.63 290.21 181.96 291.08 C 180.88 290.26 179.81 289.45 178.74 288.64 Z" />
<path fill="#ffff26" opacity="1.00" d=" M 80.31 294.37 C 84.75 289.87 93.87 290.86 96.45 296.93 C 97.84 301.00 97.42 305.39 97.51 309.62 C 94.68 309.62 91.85 309.62 89.03 309.65 C 88.94 306.35 89.17 303.04 88.85 299.75 C 89.17 297.86 85.99 297.91 86.17 299.75 C 85.84 307.86 85.95 316.02 86.11 324.15 C 85.66 325.49 87.62 327.08 88.52 325.70 C 89.41 322.60 88.86 319.29 89.01 316.11 C 91.85 316.12 94.69 316.12 97.54 316.14 C 97.41 319.95 97.73 323.92 96.37 327.56 C 93.68 333.66 84.52 334.67 80.07 330.02 C 77.62 327.32 77.73 323.41 77.52 320.00 C 77.51 314.01 77.41 308.01 77.58 302.03 C 77.62 299.27 78.33 296.39 80.31 294.37 Z" />
<path fill="#ffff26" opacity="1.00" d=" M 105.51 292.70 C 110.52 290.04 117.88 292.19 119.41 298.00 C 120.70 304.23 119.90 310.67 120.13 316.99 C 119.96 321.24 120.62 326.11 117.74 329.65 C 113.93 334.33 105.39 333.97 102.24 328.71 C 100.42 325.82 100.62 322.25 100.50 318.97 C 100.56 313.01 100.32 307.05 100.68 301.10 C 100.80 297.76 102.42 294.26 105.51 292.70 M 109.14 299.78 C 108.79 306.84 109.12 313.93 108.98 320.99 C 109.21 322.95 108.26 326.17 111.11 326.41 C 112.01 322.01 111.50 317.49 111.62 313.03 C 111.51 308.49 111.88 303.92 111.42 299.39 C 111.30 297.59 109.03 298.33 109.14 299.78 Z" />
<path fill="#ffff26" opacity="1.00" d=" M 138.74 292.52 C 143.44 292.47 148.13 292.53 152.83 292.47 C 152.88 295.11 152.88 297.74 152.87 300.38 C 150.99 300.37 149.13 300.37 147.26 300.37 C 147.25 302.86 147.25 305.36 147.24 307.87 C 148.99 307.87 150.75 307.87 152.50 307.88 C 152.50 310.38 152.50 312.87 152.50 315.38 C 150.75 315.37 149.00 315.37 147.26 315.37 C 147.24 318.30 147.24 321.24 147.27 324.18 C 149.35 324.13 151.42 324.11 153.50 324.11 C 153.50 326.74 153.50 329.37 153.50 332.00 C 148.58 332.00 143.67 332.00 138.75 332.00 C 138.74 318.84 138.76 305.68 138.74 292.52 Z" />
<path fill="#ffff26" opacity="1.00" d=" M 159.49 293.38 C 164.16 290.10 172.02 291.32 174.42 296.86 C 175.85 300.94 175.42 305.36 175.51 309.62 C 172.68 309.62 169.85 309.62 167.03 309.65 C 166.89 306.10 167.28 302.52 166.71 299.01 C 166.14 297.75 163.93 298.35 164.18 299.79 C 163.83 307.87 163.97 315.99 164.10 324.07 C 163.84 325.63 165.27 326.87 166.62 325.73 C 167.26 322.57 166.94 319.32 167.01 316.11 C 169.86 316.11 172.72 316.10 175.57 316.19 C 175.24 320.75 176.18 326.13 172.84 329.83 C 171.21 331.84 168.63 332.58 166.17 332.95 C 170.49 333.75 169.92 339.97 166.00 340.88 C 163.27 341.79 161.39 339.31 160.67 337.03 C 162.51 336.70 164.12 338.09 165.89 337.85 C 166.89 336.30 165.41 335.17 164.09 334.75 C 164.38 332.06 161.20 332.46 159.62 331.34 C 156.11 329.15 155.64 324.68 155.54 320.94 C 155.48 314.62 155.42 308.31 155.58 302.00 C 155.60 298.76 156.71 295.28 159.49 293.38 Z" />
<path fill="#ffff26" opacity="1.00" d=" M 181.21 292.46 C 185.25 292.52 189.30 292.49 193.35 292.50 C 194.98 305.67 196.62 318.83 198.25 332.00 C 195.31 332.02 192.36 332.04 189.43 331.87 C 189.36 329.54 189.23 327.20 189.09 324.88 C 188.33 324.88 186.80 324.87 186.04 324.87 C 185.89 327.22 185.75 329.58 185.64 331.94 C 182.68 332.01 179.72 332.01 176.76 332.00 C 178.26 318.82 179.61 305.62 181.21 292.46 M 187.41 301.27 C 187.12 306.84 186.31 312.36 185.99 317.93 C 186.69 317.91 188.09 317.86 188.79 317.83 C 188.19 312.34 188.24 306.64 187.41 301.27 Z" />
<path fill="#ffff26" opacity="1.00" d=" M 204.55 292.68 C 209.54 290.05 216.87 292.20 218.40 297.98 C 219.71 304.22 218.90 310.68 219.13 317.02 C 218.98 321.47 219.65 326.71 216.25 330.20 C 211.51 335.13 201.55 333.11 200.10 326.07 C 198.97 319.12 199.70 312.02 199.51 305.00 C 199.39 300.50 199.99 294.92 204.55 292.68 M 208.63 298.62 C 207.58 300.55 208.14 302.90 207.99 305.01 C 208.20 311.92 207.61 318.88 208.31 325.77 C 210.39 327.24 210.55 324.59 210.60 323.12 C 210.64 315.73 210.66 308.33 210.59 300.94 C 210.72 299.84 210.14 297.38 208.63 298.62 Z" />
<path fill="#ffffff" opacity="1.00" d=" M 18.75 292.50 C 22.41 292.50 26.08 292.49 29.74 292.52 C 30.32 298.69 31.55 304.82 31.64 311.03 C 32.90 304.93 33.10 298.67 33.90 292.50 C 37.56 292.50 41.22 292.50 44.88 292.50 C 44.88 305.66 44.87 318.83 44.88 331.99 C 42.42 332.00 39.96 332.00 37.50 332.00 C 37.52 323.30 37.42 314.59 37.60 305.89 C 36.25 314.52 35.50 323.24 34.56 331.92 C 32.78 331.97 31.01 331.99 29.24 332.01 C 28.33 323.34 26.97 314.70 26.49 305.99 C 25.80 314.64 26.25 323.33 26.13 332.00 C 23.67 332.00 21.21 332.00 18.75 332.00 C 18.75 318.83 18.75 305.67 18.75 292.50 Z" />
<path fill="#ffffff" opacity="1.00" d=" M 48.22 292.53 C 51.06 292.49 53.90 292.49 56.75 292.50 C 56.76 297.36 56.74 302.22 56.74 307.09 C 58.39 302.33 59.32 297.35 60.67 292.50 C 63.29 292.49 65.92 292.49 68.55 292.50 C 66.98 298.39 65.20 304.22 63.74 310.13 C 65.15 317.48 67.22 324.70 68.94 331.98 C 66.01 332.00 63.08 332.00 60.15 331.99 C 58.99 326.60 58.21 321.12 56.67 315.82 C 56.81 321.21 56.73 326.61 56.75 332.00 C 53.91 332.00 51.07 332.00 48.24 331.98 C 48.25 318.83 48.28 305.68 48.22 292.53 Z" />
<path fill="#ffff26" opacity="1.00" d=" M 123.23 331.98 C 123.33 318.79 123.12 305.61 123.35 292.43 C 126.16 292.50 128.97 292.50 131.79 292.55 C 131.70 303.07 131.77 313.59 131.75 324.12 C 133.46 324.12 135.17 324.12 136.88 324.12 C 136.87 326.74 136.87 329.37 136.88 331.99 C 132.33 332.00 127.78 332.01 123.23 331.98 Z" />
</svg>
