<?xml version="1.0" encoding="UTF-8" ?>
<!DOCTYPE svg PUBLIC "-//W3C//DTD SVG 1.1//EN" "http://www.w3.org/Graphics/SVG/1.1/DTD/svg11.dtd">
<svg width="960pt" height="540pt" viewBox="0 0 960 540" version="1.1" xmlns="http://www.w3.org/2000/svg">
<path fill="#588cdc" opacity="1.00" d=" M 489.39 50.07 C 492.51 48.69 495.53 46.45 498.97 46.12 C 510.74 49.75 522.20 54.30 533.81 58.42 C 537.97 60.51 542.73 61.29 546.71 63.71 C 543.40 63.48 540.08 63.56 536.77 63.57 C 536.03 64.27 535.29 64.96 534.53 65.64 C 534.48 64.72 534.37 62.88 534.32 61.96 C 532.41 61.45 530.51 60.94 528.62 60.43 L 528.58 62.32 C 529.58 62.40 531.58 62.58 532.58 62.66 C 530.77 64.47 528.14 63.33 525.94 63.38 C 525.94 62.75 525.94 61.47 525.94 60.83 C 526.06 60.23 526.31 59.02 526.43 58.42 C 523.46 58.68 520.45 59.27 518.09 61.25 C 517.56 61.24 516.49 61.22 515.96 61.21 L 515.57 60.80 C 517.88 59.91 520.05 58.70 521.95 57.09 C 520.26 56.69 518.58 56.29 516.89 55.98 L 516.06 55.86 C 511.69 52.83 506.40 51.63 501.52 49.70 C 499.14 48.60 497.03 50.67 495.12 51.78 C 496.35 51.69 497.58 51.60 498.82 51.49 C 499.59 52.21 500.36 52.93 501.14 53.65 C 501.53 53.28 502.30 52.54 502.68 52.17 C 502.70 52.94 502.73 54.47 502.74 55.23 C 502.37 55.23 501.65 55.24 501.28 55.24 C 499.32 54.83 497.42 54.19 495.55 53.47 C 495.06 53.62 494.06 53.92 493.57 54.07 L 494.12 52.84 C 493.83 52.89 493.26 52.98 492.97 53.03 C 491.76 52.06 490.57 51.06 489.39 50.07 Z" />
<path fill="#676a78" opacity="0.91" d=" M 479.22 49.17 C 482.25 45.66 485.84 50.31 489.39 50.07 C 490.57 51.06 491.76 52.06 492.97 53.03 C 487.97 54.70 483.73 50.63 479.22 49.17 Z" />
<path fill="#454545" opacity="0.44" d=" M 479.12 50.69 C 477.54 50.36 477.49 49.81 478.97 49.06 C 479.01 49.47 479.08 50.28 479.12 50.69 Z" />
<path fill="#131d2b" opacity="1.00" d=" M 478.97 49.06 L 479.22 49.17 C 483.73 50.63 487.97 54.70 492.97 53.03 C 493.26 52.98 493.83 52.89 494.12 52.84 L 493.57 54.07 L 493.07 55.11 C 495.63 56.25 498.33 55.75 500.97 55.27 C 502.77 58.10 502.37 61.54 502.83 64.72 L 502.60 65.29 C 500.81 66.10 498.81 67.08 496.96 65.87 C 496.67 63.42 498.26 59.69 495.01 58.76 C 494.40 58.38 493.18 57.60 492.57 57.21 C 492.17 58.14 491.79 59.07 491.41 59.99 C 491.51 59.24 491.72 57.75 491.83 57.01 C 487.74 55.29 483.71 53.43 479.82 51.30 C 480.10 53.05 480.38 54.79 480.59 56.55 C 479.95 55.81 479.30 55.08 478.64 54.36 C 478.76 53.45 479.00 51.61 479.12 50.69 C 479.08 50.28 479.01 49.47 478.97 49.06 Z" />
<path fill="#e8cb8c" opacity="1.00" d=" M 495.12 51.78 C 497.03 50.67 499.14 48.60 501.52 49.70 C 506.40 51.63 511.69 52.83 516.06 55.86 C 516.02 56.33 515.96 57.28 515.93 57.76 C 511.30 58.11 507.23 55.66 502.74 55.23 C 502.73 54.47 502.70 52.94 502.68 52.17 C 502.30 52.54 501.53 53.28 501.14 53.65 C 500.36 52.93 499.59 52.21 498.82 51.49 C 497.58 51.60 496.35 51.69 495.12 51.78 M 504.49 53.27 C 504.33 54.72 506.88 54.52 507.55 53.67 C 507.71 52.19 505.14 52.42 504.49 53.27 M 509.12 54.66 C 508.62 56.37 512.48 56.83 512.65 55.20 C 511.81 54.30 510.16 54.01 509.12 54.66 Z" />
<path fill="#7e9bd1" opacity="1.00" d=" M 479.82 51.30 C 483.71 53.43 487.74 55.29 491.83 57.01 C 491.72 57.75 491.51 59.24 491.41 59.99 C 491.79 59.07 492.17 58.14 492.57 57.21 C 493.18 57.60 494.40 58.38 495.01 58.76 C 494.93 58.86 494.76 59.07 494.68 59.17 L 495.01 59.13 C 495.00 60.94 495.01 62.75 495.04 64.57 C 494.55 65.04 493.57 65.99 493.09 66.46 C 488.42 64.51 484.20 61.61 479.43 59.87 C 479.50 59.26 479.59 58.66 479.71 58.05 L 480.65 57.05 C 480.64 56.92 480.61 56.68 480.59 56.55 C 480.38 54.79 480.10 53.05 479.82 51.30 Z" />
<path fill="#ffffff" opacity="1.00" d=" M 493.57 54.07 C 494.06 53.92 495.06 53.62 495.55 53.47 C 497.42 54.19 499.32 54.83 501.28 55.24 L 500.97 55.27 C 498.33 55.75 495.63 56.25 493.07 55.11 L 493.57 54.07 Z" />
<path fill="#7362bf" opacity="1.00" d=" M 504.49 53.27 C 505.14 52.42 507.71 52.19 507.55 53.67 C 506.88 54.52 504.33 54.72 504.49 53.27 Z" />
<path fill="#6d5dc3" opacity="1.00" d=" M 509.12 54.66 C 510.16 54.01 511.81 54.30 512.65 55.20 C 512.48 56.83 508.62 56.37 509.12 54.66 Z" />
<path fill="#4382dc" opacity="1.00" d=" M 501.28 55.24 C 501.65 55.24 502.37 55.23 502.74 55.23 C 507.23 55.66 511.30 58.11 515.93 57.76 C 515.84 58.52 515.66 60.04 515.57 60.80 L 515.96 61.21 C 516.49 61.22 517.56 61.24 518.09 61.25 C 518.85 61.20 520.37 61.10 521.13 61.05 C 521.12 62.57 522.79 63.03 524.02 63.12 L 525.21 63.75 C 525.39 63.02 525.76 61.56 525.94 60.83 C 525.94 61.47 525.94 62.75 525.94 63.38 C 528.03 65.97 531.52 65.82 534.53 65.64 C 535.29 64.96 536.03 64.27 536.77 63.57 C 540.08 63.56 543.40 63.48 546.71 63.71 L 547.39 64.11 C 546.19 65.25 545.18 66.53 545.00 68.22 C 544.71 68.34 544.12 68.57 543.82 68.69 C 541.18 67.58 539.64 70.97 537.09 70.65 C 529.86 70.27 522.32 72.25 515.37 69.44 C 511.51 67.80 507.30 67.60 503.17 67.54 C 503.09 66.83 502.92 65.42 502.83 64.72 C 502.37 61.54 502.77 58.10 500.97 55.27 L 501.28 55.24 Z" />
<path fill="#4780d8" opacity="1.00" d=" M 460.02 64.64 C 466.07 61.79 471.98 58.67 477.88 55.54 C 478.54 56.06 479.20 56.58 479.86 57.11 L 479.71 58.05 C 479.59 58.66 479.50 59.26 479.43 59.87 C 479.63 60.43 480.01 61.55 480.20 62.11 C 474.21 63.99 467.96 64.93 462.05 67.06 C 461.54 66.46 460.53 65.25 460.02 64.64 Z" />
<path fill="#f4dc6b" opacity="1.00" d=" M 516.06 55.86 L 516.89 55.98 C 516.65 56.43 516.17 57.31 515.93 57.76 C 515.96 57.28 516.02 56.33 516.06 55.86 Z" />
<path fill="#ceb783" opacity="1.00" d=" M 516.89 55.98 C 518.58 56.29 520.26 56.69 521.95 57.09 C 520.05 58.70 517.88 59.91 515.57 60.80 C 515.66 60.04 515.84 58.52 515.93 57.76 C 516.17 57.31 516.65 56.43 516.89 55.98 Z" />
<path fill="#1e4dba" opacity="1.00" d=" M 494.68 59.17 C 494.76 59.07 494.93 58.86 495.01 58.76 L 495.01 59.13 L 494.68 59.17 Z" />
<path fill="#abb8cf" opacity="1.00" d=" M 495.01 58.76 C 498.26 59.69 496.67 63.42 496.96 65.87 C 496.48 65.54 495.52 64.89 495.04 64.57 C 495.01 62.75 495.00 60.94 495.01 59.13 L 495.01 58.76 Z" />
<path fill="#e3cc70" opacity="1.00" d=" M 518.09 61.25 C 520.45 59.27 523.46 58.68 526.43 58.42 C 526.31 59.02 526.06 60.23 525.94 60.83 C 525.76 61.56 525.39 63.02 525.21 63.75 L 524.02 63.12 C 523.96 61.56 522.65 60.46 521.13 61.05 C 520.37 61.10 518.85 61.20 518.09 61.25 Z" />
<path fill="#0260d4" opacity="1.00" d=" M 479.43 59.87 C 484.20 61.61 488.42 64.51 493.09 66.46 C 493.57 65.99 494.55 65.04 495.04 64.57 C 495.52 64.89 496.48 65.54 496.96 65.87 C 498.81 67.08 500.81 66.10 502.60 65.29 C 502.11 67.70 501.68 70.12 501.02 72.49 C 499.16 71.95 497.30 71.44 495.49 70.78 C 490.39 67.89 485.08 65.36 480.20 62.11 C 480.01 61.55 479.63 60.43 479.43 59.87 Z" />
<path fill="#8564b7" opacity="1.00" d=" M 521.13 61.05 C 522.65 60.46 523.96 61.56 524.02 63.12 C 522.79 63.03 521.12 62.57 521.13 61.05 Z" />
<path fill="#e8cb8c" opacity="1.00" d=" M 528.62 60.43 C 530.51 60.94 532.41 61.45 534.32 61.96 C 534.37 62.88 534.48 64.72 534.53 65.64 C 531.52 65.82 528.03 65.97 525.94 63.38 C 528.14 63.33 530.77 64.47 532.58 62.66 C 531.58 62.58 529.58 62.40 528.58 62.32 L 528.62 60.43 Z" />
<path fill="#337dda" opacity="1.00" d=" M 462.05 67.06 C 467.96 64.93 474.21 63.99 480.20 62.11 C 485.08 65.36 490.39 67.89 495.49 70.78 C 495.56 71.79 495.64 72.79 495.72 73.80 C 492.80 73.98 489.87 74.29 486.94 74.16 C 483.75 74.03 481.18 71.31 477.92 71.66 C 471.54 71.92 465.39 73.95 459.01 74.25 C 455.91 74.35 452.96 75.41 450.52 77.32 C 449.13 77.08 447.74 76.83 446.34 76.65 C 446.14 76.89 445.72 77.37 445.52 77.62 C 444.73 76.31 443.94 75.01 443.14 73.72 C 448.70 70.58 454.58 68.01 460.02 64.64 C 460.53 65.25 461.54 66.46 462.05 67.06 M 455.08 69.42 C 454.74 70.84 455.26 71.32 456.64 70.84 C 456.96 69.43 456.45 68.96 455.08 69.42 M 452.73 71.17 C 453.07 74.43 455.71 69.50 452.73 71.17 Z" />
<path fill="#337fdf" opacity="1.00" d=" M 502.60 65.29 L 502.83 64.72 C 502.92 65.42 503.09 66.83 503.17 67.54 C 507.30 67.60 511.51 67.80 515.37 69.44 C 522.32 72.25 529.86 70.27 537.09 70.65 C 539.64 70.97 541.18 67.58 543.82 68.69 C 540.97 71.58 538.04 74.41 535.20 77.30 C 529.85 76.23 524.51 77.78 519.17 77.69 C 513.20 76.56 507.32 74.91 501.22 74.65 C 501.17 74.11 501.07 73.03 501.02 72.49 C 501.68 70.12 502.11 67.70 502.60 65.29 Z" />
<path fill="#80a7de" opacity="1.00" d=" M 455.08 69.42 C 456.45 68.96 456.96 69.43 456.64 70.84 C 455.26 71.32 454.74 70.84 455.08 69.42 Z" />
<path fill="#090a0e" opacity="1.00" d=" M 452.73 71.17 C 455.71 69.50 453.07 74.43 452.73 71.17 Z" />
<path fill="#1e7ade" opacity="1.00" d=" M 477.92 71.66 C 481.18 71.31 483.75 74.03 486.94 74.16 C 489.87 74.29 492.80 73.98 495.72 73.80 C 495.64 72.79 495.56 71.79 495.49 70.78 C 497.30 71.44 499.16 71.95 501.02 72.49 C 501.07 73.03 501.17 74.11 501.22 74.65 C 507.32 74.91 513.20 76.56 519.17 77.69 C 524.51 77.78 529.85 76.23 535.20 77.30 C 534.33 78.56 533.47 79.82 532.65 81.10 C 530.98 82.13 529.32 83.18 527.66 84.23 C 520.90 84.12 514.17 84.99 507.40 84.67 C 505.80 83.70 504.15 82.83 502.50 81.95 C 501.21 83.07 499.95 84.21 498.58 85.23 C 497.25 84.36 495.95 83.48 494.66 82.57 C 493.64 82.77 492.61 82.96 491.61 83.18 C 489.53 81.35 486.72 80.38 483.98 81.12 C 482.30 81.93 480.87 83.13 479.27 84.08 C 478.20 82.71 477.72 80.80 476.25 79.80 C 474.73 79.40 473.15 79.43 471.60 79.35 C 471.65 80.53 471.70 81.72 471.77 82.90 C 468.56 79.56 462.46 80.04 460.07 84.08 C 458.77 87.15 461.68 89.37 463.49 91.38 L 461.37 92.52 C 459.61 90.77 457.89 88.99 456.19 87.20 C 452.94 83.65 449.61 80.17 446.34 76.65 C 447.74 76.83 449.13 77.08 450.52 77.32 C 452.96 75.41 455.91 74.35 459.01 74.25 C 465.39 73.95 471.54 71.92 477.92 71.66 Z" />
<path fill="#c2c4bb" opacity="1.00" d=" M 445.52 77.62 C 445.72 77.37 446.14 76.89 446.34 76.65 C 449.61 80.17 452.94 83.65 456.19 87.20 C 455.73 87.03 454.83 86.70 454.37 86.53 C 453.07 85.84 451.79 85.11 450.50 84.40 C 450.22 83.67 449.65 82.22 449.37 81.49 C 449.12 81.97 448.63 82.92 448.38 83.39 L 448.08 83.98 C 447.32 81.81 446.37 79.73 445.52 77.62 Z" />
<path fill="#0174dd" opacity="1.00" d=" M 471.60 79.35 C 473.15 79.43 474.73 79.40 476.25 79.80 C 477.72 80.80 478.20 82.71 479.27 84.08 C 480.87 83.13 482.30 81.93 483.98 81.12 C 486.72 80.38 489.53 81.35 491.61 83.18 C 490.05 83.98 488.18 84.68 487.33 86.34 C 485.98 88.37 487.61 90.58 488.19 92.57 C 488.37 90.52 487.56 87.93 489.44 86.45 C 491.91 84.20 495.57 84.38 498.58 85.23 C 497.81 85.47 496.27 85.97 495.50 86.21 C 493.14 85.95 490.33 86.30 489.56 88.98 C 489.38 92.14 493.53 93.08 495.86 91.93 C 497.62 91.31 497.77 89.24 498.49 87.80 C 498.78 87.95 499.35 88.24 499.64 88.39 C 499.44 89.54 499.24 90.70 499.05 91.86 C 499.50 92.04 500.39 92.39 500.84 92.56 C 499.69 92.98 498.55 93.40 497.41 93.82 C 497.75 94.28 498.42 95.21 498.76 95.68 C 497.58 96.41 496.41 97.14 495.24 97.88 C 495.04 97.59 494.62 97.02 494.42 96.73 C 495.05 95.88 495.68 95.04 496.32 94.20 C 494.16 93.62 492.00 93.04 489.86 92.44 C 488.94 93.91 488.03 95.39 487.20 96.92 C 487.03 96.51 486.69 95.70 486.52 95.29 C 482.53 94.62 478.47 95.03 474.47 95.33 L 475.78 94.13 C 476.44 93.52 477.08 92.89 477.72 92.26 C 479.44 87.73 474.54 85.40 471.77 82.90 C 471.70 81.72 471.65 80.53 471.60 79.35 Z" />
<path fill="#91a7dd" opacity="1.00" d=" M 460.07 84.08 C 462.46 80.04 468.56 79.56 471.77 82.90 C 474.54 85.40 479.44 87.73 477.72 92.26 C 477.00 88.72 474.24 86.29 471.38 84.38 C 469.91 83.48 468.37 82.69 466.80 82.01 C 465.42 81.49 463.59 82.00 462.68 83.15 C 461.98 83.95 461.33 84.79 460.72 85.64 C 462.96 89.10 465.84 92.20 469.40 94.31 C 470.29 94.30 472.07 94.27 472.95 94.26 C 473.66 94.23 475.07 94.16 475.78 94.13 L 474.47 95.33 C 472.70 95.58 470.90 96.21 469.13 95.86 C 466.90 94.86 465.22 93.03 463.49 91.38 C 461.68 89.37 458.77 87.15 460.07 84.08 Z" />
<path fill="#0373de" opacity="1.00" d=" M 527.66 84.23 C 529.32 83.18 530.98 82.13 532.65 81.10 C 531.29 83.19 529.82 85.21 528.32 87.20 C 521.99 94.21 516.42 101.93 509.63 108.50 C 510.11 106.82 510.57 105.13 511.03 103.45 C 511.08 103.31 511.17 103.03 511.22 102.89 C 512.64 100.89 513.91 98.78 514.82 96.50 C 516.37 95.16 517.97 93.88 519.58 92.61 C 515.64 89.77 511.43 87.36 507.40 84.67 C 514.17 84.99 520.90 84.12 527.66 84.23 Z" />
<path fill="#090a0e" opacity="1.00" d=" M 448.38 83.39 C 448.63 82.92 449.12 81.97 449.37 81.49 C 449.65 82.22 450.22 83.67 450.50 84.40 C 451.79 85.11 453.07 85.84 454.37 86.53 L 453.35 86.15 C 452.87 85.94 451.90 85.52 451.42 85.31 C 451.09 85.31 450.43 85.33 450.10 85.34 C 448.63 85.27 448.05 84.62 448.38 83.39 Z" />
<path fill="#efd843" opacity="1.00" d=" M 462.68 83.15 C 463.59 82.00 465.42 81.49 466.80 82.01 C 466.17 83.54 462.98 86.20 462.68 83.15 Z" />
<path fill="#ceb56d" opacity="1.00" d=" M 466.80 82.01 C 468.37 82.69 469.91 83.48 471.38 84.38 C 470.23 84.92 469.09 85.45 467.95 85.98 C 467.45 86.21 466.46 86.67 465.96 86.90 C 465.16 87.28 464.36 87.66 463.57 88.03 C 462.62 87.23 461.67 86.44 460.72 85.64 C 461.33 84.79 461.98 83.95 462.68 83.15 C 462.98 86.20 466.17 83.54 466.80 82.01 Z" />
<path fill="#ffffff" opacity="1.00" d=" M 491.61 83.18 C 492.61 82.96 493.64 82.77 494.66 82.57 C 495.95 83.48 497.25 84.36 498.58 85.23 C 495.57 84.38 491.91 84.20 489.44 86.45 C 487.56 87.93 488.37 90.52 488.19 92.57 C 487.61 90.58 485.98 88.37 487.33 86.34 C 488.18 84.68 490.05 83.98 491.61 83.18 Z" />
<path fill="#0b4f9b" opacity="1.00" d=" M 502.50 81.95 C 504.15 82.83 505.80 83.70 507.40 84.67 C 511.43 87.36 515.64 89.77 519.58 92.61 C 517.97 93.88 516.37 95.16 514.82 96.50 C 513.91 98.78 512.64 100.89 511.22 102.89 C 509.43 102.41 507.83 101.51 506.38 100.38 C 504.42 98.66 501.92 97.88 499.47 97.19 C 498.99 98.72 498.52 100.25 498.05 101.78 C 497.11 100.48 496.17 99.18 495.24 97.88 C 496.41 97.14 497.58 96.41 498.76 95.68 C 498.42 95.21 497.75 94.28 497.41 93.82 C 498.55 93.40 499.69 92.98 500.84 92.56 C 500.39 92.39 499.50 92.04 499.05 91.86 C 499.24 90.70 499.44 89.54 499.64 88.39 C 499.35 88.24 498.78 87.95 498.49 87.80 C 497.49 87.27 496.49 86.74 495.50 86.21 C 496.27 85.97 497.81 85.47 498.58 85.23 C 499.95 84.21 501.21 83.07 502.50 81.95 M 501.33 96.27 C 501.80 96.79 501.80 96.79 501.33 96.27 M 508.25 99.36 C 508.75 99.85 508.75 99.85 508.25 99.36 Z" />
<path fill="#e8cb8c" opacity="1.00" d=" M 450.10 85.34 C 450.43 85.33 451.09 85.31 451.42 85.31 C 451.90 85.52 452.87 85.94 453.35 86.15 L 454.37 86.53 C 454.83 86.70 455.73 87.03 456.19 87.20 C 457.89 88.99 459.61 90.77 461.37 92.52 C 468.59 100.02 475.98 107.34 483.29 114.76 C 486.98 118.57 491.16 121.94 494.43 126.14 C 494.46 128.03 495.53 131.87 493.27 132.35 C 488.07 127.39 483.55 121.75 478.12 117.03 C 471.18 109.23 463.92 101.71 457.20 93.73 C 455.62 92.39 454.64 90.60 454.13 88.61 C 453.84 88.65 453.25 88.72 452.96 88.76 C 452.11 87.57 450.93 86.72 449.91 85.71 L 450.10 85.34 M 458.02 92.37 C 460.75 96.74 464.56 100.25 468.04 104.00 C 469.58 105.53 470.94 107.41 473.15 108.05 C 472.48 107.22 471.13 105.56 470.46 104.72 C 470.44 104.70 470.38 104.64 470.35 104.61 C 466.04 100.73 462.63 95.91 458.02 92.37 C 458.09 92.21 458.09 92.21 458.02 92.37 M 473.22 107.73 C 473.30 108.31 473.47 109.46 473.55 110.03 C 474.72 111.01 475.86 112.03 476.99 113.07 C 477.94 114.08 478.90 115.08 479.89 116.07 C 481.10 116.51 482.55 116.78 482.98 118.21 C 485.21 120.42 487.67 122.40 489.69 124.83 C 488.37 122.07 486.10 119.99 483.99 117.84 C 481.65 116.41 479.35 114.88 477.86 112.50 C 477.77 112.39 477.60 112.18 477.51 112.07 C 477.38 111.91 477.11 111.60 476.98 111.44 C 476.89 111.34 476.71 111.13 476.61 111.03 C 476.08 110.48 475.00 109.38 474.46 108.83 C 474.43 108.80 474.37 108.75 474.34 108.72 L 473.22 107.73 Z" />
<path fill="#8572a1" opacity="1.00" d=" M 467.95 85.98 C 469.09 85.45 470.23 84.92 471.38 84.38 C 474.24 86.29 477.00 88.72 477.72 92.26 C 477.08 92.89 476.44 93.52 475.78 94.13 C 475.07 94.16 473.66 94.23 472.95 94.26 C 474.01 93.00 476.26 91.94 475.76 90.02 C 474.27 89.04 473.10 90.99 471.86 91.52 C 470.51 90.75 469.20 89.90 467.92 89.03 C 468.80 88.23 469.10 86.70 467.95 85.98 M 470.37 85.77 C 470.32 86.57 470.21 88.17 470.16 88.97 C 471.13 89.30 472.11 89.63 473.10 89.95 C 472.52 88.35 471.55 86.97 470.37 85.77 Z" />
<path fill="#b6a17e" opacity="1.00" d=" M 460.72 85.64 C 461.67 86.44 462.62 87.23 463.57 88.03 C 464.36 87.66 465.16 87.28 465.96 86.90 C 466.42 87.79 467.07 88.50 467.92 89.03 C 469.20 89.90 470.51 90.75 471.86 91.52 C 471.02 92.43 470.21 93.38 469.40 94.31 C 465.84 92.20 462.96 89.10 460.72 85.64 Z" />
<path fill="#ebd847" opacity="1.00" d=" M 465.96 86.90 C 466.46 86.67 467.45 86.21 467.95 85.98 C 469.10 86.70 468.80 88.23 467.92 89.03 C 467.07 88.50 466.42 87.79 465.96 86.90 Z" />
<path fill="#ffff00" opacity="1.00" d=" M 470.37 85.77 C 471.55 86.97 472.52 88.35 473.10 89.95 C 472.11 89.63 471.13 89.30 470.16 88.97 C 470.21 88.17 470.32 86.57 470.37 85.77 Z" />
<path fill="#090a0e" opacity="1.00" d=" M 489.56 88.98 C 490.33 86.30 493.14 85.95 495.50 86.21 C 496.49 86.74 497.49 87.27 498.49 87.80 C 497.77 89.24 497.62 91.31 495.86 91.93 C 493.53 93.08 489.38 92.14 489.56 88.98 Z" />
<path fill="#f3db40" opacity="1.00" d=" M 471.86 91.52 C 473.10 90.99 474.27 89.04 475.76 90.02 C 476.26 91.94 474.01 93.00 472.95 94.26 C 472.07 94.27 470.29 94.30 469.40 94.31 C 470.21 93.38 471.02 92.43 471.86 91.52 Z" />
<path fill="#57441d" opacity="1.00" d=" M 458.02 92.37 C 458.09 92.21 458.09 92.21 458.02 92.37 Z" />
<path fill="#0065d7" opacity="1.00" d=" M 461.37 92.52 L 463.49 91.38 C 465.22 93.03 466.90 94.86 469.13 95.86 C 470.90 96.21 472.70 95.58 474.47 95.33 C 478.47 95.03 482.53 94.62 486.52 95.29 C 486.69 95.70 487.03 96.51 487.20 96.92 C 487.44 97.47 487.91 98.56 488.14 99.11 C 486.71 98.01 485.17 97.05 483.49 96.41 C 485.46 99.04 488.01 101.14 490.58 103.16 C 494.57 106.29 498.06 110.09 502.59 112.46 C 501.79 111.29 501.00 110.14 500.20 108.99 C 500.84 109.08 502.11 109.27 502.74 109.36 L 502.73 109.48 L 502.85 109.49 C 502.82 109.46 502.77 109.39 502.74 109.36 C 501.75 108.14 500.75 106.93 499.76 105.72 C 501.28 106.66 502.80 107.58 504.35 108.50 C 504.39 108.52 504.47 108.57 504.51 108.59 L 504.48 108.46 L 504.35 108.50 C 504.29 107.99 504.16 106.98 504.10 106.48 C 504.51 106.64 505.32 106.95 505.73 107.11 C 506.57 106.54 507.42 105.97 508.28 105.40 C 507.87 105.03 507.06 104.29 506.65 103.92 C 507.36 104.01 508.79 104.17 509.50 104.25 C 507.86 102.80 506.23 101.34 504.66 99.82 C 505.09 99.96 505.95 100.24 506.38 100.38 C 507.83 101.51 509.43 102.41 511.22 102.89 C 511.17 103.03 511.08 103.31 511.03 103.45 C 510.57 105.13 510.11 106.82 509.63 108.50 C 508.20 111.76 505.21 114.00 503.05 116.77 C 499.93 119.67 497.78 123.47 494.43 126.14 C 491.16 121.94 486.98 118.57 483.29 114.76 C 475.98 107.34 468.59 100.02 461.37 92.52 Z" />
<path fill="#090a0e" opacity="1.00" d=" M 458.02 92.37 C 462.63 95.91 466.04 100.73 470.35 104.61 C 470.38 104.64 470.44 104.70 470.46 104.72 C 471.13 105.56 472.48 107.22 473.15 108.05 C 470.94 107.41 469.58 105.53 468.04 104.00 C 464.56 100.25 460.75 96.74 458.02 92.37 Z" />
<path fill="#0a56a0" opacity="1.00" d=" M 489.86 92.44 C 492.00 93.04 494.16 93.62 496.32 94.20 C 495.68 95.04 495.05 95.88 494.42 96.73 C 494.62 97.02 495.04 97.59 495.24 97.88 C 496.17 99.18 497.11 100.48 498.05 101.78 C 498.52 100.25 498.99 98.72 499.47 97.19 C 501.92 97.88 504.42 98.66 506.38 100.38 C 505.95 100.24 505.09 99.96 504.66 99.82 C 506.23 101.34 507.86 102.80 509.50 104.25 C 508.79 104.17 507.36 104.01 506.65 103.92 C 507.06 104.29 507.87 105.03 508.28 105.40 C 507.42 105.97 506.57 106.54 505.73 107.11 C 505.32 106.95 504.51 106.64 504.10 106.48 C 504.16 106.98 504.29 107.99 504.35 108.50 C 502.80 107.58 501.28 106.66 499.76 105.72 C 500.75 106.93 501.75 108.14 502.74 109.36 C 502.11 109.27 500.84 109.08 500.20 108.99 C 501.00 110.14 501.79 111.29 502.59 112.46 C 498.06 110.09 494.57 106.29 490.58 103.16 C 488.01 101.14 485.46 99.04 483.49 96.41 C 485.17 97.05 486.71 98.01 488.14 99.11 C 487.91 98.56 487.44 97.47 487.20 96.92 C 488.03 95.39 488.94 93.91 489.86 92.44 M 500.39 100.64 C 501.49 101.05 502.57 101.00 503.64 100.48 C 504.40 98.42 499.35 98.83 500.39 100.64 M 491.10 102.54 L 491.76 102.24 C 491.75 101.83 491.73 101.02 491.73 100.62 C 490.38 99.27 489.41 102.44 491.10 102.54 M 491.76 102.24 C 492.43 102.59 492.43 102.59 491.76 102.24 Z" />
<path fill="#042650" opacity="1.00" d=" M 501.33 96.27 C 501.80 96.79 501.80 96.79 501.33 96.27 Z" />
<path fill="#090a0e" opacity="1.00" d=" M 500.39 100.64 C 499.35 98.83 504.40 98.42 503.64 100.48 C 502.57 101.00 501.49 101.05 500.39 100.64 Z" />
<path fill="#11294c" opacity="1.00" d=" M 508.25 99.36 C 508.75 99.85 508.75 99.85 508.25 99.36 Z" />
<path fill="#131d2b" opacity="1.00" d=" M 491.10 102.54 C 489.41 102.44 490.38 99.27 491.73 100.62 C 491.73 101.02 491.75 101.83 491.76 102.24 L 491.10 102.54 Z" />
<path fill="#0c6edd" opacity="1.00" d=" M 491.76 102.24 C 492.43 102.59 492.43 102.59 491.76 102.24 Z" />
<path fill="#ffff00" opacity="1.00" d=" M 470.35 104.61 C 470.38 104.64 470.44 104.70 470.46 104.72 C 470.44 104.70 470.38 104.64 470.35 104.61 Z" />
<path fill="#090a0e" opacity="1.00" d=" M 473.22 107.73 L 474.34 108.72 C 474.37 108.75 474.43 108.80 474.46 108.83 C 475.00 109.38 476.08 110.48 476.61 111.03 C 476.71 111.13 476.89 111.34 476.98 111.44 C 477.11 111.60 477.38 111.91 477.51 112.07 C 477.60 112.18 477.77 112.39 477.86 112.50 C 479.35 114.88 481.65 116.41 483.99 117.84 C 486.10 119.99 488.37 122.07 489.69 124.83 C 487.67 122.40 485.21 120.42 482.98 118.21 C 482.55 116.78 481.10 116.51 479.89 116.07 C 478.90 115.08 477.94 114.08 476.99 113.07 C 475.86 112.03 474.72 111.01 473.55 110.03 C 473.47 109.46 473.30 108.31 473.22 107.73 Z" />
<path fill="#ffff00" opacity="1.00" d=" M 474.34 108.72 C 474.37 108.75 474.43 108.80 474.46 108.83 C 474.43 108.80 474.37 108.75 474.34 108.72 Z" />
<path fill="#090a0e" opacity="1.00" d=" M 504.35 108.50 L 504.48 108.46 L 504.51 108.59 C 504.47 108.57 504.39 108.52 504.35 108.50 Z" />
<path fill="#090a0e" opacity="1.00" d=" M 502.74 109.36 C 502.77 109.39 502.82 109.46 502.85 109.49 L 502.73 109.48 L 502.74 109.36 Z" />
<path fill="#ffff00" opacity="1.00" d=" M 476.61 111.03 C 476.71 111.13 476.89 111.34 476.98 111.44 C 476.89 111.34 476.71 111.13 476.61 111.03 Z" />
<path fill="#ffff00" opacity="1.00" d=" M 476.98 111.44 C 477.11 111.60 477.38 111.91 477.51 112.07 C 477.38 111.91 477.11 111.60 476.98 111.44 Z" />
<path fill="#ffff00" opacity="1.00" d=" M 477.51 112.07 C 477.60 112.18 477.77 112.39 477.86 112.50 C 477.77 112.39 477.60 112.18 477.51 112.07 Z" />
<path fill="#ffffff" opacity="1.00" d=" M 20.00 296.16 C 23.46 289.77 34.46 290.12 37.40 296.82 C 38.86 300.91 38.42 305.35 38.51 309.62 C 35.68 309.62 32.85 309.62 30.03 309.65 C 29.86 306.13 30.34 302.55 29.68 299.08 C 29.44 297.66 26.81 298.40 27.17 299.84 C 26.85 307.92 26.96 316.03 27.10 324.12 C 26.90 325.70 28.26 326.84 29.63 325.74 C 30.26 322.57 29.94 319.32 30.00 316.12 C 32.85 316.12 35.69 316.11 38.54 316.15 C 38.37 320.13 38.82 324.37 37.11 328.09 C 33.73 334.67 22.29 334.58 19.55 327.53 C 17.79 321.18 18.75 314.51 18.49 308.01 C 18.64 304.06 18.01 299.76 20.00 296.16 Z" />
<path fill="#ffffff" opacity="1.00" d=" M 44.18 292.48 C 48.23 292.51 52.29 292.49 56.35 292.50 C 57.99 305.67 59.61 318.83 61.25 332.00 C 58.33 332.00 55.40 332.02 52.48 331.94 C 52.37 329.58 52.23 327.23 52.09 324.88 C 51.32 324.87 49.80 324.87 49.04 324.87 C 48.90 327.23 48.75 329.59 48.63 331.96 C 45.67 332.01 42.71 332.00 39.75 332.00 C 41.24 318.83 42.64 305.64 44.18 292.48 M 48.97 317.91 C 49.68 317.89 51.08 317.86 51.79 317.85 C 51.35 312.25 50.97 306.66 50.53 301.07 C 50.02 306.68 49.38 312.28 48.97 317.91 Z" />
<path fill="#ffffff" opacity="1.00" d=" M 88.82 292.58 C 93.51 290.40 100.27 291.79 102.43 296.88 C 103.85 300.96 103.42 305.37 103.51 309.62 C 100.68 309.62 97.84 309.62 95.01 309.64 C 94.80 305.95 95.49 302.12 94.49 298.53 C 93.51 298.07 92.00 298.48 92.17 299.82 C 91.85 307.90 91.96 316.02 92.10 324.11 C 91.61 325.44 93.73 327.19 94.52 325.65 C 95.42 322.58 94.85 319.28 95.00 316.12 C 97.84 316.12 100.69 316.11 103.53 316.14 C 103.37 320.10 103.81 324.32 102.14 328.03 C 99.28 333.55 91.11 334.42 86.59 330.54 C 83.63 327.88 83.73 323.58 83.51 319.94 C 83.54 313.65 83.34 307.35 83.64 301.07 C 83.73 297.60 85.57 294.06 88.82 292.58 Z" />
<path fill="#ffffff" opacity="1.00" d=" M 111.43 292.74 C 116.46 290.00 123.94 292.19 125.43 298.08 C 126.68 304.29 125.91 310.69 126.13 316.98 C 125.96 321.01 126.57 325.48 124.21 329.01 C 120.68 334.35 111.46 334.21 108.20 328.66 C 106.43 325.79 106.62 322.27 106.50 319.03 C 106.56 313.06 106.32 307.09 106.68 301.13 C 106.79 297.80 108.38 294.33 111.43 292.74 M 115.67 298.63 C 115.54 298.91 115.27 299.49 115.14 299.78 C 114.81 307.20 115.09 314.64 114.99 322.07 C 115.18 323.70 114.49 326.55 117.08 326.18 C 118.28 317.88 117.35 309.36 117.59 300.97 C 117.94 299.81 116.79 297.37 115.67 298.63 Z" />
<path fill="#ffff00" opacity="1.00" d=" M 171.00 292.74 C 175.77 290.27 182.95 291.75 185.02 297.12 C 186.31 301.15 185.97 305.49 185.94 309.67 C 183.12 309.62 180.31 309.62 177.49 309.62 C 177.42 306.06 177.76 302.48 177.22 298.96 C 175.91 297.20 174.00 299.39 174.56 301.03 C 174.67 309.33 174.01 317.70 174.94 325.95 C 175.47 325.95 176.53 325.94 177.07 325.94 C 177.76 322.72 177.46 319.40 177.49 316.14 C 180.33 316.12 183.17 316.12 186.02 316.12 C 185.88 319.98 186.29 324.08 184.78 327.74 C 181.95 333.84 172.55 334.65 168.29 329.70 C 165.97 326.69 166.19 322.63 166.00 319.03 C 166.07 312.99 165.82 306.94 166.16 300.91 C 166.28 297.61 168.00 294.28 171.00 292.74 Z" />
<path fill="#ffff00" opacity="1.00" d=" M 210.36 296.33 C 212.79 290.76 220.90 290.36 225.36 293.60 C 228.73 296.07 227.91 300.74 228.18 304.37 C 225.55 304.37 222.93 304.37 220.31 304.38 C 219.88 302.41 221.11 299.36 219.00 298.20 C 216.72 299.34 217.31 302.75 218.16 304.69 C 221.54 308.45 227.27 310.68 228.36 316.14 C 228.98 320.28 229.46 324.83 227.74 328.78 C 224.24 334.31 214.67 334.32 211.15 328.79 C 209.40 325.45 209.85 321.51 209.72 317.88 C 212.35 317.87 214.98 317.87 217.62 317.87 C 217.75 320.51 217.20 323.30 218.13 325.84 C 220.57 327.26 221.01 323.51 220.77 321.94 C 220.83 315.40 212.29 314.19 210.37 308.53 C 209.12 304.61 209.16 300.25 210.36 296.33 Z" />
<path fill="#ffff00" opacity="1.00" d=" M 247.40 292.50 C 252.17 290.99 259.61 291.16 261.44 296.87 C 262.67 301.02 263.17 306.62 259.19 309.47 C 260.59 310.68 262.13 312.03 262.15 314.07 C 262.68 318.30 262.77 322.67 261.80 326.84 C 259.82 335.08 245.42 334.78 243.74 326.49 C 243.11 323.12 243.27 319.67 243.24 316.26 C 245.99 316.25 248.74 316.25 251.49 316.24 C 251.61 319.54 251.18 322.91 251.82 326.18 C 252.77 327.20 254.20 326.54 254.17 325.16 C 254.46 321.79 254.71 318.29 253.90 314.98 C 253.23 313.20 250.92 313.67 249.50 313.16 C 249.49 311.37 249.49 309.57 249.49 307.79 C 250.88 307.40 252.69 307.89 253.82 306.81 C 254.71 304.10 254.58 301.07 253.98 298.31 C 253.44 298.16 252.37 297.86 251.84 297.71 C 251.56 300.00 251.48 302.31 251.46 304.62 C 248.71 304.62 245.97 304.62 243.23 304.63 C 243.33 300.46 242.53 294.32 247.40 292.50 Z" />
<path fill="#ffffff" opacity="1.00" d=" M 62.75 292.50 C 67.44 292.70 72.27 291.92 76.84 293.23 C 79.69 294.13 80.87 297.24 80.89 299.99 C 80.99 304.16 81.41 308.47 80.35 312.55 C 78.98 316.24 74.50 316.17 71.23 316.20 C 71.27 321.47 71.24 326.73 71.25 332.00 C 68.42 332.00 65.58 332.00 62.75 332.00 C 62.75 318.83 62.75 305.67 62.75 292.50 M 71.37 298.86 C 71.19 302.51 71.16 306.17 71.41 309.81 C 72.53 309.21 74.07 308.73 73.81 307.12 C 73.68 304.29 75.12 299.79 71.37 298.86 Z" />
<path fill="#ffffff" opacity="1.00" d=" M 129.22 292.54 C 132.89 292.48 136.56 292.49 140.22 292.50 C 141.02 298.47 141.47 304.48 142.57 310.41 C 143.10 304.43 143.76 298.47 144.40 292.50 C 148.06 292.50 151.72 292.50 155.38 292.50 C 155.38 305.67 155.38 318.83 155.38 332.00 C 152.92 332.00 150.46 332.00 148.00 332.00 C 147.90 323.30 148.32 314.58 147.48 305.90 C 147.11 314.64 145.93 323.31 144.99 331.99 C 143.24 332.00 141.50 332.00 139.76 332.01 C 138.56 323.35 138.05 314.59 136.39 306.01 C 136.86 314.66 136.52 323.34 136.62 332.00 C 134.16 332.00 131.70 332.00 129.24 331.98 C 129.25 318.83 129.28 305.68 129.22 292.54 Z" />
<path fill="#ffff00" opacity="1.00" d=" M 189.22 292.54 C 193.99 292.68 198.95 291.87 203.58 293.33 C 207.49 294.80 207.47 299.57 207.52 303.05 C 207.37 306.54 208.02 310.33 206.35 313.54 C 204.48 316.37 200.70 316.06 197.74 316.21 C 197.76 321.47 197.74 326.73 197.76 331.99 C 194.92 332.00 192.08 332.00 189.24 331.99 C 189.24 318.84 189.29 305.69 189.22 292.54 M 197.79 299.01 C 197.73 302.57 197.72 306.14 197.80 309.71 C 200.34 309.50 200.51 306.98 200.42 305.00 C 200.32 302.73 201.03 299.19 197.79 299.01 Z" />
<path fill="#ffff00" opacity="1.00" d=" M 230.75 312.50 C 234.29 312.49 237.83 312.50 241.38 312.50 C 241.37 314.75 241.37 317.00 241.38 319.25 C 237.83 319.25 234.29 319.25 230.75 319.25 C 230.75 317.00 230.75 314.75 230.75 312.50 Z" />
</svg>
