<?xml version="1.0" encoding="UTF-8" ?>
<!DOCTYPE svg PUBLIC "-//W3C//DTD SVG 1.1//EN" "http://www.w3.org/Graphics/SVG/1.1/DTD/svg11.dtd">
<svg width="960pt" height="540pt" viewBox="0 0 960 540" version="1.1" xmlns="http://www.w3.org/2000/svg">
<path fill="#e3e3e1" opacity="1.00" d=" M 512.47 59.35 C 513.34 57.74 515.22 57.66 515.62 59.62 C 515.94 59.43 516.59 59.06 516.91 58.87 C 534.19 63.13 551.53 67.24 568.96 70.90 C 565.50 76.24 561.41 81.19 556.63 85.40 C 551.88 89.58 547.79 94.48 544.24 99.70 C 542.64 101.99 540.88 104.16 539.11 106.31 C 525.15 100.24 510.72 95.12 495.83 91.89 C 490.63 90.62 485.08 90.51 480.16 88.25 C 486.26 81.60 492.84 75.31 500.34 70.25 C 504.84 67.15 508.72 63.29 512.47 59.35 M 514.45 61.41 C 513.71 63.00 512.95 65.00 513.38 66.74 C 515.38 66.64 515.87 62.23 514.45 61.41 M 553.05 76.00 C 557.15 75.15 561.44 74.19 564.80 71.53 C 560.71 72.46 556.49 73.49 553.05 76.00 M 497.21 81.81 C 498.25 84.01 500.17 85.59 501.94 87.19 C 500.64 85.47 498.98 83.97 498.08 81.98 C 497.32 79.55 498.24 77.06 498.58 74.65 C 497.59 76.87 496.47 79.34 497.21 81.81 M 552.33 75.57 C 552.21 78.51 552.02 81.46 551.23 84.31 C 553.18 81.88 553.72 78.41 552.33 75.57 M 485.32 88.30 C 488.63 88.40 494.09 87.97 494.27 83.63 C 490.96 84.08 486.08 84.11 485.32 88.30 M 509.31 85.05 C 509.15 86.37 508.98 87.69 508.83 89.02 C 507.94 89.03 506.17 89.06 505.28 89.08 C 506.47 89.68 507.72 90.05 509.05 90.16 C 509.00 90.76 508.89 91.97 508.84 92.57 C 510.33 92.89 511.50 92.36 512.34 90.98 C 518.57 93.47 525.47 92.83 532.02 92.46 C 525.92 92.10 519.69 92.69 513.75 90.93 C 515.57 89.79 517.38 88.63 519.16 87.42 C 515.85 86.74 512.56 85.97 509.31 85.05 M 548.58 85.18 C 547.61 85.63 546.00 86.51 546.35 87.79 C 547.90 88.99 551.60 84.68 548.58 85.18 M 531.20 96.01 C 530.02 97.08 529.37 99.05 531.14 99.92 L 531.31 99.88 C 533.16 102.24 539.86 102.30 538.96 98.22 C 537.11 96.09 533.89 95.01 531.20 96.01 Z" />
<path fill="#c1c0bb" opacity="1.00" d=" M 514.45 61.41 C 515.87 62.23 515.38 66.64 513.38 66.74 C 512.95 65.00 513.71 63.00 514.45 61.41 Z" />
<path fill="#bdbcbc" opacity="1.00" d=" M 568.96 70.90 C 569.37 74.15 569.35 77.44 569.41 80.72 C 567.27 82.65 565.13 84.57 562.96 86.45 C 560.85 86.07 558.74 85.73 556.63 85.40 C 561.41 81.19 565.50 76.24 568.96 70.90 Z" />
<path fill="#b6b4ad" opacity="1.00" d=" M 553.05 76.00 C 556.49 73.49 560.71 72.46 564.80 71.53 C 561.44 74.19 557.15 75.15 553.05 76.00 Z" />
<path fill="#101011" opacity="0.55" d=" M 570.47 73.02 C 570.58 81.43 572.38 91.90 565.09 98.01 C 560.83 102.12 556.81 106.46 552.75 110.76 C 550.14 113.72 546.04 114.63 543.35 117.49 C 541.52 119.04 539.66 121.19 537.10 121.24 C 522.53 118.02 508.34 113.37 494.05 109.14 C 491.25 112.02 486.20 111.57 484.05 115.07 C 483.50 118.96 483.17 122.92 481.55 126.56 C 480.89 126.48 479.56 126.33 478.90 126.26 C 479.15 126.01 479.67 125.52 479.93 125.27 C 480.11 124.99 480.47 124.43 480.65 124.15 C 482.04 120.42 482.55 116.39 482.59 112.42 C 484.62 111.67 486.66 110.95 488.68 110.18 C 490.30 109.40 491.81 108.42 493.21 107.30 C 494.75 107.81 496.29 108.32 497.84 108.81 C 501.33 109.91 504.81 111.02 508.31 112.10 C 510.15 112.67 512.01 113.22 513.87 113.77 C 516.64 114.57 519.43 115.32 522.23 116.07 C 522.71 116.20 523.66 116.47 524.14 116.60 C 528.44 117.63 532.75 118.61 537.03 119.75 C 538.28 118.93 539.56 118.15 540.76 117.25 C 543.92 113.34 549.12 112.17 552.42 108.44 C 556.42 104.08 560.54 99.83 564.75 95.67 C 566.99 93.66 568.12 90.83 568.97 88.01 C 570.87 83.22 570.18 78.03 570.47 73.02 Z" />
<path fill="#bfc0bf" opacity="1.00" d=" M 444.30 79.63 C 448.99 75.35 456.11 73.45 462.03 76.26 C 463.02 79.44 463.94 82.64 464.75 85.88 C 463.18 86.49 463.54 88.71 465.25 88.73 C 465.28 88.93 465.34 89.34 465.37 89.55 C 464.99 92.61 464.82 95.73 465.50 98.77 C 465.16 99.18 464.81 99.58 464.45 99.96 C 461.67 101.91 458.30 102.76 454.93 102.66 C 454.65 102.59 454.10 102.47 453.82 102.41 C 450.89 98.35 449.28 93.63 448.05 88.84 L 447.91 90.30 C 447.07 86.98 446.00 83.73 444.68 80.58 L 444.30 79.63 M 453.40 77.34 C 450.48 78.29 452.19 83.60 455.18 82.91 C 455.71 81.22 456.06 79.48 456.38 77.74 C 455.39 77.57 454.39 77.44 453.40 77.34 M 449.66 88.95 L 450.47 88.71 C 451.10 91.49 451.76 94.28 452.36 97.08 C 456.17 96.07 459.98 95.08 463.74 93.92 C 462.89 91.04 462.11 88.13 461.41 85.21 L 460.88 85.41 L 461.62 83.96 C 457.50 84.13 450.98 84.05 449.66 88.95 Z" />
<path fill="#504d47" opacity="1.00" d=" M 497.21 81.81 C 496.47 79.34 497.59 76.87 498.58 74.65 C 498.24 77.06 497.32 79.55 498.08 81.98 C 498.98 83.97 500.64 85.47 501.94 87.19 C 500.17 85.59 498.25 84.01 497.21 81.81 Z" />
<path fill="#504d47" opacity="1.00" d=" M 552.33 75.57 C 553.72 78.41 553.18 81.88 551.23 84.31 C 552.02 81.46 552.21 78.51 552.33 75.57 Z" />
<path fill="#8192ba" opacity="1.00" d=" M 453.40 77.34 C 454.39 77.44 455.39 77.57 456.38 77.74 C 456.06 79.48 455.71 81.22 455.18 82.91 C 452.19 83.60 450.48 78.29 453.40 77.34 Z" />
<path fill="#d3d3d1" opacity="1.00" d=" M 462.03 76.26 C 464.45 77.31 466.76 78.62 468.84 80.27 C 471.79 80.47 476.17 79.13 477.28 82.94 C 478.40 85.52 479.33 88.20 479.65 91.01 C 478.62 89.89 477.44 89.60 476.12 90.13 C 475.68 91.40 475.94 92.53 476.91 93.53 C 477.23 93.72 477.86 94.12 478.17 94.31 L 478.89 93.79 C 479.52 93.31 480.14 92.83 480.77 92.34 C 481.17 95.31 481.65 98.27 481.80 101.27 C 481.84 105.00 482.18 108.71 482.59 112.42 C 482.55 116.39 482.04 120.42 480.65 124.15 C 480.47 124.43 480.11 124.99 479.93 125.27 C 477.05 123.81 476.64 120.38 475.32 117.78 L 475.12 117.02 C 466.42 117.16 457.46 119.31 450.23 124.27 C 449.25 127.72 449.29 131.44 447.66 134.71 C 446.35 133.79 445.06 132.87 443.81 131.88 C 443.65 131.68 443.33 131.28 443.17 131.08 C 440.38 120.64 436.88 110.42 433.73 100.09 C 434.61 100.70 435.49 101.35 436.43 101.88 C 438.01 102.82 439.73 103.47 441.46 104.08 L 442.31 102.13 C 442.76 103.58 442.92 105.07 443.10 106.57 L 444.82 106.71 C 444.60 105.95 444.16 104.43 443.93 103.66 C 444.55 103.88 445.78 104.30 446.39 104.51 C 446.14 105.79 445.79 107.05 445.44 108.30 C 446.02 108.13 447.19 107.77 447.77 107.59 L 446.74 110.22 C 447.69 109.66 448.65 109.11 449.60 108.54 L 450.76 107.83 C 452.98 106.45 455.00 104.78 457.08 103.21 C 459.82 102.94 462.63 102.17 464.45 99.96 C 464.81 99.58 465.16 99.18 465.50 98.77 C 466.54 95.74 466.22 92.57 465.37 89.55 C 465.34 89.34 465.28 88.93 465.25 88.73 C 465.13 88.01 464.88 86.59 464.75 85.88 C 463.94 82.64 463.02 79.44 462.03 76.26 M 471.60 90.37 C 472.54 92.00 474.19 90.16 475.30 89.84 C 474.51 88.59 473.70 87.35 472.90 86.11 C 471.21 86.68 470.07 89.04 471.60 90.37 M 468.45 92.46 C 468.28 93.21 467.93 94.71 467.75 95.46 L 469.11 95.08 C 469.75 96.60 470.28 96.56 470.69 94.93 L 472.22 95.06 C 471.47 93.68 470.67 90.72 468.48 92.37 C 468.47 92.40 468.46 92.44 468.45 92.46 M 472.86 97.80 C 474.17 98.88 474.98 100.21 474.36 101.92 C 475.00 99.81 477.86 97.37 475.67 95.33 C 473.76 94.07 472.77 96.14 472.86 97.80 M 472.46 105.22 C 471.16 105.74 469.75 107.28 470.14 108.74 C 471.63 109.28 473.89 106.09 472.46 105.22 M 440.82 107.20 C 440.94 110.49 444.32 110.68 446.09 112.78 C 449.21 111.08 452.12 113.44 455.17 114.07 C 456.75 114.73 458.46 115.14 460.20 115.05 C 459.96 116.91 463.11 116.93 463.87 115.63 L 464.65 115.97 C 464.73 115.32 464.90 114.03 464.99 113.39 C 466.62 112.25 468.16 110.97 469.50 109.48 C 467.62 110.37 465.81 111.38 464.02 112.42 C 463.19 111.95 462.37 111.47 461.55 111.00 C 460.70 114.45 457.04 113.49 454.41 113.75 C 451.66 112.58 448.81 111.00 445.73 111.83 C 445.52 110.96 445.32 110.10 445.12 109.23 C 443.08 109.78 441.42 109.63 441.55 107.11 L 440.82 107.20 Z" />
<path fill="#dddfdf" opacity="1.00" d=" M 440.16 87.40 C 441.42 84.97 443.00 82.73 444.68 80.58 C 446.00 83.73 447.07 86.98 447.91 90.30 C 448.81 94.73 449.81 99.67 453.82 102.41 C 454.10 102.47 454.65 102.59 454.93 102.66 C 455.47 102.80 456.54 103.07 457.08 103.21 C 455.00 104.78 452.98 106.45 450.76 107.83 L 448.84 108.04 C 447.97 107.54 447.12 107.02 446.27 106.48 C 447.39 106.40 449.62 106.25 450.73 106.17 C 448.50 104.93 446.27 103.63 443.80 102.97 C 443.80 102.70 443.80 102.16 443.81 101.88 C 445.50 98.96 445.18 95.39 442.22 93.46 C 441.16 92.41 440.04 92.34 438.83 93.23 C 437.62 93.93 436.76 95.06 435.95 96.17 C 436.08 96.41 436.36 96.89 436.49 97.13 C 437.59 99.39 439.35 101.18 441.34 102.69 C 440.52 102.56 438.87 102.29 438.04 102.16 C 435.53 98.88 434.43 94.85 433.36 90.94 C 435.66 89.83 437.94 88.66 440.16 87.40 Z" />
<path fill="#c5c5cc" opacity="1.00" d=" M 562.96 86.45 C 565.13 84.57 567.27 82.65 569.41 80.72 C 569.41 83.15 569.55 85.62 568.97 88.01 C 568.12 90.83 566.99 93.66 564.75 95.67 C 560.54 99.83 556.42 104.08 552.42 108.44 C 552.36 106.65 552.31 104.87 552.25 103.09 C 551.23 103.63 550.21 104.18 549.20 104.73 C 548.91 102.66 548.62 100.59 548.32 98.52 C 547.24 99.49 546.16 100.44 545.12 101.44 C 544.90 101.00 544.46 100.13 544.24 99.70 C 547.79 94.48 551.88 89.58 556.63 85.40 C 558.74 85.73 560.85 86.07 562.96 86.45 Z" />
<path fill="#b1b0ae" opacity="1.00" d=" M 477.28 82.94 C 478.27 84.69 479.14 86.51 480.16 88.25 C 485.08 90.51 490.63 90.62 495.83 91.89 C 495.57 93.60 495.32 95.32 495.06 97.03 C 492.87 96.34 490.67 95.69 488.48 95.02 C 488.22 97.19 487.81 99.37 486.32 101.07 C 487.15 101.12 487.98 101.18 488.83 101.23 C 487.79 102.07 486.76 102.91 485.77 103.80 C 485.63 103.49 485.36 102.87 485.23 102.56 C 484.09 102.10 482.95 101.67 481.80 101.27 C 481.65 98.27 481.17 95.31 480.77 92.34 C 480.14 92.83 479.52 93.31 478.89 93.79 L 478.92 93.08 C 479.10 92.56 479.47 91.52 479.65 91.01 C 479.33 88.20 478.40 85.52 477.28 82.94 Z" />
<path fill="#504d47" opacity="1.00" d=" M 449.66 88.95 C 450.98 84.05 457.50 84.13 461.62 83.96 L 460.88 85.41 C 457.46 86.67 453.94 87.60 450.47 88.71 L 449.66 88.95 Z" />
<path fill="#bbbbba" opacity="1.00" d=" M 485.32 88.30 C 486.08 84.11 490.96 84.08 494.27 83.63 C 494.09 87.97 488.63 88.40 485.32 88.30 Z" />
<path fill="#214d4a" opacity="1.00" d=" M 460.88 85.41 L 461.41 85.21 C 462.11 88.13 462.89 91.04 463.74 93.92 C 459.98 95.08 456.17 96.07 452.36 97.08 C 451.76 94.28 451.10 91.49 450.47 88.71 C 453.94 87.60 457.46 86.67 460.88 85.41 Z" />
<path fill="#c7c6c2" opacity="1.00" d=" M 509.31 85.05 C 512.56 85.97 515.85 86.74 519.16 87.42 C 517.38 88.63 515.57 89.79 513.75 90.93 C 519.69 92.69 525.92 92.10 532.02 92.46 C 525.47 92.83 518.57 93.47 512.34 90.98 C 511.30 90.51 510.19 90.16 509.05 90.16 C 507.72 90.05 506.47 89.68 505.28 89.08 C 506.17 89.06 507.94 89.03 508.83 89.02 C 508.98 87.69 509.15 86.37 509.31 85.05 Z" />
<path fill="#c9c8c3" opacity="1.00" d=" M 548.58 85.18 C 551.60 84.68 547.90 88.99 546.35 87.79 C 546.00 86.51 547.61 85.63 548.58 85.18 Z" />
<path fill="#a09f9c" opacity="1.00" d=" M 465.25 88.73 C 463.54 88.71 463.18 86.49 464.75 85.88 C 464.88 86.59 465.13 88.01 465.25 88.73 Z" />
<path fill="#6ab07c" opacity="1.00" d=" M 471.60 90.37 C 470.07 89.04 471.21 86.68 472.90 86.11 C 473.70 87.35 474.51 88.59 475.30 89.84 C 474.19 90.16 472.54 92.00 471.60 90.37 Z" />
<path fill="#8f8d8b" opacity="1.00" d=" M 448.05 88.84 C 449.28 93.63 450.89 98.35 453.82 102.41 C 449.81 99.67 448.81 94.73 447.91 90.30 L 448.05 88.84 Z" />
<path fill="#a09f9b" opacity="1.00" d=" M 465.50 98.77 C 464.82 95.73 464.99 92.61 465.37 89.55 C 466.22 92.57 466.54 95.74 465.50 98.77 Z" />
<path fill="#236dcc" opacity="1.00" d=" M 476.12 90.13 C 477.44 89.60 478.62 89.89 479.65 91.01 C 479.47 91.52 479.10 92.56 478.92 93.08 C 478.42 93.19 477.41 93.41 476.91 93.53 C 475.94 92.53 475.68 91.40 476.12 90.13 Z" />
<path fill="#0c0408" opacity="1.00" d=" M 509.05 90.16 C 510.19 90.16 511.30 90.51 512.34 90.98 C 511.50 92.36 510.33 92.89 508.84 92.57 C 508.89 91.97 509.00 90.76 509.05 90.16 Z" />
<path fill="#a0a0a2" opacity="1.00" d=" M 434.82 112.88 C 433.64 105.71 430.67 98.11 433.36 90.94 C 434.43 94.85 435.53 98.88 438.04 102.16 L 436.43 101.88 C 435.49 101.35 434.61 100.70 433.73 100.09 C 436.88 110.42 440.38 120.64 443.17 131.08 C 437.96 126.48 436.54 119.29 434.82 112.88 Z" />
<path fill="#a9956d" opacity="1.00" d=" M 468.45 92.46 C 468.46 92.44 468.47 92.40 468.48 92.37 C 468.47 92.40 468.46 92.44 468.45 92.46 Z" />
<path fill="#ebce1b" opacity="1.00" d=" M 468.48 92.37 C 470.67 90.72 471.47 93.68 472.22 95.06 L 470.69 94.93 C 470.30 94.97 469.50 95.04 469.11 95.08 L 467.75 95.46 C 467.93 94.71 468.28 93.21 468.45 92.46 C 468.46 92.44 468.47 92.40 468.48 92.37 Z" />
<path fill="#bebfbe" opacity="1.00" d=" M 495.83 91.89 C 510.72 95.12 525.15 100.24 539.11 106.31 C 540.88 104.16 542.64 101.99 544.24 99.70 C 544.46 100.13 544.90 101.00 545.12 101.44 C 542.42 103.59 543.03 107.11 543.08 110.15 C 544.84 108.47 546.56 106.75 548.27 105.01 C 548.28 102.85 548.29 100.69 548.32 98.52 C 548.62 100.59 548.91 102.66 549.20 104.73 C 550.21 104.18 551.23 103.63 552.25 103.09 C 552.31 104.87 552.36 106.65 552.42 108.44 C 549.12 112.17 543.92 113.34 540.76 117.25 C 536.46 118.46 530.65 117.73 528.01 113.77 C 532.28 114.29 536.36 116.13 540.72 115.82 C 536.78 114.40 532.69 113.52 528.64 112.47 C 528.62 110.49 528.60 108.51 528.59 106.53 C 520.37 104.63 512.27 102.24 504.17 99.88 C 501.11 99.00 498.10 97.99 495.06 97.03 C 495.32 95.32 495.57 93.60 495.83 91.89 M 503.69 96.96 C 506.06 98.39 508.70 99.31 511.41 99.89 C 510.27 97.11 506.36 95.28 503.69 96.96 M 529.54 108.82 C 531.51 111.81 535.02 112.67 538.37 113.03 C 535.94 110.72 532.82 109.39 529.54 108.82 Z" />
<path fill="#bdbbb6" opacity="1.00" d=" M 435.95 96.17 C 436.76 95.06 437.62 93.93 438.83 93.23 C 439.95 94.10 441.07 94.18 442.22 93.46 C 445.18 95.39 445.50 98.96 443.81 101.88 C 443.75 100.25 443.75 98.62 443.78 96.99 C 443.05 98.13 442.29 99.26 441.55 100.39 C 439.77 99.46 438.04 98.41 436.49 97.13 C 436.36 96.89 436.08 96.41 435.95 96.17 Z" />
<path fill="#8d8b89" opacity="1.00" d=" M 438.83 93.23 C 440.04 92.34 441.16 92.41 442.22 93.46 C 441.07 94.18 439.95 94.10 438.83 93.23 Z" />
<path fill="#27518f" opacity="1.00" d=" M 476.91 93.53 C 477.41 93.41 478.42 93.19 478.92 93.08 L 478.89 93.79 L 478.17 94.31 C 477.86 94.12 477.23 93.72 476.91 93.53 Z" />
<path fill="#bd9b13" opacity="1.00" d=" M 469.11 95.08 C 469.50 95.04 470.30 94.97 470.69 94.93 C 470.28 96.56 469.75 96.60 469.11 95.08 Z" />
<path fill="#e14e45" opacity="1.00" d=" M 472.86 97.80 C 472.77 96.14 473.76 94.07 475.67 95.33 C 477.86 97.37 475.00 99.81 474.36 101.92 C 474.98 100.21 474.17 98.88 472.86 97.80 Z" />
<path fill="#908f8b" opacity="1.00" d=" M 488.48 95.02 C 490.67 95.69 492.87 96.34 495.06 97.03 C 498.10 97.99 501.11 99.00 504.17 99.88 C 503.86 100.51 503.24 101.76 502.93 102.38 C 502.29 102.27 501.00 102.06 500.36 101.95 C 499.20 101.79 498.03 101.66 496.88 101.53 C 496.68 101.25 496.29 100.71 496.09 100.44 C 494.53 99.98 492.97 99.57 491.41 99.17 C 490.54 99.86 489.68 100.54 488.83 101.23 C 487.98 101.18 487.15 101.12 486.32 101.07 C 487.81 99.37 488.22 97.19 488.48 95.02 Z" />
<path fill="#838180" opacity="1.00" d=" M 503.69 96.96 C 506.36 95.28 510.27 97.11 511.41 99.89 C 508.70 99.31 506.06 98.39 503.69 96.96 Z" />
<path fill="#c7c9c8" opacity="1.00" d=" M 531.20 96.01 C 533.89 95.01 537.11 96.09 538.96 98.22 C 539.86 102.30 533.16 102.24 531.31 99.88 C 531.26 99.85 531.18 99.79 531.14 99.76 L 531.14 99.92 C 529.37 99.05 530.02 97.08 531.20 96.01 Z" />
<path fill="#504d47" opacity="1.00" d=" M 436.49 97.13 C 438.04 98.41 439.77 99.46 441.55 100.39 C 442.29 99.26 443.05 98.13 443.78 96.99 C 443.75 98.62 443.75 100.25 443.81 101.88 C 443.80 102.16 443.80 102.70 443.80 102.97 C 446.27 103.63 448.50 104.93 450.73 106.17 C 449.62 106.25 447.39 106.40 446.27 106.48 C 447.12 107.02 447.97 107.54 448.84 108.04 L 450.76 107.83 L 449.60 108.54 C 448.65 109.11 447.69 109.66 446.74 110.22 L 447.77 107.59 C 447.19 107.77 446.02 108.13 445.44 108.30 C 445.79 107.05 446.14 105.79 446.39 104.51 C 445.78 104.30 444.55 103.88 443.93 103.66 C 444.16 104.43 444.60 105.95 444.82 106.71 L 443.10 106.57 C 442.92 105.07 442.76 103.58 442.31 102.13 L 441.46 104.08 C 439.73 103.47 438.01 102.82 436.43 101.88 L 438.04 102.16 C 438.87 102.29 440.52 102.56 441.34 102.69 C 439.35 101.18 437.59 99.39 436.49 97.13 Z" />
<path fill="#d0d2d1" opacity="1.00" d=" M 491.41 99.17 C 492.97 99.57 494.53 99.98 496.09 100.44 C 496.04 101.61 495.97 102.78 495.90 103.95 C 495.45 103.75 494.55 103.35 494.10 103.15 C 492.77 104.16 491.44 105.18 490.12 106.20 C 488.57 105.71 487.02 105.22 485.48 104.74 L 485.77 103.80 C 486.76 102.91 487.79 102.07 488.83 101.23 C 489.68 100.54 490.54 99.86 491.41 99.17 Z" />
<path fill="#8d8c8a" opacity="1.00" d=" M 531.14 99.76 C 531.18 99.79 531.26 99.85 531.31 99.88 L 531.14 99.92 L 531.14 99.76 Z" />
<path fill="#8f8d8b" opacity="1.00" d=" M 545.12 101.44 C 546.16 100.44 547.24 99.49 548.32 98.52 C 548.29 100.69 548.28 102.85 548.27 105.01 C 546.56 106.75 544.84 108.47 543.08 110.15 C 543.03 107.11 542.42 103.59 545.12 101.44 Z" />
<path fill="#504d47" opacity="1.00" d=" M 454.93 102.66 C 458.30 102.76 461.67 101.91 464.45 99.96 C 462.63 102.17 459.82 102.94 457.08 103.21 C 456.54 103.07 455.47 102.80 454.93 102.66 Z" />
<path fill="#6e6c6e" opacity="1.00" d=" M 496.09 100.44 C 496.29 100.71 496.68 101.25 496.88 101.53 C 497.25 103.95 497.53 106.38 497.84 108.81 C 496.29 108.32 494.75 107.81 493.21 107.30 C 494.15 106.22 495.07 105.12 495.90 103.95 C 495.97 102.78 496.04 101.61 496.09 100.44 Z" />
<path fill="#9c9ea1" opacity="1.00" d=" M 504.17 99.88 C 512.27 102.24 520.37 104.63 528.59 106.53 C 528.60 108.51 528.62 110.49 528.64 112.47 C 532.69 113.52 536.78 114.40 540.72 115.82 C 536.36 116.13 532.28 114.29 528.01 113.77 C 530.65 117.73 536.46 118.46 540.76 117.25 C 539.56 118.15 538.28 118.93 537.03 119.75 C 532.75 118.61 528.44 117.63 524.14 116.60 C 524.28 115.91 524.54 114.52 524.68 113.82 C 525.00 112.12 525.27 110.40 525.52 108.68 C 523.58 108.20 521.65 107.73 519.72 107.27 C 519.68 108.23 519.66 109.20 519.62 110.16 C 519.58 110.81 519.52 112.11 519.48 112.77 C 520.38 113.88 521.27 114.99 522.23 116.07 C 519.43 115.32 516.64 114.57 513.87 113.77 C 513.95 113.10 514.11 111.77 514.19 111.11 C 514.62 109.53 515.15 107.99 515.54 106.40 C 513.90 105.48 512.12 104.88 510.39 104.18 C 510.29 105.46 510.19 106.75 510.06 108.03 C 509.54 109.42 508.92 110.76 508.31 112.10 C 504.81 111.02 501.33 109.91 497.84 108.81 C 497.53 106.38 497.25 103.95 496.88 101.53 C 498.03 101.66 499.20 101.79 500.36 101.95 C 500.45 103.12 500.57 104.28 500.65 105.45 C 500.18 107.83 502.06 109.54 504.40 109.16 C 503.62 107.74 502.56 106.49 501.24 105.56 C 502.81 105.85 504.38 106.16 505.96 106.47 C 505.92 105.61 505.84 103.88 505.80 103.01 C 504.84 102.79 503.88 102.58 502.93 102.38 C 503.24 101.76 503.86 100.51 504.17 99.88 Z" />
<path fill="#5a5a5e" opacity="0.91" d=" M 481.80 101.27 C 482.95 101.67 484.09 102.10 485.23 102.56 C 484.60 102.83 483.34 103.38 482.70 103.65 C 482.99 105.92 483.26 108.18 483.54 110.45 C 484.20 108.70 484.83 106.95 485.36 105.16 C 487.28 106.29 488.72 107.82 488.68 110.18 C 486.66 110.95 484.62 111.67 482.59 112.42 C 482.18 108.71 481.84 105.00 481.80 101.27 Z" />
<path fill="#080508" opacity="1.00" d=" M 500.36 101.95 C 501.00 102.06 502.29 102.27 502.93 102.38 C 503.88 102.58 504.84 102.79 505.80 103.01 C 505.84 103.88 505.92 105.61 505.96 106.47 C 504.38 106.16 502.81 105.85 501.24 105.56 L 500.65 105.45 C 500.57 104.28 500.45 103.12 500.36 101.95 Z" />
<path fill="#a6a6a7" opacity="1.00" d=" M 490.12 106.20 C 491.44 105.18 492.77 104.16 494.10 103.15 C 494.55 103.35 495.45 103.75 495.90 103.95 C 495.07 105.12 494.15 106.22 493.21 107.30 C 491.81 108.42 490.30 109.40 488.68 110.18 C 488.72 107.82 487.28 106.29 485.36 105.16 L 485.48 104.74 C 487.02 105.22 488.57 105.71 490.12 106.20 Z" />
<path fill="#0c0408" opacity="1.00" d=" M 510.06 108.03 C 510.19 106.75 510.29 105.46 510.39 104.18 C 512.12 104.88 513.90 105.48 515.54 106.40 C 515.15 107.99 514.62 109.53 514.19 111.11 C 513.94 110.31 513.68 109.51 513.42 108.72 C 512.29 108.50 511.17 108.27 510.06 108.03 Z" />
<path fill="#8f8d8b" opacity="1.00" d=" M 472.46 105.22 C 473.89 106.09 471.63 109.28 470.14 108.74 C 469.75 107.28 471.16 105.74 472.46 105.22 Z" />
<path fill="#b3b4b6" opacity="1.00" d=" M 504.40 109.16 C 502.06 109.54 500.18 107.83 500.65 105.45 L 501.24 105.56 C 502.56 106.49 503.62 107.74 504.40 109.16 Z" />
<path fill="#0c0408" opacity="1.00" d=" M 440.82 107.20 L 441.55 107.11 C 441.42 109.63 443.08 109.78 445.12 109.23 C 445.32 110.10 445.52 110.96 445.73 111.83 C 448.81 111.00 451.66 112.58 454.41 113.75 L 455.17 114.07 C 452.12 113.44 449.21 111.08 446.09 112.78 C 444.32 110.68 440.94 110.49 440.82 107.20 Z" />
<path fill="#060303" opacity="1.00" d=" M 519.72 107.27 C 521.65 107.73 523.58 108.20 525.52 108.68 C 525.27 110.40 525.00 112.12 524.68 113.82 C 524.69 113.48 524.72 112.80 524.73 112.46 C 523.04 111.65 521.32 110.91 519.62 110.16 C 519.66 109.20 519.68 108.23 519.72 107.27 Z" />
<path fill="#a9abae" opacity="1.00" d=" M 508.31 112.10 C 508.92 110.76 509.54 109.42 510.06 108.03 C 511.17 108.27 512.29 108.50 513.42 108.72 C 513.68 109.51 513.94 110.31 514.19 111.11 C 514.11 111.77 513.95 113.10 513.87 113.77 C 512.01 113.22 510.15 112.67 508.31 112.10 Z" />
<path fill="#949494" opacity="1.00" d=" M 529.54 108.82 C 532.82 109.39 535.94 110.72 538.37 113.03 C 535.02 112.67 531.51 111.81 529.54 108.82 Z" />
<path fill="#a0a0a2" opacity="1.00" d=" M 464.02 112.42 C 465.81 111.38 467.62 110.37 469.50 109.48 C 468.16 110.97 466.62 112.25 464.99 113.39 C 464.90 114.03 464.73 115.32 464.65 115.97 L 463.87 115.63 C 462.74 115.00 461.44 114.94 460.20 115.05 C 458.46 115.14 456.75 114.73 455.17 114.07 L 454.41 113.75 C 457.04 113.49 460.70 114.45 461.55 111.00 C 462.37 111.47 463.19 111.95 464.02 112.42 Z" />
<path fill="#adaeb0" opacity="1.00" d=" M 519.48 112.77 C 519.52 112.11 519.58 110.81 519.62 110.16 C 521.32 110.91 523.04 111.65 524.73 112.46 C 524.72 112.80 524.69 113.48 524.68 113.82 C 524.54 114.52 524.28 115.91 524.14 116.60 C 523.66 116.47 522.71 116.20 522.23 116.07 C 521.27 114.99 520.38 113.88 519.48 112.77 Z" />
<path fill="#787573" opacity="1.00" d=" M 460.20 115.05 C 461.44 114.94 462.74 115.00 463.87 115.63 C 463.11 116.93 459.96 116.91 460.20 115.05 Z" />
<path fill="#060303" opacity="1.00" d=" M 450.23 124.27 C 457.46 119.31 466.42 117.16 475.12 117.02 L 475.32 117.78 C 475.40 118.22 475.55 119.09 475.63 119.52 C 472.13 117.34 468.08 118.97 464.42 119.62 C 464.42 121.25 464.44 122.88 464.46 124.52 C 463.67 124.62 462.89 124.74 462.11 124.86 C 463.52 123.23 463.78 121.13 463.95 119.07 C 462.98 119.28 461.03 119.68 460.05 119.89 C 460.41 120.30 461.13 121.13 461.49 121.55 C 461.12 121.55 460.38 121.56 460.01 121.57 C 456.41 121.42 453.61 124.14 450.60 125.73 C 450.54 128.99 450.00 132.21 449.22 135.37 C 448.79 135.38 447.93 135.41 447.50 135.43 C 446.25 134.27 445.00 133.10 443.81 131.88 C 445.06 132.87 446.35 133.79 447.66 134.71 C 449.29 131.44 449.25 127.72 450.23 124.27 Z" />
<path fill="#51525e" opacity="0.90" d=" M 460.05 119.89 C 461.03 119.68 462.98 119.28 463.95 119.07 C 463.78 121.13 463.52 123.23 462.11 124.86 C 461.38 123.78 460.68 122.68 460.01 121.57 C 460.38 121.56 461.12 121.55 461.49 121.55 C 461.13 121.13 460.41 120.30 460.05 119.89 Z" />
<path fill="#ffffff" opacity="1.00" d=" M 18.95 296.10 C 21.47 290.83 29.12 290.47 33.57 293.39 C 37.22 295.73 36.44 300.65 36.67 304.37 C 34.05 304.38 31.42 304.37 28.80 304.38 C 28.69 302.39 28.99 300.30 28.23 298.41 C 25.28 297.94 25.84 302.22 26.32 303.99 C 27.91 306.87 31.27 308.16 33.46 310.54 C 37.95 314.27 37.65 320.74 37.11 326.00 C 36.07 334.46 22.30 335.28 19.18 327.85 C 18.07 324.65 18.29 321.20 18.23 317.88 C 20.86 317.87 23.49 317.87 26.12 317.87 C 26.35 320.65 25.48 323.75 26.95 326.29 C 30.31 325.93 29.27 321.46 28.83 319.11 C 26.16 314.66 19.93 312.95 18.55 307.56 C 17.73 303.82 17.66 299.75 18.95 296.10 Z" />
<path fill="#ffffff" opacity="1.00" d=" M 59.47 294.66 C 63.56 289.82 72.41 290.86 75.32 296.48 C 76.81 299.76 76.55 303.46 76.67 306.98 C 73.82 307.00 70.97 307.00 68.12 307.00 C 68.09 304.32 68.31 301.61 67.83 298.96 C 65.91 296.54 65.23 300.71 65.50 302.06 C 65.69 310.14 65.07 318.26 65.89 326.31 C 66.40 326.14 67.42 325.80 67.92 325.64 C 68.64 322.90 68.30 320.04 68.43 317.26 C 68.00 317.04 67.14 316.60 66.72 316.38 C 66.74 314.50 66.75 312.62 66.76 310.75 C 70.05 310.75 73.33 310.75 76.62 310.75 C 76.64 317.82 76.60 324.90 76.64 331.99 C 74.80 331.99 72.95 331.99 71.11 331.97 C 71.00 331.30 70.77 329.96 70.65 329.28 C 69.42 330.75 68.23 332.61 66.14 332.81 C 61.65 333.50 57.82 329.38 57.33 325.16 C 56.65 318.81 57.15 312.40 56.99 306.03 C 57.19 302.20 56.62 297.70 59.47 294.66 Z" />
<path fill="#ffffff" opacity="1.00" d=" M 82.64 292.50 C 86.70 292.49 90.75 292.51 94.81 292.47 C 96.53 305.64 98.09 318.82 99.75 332.00 C 96.84 332.00 93.93 332.00 91.03 332.00 C 90.87 329.62 90.72 327.25 90.58 324.87 C 89.82 324.87 88.30 324.87 87.55 324.87 C 87.40 327.25 87.25 329.62 87.10 332.00 C 84.15 332.00 81.20 332.00 78.26 332.00 C 79.71 318.83 81.19 305.67 82.64 292.50 M 88.43 303.97 C 88.55 308.64 87.75 313.25 87.45 317.90 C 88.40 317.87 89.35 317.85 90.30 317.83 C 89.86 312.31 89.28 306.78 89.51 301.23 C 88.75 301.95 88.27 302.89 88.43 303.97 Z" />
<path fill="#ffff00" opacity="1.00" d=" M 173.64 292.50 C 177.71 292.49 181.77 292.50 185.84 292.49 C 187.50 305.66 189.11 318.83 190.75 332.00 C 187.84 332.00 184.93 332.00 182.03 332.00 C 181.87 329.62 181.72 327.25 181.58 324.87 C 180.82 324.87 179.30 324.87 178.55 324.87 C 178.40 327.25 178.25 329.62 178.10 332.00 C 175.26 332.00 172.43 332.00 169.59 332.00 C 170.37 318.78 172.34 305.67 173.64 292.50 M 179.38 303.98 C 179.54 308.64 178.78 313.25 178.44 317.88 C 179.39 317.86 180.34 317.86 181.29 317.85 C 180.83 312.13 180.30 306.41 180.41 300.67 C 179.87 301.70 179.24 302.76 179.38 303.98 Z" />
<path fill="#ffff00" opacity="1.00" d=" M 226.82 292.58 C 231.52 290.40 238.29 291.80 240.43 296.90 C 241.85 300.97 241.42 305.38 241.51 309.62 C 238.67 309.62 235.84 309.62 233.01 309.63 C 232.83 305.94 233.45 302.13 232.51 298.52 C 230.88 297.70 229.76 299.36 230.07 300.88 C 229.98 308.63 229.89 316.39 230.12 324.14 C 229.61 325.52 231.81 327.20 232.55 325.60 C 233.38 322.52 232.88 319.27 233.00 316.12 C 235.84 316.12 238.69 316.12 241.53 316.13 C 241.37 320.12 241.82 324.36 240.11 328.09 C 237.23 333.54 229.11 334.41 224.60 330.55 C 221.66 327.93 221.73 323.66 221.52 320.04 C 221.54 313.70 221.33 307.34 221.65 301.00 C 221.75 297.55 223.60 294.05 226.82 292.58 Z" />
<path fill="#ffff00" opacity="1.00" d=" M 247.16 292.49 C 251.22 292.50 255.28 292.50 259.35 292.50 C 260.99 305.67 262.61 318.83 264.25 332.00 C 261.32 332.00 258.40 332.01 255.48 331.94 C 255.37 329.58 255.22 327.23 255.09 324.88 C 254.33 324.87 252.80 324.87 252.04 324.87 C 251.90 327.23 251.75 329.60 251.62 331.97 C 248.67 332.00 245.71 332.00 242.75 332.00 C 244.23 318.83 245.66 305.65 247.16 292.49 M 253.52 301.11 C 253.01 306.71 252.39 312.29 251.97 317.90 C 252.67 317.89 254.08 317.87 254.78 317.86 C 254.36 312.28 253.97 306.69 253.52 301.11 Z" />
<path fill="#ffff00" opacity="1.00" d=" M 266.33 295.36 C 269.32 290.79 276.29 290.62 280.56 293.38 C 284.22 295.73 283.43 300.64 283.68 304.37 C 281.05 304.37 278.43 304.37 275.81 304.38 C 275.70 302.37 275.96 300.28 275.22 298.36 C 272.27 298.04 272.84 302.18 273.32 303.98 C 274.91 306.86 278.26 308.17 280.46 310.54 C 284.95 314.27 284.65 320.75 284.10 326.02 C 283.05 334.42 269.43 335.27 266.23 327.95 C 265.05 324.73 265.29 321.24 265.23 317.87 C 267.85 317.87 270.49 317.87 273.12 317.88 C 273.36 320.64 272.44 323.78 273.99 326.28 C 277.32 325.90 276.27 321.37 275.81 319.04 C 273.08 314.65 266.92 312.91 265.55 307.54 C 264.73 303.56 264.54 299.11 266.33 295.36 Z" />
<path fill="#ffffff" opacity="1.00" d=" M 40.25 332.00 C 40.27 318.83 40.23 305.66 40.27 292.49 C 44.97 292.51 49.67 292.49 54.38 292.50 C 54.38 295.12 54.38 297.75 54.38 300.37 C 52.50 300.37 50.62 300.37 48.74 300.38 C 48.75 302.87 48.75 305.37 48.74 307.87 C 50.50 307.87 52.25 307.87 54.00 307.88 C 54.00 310.38 54.00 312.89 53.96 315.41 C 52.22 315.38 50.49 315.37 48.75 315.36 C 48.75 318.28 48.75 321.20 48.75 324.12 C 50.83 324.12 52.92 324.12 55.00 324.12 C 55.00 326.74 55.00 329.37 55.00 332.00 C 50.08 332.00 45.16 332.00 40.25 332.00 Z" />
<path fill="#ffff00" opacity="1.00" d=" M 108.75 292.50 C 113.83 292.65 119.07 291.97 124.02 293.40 C 127.53 294.65 128.40 298.75 128.33 302.05 C 128.32 310.04 128.60 318.05 128.16 326.03 C 128.18 328.86 126.06 331.55 123.16 331.77 C 118.37 332.27 113.55 331.89 108.75 332.00 C 108.75 318.83 108.75 305.67 108.75 292.50 M 117.52 325.81 C 119.00 325.09 120.04 323.84 119.81 322.14 C 119.93 315.40 119.91 308.66 119.83 301.93 C 119.85 300.34 119.06 299.25 117.47 298.66 C 117.15 307.69 117.04 316.78 117.52 325.81 Z" />
<path fill="#ffff00" opacity="1.00" d=" M 131.75 292.50 C 136.49 292.59 141.31 292.15 145.99 293.11 C 149.68 294.27 150.56 298.68 150.62 302.07 C 150.69 305.52 150.97 310.71 146.46 311.37 C 148.42 312.23 150.30 313.75 150.44 316.05 C 150.85 321.35 150.51 326.67 150.64 331.98 C 148.01 332.00 145.38 332.00 142.75 332.00 C 142.65 326.69 142.96 321.36 142.60 316.05 C 142.75 314.63 141.28 314.30 140.35 313.71 C 140.15 319.80 140.29 325.90 140.25 332.00 C 137.42 332.00 134.58 332.00 131.75 332.00 C 131.75 318.83 131.75 305.67 131.75 292.50 M 140.38 298.80 C 140.20 301.97 140.22 305.16 140.30 308.35 C 141.23 307.80 142.77 307.64 142.65 306.19 C 142.77 303.58 143.65 299.81 140.38 298.80 Z" />
<path fill="#ffff00" opacity="1.00" d=" M 154.25 331.99 C 154.27 318.82 154.22 305.65 154.27 292.48 C 158.97 292.51 163.67 292.49 168.38 292.50 C 168.38 295.12 168.38 297.75 168.38 300.37 C 166.50 300.37 164.62 300.37 162.75 300.38 C 162.75 302.86 162.74 305.34 162.71 307.82 C 164.47 307.85 166.24 307.87 168.01 307.89 C 168.00 310.40 168.00 312.90 167.97 315.41 C 166.23 315.38 164.49 315.37 162.75 315.36 C 162.75 318.28 162.75 321.20 162.75 324.13 C 164.82 324.12 166.88 324.11 168.95 324.10 C 169.08 326.73 169.20 329.36 169.34 332.00 C 164.31 332.00 159.28 332.00 154.25 331.99 Z" />
<path fill="#ffff00" opacity="1.00" d=" M 192.25 332.00 C 192.27 318.82 192.22 305.65 192.27 292.48 C 195.92 292.50 199.57 292.50 203.22 292.50 C 204.01 298.51 204.52 304.57 205.57 310.55 C 206.08 304.52 206.76 298.51 207.40 292.50 C 211.06 292.50 214.72 292.50 218.38 292.50 C 218.38 305.67 218.38 318.83 218.38 332.00 C 215.92 332.00 213.46 332.00 211.00 332.00 C 210.90 323.25 211.32 314.49 210.50 305.77 C 210.14 314.55 208.92 323.26 207.99 331.99 C 206.25 332.00 204.50 332.00 202.76 332.02 C 201.58 323.34 201.00 314.56 199.42 305.94 C 199.82 314.62 199.54 323.31 199.62 332.00 C 197.16 332.00 194.70 332.00 192.25 332.00 Z" />
<path fill="#ffff00" opacity="1.00" d=" M 285.75 292.50 C 291.96 292.50 298.17 292.50 304.38 292.50 C 304.37 295.12 304.37 297.75 304.38 300.38 C 302.66 300.37 300.96 300.37 299.25 300.38 C 299.25 310.92 299.25 321.46 299.25 332.00 C 296.41 332.00 293.58 332.00 290.75 332.00 C 290.75 321.46 290.75 310.92 290.75 300.38 C 289.08 300.37 287.41 300.37 285.75 300.38 C 285.75 297.75 285.75 295.12 285.75 292.50 Z" />
</svg>
