<?xml version="1.0" encoding="UTF-8" ?>
<!DOCTYPE svg PUBLIC "-//W3C//DTD SVG 1.1//EN" "http://www.w3.org/Graphics/SVG/1.1/DTD/svg11.dtd">
<svg width="960pt" height="540pt" viewBox="0 0 960 540" version="1.1" xmlns="http://www.w3.org/2000/svg">
<path fill="#441218" opacity="1.00" d=" M 639.42 31.04 C 639.97 31.79 640.41 32.59 640.76 33.45 C 641.75 36.71 641.52 40.13 641.14 43.47 C 640.56 49.11 643.27 54.76 641.19 60.35 L 640.29 58.38 C 640.41 56.90 640.56 55.42 640.70 53.93 C 640.29 55.39 639.90 56.85 639.51 58.31 C 638.70 58.83 637.89 59.34 637.10 59.86 L 636.53 60.23 C 635.55 56.77 638.30 52.96 635.60 49.96 C 634.69 48.76 633.81 47.52 632.66 46.55 C 629.78 46.12 626.85 46.39 623.96 46.37 C 624.11 45.90 624.40 44.95 624.55 44.48 C 627.07 46.09 630.00 45.00 632.72 44.60 C 633.08 42.42 633.44 40.23 633.82 38.05 C 632.99 38.02 631.31 37.95 630.47 37.92 C 630.35 37.74 630.12 37.37 630.00 37.19 C 632.19 37.57 633.55 36.25 635.04 35.09 C 636.26 36.74 637.21 38.68 639.07 39.75 C 639.27 36.85 639.25 33.94 639.42 31.04 M 635.07 40.26 C 639.46 40.88 634.58 43.96 634.96 46.20 C 635.29 45.56 635.94 44.28 636.27 43.64 C 637.95 44.81 638.42 46.68 638.51 48.64 C 637.94 48.59 636.80 48.48 636.23 48.42 C 637.76 49.91 638.70 51.85 638.44 54.03 C 638.43 51.83 639.52 51.12 641.23 52.68 C 640.56 52.03 639.90 51.38 639.25 50.72 C 638.61 47.84 638.58 44.86 637.94 41.98 C 637.99 40.63 636.34 38.64 635.07 40.26 Z" />
<path fill="#0a0909" opacity="1.00" d=" M 669.27 33.62 C 670.09 32.89 670.92 32.17 671.76 31.45 C 671.74 33.11 671.71 34.76 671.66 36.42 L 670.68 36.12 C 667.60 35.18 668.36 40.15 671.08 39.73 C 671.12 40.64 671.18 42.46 671.21 43.37 C 667.11 42.62 662.64 43.70 658.80 41.96 C 659.31 41.55 660.32 40.73 660.83 40.31 C 663.11 40.45 665.39 40.54 667.69 40.61 C 667.83 39.52 667.99 38.44 668.15 37.35 L 667.83 37.46 C 664.76 37.12 661.70 36.80 658.64 36.50 C 658.93 36.10 659.52 35.29 659.81 34.89 C 658.65 33.55 656.58 33.51 655.53 35.00 C 654.52 35.15 653.52 35.31 652.53 35.49 C 652.49 35.94 652.40 36.85 652.35 37.31 C 649.36 36.59 646.28 36.80 643.27 37.27 C 643.19 38.02 643.02 39.53 642.94 40.29 C 642.56 41.46 641.89 42.50 641.14 43.47 C 641.52 40.13 641.75 36.71 640.76 33.45 C 650.27 33.63 659.77 33.38 669.27 33.62 Z" />
<path fill="#a8d9d7" opacity="1.00" d=" M 655.53 35.00 C 656.58 33.51 658.65 33.55 659.81 34.89 C 659.52 35.29 658.93 36.10 658.64 36.50 C 657.44 36.45 656.48 35.62 655.53 35.00 Z" />
<path fill="#d01a1e" opacity="1.00" d=" M 652.53 35.49 C 653.52 35.31 654.52 35.15 655.53 35.00 C 656.48 35.62 657.44 36.45 658.64 36.50 C 661.70 36.80 664.76 37.12 667.83 37.46 C 666.10 38.17 664.31 38.66 662.48 38.98 C 660.90 37.77 658.93 38.63 657.17 38.66 C 656.95 38.46 656.52 38.05 656.31 37.84 C 655.54 34.81 654.59 37.62 654.59 39.15 C 653.85 38.52 653.10 37.92 652.35 37.31 C 652.40 36.85 652.49 35.94 652.53 35.49 Z" />
<path fill="#080030" opacity="1.00" d=" M 676.04 34.84 C 676.48 35.23 677.36 36.01 677.81 36.40 C 679.22 36.31 680.63 36.22 682.06 36.13 C 687.07 37.91 692.49 36.92 697.49 38.76 C 698.10 40.42 698.07 42.21 698.08 43.96 C 696.83 44.36 696.39 45.68 696.04 46.80 L 695.07 46.83 C 695.18 46.18 695.39 44.89 695.49 44.25 L 695.35 43.08 C 695.28 42.55 695.14 41.50 695.07 40.97 C 695.25 42.30 695.94 42.94 697.13 42.89 C 697.78 41.37 696.74 39.78 695.39 39.12 C 692.68 38.21 692.51 41.19 692.12 42.85 L 691.96 42.83 C 691.87 41.51 691.79 40.18 691.73 38.86 C 689.17 38.70 686.63 38.50 684.10 38.24 C 684.13 38.90 684.20 40.22 684.24 40.88 C 684.06 40.66 683.70 40.21 683.52 39.99 C 683.43 39.44 683.26 38.35 683.17 37.80 C 680.96 37.67 678.77 37.53 676.57 37.37 C 677.36 39.64 677.80 42.03 677.28 44.42 C 677.16 45.17 677.04 45.91 676.93 46.65 C 676.15 47.75 675.35 48.81 674.58 49.90 C 673.69 51.41 672.42 53.04 672.93 54.91 C 673.61 58.68 674.66 62.39 675.90 66.01 C 674.53 65.63 673.16 65.23 671.80 64.83 C 671.45 59.54 669.67 54.01 671.58 48.84 L 671.64 48.63 C 676.36 48.34 674.74 43.11 674.43 39.99 C 674.02 40.42 673.19 41.27 672.78 41.70 C 672.57 41.14 672.15 40.03 671.93 39.47 C 673.25 37.88 674.70 36.41 676.04 34.84 Z" />
<path fill="#aaaaa9" opacity="1.00" d=" M 654.59 39.15 C 654.59 37.62 655.54 34.81 656.31 37.84 C 656.31 38.36 656.31 39.38 656.31 39.90 C 656.00 40.02 655.40 40.25 655.10 40.37 C 654.97 40.07 654.71 39.46 654.59 39.15 Z" />
<path fill="#25373d" opacity="1.00" d=" M 671.08 39.73 C 668.36 40.15 667.60 35.18 670.68 36.12 C 670.99 37.30 671.13 38.50 671.08 39.73 Z" />
<path fill="#9c3834" opacity="1.00" d=" M 670.68 36.12 L 671.66 36.42 C 671.73 37.18 671.87 38.71 671.93 39.47 C 672.15 40.03 672.57 41.14 672.78 41.70 C 672.25 42.26 671.72 42.81 671.21 43.37 C 671.18 42.46 671.12 40.64 671.08 39.73 C 671.13 38.50 670.99 37.30 670.68 36.12 Z" />
<path fill="#171511" opacity="1.00" d=" M 613.07 39.09 C 618.75 38.67 624.24 36.62 630.00 37.19 C 630.12 37.37 630.35 37.74 630.47 37.92 C 630.52 38.42 630.61 39.43 630.65 39.93 C 630.32 39.48 629.66 38.59 629.33 38.15 C 628.86 38.40 627.93 38.90 627.46 39.15 C 626.19 39.09 624.92 39.05 623.66 39.01 C 623.42 39.00 622.94 39.00 622.71 38.99 C 622.22 40.38 621.85 41.81 621.15 43.10 C 621.15 42.15 621.15 40.24 621.15 39.29 C 618.28 39.61 615.42 39.99 612.59 40.52 C 612.41 42.55 612.21 44.57 612.04 46.60 C 613.20 46.87 614.37 47.15 615.55 47.43 C 614.90 48.02 614.25 48.60 613.62 49.19 C 616.06 51.79 619.75 51.41 623.01 51.43 C 627.23 51.33 631.65 51.84 635.60 49.96 C 638.30 52.96 635.55 56.77 636.53 60.23 C 636.34 60.68 635.95 61.57 635.76 62.02 C 633.62 67.14 632.57 72.60 631.00 77.90 C 629.67 77.78 628.35 77.67 627.04 77.59 C 620.99 77.20 614.92 76.80 608.88 77.42 C 610.81 77.64 612.76 77.85 614.71 78.05 C 614.68 78.32 614.61 78.86 614.58 79.13 C 613.10 79.07 611.63 79.02 610.16 78.97 C 609.47 79.53 608.78 80.08 608.10 80.64 C 608.66 80.94 609.78 81.55 610.34 81.86 C 608.23 81.91 606.14 82.00 604.05 82.08 L 604.01 81.10 C 604.82 80.88 606.45 80.45 607.26 80.23 C 605.07 79.47 603.09 80.57 601.30 81.72 C 600.25 82.25 599.21 82.78 598.19 83.34 C 597.64 83.19 596.54 82.90 595.99 82.76 C 598.67 81.48 601.43 80.36 604.01 78.88 C 604.11 78.40 604.32 77.43 604.42 76.95 L 604.55 77.11 C 605.03 77.19 605.99 77.34 606.47 77.41 C 606.96 77.16 607.95 76.65 608.45 76.40 C 610.82 69.24 613.60 62.21 615.71 54.97 C 615.01 52.02 612.10 50.36 610.51 47.92 C 610.68 44.57 610.86 41.21 611.01 37.85 C 611.52 38.16 612.56 38.78 613.07 39.09 M 617.83 62.10 L 618.06 62.74 C 616.38 66.11 615.31 69.71 614.47 73.36 C 620.02 73.72 625.57 73.87 631.13 74.09 C 632.01 70.59 632.73 67.04 633.47 63.50 L 633.96 63.76 C 634.13 61.80 634.26 59.83 634.33 57.86 C 629.86 57.56 625.34 57.32 620.91 58.03 C 619.10 58.55 618.69 60.68 617.83 62.10 Z" />
<path fill="#b46c2d" opacity="1.00" d=" M 643.27 37.27 C 646.28 36.80 649.36 36.59 652.35 37.31 C 653.10 37.92 653.85 38.52 654.59 39.15 C 654.71 39.46 654.97 40.07 655.10 40.37 C 654.70 40.51 653.90 40.80 653.50 40.94 C 650.03 40.19 646.46 40.18 642.94 40.29 C 643.02 39.53 643.19 38.02 643.27 37.27 Z" />
<path fill="#a1a227" opacity="1.00" d=" M 667.83 37.46 L 668.15 37.35 C 667.99 38.44 667.83 39.52 667.69 40.61 C 665.39 40.54 663.11 40.45 660.83 40.31 C 660.32 40.73 659.31 41.55 658.80 41.96 L 658.14 41.44 C 657.52 40.92 656.91 40.41 656.31 39.90 C 656.31 39.38 656.31 38.36 656.31 37.84 C 656.52 38.05 656.95 38.46 657.17 38.66 C 658.93 38.63 660.90 37.77 662.48 38.98 C 664.31 38.66 666.10 38.17 667.83 37.46 Z" />
<path fill="#bc9262" opacity="1.00" d=" M 630.47 37.92 C 631.31 37.95 632.99 38.02 633.82 38.05 C 633.44 40.23 633.08 42.42 632.72 44.60 C 630.00 45.00 627.07 46.09 624.55 44.48 C 624.40 44.95 624.11 45.90 623.96 46.37 C 622.16 46.50 620.41 46.13 618.86 45.24 C 619.03 44.92 619.38 44.28 619.56 43.96 C 620.08 43.67 620.61 43.39 621.15 43.10 C 621.85 41.81 622.22 40.38 622.71 38.99 C 622.94 39.00 623.42 39.00 623.66 39.01 C 625.02 40.36 625.95 42.03 626.82 43.72 C 628.14 43.05 629.46 42.39 630.80 41.73 C 630.76 41.28 630.69 40.38 630.65 39.93 C 630.61 39.43 630.52 38.42 630.47 37.92 Z" />
<path fill="#c384d8" opacity="1.00" d=" M 676.57 37.37 C 678.77 37.53 680.96 37.67 683.17 37.80 C 683.26 38.35 683.43 39.44 683.52 39.99 C 682.71 40.05 681.10 40.17 680.29 40.23 C 680.17 41.47 680.05 42.71 679.95 43.94 C 679.28 44.06 677.95 44.30 677.28 44.42 C 677.80 42.03 677.36 39.64 676.57 37.37 Z" />
<path fill="#e5dade" opacity="1.00" d=" M 684.10 38.24 C 686.63 38.50 689.17 38.70 691.73 38.86 C 691.79 40.18 691.87 41.51 691.96 42.83 C 691.65 42.79 691.03 42.69 690.72 42.65 C 690.23 42.07 689.25 40.90 688.77 40.32 C 688.99 41.94 689.17 43.57 689.29 45.21 C 688.13 44.56 687.05 43.87 686.02 43.06 C 686.40 44.17 686.78 45.29 687.17 46.40 C 686.66 46.34 685.64 46.21 685.13 46.15 C 685.03 45.51 684.83 44.25 684.73 43.62 C 683.58 43.59 682.44 43.56 681.31 43.54 C 681.31 43.30 681.31 42.84 681.30 42.60 C 682.59 42.50 683.88 42.39 685.18 42.29 C 684.95 41.93 684.47 41.23 684.24 40.88 C 684.20 40.22 684.13 38.90 684.10 38.24 Z" />
<path fill="#191c17" opacity="1.00" d=" M 697.49 38.76 C 697.85 38.48 698.59 37.93 698.95 37.65 C 699.65 41.18 699.65 44.79 699.57 48.37 C 697.65 50.34 695.42 52.26 694.54 54.96 C 696.04 61.58 699.59 67.49 701.01 74.14 C 700.92 75.26 700.81 76.37 700.70 77.48 C 700.37 77.52 699.70 77.59 699.36 77.63 C 696.33 77.18 693.28 76.84 690.22 76.91 C 686.56 76.95 682.90 76.92 679.25 76.87 C 678.75 74.30 678.19 71.73 677.29 69.26 C 676.82 68.18 676.35 67.10 675.90 66.01 C 674.66 62.39 673.61 58.68 672.93 54.91 C 672.42 53.04 673.69 51.41 674.58 49.90 C 674.90 51.08 675.23 52.25 675.56 53.43 C 680.74 53.63 685.91 54.16 691.10 53.95 C 692.38 53.98 693.33 52.97 694.36 52.35 C 695.99 50.76 697.18 48.80 697.88 46.64 C 697.93 45.97 698.03 44.63 698.08 43.96 C 698.07 42.21 698.10 40.42 697.49 38.76 M 675.80 57.89 C 676.14 63.37 678.52 68.44 680.16 73.62 C 682.38 73.64 684.61 73.73 686.83 73.62 C 686.80 73.37 686.73 72.88 686.70 72.64 C 687.91 72.57 689.13 72.53 690.36 72.49 L 690.05 73.00 C 692.02 73.02 694.01 73.02 696.00 72.99 C 695.31 68.47 693.78 64.11 691.85 59.98 C 691.45 58.72 690.16 58.27 689.17 57.62 C 688.72 57.66 687.81 57.75 687.35 57.79 C 683.80 56.61 679.03 56.31 675.80 57.89 Z" />
<path fill="#e1ce88" opacity="1.00" d=" M 623.66 39.01 C 624.92 39.05 626.19 39.09 627.46 39.15 C 627.93 38.90 628.86 38.40 629.33 38.15 C 629.66 38.59 630.32 39.48 630.65 39.93 C 630.69 40.38 630.76 41.28 630.80 41.73 C 629.46 42.39 628.14 43.05 626.82 43.72 C 625.95 42.03 625.02 40.36 623.66 39.01 Z" />
<path fill="#646462" opacity="1.00" d=" M 455.71 59.33 C 463.72 52.41 472.60 46.49 481.08 40.17 C 487.95 41.25 494.80 42.65 501.63 44.05 C 499.70 46.06 497.60 47.90 495.30 49.47 C 496.50 49.70 497.70 49.97 498.90 50.28 C 498.99 51.74 498.35 53.30 496.97 53.94 C 493.93 53.61 491.05 52.33 487.98 52.27 C 485.10 52.57 482.37 53.59 479.59 54.34 C 479.54 54.90 479.43 56.03 479.38 56.59 C 476.66 55.20 475.39 52.55 475.66 49.53 C 475.39 50.86 475.11 52.18 474.83 53.51 C 473.45 53.76 471.80 53.72 470.92 55.03 C 471.01 59.62 472.98 64.05 477.24 66.16 C 471.21 64.73 465.97 61.13 459.88 59.88 C 457.33 59.54 454.75 59.53 452.19 59.64 C 453.33 59.35 454.52 59.41 455.71 59.33 M 480.32 42.18 C 477.34 43.78 481.39 45.06 482.52 43.21 C 483.77 41.76 481.08 41.30 480.32 42.18 M 461.71 57.56 C 463.92 58.86 466.49 59.22 468.96 59.73 C 468.94 57.69 467.77 55.63 465.86 54.83 C 464.30 55.44 463.03 56.58 461.71 57.56 Z" />
<path fill="#cca76f" opacity="1.00" d=" M 612.59 40.52 C 615.42 39.99 618.28 39.61 621.15 39.29 C 621.15 40.24 621.15 42.15 621.15 43.10 C 620.61 43.39 620.08 43.67 619.56 43.96 C 619.38 44.28 619.03 44.92 618.86 45.24 C 617.36 47.31 614.23 46.12 612.04 46.60 C 612.21 44.57 612.41 42.55 612.59 40.52 Z" />
<path fill="#cca76f" opacity="1.00" d=" M 635.07 40.26 C 636.34 38.64 637.99 40.63 637.94 41.98 C 638.58 44.86 638.61 47.84 639.25 50.72 C 639.90 51.38 640.56 52.03 641.23 52.68 C 639.52 51.12 638.43 51.83 638.44 54.03 C 638.70 51.85 637.76 49.91 636.23 48.42 C 636.80 48.48 637.94 48.59 638.51 48.64 C 638.42 46.68 637.95 44.81 636.27 43.64 C 635.94 44.28 635.29 45.56 634.96 46.20 C 634.58 43.96 639.46 40.88 635.07 40.26 Z" />
<path fill="#191a14" opacity="1.00" d=" M 642.94 40.29 C 646.46 40.18 650.03 40.19 653.50 40.94 L 653.20 41.53 C 651.71 42.14 650.25 42.72 648.78 43.34 C 650.51 43.36 652.26 43.38 654.00 43.23 C 654.30 43.03 654.88 42.64 655.17 42.44 C 655.91 42.19 657.40 41.69 658.14 41.44 L 658.80 41.96 C 662.64 43.70 667.11 42.62 671.21 43.37 C 671.72 42.81 672.25 42.26 672.78 41.70 C 673.19 41.27 674.02 40.42 674.43 39.99 C 674.74 43.11 676.36 48.34 671.64 48.63 C 671.57 48.65 671.41 48.71 671.33 48.73 L 671.58 48.84 C 669.67 54.01 671.45 59.54 671.80 64.83 L 671.96 65.95 C 671.92 66.66 671.85 68.09 671.82 68.81 C 671.80 70.82 671.72 72.85 672.01 74.85 C 672.24 76.02 672.49 77.20 672.76 78.38 C 673.12 78.76 673.82 79.52 674.18 79.91 C 674.01 80.69 673.68 82.26 673.51 83.04 C 673.40 82.83 673.19 82.40 673.08 82.18 C 672.21 80.98 671.42 79.58 670.06 78.87 C 666.63 78.66 663.20 79.09 659.77 78.98 C 654.85 78.73 649.91 78.56 644.99 78.93 C 643.27 79.02 641.56 79.11 639.86 79.20 C 640.54 72.94 640.87 66.64 641.19 60.35 C 643.27 54.76 640.56 49.11 641.14 43.47 C 641.89 42.50 642.56 41.46 642.94 40.29 M 673.21 43.46 C 672.36 44.74 672.59 45.50 673.89 45.75 C 674.71 44.47 674.49 43.71 673.21 43.46 M 644.94 51.30 C 652.77 50.77 660.69 51.92 668.45 50.62 C 668.94 48.69 669.45 46.76 669.93 44.82 C 660.95 44.50 651.94 44.49 642.96 44.72 C 639.90 46.36 643.90 49.42 644.94 51.30 M 645.12 57.14 C 644.36 59.97 644.20 62.89 644.24 65.80 L 645.13 65.74 L 644.71 67.19 L 644.18 67.24 C 643.83 69.71 643.77 72.21 644.03 74.70 C 651.86 74.59 659.71 75.14 667.52 74.53 C 667.61 72.47 667.78 70.39 667.59 68.33 C 665.79 67.51 663.75 67.41 661.81 67.24 C 663.38 67.22 664.96 67.18 666.54 67.11 C 665.97 65.86 665.41 64.62 664.85 63.38 L 663.96 63.37 C 664.71 63.26 666.22 63.03 666.97 62.92 C 666.83 61.14 666.94 59.30 666.39 57.58 C 664.23 56.10 661.50 56.13 659.00 55.99 C 654.35 55.94 649.65 55.96 645.12 57.14 Z" />
<path fill="#b6363e" opacity="1.00" d=" M 656.31 39.90 C 656.91 40.41 657.52 40.92 658.14 41.44 C 657.40 41.69 655.91 42.19 655.17 42.44 C 654.68 42.21 653.69 41.76 653.20 41.53 L 653.50 40.94 C 653.90 40.80 654.70 40.51 655.10 40.37 C 655.40 40.25 656.00 40.02 656.31 39.90 Z" />
<path fill="#874f9d" opacity="1.00" d=" M 680.29 40.23 C 681.10 40.17 682.71 40.05 683.52 39.99 C 683.70 40.21 684.06 40.66 684.24 40.88 C 684.47 41.23 684.95 41.93 685.18 42.29 C 683.88 42.39 682.59 42.50 681.30 42.60 C 681.31 42.84 681.31 43.30 681.31 43.54 C 682.44 43.56 683.58 43.59 684.73 43.62 C 684.83 44.25 685.03 45.51 685.13 46.15 C 682.47 45.83 679.54 46.15 677.28 44.42 C 677.95 44.30 679.28 44.06 679.95 43.94 C 680.05 42.71 680.17 41.47 680.29 40.23 Z" />
<path fill="#aa67ca" opacity="1.00" d=" M 692.12 42.85 C 692.51 41.19 692.68 38.21 695.39 39.12 C 696.74 39.78 697.78 41.37 697.13 42.89 C 695.94 42.94 695.25 42.30 695.07 40.97 C 695.14 41.50 695.28 42.55 695.35 43.08 C 694.54 43.02 692.93 42.91 692.12 42.85 Z" />
<path fill="#9c8498" opacity="1.00" d=" M 688.77 40.32 C 689.25 40.90 690.23 42.07 690.72 42.65 C 691.03 42.69 691.65 42.79 691.96 42.83 L 692.12 42.85 C 692.93 42.91 694.54 43.02 695.35 43.08 L 695.49 44.25 C 693.99 43.62 692.08 45.36 693.20 46.82 C 691.91 46.83 690.62 46.85 689.34 46.90 C 689.32 46.33 689.30 45.77 689.29 45.21 C 689.17 43.57 688.99 41.94 688.77 40.32 Z" />
<path fill="#474746" opacity="1.00" d=" M 480.32 42.18 C 481.08 41.30 483.77 41.76 482.52 43.21 C 481.39 45.06 477.34 43.78 480.32 42.18 Z" />
<path fill="#a8d9d7" opacity="1.00" d=" M 648.78 43.34 C 650.25 42.72 651.71 42.14 653.20 41.53 C 653.69 41.76 654.68 42.21 655.17 42.44 C 654.88 42.64 654.30 43.03 654.00 43.23 C 652.26 43.38 650.51 43.36 648.78 43.34 Z" />
<path fill="#947e7c" opacity="1.00" d=" M 673.21 43.46 C 674.49 43.71 674.71 44.47 673.89 45.75 C 672.59 45.50 672.36 44.74 673.21 43.46 Z" />
<path fill="#3f3f40" opacity="1.00" d=" M 686.02 43.06 C 687.05 43.87 688.13 44.56 689.29 45.21 C 689.30 45.77 689.32 46.33 689.34 46.90 C 690.62 46.85 691.91 46.83 693.20 46.82 C 693.67 46.82 694.60 46.83 695.07 46.83 L 696.04 46.80 C 696.50 46.76 697.42 46.68 697.88 46.64 C 697.18 48.80 695.99 50.76 694.36 52.35 C 688.71 51.31 682.98 50.70 677.24 50.74 C 677.11 49.38 677.01 48.02 676.93 46.65 C 677.04 45.91 677.16 45.17 677.28 44.42 C 679.54 46.15 682.47 45.83 685.13 46.15 C 685.64 46.21 686.66 46.34 687.17 46.40 C 686.78 45.29 686.40 44.17 686.02 43.06 Z" />
<path fill="#5b5b5a" opacity="1.00" d=" M 501.63 44.05 C 510.28 45.97 518.60 49.11 527.19 51.26 C 525.97 53.34 525.19 55.64 525.09 58.06 C 527.43 56.76 529.31 54.86 530.83 52.68 C 531.53 52.84 532.93 53.17 533.63 53.34 C 525.91 59.51 518.89 66.51 511.90 73.47 C 511.39 73.66 510.37 74.04 509.86 74.22 C 505.18 72.82 500.46 71.54 495.68 70.52 C 497.20 69.93 498.73 69.33 500.28 68.79 C 500.58 68.72 501.17 68.60 501.46 68.53 C 504.11 69.34 506.68 70.72 509.51 70.77 C 510.99 69.80 512.15 68.43 513.36 67.16 C 512.46 67.06 510.64 66.86 509.73 66.76 C 514.27 63.31 519.19 60.15 522.84 55.70 C 523.58 53.52 521.18 52.49 519.60 51.83 C 518.88 51.21 518.16 50.58 517.46 49.95 C 515.02 54.79 510.50 59.06 504.96 59.79 C 496.40 61.04 487.13 60.85 479.38 56.59 C 479.43 56.03 479.54 54.90 479.59 54.34 C 482.37 53.59 485.10 52.57 487.98 52.27 C 491.05 52.33 493.93 53.61 496.97 53.94 C 498.35 53.30 498.99 51.74 498.90 50.28 C 497.70 49.97 496.50 49.70 495.30 49.47 C 497.60 47.90 499.70 46.06 501.63 44.05 Z" />
<path fill="#cd8cd7" opacity="1.00" d=" M 693.20 46.82 C 692.08 45.36 693.99 43.62 695.49 44.25 C 695.39 44.89 695.18 46.18 695.07 46.83 C 694.60 46.83 693.67 46.82 693.20 46.82 Z" />
<path fill="#9f45d6" opacity="1.00" d=" M 696.04 46.80 C 696.39 45.68 696.83 44.36 698.08 43.96 C 698.03 44.63 697.93 45.97 697.88 46.64 C 697.42 46.68 696.50 46.76 696.04 46.80 Z" />
<path fill="#302b2a" opacity="1.00" d=" M 618.86 45.24 C 620.41 46.13 622.16 46.50 623.96 46.37 C 626.85 46.39 629.78 46.12 632.66 46.55 C 633.81 47.52 634.69 48.76 635.60 49.96 C 631.65 51.84 627.23 51.33 623.01 51.43 C 619.75 51.41 616.06 51.79 613.62 49.19 C 614.25 48.60 614.90 48.02 615.55 47.43 C 614.37 47.15 613.20 46.87 612.04 46.60 C 614.23 46.12 617.36 47.31 618.86 45.24 Z" />
<path fill="#3c3a39" opacity="1.00" d=" M 644.94 51.30 C 643.90 49.42 639.90 46.36 642.96 44.72 C 651.94 44.49 660.95 44.50 669.93 44.82 C 669.45 46.76 668.94 48.69 668.45 50.62 C 660.69 51.92 652.77 50.77 644.94 51.30 Z" />
<path fill="#2e2e2c" opacity="1.00" d=" M 674.58 49.90 C 675.35 48.81 676.15 47.75 676.93 46.65 C 677.01 48.02 677.11 49.38 677.24 50.74 C 682.98 50.70 688.71 51.31 694.36 52.35 C 693.33 52.97 692.38 53.98 691.10 53.95 C 685.91 54.16 680.74 53.63 675.56 53.43 C 675.23 52.25 674.90 51.08 674.58 49.90 Z" />
<path fill="#6a6077" opacity="1.00" d=" M 671.33 48.73 C 671.41 48.71 671.57 48.65 671.64 48.63 L 671.58 48.84 L 671.33 48.73 Z" />
<path fill="#3d3b3b" opacity="1.00" d=" M 474.83 53.51 C 475.11 52.18 475.39 50.86 475.66 49.53 C 475.39 52.55 476.66 55.20 479.38 56.59 C 487.13 60.85 496.40 61.04 504.96 59.79 C 510.50 59.06 515.02 54.79 517.46 49.95 C 518.16 50.58 518.88 51.21 519.60 51.83 C 516.58 55.88 512.43 58.79 508.31 61.60 C 505.23 61.00 502.12 61.35 499.09 62.02 C 499.13 63.85 499.18 65.68 499.20 67.50 C 497.01 67.97 494.77 68.03 492.56 67.92 C 492.88 65.97 493.22 64.02 493.57 62.07 C 490.10 61.14 486.60 60.02 482.97 60.22 C 481.11 61.32 481.03 63.84 480.23 65.65 C 482.41 66.46 484.57 67.34 486.82 67.96 C 491.20 69.13 495.80 68.53 500.28 68.79 C 498.73 69.33 497.20 69.93 495.68 70.52 C 500.46 71.54 505.18 72.82 509.86 74.22 C 509.83 76.28 509.96 78.34 510.14 80.40 C 512.44 78.81 511.74 75.86 511.90 73.47 C 518.89 66.51 525.91 59.51 533.63 53.34 C 533.85 57.32 533.89 61.32 533.55 65.30 C 529.69 66.55 528.36 71.41 524.25 72.28 C 529.93 74.83 536.12 75.88 541.98 77.93 L 541.54 79.43 C 539.07 78.69 536.63 77.73 534.06 77.46 C 531.69 78.09 529.69 79.61 527.61 80.83 C 523.42 80.30 518.89 78.78 514.88 80.76 C 506.38 85.41 498.05 90.35 489.58 95.02 C 491.63 97.23 493.72 99.40 495.88 101.52 C 493.91 103.16 491.89 104.75 489.84 106.29 C 490.70 107.33 491.57 108.37 492.43 109.43 L 490.97 109.08 C 489.54 108.18 488.69 106.73 488.02 105.24 C 486.07 104.37 484.10 103.55 482.14 102.73 C 480.89 102.15 479.68 101.51 478.47 100.88 C 478.80 104.41 478.90 108.06 477.88 111.50 C 477.38 111.80 476.38 112.40 475.89 112.70 C 475.48 108.13 475.56 103.53 475.82 98.96 C 475.90 97.54 477.63 97.29 478.57 96.56 C 486.20 92.68 493.58 88.29 501.39 84.76 C 502.26 84.28 503.13 83.79 504.00 83.30 C 499.20 81.84 494.60 79.72 489.68 78.64 C 490.29 78.10 491.50 77.03 492.11 76.50 C 490.07 74.46 487.14 74.15 484.43 73.76 C 485.27 74.93 486.14 76.09 487.01 77.24 C 486.25 77.17 484.72 77.02 483.96 76.94 C 483.27 76.75 481.89 76.35 481.20 76.16 C 481.62 74.81 482.06 73.48 482.52 72.15 C 480.14 71.00 477.68 69.80 474.99 69.73 C 473.36 70.40 472.29 71.91 471.00 73.05 C 470.74 72.59 470.21 71.69 469.95 71.23 C 469.00 71.44 468.07 71.64 467.13 71.85 C 466.31 67.03 463.28 63.21 459.88 59.88 C 465.97 61.13 471.21 64.73 477.24 66.16 C 472.98 64.05 471.01 59.62 470.92 55.03 C 471.80 53.72 473.45 53.76 474.83 53.51 M 481.55 101.13 C 483.73 100.62 488.03 102.33 488.23 99.01 C 485.97 99.15 481.75 97.71 481.55 101.13 Z" />
<path fill="#464645" opacity="0.94" d=" M 527.19 51.26 C 528.50 51.60 529.80 51.95 531.11 52.31 L 530.83 52.68 C 529.31 54.86 527.43 56.76 525.09 58.06 C 525.19 55.64 525.97 53.34 527.19 51.26 Z" />
<path fill="#272526" opacity="1.00" d=" M 519.60 51.83 C 521.18 52.49 523.58 53.52 522.84 55.70 C 519.19 60.15 514.27 63.31 509.73 66.76 C 506.90 66.95 504.16 67.73 501.46 68.53 C 501.17 68.60 500.58 68.72 500.28 68.79 C 495.80 68.53 491.20 69.13 486.82 67.96 C 488.73 67.93 490.64 67.87 492.56 67.92 C 494.77 68.03 497.01 67.97 499.20 67.50 C 502.38 66.89 505.55 66.25 508.72 65.57 C 508.58 64.24 508.43 62.92 508.31 61.60 C 512.43 58.79 516.58 55.88 519.60 51.83 Z" />
<path fill="#ffff26" opacity="1.00" d=" M 640.70 53.93 C 640.56 55.42 640.41 56.90 640.29 58.38 C 639.45 59.93 638.53 61.43 637.64 62.94 C 638.88 64.50 639.69 66.30 639.51 68.35 C 638.25 67.33 636.81 66.39 636.17 64.83 C 637.22 63.48 638.41 61.44 637.10 59.86 C 637.89 59.34 638.70 58.83 639.51 58.31 C 639.90 56.85 640.29 55.39 640.70 53.93 Z" />
<path fill="#acacaa" opacity="1.00" d=" M 461.71 57.56 C 463.03 56.58 464.30 55.44 465.86 54.83 C 467.77 55.63 468.94 57.69 468.96 59.73 C 466.49 59.22 463.92 58.86 461.71 57.56 Z" />
<path fill="#030031" opacity="1.00" d=" M 645.12 57.14 C 649.65 55.96 654.35 55.94 659.00 55.99 C 661.50 56.13 664.23 56.10 666.39 57.58 C 666.94 59.30 666.83 61.14 666.97 62.92 C 666.22 63.03 664.71 63.26 663.96 63.37 C 661.55 63.47 659.20 62.90 656.92 62.23 L 656.19 62.05 C 656.07 62.75 655.85 64.15 655.74 64.85 C 655.76 65.48 655.81 66.73 655.83 67.36 C 656.27 68.77 656.89 68.72 657.70 67.22 C 659.06 67.22 660.43 67.23 661.81 67.24 C 663.75 67.41 665.79 67.51 667.59 68.33 C 667.78 70.39 667.61 72.47 667.52 74.53 C 659.71 75.14 651.86 74.59 644.03 74.70 C 643.77 72.21 643.83 69.71 644.18 67.24 L 644.71 67.19 C 648.04 66.77 651.45 66.56 654.68 67.67 L 654.96 67.73 C 655.11 66.07 655.36 64.36 654.90 62.72 C 653.93 60.89 653.30 63.81 653.63 64.56 C 652.60 64.59 651.65 64.87 650.78 65.41 C 650.37 65.15 649.57 64.61 649.16 64.35 C 648.76 64.38 647.97 64.45 647.57 64.49 C 647.09 62.25 643.92 64.02 645.13 65.74 L 644.24 65.80 C 644.20 62.89 644.36 59.97 645.12 57.14 M 646.52 59.12 C 646.70 60.46 647.41 60.68 648.63 59.78 C 648.43 58.43 647.73 58.21 646.52 59.12 M 651.43 69.13 C 650.59 71.14 654.33 71.64 654.71 69.76 C 654.43 68.41 652.29 68.31 651.43 69.13 Z" />
<path fill="#0e1010" opacity="1.00" d=" M 675.80 57.89 C 679.03 56.31 683.80 56.61 687.35 57.79 C 685.29 57.96 683.24 58.34 681.46 59.43 C 680.27 58.89 679.09 58.33 677.93 57.78 C 678.95 61.18 679.85 64.63 680.25 68.18 C 680.96 68.08 682.39 67.88 683.11 67.78 L 684.05 67.69 C 684.23 68.25 684.60 69.38 684.78 69.95 C 685.39 70.86 686.03 71.75 686.70 72.64 C 686.73 72.88 686.80 73.37 686.83 73.62 C 684.61 73.73 682.38 73.64 680.16 73.62 C 678.52 68.44 676.14 63.37 675.80 57.89 Z" />
<path fill="#700e1a" opacity="1.00" d=" M 617.83 62.10 C 618.69 60.68 619.10 58.55 620.91 58.03 C 625.34 57.32 629.86 57.56 634.33 57.86 C 634.26 59.83 634.13 61.80 633.96 63.76 L 633.47 63.50 C 632.57 63.02 631.68 62.55 630.76 62.15 C 630.80 61.17 630.88 59.20 630.91 58.22 C 629.73 59.52 627.11 64.52 627.31 58.79 C 624.04 58.60 620.70 59.59 619.23 62.76 C 618.88 62.60 618.18 62.27 617.83 62.10 Z" />
<path fill="#392f2c" opacity="1.00" d=" M 677.93 57.78 C 679.09 58.33 680.27 58.89 681.46 59.43 C 683.24 58.34 685.29 57.96 687.35 57.79 C 687.81 57.75 688.72 57.66 689.17 57.62 C 689.75 61.20 690.73 64.79 693.58 67.27 C 692.48 69.00 691.41 70.74 690.36 72.49 C 689.13 72.53 687.91 72.57 686.70 72.64 C 686.03 71.75 685.39 70.86 684.78 69.95 C 685.00 69.51 685.43 68.64 685.65 68.21 C 686.65 69.00 687.64 69.85 688.71 70.58 C 690.75 69.72 689.79 66.84 688.34 65.82 C 686.27 64.12 684.50 62.04 684.01 59.33 C 683.80 59.40 683.39 59.53 683.18 59.60 C 684.58 61.70 685.93 63.87 686.69 66.31 C 685.04 66.01 683.41 65.68 681.78 65.33 C 682.20 66.15 682.64 66.97 683.11 67.78 C 682.39 67.88 680.96 68.08 680.25 68.18 C 679.85 64.63 678.95 61.18 677.93 57.78 M 687.22 59.13 C 685.91 59.32 685.78 61.66 687.19 61.78 C 688.49 61.65 688.63 59.18 687.22 59.13 Z" />
<path fill="#030102" opacity="1.00" d=" M 689.17 57.62 C 690.16 58.27 691.45 58.72 691.85 59.98 C 693.78 64.11 695.31 68.47 696.00 72.99 C 694.01 73.02 692.02 73.02 690.05 73.00 L 690.36 72.49 C 691.41 70.74 692.48 69.00 693.58 67.27 C 690.73 64.79 689.75 61.20 689.17 57.62 Z" />
<path fill="#b76b43" opacity="1.00" d=" M 627.31 58.79 C 627.11 64.52 629.73 59.52 630.91 58.22 C 630.88 59.20 630.80 61.17 630.76 62.15 L 630.13 62.21 C 630.18 63.33 630.28 64.45 630.29 65.57 C 628.01 65.26 625.67 65.14 623.55 66.18 C 622.96 65.87 622.39 65.55 621.82 65.24 C 620.89 65.38 619.96 65.52 619.04 65.67 C 618.72 64.69 618.39 63.71 618.06 62.74 L 617.83 62.10 C 618.18 62.27 618.88 62.60 619.23 62.76 C 620.70 59.59 624.04 58.60 627.31 58.79 Z" />
<path fill="#573015" opacity="1.00" d=" M 637.64 62.94 C 638.53 61.43 639.45 59.93 640.29 58.38 L 641.19 60.35 C 640.87 66.64 640.54 72.94 639.86 79.20 C 639.14 80.80 638.29 82.33 637.48 83.87 L 638.76 83.65 C 638.20 84.45 637.65 85.25 637.11 86.06 C 636.79 86.53 636.15 87.47 635.83 87.94 C 635.50 88.47 634.83 89.54 634.50 90.07 C 636.46 90.31 638.43 90.58 640.42 90.68 L 639.38 90.70 C 637.74 90.74 636.11 90.78 634.49 90.81 C 634.52 93.27 634.58 95.74 634.67 98.20 C 635.42 98.27 636.93 98.41 637.68 98.48 C 637.69 101.66 637.92 104.86 637.59 108.04 C 637.01 110.13 635.58 111.86 634.68 113.82 C 634.17 114.77 633.64 115.72 633.11 116.66 C 630.72 113.95 631.66 110.19 631.90 106.95 C 632.65 101.25 632.31 95.45 633.52 89.80 C 633.67 89.06 633.84 88.32 634.04 87.59 C 636.24 83.22 638.40 78.71 639.16 73.84 C 639.24 73.26 639.40 72.12 639.48 71.54 C 637.15 72.83 635.19 74.71 634.43 77.34 C 634.33 77.74 634.14 78.55 634.04 78.95 C 633.19 79.12 632.36 79.27 631.53 79.41 L 630.54 79.38 L 631.00 77.90 C 632.57 72.60 633.62 67.14 635.76 62.02 C 635.86 62.73 636.07 64.13 636.17 64.83 C 636.81 66.39 638.25 67.33 639.51 68.35 C 639.69 66.30 638.88 64.50 637.64 62.94 Z" />
<path fill="#1c2960" opacity="1.00" d=" M 646.52 59.12 C 647.73 58.21 648.43 58.43 648.63 59.78 C 647.41 60.68 646.70 60.46 646.52 59.12 Z" />
<path fill="#bfadb2" opacity="1.00" d=" M 683.18 59.60 C 683.39 59.53 683.80 59.40 684.01 59.33 C 684.50 62.04 686.27 64.12 688.34 65.82 C 689.79 66.84 690.75 69.72 688.71 70.58 C 687.64 69.85 686.65 69.00 685.65 68.21 C 685.43 68.64 685.00 69.51 684.78 69.95 C 684.60 69.38 684.23 68.25 684.05 67.69 L 683.11 67.78 C 682.64 66.97 682.20 66.15 681.78 65.33 C 683.41 65.68 685.04 66.01 686.69 66.31 C 685.93 63.87 684.58 61.70 683.18 59.60 Z" />
<path fill="#76545d" opacity="1.00" d=" M 687.22 59.13 C 688.63 59.18 688.49 61.65 687.19 61.78 C 685.78 61.66 685.91 59.32 687.22 59.13 Z" />
<path fill="#201f1f" opacity="1.00" d=" M 443.46 63.55 C 446.44 62.42 449.17 60.67 452.19 59.64 C 454.75 59.53 457.33 59.54 459.88 59.88 C 463.28 63.21 466.31 67.03 467.13 71.85 C 468.07 71.64 469.00 71.44 469.95 71.23 C 470.21 71.69 470.74 72.59 471.00 73.05 C 472.29 71.91 473.36 70.40 474.99 69.73 C 477.68 69.80 480.14 71.00 482.52 72.15 C 482.06 73.48 481.62 74.81 481.20 76.16 C 476.21 76.65 471.44 78.36 467.25 81.11 C 462.81 83.85 457.56 84.48 452.46 84.59 C 451.59 82.89 450.97 81.07 450.33 79.28 C 447.46 80.26 444.63 81.58 441.54 81.65 C 441.58 81.97 441.64 82.60 441.67 82.91 C 438.53 83.83 434.75 84.19 432.07 81.94 C 427.54 79.09 426.89 72.58 428.96 68.06 C 430.91 64.39 435.33 64.26 438.93 63.78 C 440.27 63.70 441.62 63.63 442.97 63.57 C 442.80 64.49 442.63 65.40 442.46 66.32 C 442.93 66.72 443.85 67.53 444.32 67.93 C 443.94 68.14 443.19 68.56 442.82 68.77 C 442.32 68.91 441.33 69.18 440.84 69.32 C 440.50 68.86 439.84 67.94 439.51 67.48 C 439.51 67.49 439.53 67.51 439.54 67.52 L 439.34 67.61 C 437.00 69.15 434.69 70.73 432.43 72.37 C 432.63 71.45 433.04 69.60 433.24 68.67 C 432.81 68.94 431.94 69.49 431.51 69.76 C 431.23 69.36 430.66 68.54 430.37 68.13 C 429.75 70.07 429.07 72.01 428.83 74.04 C 428.58 76.21 430.41 77.73 431.57 79.32 L 431.94 79.81 C 432.61 79.30 433.30 78.79 433.99 78.28 C 439.40 81.33 444.77 76.97 450.18 76.20 C 453.76 75.36 457.50 75.15 461.02 74.03 C 464.31 72.18 464.13 67.95 461.96 65.31 C 461.64 65.50 460.98 65.87 460.66 66.06 C 459.66 65.04 458.67 64.02 457.64 63.06 C 457.31 62.79 456.66 62.27 456.34 62.01 C 455.03 60.26 452.17 61.70 453.16 63.79 C 451.26 63.30 449.38 63.72 447.89 64.98 C 446.41 64.49 444.94 63.98 443.46 63.55 M 435.09 66.25 C 433.62 69.31 438.35 66.38 435.09 66.25 M 464.93 73.41 C 463.92 74.76 462.84 76.07 461.72 77.33 C 458.96 77.69 456.24 78.30 453.49 78.68 C 453.43 80.03 453.37 81.37 453.32 82.72 C 456.52 83.08 459.82 82.95 462.86 81.75 C 466.79 80.49 471.10 78.18 472.07 73.79 C 469.69 73.55 467.31 73.44 464.93 73.41 Z" />
<path fill="#777776" opacity="1.00" d=" M 480.23 65.65 C 481.03 63.84 481.11 61.32 482.97 60.22 C 486.60 60.02 490.10 61.14 493.57 62.07 C 493.22 64.02 492.88 65.97 492.56 67.92 C 490.64 67.87 488.73 67.93 486.82 67.96 C 484.57 67.34 482.41 66.46 480.23 65.65 M 484.19 62.33 C 483.00 63.06 483.94 65.79 485.20 64.24 C 486.24 63.49 485.50 61.02 484.19 62.33 Z" />
<path fill="#e5dade" opacity="1.00" d=" M 636.53 60.23 L 637.10 59.86 C 638.41 61.44 637.22 63.48 636.17 64.83 C 636.07 64.13 635.86 62.73 635.76 62.02 C 635.95 61.57 636.34 60.68 636.53 60.23 Z" />
<path fill="#546b95" opacity="1.00" d=" M 453.16 63.79 C 452.17 61.70 455.03 60.26 456.34 62.01 C 456.40 63.74 454.51 64.29 453.16 63.79 Z" />
<path fill="#5e5f5d" opacity="1.00" d=" M 499.09 62.02 C 502.12 61.35 505.23 61.00 508.31 61.60 C 508.43 62.92 508.58 64.24 508.72 65.57 C 505.55 66.25 502.38 66.89 499.20 67.50 C 499.18 65.68 499.13 63.85 499.09 62.02 Z" />
<path fill="#3a3a3a" opacity="1.00" d=" M 456.34 62.01 C 456.66 62.27 457.31 62.79 457.64 63.06 C 457.46 63.54 457.11 64.50 456.93 64.98 C 456.36 65.66 455.79 66.33 455.20 67.00 C 454.46 66.40 453.72 65.81 452.97 65.23 C 451.78 63.69 449.83 65.23 450.05 66.81 C 449.22 68.82 447.69 70.39 445.95 71.64 C 446.02 73.01 446.11 74.37 446.20 75.74 C 447.52 75.91 448.85 76.06 450.18 76.20 C 444.77 76.97 439.40 81.33 433.99 78.28 C 433.30 78.79 432.61 79.30 431.94 79.81 L 431.57 79.32 C 431.54 77.14 431.64 74.93 432.26 72.82 L 432.73 72.77 C 433.61 73.73 434.51 74.67 435.43 75.59 L 435.39 75.57 C 435.45 75.57 435.58 75.57 435.64 75.56 C 436.49 75.45 438.20 75.23 439.06 75.12 C 437.68 77.25 441.22 77.06 439.91 75.00 C 440.22 74.78 440.85 74.34 441.16 74.12 C 442.74 74.44 443.11 73.93 442.28 72.58 C 442.29 72.31 442.31 71.76 442.32 71.49 C 442.44 70.81 442.69 69.45 442.82 68.77 C 443.19 68.56 443.94 68.14 444.32 67.93 L 444.60 68.15 C 445.33 68.11 446.06 68.06 446.80 67.99 C 446.64 67.54 446.31 66.65 446.15 66.20 C 446.58 65.90 447.45 65.29 447.89 64.98 C 449.38 63.72 451.26 63.30 453.16 63.79 C 454.51 64.29 456.40 63.74 456.34 62.01 Z" />
<path fill="#3d3c3c" opacity="1.00" d=" M 484.19 62.33 C 485.50 61.02 486.24 63.49 485.20 64.24 C 483.94 65.79 483.00 63.06 484.19 62.33 Z" />
<path fill="#d01a1e" opacity="1.00" d=" M 630.13 62.21 L 630.76 62.15 C 631.68 62.55 632.57 63.02 633.47 63.50 C 632.73 67.04 632.01 70.59 631.13 74.09 C 625.57 73.87 620.02 73.72 614.47 73.36 C 615.31 69.71 616.38 66.11 618.06 62.74 C 618.39 63.71 618.72 64.69 619.04 65.67 C 618.65 67.24 618.39 68.84 618.24 70.45 C 621.58 70.62 624.91 70.69 628.26 70.68 C 628.93 68.98 629.64 67.28 630.29 65.57 C 630.28 64.45 630.18 63.33 630.13 62.21 Z" />
<path fill="#e5241c" opacity="1.00" d=" M 653.63 64.56 C 653.30 63.81 653.93 60.89 654.90 62.72 C 655.36 64.36 655.11 66.07 654.96 67.73 L 654.68 67.67 C 654.42 66.89 653.89 65.34 653.63 64.56 Z" />
<path fill="#d61223" opacity="1.00" d=" M 656.19 62.05 L 656.92 62.23 C 657.37 63.42 656.98 64.29 655.74 64.85 C 655.85 64.15 656.07 62.75 656.19 62.05 Z" />
<path fill="#9c3834" opacity="1.00" d=" M 656.92 62.23 C 659.20 62.90 661.55 63.47 663.96 63.37 L 664.85 63.38 C 665.41 64.62 665.97 65.86 666.54 67.11 C 664.96 67.18 663.38 67.22 661.81 67.24 C 660.43 67.23 659.06 67.22 657.70 67.22 C 657.23 67.25 656.30 67.33 655.83 67.36 C 655.81 66.73 655.76 65.48 655.74 64.85 C 656.98 64.29 657.37 63.42 656.92 62.23 Z" />
<path fill="#777776" opacity="1.00" d=" M 438.93 63.78 C 440.38 63.26 441.95 63.03 443.46 63.55 C 444.94 63.98 446.41 64.49 447.89 64.98 C 447.45 65.29 446.58 65.90 446.15 66.20 C 446.31 66.65 446.64 67.54 446.80 67.99 C 446.06 68.06 445.33 68.11 444.60 68.15 L 444.32 67.93 C 443.85 67.53 442.93 66.72 442.46 66.32 C 442.63 65.40 442.80 64.49 442.97 63.57 C 441.62 63.63 440.27 63.70 438.93 63.78 Z" />
<path fill="#a79751" opacity="1.00" d=" M 456.93 64.98 C 457.11 64.50 457.46 63.54 457.64 63.06 C 458.67 64.02 459.66 65.04 460.66 66.06 C 459.49 66.70 458.25 67.10 456.94 67.26 C 456.94 66.69 456.94 65.55 456.93 64.98 Z" />
<path fill="#cb4835" opacity="1.00" d=" M 645.13 65.74 C 643.92 64.02 647.09 62.25 647.57 64.49 C 646.96 64.80 645.74 65.43 645.13 65.74 Z" />
<path fill="#68a471" opacity="1.00" d=" M 450.05 66.81 C 449.83 65.23 451.78 63.69 452.97 65.23 C 453.76 67.04 451.20 67.76 450.05 66.81 Z" />
<path fill="#484747" opacity="1.00" d=" M 452.97 65.23 C 453.72 65.81 454.46 66.40 455.20 67.00 C 455.79 66.33 456.36 65.66 456.93 64.98 C 456.94 65.55 456.94 66.69 456.94 67.26 C 458.25 67.10 459.49 66.70 460.66 66.06 C 460.98 65.87 461.64 65.50 461.96 65.31 C 464.13 67.95 464.31 72.18 461.02 74.03 C 457.50 75.15 453.76 75.36 450.18 76.20 C 448.85 76.06 447.52 75.91 446.20 75.74 C 446.11 74.37 446.02 73.01 445.95 71.64 C 447.69 70.39 449.22 68.82 450.05 66.81 C 451.20 67.76 453.76 67.04 452.97 65.23 M 454.25 68.13 C 453.06 69.62 455.67 71.14 456.69 69.76 C 457.85 68.29 455.23 66.73 454.25 68.13 Z" />
<path fill="#c26d3f" opacity="1.00" d=" M 619.04 65.67 C 619.96 65.52 620.89 65.38 621.82 65.24 C 622.39 65.55 622.96 65.87 623.55 66.18 C 625.67 65.14 628.01 65.26 630.29 65.57 C 629.64 67.28 628.93 68.98 628.26 70.68 C 624.91 70.69 621.58 70.62 618.24 70.45 C 618.39 68.84 618.65 67.24 619.04 65.67 Z" />
<path fill="#c26d3f" opacity="1.00" d=" M 647.57 64.49 C 647.97 64.45 648.76 64.38 649.16 64.35 C 649.57 64.61 650.37 65.15 650.78 65.41 C 651.65 64.87 652.60 64.59 653.63 64.56 C 653.89 65.34 654.42 66.89 654.68 67.67 C 651.45 66.56 648.04 66.77 644.71 67.19 L 645.13 65.74 C 645.74 65.43 646.96 64.80 647.57 64.49 Z" />
<path fill="#1f0546" opacity="1.00" d=" M 671.80 64.83 C 673.16 65.23 674.53 65.63 675.90 66.01 C 676.35 67.10 676.82 68.18 677.29 69.26 C 676.46 69.90 675.62 70.52 674.79 71.13 C 673.05 71.68 673.81 73.84 675.45 73.74 C 675.50 74.47 675.53 75.21 675.54 75.95 C 675.14 76.45 674.35 77.46 673.96 77.96 C 673.01 77.10 672.36 76.07 672.01 74.85 C 671.72 72.85 671.80 70.82 671.82 68.81 C 672.37 69.08 673.48 69.62 674.03 69.89 C 674.58 68.19 673.26 66.80 671.96 65.95 L 671.80 64.83 Z" />
<path fill="#6f6f6e" opacity="1.00" d=" M 435.09 66.25 C 438.35 66.38 433.62 69.31 435.09 66.25 Z" />
<path fill="#714d64" opacity="1.00" d=" M 671.96 65.95 C 673.26 66.80 674.58 68.19 674.03 69.89 C 673.48 69.62 672.37 69.08 671.82 68.81 C 671.85 68.09 671.92 66.66 671.96 65.95 Z" />
<path fill="#7d7c7b" opacity="1.00" d=" M 439.54 67.52 C 439.53 67.51 439.51 67.49 439.51 67.48 L 439.34 67.61 L 439.54 67.52 Z" />
<path fill="#aaaaa9" opacity="1.00" d=" M 501.46 68.53 C 504.16 67.73 506.90 66.95 509.73 66.76 C 510.64 66.86 512.46 67.06 513.36 67.16 C 512.15 68.43 510.99 69.80 509.51 70.77 C 506.68 70.72 504.11 69.34 501.46 68.53 Z" />
<path fill="#b5061b" opacity="1.00" d=" M 655.83 67.36 C 656.30 67.33 657.23 67.25 657.70 67.22 C 656.89 68.72 656.27 68.77 655.83 67.36 Z" />
<path fill="#70706e" opacity="1.00" d=" M 428.83 74.04 C 429.07 72.01 429.75 70.07 430.37 68.13 C 430.66 68.54 431.23 69.36 431.51 69.76 C 431.94 69.49 432.81 68.94 433.24 68.67 C 433.04 69.60 432.63 71.45 432.43 72.37 C 432.39 72.49 432.31 72.71 432.26 72.82 C 431.64 74.93 431.54 77.14 431.57 79.32 C 430.41 77.73 428.58 76.21 428.83 74.04 Z" />
<path fill="#31302f" opacity="1.00" d=" M 432.43 72.37 C 434.69 70.73 437.00 69.15 439.34 67.61 L 439.51 67.48 C 439.84 67.94 440.50 68.86 440.84 69.32 C 441.21 69.86 441.95 70.95 442.32 71.49 C 442.31 71.76 442.29 72.31 442.28 72.58 C 442.00 72.97 441.44 73.74 441.16 74.12 C 440.85 74.34 440.22 74.78 439.91 75.00 L 439.06 75.12 C 438.20 75.23 436.49 75.45 435.64 75.56 L 435.43 75.59 C 434.51 74.67 433.61 73.73 432.73 72.77 L 432.43 72.37 Z" />
<path fill="#b97059" opacity="1.00" d=" M 454.25 68.13 C 455.23 66.73 457.85 68.29 456.69 69.76 C 455.67 71.14 453.06 69.62 454.25 68.13 Z" />
<path fill="#515050" opacity="1.00" d=" M 440.84 69.32 C 441.33 69.18 442.32 68.91 442.82 68.77 C 442.69 69.45 442.44 70.81 442.32 71.49 C 441.95 70.95 441.21 69.86 440.84 69.32 Z" />
<path fill="#2f4480" opacity="1.00" d=" M 651.43 69.13 C 652.29 68.31 654.43 68.41 654.71 69.76 C 654.33 71.64 650.59 71.14 651.43 69.13 Z" />
<path fill="#3a0015" opacity="1.00" d=" M 677.29 69.26 C 678.19 71.73 678.75 74.30 679.25 76.87 C 679.37 77.46 679.62 78.64 679.75 79.23 C 679.34 79.21 678.51 79.16 678.10 79.14 L 677.26 79.26 C 676.82 79.66 675.95 80.46 675.51 80.86 C 675.47 80.22 675.37 78.95 675.33 78.32 C 675.40 77.53 675.49 76.74 675.54 75.95 C 675.53 75.21 675.50 74.47 675.45 73.74 C 675.28 73.09 674.95 71.78 674.79 71.13 C 675.62 70.52 676.46 69.90 677.29 69.26 Z" />
<path fill="#825268" opacity="1.00" d=" M 675.45 73.74 C 673.81 73.84 673.05 71.68 674.79 71.13 C 674.95 71.78 675.28 73.09 675.45 73.74 Z" />
<path fill="#abacab" opacity="1.00" d=" M 432.26 72.82 C 432.31 72.71 432.39 72.49 432.43 72.37 L 432.73 72.77 L 432.26 72.82 Z" />
<path fill="#b4b43c" opacity="1.00" d=" M 634.43 77.34 C 635.19 74.71 637.15 72.83 639.48 71.54 C 639.40 72.12 639.24 73.26 639.16 73.84 C 638.00 75.47 637.02 78.40 634.43 77.34 Z" />
<path fill="#6b6a69" opacity="1.00" d=" M 441.16 74.12 C 441.44 73.74 442.00 72.97 442.28 72.58 C 443.11 73.93 442.74 74.44 441.16 74.12 Z" />
<path fill="#171616" opacity="0.96" d=" M 484.43 73.76 C 487.14 74.15 490.07 74.46 492.11 76.50 C 491.50 77.03 490.29 78.10 489.68 78.64 C 487.74 78.15 485.85 77.56 483.96 76.94 C 484.72 77.02 486.25 77.17 487.01 77.24 C 486.14 76.09 485.27 74.93 484.43 73.76 Z" />
<path fill="#201f20" opacity="1.00" d=" M 509.86 74.22 C 510.37 74.04 511.39 73.66 511.90 73.47 C 511.74 75.86 512.44 78.81 510.14 80.40 C 509.96 78.34 509.83 76.28 509.86 74.22 Z" />
<path fill="#a1a227" opacity="1.00" d=" M 634.43 77.34 C 637.02 78.40 638.00 75.47 639.16 73.84 C 638.40 78.71 636.24 83.22 634.04 87.59 C 634.01 84.71 633.86 81.83 634.04 78.95 C 634.14 78.55 634.33 77.74 634.43 77.34 Z" />
<path fill="#5a3250" opacity="1.00" d=" M 701.01 74.14 C 701.38 75.14 701.75 76.14 702.12 77.14 C 706.99 79.27 711.83 81.46 716.68 83.63 C 716.68 85.11 716.67 86.59 716.67 88.07 C 715.95 88.62 715.35 89.27 714.88 90.04 C 715.29 88.17 715.55 86.27 715.61 84.36 L 714.12 84.46 C 713.27 84.52 711.56 84.64 710.71 84.71 C 711.94 84.35 713.16 83.97 714.39 83.56 C 710.98 82.17 707.42 81.11 703.79 80.55 L 702.84 80.88 C 702.45 81.02 701.67 81.29 701.28 81.43 C 699.59 79.59 697.57 78.02 694.91 78.60 C 696.40 78.31 697.86 77.95 699.36 77.63 C 699.70 77.59 700.37 77.52 700.70 77.48 C 700.81 76.37 700.92 75.26 701.01 74.14 Z" />
<path fill="#999897" opacity="1.00" d=" M 435.43 75.59 L 435.64 75.56 C 435.58 75.57 435.45 75.57 435.39 75.57 L 435.43 75.59 Z" />
<path fill="#91918f" opacity="1.00" d=" M 439.06 75.12 L 439.91 75.00 C 441.22 77.06 437.68 77.25 439.06 75.12 Z" />
<path fill="#bfadb2" opacity="1.00" d=" M 672.01 74.85 C 672.36 76.07 673.01 77.10 673.96 77.96 C 674.35 77.46 675.14 76.45 675.54 75.95 C 675.49 76.74 675.40 77.53 675.33 78.32 C 675.04 78.71 674.46 79.51 674.18 79.91 C 673.82 79.52 673.12 78.76 672.76 78.38 C 672.49 77.20 672.24 76.02 672.01 74.85 Z" />
<path fill="#050404" opacity="0.46" d=" M 467.25 81.11 C 471.44 78.36 476.21 76.65 481.20 76.16 C 481.89 76.35 483.27 76.75 483.96 76.94 C 485.85 77.56 487.74 78.15 489.68 78.64 C 494.60 79.72 499.20 81.84 504.00 83.30 C 503.13 83.79 502.26 84.28 501.39 84.76 C 498.29 82.48 494.69 81.02 490.90 80.43 C 486.76 79.74 482.78 76.85 478.51 78.38 C 472.00 79.46 467.56 85.43 460.93 86.09 C 458.07 86.52 454.61 86.99 452.46 84.59 C 457.56 84.48 462.81 83.85 467.25 81.11 Z" />
<path fill="#510a15" opacity="0.78" d=" M 605.10 76.46 C 605.44 76.70 606.13 77.17 606.47 77.41 C 605.99 77.34 605.03 77.19 604.55 77.11 L 605.10 76.46 Z" />
<path fill="#1d1c1d" opacity="1.00" d=" M 527.61 80.83 C 529.69 79.61 531.69 78.09 534.06 77.46 C 536.63 77.73 539.07 78.69 541.54 79.43 C 550.41 82.30 559.40 84.92 568.04 88.46 C 566.07 89.65 564.18 91.04 561.99 91.76 C 552.23 89.57 543.49 84.04 533.62 82.18 C 531.61 81.73 529.62 81.25 527.61 80.83 Z" />
<path fill="#421619" opacity="1.00" d=" M 608.88 77.42 C 614.92 76.80 620.99 77.20 627.04 77.59 C 625.47 77.80 623.93 78.12 622.42 78.56 C 621.91 78.73 620.87 79.09 620.35 79.26 L 619.93 80.20 C 619.77 80.57 619.45 81.31 619.30 81.68 C 619.87 81.57 621.00 81.35 621.57 81.24 L 621.39 82.67 C 620.22 82.97 619.10 83.27 617.95 83.57 C 615.15 83.46 612.37 83.27 609.59 82.95 L 610.34 81.86 C 611.65 81.53 612.98 81.30 614.33 81.06 C 614.39 80.58 614.51 79.61 614.58 79.13 C 614.61 78.86 614.68 78.32 614.71 78.05 C 612.76 77.85 610.81 77.64 608.88 77.42 M 618.28 79.39 C 618.81 79.94 618.81 79.94 618.28 79.39 Z" />
<path fill="#403239" opacity="1.00" d=" M 679.25 76.87 C 682.90 76.92 686.56 76.95 690.22 76.91 C 690.23 77.63 690.25 79.07 690.25 79.79 C 689.70 80.66 689.14 81.53 688.59 82.40 C 688.39 81.61 687.99 80.01 687.79 79.21 L 686.79 79.07 C 685.52 78.94 684.26 78.83 683.01 78.73 C 682.49 79.10 681.45 79.85 680.93 80.22 C 680.64 79.97 680.04 79.48 679.75 79.23 C 679.62 78.64 679.37 77.46 679.25 76.87 Z" />
<path fill="#383b41" opacity="1.00" d=" M 690.22 76.91 C 693.28 76.84 696.33 77.18 699.36 77.63 C 697.86 77.95 696.40 78.31 694.91 78.60 C 693.32 78.87 691.75 79.21 690.25 79.79 C 690.25 79.07 690.23 77.63 690.22 76.91 Z" />
<path fill="#363334" opacity="1.00" d=" M 541.98 77.93 C 550.03 80.22 558.05 82.65 565.95 85.46 C 572.30 87.73 578.93 89.40 584.94 92.54 C 580.96 94.62 577.34 97.26 573.84 100.05 C 573.98 104.86 573.96 109.68 574.21 114.49 C 572.87 115.45 571.54 116.43 570.20 117.38 C 569.96 112.61 569.91 107.84 569.82 103.07 C 569.20 103.14 567.95 103.29 567.33 103.37 C 567.81 107.67 568.10 112.02 567.54 116.33 C 565.62 113.21 566.54 109.35 566.09 105.90 C 565.46 105.93 564.18 105.99 563.54 106.03 C 564.44 111.12 564.42 116.30 564.44 121.46 C 557.51 126.96 549.88 131.49 542.79 136.77 C 541.56 132.32 541.78 127.69 541.72 123.13 C 537.42 121.48 532.73 121.79 528.31 120.66 C 525.76 119.35 523.11 118.23 520.32 117.54 C 520.90 116.98 521.48 116.43 522.07 115.87 C 528.02 115.10 534.05 115.54 540.02 115.09 C 544.04 115.10 546.59 111.58 549.82 109.74 C 555.88 106.08 561.46 101.71 567.46 97.95 C 564.49 95.79 561.48 93.55 558.01 92.28 C 554.56 92.65 552.08 95.77 548.63 96.30 C 544.69 96.79 541.42 99.14 537.86 100.68 C 537.79 98.02 533.27 99.13 536.08 101.07 C 535.34 101.78 534.68 102.56 534.05 103.36 C 532.47 103.83 530.91 104.34 529.37 104.89 C 529.81 105.54 530.26 106.21 530.70 106.88 L 530.36 107.30 C 520.27 106.37 510.42 102.98 501.74 97.78 C 502.94 97.24 504.13 96.67 505.36 96.16 C 509.20 96.68 513.18 98.32 516.97 96.55 C 521.34 94.72 526.12 94.89 530.75 95.26 C 527.38 92.47 522.87 91.76 519.21 89.41 C 520.40 89.26 521.60 89.11 522.81 88.96 C 523.03 87.91 523.26 86.86 523.50 85.81 C 526.44 83.52 530.27 83.53 533.62 82.18 C 543.49 84.04 552.23 89.57 561.99 91.76 C 564.18 91.04 566.07 89.65 568.04 88.46 C 559.40 84.92 550.41 82.30 541.54 79.43 L 541.98 77.93 M 524.74 89.99 C 526.55 91.49 528.94 91.89 531.14 92.53 C 529.60 90.62 526.99 90.35 524.74 89.99 Z" />
<path fill="#4b4945" opacity="1.00" d=" M 622.42 78.56 C 623.93 78.12 625.47 77.80 627.04 77.59 C 628.35 77.67 629.67 77.78 631.00 77.90 L 630.54 79.38 C 627.82 79.19 625.13 78.75 622.42 78.56 Z" />
<path fill="#8a725b" opacity="1.00" d=" M 610.16 78.97 C 611.63 79.02 613.10 79.07 614.58 79.13 C 614.51 79.61 614.39 80.58 614.33 81.06 C 612.98 81.30 611.65 81.53 610.34 81.86 C 609.78 81.55 608.66 80.94 608.10 80.64 C 608.78 80.08 609.47 79.53 610.16 78.97 Z" />
<path fill="#938e4f" opacity="1.00" d=" M 618.28 79.39 C 618.81 79.94 618.81 79.94 618.28 79.39 Z" />
<path fill="#100f0b" opacity="1.00" d=" M 620.35 79.26 C 620.87 79.09 621.91 78.73 622.42 78.56 C 625.13 78.75 627.82 79.19 630.54 79.38 L 631.53 79.41 C 632.36 79.27 633.19 79.12 634.04 78.95 C 633.86 81.83 634.01 84.71 634.04 87.59 C 633.84 88.32 633.67 89.06 633.52 89.80 C 631.48 90.60 629.25 91.15 627.59 92.63 C 627.28 99.75 627.67 106.91 627.73 114.04 C 628.03 116.50 627.42 119.51 629.38 121.40 C 627.86 122.17 626.30 122.84 624.72 123.46 C 622.03 123.57 619.23 123.51 616.73 122.40 C 612.97 120.81 608.78 120.68 605.03 119.11 C 603.65 118.74 603.76 117.15 603.59 116.06 C 602.86 108.00 601.91 99.96 602.11 91.87 C 600.10 91.45 598.06 91.31 596.04 91.04 C 595.53 91.32 594.52 91.88 594.02 92.16 C 593.82 89.57 593.59 86.98 593.32 84.40 C 595.04 84.72 596.77 85.06 598.51 85.34 C 598.39 86.93 598.26 88.52 598.14 90.11 C 599.18 89.70 600.22 89.28 601.28 88.87 C 601.24 88.05 601.17 86.41 601.13 85.59 C 605.32 85.78 609.52 86.13 613.64 86.96 C 614.26 87.20 615.49 87.69 616.11 87.93 C 615.28 89.31 614.47 90.70 613.75 92.14 C 614.57 91.17 615.39 90.19 616.20 89.20 C 616.62 89.94 617.45 91.42 617.87 92.16 C 617.56 90.48 617.15 88.81 616.71 87.16 C 618.17 87.22 619.63 87.27 621.11 87.32 C 621.31 89.94 621.57 92.57 622.36 95.10 C 622.47 91.89 622.29 88.66 622.78 85.48 L 622.95 85.02 C 624.13 83.84 625.48 82.85 626.87 81.92 C 625.39 79.39 622.37 80.04 619.93 80.20 L 620.35 79.26 M 608.38 96.30 C 607.29 97.28 608.38 100.19 609.93 98.97 C 611.12 97.97 609.91 95.06 608.38 96.30 M 611.04 97.00 C 609.80 97.99 611.04 100.97 612.59 99.69 C 613.59 98.70 612.58 95.82 611.04 97.00 M 614.26 100.28 C 612.96 100.44 612.77 102.75 614.20 102.85 C 615.56 102.80 615.71 100.27 614.26 100.28 M 614.44 114.05 C 613.99 115.46 614.46 115.97 615.86 115.59 C 616.30 114.18 615.83 113.67 614.44 114.05 Z" />
<path fill="#512a27" opacity="1.00" d=" M 639.86 79.20 C 641.56 79.11 643.27 79.02 644.99 78.93 C 645.02 79.56 645.07 80.82 645.09 81.45 C 645.11 82.81 645.12 84.17 645.11 85.53 C 644.09 84.79 643.15 83.98 642.28 83.09 C 641.10 83.27 639.92 83.45 638.76 83.65 L 637.48 83.87 C 638.29 82.33 639.14 80.80 639.86 79.20 Z" />
<path fill="#232423" opacity="1.00" d=" M 644.99 78.93 C 649.91 78.56 654.85 78.73 659.77 78.98 C 659.79 79.79 659.83 81.42 659.84 82.24 C 655.75 81.99 651.66 81.80 647.56 81.77 C 646.73 81.69 645.90 81.58 645.09 81.45 C 645.07 80.82 645.02 79.56 644.99 78.93 Z" />
<path fill="#2f2927" opacity="1.00" d=" M 659.77 78.98 C 663.20 79.09 666.63 78.66 670.06 78.87 C 671.42 79.58 672.21 80.98 673.08 82.18 C 672.58 82.40 671.59 82.83 671.09 83.05 C 670.60 83.01 669.63 82.93 669.14 82.89 C 668.12 82.77 666.10 82.54 665.08 82.42 C 665.29 83.91 665.89 85.20 666.88 86.31 C 666.20 86.33 665.52 86.34 664.85 86.32 C 664.68 84.08 663.78 82.07 662.23 80.45 C 661.68 81.95 661.18 83.47 660.72 84.99 L 659.97 85.07 C 659.95 84.53 659.90 83.44 659.87 82.90 L 659.84 82.24 C 659.83 81.42 659.79 79.79 659.77 78.98 Z" />
<path fill="#23041e" opacity="1.00" d=" M 675.33 78.32 C 675.37 78.95 675.47 80.22 675.51 80.86 C 675.66 82.62 675.79 84.39 675.93 86.16 C 676.42 86.29 677.42 86.55 677.91 86.68 C 678.67 89.13 679.43 91.58 679.92 94.10 C 677.70 93.56 677.86 97.31 680.02 95.80 C 680.25 97.29 680.59 98.77 681.03 100.21 C 677.46 101.85 679.96 106.65 677.90 109.44 C 677.27 107.94 676.64 106.45 676.00 104.97 C 677.20 103.29 676.82 101.35 676.13 99.55 C 676.79 96.72 676.84 93.79 676.90 90.89 C 675.52 91.11 674.16 91.32 672.81 91.55 C 672.13 91.36 670.76 90.98 670.08 90.79 C 671.93 89.95 673.93 89.56 675.95 89.37 C 675.40 87.85 674.86 86.33 674.26 84.84 L 673.99 84.19 L 673.51 83.04 C 673.68 82.26 674.01 80.69 674.18 79.91 C 674.46 79.51 675.04 78.71 675.33 78.32 Z" />
<path fill="#963755" opacity="1.00" d=" M 677.26 79.26 L 678.10 79.14 C 678.02 81.65 677.90 84.16 677.91 86.68 C 677.42 86.55 676.42 86.29 675.93 86.16 C 675.79 84.39 675.66 82.62 675.51 80.86 C 675.95 80.46 676.82 79.66 677.26 79.26 Z" />
<path fill="#131311" opacity="1.00" d=" M 678.10 79.14 C 678.51 79.16 679.34 79.21 679.75 79.23 C 680.04 79.48 680.64 79.97 680.93 80.22 C 683.06 82.00 685.37 83.55 687.64 85.15 C 688.01 85.44 688.74 86.01 689.11 86.30 C 689.37 86.51 689.88 86.94 690.13 87.15 C 690.21 89.39 690.21 91.64 690.25 93.89 C 694.30 93.07 698.91 93.75 702.38 91.11 C 705.63 90.28 709.03 90.38 712.35 89.98 C 711.06 90.68 709.80 91.44 708.56 92.22 C 708.97 101.05 707.60 109.88 706.86 118.66 L 706.40 118.75 C 701.61 119.55 697.01 121.07 692.36 122.39 C 688.76 123.57 685.02 122.37 681.41 121.93 C 683.90 126.22 680.52 130.17 678.77 133.97 C 672.34 133.98 665.91 134.08 659.49 133.92 C 656.81 131.62 653.13 132.08 649.87 131.98 C 648.18 127.47 648.69 121.97 651.02 117.92 C 651.45 117.96 652.31 118.04 652.73 118.09 C 653.19 120.75 652.64 123.43 652.21 126.05 C 655.64 127.61 659.32 128.42 662.92 129.50 C 661.75 130.21 658.88 129.60 659.17 131.56 C 662.95 131.88 667.47 133.09 670.82 130.80 C 674.19 125.90 672.74 119.55 673.45 113.96 C 672.25 113.29 671.02 112.66 669.92 111.86 C 669.77 110.13 669.89 108.39 669.95 106.66 C 670.40 106.58 671.31 106.42 671.76 106.34 C 671.79 105.83 671.86 104.81 671.89 104.30 C 668.85 105.18 665.74 106.17 663.42 108.43 C 663.05 108.16 662.33 107.61 661.96 107.34 L 661.19 107.04 C 662.45 105.17 663.51 103.16 664.52 101.14 C 666.56 100.98 668.62 101.07 670.43 102.14 C 672.03 101.49 673.60 100.82 675.20 100.15 C 674.51 98.89 673.46 97.90 672.26 97.14 C 673.30 95.42 673.00 93.44 672.81 91.55 C 674.16 91.32 675.52 91.11 676.90 90.89 C 676.84 93.79 676.79 96.72 676.13 99.55 C 673.55 104.28 674.11 109.87 675.95 114.74 C 677.68 116.70 679.74 118.33 681.84 119.88 C 682.17 117.98 682.52 116.09 682.75 114.18 C 683.45 109.43 682.99 104.61 681.03 100.21 C 680.59 98.77 680.25 97.29 680.02 95.80 C 680.00 95.38 679.94 94.53 679.92 94.10 C 679.43 91.58 678.67 89.13 677.91 86.68 C 677.90 84.16 678.02 81.65 678.10 79.14 M 700.25 96.32 C 699.37 97.59 699.56 98.38 700.81 98.68 C 701.68 97.41 701.49 96.62 700.25 96.32 M 702.08 96.17 C 701.51 97.87 702.02 98.45 703.60 97.92 C 704.16 96.24 703.65 95.66 702.08 96.17 M 703.17 99.17 C 702.67 100.61 703.11 101.09 704.51 100.59 C 704.99 99.15 704.54 98.68 703.17 99.17 M 702.13 111.45 C 701.72 112.87 702.22 113.36 703.62 112.93 C 703.99 111.52 703.50 111.03 702.13 111.45 Z" />
<path fill="#563866" opacity="1.00" d=" M 680.93 80.22 C 681.45 79.85 682.49 79.10 683.01 78.73 C 684.26 78.83 685.52 78.94 686.79 79.07 C 687.37 81.04 688.02 83.07 687.64 85.15 C 685.37 83.55 683.06 82.00 680.93 80.22 Z" />
<path fill="#5b6ba9" opacity="1.00" d=" M 686.79 79.07 L 687.79 79.21 C 687.99 80.01 688.39 81.61 688.59 82.40 C 689.14 81.53 689.70 80.66 690.25 79.79 C 691.75 79.21 693.32 78.87 694.91 78.60 C 697.57 78.02 699.59 79.59 701.28 81.43 C 700.12 81.40 698.96 81.22 697.82 81.06 C 696.03 82.03 693.35 82.69 694.34 85.36 C 696.31 85.61 698.31 85.70 700.31 85.71 C 696.58 86.01 692.85 86.58 689.11 86.30 C 688.74 86.01 688.01 85.44 687.64 85.15 C 688.02 83.07 687.37 81.04 686.79 79.07 M 691.98 82.00 C 691.47 83.42 691.93 83.87 693.35 83.34 C 693.84 81.93 693.38 81.48 691.98 82.00 Z" />
<path fill="#4d4a4b" opacity="1.00" d=" M 514.88 80.76 C 518.89 78.78 523.42 80.30 527.61 80.83 C 529.62 81.25 531.61 81.73 533.62 82.18 C 530.27 83.53 526.44 83.52 523.50 85.81 C 523.26 86.86 523.03 87.91 522.81 88.96 C 521.60 89.11 520.40 89.26 519.21 89.41 C 522.87 91.76 527.38 92.47 530.75 95.26 C 526.12 94.89 521.34 94.72 516.97 96.55 C 513.18 98.32 509.20 96.68 505.36 96.16 C 502.82 95.77 500.28 95.38 497.72 95.14 C 505.24 89.82 513.84 86.28 521.34 80.98 C 519.18 80.83 517.03 80.72 514.88 80.76 Z" />
<path fill="#700e1a" opacity="1.00" d=" M 601.30 81.72 C 603.09 80.57 605.07 79.47 607.26 80.23 C 606.45 80.45 604.82 80.88 604.01 81.10 L 604.05 82.08 C 606.14 82.00 608.23 81.91 610.34 81.86 L 609.59 82.95 C 607.36 82.95 604.38 81.79 602.96 84.24 C 607.23 84.61 611.53 85.58 615.83 85.26 C 616.36 84.84 617.42 83.99 617.95 83.57 C 619.10 83.27 620.22 82.97 621.39 82.67 L 621.55 83.78 C 620.55 84.17 618.18 84.28 618.36 85.69 C 619.72 86.45 621.37 85.88 622.78 85.48 C 622.29 88.66 622.47 91.89 622.36 95.10 C 621.57 92.57 621.31 89.94 621.11 87.32 C 619.63 87.27 618.17 87.22 616.71 87.16 C 615.94 87.11 614.41 87.01 613.64 86.96 C 609.52 86.13 605.32 85.78 601.13 85.59 C 600.24 85.52 599.38 85.45 598.51 85.34 C 596.77 85.06 595.04 84.72 593.32 84.40 C 594.20 83.85 595.10 83.30 595.99 82.76 C 596.54 82.90 597.64 83.19 598.19 83.34 C 599.65 84.50 603.74 83.98 601.30 81.72 Z" />
<path fill="#cca76f" opacity="1.00" d=" M 619.93 80.20 C 622.37 80.04 625.39 79.39 626.87 81.92 C 625.48 82.85 624.13 83.84 622.95 85.02 C 622.60 84.71 621.90 84.09 621.55 83.78 L 621.39 82.67 L 621.57 81.24 C 621.00 81.35 619.87 81.57 619.30 81.68 C 619.45 81.31 619.77 80.57 619.93 80.20 M 623.21 82.49 C 623.76 83.10 623.76 83.10 623.21 82.49 Z" />
<path fill="#6685b7" opacity="1.00" d=" M 703.79 80.55 C 707.42 81.11 710.98 82.17 714.39 83.56 C 713.16 83.97 711.94 84.35 710.71 84.71 C 710.26 84.75 709.36 84.84 708.91 84.88 C 708.01 83.56 706.68 82.68 705.34 81.88 C 704.72 81.63 703.47 81.13 702.84 80.88 L 703.79 80.55 Z" />
<path fill="#5c5a5b" opacity="1.00" d=" M 489.58 95.02 C 498.05 90.35 506.38 85.41 514.88 80.76 C 517.03 80.72 519.18 80.83 521.34 80.98 C 513.84 86.28 505.24 89.82 497.72 95.14 C 495.00 95.21 492.28 95.16 489.58 95.02 Z" />
<path fill="#a8d9d7" opacity="1.00" d=" M 645.09 81.45 C 645.90 81.58 646.73 81.69 647.56 81.77 C 647.61 82.52 647.72 84.03 647.77 84.78 L 647.85 85.91 C 645.17 85.82 642.47 85.63 639.84 86.14 C 638.79 86.36 637.76 86.62 636.74 86.90 L 637.11 86.06 C 637.65 85.25 638.20 84.45 638.76 83.65 C 639.92 83.45 641.10 83.27 642.28 83.09 C 643.15 83.98 644.09 84.79 645.11 85.53 C 645.12 84.17 645.11 82.81 645.09 81.45 Z" />
<path fill="#8e9fa4" opacity="1.00" d=" M 662.23 80.45 C 663.78 82.07 664.68 84.08 664.85 86.32 C 662.16 86.14 659.49 85.92 656.81 85.76 C 656.81 85.12 656.83 83.84 656.83 83.20 C 657.59 83.13 659.11 82.98 659.87 82.90 C 659.90 83.44 659.95 84.53 659.97 85.07 L 660.72 84.99 C 661.18 83.47 661.68 81.95 662.23 80.45 Z" />
<path fill="#a8d9d7" opacity="1.00" d=" M 694.34 85.36 C 693.35 82.69 696.03 82.03 697.82 81.06 C 698.96 81.22 700.12 81.40 701.28 81.43 C 701.67 81.29 702.45 81.02 702.84 80.88 C 702.19 82.57 704.52 83.24 705.34 81.88 C 706.68 82.68 708.01 83.56 708.91 84.88 C 706.70 85.12 704.49 85.19 702.32 84.75 C 702.07 84.98 701.56 85.44 701.31 85.67 L 700.31 85.71 C 698.31 85.70 696.31 85.61 694.34 85.36 Z" />
<path fill="#b46c2d" opacity="1.00" d=" M 702.84 80.88 C 703.47 81.13 704.72 81.63 705.34 81.88 C 704.52 83.24 702.19 82.57 702.84 80.88 Z" />
<path fill="#757a2d" opacity="1.00" d=" M 601.30 81.72 C 603.74 83.98 599.65 84.50 598.19 83.34 C 599.21 82.78 600.25 82.25 601.30 81.72 Z" />
<path fill="#0d0c36" opacity="1.00" d=" M 623.21 82.49 C 623.76 83.10 623.76 83.10 623.21 82.49 Z" />
<path fill="#515f73" opacity="1.00" d=" M 647.56 81.77 C 651.66 81.80 655.75 81.99 659.84 82.24 L 659.87 82.90 C 659.11 82.98 657.59 83.13 656.83 83.20 C 656.83 83.84 656.81 85.12 656.81 85.76 C 659.49 85.92 662.16 86.14 664.85 86.32 C 665.52 86.34 666.20 86.33 666.88 86.31 C 667.42 86.26 668.49 86.18 669.02 86.14 C 669.05 85.33 669.11 83.70 669.14 82.89 C 669.63 82.93 670.60 83.01 671.09 83.05 C 671.59 82.83 672.58 82.40 673.08 82.18 C 673.19 82.40 673.40 82.83 673.51 83.04 L 673.99 84.19 C 672.85 83.80 670.55 83.15 670.11 84.73 C 670.75 86.45 673.44 86.40 674.26 84.84 C 674.86 86.33 675.40 87.85 675.95 89.37 C 673.93 89.56 671.93 89.95 670.08 90.79 C 669.34 90.74 668.62 90.68 667.90 90.61 C 665.31 90.22 662.69 90.11 660.12 90.60 L 659.72 90.65 C 657.64 90.05 655.49 89.85 653.36 89.63 L 653.21 89.30 C 653.07 88.96 652.79 88.28 652.65 87.94 C 652.01 87.37 651.39 86.80 650.77 86.23 C 652.66 85.84 652.64 82.64 650.37 83.79 C 649.99 84.04 649.23 84.53 648.85 84.78 L 647.77 84.78 C 647.72 84.03 647.61 82.52 647.56 81.77 M 655.41 83.45 C 654.64 84.24 654.01 85.68 654.58 86.72 C 656.37 87.43 657.27 83.49 655.41 83.45 Z" />
<path fill="#573015" opacity="1.00" d=" M 691.98 82.00 C 693.38 81.48 693.84 81.93 693.35 83.34 C 691.93 83.87 691.47 83.42 691.98 82.00 Z" />
<path fill="#cca76f" opacity="1.00" d=" M 602.96 84.24 C 604.38 81.79 607.36 82.95 609.59 82.95 C 612.37 83.27 615.15 83.46 617.95 83.57 C 617.42 83.99 616.36 84.84 615.83 85.26 C 611.53 85.58 607.23 84.61 602.96 84.24 Z" />
<path fill="#353e4a" opacity="1.00" d=" M 655.41 83.45 C 657.27 83.49 656.37 87.43 654.58 86.72 C 654.01 85.68 654.64 84.24 655.41 83.45 Z" />
<path fill="#a6b5b8" opacity="1.00" d=" M 665.08 82.42 C 666.10 82.54 668.12 82.77 669.14 82.89 C 669.11 83.70 669.05 85.33 669.02 86.14 C 668.49 86.18 667.42 86.26 666.88 86.31 C 665.89 85.20 665.29 83.91 665.08 82.42 Z" />
<path fill="#8b8335" opacity="1.00" d=" M 618.36 85.69 C 618.18 84.28 620.55 84.17 621.55 83.78 C 621.90 84.09 622.60 84.71 622.95 85.02 L 622.78 85.48 C 621.37 85.88 619.72 86.45 618.36 85.69 Z" />
<path fill="#a6b6b6" opacity="1.00" d=" M 648.85 84.78 C 649.23 84.53 649.99 84.04 650.37 83.79 C 652.64 82.64 652.66 85.84 650.77 86.23 L 649.91 86.27 C 649.64 85.89 649.12 85.15 648.85 84.78 Z" />
<path fill="#7a9ca5" opacity="1.00" d=" M 670.11 84.73 C 670.55 83.15 672.85 83.80 673.99 84.19 L 674.26 84.84 C 673.44 86.40 670.75 86.45 670.11 84.73 Z" />
<path fill="#100f0b" opacity="1.00" d=" M 701.31 85.67 C 701.56 85.44 702.07 84.98 702.32 84.75 C 704.49 85.19 706.70 85.12 708.91 84.88 C 709.36 84.84 710.26 84.75 710.71 84.71 C 711.56 84.64 713.27 84.52 714.12 84.46 C 713.41 85.95 712.75 87.46 712.17 89.01 C 709.72 88.48 707.44 87.40 705.03 86.78 C 703.24 86.51 702.33 88.12 701.35 89.25 C 700.61 89.41 699.89 89.56 699.18 89.71 C 699.40 88.88 699.63 88.05 699.87 87.22 C 698.25 87.31 696.64 87.38 695.03 87.46 C 693.39 87.47 691.75 87.35 690.13 87.15 C 689.88 86.94 689.37 86.51 689.11 86.30 C 692.85 86.58 696.58 86.01 700.31 85.71 L 701.31 85.67 Z" />
<path fill="#636129" opacity="1.00" d=" M 598.51 85.34 C 599.38 85.45 600.24 85.52 601.13 85.59 C 601.17 86.41 601.24 88.05 601.28 88.87 C 600.22 89.28 599.18 89.70 598.14 90.11 C 598.26 88.52 598.39 86.93 598.51 85.34 Z" />
<path fill="#573015" opacity="1.00" d=" M 647.77 84.78 L 648.85 84.78 C 649.12 85.15 649.64 85.89 649.91 86.27 C 646.56 87.06 643.18 86.67 639.84 86.14 C 642.47 85.63 645.17 85.82 647.85 85.91 L 647.77 84.78 Z" />
<path fill="#5b6e83" opacity="1.00" d=" M 635.83 87.94 C 636.15 87.47 636.79 86.53 637.11 86.06 L 636.74 86.90 C 637.76 86.62 638.79 86.36 639.84 86.14 C 643.18 86.67 646.56 87.06 649.91 86.27 L 650.77 86.23 C 651.39 86.80 652.01 87.37 652.65 87.94 C 652.79 88.28 653.07 88.96 653.21 89.30 C 647.39 89.38 641.58 89.79 635.77 89.41 L 635.83 87.94 Z" />
<path fill="#cca76f" opacity="1.00" d=" M 613.64 86.96 C 614.41 87.01 615.94 87.11 616.71 87.16 C 617.15 88.81 617.56 90.48 617.87 92.16 C 617.45 91.42 616.62 89.94 616.20 89.20 C 615.39 90.19 614.57 91.17 613.75 92.14 C 614.47 90.70 615.28 89.31 616.11 87.93 C 615.49 87.69 614.26 87.20 613.64 86.96 Z" />
<path fill="#000000" opacity="1.00" d=" M 690.13 87.15 C 691.75 87.35 693.39 87.47 695.03 87.46 C 693.11 88.31 693.23 90.49 692.89 92.21 C 696.07 92.11 699.27 91.85 702.38 91.11 C 698.91 93.75 694.30 93.07 690.25 93.89 C 690.21 91.64 690.21 89.39 690.13 87.15 Z" />
<path fill="#3d090b" opacity="1.00" d=" M 695.03 87.46 C 696.64 87.38 698.25 87.31 699.87 87.22 C 699.63 88.05 699.40 88.88 699.18 89.71 C 699.89 89.56 700.61 89.41 701.35 89.25 C 702.33 88.12 703.24 86.51 705.03 86.78 C 707.44 87.40 709.72 88.48 712.17 89.01 L 712.35 89.98 C 709.03 90.38 705.63 90.28 702.38 91.11 C 699.27 91.85 696.07 92.11 692.89 92.21 C 693.23 90.49 693.11 88.31 695.03 87.46 M 703.26 88.33 C 703.78 88.89 703.78 88.89 703.26 88.33 Z" />
<path fill="#3a0015" opacity="1.00" d=" M 634.50 90.07 C 634.83 89.54 635.50 88.47 635.83 87.94 L 635.77 89.41 C 641.58 89.79 647.39 89.38 653.21 89.30 L 653.36 89.63 C 655.49 89.85 657.64 90.05 659.72 90.65 C 657.39 91.06 655.04 91.12 652.70 91.05 C 652.63 91.48 652.49 92.35 652.41 92.78 L 652.07 92.84 C 651.98 92.23 651.79 90.99 651.70 90.38 C 648.48 90.40 645.27 90.53 642.06 90.66 C 641.65 90.66 640.83 90.67 640.42 90.68 C 638.43 90.58 636.46 90.31 634.50 90.07 Z" />
<path fill="#a77740" opacity="1.00" d=" M 703.26 88.33 C 703.78 88.89 703.78 88.89 703.26 88.33 Z" />
<path fill="#100204" opacity="0.47" d=" M 714.88 90.04 C 715.35 89.27 715.95 88.62 716.67 88.07 C 718.93 90.03 714.81 93.98 714.88 90.04 Z" />
<path fill="#aaaaa9" opacity="1.00" d=" M 524.74 89.99 C 526.99 90.35 529.60 90.62 531.14 92.53 C 528.94 91.89 526.55 91.49 524.74 89.99 Z" />
<path fill="#700e1a" opacity="1.00" d=" M 627.59 92.63 C 629.25 91.15 631.48 90.60 633.52 89.80 C 632.31 95.45 632.65 101.25 631.90 106.95 C 631.66 110.19 630.72 113.95 633.11 116.66 C 632.05 118.38 630.79 119.97 629.38 121.40 C 627.42 119.51 628.03 116.50 627.73 114.04 C 627.67 106.91 627.28 99.75 627.59 92.63 Z" />
<path fill="#010001" opacity="1.00" d=" M 642.06 90.66 C 645.27 90.53 648.48 90.40 651.70 90.38 C 651.79 90.99 651.98 92.23 652.07 92.84 L 652.20 93.74 C 652.19 95.33 652.16 96.93 652.15 98.53 C 654.47 98.35 656.80 98.31 659.14 98.36 C 659.45 97.26 659.74 96.15 660.01 95.04 C 660.03 94.26 660.06 92.70 660.08 91.92 L 660.12 90.60 C 662.69 90.11 665.31 90.22 667.90 90.61 C 666.46 93.18 666.00 96.46 669.01 98.07 C 670.08 97.75 671.17 97.44 672.26 97.14 C 673.46 97.90 674.51 98.89 675.20 100.15 C 673.60 100.82 672.03 101.49 670.43 102.14 C 668.62 101.07 666.56 100.98 664.52 101.14 C 663.51 103.16 662.45 105.17 661.19 107.04 C 658.00 109.52 653.62 108.66 649.89 109.52 C 651.25 108.26 652.71 107.12 654.25 106.07 C 657.71 106.82 656.06 100.59 653.87 103.92 C 653.09 104.23 652.31 104.53 651.54 104.82 C 650.79 103.62 650.04 102.42 649.30 101.23 C 649.79 100.44 650.29 99.66 650.80 98.88 C 648.57 98.40 646.33 97.95 644.14 97.34 C 644.54 94.85 644.68 92.00 642.06 90.66 M 659.93 106.08 C 659.70 104.84 659.45 103.61 659.19 102.38 C 656.70 103.17 656.89 106.86 659.93 106.08 Z" />
<path fill="#21201c" opacity="1.00" d=" M 634.49 90.81 C 636.11 90.78 637.74 90.74 639.38 90.70 C 638.88 92.12 638.15 93.51 638.09 95.05 C 637.74 96.82 639.97 96.90 641.02 97.50 C 639.06 95.83 638.49 93.62 639.52 91.23 C 640.18 91.47 641.51 91.95 642.17 92.19 C 641.44 93.07 640.71 93.94 640.00 94.82 C 640.65 94.90 641.96 95.05 642.61 95.13 C 642.99 95.68 643.75 96.79 644.14 97.34 C 646.33 97.95 648.57 98.40 650.80 98.88 C 650.29 99.66 649.79 100.44 649.30 101.23 C 650.04 102.42 650.79 103.62 651.54 104.82 C 652.31 104.53 653.09 104.23 653.87 103.92 C 653.97 104.46 654.15 105.53 654.25 106.07 C 652.71 107.12 651.25 108.26 649.89 109.52 C 653.62 108.66 658.00 109.52 661.19 107.04 C 659.36 108.66 663.20 109.60 661.96 107.34 C 662.33 107.61 663.05 108.16 663.42 108.43 C 665.74 106.17 668.85 105.18 671.89 104.30 C 671.86 104.81 671.79 105.83 671.76 106.34 C 671.31 106.42 670.40 106.58 669.95 106.66 C 669.89 108.39 669.77 110.13 669.92 111.86 C 671.02 112.66 672.25 113.29 673.45 113.96 C 672.74 119.55 674.19 125.90 670.82 130.80 C 667.47 133.09 662.95 131.88 659.17 131.56 C 658.88 129.60 661.75 130.21 662.92 129.50 C 659.32 128.42 655.64 127.61 652.21 126.05 C 652.64 123.43 653.19 120.75 652.73 118.09 C 652.31 118.04 651.45 117.96 651.02 117.92 C 648.69 121.97 648.18 127.47 649.87 131.98 C 646.68 131.57 642.06 133.31 640.16 129.82 C 636.82 124.88 639.19 118.47 637.17 113.05 C 636.55 113.24 635.31 113.62 634.68 113.82 C 635.58 111.86 637.01 110.13 637.59 108.04 C 637.92 104.86 637.69 101.66 637.68 98.48 C 636.93 98.41 635.42 98.27 634.67 98.20 C 634.58 95.74 634.52 93.27 634.49 90.81 M 661.24 122.10 C 659.84 122.20 659.93 124.53 661.28 124.65 C 662.71 124.63 662.64 122.13 661.24 122.10 Z" />
<path fill="#cca76f" opacity="1.00" d=" M 639.38 90.70 L 640.42 90.68 C 640.83 90.67 641.65 90.66 642.06 90.66 C 644.68 92.00 644.54 94.85 644.14 97.34 C 643.75 96.79 642.99 95.68 642.61 95.13 C 641.96 95.05 640.65 94.90 640.00 94.82 C 640.71 93.94 641.44 93.07 642.17 92.19 C 641.51 91.95 640.18 91.47 639.52 91.23 C 638.49 93.62 639.06 95.83 641.02 97.50 C 639.97 96.90 637.74 96.82 638.09 95.05 C 638.15 93.51 638.88 92.12 639.38 90.70 Z" />
<path fill="#62c8d1" opacity="1.00" d=" M 652.70 91.05 C 655.04 91.12 657.39 91.06 659.72 90.65 L 660.12 90.60 L 660.08 91.92 C 657.52 92.23 654.96 92.41 652.41 92.78 C 652.49 92.35 652.63 91.48 652.70 91.05 Z" />
<path fill="#cca76f" opacity="1.00" d=" M 667.90 90.61 C 668.62 90.68 669.34 90.74 670.08 90.79 C 670.76 90.98 672.13 91.36 672.81 91.55 C 673.00 93.44 673.30 95.42 672.26 97.14 C 671.17 97.44 670.08 97.75 669.01 98.07 C 666.00 96.46 666.46 93.18 667.90 90.61 M 671.83 96.78 C 672.74 94.67 669.99 95.28 668.83 94.79 C 669.30 93.79 670.03 93.02 671.01 92.47 C 670.48 92.25 669.43 91.81 668.91 91.59 C 666.06 93.60 668.90 97.79 671.83 96.78 Z" />
<path fill="#282526" opacity="1.00" d=" M 548.63 96.30 C 552.08 95.77 554.56 92.65 558.01 92.28 C 561.48 93.55 564.49 95.79 567.46 97.95 C 561.46 101.71 555.88 106.08 549.82 109.74 C 546.59 111.58 544.04 115.10 540.02 115.09 L 540.28 114.21 C 540.34 113.94 540.47 113.40 540.53 113.13 C 537.52 110.34 533.70 108.56 529.60 108.21 L 530.36 107.30 L 530.70 106.88 C 530.26 106.21 529.81 105.54 529.37 104.89 C 530.91 104.34 532.47 103.83 534.05 103.36 C 534.68 102.56 535.34 101.78 536.08 101.07 C 536.52 100.97 537.42 100.77 537.86 100.68 C 541.42 99.14 544.69 96.79 548.63 96.30 Z" />
<path fill="#9bb96b" opacity="1.00" d=" M 652.41 92.78 C 654.96 92.41 657.52 92.23 660.08 91.92 C 660.06 92.70 660.03 94.26 660.01 95.04 C 659.54 94.91 658.62 94.64 658.15 94.51 C 657.01 94.18 655.93 94.35 654.92 95.02 C 654.42 95.24 653.44 95.68 652.95 95.90 C 652.76 95.36 652.39 94.28 652.20 93.74 L 652.07 92.84 L 652.41 92.78 Z" />
<path fill="#030102" opacity="1.00" d=" M 671.83 96.78 C 668.90 97.79 666.06 93.60 668.91 91.59 C 669.43 91.81 670.48 92.25 671.01 92.47 C 670.03 93.02 669.30 93.79 668.83 94.79 C 669.99 95.28 672.74 94.67 671.83 96.78 Z" />
<path fill="#2d2b2b" opacity="1.00" d=" M 584.94 92.54 C 585.97 97.26 585.15 102.12 585.62 106.90 C 581.71 109.27 577.92 111.82 574.21 114.49 C 573.96 109.68 573.98 104.86 573.84 100.05 C 577.34 97.26 580.96 94.62 584.94 92.54 Z" />
<path fill="#5f9291" opacity="1.00" d=" M 652.20 93.74 C 652.39 94.28 652.76 95.36 652.95 95.90 C 653.44 95.68 654.42 95.24 654.92 95.02 C 655.54 97.16 659.65 97.26 658.15 94.51 C 658.62 94.64 659.54 94.91 660.01 95.04 C 659.74 96.15 659.45 97.26 659.14 98.36 C 656.80 98.31 654.47 98.35 652.15 98.53 C 652.16 96.93 652.19 95.33 652.20 93.74 Z" />
<path fill="#ffffff" opacity="1.00" d=" M 654.92 95.02 C 655.93 94.35 657.01 94.18 658.15 94.51 C 659.65 97.26 655.54 97.16 654.92 95.02 Z" />
<path fill="#501e74" opacity="1.00" d=" M 680.02 95.80 C 677.86 97.31 677.70 93.56 679.92 94.10 C 679.94 94.53 680.00 95.38 680.02 95.80 Z" />
<path fill="#1e1c1d" opacity="1.00" d=" M 489.58 95.02 C 492.28 95.16 495.00 95.21 497.72 95.14 C 500.28 95.38 502.82 95.77 505.36 96.16 C 504.13 96.67 502.94 97.24 501.74 97.78 L 500.79 98.18 C 502.08 99.41 503.37 100.65 504.78 101.75 C 504.14 103.90 503.59 106.06 503.11 108.24 C 501.72 105.89 500.28 103.57 498.66 101.38 C 498.50 103.75 498.85 106.52 500.85 108.09 C 503.36 109.65 506.21 110.54 508.91 111.74 C 511.26 112.70 513.57 113.82 516.08 114.30 C 519.47 114.15 522.54 112.28 525.95 112.15 C 530.81 111.98 535.56 113.19 540.28 114.21 L 540.02 115.09 C 534.05 115.54 528.02 115.10 522.07 115.87 C 518.73 116.26 515.31 118.64 512.00 117.07 C 510.05 116.39 508.43 115.11 507.03 113.64 C 502.67 111.92 498.30 109.82 493.47 111.15 C 492.65 110.44 491.80 109.76 490.97 109.08 L 492.43 109.43 C 491.57 108.37 490.70 107.33 489.84 106.29 C 491.89 104.75 493.91 103.16 495.88 101.52 C 493.72 99.40 491.63 97.23 489.58 95.02 Z" />
<path fill="#d01a1e" opacity="1.00" d=" M 608.38 96.30 C 609.91 95.06 611.12 97.97 609.93 98.97 C 608.38 100.19 607.29 97.28 608.38 96.30 Z" />
<path fill="#c9390f" opacity="1.00" d=" M 700.25 96.32 C 701.49 96.62 701.68 97.41 700.81 98.68 C 699.56 98.38 699.37 97.59 700.25 96.32 Z" />
<path fill="#982f15" opacity="1.00" d=" M 702.08 96.17 C 703.65 95.66 704.16 96.24 703.60 97.92 C 702.02 98.45 701.51 97.87 702.08 96.17 Z" />
<path fill="#d01a1e" opacity="1.00" d=" M 611.04 97.00 C 612.58 95.82 613.59 98.70 612.59 99.69 C 611.04 100.97 609.80 97.99 611.04 97.00 Z" />
<path fill="#161515" opacity="1.00" d=" M 500.79 98.18 L 501.74 97.78 C 510.42 102.98 520.27 106.37 530.36 107.30 L 529.60 108.21 C 524.18 108.00 518.77 107.27 513.56 105.75 C 510.52 104.68 507.60 103.31 504.78 101.75 C 503.37 100.65 502.08 99.41 500.79 98.18 Z" />
<path fill="#727271" opacity="1.00" d=" M 481.55 101.13 C 481.75 97.71 485.97 99.15 488.23 99.01 C 488.03 102.33 483.73 100.62 481.55 101.13 Z" />
<path fill="#5e5e5d" opacity="1.00" d=" M 536.08 101.07 C 533.27 99.13 537.79 98.02 537.86 100.68 C 537.42 100.77 536.52 100.97 536.08 101.07 Z" />
<path fill="#4e5253" opacity="1.00" d=" M 703.17 99.17 C 704.54 98.68 704.99 99.15 704.51 100.59 C 703.11 101.09 702.67 100.61 703.17 99.17 Z" />
<path fill="#383635" opacity="1.00" d=" M 614.26 100.28 C 615.71 100.27 615.56 102.80 614.20 102.85 C 612.77 102.75 612.96 100.44 614.26 100.28 Z" />
<path fill="#21005d" opacity="1.00" d=" M 676.13 99.55 C 676.82 101.35 677.20 103.29 676.00 104.97 C 674.67 107.00 675.63 109.35 676.06 111.49 C 676.52 110.98 677.44 109.95 677.90 109.44 C 679.96 106.65 677.46 101.85 681.03 100.21 C 682.99 104.61 683.45 109.43 682.75 114.18 C 681.91 113.16 681.07 112.15 680.25 111.14 C 678.81 112.35 677.38 113.55 675.95 114.74 C 674.11 109.87 673.55 104.28 676.13 99.55 Z" />
<path fill="#1c1a1b" opacity="1.00" d=" M 478.47 100.88 C 479.68 101.51 480.89 102.15 482.14 102.73 C 481.67 102.88 480.75 103.18 480.29 103.33 C 479.70 107.16 479.87 111.04 480.18 114.89 C 481.11 109.78 486.87 110.57 490.20 112.69 C 489.56 114.45 488.93 116.20 488.30 117.96 C 488.88 117.88 490.04 117.72 490.62 117.64 C 491.85 115.75 493.05 113.84 494.21 111.90 C 494.54 112.26 495.22 112.99 495.55 113.35 C 495.46 114.46 495.37 115.58 495.30 116.69 C 499.86 117.97 504.64 117.39 509.26 118.30 C 507.15 119.71 504.91 121.30 502.28 121.30 C 499.80 121.09 497.38 120.46 494.94 120.01 C 493.99 122.14 495.18 123.85 496.81 125.16 C 496.14 125.02 494.80 124.72 494.12 124.57 C 488.87 123.48 484.51 119.43 479.04 119.44 C 482.37 121.60 486.28 123.43 488.37 126.98 C 489.42 129.05 487.68 130.38 486.30 131.60 C 480.73 132.07 475.18 129.86 471.89 125.27 C 471.08 125.96 470.28 126.66 469.48 127.36 C 464.65 127.61 459.81 127.36 454.99 127.70 C 452.21 129.06 448.88 127.99 446.18 129.49 C 444.80 129.72 443.43 129.94 442.05 130.13 C 440.62 128.95 438.74 129.45 437.11 129.78 C 435.14 130.05 433.74 128.37 432.59 127.04 C 434.12 122.95 439.12 125.71 442.15 124.08 C 442.47 123.82 443.12 123.29 443.44 123.03 C 448.16 123.76 452.98 123.37 457.51 121.83 C 462.35 121.20 467.98 123.78 472.20 120.23 C 474.92 118.58 473.67 115.25 473.28 112.74 C 474.33 114.76 475.07 116.91 475.76 119.07 C 476.86 118.16 477.97 117.25 479.08 116.34 C 478.01 115.12 476.96 113.90 475.89 112.70 C 476.38 112.40 477.38 111.80 477.88 111.50 C 478.90 108.06 478.80 104.41 478.47 100.88 M 474.34 123.87 C 474.02 125.82 475.89 126.86 477.29 127.69 C 480.29 129.22 483.87 130.17 487.17 129.03 C 486.25 125.69 483.05 123.75 480.05 122.53 C 478.09 122.27 475.53 121.83 474.34 123.87 Z" />
<path fill="#2c292a" opacity="1.00" d=" M 500.85 108.09 C 498.85 106.52 498.50 103.75 498.66 101.38 C 500.28 103.57 501.72 105.89 503.11 108.24 C 503.59 106.06 504.14 103.90 504.78 101.75 C 507.60 103.31 510.52 104.68 513.56 105.75 C 513.45 107.16 513.73 108.70 513.09 110.01 C 511.75 110.73 510.31 111.20 508.91 111.74 C 506.21 110.54 503.36 109.65 500.85 108.09 Z" />
<path fill="#302d2e" opacity="1.00" d=" M 443.95 108.67 C 444.77 106.73 444.93 103.01 447.87 103.46 C 450.08 104.10 450.44 106.95 451.78 108.57 C 457.53 107.44 464.40 102.64 469.50 107.92 C 468.67 107.95 467.02 108.00 466.19 108.02 C 465.26 108.07 463.41 108.16 462.48 108.21 C 459.76 108.69 457.12 109.54 454.37 109.86 C 452.76 109.99 451.16 110.05 449.57 110.26 L 448.41 111.11 C 446.80 111.61 445.17 112.02 443.53 112.32 C 441.15 112.69 438.59 112.90 436.89 114.81 C 436.93 114.39 437.01 113.55 437.06 113.14 C 436.47 112.50 435.89 111.87 435.30 111.24 C 434.01 112.52 432.71 113.79 431.45 115.10 C 432.31 109.21 438.99 107.82 443.95 108.67 M 446.23 105.18 C 444.19 107.90 447.20 109.46 449.68 109.28 C 449.71 107.52 448.71 103.23 446.23 105.18 M 440.21 111.30 C 440.76 111.86 440.76 111.86 440.21 111.30 Z" />
<path fill="#070606" opacity="1.00" d=" M 480.29 103.33 C 480.75 103.18 481.67 102.88 482.14 102.73 C 484.10 103.55 486.07 104.37 488.02 105.24 C 488.69 106.73 489.54 108.18 490.97 109.08 C 491.80 109.76 492.65 110.44 493.47 111.15 L 494.21 111.90 C 493.05 113.84 491.85 115.75 490.62 117.64 C 490.04 117.72 488.88 117.88 488.30 117.96 C 488.93 116.20 489.56 114.45 490.20 112.69 C 486.87 110.57 481.11 109.78 480.18 114.89 C 479.87 111.04 479.70 107.16 480.29 103.33 Z" />
<path fill="#262324" opacity="1.00" d=" M 567.33 103.37 C 567.95 103.29 569.20 103.14 569.82 103.07 C 569.91 107.84 569.96 112.61 570.20 117.38 C 568.26 118.72 566.30 120.03 564.44 121.46 C 564.42 116.30 564.44 111.12 563.54 106.03 C 564.18 105.99 565.46 105.93 566.09 105.90 C 566.54 109.35 565.62 113.21 567.54 116.33 C 568.10 112.02 567.81 107.67 567.33 103.37 Z" />
<path fill="#9f2a13" opacity="1.00" d=" M 653.87 103.92 C 656.06 100.59 657.71 106.82 654.25 106.07 C 654.15 105.53 653.97 104.46 653.87 103.92 Z" />
<path fill="#d01a1e" opacity="1.00" d=" M 659.93 106.08 C 656.89 106.86 656.70 103.17 659.19 102.38 C 659.45 103.61 659.70 104.84 659.93 106.08 Z" />
<path fill="#070707" opacity="0.39" d=" M 446.23 105.18 C 448.71 103.23 449.71 107.52 449.68 109.28 C 447.20 109.46 444.19 107.90 446.23 105.18 Z" />
<path fill="#643655" opacity="1.00" d=" M 676.06 111.49 C 675.63 109.35 674.67 107.00 676.00 104.97 C 676.64 106.45 677.27 107.94 677.90 109.44 C 677.44 109.95 676.52 110.98 676.06 111.49 Z" />
<path fill="#393637" opacity="1.00" d=" M 513.56 105.75 C 518.77 107.27 524.18 108.00 529.60 108.21 C 533.70 108.56 537.52 110.34 540.53 113.13 C 540.47 113.40 540.34 113.94 540.28 114.21 C 535.56 113.19 530.81 111.98 525.95 112.15 C 522.54 112.28 519.47 114.15 516.08 114.30 C 513.57 113.82 511.26 112.70 508.91 111.74 C 510.31 111.20 511.75 110.73 513.09 110.01 C 513.73 108.70 513.45 107.16 513.56 105.75 Z" />
<path fill="#030203" opacity="0.55" d=" M 574.21 114.49 C 577.92 111.82 581.71 109.27 585.62 106.90 C 585.58 107.41 585.49 108.44 585.44 108.96 C 573.60 117.65 561.65 126.21 549.53 134.51 C 546.25 137.02 542.78 139.35 538.99 141.05 C 536.61 141.35 534.25 140.52 531.97 139.95 C 520.40 136.33 509.23 131.57 498.00 127.05 C 496.66 126.34 494.76 126.15 494.12 124.57 C 494.80 124.72 496.14 125.02 496.81 125.16 C 503.08 127.60 509.19 130.43 515.55 132.63 C 522.33 135.03 528.85 138.45 536.05 139.46 C 538.09 139.91 539.85 138.59 541.52 137.63 C 541.84 137.41 542.47 136.98 542.79 136.77 C 549.88 131.49 557.51 126.96 564.44 121.46 C 566.30 120.03 568.26 118.72 570.20 117.38 C 571.54 116.43 572.87 115.45 574.21 114.49 Z" />
<path fill="#5d5e5e" opacity="1.00" d=" M 661.19 107.04 L 661.96 107.34 C 663.20 109.60 659.36 108.66 661.19 107.04 Z" />
<path fill="#423f3f" opacity="1.00" d=" M 454.37 109.86 C 457.12 109.54 459.76 108.69 462.48 108.21 C 462.55 109.21 462.61 110.21 462.69 111.22 C 463.51 111.17 465.14 111.07 465.95 111.01 C 466.01 110.27 466.13 108.77 466.19 108.02 C 467.02 108.00 468.67 107.95 469.50 107.92 C 471.24 109.07 472.38 110.90 473.28 112.74 C 473.67 115.25 474.92 118.58 472.20 120.23 C 467.98 123.78 462.35 121.20 457.51 121.83 C 452.98 123.37 448.16 123.76 443.44 123.03 L 442.89 122.36 C 444.41 121.24 446.06 119.93 446.27 117.91 C 446.94 115.58 444.70 113.97 443.53 112.32 C 445.17 112.02 446.80 111.61 448.41 111.11 C 450.00 111.23 451.61 111.40 453.22 111.57 C 451.81 111.67 450.40 111.77 449.00 111.87 C 449.78 113.09 450.57 114.31 451.33 115.55 C 454.42 115.17 454.87 112.39 454.37 109.86 M 458.18 111.19 C 458.15 112.52 457.38 114.42 459.33 114.69 C 460.50 115.01 462.14 114.42 461.93 112.94 C 461.84 110.97 459.55 111.21 458.18 111.19 M 465.75 114.99 C 467.26 115.91 468.84 115.75 470.32 114.86 C 469.69 113.83 469.63 111.61 467.92 111.88 C 466.00 111.75 466.09 113.66 465.75 114.99 M 462.27 115.42 C 460.58 117.22 462.55 119.79 464.75 118.89 C 467.33 117.43 464.49 114.11 462.27 115.42 M 447.32 116.24 C 447.90 116.78 447.90 116.78 447.32 116.24 M 459.22 116.25 C 459.72 116.79 459.72 116.79 459.22 116.25 M 451.24 118.36 C 449.99 120.70 454.46 120.76 454.64 118.66 C 454.35 117.18 452.03 117.50 451.24 118.36 M 446.27 120.21 C 446.82 120.73 446.82 120.73 446.27 120.21 M 462.22 120.35 C 462.75 120.86 462.75 120.86 462.22 120.35 Z" />
<path fill="#167096" opacity="1.00" d=" M 462.48 108.21 C 463.41 108.16 465.26 108.07 466.19 108.02 C 466.13 108.77 466.01 110.27 465.95 111.01 C 465.14 111.07 463.51 111.17 462.69 111.22 C 462.61 110.21 462.55 109.21 462.48 108.21 Z" />
<path fill="#656464" opacity="1.00" d=" M 449.57 110.26 C 451.16 110.05 452.76 109.99 454.37 109.86 C 454.87 112.39 454.42 115.17 451.33 115.55 C 450.57 114.31 449.78 113.09 449.00 111.87 C 450.40 111.77 451.81 111.67 453.22 111.57 C 451.61 111.40 450.00 111.23 448.41 111.11 L 449.57 110.26 Z" />
<path fill="#504f4f" opacity="1.00" d=" M 435.30 111.24 C 435.89 111.87 436.47 112.50 437.06 113.14 C 437.01 113.55 436.93 114.39 436.89 114.81 L 436.53 115.91 C 436.43 116.20 436.22 116.79 436.12 117.08 C 435.86 117.60 435.33 118.65 435.06 119.17 C 434.20 120.25 433.32 121.32 432.40 122.35 C 431.98 120.08 431.62 117.79 431.37 115.50 L 431.45 115.10 C 432.71 113.79 434.01 112.52 435.30 111.24 Z" />
<path fill="#9c9b9b" opacity="1.00" d=" M 440.21 111.30 C 440.76 111.86 440.76 111.86 440.21 111.30 Z" />
<path fill="#189357" opacity="1.00" d=" M 458.18 111.19 C 459.55 111.21 461.84 110.97 461.93 112.94 C 462.14 114.42 460.50 115.01 459.33 114.69 C 457.38 114.42 458.15 112.52 458.18 111.19 Z" />
<path fill="#282526" opacity="1.00" d=" M 493.47 111.15 C 498.30 109.82 502.67 111.92 507.03 113.64 C 508.43 115.11 510.05 116.39 512.00 117.07 C 515.31 118.64 518.73 116.26 522.07 115.87 C 521.48 116.43 520.90 116.98 520.32 117.54 C 523.11 118.23 525.76 119.35 528.31 120.66 C 529.29 125.64 530.24 130.63 530.62 135.70 C 534.26 136.30 537.89 136.94 541.52 137.63 C 539.85 138.59 538.09 139.91 536.05 139.46 C 528.85 138.45 522.33 135.03 515.55 132.63 C 509.19 130.43 503.08 127.60 496.81 125.16 C 495.18 123.85 493.99 122.14 494.94 120.01 C 497.38 120.46 499.80 121.09 502.28 121.30 C 504.91 121.30 507.15 119.71 509.26 118.30 C 504.64 117.39 499.86 117.97 495.30 116.69 C 495.37 115.58 495.46 114.46 495.55 113.35 C 495.22 112.99 494.54 112.26 494.21 111.90 L 493.47 111.15 M 515.92 122.88 C 516.00 123.61 516.17 125.07 516.25 125.80 C 518.54 127.37 521.36 127.94 523.91 129.02 C 523.95 128.24 524.03 126.69 524.07 125.91 C 521.52 124.49 518.75 123.53 515.92 122.88 Z" />
<path fill="#09001e" opacity="1.00" d=" M 675.95 114.74 C 677.38 113.55 678.81 112.35 680.25 111.14 C 681.07 112.15 681.91 113.16 682.75 114.18 C 682.52 116.09 682.17 117.98 681.84 119.88 C 679.74 118.33 677.68 116.70 675.95 114.74 Z" />
<path fill="#444647" opacity="1.00" d=" M 702.13 111.45 C 703.50 111.03 703.99 111.52 703.62 112.93 C 702.22 113.36 701.72 112.87 702.13 111.45 Z" />
<path fill="#c38938" opacity="1.00" d=" M 465.75 114.99 C 466.09 113.66 466.00 111.75 467.92 111.88 C 469.63 111.61 469.69 113.83 470.32 114.86 C 468.84 115.75 467.26 115.91 465.75 114.99 Z" />
<path fill="#100e0e" opacity="1.00" d=" M 436.89 114.81 C 438.59 112.90 441.15 112.69 443.53 112.32 C 444.70 113.97 446.94 115.58 446.27 117.91 C 446.06 119.93 444.41 121.24 442.89 122.36 L 442.11 122.40 C 441.22 122.22 439.43 121.85 438.54 121.67 C 438.47 121.62 438.33 121.52 438.27 121.47 C 437.23 119.79 436.72 117.86 436.53 115.91 L 436.89 114.81 M 439.24 115.28 C 437.52 116.83 439.12 118.83 441.11 118.64 C 443.84 118.21 440.95 113.72 439.24 115.28 M 443.08 116.36 C 441.57 119.39 446.41 116.42 443.08 116.36 Z" />
<path fill="#040404" opacity="1.00" d=" M 634.68 113.82 C 635.31 113.62 636.55 113.24 637.17 113.05 C 639.19 118.47 636.82 124.88 640.16 129.82 C 642.06 133.31 646.68 131.57 649.87 131.98 C 653.13 132.08 656.81 131.62 659.49 133.92 C 652.70 132.79 645.94 134.53 639.13 133.90 C 635.96 128.59 630.57 125.14 624.72 123.46 C 626.30 122.84 627.86 122.17 629.38 121.40 C 630.79 119.97 632.05 118.38 633.11 116.66 C 633.64 115.72 634.17 114.77 634.68 113.82 Z" />
<path fill="#3a3836" opacity="1.00" d=" M 614.44 114.05 C 615.83 113.67 616.30 114.18 615.86 115.59 C 614.46 115.97 613.99 115.46 614.44 114.05 Z" />
<path fill="#515050" opacity="1.00" d=" M 439.24 115.28 C 440.95 113.72 443.84 118.21 441.11 118.64 C 439.12 118.83 437.52 116.83 439.24 115.28 Z" />
<path fill="#b2454d" opacity="1.00" d=" M 462.27 115.42 C 464.49 114.11 467.33 117.43 464.75 118.89 C 462.55 119.79 460.58 117.22 462.27 115.42 Z" />
<path fill="#302d2e" opacity="1.00" d=" M 432.59 127.04 C 429.91 123.78 429.87 119.29 431.37 115.50 C 431.62 117.79 431.98 120.08 432.40 122.35 C 433.32 121.32 434.20 120.25 435.06 119.17 L 435.84 118.90 C 435.91 118.44 436.05 117.53 436.12 117.08 C 436.22 116.79 436.43 116.20 436.53 115.91 C 436.72 117.86 437.23 119.79 438.27 121.47 L 438.35 121.63 L 438.54 121.67 C 439.43 121.85 441.22 122.22 442.11 122.40 C 442.12 122.82 442.14 123.66 442.15 124.08 C 439.12 125.71 434.12 122.95 432.59 127.04 Z" />
<path fill="#5c5b5b" opacity="1.00" d=" M 443.08 116.36 C 446.41 116.42 441.57 119.39 443.08 116.36 Z" />
<path fill="#aeaeac" opacity="1.00" d=" M 447.32 116.24 C 447.90 116.78 447.90 116.78 447.32 116.24 Z" />
<path fill="#737170" opacity="1.00" d=" M 459.22 116.25 C 459.72 116.79 459.72 116.79 459.22 116.25 Z" />
<path fill="#888786" opacity="1.00" d=" M 435.06 119.17 C 435.33 118.65 435.86 117.60 436.12 117.08 C 436.05 117.53 435.91 118.44 435.84 118.90 L 435.06 119.17 Z" />
<path fill="#5e5d5d" opacity="1.00" d=" M 451.24 118.36 C 452.03 117.50 454.35 117.18 454.64 118.66 C 454.46 120.76 449.99 120.70 451.24 118.36 Z" />
<path fill="#070707" opacity="1.00" d=" M 692.36 122.39 C 697.01 121.07 701.61 119.55 706.40 118.75 C 706.32 120.38 706.18 122.01 705.94 123.62 C 700.71 125.36 696.35 129.18 693.80 134.05 C 692.14 133.80 690.52 133.49 688.91 133.07 C 685.74 134.59 682.15 133.88 678.77 133.97 C 680.52 130.17 683.90 126.22 681.41 121.93 C 685.02 122.37 688.76 123.57 692.36 122.39 Z" />
<path fill="#949392" opacity="1.00" d=" M 446.27 120.21 C 446.82 120.73 446.82 120.73 446.27 120.21 Z" />
<path fill="#787776" opacity="1.00" d=" M 462.22 120.35 C 462.75 120.86 462.75 120.86 462.22 120.35 Z" />
<path fill="#686866" opacity="1.00" d=" M 438.27 121.47 C 438.33 121.52 438.47 121.62 438.54 121.67 L 438.35 121.63 L 438.27 121.47 Z" />
<path fill="#1c1a1b" opacity="1.00" d=" M 528.31 120.66 C 532.73 121.79 537.42 121.48 541.72 123.13 C 541.78 127.69 541.56 132.32 542.79 136.77 C 542.47 136.98 541.84 137.41 541.52 137.63 C 537.89 136.94 534.26 136.30 530.62 135.70 C 530.24 130.63 529.29 125.64 528.31 120.66 Z" />
<path fill="#7b7a79" opacity="1.00" d=" M 442.11 122.40 L 442.89 122.36 L 443.44 123.03 C 443.12 123.29 442.47 123.82 442.15 124.08 C 442.14 123.66 442.12 122.82 442.11 122.40 Z" />
<path fill="#505050" opacity="1.00" d=" M 661.24 122.10 C 662.64 122.13 662.71 124.63 661.28 124.65 C 659.93 124.53 659.84 122.20 661.24 122.10 Z" />
<path fill="#111011" opacity="1.00" d=" M 515.92 122.88 C 518.75 123.53 521.52 124.49 524.07 125.91 C 524.03 126.69 523.95 128.24 523.91 129.02 C 521.36 127.94 518.54 127.37 516.25 125.80 C 516.17 125.07 516.00 123.61 515.92 122.88 Z" />
<path fill="#353333" opacity="0.98" d=" M 437.11 129.78 C 438.74 129.45 440.62 128.95 442.05 130.13 C 440.74 131.31 438.25 131.11 437.11 129.78 Z" />
<path fill="#711f22" opacity="0.57" d=" M 237.85 292.07 C 238.93 286.72 243.42 282.73 248.82 282.13 C 252.96 282.93 257.27 285.04 258.70 289.33 C 259.67 291.98 260.45 296.25 257.97 298.07 C 257.50 295.49 258.17 292.87 257.91 290.27 L 256.86 288.92 L 256.61 288.62 C 256.55 288.55 256.43 288.40 256.37 288.33 C 255.23 287.02 254.04 285.71 252.54 284.81 C 250.28 283.56 246.88 283.46 244.72 284.96 C 242.50 286.35 241.06 288.59 239.89 290.88 C 239.61 291.05 239.05 291.40 238.77 291.58 L 237.85 292.07 Z" />
<path fill="#4ed654" opacity="0.87" d=" M 239.89 290.88 C 241.06 288.59 242.50 286.35 244.72 284.96 C 245.57 284.83 247.26 284.56 248.10 284.43 C 247.73 287.28 244.04 287.00 242.68 289.21 C 245.87 289.08 244.92 292.00 244.94 294.07 C 245.79 294.08 247.49 294.09 248.34 294.09 C 249.00 297.10 244.87 297.56 243.08 296.11 C 242.18 294.58 242.35 292.87 242.67 291.22 C 241.85 292.02 240.94 292.73 239.88 293.19 C 239.88 292.61 239.89 291.45 239.89 290.88 Z" />
<path fill="#36c139" opacity="0.83" d=" M 248.61 284.50 C 249.59 284.58 251.56 284.73 252.54 284.81 C 254.04 285.71 255.23 287.02 256.37 288.33 C 256.43 288.40 256.55 288.55 256.61 288.62 L 256.86 288.92 C 257.04 289.89 257.41 291.81 257.59 292.77 C 255.23 292.99 255.10 290.30 253.99 288.93 C 252.96 286.46 249.02 287.46 248.61 284.50 Z" />
<path fill="#155918" opacity="0.39" d=" M 256.37 288.33 C 256.43 288.40 256.55 288.55 256.61 288.62 C 256.55 288.55 256.43 288.40 256.37 288.33 Z" />
<path fill="#53f75b" opacity="0.98" d=" M 248.99 289.48 C 250.74 289.43 252.49 289.52 254.23 289.79 C 255.67 291.61 253.07 293.10 252.31 294.65 C 253.09 294.53 254.63 294.28 255.40 294.16 C 255.90 298.99 250.94 296.37 248.43 296.85 C 248.61 294.96 249.51 293.38 250.91 292.15 C 250.30 292.17 249.06 292.22 248.44 292.25 C 248.58 291.55 248.86 290.17 248.99 289.48 Z" />
<path fill="#ffffff" opacity="1.00" d=" M 23.89 292.54 C 28.58 290.41 35.30 291.83 37.44 296.90 C 38.84 300.98 38.43 305.38 38.51 309.62 C 35.69 309.62 32.87 309.61 30.05 309.66 C 29.79 305.97 30.47 302.16 29.53 298.56 C 27.85 297.66 26.76 299.37 27.06 300.92 C 27.05 308.94 26.75 317.00 27.23 325.01 C 27.08 326.38 29.89 326.72 29.74 325.05 C 30.21 322.10 29.94 319.09 30.00 316.12 C 32.85 316.12 35.70 316.11 38.54 316.16 C 38.37 320.11 38.81 324.31 37.15 328.02 C 34.31 333.51 26.20 334.41 21.66 330.60 C 18.65 327.98 18.73 323.64 18.51 319.98 C 18.54 313.67 18.34 307.35 18.64 301.04 C 18.74 297.55 20.62 294.00 23.89 292.54 Z" />
<path fill="#ffffff" opacity="1.00" d=" M 62.37 298.03 C 63.43 291.22 72.63 290.01 77.54 293.37 C 81.22 295.71 80.45 300.64 80.66 304.37 C 78.03 304.37 75.41 304.37 72.78 304.38 C 72.64 302.37 73.10 300.21 72.15 298.35 C 69.94 297.88 69.89 300.69 69.99 302.11 C 70.01 306.19 74.63 307.49 76.97 310.09 C 82.12 314.03 81.82 321.32 80.89 327.08 C 79.12 333.44 69.99 334.53 65.33 330.73 C 61.58 327.63 62.42 322.19 62.24 317.87 C 64.86 317.87 67.49 317.87 70.12 317.88 C 70.19 320.44 69.87 323.06 70.45 325.59 C 72.80 327.60 73.60 323.60 73.26 321.90 C 73.57 317.11 68.38 315.24 65.61 312.29 C 61.45 308.87 61.64 302.86 62.37 298.03 Z" />
<path fill="#ffffff" opacity="1.00" d=" M 116.01 295.15 C 118.81 290.86 125.42 290.79 129.25 293.67 C 133.51 297.26 133.35 303.61 131.63 308.45 C 129.42 314.33 126.13 319.71 123.23 325.25 C 126.14 325.25 129.06 325.25 131.97 325.23 C 132.00 327.48 132.00 329.74 132.00 332.00 C 126.04 331.99 120.07 332.01 114.10 331.99 C 114.26 329.63 113.63 327.06 114.84 324.90 C 118.04 318.37 121.58 311.98 124.18 305.18 C 124.86 302.90 125.89 299.83 123.92 297.93 C 119.94 297.85 121.83 303.45 121.36 306.00 C 118.94 306.00 116.51 306.00 114.09 305.99 C 114.20 302.34 113.82 298.31 116.01 295.15 Z" />
<path fill="#ffffff" opacity="1.00" d=" M 144.77 293.79 C 148.01 291.19 152.65 291.41 156.46 292.37 C 161.32 293.82 162.09 299.77 161.68 304.08 C 161.77 306.39 160.23 308.15 158.61 309.59 C 160.57 310.64 161.75 312.65 161.77 314.87 C 162.08 319.44 162.49 324.35 160.60 328.67 C 157.12 334.67 146.10 334.20 143.53 327.57 C 142.50 323.89 142.80 320.02 142.74 316.25 C 145.50 316.25 148.25 316.25 151.01 316.25 C 151.08 319.50 150.76 322.79 151.25 326.02 C 152.47 327.99 154.19 325.54 153.80 324.12 C 153.89 321.23 154.14 318.27 153.54 315.42 C 153.16 313.26 150.61 313.58 149.00 313.25 C 149.00 311.40 149.00 309.56 149.00 307.73 C 150.86 307.58 153.96 307.89 153.78 305.13 C 153.54 302.79 155.12 298.61 152.14 297.72 C 150.12 299.27 151.36 302.42 150.97 304.63 C 148.22 304.62 145.48 304.62 142.73 304.62 C 142.85 300.99 142.23 296.78 144.77 293.79 Z" />
<path fill="#ffff26" opacity="1.00" d=" M 174.43 295.46 C 178.35 289.73 188.74 290.42 191.46 296.97 C 192.83 301.03 192.42 305.40 192.51 309.61 C 189.69 309.62 186.88 309.62 184.06 309.67 C 183.93 305.88 184.21 302.07 183.61 298.31 C 182.58 298.49 181.04 298.29 181.17 299.84 C 180.85 307.94 180.95 316.07 181.11 324.17 C 180.87 325.74 182.35 326.85 183.64 325.69 C 184.24 322.53 183.94 319.30 184.01 316.11 C 186.86 316.11 189.71 316.11 192.56 316.18 C 192.35 320.13 192.82 324.35 191.13 328.05 C 187.79 334.61 176.47 334.61 173.60 327.68 C 171.75 321.30 172.76 314.56 172.49 308.02 C 172.65 303.82 171.92 299.13 174.43 295.46 Z" />
<path fill="#ffff26" opacity="1.00" d=" M 200.44 292.73 C 205.43 290.04 212.82 292.14 214.38 297.94 C 215.72 304.20 214.89 310.68 215.13 317.04 C 214.98 321.49 215.65 326.74 212.23 330.21 C 207.48 335.13 197.53 333.09 196.09 326.05 C 194.97 319.10 195.69 311.99 195.51 304.97 C 195.40 300.51 195.98 295.01 200.44 292.73 M 204.62 298.57 C 203.21 305.83 204.39 313.51 203.98 320.94 C 204.32 322.77 203.08 326.39 206.03 326.20 C 207.37 318.24 206.27 310.01 206.63 301.95 C 206.62 300.71 206.74 297.46 204.62 298.57 Z" />
<path fill="#b76b43" opacity="1.00" d=" M 237.85 292.07 L 238.77 291.58 C 239.03 293.26 238.63 295.21 239.68 296.69 C 240.00 297.13 240.65 298.01 240.98 298.45 C 241.14 298.71 241.46 299.22 241.62 299.47 C 241.67 300.11 241.77 301.39 241.82 302.03 C 239.43 299.24 237.93 295.78 237.85 292.07 Z" />
<path fill="#ffffff" opacity="1.00" d=" M 41.75 292.50 C 46.43 292.71 51.27 291.91 55.83 293.23 C 58.68 294.12 59.88 297.24 59.89 299.99 C 59.99 304.15 60.40 308.43 59.37 312.50 C 58.04 316.22 53.51 316.19 50.23 316.20 C 50.27 321.46 50.24 326.73 50.25 332.00 C 47.42 332.00 44.58 332.00 41.75 332.00 C 41.75 318.83 41.75 305.67 41.75 292.50 M 50.31 298.99 C 50.23 302.59 50.15 306.19 50.42 309.78 C 51.56 309.21 53.09 308.74 52.81 307.11 C 52.62 304.40 54.22 299.56 50.31 298.99 Z" />
<path fill="#ffffff" opacity="1.00" d=" M 99.28 292.56 C 100.85 292.51 102.42 292.49 104.00 292.48 C 104.00 305.65 104.00 318.83 104.00 332.00 C 101.29 332.00 98.58 332.00 95.88 332.00 C 95.86 324.00 95.90 316.00 95.87 308.00 C 95.71 306.70 96.04 305.12 94.99 304.12 C 93.54 303.36 91.84 303.60 90.26 303.43 C 90.26 301.95 90.25 300.48 90.25 299.02 C 93.86 297.88 97.18 295.77 99.28 292.56 Z" />
<path fill="#ffff26" opacity="1.00" d=" M 218.23 331.97 C 218.34 318.80 218.12 305.62 218.34 292.44 C 221.11 292.52 223.88 292.52 226.65 292.44 C 226.91 302.99 226.63 313.55 226.79 324.10 C 228.54 324.13 230.29 324.15 232.04 324.21 C 232.06 326.81 231.95 329.41 231.85 332.01 C 227.31 331.99 222.77 332.02 218.23 331.97 Z" />
<path fill="#66df6b" opacity="0.88" d=" M 239.95 293.69 C 242.86 293.71 241.55 297.27 243.50 298.39 C 244.96 300.14 248.39 299.56 248.36 302.47 C 245.84 302.23 243.33 301.44 241.62 299.47 C 241.46 299.22 241.14 298.71 240.98 298.45 C 240.86 298.03 240.63 297.18 240.51 296.76 L 239.68 296.69 C 239.74 295.94 239.88 294.44 239.95 293.69 Z" />
<path fill="#51e759" opacity="0.91" d=" M 254.13 298.08 C 255.58 296.65 255.10 293.42 257.70 293.38 C 257.43 295.40 256.88 297.38 256.22 299.31 L 255.82 299.75 L 255.34 300.17 C 253.64 301.47 251.58 302.15 249.51 302.57 C 248.90 299.49 253.03 300.19 254.13 298.08 Z" />
<path fill="#347237" opacity="0.46" d=" M 239.68 296.69 L 240.51 296.76 C 240.63 297.18 240.86 298.03 240.98 298.45 C 240.65 298.01 240.00 297.13 239.68 296.69 Z" />
<path fill="#c26d3f" opacity="1.00" d=" M 256.22 299.31 C 256.67 299.28 257.57 299.22 258.02 299.19 C 255.00 303.38 249.41 305.78 244.44 303.68 L 244.43 302.62 C 247.97 303.94 253.45 304.03 255.34 300.17 L 255.82 299.75 L 256.22 299.31 Z" />
<path fill="#b95c60" opacity="0.76" d=" M 243.45 302.22 C 244.05 302.83 244.05 302.83 243.45 302.22 Z" />
<path fill="#ffffff" opacity="1.00" d=" M 106.24 324.02 C 108.28 324.00 110.33 323.99 112.38 324.00 C 112.38 326.66 112.38 329.34 112.38 332.01 C 110.32 332.00 108.27 331.99 106.22 331.96 C 106.26 329.31 106.26 326.66 106.24 324.02 Z" />
<path fill="#ffffff" opacity="1.00" d=" M 134.75 324.00 C 136.79 324.00 138.84 324.00 140.88 324.01 C 140.87 326.67 140.87 329.33 140.88 331.99 C 138.83 332.00 136.79 332.00 134.75 332.00 C 134.75 329.33 134.75 326.66 134.75 324.00 Z" />
<path fill="#ffff26" opacity="1.00" d=" M 232.78 324.00 C 234.81 324.00 236.84 324.00 238.88 324.01 C 238.87 326.66 238.87 329.33 238.88 331.99 C 236.84 331.99 234.79 332.00 232.75 332.00 C 232.76 329.33 232.79 326.66 232.78 324.00 Z" />
</svg>
