<?xml version="1.0" encoding="UTF-8" ?>
<!DOCTYPE svg PUBLIC "-//W3C//DTD SVG 1.1//EN" "http://www.w3.org/Graphics/SVG/1.1/DTD/svg11.dtd">
<svg width="960pt" height="540pt" viewBox="0 0 960 540" version="1.1" xmlns="http://www.w3.org/2000/svg">
<path fill="#441218" opacity="1.00" d=" M 639.45 30.91 C 639.91 31.74 640.34 32.59 640.75 33.46 C 641.67 36.71 641.53 40.11 641.20 43.44 C 640.73 49.11 643.10 54.78 641.17 60.40 L 640.31 58.32 C 640.41 56.82 640.54 55.32 640.67 53.82 C 640.27 55.32 639.91 56.81 639.54 58.31 C 638.74 58.81 637.94 59.31 637.15 59.82 L 636.58 60.18 C 636.11 57.70 636.47 55.21 637.11 52.81 C 636.57 51.89 636.05 50.98 635.50 50.09 C 634.64 48.83 633.85 47.48 632.66 46.50 C 629.72 46.06 626.73 46.35 623.78 46.35 C 623.99 45.90 624.41 45.01 624.62 44.57 C 627.26 46.19 630.31 45.05 633.04 44.31 C 633.24 42.22 633.48 40.13 633.74 38.04 C 632.91 38.01 631.24 37.96 630.41 37.93 C 630.32 37.75 630.13 37.39 630.04 37.21 C 632.08 37.36 633.58 36.21 635.02 35.15 C 636.25 36.79 637.37 38.56 639.01 39.86 C 639.26 36.88 639.28 33.89 639.45 30.91 M 635.78 38.86 L 635.49 40.38 C 638.69 41.18 635.31 43.95 634.83 45.63 L 635.75 45.90 C 635.83 45.30 636.00 44.09 636.08 43.49 C 637.74 44.77 638.45 46.62 638.61 48.67 C 638.01 48.63 636.81 48.57 636.22 48.53 C 637.78 49.94 638.76 51.81 638.46 53.97 C 638.67 51.51 639.51 51.13 641.00 52.85 C 636.98 49.07 640.16 42.30 635.78 38.86 Z" />
<path fill="#0a0909" opacity="1.00" d=" M 667.99 33.58 C 669.65 33.89 670.58 32.21 671.80 31.43 C 671.75 33.11 671.71 34.79 671.66 36.47 L 670.68 36.15 C 667.57 35.21 668.40 40.15 671.13 39.72 C 671.16 40.63 671.22 42.45 671.25 43.36 C 667.07 42.66 662.43 43.82 658.61 41.74 C 661.21 39.67 664.66 40.67 667.70 40.55 C 667.84 39.51 667.99 38.47 668.16 37.44 L 667.89 37.51 C 664.74 37.22 661.61 36.89 658.49 36.50 C 658.82 36.10 659.47 35.29 659.80 34.89 C 658.59 33.53 656.50 33.58 655.45 35.09 C 654.41 35.18 653.37 35.27 652.34 35.36 C 652.41 35.86 652.53 36.87 652.59 37.38 C 649.54 36.63 646.39 36.77 643.32 37.25 C 643.21 38.01 642.99 39.53 642.88 40.28 C 642.35 41.35 641.75 42.39 641.20 43.44 C 641.53 40.11 641.67 36.71 640.75 33.46 C 649.83 33.60 658.91 33.44 667.99 33.58 Z" />
<path fill="#a8d9d7" opacity="1.00" d=" M 655.45 35.09 C 656.50 33.58 658.59 33.53 659.80 34.89 C 659.47 35.29 658.82 36.10 658.49 36.50 C 657.33 36.43 656.40 35.65 655.45 35.09 Z" />
<path fill="#d01a1e" opacity="1.00" d=" M 652.34 35.36 C 653.37 35.27 654.41 35.18 655.45 35.09 C 656.40 35.65 657.33 36.43 658.49 36.50 C 661.61 36.89 664.74 37.22 667.89 37.51 C 666.12 38.09 664.35 38.64 662.51 38.87 C 660.47 38.48 658.40 38.42 656.37 38.16 C 656.10 37.71 655.57 36.81 655.31 36.36 C 655.11 37.06 654.73 38.46 654.54 39.17 C 653.88 38.57 653.23 37.98 652.59 37.38 C 652.53 36.87 652.41 35.86 652.34 35.36 Z" />
<path fill="#080030" opacity="1.00" d=" M 676.09 34.77 C 676.48 35.18 677.27 36.01 677.67 36.42 C 679.14 36.31 680.61 36.21 682.09 36.11 C 686.98 38.08 692.45 36.64 697.28 38.81 C 698.48 40.29 698.02 42.21 698.06 43.96 C 696.79 44.33 696.38 45.67 696.05 46.79 L 695.14 46.83 C 695.23 46.18 695.41 44.87 695.50 44.22 L 695.34 43.02 C 695.26 42.48 695.10 41.40 695.03 40.86 C 695.22 42.33 695.88 42.94 696.99 42.70 C 697.45 41.30 696.65 39.94 695.51 39.16 C 692.36 38.36 692.16 40.55 692.28 42.87 L 691.95 42.84 C 691.87 41.51 691.79 40.18 691.72 38.84 C 689.14 38.69 686.58 38.50 684.02 38.27 C 684.09 38.93 684.22 40.25 684.29 40.91 C 684.09 40.60 683.69 40.00 683.50 39.70 C 683.41 39.23 683.23 38.28 683.14 37.81 C 680.95 37.67 678.77 37.52 676.59 37.36 C 677.28 39.58 677.76 41.90 677.38 44.24 C 677.21 45.04 677.04 45.83 676.87 46.63 C 676.08 47.78 675.25 48.90 674.47 50.05 C 673.67 51.55 672.41 53.15 672.90 54.96 C 673.62 58.71 674.69 62.39 675.93 66.01 C 674.54 65.63 673.16 65.24 671.79 64.86 C 671.44 59.57 669.78 54.14 671.47 48.93 L 671.58 48.47 C 676.34 48.53 674.72 43.01 674.49 39.97 C 674.04 40.44 673.14 41.37 672.69 41.83 C 672.50 41.26 672.12 40.10 671.94 39.52 C 673.23 37.87 674.71 36.37 676.09 34.77 Z" />
<path fill="#aaaaa9" opacity="1.00" d=" M 655.31 36.36 C 655.57 36.81 656.10 37.71 656.37 38.16 C 656.33 38.62 656.27 39.52 656.23 39.97 C 655.94 40.08 655.36 40.29 655.08 40.39 C 654.94 40.08 654.67 39.47 654.54 39.17 C 654.73 38.46 655.11 37.06 655.31 36.36 Z" />
<path fill="#25373d" opacity="1.00" d=" M 671.13 39.72 C 668.40 40.15 667.57 35.21 670.68 36.15 C 671.02 37.31 671.17 38.50 671.13 39.72 Z" />
<path fill="#9c3834" opacity="1.00" d=" M 670.68 36.15 L 671.66 36.47 C 671.73 37.23 671.87 38.76 671.94 39.52 C 672.12 40.10 672.50 41.26 672.69 41.83 C 672.20 42.34 671.72 42.85 671.25 43.36 C 671.22 42.45 671.16 40.63 671.13 39.72 C 671.17 38.50 671.02 37.31 670.68 36.15 Z" />
<path fill="#171511" opacity="1.00" d=" M 621.10 37.82 C 624.02 37.13 627.04 37.13 630.04 37.21 C 630.13 37.39 630.32 37.75 630.41 37.93 C 630.47 38.42 630.61 39.40 630.67 39.89 C 629.30 37.56 625.89 39.47 623.70 39.02 C 623.47 39.03 623.00 39.05 622.76 39.07 C 622.27 40.43 621.76 41.78 621.17 43.09 C 621.16 42.13 621.15 40.20 621.14 39.24 C 618.26 39.61 615.38 40.02 612.53 40.53 C 612.40 42.51 612.27 44.48 612.27 46.46 L 612.28 47.01 C 613.37 47.15 614.47 47.27 615.58 47.38 C 615.10 47.84 614.15 48.77 613.67 49.23 C 614.99 50.12 616.24 51.38 617.97 51.31 C 623.81 51.44 629.86 52.02 635.50 50.09 C 636.05 50.98 636.57 51.89 637.11 52.81 C 636.47 55.21 636.11 57.70 636.58 60.18 C 636.38 60.65 635.97 61.59 635.76 62.06 C 633.59 67.15 632.49 72.59 631.06 77.91 C 629.73 77.78 628.41 77.68 627.09 77.59 C 621.03 77.22 614.95 76.78 608.89 77.38 C 610.83 77.64 612.77 77.88 614.73 78.11 C 614.69 78.35 614.62 78.83 614.59 79.07 C 613.12 79.04 611.66 79.01 610.20 78.98 C 609.68 79.35 608.63 80.07 608.10 80.43 C 608.90 80.94 609.71 81.45 610.53 81.96 C 608.16 81.88 605.79 81.91 603.43 81.92 C 604.68 81.27 605.94 80.60 607.19 79.92 C 605.03 79.71 603.12 80.68 601.32 81.74 C 600.25 82.23 599.20 82.73 598.15 83.23 C 597.59 83.16 596.48 83.01 595.92 82.93 C 598.54 81.46 601.38 80.41 603.98 78.88 C 604.10 78.38 604.35 77.39 604.47 76.90 L 604.58 77.05 C 605.06 77.14 606.02 77.31 606.50 77.40 C 606.99 77.15 607.98 76.63 608.47 76.37 C 610.80 69.21 613.62 62.21 615.70 54.97 C 614.99 52.03 612.13 50.34 610.50 47.94 C 610.67 44.63 610.88 41.33 610.95 38.02 C 614.13 39.81 617.79 38.40 621.10 37.82 M 617.77 62.16 L 618.00 62.71 C 616.44 66.13 615.29 69.70 614.47 73.37 C 620.03 73.69 625.59 73.91 631.16 74.08 C 632.00 70.60 632.74 67.10 633.43 63.58 L 633.90 63.87 C 634.11 61.85 634.29 59.83 634.44 57.81 C 629.95 57.56 625.39 57.25 620.94 58.08 C 619.05 58.50 618.71 60.78 617.77 62.16 Z" />
<path fill="#b46c2d" opacity="1.00" d=" M 643.32 37.25 C 646.39 36.77 649.54 36.63 652.59 37.38 C 653.23 37.98 653.88 38.57 654.54 39.17 C 654.67 39.47 654.94 40.08 655.08 40.39 C 654.69 40.53 653.92 40.82 653.53 40.96 C 650.03 40.21 646.44 40.17 642.88 40.28 C 642.99 39.53 643.21 38.01 643.32 37.25 Z" />
<path fill="#a1a227" opacity="1.00" d=" M 667.89 37.51 L 668.16 37.44 C 667.99 38.47 667.84 39.51 667.70 40.55 C 664.66 40.67 661.21 39.67 658.61 41.74 L 658.21 41.43 C 657.59 40.88 656.93 40.39 656.23 39.97 C 656.27 39.52 656.33 38.62 656.37 38.16 C 658.40 38.42 660.47 38.48 662.51 38.87 C 664.35 38.64 666.12 38.09 667.89 37.51 Z" />
<path fill="#bc9262" opacity="1.00" d=" M 630.41 37.93 C 631.24 37.96 632.91 38.01 633.74 38.04 C 633.48 40.13 633.24 42.22 633.04 44.31 C 630.31 45.05 627.26 46.19 624.62 44.57 C 624.41 45.01 623.99 45.90 623.78 46.35 C 622.06 46.51 620.39 46.13 618.92 45.26 C 619.05 44.96 619.30 44.36 619.43 44.06 C 620.01 43.74 620.59 43.42 621.17 43.09 C 621.76 41.78 622.27 40.43 622.76 39.07 C 623.00 39.05 623.47 39.03 623.70 39.02 C 624.95 40.52 626.03 42.15 627.10 43.79 C 628.35 43.08 629.60 42.38 630.87 41.68 C 630.82 41.23 630.72 40.34 630.67 39.89 C 630.61 39.40 630.47 38.42 630.41 37.93 Z" />
<path fill="#c384d8" opacity="1.00" d=" M 676.59 37.36 C 678.77 37.52 680.95 37.67 683.14 37.81 C 683.23 38.28 683.41 39.23 683.50 39.70 C 680.68 39.56 679.83 41.53 679.74 43.97 C 679.15 44.04 677.97 44.17 677.38 44.24 C 677.76 41.90 677.28 39.58 676.59 37.36 Z" />
<path fill="#e5dade" opacity="1.00" d=" M 684.02 38.27 C 686.58 38.50 689.14 38.69 691.72 38.84 C 691.79 40.18 691.87 41.51 691.95 42.84 C 691.66 42.81 691.07 42.73 690.77 42.69 C 690.24 42.04 689.17 40.74 688.64 40.09 C 688.88 41.79 689.09 43.49 689.27 45.20 C 688.17 44.59 687.14 43.89 686.17 43.11 C 686.45 44.26 686.92 45.35 687.17 46.52 C 686.68 46.41 685.69 46.19 685.20 46.08 C 685.07 45.52 684.83 44.39 684.70 43.83 C 683.37 43.53 682.07 43.21 680.77 42.89 C 682.23 42.68 683.71 42.49 685.20 42.30 C 684.97 41.95 684.51 41.26 684.29 40.91 C 684.22 40.25 684.09 38.93 684.02 38.27 Z" />
<path fill="#191c17" opacity="1.00" d=" M 697.08 38.41 C 697.55 38.22 698.51 37.82 698.98 37.62 C 699.50 41.05 699.80 44.54 699.57 48.01 C 697.98 50.39 695.40 52.14 694.54 54.97 C 696.02 61.61 699.66 67.51 701.00 74.19 C 700.89 75.28 700.77 76.37 700.64 77.46 C 700.32 77.49 699.67 77.56 699.35 77.59 C 696.31 77.14 693.25 76.79 690.19 76.87 C 686.53 76.94 682.87 76.91 679.21 76.83 C 678.72 74.27 678.17 71.71 677.28 69.27 C 676.82 68.18 676.37 67.09 675.93 66.01 C 674.69 62.39 673.62 58.71 672.90 54.96 C 672.41 53.15 673.67 51.55 674.47 50.05 C 674.84 51.12 675.27 52.17 675.75 53.20 C 678.79 53.85 681.92 53.61 685.00 53.86 C 688.16 53.91 691.75 54.61 694.37 52.37 C 695.95 50.70 697.21 48.74 697.93 46.55 C 697.96 45.90 698.02 44.61 698.06 43.96 C 698.02 42.21 698.48 40.29 697.28 38.81 L 697.08 38.41 M 675.90 57.10 C 675.76 62.90 678.49 68.22 680.21 73.63 C 682.41 73.68 684.62 73.79 686.83 73.66 C 686.76 73.37 686.62 72.81 686.55 72.53 C 687.71 72.58 688.89 72.64 690.06 72.73 C 692.05 72.98 694.06 73.07 696.08 73.04 C 695.51 70.08 694.72 67.16 693.68 64.34 C 692.66 61.81 691.98 58.69 689.14 57.59 C 688.70 57.63 687.83 57.71 687.39 57.74 C 683.72 56.32 679.72 57.11 675.90 57.10 Z" />
<path fill="#e1ce88" opacity="1.00" d=" M 623.70 39.02 C 625.89 39.47 629.30 37.56 630.67 39.89 C 630.72 40.34 630.82 41.23 630.87 41.68 C 629.60 42.38 628.35 43.08 627.10 43.79 C 626.03 42.15 624.95 40.52 623.70 39.02 Z" />
<path fill="#646462" opacity="1.00" d=" M 465.04 51.93 C 470.46 48.11 475.60 43.90 481.08 40.17 C 487.96 41.23 494.81 42.68 501.65 44.04 C 499.71 46.13 497.54 47.98 495.20 49.59 C 496.58 49.77 497.96 49.96 499.36 50.16 C 498.54 51.32 498.49 53.43 496.97 53.85 C 493.90 53.65 491.00 52.36 487.92 52.36 C 485.06 52.56 482.34 53.58 479.60 54.32 C 479.53 54.88 479.40 55.99 479.33 56.55 C 476.73 55.12 475.50 52.50 475.51 49.58 C 475.28 50.85 475.04 52.12 474.80 53.39 C 473.44 53.77 471.94 53.99 470.87 55.00 C 470.91 59.63 473.24 63.89 477.20 66.32 C 471.28 64.55 465.93 61.25 459.90 59.85 C 457.27 59.53 454.61 59.48 451.98 59.65 C 453.22 59.54 454.45 59.45 455.71 59.35 C 458.49 56.50 461.88 54.35 465.04 51.93 M 480.30 42.18 C 477.34 43.74 481.38 45.12 482.49 43.22 C 483.76 41.78 481.06 41.35 480.30 42.18 M 461.73 57.92 C 464.13 58.63 466.57 59.24 469.03 59.75 C 468.94 57.72 467.77 55.56 465.82 54.85 C 464.13 55.38 462.98 56.78 461.73 57.92 Z" />
<path fill="#cca76f" opacity="1.00" d=" M 612.53 40.53 C 615.38 40.02 618.26 39.61 621.14 39.24 C 621.15 40.20 621.16 42.13 621.17 43.09 C 620.59 43.42 620.01 43.74 619.43 44.06 C 619.30 44.36 619.05 44.96 618.92 45.26 L 618.49 46.23 C 616.41 46.39 614.34 46.42 612.27 46.46 C 612.27 44.48 612.40 42.51 612.53 40.53 Z" />
<path fill="#cca76f" opacity="1.00" d=" M 635.78 38.86 C 640.16 42.30 636.98 49.07 641.00 52.85 C 639.51 51.13 638.67 51.51 638.46 53.97 C 638.76 51.81 637.78 49.94 636.22 48.53 C 636.81 48.57 638.01 48.63 638.61 48.67 C 638.45 46.62 637.74 44.77 636.08 43.49 C 636.00 44.09 635.83 45.30 635.75 45.90 L 634.83 45.63 C 635.31 43.95 638.69 41.18 635.49 40.38 L 635.78 38.86 Z" />
<path fill="#191a14" opacity="1.00" d=" M 642.88 40.28 C 646.44 40.17 650.03 40.21 653.53 40.96 L 653.21 41.53 C 651.71 42.13 650.24 42.73 648.76 43.35 C 650.49 43.35 652.24 43.38 653.98 43.20 C 654.28 43.01 654.88 42.63 655.18 42.44 C 655.94 42.19 657.45 41.68 658.21 41.43 L 658.61 41.74 C 662.43 43.82 667.07 42.66 671.25 43.36 C 671.72 42.85 672.20 42.34 672.69 41.83 C 673.14 41.37 674.04 40.44 674.49 39.97 C 674.72 43.01 676.34 48.53 671.58 48.47 L 671.34 48.52 L 671.31 48.71 L 671.47 48.93 C 669.78 54.14 671.44 59.57 671.79 64.86 L 671.91 65.94 C 671.88 66.63 671.82 68.02 671.79 68.71 C 671.78 70.79 671.68 72.88 671.87 74.96 C 672.47 76.78 673.26 78.53 674.19 80.21 C 674.00 80.90 673.61 82.29 673.42 82.98 C 673.33 82.81 673.15 82.45 673.06 82.27 C 672.19 81.11 671.60 79.36 670.04 78.99 C 666.59 78.61 663.12 79.03 659.67 78.95 C 654.77 78.81 649.87 78.53 644.98 78.90 C 643.27 79.01 641.57 79.13 639.88 79.25 C 640.49 72.98 640.90 66.69 641.17 60.40 C 643.10 54.78 640.73 49.11 641.20 43.44 C 641.75 42.39 642.35 41.35 642.88 40.28 M 673.22 43.55 C 672.37 44.84 672.57 45.63 673.84 45.90 C 674.68 44.61 674.47 43.83 673.22 43.55 M 641.54 45.93 C 642.69 48.13 643.83 51.74 646.98 51.29 C 653.34 51.15 659.72 51.44 666.08 51.17 C 669.35 51.09 669.18 47.18 670.04 44.88 C 661.01 44.37 651.95 44.52 642.92 44.69 C 642.57 45.00 641.88 45.62 641.54 45.93 M 645.09 57.12 C 644.87 59.92 643.14 63.43 645.07 65.87 L 644.68 67.16 L 644.10 67.22 C 643.84 69.72 643.78 72.24 643.97 74.76 C 651.85 74.67 659.73 74.95 667.60 74.63 C 667.63 72.48 667.65 70.33 667.67 68.18 C 665.72 67.82 663.79 67.36 661.82 67.22 C 663.35 67.21 664.89 67.18 666.44 67.14 C 666.04 65.93 665.64 64.73 665.26 63.52 C 664.93 63.50 664.26 63.47 663.93 63.46 C 664.71 63.30 666.27 62.98 667.05 62.81 C 666.73 60.62 667.46 56.93 664.36 56.57 C 658.00 55.53 651.40 55.82 645.09 57.12 Z" />
<path fill="#b6363e" opacity="1.00" d=" M 656.23 39.97 C 656.93 40.39 657.59 40.88 658.21 41.43 C 657.45 41.68 655.94 42.19 655.18 42.44 C 654.69 42.22 653.70 41.76 653.21 41.53 L 653.53 40.96 C 653.92 40.82 654.69 40.53 655.08 40.39 C 655.36 40.29 655.94 40.08 656.23 39.97 Z" />
<path fill="#874f9d" opacity="1.00" d=" M 679.74 43.97 C 679.83 41.53 680.68 39.56 683.50 39.70 C 683.69 40.00 684.09 40.60 684.29 40.91 C 684.51 41.26 684.97 41.95 685.20 42.30 C 683.71 42.49 682.23 42.68 680.77 42.89 C 682.07 43.21 683.37 43.53 684.70 43.83 C 684.83 44.39 685.07 45.52 685.20 46.08 C 683.18 45.91 681.16 45.83 679.15 45.77 C 678.71 45.39 677.82 44.62 677.38 44.24 C 677.97 44.17 679.15 44.04 679.74 43.97 Z" />
<path fill="#aa67ca" opacity="1.00" d=" M 692.28 42.87 C 692.16 40.55 692.36 38.36 695.51 39.16 C 696.65 39.94 697.45 41.30 696.99 42.70 C 695.88 42.94 695.22 42.33 695.03 40.86 C 695.10 41.40 695.26 42.48 695.34 43.02 C 694.57 42.98 693.04 42.91 692.28 42.87 Z" />
<path fill="#9c8498" opacity="1.00" d=" M 688.64 40.09 C 689.17 40.74 690.24 42.04 690.77 42.69 C 691.07 42.73 691.66 42.81 691.95 42.84 L 692.28 42.87 C 693.04 42.91 694.57 42.98 695.34 43.02 L 695.50 44.22 C 693.98 43.62 692.09 45.42 693.29 46.85 C 691.97 46.84 690.66 46.85 689.36 46.88 C 689.32 46.32 689.28 45.76 689.27 45.20 C 689.09 43.49 688.88 41.79 688.64 40.09 Z" />
<path fill="#474746" opacity="1.00" d=" M 480.30 42.18 C 481.06 41.35 483.76 41.78 482.49 43.22 C 481.38 45.12 477.34 43.74 480.30 42.18 Z" />
<path fill="#a8d9d7" opacity="1.00" d=" M 648.76 43.35 C 650.24 42.73 651.71 42.13 653.21 41.53 C 653.70 41.76 654.69 42.22 655.18 42.44 C 654.88 42.63 654.28 43.01 653.98 43.20 C 652.24 43.38 650.49 43.35 648.76 43.35 Z" />
<path fill="#947e7c" opacity="1.00" d=" M 673.22 43.55 C 674.47 43.83 674.68 44.61 673.84 45.90 C 672.57 45.63 672.37 44.84 673.22 43.55 Z" />
<path fill="#3f3f40" opacity="1.00" d=" M 687.17 46.52 C 686.92 45.35 686.45 44.26 686.17 43.11 C 687.14 43.89 688.17 44.59 689.27 45.20 C 689.28 45.76 689.32 46.32 689.36 46.88 C 690.66 46.85 691.97 46.84 693.29 46.85 C 693.75 46.84 694.68 46.84 695.14 46.83 L 696.05 46.79 C 696.52 46.73 697.46 46.61 697.93 46.55 C 697.21 48.74 695.95 50.70 694.37 52.37 C 688.72 51.19 682.95 50.75 677.19 50.71 C 677.06 49.35 676.95 47.99 676.87 46.63 C 677.04 45.83 677.21 45.04 677.38 44.24 C 677.82 44.62 678.71 45.39 679.15 45.77 C 681.16 45.83 683.18 45.91 685.20 46.08 C 685.69 46.19 686.68 46.41 687.17 46.52 Z" />
<path fill="#5b5b5a" opacity="1.00" d=" M 501.65 44.04 C 510.24 45.98 518.52 49.09 527.07 51.22 C 526.01 53.39 525.26 55.69 525.05 58.10 C 527.36 56.76 529.25 54.87 530.87 52.76 C 531.56 52.89 532.94 53.16 533.63 53.30 C 525.84 59.46 518.96 66.65 511.76 73.46 C 511.30 73.64 510.38 74.01 509.93 74.20 C 505.25 72.83 500.52 71.64 495.81 70.40 C 497.30 69.83 498.80 69.26 500.32 68.74 C 500.60 68.68 501.17 68.56 501.45 68.50 C 504.12 69.25 506.72 70.86 509.56 70.70 C 511.01 69.72 512.18 68.40 513.40 67.16 C 512.47 67.06 510.60 66.87 509.67 66.78 C 514.27 63.34 519.14 60.10 522.91 55.71 C 523.52 53.51 521.18 52.55 519.60 51.84 C 518.91 51.24 518.23 50.63 517.55 50.03 C 514.81 54.66 510.60 59.09 505.00 59.82 C 496.40 61.07 487.12 60.83 479.33 56.55 C 479.40 55.99 479.53 54.88 479.60 54.32 C 482.34 53.58 485.06 52.56 487.92 52.36 C 491.00 52.36 493.90 53.65 496.97 53.85 C 498.49 53.43 498.54 51.32 499.36 50.16 C 497.96 49.96 496.58 49.77 495.20 49.59 C 497.54 47.98 499.71 46.13 501.65 44.04 Z" />
<path fill="#cd8cd7" opacity="1.00" d=" M 693.29 46.85 C 692.09 45.42 693.98 43.62 695.50 44.22 C 695.41 44.87 695.23 46.18 695.14 46.83 C 694.68 46.84 693.75 46.84 693.29 46.85 Z" />
<path fill="#9f45d6" opacity="1.00" d=" M 696.05 46.79 C 696.38 45.67 696.79 44.33 698.06 43.96 C 698.02 44.61 697.96 45.90 697.93 46.55 C 697.46 46.61 696.52 46.73 696.05 46.79 Z" />
<path fill="#302b2a" opacity="1.00" d=" M 618.92 45.26 C 620.39 46.13 622.06 46.51 623.78 46.35 C 626.73 46.35 629.72 46.06 632.66 46.50 C 633.85 47.48 634.64 48.83 635.50 50.09 C 629.86 52.02 623.81 51.44 617.97 51.31 C 616.24 51.38 614.99 50.12 613.67 49.23 C 614.15 48.77 615.10 47.84 615.58 47.38 C 614.47 47.27 613.37 47.15 612.28 47.01 L 612.27 46.46 C 614.34 46.42 616.41 46.39 618.49 46.23 L 618.92 45.26 Z" />
<path fill="#3c3a39" opacity="1.00" d=" M 641.54 45.93 C 641.88 45.62 642.57 45.00 642.92 44.69 C 651.95 44.52 661.01 44.37 670.04 44.88 C 669.18 47.18 669.35 51.09 666.08 51.17 C 659.72 51.44 653.34 51.15 646.98 51.29 C 643.83 51.74 642.69 48.13 641.54 45.93 Z" />
<path fill="#2e2e2c" opacity="1.00" d=" M 674.47 50.05 C 675.25 48.90 676.08 47.78 676.87 46.63 C 676.95 47.99 677.06 49.35 677.19 50.71 C 682.95 50.75 688.72 51.19 694.37 52.37 C 691.75 54.61 688.16 53.91 685.00 53.86 C 681.92 53.61 678.79 53.85 675.75 53.20 C 675.27 52.17 674.84 51.12 674.47 50.05 Z" />
<path fill="#6a6077" opacity="1.00" d=" M 671.34 48.52 L 671.58 48.47 L 671.47 48.93 L 671.31 48.71 L 671.34 48.52 Z" />
<path fill="#3d3b3b" opacity="1.00" d=" M 474.80 53.39 C 475.04 52.12 475.28 50.85 475.51 49.58 C 475.50 52.50 476.73 55.12 479.33 56.55 C 487.12 60.83 496.40 61.07 505.00 59.82 C 510.60 59.09 514.81 54.66 517.55 50.03 C 518.23 50.63 518.91 51.24 519.60 51.84 C 516.61 55.80 512.55 58.71 508.49 61.47 C 505.27 61.11 502.03 61.32 498.88 62.01 C 499.01 63.83 499.15 65.65 499.28 67.48 C 497.07 67.90 494.81 67.98 492.58 67.93 C 492.89 65.96 493.22 63.99 493.55 62.02 C 490.04 61.12 486.50 60.04 482.84 60.19 C 481.26 61.58 480.96 63.81 480.19 65.66 C 482.36 66.41 484.50 67.22 486.72 67.81 C 491.14 69.08 495.78 68.62 500.32 68.74 C 498.80 69.26 497.30 69.83 495.81 70.40 C 500.52 71.64 505.25 72.83 509.93 74.20 C 509.86 76.14 509.91 78.09 509.97 80.03 C 510.45 79.74 511.42 79.17 511.91 78.88 C 511.86 77.07 511.80 75.26 511.76 73.46 C 518.96 66.65 525.84 59.46 533.63 53.30 C 533.83 57.26 533.89 61.23 533.56 65.19 C 529.95 67.00 528.30 71.45 524.16 72.32 C 529.94 74.73 536.11 75.93 542.03 77.95 L 541.58 79.45 C 539.03 78.68 536.48 77.96 533.94 77.23 C 531.79 78.38 529.67 79.57 527.58 80.82 C 523.43 80.21 518.99 79.08 514.95 80.75 C 506.47 85.45 498.01 90.20 489.62 95.05 C 491.63 97.25 493.67 99.42 495.77 101.54 C 493.81 103.12 491.88 104.72 489.92 106.29 C 490.76 107.33 491.60 108.37 492.43 109.43 L 491.01 109.07 C 489.68 108.09 488.79 106.70 487.90 105.35 C 485.99 104.40 484.05 103.51 482.10 102.65 C 480.87 102.08 479.68 101.47 478.48 100.86 C 478.33 104.84 480.10 110.34 476.00 112.82 C 475.51 107.96 475.30 102.92 476.09 98.10 C 484.37 93.37 492.81 88.83 501.44 84.73 C 502.28 84.27 503.12 83.80 503.96 83.33 C 499.31 81.84 494.82 79.85 490.05 78.77 C 490.62 77.72 491.52 76.77 491.65 75.53 C 489.36 74.53 486.89 74.09 484.45 73.69 C 485.28 74.89 486.13 76.09 486.99 77.29 C 486.21 77.19 484.67 77.00 483.90 76.90 C 483.26 76.74 482.00 76.41 481.36 76.25 C 481.68 74.78 482.00 73.31 482.32 71.85 C 479.94 70.92 477.56 69.82 474.99 69.65 C 473.48 70.29 472.57 71.76 471.42 72.84 C 470.85 72.37 470.29 71.88 469.75 71.40 C 468.88 71.51 468.02 71.63 467.17 71.75 C 466.19 67.02 463.27 63.17 459.90 59.85 C 465.93 61.25 471.28 64.55 477.20 66.32 C 473.24 63.89 470.91 59.63 470.87 55.00 C 471.94 53.99 473.44 53.77 474.80 53.39 M 481.88 101.04 C 484.03 100.87 487.96 102.17 488.27 99.01 C 486.32 99.23 481.14 97.64 481.88 101.04 Z" />
<path fill="#464645" opacity="0.94" d=" M 527.07 51.22 C 528.44 51.59 529.81 51.97 531.20 52.36 L 530.87 52.76 C 529.25 54.87 527.36 56.76 525.05 58.10 C 525.26 55.69 526.01 53.39 527.07 51.22 Z" />
<path fill="#272526" opacity="1.00" d=" M 519.60 51.84 C 521.18 52.55 523.52 53.51 522.91 55.71 C 519.14 60.10 514.27 63.34 509.67 66.78 C 506.86 66.98 504.14 67.74 501.45 68.50 C 501.17 68.56 500.60 68.68 500.32 68.74 C 495.78 68.62 491.14 69.08 486.72 67.81 C 488.67 67.87 490.62 67.89 492.58 67.93 C 494.81 67.98 497.07 67.90 499.28 67.48 C 502.36 66.86 505.48 66.40 508.50 65.49 C 508.61 64.15 508.49 62.81 508.49 61.47 C 512.55 58.71 516.61 55.80 519.60 51.84 Z" />
<path fill="#ffff26" opacity="1.00" d=" M 640.67 53.82 C 640.54 55.32 640.41 56.82 640.31 58.32 C 639.41 59.98 638.41 61.58 637.44 63.19 C 637.97 63.66 639.04 64.58 639.57 65.04 C 639.48 65.87 639.30 67.53 639.21 68.36 C 638.11 67.28 636.98 66.20 636.17 64.89 C 637.29 63.50 638.26 61.50 637.15 59.82 C 637.94 59.31 638.74 58.81 639.54 58.31 C 639.91 56.81 640.27 55.32 640.67 53.82 Z" />
<path fill="#acacaa" opacity="1.00" d=" M 461.73 57.92 C 462.98 56.78 464.13 55.38 465.82 54.85 C 467.77 55.56 468.94 57.72 469.03 59.75 C 466.57 59.24 464.13 58.63 461.73 57.92 Z" />
<path fill="#030031" opacity="1.00" d=" M 645.09 57.12 C 651.40 55.82 658.00 55.53 664.36 56.57 C 667.46 56.93 666.73 60.62 667.05 62.81 C 666.27 62.98 664.71 63.30 663.93 63.46 C 661.48 63.47 659.12 62.86 656.83 62.11 L 656.10 61.90 C 656.01 62.62 655.81 64.07 655.71 64.79 C 655.74 65.44 655.80 66.74 655.83 67.39 C 656.27 68.81 656.89 68.75 657.68 67.23 C 659.05 67.21 660.43 67.21 661.82 67.22 C 663.79 67.36 665.72 67.82 667.67 68.18 C 667.65 70.33 667.63 72.48 667.60 74.63 C 659.73 74.95 651.85 74.67 643.97 74.76 C 643.78 72.24 643.84 69.72 644.10 67.22 L 644.68 67.16 C 648.05 66.73 651.50 66.65 654.78 67.69 L 655.06 67.75 C 655.15 66.05 655.30 64.29 654.82 62.63 C 653.83 60.56 653.34 63.85 653.67 64.59 C 652.63 64.58 651.68 64.86 650.80 65.44 C 650.41 65.16 649.63 64.60 649.24 64.32 C 648.82 64.34 647.97 64.39 647.55 64.42 C 646.93 62.20 643.97 64.20 645.07 65.87 C 643.14 63.43 644.87 59.92 645.09 57.12 M 646.50 59.12 C 646.73 60.47 647.43 60.67 648.60 59.72 C 648.36 58.36 647.66 58.16 646.50 59.12 M 651.46 69.16 C 650.57 71.13 654.35 71.68 654.70 69.79 C 654.47 68.41 652.31 68.31 651.46 69.16 Z" />
<path fill="#0e1010" opacity="1.00" d=" M 675.90 57.10 C 679.72 57.11 683.72 56.32 687.39 57.74 C 685.29 57.91 683.25 58.42 681.33 59.26 C 680.17 58.77 679.01 58.27 677.86 57.77 C 678.97 61.20 679.81 64.71 680.27 68.29 C 681.06 68.14 682.66 67.84 683.45 67.69 L 683.88 68.32 C 684.17 68.75 684.74 69.62 685.02 70.05 C 685.53 70.87 686.04 71.70 686.55 72.53 C 686.62 72.81 686.76 73.37 686.83 73.66 C 684.62 73.79 682.41 73.68 680.21 73.63 C 678.49 68.22 675.76 62.90 675.90 57.10 Z" />
<path fill="#700e1a" opacity="1.00" d=" M 617.77 62.16 C 618.71 60.78 619.05 58.50 620.94 58.08 C 625.39 57.25 629.95 57.56 634.44 57.81 C 634.29 59.83 634.11 61.85 633.90 63.87 L 633.43 63.58 C 632.49 63.01 631.56 62.43 630.64 61.86 C 630.70 60.93 630.83 59.07 630.89 58.14 C 629.98 59.21 629.22 60.37 628.40 61.50 C 627.02 56.33 620.71 59.06 619.21 62.75 C 618.85 62.61 618.13 62.31 617.77 62.16 Z" />
<path fill="#392f2c" opacity="1.00" d=" M 677.86 57.77 C 679.01 58.27 680.17 58.77 681.33 59.26 C 683.25 58.42 685.29 57.91 687.39 57.74 C 687.83 57.71 688.70 57.63 689.14 57.59 C 689.77 61.17 690.80 64.79 693.63 67.28 C 692.44 69.10 691.25 70.92 690.06 72.73 C 688.89 72.64 687.71 72.58 686.55 72.53 C 686.04 71.70 685.53 70.87 685.02 70.05 L 685.21 68.04 C 686.24 68.87 687.35 69.63 688.38 70.48 C 688.83 70.28 689.74 69.88 690.19 69.68 C 689.23 65.31 684.69 63.16 683.24 58.93 C 684.31 61.52 686.22 63.85 686.38 66.75 C 685.93 66.42 685.02 65.78 684.56 65.46 C 684.43 65.81 684.16 66.51 684.03 66.87 C 683.43 66.38 682.24 65.41 681.64 64.93 C 682.23 65.86 682.83 66.78 683.45 67.69 C 682.66 67.84 681.06 68.14 680.27 68.29 C 679.81 64.71 678.97 61.20 677.86 57.77 M 687.26 59.15 C 685.89 59.25 685.78 61.61 687.18 61.76 C 688.52 61.70 688.64 59.26 687.26 59.15 Z" />
<path fill="#030102" opacity="1.00" d=" M 689.14 57.59 C 691.98 58.69 692.66 61.81 693.68 64.34 C 694.72 67.16 695.51 70.08 696.08 73.04 C 694.06 73.07 692.05 72.98 690.06 72.73 C 691.25 70.92 692.44 69.10 693.63 67.28 C 690.80 64.79 689.77 61.17 689.14 57.59 Z" />
<path fill="#b76b43" opacity="1.00" d=" M 628.40 61.50 C 629.22 60.37 629.98 59.21 630.89 58.14 C 630.83 59.07 630.70 60.93 630.64 61.86 C 630.50 63.09 630.33 64.31 630.11 65.53 C 627.96 65.45 625.81 65.53 623.69 65.88 C 622.14 65.74 620.61 65.55 619.08 65.34 C 618.72 64.46 618.35 63.58 618.00 62.71 L 617.77 62.16 C 618.13 62.31 618.85 62.61 619.21 62.75 C 620.71 59.06 627.02 56.33 628.40 61.50 Z" />
<path fill="#573015" opacity="1.00" d=" M 637.44 63.19 C 638.41 61.58 639.41 59.98 640.31 58.32 L 641.17 60.40 C 640.90 66.69 640.49 72.98 639.88 79.25 C 639.15 80.75 638.30 82.19 637.47 83.64 L 638.65 83.52 C 638.14 84.53 637.55 85.50 636.89 86.42 C 636.56 86.80 635.89 87.56 635.56 87.94 C 635.27 88.37 634.71 89.23 634.42 89.66 C 636.36 90.25 638.37 90.69 640.42 90.70 L 639.37 90.70 C 637.73 90.71 636.10 90.72 634.47 90.73 C 634.49 93.19 634.53 95.66 634.58 98.12 C 635.36 98.23 636.92 98.45 637.71 98.56 C 637.99 103.83 638.15 109.39 634.73 113.78 C 634.17 114.76 633.61 115.73 633.03 116.69 C 630.95 113.84 631.55 110.22 631.89 106.96 C 632.67 101.24 632.27 95.40 633.56 89.73 C 633.70 89.04 633.84 88.35 634.00 87.67 C 636.22 83.25 638.38 78.71 639.14 73.78 C 639.24 73.20 639.45 72.03 639.55 71.44 C 637.32 72.75 635.39 74.55 634.48 77.02 C 634.37 77.51 634.15 78.50 634.05 78.99 C 632.91 79.13 631.81 79.28 630.69 79.36 L 631.06 77.91 C 632.49 72.59 633.59 67.15 635.76 62.06 C 635.86 62.77 636.07 64.18 636.17 64.89 C 636.98 66.20 638.11 67.28 639.21 68.36 C 639.30 67.53 639.48 65.87 639.57 65.04 C 639.04 64.58 637.97 63.66 637.44 63.19 Z" />
<path fill="#1c2960" opacity="1.00" d=" M 646.50 59.12 C 647.66 58.16 648.36 58.36 648.60 59.72 C 647.43 60.67 646.73 60.47 646.50 59.12 Z" />
<path fill="#bfadb2" opacity="1.00" d=" M 683.24 58.93 C 684.69 63.16 689.23 65.31 690.19 69.68 C 689.74 69.88 688.83 70.28 688.38 70.48 C 687.35 69.63 686.24 68.87 685.21 68.04 L 685.02 70.05 C 684.74 69.62 684.17 68.75 683.88 68.32 L 683.45 67.69 C 682.83 66.78 682.23 65.86 681.64 64.93 C 682.24 65.41 683.43 66.38 684.03 66.87 C 684.16 66.51 684.43 65.81 684.56 65.46 C 685.02 65.78 685.93 66.42 686.38 66.75 C 686.22 63.85 684.31 61.52 683.24 58.93 Z" />
<path fill="#76545d" opacity="1.00" d=" M 687.26 59.15 C 688.64 59.26 688.52 61.70 687.18 61.76 C 685.78 61.61 685.89 59.25 687.26 59.15 Z" />
<path fill="#201f1f" opacity="1.00" d=" M 443.47 63.55 C 446.36 62.37 449.10 60.86 451.98 59.65 C 454.61 59.48 457.27 59.53 459.90 59.85 C 463.27 63.17 466.19 67.02 467.17 71.75 C 468.02 71.63 468.88 71.51 469.75 71.40 C 470.29 71.88 470.85 72.37 471.42 72.84 C 472.57 71.76 473.48 70.29 474.99 69.65 C 477.56 69.82 479.94 70.92 482.32 71.85 C 482.00 73.31 481.68 74.78 481.36 76.25 C 476.28 76.55 471.49 78.41 467.22 81.11 C 462.83 83.85 457.61 84.39 452.56 84.67 C 451.63 82.95 450.98 81.12 450.33 79.29 C 447.50 80.24 444.72 81.45 441.72 81.72 C 441.28 84.41 437.90 83.37 435.94 83.55 C 428.67 82.64 425.63 73.14 429.40 67.41 C 431.50 64.27 435.55 64.32 438.88 63.79 C 440.26 63.68 441.64 63.58 443.03 63.50 C 442.83 64.45 442.64 65.40 442.44 66.36 C 442.94 66.75 443.93 67.52 444.42 67.91 C 444.01 68.13 443.21 68.56 442.80 68.78 C 442.32 68.92 441.36 69.20 440.88 69.34 C 440.56 68.87 439.91 67.93 439.59 67.46 C 439.58 67.45 439.57 67.43 439.57 67.42 L 439.34 67.61 C 436.99 69.20 434.60 70.74 432.33 72.45 C 432.59 71.62 433.10 69.98 433.35 69.16 C 432.15 69.27 430.99 69.09 429.93 68.54 C 429.51 70.72 428.99 72.89 428.88 75.11 C 429.34 76.73 430.58 77.95 431.51 79.32 L 431.80 79.74 C 432.53 79.27 433.27 78.80 434.01 78.33 C 439.41 81.27 444.79 76.94 450.21 76.22 C 453.96 75.24 458.06 75.31 461.59 73.64 C 464.52 71.61 463.81 67.87 462.01 65.35 C 461.68 65.52 461.01 65.87 460.68 66.05 C 459.65 65.04 458.63 64.04 457.58 63.08 C 457.28 62.82 456.67 62.30 456.37 62.04 C 455.08 60.21 452.18 61.70 453.14 63.80 C 451.25 63.35 449.33 63.63 447.88 64.98 C 446.41 64.49 444.95 63.98 443.47 63.55 M 435.06 66.25 C 433.66 69.34 438.35 66.28 435.06 66.25 M 464.89 73.39 C 463.88 74.80 462.78 76.14 461.61 77.42 C 460.40 77.53 459.19 77.66 457.99 77.81 C 456.51 78.22 455.00 78.50 453.49 78.70 C 453.43 80.06 453.38 81.41 453.34 82.77 C 460.29 83.39 469.76 81.24 472.09 73.73 C 469.69 73.56 467.29 73.46 464.89 73.39 Z" />
<path fill="#777776" opacity="1.00" d=" M 480.19 65.66 C 480.96 63.81 481.26 61.58 482.84 60.19 C 486.50 60.04 490.04 61.12 493.55 62.02 C 493.22 63.99 492.89 65.96 492.58 67.93 C 490.62 67.89 488.67 67.87 486.72 67.81 C 484.50 67.22 482.36 66.41 480.19 65.66 M 484.18 62.35 C 483.05 63.09 483.99 65.78 485.23 64.26 C 486.25 63.50 485.46 60.98 484.18 62.35 Z" />
<path fill="#e5dade" opacity="1.00" d=" M 636.58 60.18 L 637.15 59.82 C 638.26 61.50 637.29 63.50 636.17 64.89 C 636.07 64.18 635.86 62.77 635.76 62.06 C 635.97 61.59 636.38 60.65 636.58 60.18 Z" />
<path fill="#546b95" opacity="1.00" d=" M 453.14 63.80 C 452.18 61.70 455.08 60.21 456.37 62.04 C 456.33 63.72 454.48 64.25 453.14 63.80 Z" />
<path fill="#5e5f5d" opacity="1.00" d=" M 498.88 62.01 C 502.03 61.32 505.27 61.11 508.49 61.47 C 508.49 62.81 508.61 64.15 508.50 65.49 C 505.48 66.40 502.36 66.86 499.28 67.48 C 499.15 65.65 499.01 63.83 498.88 62.01 Z" />
<path fill="#3a3a3a" opacity="1.00" d=" M 456.37 62.04 C 456.67 62.30 457.28 62.82 457.58 63.08 C 457.42 63.56 457.09 64.51 456.92 64.98 C 456.36 65.67 455.79 66.36 455.22 67.04 C 454.48 66.43 453.74 65.82 453.00 65.23 C 451.80 63.65 449.87 65.28 450.08 66.84 C 449.20 68.81 447.63 70.31 445.99 71.66 C 446.03 73.04 446.09 74.41 446.16 75.79 C 447.50 75.95 448.85 76.09 450.21 76.22 C 444.79 76.94 439.41 81.27 434.01 78.33 C 433.27 78.80 432.53 79.27 431.80 79.74 L 431.51 79.32 C 431.48 77.10 431.69 74.88 432.22 72.72 L 432.61 72.72 C 433.50 73.56 434.39 74.40 435.29 75.25 L 435.32 75.64 L 435.62 75.72 L 435.85 75.41 C 436.66 75.34 438.29 75.19 439.10 75.12 C 437.61 77.17 441.17 77.12 439.96 75.04 C 440.26 74.82 440.86 74.39 441.17 74.17 C 442.75 74.43 443.10 73.90 442.20 72.58 C 442.26 72.33 442.36 71.81 442.41 71.55 C 442.51 70.86 442.70 69.47 442.80 68.78 C 443.21 68.56 444.01 68.13 444.42 67.91 L 444.66 68.08 C 445.31 68.11 445.97 68.13 446.64 68.14 C 446.56 67.65 446.40 66.67 446.32 66.18 C 446.71 65.88 447.49 65.28 447.88 64.98 C 449.33 63.63 451.25 63.35 453.14 63.80 C 454.48 64.25 456.33 63.72 456.37 62.04 Z" />
<path fill="#3d3c3c" opacity="1.00" d=" M 484.18 62.35 C 485.46 60.98 486.25 63.50 485.23 64.26 C 483.99 65.78 483.05 63.09 484.18 62.35 Z" />
<path fill="#d01a1e" opacity="1.00" d=" M 630.11 65.53 C 630.33 64.31 630.50 63.09 630.64 61.86 C 631.56 62.43 632.49 63.01 633.43 63.58 C 632.74 67.10 632.00 70.60 631.16 74.08 C 625.59 73.91 620.03 73.69 614.47 73.37 C 615.29 69.70 616.44 66.13 618.00 62.71 C 618.35 63.58 618.72 64.46 619.08 65.34 C 618.68 66.83 618.25 68.33 618.18 69.88 C 621.30 71.28 624.96 70.44 628.30 70.64 C 628.93 68.95 629.55 67.25 630.11 65.53 Z" />
<path fill="#e5241c" opacity="1.00" d=" M 653.67 64.59 C 653.34 63.85 653.83 60.56 654.82 62.63 C 655.30 64.29 655.15 66.05 655.06 67.75 L 654.78 67.69 C 654.50 66.91 653.95 65.36 653.67 64.59 Z" />
<path fill="#d61223" opacity="1.00" d=" M 656.10 61.90 L 656.83 62.11 C 657.26 63.28 656.89 64.17 655.71 64.79 C 655.81 64.07 656.01 62.62 656.10 61.90 Z" />
<path fill="#9c3834" opacity="1.00" d=" M 656.83 62.11 C 659.12 62.86 661.48 63.47 663.93 63.46 C 664.26 63.47 664.93 63.50 665.26 63.52 C 665.64 64.73 666.04 65.93 666.44 67.14 C 664.89 67.18 663.35 67.21 661.82 67.22 C 660.43 67.21 659.05 67.21 657.68 67.23 C 657.22 67.27 656.29 67.35 655.83 67.39 C 655.80 66.74 655.74 65.44 655.71 64.79 C 656.89 64.17 657.26 63.28 656.83 62.11 Z" />
<path fill="#777776" opacity="1.00" d=" M 438.88 63.79 C 440.36 63.29 441.95 63.00 443.47 63.55 C 444.95 63.98 446.41 64.49 447.88 64.98 C 447.49 65.28 446.71 65.88 446.32 66.18 C 446.40 66.67 446.56 67.65 446.64 68.14 C 445.97 68.13 445.31 68.11 444.66 68.08 L 444.42 67.91 C 443.93 67.52 442.94 66.75 442.44 66.36 C 442.64 65.40 442.83 64.45 443.03 63.50 C 441.64 63.58 440.26 63.68 438.88 63.79 Z" />
<path fill="#a79751" opacity="1.00" d=" M 456.92 64.98 C 457.09 64.51 457.42 63.56 457.58 63.08 C 458.63 64.04 459.65 65.04 460.68 66.05 C 459.48 66.60 458.23 67.03 456.95 67.32 C 456.94 66.73 456.93 65.56 456.92 64.98 Z" />
<path fill="#cb4835" opacity="1.00" d=" M 645.07 65.87 C 643.97 64.20 646.93 62.20 647.55 64.42 C 646.93 64.78 645.69 65.51 645.07 65.87 Z" />
<path fill="#68a471" opacity="1.00" d=" M 450.08 66.84 C 449.87 65.28 451.80 63.65 453.00 65.23 C 453.73 67.01 451.25 67.80 450.08 66.84 Z" />
<path fill="#484747" opacity="1.00" d=" M 453.00 65.23 C 453.74 65.82 454.48 66.43 455.22 67.04 C 455.79 66.36 456.36 65.67 456.92 64.98 C 456.93 65.56 456.94 66.73 456.95 67.32 C 458.23 67.03 459.48 66.60 460.68 66.05 C 461.01 65.87 461.68 65.52 462.01 65.35 C 463.81 67.87 464.52 71.61 461.59 73.64 C 458.06 75.31 453.96 75.24 450.21 76.22 C 448.85 76.09 447.50 75.95 446.16 75.79 C 446.09 74.41 446.03 73.04 445.99 71.66 C 447.63 70.31 449.20 68.81 450.08 66.84 C 451.25 67.80 453.73 67.01 453.00 65.23 M 454.22 68.13 C 453.11 69.62 455.71 71.13 456.71 69.76 C 457.81 68.28 455.20 66.73 454.22 68.13 Z" />
<path fill="#c26d3f" opacity="1.00" d=" M 619.08 65.34 C 620.61 65.55 622.14 65.74 623.69 65.88 C 625.81 65.53 627.96 65.45 630.11 65.53 C 629.55 67.25 628.93 68.95 628.30 70.64 C 624.96 70.44 621.30 71.28 618.18 69.88 C 618.25 68.33 618.68 66.83 619.08 65.34 Z" />
<path fill="#c26d3f" opacity="1.00" d=" M 647.55 64.42 C 647.97 64.39 648.82 64.34 649.24 64.32 C 649.63 64.60 650.41 65.16 650.80 65.44 C 651.68 64.86 652.63 64.58 653.67 64.59 C 653.95 65.36 654.50 66.91 654.78 67.69 C 651.50 66.65 648.05 66.73 644.68 67.16 L 645.07 65.87 C 645.69 65.51 646.93 64.78 647.55 64.42 Z" />
<path fill="#1f0546" opacity="1.00" d=" M 671.79 64.86 C 673.16 65.24 674.54 65.63 675.93 66.01 C 676.37 67.09 676.82 68.18 677.28 69.27 C 676.43 69.87 675.58 70.47 674.74 71.07 C 673.04 71.63 673.82 73.83 675.43 73.72 C 675.53 74.49 675.61 75.25 675.67 76.03 C 675.23 76.52 674.34 77.51 673.90 78.00 C 673.18 77.01 672.50 75.99 671.87 74.96 C 671.68 72.88 671.78 70.79 671.79 68.71 C 672.35 69.01 673.47 69.60 674.02 69.89 C 674.62 68.17 673.20 66.79 671.91 65.94 L 671.79 64.86 Z" />
<path fill="#6f6f6e" opacity="1.00" d=" M 435.06 66.25 C 438.35 66.28 433.66 69.34 435.06 66.25 Z" />
<path fill="#714d64" opacity="1.00" d=" M 671.91 65.94 C 673.20 66.79 674.62 68.17 674.02 69.89 C 673.47 69.60 672.35 69.01 671.79 68.71 C 671.82 68.02 671.88 66.63 671.91 65.94 Z" />
<path fill="#7d7c7b" opacity="1.00" d=" M 439.57 67.42 C 439.57 67.43 439.58 67.45 439.59 67.46 L 439.34 67.61 L 439.57 67.42 Z" />
<path fill="#aaaaa9" opacity="1.00" d=" M 501.45 68.50 C 504.14 67.74 506.86 66.98 509.67 66.78 C 510.60 66.87 512.47 67.06 513.40 67.16 C 512.18 68.40 511.01 69.72 509.56 70.70 C 506.72 70.86 504.12 69.25 501.45 68.50 Z" />
<path fill="#b5061b" opacity="1.00" d=" M 655.83 67.39 C 656.29 67.35 657.22 67.27 657.68 67.23 C 656.89 68.75 656.27 68.81 655.83 67.39 Z" />
<path fill="#70706e" opacity="1.00" d=" M 429.93 68.54 C 430.99 69.09 432.15 69.27 433.35 69.16 C 433.10 69.98 432.59 71.62 432.33 72.45 C 432.30 72.51 432.25 72.65 432.22 72.72 C 431.69 74.88 431.48 77.10 431.51 79.32 C 430.58 77.95 429.34 76.73 428.88 75.11 C 428.99 72.89 429.51 70.72 429.93 68.54 Z" />
<path fill="#31302f" opacity="1.00" d=" M 432.33 72.45 C 434.60 70.74 436.99 69.20 439.34 67.61 L 439.59 67.46 C 439.91 67.93 440.56 68.87 440.88 69.34 C 441.27 69.89 442.03 71.00 442.41 71.55 C 442.36 71.81 442.26 72.33 442.20 72.58 C 441.94 72.98 441.42 73.77 441.17 74.17 C 440.86 74.39 440.26 74.82 439.96 75.04 L 439.10 75.12 C 438.29 75.19 436.66 75.34 435.85 75.41 L 435.29 75.25 C 434.39 74.40 433.50 73.56 432.61 72.72 L 432.33 72.45 Z" />
<path fill="#b97059" opacity="1.00" d=" M 454.22 68.13 C 455.20 66.73 457.81 68.28 456.71 69.76 C 455.71 71.13 453.11 69.62 454.22 68.13 Z" />
<path fill="#515050" opacity="1.00" d=" M 440.88 69.34 C 441.36 69.20 442.32 68.92 442.80 68.78 C 442.70 69.47 442.51 70.86 442.41 71.55 C 442.03 71.00 441.27 69.89 440.88 69.34 Z" />
<path fill="#2f4480" opacity="1.00" d=" M 651.46 69.16 C 652.31 68.31 654.47 68.41 654.70 69.79 C 654.35 71.68 650.57 71.13 651.46 69.16 Z" />
<path fill="#3a0015" opacity="1.00" d=" M 677.28 69.27 C 678.17 71.71 678.72 74.27 679.21 76.83 C 679.34 77.41 679.59 78.56 679.72 79.14 C 679.32 79.14 678.52 79.14 678.13 79.14 L 677.33 79.30 C 676.86 79.68 675.92 80.44 675.45 80.82 C 675.33 80.19 675.10 78.93 674.98 78.30 C 675.24 77.55 675.49 76.80 675.67 76.03 C 675.61 75.25 675.53 74.49 675.43 73.72 C 675.26 73.06 674.91 71.73 674.74 71.07 C 675.58 70.47 676.43 69.87 677.28 69.27 Z" />
<path fill="#825268" opacity="1.00" d=" M 675.43 73.72 C 673.82 73.83 673.04 71.63 674.74 71.07 C 674.91 71.73 675.26 73.06 675.43 73.72 Z" />
<path fill="#abacab" opacity="1.00" d=" M 432.22 72.72 C 432.25 72.65 432.30 72.51 432.33 72.45 L 432.61 72.72 L 432.22 72.72 Z" />
<path fill="#b4b43c" opacity="1.00" d=" M 634.48 77.02 C 635.39 74.55 637.32 72.75 639.55 71.44 C 639.45 72.03 639.24 73.20 639.14 73.78 C 638.37 75.07 637.54 76.33 636.73 77.59 C 636.16 77.45 635.04 77.16 634.48 77.02 Z" />
<path fill="#6b6a69" opacity="1.00" d=" M 441.17 74.17 C 441.42 73.77 441.94 72.98 442.20 72.58 C 443.10 73.90 442.75 74.43 441.17 74.17 Z" />
<path fill="#171616" opacity="0.96" d=" M 484.45 73.69 C 486.89 74.09 489.36 74.53 491.65 75.53 C 491.52 76.77 490.62 77.72 490.05 78.77 C 487.97 78.22 485.93 77.56 483.90 76.90 C 484.67 77.00 486.21 77.19 486.99 77.29 C 486.13 76.09 485.28 74.89 484.45 73.69 Z" />
<path fill="#201f20" opacity="1.00" d=" M 509.93 74.20 C 510.38 74.01 511.30 73.64 511.76 73.46 C 511.80 75.26 511.86 77.07 511.91 78.88 C 511.42 79.17 510.45 79.74 509.97 80.03 C 509.91 78.09 509.86 76.14 509.93 74.20 Z" />
<path fill="#a1a227" opacity="1.00" d=" M 636.73 77.59 C 637.54 76.33 638.37 75.07 639.14 73.78 C 638.38 78.71 636.22 83.25 634.00 87.67 C 634.00 84.77 633.87 81.88 634.05 78.99 C 634.15 78.50 634.37 77.51 634.48 77.02 C 635.04 77.16 636.16 77.45 636.73 77.59 Z" />
<path fill="#5a3250" opacity="1.00" d=" M 701.00 74.19 C 701.37 75.17 701.74 76.15 702.12 77.14 C 706.98 79.29 711.84 81.45 716.68 83.64 C 716.67 85.13 716.67 86.62 716.67 88.11 C 715.93 88.68 715.33 89.36 714.87 90.16 C 715.26 88.25 715.52 86.32 715.63 84.37 L 714.15 84.47 C 713.30 84.53 711.58 84.65 710.72 84.71 C 711.95 84.30 713.17 83.85 714.40 83.40 C 710.93 82.28 707.44 81.10 703.82 80.58 L 702.79 80.86 C 702.43 80.96 701.70 81.16 701.34 81.26 C 699.61 79.54 697.56 78.10 695.00 78.62 C 696.46 78.33 697.88 77.93 699.35 77.59 C 699.67 77.56 700.32 77.49 700.64 77.46 C 700.77 76.37 700.89 75.28 701.00 74.19 Z" />
<path fill="#999897" opacity="1.00" d=" M 435.29 75.25 L 435.85 75.41 L 435.62 75.72 L 435.32 75.64 L 435.29 75.25 Z" />
<path fill="#91918f" opacity="1.00" d=" M 439.10 75.12 L 439.96 75.04 C 441.17 77.12 437.61 77.17 439.10 75.12 Z" />
<path fill="#bfadb2" opacity="1.00" d=" M 671.87 74.96 C 672.50 75.99 673.18 77.01 673.90 78.00 C 674.34 77.51 675.23 76.52 675.67 76.03 C 675.49 76.80 675.24 77.55 674.98 78.30 C 674.78 78.78 674.39 79.73 674.19 80.21 C 673.26 78.53 672.47 76.78 671.87 74.96 Z" />
<path fill="#050404" opacity="0.46" d=" M 467.22 81.11 C 471.49 78.41 476.28 76.55 481.36 76.25 C 482.00 76.41 483.26 76.74 483.90 76.90 C 485.93 77.56 487.97 78.22 490.05 78.77 C 494.82 79.85 499.31 81.84 503.96 83.33 C 503.12 83.80 502.28 84.27 501.44 84.73 C 496.27 80.70 489.53 80.40 483.55 78.27 C 476.28 76.65 470.61 82.61 464.42 85.22 C 460.64 86.18 455.77 87.73 452.56 84.67 C 457.61 84.39 462.83 83.85 467.22 81.11 Z" />
<path fill="#510a15" opacity="0.78" d=" M 605.16 76.43 C 605.49 76.67 606.16 77.16 606.50 77.40 C 606.02 77.31 605.06 77.14 604.58 77.05 L 605.16 76.43 Z" />
<path fill="#1d1c1d" opacity="1.00" d=" M 527.58 80.82 C 529.67 79.57 531.79 78.38 533.94 77.23 C 536.48 77.96 539.03 78.68 541.58 79.45 C 550.52 82.10 559.29 85.30 568.15 88.22 C 565.62 89.73 562.97 92.74 559.77 91.30 C 550.96 88.55 542.73 84.04 533.64 82.18 C 531.62 81.72 529.61 81.24 527.58 80.82 Z" />
<path fill="#421619" opacity="1.00" d=" M 608.89 77.38 C 614.95 76.78 621.03 77.22 627.09 77.59 C 625.49 77.82 623.91 78.14 622.37 78.60 C 621.88 78.78 620.89 79.13 620.40 79.31 L 619.96 80.22 C 619.78 80.62 619.42 81.41 619.24 81.81 C 619.93 81.60 621.31 81.18 622.00 80.97 L 620.98 82.79 C 620.02 83.20 618.99 83.21 618.03 83.60 C 615.10 83.46 612.17 83.19 609.26 82.87 L 610.53 81.96 C 611.76 81.56 613.02 81.29 614.30 81.00 C 614.37 80.51 614.52 79.55 614.59 79.07 C 614.62 78.83 614.69 78.35 614.73 78.11 C 612.77 77.88 610.83 77.64 608.89 77.38 M 618.27 79.42 C 618.83 79.92 618.83 79.92 618.27 79.42 Z" />
<path fill="#403239" opacity="1.00" d=" M 679.21 76.83 C 682.87 76.91 686.53 76.94 690.19 76.87 C 690.24 77.69 690.35 79.31 690.40 80.13 C 689.75 80.89 689.12 81.66 688.50 82.44 C 688.33 81.60 687.99 79.93 687.83 79.10 L 686.82 78.86 C 684.71 78.79 682.65 79.25 680.67 79.93 C 680.43 79.73 679.96 79.34 679.72 79.14 C 679.59 78.56 679.34 77.41 679.21 76.83 Z" />
<path fill="#383b41" opacity="1.00" d=" M 690.19 76.87 C 693.25 76.79 696.31 77.14 699.35 77.59 C 697.88 77.93 696.46 78.33 695.00 78.62 C 693.74 78.79 692.49 78.99 691.25 79.21 C 691.04 79.44 690.61 79.90 690.40 80.13 C 690.35 79.31 690.24 77.69 690.19 76.87 Z" />
<path fill="#363334" opacity="1.00" d=" M 542.03 77.95 C 550.28 80.28 558.47 82.80 566.56 85.67 C 572.72 87.88 579.18 89.46 584.98 92.59 C 580.97 94.57 577.31 97.14 573.88 99.99 C 573.96 104.83 573.99 109.68 574.25 114.52 C 572.90 115.48 571.55 116.44 570.21 117.39 C 570.00 112.67 569.90 107.95 569.80 103.22 C 569.18 103.24 567.93 103.27 567.31 103.29 C 567.86 107.61 568.19 112.01 567.45 116.33 C 565.80 113.08 566.33 109.34 566.13 105.83 C 565.49 105.87 564.19 105.95 563.55 105.99 C 564.41 111.12 564.45 116.33 564.43 121.52 C 557.42 126.94 549.84 131.59 542.72 136.86 C 541.43 132.37 541.77 127.68 541.73 123.07 C 537.40 121.59 532.77 121.72 528.36 120.67 C 525.76 119.38 523.10 118.22 520.31 117.43 C 520.90 116.91 521.51 116.40 522.12 115.88 C 528.05 115.05 534.06 115.62 540.02 115.10 C 544.05 115.15 546.53 111.56 549.76 109.73 C 555.89 106.16 561.38 101.63 567.42 97.90 C 564.41 95.78 561.41 93.50 557.91 92.25 C 554.52 92.70 552.11 95.78 548.69 96.27 C 544.72 96.79 541.41 99.11 537.83 100.67 C 537.61 97.90 533.28 99.27 536.18 101.16 C 535.45 101.87 534.73 102.57 534.05 103.31 C 532.52 103.78 531.02 104.35 529.56 105.00 C 529.82 105.80 530.10 106.61 530.38 107.41 C 520.28 106.33 510.47 102.97 501.72 97.82 C 502.93 97.28 504.12 96.71 505.32 96.14 C 509.14 96.79 513.13 98.13 516.93 96.56 C 521.35 94.84 526.12 94.98 530.79 95.08 C 527.23 92.62 522.96 91.58 519.22 89.45 C 520.47 89.31 521.72 89.17 522.98 89.04 C 523.14 87.95 523.32 86.86 523.50 85.76 C 526.57 83.79 530.20 83.20 533.64 82.18 C 542.73 84.04 550.96 88.55 559.77 91.30 C 562.97 92.74 565.62 89.73 568.15 88.22 C 559.29 85.30 550.52 82.10 541.58 79.45 L 542.03 77.95 M 524.72 89.89 C 526.49 91.50 528.94 91.89 531.18 92.51 C 529.50 90.75 527.01 90.30 524.72 89.89 Z" />
<path fill="#4b4945" opacity="1.00" d=" M 622.37 78.60 C 623.91 78.14 625.49 77.82 627.09 77.59 C 628.41 77.68 629.73 77.78 631.06 77.91 L 630.69 79.36 C 627.90 79.21 625.14 78.80 622.37 78.60 Z" />
<path fill="#8a725b" opacity="1.00" d=" M 610.20 78.98 C 611.66 79.01 613.12 79.04 614.59 79.07 C 614.52 79.55 614.37 80.51 614.30 81.00 C 613.02 81.29 611.76 81.56 610.53 81.96 C 609.71 81.45 608.90 80.94 608.10 80.43 C 608.63 80.07 609.68 79.35 610.20 78.98 Z" />
<path fill="#938e4f" opacity="1.00" d=" M 618.27 79.42 C 618.83 79.92 618.83 79.92 618.27 79.42 Z" />
<path fill="#100f0b" opacity="1.00" d=" M 620.40 79.31 C 620.89 79.13 621.88 78.78 622.37 78.60 C 625.14 78.80 627.90 79.21 630.69 79.36 C 631.81 79.28 632.91 79.13 634.05 78.99 C 633.87 81.88 634.00 84.77 634.00 87.67 C 633.84 88.35 633.70 89.04 633.56 89.73 C 631.49 90.58 629.43 91.47 627.39 92.39 C 627.61 100.62 627.35 108.85 627.88 117.06 C 627.89 118.64 628.50 120.11 629.19 121.50 C 627.72 122.23 626.23 122.97 624.68 123.48 C 620.96 123.87 617.41 122.77 613.99 121.48 C 610.73 120.29 606.45 120.67 603.95 118.11 C 602.75 109.46 602.12 100.68 602.04 91.95 C 600.12 91.29 598.04 91.36 596.06 91.04 C 595.55 91.33 594.52 91.91 594.01 92.20 C 593.82 89.57 593.60 86.94 593.29 84.32 C 595.01 84.66 596.75 85.03 598.51 85.30 C 598.37 86.89 598.24 88.48 598.11 90.07 C 599.19 89.66 600.29 89.25 601.39 88.85 C 601.30 88.03 601.13 86.38 601.05 85.55 C 605.24 85.79 609.44 86.15 613.58 86.92 C 614.20 87.17 615.44 87.67 616.06 87.92 C 615.29 89.35 614.54 90.79 613.88 92.27 C 614.46 91.49 615.61 89.92 616.18 89.13 C 616.76 90.18 617.36 91.22 617.97 92.26 C 617.58 90.56 617.15 88.87 616.70 87.19 C 618.25 87.31 619.82 87.45 621.38 87.59 C 621.45 90.13 621.67 92.68 622.32 95.15 C 622.41 91.91 622.27 88.65 622.80 85.44 L 623.05 84.98 C 624.11 83.55 625.57 82.52 627.23 81.87 C 625.34 79.76 622.54 79.87 619.96 80.22 L 620.40 79.31 M 608.40 96.31 C 607.29 97.27 608.36 100.20 609.92 99.01 C 611.11 98.02 609.95 95.11 608.40 96.31 M 611.04 96.97 C 609.86 97.94 610.99 100.96 612.55 99.69 C 613.56 98.72 612.60 95.73 611.04 96.97 M 614.29 100.28 C 612.97 100.41 612.80 102.76 614.22 102.87 C 615.57 102.79 615.72 100.32 614.29 100.28 M 614.41 114.04 C 613.99 115.46 614.48 115.96 615.86 115.53 C 616.26 114.10 615.78 113.61 614.41 114.04 Z" />
<path fill="#512a27" opacity="1.00" d=" M 639.88 79.25 C 641.57 79.13 643.27 79.01 644.98 78.90 C 645.00 79.55 645.06 80.86 645.09 81.51 C 645.10 82.88 645.11 84.25 645.10 85.62 C 644.19 84.81 643.29 84.00 642.41 83.18 C 641.15 83.30 639.89 83.39 638.65 83.52 L 637.47 83.64 C 638.30 82.19 639.15 80.75 639.88 79.25 Z" />
<path fill="#232423" opacity="1.00" d=" M 644.98 78.90 C 649.87 78.53 654.77 78.81 659.67 78.95 C 659.72 79.77 659.80 81.42 659.85 82.25 C 655.75 81.86 651.64 81.72 647.54 81.73 C 646.71 81.69 645.89 81.61 645.09 81.51 C 645.06 80.86 645.00 79.55 644.98 78.90 Z" />
<path fill="#2f2927" opacity="1.00" d=" M 659.67 78.95 C 663.12 79.03 666.59 78.61 670.04 78.99 C 671.60 79.36 672.19 81.11 673.06 82.27 C 672.57 82.44 671.59 82.78 671.10 82.94 C 670.62 82.92 669.65 82.86 669.17 82.83 C 668.25 82.77 666.41 82.65 665.49 82.59 C 665.16 84.17 665.65 85.39 666.98 86.26 C 666.27 86.27 665.57 86.27 664.88 86.28 C 664.66 84.10 663.85 82.12 662.38 80.50 C 661.62 82.17 660.90 83.86 660.16 85.54 C 660.09 84.90 659.97 83.61 659.90 82.96 L 659.85 82.25 C 659.80 81.42 659.72 79.77 659.67 78.95 Z" />
<path fill="#23041e" opacity="1.00" d=" M 674.98 78.30 C 675.10 78.93 675.33 80.19 675.45 80.82 C 675.66 82.61 675.77 84.41 675.91 86.21 C 676.41 86.35 677.42 86.63 677.92 86.77 C 678.65 89.16 679.37 91.56 679.87 94.02 C 677.64 93.59 677.89 97.34 680.02 95.72 C 680.24 97.20 680.58 98.67 681.01 100.11 C 677.73 102.08 679.72 106.55 677.89 109.43 C 677.27 107.91 676.63 106.42 676.00 104.92 C 677.10 103.19 676.63 101.25 676.25 99.39 C 676.57 96.55 676.78 93.69 676.91 90.84 C 675.55 91.06 674.20 91.28 672.85 91.51 C 672.13 91.34 670.68 91.00 669.95 90.84 L 671.40 90.04 C 672.91 89.73 674.45 89.57 676.00 89.39 C 675.44 87.88 674.89 86.36 674.28 84.86 L 674.00 84.22 L 673.42 82.98 C 673.61 82.29 674.00 80.90 674.19 80.21 C 674.39 79.73 674.78 78.78 674.98 78.30 Z" />
<path fill="#963755" opacity="1.00" d=" M 677.33 79.30 L 678.13 79.14 C 678.02 81.68 677.90 84.22 677.92 86.77 C 677.42 86.63 676.41 86.35 675.91 86.21 C 675.77 84.41 675.66 82.61 675.45 80.82 C 675.92 80.44 676.86 79.68 677.33 79.30 Z" />
<path fill="#131311" opacity="1.00" d=" M 678.13 79.14 C 678.52 79.14 679.32 79.14 679.72 79.14 C 679.96 79.34 680.43 79.73 680.67 79.93 C 682.89 81.80 685.26 83.50 687.63 85.20 C 688.01 85.47 688.78 86.00 689.16 86.27 C 689.41 86.44 689.92 86.78 690.17 86.94 C 690.14 89.25 690.15 91.56 690.17 93.87 C 693.63 93.43 697.10 93.04 700.57 92.59 C 701.00 92.22 701.86 91.48 702.29 91.11 C 705.75 90.30 709.34 90.38 712.85 89.79 C 711.37 90.51 709.96 91.33 708.57 92.19 C 708.99 101.02 707.55 109.84 706.90 118.64 L 706.45 118.73 C 701.64 119.51 697.03 121.08 692.36 122.41 C 688.77 123.47 685.06 122.38 681.49 121.87 C 683.79 126.19 680.63 130.21 678.77 133.99 C 672.37 133.96 665.97 134.10 659.57 133.91 C 656.72 131.85 653.10 132.02 649.76 131.98 C 648.04 127.44 649.32 122.68 650.33 118.14 C 650.99 118.11 652.31 118.05 652.97 118.02 C 652.87 120.70 652.66 123.37 652.27 126.02 C 655.61 127.67 659.25 128.49 662.87 129.29 C 661.40 129.93 659.92 130.57 658.48 131.23 C 662.47 131.86 667.20 133.08 670.84 130.81 C 674.12 125.93 672.81 119.56 673.46 113.99 C 672.29 113.29 671.10 112.63 670.02 111.81 C 669.83 110.12 669.92 108.41 669.96 106.72 C 670.40 106.60 671.29 106.37 671.73 106.26 C 671.77 105.76 671.84 104.77 671.88 104.28 C 668.84 105.13 665.87 106.30 663.42 108.32 C 663.05 108.08 662.32 107.60 661.95 107.36 L 661.16 107.02 C 662.32 105.17 663.31 103.19 664.70 101.49 C 666.52 100.13 668.75 101.51 670.58 102.17 C 672.34 101.30 674.01 100.28 675.63 99.16 C 674.52 98.59 673.41 98.05 672.29 97.54 C 672.97 95.59 673.04 93.54 672.85 91.51 C 674.20 91.28 675.55 91.06 676.91 90.84 C 676.78 93.69 676.57 96.55 676.25 99.39 C 673.53 104.15 674.13 109.83 675.96 114.79 C 677.71 116.73 679.76 118.36 681.82 119.97 C 682.15 118.06 682.51 116.15 682.75 114.23 C 683.48 109.44 682.98 104.56 681.01 100.11 C 680.58 98.67 680.24 97.20 680.02 95.72 C 679.98 95.29 679.91 94.44 679.87 94.02 C 679.37 91.56 678.65 89.16 677.92 86.77 C 677.90 84.22 678.02 81.68 678.13 79.14 M 700.26 96.34 C 699.36 97.57 699.54 98.35 700.81 98.69 C 701.70 97.45 701.51 96.67 700.26 96.34 M 702.04 96.21 C 701.51 97.92 702.03 98.48 703.60 97.89 C 704.13 96.20 703.61 95.64 702.04 96.21 M 703.13 99.17 C 702.67 100.61 703.13 101.08 704.52 100.58 C 704.96 99.15 704.50 98.67 703.13 99.17 M 702.16 111.46 C 701.73 112.88 702.21 113.36 703.61 112.91 C 704.01 111.49 703.53 111.01 702.16 111.46 Z" />
<path fill="#563866" opacity="1.00" d=" M 680.67 79.93 C 682.65 79.25 684.71 78.79 686.82 78.86 C 687.36 80.93 687.98 83.04 687.63 85.20 C 685.26 83.50 682.89 81.80 680.67 79.93 Z" />
<path fill="#5b6ba9" opacity="1.00" d=" M 686.82 78.86 L 687.83 79.10 C 687.99 79.93 688.33 81.60 688.50 82.44 C 689.12 81.66 689.75 80.89 690.40 80.13 C 690.61 79.90 691.04 79.44 691.25 79.21 C 692.49 78.99 693.74 78.79 695.00 78.62 C 697.56 78.10 699.61 79.54 701.34 81.26 C 701.03 81.33 700.40 81.49 700.09 81.56 C 699.56 81.46 698.50 81.24 697.97 81.13 C 696.57 81.68 695.14 82.24 693.76 82.80 C 693.69 86.63 697.72 85.50 700.27 85.70 C 696.57 86.01 692.87 86.58 689.16 86.27 C 688.78 86.00 688.01 85.47 687.63 85.20 C 687.98 83.04 687.36 80.93 686.82 78.86 M 691.92 81.92 C 691.35 83.31 691.79 83.78 693.24 83.34 C 693.79 81.95 693.35 81.47 691.92 81.92 Z" />
<path fill="#4d4a4b" opacity="1.00" d=" M 514.95 80.75 C 518.99 79.08 523.43 80.21 527.58 80.82 C 529.61 81.24 531.62 81.72 533.64 82.18 C 530.20 83.20 526.57 83.79 523.50 85.76 C 523.32 86.86 523.14 87.95 522.98 89.04 C 521.72 89.17 520.47 89.31 519.22 89.45 C 522.96 91.58 527.23 92.62 530.79 95.08 C 526.12 94.98 521.35 94.84 516.93 96.56 C 513.13 98.13 509.14 96.79 505.32 96.14 C 502.83 95.72 500.33 95.37 497.82 95.21 C 505.14 89.66 513.93 86.42 521.30 80.97 C 519.18 80.83 517.06 80.72 514.95 80.75 Z" />
<path fill="#700e1a" opacity="1.00" d=" M 601.32 81.74 C 603.12 80.68 605.03 79.71 607.19 79.92 C 605.94 80.60 604.68 81.27 603.43 81.92 C 605.79 81.91 608.16 81.88 610.53 81.96 L 609.26 82.87 C 607.35 82.81 605.44 82.72 603.55 82.63 L 603.49 84.45 C 608.29 84.11 614.05 87.30 618.03 83.60 C 618.99 83.21 620.02 83.20 620.98 82.79 L 621.84 83.68 C 620.74 84.14 618.36 84.27 618.30 85.69 C 619.73 86.32 621.35 85.78 622.80 85.44 C 622.27 88.65 622.41 91.91 622.32 95.15 C 621.67 92.68 621.45 90.13 621.38 87.59 C 619.82 87.45 618.25 87.31 616.70 87.19 C 615.92 87.12 614.36 86.99 613.58 86.92 C 609.44 86.15 605.24 85.79 601.05 85.55 C 600.19 85.48 599.35 85.41 598.51 85.30 C 596.75 85.03 595.01 84.66 593.29 84.32 C 594.14 83.82 595.01 83.36 595.92 82.93 C 596.48 83.01 597.59 83.16 598.15 83.23 C 599.59 84.42 603.76 84.07 601.32 81.74 Z" />
<path fill="#cca76f" opacity="1.00" d=" M 619.96 80.22 C 622.54 79.87 625.34 79.76 627.23 81.87 C 625.57 82.52 624.11 83.55 623.05 84.98 C 622.75 84.66 622.14 84.00 621.84 83.68 L 620.98 82.79 L 622.00 80.97 C 621.31 81.18 619.93 81.60 619.24 81.81 C 619.42 81.41 619.78 80.62 619.96 80.22 M 623.05 82.51 C 623.63 83.08 623.63 83.08 623.05 82.51 Z" />
<path fill="#6685b7" opacity="1.00" d=" M 703.82 80.58 C 707.44 81.10 710.93 82.28 714.40 83.40 C 713.17 83.85 711.95 84.30 710.72 84.71 C 710.32 84.75 709.50 84.82 709.09 84.86 C 707.97 83.70 706.73 82.67 705.36 81.82 C 704.72 81.58 703.44 81.10 702.79 80.86 L 703.82 80.58 Z" />
<path fill="#5c5a5b" opacity="1.00" d=" M 489.62 95.05 C 498.01 90.20 506.47 85.45 514.95 80.75 C 517.06 80.72 519.18 80.83 521.30 80.97 C 513.93 86.42 505.14 89.66 497.82 95.21 C 495.08 95.13 492.35 95.14 489.62 95.05 Z" />
<path fill="#a8d9d7" opacity="1.00" d=" M 645.09 81.51 C 645.89 81.61 646.71 81.69 647.54 81.73 C 647.59 82.51 647.70 84.06 647.76 84.84 L 647.83 85.91 C 645.16 85.80 642.47 85.75 639.83 86.19 C 638.84 86.30 637.87 86.37 636.89 86.42 C 637.55 85.50 638.14 84.53 638.65 83.52 C 639.89 83.39 641.15 83.30 642.41 83.18 C 643.29 84.00 644.19 84.81 645.10 85.62 C 645.11 84.25 645.10 82.88 645.09 81.51 Z" />
<path fill="#8e9fa4" opacity="1.00" d=" M 662.38 80.50 C 663.85 82.12 664.66 84.10 664.88 86.28 C 662.17 86.13 659.48 85.95 656.78 85.78 C 656.77 85.13 656.77 83.82 656.76 83.17 C 657.55 83.12 659.12 83.01 659.90 82.96 C 659.97 83.61 660.09 84.90 660.16 85.54 C 660.90 83.86 661.62 82.17 662.38 80.50 Z" />
<path fill="#a8d9d7" opacity="1.00" d=" M 693.76 82.80 C 695.14 82.24 696.57 81.68 697.97 81.13 C 698.50 81.24 699.56 81.46 700.09 81.56 C 700.40 81.49 701.03 81.33 701.34 81.26 C 701.70 81.16 702.43 80.96 702.79 80.86 C 702.22 82.55 704.53 83.13 705.36 81.82 C 706.73 82.67 707.97 83.70 709.09 84.86 C 706.83 85.10 704.58 85.08 702.34 84.79 C 702.09 85.00 701.60 85.43 701.35 85.65 L 700.27 85.70 C 697.72 85.50 693.69 86.63 693.76 82.80 Z" />
<path fill="#b46c2d" opacity="1.00" d=" M 702.79 80.86 C 703.44 81.10 704.72 81.58 705.36 81.82 C 704.53 83.13 702.22 82.55 702.79 80.86 Z" />
<path fill="#757a2d" opacity="1.00" d=" M 601.32 81.74 C 603.76 84.07 599.59 84.42 598.15 83.23 C 599.20 82.73 600.25 82.23 601.32 81.74 Z" />
<path fill="#0d0c36" opacity="1.00" d=" M 623.05 82.51 C 623.63 83.08 623.63 83.08 623.05 82.51 Z" />
<path fill="#515f73" opacity="1.00" d=" M 647.54 81.73 C 651.64 81.72 655.75 81.86 659.85 82.25 L 659.90 82.96 C 659.12 83.01 657.55 83.12 656.76 83.17 C 656.77 83.82 656.77 85.13 656.78 85.78 C 659.48 85.95 662.17 86.13 664.88 86.28 C 665.57 86.27 666.27 86.27 666.98 86.26 C 667.50 86.23 668.53 86.18 669.04 86.15 C 669.07 85.32 669.14 83.66 669.17 82.83 C 669.65 82.86 670.62 82.92 671.10 82.94 C 671.59 82.78 672.57 82.44 673.06 82.27 C 673.15 82.45 673.33 82.81 673.42 82.98 L 674.00 84.22 C 672.87 83.84 670.48 83.13 670.10 84.76 C 670.77 86.48 673.41 86.38 674.28 84.86 C 674.89 86.36 675.44 87.88 676.00 89.39 C 674.45 89.57 672.91 89.73 671.40 90.04 L 669.95 90.84 C 669.30 90.75 668.65 90.67 668.02 90.58 C 665.41 90.16 662.76 90.11 660.16 90.59 L 659.76 90.64 C 657.46 90.11 655.14 89.67 652.79 89.48 C 652.84 89.03 652.93 88.12 652.97 87.67 C 652.49 87.59 651.51 87.43 651.02 87.35 C 651.06 87.06 651.14 86.47 651.18 86.17 C 653.98 84.04 650.30 82.55 648.83 84.79 L 647.76 84.84 C 647.70 84.06 647.59 82.51 647.54 81.73 M 655.40 83.47 C 654.56 84.23 654.02 85.72 654.62 86.75 C 656.40 87.40 657.24 83.56 655.40 83.47 Z" />
<path fill="#573015" opacity="1.00" d=" M 691.92 81.92 C 693.35 81.47 693.79 81.95 693.24 83.34 C 691.79 83.78 691.35 83.31 691.92 81.92 Z" />
<path fill="#cca76f" opacity="1.00" d=" M 603.55 82.63 C 605.44 82.72 607.35 82.81 609.26 82.87 C 612.17 83.19 615.10 83.46 618.03 83.60 C 614.05 87.30 608.29 84.11 603.49 84.45 L 603.55 82.63 Z" />
<path fill="#353e4a" opacity="1.00" d=" M 655.40 83.47 C 657.24 83.56 656.40 87.40 654.62 86.75 C 654.02 85.72 654.56 84.23 655.40 83.47 Z" />
<path fill="#a6b5b8" opacity="1.00" d=" M 665.49 82.59 C 666.41 82.65 668.25 82.77 669.17 82.83 C 669.14 83.66 669.07 85.32 669.04 86.15 C 668.53 86.18 667.50 86.23 666.98 86.26 C 665.65 85.39 665.16 84.17 665.49 82.59 Z" />
<path fill="#8b8335" opacity="1.00" d=" M 618.30 85.69 C 618.36 84.27 620.74 84.14 621.84 83.68 C 622.14 84.00 622.75 84.66 623.05 84.98 L 622.80 85.44 C 621.35 85.78 619.73 86.32 618.30 85.69 Z" />
<path fill="#a6b6b6" opacity="1.00" d=" M 648.83 84.79 C 650.30 82.55 653.98 84.04 651.18 86.17 L 650.17 86.22 C 649.83 85.86 649.17 85.15 648.83 84.79 Z" />
<path fill="#7a9ca5" opacity="1.00" d=" M 670.10 84.76 C 670.48 83.13 672.87 83.84 674.00 84.22 L 674.28 84.86 C 673.41 86.38 670.77 86.48 670.10 84.76 Z" />
<path fill="#100f0b" opacity="1.00" d=" M 701.35 85.65 C 701.60 85.43 702.09 85.00 702.34 84.79 C 704.58 85.08 706.83 85.10 709.09 84.86 C 709.50 84.82 710.32 84.75 710.72 84.71 C 711.58 84.65 713.30 84.53 714.15 84.47 C 713.39 86.04 712.65 87.62 711.91 89.20 C 708.49 87.60 703.69 85.31 701.00 89.31 C 700.42 89.41 699.85 89.51 699.29 89.62 C 699.46 88.80 699.65 87.98 699.84 87.15 C 698.30 87.29 696.77 87.43 695.25 87.57 C 693.54 87.48 691.84 87.25 690.17 86.94 C 689.92 86.78 689.41 86.44 689.16 86.27 C 692.87 86.58 696.57 86.01 700.27 85.70 L 701.35 85.65 Z" />
<path fill="#636129" opacity="1.00" d=" M 598.51 85.30 C 599.35 85.41 600.19 85.48 601.05 85.55 C 601.13 86.38 601.30 88.03 601.39 88.85 C 600.29 89.25 599.19 89.66 598.11 90.07 C 598.24 88.48 598.37 86.89 598.51 85.30 Z" />
<path fill="#573015" opacity="1.00" d=" M 647.76 84.84 L 648.83 84.79 C 649.17 85.15 649.83 85.86 650.17 86.22 C 646.72 86.67 643.27 86.47 639.83 86.19 C 642.47 85.75 645.16 85.80 647.83 85.91 L 647.76 84.84 Z" />
<path fill="#5b6e83" opacity="1.00" d=" M 635.56 87.94 C 635.89 87.56 636.56 86.80 636.89 86.42 C 637.87 86.37 638.84 86.30 639.83 86.19 C 643.27 86.47 646.72 86.67 650.17 86.22 L 651.18 86.17 C 651.14 86.47 651.06 87.06 651.02 87.35 C 651.51 87.43 652.49 87.59 652.97 87.67 C 652.93 88.12 652.84 89.03 652.79 89.48 C 647.11 89.24 641.42 89.80 635.73 89.49 L 635.56 87.94 Z" />
<path fill="#cca76f" opacity="1.00" d=" M 613.58 86.92 C 614.36 86.99 615.92 87.12 616.70 87.19 C 617.15 88.87 617.58 90.56 617.97 92.26 C 617.36 91.22 616.76 90.18 616.18 89.13 C 615.61 89.92 614.46 91.49 613.88 92.27 C 614.54 90.79 615.29 89.35 616.06 87.92 C 615.44 87.67 614.20 87.17 613.58 86.92 Z" />
<path fill="#000000" opacity="1.00" d=" M 690.17 86.94 C 691.84 87.25 693.54 87.48 695.25 87.57 C 694.83 87.76 694.00 88.12 693.58 88.30 C 693.31 89.60 693.11 90.91 692.93 92.22 C 696.07 92.11 699.22 91.85 702.29 91.11 C 701.86 91.48 701.00 92.22 700.57 92.59 C 697.10 93.04 693.63 93.43 690.17 93.87 C 690.15 91.56 690.14 89.25 690.17 86.94 Z" />
<path fill="#3d090b" opacity="1.00" d=" M 695.25 87.57 C 696.77 87.43 698.30 87.29 699.84 87.15 C 699.65 87.98 699.46 88.80 699.29 89.62 C 699.85 89.51 700.42 89.41 701.00 89.31 C 703.69 85.31 708.49 87.60 711.91 89.20 L 712.85 89.79 C 709.34 90.38 705.75 90.30 702.29 91.11 C 699.22 91.85 696.07 92.11 692.93 92.22 C 693.11 90.91 693.31 89.60 693.58 88.30 C 694.00 88.12 694.83 87.76 695.25 87.57 M 703.19 88.31 C 703.72 88.85 703.72 88.85 703.19 88.31 Z" />
<path fill="#3a0015" opacity="1.00" d=" M 634.42 89.66 C 634.71 89.23 635.27 88.37 635.56 87.94 L 635.73 89.49 C 641.42 89.80 647.11 89.24 652.79 89.48 C 655.14 89.67 657.46 90.11 659.76 90.64 C 657.35 91.07 654.90 91.11 652.47 91.02 C 652.50 91.46 652.57 92.33 652.61 92.76 L 652.07 92.82 C 651.97 92.23 651.77 91.05 651.67 90.47 C 648.47 90.49 645.29 90.60 642.10 90.70 C 641.68 90.70 640.84 90.70 640.42 90.70 C 638.37 90.69 636.36 90.25 634.42 89.66 Z" />
<path fill="#a77740" opacity="1.00" d=" M 703.19 88.31 C 703.72 88.85 703.72 88.85 703.19 88.31 Z" />
<path fill="#100204" opacity="0.47" d=" M 714.87 90.16 C 715.33 89.36 715.93 88.68 716.67 88.11 C 718.94 89.96 714.86 94.02 714.87 90.16 Z" />
<path fill="#aaaaa9" opacity="1.00" d=" M 524.72 89.89 C 527.01 90.30 529.50 90.75 531.18 92.51 C 528.94 91.89 526.49 91.50 524.72 89.89 Z" />
<path fill="#700e1a" opacity="1.00" d=" M 627.39 92.39 C 629.43 91.47 631.49 90.58 633.56 89.73 C 632.27 95.40 632.67 101.24 631.89 106.96 C 631.55 110.22 630.95 113.84 633.03 116.69 C 631.91 118.42 630.57 119.99 629.19 121.50 C 628.50 120.11 627.89 118.64 627.88 117.06 C 627.35 108.85 627.61 100.62 627.39 92.39 Z" />
<path fill="#010001" opacity="1.00" d=" M 642.10 90.70 C 645.29 90.60 648.47 90.49 651.67 90.47 C 651.77 91.05 651.97 92.23 652.07 92.82 L 652.23 93.76 C 652.20 95.34 652.15 96.92 652.11 98.50 C 654.46 98.35 656.82 98.32 659.18 98.38 C 659.46 97.28 659.73 96.17 659.98 95.06 C 660.01 94.27 660.07 92.69 660.10 91.89 L 660.16 90.59 C 662.76 90.11 665.41 90.16 668.02 90.58 C 666.34 93.18 666.15 96.37 668.85 98.38 C 670.02 98.12 671.10 97.83 672.29 97.54 C 673.41 98.05 674.52 98.59 675.63 99.16 C 674.01 100.28 672.34 101.30 670.58 102.17 C 668.75 101.51 666.52 100.13 664.70 101.49 C 663.31 103.19 662.32 105.17 661.16 107.02 C 657.91 109.39 653.60 108.77 649.83 109.47 C 651.27 108.31 652.74 107.16 654.25 106.08 C 657.73 106.81 656.07 100.67 653.86 103.93 C 653.08 104.24 652.30 104.53 651.53 104.81 C 650.79 103.61 650.07 102.40 649.34 101.20 C 649.81 100.42 650.29 99.65 650.78 98.88 C 648.55 98.38 646.32 97.89 644.09 97.42 C 644.51 94.92 644.72 92.06 642.10 90.70 M 659.16 106.71 C 659.43 105.42 659.68 104.13 659.92 102.84 C 657.01 102.24 656.72 105.87 659.16 106.71 Z" />
<path fill="#21201c" opacity="1.00" d=" M 634.47 90.73 C 636.10 90.72 637.73 90.71 639.37 90.70 C 638.74 92.38 638.02 94.08 638.02 95.91 C 638.74 96.83 639.94 96.95 640.95 97.40 C 638.67 95.71 638.71 93.30 639.68 90.87 C 640.19 91.25 641.22 92.01 641.74 92.39 C 641.51 93.37 640.56 94.02 640.03 94.84 C 640.70 94.90 642.03 95.02 642.70 95.08 C 643.05 95.67 643.75 96.83 644.09 97.42 C 646.32 97.89 648.55 98.38 650.78 98.88 C 650.29 99.65 649.81 100.42 649.34 101.20 C 650.07 102.40 650.79 103.61 651.53 104.81 C 652.30 104.53 653.08 104.24 653.86 103.93 C 653.96 104.47 654.15 105.54 654.25 106.08 C 652.74 107.16 651.27 108.31 649.83 109.47 C 653.60 108.77 657.91 109.39 661.16 107.02 C 659.34 108.61 663.14 109.64 661.95 107.36 C 662.32 107.60 663.05 108.08 663.42 108.32 C 665.87 106.30 668.84 105.13 671.88 104.28 C 671.84 104.77 671.77 105.76 671.73 106.26 C 671.29 106.37 670.40 106.60 669.96 106.72 C 669.92 108.41 669.83 110.12 670.02 111.81 C 671.10 112.63 672.29 113.29 673.46 113.99 C 672.81 119.56 674.12 125.93 670.84 130.81 C 667.20 133.08 662.47 131.86 658.48 131.23 C 659.92 130.57 661.40 129.93 662.87 129.29 C 659.25 128.49 655.61 127.67 652.27 126.02 C 652.66 123.37 652.87 120.70 652.97 118.02 C 652.31 118.05 650.99 118.11 650.33 118.14 C 649.32 122.68 648.04 127.44 649.76 131.98 C 647.21 131.97 644.64 132.17 642.11 131.83 C 636.06 127.44 639.43 119.22 637.33 113.10 C 636.68 113.27 635.38 113.61 634.73 113.78 C 638.15 109.39 637.99 103.83 637.71 98.56 C 636.92 98.45 635.36 98.23 634.58 98.12 C 634.53 95.66 634.49 93.19 634.47 90.73 M 661.24 122.15 C 659.85 122.26 659.90 124.62 661.28 124.70 C 662.69 124.64 662.65 122.17 661.24 122.15 Z" />
<path fill="#cca76f" opacity="1.00" d=" M 639.37 90.70 L 640.42 90.70 C 640.84 90.70 641.68 90.70 642.10 90.70 C 644.72 92.06 644.51 94.92 644.09 97.42 C 643.75 96.83 643.05 95.67 642.70 95.08 C 642.03 95.02 640.70 94.90 640.03 94.84 C 640.56 94.02 641.51 93.37 641.74 92.39 C 641.22 92.01 640.19 91.25 639.68 90.87 C 638.71 93.30 638.67 95.71 640.95 97.40 C 639.94 96.95 638.74 96.83 638.02 95.91 C 638.02 94.08 638.74 92.38 639.37 90.70 Z" />
<path fill="#62c8d1" opacity="1.00" d=" M 652.47 91.02 C 654.90 91.11 657.35 91.07 659.76 90.64 L 660.16 90.59 L 660.10 91.89 C 657.60 92.24 655.10 92.48 652.61 92.76 C 652.57 92.33 652.50 91.46 652.47 91.02 Z" />
<path fill="#cca76f" opacity="1.00" d=" M 668.02 90.58 C 668.65 90.67 669.30 90.75 669.95 90.84 C 670.68 91.00 672.13 91.34 672.85 91.51 C 673.04 93.54 672.97 95.59 672.29 97.54 C 671.10 97.83 670.02 98.12 668.85 98.38 C 666.15 96.37 666.34 93.18 668.02 90.58 M 667.22 94.07 C 668.05 95.74 671.57 98.69 672.19 95.41 C 671.33 95.26 669.60 94.96 668.74 94.81 C 669.47 93.85 670.21 92.89 670.97 91.95 C 669.01 91.00 668.09 92.59 667.22 94.07 Z" />
<path fill="#282526" opacity="1.00" d=" M 548.69 96.27 C 552.11 95.78 554.52 92.70 557.91 92.25 C 561.41 93.50 564.41 95.78 567.42 97.90 C 561.38 101.63 555.89 106.16 549.76 109.73 C 546.53 111.56 544.05 115.15 540.02 115.10 L 540.31 114.20 C 540.38 113.95 540.52 113.43 540.59 113.18 C 537.59 110.55 533.95 108.56 529.91 108.28 L 530.38 107.41 C 530.10 106.61 529.82 105.80 529.56 105.00 C 531.02 104.35 532.52 103.78 534.05 103.31 C 534.73 102.57 535.45 101.87 536.18 101.16 C 536.59 101.04 537.42 100.80 537.83 100.67 C 541.41 99.11 544.72 96.79 548.69 96.27 Z" />
<path fill="#9bb96b" opacity="1.00" d=" M 652.61 92.76 C 655.10 92.48 657.60 92.24 660.10 91.89 C 660.07 92.69 660.01 94.27 659.98 95.06 C 659.55 94.94 658.68 94.69 658.25 94.57 C 657.07 94.20 655.94 94.35 654.87 95.01 C 654.38 95.23 653.41 95.67 652.92 95.89 C 652.75 95.36 652.40 94.29 652.23 93.76 L 652.07 92.82 L 652.61 92.76 Z" />
<path fill="#030102" opacity="1.00" d=" M 667.22 94.07 C 668.09 92.59 669.01 91.00 670.97 91.95 C 670.21 92.89 669.47 93.85 668.74 94.81 C 669.60 94.96 671.33 95.26 672.19 95.41 C 671.57 98.69 668.05 95.74 667.22 94.07 Z" />
<path fill="#2d2b2b" opacity="1.00" d=" M 584.98 92.59 C 585.92 97.31 585.17 102.12 585.65 106.88 C 581.74 109.26 577.95 111.83 574.25 114.52 C 573.99 109.68 573.96 104.83 573.88 99.99 C 577.31 97.14 580.97 94.57 584.98 92.59 Z" />
<path fill="#5f9291" opacity="1.00" d=" M 652.23 93.76 C 652.40 94.29 652.75 95.36 652.92 95.89 C 653.41 95.67 654.38 95.23 654.87 95.01 C 655.51 97.05 659.50 97.34 658.25 94.57 C 658.68 94.69 659.55 94.94 659.98 95.06 C 659.73 96.17 659.46 97.28 659.18 98.38 C 656.82 98.32 654.46 98.35 652.11 98.50 C 652.15 96.92 652.20 95.34 652.23 93.76 Z" />
<path fill="#ffffff" opacity="1.00" d=" M 654.87 95.01 C 655.94 94.35 657.07 94.20 658.25 94.57 C 659.50 97.34 655.51 97.05 654.87 95.01 Z" />
<path fill="#501e74" opacity="1.00" d=" M 680.02 95.72 C 677.89 97.34 677.64 93.59 679.87 94.02 C 679.91 94.44 679.98 95.29 680.02 95.72 Z" />
<path fill="#1e1c1d" opacity="1.00" d=" M 489.62 95.05 C 492.35 95.14 495.08 95.13 497.82 95.21 C 500.33 95.37 502.83 95.72 505.32 96.14 C 504.12 96.71 502.93 97.28 501.72 97.82 L 500.75 98.21 C 502.07 99.42 503.38 100.63 504.79 101.75 C 504.20 103.85 503.67 105.97 503.18 108.10 C 501.79 105.71 500.28 103.38 498.28 101.47 C 498.74 103.57 498.83 105.98 500.32 107.67 C 502.92 109.57 506.07 110.48 508.97 111.81 C 511.27 112.74 513.54 113.79 515.99 114.25 C 519.42 114.15 522.51 112.23 525.94 112.08 C 530.82 111.95 535.58 113.20 540.31 114.20 L 540.02 115.10 C 534.06 115.62 528.05 115.05 522.12 115.88 C 519.41 116.42 516.80 117.40 514.05 117.70 C 511.28 117.32 509.08 115.46 507.00 113.74 C 502.77 111.76 498.28 110.06 493.52 111.09 C 492.68 110.42 491.83 109.76 491.01 109.07 L 492.43 109.43 C 491.60 108.37 490.76 107.33 489.92 106.29 C 491.88 104.72 493.81 103.12 495.77 101.54 C 493.67 99.42 491.63 97.25 489.62 95.05 Z" />
<path fill="#d01a1e" opacity="1.00" d=" M 608.40 96.31 C 609.95 95.11 611.11 98.02 609.92 99.01 C 608.36 100.20 607.29 97.27 608.40 96.31 Z" />
<path fill="#c9390f" opacity="1.00" d=" M 700.26 96.34 C 701.51 96.67 701.70 97.45 700.81 98.69 C 699.54 98.35 699.36 97.57 700.26 96.34 Z" />
<path fill="#982f15" opacity="1.00" d=" M 702.04 96.21 C 703.61 95.64 704.13 96.20 703.60 97.89 C 702.03 98.48 701.51 97.92 702.04 96.21 Z" />
<path fill="#d01a1e" opacity="1.00" d=" M 611.04 96.97 C 612.60 95.73 613.56 98.72 612.55 99.69 C 610.99 100.96 609.86 97.94 611.04 96.97 Z" />
<path fill="#161515" opacity="1.00" d=" M 500.75 98.21 L 501.72 97.82 C 510.47 102.97 520.28 106.33 530.38 107.41 L 529.91 108.28 C 524.41 107.98 518.90 107.33 513.61 105.75 C 510.54 104.71 507.59 103.36 504.79 101.75 C 503.38 100.63 502.07 99.42 500.75 98.21 Z" />
<path fill="#727271" opacity="1.00" d=" M 481.88 101.04 C 481.14 97.64 486.32 99.23 488.27 99.01 C 487.96 102.17 484.03 100.87 481.88 101.04 Z" />
<path fill="#5e5e5d" opacity="1.00" d=" M 536.18 101.16 C 533.28 99.27 537.61 97.90 537.83 100.67 C 537.42 100.80 536.59 101.04 536.18 101.16 Z" />
<path fill="#4e5253" opacity="1.00" d=" M 703.13 99.17 C 704.50 98.67 704.96 99.15 704.52 100.58 C 703.13 101.08 702.67 100.61 703.13 99.17 Z" />
<path fill="#383635" opacity="1.00" d=" M 614.29 100.28 C 615.72 100.32 615.57 102.79 614.22 102.87 C 612.80 102.76 612.97 100.41 614.29 100.28 Z" />
<path fill="#21005d" opacity="1.00" d=" M 676.25 99.39 C 676.63 101.25 677.10 103.19 676.00 104.92 C 674.70 106.97 675.58 109.31 676.09 111.47 C 676.54 110.96 677.44 109.94 677.89 109.43 C 679.72 106.55 677.73 102.08 681.01 100.11 C 682.98 104.56 683.48 109.44 682.75 114.23 C 681.89 113.19 681.05 112.16 680.21 111.13 C 678.79 112.35 677.37 113.57 675.96 114.79 C 674.13 109.83 673.53 104.15 676.25 99.39 Z" />
<path fill="#1c1a1b" opacity="1.00" d=" M 478.48 100.86 C 479.68 101.47 480.87 102.08 482.10 102.65 C 481.64 102.83 480.73 103.20 480.27 103.38 C 479.76 107.22 479.92 111.11 480.27 114.97 C 480.49 114.21 480.93 112.70 481.16 111.94 C 484.15 110.34 487.34 111.13 490.16 112.69 C 489.55 114.56 488.93 116.42 488.39 118.31 C 491.43 117.31 492.82 114.33 494.38 111.80 C 495.20 113.31 495.34 115.04 495.53 116.72 C 500.03 117.87 504.73 117.48 509.28 118.38 C 507.20 119.56 505.14 121.03 502.72 121.34 C 500.27 121.25 497.92 120.33 495.47 120.36 C 494.96 121.09 494.49 121.83 494.04 122.60 C 494.98 123.45 495.92 124.31 496.90 125.13 C 496.18 124.99 494.73 124.71 494.00 124.57 C 488.76 123.41 484.39 119.46 478.90 119.36 C 482.40 121.45 486.01 123.56 488.51 126.87 C 488.53 127.74 488.56 129.48 488.58 130.35 C 482.67 133.30 475.53 130.37 471.89 125.24 C 471.07 125.95 470.26 126.66 469.45 127.37 C 460.59 127.45 451.50 127.34 443.06 130.43 L 442.06 130.22 C 440.50 129.39 438.74 129.25 437.06 129.77 C 435.19 130.00 433.79 128.52 432.78 127.17 C 432.92 126.63 433.20 125.53 433.34 124.99 C 436.25 124.60 439.26 124.87 442.11 124.03 C 442.45 123.78 443.11 123.27 443.44 123.02 C 447.41 123.56 451.54 123.72 455.38 122.39 C 460.83 120.25 467.32 124.31 472.25 120.23 C 474.90 118.57 473.66 115.26 473.34 112.78 C 474.29 114.79 475.05 116.89 475.75 119.01 C 476.85 118.19 477.96 117.38 479.07 116.57 C 478.07 115.30 477.05 114.04 476.00 112.82 C 480.10 110.34 478.33 104.84 478.48 100.86 M 474.36 123.79 C 474.48 124.31 474.73 125.36 474.85 125.89 C 478.06 128.89 482.85 130.16 487.14 129.18 C 485.85 124.30 478.47 119.97 474.36 123.79 Z" />
<path fill="#2c292a" opacity="1.00" d=" M 498.28 101.47 C 500.28 103.38 501.79 105.71 503.18 108.10 C 503.67 105.97 504.20 103.85 504.79 101.75 C 507.59 103.36 510.54 104.71 513.61 105.75 C 513.46 107.14 513.60 108.61 513.06 109.92 C 511.78 110.72 510.35 111.23 508.97 111.81 C 506.07 110.48 502.92 109.57 500.32 107.67 C 498.83 105.98 498.74 103.57 498.28 101.47 Z" />
<path fill="#302d2e" opacity="1.00" d=" M 443.93 108.67 C 444.76 106.73 444.96 103.06 447.89 103.43 C 450.04 104.18 450.48 106.90 451.75 108.56 C 456.27 107.91 460.35 104.83 465.04 105.57 C 466.75 105.75 468.14 106.89 469.60 107.68 C 468.74 107.77 467.03 107.94 466.17 108.03 C 465.33 108.08 463.63 108.19 462.79 108.25 C 459.98 108.67 457.25 109.51 454.43 109.86 C 452.81 109.99 451.19 110.05 449.59 110.27 L 448.31 111.17 C 446.74 111.61 445.15 112.00 443.55 112.31 C 442.04 112.57 440.52 112.77 439.02 112.97 C 438.41 113.59 437.81 114.21 437.23 114.85 C 436.80 113.58 436.30 112.33 435.82 111.08 C 434.32 112.39 432.82 113.72 431.30 115.01 C 432.53 109.28 438.88 107.80 443.93 108.67 M 445.33 108.24 C 446.78 108.60 448.24 108.96 449.71 109.31 C 449.52 107.70 449.35 105.91 448.04 104.77 C 445.88 103.76 445.87 107.04 445.33 108.24 M 440.20 111.31 C 440.77 111.83 440.77 111.83 440.20 111.31 Z" />
<path fill="#070606" opacity="1.00" d=" M 480.27 103.38 C 480.73 103.20 481.64 102.83 482.10 102.65 C 484.05 103.51 485.99 104.40 487.90 105.35 C 488.79 106.70 489.68 108.09 491.01 109.07 C 491.83 109.76 492.68 110.42 493.52 111.09 L 494.38 111.80 C 492.82 114.33 491.43 117.31 488.39 118.31 C 488.93 116.42 489.55 114.56 490.16 112.69 C 487.34 111.13 484.15 110.34 481.16 111.94 C 480.93 112.70 480.49 114.21 480.27 114.97 C 479.92 111.11 479.76 107.22 480.27 103.38 Z" />
<path fill="#262324" opacity="1.00" d=" M 567.31 103.29 C 567.93 103.27 569.18 103.24 569.80 103.22 C 569.90 107.95 570.00 112.67 570.21 117.39 C 568.26 118.74 566.32 120.09 564.43 121.52 C 564.45 116.33 564.41 111.12 563.55 105.99 C 564.19 105.95 565.49 105.87 566.13 105.83 C 566.33 109.34 565.80 113.08 567.45 116.33 C 568.19 112.01 567.86 107.61 567.31 103.29 Z" />
<path fill="#9f2a13" opacity="1.00" d=" M 653.86 103.93 C 656.07 100.67 657.73 106.81 654.25 106.08 C 654.15 105.54 653.96 104.47 653.86 103.93 Z" />
<path fill="#d01a1e" opacity="1.00" d=" M 659.16 106.71 C 656.72 105.87 657.01 102.24 659.92 102.84 C 659.68 104.13 659.43 105.42 659.16 106.71 Z" />
<path fill="#070707" opacity="0.39" d=" M 445.33 108.24 C 445.87 107.04 445.88 103.76 448.04 104.77 C 449.35 105.91 449.52 107.70 449.71 109.31 C 448.24 108.96 446.78 108.60 445.33 108.24 Z" />
<path fill="#643655" opacity="1.00" d=" M 676.09 111.47 C 675.58 109.31 674.70 106.97 676.00 104.92 C 676.63 106.42 677.27 107.91 677.89 109.43 C 677.44 109.94 676.54 110.96 676.09 111.47 Z" />
<path fill="#393637" opacity="1.00" d=" M 513.61 105.75 C 518.90 107.33 524.41 107.98 529.91 108.28 C 533.95 108.56 537.59 110.55 540.59 113.18 C 540.52 113.43 540.38 113.95 540.31 114.20 C 535.58 113.20 530.82 111.95 525.94 112.08 C 522.51 112.23 519.42 114.15 515.99 114.25 C 513.54 113.79 511.27 112.74 508.97 111.81 C 510.35 111.23 511.78 110.72 513.06 109.92 C 513.60 108.61 513.46 107.14 513.61 105.75 Z" />
<path fill="#030203" opacity="0.55" d=" M 574.25 114.52 C 577.95 111.83 581.74 109.26 585.65 106.88 C 585.60 107.39 585.52 108.42 585.48 108.93 C 572.65 118.37 559.58 127.47 546.59 136.66 C 543.07 138.81 539.31 142.35 534.89 140.68 C 523.84 137.95 513.53 132.99 502.88 129.08 C 499.95 127.56 496.29 127.08 494.00 124.57 C 494.73 124.71 496.18 124.99 496.90 125.13 C 507.05 129.61 517.49 133.37 527.84 137.37 C 532.23 138.76 537.55 141.12 541.59 137.64 C 541.87 137.45 542.44 137.06 542.72 136.86 C 549.84 131.59 557.42 126.94 564.43 121.52 C 566.32 120.09 568.26 118.74 570.21 117.39 C 571.55 116.44 572.90 115.48 574.25 114.52 Z" />
<path fill="#5d5e5e" opacity="1.00" d=" M 661.16 107.02 L 661.95 107.36 C 663.14 109.64 659.34 108.61 661.16 107.02 Z" />
<path fill="#423f3f" opacity="1.00" d=" M 454.43 109.86 C 457.25 109.51 459.98 108.67 462.79 108.25 C 462.56 108.76 462.10 109.78 461.87 110.29 C 463.23 110.65 464.57 111.03 465.94 111.38 C 466.00 110.54 466.12 108.86 466.17 108.03 C 467.03 107.94 468.74 107.77 469.60 107.68 C 470.98 109.27 472.43 110.85 473.34 112.78 C 473.66 115.26 474.90 118.57 472.25 120.23 C 467.32 124.31 460.83 120.25 455.38 122.39 C 451.54 123.72 447.41 123.56 443.44 123.02 L 442.89 122.35 C 444.33 121.18 446.21 120.00 446.31 117.92 C 446.80 115.60 444.75 113.98 443.55 112.31 C 445.15 112.00 446.74 111.61 448.31 111.17 C 449.91 111.25 451.51 111.35 453.11 111.47 C 451.77 111.66 450.41 111.84 449.08 112.02 C 449.81 113.22 450.54 114.42 451.28 115.62 C 452.24 115.14 453.18 114.63 454.11 114.08 C 454.72 112.77 454.38 111.26 454.43 109.86 M 457.63 114.13 C 459.32 114.97 462.75 114.95 461.88 112.16 C 460.20 109.84 457.43 111.60 457.63 114.13 M 465.75 114.78 C 466.31 115.08 467.44 115.68 468.00 115.99 C 468.56 115.66 469.67 114.99 470.22 114.66 C 469.64 113.65 469.53 111.64 467.92 111.86 C 466.18 111.68 466.12 113.64 465.75 114.78 M 461.54 117.04 C 461.68 118.92 463.56 118.88 464.96 119.25 C 465.16 118.18 466.34 116.84 465.15 115.92 C 463.99 114.60 461.54 115.05 461.54 117.04 M 447.34 116.19 C 447.87 116.75 447.87 116.75 447.34 116.19 M 459.26 116.21 C 459.79 116.71 459.79 116.71 459.26 116.21 M 451.30 118.36 C 450.00 120.73 454.51 120.73 454.62 118.60 C 454.40 117.06 452.04 117.46 451.30 118.36 M 446.29 120.19 C 446.78 120.76 446.78 120.76 446.29 120.19 M 462.27 120.33 C 462.77 120.86 462.77 120.86 462.27 120.33 Z" />
<path fill="#167096" opacity="1.00" d=" M 462.79 108.25 C 463.63 108.19 465.33 108.08 466.17 108.03 C 466.12 108.86 466.00 110.54 465.94 111.38 C 464.57 111.03 463.23 110.65 461.87 110.29 C 462.10 109.78 462.56 108.76 462.79 108.25 Z" />
<path fill="#656464" opacity="1.00" d=" M 449.59 110.27 C 451.19 110.05 452.81 109.99 454.43 109.86 C 454.38 111.26 454.72 112.77 454.11 114.08 C 453.18 114.63 452.24 115.14 451.28 115.62 C 450.54 114.42 449.81 113.22 449.08 112.02 C 450.41 111.84 451.77 111.66 453.11 111.47 C 451.51 111.35 449.91 111.25 448.31 111.17 L 449.59 110.27 Z" />
<path fill="#504f4f" opacity="1.00" d=" M 431.30 115.01 C 432.82 113.72 434.32 112.39 435.82 111.08 C 436.30 112.33 436.80 113.58 437.23 114.85 L 436.63 115.97 C 436.48 116.24 436.18 116.79 436.03 117.07 C 435.79 117.60 435.31 118.68 435.07 119.21 C 434.18 120.25 433.30 121.29 432.43 122.34 C 432.05 120.04 431.72 117.74 431.36 115.44 L 431.30 115.01 Z" />
<path fill="#9c9b9b" opacity="1.00" d=" M 440.20 111.31 C 440.77 111.83 440.77 111.83 440.20 111.31 Z" />
<path fill="#189357" opacity="1.00" d=" M 457.63 114.13 C 457.43 111.60 460.20 109.84 461.88 112.16 C 462.75 114.95 459.32 114.97 457.63 114.13 Z" />
<path fill="#282526" opacity="1.00" d=" M 493.52 111.09 C 498.28 110.06 502.77 111.76 507.00 113.74 C 509.08 115.46 511.28 117.32 514.05 117.70 C 516.80 117.40 519.41 116.42 522.12 115.88 C 521.51 116.40 520.90 116.91 520.31 117.43 C 523.10 118.22 525.76 119.38 528.36 120.67 C 529.25 125.66 530.15 130.66 530.67 135.71 C 534.30 136.36 537.94 136.99 541.59 137.64 C 537.55 141.12 532.23 138.76 527.84 137.37 C 517.49 133.37 507.05 129.61 496.90 125.13 C 495.92 124.31 494.98 123.45 494.04 122.60 C 494.49 121.83 494.96 121.09 495.47 120.36 C 497.92 120.33 500.27 121.25 502.72 121.34 C 505.14 121.03 507.20 119.56 509.28 118.38 C 504.73 117.48 500.03 117.87 495.53 116.72 C 495.34 115.04 495.20 113.31 494.38 111.80 L 493.52 111.09 M 516.05 122.86 C 516.04 123.62 516.02 125.15 516.01 125.92 C 518.59 127.03 521.20 128.07 523.86 128.99 C 523.92 128.23 524.04 126.69 524.10 125.93 C 521.56 124.56 518.84 123.59 516.05 122.86 Z" />
<path fill="#09001e" opacity="1.00" d=" M 675.96 114.79 C 677.37 113.57 678.79 112.35 680.21 111.13 C 681.05 112.16 681.89 113.19 682.75 114.23 C 682.51 116.15 682.15 118.06 681.82 119.97 C 679.76 118.36 677.71 116.73 675.96 114.79 Z" />
<path fill="#444647" opacity="1.00" d=" M 702.16 111.46 C 703.53 111.01 704.01 111.49 703.61 112.91 C 702.21 113.36 701.73 112.88 702.16 111.46 Z" />
<path fill="#c38938" opacity="1.00" d=" M 465.75 114.78 C 466.12 113.64 466.18 111.68 467.92 111.86 C 469.53 111.64 469.64 113.65 470.22 114.66 C 469.67 114.99 468.56 115.66 468.00 115.99 C 467.44 115.68 466.31 115.08 465.75 114.78 Z" />
<path fill="#100e0e" opacity="1.00" d=" M 437.23 114.85 C 437.81 114.21 438.41 113.59 439.02 112.97 C 440.52 112.77 442.04 112.57 443.55 112.31 C 444.75 113.98 446.80 115.60 446.31 117.92 C 446.21 120.00 444.33 121.18 442.89 122.35 L 442.11 122.39 C 441.21 122.21 439.40 121.84 438.50 121.66 C 438.46 121.62 438.36 121.55 438.31 121.52 C 437.32 119.82 436.81 117.91 436.63 115.97 L 437.23 114.85 M 438.56 115.93 C 437.81 118.86 440.85 118.33 442.74 118.67 C 442.86 116.64 440.26 113.53 438.56 115.93 M 443.14 116.36 C 441.64 119.39 446.48 116.42 443.14 116.36 Z" />
<path fill="#040404" opacity="1.00" d=" M 634.73 113.78 C 635.38 113.61 636.68 113.27 637.33 113.10 C 639.43 119.22 636.06 127.44 642.11 131.83 C 644.64 132.17 647.21 131.97 649.76 131.98 C 653.10 132.02 656.72 131.85 659.57 133.91 C 652.76 132.81 645.98 134.49 639.16 133.91 C 635.95 128.61 630.58 125.09 624.68 123.48 C 626.23 122.97 627.72 122.23 629.19 121.50 C 630.57 119.99 631.91 118.42 633.03 116.69 C 633.61 115.73 634.17 114.76 634.73 113.78 Z" />
<path fill="#3a3836" opacity="1.00" d=" M 614.41 114.04 C 615.78 113.61 616.26 114.10 615.86 115.53 C 614.48 115.96 613.99 115.46 614.41 114.04 Z" />
<path fill="#515050" opacity="1.00" d=" M 438.56 115.93 C 440.26 113.53 442.86 116.64 442.74 118.67 C 440.85 118.33 437.81 118.86 438.56 115.93 Z" />
<path fill="#b2454d" opacity="1.00" d=" M 461.54 117.04 C 461.54 115.05 463.99 114.60 465.15 115.92 C 466.34 116.84 465.16 118.18 464.96 119.25 C 463.56 118.88 461.68 118.92 461.54 117.04 Z" />
<path fill="#302d2e" opacity="1.00" d=" M 432.78 127.17 C 429.84 123.96 429.90 119.31 431.36 115.44 C 431.72 117.74 432.05 120.04 432.43 122.34 C 433.30 121.29 434.18 120.25 435.07 119.21 L 435.87 118.92 C 435.91 118.46 435.99 117.53 436.03 117.07 C 436.18 116.79 436.48 116.24 436.63 115.97 C 436.81 117.91 437.32 119.82 438.31 121.52 L 438.37 121.63 L 438.50 121.66 C 439.40 121.84 441.21 122.21 442.11 122.39 C 442.11 122.80 442.11 123.62 442.11 124.03 C 439.26 124.87 436.25 124.60 433.34 124.99 C 433.20 125.53 432.92 126.63 432.78 127.17 Z" />
<path fill="#5c5b5b" opacity="1.00" d=" M 443.14 116.36 C 446.48 116.42 441.64 119.39 443.14 116.36 Z" />
<path fill="#aeaeac" opacity="1.00" d=" M 447.34 116.19 C 447.87 116.75 447.87 116.75 447.34 116.19 Z" />
<path fill="#737170" opacity="1.00" d=" M 459.26 116.21 C 459.79 116.71 459.79 116.71 459.26 116.21 Z" />
<path fill="#888786" opacity="1.00" d=" M 435.07 119.21 C 435.31 118.68 435.79 117.60 436.03 117.07 C 435.99 117.53 435.91 118.46 435.87 118.92 L 435.07 119.21 Z" />
<path fill="#5e5d5d" opacity="1.00" d=" M 451.30 118.36 C 452.04 117.46 454.40 117.06 454.62 118.60 C 454.51 120.73 450.00 120.73 451.30 118.36 Z" />
<path fill="#070707" opacity="1.00" d=" M 692.36 122.41 C 697.03 121.08 701.64 119.51 706.45 118.73 C 706.29 120.37 706.13 122.01 705.93 123.64 C 700.67 125.36 696.35 129.22 693.76 134.08 C 692.07 133.80 690.39 133.45 688.77 132.94 C 688.32 133.20 687.43 133.73 686.99 133.99 C 684.24 134.00 681.50 134.00 678.77 133.99 C 680.63 130.21 683.79 126.19 681.49 121.87 C 685.06 122.38 688.77 123.47 692.36 122.41 Z" />
<path fill="#949392" opacity="1.00" d=" M 446.29 120.19 C 446.78 120.76 446.78 120.76 446.29 120.19 Z" />
<path fill="#787776" opacity="1.00" d=" M 462.27 120.33 C 462.77 120.86 462.77 120.86 462.27 120.33 Z" />
<path fill="#686866" opacity="1.00" d=" M 438.31 121.52 C 438.36 121.55 438.46 121.62 438.50 121.66 L 438.37 121.63 L 438.31 121.52 Z" />
<path fill="#1c1a1b" opacity="1.00" d=" M 528.36 120.67 C 532.77 121.72 537.40 121.59 541.73 123.07 C 541.77 127.68 541.43 132.37 542.72 136.86 C 542.44 137.06 541.87 137.45 541.59 137.64 C 537.94 136.99 534.30 136.36 530.67 135.71 C 530.15 130.66 529.25 125.66 528.36 120.67 Z" />
<path fill="#7b7a79" opacity="1.00" d=" M 442.11 122.39 L 442.89 122.35 L 443.44 123.02 C 443.11 123.27 442.45 123.78 442.11 124.03 C 442.11 123.62 442.11 122.80 442.11 122.39 Z" />
<path fill="#505050" opacity="1.00" d=" M 661.24 122.15 C 662.65 122.17 662.69 124.64 661.28 124.70 C 659.90 124.62 659.85 122.26 661.24 122.15 Z" />
<path fill="#111011" opacity="1.00" d=" M 516.05 122.86 C 518.84 123.59 521.56 124.56 524.10 125.93 C 524.04 126.69 523.92 128.23 523.86 128.99 C 521.20 128.07 518.59 127.03 516.01 125.92 C 516.02 125.15 516.04 123.62 516.05 122.86 Z" />
<path fill="#353333" opacity="0.98" d=" M 437.06 129.77 C 438.74 129.25 440.50 129.39 442.06 130.22 C 440.73 131.44 438.16 131.17 437.06 129.77 Z" />
<path fill="#711f22" opacity="0.57" d=" M 238.05 292.05 C 238.76 286.57 243.60 282.76 248.88 282.12 C 252.45 282.99 256.34 284.39 258.04 287.95 C 260.07 291.17 259.55 295.04 259.12 298.61 C 258.60 298.00 258.10 297.39 257.61 296.77 C 257.95 294.61 258.05 292.42 257.95 290.25 L 256.80 288.85 L 256.60 288.60 C 256.54 288.53 256.42 288.39 256.36 288.32 C 255.22 287.08 254.13 285.79 252.71 284.89 C 250.42 283.57 246.90 283.41 244.70 285.01 C 242.51 286.38 240.94 288.52 239.99 290.90 C 239.75 291.04 239.27 291.32 239.03 291.46 L 238.05 292.05 Z" />
<path fill="#4ed654" opacity="0.87" d=" M 239.99 290.90 C 240.94 288.52 242.51 286.38 244.70 285.01 C 245.55 284.85 247.25 284.54 248.10 284.38 C 247.69 287.27 243.94 287.05 242.59 289.36 C 243.22 289.49 244.47 289.74 245.09 289.87 C 245.02 291.26 244.96 292.66 244.89 294.07 C 245.76 294.08 247.49 294.09 248.36 294.10 C 248.96 297.07 244.76 297.70 243.09 295.98 C 242.08 294.48 242.40 292.75 242.72 291.11 C 241.89 291.94 240.97 292.69 239.91 293.22 C 239.93 292.64 239.97 291.48 239.99 290.90 Z" />
<path fill="#36c139" opacity="0.83" d=" M 248.59 284.44 C 249.62 284.55 251.68 284.78 252.71 284.89 C 254.13 285.79 255.22 287.08 256.36 288.32 L 256.49 288.47 L 256.60 288.60 L 256.80 288.85 C 257.01 289.84 257.44 291.82 257.66 292.80 C 255.27 292.96 255.08 290.34 253.97 288.92 C 252.91 286.50 249.01 287.39 248.59 284.44 Z" />
<path fill="#155918" opacity="0.39" d=" M 256.36 288.32 C 256.42 288.39 256.54 288.53 256.60 288.60 L 256.49 288.47 L 256.36 288.32 Z" />
<path fill="#53f75b" opacity="0.98" d=" M 248.92 289.37 C 250.67 289.48 252.43 289.54 254.17 289.81 C 255.81 291.48 253.18 292.99 252.38 294.35 C 253.05 294.35 254.40 294.37 255.07 294.38 C 254.79 294.97 254.23 296.15 253.95 296.75 C 252.19 297.56 250.23 296.82 248.40 296.82 C 248.63 294.96 249.53 293.40 250.89 292.15 C 250.29 292.17 249.10 292.22 248.50 292.25 C 248.60 291.53 248.81 290.09 248.92 289.37 Z" />
<path fill="#ffffff" opacity="1.00" d=" M 50.64 292.50 C 54.70 292.49 58.75 292.51 62.81 292.48 C 64.53 305.64 66.10 318.83 67.75 332.00 C 64.84 332.00 61.93 332.00 59.03 332.00 C 58.87 329.62 58.72 327.25 58.58 324.87 C 57.82 324.87 56.30 324.87 55.55 324.87 C 55.40 327.25 55.25 329.62 55.10 332.00 C 52.15 332.00 49.20 332.00 46.26 332.00 C 47.71 318.83 49.19 305.67 50.64 292.50 M 56.24 301.86 L 57.16 302.80 C 56.15 307.76 55.96 312.84 55.44 317.88 C 56.39 317.85 57.35 317.83 58.30 317.81 C 57.98 312.37 57.07 306.92 57.61 301.47 C 57.15 301.57 56.69 301.70 56.24 301.86 Z" />
<path fill="#ffffff" opacity="1.00" d=" M 98.74 292.51 C 103.45 292.48 108.15 292.51 112.85 292.48 C 112.88 295.11 112.88 297.74 112.87 300.38 C 111.00 300.37 109.13 300.37 107.25 300.37 C 107.25 302.87 107.25 305.37 107.25 307.87 C 109.00 307.87 110.75 307.87 112.50 307.88 C 112.50 310.37 112.50 312.87 112.50 315.38 C 110.75 315.37 109.00 315.37 107.25 315.37 C 107.25 318.29 107.25 321.21 107.27 324.13 C 109.34 324.12 111.42 324.12 113.50 324.12 C 113.50 326.75 113.50 329.37 113.50 332.00 C 108.58 332.00 103.67 332.00 98.75 332.00 C 98.74 318.84 98.76 305.67 98.74 292.51 Z" />
<path fill="#ffff26" opacity="1.00" d=" M 125.64 292.50 C 129.70 292.49 133.75 292.51 137.81 292.47 C 139.52 305.64 141.10 318.82 142.74 332.00 C 139.84 332.00 136.93 332.00 134.03 332.00 C 133.87 329.62 133.72 327.25 133.58 324.87 C 132.82 324.87 131.30 324.87 130.55 324.87 C 130.40 327.25 130.25 329.62 130.10 332.00 C 127.15 332.00 124.20 332.00 121.26 332.00 C 122.71 318.83 124.19 305.67 125.64 292.50 M 130.44 317.87 C 131.39 317.84 132.35 317.82 133.31 317.80 C 133.00 312.29 132.03 306.76 132.52 301.24 C 130.88 306.58 131.21 312.35 130.44 317.87 Z" />
<path fill="#ffff26" opacity="1.00" d=" M 159.74 292.53 C 162.58 292.48 165.42 292.48 168.27 292.54 C 168.22 303.05 168.28 313.56 168.24 324.07 C 169.95 324.10 171.67 324.13 173.39 324.17 C 173.37 326.76 173.37 329.34 173.41 331.93 C 168.86 332.05 164.30 331.98 159.75 332.00 C 159.74 318.84 159.77 305.69 159.74 292.53 Z" />
<path fill="#b76b43" opacity="1.00" d=" M 238.05 292.05 L 239.03 291.46 C 239.09 292.97 239.19 294.49 239.33 296.01 L 239.53 296.86 C 239.87 297.30 240.55 298.18 240.89 298.62 L 241.30 298.80 L 241.69 299.20 L 242.02 299.82 C 241.98 300.35 241.90 301.41 241.86 301.94 C 239.42 299.26 237.78 295.75 238.05 292.05 Z" />
<path fill="#ffffff" opacity="1.00" d=" M 18.75 292.50 C 22.41 292.49 26.07 292.49 29.73 292.51 C 30.32 298.67 31.55 304.78 31.62 310.98 C 32.92 304.90 33.10 298.65 33.90 292.50 C 37.56 292.50 41.22 292.49 44.88 292.50 C 44.88 305.66 44.87 318.83 44.88 331.99 C 42.42 332.00 39.96 332.00 37.50 332.00 C 37.49 323.29 37.49 314.58 37.54 305.88 C 36.30 314.54 35.50 323.25 34.53 331.95 C 32.77 331.98 31.00 332.00 29.24 332.01 C 28.31 323.34 27.02 314.71 26.46 306.00 C 25.84 314.65 26.24 323.33 26.12 332.00 C 23.67 332.00 21.21 332.00 18.75 332.00 C 18.75 318.83 18.75 305.67 18.75 292.50 Z" />
<path fill="#ffffff" opacity="1.00" d=" M 69.24 331.98 C 69.33 318.80 69.13 305.62 69.33 292.45 C 72.96 292.52 76.59 292.50 80.22 292.50 C 81.04 298.39 81.42 304.36 82.57 310.21 C 83.14 304.30 83.76 298.40 84.40 292.50 C 88.06 292.50 91.72 292.50 95.38 292.50 C 95.38 305.67 95.38 318.83 95.38 332.00 C 92.92 332.00 90.46 332.00 88.00 332.00 C 87.91 323.29 88.28 314.55 87.54 305.86 C 87.08 314.61 85.94 323.29 84.99 332.00 C 83.25 332.00 81.51 332.00 79.77 332.01 C 78.54 323.34 78.07 314.56 76.36 305.97 C 76.89 314.63 76.51 323.32 76.62 332.00 C 74.16 332.00 71.70 332.00 69.24 331.98 Z" />
<path fill="#ffff26" opacity="1.00" d=" M 144.24 331.98 C 144.31 318.81 144.16 305.63 144.32 292.46 C 147.10 292.51 149.88 292.51 152.66 292.45 C 152.86 303.00 152.69 313.56 152.75 324.12 C 154.46 324.12 156.17 324.12 157.88 324.13 C 157.87 326.75 157.87 329.37 157.88 331.99 C 153.33 332.00 148.78 332.01 144.24 331.98 Z" />
<path fill="#ffff26" opacity="1.00" d=" M 182.75 292.50 C 187.49 292.59 192.31 292.15 197.00 293.10 C 200.64 294.27 201.55 298.59 201.62 301.96 C 201.68 305.41 202.02 310.63 197.52 311.36 C 199.42 312.25 201.27 313.75 201.44 316.01 C 201.86 321.31 201.49 326.64 201.66 331.96 C 199.02 332.00 196.38 332.00 193.75 332.00 C 193.65 326.67 193.96 321.32 193.60 316.00 C 193.75 314.56 192.30 314.30 191.33 313.79 C 191.17 319.86 191.29 325.93 191.25 332.00 C 188.42 332.00 185.58 332.00 182.75 332.00 C 182.75 318.83 182.75 305.67 182.75 292.50 M 191.36 298.87 C 191.21 302.01 191.22 305.15 191.29 308.28 C 192.28 307.78 193.86 307.65 193.65 306.13 C 193.73 303.59 194.70 299.69 191.36 298.87 Z" />
<path fill="#66df6b" opacity="0.88" d=" M 240.22 293.68 C 242.18 293.97 242.07 296.06 242.56 297.55 C 243.96 299.95 248.15 299.25 248.39 302.45 C 246.02 302.26 243.76 301.47 242.02 299.82 L 241.69 299.20 L 241.30 298.80 L 240.89 298.62 C 240.77 298.18 240.54 297.30 240.43 296.86 L 239.53 296.86 C 239.70 296.07 240.05 294.48 240.22 293.68 Z" />
<path fill="#51e759" opacity="0.91" d=" M 253.56 298.75 C 255.93 297.64 254.49 293.28 257.74 293.33 C 257.39 295.32 256.91 297.30 256.13 299.17 C 255.92 299.41 255.50 299.90 255.29 300.15 C 253.67 301.56 251.55 302.10 249.52 302.60 C 248.86 299.86 252.16 300.08 253.56 298.75 Z" />
<path fill="#347237" opacity="0.46" d=" M 239.53 296.86 L 240.43 296.86 C 240.54 297.30 240.77 298.18 240.89 298.62 C 240.55 298.18 239.87 297.30 239.53 296.86 Z" />
<path fill="#c26d3f" opacity="1.00" d=" M 256.13 299.17 C 256.75 298.98 258.01 298.60 258.64 298.41 C 255.51 303.05 249.79 305.74 244.28 303.96 C 244.92 303.56 245.58 303.17 246.25 302.80 C 248.98 304.28 252.08 303.10 254.53 301.65 C 254.72 301.27 255.10 300.52 255.29 300.15 C 255.50 299.90 255.92 299.41 256.13 299.17 Z" />
<path fill="#b95c60" opacity="0.76" d=" M 243.75 302.32 C 243.98 302.70 243.98 302.70 243.75 302.32 Z" />
<path fill="#ffff26" opacity="1.00" d=" M 204.24 324.01 C 206.28 324.00 208.33 324.00 210.37 324.00 C 210.38 326.66 210.38 329.33 210.38 332.00 C 208.33 332.00 206.29 331.99 204.24 331.99 C 204.25 329.33 204.25 326.67 204.24 324.01 Z" />
</svg>
