<?xml version="1.0" encoding="UTF-8" ?>
<!DOCTYPE svg PUBLIC "-//W3C//DTD SVG 1.1//EN" "http://www.w3.org/Graphics/SVG/1.1/DTD/svg11.dtd">
<svg width="960pt" height="540pt" viewBox="0 0 960 540" version="1.1" xmlns="http://www.w3.org/2000/svg">
<path fill="#4f4f4f" opacity="1.00" d=" M 467.89 45.82 C 470.13 42.17 474.21 40.29 478.45 41.44 C 479.53 44.73 483.43 43.92 486.09 44.74 C 501.64 48.25 517.25 51.63 532.53 56.22 C 532.79 58.98 533.20 61.74 533.97 64.41 C 531.05 60.66 527.08 57.92 522.99 55.60 C 519.33 53.93 514.79 51.07 510.83 53.13 C 513.29 57.61 519.78 57.79 521.74 62.52 C 508.15 57.91 494.29 53.61 479.87 52.81 C 480.08 52.36 480.51 51.46 480.72 51.01 C 477.23 51.61 474.06 53.24 471.88 56.08 C 470.88 55.63 469.88 55.17 468.89 54.71 C 467.87 55.10 466.84 55.49 465.83 55.87 L 464.79 56.25 C 466.37 53.02 469.71 51.42 472.65 49.67 C 472.65 48.99 472.65 48.31 472.66 47.63 C 471.05 47.08 469.46 46.46 467.89 45.82 Z" />
<path fill="#2d2d2d" opacity="1.00" d=" M 478.45 41.44 C 492.43 43.53 506.06 47.33 519.80 50.55 C 529.74 53.30 540.02 55.26 549.43 59.60 C 542.75 69.18 538.13 80.02 531.43 89.60 C 529.08 92.80 525.36 94.48 522.08 96.52 C 525.03 97.02 527.98 97.62 530.99 97.76 C 532.02 97.67 533.07 97.58 534.11 97.48 C 534.43 98.68 535.69 98.85 536.70 99.27 L 536.75 99.39 C 537.40 100.75 538.07 102.12 538.79 103.46 C 535.63 102.52 532.32 102.26 529.07 102.80 C 529.92 102.15 530.78 101.50 531.63 100.85 C 524.70 99.23 517.14 98.25 510.28 100.66 C 508.20 101.34 505.79 101.33 504.12 102.90 C 503.40 102.76 501.98 102.47 501.27 102.32 C 501.72 102.67 502.63 103.36 503.09 103.71 C 501.37 104.20 499.66 104.70 497.95 105.20 C 498.39 105.28 498.83 105.35 499.28 105.43 C 502.57 106.32 507.24 105.69 508.92 109.40 C 504.88 110.29 501.47 113.05 500.47 117.17 C 500.09 117.19 499.34 117.24 498.96 117.26 C 500.29 117.88 501.63 118.47 502.99 119.03 L 501.81 119.31 C 498.52 119.38 495.66 117.35 494.38 114.38 C 493.25 117.22 491.59 119.80 489.65 122.15 C 489.05 119.10 489.18 115.99 489.71 112.94 C 487.74 112.38 485.79 111.79 483.89 111.05 C 484.33 111.09 485.22 111.16 485.66 111.20 C 485.33 109.88 484.99 108.57 484.65 107.26 C 485.41 107.78 486.19 108.29 486.98 108.80 C 488.36 109.67 490.00 109.96 491.54 110.46 C 490.51 112.93 490.24 115.59 490.74 118.22 C 491.66 115.51 492.40 112.75 493.11 109.98 C 493.68 110.66 494.24 111.36 494.81 112.06 C 495.08 111.51 495.61 110.40 495.88 109.85 C 495.94 111.42 496.07 112.99 496.20 114.56 C 497.81 114.22 499.41 113.88 501.04 113.54 C 499.67 113.39 498.30 113.24 496.95 113.10 C 496.80 111.55 496.67 110.00 496.53 108.45 C 496.69 108.11 497.01 107.42 497.18 107.08 C 496.83 106.72 496.14 106.00 495.79 105.64 C 493.74 103.27 490.50 102.92 487.68 102.09 C 474.27 98.48 460.96 94.45 447.68 90.37 C 443.63 89.26 439.51 88.32 435.66 86.60 L 435.11 86.37 C 436.49 84.25 437.88 82.14 439.28 80.04 C 439.88 81.57 440.49 83.10 441.11 84.63 C 445.65 84.43 450.75 84.47 454.34 87.70 C 454.07 88.19 453.54 89.18 453.27 89.67 C 455.98 90.64 458.77 91.47 461.68 91.51 L 461.55 92.52 C 462.37 91.83 463.19 91.15 464.02 90.46 C 463.67 90.38 462.97 90.20 462.62 90.12 L 461.86 89.37 C 462.62 89.22 464.16 88.91 464.92 88.75 L 465.39 89.08 C 467.15 90.77 469.46 91.69 471.78 90.43 C 478.99 94.07 487.21 94.65 494.66 97.66 C 495.67 98.70 498.07 100.19 498.88 98.15 L 499.39 97.16 C 501.14 97.93 502.91 99.17 504.93 98.61 C 509.72 97.68 514.52 96.84 519.39 96.43 C 519.58 96.08 519.97 95.39 520.16 95.04 C 521.18 88.40 525.06 82.90 527.78 76.91 L 526.83 77.00 C 529.19 76.08 531.62 75.15 533.62 73.54 C 535.25 72.20 535.06 69.86 535.40 67.98 C 535.66 68.53 536.18 69.65 536.44 70.20 C 536.58 66.14 537.38 62.13 538.68 58.29 C 536.63 57.57 534.59 56.86 532.53 56.22 C 517.25 51.63 501.64 48.25 486.09 44.74 C 483.43 43.92 479.53 44.73 478.45 41.44 M 488.48 99.06 C 491.63 101.21 495.45 101.76 499.10 102.52 C 497.92 100.82 495.77 100.62 493.93 100.14 C 492.19 99.43 490.35 99.03 488.48 99.06 Z" />
<path fill="#646464" opacity="1.00" d=" M 446.22 70.66 C 452.84 61.89 460.69 54.11 467.89 45.82 C 469.46 46.46 471.05 47.08 472.66 47.63 C 472.65 48.31 472.65 48.99 472.65 49.67 C 469.71 51.42 466.37 53.02 464.79 56.25 C 464.64 59.85 466.96 62.64 469.49 64.88 C 466.05 65.26 463.91 62.76 462.11 60.25 C 459.20 62.20 456.03 63.74 452.67 64.78 C 452.63 65.61 452.59 66.45 452.55 67.29 C 452.01 67.54 451.47 67.78 450.93 68.03 C 450.34 70.62 449.72 73.21 449.14 75.80 C 452.30 74.60 454.29 71.87 456.70 69.73 C 460.26 69.53 464.00 69.16 467.38 70.58 C 470.44 71.81 473.37 73.35 476.52 74.38 C 477.97 76.70 479.24 79.12 480.33 81.63 C 478.19 81.09 476.12 80.34 474.09 79.48 C 474.14 79.80 474.22 80.45 474.26 80.77 C 480.77 82.61 487.23 84.63 493.77 86.36 C 497.84 87.42 498.56 80.12 502.73 81.36 C 508.66 82.39 515.09 82.46 520.10 86.22 L 519.88 85.21 C 519.42 82.68 519.15 80.13 518.86 77.59 C 521.52 77.42 524.17 77.26 526.83 77.00 L 527.78 76.91 C 525.06 82.90 521.18 88.40 520.16 95.04 C 515.95 92.58 511.07 92.35 506.37 91.79 C 498.13 89.93 490.08 87.30 481.91 85.15 C 474.44 83.21 467.17 80.33 459.48 79.35 C 459.50 78.85 459.54 77.85 459.56 77.35 C 455.68 76.88 451.77 76.67 447.88 77.12 C 447.27 74.98 446.66 72.84 446.22 70.66 Z" />
<path fill="#636363" opacity="1.00" d=" M 471.88 56.08 C 474.06 53.24 477.23 51.61 480.72 51.01 C 480.51 51.46 480.08 52.36 479.87 52.81 C 477.56 53.66 476.14 55.59 475.76 57.99 C 476.52 57.85 477.28 57.69 478.05 57.53 C 479.88 58.72 481.97 59.43 484.11 59.87 C 494.31 62.08 504.41 64.76 514.43 67.71 C 514.06 68.17 513.34 69.10 512.97 69.57 C 510.95 70.09 508.96 70.71 506.98 71.36 C 511.12 71.36 515.22 71.97 519.27 72.80 C 514.00 73.45 508.64 73.35 503.37 72.71 C 501.23 72.36 499.09 72.06 496.95 71.82 C 497.17 72.42 497.61 73.62 497.84 74.23 C 495.37 73.55 492.82 73.76 490.36 74.34 C 490.98 73.99 492.21 73.28 492.83 72.92 C 492.75 72.43 492.58 71.43 492.50 70.94 C 493.70 70.78 494.90 70.62 496.11 70.47 C 490.41 69.01 484.51 65.74 478.66 68.56 C 477.68 68.14 476.71 67.70 475.76 67.24 C 476.84 66.78 477.92 66.32 479.01 65.86 C 478.42 65.40 477.83 64.94 477.24 64.48 C 475.22 62.89 473.33 61.16 471.47 59.39 C 469.83 59.51 468.20 59.63 466.57 59.76 C 466.48 59.54 466.30 59.10 466.21 58.88 C 466.12 58.13 465.93 56.62 465.83 55.87 C 466.84 55.49 467.87 55.10 468.89 54.71 C 469.88 55.17 470.88 55.63 471.88 56.08 Z" />
<path fill="#ffffff" opacity="1.00" d=" M 610.86 51.02 C 612.76 51.05 614.69 51.13 616.54 51.71 C 616.43 52.55 616.21 54.23 616.10 55.07 C 614.63 56.16 611.68 54.83 612.05 57.73 L 610.85 57.58 C 610.85 55.39 610.85 53.21 610.86 51.02 M 613.22 52.37 C 611.24 52.57 612.56 55.17 614.10 54.48 C 616.15 54.20 614.76 51.67 613.22 52.37 Z" />
<path fill="#ffffff" opacity="1.00" d=" M 656.39 51.27 C 656.72 51.25 657.37 51.19 657.69 51.16 C 657.73 53.32 657.74 55.49 657.78 57.65 C 656.31 57.57 654.77 57.96 653.37 57.45 C 652.08 56.32 651.12 54.87 649.97 53.61 L 649.29 54.03 C 648.70 56.28 650.22 57.27 651.98 58.09 C 651.03 57.97 649.11 57.72 648.15 57.59 L 647.39 56.28 C 647.05 56.40 646.36 56.64 646.02 56.76 C 646.50 56.32 647.46 55.43 647.94 54.98 C 647.11 54.49 646.27 54.01 645.44 53.55 C 645.47 54.22 645.54 55.57 645.58 56.24 L 647.01 58.24 L 644.32 57.44 C 644.24 56.39 644.09 54.29 644.01 53.24 C 642.88 54.78 642.39 56.65 641.54 58.34 C 640.72 56.95 641.78 53.38 639.32 53.90 C 639.26 54.81 639.15 56.63 639.09 57.54 L 637.79 57.74 C 637.77 56.08 637.75 54.41 637.75 52.74 C 640.15 52.80 644.13 54.49 644.98 50.97 C 644.81 56.27 652.34 49.80 652.12 54.76 C 652.57 54.08 653.02 53.39 653.49 52.71 C 654.24 52.74 655.75 52.80 656.50 52.83 L 656.39 51.27 M 654.18 53.66 C 654.20 54.45 654.25 56.03 654.27 56.82 C 654.83 56.73 655.95 56.54 656.51 56.45 C 656.94 54.65 655.84 53.87 654.18 53.66 Z" />
<path fill="#ffffff" opacity="1.00" d=" M 661.49 57.64 C 661.89 55.42 660.55 52.40 662.48 50.75 L 662.81 52.63 C 664.13 52.58 665.33 52.91 666.43 53.63 C 666.96 53.39 668.03 52.92 668.56 52.68 C 668.79 53.29 669.24 54.50 669.46 55.11 C 670.00 53.90 670.85 52.97 672.01 52.32 C 671.09 54.70 670.22 60.63 666.54 58.04 C 667.15 57.85 668.36 57.47 668.97 57.27 C 668.77 56.34 668.38 54.47 668.18 53.53 C 667.60 53.98 667.04 54.44 666.48 54.89 C 667.12 58.37 663.71 57.74 661.49 57.64 M 663.25 54.06 C 661.92 55.00 663.22 57.73 664.74 56.59 C 666.14 55.65 664.80 52.85 663.25 54.06 Z" />
<path fill="#454545" opacity="1.00" d=" M 510.83 53.13 C 514.79 51.07 519.33 53.93 522.99 55.60 C 522.54 55.98 521.65 56.74 521.21 57.12 C 523.40 59.15 526.02 60.95 527.36 63.71 C 527.92 66.73 527.90 69.86 527.67 72.92 C 527.81 75.22 524.90 75.14 523.32 75.68 C 523.46 74.50 523.60 73.31 523.76 72.13 C 522.66 72.31 521.59 72.50 520.51 72.66 L 519.27 72.80 C 515.22 71.97 511.12 71.36 506.98 71.36 C 508.96 70.71 510.95 70.09 512.97 69.57 C 513.34 69.10 514.06 68.17 514.43 67.71 C 516.16 68.16 517.92 68.56 519.67 68.96 C 520.61 67.87 521.55 66.77 522.45 65.64 C 522.85 64.50 522.46 63.41 521.74 62.52 C 519.78 57.79 513.29 57.61 510.83 53.13 Z" />
<path fill="#ffffff" opacity="1.00" d=" M 621.27 53.65 C 622.90 52.16 627.07 52.18 626.28 55.37 L 624.46 56.12 C 624.35 50.97 623.48 55.75 622.52 57.18 C 623.55 56.90 625.62 56.32 626.66 56.04 C 626.26 58.42 620.88 58.90 621.39 55.85 L 621.21 53.66 C 620.62 53.87 619.43 54.31 618.83 54.52 C 618.45 55.75 619.07 57.64 617.41 58.07 C 617.32 56.33 617.29 54.59 617.29 52.85 C 618.77 52.58 620.10 52.84 621.27 53.65 Z" />
<path fill="#ffffff" opacity="1.00" d=" M 632.47 52.93 C 634.66 52.37 637.47 52.63 637.04 55.63 C 636.11 55.63 634.25 55.65 633.32 55.66 L 633.64 56.89 C 634.58 56.73 636.47 56.41 637.41 56.24 C 636.34 57.56 634.90 58.11 633.11 57.90 C 632.67 57.51 631.78 56.74 631.34 56.35 C 631.62 55.50 632.19 53.79 632.47 52.93 M 634.25 54.27 C 634.89 54.93 634.89 54.93 634.25 54.27 Z" />
<path fill="#151515" opacity="1.00" d=" M 475.76 57.99 C 476.14 55.59 477.56 53.66 479.87 52.81 C 494.29 53.61 508.15 57.91 521.74 62.52 C 522.46 63.41 522.85 64.50 522.45 65.64 C 517.87 62.95 512.40 62.50 507.31 61.33 C 498.49 58.97 489.64 56.76 480.79 54.55 C 480.38 54.99 479.57 55.88 479.16 56.32 C 478.88 56.62 478.33 57.23 478.05 57.53 C 477.28 57.69 476.52 57.85 475.76 57.99 Z" />
<path fill="#e0e0e0" opacity="0.90" d=" M 627.34 53.65 C 627.92 52.66 630.69 52.29 630.81 53.57 C 630.44 53.74 629.69 54.10 629.31 54.27 C 628.54 55.31 626.52 55.48 627.34 53.65 Z" />
<path fill="#fd9f91" opacity="1.00" d=" M 479.16 56.32 C 479.57 55.88 480.38 54.99 480.79 54.55 C 489.64 56.76 498.49 58.97 507.31 61.33 L 508.53 61.94 C 506.84 62.23 505.18 62.56 503.50 62.82 C 495.38 60.68 487.01 59.35 479.16 56.32 Z" />
<path fill="#ffffff" opacity="1.00" d=" M 629.57 56.29 C 629.05 54.82 630.84 54.28 631.12 55.93 C 632.08 58.16 627.56 58.59 627.51 56.76 C 628.03 56.64 629.05 56.40 629.57 56.29 Z" />
<path fill="#0d0d0d" opacity="1.00" d=" M 464.79 56.25 L 465.83 55.87 C 465.93 56.62 466.12 58.13 466.21 58.88 C 466.30 59.10 466.48 59.54 466.57 59.76 C 468.20 62.17 470.38 64.17 472.89 65.65 C 473.82 66.21 474.78 66.74 475.76 67.24 C 476.71 67.70 477.68 68.14 478.66 68.56 C 481.68 69.86 484.77 70.97 487.85 72.11 C 487.67 72.44 487.31 73.11 487.14 73.44 C 480.94 71.31 474.89 68.63 469.49 64.88 C 466.96 62.64 464.64 59.85 464.79 56.25 Z" />
<path fill="#d55c58" opacity="1.00" d=" M 478.05 57.53 C 478.33 57.23 478.88 56.62 479.16 56.32 C 487.01 59.35 495.38 60.68 503.50 62.82 C 509.35 64.04 514.97 66.36 520.92 67.01 L 521.84 65.77 C 517.58 63.92 512.87 63.56 508.53 61.94 L 507.31 61.33 C 512.40 62.50 517.87 62.95 522.45 65.64 C 521.55 66.77 520.61 67.87 519.67 68.96 C 517.92 68.56 516.16 68.16 514.43 67.71 C 504.41 64.76 494.31 62.08 484.11 59.87 C 481.97 59.43 479.88 58.72 478.05 57.53 Z" />
<path fill="#191919" opacity="1.00" d=" M 521.21 57.12 C 521.65 56.74 522.54 55.98 522.99 55.60 C 527.08 57.92 531.05 60.66 533.97 64.41 C 534.44 65.60 534.91 66.79 535.40 67.98 C 535.06 69.86 535.25 72.20 533.62 73.54 C 531.62 75.15 529.19 76.08 526.83 77.00 C 524.17 77.26 521.52 77.42 518.86 77.59 C 509.27 77.95 499.64 76.74 490.36 74.34 C 492.82 73.76 495.37 73.55 497.84 74.23 C 501.60 75.06 505.39 75.81 509.25 75.97 C 512.58 76.30 515.93 76.33 519.27 76.11 C 520.61 75.99 521.96 75.85 523.32 75.68 C 524.90 75.14 527.81 75.22 527.67 72.92 C 527.90 69.86 527.92 66.73 527.36 63.71 C 526.02 60.95 523.40 59.15 521.21 57.12 Z" />
<path fill="#3e3e3e" opacity="1.00" d=" M 532.53 56.22 C 534.59 56.86 536.63 57.57 538.68 58.29 C 537.38 62.13 536.58 66.14 536.44 70.20 C 536.18 69.65 535.66 68.53 535.40 67.98 C 534.91 66.79 534.44 65.60 533.97 64.41 C 533.20 61.74 532.79 58.98 532.53 56.22 Z" />
<path fill="#eaeaea" opacity="1.00" d=" M 466.57 59.76 C 468.20 59.63 469.83 59.51 471.47 59.39 C 473.33 61.16 475.22 62.89 477.24 64.48 C 475.79 64.87 474.33 65.26 472.89 65.65 C 470.38 64.17 468.20 62.17 466.57 59.76 Z" />
<path fill="#707070" opacity="1.00" d=" M 452.67 64.78 C 456.03 63.74 459.20 62.20 462.11 60.25 C 463.91 62.76 466.05 65.26 469.49 64.88 C 474.89 68.63 480.94 71.31 487.14 73.44 C 488.20 73.77 489.27 74.06 490.36 74.34 C 499.64 76.74 509.27 77.95 518.86 77.59 C 519.15 80.13 519.42 82.68 519.88 85.21 C 517.20 82.69 513.59 81.70 510.05 81.17 C 495.76 79.04 481.66 75.32 468.40 69.58 C 464.68 67.86 460.42 68.28 456.70 69.73 C 454.29 71.87 452.30 74.60 449.14 75.80 C 449.72 73.21 450.34 70.62 450.93 68.03 C 451.47 67.78 452.01 67.54 452.55 67.29 C 452.59 66.45 452.63 65.61 452.67 64.78 Z" />
<path fill="#0d0d0d" opacity="1.00" d=" M 549.43 59.60 C 549.76 60.03 550.43 60.88 550.76 61.31 C 549.63 64.72 547.58 67.70 545.77 70.77 C 543.36 74.78 541.31 78.99 538.78 82.92 C 535.75 87.63 533.32 92.68 530.99 97.76 C 527.98 97.62 525.03 97.02 522.08 96.52 C 525.36 94.48 529.08 92.80 531.43 89.60 C 538.13 80.02 542.75 69.18 549.43 59.60 Z" />
<path fill="#b4b4b4" opacity="1.00" d=" M 550.76 61.31 C 550.53 63.71 551.24 66.43 549.90 68.58 C 548.51 70.55 547.27 72.64 546.57 74.96 L 546.38 75.48 L 546.25 75.63 C 544.39 77.47 542.74 79.55 541.73 81.99 L 541.68 83.93 C 541.67 84.14 541.65 84.58 541.64 84.79 L 541.35 84.62 C 540.49 84.05 539.63 83.48 538.78 82.92 C 541.31 78.99 543.36 74.78 545.77 70.77 C 547.58 67.70 549.63 64.72 550.76 61.31 Z" />
<path fill="#fbc0ad" opacity="1.00" d=" M 503.50 62.82 C 505.18 62.56 506.84 62.23 508.53 61.94 C 512.87 63.56 517.58 63.92 521.84 65.77 L 520.92 67.01 C 514.97 66.36 509.35 64.04 503.50 62.82 Z" />
<path fill="#969696" opacity="1.00" d=" M 477.24 64.48 C 477.83 64.94 478.42 65.40 479.01 65.86 C 477.92 66.32 476.84 66.78 475.76 67.24 C 474.78 66.74 473.82 66.21 472.89 65.65 C 474.33 65.26 475.79 64.87 477.24 64.48 Z" />
<path fill="#eaeaea" opacity="1.00" d=" M 678.52 67.53 C 683.64 63.56 693.27 64.95 695.19 71.68 C 696.08 69.99 696.74 68.17 697.89 66.62 C 699.74 66.05 701.74 66.45 703.60 66.83 C 703.01 69.05 704.89 72.87 701.90 73.72 C 699.65 74.60 697.72 72.97 695.87 71.98 C 700.32 85.08 704.42 98.29 708.83 111.40 C 689.21 111.34 669.60 111.43 649.98 111.36 C 646.29 111.32 642.91 109.59 640.16 107.25 C 640.18 108.63 640.20 110.01 640.23 111.39 C 633.17 111.32 626.12 111.46 619.06 111.34 C 614.01 111.18 609.52 108.09 607.03 103.78 C 604.16 108.23 599.23 111.13 593.93 111.35 C 587.21 111.45 580.49 111.35 573.77 111.38 C 573.76 105.18 573.76 98.98 573.77 92.77 C 575.29 92.80 576.82 92.84 578.36 92.89 C 572.86 87.23 572.33 77.66 577.47 71.60 C 580.21 68.13 584.52 66.10 588.93 65.98 C 595.70 65.77 602.48 65.96 609.25 65.91 C 609.23 67.37 609.20 68.84 609.17 70.30 C 611.85 67.84 615.21 66.00 618.94 65.98 C 626.05 65.78 633.17 65.97 640.29 65.90 C 640.28 67.21 640.26 68.51 640.26 69.82 C 642.74 67.76 645.68 66.10 648.99 66.01 C 656.10 65.74 663.22 65.98 670.33 65.90 C 670.26 72.13 670.38 78.35 670.46 84.57 C 673.51 79.08 673.19 71.60 678.52 67.53 M 695.65 71.98 C 696.35 71.80 697.77 71.45 698.48 71.27 C 697.17 76.41 709.52 71.41 703.01 66.64 L 701.13 72.51 L 700.74 70.49 C 700.32 70.57 699.47 70.73 699.04 70.81 C 699.20 70.13 699.53 68.78 699.70 68.11 C 696.97 67.43 696.58 70.17 695.65 71.98 M 586.35 69.44 C 577.38 71.32 573.76 83.50 579.69 90.26 C 583.05 94.70 588.92 95.27 594.06 94.91 L 594.13 96.00 C 588.37 96.00 582.61 96.00 576.85 96.00 C 576.85 97.82 576.85 99.64 576.86 101.47 C 582.87 101.30 588.90 101.67 594.90 101.30 C 599.58 100.79 601.28 94.11 597.90 91.07 C 595.64 88.63 592.07 89.42 589.12 89.19 C 584.88 89.35 581.57 84.90 582.17 80.87 C 582.79 77.82 585.26 74.88 588.54 74.72 C 594.41 74.49 600.29 74.70 606.17 74.67 C 606.15 72.78 606.16 70.90 606.16 69.02 C 599.56 69.33 592.90 68.56 586.35 69.44 M 608.57 79.08 C 608.42 85.37 608.48 91.68 608.55 97.97 C 608.54 103.48 613.57 108.42 619.09 108.19 C 625.10 108.26 631.10 108.16 637.11 108.23 C 637.10 106.41 637.10 104.60 637.10 102.79 C 631.38 102.79 625.66 102.85 619.94 102.80 C 616.91 103.10 613.69 100.61 613.91 97.43 C 613.87 91.66 613.89 85.89 613.90 80.12 C 613.70 77.26 616.17 74.51 619.10 74.68 C 625.13 74.54 631.17 74.69 637.21 74.64 C 637.17 72.77 637.14 70.89 637.11 69.01 C 631.07 69.15 625.02 68.96 618.98 69.09 C 613.65 69.09 608.69 73.71 608.57 79.08 M 639.48 77.03 C 638.60 83.64 639.29 90.38 639.09 97.05 C 638.76 102.96 644.04 108.60 650.05 108.21 C 657.29 108.20 664.54 108.25 671.79 108.18 C 675.45 96.74 679.24 85.34 683.11 73.98 C 684.97 72.91 687.74 73.38 688.19 75.78 C 691.22 84.77 694.10 93.81 697.14 102.79 C 692.42 102.83 687.71 102.81 683.00 102.81 C 682.99 104.19 683.00 105.58 683.01 106.97 L 683.00 108.20 C 690.27 108.14 697.55 108.28 704.82 108.12 L 704.02 107.04 C 701.07 96.92 697.48 86.98 694.29 76.93 C 693.47 74.52 692.88 71.72 690.61 70.21 C 686.49 66.90 679.34 68.45 677.55 73.60 C 673.95 83.73 670.85 94.04 667.27 104.18 C 667.24 97.00 667.28 89.82 667.28 82.64 C 662.24 82.64 657.21 82.64 652.17 82.63 C 652.17 84.43 652.17 86.22 652.18 88.02 C 655.44 88.01 658.70 88.01 661.97 88.04 C 662.02 92.97 662.04 97.89 661.96 102.81 C 657.92 102.76 653.89 102.94 649.85 102.78 C 647.29 102.71 644.71 100.58 644.64 97.93 C 644.45 92.00 644.55 86.06 644.58 80.13 C 644.45 77.20 646.98 74.42 649.99 74.67 C 655.75 74.56 661.52 74.67 667.28 74.66 C 667.25 72.78 667.23 70.89 667.21 69.01 C 661.46 69.14 655.72 68.98 649.97 69.07 C 645.19 68.95 640.66 72.41 639.48 77.03 M 683.67 75.93 C 679.96 86.65 676.58 97.48 672.89 108.20 C 674.99 108.21 677.09 108.22 679.20 108.25 C 680.49 104.82 681.57 101.32 682.58 97.80 C 682.78 99.03 682.96 100.27 683.15 101.51 C 687.24 101.51 691.34 101.52 695.44 101.52 C 692.72 93.03 689.90 84.57 687.11 76.11 C 686.99 74.26 683.86 73.88 683.67 75.93 M 587.02 76.03 C 585.69 77.22 584.02 78.31 583.60 80.18 C 582.50 83.32 584.65 87.31 587.98 87.91 C 590.32 88.14 592.68 87.94 595.03 88.21 C 599.13 88.93 602.00 93.74 600.50 97.67 C 599.57 100.85 596.30 102.93 593.05 102.80 C 587.65 102.86 582.25 102.78 576.86 102.81 C 576.85 104.64 576.84 106.46 576.85 108.29 C 582.56 108.15 588.27 108.28 593.99 108.22 C 597.90 108.30 601.68 106.13 603.89 102.96 C 607.90 97.42 606.60 88.85 600.98 84.89 C 597.56 82.19 593.00 82.65 588.93 82.66 C 588.99 82.30 589.13 81.57 589.20 81.21 C 594.85 81.34 600.50 81.29 606.16 81.32 C 606.15 79.50 606.15 77.68 606.16 75.86 C 599.93 76.00 593.68 75.58 587.48 76.13 L 587.02 76.03 M 617.32 76.14 C 613.42 78.81 615.53 84.10 615.02 88.02 C 621.12 88.01 627.22 88.01 633.33 88.01 C 633.32 86.22 633.31 84.42 633.32 82.63 C 628.94 82.64 624.57 82.65 620.20 82.64 C 620.45 82.30 620.94 81.62 621.19 81.27 C 626.51 81.31 631.83 81.27 637.16 81.36 C 637.15 79.52 637.15 77.69 637.16 75.86 C 630.55 76.04 623.90 75.49 617.32 76.14 M 648.09 75.99 C 647.37 76.70 646.66 77.41 645.96 78.12 C 645.65 84.42 645.78 90.73 645.81 97.04 C 645.54 99.09 646.94 101.16 649.06 101.38 C 652.97 101.73 656.91 101.46 660.84 101.46 C 660.78 97.39 660.80 93.31 660.80 89.24 C 657.93 89.25 655.06 89.24 652.19 89.24 C 652.17 91.03 652.17 92.82 652.16 94.61 C 653.47 94.86 654.78 95.15 656.10 95.46 C 654.56 95.87 652.82 96.45 651.33 95.67 C 650.77 91.14 650.99 86.50 651.18 81.94 C 651.39 81.79 651.81 81.49 652.02 81.34 C 657.09 81.05 662.19 81.33 667.28 81.25 C 667.27 79.45 667.27 77.65 667.28 75.86 C 660.88 75.91 654.48 75.73 648.09 75.99 M 615.08 89.21 C 615.07 92.39 614.78 95.60 615.22 98.77 C 615.86 100.32 617.34 101.52 619.11 101.39 C 625.10 101.56 631.10 101.36 637.10 101.47 C 637.09 99.64 637.09 97.82 637.10 96.00 C 631.64 96.00 626.17 96.00 620.71 96.00 L 620.63 94.85 C 624.87 94.89 629.11 94.93 633.36 94.82 C 633.33 92.97 633.32 91.11 633.32 89.26 C 627.24 89.24 621.16 89.32 615.08 89.21 Z" />
<path fill="#454545" opacity="1.00" d=" M 478.66 68.56 C 484.51 65.74 490.41 69.01 496.11 70.47 C 494.90 70.62 493.70 70.78 492.50 70.94 C 492.58 71.43 492.75 72.43 492.83 72.92 C 492.21 73.28 490.98 73.99 490.36 74.34 C 489.27 74.06 488.20 73.77 487.14 73.44 C 487.31 73.11 487.67 72.44 487.85 72.11 C 484.77 70.97 481.68 69.86 478.66 68.56 Z" />
<path fill="#151515" opacity="1.00" d=" M 456.70 69.73 C 460.42 68.28 464.68 67.86 468.40 69.58 C 481.66 75.32 495.76 79.04 510.05 81.17 C 513.59 81.70 517.20 82.69 519.88 85.21 L 520.10 86.22 C 515.09 82.46 508.66 82.39 502.73 81.36 C 498.56 80.12 497.84 87.42 493.77 86.36 C 487.23 84.63 480.77 82.61 474.26 80.77 C 474.22 80.45 474.14 79.80 474.09 79.48 C 476.12 80.34 478.19 81.09 480.33 81.63 C 485.32 82.71 490.06 84.72 495.10 85.59 C 497.13 84.18 498.55 82.10 500.10 80.21 C 492.09 78.89 484.49 75.78 476.52 74.38 C 473.37 73.35 470.44 71.81 467.38 70.58 C 464.00 69.16 460.26 69.53 456.70 69.73 Z" />
<path fill="#000000" opacity="1.00" d=" M 695.65 71.98 C 696.58 70.17 696.97 67.43 699.70 68.11 C 699.53 68.78 699.20 70.13 699.04 70.81 C 699.47 70.73 700.32 70.57 700.74 70.49 L 701.13 72.51 L 703.01 66.64 C 709.52 71.41 697.17 76.41 698.48 71.27 C 697.77 71.45 696.35 71.80 695.65 71.98 Z" />
<path fill="#3e3e3e" opacity="1.00" d=" M 546.57 74.96 C 547.27 72.64 548.51 70.55 549.90 68.58 C 549.44 70.99 548.35 73.26 546.57 74.96 Z" />
<path fill="#1a297a" opacity="1.00" d=" M 586.35 69.44 C 592.90 68.56 599.56 69.33 606.16 69.02 C 606.16 70.90 606.15 72.78 606.17 74.67 C 600.29 74.70 594.41 74.49 588.54 74.72 C 585.26 74.88 582.79 77.82 582.17 80.87 C 581.57 84.90 584.88 89.35 589.12 89.19 C 592.07 89.42 595.64 88.63 597.90 91.07 C 601.28 94.11 599.58 100.79 594.90 101.30 C 588.90 101.67 582.87 101.30 576.86 101.47 C 576.85 99.64 576.85 97.82 576.85 96.00 C 582.61 96.00 588.37 96.00 594.13 96.00 L 594.06 94.91 C 588.92 95.27 583.05 94.70 579.69 90.26 C 573.76 83.50 577.38 71.32 586.35 69.44 Z" />
<path fill="#1a297a" opacity="1.00" d=" M 608.57 79.08 C 608.69 73.71 613.65 69.09 618.98 69.09 C 625.02 68.96 631.07 69.15 637.11 69.01 C 637.14 70.89 637.17 72.77 637.21 74.64 C 631.17 74.69 625.13 74.54 619.10 74.68 C 616.17 74.51 613.70 77.26 613.90 80.12 C 613.89 85.89 613.87 91.66 613.91 97.43 C 613.69 100.61 616.91 103.10 619.94 102.80 C 625.66 102.85 631.38 102.79 637.10 102.79 C 637.10 104.60 637.10 106.41 637.11 108.23 C 631.10 108.16 625.10 108.26 619.09 108.19 C 613.57 108.42 608.54 103.48 608.55 97.97 C 608.48 91.68 608.42 85.37 608.57 79.08 Z" />
<path fill="#1a297a" opacity="1.00" d=" M 639.48 77.03 C 640.66 72.41 645.19 68.95 649.97 69.07 C 655.72 68.98 661.46 69.14 667.21 69.01 C 667.23 70.89 667.25 72.78 667.28 74.66 C 661.52 74.67 655.75 74.56 649.99 74.67 C 646.98 74.42 644.45 77.20 644.58 80.13 C 644.55 86.06 644.45 92.00 644.64 97.93 C 644.71 100.58 647.29 102.71 649.85 102.78 C 653.89 102.94 657.92 102.76 661.96 102.81 C 662.04 97.89 662.02 92.97 661.97 88.04 C 658.70 88.01 655.44 88.01 652.18 88.02 C 652.17 86.22 652.17 84.43 652.17 82.63 C 657.21 82.64 662.24 82.64 667.28 82.64 C 667.28 89.82 667.24 97.00 667.27 104.18 C 670.85 94.04 673.95 83.73 677.55 73.60 C 679.34 68.45 686.49 66.90 690.61 70.21 C 692.88 71.72 693.47 74.52 694.29 76.93 C 697.48 86.98 701.07 96.92 704.02 107.04 C 697.01 106.97 690.01 107.16 683.01 106.97 C 683.00 105.58 682.99 104.19 683.00 102.81 C 687.71 102.81 692.42 102.83 697.14 102.79 C 694.10 93.81 691.22 84.77 688.19 75.78 C 687.74 73.38 684.97 72.91 683.11 73.98 C 679.24 85.34 675.45 96.74 671.79 108.18 C 664.54 108.25 657.29 108.20 650.05 108.21 C 644.04 108.60 638.76 102.96 639.09 97.05 C 639.29 90.38 638.60 83.64 639.48 77.03 Z" />
<path fill="#525252" opacity="1.00" d=" M 446.22 70.66 C 446.66 72.84 447.27 74.98 447.88 77.12 C 451.77 76.67 455.68 76.88 459.56 77.35 C 459.54 77.85 459.50 78.85 459.48 79.35 C 458.72 79.99 457.96 80.63 457.21 81.27 C 457.08 81.99 456.83 83.43 456.71 84.15 C 452.36 83.06 447.88 79.67 443.46 82.41 C 443.15 80.13 442.83 77.85 442.50 75.57 C 443.71 73.91 444.94 72.27 446.22 70.66 Z" />
<path fill="#959595" opacity="1.00" d=" M 496.95 71.82 C 499.09 72.06 501.23 72.36 503.37 72.71 C 503.00 72.93 502.26 73.39 501.89 73.61 C 504.34 74.39 506.78 75.22 509.25 75.97 C 505.39 75.81 501.60 75.06 497.84 74.23 C 497.61 73.62 497.17 72.42 496.95 71.82 Z" />
<path fill="#b4b4b4" opacity="1.00" d=" M 520.51 72.66 C 521.59 72.50 522.66 72.31 523.76 72.13 C 523.60 73.31 523.46 74.50 523.32 75.68 C 521.96 75.85 520.61 75.99 519.27 76.11 C 519.68 74.96 520.09 73.81 520.51 72.66 Z" />
<path fill="#f6f6f6" opacity="1.00" d=" M 501.89 73.61 C 502.26 73.39 503.00 72.93 503.37 72.71 C 508.64 73.35 514.00 73.45 519.27 72.80 L 520.51 72.66 C 520.09 73.81 519.68 74.96 519.27 76.11 C 515.93 76.33 512.58 76.30 509.25 75.97 C 506.78 75.22 504.34 74.39 501.89 73.61 Z" />
<path fill="#757575" opacity="1.00" d=" M 476.52 74.38 C 484.49 75.78 492.09 78.89 500.10 80.21 C 498.55 82.10 497.13 84.18 495.10 85.59 C 490.06 84.72 485.32 82.71 480.33 81.63 C 479.24 79.12 477.97 76.70 476.52 74.38 M 480.53 80.28 C 484.13 81.05 487.62 82.18 491.16 83.19 C 491.20 82.37 491.28 80.74 491.33 79.92 C 490.88 80.09 489.99 80.44 489.55 80.61 C 487.81 79.30 485.66 78.75 483.58 78.29 C 481.97 77.54 480.92 78.86 480.53 80.28 Z" />
<path fill="#1a297a" opacity="1.00" d=" M 683.67 75.93 C 683.86 73.88 686.99 74.26 687.11 76.11 C 689.90 84.57 692.72 93.03 695.44 101.52 C 691.34 101.52 687.24 101.51 683.15 101.51 C 682.96 100.27 682.78 99.03 682.58 97.80 C 681.57 101.32 680.49 104.82 679.20 108.25 C 677.09 108.22 674.99 108.21 672.89 108.20 C 676.58 97.48 679.96 86.65 683.67 75.93 M 683.47 95.46 C 684.66 95.49 685.86 95.52 687.07 95.56 C 686.53 93.68 685.99 91.80 685.48 89.91 C 684.78 91.75 684.11 93.60 683.47 95.46 Z" />
<path fill="#404040" opacity="1.00" d=" M 439.28 80.04 C 440.35 78.55 441.43 77.06 442.50 75.57 C 442.83 77.85 443.15 80.13 443.46 82.41 C 447.88 79.67 452.36 83.06 456.71 84.15 C 457.28 84.28 458.41 84.55 458.98 84.69 C 459.17 84.61 459.57 84.46 459.76 84.39 C 461.17 83.74 462.56 83.03 463.94 82.30 C 463.68 82.14 463.14 81.84 462.88 81.68 C 463.82 81.74 464.77 81.87 465.71 82.08 L 465.93 82.33 L 466.14 82.58 C 466.64 84.33 465.97 85.31 464.11 85.52 C 465.48 85.80 466.85 86.11 468.22 86.42 C 468.51 88.10 469.07 88.29 469.91 86.99 C 470.25 87.20 470.93 87.61 471.27 87.81 C 472.49 89.93 475.02 90.76 477.15 89.40 C 477.42 89.50 477.95 89.70 478.22 89.79 C 479.43 91.73 482.10 93.03 484.08 91.31 C 484.35 91.44 484.90 91.69 485.17 91.82 C 486.38 93.99 488.92 94.66 491.09 93.47 C 491.42 93.50 492.07 93.55 492.40 93.58 L 492.01 94.72 C 494.52 95.35 497.04 96.02 499.39 97.16 L 498.88 98.15 C 497.70 97.04 496.06 97.22 494.66 97.66 C 487.21 94.65 478.99 94.07 471.78 90.43 C 469.83 89.27 467.59 89.10 465.39 89.08 L 464.92 88.75 C 463.65 87.62 462.02 86.99 460.32 87.12 C 460.66 88.00 461.17 88.74 461.86 89.37 L 462.62 90.12 C 459.79 89.58 456.98 88.85 454.34 87.70 C 450.75 84.47 445.65 84.43 441.11 84.63 C 440.49 83.10 439.88 81.57 439.28 80.04 M 456.31 86.09 C 455.77 87.35 457.91 88.39 458.74 87.41 C 459.26 86.14 457.13 85.09 456.31 86.09 Z" />
<path fill="#4b4b4b" opacity="0.79" d=" M 541.73 81.99 C 542.74 79.55 544.39 77.47 546.25 75.63 C 545.32 78.68 543.75 81.50 541.68 83.93 L 541.73 81.99 Z" />
<path fill="#1a297b" opacity="1.00" d=" M 587.02 76.03 L 587.48 76.13 C 593.17 77.73 599.13 76.61 604.96 77.07 C 604.95 77.81 604.95 79.27 604.95 80.00 C 599.77 80.18 594.57 79.85 589.40 80.24 L 589.20 81.21 C 589.13 81.57 588.99 82.30 588.93 82.66 C 593.00 82.65 597.56 82.19 600.98 84.89 C 606.60 88.85 607.90 97.42 603.89 102.96 C 601.68 106.13 597.90 108.30 593.99 108.22 C 588.27 108.28 582.56 108.15 576.85 108.29 C 576.84 106.46 576.85 104.64 576.86 102.81 C 582.25 102.78 587.65 102.86 593.05 102.80 C 596.30 102.93 599.57 100.85 600.50 97.67 C 602.00 93.74 599.13 88.93 595.03 88.21 C 592.68 87.94 590.32 88.14 587.98 87.91 C 584.65 87.31 582.50 83.32 583.60 80.18 C 584.02 78.31 585.69 77.22 587.02 76.03 Z" />
<path fill="#0a196b" opacity="1.00" d=" M 587.48 76.13 C 593.68 75.58 599.93 76.00 606.16 75.86 C 606.15 77.68 606.15 79.50 606.16 81.32 C 600.50 81.29 594.85 81.34 589.20 81.21 L 589.40 80.24 C 594.57 79.85 599.77 80.18 604.95 80.00 C 604.95 79.27 604.95 77.81 604.96 77.07 C 599.13 76.61 593.17 77.73 587.48 76.13 Z" />
<path fill="#1b297a" opacity="1.00" d=" M 617.32 76.14 C 623.90 75.49 630.55 76.04 637.16 75.86 C 637.15 77.69 637.15 79.52 637.16 81.36 C 631.83 81.27 626.51 81.31 621.19 81.27 C 620.94 81.62 620.45 82.30 620.20 82.64 C 624.57 82.65 628.94 82.64 633.32 82.63 C 633.31 84.42 633.32 86.22 633.33 88.01 C 627.22 88.01 621.12 88.01 615.02 88.02 C 615.53 84.10 613.42 78.81 617.32 76.14 Z" />
<path fill="#1a297a" opacity="1.00" d=" M 648.09 75.99 C 654.48 75.73 660.88 75.91 667.28 75.86 C 667.27 77.65 667.27 79.45 667.28 81.25 C 662.19 81.33 657.09 81.05 652.02 81.34 C 651.81 81.49 651.39 81.79 651.18 81.94 C 650.99 86.50 650.77 91.14 651.33 95.67 C 652.82 96.45 654.56 95.87 656.10 95.46 C 654.78 95.15 653.47 94.86 652.16 94.61 C 652.17 92.82 652.17 91.03 652.19 89.24 C 655.06 89.24 657.93 89.25 660.80 89.24 C 660.80 93.31 660.78 97.39 660.84 101.46 C 656.91 101.46 652.97 101.73 649.06 101.38 C 646.94 101.16 645.54 99.09 645.81 97.04 C 645.78 90.73 645.65 84.42 645.96 78.12 C 646.66 77.41 647.37 76.70 648.09 75.99 Z" />
<path fill="#eaeaea" opacity="1.00" d=" M 480.53 80.28 C 480.92 78.86 481.97 77.54 483.58 78.29 C 485.66 78.75 487.81 79.30 489.55 80.61 C 489.99 80.44 490.88 80.09 491.33 79.92 C 491.28 80.74 491.20 82.37 491.16 83.19 C 487.62 82.18 484.13 81.05 480.53 80.28 Z" />
<path fill="#000000" opacity="1.00" d=" M 459.48 79.35 C 467.17 80.33 474.44 83.21 481.91 85.15 C 490.08 87.30 498.13 89.93 506.37 91.79 C 506.74 92.66 507.50 94.39 507.87 95.26 C 506.21 96.87 504.12 97.80 501.84 98.11 C 502.57 97.51 503.30 96.90 504.03 96.30 C 506.09 94.91 503.99 93.47 502.42 93.11 C 499.39 91.37 495.86 91.20 492.53 90.45 C 485.81 88.52 479.12 86.36 472.25 85.02 C 478.75 88.56 486.37 89.26 493.16 92.18 C 493.29 92.54 493.56 93.26 493.69 93.63 L 492.40 93.58 C 492.07 93.55 491.42 93.50 491.09 93.47 C 489.28 92.42 487.27 91.80 485.17 91.82 C 484.90 91.69 484.35 91.44 484.08 91.31 C 482.27 90.33 480.24 89.96 478.22 89.79 C 477.95 89.70 477.42 89.50 477.15 89.40 C 475.33 88.40 473.34 87.83 471.27 87.81 C 470.93 87.61 470.25 87.20 469.91 86.99 C 469.49 86.85 468.65 86.56 468.22 86.42 C 466.85 86.11 465.48 85.80 464.11 85.52 C 465.97 85.31 466.64 84.33 466.14 82.58 L 466.12 82.15 L 465.71 82.08 C 464.77 81.87 463.82 81.74 462.88 81.68 C 461.77 81.62 460.67 81.67 459.58 81.71 C 459.63 82.60 459.69 83.50 459.76 84.39 C 459.57 84.46 459.17 84.61 458.98 84.69 C 458.41 84.55 457.28 84.28 456.71 84.15 C 456.83 83.43 457.08 81.99 457.21 81.27 C 457.96 80.63 458.72 79.99 459.48 79.35 M 467.91 84.23 C 466.66 85.83 469.68 86.84 470.64 85.70 C 471.80 84.13 468.85 83.05 467.91 84.23 Z" />
<path fill="#b4b4b4" opacity="1.00" d=" M 459.58 81.71 C 460.67 81.67 461.77 81.62 462.88 81.68 C 463.14 81.84 463.68 82.14 463.94 82.30 C 462.56 83.03 461.17 83.74 459.76 84.39 C 459.69 83.50 459.63 82.60 459.58 81.71 Z" />
<path fill="#8c8c8c" opacity="1.00" d=" M 465.71 82.08 L 466.12 82.15 L 466.14 82.58 L 465.93 82.33 L 465.71 82.08 Z" />
<path fill="#616161" opacity="1.00" d=" M 530.99 97.76 C 533.32 92.68 535.75 87.63 538.78 82.92 C 539.63 83.48 540.49 84.05 541.35 84.62 C 541.12 85.94 540.47 86.99 539.38 87.76 C 537.84 88.63 537.01 90.21 536.94 91.96 C 536.69 94.08 535.27 95.77 534.11 97.48 C 533.07 97.58 532.02 97.67 530.99 97.76 Z" />
<path fill="#7b7b7b" opacity="1.00" d=" M 467.91 84.23 C 468.85 83.05 471.80 84.13 470.64 85.70 C 469.68 86.84 466.66 85.83 467.91 84.23 Z" />
<path fill="#7d7d7d" opacity="1.00" d=" M 472.25 85.02 C 479.12 86.36 485.81 88.52 492.53 90.45 C 492.69 90.88 493.00 91.74 493.16 92.18 C 486.37 89.26 478.75 88.56 472.25 85.02 Z" />
<path fill="#727272" opacity="1.00" d=" M 456.31 86.09 C 457.13 85.09 459.26 86.14 458.74 87.41 C 457.91 88.39 455.77 87.35 456.31 86.09 Z" />
<path fill="#0d0d0d" opacity="1.00" d=" M 435.66 86.60 C 439.51 88.32 443.63 89.26 447.68 90.37 C 460.96 94.45 474.27 98.48 487.68 102.09 C 490.50 102.92 493.74 103.27 495.79 105.64 C 494.24 106.25 492.60 106.87 490.98 106.10 C 481.76 103.07 472.41 100.41 463.13 97.58 C 455.18 95.15 447.22 92.78 439.14 90.86 C 438.93 91.42 438.53 92.53 438.32 93.09 L 438.29 93.19 C 438.09 91.57 437.26 90.17 436.23 88.95 C 436.09 88.36 435.81 87.19 435.66 86.60 Z" />
<path fill="#727272" opacity="1.00" d=" M 460.32 87.12 C 462.02 86.99 463.65 87.62 464.92 88.75 C 464.16 88.91 462.62 89.22 461.86 89.37 C 461.17 88.74 460.66 88.00 460.32 87.12 Z" />
<path fill="#646464" opacity="1.00" d=" M 468.22 86.42 C 468.65 86.56 469.49 86.85 469.91 86.99 C 469.07 88.29 468.51 88.10 468.22 86.42 Z" />
<path fill="#eaeaea" opacity="1.00" d=" M 453.27 89.67 C 453.54 89.18 454.07 88.19 454.34 87.70 C 456.98 88.85 459.79 89.58 462.62 90.12 C 462.97 90.20 463.67 90.38 464.02 90.46 C 463.19 91.15 462.37 91.83 461.55 92.52 L 461.68 91.51 C 458.77 91.47 455.98 90.64 453.27 89.67 Z" />
<path fill="#7d7d7d" opacity="1.00" d=" M 471.27 87.81 C 473.34 87.83 475.33 88.40 477.15 89.40 C 475.02 90.76 472.49 89.93 471.27 87.81 Z" />
<path fill="#363636" opacity="0.76" d=" M 536.94 91.96 C 537.01 90.21 537.84 88.63 539.38 87.76 C 540.07 89.30 538.81 91.44 537.37 92.14 L 536.94 91.96 Z" />
<path fill="#4d4d4d" opacity="0.76" d=" M 436.23 88.95 C 437.26 90.17 438.09 91.57 438.29 93.19 L 438.12 93.70 C 436.27 93.56 435.43 90.43 436.23 88.95 Z" />
<path fill="#666666" opacity="1.00" d=" M 465.39 89.08 C 467.59 89.10 469.83 89.27 471.78 90.43 C 469.46 91.69 467.15 90.77 465.39 89.08 Z" />
<path fill="#1a297b" opacity="1.00" d=" M 615.08 89.21 C 621.16 89.32 627.24 89.24 633.32 89.26 C 633.32 91.11 633.33 92.97 633.36 94.82 C 629.11 94.93 624.87 94.89 620.63 94.85 L 620.71 96.00 C 626.17 96.00 631.64 96.00 637.10 96.00 C 637.09 97.82 637.09 99.64 637.10 101.47 C 631.10 101.36 625.10 101.56 619.11 101.39 C 617.34 101.52 615.86 100.32 615.22 98.77 C 614.78 95.60 615.07 92.39 615.08 89.21 Z" />
<path fill="#7d7d7d" opacity="1.00" d=" M 478.22 89.79 C 480.24 89.96 482.27 90.33 484.08 91.31 C 482.10 93.03 479.43 91.73 478.22 89.79 Z" />
<path fill="#555555" opacity="1.00" d=" M 492.53 90.45 C 495.86 91.20 499.39 91.37 502.42 93.11 C 499.59 92.55 496.74 91.85 493.84 91.92 C 493.92 92.34 494.09 93.16 494.17 93.57 C 497.37 94.77 500.71 95.53 504.03 96.30 C 503.30 96.90 502.57 97.51 501.84 98.11 C 504.12 97.80 506.21 96.87 507.87 95.26 C 507.50 94.39 506.74 92.66 506.37 91.79 C 511.07 92.35 515.95 92.58 520.16 95.04 C 519.97 95.39 519.58 96.08 519.39 96.43 C 514.52 96.84 509.72 97.68 504.93 98.61 C 502.91 99.17 501.14 97.93 499.39 97.16 C 497.04 96.02 494.52 95.35 492.01 94.72 L 492.40 93.58 L 493.69 93.63 C 493.56 93.26 493.29 92.54 493.16 92.18 C 493.00 91.74 492.69 90.88 492.53 90.45 Z" />
<path fill="#eaeaea" opacity="1.00" d=" M 683.47 95.46 C 684.11 93.60 684.78 91.75 685.48 89.91 C 685.99 91.80 686.53 93.68 687.07 95.56 C 685.86 95.52 684.66 95.49 683.47 95.46 Z" />
<path fill="#494949" opacity="1.00" d=" M 439.14 90.86 C 447.22 92.78 455.18 95.15 463.13 97.58 C 462.00 98.10 460.88 98.63 459.76 99.16 C 453.00 97.56 446.50 94.73 439.51 94.17 C 439.22 93.90 438.62 93.36 438.32 93.09 C 438.53 92.53 438.93 91.42 439.14 90.86 Z" />
<path fill="#7d7d7d" opacity="1.00" d=" M 485.17 91.82 C 487.27 91.80 489.28 92.42 491.09 93.47 C 488.92 94.66 486.38 93.99 485.17 91.82 Z" />
<path fill="#7078c8" opacity="1.00" d=" M 493.84 91.92 C 496.74 91.85 499.59 92.55 502.42 93.11 C 503.99 93.47 506.09 94.91 504.03 96.30 C 500.71 95.53 497.37 94.77 494.17 93.57 C 494.09 93.16 493.92 92.34 493.84 91.92 Z" />
<path fill="#3e3e3e" opacity="1.00" d=" M 438.29 93.19 L 438.32 93.09 C 438.62 93.36 439.22 93.90 439.51 94.17 C 446.80 97.14 454.44 99.29 462.03 101.36 C 462.27 102.46 462.51 103.56 462.82 104.65 C 455.62 102.32 448.30 100.42 441.11 98.10 C 439.31 97.71 437.30 95.56 438.12 93.70 L 438.29 93.19 Z" />
<path fill="#7b7b7b" opacity="1.00" d=" M 439.51 94.17 C 446.50 94.73 453.00 97.56 459.76 99.16 C 460.25 99.38 461.23 99.81 461.72 100.03 L 462.03 101.36 C 454.44 99.29 446.80 97.14 439.51 94.17 Z" />
<path fill="#6f6f6f" opacity="1.00" d=" M 494.66 97.66 C 496.06 97.22 497.70 97.04 498.88 98.15 C 498.07 100.19 495.67 98.70 494.66 97.66 Z" />
<path fill="#4e4e4e" opacity="1.00" d=" M 459.76 99.16 C 460.88 98.63 462.00 98.10 463.13 97.58 C 472.41 100.41 481.76 103.07 490.98 106.10 C 492.60 106.87 494.24 106.25 495.79 105.64 C 496.14 106.00 496.83 106.72 497.18 107.08 C 497.01 107.42 496.69 108.11 496.53 108.45 L 495.88 109.85 C 495.61 110.40 495.08 111.51 494.81 112.06 C 494.24 111.36 493.68 110.66 493.11 109.98 C 490.99 108.87 488.71 108.14 486.43 107.48 L 486.98 108.80 C 486.19 108.29 485.41 107.78 484.65 107.26 C 482.20 106.09 479.56 105.42 476.98 104.68 C 476.84 105.28 476.58 106.46 476.44 107.06 C 474.81 106.62 473.17 106.19 471.54 105.76 C 471.57 104.91 471.61 104.05 471.65 103.20 C 469.12 102.39 466.58 101.57 464.06 100.75 C 464.02 101.36 463.95 102.57 463.92 103.18 C 463.20 102.11 462.49 101.04 461.72 100.03 C 461.23 99.81 460.25 99.38 459.76 99.16 Z" />
<path fill="#eaeaea" opacity="1.00" d=" M 488.48 99.06 C 490.35 99.03 492.19 99.43 493.93 100.14 C 495.77 100.62 497.92 100.82 499.10 102.52 C 495.45 101.76 491.63 101.21 488.48 99.06 Z" />
<path fill="#131313" opacity="1.00" d=" M 461.72 100.03 C 462.49 101.04 463.20 102.11 463.92 103.18 C 463.95 102.57 464.02 101.36 464.06 100.75 C 466.58 101.57 469.12 102.39 471.65 103.20 C 471.61 104.05 471.57 104.91 471.54 105.76 C 473.17 106.19 474.81 106.62 476.44 107.06 C 476.58 106.46 476.84 105.28 476.98 104.68 C 479.56 105.42 482.20 106.09 484.65 107.26 C 484.99 108.57 485.33 109.88 485.66 111.20 C 485.22 111.16 484.33 111.09 483.89 111.05 C 476.80 109.18 469.83 106.81 462.82 104.65 C 462.51 103.56 462.27 102.46 462.03 101.36 L 461.72 100.03 Z" />
<path fill="#7d7d7d" opacity="1.00" d=" M 510.28 100.66 C 517.14 98.25 524.70 99.23 531.63 100.85 C 530.78 101.50 529.92 102.15 529.07 102.80 C 532.32 102.26 535.63 102.52 538.79 103.46 L 539.63 103.74 C 539.31 104.23 538.99 104.72 538.69 105.23 C 536.22 104.07 533.49 104.27 530.84 104.24 C 528.91 103.70 527.50 105.17 526.04 106.11 C 522.64 108.33 518.48 108.83 514.63 107.60 C 514.38 106.95 513.87 105.65 513.62 105.00 C 517.57 104.63 521.52 104.22 525.50 104.34 C 526.29 103.63 527.08 102.91 527.88 102.20 C 522.07 100.95 516.06 102.01 510.28 100.66 Z" />
<path fill="#242424" opacity="1.00" d=" M 536.75 99.39 C 544.30 101.66 551.16 107.95 552.18 116.04 C 552.68 118.92 551.60 121.72 550.57 124.35 L 549.73 123.35 C 549.68 121.71 549.65 120.07 549.62 118.44 C 549.29 118.57 548.62 118.82 548.29 118.95 C 548.15 117.68 548.02 116.42 547.90 115.15 C 546.48 117.37 544.75 119.36 542.78 121.11 C 543.54 121.13 545.05 121.17 545.81 121.19 C 545.37 121.73 544.50 122.82 544.07 123.36 C 545.73 124.50 547.55 125.35 549.56 125.69 C 543.24 129.57 536.25 125.82 529.95 123.95 C 530.78 123.33 531.61 122.72 532.46 122.11 C 532.92 121.80 533.85 121.16 534.31 120.85 C 536.95 120.61 539.61 120.61 542.26 120.57 C 539.69 120.40 537.12 120.25 534.56 120.13 C 535.33 118.62 536.12 117.11 536.94 115.62 C 538.19 115.98 540.41 116.60 541.03 114.95 C 540.41 113.04 537.87 114.50 536.77 115.18 C 536.41 114.27 536.05 113.36 535.71 112.45 C 533.71 114.15 531.82 115.97 530.04 117.89 L 529.40 118.51 C 529.01 118.35 528.22 118.03 527.83 117.87 C 523.45 113.62 516.78 115.89 511.79 117.69 C 511.90 117.22 512.12 116.27 512.23 115.80 C 513.46 113.73 514.60 111.58 515.28 109.26 C 516.14 109.48 517.02 109.67 517.91 109.84 C 517.72 110.08 517.34 110.57 517.15 110.81 C 518.74 111.56 520.71 111.45 522.05 110.23 C 523.45 109.45 525.07 109.37 526.62 109.06 C 526.17 110.27 524.83 111.40 525.29 112.77 C 526.28 114.26 527.62 115.48 528.85 116.78 C 529.20 115.42 529.56 114.07 529.97 112.73 C 530.96 111.69 531.83 110.53 532.54 109.26 C 531.33 108.76 530.11 108.27 528.90 107.79 L 527.57 107.26 C 528.59 106.18 529.70 105.21 530.84 104.24 C 533.49 104.27 536.22 104.07 538.69 105.23 C 538.99 104.72 539.31 104.23 539.63 103.74 L 538.79 103.46 C 538.07 102.12 537.40 100.75 536.75 99.39 M 541.30 104.00 C 538.72 104.90 540.46 108.65 542.75 107.68 C 545.32 107.05 543.58 103.20 541.30 104.00 M 534.12 105.66 C 534.11 106.50 534.08 108.19 534.07 109.03 C 536.12 109.57 538.54 109.08 538.26 106.39 L 536.87 106.88 L 536.55 106.07 C 536.12 106.16 535.26 106.34 534.83 106.42 L 534.12 105.66 M 546.25 111.95 C 544.48 111.85 543.58 114.56 545.94 114.22 C 548.01 114.70 548.67 111.32 546.25 111.95 Z" />
<path fill="#c8c8c8" opacity="1.00" d=" M 504.12 102.90 C 505.79 101.33 508.20 101.34 510.28 100.66 C 516.06 102.01 522.07 100.95 527.88 102.20 C 527.08 102.91 526.29 103.63 525.50 104.34 C 521.52 104.22 517.57 104.63 513.62 105.00 C 513.30 104.84 512.68 104.52 512.37 104.36 C 511.58 104.47 510.80 104.60 510.03 104.74 C 509.58 104.43 508.68 103.81 508.22 103.49 C 505.10 103.35 502.07 104.04 499.28 105.43 C 498.83 105.35 498.39 105.28 497.95 105.20 C 499.66 104.70 501.37 104.20 503.09 103.71 C 502.63 103.36 501.72 102.67 501.27 102.32 C 501.98 102.47 503.40 102.76 504.12 102.90 Z" />
<path fill="#252525" opacity="1.00" d=" M 499.28 105.43 C 502.07 104.04 505.10 103.35 508.22 103.49 C 508.68 103.81 509.58 104.43 510.03 104.74 C 510.80 104.60 511.58 104.47 512.37 104.36 C 512.68 104.52 513.30 104.84 513.62 105.00 C 513.87 105.65 514.38 106.95 514.63 107.60 C 514.79 108.02 515.12 108.84 515.28 109.26 C 514.60 111.58 513.46 113.73 512.23 115.80 C 511.81 116.12 510.96 116.76 510.54 117.08 C 509.35 114.73 506.81 113.98 504.54 113.13 C 505.94 112.94 507.36 112.75 508.78 112.55 C 508.81 111.76 508.88 110.19 508.92 109.40 C 507.24 105.69 502.57 106.32 499.28 105.43 M 510.16 113.94 C 512.15 112.66 512.21 110.48 511.91 108.32 C 510.56 109.90 510.28 111.95 510.16 113.94 Z" />
<path fill="#eaeaea" opacity="1.00" d=" M 526.04 106.11 C 527.50 105.17 528.91 103.70 530.84 104.24 C 529.70 105.21 528.59 106.18 527.57 107.26 L 526.66 108.97 C 526.51 108.26 526.19 106.83 526.04 106.11 Z" />
<path fill="#8b8b8b" opacity="1.00" d=" M 541.30 104.00 C 543.58 103.20 545.32 107.05 542.75 107.68 C 540.46 108.65 538.72 104.90 541.30 104.00 Z" />
<path fill="#525252" opacity="1.00" d=" M 514.63 107.60 C 518.48 108.83 522.64 108.33 526.04 106.11 C 526.19 106.83 526.51 108.26 526.66 108.97 L 526.62 109.06 C 525.07 109.37 523.45 109.45 522.05 110.23 C 520.68 109.90 519.31 109.76 517.91 109.84 C 517.02 109.67 516.14 109.48 515.28 109.26 C 515.12 108.84 514.79 108.02 514.63 107.60 Z" />
<path fill="#878787" opacity="1.00" d=" M 534.12 105.66 L 534.83 106.42 C 535.34 106.54 536.36 106.77 536.87 106.88 L 538.26 106.39 C 538.54 109.08 536.12 109.57 534.07 109.03 C 534.08 108.19 534.11 106.50 534.12 105.66 Z" />
<path fill="#c2c2c2" opacity="1.00" d=" M 534.83 106.42 C 535.26 106.34 536.12 106.16 536.55 106.07 L 536.87 106.88 C 536.36 106.77 535.34 106.54 534.83 106.42 Z" />
<path fill="#0a156b" opacity="1.00" d=" M 683.01 106.97 C 690.01 107.16 697.01 106.97 704.02 107.04 L 704.82 108.12 C 697.55 108.28 690.27 108.14 683.00 108.20 L 683.01 106.97 Z" />
<path fill="#7d7d7d" opacity="1.00" d=" M 486.43 107.48 C 488.71 108.14 490.99 108.87 493.11 109.98 C 492.40 112.75 491.66 115.51 490.74 118.22 C 490.24 115.59 490.51 112.93 491.54 110.46 C 490.00 109.96 488.36 109.67 486.98 108.80 L 486.43 107.48 Z" />
<path fill="#000000" opacity="1.00" d=" M 526.66 108.97 L 527.57 107.26 L 528.90 107.79 C 528.53 108.36 527.80 109.51 527.43 110.09 C 528.27 110.97 529.11 111.85 529.97 112.73 C 529.56 114.07 529.20 115.42 528.85 116.78 C 527.62 115.48 526.28 114.26 525.29 112.77 C 524.83 111.40 526.17 110.27 526.62 109.06 L 526.66 108.97 Z" />
<path fill="#888888" opacity="1.00" d=" M 528.90 107.79 C 530.11 108.27 531.33 108.76 532.54 109.26 C 531.83 110.53 530.96 111.69 529.97 112.73 C 529.11 111.85 528.27 110.97 527.43 110.09 C 527.80 109.51 528.53 108.36 528.90 107.79 Z" />
<path fill="#0d0d0d" opacity="1.00" d=" M 496.53 108.45 C 496.67 110.00 496.80 111.55 496.95 113.10 C 498.30 113.24 499.67 113.39 501.04 113.54 C 499.41 113.88 497.81 114.22 496.20 114.56 C 496.07 112.99 495.94 111.42 495.88 109.85 L 496.53 108.45 Z" />
<path fill="#404040" opacity="1.00" d=" M 510.16 113.94 C 510.28 111.95 510.56 109.90 511.91 108.32 C 512.21 110.48 512.15 112.66 510.16 113.94 Z" />
<path fill="#414141" opacity="1.00" d=" M 500.47 117.17 C 501.47 113.05 504.88 110.29 508.92 109.40 C 508.88 110.19 508.81 111.76 508.78 112.55 C 507.36 112.75 505.94 112.94 504.54 113.13 C 504.32 114.47 504.10 115.81 503.91 117.16 C 503.05 117.16 501.33 117.17 500.47 117.17 Z" />
<path fill="#a4aff3" opacity="1.00" d=" M 517.15 110.81 C 517.34 110.57 517.72 110.08 517.91 109.84 C 519.31 109.76 520.68 109.90 522.05 110.23 C 520.71 111.45 518.74 111.56 517.15 110.81 Z" />
<path fill="#000000" opacity="1.00" d=" M 530.04 117.89 C 531.82 115.97 533.71 114.15 535.71 112.45 C 536.05 113.36 536.41 114.27 536.77 115.18 L 536.94 115.62 C 536.12 117.11 535.33 118.62 534.56 120.13 C 537.12 120.25 539.69 120.40 542.26 120.57 C 539.61 120.61 536.95 120.61 534.31 120.85 C 533.85 121.16 532.92 121.80 532.46 122.11 C 530.85 120.77 529.32 119.34 527.83 117.87 C 528.22 118.03 529.01 118.35 529.40 118.51 C 530.54 118.95 531.68 119.44 532.87 119.78 C 534.07 119.08 534.48 117.63 535.22 116.53 C 533.48 116.95 531.74 117.39 530.04 117.89 Z" />
<path fill="#454545" opacity="1.00" d=" M 546.25 111.95 C 548.67 111.32 548.01 114.70 545.94 114.22 C 543.58 114.56 544.48 111.85 546.25 111.95 Z" />
<path fill="#303030" opacity="1.00" d=" M 503.91 117.16 C 504.10 115.81 504.32 114.47 504.54 113.13 C 506.81 113.98 509.35 114.73 510.54 117.08 C 510.96 116.76 511.81 116.12 512.23 115.80 C 512.12 116.27 511.90 117.22 511.79 117.69 C 516.78 115.89 523.45 113.62 527.83 117.87 C 529.32 119.34 530.85 120.77 532.46 122.11 C 531.61 122.72 530.78 123.33 529.95 123.95 C 522.45 122.00 514.42 122.44 507.20 125.24 C 502.61 127.36 497.12 129.09 492.47 126.11 C 493.61 124.68 494.48 122.93 496.06 121.93 C 498.48 120.97 501.16 121.15 503.70 120.66 C 504.12 120.37 504.96 119.79 505.38 119.49 C 506.60 118.78 507.85 118.08 509.09 117.39 C 508.80 117.41 508.20 117.45 507.91 117.47 C 506.91 117.39 504.91 117.23 503.91 117.16 Z" />
<path fill="#181818" opacity="1.00" d=" M 494.38 114.38 C 495.66 117.35 498.52 119.38 501.81 119.31 C 502.71 119.36 504.49 119.45 505.38 119.49 C 504.96 119.79 504.12 120.37 503.70 120.66 C 501.16 121.15 498.48 120.97 496.06 121.93 C 494.48 122.93 493.61 124.68 492.47 126.11 C 491.54 124.78 490.60 123.47 489.65 122.15 C 491.59 119.80 493.25 117.22 494.38 114.38 Z" />
<path fill="#4c4c4c" opacity="1.00" d=" M 536.77 115.18 C 537.87 114.50 540.41 113.04 541.03 114.95 C 540.41 116.60 538.19 115.98 536.94 115.62 L 536.77 115.18 Z" />
<path fill="#676767" opacity="1.00" d=" M 547.90 115.15 C 548.02 116.42 548.15 117.68 548.29 118.95 C 548.62 118.82 549.29 118.57 549.62 118.44 C 549.65 120.07 549.68 121.71 549.73 123.35 C 549.69 123.94 549.61 125.10 549.56 125.69 C 547.55 125.35 545.73 124.50 544.07 123.36 C 544.50 122.82 545.37 121.73 545.81 121.19 C 545.05 121.17 543.54 121.13 542.78 121.11 C 544.75 119.36 546.48 117.37 547.90 115.15 Z" />
<path fill="#616161" opacity="1.00" d=" M 530.04 117.89 C 531.74 117.39 533.48 116.95 535.22 116.53 C 534.48 117.63 534.07 119.08 532.87 119.78 C 531.68 119.44 530.54 118.95 529.40 118.51 L 530.04 117.89 Z" />
<path fill="#000000" opacity="1.00" d=" M 498.96 117.26 C 499.34 117.24 500.09 117.19 500.47 117.17 C 501.33 117.17 503.05 117.16 503.91 117.16 C 504.91 117.23 506.91 117.39 507.91 117.47 C 506.26 118.00 504.66 118.61 502.99 119.03 C 501.63 118.47 500.29 117.88 498.96 117.26 Z" />
<path fill="#b4b4b4" opacity="1.00" d=" M 507.91 117.47 C 508.20 117.45 508.80 117.41 509.09 117.39 C 507.85 118.08 506.60 118.78 505.38 119.49 C 504.49 119.45 502.71 119.36 501.81 119.31 L 502.99 119.03 C 504.66 118.61 506.26 118.00 507.91 117.47 Z" />
<path fill="#4ab34d" opacity="0.75" d=" M 225.62 287.29 C 225.55 286.94 225.42 286.24 225.35 285.90 C 225.53 286.13 225.90 286.59 226.08 286.82 C 226.34 287.25 226.88 288.11 227.14 288.54 C 225.86 289.14 224.59 289.75 223.32 290.35 C 224.59 291.28 225.17 292.58 225.05 294.25 C 225.63 294.27 226.81 294.31 227.39 294.33 C 227.26 294.85 227.00 295.89 226.87 296.41 C 225.90 296.47 223.96 296.59 222.99 296.66 C 224.41 297.79 225.96 298.76 227.53 299.70 L 226.57 299.98 C 223.73 301.19 221.74 298.92 221.01 296.40 C 221.03 295.74 221.06 294.42 221.08 293.76 C 222.65 296.92 224.33 292.29 221.11 292.96 L 220.61 291.22 C 220.97 290.96 221.69 290.44 222.05 290.18 L 222.49 289.67 C 223.01 288.29 224.37 287.81 225.62 287.29 Z" />
<path fill="#692521" opacity="0.53" d=" M 225.35 285.90 C 227.75 285.92 230.41 285.89 232.33 287.60 C 234.47 289.09 235.14 291.71 236.05 294.01 C 235.17 296.92 233.69 299.62 231.27 301.53 C 230.92 301.23 230.21 300.61 229.86 300.31 C 232.35 298.95 233.94 296.60 234.40 293.81 L 234.58 293.16 C 233.34 290.47 231.51 287.80 228.33 287.41 L 226.08 286.82 C 225.90 286.59 225.53 286.13 225.35 285.90 Z" />
<path fill="#fd9f91" opacity="1.00" d=" M 220.90 293.72 C 218.68 290.38 222.47 287.29 225.62 287.29 C 224.37 287.81 223.01 288.29 222.49 289.67 L 222.05 290.18 C 221.69 290.44 220.97 290.96 220.61 291.22 L 221.11 292.96 L 221.08 293.76 C 221.06 294.42 221.03 295.74 221.01 296.40 C 221.74 298.92 223.73 301.19 226.57 299.98 L 226.03 301.19 L 228.85 300.67 C 228.87 301.06 228.92 301.83 228.95 302.22 C 224.96 302.01 218.37 299.10 220.84 294.05 L 218.68 294.41 C 219.24 294.23 220.35 293.89 220.90 293.72 Z" />
<path fill="#43d14a" opacity="0.85" d=" M 228.33 287.41 C 231.51 287.80 233.34 290.47 234.58 293.16 C 232.98 291.62 230.60 292.47 230.32 294.63 C 231.72 294.81 233.23 294.72 234.40 293.81 C 233.94 296.60 232.35 298.95 229.86 300.31 C 229.25 300.19 228.04 299.96 227.43 299.84 C 229.05 298.88 230.63 297.86 232.09 296.68 C 230.95 296.67 228.66 296.66 227.52 296.65 C 227.82 295.48 228.09 294.30 228.43 293.14 C 224.60 291.48 230.41 290.43 232.01 290.95 C 230.74 289.92 229.30 289.15 227.74 288.65 C 227.89 288.34 228.18 287.72 228.33 287.41 Z" />
<path fill="#ffffff" opacity="1.00" d=" M 67.48 294.64 C 71.57 289.83 80.39 290.86 83.31 296.46 C 84.81 299.74 84.54 303.45 84.67 306.97 C 81.82 307.01 78.97 307.00 76.12 307.00 C 76.11 304.28 76.26 301.54 75.86 298.85 C 73.62 296.89 73.38 300.54 73.50 301.98 C 73.84 310.02 72.79 318.21 74.08 326.14 C 74.52 326.06 75.41 325.90 75.85 325.82 C 76.68 323.07 76.28 320.15 76.44 317.33 C 76.01 317.08 75.15 316.58 74.71 316.33 C 74.74 314.47 74.75 312.61 74.76 310.75 C 78.04 310.75 81.31 310.75 84.59 310.73 C 84.68 317.81 84.58 324.90 84.64 331.98 C 82.80 331.99 80.95 331.99 79.11 331.97 C 78.99 331.29 78.76 329.94 78.64 329.27 C 77.43 330.76 76.23 332.61 74.13 332.82 C 69.65 333.49 65.82 329.37 65.33 325.16 C 64.65 318.80 65.15 312.38 64.99 306.00 C 65.20 302.17 64.62 297.67 67.48 294.64 Z" />
<path fill="#ffffff" opacity="1.00" d=" M 90.64 292.50 C 94.70 292.49 98.75 292.51 102.81 292.47 C 104.53 305.64 106.09 318.82 107.75 332.00 C 104.84 332.00 101.93 332.00 99.03 332.00 C 98.87 329.62 98.72 327.25 98.58 324.87 C 97.82 324.87 96.30 324.87 95.55 324.87 C 95.40 327.25 95.25 329.62 95.10 332.00 C 92.15 332.00 89.20 332.00 86.26 332.00 C 87.71 318.83 89.19 305.67 90.64 292.50 M 95.96 302.02 L 97.64 302.39 C 95.76 307.31 96.14 312.70 95.44 317.85 C 96.15 317.86 97.57 317.88 98.28 317.89 C 97.98 312.42 97.10 306.94 97.66 301.47 C 97.08 301.60 96.51 301.78 95.96 302.02 Z" />
<path fill="#ffff26" opacity="1.00" d=" M 185.38 292.50 C 188.37 292.50 191.37 292.50 194.37 292.49 C 192.90 305.66 191.45 318.83 189.97 332.00 C 185.70 332.00 181.42 332.00 177.15 331.99 C 175.52 318.82 173.88 305.66 172.25 292.49 C 175.25 292.50 178.25 292.49 181.25 292.51 C 182.06 301.65 182.72 310.81 183.53 319.96 C 183.91 310.79 184.75 301.65 185.38 292.50 Z" />
<path fill="#ffff26" opacity="1.00" d=" M 195.74 292.52 C 200.44 292.48 205.14 292.52 209.84 292.48 C 209.88 295.11 209.88 297.74 209.87 300.38 C 207.99 300.37 206.13 300.37 204.26 300.37 C 204.25 302.87 204.25 305.37 204.25 307.87 C 206.00 307.87 207.74 307.87 209.50 307.88 C 209.50 310.38 209.50 312.87 209.50 315.38 C 207.75 315.37 206.00 315.37 204.26 315.37 C 204.27 318.25 204.16 321.13 204.30 324.01 C 206.36 324.22 208.43 324.11 210.50 324.13 C 210.50 326.75 210.50 329.38 210.50 332.00 C 205.58 332.00 200.67 332.00 195.75 332.00 C 195.74 318.84 195.76 305.68 195.74 292.52 Z" />
<path fill="#ffffff" opacity="1.00" d=" M 18.75 292.50 C 22.41 292.50 26.07 292.49 29.73 292.51 C 30.35 298.67 31.49 304.79 31.68 310.99 C 32.85 304.89 33.13 298.66 33.90 292.50 C 37.56 292.50 41.22 292.49 44.88 292.50 C 44.87 305.67 44.87 318.83 44.88 332.00 C 42.42 332.00 39.96 332.00 37.50 332.00 C 37.52 323.30 37.43 314.60 37.58 305.90 C 36.25 314.53 35.51 323.25 34.54 331.93 C 32.78 331.97 31.01 332.00 29.24 332.02 C 28.31 323.36 27.00 314.73 26.51 306.03 C 25.82 314.67 26.24 323.34 26.13 332.00 C 23.67 332.00 21.21 332.00 18.75 332.00 C 18.75 318.83 18.75 305.67 18.75 292.50 Z" />
<path fill="#ffffff" opacity="1.00" d=" M 48.24 292.51 C 52.95 292.49 57.66 292.50 62.38 292.50 C 62.38 295.12 62.38 297.75 62.38 300.37 C 60.50 300.37 58.62 300.37 56.74 300.38 C 56.75 302.88 56.75 305.39 56.78 307.89 C 58.52 307.88 60.26 307.87 62.00 307.87 C 62.00 310.36 62.00 312.86 62.01 315.36 C 60.25 315.37 58.50 315.37 56.75 315.39 C 56.75 318.30 56.75 321.21 56.75 324.12 C 58.83 324.12 60.91 324.12 63.00 324.12 C 63.00 326.74 63.00 329.37 63.00 332.00 C 58.08 332.00 53.16 332.00 48.25 332.00 C 48.25 318.83 48.26 305.67 48.24 292.51 Z" />
<path fill="#ffff26" opacity="1.00" d=" M 116.75 292.50 C 121.85 292.66 127.12 291.96 132.08 293.43 C 135.54 294.70 136.40 298.75 136.33 302.03 C 136.32 310.01 136.60 318.01 136.17 325.98 C 136.19 328.83 134.08 331.55 131.15 331.77 C 126.37 332.26 121.55 331.89 116.75 332.00 C 116.75 318.83 116.75 305.67 116.75 292.50 M 125.56 325.77 C 127.13 325.11 128.02 323.76 127.81 322.08 C 127.93 315.38 127.90 308.67 127.83 301.98 C 127.91 300.36 127.12 299.27 125.48 298.71 C 125.17 307.71 124.98 316.78 125.56 325.77 Z" />
<path fill="#ffff26" opacity="1.00" d=" M 139.75 292.50 C 144.50 292.59 149.32 292.14 154.01 293.11 C 157.69 294.30 158.56 298.68 158.62 302.07 C 158.69 305.46 158.95 310.20 154.89 311.38 C 156.54 312.48 158.31 313.88 158.44 316.03 C 158.86 321.32 158.48 326.63 158.67 331.93 C 156.03 332.00 153.39 332.01 150.75 332.01 C 150.51 326.28 151.27 320.46 150.32 314.80 C 149.82 314.55 148.82 314.05 148.31 313.81 C 148.18 319.87 148.28 325.93 148.25 332.00 C 145.42 332.00 142.58 332.00 139.75 332.00 C 139.75 318.83 139.75 305.67 139.75 292.50 M 148.36 298.87 C 148.21 301.94 148.25 305.02 148.24 308.10 C 148.80 307.96 149.92 307.68 150.48 307.54 C 150.47 304.65 152.19 299.96 148.36 298.87 Z" />
<path fill="#ffff26" opacity="1.00" d=" M 162.23 292.53 C 165.04 292.50 167.85 292.50 170.67 292.45 C 170.86 305.62 170.68 318.81 170.76 331.99 C 167.92 332.00 165.08 332.00 162.24 331.98 C 162.25 318.83 162.27 305.68 162.23 292.53 Z" />
<path fill="#1f471f" opacity="0.33" d=" M 221.11 292.96 C 224.33 292.29 222.65 296.92 221.08 293.76 L 221.11 292.96 Z" />
</svg>
