<?xml version="1.0" encoding="UTF-8" ?>
<!DOCTYPE svg PUBLIC "-//W3C//DTD SVG 1.1//EN" "http://www.w3.org/Graphics/SVG/1.1/DTD/svg11.dtd">
<svg width="960pt" height="540pt" viewBox="0 0 960 540" version="1.1" xmlns="http://www.w3.org/2000/svg">
<path fill="#070807" opacity="1.00" d=" M 434.96 49.90 C 445.98 47.33 456.93 44.50 467.95 41.93 C 470.26 40.98 471.65 43.47 472.72 45.06 C 476.41 51.49 480.17 57.91 483.29 64.64 C 481.98 65.95 480.81 67.39 479.86 68.98 C 479.27 69.93 478.70 70.90 478.16 71.88 C 478.32 73.59 478.32 75.38 478.96 77.00 C 480.10 78.24 481.49 79.21 482.78 80.30 C 482.81 80.56 482.86 81.07 482.88 81.33 C 480.58 84.27 477.66 86.65 474.95 89.19 C 472.76 90.17 470.51 90.99 468.30 91.93 C 466.74 90.19 465.20 88.43 463.77 86.59 C 465.12 86.71 466.47 86.93 467.74 87.45 L 468.40 87.75 C 469.68 88.14 472.81 86.93 470.92 85.46 C 470.32 84.92 469.72 84.38 469.12 83.84 C 466.91 84.50 464.69 85.15 462.48 85.80 C 462.17 84.62 461.86 83.45 461.56 82.28 C 459.15 82.08 456.73 81.98 454.37 81.48 C 453.42 79.95 455.31 79.78 456.35 79.37 C 458.40 78.55 460.52 79.46 462.50 80.03 C 465.44 78.77 468.49 77.54 470.83 75.28 C 467.49 75.72 464.02 77.56 460.67 76.24 C 457.34 75.09 454.18 73.50 451.04 71.92 C 451.50 71.47 452.43 70.56 452.89 70.11 C 451.08 69.88 449.23 69.82 447.48 69.29 C 445.68 68.03 444.26 66.32 442.69 64.80 C 446.04 72.68 451.67 79.29 455.48 86.94 C 455.13 87.61 454.79 88.27 454.45 88.94 C 455.64 91.38 456.86 93.81 458.10 96.22 C 453.76 98.17 448.98 97.68 444.55 96.40 C 443.19 90.66 440.89 85.22 438.99 79.66 C 435.91 70.30 431.40 61.47 428.60 52.03 C 430.65 51.13 432.77 50.39 434.96 49.90 M 452.33 49.46 C 450.05 50.51 453.27 51.95 453.98 53.04 C 459.34 52.57 464.56 51.29 469.64 49.54 C 468.73 48.67 467.81 47.79 466.91 46.91 C 461.99 47.15 456.92 47.51 452.33 49.46 M 433.07 55.85 C 433.19 59.39 435.82 61.88 438.89 63.20 C 437.31 60.48 435.50 57.88 433.07 55.85 M 460.24 71.49 L 460.32 72.13 L 460.39 72.11 C 461.59 75.25 464.76 73.54 467.05 72.86 C 466.91 72.15 466.63 70.73 466.49 70.02 L 467.12 69.77 C 464.77 70.12 462.51 70.83 460.24 71.49 M 445.25 93.47 C 444.65 95.66 448.95 96.63 449.73 95.04 C 448.38 94.43 446.77 92.99 445.25 93.47 Z" />
<path fill="#171716" opacity="1.00" d=" M 452.33 49.46 C 456.92 47.51 461.99 47.15 466.91 46.91 C 467.81 47.79 468.73 48.67 469.64 49.54 C 464.56 51.29 459.34 52.57 453.98 53.04 C 453.27 51.95 450.05 50.51 452.33 49.46 Z" />
<path fill="#51504f" opacity="1.00" d=" M 428.48 61.37 C 427.10 58.37 428.51 55.14 428.60 52.03 C 431.40 61.47 435.91 70.30 438.99 79.66 C 438.42 80.75 437.86 81.85 437.29 82.94 C 434.17 75.83 431.24 68.63 428.48 61.37 Z" />
<path fill="#212121" opacity="1.00" d=" M 433.07 55.85 C 435.50 57.88 437.31 60.48 438.89 63.20 C 435.82 61.88 433.19 59.39 433.07 55.85 Z" />
<path fill="#4c4b4b" opacity="1.00" d=" M 494.10 57.68 C 498.77 57.07 503.40 58.17 507.95 59.07 C 513.60 60.20 519.23 61.60 524.56 63.82 C 515.10 62.48 506.10 57.81 496.37 58.43 C 498.65 59.84 501.20 60.67 503.80 61.23 C 503.66 61.61 503.37 62.38 503.22 62.77 C 506.53 63.28 509.80 64.00 513.03 64.91 C 517.31 66.17 521.83 66.26 526.11 67.56 C 526.47 67.51 527.19 67.41 527.55 67.36 C 530.87 68.68 534.13 70.23 537.06 72.31 C 535.18 72.08 533.31 71.85 531.48 71.39 C 530.83 71.04 529.52 70.35 528.87 70.01 C 525.16 69.92 521.51 69.25 518.02 68.02 C 509.12 65.13 499.92 63.25 490.60 62.42 L 490.19 62.38 C 485.72 63.72 482.88 67.59 479.62 70.63 L 479.86 68.98 C 480.81 67.39 481.98 65.95 483.29 64.64 C 483.68 64.35 484.44 63.77 484.82 63.47 C 488.60 61.71 492.44 60.09 496.13 58.12 C 495.74 58.04 494.96 57.87 494.57 57.79 L 494.10 57.68 Z" />
<path fill="#696969" opacity="0.82" d=" M 484.82 63.47 C 487.35 60.64 490.55 57.85 494.57 57.79 C 494.96 57.87 495.74 58.04 496.13 58.12 C 492.44 60.09 488.60 61.71 484.82 63.47 Z" />
<path fill="#242424" opacity="1.00" d=" M 496.37 58.43 C 506.10 57.81 515.10 62.48 524.56 63.82 L 525.01 63.89 L 525.08 64.10 C 525.51 64.32 526.38 64.75 526.81 64.96 L 527.66 64.70 C 528.02 65.30 528.73 66.50 529.09 67.10 L 527.55 67.36 C 527.19 67.41 526.47 67.51 526.11 67.56 C 521.83 66.26 517.31 66.17 513.03 64.91 C 509.80 64.00 506.53 63.28 503.22 62.77 C 503.37 62.38 503.66 61.61 503.80 61.23 C 501.20 60.67 498.65 59.84 496.37 58.43 Z" />
<path fill="#1f1f1f" opacity="1.00" d=" M 479.62 70.63 C 482.88 67.59 485.72 63.72 490.19 62.38 L 490.60 62.42 C 492.74 67.28 497.02 70.51 500.76 74.06 C 500.73 74.47 500.68 75.29 500.66 75.71 C 503.00 76.82 505.33 78.34 508.02 78.35 C 512.33 78.27 516.57 76.75 520.90 77.44 C 524.57 77.98 528.22 78.66 531.92 79.03 C 531.26 81.10 530.61 83.17 529.95 85.23 C 523.04 85.07 516.08 85.02 509.29 83.59 C 505.95 82.87 502.56 82.41 499.14 82.66 C 491.96 81.22 485.56 76.91 481.07 71.18 C 480.34 71.35 478.89 71.70 478.16 71.88 C 478.70 70.90 479.27 69.93 479.86 68.98 L 479.62 70.63 Z" />
<path fill="#0e0e0e" opacity="1.00" d=" M 490.60 62.42 C 499.92 63.25 509.12 65.13 518.02 68.02 C 521.51 69.25 525.16 69.92 528.87 70.01 C 529.52 70.35 530.83 71.04 531.48 71.39 C 527.52 73.05 523.41 74.33 519.28 75.47 C 514.51 75.56 509.74 75.68 504.97 75.51 C 503.40 75.60 501.99 74.96 500.76 74.06 C 497.02 70.51 492.74 67.28 490.60 62.42 M 503.67 68.05 C 503.67 69.15 503.66 70.25 503.65 71.36 C 504.34 71.58 505.73 72.04 506.42 72.26 C 506.64 71.60 507.22 69.26 508.10 70.72 C 508.32 71.25 508.77 72.32 509.00 72.85 C 509.10 72.31 509.20 71.77 509.31 71.24 C 509.85 70.97 510.93 70.44 511.47 70.17 C 510.82 70.27 509.51 70.46 508.86 70.55 C 507.80 68.47 504.86 70.09 503.76 68.20 L 503.67 68.05 Z" />
<path fill="#4a494a" opacity="0.69" d=" M 525.08 64.10 C 525.49 64.10 526.29 64.11 526.70 64.12 L 526.81 64.96 C 526.38 64.75 525.51 64.32 525.08 64.10 Z" />
<path fill="#131313" opacity="1.00" d=" M 442.69 64.80 C 444.26 66.32 445.68 68.03 447.48 69.29 C 449.23 69.82 451.08 69.88 452.89 70.11 C 452.43 70.56 451.50 71.47 451.04 71.92 C 454.18 73.50 457.34 75.09 460.67 76.24 C 464.02 77.56 467.49 75.72 470.83 75.28 C 468.49 77.54 465.44 78.77 462.50 80.03 C 460.52 79.46 458.40 78.55 456.35 79.37 C 455.31 79.78 453.42 79.95 454.37 81.48 C 456.73 81.98 459.15 82.08 461.56 82.28 C 461.86 83.45 462.17 84.62 462.48 85.80 C 464.69 85.15 466.91 84.50 469.12 83.84 C 469.72 84.38 470.32 84.92 470.92 85.46 C 469.63 85.55 468.11 86.07 467.74 87.45 C 466.47 86.93 465.12 86.71 463.77 86.59 C 465.20 88.43 466.74 90.19 468.30 91.93 C 464.90 93.37 461.56 94.94 458.10 96.22 C 456.86 93.81 455.64 91.38 454.45 88.94 C 454.79 88.27 455.13 87.61 455.48 86.94 C 451.67 79.29 446.04 72.68 442.69 64.80 Z" />
<path fill="#5b5b5c" opacity="1.00" d=" M 527.66 64.70 C 533.29 67.01 539.96 70.28 541.16 76.90 C 542.40 80.59 539.18 83.46 537.08 86.01 C 537.62 86.25 538.71 86.71 539.25 86.95 C 538.30 86.65 537.35 86.36 536.41 86.07 C 535.56 87.54 534.73 89.01 533.82 90.44 C 532.78 90.54 531.75 90.59 530.73 90.62 C 533.60 87.94 536.14 84.90 538.03 81.45 C 536.83 81.33 535.64 81.21 534.45 81.09 C 536.21 78.96 538.07 76.92 539.90 74.84 C 538.95 73.99 538.03 73.12 537.06 72.31 C 534.13 70.23 530.87 68.68 527.55 67.36 L 529.09 67.10 C 528.73 66.50 528.02 65.30 527.66 64.70 Z" />
<path fill="#ffffff" opacity="1.00" d=" M 503.67 68.05 L 503.76 68.20 C 504.86 70.09 507.80 68.47 508.86 70.55 C 509.51 70.46 510.82 70.27 511.47 70.17 C 510.93 70.44 509.85 70.97 509.31 71.24 C 509.20 71.77 509.10 72.31 509.00 72.85 C 508.77 72.32 508.32 71.25 508.10 70.72 C 507.22 69.26 506.64 71.60 506.42 72.26 C 505.73 72.04 504.34 71.58 503.65 71.36 C 503.66 70.25 503.67 69.15 503.67 68.05 M 505.38 70.37 C 505.66 70.65 505.66 70.65 505.38 70.37 Z" />
<path fill="#ffffff" opacity="1.00" d=" M 460.24 71.49 C 462.51 70.83 464.77 70.12 467.12 69.77 L 466.49 70.02 C 464.50 70.83 462.43 71.47 460.39 72.11 L 460.32 72.13 L 460.24 71.49 Z" />
<path fill="#4d4c4e" opacity="1.00" d=" M 460.39 72.11 C 462.43 71.47 464.50 70.83 466.49 70.02 C 466.63 70.73 466.91 72.15 467.05 72.86 C 464.76 73.54 461.59 75.25 460.39 72.11 Z" />
<path fill="#1d1d1e" opacity="1.00" d=" M 505.38 70.37 C 505.66 70.65 505.66 70.65 505.38 70.37 Z" />
<path fill="#0d0e0e" opacity="1.00" d=" M 478.16 71.88 C 478.89 71.70 480.34 71.35 481.07 71.18 C 485.56 76.91 491.96 81.22 499.14 82.66 C 506.93 84.93 514.89 86.80 523.00 87.34 C 525.94 87.60 528.76 86.60 531.51 85.72 C 531.25 87.35 530.98 88.98 530.73 90.62 C 529.70 90.63 528.68 90.64 527.66 90.63 C 514.36 91.31 502.28 84.99 489.56 82.35 C 487.88 82.02 486.11 81.73 484.89 80.43 C 485.35 80.17 486.27 79.66 486.72 79.41 C 484.96 78.94 483.13 78.61 481.53 77.70 C 479.40 76.53 479.02 73.92 478.16 71.88 Z" />
<path fill="#212121" opacity="1.00" d=" M 531.48 71.39 C 533.31 71.85 535.18 72.08 537.06 72.31 C 538.03 73.12 538.95 73.99 539.90 74.84 C 538.07 76.92 536.21 78.96 534.45 81.09 C 533.91 81.75 533.40 82.43 532.91 83.13 C 533.34 80.91 533.52 78.65 533.56 76.40 C 532.37 76.88 531.18 77.37 530.01 77.86 C 526.42 77.08 522.87 76.18 519.28 75.47 C 523.41 74.33 527.52 73.05 531.48 71.39 Z" />
<path fill="#676768" opacity="1.00" d=" M 478.96 77.00 C 478.32 75.38 478.32 73.59 478.16 71.88 C 479.02 73.92 479.40 76.53 481.53 77.70 C 483.13 78.61 484.96 78.94 486.72 79.41 C 486.27 79.66 485.35 80.17 484.89 80.43 C 486.11 81.73 487.88 82.02 489.56 82.35 L 489.51 83.15 C 488.71 85.03 487.63 86.76 486.44 88.41 C 485.99 87.81 485.10 86.62 484.65 86.02 C 485.03 84.88 485.41 83.74 485.79 82.60 C 485.06 83.55 484.33 84.51 483.58 85.45 C 480.12 88.98 475.98 91.77 471.71 94.22 C 472.72 92.51 473.75 90.79 474.95 89.19 C 477.66 86.65 480.58 84.27 482.88 81.33 C 482.86 81.07 482.81 80.56 482.78 80.30 C 481.49 79.21 480.10 78.24 478.96 77.00 Z" />
<path fill="#6b6a6b" opacity="1.00" d=" M 500.66 75.71 C 500.68 75.29 500.73 74.47 500.76 74.06 C 501.99 74.96 503.40 75.60 504.97 75.51 C 509.74 75.68 514.51 75.56 519.28 75.47 C 522.87 76.18 526.42 77.08 530.01 77.86 C 531.18 77.37 532.37 76.88 533.56 76.40 C 533.52 78.65 533.34 80.91 532.91 83.13 C 532.43 83.99 531.97 84.85 531.51 85.72 C 528.76 86.60 525.94 87.60 523.00 87.34 C 514.89 86.80 506.93 84.93 499.14 82.66 C 502.56 82.41 505.95 82.87 509.29 83.59 C 516.08 85.02 523.04 85.07 529.95 85.23 C 530.61 83.17 531.26 81.10 531.92 79.03 C 528.22 78.66 524.57 77.98 520.90 77.44 C 516.57 76.75 512.33 78.27 508.02 78.35 C 505.33 78.34 503.00 76.82 500.66 75.71 Z" />
<path fill="#595655" opacity="0.95" d=" M 437.29 82.94 C 437.86 81.85 438.42 80.75 438.99 79.66 C 440.89 85.22 443.19 90.66 444.55 96.40 L 443.35 97.53 C 441.44 92.62 439.25 87.83 437.29 82.94 Z" />
<path fill="#4a4a49" opacity="1.00" d=" M 532.91 83.13 C 533.40 82.43 533.91 81.75 534.45 81.09 C 535.64 81.21 536.83 81.33 538.03 81.45 C 536.14 84.90 533.60 87.94 530.73 90.62 C 530.98 88.98 531.25 87.35 531.51 85.72 C 531.97 84.85 532.43 83.99 532.91 83.13 Z" />
<path fill="#020202" opacity="1.00" d=" M 489.56 82.35 C 502.28 84.99 514.36 91.31 527.66 90.63 C 529.61 91.78 530.65 93.83 531.78 95.70 C 531.19 96.25 530.61 96.81 530.03 97.36 C 528.69 97.40 527.37 97.46 526.04 97.49 C 524.52 97.23 523.30 98.26 522.18 99.09 C 520.54 99.44 518.91 99.79 517.28 100.13 C 517.76 98.72 518.25 97.31 518.74 95.90 C 514.71 93.81 510.15 94.93 505.88 94.09 C 503.53 93.67 501.16 93.31 498.79 93.10 C 501.16 94.06 503.58 94.90 506.00 95.77 C 505.61 95.90 504.84 96.15 504.46 96.28 C 503.18 96.25 501.92 96.23 500.66 96.21 C 495.85 97.14 491.56 94.30 488.40 90.95 C 488.13 90.63 487.61 89.99 487.35 89.67 C 488.94 87.82 489.78 85.60 489.51 83.15 L 489.56 82.35 Z" />
<path fill="#181919" opacity="1.00" d=" M 483.58 85.45 C 484.33 84.51 485.06 83.55 485.79 82.60 C 485.41 83.74 485.03 84.88 484.65 86.02 C 485.10 86.62 485.99 87.81 486.44 88.41 C 487.63 86.76 488.71 85.03 489.51 83.15 C 489.78 85.60 488.94 87.82 487.35 89.67 C 487.61 89.99 488.13 90.63 488.40 90.95 C 487.28 91.53 486.17 92.11 485.07 92.68 C 487.37 93.73 489.67 94.75 491.98 95.77 C 491.28 97.51 490.59 99.26 489.89 101.00 C 491.07 100.76 492.28 100.50 493.49 100.32 C 495.53 100.81 497.56 101.37 499.63 101.80 L 499.60 103.21 L 499.57 104.01 C 502.06 104.14 504.43 103.29 506.15 101.44 C 503.41 100.07 500.48 99.15 497.64 98.03 C 500.70 98.08 503.73 98.65 506.55 99.87 C 506.92 100.25 507.66 101.03 508.03 101.42 C 506.46 102.84 504.93 104.28 503.40 105.73 C 505.46 106.55 507.52 107.36 509.59 108.18 C 509.38 109.18 509.18 110.18 508.99 111.19 C 499.06 109.60 489.63 106.00 480.09 103.01 C 488.90 107.57 498.62 109.68 507.94 112.88 C 508.53 112.21 509.12 111.54 509.72 110.86 C 510.52 109.96 511.29 109.02 512.07 108.09 C 514.22 111.86 514.82 116.17 513.63 120.37 L 513.43 121.16 C 513.15 121.29 512.60 121.54 512.32 121.67 C 502.49 118.32 492.49 115.53 482.53 112.60 C 477.02 111.05 471.59 109.17 465.93 108.23 C 479.36 112.78 492.90 116.99 506.34 121.52 C 510.68 123.14 515.37 122.67 519.91 122.98 C 520.81 121.46 521.73 119.95 522.64 118.43 C 521.68 120.92 520.82 123.44 520.21 126.03 C 511.47 125.79 503.13 122.90 495.22 119.40 C 495.30 120.63 495.40 121.86 495.50 123.09 C 491.50 121.89 487.43 120.88 483.53 119.39 C 480.65 118.53 479.64 115.12 476.85 114.16 C 472.94 112.73 468.90 111.66 465.01 110.17 C 464.50 108.68 463.90 107.22 463.34 105.74 C 463.32 105.36 463.29 104.59 463.27 104.21 C 463.85 104.59 465.01 105.36 465.59 105.75 C 467.51 103.74 469.35 101.66 471.12 99.52 C 473.77 100.36 476.39 101.29 478.98 102.34 C 479.48 102.27 480.47 102.12 480.97 102.05 C 480.27 101.33 479.57 100.61 478.88 99.89 C 480.83 99.86 482.77 99.84 484.73 99.82 C 483.27 97.64 481.88 95.42 480.57 93.16 C 481.18 93.02 482.42 92.72 483.04 92.57 C 484.02 91.76 484.95 90.88 485.90 90.02 C 485.12 88.49 484.35 86.97 483.58 85.45 M 486.59 116.91 C 486.91 118.75 488.23 119.86 489.91 120.43 C 489.92 119.61 489.93 117.95 489.94 117.13 C 489.10 117.07 487.42 116.97 486.59 116.91 Z" />
<path fill="#ffffff" opacity="1.00" d=" M 467.74 87.45 C 468.11 86.07 469.63 85.55 470.92 85.46 C 472.81 86.93 469.68 88.14 468.40 87.75 L 467.74 87.45 Z" />
<path fill="#494848" opacity="1.00" d=" M 471.71 94.22 C 475.98 91.77 480.12 88.98 483.58 85.45 C 484.35 86.97 485.12 88.49 485.90 90.02 C 484.95 90.88 484.02 91.76 483.04 92.57 C 482.42 92.72 481.18 93.02 480.57 93.16 C 476.58 93.70 473.58 96.57 471.12 99.52 C 469.35 101.66 467.51 103.74 465.59 105.75 C 465.01 105.36 463.85 104.59 463.27 104.21 C 465.69 101.23 467.83 98.04 470.01 94.88 C 466.83 95.73 463.73 96.79 460.59 97.76 L 460.46 98.78 C 459.94 98.66 458.89 98.41 458.36 98.29 C 458.42 98.57 458.53 99.14 458.59 99.43 C 453.62 100.62 446.98 102.24 443.35 97.53 L 444.55 96.40 C 448.98 97.68 453.76 98.17 458.10 96.22 C 461.56 94.94 464.90 93.37 468.30 91.93 C 470.51 90.99 472.76 90.17 474.95 89.19 C 473.75 90.79 472.72 92.51 471.71 94.22 Z" />
<path fill="#474647" opacity="1.00" d=" M 536.41 86.07 C 537.35 86.36 538.30 86.65 539.25 86.95 C 540.35 87.22 541.37 87.65 542.30 88.24 C 542.40 88.62 542.62 89.37 542.73 89.75 C 541.32 92.29 539.17 94.25 537.10 96.22 C 536.01 94.29 534.92 92.36 533.82 90.44 C 534.73 89.01 535.56 87.54 536.41 86.07 Z" />
<path fill="#1f1f20" opacity="1.00" d=" M 542.30 88.24 C 544.34 88.05 544.08 90.76 544.52 92.10 C 545.21 94.38 544.57 96.65 543.64 98.74 C 544.27 96.27 544.00 93.72 543.79 91.21 C 537.86 98.58 531.27 105.48 526.21 113.51 C 523.04 113.81 519.90 114.34 516.78 114.90 C 517.83 112.71 518.97 110.48 521.07 109.11 C 524.37 106.81 525.43 102.71 527.83 99.64 C 527.62 99.40 527.21 98.91 527.01 98.67 C 526.77 98.37 526.28 97.78 526.04 97.49 C 527.37 97.46 528.69 97.40 530.03 97.36 C 530.61 96.81 531.19 96.25 531.78 95.70 C 530.65 93.83 529.61 91.78 527.66 90.63 C 528.68 90.64 529.70 90.63 530.73 90.62 C 531.75 90.59 532.78 90.54 533.82 90.44 C 534.92 92.36 536.01 94.29 537.10 96.22 C 539.17 94.25 541.32 92.29 542.73 89.75 C 542.62 89.37 542.40 88.62 542.30 88.24 Z" />
<path fill="#101111" opacity="1.00" d=" M 488.40 90.95 C 491.56 94.30 495.85 97.14 500.66 96.21 C 505.73 98.08 511.06 99.42 516.52 98.80 C 512.50 97.94 508.46 97.17 504.46 96.28 C 504.84 96.15 505.61 95.90 506.00 95.77 C 503.58 94.90 501.16 94.06 498.79 93.10 C 501.16 93.31 503.53 93.67 505.88 94.09 C 510.15 94.93 514.71 93.81 518.74 95.90 C 518.25 97.31 517.76 98.72 517.28 100.13 C 518.91 99.79 520.54 99.44 522.18 99.09 C 523.79 99.22 525.44 99.17 527.01 98.67 C 527.21 98.91 527.62 99.40 527.83 99.64 C 525.43 102.71 524.37 106.81 521.07 109.11 C 518.97 110.48 517.83 112.71 516.78 114.90 C 515.80 116.77 514.68 118.54 513.63 120.37 C 514.82 116.17 514.22 111.86 512.07 108.09 C 511.29 109.02 510.52 109.96 509.72 110.86 L 508.99 111.19 C 509.18 110.18 509.38 109.18 509.59 108.18 C 507.52 107.36 505.46 106.55 503.40 105.73 C 504.93 104.28 506.46 102.84 508.03 101.42 C 511.09 102.27 514.27 102.58 517.44 102.65 C 513.88 101.45 510.18 100.77 506.55 99.87 C 503.73 98.65 500.70 98.08 497.64 98.03 C 500.48 99.15 503.41 100.07 506.15 101.44 C 504.43 103.29 502.06 104.14 499.57 104.01 L 499.60 103.21 C 499.96 102.65 500.33 102.09 500.72 101.54 C 498.85 101.00 496.99 100.47 495.09 100.10 C 494.69 100.16 493.89 100.27 493.49 100.32 C 492.28 100.50 491.07 100.76 489.89 101.00 C 490.59 99.26 491.28 97.51 491.98 95.77 C 489.67 94.75 487.37 93.73 485.07 92.68 C 486.17 92.11 487.28 91.53 488.40 90.95 Z" />
<path fill="#666667" opacity="1.00" d=" M 543.79 91.21 C 544.00 93.72 544.27 96.27 543.64 98.74 C 535.65 108.35 528.27 118.49 519.79 127.67 L 520.21 126.03 C 520.82 123.44 521.68 120.92 522.64 118.43 C 521.73 119.95 520.81 121.46 519.91 122.98 C 515.37 122.67 510.68 123.14 506.34 121.52 C 492.90 116.99 479.36 112.78 465.93 108.23 C 471.59 109.17 477.02 111.05 482.53 112.60 C 492.49 115.53 502.49 118.32 512.32 121.67 C 512.60 121.54 513.15 121.29 513.43 121.16 C 516.69 119.71 519.85 118.03 522.90 116.18 C 522.98 116.79 523.15 118.01 523.24 118.61 C 524.22 116.91 525.20 115.20 526.21 113.51 C 531.27 105.48 537.86 98.58 543.79 91.21 Z" />
<path fill="#ffffff" opacity="1.00" d=" M 445.25 93.47 C 446.77 92.99 448.38 94.43 449.73 95.04 C 448.95 96.63 444.65 95.66 445.25 93.47 Z" />
<path fill="#2b2b2b" opacity="1.00" d=" M 471.12 99.52 C 473.58 96.57 476.58 93.70 480.57 93.16 C 481.88 95.42 483.27 97.64 484.73 99.82 C 482.77 99.84 480.83 99.86 478.88 99.89 C 479.57 100.61 480.27 101.33 480.97 102.05 C 480.47 102.12 479.48 102.27 478.98 102.34 C 476.39 101.29 473.77 100.36 471.12 99.52 Z" />
<path fill="#363636" opacity="1.00" d=" M 500.66 96.21 C 501.92 96.23 503.18 96.25 504.46 96.28 C 508.46 97.17 512.50 97.94 516.52 98.80 C 511.06 99.42 505.73 98.08 500.66 96.21 Z" />
<path fill="#3b3b3b" opacity="1.00" d=" M 522.18 99.09 C 523.30 98.26 524.52 97.23 526.04 97.49 C 526.28 97.78 526.77 98.37 527.01 98.67 C 525.44 99.17 523.79 99.22 522.18 99.09 Z" />
<path fill="#ffffff" opacity="1.00" d=" M 493.49 100.32 C 493.89 100.27 494.69 100.16 495.09 100.10 C 496.99 100.47 498.85 101.00 500.72 101.54 C 500.33 102.09 499.96 102.65 499.60 103.21 L 499.63 101.80 C 497.56 101.37 495.53 100.81 493.49 100.32 Z" />
<path fill="#666667" opacity="1.00" d=" M 506.55 99.87 C 510.18 100.77 513.88 101.45 517.44 102.65 C 514.27 102.58 511.09 102.27 508.03 101.42 C 507.66 101.03 506.92 100.25 506.55 99.87 Z" />
<path fill="#5b5b5c" opacity="1.00" d=" M 480.09 103.01 C 489.63 106.00 499.06 109.60 508.99 111.19 L 509.72 110.86 C 509.12 111.54 508.53 112.21 507.94 112.88 C 498.62 109.68 488.90 107.57 480.09 103.01 Z" />
<path fill="#6b6a6b" opacity="1.00" d=" M 462.98 104.87 L 463.34 105.74 C 463.90 107.22 464.50 108.68 465.01 110.17 C 464.96 110.97 464.87 112.56 464.82 113.36 C 463.33 110.80 462.48 107.84 462.98 104.87 Z" />
<path fill="#363536" opacity="1.00" d=" M 465.01 110.17 C 468.90 111.66 472.94 112.73 476.85 114.16 C 479.64 115.12 480.65 118.53 483.53 119.39 C 487.43 120.88 491.50 121.89 495.50 123.09 C 495.40 121.86 495.30 120.63 495.22 119.40 C 503.13 122.90 511.47 125.79 520.21 126.03 L 519.79 127.67 C 517.84 129.97 515.01 131.63 511.91 130.62 C 504.49 128.87 497.40 125.94 490.10 123.78 C 483.79 121.58 477.34 119.81 471.01 117.68 C 468.64 117.01 466.66 115.53 464.77 114.03 L 464.82 113.36 C 464.87 112.56 464.96 110.97 465.01 110.17 Z" />
<path fill="#4d4c4e" opacity="1.00" d=" M 516.78 114.90 C 519.90 114.34 523.04 113.81 526.21 113.51 C 525.20 115.20 524.22 116.91 523.24 118.61 C 523.15 118.01 522.98 116.79 522.90 116.18 C 519.85 118.03 516.69 119.71 513.43 121.16 L 513.63 120.37 C 514.68 118.54 515.80 116.77 516.78 114.90 Z" />
<path fill="#39393a" opacity="1.00" d=" M 486.59 116.91 C 487.42 116.97 489.10 117.07 489.94 117.13 C 489.93 117.95 489.92 119.61 489.91 120.43 C 488.23 119.86 486.91 118.75 486.59 116.91 Z" />
<path fill="#6a3030" opacity="0.51" d=" M 287.89 295.02 C 288.98 290.67 291.75 286.20 296.73 285.99 L 296.40 286.59 C 296.00 286.92 295.21 287.58 294.81 287.90 C 293.38 288.94 292.04 290.09 290.74 291.28 L 290.87 291.91 C 289.84 294.05 289.37 296.62 291.13 298.56 L 291.84 299.71 C 291.92 299.82 292.09 300.04 292.17 300.15 C 292.24 300.22 292.38 300.36 292.46 300.44 C 293.01 300.83 294.11 301.62 294.66 302.02 C 296.21 303.49 298.28 302.71 299.95 301.94 L 300.53 301.75 C 300.84 301.86 301.47 302.07 301.79 302.18 C 302.34 304.09 299.08 303.59 297.98 304.06 C 292.53 304.78 288.97 299.73 287.89 295.02 Z" />
<path fill="#bc2631" opacity="0.87" d=" M 296.73 285.99 C 297.16 285.93 298.03 285.81 298.46 285.75 C 298.38 286.14 298.23 286.92 298.16 287.31 C 297.72 287.13 296.84 286.77 296.40 286.59 L 296.73 285.99 Z" />
<path fill="#722621" opacity="0.58" d=" M 299.91 287.77 C 300.22 287.42 300.83 286.71 301.13 286.36 C 304.57 289.08 306.78 293.16 306.12 297.65 L 304.94 297.77 C 305.03 296.14 304.85 294.56 304.39 293.03 C 303.66 290.74 301.77 289.15 299.91 287.77 Z" />
<path fill="#58ff60" opacity="1.00" d=" M 290.74 291.28 C 292.04 290.09 293.38 288.94 294.81 287.90 L 296.92 287.58 C 295.65 289.22 293.82 290.21 292.10 291.28 C 294.56 291.61 294.22 293.75 294.11 295.64 C 294.81 295.61 296.21 295.54 296.91 295.51 C 296.54 298.55 293.52 297.69 292.24 296.08 C 291.92 294.64 291.41 293.27 290.87 291.91 L 290.74 291.28 Z" />
<path fill="#39e142" opacity="0.93" d=" M 297.17 288.13 C 297.85 288.04 299.23 287.86 299.91 287.77 C 301.77 289.15 303.66 290.74 304.39 293.03 L 303.55 294.61 C 302.46 291.59 299.94 289.55 297.17 288.13 Z" />
<path fill="#ffffff" opacity="1.00" d=" M 21.36 295.31 C 24.37 290.79 31.30 290.63 35.56 293.38 C 39.22 295.73 38.44 300.64 38.67 304.37 C 36.05 304.38 33.42 304.37 30.80 304.38 C 30.69 302.35 31.00 300.24 30.19 298.32 C 27.12 298.26 27.76 302.67 28.59 304.56 C 31.66 308.23 36.89 310.18 38.56 315.00 C 39.60 319.40 39.92 324.26 38.36 328.57 C 34.95 334.41 24.88 334.39 21.49 328.52 C 19.98 325.19 20.32 321.43 20.23 317.88 C 22.86 317.87 25.49 317.87 28.12 317.87 C 28.34 320.66 27.50 323.74 28.93 326.30 C 32.32 325.94 31.27 321.42 30.82 319.07 C 28.10 314.65 21.90 312.92 20.54 307.52 C 19.74 303.52 19.54 299.06 21.36 295.31 Z" />
<path fill="#ffffff" opacity="1.00" d=" M 61.43 294.70 C 65.51 289.82 74.40 290.84 77.33 296.48 C 78.80 299.76 78.54 303.45 78.68 306.96 C 75.83 307.01 72.98 307.00 70.12 307.00 C 69.95 303.86 70.77 300.44 68.99 297.63 C 66.75 299.89 67.69 303.17 67.49 306.01 C 67.69 312.78 67.09 319.59 67.89 326.33 C 70.91 326.34 70.25 323.02 70.41 320.97 C 70.29 319.23 71.06 316.80 68.76 316.29 C 68.75 314.44 68.75 312.59 68.75 310.75 C 72.04 310.75 75.32 310.75 78.61 310.74 C 78.65 317.82 78.59 324.90 78.64 331.98 C 76.80 331.99 74.96 331.99 73.11 331.98 C 73.00 331.30 72.77 329.96 72.66 329.29 C 71.42 330.75 70.23 332.61 68.14 332.81 C 63.66 333.49 59.83 329.39 59.34 325.18 C 58.65 318.83 59.15 312.42 58.99 306.05 C 59.20 302.23 58.62 297.75 61.43 294.70 Z" />
<path fill="#ffffff" opacity="1.00" d=" M 84.64 292.50 C 88.70 292.49 92.77 292.50 96.83 292.49 C 98.51 305.65 100.11 318.83 101.75 332.00 C 98.84 332.00 95.93 332.00 93.03 332.00 C 92.87 329.62 92.72 327.25 92.58 324.87 C 91.82 324.87 90.30 324.87 89.55 324.87 C 89.40 327.25 89.25 329.62 89.10 332.00 C 86.15 332.00 83.20 332.00 80.26 332.00 C 81.71 318.83 83.19 305.67 84.64 292.50 M 90.42 303.99 C 90.54 308.64 89.77 313.24 89.45 317.87 C 90.39 317.86 91.34 317.86 92.29 317.86 C 91.96 312.32 91.13 306.79 91.51 301.24 C 90.75 301.95 90.27 302.91 90.42 303.99 Z" />
<path fill="#ffff26" opacity="1.00" d=" M 159.48 294.64 C 163.58 289.84 172.36 290.86 175.31 296.43 C 176.80 299.73 176.54 303.44 176.68 306.97 C 173.83 307.00 170.98 307.00 168.12 307.00 C 167.94 303.86 168.81 300.40 166.92 297.62 C 164.88 299.95 165.62 303.11 165.49 305.92 C 165.68 312.72 165.10 319.56 165.88 326.34 C 170.04 325.74 167.74 320.22 168.45 317.35 C 168.01 317.09 167.15 316.58 166.72 316.32 C 166.74 314.46 166.75 312.60 166.76 310.75 C 170.04 310.75 173.31 310.75 176.59 310.74 C 176.67 317.81 176.58 324.89 176.65 331.98 C 174.80 331.99 172.95 331.99 171.10 331.97 C 171.00 331.30 170.78 329.97 170.68 329.30 C 169.41 330.72 168.25 332.59 166.17 332.81 C 161.22 333.56 157.30 328.68 157.19 324.07 C 156.79 317.36 157.06 310.63 157.02 303.91 C 157.17 300.73 157.08 297.08 159.48 294.64 Z" />
<path fill="#ffff26" opacity="1.00" d=" M 182.64 292.50 C 186.70 292.49 190.76 292.51 194.82 292.48 C 196.51 305.65 198.11 318.83 199.75 332.00 C 196.84 332.00 193.93 332.00 191.03 332.00 C 190.87 329.62 190.72 327.25 190.58 324.87 C 189.82 324.87 188.30 324.87 187.55 324.87 C 187.40 327.25 187.25 329.62 187.10 332.00 C 184.15 332.00 181.20 332.00 178.26 332.00 C 179.71 318.83 181.19 305.67 182.64 292.50 M 189.35 301.27 C 188.14 306.71 188.07 312.32 187.44 317.84 C 188.15 317.86 189.56 317.88 190.27 317.90 C 189.79 312.39 189.47 306.64 189.35 301.27 Z" />
<path fill="#ffff26" opacity="1.00" d=" M 210.42 293.68 C 213.81 291.11 218.60 291.38 222.47 292.55 C 226.88 294.28 227.52 299.78 227.20 303.89 C 227.32 306.23 225.80 308.02 224.22 309.52 C 227.84 311.72 227.42 316.35 227.52 320.02 C 227.44 324.03 227.38 329.14 223.46 331.45 C 219.02 333.78 212.27 333.30 209.51 328.64 C 207.75 324.78 208.40 320.37 208.24 316.25 C 211.00 316.25 213.76 316.24 216.53 316.28 C 216.56 319.38 216.29 322.51 216.69 325.60 C 216.71 327.34 219.51 326.76 219.17 325.17 C 219.45 321.81 219.73 318.32 218.90 315.03 C 218.32 313.20 215.89 313.69 214.50 313.15 C 214.50 311.36 214.49 309.58 214.49 307.80 C 215.89 307.46 217.58 307.80 218.80 306.88 C 219.70 304.15 219.59 301.11 218.98 298.33 C 218.45 298.17 217.37 297.84 216.84 297.68 C 216.56 299.98 216.48 302.30 216.45 304.63 C 213.71 304.62 210.96 304.62 208.22 304.62 C 208.38 300.96 207.68 296.59 210.42 293.68 Z" />
<path fill="#ffff26" opacity="1.00" d=" M 232.10 295.02 C 234.97 290.83 241.53 290.81 245.31 293.72 C 249.49 297.31 249.34 303.59 247.65 308.40 C 245.44 314.29 242.14 319.70 239.22 325.25 C 242.14 325.25 245.07 325.25 247.99 325.24 C 248.00 327.49 248.00 329.74 248.00 332.00 C 242.03 331.99 236.06 332.01 230.10 331.99 C 230.18 330.02 229.89 327.99 230.37 326.06 C 233.73 318.40 238.38 311.24 240.75 303.17 C 241.44 301.31 241.19 296.65 238.14 298.19 C 236.86 300.56 237.55 303.42 237.35 306.00 C 234.92 306.00 232.50 306.00 230.07 305.98 C 230.22 302.29 229.82 298.20 232.10 295.02 Z" />
<path fill="#58ff60" opacity="1.00" d=" M 297.01 293.76 C 297.14 293.19 297.40 292.04 297.53 291.47 C 299.00 291.89 300.89 291.53 301.97 292.86 C 301.24 294.28 301.44 295.74 301.98 297.22 C 302.54 296.53 303.67 295.15 304.24 294.46 C 304.20 295.47 304.12 297.49 304.08 298.50 C 302.92 299.60 301.82 300.79 300.53 301.75 L 299.95 301.94 L 297.50 302.14 C 298.79 300.22 301.02 299.35 302.75 297.91 C 300.58 297.81 298.41 297.68 296.26 297.40 C 297.08 296.26 297.91 295.14 298.76 294.02 L 297.01 293.76 Z" />
<path fill="#ffffff" opacity="1.00" d=" M 42.24 331.99 C 42.27 318.82 42.22 305.65 42.27 292.49 C 46.97 292.51 51.67 292.49 56.38 292.50 C 56.38 295.12 56.38 297.75 56.38 300.37 C 54.50 300.37 52.62 300.37 50.75 300.38 C 50.75 302.87 50.75 305.36 50.74 307.85 C 52.49 307.86 54.24 307.87 56.00 307.88 C 56.00 310.37 56.00 312.86 56.01 315.36 C 54.25 315.37 52.50 315.37 50.75 315.39 C 50.75 318.30 50.75 321.21 50.75 324.12 C 52.83 324.12 54.92 324.12 57.00 324.12 C 57.00 326.74 57.00 329.37 57.00 332.00 C 52.08 332.00 47.16 332.01 42.24 331.99 Z" />
<path fill="#ffff26" opacity="1.00" d=" M 110.75 292.50 C 114.41 292.49 118.07 292.49 121.73 292.51 C 122.45 298.37 123.10 304.24 123.86 310.10 C 124.84 304.27 125.19 298.36 125.90 292.50 C 129.56 292.49 133.22 292.50 136.88 292.50 C 136.87 305.66 136.87 318.83 136.88 332.00 C 134.42 332.00 131.96 332.00 129.50 332.00 C 129.52 323.29 129.43 314.58 129.59 305.88 C 128.13 314.52 127.74 323.31 126.36 331.96 C 124.66 332.04 122.95 332.01 121.24 332.02 C 120.30 323.36 119.03 314.74 118.49 306.05 C 117.85 314.68 118.23 323.35 118.12 332.00 C 115.67 332.00 113.21 332.00 110.75 332.00 C 110.75 318.83 110.75 305.67 110.75 292.50 Z" />
<path fill="#ffff26" opacity="1.00" d=" M 140.25 331.99 C 140.30 318.82 140.17 305.64 140.31 292.46 C 145.00 292.52 149.69 292.49 154.38 292.50 C 154.38 295.12 154.38 297.75 154.37 300.37 C 152.50 300.37 150.62 300.37 148.74 300.38 C 148.75 302.88 148.75 305.38 148.76 307.88 C 150.50 307.87 152.25 307.87 154.00 307.87 C 154.00 310.36 154.00 312.86 154.01 315.36 C 152.25 315.37 150.50 315.37 148.75 315.39 C 148.75 318.30 148.75 321.21 148.75 324.12 C 150.83 324.12 152.91 324.12 155.00 324.12 C 155.00 326.74 155.00 329.37 155.00 332.00 C 150.08 332.00 145.16 332.00 140.25 331.99 Z" />
<path fill="#ffff26" opacity="1.00" d=" M 250.07 292.50 C 252.82 292.49 255.57 292.50 258.32 292.50 C 258.88 295.99 259.36 299.50 260.13 302.96 C 260.75 299.47 261.33 295.98 261.94 292.50 C 264.31 292.49 266.69 292.50 269.06 292.50 C 268.12 298.35 266.81 304.14 266.07 310.01 C 267.34 317.38 269.13 324.66 270.56 332.00 C 267.93 332.00 265.30 332.00 262.68 332.00 C 261.68 327.36 260.84 322.69 260.15 318.00 C 259.31 322.64 258.92 327.33 258.31 332.00 C 255.56 332.00 252.82 332.00 250.07 332.00 C 251.02 324.66 252.40 317.37 253.17 310.01 C 252.40 304.13 251.03 298.35 250.07 292.50 Z" />
<path fill="#5fcd64" opacity="0.82" d=" M 291.13 298.56 C 290.94 297.53 291.40 297.07 292.53 297.19 C 293.03 299.71 295.82 300.29 297.49 301.83 C 296.79 301.88 295.37 301.97 294.66 302.02 C 294.11 301.62 293.01 300.83 292.46 300.44 C 292.38 300.36 292.24 300.22 292.17 300.15 C 292.09 300.04 291.92 299.82 291.84 299.71 L 291.13 298.56 Z" />
<path fill="#84262c" opacity="0.58" d=" M 304.08 298.50 L 304.98 298.49 L 305.38 299.30 C 305.07 299.43 304.45 299.70 304.14 299.84 L 303.63 299.32 L 304.08 298.50 Z" />
<path fill="#387a3d" opacity="0.48" d=" M 291.84 299.71 C 291.92 299.82 292.09 300.04 292.17 300.15 C 292.09 300.04 291.92 299.82 291.84 299.71 Z" />
<path fill="#438d47" opacity="0.55" d=" M 292.17 300.15 C 292.24 300.22 292.38 300.36 292.46 300.44 C 292.38 300.36 292.24 300.22 292.17 300.15 Z" />
</svg>
