<?xml version="1.0" encoding="UTF-8" ?>
<!DOCTYPE svg PUBLIC "-//W3C//DTD SVG 1.1//EN" "http://www.w3.org/Graphics/SVG/1.1/DTD/svg11.dtd">
<svg width="960pt" height="540pt" viewBox="0 0 960 540" version="1.1" xmlns="http://www.w3.org/2000/svg">
<path fill="#474444" opacity="1.00" d=" M 519.31 45.32 C 522.09 42.44 526.45 42.35 529.99 43.73 C 529.06 44.56 528.12 45.39 527.23 46.26 C 527.17 46.70 527.05 47.59 526.99 48.03 C 526.86 50.53 526.87 53.03 526.80 55.52 C 525.65 58.87 524.94 62.36 524.81 65.90 L 524.30 65.37 C 523.96 62.95 523.88 60.50 523.80 58.06 C 521.20 61.93 518.15 65.49 514.76 68.69 C 514.68 69.63 514.60 70.57 514.54 71.51 C 512.18 71.51 509.88 71.99 507.65 72.68 L 506.96 72.84 C 507.94 73.99 508.92 75.13 509.91 76.28 C 508.10 77.19 506.17 77.56 504.27 76.70 C 504.20 77.34 504.07 78.61 504.00 79.24 C 503.61 80.21 503.21 81.18 502.80 82.14 C 498.64 81.13 495.25 77.82 490.91 77.58 C 489.62 78.42 488.37 79.34 487.12 80.22 C 487.30 82.08 487.48 83.94 487.68 85.80 C 486.50 85.98 485.31 86.15 484.14 86.30 C 484.97 85.46 485.82 84.62 486.54 83.66 C 486.07 81.24 486.04 78.55 487.44 76.42 C 497.79 65.79 508.59 55.59 519.31 45.32 Z" />
<path fill="#c9c7c8" opacity="1.00" d=" M 527.23 46.26 C 528.12 45.39 529.06 44.56 529.99 43.73 C 534.24 44.70 538.68 44.72 542.80 46.26 C 550.47 48.53 557.04 53.23 563.44 57.87 C 563.32 58.39 563.08 59.44 562.95 59.97 C 561.14 60.87 558.96 61.24 557.35 59.72 C 548.59 53.17 538.20 47.81 526.99 48.03 C 527.05 47.59 527.17 46.70 527.23 46.26 Z" />
<path fill="#666467" opacity="1.00" d=" M 526.99 48.03 C 538.20 47.81 548.59 53.17 557.35 59.72 C 558.96 61.24 561.14 60.87 562.95 59.97 C 562.73 62.19 562.53 64.41 562.13 66.61 C 561.20 66.53 560.29 66.46 559.38 66.38 C 559.32 68.43 559.26 70.47 559.24 72.51 C 548.38 69.68 538.10 64.97 528.19 59.80 C 527.71 58.38 527.22 56.96 526.80 55.52 C 526.87 53.03 526.86 50.53 526.99 48.03 Z" />
<path fill="#201f21" opacity="1.00" d=" M 524.81 65.90 C 524.94 62.36 525.65 58.87 526.80 55.52 C 527.22 56.96 527.71 58.38 528.19 59.80 C 538.10 64.97 548.38 69.68 559.24 72.51 C 561.46 71.83 562.82 69.96 563.14 67.69 C 563.65 67.83 564.68 68.11 565.19 68.26 C 563.51 71.11 561.74 74.17 558.67 75.72 C 555.67 77.44 552.04 77.38 548.82 76.37 C 550.96 76.20 553.08 75.90 555.21 75.58 C 546.12 72.06 536.55 69.52 528.26 64.21 C 527.29 64.95 526.32 65.70 525.36 66.44 L 524.81 65.90 Z" />
<path fill="#5c595a" opacity="1.00" d=" M 514.76 68.69 C 518.15 65.49 521.20 61.93 523.80 58.06 C 523.88 60.50 523.96 62.95 524.30 65.37 L 524.81 65.90 L 525.36 66.44 C 525.79 66.65 526.64 67.06 527.07 67.26 C 523.01 70.10 519.97 74.03 516.75 77.73 C 515.43 79.10 515.13 81.03 514.53 82.75 C 514.14 82.91 513.37 83.23 512.98 83.39 C 509.57 83.06 506.15 82.81 502.80 82.14 C 503.21 81.18 503.61 80.21 504.00 79.24 C 508.09 79.95 511.38 77.25 513.36 73.96 C 511.46 73.52 509.55 73.08 507.65 72.68 C 509.88 71.99 512.18 71.51 514.54 71.51 C 514.60 70.57 514.68 69.63 514.76 68.69 Z" />
<path fill="#504d4e" opacity="1.00" d=" M 563.44 57.87 L 563.57 57.31 C 567.64 59.10 571.89 60.38 576.07 61.88 C 573.49 64.00 570.83 66.04 568.12 67.99 C 566.81 66.40 565.51 64.81 564.21 63.21 C 563.86 64.70 563.51 66.20 563.14 67.69 C 562.82 69.96 561.46 71.83 559.24 72.51 C 559.26 70.47 559.32 68.43 559.38 66.38 C 560.29 66.46 561.20 66.53 562.13 66.61 C 562.53 64.41 562.73 62.19 562.95 59.97 C 563.08 59.44 563.32 58.39 563.44 57.87 Z" />
<path fill="#3f3d3e" opacity="1.00" d=" M 568.12 67.99 C 570.83 66.04 573.49 64.00 576.07 61.88 C 579.79 63.85 584.23 65.61 585.65 69.99 L 585.21 70.55 C 584.78 71.12 583.91 72.26 583.48 72.83 C 577.30 82.48 570.57 91.81 564.95 101.80 C 567.06 99.86 569.25 98.01 571.55 96.28 C 569.32 102.20 566.34 107.86 564.94 114.06 C 564.31 115.71 564.97 117.33 565.85 118.74 C 565.54 119.93 564.89 120.97 564.24 121.98 C 560.89 120.95 557.39 121.68 553.97 121.29 C 552.39 120.98 550.87 121.44 549.47 122.13 L 548.94 122.34 L 549.37 121.52 C 551.71 118.63 550.77 115.06 548.55 112.43 C 547.73 114.80 547.79 117.34 548.11 119.80 C 547.92 119.37 547.54 118.50 547.35 118.07 C 547.15 117.60 546.75 116.65 546.54 116.17 C 545.68 115.74 544.80 115.35 543.91 114.99 C 544.22 114.01 544.46 113.00 544.92 112.07 C 546.11 111.49 547.39 111.12 548.64 110.69 C 548.99 110.76 549.69 110.88 550.03 110.94 C 550.14 110.27 550.36 108.93 550.46 108.26 C 551.39 108.48 552.32 108.68 553.26 108.88 C 552.47 109.86 551.68 110.84 550.89 111.83 C 551.36 111.94 552.29 112.16 552.76 112.27 L 553.00 112.64 C 553.41 113.98 554.85 114.21 555.93 114.79 C 554.34 114.79 552.75 114.82 551.18 114.88 C 554.85 118.82 560.62 117.55 564.27 114.32 C 563.82 114.16 562.91 113.85 562.46 113.69 C 562.60 113.28 562.89 112.44 563.03 112.03 L 562.34 111.84 C 561.81 110.71 561.33 109.57 560.86 108.42 C 562.34 107.39 563.64 106.14 564.87 104.82 C 561.63 103.72 558.32 104.67 555.07 105.06 C 551.60 105.48 548.53 103.50 545.73 101.76 C 545.63 101.71 545.42 101.59 545.32 101.53 C 544.89 101.34 544.03 100.96 543.60 100.77 C 543.52 100.72 543.36 100.61 543.28 100.55 L 543.35 100.67 C 538.05 98.53 533.87 94.42 529.51 90.84 C 529.43 90.77 529.28 90.61 529.20 90.53 L 529.24 90.71 C 526.36 89.38 523.67 87.67 520.85 86.22 C 518.29 85.11 515.66 84.16 512.98 83.39 C 513.37 83.23 514.14 82.91 514.53 82.75 C 515.13 81.03 515.43 79.10 516.75 77.73 C 519.97 74.03 523.01 70.10 527.07 67.26 C 534.17 70.62 541.39 73.80 548.82 76.37 C 552.04 77.38 555.67 77.44 558.67 75.72 C 561.74 74.17 563.51 71.11 565.19 68.26 C 564.68 68.11 563.65 67.83 563.14 67.69 C 563.51 66.20 563.86 64.70 564.21 63.21 C 565.51 64.81 566.81 66.40 568.12 67.99 M 527.68 75.99 C 529.39 76.53 533.86 78.70 533.16 75.24 C 531.27 74.10 528.40 73.08 527.68 75.99 M 549.33 90.00 C 549.68 90.48 550.39 91.43 550.75 91.91 C 549.38 93.55 548.05 95.21 546.87 96.99 C 548.63 95.51 550.44 93.98 551.59 91.95 C 551.65 90.79 550.00 90.67 549.33 90.00 M 542.36 92.39 C 541.52 93.12 541.45 95.57 542.86 95.55 C 543.69 94.82 543.78 92.34 542.36 92.39 M 544.31 95.01 C 544.43 98.30 547.35 93.51 544.31 95.01 Z" />
<path fill="#0c0b0c" opacity="1.00" d=" M 528.26 64.21 C 536.55 69.52 546.12 72.06 555.21 75.58 C 553.08 75.90 550.96 76.20 548.82 76.37 C 541.39 73.80 534.17 70.62 527.07 67.26 C 526.64 67.06 525.79 66.65 525.36 66.44 C 526.32 65.70 527.29 64.95 528.26 64.21 Z" />
<path fill="#8f8d8d" opacity="1.00" d=" M 583.48 72.83 C 583.91 72.26 584.78 71.12 585.21 70.55 C 585.36 73.56 585.45 76.57 585.34 79.58 C 583.53 77.77 583.59 75.19 583.48 72.83 Z" />
<path fill="#0c0b0c" opacity="1.00" d=" M 506.96 72.84 L 507.65 72.68 C 509.55 73.08 511.46 73.52 513.36 73.96 C 511.38 77.25 508.09 79.95 504.00 79.24 C 504.07 78.61 504.20 77.34 504.27 76.70 C 506.17 77.56 508.10 77.19 509.91 76.28 C 508.92 75.13 507.94 73.99 506.96 72.84 Z" />
<path fill="#777474" opacity="1.00" d=" M 564.95 101.80 C 570.57 91.81 577.30 82.48 583.48 72.83 C 583.59 75.19 583.53 77.77 585.34 79.58 C 585.56 81.63 585.14 83.64 584.57 85.59 C 584.07 85.28 583.05 84.66 582.54 84.35 C 579.94 88.14 577.23 91.85 574.59 95.60 C 573.41 97.06 573.28 98.96 573.02 100.74 C 572.84 101.08 572.49 101.76 572.31 102.10 C 572.06 100.16 571.82 98.22 571.55 96.28 C 569.25 98.01 567.06 99.86 564.95 101.80 Z" />
<path fill="#1a191a" opacity="1.00" d=" M 527.68 75.99 C 528.40 73.08 531.27 74.10 533.16 75.24 C 533.86 78.70 529.39 76.53 527.68 75.99 Z" />
<path fill="#232324" opacity="1.00" d=" M 487.12 80.22 C 488.37 79.34 489.62 78.42 490.91 77.58 C 491.48 79.57 492.52 81.36 494.11 82.70 C 493.32 83.45 492.53 84.20 491.74 84.95 C 490.77 84.68 489.81 84.40 488.86 84.11 C 488.77 88.43 493.49 89.13 496.40 91.00 C 495.37 92.08 494.36 93.18 493.36 94.28 C 493.35 95.08 493.33 96.68 493.32 97.49 C 491.73 96.38 490.09 95.27 488.91 93.71 C 489.51 91.11 489.86 87.87 486.98 86.50 C 487.08 88.30 487.25 90.13 487.85 91.85 C 487.12 90.51 485.94 89.39 484.38 89.10 L 484.72 91.11 C 483.53 89.54 482.42 87.90 481.15 86.40 C 481.90 86.38 483.39 86.33 484.14 86.30 C 485.31 86.15 486.50 85.98 487.68 85.80 C 487.48 83.94 487.30 82.08 487.12 80.22 Z" />
<path fill="#000000" opacity="1.00" d=" M 490.91 77.58 C 495.25 77.82 498.64 81.13 502.80 82.14 C 506.15 82.81 509.57 83.06 512.98 83.39 C 515.66 84.16 518.29 85.11 520.85 86.22 C 520.70 86.50 520.39 87.05 520.24 87.33 C 522.19 88.44 524.04 89.72 525.72 91.23 C 523.73 90.77 521.76 90.26 519.80 89.72 C 519.56 90.86 519.33 92.00 519.10 93.14 C 517.38 93.31 515.66 93.49 513.94 93.67 C 513.83 93.08 513.60 91.91 513.49 91.33 C 513.05 91.46 512.17 91.72 511.73 91.85 C 510.44 91.23 509.02 90.68 507.58 91.14 C 507.19 91.46 506.41 92.10 506.01 92.42 C 505.85 92.03 505.51 91.27 505.35 90.89 C 505.08 90.32 504.56 89.18 504.30 88.62 C 503.26 87.79 502.16 87.05 501.06 86.32 C 499.50 87.88 497.92 89.42 496.40 91.00 C 493.49 89.13 488.77 88.43 488.86 84.11 C 489.81 84.40 490.77 84.68 491.74 84.95 C 493.54 85.39 495.38 85.61 497.22 85.81 C 496.21 84.75 495.16 83.72 494.11 82.70 C 492.52 81.36 491.48 79.57 490.91 77.58 Z" />
<path fill="#c3c1c2" opacity="1.00" d=" M 442.82 89.22 C 448.28 84.95 455.02 82.56 461.94 82.30 C 462.47 82.93 463.55 84.20 464.08 84.83 C 469.61 83.12 476.66 81.69 481.15 86.40 C 482.42 87.90 483.53 89.54 484.72 91.11 C 486.29 93.28 487.93 95.41 489.10 97.83 C 490.01 100.15 490.82 102.51 491.59 104.88 C 492.64 108.17 493.47 111.60 493.23 115.09 C 490.95 113.94 488.69 112.74 486.68 111.18 C 486.19 110.26 485.72 109.34 485.20 108.45 C 485.90 106.29 487.10 104.03 486.40 101.71 C 485.68 99.38 483.84 97.66 482.48 95.71 C 482.58 95.35 482.78 94.64 482.88 94.29 C 479.83 97.17 475.57 97.96 472.18 100.26 C 471.49 101.95 472.09 103.78 472.52 105.46 C 473.08 106.99 473.66 108.51 474.15 110.07 C 470.28 112.30 465.94 113.32 461.62 114.27 C 459.78 111.86 458.01 109.38 455.85 107.26 C 450.50 107.00 445.64 109.93 440.46 110.88 C 439.96 111.01 438.97 111.27 438.47 111.41 C 438.28 113.31 438.08 115.21 437.90 117.11 C 436.92 114.73 435.86 112.33 434.07 110.43 C 432.12 107.79 432.26 104.10 432.70 101.00 C 433.92 96.41 438.93 94.81 442.66 92.76 C 442.70 91.58 442.76 90.40 442.82 89.22 M 472.23 86.05 L 472.17 86.79 C 470.56 86.87 470.00 87.60 470.48 88.97 C 469.46 91.31 474.66 91.04 472.71 88.89 C 472.76 88.51 472.85 87.73 472.89 87.34 C 473.34 87.17 474.23 86.83 474.68 86.65 L 474.64 85.99 C 476.33 83.42 470.37 83.44 472.23 86.05 M 477.09 88.28 L 477.09 88.75 C 475.12 88.56 474.46 89.26 475.11 90.87 C 474.59 92.65 478.39 92.61 477.67 90.84 C 477.71 90.44 477.80 89.65 477.84 89.25 C 479.12 89.96 481.06 87.40 479.22 87.05 C 478.93 83.72 473.69 87.17 477.09 88.28 M 467.22 93.55 C 467.26 93.60 467.35 93.69 467.39 93.74 L 469.05 95.02 L 470.59 93.72 C 470.62 93.68 470.70 93.59 470.74 93.55 C 472.91 89.73 464.35 89.93 467.22 93.55 M 471.83 93.01 C 471.03 95.92 475.33 97.98 476.60 95.01 C 476.55 92.37 473.69 92.17 471.83 93.01 M 458.08 94.97 C 457.77 95.54 457.14 96.66 456.82 97.23 C 458.81 99.11 462.77 98.04 461.11 94.99 C 460.35 94.98 458.84 94.98 458.08 94.97 M 439.11 100.44 L 439.40 100.65 C 439.25 101.24 438.93 102.40 438.77 102.98 C 438.44 103.16 437.78 103.52 437.45 103.70 C 437.83 104.23 438.59 105.30 438.97 105.84 C 440.49 105.37 442.22 104.64 442.88 106.67 C 444.18 105.98 445.78 105.51 446.25 103.92 L 445.09 104.61 L 445.14 102.93 C 446.46 103.87 448.81 100.91 446.79 100.46 C 447.45 97.71 443.74 100.60 442.66 98.97 C 441.38 97.65 439.73 99.29 439.11 100.44 M 458.25 106.01 C 459.51 110.78 467.03 111.82 469.63 107.69 C 470.99 105.19 469.52 102.30 467.45 100.73 C 467.43 101.23 467.39 102.24 467.37 102.75 L 466.50 103.22 C 466.36 102.40 466.09 100.76 465.95 99.94 C 464.45 100.05 462.63 99.61 461.64 101.07 L 461.73 99.93 C 459.90 101.40 457.45 103.32 458.25 106.01 Z" />
<path fill="#706e6f" opacity="1.00" d=" M 491.74 84.95 C 492.53 84.20 493.32 83.45 494.11 82.70 C 495.16 83.72 496.21 84.75 497.22 85.81 C 495.38 85.61 493.54 85.39 491.74 84.95 Z" />
<path fill="#f9e146" opacity="1.00" d=" M 472.23 86.05 C 470.37 83.44 476.33 83.42 474.64 85.99 C 474.04 86.01 472.84 86.04 472.23 86.05 Z" />
<path fill="#201f21" opacity="1.00" d=" M 582.54 84.35 C 583.05 84.66 584.07 85.28 584.57 85.59 C 584.29 86.30 583.92 86.96 583.45 87.55 C 579.22 91.35 577.29 96.97 573.02 100.74 C 573.28 98.96 573.41 97.06 574.59 95.60 C 577.23 91.85 579.94 88.14 582.54 84.35 Z" />
<path fill="#eda321" opacity="1.00" d=" M 472.23 86.05 C 472.84 86.04 474.04 86.01 474.64 85.99 L 474.68 86.65 C 474.23 86.83 473.34 87.17 472.89 87.34 L 472.17 86.79 L 472.23 86.05 Z" />
<path fill="#f6d63e" opacity="1.00" d=" M 477.09 88.28 C 473.69 87.17 478.93 83.72 479.22 87.05 C 478.69 87.36 477.62 87.98 477.09 88.28 Z" />
<path fill="#353333" opacity="1.00" d=" M 520.85 86.22 C 523.67 87.67 526.36 89.38 529.24 90.71 L 529.51 90.84 C 533.87 94.42 538.05 98.53 543.35 100.67 L 543.60 100.77 C 544.03 100.96 544.89 101.34 545.32 101.53 L 545.73 101.76 C 548.53 103.50 551.60 105.48 555.07 105.06 C 558.32 104.67 561.63 103.72 564.87 104.82 C 563.64 106.14 562.34 107.39 560.86 108.42 C 558.36 108.97 555.80 109.17 553.26 108.88 C 552.32 108.68 551.39 108.48 550.46 108.26 C 550.36 108.93 550.14 110.27 550.03 110.94 C 549.69 110.88 548.99 110.76 548.64 110.69 C 547.39 111.12 546.11 111.49 544.92 112.07 C 544.46 113.00 544.22 114.01 543.91 114.99 C 539.74 113.56 535.57 112.15 531.55 110.33 L 532.13 109.59 C 536.60 108.36 535.30 101.08 530.98 100.87 C 528.93 100.45 528.51 102.69 527.90 104.08 C 523.09 101.71 518.19 99.51 513.10 97.83 C 512.82 95.80 512.49 93.76 511.73 91.85 C 512.17 91.72 513.05 91.46 513.49 91.33 C 513.60 91.91 513.83 93.08 513.94 93.67 C 515.66 93.49 517.38 93.31 519.10 93.14 C 518.47 94.67 519.24 96.80 521.11 96.83 C 521.52 96.82 522.36 96.79 522.78 96.78 C 522.83 96.30 522.94 95.34 522.99 94.86 C 522.87 94.65 522.62 94.24 522.50 94.03 C 522.19 93.87 521.58 93.54 521.27 93.38 C 521.17 93.81 520.98 94.66 520.88 95.08 C 520.61 94.12 520.02 93.48 519.10 93.14 C 519.33 92.00 519.56 90.86 519.80 89.72 C 521.76 90.26 523.73 90.77 525.72 91.23 C 524.04 89.72 522.19 88.44 520.24 87.33 C 520.39 87.05 520.70 86.50 520.85 86.22 M 536.93 105.93 C 537.01 109.17 538.91 112.37 542.39 112.68 C 542.74 112.20 543.44 111.26 543.80 110.78 C 543.79 108.55 543.63 105.79 541.28 104.74 C 539.75 103.39 538.12 105.00 536.93 105.93 Z" />
<path fill="#f9de3e" opacity="1.00" d=" M 470.48 88.97 C 470.00 87.60 470.56 86.87 472.17 86.79 L 472.89 87.34 C 472.85 87.73 472.76 88.51 472.71 88.89 C 472.15 88.91 471.04 88.95 470.48 88.97 Z" />
<path fill="#d39756" opacity="1.00" d=" M 479.22 87.05 C 481.06 87.40 479.12 89.96 477.84 89.25 L 477.09 88.75 L 477.09 88.28 C 477.62 87.98 478.69 87.36 479.22 87.05 Z" />
<path fill="#625f60" opacity="0.96" d=" M 486.98 86.50 C 489.86 87.87 489.51 91.11 488.91 93.71 C 488.65 93.25 488.11 92.32 487.85 91.85 C 487.25 90.13 487.08 88.30 486.98 86.50 Z" />
<path fill="#c0bdbf" opacity="1.00" d=" M 496.40 91.00 C 497.92 89.42 499.50 87.88 501.06 86.32 C 502.16 87.05 503.26 87.79 504.30 88.62 C 502.62 92.07 500.89 95.82 497.24 97.59 C 497.03 97.96 496.59 98.71 496.37 99.09 C 495.93 98.59 495.04 97.60 494.59 97.11 C 494.05 98.14 493.50 99.17 492.95 100.20 C 493.04 99.52 493.23 98.17 493.32 97.49 C 493.33 96.68 493.35 95.08 493.36 94.28 C 494.36 93.18 495.37 92.08 496.40 91.00 Z" />
<path fill="#000000" opacity="0.63" d=" M 573.02 100.74 C 577.29 96.97 579.22 91.35 583.45 87.55 C 583.76 89.53 583.02 91.38 581.93 92.99 C 577.44 99.98 571.92 106.49 569.39 114.55 C 567.58 118.61 567.13 124.69 562.04 126.03 C 558.13 127.09 552.27 126.61 550.30 122.58 C 554.55 124.94 560.52 125.75 564.24 121.98 C 564.89 120.97 565.54 119.93 565.85 118.74 C 567.50 113.02 569.60 107.41 572.31 102.10 C 572.49 101.76 572.84 101.08 573.02 100.74 Z" />
<path fill="#db9a35" opacity="1.00" d=" M 470.48 88.97 C 471.04 88.95 472.15 88.91 472.71 88.89 C 474.66 91.04 469.46 91.31 470.48 88.97 Z" />
<path fill="#f9d531" opacity="1.00" d=" M 475.11 90.87 C 474.46 89.26 475.12 88.56 477.09 88.75 L 477.84 89.25 C 477.80 89.65 477.71 90.44 477.67 90.84 C 477.03 90.85 475.75 90.86 475.11 90.87 Z" />
<path fill="#8d8b8c" opacity="1.00" d=" M 504.30 88.62 C 504.56 89.18 505.08 90.32 505.35 90.89 C 503.56 93.12 502.09 95.59 501.16 98.30 C 499.90 99.97 498.22 101.24 496.20 101.83 L 495.01 101.53 L 495.74 100.18 L 496.37 99.09 C 496.59 98.71 497.03 97.96 497.24 97.59 C 500.89 95.82 502.62 92.07 504.30 88.62 Z" />
<path fill="#726f70" opacity="1.00" d=" M 529.20 90.53 C 529.28 90.61 529.43 90.77 529.51 90.84 L 529.24 90.71 L 529.20 90.53 Z" />
<path fill="#000000" opacity="1.00" d=" M 549.33 90.00 C 550.00 90.67 551.65 90.79 551.59 91.95 C 550.44 93.98 548.63 95.51 546.87 96.99 C 548.05 95.21 549.38 93.55 550.75 91.91 C 550.39 91.43 549.68 90.48 549.33 90.00 Z" />
<path fill="#0db457" opacity="1.00" d=" M 467.22 93.55 C 464.35 89.93 472.91 89.73 470.74 93.55 C 470.70 93.59 470.62 93.68 470.59 93.72 L 469.05 95.02 L 467.39 93.74 C 467.35 93.69 467.26 93.60 467.22 93.55 Z" />
<path fill="#d38239" opacity="1.00" d=" M 475.11 90.87 C 475.75 90.86 477.03 90.85 477.67 90.84 C 478.39 92.61 474.59 92.65 475.11 90.87 Z" />
<path fill="#515051" opacity="1.00" d=" M 505.35 90.89 C 505.51 91.27 505.85 92.03 506.01 92.42 C 506.41 92.10 507.19 91.46 507.58 91.14 C 508.59 91.82 509.63 92.49 510.67 93.16 C 510.63 93.43 510.54 93.97 510.50 94.24 C 511.61 94.99 512.30 96.04 512.58 97.40 C 510.89 96.89 509.19 96.29 507.39 96.46 C 506.85 95.49 506.31 94.52 505.79 93.56 C 504.22 95.11 502.64 96.66 501.16 98.30 C 502.09 95.59 503.56 93.12 505.35 90.89 Z" />
<path fill="#bbb9ba" opacity="1.00" d=" M 507.58 91.14 C 509.02 90.68 510.44 91.23 511.73 91.85 C 512.49 93.76 512.82 95.80 513.10 97.83 C 512.56 98.14 511.50 98.75 510.96 99.06 C 509.76 98.21 508.56 97.35 507.39 96.46 C 509.19 96.29 510.89 96.89 512.58 97.40 C 512.30 96.04 511.61 94.99 510.50 94.24 C 510.54 93.97 510.63 93.43 510.67 93.16 C 509.63 92.49 508.59 91.82 507.58 91.14 Z" />
<path fill="#1a56e3" opacity="1.00" d=" M 471.83 93.01 C 473.69 92.17 476.55 92.37 476.60 95.01 C 475.33 97.98 471.03 95.92 471.83 93.01 Z" />
<path fill="#1c1b1b" opacity="1.00" d=" M 542.36 92.39 C 543.78 92.34 543.69 94.82 542.86 95.55 C 541.45 95.57 541.52 93.12 542.36 92.39 Z" />
<path fill="#0f6824" opacity="1.00" d=" M 467.22 93.55 C 467.26 93.60 467.35 93.69 467.39 93.74 C 467.35 93.69 467.26 93.60 467.22 93.55 Z" />
<path fill="#0e6423" opacity="1.00" d=" M 470.59 93.72 C 470.62 93.68 470.70 93.59 470.74 93.55 C 470.70 93.59 470.62 93.68 470.59 93.72 Z" />
<path fill="#197925" opacity="1.00" d=" M 519.10 93.14 C 520.02 93.48 520.61 94.12 520.88 95.08 C 520.94 95.52 521.05 96.39 521.11 96.83 C 519.24 96.80 518.47 94.67 519.10 93.14 Z" />
<path fill="#34548d" opacity="1.00" d=" M 521.27 93.38 C 521.58 93.54 522.19 93.87 522.50 94.03 C 522.62 94.24 522.87 94.65 522.99 94.86 C 522.94 95.34 522.83 96.30 522.78 96.78 C 522.36 96.79 521.52 96.82 521.11 96.83 C 521.05 96.39 520.94 95.52 520.88 95.08 C 520.98 94.66 521.17 93.81 521.27 93.38 Z" />
<path fill="#7b7878" opacity="1.00" d=" M 472.18 100.26 C 475.57 97.96 479.83 97.17 482.88 94.29 C 482.78 94.64 482.58 95.35 482.48 95.71 C 481.18 97.18 479.75 98.51 478.35 99.87 C 480.84 102.56 483.20 105.37 485.20 108.45 C 485.72 109.34 486.19 110.26 486.68 111.18 C 486.77 111.53 486.95 112.23 487.04 112.58 C 485.41 112.03 483.77 110.93 481.98 111.65 L 481.98 111.64 C 479.87 108.88 478.55 105.64 476.93 102.59 C 475.40 103.46 473.92 104.40 472.52 105.46 C 472.09 103.78 471.49 101.95 472.18 100.26 Z" />
<path fill="#000000" opacity="0.98" d=" M 501.16 98.30 C 502.64 96.66 504.22 95.11 505.79 93.56 C 506.31 94.52 506.85 95.49 507.39 96.46 C 507.44 97.06 507.53 98.25 507.57 98.85 C 515.18 103.43 523.41 106.84 531.55 110.33 C 535.57 112.15 539.74 113.56 543.91 114.99 C 544.80 115.35 545.68 115.74 546.54 116.17 C 546.75 116.65 547.15 117.60 547.35 118.07 C 536.07 113.79 524.71 109.59 513.94 104.13 C 511.41 102.96 508.91 101.32 506.03 101.35 C 503.26 101.24 501.09 103.18 498.88 104.54 C 497.99 103.63 497.12 102.71 496.20 101.83 C 498.22 101.24 499.90 99.97 501.16 98.30 Z" />
<path fill="#478b28" opacity="1.00" d=" M 522.50 94.03 C 522.62 94.24 522.87 94.65 522.99 94.86 C 522.87 94.65 522.62 94.24 522.50 94.03 Z" />
<path fill="#ec2e20" opacity="1.00" d=" M 458.08 94.97 C 458.84 94.98 460.35 94.98 461.11 94.99 C 462.77 98.04 458.81 99.11 456.82 97.23 C 457.14 96.66 457.77 95.54 458.08 94.97 Z" />
<path fill="#7b7878" opacity="1.00" d=" M 544.31 95.01 C 547.35 93.51 544.43 98.30 544.31 95.01 Z" />
<path fill="#dddbdc" opacity="1.00" d=" M 478.35 99.87 C 479.75 98.51 481.18 97.18 482.48 95.71 C 483.84 97.66 485.68 99.38 486.40 101.71 C 487.10 104.03 485.90 106.29 485.20 108.45 C 483.20 105.37 480.84 102.56 478.35 99.87 Z" />
<path fill="#413f3f" opacity="1.00" d=" M 507.39 96.46 C 508.56 97.35 509.76 98.21 510.96 99.06 C 511.50 98.75 512.56 98.14 513.10 97.83 C 518.19 99.51 523.09 101.71 527.90 104.08 C 528.99 106.14 530.61 107.84 532.13 109.59 L 531.55 110.33 C 523.41 106.84 515.18 103.43 507.57 98.85 C 507.53 98.25 507.44 97.06 507.39 96.46 Z" />
<path fill="#848182" opacity="1.00" d=" M 571.55 96.28 C 571.82 98.22 572.06 100.16 572.31 102.10 C 569.60 107.41 567.50 113.02 565.85 118.74 C 564.97 117.33 564.31 115.71 564.94 114.06 C 566.34 107.86 569.32 102.20 571.55 96.28 Z" />
<path fill="#232324" opacity="1.00" d=" M 489.10 97.83 C 489.81 99.20 490.48 100.58 491.18 101.96 C 491.63 101.52 492.51 100.64 492.95 100.20 C 493.50 99.17 494.05 98.14 494.59 97.11 C 495.04 97.60 495.93 98.59 496.37 99.09 L 495.74 100.18 C 494.21 101.61 492.36 102.84 491.59 104.88 C 490.82 102.51 490.01 100.15 489.10 97.83 Z" />
<path fill="#706e6f" opacity="1.00" d=" M 439.11 100.44 C 439.73 99.29 441.38 97.65 442.66 98.97 C 443.74 100.60 447.45 97.71 446.79 100.46 C 445.78 101.04 445.24 101.86 445.14 102.93 L 445.09 104.61 C 444.80 104.83 444.22 105.27 443.93 105.49 C 442.97 104.96 442.02 104.44 441.08 103.91 C 440.52 104.17 439.38 104.70 438.82 104.96 C 438.81 104.47 438.79 103.48 438.77 102.98 C 438.93 102.40 439.25 101.24 439.40 100.65 L 439.53 100.37 C 439.42 100.38 439.21 100.42 439.11 100.44 Z" />
<path fill="#2c2b2b" opacity="1.00" d=" M 439.11 100.44 C 439.21 100.42 439.42 100.38 439.53 100.37 L 439.40 100.65 L 439.11 100.44 Z" />
<path fill="#6a686a" opacity="1.00" d=" M 458.25 106.01 C 457.45 103.32 459.90 101.40 461.73 99.93 L 461.64 101.07 C 461.59 101.69 461.49 102.93 461.45 103.55 C 461.50 104.29 461.60 105.76 461.65 106.50 C 461.73 107.17 461.89 108.50 461.97 109.17 C 463.32 108.66 464.68 108.16 466.00 107.56 C 465.79 107.38 465.36 107.01 465.15 106.83 C 466.73 106.03 467.39 104.46 467.37 102.75 C 467.39 102.24 467.43 101.23 467.45 100.73 C 469.52 102.30 470.99 105.19 469.63 107.69 C 467.03 111.82 459.51 110.78 458.25 106.01 Z" />
<path fill="#e4e2e3" opacity="1.00" d=" M 461.64 101.07 C 462.63 99.61 464.45 100.05 465.95 99.94 C 466.09 100.76 466.36 102.40 466.50 103.22 C 465.02 104.49 463.11 104.09 461.45 103.55 C 461.49 102.93 461.59 101.69 461.64 101.07 Z" />
<path fill="#000000" opacity="0.44" d=" M 491.59 104.88 C 492.36 102.84 494.21 101.61 495.74 100.18 L 495.01 101.53 L 496.20 101.83 C 497.12 102.71 497.99 103.63 498.88 104.54 C 501.09 103.18 503.26 101.24 506.03 101.35 C 508.91 101.32 511.41 102.96 513.94 104.13 C 524.71 109.59 536.07 113.79 547.35 118.07 C 547.54 118.50 547.92 119.37 548.11 119.80 L 548.19 120.00 C 535.26 115.10 522.36 110.06 509.97 103.90 C 504.97 101.29 501.93 108.45 497.05 107.45 C 496.42 107.15 495.16 106.55 494.53 106.25 C 493.73 109.78 495.12 113.38 494.45 116.92 C 493.96 118.63 492.34 119.59 491.11 120.72 C 490.01 120.03 488.92 119.37 487.82 118.71 C 489.20 118.30 490.60 117.91 491.98 117.46 C 492.29 116.86 492.92 115.68 493.23 115.09 C 493.47 111.60 492.64 108.17 491.59 104.88 Z" />
<path fill="#747273" opacity="1.00" d=" M 543.28 100.55 C 543.36 100.61 543.52 100.72 543.60 100.77 L 543.35 100.67 L 543.28 100.55 Z" />
<path fill="#0c0b0c" opacity="1.00" d=" M 445.14 102.93 C 445.24 101.86 445.78 101.04 446.79 100.46 C 448.81 100.91 446.46 103.87 445.14 102.93 Z" />
<path fill="#b4b2b3" opacity="1.00" d=" M 527.90 104.08 C 528.51 102.69 528.93 100.45 530.98 100.87 C 535.30 101.08 536.60 108.36 532.13 109.59 C 530.61 107.84 528.99 106.14 527.90 104.08 M 528.95 102.92 C 528.61 105.93 532.21 106.32 534.28 107.09 C 533.93 104.96 531.58 104.71 529.98 103.96 L 530.85 101.79 L 528.95 102.92 Z" />
<path fill="#6f6d6e" opacity="1.00" d=" M 545.32 101.53 C 545.42 101.59 545.63 101.71 545.73 101.76 L 545.32 101.53 Z" />
<path fill="#000000" opacity="1.00" d=" M 437.45 103.70 C 437.78 103.52 438.44 103.16 438.77 102.98 C 438.79 103.48 438.81 104.47 438.82 104.96 C 439.38 104.70 440.52 104.17 441.08 103.91 C 442.02 104.44 442.97 104.96 443.93 105.49 C 444.22 105.27 444.80 104.83 445.09 104.61 L 446.25 103.92 C 445.78 105.51 444.18 105.98 442.88 106.67 C 442.22 104.64 440.49 105.37 438.97 105.84 C 438.59 105.30 437.83 104.23 437.45 103.70 Z" />
<path fill="#191819" opacity="1.00" d=" M 466.50 103.22 L 467.37 102.75 C 467.39 104.46 466.73 106.03 465.15 106.83 C 464.27 106.75 462.52 106.58 461.65 106.50 C 461.60 105.76 461.50 104.29 461.45 103.55 C 463.11 104.09 465.02 104.49 466.50 103.22 Z" />
<path fill="#000000" opacity="0.76" d=" M 472.52 105.46 C 473.92 104.40 475.40 103.46 476.93 102.59 C 478.55 105.64 479.87 108.88 481.98 111.64 C 480.29 111.17 478.57 110.80 476.86 110.43 C 476.30 111.67 475.75 112.91 475.21 114.15 C 474.87 112.78 474.53 111.42 474.15 110.07 C 473.66 108.51 473.08 106.99 472.52 105.46 Z" />
<path fill="#2f2e2f" opacity="1.00" d=" M 528.95 102.92 L 530.85 101.79 L 529.98 103.96 C 531.58 104.71 533.93 104.96 534.28 107.09 C 532.21 106.32 528.61 105.93 528.95 102.92 Z" />
<path fill="#c0bdbf" opacity="1.00" d=" M 536.93 105.93 C 538.12 105.00 539.75 103.39 541.28 104.74 C 543.63 105.79 543.79 108.55 543.80 110.78 C 543.44 111.26 542.74 112.20 542.39 112.68 C 538.91 112.37 537.01 109.17 536.93 105.93 M 537.79 106.05 C 537.67 109.24 540.65 110.00 542.98 111.09 C 543.14 108.58 540.59 108.16 538.67 108.21 C 539.42 107.45 540.26 106.78 541.17 106.20 C 540.33 106.16 538.64 106.09 537.79 106.05 Z" />
<path fill="#b4b2b3" opacity="1.00" d=" M 461.65 106.50 C 462.52 106.58 464.27 106.75 465.15 106.83 C 465.36 107.01 465.79 107.38 466.00 107.56 C 464.68 108.16 463.32 108.66 461.97 109.17 C 461.89 108.50 461.73 107.17 461.65 106.50 Z" />
<path fill="#232324" opacity="1.00" d=" M 537.79 106.05 C 538.64 106.09 540.33 106.16 541.17 106.20 C 540.26 106.78 539.42 107.45 538.67 108.21 C 540.59 108.16 543.14 108.58 542.98 111.09 C 540.65 110.00 537.67 109.24 537.79 106.05 Z" />
<path fill="#7f7c7d" opacity="1.00" d=" M 440.46 110.88 C 445.64 109.93 450.50 107.00 455.85 107.26 C 453.94 108.15 454.51 110.07 454.71 111.72 C 452.41 112.46 450.11 113.17 447.87 114.05 C 447.85 114.57 447.81 115.60 447.79 116.12 C 447.48 114.52 447.10 112.94 446.75 111.35 C 445.48 111.24 444.22 111.13 442.96 111.03 C 442.33 110.99 441.08 110.92 440.46 110.88 Z" />
<path fill="#666467" opacity="1.00" d=" M 454.71 111.72 C 454.51 110.07 453.94 108.15 455.85 107.26 C 458.01 109.38 459.78 111.86 461.62 114.27 C 462.17 115.00 462.73 115.73 463.28 116.46 C 462.42 117.28 461.57 118.10 460.72 118.93 C 459.07 116.25 457.15 113.72 454.71 111.72 Z" />
<path fill="#666466" opacity="1.00" d=" M 553.26 108.88 C 555.80 109.17 558.36 108.97 560.86 108.42 C 561.33 109.57 561.81 110.71 562.34 111.84 C 560.84 112.17 559.36 112.56 557.88 112.92 C 556.61 111.30 554.43 111.62 552.76 112.27 C 552.29 112.16 551.36 111.94 550.89 111.83 C 551.68 110.84 552.47 109.86 553.26 108.88 Z" />
<path fill="#d9d7d8" opacity="1.00" d=" M 461.62 114.27 C 465.94 113.32 470.28 112.30 474.15 110.07 C 474.53 111.42 474.87 112.78 475.21 114.15 C 475.63 115.93 476.04 117.71 476.40 119.51 C 473.09 119.50 470.55 121.76 468.36 123.96 C 466.72 121.42 465.11 118.87 463.28 116.46 C 462.73 115.73 462.17 115.00 461.62 114.27 Z" />
<path fill="#999798" opacity="1.00" d=" M 434.07 110.43 C 435.86 112.33 436.92 114.73 437.90 117.11 C 439.75 121.17 441.96 125.06 443.93 129.06 C 444.88 131.24 447.40 130.84 449.35 130.96 C 448.96 132.20 449.05 134.04 447.63 134.63 C 445.90 135.58 444.14 134.27 443.09 132.97 C 439.88 129.13 437.99 124.40 436.24 119.77 C 435.24 116.73 434.55 113.59 434.07 110.43 Z" />
<path fill="#d4d2d3" opacity="1.00" d=" M 438.47 111.41 C 438.97 111.27 439.96 111.01 440.46 110.88 C 441.08 110.92 442.33 110.99 442.96 111.03 C 446.28 113.16 446.17 117.53 446.18 121.01 C 445.99 123.80 446.28 127.05 443.93 129.06 C 441.96 125.06 439.75 121.17 437.90 117.11 C 438.08 115.21 438.28 113.31 438.47 111.41 Z" />
<path fill="#b4b2b3" opacity="1.00" d=" M 442.96 111.03 C 444.22 111.13 445.48 111.24 446.75 111.35 C 447.10 112.94 447.48 114.52 447.79 116.12 C 448.02 117.67 448.25 119.22 448.44 120.78 C 448.79 124.17 449.07 127.56 449.35 130.96 C 447.40 130.84 444.88 131.24 443.93 129.06 C 446.28 127.05 445.99 123.80 446.18 121.01 C 446.17 117.53 446.28 113.16 442.96 111.03 Z" />
<path fill="#000000" opacity="0.56" d=" M 476.86 110.43 C 478.57 110.80 480.29 111.17 481.98 111.64 L 481.98 111.65 C 484.74 114.35 487.61 118.07 491.98 117.46 C 490.60 117.91 489.20 118.30 487.82 118.71 C 485.55 116.76 483.42 114.62 480.93 112.94 C 479.33 111.60 475.50 112.26 476.55 115.01 C 477.92 120.97 479.20 127.11 478.22 133.24 C 477.71 134.42 476.95 135.46 476.30 136.55 C 474.93 136.35 473.30 136.74 472.19 135.73 C 467.82 132.07 464.82 127.13 460.96 123.00 C 458.41 120.01 454.01 121.67 450.66 121.73 C 449.24 126.97 452.26 132.91 448.62 137.57 C 447.62 137.53 446.62 137.49 445.63 137.45 C 441.00 132.58 437.16 126.53 436.24 119.77 C 437.99 124.40 439.88 129.13 443.09 132.97 C 444.14 134.27 445.90 135.58 447.63 134.63 C 449.05 134.04 448.96 132.20 449.35 130.96 C 449.07 127.56 448.79 124.17 448.44 120.78 C 452.41 118.71 456.94 119.23 461.22 119.70 C 464.56 124.63 467.34 130.28 472.31 133.80 C 474.43 135.16 476.01 132.83 477.09 131.30 C 477.09 127.37 477.10 123.40 476.40 119.51 C 476.04 117.71 475.63 115.93 475.21 114.15 C 475.75 112.91 476.30 111.67 476.86 110.43 Z" />
<path fill="#a29fa0" opacity="1.00" d=" M 481.98 111.65 C 483.77 110.93 485.41 112.03 487.04 112.58 C 486.95 112.23 486.77 111.53 486.68 111.18 C 488.69 112.74 490.95 113.94 493.23 115.09 C 492.92 115.68 492.29 116.86 491.98 117.46 C 487.61 118.07 484.74 114.35 481.98 111.65 Z" />
<path fill="#000000" opacity="0.95" d=" M 447.87 114.05 C 450.11 113.17 452.41 112.46 454.71 111.72 C 457.15 113.72 459.07 116.25 460.72 118.93 L 461.22 119.70 C 456.94 119.23 452.41 118.71 448.44 120.78 C 448.25 119.22 448.02 117.67 447.79 116.12 C 447.81 115.60 447.85 114.57 447.87 114.05 Z" />
<path fill="#898788" opacity="1.00" d=" M 552.76 112.27 C 554.43 111.62 556.61 111.30 557.88 112.92 C 556.27 113.39 554.54 113.18 553.00 112.64 L 552.76 112.27 Z" />
<path fill="#2f2e2f" opacity="1.00" d=" M 557.88 112.92 C 559.36 112.56 560.84 112.17 562.34 111.84 L 563.03 112.03 C 562.89 112.44 562.60 113.28 562.46 113.69 C 562.91 113.85 563.82 114.16 564.27 114.32 C 560.62 117.55 554.85 118.82 551.18 114.88 C 552.75 114.82 554.34 114.79 555.93 114.79 C 554.85 114.21 553.41 113.98 553.00 112.64 C 554.54 113.18 556.27 113.39 557.88 112.92 Z" />
<path fill="#545253" opacity="0.98" d=" M 548.11 119.80 C 547.79 117.34 547.73 114.80 548.55 112.43 C 550.77 115.06 551.71 118.63 549.37 121.52 C 549.08 121.14 548.49 120.38 548.19 120.00 L 548.11 119.80 Z" />
<path fill="#9e9c9d" opacity="1.00" d=" M 460.72 118.93 C 461.57 118.10 462.42 117.28 463.28 116.46 C 465.11 118.87 466.72 121.42 468.36 123.96 C 470.05 126.66 472.19 129.51 475.62 129.84 C 475.98 130.20 476.72 130.94 477.09 131.30 C 476.01 132.83 474.43 135.16 472.31 133.80 C 467.34 130.28 464.56 124.63 461.22 119.70 L 460.72 118.93 Z" />
<path fill="#bbb9ba" opacity="1.00" d=" M 468.36 123.96 C 470.55 121.76 473.09 119.50 476.40 119.51 C 477.10 123.40 477.09 127.37 477.09 131.30 C 476.72 130.94 475.98 130.20 475.62 129.84 C 472.19 129.51 470.05 126.66 468.36 123.96 Z" />
<path fill="#1e1c1d" opacity="0.98" d=" M 549.47 122.13 C 550.87 121.44 552.39 120.98 553.97 121.29 C 557.39 121.68 560.89 120.95 564.24 121.98 C 560.52 125.75 554.55 124.94 550.30 122.58 L 549.47 122.13 Z" />
<path fill="#43291e" opacity="0.38" d=" M 230.86 288.02 C 232.27 287.28 233.67 286.53 235.06 285.76 C 237.70 286.83 240.32 288.85 240.08 292.04 C 240.32 295.25 237.59 297.20 234.98 298.30 C 233.68 297.65 232.44 296.86 231.47 295.77 C 233.39 295.89 235.32 296.05 237.24 296.25 C 238.02 294.89 238.76 293.52 239.49 292.14 C 238.75 292.22 237.28 292.38 236.55 292.45 C 237.44 291.76 238.34 291.08 239.25 290.40 C 238.24 289.00 236.99 287.24 235.02 288.28 C 234.92 288.27 234.74 288.26 234.65 288.25 C 233.09 287.63 232.00 288.69 231.00 289.72 C 231.21 291.14 231.37 292.57 231.28 294.01 L 229.98 294.77 C 229.82 292.47 230.13 290.19 230.86 288.02 Z" />
<path fill="#43a945" opacity="0.73" d=" M 231.00 289.72 C 232.00 288.69 233.09 287.63 234.65 288.25 L 232.90 289.19 C 233.18 289.84 233.72 291.16 234.00 291.81 C 233.62 292.90 233.21 293.95 232.84 295.04 C 234.51 295.19 236.29 295.43 237.57 294.07 L 234.96 294.48 C 234.92 292.96 234.89 291.43 234.86 289.91 C 235.54 289.91 236.91 289.89 237.59 289.88 C 236.95 289.48 235.66 288.68 235.02 288.28 C 236.99 287.24 238.24 289.00 239.25 290.40 C 238.34 291.08 237.44 291.76 236.55 292.45 C 237.28 292.38 238.75 292.22 239.49 292.14 C 238.76 293.52 238.02 294.89 237.24 296.25 C 235.32 296.05 233.39 295.89 231.47 295.77 L 231.21 295.75 C 231.23 295.31 231.26 294.45 231.28 294.01 C 231.37 292.57 231.21 291.14 231.00 289.72 Z" />
<path fill="#ffffff" opacity="1.00" d=" M 65.08 292.43 C 67.44 292.48 69.80 292.50 72.16 292.56 C 72.08 305.70 72.15 318.85 72.13 332.00 C 69.66 332.00 67.20 332.00 64.75 332.00 C 63.26 326.26 62.14 320.43 60.39 314.77 C 60.34 320.51 60.40 326.26 60.38 332.00 C 57.99 332.00 55.61 332.00 53.23 331.98 C 53.32 318.80 53.15 305.62 53.32 292.45 C 55.63 292.49 57.94 292.50 60.25 292.50 C 61.74 298.36 63.56 304.15 64.68 310.10 C 65.29 304.22 64.82 298.32 65.08 292.43 Z" />
<path fill="#ffffff" opacity="1.00" d=" M 74.26 292.48 C 80.46 292.50 86.65 292.53 92.84 292.46 C 92.89 295.12 92.89 297.78 92.82 300.43 C 91.13 300.39 89.44 300.37 87.75 300.36 C 87.76 310.90 87.73 321.44 87.77 331.98 C 84.92 332.00 82.08 332.00 79.23 331.98 C 79.27 321.44 79.25 310.91 79.25 300.37 C 77.59 300.37 75.93 300.38 74.27 300.39 C 74.25 297.75 74.25 295.12 74.26 292.48 Z" />
<path fill="#ffffff" opacity="1.00" d=" M 94.74 292.51 C 99.44 292.47 104.14 292.53 108.84 292.47 C 108.88 295.10 108.88 297.74 108.87 300.38 C 107.00 300.37 105.13 300.37 103.26 300.37 C 103.25 302.87 103.25 305.36 103.24 307.86 C 104.99 307.87 106.75 307.87 108.50 307.88 C 108.50 310.38 108.50 312.88 108.50 315.38 C 106.75 315.37 105.00 315.37 103.26 315.37 C 103.24 318.30 103.24 321.24 103.27 324.18 C 105.35 324.12 107.42 324.11 109.50 324.12 C 109.50 326.74 109.50 329.37 109.50 332.00 C 104.58 332.00 99.67 332.00 94.75 332.00 C 94.74 318.84 94.76 305.68 94.74 292.51 Z" />
<path fill="#ffffff" opacity="1.00" d=" M 162.35 292.52 C 167.87 289.77 175.60 293.04 176.26 299.49 C 176.83 307.92 176.84 316.45 176.28 324.89 C 175.79 330.31 170.09 333.92 164.92 332.74 C 160.64 332.24 157.47 328.30 157.24 324.10 C 156.81 316.73 156.97 309.33 157.12 301.95 C 157.10 298.21 158.76 294.13 162.35 292.52 M 165.85 298.87 C 165.16 302.53 165.62 306.28 165.50 309.97 C 165.65 315.44 165.12 320.94 165.90 326.37 C 166.37 326.19 167.32 325.81 167.80 325.62 C 168.37 316.75 168.26 307.75 167.86 298.87 L 166.88 298.22 L 165.85 298.87 Z" />
<path fill="#ffff26" opacity="1.00" d=" M 187.15 300.90 C 187.25 297.27 189.39 293.50 192.98 292.35 C 196.54 291.24 200.96 291.46 203.79 294.13 C 206.17 296.42 206.31 299.91 206.61 302.99 C 203.85 303.02 201.10 303.02 198.34 302.91 C 198.13 301.17 199.13 298.44 196.84 297.74 C 195.65 297.98 195.10 298.70 195.19 299.89 C 195.03 302.68 195.18 305.48 195.01 308.28 C 196.84 305.64 200.65 304.66 203.32 306.65 C 207.03 309.11 206.40 314.10 206.52 317.97 C 206.34 321.84 207.06 326.27 204.54 329.57 C 201.62 333.21 196.10 333.49 192.05 331.79 C 188.32 330.19 186.97 325.81 187.06 322.05 C 186.99 315.00 186.87 307.94 187.15 300.90 M 195.50 312.39 C 194.85 316.78 194.93 321.36 195.45 325.77 C 195.80 326.02 196.50 326.51 196.85 326.75 L 197.88 326.05 C 198.83 322.15 198.31 318.04 198.30 314.06 C 198.55 312.38 196.78 310.60 195.50 312.39 Z" />
<path fill="#ffffff" opacity="1.00" d=" M 18.75 292.50 C 21.12 292.48 23.49 292.48 25.86 292.58 C 27.33 298.17 28.48 303.88 30.52 309.30 C 30.49 303.70 30.49 298.10 30.50 292.50 C 32.87 292.50 35.24 292.49 37.61 292.48 C 37.69 305.63 37.53 318.78 37.69 331.92 C 35.20 332.01 32.70 332.01 30.21 331.97 C 28.98 326.33 27.31 320.79 26.33 315.09 C 26.11 314.89 25.66 314.49 25.43 314.28 C 26.25 320.15 25.74 326.09 25.87 332.00 C 23.50 332.00 21.12 332.00 18.75 332.00 C 18.75 318.83 18.75 305.67 18.75 292.50 Z" />
<path fill="#ffffff" opacity="1.00" d=" M 41.21 331.96 C 41.39 318.77 41.05 305.57 41.39 292.38 C 44.12 292.55 46.87 292.55 49.61 292.38 C 49.95 305.57 49.62 318.77 49.78 331.96 C 46.93 332.01 44.07 332.02 41.21 331.96 Z" />
<path fill="#ffffff" opacity="1.00" d=" M 111.75 292.50 C 114.10 292.49 116.45 292.49 118.80 292.53 C 120.33 298.25 121.65 304.04 123.50 309.67 C 123.52 303.95 123.48 298.22 123.50 292.50 C 125.87 292.50 128.23 292.49 130.60 292.48 C 130.69 305.63 130.53 318.78 130.68 331.93 C 128.19 332.01 125.69 332.01 123.20 331.97 C 121.52 326.08 120.93 319.75 118.40 314.19 C 119.44 320.04 118.62 326.07 118.87 332.00 C 116.50 332.00 114.12 332.00 111.75 332.00 C 111.75 318.83 111.75 305.66 111.75 292.50 Z" />
<path fill="#ffffff" opacity="1.00" d=" M 134.23 331.97 C 134.36 318.78 134.08 305.59 134.37 292.40 C 139.23 292.72 144.21 292.04 148.99 293.22 C 152.37 294.10 153.88 297.80 153.78 301.01 C 153.96 308.68 153.90 316.37 153.82 324.05 C 153.86 326.90 153.13 330.51 149.98 331.46 C 144.82 332.53 139.47 331.80 134.23 331.97 M 142.67 299.22 C 142.86 307.99 142.65 316.76 142.79 325.53 C 145.75 325.31 145.32 322.11 145.40 319.97 C 145.28 313.60 145.58 307.23 145.25 300.87 C 145.44 299.32 143.64 299.42 142.67 299.22 Z" />
<path fill="#ffff26" opacity="1.00" d=" M 215.18 292.55 C 218.79 292.47 222.39 292.49 226.00 292.50 C 226.06 301.00 225.88 309.50 226.08 317.99 C 226.65 318.09 227.80 318.30 228.38 318.41 C 228.37 320.60 228.37 322.79 228.38 324.99 C 227.78 324.99 226.59 325.00 226.00 325.01 C 226.00 327.34 226.00 329.67 226.00 332.00 C 223.29 332.00 220.58 332.00 217.87 332.00 C 217.87 329.66 217.87 327.33 217.88 325.00 C 214.66 325.00 211.44 325.00 208.23 324.97 C 208.28 322.16 208.00 319.29 208.70 316.54 C 210.86 308.54 213.12 300.57 215.18 292.55 M 217.59 301.88 C 216.72 307.39 215.36 312.80 214.28 318.27 C 215.44 318.29 216.60 318.32 217.76 318.36 C 217.93 312.87 218.04 307.36 217.59 301.88 Z" />
</svg>
