<?xml version="1.0" encoding="UTF-8" ?>
<!DOCTYPE svg PUBLIC "-//W3C//DTD SVG 1.1//EN" "http://www.w3.org/Graphics/SVG/1.1/DTD/svg11.dtd">
<svg width="960pt" height="540pt" viewBox="0 0 960 540" version="1.1" xmlns="http://www.w3.org/2000/svg">
<path fill="#676565" opacity="1.00" d=" M 441.92 50.60 C 442.16 49.07 441.85 47.05 443.36 46.11 L 443.12 46.86 C 441.08 49.94 444.86 51.02 447.27 50.84 C 447.15 51.93 447.47 52.88 448.22 53.70 C 446.23 53.04 444.16 52.71 442.10 52.49 C 442.27 53.60 442.44 54.71 442.63 55.83 C 446.30 56.23 449.85 57.43 453.55 57.66 C 453.84 56.84 454.42 55.20 454.71 54.38 L 454.84 55.92 C 454.91 57.70 455.03 59.48 455.11 61.27 C 453.85 60.72 452.60 60.16 451.32 59.70 C 448.32 58.60 445.00 57.56 441.90 58.88 L 441.86 59.93 C 441.86 60.74 441.85 62.37 441.85 63.18 C 446.21 63.22 450.54 63.69 454.88 64.10 C 454.94 63.60 455.06 62.60 455.13 62.10 C 455.41 65.17 454.63 68.54 456.29 71.31 C 457.29 73.11 458.47 74.80 459.71 76.44 C 462.35 79.64 463.26 83.80 464.69 87.60 C 465.17 89.94 465.71 92.27 466.40 94.56 C 466.53 95.01 466.77 95.92 466.89 96.38 L 466.37 95.85 C 466.10 95.56 465.55 94.99 465.27 94.70 C 462.51 87.01 459.46 79.36 455.71 72.10 C 450.96 70.29 445.41 71.04 440.59 72.30 C 440.46 72.01 440.20 71.43 440.07 71.14 C 444.80 70.69 449.55 70.76 454.29 70.83 L 453.97 68.92 C 453.89 67.71 453.83 66.51 453.80 65.30 L 453.36 65.26 C 449.57 64.50 445.73 63.97 441.86 63.95 C 441.15 63.97 439.72 64.01 439.01 64.02 C 439.63 63.85 440.86 63.51 441.48 63.34 C 441.71 59.10 441.77 54.84 441.92 50.60 Z" />
<path fill="#da353c" opacity="1.00" d=" M 447.27 50.84 C 444.86 51.02 441.08 49.94 443.12 46.86 C 446.77 47.89 450.47 48.74 454.06 49.96 C 454.23 50.61 454.57 51.91 454.74 52.56 C 452.70 52.30 450.71 51.80 448.77 51.16 C 448.39 51.08 447.64 50.92 447.27 50.84 Z" />
<path fill="#edeae4" opacity="1.00" d=" M 508.53 47.14 C 515.16 48.39 521.32 51.47 528.08 52.13 C 533.84 55.10 540.25 56.30 546.38 58.32 C 546.62 58.70 547.10 59.44 547.35 59.81 C 547.54 60.14 547.93 60.78 548.13 61.11 C 545.89 65.40 543.15 69.47 541.74 74.14 C 533.69 71.68 526.09 67.76 517.77 66.22 C 514.51 65.56 511.92 63.35 508.91 62.10 C 504.96 60.47 500.91 59.12 496.91 57.62 C 497.03 57.26 497.26 56.55 497.38 56.19 C 498.14 56.45 499.65 56.97 500.40 57.23 C 499.90 56.70 498.90 55.63 498.40 55.10 C 500.97 54.01 501.66 50.34 504.72 50.25 C 505.98 49.21 507.28 48.21 508.53 47.14 M 508.26 50.33 C 506.57 51.63 504.96 53.04 503.57 54.66 C 504.68 54.69 505.81 54.71 506.93 54.74 C 508.13 53.65 509.26 52.50 510.31 51.25 C 509.80 51.02 508.77 50.56 508.26 50.33 M 512.22 52.41 C 511.43 53.21 510.63 54.00 509.85 54.79 C 513.10 55.65 517.40 58.87 519.96 55.18 C 517.42 54.15 514.83 53.25 512.22 52.41 M 518.28 56.94 C 522.82 59.98 528.56 60.61 533.36 63.29 C 533.59 61.20 531.49 60.50 530.26 59.31 C 531.07 57.31 526.13 55.87 526.02 58.26 C 523.44 57.76 520.87 57.31 518.28 56.94 M 532.24 59.10 C 532.22 62.40 535.32 57.76 532.24 59.10 M 537.06 66.16 C 539.02 65.08 539.97 63.02 540.93 61.10 C 538.30 60.67 536.91 63.96 537.06 66.16 M 539.12 71.09 C 539.39 74.34 542.15 69.52 539.12 71.09 Z" />
<path fill="#b6b4b0" opacity="1.00" d=" M 508.26 50.33 C 508.77 50.56 509.80 51.02 510.31 51.25 C 509.26 52.50 508.13 53.65 506.93 54.74 C 505.81 54.71 504.68 54.69 503.57 54.66 C 504.96 53.04 506.57 51.63 508.26 50.33 Z" />
<path fill="#d25e5e" opacity="1.00" d=" M 447.27 50.84 C 447.64 50.92 448.39 51.08 448.77 51.16 C 448.77 51.84 448.77 53.20 448.77 53.87 L 448.22 53.70 C 447.47 52.88 447.15 51.93 447.27 50.84 Z" />
<path fill="#826660" opacity="1.00" d=" M 448.77 51.16 C 450.71 51.80 452.70 52.30 454.74 52.56 C 454.51 53.11 454.05 54.22 453.82 54.77 C 453.49 54.96 452.83 55.35 452.50 55.54 C 451.26 54.97 450.01 54.41 448.77 53.87 C 448.77 53.20 448.77 51.84 448.77 51.16 Z" />
<path fill="#010100" opacity="0.51" d=" M 454.84 55.92 C 454.82 54.52 454.89 53.09 455.45 51.79 C 455.83 58.29 456.79 64.79 456.29 71.31 C 454.63 68.54 455.41 65.17 455.13 62.10 L 455.11 61.27 C 455.03 59.48 454.91 57.70 454.84 55.92 Z" />
<path fill="#c4bdba" opacity="1.00" d=" M 512.22 52.41 C 514.83 53.25 517.42 54.15 519.96 55.18 C 517.40 58.87 513.10 55.65 509.85 54.79 C 510.63 54.00 511.43 53.21 512.22 52.41 Z" />
<path fill="#aca198" opacity="1.00" d=" M 442.10 52.49 C 444.16 52.71 446.23 53.04 448.22 53.70 L 448.77 53.87 C 450.01 54.41 451.26 54.97 452.50 55.54 C 452.83 55.35 453.49 54.96 453.82 54.77 L 454.71 54.38 C 454.42 55.20 453.84 56.84 453.55 57.66 C 449.85 57.43 446.30 56.23 442.63 55.83 C 442.44 54.71 442.27 53.60 442.10 52.49 Z" />
<path fill="#99918a" opacity="1.00" d=" M 495.76 58.67 C 496.23 57.20 497.12 55.97 498.40 55.10 C 498.90 55.63 499.90 56.70 500.40 57.23 C 499.65 56.97 498.14 56.45 497.38 56.19 C 497.26 56.55 497.03 57.26 496.91 57.62 C 500.91 59.12 504.96 60.47 508.91 62.10 C 511.92 63.35 514.51 65.56 517.77 66.22 C 526.09 67.76 533.69 71.68 541.74 74.14 C 541.57 74.67 541.21 75.73 541.04 76.26 C 533.52 73.92 526.60 69.33 518.64 68.71 C 521.25 70.46 524.21 71.53 527.13 72.63 C 532.24 74.51 537.20 76.89 542.62 77.75 C 542.73 78.06 542.96 78.68 543.08 78.99 C 538.83 79.59 535.12 77.13 531.28 75.77 C 526.71 73.80 521.85 72.73 516.99 71.77 C 512.33 70.82 508.97 67.16 504.73 65.29 C 501.57 63.60 497.75 63.07 495.17 60.41 C 501.42 61.98 507.09 65.19 513.32 66.85 C 508.47 62.40 501.45 61.72 495.76 58.67 Z" />
<path fill="#c0bdb9" opacity="1.00" d=" M 518.28 56.94 C 520.87 57.31 523.44 57.76 526.02 58.26 C 527.42 58.61 528.85 58.93 530.26 59.31 C 531.49 60.50 533.59 61.20 533.36 63.29 C 528.56 60.61 522.82 59.98 518.28 56.94 Z" />
<path fill="#82a3c8" opacity="1.00" d=" M 526.02 58.26 C 526.13 55.87 531.07 57.31 530.26 59.31 C 528.85 58.93 527.42 58.61 526.02 58.26 Z" />
<path fill="#b86f6b" opacity="1.00" d=" M 441.90 58.88 C 445.00 57.56 448.32 58.60 451.32 59.70 C 448.16 59.58 445.01 59.74 441.86 59.93 L 441.90 58.88 Z" />
<path fill="#d4333b" opacity="1.00" d=" M 441.86 59.93 C 445.01 59.74 448.16 59.58 451.32 59.70 C 452.60 60.16 453.85 60.72 455.11 61.27 L 455.13 62.10 C 455.06 62.60 454.94 63.60 454.88 64.10 C 450.54 63.69 446.21 63.22 441.85 63.18 C 441.85 62.37 441.86 60.74 441.86 59.93 Z" />
<path fill="#ebe6e1" opacity="1.00" d=" M 476.50 74.54 C 482.83 69.15 489.69 64.36 495.76 58.67 C 501.45 61.72 508.47 62.40 513.32 66.85 C 507.09 65.19 501.42 61.98 495.17 60.41 C 497.75 63.07 501.57 63.60 504.73 65.29 C 508.97 67.16 512.33 70.82 516.99 71.77 C 521.85 72.73 526.71 73.80 531.28 75.77 C 535.12 77.13 538.83 79.59 543.08 78.99 C 543.21 82.99 539.25 85.25 536.59 87.57 C 528.95 93.46 518.85 93.06 509.72 93.19 C 505.92 90.89 501.87 89.05 497.91 87.05 C 500.79 84.61 503.22 81.70 504.99 78.37 C 503.16 77.43 501.34 76.46 499.47 75.61 C 496.39 74.21 493.25 72.95 490.09 71.75 C 487.84 73.69 485.51 75.53 483.37 77.59 C 483.08 77.92 482.49 78.57 482.20 78.90 C 480.49 77.99 478.71 77.23 476.89 76.59 L 476.10 76.31 C 476.20 75.87 476.40 74.98 476.50 74.54 M 491.65 64.77 C 492.74 67.65 496.73 67.82 499.24 69.11 C 498.25 65.98 494.21 65.98 491.65 64.77 M 487.19 68.34 C 489.00 68.53 490.52 69.59 492.10 70.42 C 492.59 71.46 493.76 71.64 494.79 71.70 C 495.97 72.47 497.38 72.65 498.74 72.86 C 499.02 72.56 499.56 71.97 499.84 71.67 C 498.22 71.20 496.65 70.64 495.11 69.98 L 495.26 69.23 C 493.72 68.95 492.20 68.66 490.66 68.45 C 490.43 68.11 489.95 67.44 489.72 67.11 C 488.87 67.52 488.03 67.93 487.19 68.34 Z" />
<path fill="#c1bfbb" opacity="1.00" d=" M 532.24 59.10 C 535.32 57.76 532.22 62.40 532.24 59.10 Z" />
<path fill="#d6d3ca" opacity="1.00" d=" M 546.67 58.58 C 549.45 58.52 549.73 61.96 552.09 62.84 C 554.55 64.97 558.08 64.79 560.62 66.77 C 558.52 73.22 555.99 79.52 554.03 86.00 C 551.98 86.80 552.00 89.20 552.03 91.04 C 551.20 94.39 549.89 97.61 548.77 100.87 C 547.06 102.04 546.32 104.05 546.99 106.04 C 546.49 107.42 546.00 108.79 545.51 110.17 C 538.07 106.90 531.14 102.63 523.90 98.98 C 522.12 97.88 520.13 98.85 518.33 99.25 C 517.00 98.39 515.72 97.46 514.45 96.53 C 512.89 95.38 511.33 94.25 509.72 93.19 C 518.85 93.06 528.95 93.46 536.59 87.57 C 539.25 85.25 543.21 82.99 543.08 78.99 C 542.96 78.68 542.73 78.06 542.62 77.75 C 537.20 76.89 532.24 74.51 527.13 72.63 C 524.21 71.53 521.25 70.46 518.64 68.71 C 526.60 69.33 533.52 73.92 541.04 76.26 C 541.21 75.73 541.57 74.67 541.74 74.14 C 543.15 69.47 545.89 65.40 548.13 61.11 C 547.93 60.78 547.54 60.14 547.35 59.81 L 546.67 58.58 Z" />
<path fill="#b1aeaa" opacity="1.00" d=" M 537.06 66.16 C 536.91 63.96 538.30 60.67 540.93 61.10 C 539.97 63.02 539.02 65.08 537.06 66.16 Z" />
<path fill="#b19d82" opacity="1.00" d=" M 434.49 75.40 C 437.67 72.19 435.08 66.70 439.01 64.02 C 439.72 64.01 441.15 63.97 441.86 63.95 C 441.84 65.47 441.83 66.98 441.82 68.50 C 441.39 68.53 440.54 68.59 440.11 68.62 C 438.65 71.10 439.42 73.94 439.89 76.58 C 438.08 79.17 437.21 82.22 436.37 85.22 C 436.83 86.33 437.30 87.44 437.76 88.55 C 436.27 89.62 434.79 90.69 433.31 91.77 C 432.87 89.97 432.41 88.16 432.08 86.33 C 434.04 82.98 434.01 79.13 434.49 75.40 Z" />
<path fill="#92989b" opacity="1.00" d=" M 441.86 63.95 C 445.73 63.97 449.57 64.50 453.36 65.26 C 453.00 65.51 452.28 66.02 451.92 66.27 C 449.98 65.97 447.98 65.72 446.08 66.31 C 445.52 65.92 444.42 65.14 443.86 64.76 C 443.84 65.68 443.80 67.51 443.77 68.43 C 443.29 68.45 442.31 68.48 441.82 68.50 C 441.83 66.98 441.84 65.47 441.86 63.95 Z" />
<path fill="#778893" opacity="1.00" d=" M 443.86 64.76 C 444.42 65.14 445.52 65.92 446.08 66.31 C 447.70 67.82 450.35 67.97 451.92 66.27 C 452.28 66.02 453.00 65.51 453.36 65.26 L 453.80 65.30 C 453.83 66.51 453.89 67.71 453.97 68.92 C 450.59 68.44 447.17 68.37 443.77 68.43 C 443.80 67.51 443.84 65.68 443.86 64.76 Z" />
<path fill="#b1b0ae" opacity="1.00" d=" M 491.65 64.77 C 494.21 65.98 498.25 65.98 499.24 69.11 C 496.73 67.82 492.74 67.65 491.65 64.77 Z" />
<path fill="#d7cc70" opacity="1.00" d=" M 446.08 66.31 C 447.98 65.72 449.98 65.97 451.92 66.27 C 450.35 67.97 447.70 67.82 446.08 66.31 Z" />
<path fill="#3b3838" opacity="1.00" d=" M 487.19 68.34 C 488.03 67.93 488.87 67.52 489.72 67.11 C 489.95 67.44 490.43 68.11 490.66 68.45 C 491.02 68.94 491.74 69.93 492.10 70.42 C 490.52 69.59 489.00 68.53 487.19 68.34 Z" />
<path fill="#010100" opacity="1.00" d=" M 560.62 66.77 C 560.70 72.82 557.74 78.39 555.81 83.99 C 552.67 93.99 549.27 103.91 545.65 113.75 C 544.66 116.73 542.48 119.23 542.10 122.41 C 538.70 123.19 535.47 120.79 533.07 118.67 C 535.48 119.85 537.91 121.01 540.40 122.04 C 542.01 118.87 543.64 115.70 544.74 112.32 C 544.93 111.78 545.32 110.71 545.51 110.17 C 546.00 108.79 546.49 107.42 546.99 106.04 C 548.62 104.81 548.96 102.79 548.77 100.87 C 549.89 97.61 551.20 94.39 552.03 91.04 C 554.01 90.19 553.95 87.81 554.03 86.00 C 555.99 79.52 558.52 73.22 560.62 66.77 Z" />
<path fill="#dbd7ce" opacity="1.00" d=" M 440.11 68.62 C 440.54 68.59 441.39 68.53 441.82 68.50 C 442.31 68.48 443.29 68.45 443.77 68.43 C 447.17 68.37 450.59 68.44 453.97 68.92 L 454.29 70.83 C 449.55 70.76 444.80 70.69 440.07 71.14 C 440.20 71.43 440.46 72.01 440.59 72.30 C 441.47 74.21 442.30 76.16 443.01 78.16 L 443.21 78.78 C 442.18 78.52 441.14 78.26 440.12 78.01 L 439.89 76.58 C 439.42 73.94 438.65 71.10 440.11 68.62 Z" />
<path fill="#ef7274" opacity="1.00" d=" M 490.66 68.45 C 492.20 68.66 493.72 68.95 495.26 69.23 L 495.11 69.98 C 495.03 70.41 494.87 71.27 494.79 71.70 C 493.76 71.64 492.59 71.46 492.10 70.42 C 491.74 69.93 491.02 68.94 490.66 68.45 Z" />
<path fill="#676565" opacity="1.00" d=" M 495.11 69.98 C 496.65 70.64 498.22 71.20 499.84 71.67 C 499.56 71.97 499.02 72.56 498.74 72.86 C 497.38 72.65 495.97 72.47 494.79 71.70 C 494.87 71.27 495.03 70.41 495.11 69.98 Z" />
<path fill="#010100" opacity="1.00" d=" M 440.59 72.30 C 445.41 71.04 450.96 70.29 455.71 72.10 C 459.46 79.36 462.51 87.01 465.27 94.70 C 460.88 96.20 456.67 98.17 452.35 99.84 C 451.63 98.34 450.94 96.84 450.26 95.33 C 450.99 95.05 452.44 94.50 453.17 94.22 C 454.67 93.69 456.15 93.11 457.64 92.52 C 458.45 92.20 459.27 91.90 460.10 91.60 L 461.60 91.10 C 460.90 88.68 459.80 86.38 457.72 84.86 C 457.90 81.76 457.29 78.73 455.97 75.93 C 453.43 76.03 450.91 76.29 448.44 76.88 C 446.62 77.30 444.81 77.73 443.01 78.16 C 442.30 76.16 441.47 74.21 440.59 72.30 Z" />
<path fill="#6b6967" opacity="1.00" d=" M 539.12 71.09 C 542.15 69.52 539.39 74.34 539.12 71.09 Z" />
<path fill="#a3a19c" opacity="1.00" d=" M 483.37 77.59 C 485.51 75.53 487.84 73.69 490.09 71.75 C 493.25 72.95 496.39 74.21 499.47 75.61 C 497.49 78.32 495.21 80.78 492.73 83.03 C 489.49 81.43 486.06 80.08 483.37 77.59 Z" />
<path fill="#dbd7ce" opacity="1.00" d=" M 499.47 75.61 C 501.34 76.46 503.16 77.43 504.99 78.37 C 503.22 81.70 500.79 84.61 497.91 87.05 L 497.22 86.70 C 492.24 84.05 487.12 81.67 482.20 78.90 C 482.49 78.57 483.08 77.92 483.37 77.59 C 486.06 80.08 489.49 81.43 492.73 83.03 C 495.21 80.78 497.49 78.32 499.47 75.61 Z" />
<path fill="#665c6a" opacity="1.00" d=" M 448.44 76.88 C 450.91 76.29 453.43 76.03 455.97 75.93 C 457.29 78.73 457.90 81.76 457.72 84.86 C 459.80 86.38 460.90 88.68 461.60 91.10 L 460.10 91.60 C 458.24 91.86 456.61 91.02 455.03 90.20 C 454.53 86.86 454.65 83.45 454.05 80.13 C 452.32 78.83 450.33 77.92 448.44 76.88 Z" />
<path fill="#ccc3b8" opacity="1.00" d=" M 436.37 85.22 C 437.21 82.22 438.08 79.17 439.89 76.58 L 440.12 78.01 C 440.11 78.61 440.09 79.80 440.08 80.40 L 439.03 81.59 C 439.82 85.79 441.51 89.74 442.59 93.86 C 441.58 95.40 440.62 96.96 439.72 98.55 C 441.02 98.50 442.35 98.44 443.66 98.38 C 443.01 99.26 442.37 100.14 441.73 101.02 C 443.21 102.13 444.70 103.25 446.18 104.37 C 444.52 104.81 442.89 105.31 441.26 105.81 C 441.16 105.61 440.97 105.22 440.87 105.03 C 440.26 103.98 439.60 102.96 438.96 101.93 C 439.43 101.86 440.35 101.72 440.82 101.65 C 440.26 101.46 439.16 101.09 438.60 100.90 C 438.64 97.23 440.11 93.40 438.30 89.93 L 437.76 88.55 C 437.30 87.44 436.83 86.33 436.37 85.22 Z" />
<path fill="#3b3838" opacity="1.00" d=" M 443.01 78.16 C 444.81 77.73 446.62 77.30 448.44 76.88 C 450.33 77.92 452.32 78.83 454.05 80.13 C 454.65 83.45 454.53 86.86 455.03 90.20 C 456.61 91.02 458.24 91.86 460.10 91.60 C 459.27 91.90 458.45 92.20 457.64 92.52 C 455.91 91.63 454.21 90.71 452.48 89.84 C 451.98 91.16 451.50 92.48 451.02 93.79 C 451.56 93.90 452.63 94.11 453.17 94.22 C 452.44 94.50 450.99 95.05 450.26 95.33 C 447.92 90.00 445.73 84.60 443.37 79.28 C 443.33 79.16 443.25 78.91 443.21 78.78 L 443.01 78.16 M 445.24 79.33 C 445.76 79.86 445.76 79.86 445.24 79.33 Z" />
<path fill="#7b7a7a" opacity="1.00" d=" M 476.89 76.59 C 478.71 77.23 480.49 77.99 482.20 78.90 C 487.12 81.67 492.24 84.05 497.22 86.70 C 494.45 88.93 491.34 90.68 488.61 92.95 C 486.70 91.94 484.82 90.88 482.97 89.78 C 480.22 85.92 478.39 81.15 476.89 76.59 Z" />
<path fill="#716d6e" opacity="1.00" d=" M 440.12 78.01 C 441.14 78.26 442.18 78.52 443.21 78.78 C 443.25 78.91 443.33 79.16 443.37 79.28 C 443.96 84.46 447.19 88.82 448.61 93.77 C 447.74 93.62 446.00 93.32 445.13 93.17 C 443.45 88.91 441.37 84.80 440.08 80.40 C 440.09 79.80 440.11 78.61 440.12 78.01 Z" />
<path fill="#936e7b" opacity="1.00" d=" M 445.24 79.33 C 445.76 79.86 445.76 79.86 445.24 79.33 Z" />
<path fill="#eeedea" opacity="1.00" d=" M 448.61 93.77 C 447.19 88.82 443.96 84.46 443.37 79.28 C 445.73 84.60 447.92 90.00 450.26 95.33 C 450.94 96.84 451.63 98.34 452.35 99.84 C 456.67 98.17 460.88 96.20 465.27 94.70 C 465.55 94.99 466.10 95.56 466.37 95.85 C 465.57 96.18 463.96 96.86 463.16 97.20 C 459.18 98.91 455.25 100.74 451.31 102.54 C 450.35 100.84 449.50 99.05 448.30 97.50 C 446.65 95.92 443.93 95.42 443.32 92.92 L 445.13 93.17 C 446.00 93.32 447.74 93.62 448.61 93.77 Z" />
<path fill="#e3e0db" opacity="1.00" d=" M 439.03 81.59 L 440.08 80.40 C 441.37 84.80 443.45 88.91 445.13 93.17 L 443.32 92.92 C 443.93 95.42 446.65 95.92 448.30 97.50 C 449.50 99.05 450.35 100.84 451.31 102.54 C 450.43 102.96 449.54 103.37 448.65 103.76 C 448.03 103.91 446.80 104.22 446.18 104.37 C 444.70 103.25 443.21 102.13 441.73 101.02 C 442.37 100.14 443.01 99.26 443.66 98.38 C 442.35 98.44 441.02 98.50 439.72 98.55 C 440.62 96.96 441.58 95.40 442.59 93.86 C 441.51 89.74 439.82 85.79 439.03 81.59 Z" />
<path fill="#676565" opacity="1.00" d=" M 431.21 86.35 L 432.08 86.33 C 432.41 88.16 432.87 89.97 433.31 91.77 C 434.79 90.69 436.27 89.62 437.76 88.55 L 438.30 89.93 C 437.96 92.35 436.35 94.24 434.98 96.16 C 435.32 97.36 435.67 98.57 436.08 99.76 L 435.35 99.72 L 434.37 99.63 C 434.52 94.90 431.40 90.99 431.21 86.35 Z" />
<path fill="#76726e" opacity="0.93" d=" M 552.03 91.04 C 552.00 89.20 551.98 86.80 554.03 86.00 C 553.95 87.81 554.01 90.19 552.03 91.04 Z" />
<path fill="#716d6e" opacity="1.00" d=" M 488.61 92.95 C 491.34 90.68 494.45 88.93 497.22 86.70 L 497.91 87.05 C 501.87 89.05 505.92 90.89 509.72 93.19 C 511.33 94.25 512.89 95.38 514.45 96.53 C 514.91 97.93 515.38 99.34 515.85 100.74 C 515.36 101.08 514.38 101.76 513.88 102.10 C 513.35 102.47 512.27 103.21 511.74 103.59 C 507.31 100.89 502.72 98.49 498.26 95.86 C 496.24 94.66 494.17 93.26 491.72 93.39 C 490.67 93.32 489.63 93.17 488.61 92.95 Z" />
<path fill="#010100" opacity="0.51" d=" M 464.69 87.60 C 467.32 88.96 466.21 92.21 466.40 94.56 C 465.71 92.27 465.17 89.94 464.69 87.60 Z" />
<path fill="#a89f98" opacity="1.00" d=" M 438.30 89.93 C 440.11 93.40 438.64 97.23 438.60 100.90 C 439.16 101.09 440.26 101.46 440.82 101.65 C 440.35 101.72 439.43 101.86 438.96 101.93 C 439.60 102.96 440.26 103.98 440.87 105.03 C 439.72 104.75 438.57 104.47 437.43 104.20 C 437.28 103.63 436.97 102.48 436.82 101.91 C 436.64 101.37 436.27 100.30 436.08 99.76 C 435.67 98.57 435.32 97.36 434.98 96.16 C 436.35 94.24 437.96 92.35 438.30 89.93 Z" />
<path fill="#506578" opacity="1.00" d=" M 452.48 89.84 C 454.21 90.71 455.91 91.63 457.64 92.52 C 456.15 93.11 454.67 93.69 453.17 94.22 C 452.63 94.11 451.56 93.90 451.02 93.79 C 451.50 92.48 451.98 91.16 452.48 89.84 Z" />
<path fill="#3a0000" opacity="0.23" d=" M 480.35 93.54 C 480.59 91.97 481.96 90.90 482.97 89.78 C 484.82 90.88 486.70 91.94 488.61 92.95 C 489.63 93.17 490.67 93.32 491.72 93.39 L 491.35 94.43 C 491.13 94.93 490.68 95.94 490.45 96.44 C 492.50 102.91 495.48 109.07 497.19 115.66 C 497.95 118.61 498.76 121.64 500.77 124.03 C 496.11 124.25 491.47 124.91 486.79 124.85 C 488.12 124.55 489.42 124.18 490.75 123.83 C 487.12 113.78 483.56 103.72 480.35 93.54 Z" />
<path fill="#540000" opacity="0.33" d=" M 477.11 97.43 C 478.19 96.13 479.26 94.83 480.35 93.54 C 483.56 103.72 487.12 113.78 490.75 123.83 C 489.42 124.18 488.12 124.55 486.79 124.85 C 486.04 124.86 484.52 124.89 483.76 124.90 C 484.21 124.61 485.09 124.04 485.54 123.76 C 483.71 115.41 478.91 107.76 479.03 99.04 C 478.63 98.70 477.83 98.02 477.43 97.67 L 477.11 97.43 Z" />
<path fill="#0f0000" opacity="0.06" d=" M 491.72 93.39 C 494.17 93.26 496.24 94.66 498.26 95.86 C 498.29 97.72 498.67 99.63 500.58 100.44 C 503.76 102.15 503.91 106.02 504.89 109.08 C 506.11 113.75 508.73 117.98 509.50 122.77 C 508.86 124.74 505.82 123.84 504.18 124.04 C 501.95 116.46 498.73 109.22 496.66 101.59 C 496.02 98.49 493.48 96.51 491.35 94.43 L 491.72 93.39 Z" />
<path fill="#631c1a" opacity="0.57" d=" M 469.24 97.06 C 468.87 95.87 470.52 94.60 471.59 95.21 L 471.79 95.72 C 471.75 96.11 471.65 96.90 471.60 97.29 L 471.14 97.67 C 470.67 97.52 469.72 97.21 469.24 97.06 Z" />
<path fill="#200000" opacity="0.13" d=" M 490.45 96.44 C 490.68 95.94 491.13 94.93 491.35 94.43 C 493.48 96.51 496.02 98.49 496.66 101.59 C 498.73 109.22 501.95 116.46 504.18 124.04 C 503.33 124.04 501.62 124.03 500.77 124.03 C 498.76 121.64 497.95 118.61 497.19 115.66 C 495.48 109.07 492.50 102.91 490.45 96.44 Z" />
<path fill="#584e48" opacity="0.91" d=" M 471.60 97.29 C 471.65 96.90 471.75 96.11 471.79 95.72 C 473.57 96.22 475.58 96.29 477.11 97.43 L 477.43 97.67 C 476.38 98.50 475.34 99.33 474.28 100.14 C 472.75 99.89 471.23 99.64 469.70 99.39 C 469.13 98.95 468.00 98.07 467.43 97.63 C 467.88 97.49 468.79 97.20 469.24 97.06 C 469.72 97.21 470.67 97.52 471.14 97.67 L 471.47 97.81 L 471.68 97.62 L 471.60 97.29 Z" />
<path fill="#aaa69d" opacity="1.00" d=" M 451.31 102.54 C 455.25 100.74 459.18 98.91 463.16 97.20 C 463.81 97.47 465.11 98.01 465.77 98.27 C 466.01 98.50 466.49 98.96 466.73 99.19 C 465.39 100.07 464.06 100.95 462.76 101.87 C 462.84 101.21 462.99 99.88 463.07 99.22 C 462.76 99.37 462.14 99.66 461.84 99.80 C 458.97 101.31 455.90 102.46 453.27 104.39 L 452.81 104.67 C 452.85 104.30 452.92 103.56 452.95 103.19 C 451.51 103.38 450.07 103.55 448.65 103.76 C 449.54 103.37 450.43 102.96 451.31 102.54 Z" />
<path fill="#a98546" opacity="1.00" d=" M 471.60 97.29 L 471.68 97.62 L 471.47 97.81 L 471.14 97.67 L 471.60 97.29 Z" />
<path fill="#676565" opacity="1.00" d=" M 514.45 96.53 C 515.72 97.46 517.00 98.39 518.33 99.25 C 522.66 101.83 527.26 103.91 531.67 106.35 C 530.81 108.27 530.06 110.24 529.51 112.27 C 528.35 110.10 526.14 108.96 524.11 107.77 C 523.59 108.01 522.54 108.51 522.01 108.76 C 520.99 108.14 519.97 107.52 518.96 106.90 C 518.39 104.35 515.86 103.36 513.88 102.10 C 514.38 101.76 515.36 101.08 515.85 100.74 C 515.38 99.34 514.91 97.93 514.45 96.53 Z" />
<path fill="#7e7875" opacity="1.00" d=" M 465.77 98.27 C 466.18 98.11 467.01 97.79 467.43 97.63 C 468.00 98.07 469.13 98.95 469.70 99.39 C 471.23 99.64 472.75 99.89 474.28 100.14 C 470.39 103.02 465.80 104.80 461.25 106.36 C 458.44 107.41 455.85 105.14 453.27 104.39 C 455.90 102.46 458.97 101.31 461.84 99.80 C 461.87 100.24 461.95 101.13 461.99 101.58 C 459.83 102.93 462.97 104.29 462.76 101.87 C 464.06 100.95 465.39 100.07 466.73 99.19 C 466.49 98.96 466.01 98.50 465.77 98.27 Z" />
<path fill="#e7ebee" opacity="1.00" d=" M 474.28 100.14 C 475.34 99.33 476.38 98.50 477.43 97.67 C 477.42 98.53 477.38 100.24 477.37 101.09 C 474.35 103.26 471.24 105.27 468.11 107.26 C 465.13 108.92 464.24 112.63 461.20 114.27 C 461.71 115.73 462.24 117.20 462.79 118.65 C 462.84 118.78 462.94 119.03 462.99 119.16 C 460.35 121.48 457.67 123.76 455.14 126.21 C 458.67 126.26 462.22 126.14 465.74 125.77 C 466.10 127.02 466.49 128.27 466.82 129.54 C 463.93 132.36 461.27 135.42 458.35 138.21 C 456.07 136.96 453.79 135.74 451.50 134.54 C 447.39 132.32 443.07 130.50 439.03 128.17 C 443.42 129.77 447.60 131.88 451.82 133.87 C 450.05 128.01 447.55 122.41 445.57 116.63 C 446.50 115.08 447.02 112.61 449.20 112.46 C 452.52 112.15 455.83 112.91 459.15 113.09 C 457.00 111.45 451.82 111.36 453.41 107.54 C 453.18 106.89 452.98 106.23 452.78 105.57 C 452.79 105.35 452.80 104.90 452.81 104.67 L 453.27 104.39 C 455.85 105.14 458.44 107.41 461.25 106.36 C 465.80 104.80 470.39 103.02 474.28 100.14 M 460.09 108.13 C 458.69 108.78 458.64 109.44 459.95 110.09 C 461.33 109.44 461.38 108.78 460.09 108.13 Z" />
<path fill="#690000" opacity="0.42" d=" M 477.43 97.67 C 477.83 98.02 478.63 98.70 479.03 99.04 C 478.91 107.76 483.71 115.41 485.54 123.76 C 485.09 124.04 484.21 124.61 483.76 124.90 C 481.84 125.26 479.88 125.25 477.94 125.36 C 473.80 120.08 474.92 112.60 470.55 107.43 C 469.94 107.38 468.72 107.30 468.11 107.26 C 471.24 105.27 474.35 103.26 477.37 101.09 C 477.38 100.24 477.42 98.53 477.43 97.67 Z" />
<path fill="#e0deda" opacity="1.00" d=" M 518.33 99.25 C 520.13 98.85 522.12 97.88 523.90 98.98 C 531.14 102.63 538.07 106.90 545.51 110.17 C 545.32 110.71 544.93 111.78 544.74 112.32 C 539.91 111.54 536.01 108.36 531.67 106.35 C 527.26 103.91 522.66 101.83 518.33 99.25 Z" />
<path fill="#df281c" opacity="1.00" d=" M 461.84 99.80 C 462.14 99.66 462.76 99.37 463.07 99.22 C 462.99 99.88 462.84 101.21 462.76 101.87 L 461.99 101.58 C 461.95 101.13 461.87 100.24 461.84 99.80 Z" />
<path fill="#171512" opacity="0.51" d=" M 435.35 99.72 L 436.08 99.76 C 436.27 100.30 436.64 101.37 436.82 101.91 C 435.17 102.03 434.68 101.29 435.35 99.72 Z" />
<path fill="#7a7772" opacity="0.94" d=" M 546.99 106.04 C 546.32 104.05 547.06 102.04 548.77 100.87 C 548.96 102.79 548.62 104.81 546.99 106.04 Z" />
<path fill="#582b29" opacity="1.00" d=" M 462.76 101.87 C 462.97 104.29 459.83 102.93 461.99 101.58 L 462.76 101.87 Z" />
<path fill="#3b3838" opacity="1.00" d=" M 511.74 103.59 C 512.27 103.21 513.35 102.47 513.88 102.10 C 515.86 103.36 518.39 104.35 518.96 106.90 C 519.97 107.52 520.99 108.14 522.01 108.76 C 522.54 108.51 523.59 108.01 524.11 107.77 C 526.14 108.96 528.35 110.10 529.51 112.27 C 529.68 112.67 530.03 113.45 530.21 113.85 C 523.84 110.85 517.83 107.10 511.74 103.59 Z" />
<path fill="#d9d7d1" opacity="1.00" d=" M 448.65 103.76 C 450.07 103.55 451.51 103.38 452.95 103.19 C 452.92 103.56 452.85 104.30 452.81 104.67 C 452.80 104.90 452.79 105.35 452.78 105.57 C 452.98 106.23 453.18 106.89 453.41 107.54 C 451.82 111.36 457.00 111.45 459.15 113.09 C 455.83 112.91 452.52 112.15 449.20 112.46 C 447.02 112.61 446.50 115.08 445.57 116.63 L 445.28 117.16 C 444.13 113.31 442.77 109.53 441.26 105.81 C 442.89 105.31 444.52 104.81 446.18 104.37 C 446.80 104.22 448.03 103.91 448.65 103.76 M 444.30 108.08 C 444.60 111.37 447.25 106.47 444.30 108.08 Z" />
<path fill="#777777" opacity="1.00" d=" M 437.43 104.20 C 438.57 104.47 439.72 104.75 440.87 105.03 C 440.97 105.22 441.16 105.61 441.26 105.81 C 442.77 109.53 444.13 113.31 445.28 117.16 C 444.65 117.91 444.02 118.65 443.37 119.37 C 442.79 118.34 442.19 117.33 441.58 116.33 C 441.64 116.09 441.75 115.61 441.81 115.37 C 440.41 111.62 438.47 108.08 437.43 104.20 Z" />
<path fill="#5d5b5b" opacity="1.00" d=" M 529.51 112.27 C 530.06 110.24 530.81 108.27 531.67 106.35 C 536.01 108.36 539.91 111.54 544.74 112.32 C 543.64 115.70 542.01 118.87 540.40 122.04 C 537.91 121.01 535.48 119.85 533.07 118.67 C 532.77 118.52 532.17 118.22 531.87 118.07 C 531.32 116.66 530.79 115.24 530.21 113.85 C 530.03 113.45 529.68 112.67 529.51 112.27 Z" />
<path fill="#a5a3a1" opacity="1.00" d=" M 444.30 108.08 C 447.25 106.47 444.60 111.37 444.30 108.08 Z" />
<path fill="#c6c3be" opacity="1.00" d=" M 460.09 108.13 C 461.38 108.78 461.33 109.44 459.95 110.09 C 458.64 109.44 458.69 108.78 460.09 108.13 Z" />
<path fill="#010100" opacity="0.51" d=" M 461.20 114.27 C 464.24 112.63 465.13 108.92 468.11 107.26 C 468.72 107.30 469.94 107.38 470.55 107.43 C 468.12 111.28 465.56 115.04 462.79 118.65 C 462.24 117.20 461.71 115.73 461.20 114.27 Z" />
<path fill="#7d0000" opacity="0.49" d=" M 470.55 107.43 C 474.92 112.60 473.80 120.08 477.94 125.36 C 474.19 125.40 470.46 125.69 466.71 125.79 L 465.74 125.77 C 464.78 123.58 463.86 121.38 462.99 119.16 C 462.94 119.03 462.84 118.78 462.79 118.65 C 465.56 115.04 468.12 111.28 470.55 107.43 Z" />
<path fill="#aaa9a3" opacity="1.00" d=" M 436.60 119.21 C 438.25 118.22 439.91 117.27 441.58 116.33 C 442.19 117.33 442.79 118.34 443.37 119.37 C 443.62 120.29 443.86 121.20 444.11 122.12 C 441.62 121.11 439.10 120.19 436.60 119.21 Z" />
<path fill="#7d8284" opacity="1.00" d=" M 445.28 117.16 L 445.57 116.63 C 447.55 122.41 450.05 128.01 451.82 133.87 C 447.60 131.88 443.42 129.77 439.03 128.17 C 443.07 130.50 447.39 132.32 451.50 134.54 C 451.27 135.95 451.04 137.36 450.81 138.77 C 450.12 139.39 449.43 140.01 448.73 140.60 C 446.64 139.20 444.39 138.04 441.98 137.32 L 441.92 137.30 L 441.35 136.81 C 439.34 134.83 436.64 133.87 433.95 133.23 L 433.17 133.02 C 432.72 130.55 433.84 128.07 436.28 127.20 C 439.47 126.38 442.74 125.93 445.99 125.39 C 445.36 124.30 444.73 123.22 444.11 122.12 C 443.86 121.20 443.62 120.29 443.37 119.37 C 444.02 118.65 444.65 117.91 445.28 117.16 Z" />
<path fill="#ced2d2" opacity="1.00" d=" M 436.14 119.03 L 436.60 119.21 C 439.10 120.19 441.62 121.11 444.11 122.12 C 444.73 123.22 445.36 124.30 445.99 125.39 C 442.74 125.93 439.47 126.38 436.28 127.20 C 436.29 124.47 436.18 121.75 436.14 119.03 Z" />
<path fill="#ef7274" opacity="1.00" d=" M 455.14 126.21 C 457.67 123.76 460.35 121.48 462.99 119.16 C 463.86 121.38 464.78 123.58 465.74 125.77 C 462.22 126.14 458.67 126.26 455.14 126.21 Z" />
<path fill="#5e554c" opacity="0.94" d=" M 465.74 125.77 L 466.71 125.79 C 467.78 126.45 468.82 127.16 469.84 127.91 C 469.08 129.38 468.33 130.86 467.36 132.20 C 467.23 131.53 466.95 130.20 466.82 129.54 C 466.49 128.27 466.10 127.02 465.74 125.77 Z" />
<path fill="#131212" opacity="0.62" d=" M 469.84 127.91 C 470.78 132.35 466.81 135.25 464.20 138.16 C 461.54 140.66 459.69 144.18 456.09 145.49 C 451.56 144.69 448.30 141.30 444.18 139.58 C 443.10 139.19 442.36 138.43 441.98 137.32 C 444.39 138.04 446.64 139.20 448.73 140.60 C 449.43 140.01 450.12 139.39 450.81 138.77 L 451.54 140.46 C 450.94 140.71 449.75 141.20 449.15 141.45 C 451.22 142.56 453.34 143.98 455.80 143.85 C 457.62 143.39 458.67 141.68 459.90 140.40 C 462.23 137.53 464.97 135.02 467.36 132.20 C 468.33 130.86 469.08 129.38 469.84 127.91 Z" />
<path fill="#757678" opacity="1.00" d=" M 458.35 138.21 C 461.27 135.42 463.93 132.36 466.82 129.54 C 466.95 130.20 467.23 131.53 467.36 132.20 C 464.97 135.02 462.23 137.53 459.90 140.40 C 459.37 140.00 458.32 139.20 457.79 138.80 L 458.35 138.21 Z" />
<path fill="#010100" opacity="1.00" d=" M 433.95 133.23 C 436.64 133.87 439.34 134.83 441.35 136.81 C 438.81 135.87 435.81 135.36 433.95 133.23 Z" />
<path fill="#999793" opacity="1.00" d=" M 451.50 134.54 C 453.79 135.74 456.07 136.96 458.35 138.21 L 457.79 138.80 C 456.73 140.21 456.01 141.83 455.25 143.41 C 454.42 142.24 453.58 141.07 452.58 140.05 L 451.54 140.46 L 450.81 138.77 C 451.04 137.36 451.27 135.95 451.50 134.54 Z" />
<path fill="#52504f" opacity="0.97" d=" M 455.25 143.41 C 456.01 141.83 456.73 140.21 457.79 138.80 C 458.32 139.20 459.37 140.00 459.90 140.40 C 458.67 141.68 457.62 143.39 455.80 143.85 C 453.34 143.98 451.22 142.56 449.15 141.45 C 449.75 141.20 450.94 140.71 451.54 140.46 L 452.58 140.05 C 453.58 141.07 454.42 142.24 455.25 143.41 Z" />
<path fill="#ffffff" opacity="1.00" d=" M 18.94 296.13 C 21.45 290.83 29.13 290.46 33.59 293.40 C 37.22 295.76 36.45 300.65 36.66 304.37 C 34.03 304.37 31.41 304.37 28.78 304.38 C 28.64 302.39 29.09 300.26 28.18 298.41 C 25.98 297.73 25.88 300.70 25.99 302.09 C 25.99 306.17 30.60 307.47 32.94 310.06 C 38.12 314.01 37.82 321.34 36.88 327.11 C 35.08 333.45 25.98 334.52 21.32 330.72 C 17.58 327.62 18.42 322.19 18.24 317.87 C 20.87 317.87 23.50 317.87 26.12 317.88 C 26.36 320.63 25.45 323.74 26.94 326.24 C 30.35 326.00 29.24 321.36 28.82 319.04 C 26.07 314.65 19.89 312.91 18.54 307.51 C 17.73 303.79 17.68 299.76 18.94 296.13 Z" />
<path fill="#ffffff" opacity="1.00" d=" M 60.00 294.10 C 64.44 289.73 73.12 291.22 75.58 297.04 C 76.74 300.19 76.56 303.61 76.70 306.92 C 73.84 307.02 70.98 307.01 68.12 307.00 C 68.11 304.27 68.26 301.52 67.86 298.82 C 65.54 296.93 65.40 300.65 65.50 302.09 C 65.71 310.12 65.04 318.20 65.90 326.19 C 66.41 326.06 67.43 325.82 67.94 325.69 C 68.61 322.96 68.31 320.11 68.44 317.33 C 68.01 317.08 67.14 316.58 66.71 316.33 C 66.74 314.47 66.75 312.61 66.76 310.75 C 70.03 310.75 73.30 310.76 76.57 310.72 C 76.70 317.80 76.56 324.88 76.65 331.97 C 74.80 331.99 72.95 331.98 71.10 331.97 C 70.99 331.29 70.75 329.93 70.64 329.25 C 69.31 331.15 67.54 333.15 64.96 332.91 C 60.06 332.64 57.00 327.59 57.10 323.04 C 56.93 316.01 56.93 308.97 57.11 301.94 C 57.16 299.10 57.75 296.04 60.00 294.10 Z" />
<path fill="#ffffff" opacity="1.00" d=" M 82.64 292.50 C 86.70 292.49 90.76 292.51 94.82 292.48 C 96.51 305.65 98.10 318.83 99.75 332.00 C 96.84 332.00 93.93 332.00 91.03 332.00 C 90.87 329.62 90.72 327.25 90.58 324.87 C 89.82 324.87 88.30 324.87 87.55 324.87 C 87.40 327.24 87.25 329.62 87.10 332.00 C 84.15 332.00 81.20 332.00 78.26 332.00 C 79.71 318.83 81.19 305.67 82.64 292.50 M 88.46 301.91 C 89.05 307.13 87.63 312.55 87.44 317.87 C 88.39 317.86 89.35 317.84 90.30 317.81 C 90.00 312.34 89.02 306.87 89.61 301.40 C 89.22 301.56 88.84 301.73 88.46 301.91 Z" />
<path fill="#ffff00" opacity="1.00" d=" M 133.64 292.50 C 137.70 292.49 141.75 292.51 145.81 292.48 C 147.52 305.64 149.10 318.83 150.74 332.00 C 147.84 332.00 144.93 332.00 142.03 332.00 C 141.87 329.62 141.72 327.25 141.58 324.87 C 140.82 324.87 139.30 324.87 138.55 324.87 C 138.40 327.25 138.25 329.62 138.09 332.00 C 135.15 332.00 132.20 332.00 129.26 332.00 C 130.71 318.83 132.19 305.67 133.64 292.50 M 139.33 302.84 L 139.35 303.77 C 139.72 308.48 138.70 313.15 138.43 317.85 C 139.39 317.85 140.35 317.83 141.30 317.80 C 141.00 312.52 140.08 307.24 140.63 301.95 C 140.71 300.41 139.22 302.25 139.33 302.84 Z" />
<path fill="#ffff00" opacity="1.00" d=" M 157.39 292.51 C 161.46 290.70 167.02 291.53 169.63 295.38 C 172.29 299.39 171.41 304.44 171.63 308.98 C 171.37 314.96 172.27 321.12 170.75 326.98 C 168.60 333.71 158.52 334.91 154.31 329.56 C 151.72 326.29 152.12 321.89 152.00 317.98 C 152.07 312.30 151.82 306.62 152.19 300.96 C 152.33 297.51 154.14 293.96 157.39 292.51 M 160.86 298.84 C 160.14 302.51 160.62 306.28 160.50 310.00 C 160.64 315.45 160.13 320.94 160.89 326.35 C 161.36 326.18 162.29 325.84 162.75 325.67 C 163.43 316.80 163.23 307.78 162.86 298.88 L 161.91 298.23 L 160.86 298.84 Z" />
<path fill="#ffffff" opacity="1.00" d=" M 40.23 292.53 C 44.94 292.46 49.66 292.51 54.38 292.50 C 54.38 295.12 54.38 297.75 54.38 300.37 C 52.50 300.37 50.62 300.37 48.75 300.39 C 48.76 302.86 48.75 305.34 48.70 307.81 C 50.46 307.88 52.23 307.86 54.00 307.89 C 54.01 310.40 54.01 312.91 53.92 315.42 C 52.20 315.39 50.47 315.37 48.75 315.36 C 48.75 318.28 48.75 321.20 48.75 324.12 C 50.83 324.12 52.91 324.12 55.00 324.12 C 55.00 326.74 55.00 329.37 55.00 332.00 C 50.08 331.99 45.15 332.02 40.23 331.98 C 40.26 318.83 40.27 305.68 40.23 292.53 Z" />
<path fill="#ffff00" opacity="1.00" d=" M 108.75 292.49 C 111.11 292.49 113.47 292.50 115.83 292.56 C 117.33 298.25 118.60 304.01 120.53 309.57 C 120.48 303.88 120.49 298.19 120.50 292.50 C 122.87 292.50 125.23 292.49 127.60 292.48 C 127.67 305.65 127.58 318.81 127.65 331.97 C 125.17 332.00 122.69 332.00 120.21 331.98 C 119.14 327.25 117.90 322.56 116.84 317.83 C 116.43 316.63 116.50 315.04 115.32 314.27 C 116.50 320.07 115.59 326.10 115.87 332.00 C 113.49 332.00 111.12 332.00 108.75 332.00 C 108.75 318.83 108.75 305.66 108.75 292.49 Z" />
<path fill="#ffff00" opacity="1.00" d=" M 174.75 292.50 C 178.41 292.49 182.07 292.49 185.74 292.51 C 186.43 298.34 187.13 304.16 187.80 309.99 C 188.96 304.23 189.13 298.32 189.90 292.50 C 193.56 292.49 197.22 292.49 200.88 292.51 C 200.87 305.67 200.87 318.83 200.88 331.99 C 198.42 332.00 195.96 332.00 193.50 332.00 C 193.49 323.32 193.47 314.64 193.58 305.96 C 192.28 314.57 191.48 323.26 190.55 331.92 C 188.78 331.98 187.01 331.98 185.24 332.02 C 184.31 323.36 183.04 314.73 182.44 306.04 C 181.86 314.68 182.23 323.35 182.12 332.00 C 179.66 332.00 177.21 332.00 174.75 332.00 C 174.75 318.83 174.75 305.67 174.75 292.50 Z" />
<path fill="#ffff00" opacity="1.00" d=" M 204.24 331.98 C 204.35 318.79 204.07 305.59 204.38 292.41 C 207.17 292.51 209.97 292.51 212.76 292.52 C 212.74 305.67 212.73 318.82 212.77 331.98 C 209.92 332.00 207.08 332.00 204.24 331.98 Z" />
</svg>
