<?xml version="1.0" encoding="UTF-8" ?>
<!DOCTYPE svg PUBLIC "-//W3C//DTD SVG 1.1//EN" "http://www.w3.org/Graphics/SVG/1.1/DTD/svg11.dtd">
<svg width="1280pt" height="720pt" viewBox="0 0 1280 720" version="1.1" xmlns="http://www.w3.org/2000/svg">
<path fill="#424040" opacity="1.00" d=" M 694.39 53.59 C 698.19 50.35 702.95 53.35 706.89 54.65 C 724.86 61.96 742.61 69.84 759.87 78.71 C 758.55 79.29 757.24 79.87 755.94 80.46 C 741.69 73.10 727.02 66.60 712.30 60.24 C 709.37 62.58 706.50 64.98 703.67 67.44 C 701.56 66.70 699.46 67.32 697.50 68.16 L 696.90 67.70 C 696.60 67.46 696.01 67.00 695.72 66.77 C 693.28 66.56 690.55 66.11 688.31 67.32 C 681.61 72.99 674.60 78.28 668.01 84.10 C 663.82 87.99 658.73 90.72 654.65 94.74 C 657.48 94.89 660.32 95.06 663.16 95.33 C 660.01 95.60 656.86 95.85 653.72 95.89 C 654.12 96.45 654.94 97.57 655.34 98.13 C 654.74 99.52 654.15 100.91 653.49 102.28 C 651.26 100.69 648.64 98.45 645.72 99.67 C 643.12 100.23 641.54 102.36 640.91 104.82 C 641.23 104.59 641.89 104.13 642.22 103.90 C 642.80 104.91 643.39 105.92 643.98 106.94 C 643.17 107.03 641.55 107.22 640.75 107.31 C 638.97 105.65 637.12 104.06 635.08 102.74 C 636.21 106.00 640.13 108.33 639.35 112.09 C 638.56 118.23 638.64 124.43 638.41 130.61 C 638.17 131.87 639.17 132.72 639.90 133.59 C 640.24 133.97 640.92 134.75 641.26 135.14 C 642.45 132.88 642.59 130.32 642.88 127.83 C 644.26 129.31 645.41 131.28 647.50 131.84 C 649.28 132.46 651.14 131.76 652.94 131.51 C 652.23 132.04 651.52 132.57 650.84 133.10 C 643.46 132.28 639.68 139.94 633.91 142.97 C 634.53 142.12 635.17 141.28 635.83 140.46 C 637.05 138.92 638.36 137.45 639.68 135.98 C 637.20 133.16 634.70 129.99 634.57 126.05 C 634.48 117.80 634.48 109.55 634.57 101.29 C 641.74 94.46 650.07 88.97 657.55 82.49 C 663.21 77.71 669.89 74.29 674.98 68.93 C 679.23 66.83 682.33 62.86 686.47 60.45 C 688.89 57.90 692.03 56.23 694.39 53.59 Z" />
<path fill="#222122" opacity="1.00" d=" M 712.30 60.24 C 727.02 66.60 741.69 73.10 755.94 80.46 C 756.57 80.88 757.19 81.31 757.83 81.75 C 755.17 84.57 752.41 87.31 749.22 89.54 C 737.36 83.68 726.66 75.55 714.20 70.92 C 710.70 69.71 707.20 68.54 703.67 67.44 C 706.50 64.98 709.37 62.58 712.30 60.24 Z" />
<path fill="#5e5b5b" opacity="1.00" d=" M 688.31 67.32 C 690.55 66.11 693.28 66.56 695.72 66.77 C 696.01 67.00 696.60 67.46 696.90 67.70 C 690.55 72.35 684.51 77.41 678.40 82.36 C 673.53 86.94 667.78 90.49 663.16 95.33 C 660.32 95.06 657.48 94.89 654.65 94.74 C 658.73 90.72 663.82 87.99 668.01 84.10 C 674.60 78.28 681.61 72.99 688.31 67.32 Z" />
<path fill="#4e4c4c" opacity="1.00" d=" M 697.50 68.16 C 699.46 67.32 701.56 66.70 703.67 67.44 C 707.20 68.54 710.70 69.71 714.20 70.92 C 714.30 71.40 714.50 72.36 714.60 72.84 C 711.74 72.59 708.43 71.89 706.24 74.29 C 703.92 75.65 703.76 78.50 702.74 80.71 C 700.59 83.44 697.55 85.29 694.63 87.10 C 692.66 86.78 689.43 84.18 688.47 87.06 C 690.45 89.49 693.98 88.95 696.44 90.63 C 699.38 92.52 702.48 94.36 705.98 94.99 C 706.39 94.65 707.21 93.98 707.61 93.64 C 708.25 93.63 708.90 93.62 709.56 93.62 C 710.75 94.81 711.96 96.00 713.16 97.19 C 710.96 100.07 706.94 98.24 703.90 98.57 C 699.91 95.30 695.09 92.76 689.90 92.27 C 685.66 93.70 681.45 95.57 677.87 98.28 C 673.92 96.75 669.76 95.87 665.56 95.45 C 664.75 95.39 663.95 95.35 663.16 95.33 C 667.78 90.49 673.53 86.94 678.40 82.36 C 684.51 77.41 690.55 72.35 696.90 67.70 L 697.50 68.16 Z" />
<path fill="#3c3a3a" opacity="1.00" d=" M 714.20 70.92 C 726.66 75.55 737.36 83.68 749.22 89.54 C 752.41 87.31 755.17 84.57 757.83 81.75 C 757.19 81.31 756.57 80.88 755.94 80.46 C 757.24 79.87 758.55 79.29 759.87 78.71 L 760.04 78.63 C 765.98 81.81 772.11 84.61 777.91 88.04 C 780.08 89.16 780.28 91.89 780.31 94.04 C 780.38 101.06 780.39 108.08 780.50 115.10 C 780.69 117.78 778.94 120.08 776.93 121.64 C 778.25 111.79 775.54 101.50 778.81 91.91 C 777.13 92.97 774.83 93.55 773.73 95.23 C 774.69 103.24 774.69 111.33 774.49 119.38 C 774.36 120.60 775.03 121.65 775.49 122.73 C 774.78 123.35 774.08 123.98 773.41 124.62 C 771.73 115.83 773.15 106.82 772.68 97.93 C 771.50 98.25 770.37 98.65 769.23 99.01 C 770.89 107.83 770.50 116.88 770.11 125.80 C 770.80 125.84 772.16 125.92 772.84 125.96 C 769.72 128.76 766.57 131.64 764.02 134.97 C 764.63 129.99 764.10 124.99 764.15 120.00 C 764.16 115.31 764.30 110.61 763.89 105.94 C 762.88 106.79 760.74 107.23 761.24 108.98 C 761.95 116.49 761.96 124.06 761.50 131.60 C 761.35 133.14 761.76 134.65 762.15 136.13 C 761.43 137.13 760.70 138.13 759.98 139.12 C 759.58 129.83 759.82 120.53 759.68 111.23 C 758.89 111.12 757.32 110.89 756.54 110.77 C 755.19 112.22 753.82 113.64 752.43 115.05 C 752.43 114.14 752.43 113.24 752.44 112.34 C 751.55 112.34 750.68 112.34 749.82 112.34 C 750.84 107.33 756.00 105.09 758.73 101.13 C 758.36 100.80 757.61 100.14 757.24 99.80 C 752.81 95.93 748.34 92.07 743.60 88.58 C 737.73 84.87 731.64 81.32 725.01 79.15 C 724.62 82.22 723.40 85.11 720.67 86.79 C 720.89 87.26 721.35 88.20 721.57 88.67 C 718.52 89.81 715.61 91.38 713.75 94.15 C 712.35 93.94 710.96 93.71 709.56 93.62 C 708.90 93.62 708.25 93.63 707.61 93.64 C 703.31 91.40 699.22 88.73 694.63 87.10 C 697.55 85.29 700.59 83.44 702.74 80.71 C 703.76 78.50 703.92 75.65 706.24 74.29 C 708.43 71.89 711.74 72.59 714.60 72.84 C 714.50 72.36 714.30 71.40 714.20 70.92 M 700.04 85.84 C 702.22 86.59 704.10 88.35 706.48 88.42 C 706.71 88.81 707.16 89.59 707.39 89.98 C 707.38 89.44 707.34 88.38 707.33 87.84 C 705.54 87.88 704.19 86.51 702.44 86.58 L 702.49 85.35 C 701.88 85.47 700.66 85.72 700.04 85.84 Z" />
<path fill="#323131" opacity="1.00" d=" M 725.01 79.15 C 731.64 81.32 737.73 84.87 743.60 88.58 C 743.24 89.21 742.88 89.85 742.53 90.49 C 739.29 93.95 735.55 96.87 732.00 99.98 C 725.45 106.43 718.17 112.08 711.79 118.70 C 711.29 118.79 710.27 118.97 709.77 119.06 L 709.47 119.02 C 706.48 115.41 702.19 113.33 698.58 110.45 C 695.89 108.27 692.68 106.89 689.38 105.93 C 689.75 107.77 690.13 109.62 690.54 111.46 C 688.86 111.50 687.20 111.57 685.54 111.69 C 679.31 108.94 673.96 104.62 668.93 100.12 C 667.44 98.86 666.47 97.14 665.56 95.45 C 669.76 95.87 673.92 96.75 677.87 98.28 C 683.45 101.08 689.26 103.41 695.06 105.75 C 697.78 104.53 700.74 104.10 703.62 103.39 C 704.89 102.09 703.92 100.15 703.90 98.57 C 706.94 98.24 710.96 100.07 713.16 97.19 C 711.96 96.00 710.75 94.81 709.56 93.62 C 710.96 93.71 712.35 93.94 713.75 94.15 C 715.61 91.38 718.52 89.81 721.57 88.67 C 721.35 88.20 720.89 87.26 720.67 86.79 C 723.40 85.11 724.62 82.22 725.01 79.15 M 717.82 107.02 C 718.50 104.45 716.15 102.72 713.84 102.61 C 711.94 104.76 716.17 106.25 717.82 107.02 Z" />
<path fill="#706e6d" opacity="1.00" d=" M 688.47 87.06 C 689.43 84.18 692.66 86.78 694.63 87.10 C 699.22 88.73 703.31 91.40 707.61 93.64 C 707.21 93.98 706.39 94.65 705.98 94.99 C 702.48 94.36 699.38 92.52 696.44 90.63 C 693.98 88.95 690.45 89.49 688.47 87.06 Z" />
<path fill="#fffeff" opacity="1.00" d=" M 700.04 85.84 C 700.66 85.72 701.88 85.47 702.49 85.35 L 702.44 86.58 C 704.19 86.51 705.54 87.88 707.33 87.84 C 707.34 88.38 707.38 89.44 707.39 89.98 C 707.16 89.59 706.71 88.81 706.48 88.42 C 704.10 88.35 702.22 86.59 700.04 85.84 Z" />
<path fill="#2b2a2a" opacity="1.00" d=" M 742.53 90.49 C 742.88 89.85 743.24 89.21 743.60 88.58 C 748.34 92.07 752.81 95.93 757.24 99.80 C 754.85 102.70 752.31 105.57 748.82 107.14 C 745.59 109.82 744.18 114.21 740.67 116.68 C 734.31 121.31 729.45 127.52 723.87 132.97 C 722.62 133.03 721.39 133.08 720.16 133.13 C 719.89 132.59 719.36 131.52 719.09 130.98 C 719.57 130.93 720.52 130.84 721.00 130.79 C 718.37 127.42 715.37 124.33 711.88 121.85 C 711.56 121.56 710.91 120.97 710.59 120.67 C 710.39 120.27 709.97 119.46 709.77 119.06 C 710.27 118.97 711.29 118.79 711.79 118.70 C 712.97 118.38 714.12 117.90 715.03 117.04 C 722.87 109.52 731.15 102.48 739.08 95.06 C 740.52 93.78 741.72 92.24 742.53 90.49 Z" />
<path fill="#0d0c0d" opacity="1.00" d=" M 732.00 99.98 C 735.55 96.87 739.29 93.95 742.53 90.49 C 741.72 92.24 740.52 93.78 739.08 95.06 C 731.15 102.48 722.87 109.52 715.03 117.04 C 714.12 117.90 712.97 118.38 711.79 118.70 C 718.17 112.08 725.45 106.43 732.00 99.98 Z" />
<path fill="#3c3a3b" opacity="1.00" d=" M 677.87 98.28 C 681.45 95.57 685.66 93.70 689.90 92.27 C 695.09 92.76 699.91 95.30 703.90 98.57 C 703.92 100.15 704.89 102.09 703.62 103.39 C 700.74 104.10 697.78 104.53 695.06 105.75 C 689.26 103.41 683.45 101.08 677.87 98.28 Z" />
<path fill="#252424" opacity="1.00" d=" M 773.73 95.23 C 774.83 93.55 777.13 92.97 778.81 91.91 C 775.54 101.50 778.25 111.79 776.93 121.64 C 776.57 121.91 775.85 122.46 775.49 122.73 C 775.03 121.65 774.36 120.60 774.49 119.38 C 774.69 111.33 774.69 103.24 773.73 95.23 Z" />
<path fill="#232223" opacity="1.00" d=" M 663.16 95.33 C 663.95 95.35 664.75 95.39 665.56 95.45 C 665.20 95.88 664.49 96.73 664.13 97.15 C 669.53 103.74 676.47 108.84 683.78 113.12 C 686.99 114.72 690.36 116.02 693.42 117.94 C 690.41 117.75 687.48 117.00 684.85 115.51 C 681.78 114.05 678.71 112.59 675.69 111.05 C 675.61 111.83 675.54 112.62 675.48 113.41 C 674.47 113.48 673.46 113.48 672.49 113.72 C 672.48 115.91 672.62 118.15 671.97 120.28 C 668.61 117.04 668.70 111.89 665.83 108.30 C 664.66 111.95 665.65 116.07 667.69 119.22 C 670.63 122.74 674.86 124.81 678.76 127.07 C 681.90 128.65 684.77 130.84 688.15 131.91 C 693.13 132.01 697.02 127.87 701.97 127.76 C 705.38 127.86 708.75 128.51 712.12 129.01 C 714.43 129.68 716.73 130.43 719.09 130.98 C 719.36 131.52 719.89 132.59 720.16 133.13 L 719.35 133.16 C 714.01 132.71 708.64 132.75 703.29 132.69 C 696.50 132.46 691.80 139.10 685.04 138.90 C 682.16 137.03 679.82 134.44 676.87 132.66 C 676.69 131.71 676.52 130.76 676.37 129.82 C 675.58 130.40 674.81 130.98 674.05 131.57 C 671.77 128.16 668.49 124.84 664.08 124.92 C 663.02 125.69 662.90 127.11 662.51 128.25 C 659.33 124.75 657.05 120.54 653.74 117.15 C 653.19 117.27 652.08 117.49 651.53 117.61 C 648.06 115.45 644.78 113.01 641.29 110.88 C 639.89 118.39 640.80 126.05 639.90 133.59 C 639.17 132.72 638.17 131.87 638.41 130.61 C 638.64 124.43 638.56 118.23 639.35 112.09 C 640.13 108.33 636.21 106.00 635.08 102.74 C 637.12 104.06 638.97 105.65 640.75 107.31 C 644.73 110.91 649.51 113.55 654.47 115.55 C 656.55 113.10 659.54 111.14 660.70 108.07 C 660.05 104.25 657.61 101.13 655.34 98.13 C 654.94 97.57 654.12 96.45 653.72 95.89 C 656.86 95.85 660.01 95.60 663.16 95.33 Z" />
<path fill="#0d0c0d" opacity="1.00" d=" M 664.13 97.15 C 664.49 96.73 665.20 95.88 665.56 95.45 C 666.47 97.14 667.44 98.86 668.93 100.12 C 673.96 104.62 679.31 108.94 685.54 111.69 C 692.99 115.55 701.08 118.25 709.47 119.02 L 709.77 119.06 C 709.97 119.46 710.39 120.27 710.59 120.67 C 704.76 120.66 699.02 119.48 693.42 117.94 C 690.36 116.02 686.99 114.72 683.78 113.12 C 676.47 108.84 669.53 103.74 664.13 97.15 Z" />
<path fill="#383737" opacity="1.00" d=" M 655.34 98.13 C 657.61 101.13 660.05 104.25 660.70 108.07 C 659.54 111.14 656.55 113.10 654.47 115.55 C 649.51 113.55 644.73 110.91 640.75 107.31 C 641.55 107.22 643.17 107.03 643.98 106.94 C 646.95 106.78 650.46 107.00 652.23 104.07 C 652.54 103.62 653.17 102.73 653.49 102.28 C 654.15 100.91 654.74 99.52 655.34 98.13 Z" />
<path fill="#242324" opacity="1.00" d=" M 769.23 99.01 C 770.37 98.65 771.50 98.25 772.68 97.93 C 773.15 106.82 771.73 115.83 773.41 124.62 C 773.27 124.95 772.98 125.62 772.84 125.96 C 772.16 125.92 770.80 125.84 770.11 125.80 C 770.50 116.88 770.89 107.83 769.23 99.01 Z" />
<path fill="#201f20" opacity="1.00" d=" M 645.72 99.67 C 648.64 98.45 651.26 100.69 653.49 102.28 C 653.17 102.73 652.54 103.62 652.23 104.07 C 649.78 100.45 644.99 100.95 642.22 103.90 C 641.89 104.13 641.23 104.59 640.91 104.82 C 641.54 102.36 643.12 100.23 645.72 99.67 Z" />
<path fill="#383737" opacity="1.00" d=" M 757.24 99.80 C 757.61 100.14 758.36 100.80 758.73 101.13 C 756.00 105.09 750.84 107.33 749.82 112.34 C 750.68 112.34 751.55 112.34 752.44 112.34 C 752.43 113.24 752.43 114.14 752.43 115.05 C 753.82 113.64 755.19 112.22 756.54 110.77 C 757.02 115.87 757.66 120.96 757.42 126.10 C 757.52 130.90 756.62 135.84 758.11 140.52 C 757.64 140.93 756.70 141.77 756.23 142.19 C 754.03 133.36 755.57 124.13 754.82 115.14 C 754.02 115.55 753.22 115.96 752.44 116.37 C 753.36 125.38 753.70 134.54 752.41 143.54 C 753.02 143.68 754.24 143.96 754.86 144.10 C 747.75 151.57 740.79 159.18 733.38 166.37 C 729.37 170.26 725.99 174.96 721.23 177.96 C 722.09 176.98 722.93 175.98 723.79 174.98 C 723.40 166.13 722.71 157.19 723.42 148.37 C 731.65 139.33 740.81 131.12 749.29 122.30 C 750.15 121.35 750.66 120.15 751.23 119.00 C 747.40 120.72 745.21 124.50 742.09 127.12 C 734.50 133.72 727.44 140.89 720.50 148.16 C 716.57 146.61 712.37 145.95 708.18 145.53 C 702.41 145.01 699.11 139.58 693.76 137.95 C 696.82 135.23 700.90 135.19 704.75 135.43 C 709.72 135.68 714.61 134.56 719.35 133.16 L 720.16 133.13 C 721.39 133.08 722.62 133.03 723.87 132.97 C 729.45 127.52 734.31 121.31 740.67 116.68 C 744.18 114.21 745.59 109.82 748.82 107.14 C 752.31 105.57 754.85 102.70 757.24 99.80 Z" />
<path fill="#727171" opacity="1.00" d=" M 642.22 103.90 C 644.99 100.95 649.78 100.45 652.23 104.07 C 650.46 107.00 646.95 106.78 643.98 106.94 C 643.39 105.92 642.80 104.91 642.22 103.90 Z" />
<path fill="#5e5c5c" opacity="1.00" d=" M 717.82 107.02 C 716.17 106.25 711.94 104.76 713.84 102.61 C 716.15 102.72 718.50 104.45 717.82 107.02 Z" />
<path fill="#3b3a3b" opacity="1.00" d=" M 689.38 105.93 C 692.68 106.89 695.89 108.27 698.58 110.45 C 702.19 113.33 706.48 115.41 709.47 119.02 C 701.08 118.25 692.99 115.55 685.54 111.69 C 687.20 111.57 688.86 111.50 690.54 111.46 C 690.13 109.62 689.75 107.77 689.38 105.93 Z" />
<path fill="#232222" opacity="1.00" d=" M 761.24 108.98 C 760.74 107.23 762.88 106.79 763.89 105.94 C 764.30 110.61 764.16 115.31 764.15 120.00 C 764.10 124.99 764.63 129.99 764.02 134.97 C 763.55 135.26 762.62 135.84 762.15 136.13 C 761.76 134.65 761.35 133.14 761.50 131.60 C 761.96 124.06 761.95 116.49 761.24 108.98 Z" />
<path fill="#302e2f" opacity="1.00" d=" M 667.69 119.22 C 665.65 116.07 664.66 111.95 665.83 108.30 C 668.70 111.89 668.61 117.04 671.97 120.28 C 672.62 118.15 672.48 115.91 672.49 113.72 C 673.46 113.48 674.47 113.48 675.48 113.41 C 675.54 112.62 675.61 111.83 675.69 111.05 C 678.71 112.59 681.78 114.05 684.85 115.51 C 685.96 119.24 684.42 122.95 683.56 126.54 C 681.84 126.06 680.13 125.59 678.43 125.12 C 678.52 125.60 678.68 126.58 678.76 127.07 C 674.86 124.81 670.63 122.74 667.69 119.22 Z" />
<path fill="#2d2c2d" opacity="1.00" d=" M 594.43 113.51 C 595.18 112.08 596.54 111.19 597.90 110.42 C 601.17 112.95 601.46 117.08 602.66 120.71 C 605.46 119.51 608.56 119.03 611.17 117.38 C 613.88 115.79 616.80 113.91 620.11 114.74 C 625.01 116.09 628.27 120.68 629.87 125.28 C 627.57 123.65 624.98 122.56 622.49 121.29 C 621.84 120.86 620.55 119.99 619.90 119.56 C 619.38 119.65 618.34 119.84 617.82 119.94 C 614.08 120.65 610.63 122.33 607.55 124.52 C 607.18 124.39 606.45 124.15 606.08 124.03 C 605.79 123.83 605.21 123.43 604.92 123.23 C 604.42 123.32 603.43 123.49 602.93 123.58 C 602.14 123.77 600.55 124.15 599.76 124.34 C 599.32 125.20 598.91 126.07 598.53 126.94 C 598.12 127.83 597.73 128.73 597.35 129.63 C 596.54 129.18 595.71 128.76 594.90 128.35 C 593.32 127.67 592.66 128.18 592.94 129.90 C 591.67 129.33 590.36 128.85 589.04 128.44 L 589.14 127.98 C 590.14 126.14 587.10 125.15 586.73 127.18 C 585.65 128.14 584.28 128.51 582.87 128.46 C 583.40 127.25 583.97 126.05 584.52 124.85 C 581.65 125.95 578.92 127.98 578.22 131.14 C 577.10 135.68 576.35 140.42 576.73 145.10 C 577.36 145.62 578.60 146.65 579.22 147.17 C 579.71 145.00 580.09 142.81 580.47 140.62 C 580.99 140.61 582.05 140.58 582.57 140.56 C 584.05 143.69 586.25 146.97 590.00 147.43 C 588.71 149.25 591.47 151.69 592.33 149.00 C 596.23 148.83 600.12 148.40 604.03 148.83 C 607.28 149.19 609.65 146.02 612.89 146.17 C 617.36 146.06 621.81 146.73 626.25 147.22 C 623.63 149.99 619.56 148.98 616.16 149.28 C 611.68 149.18 607.44 150.98 602.99 151.09 C 594.61 150.72 586.40 155.09 578.04 152.60 C 577.93 153.01 577.70 153.83 577.58 154.23 C 573.05 146.45 576.70 137.36 577.31 129.07 C 578.33 125.37 581.28 122.11 584.89 120.75 C 587.47 120.31 590.08 120.83 592.68 120.70 C 593.88 118.52 592.91 115.61 594.43 113.51 M 596.61 114.24 C 595.65 116.46 595.11 118.85 595.47 121.27 C 596.79 121.25 598.11 121.24 599.45 121.24 C 600.29 118.87 599.01 116.54 598.37 114.30 C 597.93 114.28 597.05 114.25 596.61 114.24 M 584.21 145.81 C 583.65 147.46 584.17 148.03 585.78 147.51 C 586.34 145.85 585.82 145.28 584.21 145.81 Z" />
<path fill="#0d0c0d" opacity="1.00" d=" M 641.29 110.88 C 644.78 113.01 648.06 115.45 651.53 117.61 C 654.56 120.33 656.45 123.99 658.97 127.14 C 658.42 131.70 655.46 135.35 654.26 139.68 C 653.64 139.37 653.04 139.06 652.44 138.75 C 653.01 135.84 653.79 132.96 654.17 130.01 C 652.89 127.15 649.50 126.27 646.94 124.92 C 645.56 125.85 644.18 126.79 642.88 127.83 C 642.59 130.32 642.45 132.88 641.26 135.14 C 640.92 134.75 640.24 133.97 639.90 133.59 C 640.80 126.05 639.89 118.39 641.29 110.88 Z" />
<path fill="#232222" opacity="1.00" d=" M 756.54 110.77 C 757.32 110.89 758.89 111.12 759.68 111.23 C 759.82 120.53 759.58 129.83 759.98 139.12 C 759.51 139.47 758.58 140.17 758.11 140.52 C 756.62 135.84 757.52 130.90 757.42 126.10 C 757.66 120.96 757.02 115.87 756.54 110.77 Z" />
<path fill="#212020" opacity="1.00" d=" M 752.44 116.37 C 753.22 115.96 754.02 115.55 754.82 115.14 C 755.57 124.13 754.03 133.36 756.23 142.19 L 756.41 142.85 C 756.02 143.16 755.24 143.79 754.86 144.10 C 754.24 143.96 753.02 143.68 752.41 143.54 C 753.70 134.54 753.36 125.38 752.44 116.37 Z" />
<path fill="#3b3a3b" opacity="1.00" d=" M 683.56 126.54 C 684.42 122.95 685.96 119.24 684.85 115.51 C 687.48 117.00 690.41 117.75 693.42 117.94 C 699.02 119.48 704.76 120.66 710.59 120.67 C 710.91 120.97 711.56 121.56 711.88 121.85 C 711.39 121.94 710.42 122.13 709.93 122.22 C 711.69 124.35 713.71 126.27 715.88 127.99 C 713.98 127.72 712.07 127.48 710.18 127.26 C 710.81 127.85 711.45 128.44 712.12 129.01 C 708.75 128.51 705.38 127.86 701.97 127.76 C 697.02 127.87 693.13 132.01 688.15 131.91 C 684.77 130.84 681.90 128.65 678.76 127.07 C 678.68 126.58 678.52 125.60 678.43 125.12 C 680.13 125.59 681.84 126.06 683.56 126.54 Z" />
<path fill="#3e3c3d" opacity="1.00" d=" M 651.53 117.61 C 652.08 117.49 653.19 117.27 653.74 117.15 C 657.05 120.54 659.33 124.75 662.51 128.25 C 662.41 128.98 662.32 129.70 662.25 130.43 C 661.14 129.34 660.02 128.28 658.97 127.14 C 656.45 123.99 654.56 120.33 651.53 117.61 Z" />
<path fill="#2b2a2a" opacity="1.00" d=" M 742.09 127.12 C 745.21 124.50 747.40 120.72 751.23 119.00 C 750.66 120.15 750.15 121.35 749.29 122.30 C 740.81 131.12 731.65 139.33 723.42 148.37 C 722.71 157.19 723.40 166.13 723.79 174.98 C 722.93 175.98 722.09 176.98 721.23 177.96 C 719.31 181.02 715.79 181.33 712.61 180.38 C 704.80 178.77 698.52 173.60 691.42 170.31 C 680.78 164.26 670.13 158.21 659.70 151.80 C 661.08 151.83 662.46 151.85 663.85 151.85 C 662.58 150.92 661.30 150.00 660.03 149.07 C 660.67 147.07 661.27 145.06 661.80 143.03 C 664.16 144.10 666.47 145.36 669.03 145.92 C 672.82 145.19 675.91 142.58 679.03 140.46 C 676.98 139.47 674.87 138.02 672.48 138.56 C 668.79 139.13 664.50 139.17 661.67 136.34 C 660.14 134.54 662.02 132.41 662.25 130.43 C 662.32 129.70 662.41 128.98 662.51 128.25 C 662.90 127.11 663.02 125.69 664.08 124.92 C 668.49 124.84 671.77 128.16 674.05 131.57 C 674.81 130.98 675.58 130.40 676.37 129.82 C 676.52 130.76 676.69 131.71 676.87 132.66 C 679.82 134.44 682.16 137.03 685.04 138.90 C 691.80 139.10 696.50 132.46 703.29 132.69 C 708.64 132.75 714.01 132.71 719.35 133.16 C 714.61 134.56 709.72 135.68 704.75 135.43 C 700.90 135.19 696.82 135.23 693.76 137.95 C 699.11 139.58 702.41 145.01 708.18 145.53 C 707.46 145.64 706.02 145.87 705.30 145.98 C 705.51 149.94 705.68 153.91 706.16 157.85 C 706.71 162.14 705.52 166.62 707.37 170.71 C 706.28 170.97 705.19 171.24 704.12 171.51 C 708.62 174.05 713.65 175.44 718.71 176.37 C 720.13 176.77 721.26 175.58 722.49 175.06 C 721.19 167.07 722.31 158.98 721.87 150.96 C 721.87 149.85 721.03 149.04 720.50 148.16 C 727.44 140.89 734.50 133.72 742.09 127.12 M 689.17 152.12 C 691.60 154.83 695.64 155.23 698.44 157.55 C 700.25 154.08 695.90 152.69 693.61 151.33 C 692.23 150.42 689.39 149.55 689.17 152.12 Z" />
<path fill="#403e3f" opacity="1.00" d=" M 607.55 124.52 C 610.63 122.33 614.08 120.65 617.82 119.94 C 617.20 121.92 617.25 124.00 618.03 125.93 C 618.15 127.59 620.27 127.30 621.09 126.35 C 621.96 126.60 622.82 126.87 623.68 127.18 C 622.19 129.41 621.18 132.88 623.93 134.65 C 624.57 134.54 625.86 134.30 626.50 134.18 C 628.40 135.88 629.23 138.30 629.70 140.74 C 630.60 140.59 631.51 140.43 632.43 140.28 C 630.86 142.98 628.59 145.18 626.25 147.22 C 621.81 146.73 617.36 146.06 612.89 146.17 C 609.65 146.02 607.28 149.19 604.03 148.83 C 600.12 148.40 596.23 148.83 592.33 149.00 C 592.17 148.54 591.87 147.63 591.72 147.18 C 592.69 146.19 593.69 145.22 594.64 144.20 C 594.93 145.69 596.13 145.81 597.42 145.77 C 598.76 142.21 599.45 138.45 599.08 134.64 C 598.25 134.59 596.60 134.50 595.77 134.45 C 594.98 132.84 594.03 131.31 592.94 129.90 C 594.48 130.49 595.13 129.98 594.90 128.35 C 595.71 128.76 596.54 129.18 597.35 129.63 C 597.73 128.73 598.12 127.83 598.53 126.94 C 598.80 127.58 599.35 128.86 599.62 129.49 C 602.37 129.90 605.06 128.85 607.73 128.34 C 607.30 126.85 606.80 125.39 606.08 124.03 C 606.45 124.15 607.18 124.39 607.55 124.52 M 613.32 126.30 C 610.14 127.56 611.29 132.99 614.67 132.67 C 617.75 131.47 616.65 125.75 613.32 126.30 M 600.86 133.11 C 603.40 134.14 606.35 132.88 607.10 130.21 C 604.93 130.72 600.01 129.51 600.86 133.11 M 616.50 138.94 C 616.81 140.56 618.66 140.66 619.87 141.20 C 621.84 139.51 622.47 135.49 619.76 134.28 C 617.02 133.27 615.54 136.81 616.50 138.94 M 612.35 135.29 C 611.28 136.68 613.72 138.04 614.55 136.62 C 615.64 135.22 613.18 133.93 612.35 135.29 M 601.64 141.97 C 602.81 145.14 607.48 142.35 607.22 139.68 C 605.26 139.65 601.20 138.82 601.64 141.97 M 617.02 143.35 C 615.45 146.32 620.33 143.52 617.02 143.35 Z" />
<path fill="#4b779c" opacity="1.00" d=" M 617.82 119.94 C 618.34 119.84 619.38 119.65 619.90 119.56 C 620.55 119.99 621.84 120.86 622.49 121.29 C 622.04 122.98 621.58 124.67 621.09 126.35 C 620.33 126.25 618.79 126.04 618.03 125.93 C 617.25 124.00 617.20 121.92 617.82 119.94 Z" />
<path fill="#4d4a4d" opacity="1.00" d=" M 622.49 121.29 C 624.98 122.56 627.57 123.65 629.87 125.28 L 630.03 125.88 C 631.29 130.58 633.17 135.30 632.43 140.28 C 631.51 140.43 630.60 140.59 629.70 140.74 C 629.23 138.30 628.40 135.88 626.50 134.18 C 627.10 131.41 626.93 128.07 623.68 127.18 C 622.82 126.87 621.96 126.60 621.09 126.35 C 621.58 124.67 622.04 122.98 622.49 121.29 M 628.04 133.37 C 626.59 136.41 631.36 133.39 628.04 133.37 Z" />
<path fill="#494849" opacity="1.00" d=" M 709.93 122.22 C 710.42 122.13 711.39 121.94 711.88 121.85 C 715.37 124.33 718.37 127.42 721.00 130.79 C 720.52 130.84 719.57 130.93 719.09 130.98 C 716.73 130.43 714.43 129.68 712.12 129.01 C 711.45 128.44 710.81 127.85 710.18 127.26 C 712.07 127.48 713.98 127.72 715.88 127.99 C 713.71 126.27 711.69 124.35 709.93 122.22 Z" />
<path fill="#5f5f5e" opacity="1.00" d=" M 602.93 123.58 C 603.43 123.49 604.42 123.32 604.92 123.23 C 605.21 123.43 605.79 123.83 606.08 124.03 C 606.80 125.39 607.30 126.85 607.73 128.34 C 605.06 128.85 602.37 129.90 599.62 129.49 C 599.35 128.86 598.80 127.58 598.53 126.94 C 598.91 126.07 599.32 125.20 599.76 124.34 C 600.16 127.07 603.35 125.25 604.78 124.46 C 604.32 124.24 603.39 123.80 602.93 123.58 Z" />
<path fill="#858482" opacity="1.00" d=" M 599.76 124.34 C 600.55 124.15 602.14 123.77 602.93 123.58 C 603.39 123.80 604.32 124.24 604.78 124.46 C 603.35 125.25 600.16 127.07 599.76 124.34 Z" />
<path fill="#504e4f" opacity="1.00" d=" M 578.22 131.14 C 578.92 127.98 581.65 125.95 584.52 124.85 C 583.97 126.05 583.40 127.25 582.87 128.46 C 584.28 128.51 585.65 128.14 586.73 127.18 C 587.33 127.38 588.54 127.78 589.14 127.98 L 589.04 128.44 C 588.28 128.55 586.74 128.76 585.97 128.87 C 585.36 129.85 584.75 130.82 584.18 131.82 C 582.98 128.91 580.41 132.57 583.21 133.37 C 582.91 134.90 582.60 136.42 582.24 137.94 C 581.41 138.68 580.56 139.44 580.47 140.62 C 580.09 142.81 579.71 145.00 579.22 147.17 C 578.60 146.65 577.36 145.62 576.73 145.10 C 576.35 140.42 577.10 135.68 578.22 131.14 Z" />
<path fill="#201f20" opacity="1.00" d=" M 642.88 127.83 C 644.18 126.79 645.56 125.85 646.94 124.92 C 649.50 126.27 652.89 127.15 654.17 130.01 C 653.79 132.96 653.01 135.84 652.44 138.75 C 653.04 139.06 653.64 139.37 654.26 139.68 C 655.46 135.35 658.42 131.70 658.97 127.14 C 660.02 128.28 661.14 129.34 662.25 130.43 C 662.02 132.41 660.14 134.54 661.67 136.34 C 664.50 139.17 668.79 139.13 672.48 138.56 C 674.87 138.02 676.98 139.47 679.03 140.46 C 675.91 142.58 672.82 145.19 669.03 145.92 C 666.47 145.36 664.16 144.10 661.80 143.03 C 661.27 145.06 660.67 147.07 660.03 149.07 C 661.30 150.00 662.58 150.92 663.85 151.85 C 662.46 151.85 661.08 151.83 659.70 151.80 C 658.19 151.25 656.92 150.23 655.60 149.37 C 651.17 146.17 645.90 144.18 642.02 140.23 C 640.94 141.10 639.88 141.98 638.91 142.95 C 640.96 144.14 642.95 145.45 644.85 146.91 C 644.07 147.22 642.53 147.84 641.76 148.15 C 639.80 146.83 637.76 145.65 635.77 144.40 C 635.33 144.79 634.45 145.57 634.02 145.96 C 633.39 145.25 632.77 144.55 632.16 143.85 C 630.90 146.88 629.66 149.95 627.93 152.76 C 627.54 153.12 626.77 153.85 626.38 154.21 C 617.20 154.56 607.86 154.18 598.99 157.05 C 594.83 158.16 591.16 160.65 586.94 161.52 C 582.71 161.32 579.30 157.90 577.58 154.23 C 577.70 153.83 577.93 153.01 578.04 152.60 C 586.40 155.09 594.61 150.72 602.99 151.09 C 607.44 150.98 611.68 149.18 616.16 149.28 C 619.56 148.98 623.63 149.99 626.25 147.22 C 628.59 145.18 630.86 142.98 632.43 140.28 C 633.17 135.30 631.29 130.58 630.03 125.88 C 632.59 130.31 633.76 135.62 633.47 140.75 C 634.06 140.68 635.24 140.53 635.83 140.46 C 635.17 141.28 634.53 142.12 633.91 142.97 C 639.68 139.94 643.46 132.28 650.84 133.10 C 651.52 132.57 652.23 132.04 652.94 131.51 C 651.14 131.76 649.28 132.46 647.50 131.84 C 645.41 131.28 644.26 129.31 642.88 127.83 Z" />
<path fill="#807f7f" opacity="1.00" d=" M 586.73 127.18 C 587.10 125.15 590.14 126.14 589.14 127.98 C 588.54 127.78 587.33 127.38 586.73 127.18 Z" />
<path fill="#629f6b" opacity="1.00" d=" M 613.32 126.30 C 616.65 125.75 617.75 131.47 614.67 132.67 C 611.29 132.99 610.14 127.56 613.32 126.30 Z" />
<path fill="#164760" opacity="1.00" d=" M 618.03 125.93 C 618.79 126.04 620.33 126.25 621.09 126.35 C 620.27 127.30 618.15 127.59 618.03 125.93 Z" />
<path fill="#6e6d6d" opacity="1.00" d=" M 592.94 129.90 C 592.66 128.18 593.32 127.67 594.90 128.35 C 595.13 129.98 594.48 130.49 592.94 129.90 Z" />
<path fill="#c39953" opacity="1.00" d=" M 623.68 127.18 C 626.93 128.07 627.10 131.41 626.50 134.18 C 625.86 134.30 624.57 134.54 623.93 134.65 C 621.18 132.88 622.19 129.41 623.68 127.18 Z" />
<path fill="#3d3939" opacity="0.78" d=" M 574.65 140.01 C 575.51 136.38 575.31 132.33 577.31 129.07 C 576.70 137.36 573.05 146.45 577.58 154.23 C 579.30 157.90 582.71 161.32 586.94 161.52 C 591.16 160.65 594.83 158.16 598.99 157.05 C 607.86 154.18 617.20 154.56 626.38 154.21 C 625.02 154.93 623.65 155.86 622.04 155.71 C 611.40 155.27 600.61 157.30 591.05 162.06 C 588.35 163.73 584.75 163.73 582.15 161.86 C 575.23 157.25 572.91 147.80 574.65 140.01 Z" />
<path fill="#141313" opacity="1.00" d=" M 585.97 128.87 C 586.74 128.76 588.28 128.55 589.04 128.44 C 590.36 128.85 591.67 129.33 592.94 129.90 C 594.03 131.31 594.98 132.84 595.77 134.45 C 596.58 137.75 596.97 141.41 594.64 144.20 C 593.69 145.22 592.69 146.19 591.72 147.18 C 591.29 147.24 590.43 147.36 590.00 147.43 C 586.25 146.97 584.05 143.69 582.57 140.56 C 582.43 139.69 582.31 138.81 582.24 137.94 C 582.60 136.42 582.91 134.90 583.21 133.37 C 583.45 132.98 583.94 132.20 584.18 131.82 C 584.75 130.82 585.36 129.85 585.97 128.87 M 587.93 131.88 C 584.50 133.34 584.44 137.59 585.19 140.69 C 587.11 141.28 588.98 142.33 591.05 142.33 C 594.56 141.30 594.34 137.12 593.76 134.25 C 592.67 132.32 590.10 130.51 587.93 131.88 Z" />
<path fill="#656363" opacity="1.00" d=" M 600.86 133.11 C 600.01 129.51 604.93 130.72 607.10 130.21 C 606.35 132.88 603.40 134.14 600.86 133.11 Z" />
<path fill="#767375" opacity="1.00" d=" M 583.21 133.37 C 580.41 132.57 582.98 128.91 584.18 131.82 C 583.94 132.20 583.45 132.98 583.21 133.37 Z" />
<path fill="#262426" opacity="1.00" d=" M 587.93 131.88 C 590.10 130.51 592.67 132.32 593.76 134.25 C 594.34 137.12 594.56 141.30 591.05 142.33 C 588.98 142.33 587.11 141.28 585.19 140.69 C 584.44 137.59 584.50 133.34 587.93 131.88 M 585.97 137.92 C 586.75 138.99 588.36 141.73 589.61 139.59 C 590.14 137.29 589.45 134.97 587.98 133.17 C 586.67 134.23 584.42 136.09 585.97 137.92 M 592.30 136.05 C 590.91 136.54 590.63 138.61 591.43 139.71 C 593.35 140.68 594.40 136.27 592.30 136.05 Z" />
<path fill="#6f7179" opacity="1.00" d=" M 628.04 133.37 C 631.36 133.39 626.59 136.41 628.04 133.37 Z" />
<path fill="#575556" opacity="1.00" d=" M 585.97 137.92 C 584.42 136.09 586.67 134.23 587.98 133.17 C 589.45 134.97 590.14 137.29 589.61 139.59 C 588.36 141.73 586.75 138.99 585.97 137.92 Z" />
<path fill="#b3585d" opacity="1.00" d=" M 616.50 138.94 C 615.54 136.81 617.02 133.27 619.76 134.28 C 622.47 135.49 621.84 139.51 619.87 141.20 C 618.66 140.66 616.81 140.56 616.50 138.94 Z" />
<path fill="#686566" opacity="1.00" d=" M 595.77 134.45 C 596.60 134.50 598.25 134.59 599.08 134.64 C 599.45 138.45 598.76 142.21 597.42 145.77 C 596.13 145.81 594.93 145.69 594.64 144.20 C 596.97 141.41 596.58 137.75 595.77 134.45 Z" />
<path fill="#605f60" opacity="1.00" d=" M 612.35 135.29 C 613.18 133.93 615.64 135.22 614.55 136.62 C 613.72 138.04 611.28 136.68 612.35 135.29 Z" />
<path fill="#565556" opacity="1.00" d=" M 592.30 136.05 C 594.40 136.27 593.35 140.68 591.43 139.71 C 590.63 138.61 590.91 136.54 592.30 136.05 Z" />
<path fill="#f4d3be" opacity="1.00" d=" M 580.47 140.62 C 580.56 139.44 581.41 138.68 582.24 137.94 C 582.31 138.81 582.43 139.69 582.57 140.56 C 582.05 140.58 580.99 140.61 580.47 140.62 Z" />
<path fill="#666464" opacity="1.00" d=" M 601.64 141.97 C 601.20 138.82 605.26 139.65 607.22 139.68 C 607.48 142.35 602.81 145.14 601.64 141.97 Z" />
<path fill="#6c6b6b" opacity="1.00" d=" M 617.02 143.35 C 620.33 143.52 615.45 146.32 617.02 143.35 Z" />
<path fill="#2f2d2e" opacity="1.00" d=" M 632.16 143.85 C 632.77 144.55 633.39 145.25 634.02 145.96 C 631.84 148.50 631.49 152.58 633.99 155.04 C 637.73 159.33 644.20 163.36 649.86 160.39 C 649.12 155.33 645.57 151.29 641.76 148.15 C 642.53 147.84 644.07 147.22 644.85 146.91 C 648.15 150.73 652.43 154.93 651.74 160.45 C 651.84 162.93 649.39 164.76 647.06 164.66 C 639.09 165.12 631.24 158.95 629.50 151.21 L 627.93 152.76 C 629.66 149.95 630.90 146.88 632.16 143.85 Z" />
<path fill="#5f5e5e" opacity="1.00" d=" M 584.21 145.81 C 585.82 145.28 586.34 145.85 585.78 147.51 C 584.17 148.03 583.65 147.46 584.21 145.81 Z" />
<path fill="#212020" opacity="1.00" d=" M 705.30 145.98 C 706.02 145.87 707.46 145.64 708.18 145.53 C 712.37 145.95 716.57 146.61 720.50 148.16 C 721.03 149.04 721.87 149.85 721.87 150.96 C 722.31 158.98 721.19 167.07 722.49 175.06 C 721.26 175.58 720.13 176.77 718.71 176.37 C 713.65 175.44 708.62 174.05 704.12 171.51 C 705.19 171.24 706.28 170.97 707.37 170.71 C 705.52 166.62 706.71 162.14 706.16 157.85 C 705.68 153.91 705.51 149.94 705.30 145.98 Z" />
<path fill="#737171" opacity="1.00" d=" M 590.00 147.43 C 590.43 147.36 591.29 147.24 591.72 147.18 C 591.87 147.63 592.17 148.54 592.33 149.00 C 591.47 151.69 588.71 149.25 590.00 147.43 Z" />
<path fill="#090808" opacity="1.00" d=" M 689.17 152.12 C 689.39 149.55 692.23 150.42 693.61 151.33 C 695.90 152.69 700.25 154.08 698.44 157.55 C 695.64 155.23 691.60 154.83 689.17 152.12 Z" />
<path fill="#7f1722" opacity="0.63" d=" M 357.78 381.19 C 359.23 378.43 362.18 376.99 365.02 376.05 C 368.19 375.37 371.13 377.14 373.58 378.94 C 373.17 379.20 372.35 379.72 371.94 379.98 C 371.83 379.83 371.62 379.52 371.51 379.37 L 370.89 378.96 C 368.34 377.16 364.70 377.19 362.16 378.99 L 361.69 379.31 L 361.44 379.50 L 361.23 379.75 C 360.79 380.16 359.90 380.97 359.45 381.38 C 359.00 381.36 358.10 381.32 357.65 381.30 L 357.78 381.19 Z" />
<path fill="#4a4b4c" opacity="0.66" d=" M 354.24 377.22 C 354.67 377.18 355.52 377.12 355.95 377.08 L 356.03 377.85 C 355.61 377.88 354.77 377.95 354.35 377.98 L 354.24 377.22 Z" />
<path fill="#f4d3be" opacity="1.00" d=" M 351.16 381.97 C 351.98 380.53 352.30 378.09 354.35 377.98 C 354.77 377.95 355.61 377.88 356.03 377.85 C 357.57 378.35 358.15 379.47 357.78 381.19 L 357.65 381.30 C 356.37 381.38 355.09 381.51 353.83 381.69 C 355.06 382.18 356.40 382.41 357.60 383.01 C 357.08 383.46 356.05 384.35 355.53 384.80 C 355.67 385.38 355.94 386.54 356.08 387.12 L 356.64 387.83 C 356.21 388.44 355.35 389.65 354.92 390.25 L 354.71 389.92 C 354.57 387.98 354.35 386.00 354.80 384.09 C 353.28 383.96 352.09 383.12 351.16 381.97 Z" />
<path fill="#673611" opacity="1.00" d=" M 373.58 378.94 C 374.99 377.77 377.00 377.87 378.66 378.39 C 379.65 379.62 379.58 381.27 379.82 382.76 C 378.58 381.51 377.42 382.80 376.31 383.25 C 376.48 381.91 376.01 380.83 374.91 379.99 C 374.72 380.48 374.35 381.47 374.16 381.96 C 373.42 381.29 372.68 380.63 371.94 379.98 C 372.35 379.72 373.17 379.20 373.58 378.94 Z" />
<path fill="#0d5a1a" opacity="0.45" d=" M 361.44 379.50 L 361.69 379.31 L 361.46 379.55 L 361.23 379.75 L 361.44 379.50 Z" />
<path fill="#4adc54" opacity="0.93" d=" M 361.69 379.31 L 362.16 378.99 C 363.05 378.79 364.81 378.39 365.69 378.19 C 365.27 380.94 361.72 381.17 360.22 383.24 C 361.07 383.43 362.78 383.82 363.64 384.01 C 361.97 385.05 360.49 386.35 358.91 387.51 L 357.43 386.39 C 357.99 384.68 358.52 382.93 359.45 381.38 C 359.90 380.97 360.79 380.16 361.23 379.75 L 361.46 379.55 L 361.69 379.31 Z" />
<path fill="#3ce546" opacity="0.97" d=" M 367.01 378.29 C 367.98 378.46 369.92 378.79 370.89 378.96 L 371.51 379.37 L 371.66 379.74 L 371.94 379.98 C 372.68 380.63 373.42 381.29 374.16 381.96 C 374.30 383.33 374.43 384.71 374.54 386.09 C 374.24 385.84 373.65 385.35 373.36 385.10 C 372.63 384.03 371.97 382.93 371.28 381.85 C 370.46 380.33 368.61 379.75 367.00 379.95 L 367.01 378.29 Z" />
<path fill="#0e6a1d" opacity="0.46" d=" M 371.51 379.37 C 371.62 379.52 371.83 379.83 371.94 379.98 L 371.66 379.74 L 371.51 379.37 Z" />
<path fill="#253211" opacity="0.40" d=" M 367.00 379.95 C 368.61 379.75 370.46 380.33 371.28 381.85 C 369.82 381.82 367.08 381.91 367.00 379.95 Z" />
<path fill="#fffeff" opacity="1.00" d=" M 374.16 381.96 C 374.35 381.47 374.72 380.48 374.91 379.99 C 376.01 380.83 376.48 381.91 376.31 383.25 C 377.42 382.80 378.58 381.51 379.82 382.76 L 378.72 383.79 C 377.69 384.95 376.30 385.58 374.75 385.67 C 374.78 384.78 374.84 383.01 374.88 382.13 L 374.16 381.96 Z" />
<path fill="#4d4a4d" opacity="1.00" d=" M 374.16 381.96 L 374.88 382.13 C 374.84 383.01 374.78 384.78 374.75 385.67 C 376.30 385.58 377.69 384.95 378.72 383.79 C 378.62 385.91 378.05 388.23 379.06 390.23 C 378.49 389.98 377.36 389.48 376.79 389.23 C 376.72 388.89 376.58 388.20 376.51 387.86 C 376.49 386.29 375.83 385.70 374.54 386.09 C 374.43 384.71 374.30 383.33 374.16 381.96 Z" />
<path fill="#0d0c0d" opacity="1.00" d=" M 355.53 384.80 C 356.05 384.35 357.08 383.46 357.60 383.01 C 357.66 384.47 356.43 387.35 358.47 387.84 L 358.60 388.14 C 358.11 388.06 357.13 387.91 356.64 387.83 L 356.08 387.12 C 355.94 386.54 355.67 385.38 355.53 384.80 Z" />
<path fill="#fffeff" opacity="1.00" d=" M 363.64 384.01 C 364.63 383.87 365.62 383.74 366.61 383.63 C 366.51 384.29 366.30 385.61 366.19 386.27 L 367.36 386.35 L 367.96 386.71 C 367.66 387.16 367.06 388.05 366.76 388.50 C 364.56 388.26 362.34 388.33 360.15 388.46 L 360.48 389.93 C 360.26 389.85 359.81 389.69 359.59 389.60 C 359.34 389.24 358.84 388.50 358.60 388.14 L 358.47 387.84 L 358.91 387.51 C 360.49 386.35 361.97 385.05 363.64 384.01 M 361.05 386.43 C 360.51 387.99 361.10 388.49 362.82 387.92 C 363.34 386.34 362.75 385.85 361.05 386.43 Z" />
<path fill="#48fa51" opacity="1.00" d=" M 366.61 383.63 C 368.75 383.40 371.30 382.94 372.94 384.77 C 371.13 385.46 369.27 386.01 367.36 386.35 L 366.19 386.27 C 366.30 385.61 366.51 384.29 366.61 383.63 Z" />
<path fill="#86c38b" opacity="0.95" d=" M 367.36 386.35 C 369.27 386.01 371.13 385.46 372.94 384.77 L 373.36 385.10 C 373.65 385.35 374.24 385.84 374.54 386.09 C 374.46 386.48 374.29 387.26 374.20 387.65 C 374.00 388.16 373.60 389.18 373.40 389.69 C 372.53 389.36 371.67 389.01 370.83 388.65 L 370.57 388.40 L 370.27 388.20 C 369.69 387.83 368.53 387.08 367.96 386.71 L 367.36 386.35 Z" />
<path fill="#7e7b8d" opacity="0.97" d=" M 361.05 386.43 C 362.75 385.85 363.34 386.34 362.82 387.92 C 361.10 388.49 360.51 387.99 361.05 386.43 Z" />
<path fill="#69d258" opacity="0.95" d=" M 367.96 386.71 C 368.53 387.08 369.69 387.83 370.27 388.20 L 370.49 388.51 L 370.83 388.65 C 371.67 389.01 372.53 389.36 373.40 389.69 C 373.60 389.18 374.00 388.16 374.20 387.65 C 374.48 388.19 375.04 389.28 375.32 389.82 C 374.33 390.95 373.78 392.30 373.66 393.86 C 373.51 393.90 373.22 393.98 373.07 394.03 L 372.69 394.22 L 372.49 394.59 C 371.53 395.12 369.60 396.18 368.64 396.71 C 368.41 396.46 367.95 395.96 367.72 395.71 C 367.87 395.29 368.18 394.44 368.33 394.02 C 369.24 393.82 371.07 393.43 371.98 393.24 C 372.70 392.23 373.43 391.23 374.18 390.25 C 369.62 389.77 364.89 391.32 360.48 389.93 L 360.15 388.46 C 362.34 388.33 364.56 388.26 366.76 388.50 C 367.06 388.05 367.66 387.16 367.96 386.71 Z" />
<path fill="#785339" opacity="0.82" d=" M 356.64 387.83 C 357.13 387.91 358.11 388.06 358.60 388.14 C 358.84 388.50 359.34 389.24 359.59 389.60 C 359.02 389.87 357.87 390.41 357.30 390.68 C 357.55 391.43 358.07 392.93 358.32 393.68 L 357.75 393.43 C 356.76 392.39 355.80 391.37 354.92 390.25 C 355.35 389.65 356.21 388.44 356.64 387.83 Z" />
<path fill="#e5d13f" opacity="0.96" d=" M 370.27 388.20 L 370.57 388.40 L 370.83 388.65 L 370.49 388.51 L 370.27 388.20 Z" />
<path fill="#721112" opacity="0.69" d=" M 376.51 387.86 C 376.58 388.20 376.72 388.89 376.79 389.23 C 377.36 389.48 378.49 389.98 379.06 390.23 C 379.11 390.88 379.21 392.19 379.26 392.84 C 378.59 392.74 377.25 392.56 376.58 392.46 L 375.19 393.32 C 374.81 393.45 374.04 393.72 373.66 393.86 C 373.78 392.30 374.33 390.95 375.32 389.82 C 375.61 389.33 376.21 388.35 376.51 387.86 Z" />
<path fill="#ffffff" opacity="1.00" d=" M 89.30 396.49 C 93.54 387.07 107.43 386.17 114.83 392.22 C 119.78 396.02 119.16 402.94 119.26 408.50 C 114.84 408.50 110.42 408.50 106.00 408.50 C 105.88 405.06 106.37 401.54 105.53 398.17 C 104.67 396.74 103.07 397.33 101.87 397.87 C 101.09 408.54 101.63 419.29 101.56 429.99 C 101.09 432.35 103.59 434.47 105.60 432.66 C 107.21 429.11 106.24 425.04 106.50 421.26 C 105.81 421.26 104.44 421.25 103.75 421.24 C 103.75 418.66 103.75 416.08 103.75 413.51 C 108.92 413.49 114.08 413.49 119.25 413.50 C 119.25 422.67 119.25 431.83 119.25 441.00 C 116.51 441.00 113.78 441.00 111.04 441.00 C 110.68 439.79 110.33 438.58 109.97 437.38 C 105.43 444.97 93.24 442.49 89.87 435.09 C 87.43 429.76 88.49 423.71 88.25 418.03 C 88.49 410.86 87.54 403.52 89.30 396.49 Z" />
<path fill="#ffffff" opacity="1.00" d=" M 134.19 389.17 C 140.18 387.66 147.43 388.39 151.86 393.08 C 155.57 397.10 155.14 402.91 155.26 407.98 C 155.12 415.36 155.55 422.76 154.94 430.12 C 154.65 434.88 151.32 439.17 146.86 440.79 C 142.08 442.55 136.57 442.49 131.89 440.44 C 127.71 438.69 124.77 434.44 124.55 429.92 C 123.95 422.63 124.38 415.30 124.24 407.99 C 124.32 404.31 124.18 400.53 125.30 396.99 C 126.70 393.08 130.23 390.21 134.19 389.17 M 137.87 397.86 C 137.13 403.90 137.66 409.99 137.50 416.06 C 137.66 421.70 137.10 427.39 137.93 433.01 C 139.54 433.53 141.90 433.26 141.80 431.08 C 142.19 420.70 142.01 410.26 141.89 399.87 C 142.14 397.42 139.65 396.60 137.87 397.86 Z" />
<path fill="#ffffff" opacity="1.00" d=" M 174.25 393.36 C 180.91 386.15 194.49 386.84 200.25 394.86 C 202.52 398.99 202.19 403.94 202.26 408.50 C 197.84 408.50 193.42 408.50 188.99 408.50 C 188.88 405.05 189.38 401.52 188.52 398.15 C 187.64 396.77 186.09 397.32 184.89 397.84 C 184.08 404.50 184.68 411.24 184.50 417.93 C 184.67 422.57 184.11 427.27 184.85 431.87 C 185.18 433.79 188.43 433.77 188.95 431.98 C 189.96 428.50 189.33 424.82 189.50 421.26 C 188.81 421.26 187.44 421.25 186.75 421.24 C 186.75 418.66 186.75 416.08 186.75 413.50 C 191.92 413.49 197.08 413.49 202.25 413.50 C 202.25 422.67 202.25 431.83 202.25 441.00 C 199.52 441.00 196.79 441.00 194.06 441.00 C 193.68 439.79 193.31 438.58 192.93 437.39 C 188.76 444.52 177.65 442.76 173.62 436.41 C 171.35 433.11 171.29 428.94 171.24 425.08 C 171.28 418.03 171.18 410.98 171.29 403.93 C 171.55 400.28 171.50 396.15 174.25 393.36 Z" />
<path fill="#ffffff" opacity="1.00" d=" M 244.14 389.19 C 250.13 387.66 257.39 388.38 261.84 393.05 C 265.58 397.07 265.14 402.90 265.26 407.99 C 265.10 415.64 265.62 423.33 264.84 430.96 C 264.21 436.16 259.90 440.32 254.89 441.43 C 247.53 443.37 237.53 441.02 235.10 432.91 C 233.67 426.36 234.45 419.58 234.25 412.93 C 234.36 407.61 233.82 402.15 235.30 396.98 C 236.70 393.10 240.20 390.23 244.14 389.19 M 247.88 397.85 C 247.13 403.52 247.65 409.26 247.50 414.97 C 247.67 420.97 247.10 427.01 247.92 432.99 C 249.51 433.54 251.87 433.27 251.79 431.12 C 252.20 420.75 252.00 410.33 251.90 399.95 C 252.18 397.48 249.70 396.58 247.88 397.85 Z" />
<path fill="#ffff00" opacity="1.00" d=" M 283.92 393.98 C 287.51 389.12 294.19 387.96 299.85 388.65 C 304.61 389.16 309.73 391.66 311.51 396.37 C 313.12 401.41 312.70 406.78 312.76 411.99 C 308.32 411.99 303.89 412.04 299.46 411.95 C 299.44 407.24 299.76 402.52 299.14 397.84 C 297.77 397.22 296.34 397.19 294.96 397.79 C 294.03 404.81 294.70 411.93 294.50 419.00 C 294.66 423.66 294.01 428.40 295.14 432.98 C 296.39 433.23 297.65 433.21 298.90 432.93 C 299.85 428.76 299.42 424.48 299.49 420.25 C 303.91 420.24 308.33 420.25 312.75 420.25 C 312.60 425.36 313.19 430.94 310.69 435.61 C 306.45 441.93 297.73 443.12 290.85 441.23 C 286.46 440.18 282.50 436.62 281.97 431.98 C 280.66 424.38 281.47 416.63 281.24 408.97 C 281.38 403.94 280.64 398.23 283.92 393.98 Z" />
<path fill="#ffffff" opacity="1.00" d=" M 26.75 389.50 C 30.42 389.50 34.09 389.47 37.75 389.54 C 40.27 397.14 42.62 404.80 45.22 412.38 C 45.30 404.75 45.20 397.11 45.27 389.48 C 49.01 389.51 52.76 389.50 56.50 389.50 C 56.54 406.64 56.44 423.79 56.55 440.94 C 52.71 441.04 48.87 440.99 45.03 441.00 C 42.75 433.26 40.12 425.62 38.37 417.75 C 37.61 425.47 38.17 433.25 38.00 441.00 C 34.25 441.00 30.50 441.00 26.75 441.00 C 26.75 423.83 26.75 406.67 26.75 389.50 Z" />
<path fill="#ffffff" opacity="1.00" d=" M 61.75 389.50 C 69.08 389.49 76.41 389.51 83.73 389.49 C 83.76 392.91 83.75 396.33 83.75 399.75 C 80.83 399.75 77.92 399.75 75.00 399.75 C 75.00 403.00 75.00 406.25 75.00 409.50 C 77.75 409.49 80.50 409.49 83.25 409.50 C 83.25 412.75 83.25 416.00 83.25 419.25 C 80.50 419.25 77.75 419.25 75.01 419.24 C 75.00 423.08 74.99 426.92 75.01 430.76 C 78.26 430.74 81.50 430.74 84.75 430.75 C 84.75 434.16 84.75 437.58 84.75 441.00 C 77.08 441.00 69.42 441.00 61.75 441.00 C 61.75 423.83 61.75 406.67 61.75 389.50 Z" />
<path fill="#ffffff" opacity="1.00" d=" M 207.75 389.50 C 215.08 389.49 222.40 389.51 229.73 389.49 C 229.76 392.90 229.75 396.33 229.75 399.75 C 226.83 399.75 223.92 399.75 221.00 399.75 C 221.00 403.00 221.00 406.25 221.00 409.50 C 223.75 409.49 226.50 409.49 229.25 409.51 C 229.25 412.75 229.25 416.00 229.25 419.25 C 226.50 419.25 223.75 419.25 221.01 419.25 C 220.99 423.08 221.00 426.92 221.01 430.75 C 224.25 430.74 227.50 430.75 230.75 430.75 C 230.75 434.16 230.75 437.58 230.75 441.00 C 223.08 441.00 215.42 441.00 207.75 441.00 C 207.75 423.83 207.75 406.67 207.75 389.50 Z" />
<path fill="#ffff00" opacity="1.00" d=" M 317.75 389.50 C 325.52 389.67 333.38 388.93 341.06 390.43 C 345.11 391.25 348.30 394.90 348.47 399.06 C 349.08 407.04 348.60 415.06 348.76 423.06 C 348.71 427.32 349.01 431.68 347.83 435.83 C 346.34 439.75 341.79 440.87 338.02 440.94 C 331.26 441.09 324.50 440.96 317.75 441.00 C 317.75 423.83 317.75 406.67 317.75 389.50 M 331.13 397.98 C 330.84 409.44 331.06 420.92 331.02 432.39 C 333.07 432.29 335.69 431.57 335.33 428.94 C 335.45 418.98 335.94 408.93 335.05 399.01 C 333.74 398.65 332.44 398.27 331.13 397.98 Z" />
<path fill="#560402" opacity="0.46" d=" M 351.88 389.44 C 352.30 389.94 353.14 390.95 353.56 391.46 C 353.85 391.07 354.42 390.30 354.71 389.92 L 354.92 390.25 C 355.80 391.37 356.76 392.39 357.75 393.43 C 356.92 393.38 355.25 393.27 354.41 393.22 C 353.80 393.14 352.56 392.98 351.94 392.90 C 351.93 392.03 351.90 390.30 351.88 389.44 Z" />
<path fill="#862c15" opacity="0.74" d=" M 357.30 390.68 C 357.87 390.41 359.02 389.87 359.59 389.60 C 359.81 389.69 360.26 389.85 360.48 389.93 C 364.89 391.32 369.62 389.77 374.18 390.25 C 373.43 391.23 372.70 392.23 371.98 393.24 C 370.57 391.70 368.55 391.36 366.62 391.02 C 365.32 391.73 363.85 391.51 362.45 391.55 C 361.91 391.75 360.83 392.16 360.29 392.36 C 359.99 392.78 359.39 393.61 359.09 394.02 L 358.32 393.68 C 358.07 392.93 357.55 391.43 357.30 390.68 Z" />
<path fill="#3e0501" opacity="0.31" d=" M 362.45 391.55 C 363.85 391.51 365.32 391.73 366.62 391.02 C 368.55 391.36 370.57 391.70 371.98 393.24 C 368.32 393.57 364.58 393.92 360.94 393.23 L 360.29 392.36 C 360.83 392.16 361.91 391.75 362.45 391.55 Z" />
<path fill="#950000" opacity="0.89" d=" M 380.26 391.26 C 380.51 391.51 380.51 391.51 380.26 391.26 Z" />
<path fill="#ffffff" opacity="1.00" d=" M 359.09 394.02 C 359.39 393.61 359.99 392.78 360.29 392.36 L 360.94 393.23 L 361.05 394.27 L 360.37 394.45 C 360.05 394.34 359.41 394.13 359.09 394.02 Z" />
<path fill="#ffff00" opacity="1.00" d=" M 354.41 393.22 C 355.25 393.27 356.92 393.38 357.75 393.43 L 358.32 393.68 L 359.09 394.02 C 359.41 394.13 360.05 394.34 360.37 394.45 L 359.21 394.48 L 358.24 394.38 C 356.96 394.25 355.68 394.33 354.40 394.38 C 354.41 394.09 354.41 393.51 354.41 393.22 Z" />
<path fill="#ffff00" opacity="1.00" d=" M 360.94 393.23 C 364.58 393.92 368.32 393.57 371.98 393.24 C 371.07 393.43 369.24 393.82 368.33 394.02 C 368.18 394.44 367.87 395.29 367.72 395.71 C 367.30 395.20 366.88 394.69 366.48 394.18 L 365.30 394.50 C 364.08 394.37 362.88 394.46 361.69 394.78 C 361.53 394.66 361.21 394.40 361.05 394.27 L 360.94 393.23 Z" />
<path fill="#ffff00" opacity="1.00" d=" M 373.07 394.03 C 373.22 393.98 373.51 393.90 373.66 393.86 C 374.04 393.72 374.81 393.45 375.19 393.32 C 375.85 393.30 377.16 393.26 377.82 393.24 C 377.83 393.53 377.85 394.11 377.86 394.40 C 377.14 394.35 375.69 394.25 374.97 394.21 C 374.49 394.16 373.54 394.07 373.07 394.03 Z" />
<path fill="#73de67" opacity="0.93" d=" M 361.69 394.78 C 362.88 394.46 364.08 394.37 365.30 394.50 C 366.72 397.20 362.46 396.27 361.69 394.78 Z" />
<path fill="#2b5011" opacity="0.31" d=" M 372.69 394.22 L 373.07 394.03 L 373.04 394.59 L 372.49 394.59 L 372.69 394.22 Z" />
<path fill="#b3585d" opacity="1.00" d=" M 373.07 394.03 C 373.54 394.07 374.49 394.16 374.97 394.21 C 372.96 396.63 370.18 398.35 367.10 399.02 C 364.35 399.17 362.02 397.41 359.74 396.15 C 358.79 396.29 357.84 396.44 356.90 396.60 C 357.58 396.43 358.93 396.10 359.60 395.93 L 358.24 394.38 L 359.21 394.48 C 361.35 395.79 363.39 397.76 366.08 397.68 C 368.46 397.91 370.59 396.69 372.71 395.80 L 372.49 394.59 L 373.04 394.59 L 373.07 394.03 Z" />
</svg>
