<?xml version="1.0" encoding="UTF-8" ?>
<!DOCTYPE svg PUBLIC "-//W3C//DTD SVG 1.1//EN" "http://www.w3.org/Graphics/SVG/1.1/DTD/svg11.dtd">
<svg width="960pt" height="540pt" viewBox="0 0 960 540" version="1.1" xmlns="http://www.w3.org/2000/svg">
<path fill="#ffffff" opacity="1.00" d=" M 451.45 67.61 C 455.45 66.33 460.55 67.41 462.83 71.19 C 465.19 75.02 464.43 79.74 464.63 84.02 C 464.39 90.04 465.20 96.18 463.87 102.10 C 462.00 109.18 451.35 110.58 447.18 104.87 C 444.82 101.76 445.11 97.68 445.00 94.00 C 445.09 87.93 444.77 81.85 445.26 75.80 C 445.53 72.19 447.86 68.63 451.45 67.61 M 453.90 73.72 C 453.23 82.84 453.29 92.11 453.83 101.22 L 454.92 101.82 L 455.82 101.08 C 456.34 92.21 456.28 83.22 455.86 74.34 C 455.37 74.19 454.39 73.88 453.90 73.72 Z" />
<path fill="#ffff26" opacity="1.00" d=" M 564.46 67.60 C 569.14 65.99 575.20 68.08 576.75 73.07 C 578.22 78.21 577.40 83.69 577.63 88.97 C 577.38 93.96 578.37 99.34 576.05 103.98 C 572.29 110.84 560.18 109.45 558.59 101.56 C 557.48 93.76 558.12 85.81 558.09 77.95 C 557.93 73.67 560.03 68.84 564.46 67.60 M 566.88 73.73 C 566.08 80.47 566.69 87.27 566.49 94.04 C 566.66 96.83 565.78 100.01 567.90 102.29 C 568.17 101.75 568.70 100.67 568.97 100.13 C 569.34 93.11 569.00 86.07 569.14 79.04 C 568.88 77.06 569.96 73.62 566.88 73.73 Z" />
<path fill="#ffff26" opacity="1.00" d=" M 655.88 71.87 C 659.24 65.25 670.50 65.55 673.44 72.40 C 674.82 76.48 674.43 80.88 674.51 85.12 C 671.66 85.13 668.83 85.13 666.00 85.13 C 666.00 81.37 666.11 77.61 665.72 73.88 C 662.44 73.29 663.06 76.79 662.98 78.99 C 663.02 85.33 662.96 91.68 663.01 98.03 C 663.19 99.23 662.75 101.09 664.16 101.69 C 665.19 101.74 665.75 101.25 665.82 100.21 C 666.15 97.36 665.97 94.48 666.00 91.62 C 668.84 91.62 671.68 91.62 674.53 91.63 C 674.38 95.50 674.78 99.58 673.28 103.24 C 670.09 110.34 657.72 110.18 655.38 102.52 C 653.92 96.47 654.69 90.19 654.49 84.03 C 654.63 79.98 653.99 75.62 655.88 71.87 Z" />
<path fill="#ffffff" opacity="1.00" d=" M 467.75 68.00 C 472.51 68.24 477.49 67.33 482.10 68.84 C 485.78 70.21 486.00 74.68 486.00 78.00 C 485.86 81.64 486.55 85.59 484.91 88.98 C 483.05 91.82 479.27 91.64 476.28 91.64 C 476.22 96.92 476.25 102.20 476.26 107.48 C 473.41 107.51 470.57 107.51 467.73 107.47 C 467.77 94.31 467.74 81.16 467.75 68.00 M 476.35 85.25 C 477.91 84.91 479.14 83.87 478.85 82.11 C 478.67 79.40 480.00 75.37 476.53 74.24 C 476.04 77.89 476.24 81.58 476.35 85.25 Z" />
<path fill="#ffffff" opacity="1.00" d=" M 488.75 68.00 C 493.46 68.00 498.17 67.99 502.88 68.01 C 502.87 70.63 502.87 73.25 502.88 75.88 C 501.00 75.87 499.12 75.87 497.25 75.87 C 497.25 78.37 497.25 80.87 497.25 83.37 C 498.99 83.37 500.75 83.38 502.50 83.38 C 502.49 85.87 502.50 88.36 502.52 90.85 C 500.76 90.88 499.00 90.86 497.25 90.89 C 497.25 93.80 497.25 96.72 497.26 99.63 C 499.34 99.62 501.41 99.62 503.50 99.62 C 503.50 102.25 503.50 104.87 503.51 107.50 C 498.58 107.50 493.66 107.52 488.74 107.48 C 488.76 94.32 488.74 81.16 488.75 68.00 Z" />
<path fill="#ffffff" opacity="1.00" d=" M 505.75 68.00 C 509.41 68.00 513.08 67.99 516.74 68.02 C 517.38 74.02 518.29 79.99 518.78 86.00 C 519.86 80.05 520.14 73.99 520.91 68.00 C 524.56 68.00 528.22 68.00 531.88 68.01 C 531.87 81.17 531.86 94.33 531.88 107.49 C 529.42 107.50 526.96 107.50 524.50 107.50 C 524.54 98.96 524.39 90.41 524.63 81.87 C 523.07 90.34 522.60 98.96 521.49 107.50 C 519.74 107.50 518.00 107.50 516.26 107.50 C 515.26 98.95 514.15 90.42 513.39 81.84 C 512.82 90.40 513.38 98.98 513.00 107.54 C 510.57 107.51 508.15 107.50 505.73 107.46 C 505.77 94.31 505.74 81.15 505.75 68.00 Z" />
<path fill="#ffff26" opacity="1.00" d=" M 535.23 68.02 C 540.15 68.21 545.27 67.34 550.04 68.86 C 554.78 71.17 554.62 77.43 554.18 81.92 C 554.16 84.19 552.07 85.25 550.32 86.11 C 551.91 86.88 553.78 87.66 554.32 89.53 C 555.39 93.29 555.03 97.29 554.87 101.15 C 554.75 103.59 553.71 106.60 550.96 107.06 C 545.76 107.88 540.46 107.39 535.22 107.46 C 535.28 94.32 535.25 81.17 535.23 68.02 M 543.84 75.37 C 543.59 78.15 543.78 80.95 543.79 83.75 C 544.55 83.52 545.31 83.26 546.07 82.97 C 546.61 80.45 546.97 77.57 545.83 75.16 C 545.10 74.91 544.04 74.13 543.84 75.37 M 543.78 89.39 C 543.73 93.24 543.73 97.09 543.77 100.95 C 547.15 100.92 546.41 97.34 546.54 95.02 C 546.47 92.75 547.01 89.40 543.78 89.39 Z" />
<path fill="#ffff26" opacity="1.00" d=" M 580.75 68.00 C 585.64 68.14 590.67 67.54 595.47 68.76 C 599.29 70.52 599.65 75.31 599.65 79.00 C 599.73 82.10 599.37 86.55 595.35 86.72 C 597.07 87.70 599.03 88.90 599.36 91.04 C 599.93 96.50 599.49 102.02 599.62 107.51 C 596.99 107.51 594.36 107.51 591.73 107.46 C 591.60 101.80 592.10 96.10 591.45 90.47 C 590.91 90.18 589.83 89.62 589.29 89.34 C 589.20 95.39 589.27 101.45 589.25 107.50 C 586.41 107.50 583.58 107.50 580.75 107.50 C 580.75 94.33 580.75 81.17 580.75 68.00 M 589.41 74.32 C 589.17 77.51 589.18 80.72 589.39 83.92 C 590.09 83.28 591.61 83.17 591.61 81.99 C 591.74 79.31 592.73 75.39 589.41 74.32 Z" />
<path fill="#ffff26" opacity="1.00" d=" M 610.75 68.00 C 613.58 68.00 616.41 68.00 619.25 68.00 C 619.25 72.70 619.25 77.41 619.24 82.11 C 619.87 82.11 621.13 82.10 621.76 82.10 C 621.74 77.40 621.75 72.70 621.75 68.00 C 624.58 68.00 627.41 68.00 630.25 68.00 C 630.25 81.17 630.25 94.33 630.25 107.50 C 627.41 107.50 624.58 107.50 621.75 107.50 C 621.75 101.95 621.74 96.40 621.75 90.84 C 621.12 90.87 619.86 90.91 619.24 90.94 C 619.26 96.46 619.24 101.98 619.25 107.50 C 616.41 107.50 613.58 107.50 610.75 107.50 C 610.75 94.33 610.75 81.17 610.75 68.00 Z" />
<path fill="#ffff26" opacity="1.00" d=" M 636.14 68.01 C 640.23 68.01 644.32 67.93 648.42 68.09 C 649.94 81.22 651.60 94.33 653.28 107.44 C 650.36 107.52 647.45 107.51 644.55 107.51 C 644.38 105.12 644.22 102.73 643.99 100.36 C 643.27 100.35 641.83 100.33 641.11 100.32 C 640.90 102.71 640.74 105.11 640.58 107.51 C 637.63 107.50 634.69 107.50 631.76 107.50 C 633.22 94.34 634.68 81.17 636.14 68.01 M 640.95 93.37 C 641.65 93.38 643.07 93.38 643.77 93.38 C 643.35 87.91 643.02 82.44 642.55 76.98 C 641.93 82.44 641.42 87.90 640.95 93.37 Z" />
<path fill="#ffff26" opacity="1.00" d=" M 677.75 68.00 C 680.58 68.00 683.41 68.00 686.25 68.00 C 686.28 73.03 686.13 78.06 686.41 83.08 C 687.55 78.03 688.90 73.03 690.15 68.00 C 692.78 68.00 695.41 68.00 698.05 68.00 C 696.49 73.99 694.57 79.89 693.24 85.93 C 694.77 93.16 696.73 100.30 698.43 107.50 C 695.50 107.50 692.58 107.50 689.66 107.49 C 688.57 101.98 687.43 96.48 686.35 90.97 C 686.16 96.47 686.26 101.96 686.27 107.46 C 683.42 107.51 680.58 107.51 677.74 107.48 C 677.76 94.32 677.74 81.16 677.75 68.00 Z" />
<path fill="#451e17" opacity="0.41" d=" M 277.47 287.77 C 278.58 287.03 279.70 286.32 280.82 285.61 C 281.93 286.46 283.03 287.35 284.00 288.36 C 283.21 288.30 281.62 288.17 280.82 288.11 L 280.14 288.05 C 279.48 287.98 278.14 287.84 277.47 287.77 Z" />
<path fill="#47a84a" opacity="0.73" d=" M 276.81 287.70 L 277.47 287.77 C 278.14 287.84 279.48 287.98 280.14 288.05 C 279.62 288.39 278.56 289.06 278.03 289.39 C 278.71 290.47 279.39 291.55 280.08 292.63 C 279.66 293.31 279.24 294.00 278.82 294.69 C 279.20 295.01 279.97 295.66 280.35 295.98 C 279.71 295.98 278.44 295.99 277.81 295.99 C 276.95 293.59 277.01 291.02 276.85 288.52 L 276.81 287.70 Z" />
<path fill="#3db141" opacity="0.75" d=" M 280.82 288.11 C 281.62 288.17 283.21 288.30 284.00 288.36 L 284.41 288.40 C 284.14 289.17 283.60 290.70 283.33 291.46 C 283.85 293.01 284.11 294.60 283.03 296.00 C 282.41 295.99 281.17 295.99 280.54 295.98 C 281.13 295.61 282.29 294.86 282.88 294.48 C 282.21 294.25 280.88 293.78 280.21 293.55 C 280.32 292.34 280.43 291.14 280.53 289.93 C 281.22 289.93 282.60 289.91 283.29 289.91 C 282.46 289.31 281.64 288.71 280.82 288.11 Z" />
<path fill="#463425" opacity="0.40" d=" M 274.74 291.97 C 275.44 290.82 276.14 289.67 276.85 288.52 C 277.01 291.02 276.95 293.59 277.81 295.99 C 278.44 295.99 279.71 295.98 280.35 295.98 L 280.54 295.98 C 281.17 295.99 282.41 295.99 283.03 296.00 C 284.11 294.60 283.85 293.01 283.33 291.46 C 283.60 290.70 284.14 289.17 284.41 288.40 C 284.98 289.60 285.55 290.80 286.13 292.00 C 285.09 294.68 283.41 297.88 280.12 297.93 C 277.17 297.25 275.88 294.44 274.74 291.97 Z" />
<path fill="#ffffff" opacity="1.00" d=" M 23.49 292.71 C 29.15 289.54 37.39 293.08 37.81 299.86 C 38.29 308.26 38.38 316.74 37.74 325.13 C 37.13 330.22 31.90 333.70 26.95 332.82 C 22.42 332.51 18.87 328.41 18.73 323.95 C 18.32 316.65 18.46 309.31 18.62 302.00 C 18.62 298.38 20.09 294.42 23.49 292.71 M 27.14 299.78 C 26.80 306.85 27.11 313.94 26.98 321.02 C 27.18 323.00 26.28 326.13 29.12 326.45 C 30.04 321.68 29.48 316.80 29.62 311.97 C 29.51 307.77 29.88 303.54 29.42 299.36 C 29.24 297.60 27.06 298.35 27.14 299.78 Z" />
<path fill="#ffff00" opacity="1.00" d=" M 136.49 292.71 C 142.15 289.54 150.38 293.08 150.81 299.85 C 151.29 308.25 151.38 316.74 150.74 325.13 C 150.11 330.66 144.05 334.10 138.86 332.62 C 134.77 331.90 131.90 327.98 131.73 323.94 C 131.30 316.97 131.51 309.98 131.56 303.01 C 131.49 299.09 132.72 294.59 136.49 292.71 M 140.14 299.82 C 139.79 306.87 140.11 313.94 139.98 321.00 C 140.17 322.98 139.31 326.09 142.11 326.48 C 143.03 321.71 142.49 316.83 142.62 312.01 C 142.51 307.79 142.89 303.54 142.41 299.35 C 142.24 297.55 140.01 298.39 140.14 299.82 Z" />
<path fill="#ffff00" opacity="1.00" d=" M 184.26 292.49 C 187.08 292.50 189.91 292.50 192.74 292.49 C 192.75 297.17 192.78 301.86 192.71 306.55 C 193.57 306.56 194.42 306.57 195.28 306.57 C 195.23 301.88 195.25 297.18 195.26 292.49 C 198.09 292.50 200.91 292.50 203.74 292.49 C 203.77 305.65 203.72 318.82 203.76 331.98 C 200.92 332.01 198.07 332.01 195.23 331.97 C 195.28 326.44 195.23 320.92 195.26 315.40 C 194.63 315.39 193.37 315.39 192.74 315.39 C 192.76 320.91 192.72 326.44 192.77 331.97 C 189.92 332.01 187.07 332.01 184.23 331.97 C 184.28 318.81 184.23 305.65 184.26 292.49 Z" />
<path fill="#ffff00" opacity="1.00" d=" M 209.64 292.50 C 213.69 292.49 217.74 292.52 221.79 292.46 C 223.54 305.63 225.09 318.82 226.74 332.00 C 223.83 332.00 220.93 332.00 218.03 332.00 C 217.87 329.62 217.72 327.25 217.58 324.87 C 216.82 324.87 215.31 324.87 214.55 324.87 C 214.40 327.25 214.25 329.62 214.09 332.00 C 211.15 332.00 208.20 332.00 205.26 332.00 C 206.71 318.83 208.19 305.67 209.64 292.50 M 214.43 317.84 C 215.38 317.84 216.34 317.83 217.31 317.82 C 217.00 312.29 216.04 306.77 216.52 301.24 C 214.90 306.59 215.20 312.32 214.43 317.84 Z" />
<path fill="#ffff00" opacity="1.00" d=" M 233.00 292.74 C 237.75 290.29 244.88 291.73 246.99 297.04 C 248.33 301.09 247.96 305.45 247.96 309.66 C 245.14 309.62 242.31 309.62 239.49 309.62 C 239.42 306.07 239.75 302.49 239.22 298.96 C 237.92 297.21 235.99 299.38 236.56 301.03 C 236.68 309.31 235.99 317.69 236.95 325.93 C 237.47 325.94 238.52 325.96 239.04 325.97 C 239.79 322.75 239.44 319.43 239.47 316.16 C 242.31 316.11 245.16 316.11 248.01 316.12 C 247.88 319.98 248.29 324.08 246.78 327.73 C 244.04 333.64 235.20 334.57 230.73 330.19 C 228.15 327.53 228.24 323.54 228.02 320.10 C 228.05 313.70 227.83 307.29 228.16 300.90 C 228.28 297.60 230.00 294.28 233.00 292.74 Z" />
<path fill="#ffffff" opacity="1.00" d=" M 41.24 331.98 C 41.32 318.81 41.15 305.63 41.32 292.45 C 46.64 293.04 52.86 291.09 57.47 294.53 C 60.77 299.22 59.30 305.58 59.24 310.96 C 58.94 315.74 53.50 316.42 49.74 316.19 C 49.77 321.45 49.72 326.70 49.78 331.96 C 46.93 332.01 44.09 332.01 41.24 331.98 M 49.77 299.07 C 49.74 302.60 49.72 306.13 49.79 309.67 C 50.31 309.45 51.35 309.02 51.87 308.81 C 52.75 305.95 52.57 302.78 51.99 299.88 C 51.43 299.68 50.32 299.27 49.77 299.07 Z" />
<path fill="#ffffff" opacity="1.00" d=" M 62.23 331.97 C 62.33 318.80 62.14 305.62 62.32 292.45 C 67.01 292.54 71.69 292.48 76.38 292.50 C 76.38 295.12 76.38 297.75 76.38 300.37 C 74.50 300.37 72.63 300.37 70.75 300.38 C 70.75 302.85 70.75 305.33 70.70 307.80 C 72.47 307.85 74.24 307.87 76.01 307.90 C 76.01 310.41 76.01 312.93 75.91 315.44 C 74.19 315.40 72.47 315.37 70.75 315.35 C 70.75 318.27 70.75 321.20 70.75 324.12 C 72.83 324.12 74.91 324.12 77.00 324.12 C 77.00 326.74 77.00 329.37 77.00 332.00 C 72.08 331.99 67.15 332.03 62.23 331.97 Z" />
<path fill="#ffffff" opacity="1.00" d=" M 79.23 331.98 C 79.34 318.79 79.11 305.61 79.35 292.43 C 82.98 292.54 86.61 292.49 90.24 292.51 C 91.02 298.43 91.45 304.39 92.56 310.26 C 93.14 304.34 93.76 298.42 94.40 292.50 C 98.06 292.50 101.72 292.50 105.38 292.50 C 105.38 305.67 105.38 318.83 105.38 332.00 C 102.92 332.00 100.46 332.00 98.00 332.00 C 97.91 323.30 98.31 314.58 97.49 305.91 C 97.10 314.64 95.94 323.31 94.99 331.99 C 93.25 332.00 91.51 332.00 89.78 332.03 C 88.56 323.36 88.01 314.60 86.43 305.98 C 86.82 314.65 86.54 323.33 86.62 332.00 C 84.16 332.00 81.69 332.00 79.23 331.98 Z" />
<path fill="#ffff00" opacity="1.00" d=" M 108.75 292.50 C 113.71 292.73 118.88 291.82 123.68 293.41 C 128.19 295.74 128.06 301.69 127.74 306.04 C 127.78 308.31 125.95 309.73 124.00 310.43 C 129.14 312.41 128.61 318.46 128.52 322.97 C 128.41 325.96 128.41 330.24 125.00 331.41 C 119.66 332.53 114.16 331.79 108.75 332.00 C 108.75 318.83 108.75 305.67 108.75 292.50 M 117.33 298.92 C 117.22 302.03 117.23 305.13 117.27 308.24 C 117.84 308.05 118.97 307.68 119.54 307.49 C 120.06 304.65 121.27 299.66 117.33 298.92 M 117.32 313.81 C 117.23 317.77 117.21 321.74 117.28 325.70 C 118.14 325.25 118.99 324.78 119.79 324.24 C 120.13 321.15 120.18 318.00 119.73 314.92 C 118.96 314.48 118.15 314.11 117.32 313.81 Z" />
<path fill="#ffff00" opacity="1.00" d=" M 154.24 331.98 C 154.32 318.80 154.13 305.62 154.34 292.44 C 159.15 292.67 164.07 292.07 168.81 293.20 C 172.25 294.57 173.04 298.73 173.12 302.03 C 173.22 305.49 173.45 310.51 169.08 311.39 C 170.88 312.32 172.74 313.69 172.92 315.89 C 173.38 321.24 173.01 326.63 173.13 332.00 C 170.49 332.00 167.86 332.00 165.23 331.98 C 165.11 326.31 165.59 320.62 164.96 314.98 C 164.42 314.67 163.36 314.04 162.82 313.72 C 162.68 319.80 162.76 325.89 162.77 331.98 C 159.92 332.00 157.08 332.00 154.24 331.98 M 162.79 298.99 C 162.75 301.92 162.66 304.84 162.77 307.77 C 164.07 308.53 165.19 307.36 165.17 306.04 C 165.22 303.52 166.21 299.54 162.79 298.99 Z" />
<path fill="#ffff00" opacity="1.00" d=" M 251.23 331.98 C 251.33 318.80 251.12 305.61 251.34 292.44 C 254.14 292.50 256.94 292.50 259.75 292.50 C 259.76 297.37 259.74 302.24 259.74 307.11 C 261.36 302.33 262.34 297.37 263.65 292.51 C 266.28 292.49 268.92 292.49 271.55 292.50 C 269.99 298.39 268.18 304.21 266.76 310.12 C 268.12 317.48 270.23 324.69 271.95 331.98 C 269.01 332.00 266.08 332.00 263.15 332.00 C 262.02 326.63 261.18 321.20 259.74 315.91 C 259.74 321.27 259.76 326.64 259.75 332.00 C 256.91 332.00 254.07 332.00 251.23 331.98 Z" />
</svg>
