<?xml version="1.0" encoding="UTF-8" ?>
<!DOCTYPE svg PUBLIC "-//W3C//DTD SVG 1.1//EN" "http://www.w3.org/Graphics/SVG/1.1/DTD/svg11.dtd">
<svg width="1280pt" height="720pt" viewBox="0 0 1280 720" version="1.1" xmlns="http://www.w3.org/2000/svg">
<path fill="#da712c" opacity="1.00" d=" M 582.02 69.54 C 585.20 69.16 589.36 71.23 590.91 67.23 C 592.00 68.34 593.69 69.05 594.34 70.52 C 595.02 74.58 593.46 79.00 595.43 82.81 C 597.01 84.29 599.10 85.07 600.96 86.15 C 598.45 89.56 593.48 90.02 589.90 88.17 C 587.19 86.84 586.80 83.39 584.46 81.66 C 581.29 79.09 578.17 76.45 575.04 73.84 C 576.98 71.92 579.11 69.71 582.02 69.54 Z" />
<path fill="#de8431" opacity="1.00" d=" M 599.13 67.75 C 601.54 69.32 603.72 71.31 606.45 72.31 C 610.38 73.86 614.81 74.94 617.55 78.44 C 621.51 82.10 622.14 87.68 624.35 92.35 C 622.61 97.19 618.46 100.45 615.61 104.58 C 614.07 106.87 611.80 108.45 609.34 109.62 C 609.19 105.36 610.11 101.07 609.38 96.84 C 606.98 91.87 605.21 86.53 601.82 82.10 C 598.78 78.06 596.94 72.62 599.13 67.75 Z" />
<path fill="#de8430" opacity="1.00" d=" M 614.57 68.36 C 619.30 69.01 624.39 69.72 628.25 72.78 C 629.69 74.42 630.21 76.62 630.44 78.74 C 627.26 81.15 626.83 85.13 626.58 88.82 C 625.06 86.85 623.53 84.87 622.42 82.64 C 621.33 80.15 621.27 77.35 620.19 74.86 C 618.66 72.42 616.30 70.64 614.57 68.36 Z" />
<path fill="#cbddee" opacity="1.00" d=" M 641.76 71.04 C 648.17 73.58 654.29 76.85 660.45 79.96 L 660.45 80.13 C 660.08 80.37 659.32 80.86 658.95 81.11 C 658.51 81.24 657.62 81.51 657.17 81.65 C 652.06 78.08 646.65 74.92 641.76 71.04 Z" />
<path fill="#8b6635" opacity="1.00" d=" M 660.45 79.96 C 660.79 80.19 661.47 80.65 661.81 80.88 C 661.57 82.08 661.29 83.27 661.03 84.46 L 660.72 85.94 C 661.98 87.80 663.44 89.52 665.03 91.11 C 664.66 91.32 663.92 91.72 663.55 91.92 C 663.67 92.64 663.90 94.08 664.02 94.80 C 662.62 92.61 660.94 90.44 660.56 87.81 C 660.25 85.26 660.47 82.68 660.45 80.13 L 660.45 79.96 Z" />
<path fill="#de9b31" opacity="1.00" d=" M 628.21 98.58 C 629.98 92.68 628.15 85.50 633.05 80.79 C 635.20 79.86 636.54 81.83 637.70 83.29 C 638.68 84.50 639.67 85.71 640.69 86.92 C 642.28 85.93 643.88 84.95 645.50 83.98 C 645.39 86.44 645.25 88.91 645.02 91.37 C 644.99 91.66 644.92 92.24 644.89 92.54 C 644.42 92.80 643.48 93.34 643.01 93.61 L 642.39 94.27 C 642.15 94.53 641.68 95.04 641.45 95.30 C 640.05 96.64 639.55 98.53 639.03 100.33 C 640.34 101.04 641.66 101.76 643.02 102.42 L 643.80 102.00 C 644.42 101.61 645.66 100.84 646.28 100.46 C 647.44 101.07 648.61 101.68 649.79 102.29 C 648.93 103.60 648.07 104.91 647.23 106.22 C 647.09 106.43 646.81 106.87 646.68 107.09 C 646.38 110.95 646.40 114.83 646.61 118.69 C 646.36 118.70 645.84 118.71 645.59 118.71 C 645.66 116.92 645.75 115.13 645.83 113.34 C 645.61 111.12 646.79 107.92 644.43 106.58 C 641.95 105.92 639.34 106.11 636.80 105.99 C 636.82 110.13 636.82 114.27 636.92 118.41 C 636.54 118.51 635.80 118.71 635.42 118.82 C 634.64 121.29 634.78 123.89 634.56 126.44 C 634.18 123.98 633.92 121.50 633.70 119.02 C 637.56 116.63 636.08 111.71 636.32 107.93 C 634.05 106.36 631.09 104.34 628.42 106.31 C 625.08 107.86 625.86 112.04 625.96 115.03 C 625.88 116.42 626.93 117.35 627.85 118.23 C 627.63 118.39 627.20 118.72 626.99 118.89 L 626.40 119.40 C 626.22 122.83 626.25 126.27 626.53 129.70 C 625.92 129.61 624.71 129.45 624.10 129.36 C 619.86 133.54 615.85 138.00 611.06 141.58 C 611.35 142.01 611.93 142.88 612.22 143.31 C 609.97 143.64 607.72 143.98 605.47 144.33 C 605.50 144.58 605.55 145.08 605.58 145.33 L 605.61 145.67 C 602.15 146.55 597.91 147.63 594.87 145.12 C 590.82 141.58 592.96 135.64 593.02 131.00 C 593.29 129.74 593.57 128.49 593.86 127.23 C 595.99 129.11 597.99 131.23 599.02 133.93 C 600.30 138.78 605.09 140.67 609.42 141.96 C 603.75 135.09 604.34 125.80 604.25 117.45 C 605.98 116.01 607.70 114.55 609.41 113.08 C 609.46 113.60 609.55 114.65 609.59 115.17 C 609.49 113.32 609.37 111.47 609.34 109.62 C 611.80 108.45 614.07 106.87 615.61 104.58 C 618.46 100.45 622.61 97.19 624.35 92.35 C 625.21 94.67 626.57 96.74 628.21 98.58 M 610.81 117.14 C 611.16 118.01 611.51 118.88 611.87 119.75 C 614.16 119.71 616.45 119.49 618.75 119.37 C 616.34 117.90 613.62 117.16 610.81 117.14 Z" />
<path fill="#e6ad42" opacity="1.00" d=" M 658.95 81.11 C 659.32 80.86 660.08 80.37 660.45 80.13 C 660.47 82.68 660.25 85.26 660.56 87.81 C 660.94 90.44 662.62 92.61 664.02 94.80 C 665.15 96.56 666.27 98.34 667.26 100.20 C 665.82 101.74 664.45 103.35 663.49 105.23 C 660.10 106.50 656.49 106.31 652.96 106.20 C 651.04 106.18 649.13 106.17 647.23 106.22 C 648.07 104.91 648.93 103.60 649.79 102.29 C 648.61 101.68 647.44 101.07 646.28 100.46 C 646.88 100.06 647.48 99.67 648.09 99.28 L 648.91 98.74 L 650.47 98.88 C 651.75 99.06 652.99 98.91 654.20 98.44 C 654.69 98.78 655.66 99.45 656.15 99.79 C 651.47 95.48 653.36 88.75 655.91 83.83 C 656.90 82.91 657.87 81.94 658.95 81.11 Z" />
<path fill="#5c90cb" opacity="1.00" d=" M 661.81 80.88 C 664.27 82.10 666.70 83.36 669.08 84.75 C 668.38 86.84 667.72 88.95 667.09 91.06 C 666.96 90.89 666.70 90.54 666.57 90.37 C 664.86 88.26 662.95 86.35 661.03 84.46 C 661.29 83.27 661.57 82.08 661.81 80.88 Z" />
<path fill="#6b4c24" opacity="0.73" d=" M 637.70 83.29 C 638.72 84.01 639.75 84.75 640.89 85.33 C 642.53 84.74 644.08 83.89 645.65 83.12 C 646.24 85.89 646.54 88.84 645.02 91.37 C 645.25 88.91 645.39 86.44 645.50 83.98 C 643.88 84.95 642.28 85.93 640.69 86.92 C 639.67 85.71 638.68 84.50 637.70 83.29 Z" />
<path fill="#0c1016" opacity="1.00" d=" M 661.03 84.46 C 662.95 86.35 664.86 88.26 666.57 90.37 C 666.18 90.55 665.41 90.93 665.03 91.11 C 663.44 89.52 661.98 87.80 660.72 85.94 L 661.03 84.46 Z" />
<path fill="#3b79bc" opacity="1.00" d=" M 669.08 84.75 C 670.17 85.85 671.31 86.91 672.27 88.15 C 673.09 89.59 673.84 91.09 674.87 92.41 C 675.63 93.48 676.47 94.50 677.31 95.52 C 676.36 97.06 675.09 98.49 674.61 100.26 C 674.71 102.29 675.31 104.30 674.92 106.33 L 673.97 106.34 C 672.52 100.92 670.33 95.66 667.09 91.06 C 667.72 88.95 668.38 86.84 669.08 84.75 Z" />
<path fill="#1d272e" opacity="0.82" d=" M 672.27 88.15 C 674.26 87.13 676.96 91.48 674.87 92.41 C 673.84 91.09 673.09 89.59 672.27 88.15 Z" />
<path fill="#383123" opacity="1.00" d=" M 666.57 90.37 C 666.70 90.54 666.96 90.89 667.09 91.06 C 670.33 95.66 672.52 100.92 673.97 106.34 C 672.75 106.32 671.54 106.28 670.34 106.24 C 670.64 108.25 670.96 110.26 671.29 112.27 C 673.63 113.50 675.80 115.12 677.08 117.50 L 677.27 118.35 C 676.17 116.79 675.00 115.30 673.71 113.91 C 672.71 113.57 671.72 113.24 670.72 112.93 C 670.86 109.91 670.25 106.95 669.18 104.14 C 669.94 104.16 671.45 104.18 672.21 104.19 C 671.13 104.00 670.03 103.82 668.97 103.64 C 668.40 102.48 667.83 101.34 667.26 100.20 C 666.27 98.34 665.15 96.56 664.02 94.80 C 663.90 94.08 663.67 92.64 663.55 91.92 C 663.92 91.72 664.66 91.32 665.03 91.11 C 665.41 90.93 666.18 90.55 666.57 90.37 Z" />
<path fill="#de8431" opacity="1.00" d=" M 593.12 96.73 C 596.14 95.71 599.21 94.83 602.14 93.55 C 604.54 95.00 606.66 97.07 606.92 100.03 C 608.00 104.32 609.10 108.64 609.41 113.08 C 607.70 114.55 605.98 116.01 604.25 117.45 C 603.95 113.43 604.16 109.15 602.31 105.45 C 599.83 101.93 595.48 100.38 593.12 96.73 Z" />
<path fill="#cbddee" opacity="1.00" d=" M 641.45 95.30 C 641.68 95.04 642.15 94.53 642.39 94.27 C 645.20 94.41 646.38 97.47 648.09 99.28 C 647.48 99.67 646.88 100.06 646.28 100.46 C 645.66 100.84 644.42 101.61 643.80 102.00 C 643.00 99.77 642.18 97.54 641.45 95.30 Z" />
<path fill="#383123" opacity="1.00" d=" M 639.03 100.33 C 639.55 98.53 640.05 96.64 641.45 95.30 C 642.18 97.54 643.00 99.77 643.80 102.00 L 643.02 102.42 C 641.66 101.76 640.34 101.04 639.03 100.33 Z" />
<path fill="#316bb5" opacity="1.00" d=" M 677.31 95.52 C 679.73 98.90 681.58 102.64 683.72 106.21 L 683.50 106.61 C 681.51 110.33 679.47 114.02 677.08 117.50 C 675.80 115.12 673.63 113.50 671.29 112.27 C 670.96 110.26 670.64 108.25 670.34 106.24 C 671.54 106.28 672.75 106.32 673.97 106.34 L 674.92 106.33 C 675.31 104.30 674.71 102.29 674.61 100.26 C 675.09 98.49 676.36 97.06 677.31 95.52 Z" />
<path fill="#de8431" opacity="1.00" d=" M 579.67 95.48 C 583.67 99.01 583.76 104.94 587.68 108.56 C 589.44 107.90 591.12 106.63 593.09 106.79 C 597.04 107.69 599.62 111.30 600.99 114.88 C 602.15 118.31 602.53 121.94 602.74 125.55 C 600.35 125.03 597.99 124.50 595.62 123.95 C 594.36 123.65 593.10 123.44 591.83 123.25 C 591.37 124.58 590.91 125.92 590.45 127.25 C 583.96 124.58 581.48 117.24 580.73 110.80 C 580.37 105.69 579.80 100.60 579.67 95.48 Z" />
<path fill="#595a46" opacity="1.00" d=" M 609.38 96.84 C 610.11 101.07 609.19 105.36 609.34 109.62 C 609.37 111.47 609.49 113.32 609.59 115.17 C 609.55 114.65 609.46 113.60 609.41 113.08 C 609.10 108.64 608.00 104.32 606.92 100.03 C 607.49 100.29 608.63 100.83 609.20 101.09 C 609.26 99.68 609.32 98.26 609.38 96.84 Z" />
<path fill="#957852" opacity="0.92" d=" M 650.47 98.88 C 650.15 97.26 653.92 96.97 654.20 98.44 C 652.99 98.91 651.75 99.06 650.47 98.88 Z" />
<path fill="#eabf56" opacity="1.00" d=" M 663.49 105.23 C 664.45 103.35 665.82 101.74 667.26 100.20 C 667.83 101.34 668.40 102.48 668.97 103.64 C 670.03 103.82 671.13 104.00 672.21 104.19 C 671.45 104.18 669.94 104.16 669.18 104.14 C 670.25 106.95 670.86 109.91 670.72 112.93 C 671.72 113.24 672.71 113.57 673.71 113.91 C 670.03 117.05 666.91 120.79 664.26 124.82 C 663.66 124.58 662.44 124.09 661.83 123.85 C 662.76 123.56 663.37 123.03 663.64 122.25 C 663.64 121.84 663.64 121.01 663.65 120.60 C 663.57 115.48 664.12 110.33 663.49 105.23 Z" />
<path fill="#7690ad" opacity="1.00" d=" M 628.42 106.31 C 631.09 104.34 634.05 106.36 636.32 107.93 C 636.08 111.71 637.56 116.63 633.70 119.02 C 631.75 118.70 629.79 118.44 627.85 118.23 C 626.93 117.35 625.88 116.42 625.96 115.03 C 625.86 112.04 625.08 107.86 628.42 106.31 M 631.25 109.41 C 630.40 111.09 630.10 114.30 631.53 115.50 C 632.12 113.77 632.71 110.57 631.25 109.41 Z" />
<path fill="#605a42" opacity="1.00" d=" M 602.31 105.45 C 604.16 109.15 603.95 113.43 604.25 117.45 C 604.34 125.80 603.75 135.09 609.42 141.96 C 605.09 140.67 600.30 138.78 599.02 133.93 C 600.94 136.31 602.83 139.18 606.14 139.61 C 605.25 135.24 604.26 130.90 603.67 126.49 C 600.94 125.78 598.10 125.37 595.62 123.95 C 597.99 124.50 600.35 125.03 602.74 125.55 C 602.53 121.94 602.15 118.31 600.99 114.88 C 601.54 115.44 602.64 116.57 603.19 117.13 C 603.75 113.20 603.14 109.28 602.31 105.45 Z" />
<path fill="#7d98bc" opacity="1.00" d=" M 636.80 105.99 C 639.34 106.11 641.95 105.92 644.43 106.58 C 646.79 107.92 645.61 111.12 645.83 113.34 C 644.41 113.61 643.00 113.87 641.60 114.13 L 640.78 114.28 C 640.70 115.36 640.63 116.44 640.56 117.52 C 639.34 117.81 638.12 118.10 636.92 118.41 C 636.82 114.27 636.82 110.13 636.80 105.99 M 641.17 109.29 C 639.70 112.32 644.49 109.35 641.17 109.29 Z" />
<path fill="#4688c9" opacity="1.00" d=" M 646.68 107.09 C 646.81 106.87 647.09 106.43 647.23 106.22 C 649.13 106.17 651.04 106.18 652.96 106.20 L 653.06 107.13 C 651.26 107.11 649.47 107.11 647.68 107.10 C 647.60 110.96 647.58 114.82 647.67 118.69 L 646.61 118.69 C 646.40 114.83 646.38 110.95 646.68 107.09 Z" />
<path fill="#90998e" opacity="1.00" d=" M 652.96 106.20 C 656.49 106.31 660.10 106.50 663.49 105.23 C 664.12 110.33 663.57 115.48 663.65 120.60 C 662.96 116.18 664.11 111.50 662.75 107.25 C 661.02 105.31 660.08 108.46 658.98 109.50 C 658.19 107.91 656.71 106.95 655.17 106.20 C 654.95 110.25 654.89 114.32 655.31 118.36 C 654.84 118.29 653.91 118.15 653.44 118.07 C 653.53 117.53 653.70 116.44 653.79 115.89 C 653.64 115.25 653.34 113.98 653.19 113.34 C 653.20 112.91 653.21 112.04 653.22 111.61 C 653.95 110.53 653.95 109.47 653.21 108.43 C 653.18 108.10 653.10 107.45 653.06 107.13 L 652.96 106.20 Z" />
<path fill="#88abd9" opacity="1.00" d=" M 647.68 107.10 C 649.47 107.11 651.26 107.11 653.06 107.13 C 653.10 107.45 653.18 108.10 653.21 108.43 C 651.22 108.35 650.29 110.89 652.49 111.53 C 650.88 111.90 648.84 114.40 650.79 115.59 C 651.54 115.66 653.04 115.82 653.79 115.89 C 653.70 116.44 653.53 117.53 653.44 118.07 C 651.72 118.13 650.02 118.34 648.34 118.59 L 647.67 118.69 C 647.58 114.82 647.60 110.96 647.68 107.10 Z" />
<path fill="#92b8e7" opacity="1.00" d=" M 655.17 106.20 C 656.71 106.95 658.19 107.91 658.98 109.50 C 659.34 110.42 659.72 111.35 660.10 112.27 C 660.86 111.23 659.69 107.45 661.83 108.31 C 663.42 111.23 662.44 114.84 662.55 118.06 C 661.89 117.99 660.58 117.85 659.92 117.79 C 659.17 116.27 658.50 114.73 657.87 113.17 C 657.66 114.76 657.46 116.34 657.10 117.90 L 656.69 118.60 L 655.31 118.36 C 654.89 114.32 654.95 110.25 655.17 106.20 Z" />
<path fill="#4688c9" opacity="1.00" d=" M 658.98 109.50 C 660.08 108.46 661.02 105.31 662.75 107.25 C 664.11 111.50 662.96 116.18 663.65 120.60 C 663.64 121.01 663.64 121.84 663.64 122.25 C 662.46 121.90 661.23 121.15 659.99 121.51 C 659.36 122.62 660.93 123.56 661.83 123.85 C 662.44 124.09 663.66 124.58 664.26 124.82 L 664.23 125.38 C 663.62 127.71 662.95 130.03 662.30 132.36 C 661.72 132.68 660.56 133.33 659.98 133.65 C 660.68 134.64 661.38 135.62 662.11 136.61 C 661.42 137.76 660.71 138.90 659.96 140.01 C 660.89 140.48 662.73 141.42 663.65 141.88 C 661.55 142.24 659.45 142.59 657.35 142.84 C 657.16 138.58 657.36 134.27 658.92 130.25 L 658.99 129.88 C 658.83 128.17 658.59 126.48 658.36 124.78 C 657.83 124.88 656.77 125.08 656.24 125.18 C 656.36 124.34 656.59 122.68 656.70 121.85 C 657.11 120.89 657.56 119.94 658.04 119.00 C 658.51 118.70 659.45 118.09 659.92 117.79 C 660.58 117.85 661.89 117.99 662.55 118.06 C 662.44 114.84 663.42 111.23 661.83 108.31 C 659.69 107.45 660.86 111.23 660.10 112.27 C 659.72 111.35 659.34 110.42 658.98 109.50 M 660.12 126.48 C 659.23 127.65 659.48 128.34 660.88 128.55 C 661.76 127.38 661.50 126.69 660.12 126.48 Z" />
<path fill="#2963ad" opacity="1.00" d=" M 683.50 106.61 C 684.25 108.11 684.97 109.63 685.71 111.14 C 688.12 111.56 689.75 113.54 691.71 114.83 L 691.28 115.03 C 687.64 116.34 685.99 120.16 684.55 123.45 C 682.75 128.58 680.72 133.63 678.07 138.39 C 676.49 137.32 674.82 136.36 673.45 135.03 C 673.76 131.90 675.72 129.31 676.99 126.52 C 678.32 124.00 677.71 121.02 677.27 118.35 L 677.08 117.50 C 679.47 114.02 681.51 110.33 683.50 106.61 Z" />
<path fill="#8f8f7b" opacity="1.00" d=" M 631.25 109.41 C 632.71 110.57 632.12 113.77 631.53 115.50 C 630.10 114.30 630.40 111.09 631.25 109.41 Z" />
<path fill="#ac9863" opacity="1.00" d=" M 641.17 109.29 C 644.49 109.35 639.70 112.32 641.17 109.29 Z" />
<path fill="#caa651" opacity="1.00" d=" M 652.49 111.53 C 650.29 110.89 651.22 108.35 653.21 108.43 C 653.95 109.47 653.95 110.53 653.22 111.61 L 652.49 111.53 Z" />
<path fill="#5f8ec3" opacity="1.00" d=" M 652.49 111.53 L 653.22 111.61 C 653.21 112.04 653.20 112.91 653.19 113.34 C 651.98 113.70 651.18 114.45 650.79 115.59 C 648.84 114.40 650.88 111.90 652.49 111.53 Z" />
<path fill="#ebae41" opacity="1.00" d=" M 645.83 113.34 C 645.75 115.13 645.66 116.92 645.59 118.71 C 644.67 118.73 643.76 118.76 642.85 118.78 C 642.32 122.06 641.97 125.42 640.71 128.52 C 640.37 128.31 639.70 127.89 639.36 127.68 C 639.11 127.44 638.61 126.95 638.36 126.70 C 638.99 126.27 640.25 125.40 640.88 124.97 C 640.30 124.09 639.70 123.22 639.10 122.37 C 641.70 120.45 641.25 116.96 641.60 114.13 C 643.00 113.87 644.41 113.61 645.83 113.34 Z" />
<path fill="#0f3869" opacity="1.00" d=" M 657.87 113.17 C 658.50 114.73 659.17 116.27 659.92 117.79 C 659.57 117.33 658.86 116.43 658.51 115.98 C 657.69 116.84 657.53 117.85 658.04 119.00 C 657.56 119.94 657.11 120.89 656.70 121.85 C 654.86 121.18 654.41 123.64 654.70 124.92 C 654.44 125.20 653.93 125.76 653.68 126.03 C 654.11 123.35 655.20 120.86 656.69 118.60 L 657.10 117.90 C 657.46 116.34 657.66 114.76 657.87 113.17 Z" />
<path fill="#4a84c2" opacity="1.00" d=" M 640.78 114.28 L 641.60 114.13 C 641.25 116.96 641.70 120.45 639.10 122.37 C 639.70 123.22 640.30 124.09 640.88 124.97 C 640.25 125.40 638.99 126.27 638.36 126.70 L 637.65 127.17 C 638.50 128.38 639.39 129.55 640.32 130.72 C 638.73 130.77 637.31 130.48 636.04 129.83 C 634.90 126.27 635.54 122.48 635.42 118.82 C 635.80 118.71 636.54 118.51 636.92 118.41 C 638.12 118.10 639.34 117.81 640.56 117.52 C 640.63 116.44 640.70 115.36 640.78 114.28 Z" />
<path fill="#d8ac4b" opacity="1.00" d=" M 650.79 115.59 C 651.18 114.45 651.98 113.70 653.19 113.34 C 653.34 113.98 653.64 115.25 653.79 115.89 C 653.04 115.82 651.54 115.66 650.79 115.59 Z" />
<path fill="#eccc78" opacity="1.00" d=" M 664.26 124.82 C 666.91 120.79 670.03 117.05 673.71 113.91 C 675.00 115.30 676.17 116.79 677.27 118.35 C 677.71 121.02 678.32 124.00 676.99 126.52 C 674.79 128.99 673.16 131.88 672.42 135.11 C 672.20 134.94 671.76 134.61 671.54 134.44 C 669.57 137.71 667.81 141.35 664.62 143.62 C 662.27 144.85 659.49 144.28 656.96 144.25 L 656.88 143.38 C 659.45 142.98 663.73 144.71 664.12 140.92 C 663.24 140.12 660.96 140.29 661.13 138.68 C 661.84 138.27 663.25 137.43 663.95 137.01 C 662.90 135.88 661.82 134.75 660.79 133.62 C 661.45 133.55 662.76 133.41 663.41 133.33 C 663.84 130.70 664.27 128.05 664.23 125.38 L 664.26 124.82 Z" />
<path fill="#2158a2" opacity="1.00" d=" M 684.55 123.45 C 685.99 120.16 687.64 116.34 691.28 115.03 C 693.26 115.20 694.11 116.96 694.79 118.56 C 696.36 119.47 698.03 122.11 700.02 120.88 C 700.17 120.17 700.46 118.75 700.61 118.04 C 701.31 119.34 702.04 120.62 702.79 121.91 C 701.64 123.42 700.51 124.93 699.37 126.44 C 697.06 125.60 694.75 124.78 692.43 123.98 C 694.46 127.44 696.52 131.62 701.02 132.13 C 696.49 133.31 695.42 138.18 694.16 142.04 C 692.17 143.14 691.15 145.15 690.33 147.17 C 690.11 147.62 689.69 148.53 689.47 148.99 C 690.85 150.58 692.21 152.20 693.63 153.76 C 695.32 155.75 697.63 157.00 699.94 158.13 C 700.15 159.02 700.36 159.91 700.58 160.81 C 699.41 160.65 698.24 160.50 697.09 160.31 C 693.31 158.86 689.52 157.41 685.57 156.50 C 686.27 155.53 686.99 154.57 687.65 153.55 C 685.76 152.33 683.59 151.54 681.90 150.03 C 681.05 147.73 681.63 145.17 681.13 142.79 C 680.57 141.05 679.30 139.67 678.07 138.39 C 680.72 133.63 682.75 128.58 684.55 123.45 Z" />
<path fill="#eccc78" opacity="1.00" d=" M 658.04 119.00 C 657.53 117.85 657.69 116.84 658.51 115.98 C 658.86 116.43 659.57 117.33 659.92 117.79 C 659.45 118.09 658.51 118.70 658.04 119.00 Z" />
<path fill="#474c43" opacity="1.00" d=" M 610.81 117.14 C 613.62 117.16 616.34 117.90 618.75 119.37 C 616.45 119.49 614.16 119.71 611.87 119.75 C 611.51 118.88 611.16 118.01 610.81 117.14 Z" />
<path fill="#3c72ac" opacity="1.00" d=" M 627.85 118.23 C 629.79 118.44 631.75 118.70 633.70 119.02 C 633.92 121.50 634.18 123.98 634.56 126.44 C 633.38 125.64 632.22 124.85 631.02 124.09 C 632.31 122.99 631.84 120.72 630.03 120.59 C 629.48 120.41 628.38 120.06 627.83 119.88 C 627.73 123.38 627.69 126.88 627.72 130.38 L 627.00 130.02 C 626.85 126.31 626.96 122.59 626.99 118.89 C 627.20 118.72 627.63 118.39 627.85 118.23 Z" />
<path fill="#0f3869" opacity="1.00" d=" M 642.85 118.78 C 643.76 118.76 644.67 118.73 645.59 118.71 C 645.84 118.71 646.36 118.70 646.61 118.69 L 647.67 118.69 C 647.95 120.40 648.22 122.11 648.45 123.84 C 647.93 122.46 647.43 121.06 647.06 119.64 C 646.18 119.55 644.43 119.37 643.55 119.28 C 642.73 123.15 642.14 127.10 642.41 131.07 C 643.52 129.98 644.66 128.90 645.77 127.81 L 645.84 128.74 C 645.49 129.32 644.79 130.47 644.44 131.04 C 644.67 132.82 644.92 134.59 645.24 136.36 C 645.03 135.75 644.61 134.53 644.40 133.93 C 644.17 133.34 643.72 132.18 643.49 131.60 C 641.89 131.43 640.28 131.34 638.70 131.24 C 638.32 132.64 637.97 134.05 637.64 135.47 C 637.86 133.34 638.34 130.83 635.65 130.13 C 635.59 134.01 635.97 137.88 636.70 141.69 L 636.77 142.40 C 637.53 142.45 639.06 142.55 639.82 142.60 L 639.80 142.95 C 637.47 143.06 635.14 143.00 632.83 142.94 C 633.61 142.83 635.17 142.61 635.96 142.49 C 635.56 140.54 635.20 138.59 634.88 136.63 C 635.08 135.07 635.18 133.50 635.30 131.93 C 634.61 131.70 633.22 131.24 632.52 131.02 C 632.31 132.87 632.11 134.73 631.91 136.59 C 631.71 134.84 631.52 133.08 631.36 131.33 C 630.14 131.30 628.93 131.27 627.72 131.24 C 627.64 135.02 627.65 138.79 627.70 142.57 C 628.51 142.55 630.12 142.51 630.92 142.49 L 630.85 142.97 C 629.60 143.14 628.35 143.29 627.12 143.43 C 627.21 138.84 627.11 134.25 626.53 129.70 C 626.25 126.27 626.22 122.83 626.40 119.40 L 626.99 118.89 C 626.96 122.59 626.85 126.31 627.00 130.02 L 627.72 130.38 C 629.77 130.45 631.82 130.40 633.88 130.46 C 635.12 132.52 635.85 128.87 634.11 129.27 C 634.22 128.56 634.45 127.15 634.56 126.44 C 634.78 123.89 634.64 121.29 635.42 118.82 C 635.54 122.48 634.90 126.27 636.04 129.83 C 637.31 130.48 638.73 130.77 640.32 130.72 C 639.39 129.55 638.50 128.38 637.65 127.17 L 638.36 126.70 C 638.61 126.95 639.11 127.44 639.36 127.68 C 639.70 127.89 640.37 128.31 640.71 128.52 C 641.97 125.42 642.32 122.06 642.85 118.78 Z" />
<path fill="#4888c2" opacity="1.00" d=" M 648.34 118.59 C 650.02 118.34 651.72 118.13 653.44 118.07 C 653.91 118.15 654.84 118.29 655.31 118.36 L 656.69 118.60 C 655.20 120.86 654.11 123.35 653.68 126.03 C 652.87 125.51 652.07 124.99 651.28 124.48 C 650.26 122.53 649.29 120.56 648.34 118.59 Z" />
<path fill="#605a42" opacity="1.00" d=" M 698.64 119.49 C 697.33 120.70 696.08 117.65 697.88 117.60 C 698.07 118.07 698.45 119.02 698.64 119.49 Z" />
<path fill="#de9b31" opacity="1.00" d=" M 647.67 118.69 L 648.34 118.59 C 649.29 120.56 650.26 122.53 651.28 124.48 C 650.72 124.35 649.59 124.10 649.03 123.98 L 648.45 123.84 C 648.22 122.11 647.95 120.40 647.67 118.69 Z" />
<path fill="#4783c1" opacity="1.00" d=" M 627.83 119.88 C 628.38 120.06 629.48 120.41 630.03 120.59 C 628.52 121.73 629.50 123.61 631.02 124.09 C 632.22 124.85 633.38 125.64 634.56 126.44 C 634.45 127.15 634.22 128.56 634.11 129.27 L 633.88 130.46 C 631.82 130.40 629.77 130.45 627.72 130.38 C 627.69 126.88 627.73 123.38 627.83 119.88 M 629.53 125.36 C 629.53 126.49 629.54 127.62 629.55 128.75 C 630.05 128.74 631.03 128.71 631.52 128.70 C 631.50 127.57 631.49 126.45 631.49 125.32 C 631.00 125.33 630.02 125.35 629.53 125.36 Z" />
<path fill="#5c90cb" opacity="1.00" d=" M 643.55 119.28 C 644.43 119.37 646.18 119.55 647.06 119.64 C 647.43 121.06 647.93 122.46 648.45 123.84 L 649.03 123.98 C 648.14 126.46 647.26 128.94 646.38 131.42 C 646.25 130.75 645.98 129.41 645.84 128.74 L 645.77 127.81 C 644.66 128.90 643.52 129.98 642.41 131.07 C 642.14 127.10 642.73 123.15 643.55 119.28 M 645.03 120.60 C 644.67 123.04 642.07 127.87 646.43 127.73 C 646.23 125.35 647.11 122.39 645.03 120.60 Z" />
<path fill="#526373" opacity="1.00" d=" M 631.02 124.09 C 629.50 123.61 628.52 121.73 630.03 120.59 C 631.84 120.72 632.31 122.99 631.02 124.09 Z" />
<path fill="#435c7b" opacity="1.00" d=" M 645.03 120.60 C 647.11 122.39 646.23 125.35 646.43 127.73 C 642.07 127.87 644.67 123.04 645.03 120.60 Z" />
<path fill="#5a6265" opacity="1.00" d=" M 659.99 121.51 C 661.23 121.15 662.46 121.90 663.64 122.25 C 663.37 123.03 662.76 123.56 661.83 123.85 C 660.93 123.56 659.36 122.62 659.99 121.51 Z" />
<path fill="#ebae41" opacity="1.00" d=" M 654.70 124.92 C 654.41 123.64 654.86 121.18 656.70 121.85 C 656.59 122.68 656.36 124.34 656.24 125.18 L 655.39 125.36 L 654.70 124.92 Z" />
<path fill="#185294" opacity="1.00" d=" M 702.79 121.91 C 704.19 125.01 705.52 128.19 706.02 131.60 C 706.51 130.95 707.00 130.29 707.50 129.64 L 706.75 131.78 L 709.84 132.03 C 709.19 132.01 707.89 131.97 707.24 131.95 C 707.70 132.45 708.61 133.47 709.06 133.97 C 708.00 137.81 706.32 141.42 704.43 144.91 C 701.22 143.20 697.24 144.73 694.20 142.78 L 694.16 142.04 C 695.42 138.18 696.49 133.31 701.02 132.13 L 701.75 131.91 C 702.04 130.47 702.35 129.03 702.66 127.60 C 701.55 127.21 700.46 126.83 699.37 126.44 C 700.51 124.93 701.64 123.42 702.79 121.91 Z" />
<path fill="#6e93b8" opacity="1.00" d=" M 649.03 123.98 C 649.59 124.10 650.72 124.35 651.28 124.48 C 652.07 124.99 652.87 125.51 653.68 126.03 C 653.93 125.76 654.44 125.20 654.70 124.92 L 655.39 125.36 C 655.52 125.80 655.79 126.68 655.92 127.12 C 653.43 125.62 653.26 129.80 655.88 129.03 C 656.26 129.54 657.01 130.55 657.39 131.06 C 657.23 133.30 656.87 135.52 656.56 137.75 L 656.24 136.22 C 656.15 134.73 656.08 133.24 656.05 131.75 C 653.45 130.18 650.45 129.43 647.50 130.47 L 646.38 131.42 C 647.26 128.94 648.14 126.46 649.03 123.98 Z" />
<path fill="#0d1b2d" opacity="1.00" d=" M 692.43 123.98 C 694.75 124.78 697.06 125.60 699.37 126.44 C 700.46 126.83 701.55 127.21 702.66 127.60 C 702.35 129.03 702.04 130.47 701.75 131.91 L 701.02 132.13 C 696.52 131.62 694.46 127.44 692.43 123.98 M 695.52 126.80 C 696.71 128.98 698.87 130.12 701.35 130.07 C 699.80 128.37 697.70 127.39 695.52 126.80 Z" />
<path fill="#103d73" opacity="1.00" d=" M 629.53 125.36 C 630.02 125.35 631.00 125.33 631.49 125.32 C 631.49 126.45 631.50 127.57 631.52 128.70 C 631.03 128.71 630.05 128.74 629.55 128.75 C 629.54 127.62 629.53 126.49 629.53 125.36 M 630.08 126.32 C 628.57 129.32 633.42 126.42 630.08 126.32 Z" />
<path fill="#81aee4" opacity="1.00" d=" M 655.39 125.36 L 656.24 125.18 C 656.77 125.08 657.83 124.88 658.36 124.78 C 658.59 126.48 658.83 128.17 658.99 129.88 C 658.59 130.17 657.79 130.76 657.39 131.06 C 657.01 130.55 656.26 129.54 655.88 129.03 C 655.89 128.56 655.91 127.60 655.92 127.12 C 655.79 126.68 655.52 125.80 655.39 125.36 Z" />
<path fill="#7f6b49" opacity="1.00" d=" M 630.08 126.32 C 633.42 126.42 628.57 129.32 630.08 126.32 Z" />
<path fill="#5d5f5d" opacity="1.00" d=" M 660.12 126.48 C 661.50 126.69 661.76 127.38 660.88 128.55 C 659.48 128.34 659.23 127.65 660.12 126.48 Z" />
<path fill="#0f3869" opacity="1.00" d=" M 664.23 125.38 C 664.27 128.05 663.84 130.70 663.41 133.33 C 662.76 133.41 661.45 133.55 660.79 133.62 C 661.82 134.75 662.90 135.88 663.95 137.01 C 663.25 137.43 661.84 138.27 661.13 138.68 C 660.96 140.29 663.24 140.12 664.12 140.92 C 663.73 144.71 659.45 142.98 656.88 143.38 C 656.74 141.50 656.67 139.62 656.56 137.75 C 656.87 135.52 657.23 133.30 657.39 131.06 C 657.79 130.76 658.59 130.17 658.99 129.88 L 658.92 130.25 C 657.36 134.27 657.16 138.58 657.35 142.84 C 659.45 142.59 661.55 142.24 663.65 141.88 C 662.73 141.42 660.89 140.48 659.96 140.01 C 660.71 138.90 661.42 137.76 662.11 136.61 C 661.38 135.62 660.68 134.64 659.98 133.65 C 660.56 133.33 661.72 132.68 662.30 132.36 C 662.95 130.03 663.62 127.71 664.23 125.38 Z" />
<path fill="#4586cd" opacity="1.00" d=" M 655.88 129.03 C 653.26 129.80 653.43 125.62 655.92 127.12 C 655.91 127.60 655.89 128.56 655.88 129.03 Z" />
<path fill="#de8430" opacity="1.00" d=" M 672.42 135.11 C 673.16 131.88 674.79 128.99 676.99 126.52 C 675.72 129.31 673.76 131.90 673.45 135.03 C 674.82 136.36 676.49 137.32 678.07 138.39 C 679.30 139.67 680.57 141.05 681.13 142.79 C 681.63 145.17 681.05 147.73 681.90 150.03 C 683.59 151.54 685.76 152.33 687.65 153.55 C 686.99 154.57 686.27 155.53 685.57 156.50 C 683.75 159.32 681.07 161.41 678.28 163.19 C 675.65 164.86 672.32 165.00 669.82 166.89 C 668.30 168.67 667.39 170.86 666.04 172.76 C 662.97 171.35 660.86 168.70 658.67 166.25 L 659.60 166.50 C 661.46 168.17 663.15 170.04 665.19 171.52 C 666.84 170.78 667.35 168.78 668.42 167.43 C 669.71 164.82 672.86 164.42 675.26 163.28 C 679.88 161.66 683.80 158.34 686.29 154.13 C 684.64 152.65 682.42 151.74 681.21 149.84 C 680.49 147.08 680.58 144.19 680.12 141.38 C 677.72 139.08 675.02 137.15 672.42 135.11 Z" />
<path fill="#534c35" opacity="1.00" d=" M 695.52 126.80 C 697.70 127.39 699.80 128.37 701.35 130.07 C 698.87 130.12 696.71 128.98 695.52 126.80 Z" />
<path fill="#e7ac41" opacity="1.00" d=" M 624.10 129.36 C 624.71 129.45 625.92 129.61 626.53 129.70 C 627.11 134.25 627.21 138.84 627.12 143.43 C 628.37 143.45 629.63 143.48 630.90 143.50 C 629.48 144.76 627.96 145.88 626.33 146.84 C 628.00 146.99 629.66 147.18 631.34 147.33 C 626.29 148.23 621.15 149.86 615.98 149.01 C 613.53 148.56 613.51 145.56 612.49 143.78 L 612.22 143.31 C 611.93 142.88 611.35 142.01 611.06 141.58 C 615.85 138.00 619.86 133.54 624.10 129.36 Z" />
<path fill="#9e814a" opacity="1.00" d=" M 634.11 129.27 C 635.85 128.87 635.12 132.52 633.88 130.46 L 634.11 129.27 Z" />
<path fill="#e8c158" opacity="1.00" d=" M 644.44 131.04 C 644.79 130.47 645.49 129.32 645.84 128.74 C 645.98 129.41 646.25 130.75 646.38 131.42 C 646.87 135.46 644.77 141.19 649.04 143.71 C 649.82 144.17 650.62 144.61 651.44 145.02 C 644.69 145.29 638.03 146.47 631.34 147.33 C 629.66 147.18 628.00 146.99 626.33 146.84 C 627.96 145.88 629.48 144.76 630.90 143.50 C 633.91 143.42 636.93 143.53 639.95 143.38 L 640.42 142.79 C 640.77 142.32 641.47 141.39 641.82 140.93 C 641.98 141.59 642.28 142.92 642.44 143.58 C 643.85 143.48 645.28 143.39 646.71 143.30 C 646.21 140.98 645.71 138.67 645.24 136.36 C 644.92 134.59 644.67 132.82 644.44 131.04 Z" />
<path fill="#4272a7" opacity="1.00" d=" M 647.50 130.47 C 650.45 129.43 653.45 130.18 656.05 131.75 C 656.08 133.24 656.15 134.73 656.24 136.22 C 656.07 138.58 655.94 140.95 655.86 143.32 C 654.35 143.39 652.85 143.48 651.36 143.58 L 651.88 142.26 C 652.59 142.04 654.00 141.58 654.71 141.35 C 654.69 139.97 654.68 138.60 654.68 137.23 C 653.60 137.45 652.53 137.67 651.46 137.88 C 651.05 137.98 650.23 138.19 649.81 138.29 C 649.72 136.35 649.58 134.41 649.45 132.47 C 648.96 131.97 647.99 130.97 647.50 130.47 Z" />
<path fill="#4b89c3" opacity="1.00" d=" M 627.72 131.24 C 628.93 131.27 630.14 131.30 631.36 131.33 C 631.52 133.08 631.71 134.84 631.91 136.59 C 632.11 134.73 632.31 132.87 632.52 131.02 C 633.22 131.24 634.61 131.70 635.30 131.93 C 635.18 133.50 635.08 135.07 634.88 136.63 C 635.20 138.59 635.56 140.54 635.96 142.49 C 635.17 142.61 633.61 142.83 632.83 142.94 C 632.66 140.74 632.35 138.56 631.71 136.45 C 631.40 138.46 631.17 140.48 630.92 142.49 C 630.12 142.51 628.51 142.55 627.70 142.57 C 627.65 138.79 627.64 135.02 627.72 131.24 Z" />
<path fill="#e7ac41" opacity="1.00" d=" M 635.65 130.13 C 638.34 130.83 637.86 133.34 637.64 135.47 C 637.27 137.54 636.93 139.61 636.70 141.69 C 635.97 137.88 635.59 134.01 635.65 130.13 Z" />
<path fill="#6687ab" opacity="1.00" d=" M 646.38 131.42 L 647.50 130.47 C 647.99 130.97 648.96 131.97 649.45 132.47 C 649.58 134.41 649.72 136.35 649.81 138.29 C 649.54 139.61 650.52 141.62 652.13 140.89 L 651.88 142.26 L 651.36 143.58 C 650.78 143.61 649.62 143.67 649.04 143.71 C 644.77 141.19 646.87 135.46 646.38 131.42 Z" />
<path fill="#4688c9" opacity="1.00" d=" M 638.70 131.24 C 640.28 131.34 641.89 131.43 643.49 131.60 C 643.72 132.18 644.17 133.34 644.40 133.93 C 643.85 133.83 642.75 133.63 642.20 133.53 C 641.86 133.48 641.18 133.40 640.84 133.35 C 640.48 135.07 640.21 136.81 639.94 138.55 C 640.57 138.69 641.83 138.99 642.46 139.14 C 642.48 139.24 642.52 139.46 642.54 139.57 C 641.92 139.74 640.69 140.09 640.07 140.26 C 640.01 140.85 639.88 142.02 639.82 142.60 C 639.06 142.55 637.53 142.45 636.77 142.40 L 636.70 141.69 C 636.93 139.61 637.27 137.54 637.64 135.47 C 637.97 134.05 638.32 132.64 638.70 131.24 Z" />
<path fill="#3b5879" opacity="1.00" d=" M 640.84 133.35 C 641.18 133.40 641.86 133.48 642.20 133.53 C 642.25 135.40 642.30 137.27 642.46 139.14 C 641.83 138.99 640.57 138.69 639.94 138.55 C 640.21 136.81 640.48 135.07 640.84 133.35 Z" />
<path fill="#4382a7" opacity="1.00" d=" M 642.20 133.53 C 642.75 133.63 643.85 133.83 644.40 133.93 C 644.61 134.53 645.03 135.75 645.24 136.36 C 645.71 138.67 646.21 140.98 646.71 143.30 C 645.28 143.39 643.85 143.48 642.44 143.58 C 642.28 142.92 641.98 141.59 641.82 140.93 C 641.47 141.39 640.77 142.32 640.42 142.79 L 639.80 142.95 L 639.82 142.60 C 639.88 142.02 640.01 140.85 640.07 140.26 C 640.69 140.09 641.92 139.74 642.54 139.57 C 642.52 139.46 642.48 139.24 642.46 139.14 C 642.30 137.27 642.25 135.40 642.20 133.53 Z" />
<path fill="#f1d68c" opacity="1.00" d=" M 671.54 134.44 C 671.76 134.61 672.20 134.94 672.42 135.11 C 675.02 137.15 677.72 139.08 680.12 141.38 C 676.64 145.98 672.96 150.40 669.09 154.66 C 665.72 151.38 661.89 147.52 656.87 147.46 C 654.87 147.50 652.82 147.93 650.92 147.16 C 653.08 147.11 655.24 146.89 657.39 146.56 C 655.41 145.99 653.44 145.48 651.44 145.02 C 650.62 144.61 649.82 144.17 649.04 143.71 C 649.62 143.67 650.78 143.61 651.36 143.58 C 652.85 143.48 654.35 143.39 655.86 143.32 C 655.94 140.95 656.07 138.58 656.24 136.22 L 656.56 137.75 C 656.67 139.62 656.74 141.50 656.88 143.38 L 656.96 144.25 C 659.49 144.28 662.27 144.85 664.62 143.62 C 667.81 141.35 669.57 137.71 671.54 134.44 Z" />
<path fill="#104385" opacity="1.00" d=" M 709.06 133.97 C 711.11 135.80 713.06 137.74 714.94 139.75 C 713.53 142.14 712.18 144.55 710.87 146.99 C 708.71 146.33 706.57 145.62 704.43 144.91 C 706.32 141.42 708.00 137.81 709.06 133.97 Z" />
<path fill="#595a46" opacity="1.00" d=" M 631.71 136.45 C 632.35 138.56 632.66 140.74 632.83 142.94 C 635.14 143.00 637.47 143.06 639.80 142.95 L 640.42 142.79 L 639.95 143.38 C 636.93 143.53 633.91 143.42 630.90 143.50 C 629.63 143.48 628.37 143.45 627.12 143.43 C 628.35 143.29 629.60 143.14 630.85 142.97 L 630.92 142.49 C 631.17 140.48 631.40 138.46 631.71 136.45 Z" />
<path fill="#4f8bc3" opacity="1.00" d=" M 651.46 137.88 C 652.53 137.67 653.60 137.45 654.68 137.23 C 654.68 138.60 654.69 139.97 654.71 141.35 C 654.00 141.58 652.59 142.04 651.88 142.26 L 652.13 140.89 C 651.97 140.14 651.63 138.63 651.46 137.88 Z" />
<path fill="#71756c" opacity="1.00" d=" M 649.81 138.29 C 650.23 138.19 651.05 137.98 651.46 137.88 C 651.63 138.63 651.97 140.14 652.13 140.89 C 650.52 141.62 649.54 139.61 649.81 138.29 Z" />
<path fill="#0f3869" opacity="1.00" d=" M 714.94 139.75 C 718.50 142.00 722.40 143.91 724.95 147.42 C 724.38 149.90 723.88 152.40 723.43 154.91 C 722.41 154.72 721.41 154.48 720.40 154.40 C 719.58 155.26 718.89 156.22 718.19 157.16 C 718.29 155.07 718.36 152.98 718.41 150.89 C 716.09 149.24 713.50 148.04 710.87 146.99 C 712.18 144.55 713.53 142.14 714.94 139.75 Z" />
<path fill="#efdea0" opacity="1.00" d=" M 680.12 141.38 C 680.58 144.19 680.49 147.08 681.21 149.84 C 682.42 151.74 684.64 152.65 686.29 154.13 C 683.80 158.34 679.88 161.66 675.26 163.28 C 672.86 164.42 669.71 164.82 668.42 167.43 C 667.35 168.78 666.84 170.78 665.19 171.52 C 663.15 170.04 661.46 168.17 659.60 166.50 C 662.00 164.25 663.86 161.51 665.56 158.70 C 667.21 157.82 668.39 156.38 669.09 154.66 C 672.96 150.40 676.64 145.98 680.12 141.38 Z" />
<path fill="#b6782d" opacity="1.00" d=" M 612.22 143.31 L 612.49 143.78 C 613.51 145.56 613.53 148.56 615.98 149.01 C 621.15 149.86 626.29 148.23 631.34 147.33 C 638.03 146.47 644.69 145.29 651.44 145.02 C 653.44 145.48 655.41 145.99 657.39 146.56 C 655.24 146.89 653.08 147.11 650.92 147.16 C 649.46 147.05 648.02 146.82 646.58 146.94 C 635.97 147.51 625.57 150.96 614.91 150.34 C 613.04 149.21 612.00 147.27 611.11 145.35 C 609.26 145.32 607.41 145.32 605.58 145.33 C 605.55 145.08 605.50 144.58 605.47 144.33 C 607.72 143.98 609.97 143.64 612.22 143.31 Z" />
<path fill="#27241b" opacity="0.46" d=" M 693.07 144.20 C 694.47 143.80 694.93 144.31 694.45 145.71 C 693.04 146.11 692.58 145.60 693.07 144.20 Z" />
<path fill="#353125" opacity="0.61" d=" M 724.46 144.33 C 724.99 144.86 724.99 144.86 724.46 144.33 Z" />
<path fill="#3c2e1a" opacity="0.50" d=" M 614.91 150.34 C 625.57 150.96 635.97 147.51 646.58 146.94 C 645.12 147.59 643.55 147.90 641.98 148.06 C 634.63 148.78 627.40 150.47 620.03 151.07 C 618.27 151.30 616.58 150.76 614.91 150.34 Z" />
<path fill="#673611" opacity="1.00" d=" M 656.87 147.46 C 661.89 147.52 665.72 151.38 669.09 154.66 C 668.39 156.38 667.21 157.82 665.56 158.70 C 661.65 158.88 657.74 158.50 653.96 157.49 C 655.30 160.08 656.67 162.65 658.08 165.20 C 656.13 163.17 654.30 160.79 653.69 157.99 C 653.45 157.11 654.63 156.36 655.41 156.80 C 659.49 157.98 664.25 159.12 667.87 156.08 C 667.82 155.57 667.71 154.55 667.66 154.04 C 664.39 151.34 660.39 149.77 656.87 147.46 Z" />
<path fill="#151d21" opacity="0.57" d=" M 689.47 148.99 C 689.69 148.53 690.11 147.62 690.33 147.17 C 691.50 148.60 692.68 150.04 693.86 151.48 C 693.80 152.05 693.69 153.19 693.63 153.76 C 692.21 152.20 690.85 150.58 689.47 148.99 Z" />
<path fill="#1b1913" opacity="0.35" d=" M 715.20 151.22 C 716.59 150.89 717.10 151.41 716.74 152.79 C 715.32 153.12 714.81 152.59 715.20 151.22 Z" />
<path fill="#605a42" opacity="1.00" d=" M 720.94 155.63 C 721.11 156.93 721.28 158.22 721.49 159.51 C 720.94 159.46 719.85 159.35 719.30 159.30 C 719.85 158.07 720.37 156.85 720.94 155.63 Z" />
<path fill="#f0dd8d" opacity="1.00" d=" M 653.96 157.49 C 657.74 158.50 661.65 158.88 665.56 158.70 C 663.86 161.51 662.00 164.25 659.60 166.50 L 658.67 166.25 C 658.52 165.99 658.23 165.46 658.08 165.20 C 656.67 162.65 655.30 160.08 653.96 157.49 Z" />
<path fill="#103d73" opacity="1.00" d=" M 699.94 158.13 C 702.29 158.99 704.62 160.72 707.24 159.81 C 707.54 161.44 708.55 162.54 710.21 163.00 C 708.86 164.73 707.38 166.34 705.77 167.83 C 706.55 162.65 700.41 162.22 697.09 160.31 C 698.24 160.50 699.41 160.65 700.58 160.81 C 700.36 159.91 700.15 159.02 699.94 158.13 Z" />
<path fill="#12110d" opacity="0.26" d=" M 691.38 160.11 C 694.35 158.58 691.50 163.45 691.38 160.11 Z" />
<path fill="#524c36" opacity="0.92" d=" M 709.49 160.30 C 710.05 160.89 710.05 160.89 709.49 160.30 Z" />
<path fill="#29261d" opacity="0.52" d=" M 702.25 164.27 C 703.48 163.69 704.65 165.75 703.89 166.71 C 702.64 167.27 701.51 165.22 702.25 164.27 Z" />
<path fill="#1c1913" opacity="0.38" d=" M 711.26 164.21 C 711.77 164.71 711.77 164.71 711.26 164.21 Z" />
<path fill="#7f1722" opacity="0.63" d=" M 282.33 380.54 C 284.50 377.55 288.29 375.42 292.04 376.04 C 294.06 376.56 295.80 377.77 297.57 378.84 C 297.12 379.03 296.23 379.41 295.78 379.60 C 295.72 379.56 295.60 379.49 295.55 379.46 L 295.18 379.29 C 292.45 377.06 288.68 377.23 285.92 379.29 L 285.58 379.46 L 285.34 379.58 L 285.10 379.76 C 284.74 380.01 284.04 380.53 283.68 380.78 C 283.30 380.82 282.55 380.91 282.17 380.95 L 282.33 380.54 Z" />
<path fill="#4a4b4c" opacity="0.66" d=" M 278.50 378.07 C 278.49 376.46 279.02 376.27 280.07 377.50 C 279.68 377.65 278.89 377.93 278.50 378.07 Z" />
<path fill="#f4d3be" opacity="1.00" d=" M 275.33 381.92 C 275.80 380.37 276.45 377.91 278.50 378.07 C 278.89 377.93 279.68 377.65 280.07 377.50 C 280.99 378.38 281.75 379.39 282.33 380.54 L 282.17 380.95 C 280.79 381.12 279.41 381.19 278.02 381.19 L 281.11 381.82 L 278.46 382.95 C 279.53 382.57 280.93 382.02 281.47 383.47 C 281.04 383.76 280.18 384.33 279.75 384.61 C 279.40 385.81 279.60 386.91 280.34 387.91 C 279.99 388.51 279.30 389.71 278.95 390.31 L 278.70 389.94 C 278.55 388.03 278.57 386.11 278.61 384.21 C 277.35 383.73 275.89 383.29 275.33 381.92 Z" />
<path fill="#673611" opacity="1.00" d=" M 297.57 378.84 C 299.14 377.95 301.00 377.87 302.72 378.34 C 303.35 379.65 303.63 381.12 303.91 382.53 C 302.82 382.52 301.76 382.58 300.69 382.62 C 300.09 381.72 299.49 380.83 298.89 379.94 C 298.73 380.40 298.40 381.33 298.24 381.79 C 297.43 381.04 296.61 380.31 295.78 379.60 C 296.23 379.41 297.12 379.03 297.57 378.84 Z" />
<path fill="#0d5a1a" opacity="0.45" d=" M 285.34 379.58 L 285.58 379.46 L 285.36 379.57 L 285.10 379.76 L 285.34 379.58 Z" />
<path fill="#4adc54" opacity="0.93" d=" M 285.58 379.46 L 285.92 379.29 C 286.99 379.06 289.13 378.61 290.20 378.38 C 288.28 380.13 286.24 381.75 284.14 383.27 C 285.03 383.43 286.81 383.76 287.70 383.92 C 286.16 385.15 284.57 386.33 282.81 387.25 L 281.48 386.06 C 282.08 384.25 282.82 382.48 283.68 380.78 C 284.04 380.53 284.74 380.01 285.10 379.76 L 285.36 379.57 L 285.58 379.46 Z" />
<path fill="#3ce546" opacity="0.97" d=" M 290.99 378.20 C 292.04 378.47 294.13 379.02 295.18 379.29 L 295.55 379.46 L 295.68 379.51 L 295.78 379.60 C 296.61 380.31 297.43 381.04 298.24 381.79 C 298.33 383.14 298.43 384.50 298.53 385.86 C 298.26 385.64 297.71 385.20 297.43 384.98 C 296.63 383.93 295.89 382.85 295.14 381.79 C 294.36 380.32 292.62 379.69 291.04 379.93 L 290.99 378.20 Z" />
<path fill="#0e6a1d" opacity="0.46" d=" M 295.55 379.46 C 295.60 379.49 295.72 379.56 295.78 379.60 L 295.68 379.51 L 295.55 379.46 Z" />
<path fill="#253211" opacity="0.40" d=" M 291.04 379.93 C 292.62 379.69 294.36 380.32 295.14 381.79 C 293.69 381.94 291.08 381.89 291.04 379.93 Z" />
<path fill="#fffeff" opacity="1.00" d=" M 298.89 379.94 C 299.49 380.83 300.09 381.72 300.69 382.62 C 301.76 382.58 302.82 382.52 303.91 382.53 L 302.57 383.86 C 301.64 384.83 300.59 385.76 299.14 385.42 C 298.81 384.21 298.51 383.00 298.24 381.79 C 298.40 381.33 298.73 380.40 298.89 379.94 Z" />
<path fill="#474c43" opacity="1.00" d=" M 298.24 381.79 C 298.51 383.00 298.81 384.21 299.14 385.42 C 300.59 385.76 301.64 384.83 302.57 383.86 C 302.51 386.09 302.62 388.32 302.75 390.55 C 302.00 389.67 301.26 388.83 300.57 387.94 C 300.32 386.72 299.64 386.03 298.53 385.86 C 298.43 384.50 298.33 383.14 298.24 381.79 Z" />
<path fill="#383123" opacity="1.00" d=" M 279.75 384.61 C 280.18 384.33 281.04 383.76 281.47 383.47 C 281.40 384.08 281.27 385.28 281.20 385.89 C 281.54 386.25 282.22 386.98 282.56 387.35 L 282.62 387.61 C 282.05 387.69 280.91 387.84 280.34 387.91 C 279.60 386.91 279.40 385.81 279.75 384.61 Z" />
<path fill="#fffeff" opacity="1.00" d=" M 287.70 383.92 C 288.72 383.85 289.73 383.77 290.75 383.65 C 290.58 384.29 290.23 385.56 290.06 386.20 L 291.42 386.34 L 291.85 386.63 C 291.61 387.09 291.12 387.99 290.88 388.45 C 288.56 388.37 286.24 388.41 283.93 388.47 L 284.69 389.94 C 284.25 389.79 283.39 389.50 282.95 389.35 C 282.87 388.92 282.70 388.05 282.62 387.61 L 282.56 387.35 L 282.81 387.25 C 284.57 386.33 286.16 385.15 287.70 383.92 M 285.07 386.40 C 284.55 388.00 285.13 388.52 286.81 387.96 C 287.30 386.35 286.72 385.83 285.07 386.40 Z" />
<path fill="#48fa51" opacity="1.00" d=" M 290.75 383.65 C 292.91 383.35 295.31 383.13 297.08 384.73 C 295.22 385.36 293.33 385.92 291.42 386.34 L 290.06 386.20 C 290.23 385.56 290.58 384.29 290.75 383.65 Z" />
<path fill="#86c38b" opacity="0.95" d=" M 291.42 386.34 C 293.33 385.92 295.22 385.36 297.08 384.73 L 297.43 384.98 C 297.71 385.20 298.26 385.64 298.53 385.86 C 298.41 386.27 298.18 387.08 298.06 387.48 C 297.88 388.14 297.52 389.44 297.34 390.09 C 296.67 389.71 295.34 388.93 294.68 388.54 L 294.54 388.46 L 294.39 388.36 C 293.76 387.93 292.49 387.07 291.85 386.63 L 291.42 386.34 Z" />
<path fill="#7e7b8d" opacity="0.97" d=" M 285.07 386.40 C 286.72 385.83 287.30 386.35 286.81 387.96 C 285.13 388.52 284.55 388.00 285.07 386.40 Z" />
<path fill="#69d258" opacity="0.95" d=" M 291.85 386.63 C 292.49 387.07 293.76 387.93 294.39 388.36 L 294.52 388.45 L 294.68 388.54 C 295.34 388.93 296.67 389.71 297.34 390.09 C 297.52 389.44 297.88 388.14 298.06 387.48 C 298.35 388.09 298.94 389.30 299.23 389.90 C 298.63 391.23 298.04 392.56 297.44 393.90 C 297.36 393.93 297.21 394.00 297.13 394.03 L 296.83 394.15 L 296.58 394.39 C 295.25 395.80 293.70 396.26 291.94 395.78 L 291.73 395.64 C 292.75 394.15 294.48 393.60 296.09 393.01 C 296.75 392.07 297.42 391.14 298.10 390.22 C 293.64 390.00 289.06 391.09 284.69 389.94 L 283.93 388.47 C 286.24 388.41 288.56 388.37 290.88 388.45 C 291.12 387.99 291.61 387.09 291.85 386.63 Z" />
<path fill="#785339" opacity="0.82" d=" M 280.34 387.91 C 280.91 387.84 282.05 387.69 282.62 387.61 C 282.70 388.05 282.87 388.92 282.95 389.35 C 282.49 390.71 282.02 392.07 281.54 393.44 L 281.63 393.45 C 280.71 392.41 279.80 391.40 278.95 390.31 C 279.30 389.71 279.99 388.51 280.34 387.91 Z" />
<path fill="#e5d13f" opacity="0.96" d=" M 294.39 388.36 L 294.54 388.46 L 294.68 388.54 L 294.52 388.45 L 294.39 388.36 Z" />
<path fill="#721112" opacity="0.69" d=" M 300.57 387.94 C 301.26 388.83 302.00 389.67 302.75 390.55 C 302.90 391.05 303.20 392.05 303.34 392.56 C 302.29 392.74 300.17 393.10 299.11 393.28 C 298.69 393.43 297.86 393.74 297.44 393.90 C 298.04 392.56 298.63 391.23 299.23 389.90 C 299.56 389.41 300.23 388.43 300.57 387.94 Z" />
<path fill="#ffffff" opacity="1.00" d=" M 36.09 389.20 C 41.06 387.91 46.64 388.22 51.14 390.85 C 54.64 392.88 56.80 396.83 56.97 400.85 C 57.53 408.87 57.14 416.94 57.24 424.98 C 57.39 430.28 56.42 436.47 51.46 439.45 C 43.80 444.18 30.94 442.76 27.32 433.56 C 25.52 426.88 26.50 419.86 26.25 413.02 C 26.36 407.68 25.82 402.20 27.29 397.00 C 28.68 393.13 32.16 390.25 36.09 389.20 M 39.87 397.72 C 39.16 403.78 39.64 409.90 39.50 415.99 C 39.64 421.72 39.12 427.48 39.94 433.18 C 41.20 432.96 43.22 433.71 43.61 431.98 C 44.45 425.69 43.79 419.29 44.00 412.95 C 43.78 408.07 44.50 403.10 43.56 398.29 C 42.94 396.55 41.16 397.55 39.87 397.72 Z" />
<path fill="#ffff26" opacity="1.00" d=" M 214.09 389.20 C 219.72 387.75 226.31 388.29 230.90 392.13 C 234.65 395.26 235.22 400.40 235.23 404.98 C 235.15 413.36 235.55 421.76 234.94 430.13 C 234.64 435.19 230.89 439.62 226.10 441.08 C 218.71 443.49 208.34 441.64 205.32 433.56 C 203.52 426.88 204.50 419.85 204.25 413.01 C 204.35 407.70 203.83 402.24 205.27 397.06 C 206.65 393.16 210.14 390.26 214.09 389.20 M 217.86 397.70 C 217.18 403.75 217.62 409.86 217.50 415.95 C 217.63 421.69 217.14 427.48 217.93 433.20 C 219.16 432.97 221.21 433.66 221.61 431.98 C 222.45 425.68 221.79 419.29 222.00 412.96 C 221.78 408.08 222.50 403.10 221.55 398.29 C 220.94 396.52 219.17 397.62 217.86 397.70 Z" />
<path fill="#ffffff" opacity="1.00" d=" M 62.75 389.50 C 68.78 389.61 74.82 389.25 80.83 389.69 C 84.66 389.94 89.10 391.38 90.55 395.32 C 91.97 399.74 91.39 404.47 91.51 409.04 C 91.40 412.07 91.35 415.67 88.81 417.79 C 85.18 420.61 80.33 420.26 76.00 420.26 C 76.00 427.17 76.00 434.08 76.00 441.00 C 71.58 441.00 67.17 441.00 62.75 441.00 C 62.75 423.83 62.75 406.67 62.75 389.50 M 76.15 397.91 C 75.89 402.50 75.98 407.11 76.06 411.71 C 77.42 411.35 79.29 411.62 79.91 410.02 C 80.39 406.43 80.65 402.63 79.66 399.11 C 78.55 398.56 77.33 398.27 76.15 397.91 Z" />
<path fill="#ffffff" opacity="1.00" d=" M 95.75 389.50 C 103.09 389.50 110.42 389.49 117.76 389.50 C 117.75 392.92 117.75 396.33 117.75 399.75 C 114.83 399.75 111.92 399.75 109.00 399.75 C 109.00 403.00 109.00 406.25 109.00 409.50 C 111.75 409.49 114.50 409.49 117.25 409.50 C 117.25 412.75 117.25 416.00 117.25 419.25 C 114.50 419.25 111.75 419.25 109.01 419.24 C 108.99 423.08 109.00 426.91 109.01 430.75 C 112.25 430.74 115.50 430.74 118.75 430.75 C 118.75 434.16 118.75 437.58 118.75 441.00 C 111.08 441.00 103.42 441.00 95.75 441.00 C 95.75 423.83 95.75 406.67 95.75 389.50 Z" />
<path fill="#ffffff" opacity="1.00" d=" M 122.75 389.50 C 126.41 389.50 130.08 389.47 133.74 389.53 C 136.19 396.77 138.33 404.12 140.93 411.31 C 141.62 404.08 141.09 396.78 141.23 389.52 C 144.98 389.48 148.74 389.50 152.50 389.50 C 152.52 406.66 152.48 423.81 152.52 440.97 C 148.69 441.02 144.86 441.00 141.02 441.00 C 138.71 433.26 136.22 425.56 134.25 417.73 C 133.74 425.47 134.11 433.24 134.00 441.00 C 130.25 441.00 126.50 441.00 122.75 441.00 C 122.75 423.83 122.75 406.67 122.75 389.50 Z" />
<path fill="#ffff26" opacity="1.00" d=" M 168.75 389.50 C 175.88 389.72 183.09 388.95 190.17 390.11 C 193.82 390.62 197.12 393.25 198.11 396.86 C 199.15 400.63 199.39 404.72 198.50 408.54 C 197.74 411.40 194.69 412.34 192.21 413.16 C 195.43 413.91 198.81 415.88 199.32 419.46 C 199.98 424.61 200.13 429.98 199.11 435.09 C 198.53 438.45 195.31 440.56 192.06 440.64 C 184.31 441.37 176.52 440.84 168.75 441.00 C 168.75 423.83 168.75 406.67 168.75 389.50 M 182.16 397.88 C 181.92 401.92 181.94 405.96 182.11 410.00 C 183.48 409.50 185.91 410.07 186.14 408.05 C 186.64 405.13 186.93 401.95 185.79 399.15 C 184.69 398.44 183.37 398.27 182.16 397.88 M 182.04 417.54 C 181.98 422.51 181.98 427.48 182.03 432.45 C 183.61 431.90 186.18 432.25 186.28 429.97 C 186.67 426.67 186.61 423.31 186.34 420.01 C 186.25 417.69 183.63 418.06 182.04 417.54 Z" />
<path fill="#ffff26" opacity="1.00" d=" M 240.75 389.50 C 247.85 389.61 254.99 389.13 262.05 390.07 C 265.78 390.48 269.00 393.46 269.80 397.12 C 270.76 401.31 270.83 405.76 269.82 409.95 C 269.08 412.96 265.69 413.71 263.12 414.48 C 266.80 414.37 270.17 417.35 270.34 421.06 C 270.72 427.69 270.39 434.35 270.50 441.00 C 266.33 441.00 262.17 441.00 258.00 441.00 C 257.81 433.92 258.39 426.80 257.70 419.75 C 257.61 417.84 255.37 417.98 254.04 417.51 C 253.95 425.34 254.02 433.17 254.00 441.00 C 249.58 441.00 245.17 441.00 240.75 441.00 C 240.75 423.83 240.75 406.67 240.75 389.50 M 254.11 397.95 C 253.94 402.00 253.92 406.07 254.15 410.13 C 255.30 409.51 257.36 409.68 257.68 408.07 C 258.21 405.45 258.15 402.70 257.77 400.07 C 257.41 398.39 255.34 398.52 254.11 397.95 Z" />
<path fill="#560402" opacity="0.46" d=" M 275.86 389.47 C 276.30 389.87 277.16 390.68 277.60 391.08 C 277.87 390.79 278.42 390.23 278.70 389.94 L 278.95 390.31 C 279.80 391.40 280.71 392.41 281.63 393.45 C 280.83 393.39 279.22 393.26 278.42 393.19 C 277.81 393.14 276.58 393.04 275.96 392.99 C 275.94 392.11 275.89 390.35 275.86 389.47 Z" />
<path fill="#862c15" opacity="0.74" d=" M 281.54 393.44 C 282.02 392.07 282.49 390.71 282.95 389.35 C 283.39 389.50 284.25 389.79 284.69 389.94 C 289.06 391.09 293.64 390.00 298.10 390.22 C 297.42 391.14 296.75 392.07 296.09 393.01 C 293.21 391.19 289.75 390.84 286.49 391.73 C 285.99 391.92 284.99 392.30 284.49 392.49 C 283.98 392.76 282.95 393.28 282.43 393.54 L 281.54 393.44 Z" />
<path fill="#3e0501" opacity="0.31" d=" M 286.49 391.73 C 289.75 390.84 293.21 391.19 296.09 393.01 C 292.42 393.80 288.63 393.66 284.91 393.38 L 284.49 392.49 C 284.99 392.30 285.99 391.92 286.49 391.73 Z" />
<path fill="#950000" opacity="0.89" d=" M 304.26 391.26 C 304.51 391.51 304.51 391.51 304.26 391.26 Z" />
<path fill="#cbddee" opacity="1.00" d=" M 282.43 393.54 C 282.95 393.28 283.98 392.76 284.49 392.49 L 284.91 393.38 L 284.37 394.32 L 283.47 394.45 C 283.21 394.22 282.69 393.77 282.43 393.54 Z" />
<path fill="#ffff26" opacity="1.00" d=" M 278.42 393.19 C 279.22 393.26 280.83 393.39 281.63 393.45 L 281.54 393.44 L 282.43 393.54 C 282.69 393.77 283.21 394.22 283.47 394.45 L 284.03 394.92 L 283.06 394.61 C 281.54 394.19 279.96 394.33 278.41 394.32 C 278.42 394.04 278.42 393.48 278.42 393.19 Z" />
<path fill="#ffff26" opacity="1.00" d=" M 284.91 393.38 C 288.63 393.66 292.42 393.80 296.09 393.01 C 294.48 393.60 292.75 394.15 291.73 395.64 C 291.00 395.19 290.35 394.52 289.45 394.47 C 288.22 394.18 286.99 394.27 285.77 394.73 C 285.42 394.63 284.72 394.42 284.37 394.32 L 284.91 393.38 Z" />
<path fill="#ffff26" opacity="1.00" d=" M 297.13 394.03 C 297.21 394.00 297.36 393.93 297.44 393.90 C 297.86 393.74 298.69 393.43 299.11 393.28 C 299.80 393.27 301.17 393.25 301.86 393.24 C 301.83 393.54 301.78 394.12 301.76 394.41 C 301.10 394.36 299.79 394.24 299.13 394.19 C 298.63 394.15 297.63 394.07 297.13 394.03 Z" />
<path fill="#73de67" opacity="0.93" d=" M 285.77 394.73 C 286.99 394.27 288.22 394.18 289.45 394.47 C 290.12 397.14 286.59 396.19 285.77 394.73 Z" />
<path fill="#2b5011" opacity="0.31" d=" M 296.83 394.15 L 297.13 394.03 L 297.03 394.47 L 296.58 394.39 L 296.83 394.15 Z" />
<path fill="#da712c" opacity="1.00" d=" M 297.13 394.03 C 297.63 394.07 298.63 394.15 299.13 394.19 C 296.92 396.45 294.24 398.36 291.08 399.00 C 288.41 399.12 286.15 397.39 283.88 396.24 C 282.91 396.34 281.94 396.45 280.97 396.55 C 281.61 396.45 282.89 396.23 283.53 396.12 L 283.06 394.61 L 284.03 394.92 C 287.41 398.52 292.64 398.18 296.69 395.97 L 296.58 394.39 L 297.03 394.47 L 297.13 394.03 Z" />
</svg>
