<?xml version="1.0" encoding="UTF-8" ?>
<!DOCTYPE svg PUBLIC "-//W3C//DTD SVG 1.1//EN" "http://www.w3.org/Graphics/SVG/1.1/DTD/svg11.dtd">
<svg width="960pt" height="540pt" viewBox="0 0 960 540" version="1.1" xmlns="http://www.w3.org/2000/svg">
<path fill="#c8c6c2" opacity="1.00" d=" M 520.00 46.02 C 521.79 44.36 523.57 42.52 525.96 41.74 C 527.73 41.41 529.33 42.50 530.98 42.96 C 544.40 47.66 557.62 52.92 570.82 58.20 C 564.82 65.36 557.85 71.63 551.26 78.23 C 548.23 76.71 545.27 74.93 541.94 74.16 C 539.98 75.17 538.60 76.97 537.08 78.50 C 540.01 79.68 542.93 80.88 545.84 82.11 C 545.98 82.81 546.25 84.22 546.39 84.92 C 552.45 78.81 558.60 72.79 564.59 66.61 C 567.06 64.11 569.61 61.65 571.52 58.68 L 572.28 60.04 C 570.49 64.32 566.86 67.37 563.72 70.63 C 557.09 77.19 550.72 84.01 544.02 90.50 C 541.09 84.90 534.42 84.04 529.48 80.98 C 529.50 80.60 529.52 79.84 529.54 79.46 C 528.99 77.10 527.66 74.48 524.89 74.40 C 520.06 73.20 516.22 76.83 512.79 79.61 C 512.51 78.32 512.21 77.04 511.56 75.89 C 511.35 75.24 510.94 73.94 510.74 73.29 C 511.72 73.27 512.91 73.59 513.68 72.76 C 516.75 70.25 519.59 67.45 522.88 65.23 C 528.03 67.33 533.33 69.08 538.37 71.46 C 538.86 70.90 539.37 70.34 539.88 69.78 C 540.57 68.98 541.27 68.19 541.98 67.40 C 535.66 64.51 529.36 60.31 522.22 60.27 C 516.87 63.57 513.58 69.33 508.20 72.61 C 504.72 71.58 501.42 70.07 498.07 68.70 C 496.87 69.09 495.66 69.49 494.47 69.88 C 496.45 67.74 498.62 65.79 500.63 63.68 C 503.63 64.99 506.60 66.60 509.89 67.04 C 511.59 65.96 513.01 64.51 514.49 63.16 C 511.96 62.09 509.42 61.05 506.89 59.99 C 505.52 60.64 504.16 61.29 502.83 62.00 C 508.37 56.49 514.33 51.41 520.00 46.02 M 528.17 56.79 C 528.22 57.22 528.31 58.09 528.35 58.52 C 529.94 59.22 531.54 59.93 533.11 60.68 C 535.78 61.10 538.45 61.52 541.11 62.04 C 541.64 61.77 542.72 61.21 543.26 60.94 C 541.77 59.85 540.38 58.61 539.53 56.95 C 535.87 55.42 531.95 56.57 528.17 56.79 Z" />
<path fill="#c2897c" opacity="1.00" d=" M 528.17 56.79 C 531.95 56.57 535.87 55.42 539.53 56.95 C 540.38 58.61 541.77 59.85 543.26 60.94 C 542.72 61.21 541.64 61.77 541.11 62.04 C 538.45 61.52 535.78 61.10 533.11 60.68 C 531.54 59.93 529.94 59.22 528.35 58.52 C 528.31 58.09 528.22 57.22 528.17 56.79 M 536.10 57.29 C 535.72 58.71 536.22 59.22 537.60 58.81 C 537.97 57.39 537.46 56.89 536.10 57.29 Z" />
<path fill="#181718" opacity="1.00" d=" M 455.82 63.53 C 454.46 61.85 451.20 57.81 454.98 56.90 C 458.92 57.24 462.35 59.45 465.04 62.25 C 462.74 62.23 460.45 62.01 458.23 61.40 C 458.42 61.79 458.81 62.56 459.01 62.94 C 457.94 63.12 456.87 63.31 455.82 63.53 Z" />
<path fill="#bc3726" opacity="1.00" d=" M 536.10 57.29 C 537.46 56.89 537.97 57.39 537.60 58.81 C 536.22 59.22 535.72 58.71 536.10 57.29 Z" />
<path fill="#b1afac" opacity="1.00" d=" M 570.82 58.20 L 571.48 57.42 L 571.52 58.68 C 569.61 61.65 567.06 64.11 564.59 66.61 C 558.60 72.79 552.45 78.81 546.39 84.92 C 546.25 84.22 545.98 82.81 545.84 82.11 C 542.93 80.88 540.01 79.68 537.08 78.50 C 538.60 76.97 539.98 75.17 541.94 74.16 C 545.27 74.93 548.23 76.71 551.26 78.23 C 557.85 71.63 564.82 65.36 570.82 58.20 Z" />
<path fill="#b4b2af" opacity="1.00" d=" M 572.28 60.04 L 572.71 59.09 C 572.72 59.43 572.76 60.11 572.77 60.45 C 572.54 64.86 574.54 70.38 570.89 73.84 C 561.96 83.20 552.78 92.33 544.00 101.82 C 544.34 98.05 544.15 94.27 544.02 90.50 C 550.72 84.01 557.09 77.19 563.72 70.63 C 566.86 67.37 570.49 64.32 572.28 60.04 M 563.92 78.13 C 564.87 77.11 565.80 76.07 566.73 75.03 C 566.63 73.57 566.53 72.10 566.42 70.65 C 564.07 72.43 564.05 75.46 563.92 78.13 M 560.50 79.79 C 561.76 80.44 563.63 78.59 562.90 77.33 C 561.64 76.73 559.91 78.56 560.50 79.79 Z" />
<path fill="#a9a7a2" opacity="1.00" d=" M 502.83 62.00 C 504.16 61.29 505.52 60.64 506.89 59.99 C 509.42 61.05 511.96 62.09 514.49 63.16 C 513.01 64.51 511.59 65.96 509.89 67.04 C 506.60 66.60 503.63 64.99 500.63 63.68 C 501.33 63.08 502.06 62.52 502.83 62.00 Z" />
<path fill="#aeada9" opacity="1.00" d=" M 522.22 60.27 C 529.36 60.31 535.66 64.51 541.98 67.40 C 541.27 68.19 540.57 68.98 539.88 69.78 C 534.78 68.17 529.92 65.94 524.95 64.01 C 523.79 63.76 522.36 62.69 521.34 63.82 C 521.72 64.17 522.50 64.87 522.88 65.23 C 519.59 67.45 516.75 70.25 513.68 72.76 C 512.91 73.59 511.72 73.27 510.74 73.29 L 510.16 73.15 C 509.67 73.02 508.69 72.75 508.20 72.61 C 513.58 69.33 516.87 63.57 522.22 60.27 Z" />
<path fill="#0c0c0c" opacity="0.60" d=" M 572.77 60.45 C 574.67 65.66 575.57 72.83 570.93 76.90 C 562.21 85.80 553.68 94.92 544.56 103.39 C 541.77 103.16 539.34 101.42 536.80 100.36 C 533.57 103.08 530.79 106.28 527.76 109.22 C 523.04 111.16 516.59 113.74 512.59 109.03 C 515.00 109.62 517.45 110.42 519.97 110.29 C 526.89 108.89 531.26 103.09 536.10 98.51 C 538.08 99.42 540.09 100.26 542.12 101.06 C 542.59 101.25 543.53 101.63 544.00 101.82 C 552.78 92.33 561.96 83.20 570.89 73.84 C 574.54 70.38 572.54 64.86 572.77 60.45 Z" />
<path fill="#c5c4c0" opacity="1.00" d=" M 455.82 63.53 C 456.87 63.31 457.94 63.12 459.01 62.94 C 462.06 62.77 465.27 61.87 468.18 63.22 C 474.47 63.41 480.81 61.77 487.11 62.70 C 487.34 63.17 487.79 64.12 488.02 64.59 C 488.98 71.50 490.19 78.36 491.65 85.18 C 489.17 88.43 484.74 88.44 481.11 89.37 C 465.79 92.25 450.48 95.36 435.00 97.27 C 433.67 88.83 431.97 80.42 431.53 71.86 C 437.02 70.09 442.64 68.69 448.08 66.81 C 450.29 64.94 452.94 63.88 455.82 63.53 M 469.93 67.68 C 470.31 71.31 470.67 75.26 468.72 78.54 C 466.04 83.73 458.67 85.74 454.01 81.96 C 450.27 79.70 449.72 75.15 447.96 71.61 C 443.55 71.94 439.20 72.85 434.92 73.89 C 435.37 76.66 435.84 79.43 436.26 82.21 C 439.37 80.52 443.80 79.36 446.19 82.87 C 449.27 86.21 447.15 90.58 445.68 94.10 C 457.98 91.96 470.27 89.69 482.53 87.33 C 484.50 87.14 485.89 85.74 487.15 84.36 C 487.08 83.51 486.93 81.81 486.86 80.96 C 484.11 76.14 484.55 70.36 482.95 65.16 C 478.58 65.89 474.22 66.61 469.93 67.68 M 455.27 80.00 C 457.91 82.27 461.66 82.23 464.37 80.09 C 461.34 79.81 458.29 79.79 455.27 80.00 M 435.95 87.02 C 435.46 90.54 438.53 93.61 441.90 93.98 C 445.89 93.32 447.40 88.95 447.41 85.40 C 445.70 87.10 442.62 88.28 442.39 90.86 L 443.68 91.76 C 442.96 91.61 442.26 91.47 441.55 91.33 C 441.65 90.82 441.84 89.79 441.94 89.28 C 440.34 88.87 438.75 88.47 437.17 88.08 C 437.51 87.99 438.18 87.82 438.52 87.74 C 439.46 86.19 440.44 84.65 441.36 83.08 L 440.87 84.67 C 441.68 84.91 443.29 85.39 444.10 85.63 C 444.79 85.36 446.17 84.81 446.87 84.54 C 445.15 83.18 443.48 81.03 441.04 81.31 C 438.14 81.45 435.87 84.19 435.95 87.02 M 441.21 86.06 C 439.48 86.58 440.28 88.92 441.99 88.20 C 443.88 87.94 442.83 85.09 441.21 86.06 Z" />
<path fill="#010103" opacity="1.00" d=" M 521.34 63.82 C 522.36 62.69 523.79 63.76 524.95 64.01 C 529.92 65.94 534.78 68.17 539.88 69.78 C 539.37 70.34 538.86 70.90 538.37 71.46 C 533.33 69.08 528.03 67.33 522.88 65.23 C 522.50 64.87 521.72 64.17 521.34 63.82 Z" />
<path fill="#393b3d" opacity="1.00" d=" M 469.93 67.68 C 474.22 66.61 478.58 65.89 482.95 65.16 C 484.55 70.36 484.11 76.14 486.86 80.96 C 486.93 81.81 487.08 83.51 487.15 84.36 C 485.89 85.74 484.50 87.14 482.53 87.33 C 470.27 89.69 457.98 91.96 445.68 94.10 C 447.15 90.58 449.27 86.21 446.19 82.87 C 443.80 79.36 439.37 80.52 436.26 82.21 C 435.84 79.43 435.37 76.66 434.92 73.89 C 439.20 72.85 443.55 71.94 447.96 71.61 C 449.72 75.15 450.27 79.70 454.01 81.96 C 458.67 85.74 466.04 83.73 468.72 78.54 C 470.67 75.26 470.31 71.31 469.93 67.68 M 480.05 74.03 C 479.99 75.67 480.10 77.30 480.17 78.94 C 478.70 79.00 477.23 79.06 475.77 79.13 L 476.26 79.68 C 472.16 79.35 471.26 84.90 474.06 87.13 C 474.02 85.48 474.06 83.83 474.16 82.18 C 475.12 81.63 476.11 81.12 477.13 80.66 C 477.45 81.04 478.10 81.79 478.43 82.17 C 478.38 82.86 478.29 84.25 478.24 84.94 C 476.88 85.54 475.53 86.16 474.20 86.80 C 476.68 87.79 479.31 87.11 481.86 86.81 L 481.72 86.50 C 483.21 85.88 485.24 85.73 485.97 84.03 C 486.37 82.28 485.59 80.58 485.13 78.93 L 483.54 79.00 C 483.30 77.20 483.07 75.39 482.88 73.59 C 481.91 73.56 480.84 73.31 480.05 74.03 M 437.48 75.16 C 437.66 76.56 438.33 76.78 439.49 75.82 C 439.30 74.43 438.63 74.21 437.48 75.16 M 473.07 74.84 C 473.34 76.42 473.62 77.99 473.94 79.56 C 474.85 78.88 475.64 78.09 476.32 77.19 C 476.85 74.72 474.84 74.81 473.07 74.84 M 463.14 84.07 C 463.13 84.77 463.10 86.17 463.09 86.87 L 463.79 86.89 L 464.26 85.96 C 464.62 86.11 465.35 86.42 465.72 86.58 C 467.71 87.20 468.07 85.50 468.34 83.88 C 466.60 83.93 464.87 84.00 463.14 84.07 M 456.35 85.32 C 456.34 86.33 456.34 87.35 456.35 88.36 C 457.36 88.72 458.38 89.08 459.41 89.44 C 460.07 88.46 460.75 87.49 461.44 86.53 C 461.30 86.15 461.00 85.39 460.86 85.00 C 459.35 85.10 457.85 85.21 456.35 85.32 Z" />
<path fill="#191919" opacity="1.00" d=" M 488.02 64.59 C 490.67 71.04 490.33 78.33 492.54 84.93 C 493.84 87.75 495.52 90.37 496.78 93.21 C 502.79 99.04 509.44 104.33 517.22 107.59 C 519.45 105.85 521.23 103.60 521.55 100.69 C 521.86 102.21 522.20 103.74 522.54 105.26 C 523.86 105.82 525.18 106.39 526.51 106.95 C 526.76 105.37 527.43 103.76 527.06 102.14 C 525.27 100.99 523.25 100.29 521.30 99.49 C 522.70 97.86 524.06 96.18 525.58 94.64 C 526.42 93.82 527.29 93.03 528.19 92.26 C 530.07 92.69 531.98 93.08 533.88 93.46 C 533.06 94.44 532.25 95.42 531.44 96.40 C 532.98 97.09 534.52 97.80 536.06 98.50 L 536.10 98.51 C 531.26 103.09 526.89 108.89 519.97 110.29 C 517.45 110.42 515.00 109.62 512.59 109.03 C 506.30 106.21 501.34 101.29 496.05 97.00 C 494.32 95.78 493.92 93.57 492.95 91.82 C 492.77 91.48 492.41 90.79 492.23 90.45 C 484.31 91.93 476.46 94.21 468.36 94.32 C 474.82 92.62 481.45 91.78 487.97 90.37 C 489.35 89.83 491.72 89.93 491.83 87.94 C 491.83 87.02 491.77 86.10 491.65 85.18 C 490.19 78.36 488.98 71.50 488.02 64.59 Z" />
<path fill="#9a9892" opacity="1.00" d=" M 494.47 69.88 C 495.66 69.49 496.87 69.09 498.07 68.70 C 501.42 70.07 504.72 71.58 508.20 72.61 C 508.69 72.75 509.67 73.02 510.16 73.15 C 508.78 74.18 509.12 76.12 510.42 77.05 L 510.63 77.29 C 510.71 77.17 510.86 76.94 510.94 76.83 L 511.56 75.89 C 512.21 77.04 512.51 78.32 512.79 79.61 C 516.22 76.83 520.06 73.20 524.89 74.40 C 527.66 74.48 528.99 77.10 529.54 79.46 C 527.04 78.78 524.64 77.74 522.11 77.20 C 518.34 77.56 515.74 80.71 513.08 83.06 C 516.27 84.89 519.64 86.39 523.13 87.60 C 523.82 86.55 524.52 85.49 525.23 84.44 C 526.53 84.66 527.82 84.88 529.14 85.10 C 529.24 83.72 529.38 82.35 529.48 80.98 C 534.42 84.04 541.09 84.90 544.02 90.50 C 544.15 94.27 544.34 98.05 544.00 101.82 C 543.53 101.63 542.59 101.25 542.12 101.06 C 541.72 99.86 541.39 98.64 541.05 97.43 C 541.45 97.24 542.24 96.86 542.64 96.67 C 540.58 95.21 538.79 93.45 537.15 91.56 C 536.16 90.31 532.18 90.09 533.69 88.00 C 531.87 89.44 529.98 90.80 528.19 92.26 C 527.29 93.03 526.42 93.82 525.58 94.64 C 517.20 91.16 508.92 87.45 500.48 84.15 C 501.31 83.50 502.15 82.86 502.99 82.22 C 504.26 82.48 505.54 82.70 506.84 82.92 C 506.48 81.42 506.26 79.88 505.70 78.44 C 503.82 77.12 501.63 76.36 499.54 75.46 C 499.03 76.33 498.53 77.20 498.02 78.06 C 496.92 75.59 495.84 73.11 494.78 70.62 L 494.47 69.88 Z" />
<path fill="#817e79" opacity="1.00" d=" M 494.78 70.62 C 495.84 73.11 496.92 75.59 498.02 78.06 C 498.53 77.20 499.03 76.33 499.54 75.46 C 499.60 77.29 499.61 79.12 499.90 80.94 C 500.89 81.45 501.92 81.88 502.99 82.22 C 502.15 82.86 501.31 83.50 500.48 84.15 C 498.46 83.02 495.66 82.42 494.85 79.97 C 494.02 76.91 494.58 73.72 494.78 70.62 Z" />
<path fill="#191919" opacity="1.00" d=" M 563.92 78.13 C 564.05 75.46 564.07 72.43 566.42 70.65 C 566.53 72.10 566.63 73.57 566.73 75.03 C 565.80 76.07 564.87 77.11 563.92 78.13 Z" />
<path fill="#aeada8" opacity="1.00" d=" M 428.90 75.88 C 427.92 73.76 430.21 72.90 431.53 71.86 C 431.97 80.42 433.67 88.83 435.00 97.27 C 450.48 95.36 465.79 92.25 481.11 89.37 C 484.74 88.44 489.17 88.43 491.65 85.18 C 491.77 86.10 491.83 87.02 491.83 87.94 C 491.72 89.93 489.35 89.83 487.97 90.37 C 481.45 91.78 474.82 92.62 468.36 94.32 C 465.47 94.78 462.60 95.39 459.72 95.90 C 450.79 97.22 441.98 99.29 433.03 100.45 C 431.12 92.37 430.46 84.04 428.90 75.88 Z" />
<path fill="#74383d" opacity="1.00" d=" M 480.05 74.03 C 480.84 73.31 481.91 73.56 482.88 73.59 C 483.07 75.39 483.30 77.20 483.54 79.00 C 482.21 79.05 480.88 79.11 479.55 79.17 C 479.76 80.90 479.96 82.66 480.71 84.26 C 480.92 84.72 481.33 85.63 481.54 86.08 L 481.72 86.50 L 481.86 86.81 C 479.31 87.11 476.68 87.79 474.20 86.80 C 475.53 86.16 476.88 85.54 478.24 84.94 C 479.72 84.70 479.42 82.81 478.43 82.17 C 478.10 81.79 477.45 81.04 477.13 80.66 C 476.91 80.41 476.48 79.93 476.26 79.68 L 475.77 79.13 C 477.23 79.06 478.70 79.00 480.17 78.94 C 480.10 77.30 479.99 75.67 480.05 74.03 Z" />
<path fill="#51504e" opacity="1.00" d=" M 510.16 73.15 L 510.74 73.29 C 510.94 73.94 511.35 75.24 511.56 75.89 L 510.94 76.83 L 510.42 77.05 C 509.12 76.12 508.78 74.18 510.16 73.15 Z" />
<path fill="#703a3e" opacity="1.00" d=" M 437.48 75.16 C 438.63 74.21 439.30 74.43 439.49 75.82 C 438.33 76.78 437.66 76.56 437.48 75.16 Z" />
<path fill="#7b3a3d" opacity="1.00" d=" M 473.07 74.84 C 474.84 74.81 476.85 74.72 476.32 77.19 C 475.64 78.09 474.85 78.88 473.94 79.56 C 473.62 77.99 473.34 76.42 473.07 74.84 Z" />
<path fill="#064c27" opacity="1.00" d=" M 499.54 75.46 C 501.63 76.36 503.82 77.12 505.70 78.44 C 506.26 79.88 506.48 81.42 506.84 82.92 C 505.54 82.70 504.26 82.48 502.99 82.22 C 501.92 81.88 500.89 81.45 499.90 80.94 C 499.61 79.12 499.60 77.29 499.54 75.46 Z" />
<path fill="#d1cfcb" opacity="1.00" d=" M 510.42 77.05 L 510.94 76.83 C 510.86 76.94 510.71 77.17 510.63 77.29 L 510.42 77.05 Z" />
<path fill="#bfbeba" opacity="1.00" d=" M 513.08 83.06 C 515.74 80.71 518.34 77.56 522.11 77.20 C 524.64 77.74 527.04 78.78 529.54 79.46 C 529.52 79.84 529.50 80.60 529.48 80.98 C 529.38 82.35 529.24 83.72 529.14 85.10 C 527.82 84.88 526.53 84.66 525.23 84.44 C 524.52 85.49 523.82 86.55 523.13 87.60 C 519.64 86.39 516.27 84.89 513.08 83.06 Z" />
<path fill="#6a6865" opacity="1.00" d=" M 560.50 79.79 C 559.91 78.56 561.64 76.73 562.90 77.33 C 563.63 78.59 561.76 80.44 560.50 79.79 Z" />
<path fill="#935555" opacity="1.00" d=" M 479.55 79.17 C 480.88 79.11 482.21 79.05 483.54 79.00 L 485.13 78.93 C 485.59 80.58 486.37 82.28 485.97 84.03 C 485.24 85.73 483.21 85.88 481.72 86.50 L 481.54 86.08 C 482.71 84.84 485.33 84.22 485.02 82.05 C 485.30 79.70 482.47 80.31 481.02 79.75 C 480.89 81.25 480.79 82.76 480.71 84.26 C 479.96 82.66 479.76 80.90 479.55 79.17 Z" />
<path fill="#b4b2ae" opacity="1.00" d=" M 455.27 80.00 C 458.29 79.79 461.34 79.81 464.37 80.09 C 461.66 82.23 457.91 82.27 455.27 80.00 Z" />
<path fill="#9b504d" opacity="1.00" d=" M 474.06 87.13 C 471.26 84.90 472.16 79.35 476.26 79.68 C 476.48 79.93 476.91 80.41 477.13 80.66 C 476.11 81.12 475.12 81.63 474.16 82.18 C 474.06 83.83 474.02 85.48 474.06 87.13 Z" />
<path fill="#444544" opacity="1.00" d=" M 481.02 79.75 C 482.47 80.31 485.30 79.70 485.02 82.05 C 485.33 84.22 482.71 84.84 481.54 86.08 C 481.33 85.63 480.92 84.72 480.71 84.26 C 480.79 82.76 480.89 81.25 481.02 79.75 Z" />
<path fill="#393c3d" opacity="1.00" d=" M 435.95 87.02 C 435.87 84.19 438.14 81.45 441.04 81.31 C 443.48 81.03 445.15 83.18 446.87 84.54 C 446.17 84.81 444.79 85.36 444.10 85.63 C 443.29 85.39 441.68 84.91 440.87 84.67 L 441.36 83.08 C 440.44 84.65 439.46 86.19 438.52 87.74 C 438.18 87.82 437.51 87.99 437.17 88.08 C 438.75 88.47 440.34 88.87 441.94 89.28 C 441.84 89.79 441.65 90.82 441.55 91.33 C 442.26 91.47 442.96 91.61 443.68 91.76 L 442.39 90.86 C 442.62 88.28 445.70 87.10 447.41 85.40 C 447.40 88.95 445.89 93.32 441.90 93.98 C 438.53 93.61 435.46 90.54 435.95 87.02 Z" />
<path fill="#906762" opacity="1.00" d=" M 478.43 82.17 C 479.42 82.81 479.72 84.70 478.24 84.94 C 478.29 84.25 478.38 82.86 478.43 82.17 Z" />
<path fill="#696867" opacity="1.00" d=" M 463.14 84.07 C 464.87 84.00 466.60 83.93 468.34 83.88 C 468.07 85.50 467.71 87.20 465.72 86.58 C 465.97 86.23 466.47 85.53 466.71 85.18 C 465.59 84.55 464.77 84.81 464.26 85.96 L 463.79 86.89 L 463.09 86.87 C 463.10 86.17 463.13 84.77 463.14 84.07 Z" />
<path fill="#7d7a74" opacity="1.00" d=" M 456.35 85.32 C 457.85 85.21 459.35 85.10 460.86 85.00 C 461.00 85.39 461.30 86.15 461.44 86.53 C 460.75 87.49 460.07 88.46 459.41 89.44 C 458.38 89.08 457.36 88.72 456.35 88.36 C 456.34 87.35 456.34 86.33 456.35 85.32 M 457.36 86.42 C 456.07 87.88 458.83 88.88 459.62 87.58 C 460.91 86.10 458.15 85.18 457.36 86.42 Z" />
<path fill="#141415" opacity="1.00" d=" M 464.26 85.96 C 464.77 84.81 465.59 84.55 466.71 85.18 C 466.47 85.53 465.97 86.23 465.72 86.58 C 465.35 86.42 464.62 86.11 464.26 85.96 Z" />
<path fill="#3b3c3d" opacity="1.00" d=" M 441.21 86.06 C 442.83 85.09 443.88 87.94 441.99 88.20 C 440.28 88.92 439.48 86.58 441.21 86.06 Z" />
<path fill="#0d0d0e" opacity="1.00" d=" M 457.36 86.42 C 458.15 85.18 460.91 86.10 459.62 87.58 C 458.83 88.88 456.07 87.88 457.36 86.42 Z" />
<path fill="#0d0d0e" opacity="1.00" d=" M 533.69 88.00 C 532.18 90.09 536.16 90.31 537.15 91.56 C 537.61 93.96 537.04 96.30 536.06 98.50 C 534.52 97.80 532.98 97.09 531.44 96.40 C 532.25 95.42 533.06 94.44 533.88 93.46 C 531.98 93.08 530.07 92.69 528.19 92.26 C 529.98 90.80 531.87 89.44 533.69 88.00 Z" />
<path fill="#000000" opacity="0.44" d=" M 468.36 94.32 C 476.46 94.21 484.31 91.93 492.23 90.45 C 492.41 90.79 492.77 91.48 492.95 91.82 C 483.46 93.57 474.10 96.35 464.48 97.10 C 462.87 96.75 461.29 96.32 459.72 95.90 C 462.60 95.39 465.47 94.78 468.36 94.32 Z" />
<path fill="#7d7a74" opacity="1.00" d=" M 537.15 91.56 C 538.79 93.45 540.58 95.21 542.64 96.67 C 542.24 96.86 541.45 97.24 541.05 97.43 C 541.39 98.64 541.72 99.86 542.12 101.06 C 540.09 100.26 538.08 99.42 536.10 98.51 L 536.06 98.50 C 537.04 96.30 537.61 93.96 537.15 91.56 Z" />
<path fill="#000000" opacity="1.00" d=" M 433.03 100.45 C 441.98 99.29 450.79 97.22 459.72 95.90 C 461.29 96.32 462.87 96.75 464.48 97.10 C 463.42 97.17 462.38 97.22 461.34 97.26 C 452.10 97.23 443.20 100.13 434.07 101.11 C 433.81 100.94 433.29 100.61 433.03 100.45 Z" />
<path fill="#000000" opacity="0.44" d=" M 434.07 101.11 C 443.20 100.13 452.10 97.23 461.34 97.26 C 459.46 98.58 457.13 98.70 454.96 99.13 C 448.67 100.23 442.44 102.01 436.04 102.33 C 435.55 102.02 434.56 101.41 434.07 101.11 Z" />
<path fill="#98a09f" opacity="0.97" d=" M 473.56 99.88 C 475.79 99.52 477.71 101.18 479.90 101.36 C 483.29 101.15 486.57 100.15 489.95 99.85 C 493.01 99.61 495.58 101.71 497.70 103.65 C 495.22 102.78 492.73 101.71 490.07 101.62 C 487.32 101.77 484.66 102.50 481.98 103.10 C 475.07 100.83 467.78 102.04 460.96 104.01 C 459.30 104.52 458.34 106.07 457.22 107.27 C 457.02 107.30 456.62 107.34 456.42 107.37 C 452.07 108.11 447.30 108.12 443.50 110.61 C 439.44 113.97 439.58 119.75 439.27 124.54 C 438.25 119.79 438.18 114.31 441.57 110.45 C 444.79 106.35 450.49 106.96 455.03 105.70 C 457.75 105.21 459.29 102.34 462.01 101.86 C 465.86 101.18 469.71 100.53 473.56 99.88 Z" />
<path fill="#0b0b0b" opacity="1.00" d=" M 521.30 99.49 C 523.25 100.29 525.27 100.99 527.06 102.14 C 527.43 103.76 526.76 105.37 526.51 106.95 C 525.18 106.39 523.86 105.82 522.54 105.26 C 522.20 103.74 521.86 102.21 521.55 100.69 L 521.30 99.49 Z" />
<path fill="#373746" opacity="1.00" d=" M 460.96 104.01 C 467.78 102.04 475.07 100.83 481.98 103.10 C 477.52 104.40 472.94 105.18 468.32 105.64 C 466.75 106.09 464.52 105.63 463.53 107.16 C 463.34 107.64 462.97 108.60 462.78 109.08 C 462.27 108.33 461.76 107.59 461.25 106.85 C 460.25 106.95 458.23 107.17 457.22 107.27 C 458.34 106.07 459.30 104.52 460.96 104.01 Z" />
<path fill="#13012a" opacity="1.00" d=" M 481.98 103.10 C 484.66 102.50 487.32 101.77 490.07 101.62 C 492.73 101.71 495.22 102.78 497.70 103.65 C 499.04 104.42 499.67 105.93 500.21 107.30 C 499.89 108.96 499.55 110.62 499.30 112.29 C 499.24 111.63 499.13 110.31 499.08 109.65 C 497.36 109.88 495.66 110.12 493.95 110.31 C 491.94 110.51 489.93 110.71 487.91 110.72 C 490.09 108.91 486.21 106.90 485.97 109.61 L 486.19 110.42 C 486.25 110.66 486.39 111.14 486.45 111.38 C 484.81 112.18 483.20 113.01 481.59 113.87 C 480.73 113.50 479.87 113.15 479.01 112.83 C 479.05 113.32 479.15 114.31 479.20 114.80 L 479.31 116.11 C 478.33 116.96 477.30 117.76 476.29 118.56 C 474.55 115.92 472.94 113.21 471.24 110.54 C 471.54 110.57 472.13 110.61 472.43 110.64 C 472.07 109.58 471.68 108.54 471.27 107.52 C 470.64 107.43 469.38 107.25 468.75 107.16 L 468.32 105.64 C 472.94 105.18 477.52 104.40 481.98 103.10 M 483.17 103.58 C 483.24 104.37 483.39 105.95 483.46 106.74 C 484.50 106.63 485.54 106.51 486.59 106.38 C 487.26 106.55 487.95 106.72 488.64 106.89 C 488.66 106.22 488.71 104.89 488.74 104.22 C 488.28 104.54 487.36 105.18 486.90 105.51 C 485.66 104.85 484.41 104.21 483.17 103.58 M 493.16 106.34 C 491.19 106.57 491.98 109.57 493.80 108.86 C 495.69 108.53 494.96 105.70 493.16 106.34 M 476.69 107.83 C 474.48 109.02 476.93 111.69 478.39 109.75 C 479.90 108.48 478.14 106.24 476.69 107.83 Z" />
<path fill="#98a09f" opacity="0.97" d=" M 483.17 103.58 C 484.41 104.21 485.66 104.85 486.90 105.51 C 487.36 105.18 488.28 104.54 488.74 104.22 C 488.71 104.89 488.66 106.22 488.64 106.89 C 487.95 106.72 487.26 106.55 486.59 106.38 C 485.54 106.51 484.50 106.63 483.46 106.74 C 483.39 105.95 483.24 104.37 483.17 103.58 Z" />
<path fill="#a1c1d3" opacity="1.00" d=" M 463.53 107.16 C 464.52 105.63 466.75 106.09 468.32 105.64 L 468.75 107.16 C 469.01 108.22 469.28 109.27 469.57 110.33 C 469.87 110.37 470.47 110.46 470.77 110.51 C 469.66 110.56 468.57 110.64 467.48 110.78 C 467.27 111.11 466.86 111.79 466.65 112.13 C 465.61 110.47 464.52 108.84 463.53 107.16 Z" />
<path fill="#bfbeba" opacity="1.00" d=" M 493.16 106.34 C 494.96 105.70 495.69 108.53 493.80 108.86 C 491.98 109.57 491.19 106.57 493.16 106.34 Z" />
<path fill="#91badf" opacity="1.00" d=" M 457.22 107.27 C 458.23 107.17 460.25 106.95 461.25 106.85 C 461.76 107.59 462.27 108.33 462.78 109.08 C 464.97 112.39 466.98 115.80 469.28 119.03 C 467.93 119.75 466.59 120.49 465.21 121.13 C 463.78 119.22 462.38 117.30 460.91 115.43 C 460.73 116.20 460.37 117.73 460.19 118.50 C 459.42 119.38 458.66 120.27 457.92 121.16 L 457.84 121.27 C 456.17 119.33 454.38 117.50 452.83 115.46 C 451.60 115.59 450.37 115.70 449.14 115.81 C 448.98 115.52 448.66 114.95 448.49 114.67 C 450.17 114.69 451.85 114.72 453.54 114.69 C 455.11 114.77 455.07 112.54 454.83 111.47 C 454.39 111.43 453.52 111.36 453.08 111.32 C 451.59 111.39 450.11 111.55 448.65 111.80 C 446.47 111.83 447.06 113.50 447.55 114.93 C 444.17 117.49 445.66 121.61 446.00 125.14 C 446.08 125.89 446.24 127.38 446.33 128.13 C 445.46 128.23 443.74 128.45 442.87 128.55 C 442.30 123.30 439.42 116.88 443.25 112.31 C 447.31 110.39 452.49 109.09 456.84 110.85 C 457.78 112.65 458.36 115.57 461.05 114.67 C 460.85 113.04 460.65 111.41 460.47 109.78 C 459.89 110.00 458.75 110.46 458.18 110.68 C 457.74 109.85 456.86 108.20 456.42 107.37 C 456.62 107.34 457.02 107.30 457.22 107.27 Z" />
<path fill="#ffff00" opacity="1.00" d=" M 468.75 107.16 C 469.38 107.25 470.64 107.43 471.27 107.52 C 471.68 108.54 472.07 109.58 472.43 110.64 C 472.13 110.61 471.54 110.57 471.24 110.54 L 470.77 110.51 C 470.47 110.46 469.87 110.37 469.57 110.33 C 469.28 109.27 469.01 108.22 468.75 107.16 Z" />
<path fill="#bfbeba" opacity="1.00" d=" M 476.69 107.83 C 478.14 106.24 479.90 108.48 478.39 109.75 C 476.93 111.69 474.48 109.02 476.69 107.83 Z" />
<path fill="#181718" opacity="1.00" d=" M 443.50 110.61 C 447.30 108.12 452.07 108.11 456.42 107.37 C 456.86 108.20 457.74 109.85 458.18 110.68 C 458.75 110.46 459.89 110.00 460.47 109.78 C 460.65 111.41 460.85 113.04 461.05 114.67 C 458.36 115.57 457.78 112.65 456.84 110.85 C 452.49 109.09 447.31 110.39 443.25 112.31 C 439.42 116.88 442.30 123.30 442.87 128.55 C 443.10 128.61 443.55 128.73 443.78 128.79 C 442.53 130.94 443.25 133.16 445.78 133.73 C 445.64 134.10 445.37 134.84 445.23 135.20 C 448.44 135.62 451.70 135.63 454.90 135.09 C 457.13 134.79 459.39 134.59 461.64 134.54 C 455.77 137.86 447.99 138.66 442.12 134.89 C 441.20 133.08 439.66 131.01 440.36 128.90 C 441.05 127.64 440.95 126.07 439.76 125.16 L 439.27 124.54 C 439.58 119.75 439.44 113.97 443.50 110.61 M 459.24 111.99 C 459.82 112.56 459.82 112.56 459.24 111.99 Z" />
<path fill="#000000" opacity="1.00" d=" M 462.78 109.08 C 462.97 108.60 463.34 107.64 463.53 107.16 C 464.52 108.84 465.61 110.47 466.65 112.13 C 468.23 114.72 469.95 117.23 471.44 119.88 L 471.16 120.50 C 472.13 121.59 473.10 122.67 474.09 123.75 C 475.87 126.10 478.09 123.92 479.89 122.78 C 479.40 122.23 478.41 121.12 477.91 120.57 L 478.87 121.12 C 479.48 121.07 480.70 120.96 481.31 120.90 C 483.04 119.77 484.74 118.58 486.39 117.33 L 486.85 117.02 C 488.27 116.75 489.69 116.51 491.13 116.29 C 490.30 115.16 489.49 114.03 488.67 112.90 C 489.50 113.78 490.32 114.68 491.15 115.57 C 492.70 115.74 494.29 115.87 495.85 115.55 C 496.76 115.44 498.58 115.23 499.49 115.12 C 499.44 114.41 499.35 113.00 499.30 112.29 C 499.55 110.62 499.89 108.96 500.21 107.30 L 500.42 108.16 C 501.44 113.64 502.97 119.36 501.73 124.92 C 500.64 128.87 497.45 132.65 493.12 132.92 C 485.68 133.78 478.26 134.82 470.92 136.27 C 463.12 137.71 455.36 139.96 447.36 139.63 C 445.18 138.62 443.65 136.67 442.12 134.89 C 447.99 138.66 455.77 137.86 461.64 134.54 C 462.51 133.73 463.32 132.86 464.16 132.01 C 465.99 131.61 467.81 131.22 469.64 130.78 C 468.46 129.75 467.09 129.16 465.52 129.02 C 465.61 128.75 465.78 128.21 465.87 127.95 C 466.37 128.09 467.37 128.39 467.87 128.53 C 467.97 127.57 467.56 126.86 466.65 126.40 C 465.63 125.32 464.68 124.17 463.73 123.04 C 463.32 123.45 462.49 124.27 462.07 124.68 C 460.88 124.23 459.70 123.78 458.53 123.34 C 458.36 122.82 458.02 121.78 457.84 121.27 L 457.92 121.16 C 459.12 121.50 460.34 121.75 461.58 121.91 C 462.75 122.73 464.22 122.58 465.58 122.56 C 466.48 123.70 467.40 124.83 468.34 125.95 C 469.12 127.52 469.70 129.23 470.87 130.59 C 474.49 130.26 478.08 129.37 481.75 129.65 C 482.73 128.98 483.71 128.31 484.71 127.66 C 484.14 129.90 486.86 130.08 488.19 129.08 C 491.94 130.06 495.35 128.44 498.12 126.01 C 497.91 125.72 497.47 125.15 497.25 124.86 C 500.03 122.96 500.40 119.67 500.29 116.57 C 499.07 116.87 497.85 117.17 496.64 117.48 C 496.22 117.39 495.38 117.21 494.97 117.12 C 491.43 118.08 487.61 118.60 484.60 120.87 C 483.91 121.46 483.22 122.07 482.55 122.68 C 480.56 124.40 478.53 126.07 476.51 127.77 C 475.02 127.91 473.54 128.06 472.07 128.23 C 471.79 127.87 471.23 127.16 470.96 126.81 C 471.55 126.07 472.14 125.33 472.74 124.60 C 472.35 123.84 471.56 122.33 471.17 121.58 L 470.88 121.12 C 470.34 120.42 469.80 119.73 469.28 119.03 C 466.98 115.80 464.97 112.39 462.78 109.08 M 473.19 126.13 C 473.26 126.45 473.40 127.09 473.47 127.41 L 474.42 127.07 L 474.60 126.12 C 474.24 126.13 473.54 126.13 473.19 126.13 Z" />
<path fill="#ffffff" opacity="1.00" d=" M 485.97 109.61 C 486.21 106.90 490.09 108.91 487.91 110.72 C 487.48 110.64 486.62 110.49 486.19 110.42 L 485.97 109.61 Z" />
<path fill="#000000" opacity="0.44" d=" M 500.42 108.16 C 502.62 109.25 502.45 111.93 502.89 113.98 C 503.61 119.32 504.69 125.44 500.92 129.94 C 498.76 133.93 493.95 134.51 489.93 135.11 C 478.50 136.72 467.21 139.16 455.86 141.19 C 452.97 141.52 449.40 142.36 447.36 139.63 C 455.36 139.96 463.12 137.71 470.92 136.27 C 478.26 134.82 485.68 133.78 493.12 132.92 C 497.45 132.65 500.64 128.87 501.73 124.92 C 502.97 119.36 501.44 113.64 500.42 108.16 Z" />
<path fill="#91bade" opacity="1.00" d=" M 467.48 110.78 C 468.57 110.64 469.66 110.56 470.77 110.51 L 471.24 110.54 C 472.94 113.21 474.55 115.92 476.29 118.56 C 476.79 119.25 477.33 119.92 477.91 120.57 C 478.41 121.12 479.40 122.23 479.89 122.78 C 478.09 123.92 475.87 126.10 474.09 123.75 C 475.34 121.17 475.31 118.34 473.36 116.12 C 472.88 117.06 471.92 118.94 471.44 119.88 C 469.95 117.23 468.23 114.72 466.65 112.13 C 466.86 111.79 467.27 111.11 467.48 110.78 Z" />
<path fill="#727a7b" opacity="1.00" d=" M 486.19 110.42 C 486.62 110.49 487.48 110.64 487.91 110.72 C 489.93 110.71 491.94 110.51 493.95 110.31 C 493.67 111.90 493.85 113.41 494.49 114.83 C 494.83 115.01 495.51 115.37 495.85 115.55 C 494.29 115.87 492.70 115.74 491.15 115.57 C 490.32 114.68 489.50 113.78 488.67 112.90 C 488.29 112.49 487.54 111.67 487.16 111.27 C 487.37 112.44 487.58 113.62 487.80 114.80 C 487.57 115.35 487.09 116.47 486.85 117.02 L 486.39 117.33 C 484.74 118.58 483.04 119.77 481.31 120.90 C 480.70 120.96 479.48 121.07 478.87 121.12 L 477.91 120.57 C 477.33 119.92 476.79 119.25 476.29 118.56 C 477.30 117.76 478.33 116.96 479.31 116.11 L 479.20 114.80 C 480.43 116.13 481.89 117.27 483.67 117.78 C 483.00 116.46 482.32 115.15 481.59 113.87 C 483.20 113.01 484.81 112.18 486.45 111.38 C 486.39 111.14 486.25 110.66 486.19 110.42 Z" />
<path fill="#90b8dd" opacity="1.00" d=" M 493.95 110.31 C 495.66 110.12 497.36 109.88 499.08 109.65 C 499.13 110.31 499.24 111.63 499.30 112.29 C 499.35 113.00 499.44 114.41 499.49 115.12 C 498.58 115.23 496.76 115.44 495.85 115.55 C 495.51 115.37 494.83 115.01 494.49 114.83 C 493.85 113.41 493.67 111.90 493.95 110.31 Z" />
<path fill="#292b35" opacity="1.00" d=" M 453.08 111.32 C 453.52 111.36 454.39 111.43 454.83 111.47 C 455.07 112.54 455.11 114.77 453.54 114.69 C 453.31 113.57 453.16 112.45 453.08 111.32 Z" />
<path fill="#020120" opacity="1.00" d=" M 447.55 114.93 C 447.06 113.50 446.47 111.83 448.65 111.80 C 448.61 112.52 448.53 113.95 448.49 114.67 C 448.66 114.95 448.98 115.52 449.14 115.81 C 450.37 115.70 451.60 115.59 452.83 115.46 C 454.38 117.50 456.17 119.33 457.84 121.27 C 458.02 121.78 458.36 122.82 458.53 123.34 C 459.70 123.78 460.88 124.23 462.07 124.68 C 461.73 125.04 461.04 125.76 460.70 126.12 C 461.74 128.14 462.95 130.08 464.16 132.01 C 463.32 132.86 462.51 133.73 461.64 134.54 C 459.39 134.59 457.13 134.79 454.90 135.09 C 455.12 134.62 455.54 133.69 455.76 133.23 C 454.11 133.49 452.46 133.74 450.82 134.01 C 451.60 133.47 452.38 132.94 453.17 132.40 C 456.70 130.86 456.77 126.86 456.47 123.55 C 454.92 122.13 453.03 120.85 450.82 121.34 L 450.11 121.81 C 449.30 122.41 448.52 123.02 447.77 123.67 C 447.33 124.04 446.44 124.77 446.00 125.14 C 445.66 121.61 444.17 117.49 447.55 114.93 Z" />
<path fill="#a1c4de" opacity="1.00" d=" M 448.65 111.80 C 450.11 111.55 451.59 111.39 453.08 111.32 C 453.16 112.45 453.31 113.57 453.54 114.69 C 451.85 114.72 450.17 114.69 448.49 114.67 C 448.53 113.95 448.61 112.52 448.65 111.80 Z" />
<path fill="#9ca3a4" opacity="1.00" d=" M 459.24 111.99 C 459.82 112.56 459.82 112.56 459.24 111.99 Z" />
<path fill="#8db4d6" opacity="1.00" d=" M 487.16 111.27 C 487.54 111.67 488.29 112.49 488.67 112.90 C 489.49 114.03 490.30 115.16 491.13 116.29 C 489.69 116.51 488.27 116.75 486.85 117.02 C 487.09 116.47 487.57 115.35 487.80 114.80 C 487.58 113.62 487.37 112.44 487.16 111.27 Z" />
<path fill="#9bb5cb" opacity="1.00" d=" M 479.01 112.83 C 479.87 113.15 480.73 113.50 481.59 113.87 C 482.32 115.15 483.00 116.46 483.67 117.78 C 481.89 117.27 480.43 116.13 479.20 114.80 C 479.15 114.31 479.05 113.32 479.01 112.83 Z" />
<path fill="#181b2b" opacity="1.00" d=" M 460.91 115.43 C 462.38 117.30 463.78 119.22 465.21 121.13 C 463.99 121.39 462.78 121.65 461.58 121.91 C 460.34 121.75 459.12 121.50 457.92 121.16 C 458.66 120.27 459.42 119.38 460.19 118.50 C 460.37 117.73 460.73 116.20 460.91 115.43 Z" />
<path fill="#c3c248" opacity="1.00" d=" M 473.36 116.12 C 475.31 118.34 475.34 121.17 474.09 123.75 C 473.10 122.67 472.13 121.59 471.16 120.50 L 471.44 119.88 C 471.92 118.94 472.88 117.06 473.36 116.12 Z" />
<path fill="#7c8081" opacity="1.00" d=" M 484.60 120.87 C 487.61 118.60 491.43 118.08 494.97 117.12 C 495.38 117.21 496.22 117.39 496.64 117.48 C 497.00 118.15 497.72 119.50 498.08 120.18 C 497.89 120.36 497.51 120.74 497.31 120.93 C 496.69 121.37 495.44 122.24 494.82 122.68 C 494.39 122.24 493.52 121.35 493.09 120.91 C 492.35 120.08 491.62 119.25 490.89 118.42 C 490.81 118.73 490.66 119.35 490.58 119.66 C 490.12 121.28 489.64 122.91 489.14 124.52 C 487.98 123.75 486.83 122.98 485.71 122.17 C 485.44 121.84 484.88 121.19 484.60 120.87 Z" />
<path fill="#90aec8" opacity="1.00" d=" M 496.64 117.48 C 497.85 117.17 499.07 116.87 500.29 116.57 C 500.40 119.67 500.03 122.96 497.25 124.86 C 496.85 124.35 496.06 123.33 495.67 122.82 C 496.08 122.35 496.90 121.40 497.31 120.93 C 497.51 120.74 497.89 120.36 498.08 120.18 C 497.72 119.50 497.00 118.15 496.64 117.48 Z" />
<path fill="#ffff00" opacity="1.00" d=" M 465.21 121.13 C 466.59 120.49 467.93 119.75 469.28 119.03 C 469.80 119.73 470.34 120.42 470.88 121.12 L 471.17 121.58 C 469.30 121.90 467.44 122.24 465.58 122.56 C 464.22 122.58 462.75 122.73 461.58 121.91 C 462.78 121.65 463.99 121.39 465.21 121.13 Z" />
<path fill="#91bade" opacity="1.00" d=" M 490.58 119.66 C 490.66 119.35 490.81 118.73 490.89 118.42 C 491.62 119.25 492.35 120.08 493.09 120.91 C 494.39 122.73 492.27 126.50 490.14 125.36 C 490.17 123.45 490.37 121.55 490.58 119.66 Z" />
<path fill="#a0a3a0" opacity="1.00" d=" M 478.87 121.12 C 479.48 121.07 480.70 120.96 481.31 120.90 C 480.70 120.96 479.48 121.07 478.87 121.12 Z" />
<path fill="#010116" opacity="1.00" d=" M 490.58 119.66 C 490.37 121.55 490.17 123.45 490.14 125.36 C 492.27 126.50 494.39 122.73 493.09 120.91 C 493.52 121.35 494.39 122.24 494.82 122.68 C 495.44 122.24 496.69 121.37 497.31 120.93 C 496.90 121.40 496.08 122.35 495.67 122.82 C 496.06 123.33 496.85 124.35 497.25 124.86 C 497.47 125.15 497.91 125.72 498.12 126.01 C 495.35 128.44 491.94 130.06 488.19 129.08 C 487.25 127.95 486.09 127.48 484.71 127.66 C 485.00 127.14 485.58 126.10 485.87 125.58 C 486.45 125.54 487.61 125.46 488.19 125.43 C 487.37 124.33 486.55 123.24 485.71 122.17 C 486.83 122.98 487.98 123.75 489.14 124.52 C 489.64 122.91 490.12 121.28 490.58 119.66 Z" />
<path fill="#66696b" opacity="1.00" d=" M 450.82 121.34 C 453.03 120.85 454.92 122.13 456.47 123.55 C 455.83 123.79 454.56 124.26 453.92 124.50 C 453.32 125.42 452.65 126.29 451.87 127.06 C 450.45 126.03 449.00 125.05 447.55 124.09 L 447.77 123.67 C 448.52 123.02 449.30 122.41 450.11 121.81 C 449.90 124.32 453.09 122.29 450.82 121.34 Z" />
<path fill="#89b1d3" opacity="1.00" d=" M 482.55 122.68 C 483.22 122.07 483.91 121.46 484.60 120.87 C 484.88 121.19 485.44 121.84 485.71 122.17 C 486.55 123.24 487.37 124.33 488.19 125.43 C 487.61 125.46 486.45 125.54 485.87 125.58 C 485.40 124.79 484.95 124.00 484.50 123.21 C 484.02 123.08 483.04 122.81 482.55 122.68 Z" />
<path fill="#959795" opacity="1.00" d=" M 450.11 121.81 L 450.82 121.34 C 453.09 122.29 449.90 124.32 450.11 121.81 Z" />
<path fill="#7c9ec2" opacity="1.00" d=" M 465.58 122.56 C 467.44 122.24 469.30 121.90 471.17 121.58 C 471.56 122.33 472.35 123.84 472.74 124.60 C 472.14 125.33 471.55 126.07 470.96 126.81 C 471.23 127.16 471.79 127.87 472.07 128.23 C 473.54 128.06 475.02 127.91 476.51 127.77 C 478.53 126.07 480.56 124.40 482.55 122.68 C 483.04 122.81 484.02 123.08 484.50 123.21 C 484.95 124.00 485.40 124.79 485.87 125.58 C 485.58 126.10 485.00 127.14 484.71 127.66 C 483.71 128.31 482.73 128.98 481.75 129.65 C 478.08 129.37 474.49 130.26 470.87 130.59 C 469.70 129.23 469.12 127.52 468.34 125.95 C 467.40 124.83 466.48 123.70 465.58 122.56 Z" />
<path fill="#010103" opacity="1.00" d=" M 446.00 125.14 C 446.44 124.77 447.33 124.04 447.77 123.67 L 447.55 124.09 C 447.37 125.94 447.38 127.80 447.42 129.66 C 448.48 129.22 449.53 128.78 450.60 128.35 C 450.64 128.61 450.73 129.12 450.78 129.38 C 449.98 129.53 448.38 129.83 447.58 129.97 C 449.05 131.59 450.92 132.63 453.17 132.40 C 452.38 132.94 451.60 133.47 450.82 134.01 C 452.46 133.74 454.11 133.49 455.76 133.23 C 455.54 133.69 455.12 134.62 454.90 135.09 C 451.70 135.63 448.44 135.62 445.23 135.20 C 445.37 134.84 445.64 134.10 445.78 133.73 C 446.38 132.34 446.82 130.85 446.24 129.38 C 445.62 129.23 444.40 128.94 443.78 128.79 C 443.55 128.73 443.10 128.61 442.87 128.55 C 443.74 128.45 445.46 128.23 446.33 128.13 C 446.24 127.38 446.08 125.89 446.00 125.14 Z" />
<path fill="#919391" opacity="1.00" d=" M 453.92 124.50 C 454.56 124.26 455.83 123.79 456.47 123.55 C 456.77 126.86 456.70 130.86 453.17 132.40 C 450.92 132.63 449.05 131.59 447.58 129.97 C 448.38 129.83 449.98 129.53 450.78 129.38 C 450.73 129.12 450.64 128.61 450.60 128.35 C 449.53 128.78 448.48 129.22 447.42 129.66 C 447.38 127.80 447.37 125.94 447.55 124.09 C 449.00 125.05 450.45 126.03 451.87 127.06 C 452.65 126.29 453.32 125.42 453.92 124.50 M 453.41 127.99 C 453.43 131.31 456.45 126.54 453.41 127.99 Z" />
<path fill="#92bae0" opacity="1.00" d=" M 462.07 124.68 C 462.49 124.27 463.32 123.45 463.73 123.04 C 464.68 124.17 465.63 125.32 466.65 126.40 C 466.46 126.79 466.06 127.56 465.87 127.95 C 465.78 128.21 465.61 128.75 465.52 129.02 C 467.09 129.16 468.46 129.75 469.64 130.78 C 467.81 131.22 465.99 131.61 464.16 132.01 C 462.95 130.08 461.74 128.14 460.70 126.12 C 461.04 125.76 461.73 125.04 462.07 124.68 Z" />
<path fill="#4c4e5b" opacity="1.00" d=" M 439.76 125.16 C 440.95 126.07 441.05 127.64 440.36 128.90 C 439.01 127.80 438.81 126.55 439.76 125.16 Z" />
<path fill="#c6c4bb" opacity="1.00" d=" M 473.19 126.13 C 473.54 126.13 474.24 126.13 474.60 126.12 L 474.42 127.07 L 473.47 127.41 C 473.40 127.09 473.26 126.45 473.19 126.13 Z" />
<path fill="#b5b4af" opacity="1.00" d=" M 465.87 127.95 C 466.06 127.56 466.46 126.79 466.65 126.40 C 467.56 126.86 467.97 127.57 467.87 128.53 C 467.37 128.39 466.37 128.09 465.87 127.95 Z" />
<path fill="#4b4c4c" opacity="1.00" d=" M 453.41 127.99 C 456.45 126.54 453.43 131.31 453.41 127.99 Z" />
<path fill="#ffffff" opacity="1.00" d=" M 484.71 127.66 C 486.09 127.48 487.25 127.95 488.19 129.08 C 486.86 130.08 484.14 129.90 484.71 127.66 Z" />
<path fill="#92bae0" opacity="1.00" d=" M 443.78 128.79 C 444.40 128.94 445.62 129.23 446.24 129.38 C 446.82 130.85 446.38 132.34 445.78 133.73 C 443.25 133.16 442.53 130.94 443.78 128.79 Z" />
<path fill="#ffffff" opacity="1.00" d=" M 46.23 294.01 C 51.20 290.38 59.24 290.70 63.44 295.40 C 66.39 299.48 65.40 304.90 65.63 309.62 C 62.38 309.62 59.12 309.62 55.87 309.62 C 55.68 305.95 56.38 302.14 55.34 298.56 C 51.78 297.21 52.21 301.84 52.23 304.03 C 52.65 311.35 51.44 318.87 52.90 326.07 C 53.49 326.05 54.66 326.03 55.25 326.01 C 56.29 322.82 55.77 319.41 55.87 316.12 C 59.14 316.12 62.40 316.11 65.66 316.14 C 65.43 321.07 66.33 327.46 61.59 330.65 C 56.16 334.45 46.40 333.76 43.54 327.10 C 41.79 320.89 42.75 314.35 42.49 308.00 C 42.56 303.20 41.85 297.26 46.23 294.01 Z" />
<path fill="#ffff00" opacity="1.00" d=" M 97.04 292.47 C 99.68 292.50 102.31 292.50 104.95 292.48 C 106.85 298.10 108.33 303.85 110.37 309.41 C 110.65 303.78 110.43 298.14 110.50 292.50 C 113.20 292.50 115.91 292.50 118.61 292.49 C 118.66 305.65 118.58 318.80 118.65 331.96 C 115.85 332.00 113.04 332.00 110.23 331.99 C 108.56 326.22 107.03 320.42 105.25 314.69 C 104.99 320.45 105.18 326.23 105.13 332.00 C 102.42 332.00 99.71 332.00 97.00 332.00 C 97.02 318.82 96.95 305.65 97.04 292.47 Z" />
<path fill="#ffff00" opacity="1.00" d=" M 123.26 297.21 C 126.62 290.39 136.98 289.89 142.11 294.89 C 145.30 298.04 144.70 302.89 144.93 306.98 C 141.66 307.01 138.40 307.00 135.13 307.00 C 135.12 304.26 135.24 301.50 134.81 298.78 C 134.25 298.70 133.14 298.53 132.58 298.45 C 131.57 301.50 132.13 304.78 132.00 307.94 C 132.15 313.63 131.68 319.35 132.25 325.03 C 132.26 326.48 135.04 326.64 135.07 324.95 C 135.55 322.40 135.49 319.76 135.25 317.19 C 134.81 316.96 133.92 316.49 133.47 316.26 C 133.49 314.42 133.50 312.58 133.51 310.75 C 137.30 310.75 141.09 310.75 144.88 310.75 C 144.88 317.83 144.86 324.91 144.88 331.99 C 142.83 331.99 140.78 332.00 138.73 332.02 C 138.53 331.37 138.14 330.07 137.94 329.42 C 134.33 335.25 125.11 333.00 123.14 326.94 C 121.66 322.11 122.45 316.97 122.25 312.00 C 122.43 307.08 121.69 301.95 123.26 297.21 Z" />
<path fill="#ffffff" opacity="1.00" d=" M 19.24 292.51 C 24.84 292.78 30.69 291.70 36.10 293.52 C 40.32 295.18 40.14 300.28 40.15 304.04 C 39.98 307.23 40.64 310.89 38.73 313.68 C 36.32 316.46 32.31 316.05 29.00 316.18 C 29.00 321.45 29.00 326.72 29.00 332.00 C 25.75 332.00 22.49 332.00 19.24 331.99 C 19.26 318.83 19.26 305.67 19.24 292.51 M 29.18 298.76 C 28.91 302.40 28.95 306.06 29.10 309.71 C 29.72 309.46 30.97 308.94 31.60 308.68 C 32.24 305.92 32.16 302.98 31.72 300.20 C 30.90 299.67 30.06 299.19 29.18 298.76 Z" />
<path fill="#ffff00" opacity="1.00" d=" M 77.47 331.96 C 77.53 318.81 77.47 305.65 77.50 292.50 C 82.84 292.50 88.17 292.49 93.50 292.50 C 93.50 295.12 93.50 297.75 93.50 300.38 C 91.42 300.37 89.34 300.37 87.26 300.37 C 87.25 302.87 87.25 305.37 87.24 307.87 C 89.20 307.87 91.16 307.87 93.13 307.88 C 93.12 310.38 93.12 312.87 93.12 315.38 C 91.17 315.37 89.21 315.37 87.26 315.37 C 87.25 318.28 87.25 321.19 87.25 324.10 C 89.59 324.11 91.93 324.12 94.27 324.16 C 94.25 326.77 94.25 329.39 94.24 332.00 C 88.65 331.98 83.06 332.04 77.47 331.96 Z" />
<path fill="#ffff00" opacity="1.00" d=" M 148.62 292.50 C 153.96 292.49 159.29 292.50 164.62 292.50 C 164.62 295.12 164.62 297.75 164.62 300.38 C 162.54 300.37 160.46 300.37 158.38 300.38 C 158.38 302.87 158.37 305.36 158.37 307.86 C 160.33 307.87 162.29 307.87 164.25 307.88 C 164.25 310.38 164.25 312.88 164.25 315.38 C 162.29 315.37 160.34 315.37 158.38 315.37 C 158.38 318.28 158.37 321.20 158.38 324.11 C 160.71 324.12 163.05 324.12 165.39 324.15 C 165.37 326.75 165.38 329.35 165.40 331.95 C 159.81 332.04 154.22 331.98 148.62 332.00 C 148.62 318.83 148.62 305.67 148.62 292.50 Z" />
<path fill="#ffff00" opacity="1.00" d=" M 168.24 331.99 C 168.30 318.81 168.18 305.64 168.30 292.47 C 170.95 292.49 173.60 292.50 176.25 292.50 C 178.07 298.35 179.88 304.20 181.65 310.06 C 181.84 304.21 181.71 298.35 181.75 292.50 C 184.46 292.49 187.17 292.50 189.88 292.51 C 189.87 305.67 189.88 318.84 189.88 332.00 C 187.06 332.00 184.25 332.01 181.44 331.94 C 179.80 326.18 178.35 320.36 176.38 314.70 C 176.34 320.47 176.40 326.24 176.38 332.00 C 173.66 332.00 170.95 332.00 168.24 331.99 Z" />
<path fill="#ffff00" opacity="1.00" d=" M 193.88 292.50 C 197.12 292.50 200.36 292.50 203.61 292.49 C 203.66 305.65 203.57 318.80 203.65 331.96 C 200.39 332.01 197.13 332.00 193.87 332.00 C 193.87 318.83 193.87 305.67 193.88 292.50 Z" />
<path fill="#ffff00" opacity="1.00" d=" M 207.35 331.97 C 207.42 318.81 207.33 305.64 207.40 292.48 C 212.72 292.51 218.05 292.49 223.38 292.50 C 223.37 295.12 223.37 297.75 223.38 300.38 C 221.29 300.37 219.22 300.37 217.14 300.36 C 217.12 302.86 217.12 305.37 217.12 307.87 C 219.08 307.87 221.04 307.87 223.00 307.88 C 223.00 310.37 223.00 312.88 223.00 315.38 C 221.04 315.37 219.09 315.37 217.14 315.36 C 217.12 318.28 217.12 321.19 217.12 324.11 C 219.45 324.12 221.79 324.12 224.13 324.13 C 224.12 326.75 224.12 329.37 224.12 332.00 C 218.53 331.99 212.94 332.03 207.35 331.97 Z" />
</svg>
