<?xml version="1.0" encoding="UTF-8" ?>
<!DOCTYPE svg PUBLIC "-//W3C//DTD SVG 1.1//EN" "http://www.w3.org/Graphics/SVG/1.1/DTD/svg11.dtd">
<svg width="960pt" height="540pt" viewBox="0 0 960 540" version="1.1" xmlns="http://www.w3.org/2000/svg">
<path fill="#2f3e4f" opacity="1.00" d=" M 450.50 52.00 C 452.18 52.64 453.86 53.33 455.36 54.35 C 452.62 56.18 449.93 58.07 447.29 60.04 C 443.99 62.39 440.66 64.70 437.38 67.06 C 435.93 68.08 434.43 69.02 433.08 70.15 C 433.37 71.38 433.96 73.84 434.25 75.07 C 432.24 74.03 430.37 72.77 428.91 71.03 C 428.85 69.45 428.85 67.87 428.69 66.30 L 428.63 65.74 C 429.18 65.63 430.28 65.42 430.84 65.31 C 433.04 66.29 434.80 64.59 436.50 63.45 C 439.31 61.26 443.21 61.14 445.75 58.50 C 445.23 58.04 444.20 57.11 443.68 56.64 C 445.99 55.16 448.32 53.69 450.50 52.00 Z" />
<path fill="#878f96" opacity="1.00" d=" M 506.10 53.42 C 506.60 53.25 507.60 52.89 508.10 52.72 C 512.77 54.68 517.33 56.97 521.58 59.75 C 518.61 62.84 516.04 66.30 512.95 69.29 C 512.15 69.20 510.54 69.02 509.73 68.93 C 510.51 69.50 511.30 70.07 512.09 70.64 C 510.51 73.30 507.10 75.64 507.82 79.07 C 507.12 80.16 506.44 81.27 506.10 82.53 C 504.83 81.91 503.48 81.47 502.26 80.77 C 501.35 80.14 500.45 79.50 499.54 78.89 C 497.32 77.51 494.00 76.06 492.40 79.13 C 491.09 78.20 489.88 77.13 488.72 76.04 C 489.16 75.04 489.48 74.00 489.66 72.93 C 489.31 71.17 489.76 69.31 490.81 67.86 C 495.23 62.39 500.63 57.81 506.10 53.42 M 505.84 57.95 C 507.80 60.95 511.45 62.57 514.93 62.92 C 513.16 59.77 509.35 58.08 505.84 57.95 M 501.73 59.74 C 504.53 63.40 508.94 65.33 513.18 66.81 C 512.97 64.97 510.85 65.11 509.59 64.35 C 506.72 63.24 504.52 60.93 501.73 59.74 M 504.36 69.17 C 503.64 70.56 504.03 70.97 505.54 70.39 C 506.31 69.02 505.92 68.61 504.36 69.17 Z" />
<path fill="#a3a4a5" opacity="1.00" d=" M 455.36 54.35 C 459.08 56.24 462.52 58.55 466.54 59.88 L 466.32 60.28 C 465.81 61.26 465.31 62.24 464.83 63.24 C 465.18 63.68 465.87 64.56 466.22 65.01 C 464.90 66.28 463.55 67.52 462.28 68.84 C 461.59 69.07 460.22 69.52 459.53 69.75 C 459.46 69.00 459.30 67.51 459.22 66.76 C 461.40 65.56 463.46 64.16 464.60 61.86 C 462.84 60.51 460.81 59.62 458.73 58.90 L 458.23 59.81 L 457.27 59.87 C 456.33 58.80 455.33 58.73 454.28 59.67 C 451.99 60.29 449.62 60.70 447.29 60.04 C 449.93 58.07 452.62 56.18 455.36 54.35 Z" />
<path fill="#3d4959" opacity="0.93" d=" M 430.84 65.31 C 434.86 62.06 439.41 59.55 443.68 56.64 C 444.20 57.11 445.23 58.04 445.75 58.50 C 443.21 61.14 439.31 61.26 436.50 63.45 C 434.80 64.59 433.04 66.29 430.84 65.31 Z" />
<path fill="#ac948f" opacity="1.00" d=" M 505.84 57.95 C 509.35 58.08 513.16 59.77 514.93 62.92 C 511.45 62.57 507.80 60.95 505.84 57.95 Z" />
<path fill="#bc887e" opacity="1.00" d=" M 454.28 59.67 C 455.33 58.73 456.33 58.80 457.27 59.87 C 456.16 60.75 455.16 60.69 454.28 59.67 Z" />
<path fill="#e3e3db" opacity="1.00" d=" M 458.73 58.90 C 460.81 59.62 462.84 60.51 464.60 61.86 C 463.46 64.16 461.40 65.56 459.22 66.76 C 458.90 67.57 458.64 68.40 458.40 69.24 C 457.18 70.11 455.96 70.97 454.76 71.86 C 455.44 70.58 456.09 69.29 456.73 67.99 C 455.47 68.63 454.24 69.30 453.06 70.05 C 453.18 68.81 453.35 67.55 452.61 66.47 C 451.52 65.15 450.41 63.85 449.35 62.51 C 452.25 63.41 455.07 64.55 457.91 65.65 C 457.58 64.54 457.07 63.48 457.00 62.32 C 458.16 62.37 460.24 60.20 458.23 59.81 L 458.73 58.90 Z" />
<path fill="#4c4e51" opacity="0.97" d=" M 521.58 59.75 L 521.83 59.47 C 522.59 60.36 523.35 61.24 524.14 62.12 L 523.23 62.28 C 522.82 62.35 522.00 62.50 521.59 62.58 C 516.53 67.69 512.74 73.87 507.82 79.07 C 507.10 75.64 510.51 73.30 512.09 70.64 C 511.30 70.07 510.51 69.50 509.73 68.93 C 510.54 69.02 512.15 69.20 512.95 69.29 C 516.04 66.30 518.61 62.84 521.58 59.75 Z" />
<path fill="#bdc1bd" opacity="1.00" d=" M 437.38 67.06 C 440.66 64.70 443.99 62.39 447.29 60.04 C 449.62 60.70 451.99 60.29 454.28 59.67 C 455.16 60.69 456.16 60.75 457.27 59.87 L 458.23 59.81 C 457.92 60.44 457.31 61.69 457.00 62.32 C 457.07 63.48 457.58 64.54 457.91 65.65 C 455.07 64.55 452.25 63.41 449.35 62.51 C 450.41 63.85 451.52 65.15 452.61 66.47 C 452.15 66.53 451.22 66.66 450.76 66.72 C 446.32 65.36 441.85 67.42 437.38 67.06 Z" />
<path fill="#82817d" opacity="1.00" d=" M 458.23 59.81 C 460.24 60.20 458.16 62.37 457.00 62.32 C 457.31 61.69 457.92 60.44 458.23 59.81 Z" />
<path fill="#161b20" opacity="0.98" d=" M 466.32 60.28 C 467.05 60.62 467.43 61.24 467.46 62.13 C 468.98 62.68 470.11 63.83 471.28 64.90 C 473.44 66.21 476.19 67.10 477.42 69.49 C 477.24 71.27 478.34 74.04 476.29 75.00 C 476.08 76.79 478.83 77.61 477.68 79.50 C 477.03 78.66 476.34 77.86 475.62 77.09 C 475.50 76.65 475.25 75.77 475.12 75.33 C 476.18 73.09 477.61 69.56 474.67 68.12 C 472.56 66.10 469.52 66.46 466.86 66.17 C 463.39 69.01 461.49 73.25 457.88 76.00 C 457.28 76.02 456.09 76.05 455.49 76.07 L 456.19 75.57 C 457.84 74.21 459.36 72.72 460.93 71.28 C 460.30 70.77 459.03 69.75 458.40 69.24 C 458.64 68.40 458.90 67.57 459.22 66.76 C 459.30 67.51 459.46 69.00 459.53 69.75 C 460.11 71.33 462.68 70.49 462.28 68.84 C 463.55 67.52 464.90 66.28 466.22 65.01 C 465.87 64.56 465.18 63.68 464.83 63.24 C 465.31 62.24 465.81 61.26 466.32 60.28 Z" />
<path fill="#303337" opacity="1.00" d=" M 501.73 59.74 C 504.52 60.93 506.72 63.24 509.59 64.35 C 510.85 65.11 512.97 64.97 513.18 66.81 C 508.94 65.33 504.53 63.40 501.73 59.74 Z" />
<path fill="#050608" opacity="1.00" d=" M 521.59 62.58 C 522.00 62.50 522.82 62.35 523.23 62.28 C 517.88 68.30 513.05 74.84 509.20 81.92 C 509.62 83.55 510.12 85.16 510.69 86.75 C 510.50 87.02 510.10 87.55 509.91 87.82 C 509.00 87.74 508.10 87.69 507.21 87.67 C 505.76 89.10 504.04 90.17 502.08 90.77 C 501.90 87.23 505.35 85.67 506.10 82.53 C 506.44 81.27 507.12 80.16 507.82 79.07 C 512.74 73.87 516.53 67.69 521.59 62.58 Z" />
<path fill="#303337" opacity="1.00" d=" M 523.23 62.28 L 524.14 62.12 L 524.87 62.00 L 524.84 62.99 C 524.65 64.98 524.88 67.10 524.10 68.98 C 519.70 74.95 514.92 80.65 510.69 86.75 C 510.12 85.16 509.62 83.55 509.20 81.92 C 513.05 74.84 517.88 68.30 523.23 62.28 Z" />
<path fill="#090909" opacity="0.55" d=" M 524.84 62.99 C 526.29 64.80 525.40 67.78 524.96 69.92 C 521.74 74.94 517.54 79.26 514.17 84.18 C 512.93 85.99 511.61 87.77 509.99 89.26 C 507.84 87.76 506.29 89.53 505.22 91.25 C 504.67 91.37 503.57 91.60 503.02 91.72 C 501.85 92.94 500.78 94.28 499.84 95.68 C 504.84 95.93 510.04 94.26 514.88 95.96 L 514.34 95.98 C 509.68 95.06 504.93 95.84 500.24 95.95 C 500.11 96.76 499.85 98.39 499.72 99.20 L 499.48 98.38 C 499.35 97.97 499.07 97.13 498.93 96.72 C 497.66 98.08 496.10 100.87 494.08 98.78 L 494.71 98.38 L 495.03 98.18 C 498.04 96.43 499.65 93.16 502.08 90.77 C 504.04 90.17 505.76 89.10 507.21 87.67 C 508.10 87.69 509.00 87.74 509.91 87.82 C 510.10 87.55 510.50 87.02 510.69 86.75 C 514.92 80.65 519.70 74.95 524.10 68.98 C 524.88 67.10 524.65 64.98 524.84 62.99 Z" />
<path fill="#d5d8d3" opacity="1.00" d=" M 428.57 70.85 C 428.44 69.42 427.66 67.50 428.69 66.30 C 428.85 67.87 428.85 69.45 428.91 71.03 C 430.37 72.77 432.24 74.03 434.25 75.07 C 433.96 73.84 433.37 71.38 433.08 70.15 C 434.43 69.02 435.93 68.08 437.38 67.06 C 441.85 67.42 446.32 65.36 450.76 66.72 C 448.76 67.31 446.95 68.35 445.47 69.80 C 442.66 69.62 439.60 69.09 437.20 70.97 C 437.59 72.47 437.90 73.99 438.30 75.49 C 441.06 76.84 444.06 77.68 447.16 77.28 C 443.94 77.87 440.62 78.12 437.51 76.93 C 437.09 76.80 436.25 76.56 435.83 76.44 C 433.50 74.50 429.96 73.79 428.57 70.85 Z" />
<path fill="#111b25" opacity="1.00" d=" M 450.76 66.72 C 451.22 66.66 452.15 66.53 452.61 66.47 C 453.35 67.55 453.18 68.81 453.06 70.05 C 451.42 72.05 449.12 73.33 446.56 73.71 C 446.79 74.86 446.47 75.68 445.58 76.16 C 445.11 75.01 444.43 74.00 443.53 73.16 C 444.17 72.04 444.79 70.91 445.47 69.80 C 446.95 68.35 448.76 67.31 450.76 66.72 Z" />
<path fill="#edf0f1" opacity="1.00" d=" M 453.06 70.05 C 454.24 69.30 455.47 68.63 456.73 67.99 C 456.09 69.29 455.44 70.58 454.76 71.86 C 454.42 72.42 453.73 73.55 453.39 74.11 C 454.09 74.47 455.49 75.20 456.19 75.57 L 455.49 76.07 C 452.68 76.21 449.93 76.86 447.16 77.28 C 444.06 77.68 441.06 76.84 438.30 75.49 C 437.90 73.99 437.59 72.47 437.20 70.97 C 439.60 69.09 442.66 69.62 445.47 69.80 C 444.79 70.91 444.17 72.04 443.53 73.16 C 444.43 74.00 445.11 75.01 445.58 76.16 C 446.47 75.68 446.79 74.86 446.56 73.71 C 449.12 73.33 451.42 72.05 453.06 70.05 Z" />
<path fill="#e1dfd7" opacity="1.00" d=" M 459.53 69.75 C 460.22 69.52 461.59 69.07 462.28 68.84 C 462.68 70.49 460.11 71.33 459.53 69.75 Z" />
<path fill="#5e646b" opacity="1.00" d=" M 504.36 69.17 C 505.92 68.61 506.31 69.02 505.54 70.39 C 504.03 70.97 503.64 70.56 504.36 69.17 Z" />
<path fill="#bcbcba" opacity="1.00" d=" M 454.76 71.86 C 455.96 70.97 457.18 70.11 458.40 69.24 C 459.03 69.75 460.30 70.77 460.93 71.28 C 459.36 72.72 457.84 74.21 456.19 75.57 C 455.49 75.20 454.09 74.47 453.39 74.11 C 453.73 73.55 454.42 72.42 454.76 71.86 Z" />
<path fill="#7c8087" opacity="1.00" d=" M 486.86 71.78 C 487.56 72.07 488.96 72.64 489.66 72.93 C 489.48 74.00 489.16 75.04 488.72 76.04 C 489.88 77.13 491.09 78.20 492.40 79.13 C 494.51 81.13 497.52 80.92 499.54 78.89 C 500.45 79.50 501.35 80.14 502.26 80.77 C 503.43 82.83 502.44 84.79 500.87 86.25 C 499.56 85.42 498.27 84.57 496.98 83.73 C 494.50 85.69 495.62 88.31 497.02 90.53 C 496.06 91.66 495.13 92.81 494.22 93.98 C 494.48 95.38 494.74 96.78 495.03 98.18 L 494.71 98.38 C 491.63 95.42 488.58 92.44 485.48 89.51 C 484.66 88.58 483.17 87.93 483.38 86.44 L 480.96 86.42 C 480.63 86.03 480.45 85.55 480.26 85.09 C 480.35 84.27 480.54 82.62 480.63 81.80 C 483.10 79.31 485.85 77.12 488.38 74.68 C 487.86 73.72 487.35 72.75 486.86 71.78 M 483.56 85.43 C 485.65 85.57 485.95 87.30 486.07 89.01 C 487.21 88.90 488.36 88.79 489.52 88.68 C 489.77 87.99 490.28 86.63 490.53 85.94 C 490.12 85.49 489.28 84.58 488.87 84.12 C 489.86 83.48 490.67 82.42 491.89 82.19 C 493.21 82.42 493.98 83.77 495.09 84.44 C 493.97 82.02 491.30 80.69 490.06 78.26 C 488.00 80.75 485.83 83.14 483.56 85.43 Z" />
<path fill="#a9aaa9" opacity="1.00" d=" M 447.16 77.28 C 449.93 76.86 452.68 76.21 455.49 76.07 C 456.09 76.05 457.28 76.02 457.88 76.00 C 463.54 75.80 469.19 75.13 474.86 75.28 L 474.34 76.78 L 475.62 77.09 C 476.34 77.86 477.03 78.66 477.68 79.50 C 478.97 81.14 479.67 83.11 480.26 85.09 C 480.45 85.55 480.63 86.03 480.96 86.42 C 483.64 89.93 484.79 94.32 485.87 98.53 C 486.00 99.45 486.27 101.28 486.40 102.19 C 483.65 102.85 480.90 103.47 478.13 104.00 C 480.02 99.89 476.96 96.33 476.13 92.42 C 477.84 92.04 479.55 91.64 481.25 91.20 C 481.01 91.10 480.53 90.90 480.30 90.80 C 477.71 89.78 476.43 87.31 474.70 85.34 C 470.85 81.62 465.50 79.88 460.25 79.49 C 460.03 81.68 459.87 83.87 459.72 86.06 C 459.11 84.24 458.56 82.40 457.90 80.60 C 456.28 80.92 454.64 81.18 453.03 80.71 C 453.83 84.59 454.05 88.55 454.52 92.48 C 454.87 92.67 455.57 93.07 455.92 93.26 C 455.42 93.62 454.41 94.32 453.90 94.67 C 452.36 90.36 452.03 85.77 451.64 81.25 C 449.86 83.85 448.20 86.87 445.11 88.09 C 440.72 89.95 438.10 94.56 433.17 95.37 C 434.04 90.43 434.48 85.44 434.71 80.44 C 434.86 78.88 435.86 77.92 437.50 78.37 L 437.51 76.93 C 440.62 78.12 443.94 77.87 447.16 77.28 M 478.93 94.01 C 478.03 96.42 481.02 99.60 482.81 96.81 C 482.42 96.00 482.03 95.19 481.63 94.38 C 480.96 94.29 479.60 94.10 478.93 94.01 Z" />
<path fill="#ad8b82" opacity="1.00" d=" M 492.40 79.13 C 494.00 76.06 497.32 77.51 499.54 78.89 C 497.52 80.92 494.51 81.13 492.40 79.13 Z" />
<path fill="#b1b2b2" opacity="1.00" d=" M 460.25 79.49 C 465.50 79.88 470.85 81.62 474.70 85.34 C 476.43 87.31 477.71 89.78 480.30 90.80 C 474.56 92.30 468.66 93.09 462.79 93.84 C 460.52 93.33 458.25 92.75 455.92 93.26 C 455.57 93.07 454.87 92.67 454.52 92.48 C 454.05 88.55 453.83 84.59 453.03 80.71 C 454.64 81.18 456.28 80.92 457.90 80.60 C 458.56 82.40 459.11 84.24 459.72 86.06 C 459.87 83.87 460.03 81.68 460.25 79.49 Z" />
<path fill="#191a1a" opacity="1.00" d=" M 483.56 85.43 C 485.83 83.14 488.00 80.75 490.06 78.26 C 491.30 80.69 493.97 82.02 495.09 84.44 C 493.98 83.77 493.21 82.42 491.89 82.19 C 490.67 82.42 489.86 83.48 488.87 84.12 C 489.28 84.58 490.12 85.49 490.53 85.94 C 490.28 86.63 489.77 87.99 489.52 88.68 C 488.36 88.79 487.21 88.90 486.07 89.01 C 485.95 87.30 485.65 85.57 483.56 85.43 Z" />
<path fill="#999a9a" opacity="1.00" d=" M 431.95 80.88 C 432.64 80.77 434.02 80.55 434.71 80.44 C 434.48 85.44 434.04 90.43 433.17 95.37 L 432.80 96.23 L 431.87 96.33 C 431.80 93.67 431.90 90.88 430.56 88.47 C 430.80 85.90 431.38 83.39 431.95 80.88 Z" />
<path fill="#b2b3b3" opacity="1.00" d=" M 445.11 88.09 C 448.20 86.87 449.86 83.85 451.64 81.25 C 452.03 85.77 452.36 90.36 453.90 94.67 C 446.98 95.92 439.84 96.37 432.80 96.23 L 433.17 95.37 C 438.10 94.56 440.72 89.95 445.11 88.09 Z" />
<path fill="#2e302f" opacity="1.00" d=" M 502.26 80.77 C 503.48 81.47 504.83 81.91 506.10 82.53 C 505.35 85.67 501.90 87.23 502.08 90.77 C 499.65 93.16 498.04 96.43 495.03 98.18 C 494.74 96.78 494.48 95.38 494.22 93.98 C 495.13 92.81 496.06 91.66 497.02 90.53 C 498.27 89.07 499.61 87.70 500.87 86.25 C 502.44 84.79 503.43 82.83 502.26 80.77 Z" />
<path fill="#4f5357" opacity="1.00" d=" M 496.98 83.73 C 498.27 84.57 499.56 85.42 500.87 86.25 C 499.61 87.70 498.27 89.07 497.02 90.53 C 495.62 88.31 494.50 85.69 496.98 83.73 Z" />
<path fill="#a4a5ab" opacity="1.00" d=" M 430.56 88.47 C 431.90 90.88 431.80 93.67 431.87 96.33 C 434.28 96.69 436.71 96.95 439.16 96.93 C 439.32 101.08 439.34 105.24 439.23 109.39 C 435.76 109.62 432.28 109.79 428.81 109.82 C 428.46 102.65 429.44 95.53 430.56 88.47 Z" />
<path fill="#444748" opacity="1.00" d=" M 480.30 90.80 C 480.53 90.90 481.01 91.10 481.25 91.20 C 479.55 91.64 477.84 92.04 476.13 92.42 C 463.89 94.53 451.51 95.64 439.16 96.93 C 436.71 96.95 434.28 96.69 431.87 96.33 L 432.80 96.23 C 439.84 96.37 446.98 95.92 453.90 94.67 C 454.41 94.32 455.42 93.62 455.92 93.26 C 458.25 92.75 460.52 93.33 462.79 93.84 C 468.66 93.09 474.56 92.30 480.30 90.80 Z" />
<path fill="#b3b5b6" opacity="1.00" d=" M 439.16 96.93 C 451.51 95.64 463.89 94.53 476.13 92.42 C 476.96 96.33 480.02 99.89 478.13 104.00 C 475.96 104.40 473.80 104.87 471.64 105.28 C 468.95 104.13 466.07 104.90 464.05 106.91 C 455.75 107.53 447.54 108.92 439.23 109.39 C 439.34 105.24 439.32 101.08 439.16 96.93 M 450.14 98.25 C 449.94 101.25 449.63 104.39 450.65 107.29 C 451.11 104.18 451.06 101.02 450.84 97.89 L 450.14 98.25 Z" />
<path fill="#8b89ae" opacity="1.00" d=" M 478.93 94.01 C 479.60 94.10 480.96 94.29 481.63 94.38 C 482.03 95.19 482.42 96.00 482.81 96.81 C 481.02 99.60 478.03 96.42 478.93 94.01 Z" />
<path fill="#5e6265" opacity="1.00" d=" M 500.24 95.95 C 504.93 95.84 509.68 95.06 514.34 95.98 C 514.59 97.56 514.23 99.13 513.92 100.67 C 511.98 100.91 510.05 101.14 508.13 101.42 C 508.08 100.60 508.00 98.94 507.96 98.12 C 506.13 97.87 504.32 97.58 502.49 97.34 C 502.40 97.97 502.20 99.23 502.10 99.86 L 501.91 100.70 C 500.99 103.27 500.87 105.98 501.19 108.67 C 497.56 107.13 500.25 102.24 499.72 99.20 C 499.85 98.39 500.11 96.76 500.24 95.95 Z" />
<path fill="#444748" opacity="1.00" d=" M 514.34 95.98 L 514.88 95.96 C 518.08 97.06 521.25 98.27 524.56 99.05 C 524.71 100.53 524.76 102.00 524.70 103.48 C 523.93 102.36 523.17 101.23 522.43 100.10 C 520.91 99.88 519.40 99.64 517.89 99.49 C 517.00 102.11 515.95 105.27 512.85 105.87 C 510.47 105.70 508.41 103.81 508.13 101.42 C 510.05 101.14 511.98 100.91 513.92 100.67 C 514.23 99.13 514.59 97.56 514.34 95.98 Z" />
<path fill="#141a20" opacity="1.00" d=" M 502.49 97.34 C 504.32 97.58 506.13 97.87 507.96 98.12 C 508.00 98.94 508.08 100.60 508.13 101.42 C 508.41 103.81 510.47 105.70 512.85 105.87 C 515.95 105.27 517.00 102.11 517.89 99.49 C 519.40 99.64 520.91 99.88 522.43 100.10 C 523.17 101.23 523.93 102.36 524.70 103.48 C 524.55 106.20 524.36 108.91 524.24 111.62 C 516.02 112.06 508.02 109.82 499.86 109.38 C 499.54 108.90 498.91 107.95 498.59 107.48 C 498.93 104.45 499.23 101.42 499.48 98.38 L 499.72 99.20 C 500.25 102.24 497.56 107.13 501.19 108.67 C 502.93 109.02 504.73 109.08 506.50 108.78 L 506.62 108.47 C 507.63 106.20 508.59 103.49 506.70 101.37 C 505.90 99.50 503.69 100.14 502.10 99.86 C 502.20 99.23 502.40 97.97 502.49 97.34 M 517.15 104.01 C 516.75 105.56 517.36 106.10 518.99 105.63 C 519.47 104.05 518.86 103.51 517.15 104.01 M 520.08 104.20 C 519.58 105.75 520.19 106.31 521.91 105.88 C 522.39 104.35 521.77 103.79 520.08 104.20 Z" />
<path fill="#999b9e" opacity="1.00" d=" M 450.14 98.25 L 450.84 97.89 C 451.06 101.02 451.11 104.18 450.65 107.29 C 449.63 104.39 449.94 101.25 450.14 98.25 Z" />
<path fill="#121313" opacity="1.00" d=" M 485.87 98.53 C 487.08 100.97 486.85 103.82 486.46 106.44 L 484.86 106.95 C 485.81 107.76 486.82 108.50 487.88 109.17 C 487.86 109.88 487.82 111.29 487.80 112.00 C 479.47 109.39 470.46 109.40 461.97 111.19 L 461.10 111.00 C 461.95 110.54 462.79 110.06 463.63 109.56 C 463.74 108.90 463.94 107.58 464.05 106.91 C 466.07 104.90 468.95 104.13 471.64 105.28 C 473.37 106.15 475.23 107.82 477.30 107.02 C 480.02 106.09 482.87 105.60 485.75 105.79 C 486.00 104.59 486.22 103.40 486.40 102.19 C 486.27 101.28 486.00 99.45 485.87 98.53 M 467.43 107.30 C 467.44 108.68 469.89 108.65 470.65 107.83 C 470.68 106.40 468.19 106.54 467.43 107.30 Z" />
<path fill="#7b3f24" opacity="1.00" d=" M 502.10 99.86 C 503.69 100.14 505.90 99.50 506.70 101.37 C 508.59 103.49 507.63 106.20 506.62 108.47 C 504.97 107.14 506.61 104.90 506.13 103.17 C 506.03 100.99 503.48 100.97 501.91 100.70 L 502.10 99.86 Z" />
<path fill="#383a3b" opacity="1.00" d=" M 501.91 100.70 C 503.48 100.97 506.03 100.99 506.13 103.17 C 506.61 104.90 504.97 107.14 506.62 108.47 L 506.50 108.78 C 504.73 109.08 502.93 109.02 501.19 108.67 C 500.87 105.98 500.99 103.27 501.91 100.70 Z" />
<path fill="#5e6266" opacity="1.00" d=" M 478.13 104.00 C 480.90 103.47 483.65 102.85 486.40 102.19 C 486.22 103.40 486.00 104.59 485.75 105.79 C 482.87 105.60 480.02 106.09 477.30 107.02 C 475.23 107.82 473.37 106.15 471.64 105.28 C 473.80 104.87 475.96 104.40 478.13 104.00 Z" />
<path fill="#773a20" opacity="1.00" d=" M 517.15 104.01 C 518.86 103.51 519.47 104.05 518.99 105.63 C 517.36 106.10 516.75 105.56 517.15 104.01 Z" />
<path fill="#8b4320" opacity="1.00" d=" M 520.08 104.20 C 521.77 103.79 522.39 104.35 521.91 105.88 C 520.19 106.31 519.58 105.75 520.08 104.20 Z" />
<path fill="#656764" opacity="1.00" d=" M 439.23 109.39 C 447.54 108.92 455.75 107.53 464.05 106.91 C 463.94 107.58 463.74 108.90 463.63 109.56 C 462.79 110.06 461.95 110.54 461.10 111.00 L 461.97 111.19 C 461.41 111.47 460.28 112.05 459.72 112.34 L 458.94 111.98 C 457.27 111.32 455.38 111.67 453.63 111.55 L 453.49 112.53 C 448.75 113.87 443.66 113.28 438.73 113.64 L 438.28 114.40 C 435.75 114.37 433.22 114.36 430.71 114.47 C 429.50 113.20 429.16 111.46 428.81 109.82 C 432.28 109.79 435.76 109.62 439.23 109.39 M 453.23 109.10 C 453.46 112.21 456.42 107.56 453.23 109.10 Z" />
<path fill="#2c2e2e" opacity="1.00" d=" M 467.43 107.30 C 468.19 106.54 470.68 106.40 470.65 107.83 C 469.89 108.65 467.44 108.68 467.43 107.30 Z" />
<path fill="#0d0e0e" opacity="1.00" d=" M 453.23 109.10 C 456.42 107.56 453.46 112.21 453.23 109.10 Z" />
<path fill="#9fa0ac" opacity="1.00" d=" M 461.97 111.19 C 470.46 109.40 479.47 109.39 487.80 112.00 C 488.71 112.31 489.55 112.75 490.34 113.33 C 489.61 113.44 488.16 113.66 487.43 113.77 C 485.07 113.80 482.87 114.58 481.20 116.26 C 479.93 117.63 477.80 117.41 476.56 118.78 C 477.65 119.08 478.76 119.35 479.89 119.60 C 477.87 119.70 475.85 119.72 473.85 119.90 C 473.77 121.16 473.71 122.43 473.68 123.69 C 473.24 123.62 472.36 123.48 471.92 123.42 C 472.39 122.78 473.34 121.51 473.82 120.87 C 472.73 120.24 471.61 119.71 470.44 119.29 L 471.23 118.91 L 471.74 118.79 L 471.73 118.35 L 471.21 118.25 C 469.39 117.01 467.63 115.67 465.76 114.51 C 466.38 114.27 467.63 113.79 468.25 113.56 C 465.48 112.34 462.26 114.57 459.72 112.34 C 460.28 112.05 461.41 111.47 461.97 111.19 M 475.03 118.24 C 475.60 118.82 475.60 118.82 475.03 118.24 Z" />
<path fill="#9799a3" opacity="1.00" d=" M 458.94 111.98 L 459.72 112.34 C 462.26 114.57 465.48 112.34 468.25 113.56 C 467.63 113.79 466.38 114.27 465.76 114.51 L 464.55 114.85 C 466.76 116.35 468.86 118.42 467.54 121.27 C 467.13 119.58 466.92 117.44 465.12 116.61 C 463.09 115.43 460.51 116.78 459.57 118.75 C 459.13 119.69 458.71 120.64 458.30 121.59 C 457.76 121.05 457.23 120.51 456.71 119.97 C 457.37 117.29 458.14 114.63 458.94 111.98 Z" />
<path fill="#7c7f86" opacity="1.00" d=" M 481.20 116.26 C 482.87 114.58 485.07 113.80 487.43 113.77 C 484.97 115.53 480.84 116.58 480.95 120.28 C 481.01 120.68 481.12 121.48 481.18 121.88 C 481.73 123.27 482.38 124.62 483.11 125.93 C 485.54 124.66 487.10 122.37 488.73 120.26 C 488.86 120.72 489.10 121.65 489.23 122.11 L 489.35 122.60 C 489.48 122.47 489.75 122.21 489.88 122.07 C 490.51 121.75 491.75 121.09 492.37 120.77 C 492.70 123.66 493.05 127.53 490.28 129.39 C 487.99 129.31 485.60 129.51 483.44 128.66 C 481.56 127.69 480.27 125.94 478.81 124.48 C 477.09 124.20 475.38 123.95 473.68 123.69 C 473.71 122.43 473.77 121.16 473.85 119.90 C 475.85 119.72 477.87 119.70 479.89 119.60 C 478.76 119.35 477.65 119.08 476.56 118.78 C 477.80 117.41 479.93 117.63 481.20 116.26 M 475.15 121.20 C 475.77 121.78 475.77 121.78 475.15 121.20 M 477.42 121.12 C 477.72 122.39 478.50 122.59 479.76 121.74 C 479.45 120.47 478.67 120.26 477.42 121.12 Z" />
<path fill="#81809c" opacity="1.00" d=" M 487.43 113.77 C 488.16 113.66 489.61 113.44 490.34 113.33 C 490.49 113.74 490.80 114.55 490.96 114.95 C 491.57 116.85 492.05 118.79 492.37 120.77 C 491.75 121.09 490.51 121.75 489.88 122.07 L 489.23 122.11 C 489.10 121.65 488.86 120.72 488.73 120.26 C 487.10 122.37 485.54 124.66 483.11 125.93 C 482.38 124.62 481.73 123.27 481.18 121.88 C 483.70 123.10 483.12 119.60 480.95 120.28 C 480.84 116.58 484.97 115.53 487.43 113.77 M 487.13 117.33 C 486.76 118.71 487.29 119.25 488.73 118.94 C 489.05 117.59 488.52 117.06 487.13 117.33 M 484.14 118.55 C 483.79 119.98 484.31 120.47 485.70 120.02 C 486.00 118.61 485.48 118.11 484.14 118.55 Z" />
<path fill="#808182" opacity="1.00" d=" M 464.55 114.85 L 465.76 114.51 C 467.63 115.67 469.39 117.01 471.21 118.25 L 471.23 118.91 L 470.44 119.29 C 471.61 119.71 472.73 120.24 473.82 120.87 C 473.34 121.51 472.39 122.78 471.92 123.42 C 469.72 126.19 466.97 128.45 464.23 130.65 C 462.76 130.52 461.30 130.41 459.84 130.36 C 456.16 128.23 455.70 123.72 456.71 119.97 C 457.23 120.51 457.76 121.05 458.30 121.59 C 458.71 120.64 459.13 119.69 459.57 118.75 C 459.60 119.46 459.66 120.88 459.69 121.59 C 459.44 124.68 462.79 127.71 465.54 125.37 C 466.30 124.06 467.04 122.71 467.54 121.27 C 468.86 118.42 466.76 116.35 464.55 114.85 M 470.46 121.10 C 470.71 124.33 473.50 119.58 470.46 121.10 Z" />
<path fill="#171717" opacity="0.55" d=" M 490.96 114.95 C 493.49 118.74 493.95 123.77 493.02 128.13 C 492.29 131.26 488.64 131.40 486.05 131.62 C 484.40 131.59 481.50 132.50 481.16 130.12 C 484.19 130.81 487.31 130.08 490.28 129.39 C 493.05 127.53 492.70 123.66 492.37 120.77 C 492.05 118.79 491.57 116.85 490.96 114.95 Z" />
<path fill="#716d9e" opacity="1.00" d=" M 459.57 118.75 C 460.51 116.78 463.09 115.43 465.12 116.61 C 466.92 117.44 467.13 119.58 467.54 121.27 C 467.04 122.71 466.30 124.06 465.54 125.37 C 464.02 125.00 462.52 124.67 461.00 124.32 C 461.19 123.78 461.55 122.69 461.74 122.15 C 461.23 122.01 460.20 121.73 459.69 121.59 C 459.66 120.88 459.60 119.46 459.57 118.75 Z" />
<path fill="#52566e" opacity="1.00" d=" M 487.13 117.33 C 488.52 117.06 489.05 117.59 488.73 118.94 C 487.29 119.25 486.76 118.71 487.13 117.33 Z" />
<path fill="#434649" opacity="1.00" d=" M 471.21 118.25 L 471.73 118.35 L 471.74 118.79 L 471.23 118.91 L 471.21 118.25 Z" />
<path fill="#2a2c2e" opacity="1.00" d=" M 475.03 118.24 C 475.60 118.82 475.60 118.82 475.03 118.24 Z" />
<path fill="#555678" opacity="1.00" d=" M 484.14 118.55 C 485.48 118.11 486.00 118.61 485.70 120.02 C 484.31 120.47 483.79 119.98 484.14 118.55 Z" />
<path fill="#50546c" opacity="1.00" d=" M 480.95 120.28 C 483.12 119.60 483.70 123.10 481.18 121.88 C 481.12 121.48 481.01 120.68 480.95 120.28 Z" />
<path fill="#515356" opacity="1.00" d=" M 470.46 121.10 C 473.50 119.58 470.71 124.33 470.46 121.10 Z" />
<path fill="#2a2c2d" opacity="1.00" d=" M 475.15 121.20 C 475.77 121.78 475.77 121.78 475.15 121.20 Z" />
<path fill="#5b5e61" opacity="1.00" d=" M 477.42 121.12 C 478.67 120.26 479.45 120.47 479.76 121.74 C 478.50 122.59 477.72 122.39 477.42 121.12 Z" />
<path fill="#4c4e5d" opacity="1.00" d=" M 459.69 121.59 C 460.20 121.73 461.23 122.01 461.74 122.15 C 461.55 122.69 461.19 123.78 461.00 124.32 C 462.52 124.67 464.02 125.00 465.54 125.37 C 462.79 127.71 459.44 124.68 459.69 121.59 Z" />
<path fill="#444960" opacity="1.00" d=" M 489.23 122.11 L 489.88 122.07 C 489.75 122.21 489.48 122.47 489.35 122.60 L 489.23 122.11 Z" />
<path fill="#67696a" opacity="1.00" d=" M 464.23 130.65 C 466.97 128.45 469.72 126.19 471.92 123.42 C 472.36 123.48 473.24 123.62 473.68 123.69 C 475.38 123.95 477.09 124.20 478.81 124.48 C 480.27 125.94 481.56 127.69 483.44 128.66 C 485.60 129.51 487.99 129.31 490.28 129.39 C 487.31 130.08 484.19 130.81 481.16 130.12 C 478.19 127.16 473.42 128.63 469.70 128.89 C 469.62 129.30 469.45 130.12 469.37 130.53 C 467.66 130.83 465.95 130.87 464.23 130.65 Z" />
<path fill="#ffffff" opacity="1.00" d=" M 48.48 292.66 C 53.78 290.55 61.34 291.37 64.34 296.79 C 66.06 300.82 65.52 305.35 65.62 309.62 C 62.37 309.62 59.12 309.63 55.88 309.62 C 55.75 306.16 56.16 302.65 55.60 299.22 C 55.27 298.09 53.54 298.11 52.82 298.82 C 52.12 300.07 52.34 301.59 52.24 302.97 C 52.32 309.97 52.13 316.98 52.34 323.98 C 52.18 325.60 53.60 326.81 55.18 325.93 C 56.45 322.85 55.66 319.38 55.88 316.12 C 59.13 316.12 62.38 316.11 65.64 316.13 C 65.45 321.06 66.33 327.42 61.62 330.62 C 55.93 334.74 44.99 333.57 43.16 325.82 C 41.92 318.30 42.69 310.63 42.54 303.04 C 42.25 298.79 44.37 294.28 48.48 292.66 Z" />
<path fill="#ffff00" opacity="1.00" d=" M 97.09 292.44 C 99.70 292.51 102.30 292.52 104.91 292.47 C 106.93 298.30 108.52 304.27 110.50 310.12 C 110.50 304.25 110.49 298.37 110.50 292.50 C 113.20 292.50 115.91 292.49 118.61 292.49 C 118.65 305.65 118.60 318.82 118.63 331.98 C 115.84 332.01 113.04 332.01 110.24 331.99 C 108.64 326.10 106.73 320.30 105.39 314.35 C 104.85 320.22 105.25 326.11 105.12 331.99 C 102.41 332.00 99.71 332.00 97.00 332.00 C 97.06 318.81 96.88 305.62 97.09 292.44 Z" />
<path fill="#ffff00" opacity="1.00" d=" M 122.95 298.00 C 125.97 289.83 138.94 289.50 143.39 296.52 C 145.12 299.70 144.78 303.49 144.89 307.00 C 141.63 307.00 138.37 307.00 135.12 306.99 C 135.10 304.28 135.29 301.54 134.81 298.86 C 133.21 297.23 131.71 299.30 132.04 300.90 C 132.00 308.62 131.90 316.36 132.10 324.09 C 131.55 326.07 134.76 327.14 135.12 324.90 C 135.56 322.22 135.34 319.50 135.37 316.81 C 134.89 316.77 133.95 316.70 133.47 316.67 C 133.50 314.69 133.49 312.72 133.51 310.75 C 137.30 310.75 141.08 310.74 144.87 310.75 C 144.88 317.83 144.87 324.91 144.88 331.99 C 142.85 331.99 140.83 332.01 138.81 332.02 C 138.47 331.09 138.09 330.19 137.66 329.33 C 135.31 334.23 128.32 333.62 125.08 330.03 C 121.71 326.59 122.35 321.40 122.24 317.01 C 122.47 310.68 121.69 304.24 122.95 298.00 Z" />
<path fill="#ffff00" opacity="1.00" d=" M 240.95 292.73 C 246.16 290.57 253.46 291.29 256.73 296.36 C 258.78 300.43 258.11 305.21 258.25 309.62 C 255.00 309.63 251.75 309.62 248.50 309.62 C 248.27 306.02 248.99 302.28 248.04 298.77 C 246.38 297.38 244.47 299.20 244.94 301.05 C 244.85 308.72 244.78 316.40 244.98 324.07 C 244.37 326.10 247.92 327.15 248.27 324.93 C 248.69 322.02 248.44 319.06 248.49 316.14 C 251.71 316.09 254.94 316.17 258.16 316.07 C 258.37 319.36 258.24 322.74 257.56 325.99 C 254.64 335.64 236.92 335.34 235.59 324.82 C 234.70 317.58 235.24 310.25 235.17 302.98 C 234.90 298.80 236.94 294.38 240.95 292.73 Z" />
<path fill="#ffffff" opacity="1.00" d=" M 19.25 331.99 C 19.27 318.82 19.22 305.65 19.27 292.48 C 24.88 292.83 30.75 291.66 36.16 293.54 C 39.56 294.86 40.20 298.87 40.12 302.07 C 39.99 305.71 40.65 309.60 39.16 313.03 C 37.06 316.45 32.50 316.13 29.01 316.13 C 28.99 321.42 29.01 326.71 29.00 332.00 C 25.75 332.00 22.50 332.00 19.25 331.99 M 29.11 299.03 C 28.91 302.50 29.02 305.99 29.01 309.47 C 30.51 309.53 32.14 308.88 31.94 307.10 C 31.79 304.30 33.33 299.20 29.11 299.03 Z" />
<path fill="#ffff00" opacity="1.00" d=" M 77.48 331.97 C 77.53 318.81 77.47 305.65 77.51 292.50 C 82.84 292.50 88.17 292.49 93.50 292.50 C 93.50 295.12 93.50 297.75 93.50 300.37 C 91.42 300.38 89.34 300.37 87.26 300.38 C 87.25 302.87 87.25 305.37 87.25 307.87 C 89.21 307.88 91.16 307.86 93.12 307.88 C 93.13 310.38 93.13 312.87 93.12 315.37 C 91.16 315.38 89.21 315.37 87.26 315.38 C 87.25 318.29 87.25 321.20 87.25 324.11 C 89.58 324.12 91.91 324.12 94.24 324.12 C 94.26 326.75 94.26 329.37 94.23 332.00 C 88.65 331.98 83.06 332.04 77.48 331.97 Z" />
<path fill="#ffff00" opacity="1.00" d=" M 148.63 292.50 C 153.96 292.49 159.29 292.50 164.62 292.50 C 164.63 295.12 164.63 297.75 164.62 300.37 C 162.54 300.38 160.46 300.37 158.38 300.38 C 158.37 302.87 158.37 305.37 158.38 307.86 C 160.33 307.88 162.29 307.86 164.25 307.88 C 164.25 310.38 164.25 312.87 164.24 315.37 C 162.29 315.38 160.34 315.37 158.38 315.38 C 158.37 318.29 158.37 321.20 158.38 324.12 C 160.71 324.11 163.05 324.12 165.38 324.14 C 165.37 326.73 165.36 329.32 165.43 331.92 C 159.83 332.10 154.22 331.95 148.63 332.00 C 148.62 318.83 148.62 305.67 148.63 292.50 Z" />
<path fill="#ffff00" opacity="1.00" d=" M 168.25 331.99 C 168.28 318.82 168.21 305.65 168.28 292.48 C 170.93 292.49 173.59 292.50 176.24 292.50 C 178.09 298.38 179.87 304.29 181.73 310.17 C 181.77 304.28 181.73 298.39 181.75 292.51 C 184.46 292.49 187.17 292.49 189.87 292.50 C 189.88 305.67 189.87 318.83 189.88 331.99 C 187.04 331.98 184.19 332.11 181.36 331.86 C 179.85 325.97 178.14 320.13 176.38 314.31 C 176.36 320.21 176.39 326.10 176.37 331.99 C 173.66 332.00 170.95 332.00 168.25 331.99 Z" />
<path fill="#ffff00" opacity="1.00" d=" M 193.88 292.50 C 197.12 292.49 200.36 292.50 203.61 292.49 C 203.65 305.66 203.61 318.82 203.63 331.99 C 200.38 332.01 197.13 332.00 193.88 332.00 C 193.87 318.83 193.87 305.67 193.88 292.50 Z" />
<path fill="#ffff00" opacity="1.00" d=" M 207.37 331.98 C 207.39 318.82 207.35 305.66 207.39 292.49 C 212.72 292.51 218.04 292.49 223.37 292.50 C 223.38 295.12 223.38 297.75 223.37 300.37 C 221.29 300.38 219.21 300.37 217.14 300.37 C 217.12 302.87 217.12 305.37 217.13 307.87 C 219.08 307.88 221.04 307.86 222.99 307.88 C 223.00 310.38 223.00 312.87 222.99 315.37 C 221.04 315.38 219.09 315.37 217.14 315.37 C 217.12 318.29 217.12 321.20 217.13 324.12 C 219.46 324.12 221.79 324.12 224.12 324.13 C 224.13 326.75 224.13 329.37 224.12 332.00 C 218.54 332.00 212.95 332.01 207.37 331.98 Z" />
<path fill="#ffff00" opacity="1.00" d=" M 261.40 331.83 C 261.63 318.72 261.42 305.61 261.51 292.50 C 267.04 292.62 272.64 292.11 278.11 293.15 C 281.28 293.77 283.60 296.74 283.68 299.93 C 284.09 307.28 283.78 314.64 283.87 322.00 C 283.70 324.70 284.03 327.87 281.99 330.00 C 279.58 332.22 276.07 331.93 273.04 332.01 C 269.16 331.91 265.27 332.19 261.40 331.83 M 271.26 325.36 C 272.49 325.16 274.21 324.78 273.97 323.12 C 274.28 316.10 274.08 309.06 274.09 302.03 C 274.22 300.24 273.35 299.20 271.49 298.90 C 270.94 307.70 271.39 316.54 271.26 325.36 Z" />
</svg>
