<?xml version="1.0" encoding="UTF-8" ?>
<!DOCTYPE svg PUBLIC "-//W3C//DTD SVG 1.1//EN" "http://www.w3.org/Graphics/SVG/1.1/DTD/svg11.dtd">
<svg width="960pt" height="540pt" viewBox="0 0 960 540" version="1.1" xmlns="http://www.w3.org/2000/svg">
<path fill="#545659" opacity="1.00" d=" M 497.82 63.85 C 499.76 63.02 501.92 63.21 503.99 63.26 C 514.94 64.60 526.01 63.29 537.00 64.02 C 538.90 63.97 540.13 65.51 541.38 66.70 C 535.85 66.32 530.64 63.90 525.06 64.14 C 515.98 64.22 506.90 63.91 497.82 63.85 Z" />
<path fill="#818587" opacity="1.00" d=" M 440.37 65.83 C 443.57 63.21 448.14 63.62 451.94 64.35 C 454.25 64.93 456.64 64.95 459.01 64.93 C 481.68 64.80 504.35 65.14 527.02 65.16 C 528.95 64.92 530.55 65.97 531.99 67.12 C 504.60 67.54 477.19 67.01 449.81 67.36 C 450.04 66.81 450.49 65.71 450.72 65.16 C 447.37 64.20 443.81 65.92 440.37 65.83 Z" />
<path fill="#000000" opacity="1.00" d=" M 451.94 64.35 C 454.89 63.46 457.98 63.98 461.00 63.95 C 473.27 64.10 485.55 64.00 497.82 63.85 C 506.90 63.91 515.98 64.22 525.06 64.14 C 530.64 63.90 535.85 66.32 541.38 66.70 C 541.85 67.48 542.34 68.27 542.83 69.05 C 542.41 68.99 541.56 68.87 541.13 68.81 C 538.05 68.44 534.96 68.04 531.99 67.12 C 530.55 65.97 528.95 64.92 527.02 65.16 C 504.35 65.14 481.68 64.80 459.01 64.93 C 456.64 64.95 454.25 64.93 451.94 64.35 Z" />
<path fill="#0f1010" opacity="1.00" d=" M 440.37 65.83 C 443.81 65.92 447.37 64.20 450.72 65.16 C 450.49 65.71 450.04 66.81 449.81 67.36 C 446.45 68.00 443.07 68.61 439.66 68.81 L 438.39 68.83 C 439.05 67.83 439.71 66.83 440.37 65.83 Z" />
<path fill="#303235" opacity="1.00" d=" M 439.66 68.81 C 443.07 68.61 446.45 68.00 449.81 67.36 C 477.19 67.01 504.60 67.54 531.99 67.12 C 534.96 68.04 538.05 68.44 541.13 68.81 C 540.55 68.82 539.37 68.83 538.78 68.83 C 537.48 68.90 536.19 68.98 534.90 69.08 C 535.36 69.85 535.83 70.62 536.30 71.40 C 537.67 74.43 539.71 77.07 541.63 79.76 C 540.41 80.06 539.20 80.36 538.00 80.67 C 538.71 79.00 536.16 78.55 535.85 80.17 C 535.61 79.86 535.13 79.26 534.90 78.95 C 534.09 79.54 533.30 80.14 532.53 80.76 C 531.62 81.50 530.72 82.27 529.83 83.03 C 530.72 83.83 531.63 84.62 532.50 85.45 C 532.65 85.81 532.93 86.53 533.08 86.89 C 531.88 87.28 529.88 89.98 529.10 87.85 C 531.29 88.26 531.21 84.98 528.96 86.10 C 528.51 85.86 527.62 85.38 527.17 85.14 C 526.69 87.78 527.79 89.98 529.92 91.55 C 530.36 91.99 531.24 92.87 531.68 93.31 C 529.36 94.15 527.38 92.88 525.63 91.53 C 525.21 91.60 524.36 91.76 523.93 91.83 C 523.92 83.85 523.92 75.87 523.82 67.89 C 501.66 67.54 479.48 67.58 457.31 67.90 C 457.27 76.85 457.11 85.79 457.22 94.74 C 455.38 94.53 453.54 94.34 451.71 94.15 C 452.10 93.22 452.49 92.29 452.87 91.36 C 451.12 91.11 449.38 90.82 447.62 90.69 L 446.38 91.44 C 446.28 91.10 446.09 90.42 445.99 90.08 C 445.42 88.62 444.78 88.57 444.07 89.92 C 443.95 90.23 443.71 90.85 443.60 91.16 C 443.16 91.24 442.28 91.41 441.85 91.50 C 440.60 91.68 439.37 91.90 438.15 92.16 C 437.35 94.67 440.44 95.33 442.06 96.26 L 442.59 96.54 C 439.85 99.60 439.34 104.69 434.84 105.86 C 433.78 103.06 432.91 100.19 432.25 97.27 C 432.98 97.44 434.45 97.77 435.19 97.94 C 435.91 95.82 436.56 93.67 437.02 91.48 C 439.10 90.54 442.43 90.59 443.11 87.89 C 443.89 85.97 443.38 83.93 442.83 82.03 C 443.03 81.41 443.23 80.80 443.45 80.18 C 443.84 80.75 444.63 81.87 445.02 82.44 C 445.44 81.77 445.86 81.10 446.30 80.43 C 447.78 82.98 450.59 83.42 453.31 83.22 C 451.80 81.26 450.44 78.88 448.00 77.99 C 445.84 77.36 443.57 77.51 441.36 77.45 C 442.68 74.44 444.57 71.74 446.76 69.30 C 445.48 69.18 444.21 69.07 442.95 68.96 C 442.13 68.92 440.48 68.85 439.66 68.81 Z" />
<path fill="#000000" opacity="1.00" d=" M 457.31 67.90 C 479.48 67.58 501.66 67.54 523.82 67.89 C 523.92 75.87 523.92 83.85 523.93 91.83 C 523.92 94.72 523.88 97.61 523.88 100.50 C 523.88 103.33 523.95 106.16 524.03 109.00 C 501.68 109.11 479.32 109.18 456.97 108.96 C 457.28 104.22 457.36 99.48 457.22 94.74 C 457.11 85.79 457.27 76.85 457.31 67.90 Z" />
<path fill="#818587" opacity="1.00" d=" M 434.22 77.80 C 434.93 74.55 436.79 71.70 438.39 68.83 L 439.66 68.81 C 440.48 68.85 442.13 68.92 442.95 68.96 C 437.69 74.80 435.54 82.55 434.48 90.16 C 433.61 86.09 433.93 81.92 434.22 77.80 Z" />
<path fill="#585b5e" opacity="1.00" d=" M 442.95 68.96 C 444.21 69.07 445.48 69.18 446.76 69.30 C 444.57 71.74 442.68 74.44 441.36 77.45 C 439.24 80.01 436.39 82.42 435.97 85.92 C 435.63 87.85 436.45 89.68 437.02 91.48 C 436.56 93.67 435.91 95.82 435.19 97.94 C 434.45 97.77 432.98 97.44 432.25 97.27 C 431.34 90.79 431.33 83.83 434.22 77.80 C 433.93 81.92 433.61 86.09 434.48 90.16 C 435.54 82.55 437.69 74.80 442.95 68.96 Z" />
<path fill="#545659" opacity="1.00" d=" M 534.90 69.08 C 536.19 68.98 537.48 68.90 538.78 68.83 C 542.61 73.78 543.94 79.96 546.91 85.35 C 547.24 83.43 547.54 81.51 547.78 79.58 C 549.05 83.91 549.69 88.44 549.47 92.96 C 548.37 94.09 547.29 95.22 546.20 96.35 C 545.71 94.71 545.23 93.07 544.78 91.42 C 546.40 89.57 547.27 87.29 546.48 84.85 C 545.28 86.10 544.94 90.33 542.54 87.99 L 544.22 88.17 C 543.56 87.35 542.90 86.53 542.25 85.72 C 542.90 85.05 543.56 84.38 544.23 83.71 C 543.36 82.39 542.51 81.06 541.63 79.76 C 539.71 77.07 537.67 74.43 536.30 71.40 C 535.83 70.62 535.36 69.85 534.90 69.08 Z" />
<path fill="#858989" opacity="1.00" d=" M 538.78 68.83 C 539.37 68.83 540.55 68.82 541.13 68.81 C 541.56 68.87 542.41 68.99 542.83 69.05 C 544.13 70.90 545.58 72.89 545.78 75.23 C 546.08 75.65 546.69 76.49 546.99 76.92 L 547.33 77.78 C 547.44 78.23 547.66 79.13 547.78 79.58 C 547.54 81.51 547.24 83.43 546.91 85.35 C 543.94 79.96 542.61 73.78 538.78 68.83 Z" />
<path fill="#323436" opacity="0.63" d=" M 545.78 75.23 L 546.68 75.19 L 547.29 76.05 L 546.99 76.92 C 546.69 76.49 546.08 75.65 545.78 75.23 Z" />
<path fill="#202629" opacity="1.00" d=" M 441.36 77.45 C 443.57 77.51 445.84 77.36 448.00 77.99 C 450.44 78.88 451.80 81.26 453.31 83.22 C 450.59 83.42 447.78 82.98 446.30 80.43 C 445.86 81.10 445.44 81.77 445.02 82.44 C 444.63 81.87 443.84 80.75 443.45 80.18 C 443.23 80.80 443.03 81.41 442.83 82.03 C 443.38 83.93 443.89 85.97 443.11 87.89 C 442.43 90.59 439.10 90.54 437.02 91.48 C 436.45 89.68 435.63 87.85 435.97 85.92 C 436.39 82.42 439.24 80.01 441.36 77.45 M 437.10 85.02 C 437.15 86.26 437.22 87.49 437.29 88.73 C 438.29 88.43 440.75 88.92 440.12 87.12 C 440.20 85.61 438.00 85.77 437.10 85.02 Z" />
<path fill="#050405" opacity="0.29" d=" M 547.33 77.78 C 552.14 85.99 551.35 96.54 548.15 105.22 C 546.64 108.44 545.97 112.83 542.25 114.27 C 538.72 114.97 534.45 113.70 531.78 116.75 C 529.82 119.01 526.80 119.21 524.02 119.19 C 501.36 119.15 478.71 119.16 456.05 119.18 C 453.82 119.05 451.14 119.37 449.59 117.37 C 450.10 117.35 451.12 117.33 451.63 117.31 C 476.10 117.41 500.56 117.33 525.03 117.41 C 529.18 117.93 531.62 113.90 535.18 112.56 C 537.71 112.54 540.46 113.19 542.83 112.04 C 544.13 110.68 544.96 108.96 545.78 107.28 C 546.89 104.55 547.85 101.75 548.57 98.89 C 548.98 96.94 549.25 94.95 549.47 92.96 C 549.69 88.44 549.05 83.91 547.78 79.58 C 547.66 79.13 547.44 78.23 547.33 77.78 Z" />
<path fill="#0a0b0c" opacity="1.00" d=" M 532.53 80.76 C 533.30 80.14 534.09 79.54 534.90 78.95 C 535.13 79.26 535.61 79.86 535.85 80.17 L 536.32 80.79 C 536.74 80.76 537.58 80.70 538.00 80.67 C 539.20 80.36 540.41 80.06 541.63 79.76 C 540.47 80.94 539.52 82.41 538.02 83.18 C 535.89 83.50 534.27 81.68 532.53 80.76 Z" />
<path fill="#666668" opacity="1.00" d=" M 535.85 80.17 C 536.16 78.55 538.71 79.00 538.00 80.67 C 537.58 80.70 536.74 80.76 536.32 80.79 L 535.85 80.17 Z" />
<path fill="#1c2226" opacity="1.00" d=" M 541.63 79.76 C 542.51 81.06 543.36 82.39 544.23 83.71 C 543.56 84.38 542.90 85.05 542.25 85.72 C 542.90 86.53 543.56 87.35 544.22 88.17 L 542.54 87.99 C 542.19 87.83 541.49 87.50 541.14 87.33 C 541.01 87.81 540.74 88.77 540.61 89.24 C 538.20 89.69 535.74 89.60 533.32 89.43 C 533.26 88.80 533.14 87.53 533.08 86.89 C 532.93 86.53 532.65 85.81 532.50 85.45 C 531.63 84.62 530.72 83.83 529.83 83.03 C 530.72 82.27 531.62 81.50 532.53 80.76 C 534.27 81.68 535.89 83.50 538.02 83.18 C 539.52 82.41 540.47 80.94 541.63 79.76 Z" />
<path fill="#383b42" opacity="1.00" d=" M 437.10 85.02 C 438.00 85.77 440.20 85.61 440.12 87.12 C 440.75 88.92 438.29 88.43 437.29 88.73 C 437.22 87.49 437.15 86.26 437.10 85.02 Z" />
<path fill="#101011" opacity="1.00" d=" M 529.92 91.55 C 527.79 89.98 526.69 87.78 527.17 85.14 C 527.62 85.38 528.51 85.86 528.96 86.10 C 528.99 86.54 529.07 87.42 529.10 87.85 C 529.88 89.98 531.88 87.28 533.08 86.89 C 533.14 87.53 533.26 88.80 533.32 89.43 C 532.20 90.16 531.05 90.85 529.92 91.55 Z" />
<path fill="#595b5c" opacity="1.00" d=" M 528.96 86.10 C 531.21 84.98 531.29 88.26 529.10 87.85 C 529.07 87.42 528.99 86.54 528.96 86.10 Z" />
<path fill="#0e0f0f" opacity="1.00" d=" M 542.54 87.99 C 544.94 90.33 545.28 86.10 546.48 84.85 C 547.27 87.29 546.40 89.57 544.78 91.42 C 543.38 90.70 541.98 89.99 540.61 89.24 C 540.74 88.77 541.01 87.81 541.14 87.33 C 541.49 87.50 542.19 87.83 542.54 87.99 Z" />
<path fill="#090a0a" opacity="1.00" d=" M 444.07 89.92 C 444.78 88.57 445.42 88.62 445.99 90.08 C 445.51 90.04 444.55 89.96 444.07 89.92 Z" />
<path fill="#3f4549" opacity="1.00" d=" M 533.32 89.43 C 535.74 89.60 538.20 89.69 540.61 89.24 C 541.98 89.99 543.38 90.70 544.78 91.42 C 545.23 93.07 545.71 94.71 546.20 96.35 C 547.29 95.22 548.37 94.09 549.47 92.96 C 549.25 94.95 548.98 96.94 548.57 98.89 C 547.59 99.85 546.61 100.81 545.64 101.76 C 544.57 99.13 543.71 96.42 543.04 93.66 C 542.19 93.72 541.35 93.78 540.51 93.85 C 540.03 93.89 539.07 93.96 538.59 93.99 C 538.28 94.49 537.66 95.47 537.35 95.96 C 535.85 95.79 535.63 93.80 534.77 92.81 C 534.46 93.41 533.83 94.59 533.52 95.18 C 532.90 94.56 532.28 93.93 531.68 93.31 C 531.24 92.87 530.36 91.99 529.92 91.55 C 531.05 90.85 532.20 90.16 533.32 89.43 Z" />
<path fill="#75787b" opacity="1.00" d=" M 444.07 89.92 C 444.55 89.96 445.51 90.04 445.99 90.08 C 446.09 90.42 446.28 91.10 446.38 91.44 C 446.44 92.52 446.51 93.61 446.58 94.70 C 445.49 94.69 444.40 94.69 443.32 94.69 C 443.39 93.51 443.48 92.33 443.60 91.16 C 443.71 90.85 443.95 90.23 444.07 89.92 Z" />
<path fill="#4b5153" opacity="1.00" d=" M 447.62 90.69 C 449.38 90.82 451.12 91.11 452.87 91.36 C 452.49 92.29 452.10 93.22 451.71 94.15 C 450.55 95.07 449.34 95.89 448.14 96.73 C 447.95 94.72 447.78 92.71 447.62 90.69 Z" />
<path fill="#1d2023" opacity="1.00" d=" M 441.85 91.50 C 442.28 91.41 443.16 91.24 443.60 91.16 C 443.48 92.33 443.39 93.51 443.32 94.69 C 444.40 94.69 445.49 94.69 446.58 94.70 C 446.51 93.61 446.44 92.52 446.38 91.44 L 447.62 90.69 C 447.78 92.71 447.95 94.72 448.14 96.73 C 449.34 95.89 450.55 95.07 451.71 94.15 C 453.54 94.34 455.38 94.53 457.22 94.74 C 457.36 99.48 457.28 104.22 456.97 108.96 C 455.30 109.07 453.63 109.26 452.01 109.64 C 451.69 110.15 451.06 111.16 450.74 111.67 C 451.23 111.48 452.23 111.11 452.72 110.93 C 452.77 111.58 452.87 112.88 452.92 113.53 C 451.30 112.84 449.64 112.26 447.98 111.68 C 447.42 112.10 446.29 112.94 445.73 113.35 C 444.01 113.35 442.28 113.43 440.57 113.51 C 442.77 116.91 447.16 116.05 450.61 116.47 C 450.86 116.68 451.38 117.10 451.63 117.31 C 451.12 117.33 450.10 117.35 449.59 117.37 C 446.71 117.19 443.23 118.15 440.96 115.87 C 438.15 113.07 436.53 109.38 434.84 105.86 C 439.34 104.69 439.85 99.60 442.59 96.54 L 442.06 96.26 C 441.94 94.67 441.87 93.09 441.85 91.50 M 440.65 104.35 C 441.79 106.04 443.35 108.26 445.73 107.56 C 448.04 107.18 448.64 104.63 449.57 102.86 C 448.85 100.70 446.89 99.60 445.00 98.61 C 442.59 99.69 440.94 101.67 440.65 104.35 Z" />
<path fill="#24282b" opacity="1.00" d=" M 523.93 91.83 C 524.36 91.76 525.21 91.60 525.63 91.53 C 527.38 92.88 529.36 94.15 531.68 93.31 C 532.28 93.93 532.90 94.56 533.52 95.18 C 534.62 96.15 535.58 97.50 537.08 97.87 C 539.31 97.84 539.70 95.42 540.51 93.85 C 541.35 93.78 542.19 93.72 543.04 93.66 C 543.71 96.42 544.57 99.13 545.64 101.76 C 546.61 100.81 547.59 99.85 548.57 98.89 C 547.85 101.75 546.89 104.55 545.78 107.28 C 543.44 107.38 541.07 107.10 538.97 106.02 C 534.12 103.73 529.21 101.39 523.88 100.50 C 523.88 97.61 523.92 94.72 523.93 91.83 Z" />
<path fill="#545a5d" opacity="1.00" d=" M 438.15 92.16 C 439.37 91.90 440.60 91.68 441.85 91.50 C 441.87 93.09 441.94 94.67 442.06 96.26 C 440.44 95.33 437.35 94.67 438.15 92.16 Z" />
<path fill="#0b0c0b" opacity="1.00" d=" M 533.52 95.18 C 533.83 94.59 534.46 93.41 534.77 92.81 C 535.63 93.80 535.85 95.79 537.35 95.96 C 537.66 95.47 538.28 94.49 538.59 93.99 C 539.07 93.96 540.03 93.89 540.51 93.85 C 539.70 95.42 539.31 97.84 537.08 97.87 C 535.58 97.50 534.62 96.15 533.52 95.18 Z" />
<path fill="#434445" opacity="1.00" d=" M 440.65 104.35 C 440.94 101.67 442.59 99.69 445.00 98.61 C 446.89 99.60 448.85 100.70 449.57 102.86 C 446.41 101.47 443.30 102.34 440.65 104.35 Z" />
<path fill="#1b1d20" opacity="1.00" d=" M 523.88 100.50 C 529.21 101.39 534.12 103.73 538.97 106.02 C 541.07 107.10 543.44 107.38 545.78 107.28 C 544.96 108.96 544.13 110.68 542.83 112.04 C 540.46 113.19 537.71 112.54 535.18 112.56 C 533.70 112.45 532.24 112.34 530.78 112.22 C 530.53 111.60 530.04 110.36 529.79 109.74 L 529.07 109.63 C 527.39 109.36 525.71 109.13 524.03 109.00 C 523.95 106.16 523.88 103.33 523.88 100.50 Z" />
<path fill="#2d2d2d" opacity="1.00" d=" M 440.65 104.35 C 443.30 102.34 446.41 101.47 449.57 102.86 C 448.64 104.63 448.04 107.18 445.73 107.56 C 443.35 108.26 441.79 106.04 440.65 104.35 Z" />
<path fill="#474c4f" opacity="1.00" d=" M 452.01 109.64 C 453.63 109.26 455.30 109.07 456.97 108.96 C 479.32 109.18 501.68 109.11 524.03 109.00 C 525.71 109.13 527.39 109.36 529.07 109.63 C 528.90 109.98 528.56 110.70 528.39 111.05 C 527.51 116.86 520.52 115.67 516.32 115.15 C 516.36 114.10 516.42 113.05 516.47 112.01 C 518.66 111.82 520.85 111.63 523.05 111.43 C 510.72 110.76 498.36 111.04 486.01 111.01 C 479.94 110.99 473.87 111.77 467.81 111.12 C 465.42 110.74 462.98 110.65 460.61 111.12 L 460.21 112.08 C 460.17 112.80 460.09 114.24 460.05 114.96 L 460.31 116.07 C 457.58 116.12 455.22 114.79 452.92 113.53 C 452.87 112.88 452.77 111.58 452.72 110.93 C 452.54 110.61 452.19 109.96 452.01 109.64 Z" />
<path fill="#6a6b6c" opacity="1.00" d=" M 450.74 111.67 C 451.06 111.16 451.69 110.15 452.01 109.64 C 452.19 109.96 452.54 110.61 452.72 110.93 C 452.23 111.11 451.23 111.48 450.74 111.67 Z" />
<path fill="#616264" opacity="1.00" d=" M 528.39 111.05 C 528.56 110.70 528.90 109.98 529.07 109.63 L 529.79 109.74 C 530.04 110.36 530.53 111.60 530.78 112.22 C 529.74 112.29 528.94 111.90 528.39 111.05 Z" />
<path fill="#363b3f" opacity="1.00" d=" M 460.61 111.12 C 462.98 110.65 465.42 110.74 467.81 111.12 C 468.45 111.30 469.74 111.64 470.38 111.81 C 470.41 112.74 470.47 114.60 470.49 115.52 C 467.10 115.76 463.70 116.02 460.31 116.07 L 460.05 114.96 C 462.75 116.06 463.00 111.20 460.21 112.08 L 460.61 111.12 Z" />
<path fill="#030405" opacity="1.00" d=" M 467.81 111.12 C 473.87 111.77 479.94 110.99 486.01 111.01 C 498.36 111.04 510.72 110.76 523.05 111.43 C 520.85 111.63 518.66 111.82 516.47 112.01 C 516.42 113.05 516.36 114.10 516.32 115.15 C 520.52 115.67 527.51 116.86 528.39 111.05 C 528.94 111.90 529.74 112.29 530.78 112.22 C 532.24 112.34 533.70 112.45 535.18 112.56 C 531.62 113.90 529.18 117.93 525.03 117.41 C 500.56 117.33 476.10 117.41 451.63 117.31 C 451.38 117.10 450.86 116.68 450.61 116.47 C 449.26 115.03 447.65 113.85 445.73 113.35 C 446.29 112.94 447.42 112.10 447.98 111.68 C 449.64 112.26 451.30 112.84 452.92 113.53 C 455.22 114.79 457.58 116.12 460.31 116.07 C 463.70 116.02 467.10 115.76 470.49 115.52 C 470.47 114.60 470.41 112.74 470.38 111.81 C 469.74 111.64 468.45 111.30 467.81 111.12 M 476.22 112.29 C 474.67 113.21 476.21 115.82 477.73 114.69 C 479.27 113.77 477.73 111.14 476.22 112.29 M 482.86 114.48 C 484.41 114.31 485.96 114.14 487.53 114.00 C 489.51 116.72 491.46 113.57 492.21 111.69 C 490.53 111.66 489.59 112.51 489.38 114.24 C 488.82 113.44 488.28 112.64 487.74 111.84 C 485.49 111.41 483.27 111.95 482.86 114.48 M 492.96 111.91 C 492.98 112.58 493.02 113.94 493.05 114.62 C 494.95 114.03 497.92 114.52 498.32 111.91 C 496.53 111.88 494.74 111.89 492.96 111.91 M 506.34 112.18 C 506.35 113.04 506.37 113.91 506.39 114.77 C 508.80 114.73 511.22 114.69 513.64 114.64 C 513.66 114.04 513.72 112.85 513.74 112.25 C 511.27 112.25 508.80 112.23 506.34 112.18 M 471.51 113.17 C 471.75 114.51 472.47 114.73 473.67 113.82 C 473.42 112.48 472.70 112.26 471.51 113.17 Z" />
<path fill="#888b8d" opacity="1.00" d=" M 460.21 112.08 C 463.00 111.20 462.75 116.06 460.05 114.96 C 460.09 114.24 460.17 112.80 460.21 112.08 Z" />
<path fill="#3c3d3f" opacity="1.00" d=" M 476.22 112.29 C 477.73 111.14 479.27 113.77 477.73 114.69 C 476.21 115.82 474.67 113.21 476.22 112.29 Z" />
<path fill="#363638" opacity="1.00" d=" M 482.86 114.48 C 483.27 111.95 485.49 111.41 487.74 111.84 C 488.28 112.64 488.82 113.44 489.38 114.24 C 489.59 112.51 490.53 111.66 492.21 111.69 C 491.46 113.57 489.51 116.72 487.53 114.00 C 485.96 114.14 484.41 114.31 482.86 114.48 Z" />
<path fill="#353638" opacity="1.00" d=" M 492.96 111.91 C 494.74 111.89 496.53 111.88 498.32 111.91 C 497.92 114.52 494.95 114.03 493.05 114.62 C 493.02 113.94 492.98 112.58 492.96 111.91 Z" />
<path fill="#3e3e40" opacity="1.00" d=" M 506.34 112.18 C 508.80 112.23 511.27 112.25 513.74 112.25 C 513.72 112.85 513.66 114.04 513.64 114.64 C 511.22 114.69 508.80 114.73 506.39 114.77 C 506.37 113.91 506.35 113.04 506.34 112.18 Z" />
<path fill="#545659" opacity="1.00" d=" M 471.51 113.17 C 472.70 112.26 473.42 112.48 473.67 113.82 C 472.47 114.73 471.75 114.51 471.51 113.17 Z" />
<path fill="#ffffff" opacity="1.00" d=" M 55.65 292.50 C 59.48 292.50 63.31 292.46 67.14 292.55 C 68.58 305.71 70.19 318.85 71.68 332.00 C 68.94 332.01 66.20 332.02 63.46 331.93 C 63.38 329.57 63.24 327.22 63.10 324.88 C 62.40 324.88 60.99 324.87 60.29 324.87 C 60.13 327.24 59.99 329.62 59.85 332.00 C 52.82 331.99 45.78 332.00 38.75 332.00 C 38.75 318.83 38.75 305.67 38.75 292.51 C 41.38 292.50 44.01 292.51 46.65 292.42 C 46.90 302.99 46.64 313.56 46.78 324.13 C 48.36 324.13 49.94 324.12 51.53 324.13 C 51.48 326.42 51.40 328.71 51.39 331.01 C 53.21 318.22 54.18 305.33 55.65 292.50 M 61.48 301.10 C 61.37 306.73 60.41 312.31 60.44 317.94 L 62.63 317.98 C 62.73 312.34 61.99 306.71 61.48 301.10 Z" />
<path fill="#ffffff" opacity="1.00" d=" M 71.02 292.48 C 73.47 292.49 75.91 292.50 78.35 292.50 C 79.15 297.43 79.44 302.43 80.49 307.31 C 81.04 302.36 81.77 297.43 82.52 292.51 C 84.97 292.49 87.42 292.49 89.87 292.49 C 88.01 300.68 86.01 308.83 84.19 317.02 C 83.75 321.99 84.12 327.01 84.00 332.00 C 81.54 332.00 79.08 332.00 76.63 332.00 C 76.53 327.13 76.81 322.25 76.50 317.39 C 74.80 309.06 72.77 300.80 71.02 292.48 Z" />
<path fill="#ffffff" opacity="1.00" d=" M 91.54 296.35 C 94.00 290.15 103.96 290.08 107.35 295.43 C 108.58 298.22 108.29 301.39 108.42 304.37 C 105.96 304.37 103.50 304.37 101.04 304.38 C 100.72 302.36 101.70 299.69 99.98 298.16 C 97.45 299.07 98.14 302.41 98.70 304.40 C 101.62 308.28 107.05 310.37 108.35 315.45 C 109.19 319.40 109.31 323.59 108.43 327.55 C 106.22 334.50 94.74 334.71 91.97 328.06 C 90.77 324.82 91.06 321.27 90.98 317.87 C 93.44 317.87 95.91 317.87 98.37 317.87 C 98.55 320.53 97.90 323.38 98.91 325.91 C 101.33 327.13 101.53 323.57 101.40 322.05 C 101.68 315.56 93.37 314.17 91.59 308.58 C 90.38 304.64 90.44 300.30 91.54 296.35 Z" />
<path fill="#ffffff" opacity="1.00" d=" M 131.85 292.56 C 135.69 292.45 139.52 292.50 143.36 292.51 C 144.87 305.67 146.41 318.83 147.94 331.99 C 145.22 332.00 142.50 332.00 139.78 332.00 C 139.61 329.67 139.61 327.31 139.24 325.01 C 138.57 324.94 137.22 324.81 136.55 324.74 C 136.39 327.16 136.24 329.58 136.10 332.00 C 133.31 332.00 130.53 332.00 127.74 332.00 C 129.11 318.85 130.56 305.71 131.85 292.56 M 137.73 301.92 C 137.50 307.25 136.84 312.55 136.53 317.87 C 137.17 317.87 138.44 317.88 139.07 317.88 C 138.62 312.56 138.60 307.20 137.73 301.92 Z" />
<path fill="#ffffff" opacity="1.00" d=" M 147.94 292.46 C 153.72 292.55 159.49 292.44 165.27 292.53 C 165.25 295.14 165.25 297.75 165.25 300.36 C 163.70 300.37 162.15 300.39 160.61 300.41 C 160.67 310.92 160.56 321.43 160.67 331.94 C 157.99 332.01 155.30 332.00 152.62 332.00 C 152.62 321.46 152.62 310.92 152.62 300.38 C 151.04 300.37 149.45 300.37 147.87 300.38 C 147.86 297.73 147.86 295.10 147.94 292.46 Z" />
<path fill="#ffffff" opacity="1.00" d=" M 183.34 292.44 C 188.11 290.11 194.62 292.59 195.91 297.91 C 197.24 304.52 196.37 311.34 196.63 318.05 C 196.50 321.92 196.90 326.25 194.45 329.54 C 191.23 334.03 183.55 334.03 180.32 329.55 C 178.03 326.55 178.23 322.58 178.12 319.01 C 178.18 312.98 177.94 306.95 178.31 300.94 C 178.43 297.52 180.12 293.92 183.34 292.44 M 186.31 299.37 C 185.89 307.25 186.22 315.17 186.14 323.07 C 186.27 324.25 185.98 326.72 188.07 326.20 C 189.11 322.56 188.45 318.71 188.62 314.98 C 188.37 309.30 189.22 303.52 188.04 297.92 C 187.61 298.28 186.74 299.01 186.31 299.37 Z" />
<path fill="#ffffff" opacity="1.00" d=" M 220.51 296.43 C 222.91 290.14 233.00 290.04 236.38 295.47 C 237.57 298.26 237.30 301.40 237.42 304.37 C 234.96 304.37 232.50 304.37 230.04 304.38 C 229.77 302.31 230.63 299.74 228.99 298.08 C 226.48 299.16 227.10 302.42 227.74 304.49 C 230.71 308.29 236.04 310.41 237.35 315.44 C 238.19 319.40 238.31 323.58 237.44 327.54 C 235.22 334.49 223.77 334.71 220.98 328.09 C 219.77 324.84 220.06 321.28 219.98 317.87 C 222.44 317.87 224.91 317.87 227.37 317.87 C 227.97 320.49 225.95 324.87 228.90 326.27 C 231.31 324.86 230.31 321.25 229.94 318.98 C 227.56 314.91 222.28 313.19 220.60 308.61 C 219.38 304.69 219.45 300.37 220.51 296.43 Z" />
<path fill="#ffff00" opacity="1.00" d=" M 267.46 295.96 C 269.83 290.83 277.35 290.41 281.48 293.57 C 284.75 296.12 283.91 300.74 284.17 304.37 C 281.71 304.37 279.26 304.37 276.80 304.38 C 276.67 302.34 277.03 300.18 276.14 298.28 C 273.09 298.40 273.84 302.60 274.52 304.55 C 277.60 308.38 283.11 310.60 284.19 315.85 C 284.92 319.86 285.15 324.14 283.99 328.10 C 281.31 334.50 270.54 334.51 267.77 328.17 C 266.52 324.90 266.81 321.31 266.73 317.88 C 269.19 317.87 271.65 317.87 274.12 317.88 C 274.34 320.66 273.48 323.76 274.94 326.31 C 278.26 325.86 277.06 321.40 276.73 319.10 C 274.42 314.90 268.95 313.20 267.31 308.50 C 266.13 304.45 266.13 299.97 267.46 295.96 Z" />
<path fill="#ffffff" opacity="1.00" d=" M 19.11 292.51 C 23.62 292.72 28.34 291.83 32.68 293.38 C 36.35 295.03 36.19 299.61 36.27 303.01 C 36.07 306.59 36.87 310.57 34.99 313.82 C 33.22 316.36 29.82 316.05 27.11 316.20 C 27.15 321.47 27.12 326.73 27.13 332.00 C 24.45 332.00 21.78 332.00 19.11 331.99 C 19.13 318.83 19.13 305.67 19.11 292.51 M 27.29 298.78 C 27.04 302.39 27.11 306.02 27.16 309.65 C 28.27 309.16 29.90 308.77 29.56 307.18 C 29.37 304.35 30.89 299.95 27.29 298.78 Z" />
<path fill="#ffffff" opacity="1.00" d=" M 110.26 300.39 C 110.24 297.74 110.24 295.10 110.31 292.46 C 116.08 292.54 121.85 292.48 127.62 292.50 C 127.62 295.13 127.62 297.77 127.62 300.41 C 126.10 300.38 124.59 300.34 123.07 300.31 C 122.90 310.87 123.05 321.44 123.00 332.00 C 120.33 332.00 117.67 332.00 115.00 332.00 C 115.00 321.46 115.00 310.92 115.00 300.37 C 113.42 300.37 111.84 300.38 110.26 300.39 Z" />
<path fill="#ffffff" opacity="1.00" d=" M 167.23 331.97 C 167.34 318.79 167.12 305.61 167.34 292.43 C 169.97 292.50 172.61 292.50 175.25 292.51 C 175.25 305.67 175.25 318.84 175.25 332.00 C 172.57 332.00 169.90 332.00 167.23 331.97 Z" />
<path fill="#ffffff" opacity="1.00" d=" M 199.54 332.04 C 199.45 318.86 199.52 305.68 199.50 292.50 C 201.71 292.49 203.91 292.50 206.12 292.50 C 207.64 298.33 209.02 304.20 210.60 310.01 C 210.66 304.17 210.61 298.34 210.63 292.50 C 212.83 292.49 215.04 292.49 217.25 292.50 C 217.25 305.67 217.25 318.84 217.25 332.00 C 214.91 332.00 212.57 332.00 210.23 331.98 C 208.93 326.22 207.59 320.48 206.35 314.72 C 205.92 320.46 206.20 326.23 206.13 331.99 C 203.93 332.00 201.73 332.00 199.54 332.04 Z" />
<path fill="#ffff00" opacity="1.00" d=" M 247.62 292.51 C 252.04 292.69 256.61 291.91 260.90 293.26 C 264.42 294.54 264.73 298.80 264.75 301.98 C 264.59 305.84 265.38 310.02 263.63 313.62 C 261.94 316.33 258.39 316.06 255.63 316.21 C 255.63 321.46 255.60 326.72 255.65 331.97 C 252.97 332.00 250.30 332.00 247.62 332.00 C 247.62 318.84 247.62 305.67 247.62 292.51 M 255.66 299.01 C 255.59 302.58 255.58 306.15 255.69 309.73 C 256.20 309.48 257.21 308.98 257.72 308.74 C 257.91 305.62 259.77 299.95 255.66 299.01 Z" />
<path fill="#ffff00" opacity="1.00" d=" M 287.32 331.93 C 287.47 318.78 287.30 305.63 287.41 292.48 C 291.92 292.75 296.67 291.80 301.00 293.42 C 304.28 294.88 304.43 298.94 304.50 302.04 C 304.37 305.84 305.07 309.92 303.45 313.49 C 301.82 316.33 298.16 316.05 295.35 316.23 C 295.40 321.49 295.37 326.75 295.38 332.00 C 292.69 332.01 290.00 332.00 287.32 331.93 M 295.45 298.95 C 295.36 302.61 295.20 306.29 295.64 309.94 C 297.26 309.27 298.09 307.85 297.88 306.13 C 297.72 303.62 298.90 299.57 295.45 298.95 Z" />
</svg>
