<?xml version="1.0" encoding="UTF-8" ?>
<!DOCTYPE svg PUBLIC "-//W3C//DTD SVG 1.1//EN" "http://www.w3.org/Graphics/SVG/1.1/DTD/svg11.dtd">
<svg width="960pt" height="540pt" viewBox="0 0 960 540" version="1.1" xmlns="http://www.w3.org/2000/svg">
<path fill="#171920" opacity="1.00" d=" M 463.69 48.30 C 471.46 49.86 479.32 50.96 487.07 52.65 C 489.05 56.46 494.00 55.47 497.49 56.53 C 506.49 58.52 515.50 60.46 524.55 62.20 C 524.27 62.59 523.71 63.38 523.43 63.77 C 515.87 62.12 508.22 60.99 500.65 59.45 C 498.80 59.08 496.94 58.72 495.09 58.37 C 493.49 58.07 491.89 57.79 490.31 57.49 C 488.20 57.10 486.09 56.69 484.00 56.27 C 482.59 55.98 481.17 55.67 479.77 55.39 C 474.87 54.49 469.97 53.59 465.05 52.86 C 462.19 58.86 459.71 65.02 456.92 71.05 L 456.34 72.36 C 454.48 76.44 452.68 80.56 450.85 84.66 C 457.88 86.80 465.09 88.26 472.23 89.98 C 471.54 90.81 470.86 91.64 470.19 92.48 C 472.15 93.33 474.13 94.18 476.11 95.01 C 477.28 94.20 478.47 93.40 479.65 92.60 C 479.45 93.61 479.26 94.63 479.07 95.64 C 481.88 95.55 484.63 94.93 487.18 93.72 C 489.33 94.29 491.49 94.81 493.66 95.33 C 498.60 96.44 503.48 97.84 508.47 98.73 C 508.73 98.17 509.24 97.05 509.49 96.49 C 510.07 100.35 508.37 103.74 505.57 106.32 C 487.34 101.71 469.16 96.91 451.01 91.99 C 448.42 91.17 445.71 91.27 443.06 91.64 C 443.51 87.16 444.86 82.71 444.11 78.18 C 445.79 71.81 448.12 65.49 452.18 60.22 C 455.31 55.79 459.66 52.49 463.38 48.59 L 463.69 48.30 M 457.35 56.30 C 457.89 56.77 457.89 56.77 457.35 56.30 M 446.29 77.91 C 446.04 78.24 445.53 78.89 445.28 79.22 C 446.26 82.54 450.10 76.99 446.29 77.91 Z" />
<path fill="#525259" opacity="1.00" d=" M 454.78 55.56 C 457.40 52.96 459.91 50.06 463.38 48.59 C 459.66 52.49 455.31 55.79 452.18 60.22 C 448.12 65.49 445.79 71.81 444.11 78.18 L 443.52 79.62 C 443.68 70.48 448.84 62.18 454.78 55.56 Z" />
<path fill="#423393" opacity="1.00" d=" M 465.05 52.86 C 469.97 53.59 474.87 54.49 479.77 55.39 C 475.81 57.20 474.78 61.83 472.76 65.30 L 472.59 65.63 C 472.77 65.68 473.13 65.76 473.31 65.80 L 473.93 66.30 C 474.03 66.41 474.24 66.65 474.35 66.77 C 474.56 67.14 474.99 67.86 475.20 68.23 C 473.29 69.06 469.62 68.17 469.57 71.07 C 470.87 73.37 472.96 70.81 474.54 70.25 C 474.53 71.71 474.54 73.17 474.55 74.64 C 475.65 74.95 476.77 75.26 477.89 75.58 C 475.45 75.94 473.01 76.30 470.56 76.57 C 465.61 75.92 461.07 73.71 456.92 71.05 C 459.71 65.02 462.19 58.86 465.05 52.86 M 463.58 64.05 C 464.60 63.85 465.62 63.65 466.64 63.45 C 466.65 63.95 466.68 64.96 466.69 65.47 C 468.11 64.47 469.60 62.46 467.76 61.04 C 465.61 60.34 464.77 62.81 463.58 64.05 Z" />
<path fill="#525259" opacity="1.00" d=" M 487.07 52.65 C 490.22 53.25 493.48 53.50 496.55 54.51 L 497.49 56.53 C 494.00 55.47 489.05 56.46 487.07 52.65 Z" />
<path fill="#26282f" opacity="1.00" d=" M 496.55 54.51 C 504.14 55.40 511.59 57.22 519.13 58.47 C 522.01 59.04 524.99 59.30 527.76 60.32 C 528.45 61.42 528.96 62.64 529.19 63.92 C 529.44 66.12 529.60 68.33 529.80 70.53 C 528.67 70.03 527.55 69.53 526.43 69.03 C 526.30 69.68 526.02 71.00 525.88 71.66 C 526.53 71.25 527.84 70.44 528.49 70.03 C 528.84 70.57 529.56 71.64 529.91 72.18 C 530.47 75.07 529.46 78.08 528.68 80.87 C 527.29 85.92 523.92 90.08 522.18 94.96 C 519.55 97.11 517.30 99.68 515.30 102.41 C 513.00 105.36 509.42 107.75 505.57 106.32 C 508.37 103.74 510.07 100.35 509.49 96.49 C 510.24 94.23 511.11 92.03 512.05 89.85 C 512.72 88.30 513.39 86.75 514.05 85.20 C 514.52 84.05 515.00 82.89 515.47 81.74 C 515.84 80.82 516.23 79.91 516.63 79.00 C 517.77 76.38 518.98 73.78 520.05 71.13 C 521.08 68.64 522.04 66.10 523.43 63.77 C 523.71 63.38 524.27 62.59 524.55 62.20 C 515.50 60.46 506.49 58.52 497.49 56.53 L 496.55 54.51 Z" />
<path fill="#5a4353" opacity="1.00" d=" M 457.35 56.30 C 457.89 56.77 457.89 56.77 457.35 56.30 Z" />
<path fill="#523d97" opacity="1.00" d=" M 472.76 65.30 C 474.78 61.83 475.81 57.20 479.77 55.39 C 481.17 55.67 482.59 55.98 484.00 56.27 C 483.73 59.02 483.47 61.78 483.19 64.53 C 482.67 64.43 481.63 64.23 481.11 64.13 C 480.66 65.25 480.26 66.38 479.85 67.52 C 481.65 68.02 483.46 68.53 485.25 69.07 C 483.37 70.25 481.23 70.88 479.12 71.50 C 479.13 72.15 479.16 73.45 479.17 74.10 C 480.71 73.59 482.25 73.08 483.80 72.57 C 484.27 73.84 484.75 75.11 485.24 76.38 C 480.41 77.40 475.41 77.57 470.56 76.57 C 473.01 76.30 475.45 75.94 477.89 75.58 C 476.77 75.26 475.65 74.95 474.55 74.64 C 474.54 73.17 474.53 71.71 474.54 70.25 C 472.96 70.81 470.87 73.37 469.57 71.07 C 469.62 68.17 473.29 69.06 475.20 68.23 C 474.99 67.86 474.56 67.14 474.35 66.77 L 474.21 66.51 L 473.93 66.30 L 473.31 65.80 L 472.76 65.30 Z" />
<path fill="#6d529f" opacity="1.00" d=" M 484.00 56.27 C 486.09 56.69 488.20 57.10 490.31 57.49 C 490.12 60.56 490.32 63.64 490.70 66.68 C 490.38 67.74 490.06 68.79 489.73 69.85 C 491.53 69.43 493.64 68.46 494.76 70.61 C 493.99 70.59 492.45 70.55 491.69 70.53 C 490.60 72.34 489.52 74.14 488.47 75.96 C 487.38 76.07 486.31 76.21 485.24 76.38 C 484.75 75.11 484.27 73.84 483.80 72.57 C 482.25 73.08 480.71 73.59 479.17 74.10 C 479.16 73.45 479.13 72.15 479.12 71.50 C 481.23 70.88 483.37 70.25 485.25 69.07 C 485.63 67.80 485.96 66.52 486.32 65.24 C 485.27 65.00 484.23 64.76 483.19 64.53 C 483.47 61.78 483.73 59.02 484.00 56.27 Z" />
<path fill="#8a6cad" opacity="1.00" d=" M 490.31 57.49 C 491.89 57.79 493.49 58.07 495.09 58.37 C 494.86 59.89 494.52 61.40 494.52 62.95 C 495.87 65.86 497.64 68.58 498.87 71.56 C 499.53 71.20 500.17 70.82 500.85 70.47 C 501.11 71.81 501.38 73.16 501.65 74.51 C 503.08 74.87 504.51 75.24 505.95 75.59 C 502.77 75.65 499.59 75.92 496.46 76.48 C 493.79 76.32 491.14 76.04 488.47 75.96 C 489.52 74.14 490.60 72.34 491.69 70.53 C 492.45 70.55 493.99 70.59 494.76 70.61 C 494.97 70.61 495.39 70.61 495.59 70.61 C 495.92 69.38 496.23 68.15 496.51 66.91 C 494.57 66.83 492.64 66.74 490.70 66.68 C 490.32 63.64 490.12 60.56 490.31 57.49 Z" />
<path fill="#ba98c4" opacity="1.00" d=" M 495.09 58.37 C 496.94 58.72 498.80 59.08 500.65 59.45 C 502.33 62.62 502.71 66.19 502.60 69.72 C 504.17 70.26 505.73 70.98 507.41 71.12 C 509.56 70.90 511.64 69.51 513.83 70.06 C 514.55 70.88 515.24 71.74 515.89 72.64 C 517.27 72.14 518.66 71.63 520.05 71.13 C 518.98 73.78 517.77 76.38 516.63 79.00 C 509.90 76.47 502.64 76.40 495.56 76.67 L 496.46 76.48 C 499.59 75.92 502.77 75.65 505.95 75.59 C 504.51 75.24 503.08 74.87 501.65 74.51 C 501.38 73.16 501.11 71.81 500.85 70.47 C 500.17 70.82 499.53 71.20 498.87 71.56 C 497.64 68.58 495.87 65.86 494.52 62.95 C 494.52 61.40 494.86 59.89 495.09 58.37 M 513.90 70.75 C 513.32 73.32 511.21 72.69 509.34 72.26 C 509.39 72.82 509.50 73.95 509.55 74.51 C 510.78 74.45 512.01 74.39 513.25 74.33 C 513.45 73.14 513.66 71.94 513.90 70.75 Z" />
<path fill="#e4d1e4" opacity="1.00" d=" M 500.65 59.45 C 508.22 60.99 515.87 62.12 523.43 63.77 C 522.04 66.10 521.08 68.64 520.05 71.13 C 518.66 71.63 517.27 72.14 515.89 72.64 C 515.24 71.74 514.55 70.88 513.83 70.06 C 511.64 69.51 509.56 70.90 507.41 71.12 C 505.73 70.98 504.17 70.26 502.60 69.72 C 502.71 66.19 502.33 62.62 500.65 59.45 Z" />
<path fill="#8885ba" opacity="1.00" d=" M 463.58 64.05 C 464.77 62.81 465.61 60.34 467.76 61.04 C 469.60 62.46 468.11 64.47 466.69 65.47 C 466.68 64.96 466.65 63.95 466.64 63.45 C 465.62 63.65 464.60 63.85 463.58 64.05 Z" />
<path fill="#070708" opacity="1.00" d=" M 529.76 60.23 C 531.30 60.92 533.21 61.45 533.46 63.41 C 535.91 71.98 535.36 81.91 530.40 89.51 C 528.88 92.05 528.22 95.00 526.62 97.49 C 526.60 97.52 526.57 97.57 526.55 97.59 L 526.03 98.23 C 521.42 103.51 516.79 110.60 509.03 110.87 C 510.09 113.89 510.66 117.06 510.60 120.27 C 509.83 119.38 509.07 118.46 508.37 117.52 C 507.09 114.27 505.00 111.36 501.52 110.29 C 498.04 108.50 494.78 106.18 490.91 105.31 C 480.38 102.90 469.98 99.93 459.45 97.51 C 459.41 99.46 459.36 101.41 459.35 103.36 C 458.39 101.30 457.12 99.14 454.87 98.31 C 450.65 96.34 445.83 98.41 442.65 101.38 C 442.32 100.69 441.65 99.31 441.31 98.62 C 443.39 97.30 445.49 96.02 447.63 94.80 C 446.07 93.79 444.53 92.76 443.06 91.64 C 445.71 91.27 448.42 91.17 451.01 91.99 C 469.16 96.91 487.34 101.71 505.57 106.32 C 509.42 107.75 513.00 105.36 515.30 102.41 C 517.54 99.92 520.73 98.18 522.44 95.25 C 525.66 91.75 528.22 87.63 529.76 83.12 C 532.27 75.78 532.95 67.47 529.76 60.23 Z" />
<path fill="#8273ab" opacity="1.00" d=" M 481.11 64.13 C 481.63 64.23 482.67 64.43 483.19 64.53 C 484.23 64.76 485.27 65.00 486.32 65.24 C 485.96 66.52 485.63 67.80 485.25 69.07 C 483.46 68.53 481.65 68.02 479.85 67.52 C 480.26 66.38 480.66 65.25 481.11 64.13 M 482.29 65.98 C 482.36 69.32 485.30 64.51 482.29 65.98 Z" />
<path fill="#807fb9" opacity="1.00" d=" M 529.19 63.92 C 529.75 66.63 529.99 69.40 529.91 72.18 C 529.56 71.64 528.84 70.57 528.49 70.03 C 527.84 70.44 526.53 71.25 525.88 71.66 C 526.02 71.00 526.30 69.68 526.43 69.03 C 527.55 69.53 528.67 70.03 529.80 70.53 C 529.60 68.33 529.44 66.12 529.19 63.92 Z" />
<path fill="#9b8fd6" opacity="1.00" d=" M 472.59 65.63 L 472.76 65.30 L 473.31 65.80 C 473.13 65.76 472.77 65.68 472.59 65.63 Z" />
<path fill="#8c7ec4" opacity="1.00" d=" M 473.93 66.30 L 474.21 66.51 L 474.35 66.77 C 474.24 66.65 474.03 66.41 473.93 66.30 Z" />
<path fill="#473683" opacity="1.00" d=" M 482.29 65.98 C 485.30 64.51 482.36 69.32 482.29 65.98 Z" />
<path fill="#cdc3de" opacity="1.00" d=" M 490.70 66.68 C 492.64 66.74 494.57 66.83 496.51 66.91 C 496.23 68.15 495.92 69.38 495.59 70.61 C 495.39 70.61 494.97 70.61 494.76 70.61 C 493.64 68.46 491.53 69.43 489.73 69.85 C 490.06 68.79 490.38 67.74 490.70 66.68 Z" />
<path fill="#807fb9" opacity="1.00" d=" M 456.92 71.05 C 461.07 73.71 465.61 75.92 470.56 76.57 C 475.41 77.57 480.41 77.40 485.24 76.38 C 486.31 76.21 487.38 76.07 488.47 75.96 C 491.14 76.04 493.79 76.32 496.46 76.48 L 495.56 76.67 C 491.42 77.71 487.18 78.28 482.94 78.68 C 490.23 79.36 497.55 77.85 504.82 78.95 C 508.47 79.43 512.01 80.49 515.47 81.74 C 515.00 82.89 514.52 84.05 514.05 85.20 C 507.35 83.53 501.05 80.03 494.03 79.88 C 490.86 79.73 487.69 79.95 484.53 80.05 C 482.24 79.92 479.94 79.85 477.65 79.72 C 470.27 78.30 462.67 76.61 456.34 72.36 L 456.92 71.05 Z" />
<path fill="#26282f" opacity="1.00" d=" M 513.90 70.75 C 513.66 71.94 513.45 73.14 513.25 74.33 C 512.01 74.39 510.78 74.45 509.55 74.51 C 509.50 73.95 509.39 72.82 509.34 72.26 C 511.21 72.69 513.32 73.32 513.90 70.75 Z" />
<path fill="#393493" opacity="1.00" d=" M 450.85 84.66 C 452.68 80.56 454.48 76.44 456.34 72.36 C 462.67 76.61 470.27 78.30 477.65 79.72 C 484.99 82.35 488.91 89.70 495.70 93.25 C 495.01 93.94 494.33 94.63 493.66 95.33 C 491.49 94.81 489.33 94.29 487.18 93.72 C 482.24 92.28 477.24 91.08 472.23 89.98 C 465.09 88.26 457.88 86.80 450.85 84.66 Z" />
<path fill="#b7b5d8" opacity="1.00" d=" M 482.94 78.68 C 487.18 78.28 491.42 77.71 495.56 76.67 C 502.64 76.40 509.90 76.47 516.63 79.00 C 516.23 79.91 515.84 80.82 515.47 81.74 C 512.01 80.49 508.47 79.43 504.82 78.95 C 497.55 77.85 490.23 79.36 482.94 78.68 Z" />
<path fill="#595c63" opacity="1.00" d=" M 446.29 77.91 C 450.10 76.99 446.26 82.54 445.28 79.22 C 445.53 78.89 446.04 78.24 446.29 77.91 Z" />
<path fill="#2d2e35" opacity="1.00" d=" M 443.52 79.62 L 444.11 78.18 C 444.86 82.71 443.51 87.16 443.06 91.64 C 444.53 92.76 446.07 93.79 447.63 94.80 C 445.49 96.02 443.39 97.30 441.31 98.62 C 441.65 99.31 442.32 100.69 442.65 101.38 C 442.36 101.77 441.79 102.55 441.51 102.95 C 440.37 102.75 439.25 102.54 438.13 102.34 C 436.97 104.73 435.74 107.22 435.85 109.95 C 435.52 113.09 437.56 115.66 439.13 118.16 C 437.64 117.73 436.16 117.31 434.68 116.91 L 434.50 116.86 C 432.27 108.97 433.90 100.53 436.95 93.10 C 438.75 88.38 442.88 84.81 443.52 79.62 Z" />
<path fill="#4c4d9f" opacity="1.00" d=" M 477.65 79.72 C 479.94 79.85 482.24 79.92 484.53 80.05 C 489.35 81.38 494.67 81.21 498.98 84.04 C 503.07 86.53 507.50 88.38 512.05 89.85 C 511.11 92.03 510.24 94.23 509.49 96.49 C 509.24 97.05 508.73 98.17 508.47 98.73 C 503.48 97.84 498.60 96.44 493.66 95.33 C 494.33 94.63 495.01 93.94 495.70 93.25 C 488.91 89.70 484.99 82.35 477.65 79.72 Z" />
<path fill="#6564ac" opacity="1.00" d=" M 484.53 80.05 C 487.69 79.95 490.86 79.73 494.03 79.88 C 501.05 80.03 507.35 83.53 514.05 85.20 C 513.39 86.75 512.72 88.30 512.05 89.85 C 507.50 88.38 503.07 86.53 498.98 84.04 C 494.67 81.21 489.35 81.38 484.53 80.05 Z" />
<path fill="#111214" opacity="0.28" d=" M 522.18 94.96 C 523.92 90.08 527.29 85.92 528.68 80.87 C 528.95 81.43 529.49 82.55 529.76 83.12 C 528.22 87.63 525.66 91.75 522.44 95.25 L 522.18 94.96 Z" />
<path fill="#36373b" opacity="1.00" d=" M 472.23 89.98 C 477.24 91.08 482.24 92.28 487.18 93.72 C 484.63 94.93 481.88 95.55 479.07 95.64 C 479.26 94.63 479.45 93.61 479.65 92.60 C 478.47 93.40 477.28 94.20 476.11 95.01 C 474.13 94.18 472.15 93.33 470.19 92.48 C 470.86 91.64 471.54 90.81 472.23 89.98 Z" />
<path fill="#b7b5d8" opacity="1.00" d=" M 515.30 102.41 C 517.30 99.68 519.55 97.11 522.18 94.96 L 522.44 95.25 C 520.73 98.18 517.54 99.92 515.30 102.41 Z" />
<path fill="#ffffff" opacity="1.00" d=" M 442.65 101.38 C 445.83 98.41 450.65 96.34 454.87 98.31 C 457.12 99.14 458.39 101.30 459.35 103.36 L 459.35 103.85 C 459.09 106.23 458.58 108.58 458.06 110.91 C 457.69 111.30 456.95 112.07 456.58 112.45 C 454.39 114.59 452.06 117.20 448.77 117.35 C 445.39 117.72 441.30 116.69 439.83 113.29 C 438.24 109.84 439.76 106.02 441.51 102.95 C 441.79 102.55 442.36 101.77 442.65 101.38 M 442.09 102.97 L 441.89 102.89 C 441.33 104.35 440.76 105.82 440.23 107.29 C 440.28 109.88 440.19 112.87 442.35 114.72 C 444.45 117.36 448.18 116.99 451.12 116.36 C 454.80 114.20 458.24 110.67 458.16 106.10 C 458.42 102.71 455.80 100.24 453.29 98.44 C 448.97 97.73 444.74 99.54 442.09 102.97 Z" />
<path fill="#474a4d" opacity="0.93" d=" M 526.55 97.59 C 526.57 97.57 526.60 97.52 526.62 97.49 C 526.60 97.52 526.57 97.57 526.55 97.59 Z" />
<path fill="#34343c" opacity="1.00" d=" M 459.45 97.51 C 469.98 99.93 480.38 102.90 490.91 105.31 C 494.78 106.18 498.04 108.50 501.52 110.29 C 498.02 110.44 494.18 110.14 491.18 112.31 C 487.36 114.79 484.60 119.29 485.27 123.97 C 485.15 127.22 487.85 129.39 490.38 130.88 L 490.48 131.38 C 490.55 131.71 490.70 132.38 490.77 132.72 C 491.86 133.50 493.00 134.21 494.19 134.85 C 492.48 134.39 490.79 133.92 489.10 133.45 C 488.89 133.90 488.47 134.80 488.26 135.25 C 488.39 134.74 488.65 133.70 488.78 133.19 C 474.65 129.21 460.58 124.98 446.61 120.49 C 449.37 119.86 451.96 118.65 454.49 117.39 C 455.77 119.42 456.90 122.08 459.60 122.46 C 462.88 123.56 468.25 121.71 467.90 117.64 C 467.65 116.65 467.39 115.67 467.13 114.69 C 467.80 114.44 468.48 114.20 469.16 113.96 C 469.29 113.47 469.55 112.49 469.69 112.00 C 468.17 110.84 466.71 109.56 464.97 108.75 C 463.11 108.90 461.29 109.37 459.48 109.79 C 459.42 107.81 459.37 105.83 459.35 103.85 L 459.35 103.36 C 459.36 101.41 459.41 99.46 459.45 97.51 M 474.59 114.76 C 477.52 115.21 480.46 115.57 483.41 115.86 C 481.88 112.39 476.93 111.82 474.59 114.76 M 473.95 126.40 C 476.39 127.10 478.86 126.40 481.13 125.45 C 478.20 126.38 474.55 127.42 472.10 124.88 C 470.22 122.49 471.04 119.48 471.49 116.78 C 470.00 119.80 469.28 126.19 473.95 126.40 Z" />
<path fill="#2d2d33" opacity="1.00" d=" M 442.09 102.97 C 444.74 99.54 448.97 97.73 453.29 98.44 C 455.80 100.24 458.42 102.71 458.16 106.10 C 458.24 110.67 454.80 114.20 451.12 116.36 C 448.18 116.99 444.45 117.36 442.35 114.72 C 440.19 112.87 440.28 109.88 440.23 107.29 C 442.73 107.31 445.24 107.26 447.74 107.05 C 446.60 104.81 444.32 103.79 442.09 102.97 M 448.60 100.16 C 449.74 101.63 451.19 102.80 452.76 103.79 C 453.18 102.81 453.60 101.83 454.03 100.85 C 452.22 100.58 450.41 100.35 448.60 100.16 M 453.32 107.03 C 453.62 108.44 453.92 109.83 454.25 111.23 C 455.07 110.08 455.88 108.93 456.71 107.79 C 455.57 107.55 454.44 107.30 453.32 107.03 Z" />
<path fill="#3c3c43" opacity="1.00" d=" M 509.03 110.87 C 516.79 110.60 521.42 103.51 526.03 98.23 C 523.15 102.26 523.54 107.41 521.85 111.89 C 521.34 112.88 521.43 113.89 522.10 114.77 C 520.35 115.44 519.63 117.20 518.78 118.71 C 514.67 126.26 508.39 132.59 500.95 136.89 C 498.68 136.26 496.38 135.71 494.19 134.85 C 493.00 134.21 491.86 133.50 490.77 132.72 C 490.70 132.38 490.55 131.71 490.48 131.38 C 494.27 131.38 498.50 132.04 501.72 129.52 C 506.03 127.09 507.68 122.13 508.37 117.52 C 509.07 118.46 509.83 119.38 510.60 120.27 C 510.66 117.06 510.09 113.89 509.03 110.87 Z" />
<path fill="#404048" opacity="1.00" d=" M 448.60 100.16 C 450.41 100.35 452.22 100.58 454.03 100.85 C 453.60 101.83 453.18 102.81 452.76 103.79 C 451.19 102.80 449.74 101.63 448.60 100.16 Z" />
<path fill="#525259" opacity="1.00" d=" M 438.13 102.34 C 439.25 102.54 440.37 102.75 441.51 102.95 C 439.76 106.02 438.24 109.84 439.83 113.29 C 441.30 116.69 445.39 117.72 448.77 117.35 C 452.06 117.20 454.39 114.59 456.58 112.45 C 457.36 115.31 458.38 118.09 459.42 120.86 C 462.69 121.16 465.81 120.35 467.90 117.64 C 468.25 121.71 462.88 123.56 459.60 122.46 C 456.90 122.08 455.77 119.42 454.49 117.39 C 451.96 118.65 449.37 119.86 446.61 120.49 C 442.50 120.23 437.85 119.77 434.68 116.91 C 436.16 117.31 437.64 117.73 439.13 118.16 C 437.56 115.66 435.52 113.09 435.85 109.95 C 435.74 107.22 436.97 104.73 438.13 102.34 Z" />
<path fill="#414249" opacity="1.00" d=" M 441.89 102.89 L 442.09 102.97 C 444.32 103.79 446.60 104.81 447.74 107.05 C 445.24 107.26 442.73 107.31 440.23 107.29 C 440.76 105.82 441.33 104.35 441.89 102.89 Z" />
<path fill="#1f1e24" opacity="1.00" d=" M 459.35 103.85 C 459.37 105.83 459.42 107.81 459.48 109.79 C 461.29 109.37 463.11 108.90 464.97 108.75 C 466.71 109.56 468.17 110.84 469.69 112.00 C 469.55 112.49 469.29 113.47 469.16 113.96 C 468.48 114.20 467.80 114.44 467.13 114.69 C 467.39 115.67 467.65 116.65 467.90 117.64 C 465.81 120.35 462.69 121.16 459.42 120.86 C 458.38 118.09 457.36 115.31 456.58 112.45 C 456.95 112.07 457.69 111.30 458.06 110.91 C 458.58 108.58 459.09 106.23 459.35 103.85 M 461.20 112.97 C 459.87 114.00 458.26 116.58 460.06 117.86 C 461.91 120.28 465.50 117.71 465.28 115.14 C 464.63 113.71 462.87 111.62 461.20 112.97 Z" />
<path fill="#48484e" opacity="1.00" d=" M 453.32 107.03 C 454.44 107.30 455.57 107.55 456.71 107.79 C 455.88 108.93 455.07 110.08 454.25 111.23 C 453.92 109.83 453.62 108.44 453.32 107.03 Z" />
<path fill="#ffffff" opacity="1.00" d=" M 491.18 112.31 C 494.18 110.14 498.02 110.44 501.52 110.29 C 505.00 111.36 507.09 114.27 508.37 117.52 C 507.68 122.13 506.03 127.09 501.72 129.52 C 498.50 132.04 494.27 131.38 490.48 131.38 L 490.38 130.88 C 487.85 129.39 485.15 127.22 485.27 123.97 C 484.60 119.29 487.36 114.79 491.18 112.31 M 486.52 118.76 C 486.64 120.80 486.37 122.91 486.95 124.90 C 487.69 127.32 489.82 128.86 491.55 130.56 C 494.04 130.61 496.60 130.91 499.06 130.33 C 503.49 128.50 507.43 124.17 506.73 119.08 C 506.71 114.16 501.84 110.11 496.99 111.06 C 492.19 111.00 488.45 114.68 486.52 118.76 Z" />
<path fill="#33333b" opacity="1.00" d=" M 486.52 118.76 C 488.45 114.68 492.19 111.00 496.99 111.06 C 501.84 110.11 506.71 114.16 506.73 119.08 C 507.43 124.17 503.49 128.50 499.06 130.33 C 496.60 130.91 494.04 130.61 491.55 130.56 C 489.82 128.86 487.69 127.32 486.95 124.90 C 486.37 122.91 486.64 120.80 486.52 118.76 M 497.68 115.90 C 498.47 115.91 500.05 115.93 500.84 115.94 C 500.81 115.17 500.73 113.64 500.69 112.87 C 499.38 113.55 498.17 114.44 497.68 115.90 M 488.90 119.19 C 489.66 119.86 490.42 120.54 491.19 121.21 C 492.09 119.98 492.74 118.58 493.09 117.09 C 491.68 117.76 490.29 118.49 488.90 119.19 M 501.43 123.51 C 503.31 125.22 504.46 122.20 505.09 120.84 C 503.28 120.65 500.47 121.01 501.43 123.51 M 493.20 125.21 C 493.19 125.86 493.16 127.15 493.14 127.80 C 493.81 127.82 495.16 127.86 495.83 127.88 C 495.81 127.25 495.78 125.97 495.76 125.33 C 495.12 125.30 493.84 125.24 493.20 125.21 Z" />
<path fill="#393a3f" opacity="1.00" d=" M 461.20 112.97 C 462.87 111.62 464.63 113.71 465.28 115.14 C 465.50 117.71 461.91 120.28 460.06 117.86 C 458.26 116.58 459.87 114.00 461.20 112.97 Z" />
<path fill="#202126" opacity="1.00" d=" M 474.59 114.76 C 476.93 111.82 481.88 112.39 483.41 115.86 C 480.46 115.57 477.52 115.21 474.59 114.76 Z" />
<path fill="#55555e" opacity="1.00" d=" M 497.68 115.90 C 498.17 114.44 499.38 113.55 500.69 112.87 C 500.73 113.64 500.81 115.17 500.84 115.94 C 500.05 115.93 498.47 115.91 497.68 115.90 Z" />
<path fill="#e4d1e4" opacity="1.00" d=" M 473.95 126.40 C 469.28 126.19 470.00 119.80 471.49 116.78 C 471.04 119.48 470.22 122.49 472.10 124.88 C 474.55 127.42 478.20 126.38 481.13 125.45 C 478.86 126.40 476.39 127.10 473.95 126.40 Z" />
<path fill="#505058" opacity="1.00" d=" M 488.90 119.19 C 490.29 118.49 491.68 117.76 493.09 117.09 C 492.74 118.58 492.09 119.98 491.19 121.21 C 490.42 120.54 489.66 119.86 488.90 119.19 Z" />
<path fill="#525259" opacity="1.00" d=" M 503.80 138.07 C 510.95 132.83 517.32 126.55 521.99 118.98 C 517.78 126.76 511.89 134.14 503.80 138.07 Z" />
<path fill="#57575f" opacity="1.00" d=" M 501.43 123.51 C 500.47 121.01 503.28 120.65 505.09 120.84 C 504.46 122.20 503.31 125.22 501.43 123.51 Z" />
<path fill="#1b1a1f" opacity="0.58" d=" M 450.32 123.09 C 453.30 121.55 450.47 126.42 450.32 123.09 Z" />
<path fill="#4f4e58" opacity="1.00" d=" M 493.20 125.21 C 493.84 125.24 495.12 125.30 495.76 125.33 C 495.78 125.97 495.81 127.25 495.83 127.88 C 495.16 127.86 493.81 127.82 493.14 127.80 C 493.16 127.15 493.19 125.86 493.20 125.21 Z" />
<path fill="#4ab34d" opacity="0.75" d=" M 225.13 286.29 L 225.60 286.41 C 225.75 286.59 226.03 286.94 226.18 287.11 C 226.44 287.48 226.98 288.21 227.24 288.58 C 225.95 289.10 224.65 289.62 223.35 290.14 C 224.61 291.41 225.09 293.12 225.63 294.78 L 227.09 293.27 C 227.12 294.33 227.18 295.41 227.24 296.48 C 226.15 296.53 223.96 296.63 222.86 296.68 C 224.24 297.62 225.67 298.51 227.11 299.36 L 226.37 300.74 C 223.45 299.56 220.88 297.30 220.78 293.93 C 221.32 295.41 224.25 294.70 222.62 293.28 C 222.20 293.26 221.34 293.22 220.92 293.20 C 221.55 290.67 223.25 288.66 224.82 286.66 L 225.13 286.29 Z" />
<path fill="#692521" opacity="0.53" d=" M 225.60 286.41 L 225.27 286.01 C 230.71 284.68 235.01 289.12 236.10 294.03 C 235.11 296.93 233.65 299.67 231.20 301.60 C 230.87 301.26 230.23 300.60 229.90 300.27 C 232.34 298.89 233.86 296.57 234.44 293.86 L 234.63 293.23 C 233.30 290.81 231.83 287.80 228.70 287.55 L 226.18 287.11 C 226.03 286.94 225.75 286.59 225.60 286.41 Z" />
<path fill="#683832" opacity="0.53" d=" M 218.92 294.02 C 220.05 291.28 221.00 287.78 224.17 286.79 L 224.82 286.66 C 223.25 288.66 221.55 290.67 220.92 293.20 L 220.78 293.93 C 220.88 297.30 223.45 299.56 226.37 300.74 C 227.06 300.69 228.44 300.59 229.13 300.55 C 229.11 301.05 229.08 302.07 229.07 302.58 C 226.67 302.00 223.91 301.83 222.08 299.95 C 220.35 298.40 219.80 296.07 218.92 294.02 Z" />
<path fill="#43d14a" opacity="0.85" d=" M 228.70 287.55 C 231.83 287.80 233.30 290.81 234.63 293.23 C 234.02 292.97 232.80 292.45 232.19 292.18 C 231.40 292.78 230.73 293.50 230.16 294.32 C 231.57 294.87 233.19 294.81 234.44 293.86 C 233.86 296.57 232.34 298.89 229.90 300.27 C 229.25 300.19 227.94 300.04 227.29 299.97 C 228.94 298.91 230.59 297.85 232.18 296.70 C 231.07 296.69 228.84 296.67 227.72 296.66 C 227.77 294.94 228.97 292.76 226.74 291.81 C 228.46 291.11 230.26 290.79 232.15 290.83 C 230.59 289.97 229.02 289.14 227.44 288.35 C 227.76 288.15 228.38 287.75 228.70 287.55 Z" />
<path fill="#ffffff" opacity="1.00" d=" M 40.31 295.39 C 43.27 290.80 50.25 290.62 54.53 293.36 C 58.22 295.70 57.44 300.63 57.67 304.37 C 55.05 304.38 52.42 304.37 49.80 304.38 C 49.71 302.32 49.99 300.18 49.16 298.24 C 46.12 298.44 46.78 302.54 47.56 304.51 C 50.61 308.23 55.91 310.16 57.57 315.02 C 58.60 319.41 58.92 324.25 57.37 328.56 C 53.97 334.41 43.88 334.39 40.49 328.53 C 38.98 325.20 39.32 321.43 39.23 317.88 C 41.86 317.87 44.49 317.87 47.12 317.87 C 47.33 320.65 46.52 323.71 47.91 326.27 C 51.32 325.98 50.27 321.45 49.83 319.09 C 47.15 314.67 40.98 312.96 39.57 307.61 C 38.73 303.62 38.54 299.16 40.31 295.39 Z" />
<path fill="#ffffff" opacity="1.00" d=" M 90.15 297.89 C 91.92 291.26 101.27 289.60 105.95 294.12 C 109.61 297.30 108.98 302.63 109.16 307.00 C 106.31 307.00 103.47 307.00 100.63 307.00 C 100.52 304.27 100.96 301.43 100.20 298.77 C 98.88 297.26 97.63 299.69 98.04 300.93 C 98.17 309.10 97.54 317.38 98.38 325.49 C 98.82 325.76 99.69 326.29 100.12 326.56 C 101.15 323.39 100.85 320.05 100.88 316.78 C 100.47 316.76 99.64 316.72 99.23 316.70 C 99.25 314.71 99.25 312.73 99.26 310.75 C 102.55 310.75 105.84 310.75 109.12 310.75 C 109.13 317.83 109.13 324.92 109.13 332.00 C 107.33 332.00 105.53 332.00 103.74 332.00 C 103.49 331.11 103.24 330.25 102.99 329.37 C 101.68 331.43 99.59 333.40 96.92 332.84 C 91.80 332.19 89.27 326.64 89.54 321.97 C 89.69 313.95 88.91 305.84 90.15 297.89 Z" />
<path fill="#ffffff" opacity="1.00" d=" M 117.46 292.72 C 123.11 289.54 131.34 293.04 131.80 299.80 C 132.29 308.22 132.37 316.71 131.74 325.12 C 131.11 330.65 125.07 334.09 119.87 332.63 C 115.77 331.90 112.89 327.97 112.73 323.93 C 112.32 316.63 112.46 309.30 112.62 302.00 C 112.62 298.39 114.08 294.44 117.46 292.72 M 121.70 298.60 C 121.56 298.88 121.28 299.46 121.14 299.74 C 120.81 307.13 121.10 314.54 120.99 321.94 C 121.20 323.59 120.44 326.56 123.08 326.18 C 124.29 317.85 123.35 309.31 123.58 300.90 C 123.91 299.79 122.82 297.39 121.70 298.60 Z" />
<path fill="#ffff00" opacity="1.00" d=" M 196.04 292.46 C 198.40 292.49 200.77 292.50 203.14 292.54 C 203.11 305.69 203.13 318.84 203.13 332.00 C 200.66 332.00 198.20 332.00 195.75 332.00 C 194.29 326.14 192.97 320.24 191.39 314.41 C 191.35 320.27 191.39 326.13 191.38 332.00 C 189.00 332.00 186.62 332.00 184.25 331.99 C 184.28 318.82 184.19 305.64 184.29 292.47 C 186.61 292.49 188.93 292.50 191.25 292.51 C 192.74 298.38 194.62 304.17 195.62 310.17 C 196.28 304.29 195.88 298.36 196.04 292.46 Z" />
<path fill="#ffff00" opacity="1.00" d=" M 206.75 292.51 C 209.58 292.49 212.42 292.49 215.25 292.50 C 215.25 305.67 215.25 318.83 215.25 332.00 C 212.42 332.00 209.58 332.00 206.75 332.00 C 206.75 318.83 206.75 305.67 206.75 292.51 Z" />
<path fill="#ffffff" opacity="1.00" d=" M 18.75 292.50 C 23.42 292.70 28.24 291.93 32.80 293.21 C 35.64 294.09 36.86 297.17 36.88 299.91 C 36.99 304.11 37.42 308.44 36.35 312.55 C 34.98 316.24 30.49 316.17 27.23 316.20 C 27.27 321.47 27.24 326.73 27.25 332.00 C 24.42 332.00 21.58 332.00 18.75 332.00 C 18.75 318.83 18.75 305.67 18.75 292.50 M 27.38 298.83 C 27.19 302.49 27.16 306.15 27.40 309.81 C 28.51 309.20 30.06 308.75 29.81 307.14 C 29.68 304.30 31.11 299.83 27.38 298.83 Z" />
<path fill="#ffffff" opacity="1.00" d=" M 61.25 332.00 C 61.27 318.83 61.22 305.66 61.27 292.49 C 66.60 293.00 72.83 291.11 77.46 294.52 C 80.78 299.22 79.30 305.61 79.23 311.01 C 78.90 315.77 73.48 316.39 69.74 316.20 C 69.76 321.46 69.74 326.73 69.75 332.00 C 66.92 332.00 64.08 332.00 61.25 332.00 M 69.81 298.93 C 69.72 302.53 69.71 306.14 69.81 309.74 C 72.31 309.48 72.53 307.01 72.41 305.02 C 72.32 302.74 73.03 299.24 69.81 298.93 Z" />
<path fill="#ffff00" opacity="1.00" d=" M 142.75 292.50 C 146.41 292.50 150.07 292.49 153.73 292.50 C 154.47 298.38 155.07 304.28 155.91 310.15 C 156.78 304.29 157.21 298.38 157.90 292.50 C 161.56 292.50 165.22 292.49 168.88 292.50 C 168.87 305.67 168.87 318.83 168.88 332.00 C 166.42 332.00 163.96 332.00 161.50 332.00 C 161.51 323.27 161.44 314.54 161.58 305.81 C 160.27 314.48 159.51 323.22 158.53 331.94 C 156.77 331.98 155.01 332.00 153.25 332.02 C 152.29 323.34 151.03 314.68 150.47 305.95 C 149.86 314.62 150.22 323.32 150.13 332.00 C 147.67 332.00 145.21 332.00 142.75 332.00 C 142.75 318.83 142.75 305.67 142.75 292.50 Z" />
<path fill="#ffff00" opacity="1.00" d=" M 172.25 331.99 C 172.27 318.82 172.21 305.65 172.28 292.48 C 175.10 292.50 177.93 292.50 180.75 292.50 C 180.75 305.67 180.75 318.83 180.75 332.00 C 177.92 332.00 175.08 332.00 172.25 331.99 Z" />
<path fill="#1f471f" opacity="0.33" d=" M 220.92 293.20 C 221.34 293.22 222.20 293.26 222.62 293.28 C 224.25 294.70 221.32 295.41 220.78 293.93 L 220.92 293.20 Z" />
</svg>
