<?xml version="1.0" encoding="UTF-8" ?>
<!DOCTYPE svg PUBLIC "-//W3C//DTD SVG 1.1//EN" "http://www.w3.org/Graphics/SVG/1.1/DTD/svg11.dtd">
<svg width="960pt" height="540pt" viewBox="0 0 960 540" version="1.1" xmlns="http://www.w3.org/2000/svg">
<path fill="#b4b4b6" opacity="1.00" d=" M 502.03 49.89 C 509.41 47.32 517.22 46.14 524.98 45.36 C 532.05 58.81 539.01 72.33 545.64 85.99 C 542.43 86.74 539.20 87.36 535.95 87.84 C 532.29 86.41 528.20 86.60 524.62 88.16 C 528.53 88.39 532.46 88.36 536.36 88.75 C 537.04 90.36 537.66 91.98 538.37 93.58 C 539.12 95.03 540.71 95.79 541.87 96.88 C 540.80 97.16 539.75 97.45 538.70 97.73 C 538.54 98.79 538.38 99.84 538.23 100.90 L 537.29 100.53 C 536.81 100.35 535.85 100.00 535.37 99.82 C 534.30 98.09 533.41 95.57 531.01 95.49 C 529.71 95.89 528.52 96.54 527.31 97.11 C 527.25 97.86 527.14 99.36 527.09 100.11 C 526.54 100.27 525.43 100.58 524.88 100.73 C 523.07 101.22 521.25 101.60 519.42 101.94 C 519.56 103.31 519.63 104.69 519.94 106.04 C 521.39 107.19 523.25 107.61 525.00 108.13 C 525.42 108.24 526.25 108.45 526.67 108.56 C 527.31 109.80 527.37 111.49 528.52 112.43 C 529.97 113.14 531.62 113.27 533.19 113.60 C 535.18 114.26 537.45 114.47 539.19 115.71 C 541.57 119.82 543.06 124.39 545.32 128.58 C 545.29 129.15 545.22 130.30 545.19 130.88 L 544.41 130.70 C 541.89 130.11 539.20 129.58 537.20 127.80 C 533.54 125.07 532.36 120.46 530.74 116.43 C 527.32 115.44 523.95 114.28 520.48 113.47 C 511.70 112.52 502.81 113.42 493.98 113.21 C 495.12 110.29 496.69 107.37 496.64 104.16 C 496.56 100.88 494.41 98.21 492.65 95.62 C 499.81 95.25 506.99 96.27 514.12 95.16 C 515.77 95.08 517.42 94.96 519.08 94.83 C 519.76 94.77 521.11 94.65 521.79 94.59 C 522.23 93.08 522.68 91.56 523.13 90.05 C 517.82 91.35 512.29 91.85 507.17 93.86 L 506.15 91.87 C 511.46 89.73 516.29 86.53 519.92 82.06 C 521.16 84.51 522.45 86.94 523.86 89.31 C 522.74 86.57 521.54 83.87 520.38 81.15 C 521.65 77.95 523.15 74.47 522.08 70.98 C 521.07 66.29 517.90 62.49 514.16 59.66 C 518.18 63.81 522.07 68.98 521.36 75.12 C 520.24 82.20 513.99 87.11 507.65 89.54 C 505.30 90.72 503.21 88.39 500.96 87.95 C 497.43 86.83 494.53 89.67 492.17 91.84 C 490.65 91.31 489.16 90.74 487.64 90.27 L 489.77 93.66 C 488.83 93.52 486.97 93.26 486.03 93.12 C 487.73 93.90 489.41 94.72 491.00 95.73 C 493.10 98.42 495.51 101.39 495.28 105.03 C 494.94 108.45 492.98 111.40 491.46 114.40 C 491.41 114.51 491.30 114.71 491.24 114.82 L 491.02 114.84 C 487.92 115.02 484.88 115.72 481.91 116.60 C 482.39 121.62 479.37 125.74 477.39 130.07 L 477.05 130.77 L 476.40 131.39 C 474.82 131.25 473.25 131.08 471.69 130.88 C 472.96 127.92 474.52 125.07 475.38 121.96 C 475.44 120.16 474.07 118.75 473.37 117.20 C 471.21 118.74 468.65 120.09 467.52 122.62 C 466.24 124.93 466.45 127.64 466.46 130.18 C 465.02 128.34 462.97 126.58 463.18 124.01 C 463.77 118.71 465.27 113.55 466.00 108.26 C 466.36 106.11 466.73 103.96 467.10 101.82 C 463.84 101.98 459.82 103.90 457.14 101.21 C 452.71 87.79 447.81 74.53 442.81 61.32 C 443.61 60.11 444.35 58.48 446.05 58.49 C 452.26 57.52 458.41 56.20 464.63 55.29 L 465.19 56.45 C 466.20 58.62 467.33 60.77 467.78 63.14 C 467.01 66.45 465.00 69.54 465.49 73.09 C 465.78 79.87 471.06 84.99 476.43 88.45 C 480.15 88.03 483.89 88.33 487.61 88.60 C 484.26 86.29 480.05 87.78 476.41 86.67 C 471.35 83.94 466.97 79.05 466.20 73.20 C 465.66 69.56 467.29 66.12 468.73 62.88 C 467.90 60.57 467.06 58.27 466.23 55.96 C 478.17 54.01 490.12 52.04 502.03 49.89 M 483.61 61.55 C 485.49 63.08 487.93 62.19 490.07 61.86 C 491.69 61.46 493.70 61.30 494.56 59.59 C 490.85 59.90 487.18 60.55 483.61 61.55 M 525.43 78.46 C 524.08 79.84 525.13 81.75 525.30 83.36 C 527.99 86.45 532.18 86.53 535.94 86.06 L 535.85 85.72 C 536.91 84.40 538.77 83.22 538.58 81.29 C 536.93 75.98 529.02 73.99 525.43 78.46 M 496.00 78.87 C 495.78 79.71 495.57 80.56 495.37 81.41 C 494.84 81.98 494.31 82.56 493.79 83.14 C 496.92 82.67 500.03 82.12 503.15 81.54 C 502.01 81.27 500.89 80.98 499.78 80.67 C 501.78 80.61 500.26 77.63 498.92 78.98 L 498.90 78.31 C 498.41 76.82 495.34 76.98 496.00 78.87 M 457.59 82.91 C 457.82 84.79 458.74 86.29 460.45 87.15 C 460.64 84.02 462.98 85.46 464.84 86.15 C 464.92 85.32 465.08 83.67 465.15 82.85 C 462.75 81.14 460.08 81.76 457.59 82.91 M 461.37 91.44 C 459.76 93.31 460.81 96.08 462.68 97.31 C 464.47 98.99 467.04 98.73 469.29 98.91 C 467.26 98.07 465.19 97.34 463.23 96.34 C 466.83 94.37 472.07 95.89 474.53 92.12 C 471.97 87.23 464.55 87.33 461.37 91.44 M 480.14 103.11 L 481.38 103.05 C 481.55 103.68 481.88 104.94 482.05 105.57 L 481.57 105.08 C 480.80 105.51 479.24 106.38 478.47 106.81 C 478.99 107.39 479.53 107.96 480.09 108.53 C 481.26 105.92 482.42 108.42 483.01 109.46 C 481.28 109.23 479.54 108.95 477.82 108.71 C 478.17 112.18 486.27 112.40 484.47 108.14 L 484.53 106.91 C 486.12 107.00 487.70 107.07 489.30 107.14 L 489.32 107.91 C 489.99 107.89 491.32 107.86 491.99 107.84 C 492.12 105.56 492.20 103.27 492.23 100.99 C 491.46 100.99 489.91 100.99 489.14 100.99 L 489.16 101.79 C 487.40 101.85 485.64 101.94 483.90 102.06 C 484.48 100.72 484.49 99.26 484.22 97.84 C 482.46 97.88 480.69 97.86 478.94 98.05 C 477.35 99.79 478.98 101.70 480.14 103.11 M 498.31 98.09 C 497.18 99.62 499.93 100.93 500.90 99.64 C 502.03 98.10 499.27 96.78 498.31 98.09 M 501.70 98.31 L 501.41 99.12 C 503.98 100.60 507.41 99.53 510.32 99.72 C 509.06 95.96 504.50 98.97 501.70 98.31 M 511.22 98.03 C 510.72 99.66 511.29 100.21 512.92 99.68 C 513.41 98.05 512.84 97.50 511.22 98.03 M 473.68 101.97 C 473.68 103.63 473.68 105.29 473.69 106.95 C 475.06 106.99 476.43 107.03 477.81 107.08 C 478.48 106.07 480.11 105.46 479.99 104.08 C 479.35 103.33 478.69 102.60 478.01 101.91 C 476.56 101.93 475.12 101.95 473.68 101.97 M 504.89 103.23 C 503.78 104.06 502.63 104.87 501.53 105.70 C 503.92 106.88 506.60 107.13 509.21 107.48 C 506.70 111.49 513.65 111.22 514.39 108.32 C 513.68 108.19 512.28 107.94 511.58 107.82 C 511.10 106.93 510.63 106.05 510.18 105.16 C 509.30 104.89 508.42 104.64 507.55 104.41 C 509.19 102.50 505.05 100.69 504.89 103.23 M 497.95 107.77 C 498.16 108.44 498.59 109.78 498.80 110.45 C 500.34 110.42 501.89 110.39 503.44 110.35 C 503.84 106.82 500.22 107.44 497.95 107.77 Z" />
<path fill="#555555" opacity="1.00" d=" M 465.19 56.45 C 465.45 56.33 465.97 56.08 466.23 55.96 C 467.06 58.27 467.90 60.57 468.73 62.88 C 467.29 66.12 465.66 69.56 466.20 73.20 C 466.97 79.05 471.35 83.94 476.41 86.67 C 480.05 87.78 484.26 86.29 487.61 88.60 C 483.89 88.33 480.15 88.03 476.43 88.45 C 471.06 84.99 465.78 79.87 465.49 73.09 C 465.00 69.54 467.01 66.45 467.78 63.14 C 467.33 60.77 466.20 58.62 465.19 56.45 Z" />
<path fill="#959597" opacity="1.00" d=" M 483.61 61.55 C 487.18 60.55 490.85 59.90 494.56 59.59 C 493.70 61.30 491.69 61.46 490.07 61.86 C 487.93 62.19 485.49 63.08 483.61 61.55 Z" />
<path fill="#555555" opacity="1.00" d=" M 514.16 59.66 C 517.90 62.49 521.07 66.29 522.08 70.98 C 523.15 74.47 521.65 77.95 520.38 81.15 C 521.54 83.87 522.74 86.57 523.86 89.31 C 522.45 86.94 521.16 84.51 519.92 82.06 C 516.29 86.53 511.46 89.73 506.15 91.87 L 507.17 93.86 C 507.03 94.06 506.74 94.47 506.60 94.67 C 505.93 94.30 505.30 93.89 504.68 93.50 L 503.46 92.76 C 500.54 92.77 497.62 93.01 494.75 93.50 C 494.35 93.87 493.56 94.61 493.16 94.98 C 492.43 95.23 491.71 95.48 491.00 95.73 C 489.41 94.72 487.73 93.90 486.03 93.12 C 486.97 93.26 488.83 93.52 489.77 93.66 L 487.64 90.27 C 489.16 90.74 490.65 91.31 492.17 91.84 C 494.53 89.67 497.43 86.83 500.96 87.95 C 503.21 88.39 505.30 90.72 507.65 89.54 C 513.99 87.11 520.24 82.20 521.36 75.12 C 522.07 68.98 518.18 63.81 514.16 59.66 M 494.82 91.89 C 497.68 91.68 500.53 91.30 503.33 90.61 C 500.49 89.13 496.96 89.32 494.82 91.89 M 490.08 93.26 C 490.15 96.59 493.11 91.78 490.08 93.26 Z" />
<path fill="#848486" opacity="1.00" d=" M 442.73 67.51 C 441.97 65.49 442.32 63.35 442.81 61.32 C 447.81 74.53 452.71 87.79 457.14 101.21 C 457.52 103.58 457.61 105.98 457.70 108.38 C 455.06 106.46 454.67 103.13 453.70 100.25 C 450.10 89.32 446.23 78.47 442.73 67.51 Z" />
<path fill="#8f8f90" opacity="1.00" d=" M 525.43 78.46 C 529.02 73.99 536.93 75.98 538.58 81.29 C 538.77 83.22 536.91 84.40 535.85 85.72 C 535.43 84.31 535.14 82.85 534.41 81.55 C 533.05 80.51 531.31 80.17 529.75 79.56 C 529.54 79.13 529.14 78.28 528.94 77.85 C 527.38 79.44 526.10 81.28 525.30 83.36 C 525.13 81.75 524.08 79.84 525.43 78.46 Z" />
<path fill="#dc3f36" opacity="1.00" d=" M 496.00 78.87 C 495.34 76.98 498.41 76.82 498.90 78.31 L 498.92 78.98 C 498.43 79.65 497.91 80.29 497.36 80.90 C 497.02 80.39 496.34 79.38 496.00 78.87 Z" />
<path fill="#a0a0a4" opacity="1.00" d=" M 525.30 83.36 C 526.10 81.28 527.38 79.44 528.94 77.85 C 529.14 78.28 529.54 79.13 529.75 79.56 C 531.31 80.17 533.05 80.51 534.41 81.55 C 535.14 82.85 535.43 84.31 535.85 85.72 L 535.94 86.06 C 532.18 86.53 527.99 86.45 525.30 83.36 Z" />
<path fill="#9d9790" opacity="1.00" d=" M 496.00 78.87 C 496.34 79.38 497.02 80.39 497.36 80.90 C 497.91 80.29 498.43 79.65 498.92 78.98 C 499.14 79.40 499.56 80.25 499.78 80.67 C 500.89 80.98 502.01 81.27 503.15 81.54 C 500.03 82.12 496.92 82.67 493.79 83.14 C 494.31 82.56 494.84 81.98 495.37 81.41 C 495.57 80.56 495.78 79.71 496.00 78.87 Z" />
<path fill="#5a9eb2" opacity="1.00" d=" M 498.92 78.98 C 500.26 77.63 501.78 80.61 499.78 80.67 C 499.56 80.25 499.14 79.40 498.92 78.98 Z" />
<path fill="#969698" opacity="0.98" d=" M 457.59 82.91 C 460.08 81.76 462.75 81.14 465.15 82.85 C 465.08 83.67 464.92 85.32 464.84 86.15 C 462.98 85.46 460.64 84.02 460.45 87.15 C 458.74 86.29 457.82 84.79 457.59 82.91 Z" />
<path fill="#8d8e8f" opacity="1.00" d=" M 535.95 87.84 C 539.20 87.36 542.43 86.74 545.64 85.99 C 544.87 88.07 544.16 90.16 543.38 92.23 C 541.71 92.68 540.04 93.14 538.37 93.58 C 537.66 91.98 537.04 90.36 536.36 88.75 L 535.95 87.84 Z" />
<path fill="#616162" opacity="1.00" d=" M 524.62 88.16 C 528.20 86.60 532.29 86.41 535.95 87.84 L 536.36 88.75 C 532.46 88.36 528.53 88.39 524.62 88.16 Z" />
<path fill="#7d7d7e" opacity="0.98" d=" M 461.37 91.44 C 464.55 87.33 471.97 87.23 474.53 92.12 C 471.82 90.98 469.11 88.99 466.02 89.54 C 464.01 89.77 462.38 91.24 461.50 92.98 C 461.45 94.33 462.57 95.28 463.23 96.34 C 465.19 97.34 467.26 98.07 469.29 98.91 C 467.04 98.73 464.47 98.99 462.68 97.31 C 460.81 96.08 459.76 93.31 461.37 91.44 Z" />
<path fill="#c8c9ca" opacity="1.00" d=" M 494.82 91.89 C 496.96 89.32 500.49 89.13 503.33 90.61 C 500.53 91.30 497.68 91.68 494.82 91.89 Z" />
<path fill="#9b9a9d" opacity="1.00" d=" M 461.50 92.98 C 462.38 91.24 464.01 89.77 466.02 89.54 C 469.11 88.99 471.82 90.98 474.53 92.12 C 472.07 95.89 466.83 94.37 463.23 96.34 C 462.57 95.28 461.45 94.33 461.50 92.98 Z" />
<path fill="#848486" opacity="1.00" d=" M 507.17 93.86 C 512.29 91.85 517.82 91.35 523.13 90.05 C 522.68 91.56 522.23 93.08 521.79 94.59 C 521.11 94.65 519.76 94.77 519.08 94.83 C 519.42 94.32 520.11 93.29 520.46 92.77 C 517.50 93.07 514.55 93.52 511.71 94.42 C 512.31 94.60 513.51 94.98 514.12 95.16 C 506.99 96.27 499.81 95.25 492.65 95.62 C 494.41 98.21 496.56 100.88 496.64 104.16 C 496.69 107.37 495.12 110.29 493.98 113.21 C 502.81 113.42 511.70 112.52 520.48 113.47 L 521.25 114.48 C 511.34 113.99 501.38 114.14 491.46 114.40 C 492.98 111.40 494.94 108.45 495.28 105.03 C 495.51 101.39 493.10 98.42 491.00 95.73 C 491.71 95.48 492.43 95.23 493.16 94.98 C 497.06 95.16 500.99 94.85 504.68 93.50 C 505.30 93.89 505.93 94.30 506.60 94.67 C 506.74 94.47 507.03 94.06 507.17 93.86 Z" />
<path fill="#b4b4b6" opacity="1.00" d=" M 494.75 93.50 C 497.62 93.01 500.54 92.77 503.46 92.76 L 504.68 93.50 C 500.99 94.85 497.06 95.16 493.16 94.98 C 493.56 94.61 494.35 93.87 494.75 93.50 Z" />
<path fill="#c8c9ca" opacity="1.00" d=" M 490.08 93.26 C 493.11 91.78 490.15 96.59 490.08 93.26 Z" />
<path fill="#5d5d5f" opacity="0.98" d=" M 511.71 94.42 C 514.55 93.52 517.50 93.07 520.46 92.77 C 520.11 93.29 519.42 94.32 519.08 94.83 C 517.42 94.96 515.77 95.08 514.12 95.16 C 513.51 94.98 512.31 94.60 511.71 94.42 Z" />
<path fill="#555555" opacity="1.00" d=" M 527.31 97.11 C 528.52 96.54 529.71 95.89 531.01 95.49 C 533.41 95.57 534.30 98.09 535.37 99.82 C 533.94 100.53 532.57 101.38 531.02 101.77 C 529.66 101.34 528.38 100.70 527.09 100.11 C 527.14 99.36 527.25 97.86 527.31 97.11 M 529.09 99.82 C 530.53 99.96 531.98 100.01 533.44 100.00 C 532.65 98.54 531.73 97.14 530.78 95.79 C 530.27 97.09 527.22 98.27 529.09 99.82 Z" />
<path fill="#529093" opacity="1.00" d=" M 529.09 99.82 C 527.22 98.27 530.27 97.09 530.78 95.79 C 531.73 97.14 532.65 98.54 533.44 100.00 C 531.98 100.01 530.53 99.96 529.09 99.82 Z" />
<path fill="#a7a7a9" opacity="1.00" d=" M 538.70 97.73 C 539.75 97.45 540.80 97.16 541.87 96.88 C 543.26 98.68 544.69 100.57 545.06 102.89 C 544.68 106.07 543.44 109.05 542.00 111.89 C 541.84 112.24 541.52 112.94 541.37 113.29 C 542.59 118.41 546.16 123.09 545.32 128.58 C 543.06 124.39 541.57 119.82 539.19 115.71 C 537.45 114.47 535.18 114.26 533.19 113.60 C 533.82 112.34 534.46 111.09 535.13 109.85 C 533.57 107.69 531.24 106.90 528.64 107.26 C 529.79 108.56 530.98 109.85 532.19 111.12 C 530.97 110.40 529.74 109.69 528.49 109.04 C 528.03 108.92 527.12 108.68 526.67 108.56 C 526.25 108.45 525.42 108.24 525.00 108.13 C 525.69 106.85 527.29 105.75 527.05 104.15 C 526.41 102.95 525.62 101.85 524.88 100.73 C 525.43 100.58 526.54 100.27 527.09 100.11 C 528.38 100.70 529.66 101.34 531.02 101.77 C 532.57 101.38 533.94 100.53 535.37 99.82 C 535.85 100.00 536.81 100.35 537.29 100.53 C 536.31 102.17 534.01 103.66 535.01 105.82 C 536.60 108.31 541.96 108.53 542.12 104.98 C 542.74 102.52 539.86 101.83 538.23 100.90 C 538.38 99.84 538.54 98.79 538.70 97.73 Z" />
<path fill="#555555" opacity="1.00" d=" M 480.14 103.11 C 478.98 101.70 477.35 99.79 478.94 98.05 C 480.69 97.86 482.46 97.88 484.22 97.84 C 484.49 99.26 484.48 100.72 483.90 102.06 C 485.64 101.94 487.40 101.85 489.16 101.79 C 489.20 103.57 489.25 105.36 489.30 107.14 C 487.70 107.07 486.12 107.00 484.53 106.91 L 484.60 105.47 C 485.38 105.44 486.96 105.38 487.74 105.35 C 487.71 104.74 487.65 103.51 487.62 102.90 C 485.85 103.30 482.88 106.47 482.54 103.01 C 482.25 103.02 481.67 103.04 481.38 103.05 L 480.14 103.11 Z" />
<path fill="#7e8083" opacity="1.00" d=" M 498.31 98.09 C 499.27 96.78 502.03 98.10 500.90 99.64 C 499.93 100.93 497.18 99.62 498.31 98.09 Z" />
<path fill="#848588" opacity="1.00" d=" M 501.70 98.31 C 504.50 98.97 509.06 95.96 510.32 99.72 C 507.41 99.53 503.98 100.60 501.41 99.12 L 501.70 98.31 Z" />
<path fill="#78797c" opacity="1.00" d=" M 511.22 98.03 C 512.84 97.50 513.41 98.05 512.92 99.68 C 511.29 100.21 510.72 99.66 511.22 98.03 Z" />
<path fill="#949396" opacity="1.00" d=" M 457.14 101.21 C 459.82 103.90 463.84 101.98 467.10 101.82 C 466.73 103.96 466.36 106.11 466.00 108.26 C 463.30 108.92 460.54 109.59 457.74 109.30 L 457.70 108.38 C 457.61 105.98 457.52 103.58 457.14 101.21 Z" />
<path fill="#a0a0a2" opacity="0.98" d=" M 489.14 100.99 C 489.91 100.99 491.46 100.99 492.23 100.99 C 492.20 103.27 492.12 105.56 491.99 107.84 C 491.32 107.86 489.99 107.89 489.32 107.91 L 489.30 107.14 C 489.25 105.36 489.20 103.57 489.16 101.79 L 489.14 100.99 Z" />
<path fill="#5e6260" opacity="0.98" d=" M 519.42 101.94 C 521.25 101.60 523.07 101.22 524.88 100.73 C 525.62 101.85 526.41 102.95 527.05 104.15 C 527.29 105.75 525.69 106.85 525.00 108.13 C 523.25 107.61 521.39 107.19 519.94 106.04 C 519.63 104.69 519.56 103.31 519.42 101.94 M 522.04 104.23 C 522.63 107.58 524.67 102.21 522.04 104.23 Z" />
<path fill="#885a5b" opacity="1.00" d=" M 537.29 100.53 L 538.23 100.90 C 539.86 101.83 542.74 102.52 542.12 104.98 C 541.96 108.53 536.60 108.31 535.01 105.82 C 534.01 103.66 536.31 102.17 537.29 100.53 Z" />
<path fill="#565656" opacity="1.00" d=" M 473.68 101.97 C 475.12 101.95 476.56 101.93 478.01 101.91 C 478.69 102.60 479.35 103.33 479.99 104.08 C 480.11 105.46 478.48 106.07 477.81 107.08 C 476.43 107.03 475.06 106.99 473.69 106.95 C 473.68 105.29 473.68 103.63 473.68 101.97 Z" />
<path fill="#6b6e70" opacity="1.00" d=" M 504.89 103.23 C 505.05 100.69 509.19 102.50 507.55 104.41 C 506.53 104.27 505.65 103.88 504.89 103.23 Z" />
<path fill="#7f7f80" opacity="1.00" d=" M 481.38 103.05 C 481.67 103.04 482.25 103.02 482.54 103.01 C 482.88 106.47 485.85 103.30 487.62 102.90 C 487.65 103.51 487.71 104.74 487.74 105.35 C 486.96 105.38 485.38 105.44 484.60 105.47 L 484.53 106.91 L 484.47 108.14 C 483.69 107.25 482.87 106.41 482.05 105.57 C 481.88 104.94 481.55 103.68 481.38 103.05 Z" />
<path fill="#8e8e90" opacity="1.00" d=" M 501.53 105.70 C 502.63 104.87 503.78 104.06 504.89 103.23 C 505.65 103.88 506.53 104.27 507.55 104.41 C 508.42 104.64 509.30 104.89 510.18 105.16 C 510.63 106.05 511.10 106.93 511.58 107.82 C 510.99 107.73 509.80 107.56 509.21 107.48 C 506.60 107.13 503.92 106.88 501.53 105.70 Z" />
<path fill="#7d7d7e" opacity="0.98" d=" M 545.06 102.89 C 546.46 108.79 547.65 114.73 548.67 120.71 C 545.99 118.14 543.88 115.07 542.00 111.89 C 543.44 109.05 544.68 106.07 545.06 102.89 Z" />
<path fill="#a7a7a9" opacity="1.00" d=" M 522.04 104.23 C 524.67 102.21 522.63 107.58 522.04 104.23 Z" />
<path fill="#4c4c4d" opacity="1.00" d=" M 481.57 105.08 L 482.05 105.57 C 482.87 106.41 483.69 107.25 484.47 108.14 C 486.27 112.40 478.17 112.18 477.82 108.71 C 479.54 108.95 481.28 109.23 483.01 109.46 C 482.42 108.42 481.26 105.92 480.09 108.53 C 479.53 107.96 478.99 107.39 478.47 106.81 C 479.24 106.38 480.80 105.51 481.57 105.08 Z" />
<path fill="#4f4f50" opacity="1.00" d=" M 497.95 107.77 C 500.22 107.44 503.84 106.82 503.44 110.35 C 501.89 110.39 500.34 110.42 498.80 110.45 C 498.59 109.78 498.16 108.44 497.95 107.77 Z" />
<path fill="#515253" opacity="1.00" d=" M 528.64 107.26 C 531.24 106.90 533.57 107.69 535.13 109.85 C 534.46 111.09 533.82 112.34 533.19 113.60 C 531.62 113.27 529.97 113.14 528.52 112.43 C 527.37 111.49 527.31 109.80 526.67 108.56 C 527.12 108.68 528.03 108.92 528.49 109.04 C 529.74 109.69 530.97 110.40 532.19 111.12 C 530.98 109.85 529.79 108.56 528.64 107.26 Z" />
<path fill="#3e3e3e" opacity="1.00" d=" M 509.21 107.48 C 509.80 107.56 510.99 107.73 511.58 107.82 C 512.28 107.94 513.68 108.19 514.39 108.32 C 513.65 111.22 506.70 111.49 509.21 107.48 Z" />
<path fill="#8d8e90" opacity="1.00" d=" M 541.37 113.29 C 541.52 112.94 541.84 112.24 542.00 111.89 C 543.88 115.07 545.99 118.14 548.67 120.71 C 550.41 124.61 548.07 128.32 545.19 130.88 C 545.22 130.30 545.29 129.15 545.32 128.58 C 546.16 123.09 542.59 118.41 541.37 113.29 Z" />
<path fill="#a1a1a3" opacity="1.00" d=" M 520.48 113.47 C 523.95 114.28 527.32 115.44 530.74 116.43 C 532.36 120.46 533.54 125.07 537.20 127.80 C 539.20 129.58 541.89 130.11 544.41 130.70 C 540.26 132.53 534.70 132.17 531.72 128.41 C 528.04 123.92 524.64 119.20 521.25 114.48 L 520.48 113.47 Z" />
<path fill="#a7a8a9" opacity="1.00" d=" M 481.91 116.60 C 484.88 115.72 487.92 115.02 491.02 114.84 C 487.41 119.32 484.25 124.15 480.52 128.54 C 479.87 129.47 479.00 130.03 477.89 130.23 L 477.39 130.07 C 479.37 125.74 482.39 121.62 481.91 116.60 Z" />
<path fill="#c8c9ca" opacity="1.00" d=" M 467.52 122.62 C 468.65 120.09 471.21 118.74 473.37 117.20 C 474.07 118.75 475.44 120.16 475.38 121.96 C 474.52 125.07 472.96 127.92 471.69 130.88 C 473.25 131.08 474.82 131.25 476.40 131.39 C 473.02 131.97 469.56 131.71 466.46 130.18 C 466.45 127.64 466.24 124.93 467.52 122.62 Z" />
<path fill="#ffffff" opacity="1.00" d=" M 94.59 298.45 C 95.09 294.79 98.57 292.42 102.01 291.91 C 106.46 291.19 111.70 291.61 115.06 294.96 C 117.12 297.61 116.59 301.23 116.80 304.37 C 113.63 304.38 110.47 304.37 107.31 304.39 C 106.84 302.30 108.43 298.04 105.08 298.35 C 103.29 299.75 103.67 302.60 104.47 304.46 C 107.30 307.43 111.38 308.84 114.30 311.76 C 117.30 314.23 117.61 318.41 117.64 322.03 C 117.62 325.04 117.39 328.68 114.60 330.49 C 109.66 333.77 102.51 333.80 97.67 330.32 C 93.89 327.41 94.64 322.08 94.47 317.88 C 97.65 317.87 100.82 317.87 103.99 317.87 C 104.05 320.48 103.75 323.15 104.39 325.71 C 108.65 327.68 108.39 321.24 107.22 318.83 C 104.19 315.43 99.67 313.79 96.55 310.47 C 93.80 307.15 94.00 302.46 94.59 298.45 Z" />
<path fill="#ffffff" opacity="1.00" d=" M 167.75 292.50 C 175.25 292.49 182.75 292.50 190.25 292.50 C 190.25 295.12 190.25 297.75 190.25 300.38 C 188.21 300.37 186.17 300.37 184.13 300.37 C 184.12 310.92 184.13 321.46 184.13 332.00 C 180.71 332.00 177.29 332.00 173.87 332.00 C 173.87 321.46 173.88 310.91 173.87 300.37 C 171.83 300.37 169.79 300.37 167.75 300.38 C 167.75 297.75 167.75 295.12 167.75 292.50 Z" />
<path fill="#ffffff" opacity="1.00" d=" M 213.37 292.49 C 218.36 290.82 224.89 291.27 228.40 295.65 C 231.01 298.83 230.46 303.20 230.63 307.03 C 230.47 313.06 231.02 319.14 230.15 325.13 C 227.80 335.60 209.63 335.59 207.22 325.16 C 206.37 317.50 206.77 309.74 206.90 302.04 C 206.76 297.89 209.39 293.82 213.37 292.49 M 218.36 298.39 C 216.73 298.72 217.20 300.77 217.01 301.97 C 217.11 309.64 216.74 317.33 217.21 324.98 C 217.04 326.49 220.39 326.66 220.11 324.88 C 220.72 317.29 220.22 309.63 220.37 302.01 C 220.33 300.61 220.51 297.93 218.36 298.39 Z" />
<path fill="#ffffff" opacity="1.00" d=" M 261.17 298.06 C 261.87 294.40 265.54 292.23 269.01 291.83 C 273.21 291.26 278.03 291.69 281.28 294.69 C 283.71 297.25 283.05 301.14 283.31 304.37 C 280.14 304.38 276.97 304.37 273.80 304.38 C 273.35 302.46 274.81 298.46 271.89 298.26 C 269.66 299.50 270.07 302.82 271.16 304.72 C 274.80 308.15 280.15 309.76 282.79 314.25 C 284.43 317.94 284.35 322.19 283.79 326.12 C 283.22 330.26 278.81 332.32 275.07 332.73 C 270.61 333.29 265.27 332.41 262.49 328.51 C 260.68 325.29 261.09 321.42 260.97 317.87 C 264.14 317.87 267.31 317.87 270.48 317.87 C 270.47 320.64 270.46 323.43 270.86 326.19 C 275.16 326.93 274.76 321.82 273.87 319.07 C 270.73 315.14 265.32 313.67 262.35 309.53 C 260.30 306.11 260.52 301.84 261.17 298.06 Z" />
<path fill="#ffffff" opacity="1.00" d=" M 21.00 292.50 C 26.62 292.70 32.33 291.96 37.87 293.14 C 41.04 293.77 43.18 296.82 43.12 299.98 C 43.22 304.17 43.77 308.56 42.44 312.61 C 40.28 316.56 35.09 316.07 31.24 316.17 C 31.27 321.44 31.25 326.72 31.25 332.00 C 27.83 332.00 24.42 332.00 21.00 332.00 C 21.00 318.83 21.00 305.67 21.00 292.50 M 31.36 298.93 C 31.20 302.53 31.18 306.13 31.37 309.73 C 32.71 309.23 34.74 308.98 34.55 307.08 C 34.60 304.07 35.78 299.09 31.36 298.93 Z" />
<path fill="#ffffff" opacity="1.00" d=" M 49.04 292.50 C 53.93 292.50 58.82 292.49 63.71 292.50 C 65.71 305.67 67.70 318.83 69.68 332.00 C 66.21 332.00 62.73 332.01 59.26 331.97 C 59.08 329.60 58.90 327.24 58.71 324.87 C 57.76 324.87 55.86 324.88 54.91 324.88 C 54.67 327.23 54.72 329.64 54.19 331.96 C 50.71 332.08 47.23 331.97 43.75 332.00 C 45.52 318.83 47.26 305.66 49.04 292.50 M 56.61 301.57 C 56.16 307.02 55.33 312.43 54.82 317.88 C 56.02 317.87 57.22 317.87 58.42 317.87 C 57.73 312.44 57.51 306.96 56.61 301.57 Z" />
<path fill="#ffffff" opacity="1.00" d=" M 69.12 292.50 C 72.28 292.50 75.44 292.49 78.60 292.50 C 79.51 297.67 80.35 302.85 81.11 308.04 C 81.89 302.83 82.88 297.66 83.90 292.50 C 87.06 292.49 90.21 292.50 93.37 292.50 C 90.99 300.69 88.42 308.83 86.12 317.05 C 85.55 322.00 86.02 327.02 85.88 332.00 C 82.71 332.00 79.54 332.00 76.37 331.99 C 76.24 327.04 76.67 322.06 76.17 317.13 C 73.91 308.90 71.45 300.71 69.12 292.50 Z" />
<path fill="#ffffff" opacity="1.00" d=" M 119.25 300.38 C 119.25 297.74 119.25 295.11 119.29 292.47 C 126.77 292.52 134.25 292.50 141.74 292.49 C 141.75 295.12 141.75 297.75 141.75 300.38 C 139.71 300.37 137.66 300.37 135.62 300.38 C 135.63 310.91 135.61 321.45 135.63 331.99 C 132.21 332.00 128.79 332.01 125.36 331.98 C 125.39 321.45 125.37 310.91 125.37 300.38 C 123.33 300.37 121.29 300.37 119.25 300.38 Z" />
<path fill="#ffffff" opacity="1.00" d=" M 147.04 292.50 C 151.93 292.50 156.82 292.49 161.71 292.50 C 163.71 305.67 165.70 318.83 167.68 332.00 C 164.21 332.00 160.74 332.01 157.27 331.98 C 157.08 329.61 156.90 327.24 156.71 324.87 C 155.76 324.87 153.86 324.88 152.92 324.88 C 152.72 327.25 152.53 329.63 152.33 332.01 C 148.80 331.99 145.28 332.00 141.75 332.00 C 143.52 318.83 145.26 305.66 147.04 292.50 M 154.63 301.78 C 154.10 307.15 153.34 312.50 152.82 317.88 C 154.02 317.87 155.22 317.87 156.42 317.87 C 155.73 312.51 155.54 307.10 154.63 301.78 Z" />
<path fill="#ffffff" opacity="1.00" d=" M 192.48 331.97 C 192.53 318.81 192.48 305.66 192.50 292.50 C 195.91 292.50 199.31 292.51 202.72 292.48 C 202.79 305.65 202.72 318.82 202.75 331.99 C 199.33 332.00 195.90 332.01 192.48 331.97 Z" />
<path fill="#ffffff" opacity="1.00" d=" M 234.47 331.96 C 234.54 318.81 234.48 305.65 234.50 292.50 C 237.37 292.50 240.24 292.50 243.11 292.50 C 245.01 298.40 247.02 304.27 248.74 310.23 C 248.99 304.32 248.83 298.41 248.88 292.50 C 251.75 292.50 254.62 292.50 257.50 292.50 C 257.52 305.65 257.47 318.81 257.53 331.97 C 254.49 332.02 251.46 332.02 248.43 331.93 C 246.72 326.15 245.13 320.34 243.20 314.63 C 243.02 320.42 243.17 326.21 243.13 332.00 C 240.24 332.01 237.35 332.00 234.47 331.96 Z" />
</svg>
