<?xml version="1.0" encoding="UTF-8" ?>
<!DOCTYPE svg PUBLIC "-//W3C//DTD SVG 1.1//EN" "http://www.w3.org/Graphics/SVG/1.1/DTD/svg11.dtd">
<svg width="400pt" height="100pt" viewBox="0 0 400 100" version="1.1" xmlns="http://www.w3.org/2000/svg">
<path fill="#731922" opacity="0.55" d=" M 361.89 15.43 C 363.20 11.09 366.07 6.74 370.89 5.97 C 377.41 5.24 382.61 12.06 382.00 18.18 C 381.32 21.42 379.80 24.75 376.81 26.46 C 377.31 25.21 377.84 23.98 378.39 22.75 C 378.45 22.65 378.57 22.45 378.63 22.35 L 378.80 22.04 C 380.77 19.47 381.11 15.84 379.20 13.16 L 378.58 12.03 C 377.99 10.93 377.30 9.83 376.16 9.25 L 375.56 8.88 C 374.13 8.32 372.65 7.92 371.16 7.62 C 367.24 8.44 364.69 11.68 363.49 15.33 C 363.43 15.58 363.31 16.07 363.26 16.32 L 361.89 15.43 Z" />
<path fill="#36b442" opacity="0.79" d=" M 363.49 15.33 C 364.69 11.68 367.24 8.44 371.16 7.62 C 372.04 11.12 366.32 10.56 367.31 13.72 C 366.02 14.23 364.75 14.77 363.49 15.33 Z" />
<path fill="#32d640" opacity="0.94" d=" M 373.18 8.86 C 373.78 8.87 374.96 8.88 375.56 8.88 L 376.16 9.25 C 376.06 9.68 375.88 10.53 375.78 10.96 C 374.57 10.63 373.70 9.93 373.18 8.86 Z" />
<path fill="#38e246" opacity="0.95" d=" M 377.00 11.43 C 377.39 11.58 378.18 11.88 378.58 12.03 L 379.20 13.16 C 379.18 13.68 379.14 14.73 379.12 15.26 C 378.09 14.22 377.39 12.82 377.00 11.43 Z" />
<path fill="#52c35a" opacity="0.78" d=" M 367.31 13.72 L 368.84 13.40 C 368.66 14.75 368.49 16.10 368.32 17.46 C 369.17 17.50 370.86 17.57 371.70 17.61 C 371.43 20.54 368.58 20.31 366.41 20.70 C 367.84 22.10 369.55 23.13 371.40 23.90 C 371.28 24.52 371.18 25.14 371.07 25.76 C 370.17 25.52 369.27 25.26 368.38 24.99 C 367.91 24.59 366.95 23.80 366.48 23.40 C 366.36 23.29 366.12 23.07 366.01 22.96 C 365.87 22.78 365.61 22.42 365.47 22.24 L 364.92 21.24 C 364.85 21.08 364.70 20.75 364.63 20.59 L 364.15 19.08 L 363.76 17.67 C 364.39 17.68 365.63 17.71 366.26 17.72 C 366.24 17.27 366.20 16.36 366.18 15.91 C 365.50 15.76 364.16 15.47 363.49 15.33 C 364.75 14.77 366.02 14.23 367.31 13.72 Z" />
<path fill="#51f15a" opacity="0.95" d=" M 371.49 15.49 C 371.07 11.85 377.11 12.49 377.25 15.52 C 376.58 16.15 375.92 16.77 375.26 17.39 C 375.85 17.48 377.04 17.65 377.64 17.73 C 378.04 21.64 373.78 20.11 371.39 20.36 C 371.50 18.52 372.80 17.16 373.80 15.74 C 373.23 15.68 372.07 15.55 371.49 15.49 Z" />
<path fill="#7d353d" opacity="0.55" d=" M 361.89 15.43 L 363.26 16.32 C 363.55 17.24 363.84 18.16 364.15 19.08 L 364.63 20.59 C 364.70 20.75 364.85 21.08 364.92 21.24 L 365.47 22.24 C 365.61 22.42 365.87 22.78 366.01 22.96 C 366.12 23.07 366.36 23.29 366.48 23.40 C 366.95 23.80 367.91 24.59 368.38 24.99 C 367.99 25.37 367.21 26.12 366.81 26.49 C 363.57 23.81 361.70 19.65 361.89 15.43 Z" />
<path fill="#ffffff" opacity="1.00" d=" M 1.91 24.83 C 5.14 15.52 19.98 15.45 24.06 24.11 C 25.79 28.85 25.45 34.03 25.50 39.00 C 21.92 39.00 18.33 39.00 14.74 39.00 C 14.52 35.69 15.42 32.13 13.93 29.03 C 11.51 28.41 11.41 31.30 11.25 32.95 C 11.20 35.67 11.08 38.82 13.12 40.92 C 17.62 45.93 23.80 50.16 25.48 57.06 C 26.80 63.65 26.91 70.53 25.79 77.15 C 24.86 82.62 19.47 86.61 14.03 86.53 C 8.50 86.76 3.07 82.85 1.78 77.43 C 0.58 72.21 0.73 66.82 0.75 61.50 C 4.34 61.50 7.92 61.50 11.50 61.50 C 12.09 66.19 10.08 71.64 13.02 75.76 C 17.13 73.07 15.34 67.11 14.83 63.03 C 11.24 56.45 3.08 52.81 1.43 45.03 C 0.04 38.42 0.00 31.34 1.91 24.83 Z" />
<path fill="#ffffff" opacity="1.00" d=" M 56.45 22.37 C 60.40 16.42 69.90 16.26 74.56 21.43 C 80.09 27.31 79.04 36.07 79.25 43.50 C 75.42 43.50 71.58 43.50 67.75 43.50 C 67.44 38.78 68.49 33.83 66.97 29.27 C 66.46 29.19 65.42 29.03 64.91 28.95 C 64.58 30.61 64.23 32.27 64.25 33.97 C 64.25 45.96 64.26 57.96 64.24 69.95 C 64.29 71.66 64.29 73.44 65.08 75.01 C 66.39 76.05 67.69 74.39 67.68 73.18 C 68.32 68.73 67.87 64.22 68.00 59.75 C 67.50 59.75 66.51 59.76 66.01 59.76 C 66.00 56.43 66.00 53.09 66.00 49.75 C 70.42 49.75 74.83 49.75 79.25 49.75 C 79.25 61.50 79.25 73.25 79.25 85.00 C 76.82 85.00 74.39 85.00 71.96 85.00 C 71.58 83.41 71.18 81.83 70.80 80.25 C 69.85 83.02 68.01 85.93 64.88 86.45 C 61.01 87.09 57.75 84.25 55.73 81.27 C 53.07 77.03 52.92 71.87 52.76 67.02 C 52.75 57.35 52.73 47.68 52.76 38.02 C 53.07 32.68 52.76 26.70 56.45 22.37 Z" />
<path fill="#ffff26" opacity="1.00" d=" M 127.38 20.27 C 130.67 17.41 135.60 17.09 139.55 18.64 C 143.81 20.42 146.63 24.71 147.45 29.15 C 148.28 33.88 148.30 38.70 148.25 43.50 C 144.42 43.51 140.58 43.50 136.75 43.50 C 136.44 38.79 137.51 33.82 135.96 29.28 C 135.44 29.19 134.41 29.02 133.90 28.94 C 133.38 31.26 133.15 33.63 133.23 36.00 C 133.34 48.03 133.11 60.07 133.34 72.09 C 133.10 73.83 134.67 76.75 136.33 74.43 C 137.60 69.66 136.77 64.63 137.00 59.75 C 136.50 59.76 135.51 59.76 135.01 59.77 C 134.99 56.43 135.00 53.09 135.00 49.75 C 139.42 49.75 143.83 49.75 148.25 49.75 C 148.25 61.50 148.25 73.25 148.25 85.00 C 145.82 85.00 143.40 85.00 140.97 84.99 C 140.38 83.62 140.61 81.22 139.44 80.37 C 138.83 83.52 136.40 86.49 132.98 86.54 C 127.60 86.41 123.88 81.26 122.72 76.43 C 121.25 69.71 121.89 62.78 121.75 55.95 C 121.90 47.23 121.32 38.47 122.35 29.79 C 122.73 26.12 124.67 22.73 127.38 20.27 Z" />
<path fill="#ffff26" opacity="1.00" d=" M 257.41 22.09 C 261.65 16.13 271.48 16.41 275.86 22.05 C 280.77 28.01 279.86 36.34 279.93 43.55 C 276.12 43.48 272.31 43.50 268.50 43.50 C 268.38 38.67 268.92 33.77 267.86 29.00 C 264.75 28.33 265.08 32.01 264.99 34.00 C 265.07 46.70 264.86 59.42 265.10 72.12 C 264.90 73.52 266.01 76.49 267.84 74.87 C 269.51 70.10 268.58 64.86 268.63 59.91 C 268.16 59.82 267.22 59.64 266.75 59.55 C 266.75 56.28 266.75 53.02 266.75 49.75 C 271.17 49.75 275.58 49.75 280.00 49.75 C 280.00 61.50 280.00 73.25 280.00 85.00 C 277.61 85.00 275.21 85.07 272.83 84.96 C 272.19 83.46 271.98 81.83 271.64 80.26 C 270.44 83.46 267.95 86.97 264.05 86.51 C 257.67 85.67 254.31 78.80 253.86 72.98 C 253.09 62.02 253.69 51.01 253.49 40.04 C 253.78 33.96 253.14 27.02 257.41 22.09 Z" />
<path fill="#44c24e" opacity="0.78" d=" M 376.46 21.61 C 377.65 19.93 377.96 17.48 380.21 16.77 C 379.86 18.08 379.15 20.72 378.80 22.04 L 378.63 22.35 C 378.57 22.45 378.45 22.65 378.39 22.75 C 376.75 24.14 374.91 25.27 372.92 26.08 C 372.28 23.53 375.06 23.02 376.46 21.61 Z" />
<path fill="#ffffff" opacity="1.00" d=" M 30.25 19.25 C 36.67 19.25 43.09 19.23 49.51 19.26 C 49.49 23.67 49.51 28.09 49.49 32.50 C 46.91 32.50 44.32 32.49 41.74 32.54 C 41.77 36.69 41.75 40.85 41.75 45.00 C 44.17 45.00 46.58 45.00 49.00 45.00 C 48.99 49.18 49.06 53.37 48.93 57.55 C 46.54 57.50 44.15 57.50 41.75 57.50 C 41.77 62.26 41.70 67.01 41.80 71.77 C 44.62 71.74 47.43 71.75 50.25 71.75 C 50.25 76.17 50.25 80.58 50.25 85.00 C 43.57 84.99 36.90 85.03 30.22 84.97 C 30.28 63.06 30.23 41.16 30.25 19.25 Z" />
<path fill="#ffffff" opacity="1.00" d=" M 87.10 19.21 C 92.62 19.28 98.14 19.26 103.67 19.22 C 105.97 41.14 108.00 63.08 110.28 85.00 C 106.35 84.99 102.42 85.05 98.49 84.93 C 98.38 81.02 98.11 77.11 97.92 73.21 C 96.54 73.23 95.17 73.26 93.79 73.28 C 93.66 77.19 93.39 81.09 93.20 85.00 C 89.20 85.00 85.21 85.00 81.22 85.00 C 83.26 63.08 85.01 41.13 87.10 19.21 M 93.96 61.50 C 94.86 61.50 96.66 61.49 97.56 61.49 C 96.88 52.28 96.89 42.99 95.45 33.86 C 95.58 43.09 94.02 52.26 93.96 61.50 Z" />
<path fill="#ffff26" opacity="1.00" d=" M 156.10 19.21 C 161.62 19.28 167.15 19.25 172.67 19.23 C 174.96 41.14 177.01 63.08 179.28 85.00 C 175.35 84.99 171.42 85.05 167.49 84.92 C 167.38 81.01 167.12 77.10 166.91 73.19 C 165.53 73.23 164.16 73.26 162.79 73.30 C 162.66 77.20 162.39 81.10 162.20 85.00 C 158.21 85.00 154.22 85.00 150.23 85.00 C 152.25 63.08 154.02 41.13 156.10 19.21 M 164.39 33.85 C 164.65 43.08 162.99 52.26 162.95 61.49 C 163.85 61.49 165.65 61.49 166.55 61.49 C 165.85 52.28 165.97 42.97 164.39 33.85 Z" />
<path fill="#ffff26" opacity="1.00" d=" M 180.68 19.37 C 185.68 19.11 190.68 19.32 195.67 19.23 C 196.72 29.52 197.73 39.82 198.52 50.13 C 199.57 39.84 200.35 29.53 201.32 19.23 C 206.28 19.26 211.24 19.26 216.21 19.23 C 216.31 41.15 216.22 63.08 216.25 85.00 C 212.91 85.00 209.58 85.00 206.25 85.00 C 206.50 70.32 205.72 55.58 206.67 40.93 C 206.27 42.55 205.84 44.18 205.69 45.85 C 204.53 58.90 203.47 71.97 202.19 85.01 C 199.80 85.00 197.41 85.00 195.02 85.00 C 193.79 72.61 192.60 60.22 191.45 47.83 C 191.28 45.81 190.87 43.83 190.41 41.86 C 191.17 56.22 190.55 70.62 190.75 85.00 C 187.41 85.00 184.08 85.00 180.75 85.00 C 180.71 63.12 180.83 41.25 180.68 19.37 Z" />
<path fill="#ffff26" opacity="1.00" d=" M 220.80 19.23 C 227.19 19.27 233.59 19.25 239.98 19.23 C 240.01 23.66 240.00 28.08 240.00 32.50 C 237.42 32.50 234.84 32.50 232.26 32.49 C 232.24 36.65 232.27 40.81 232.23 44.96 C 234.67 44.98 237.12 45.00 239.57 45.11 C 239.45 49.24 239.51 53.38 239.50 57.51 C 237.11 57.51 234.72 57.50 232.33 57.45 C 232.18 62.22 232.27 66.99 232.26 71.75 C 235.10 71.73 237.94 71.73 240.78 71.82 C 240.73 76.21 240.75 80.60 240.77 84.98 C 234.09 85.02 227.42 84.99 220.75 85.00 C 220.78 63.07 220.69 41.15 220.80 19.23 Z" />
<path fill="#ffff26" opacity="1.00" d=" M 284.76 19.24 C 291.16 19.24 297.57 19.27 303.97 19.22 C 304.02 23.65 303.99 28.07 304.00 32.50 C 301.42 32.50 298.84 32.50 296.26 32.49 C 296.24 36.65 296.26 40.81 296.23 44.97 C 298.67 44.99 301.11 45.00 303.55 45.07 C 303.47 49.22 303.51 53.36 303.50 57.51 C 301.12 57.51 298.75 57.50 296.38 57.43 C 296.13 62.20 296.29 66.98 296.25 71.75 C 299.08 71.75 301.91 71.75 304.74 71.75 C 304.77 75.82 304.87 79.91 304.39 83.96 C 305.40 80.06 305.51 76.01 305.90 72.02 C 307.45 54.43 308.97 36.84 310.55 19.25 C 316.10 19.25 321.65 19.23 327.20 19.26 C 329.44 41.17 331.52 63.09 333.78 85.00 C 329.87 85.00 325.96 85.00 322.05 85.00 C 321.85 81.09 321.59 77.18 321.46 73.26 C 320.07 73.25 318.68 73.25 317.30 73.24 C 317.15 77.15 316.88 81.06 316.73 84.97 C 306.07 85.03 295.41 84.98 284.75 85.00 C 284.76 63.08 284.73 41.16 284.76 19.24 M 319.54 33.90 C 318.50 43.06 317.77 52.27 317.45 61.49 C 318.36 61.49 320.16 61.50 321.06 61.50 C 320.62 52.30 319.83 43.11 319.54 33.90 Z" />
<path fill="#ffff26" opacity="1.00" d=" M 335.56 19.21 C 341.73 19.46 348.01 18.71 354.08 20.08 C 358.06 21.07 359.81 25.45 360.43 29.11 C 361.20 34.74 361.43 40.59 360.17 46.17 C 359.66 48.66 357.47 50.11 355.10 50.54 C 358.86 52.06 360.95 55.98 360.91 59.93 C 361.13 68.28 360.93 76.64 361.00 85.00 C 357.40 85.00 353.80 85.02 350.21 84.95 C 350.16 75.98 350.49 66.98 350.05 58.02 C 350.28 56.15 348.51 55.47 347.17 54.80 C 346.78 64.86 347.10 74.93 347.00 85.00 C 343.16 85.00 339.33 85.00 335.50 85.00 C 335.54 63.07 335.42 41.14 335.56 19.21 M 347.01 30.33 C 347.01 35.32 346.96 40.31 347.03 45.29 C 348.07 44.71 350.09 44.61 349.98 42.96 C 350.47 39.09 350.43 35.12 349.74 31.27 C 349.06 31.04 347.69 30.57 347.01 30.33 Z" />
<path fill="#235c2c" opacity="0.41" d=" M 364.63 20.59 C 364.70 20.75 364.85 21.08 364.92 21.24 C 364.85 21.08 364.70 20.75 364.63 20.59 Z" />
<path fill="#29512c" opacity="0.40" d=" M 365.47 22.24 C 365.61 22.42 365.87 22.78 366.01 22.96 C 365.87 22.78 365.61 22.42 365.47 22.24 Z" />
<path fill="#1e5b24" opacity="0.44" d=" M 378.39 22.75 C 378.45 22.65 378.57 22.45 378.63 22.35 C 378.57 22.45 378.45 22.65 378.39 22.75 Z" />
<path fill="#356c3b" opacity="0.49" d=" M 366.01 22.96 C 366.12 23.07 366.36 23.29 366.48 23.40 C 366.36 23.29 366.12 23.07 366.01 22.96 Z" />
<path fill="#55312d" opacity="0.42" d=" M 372.92 26.08 C 374.91 25.27 376.75 24.14 378.39 22.75 C 377.84 23.98 377.31 25.21 376.81 26.46 L 376.60 26.96 C 375.48 27.21 374.38 28.15 373.20 27.67 C 372.40 26.71 370.86 26.42 370.04 27.52 L 369.52 27.98 C 368.62 27.48 367.71 26.98 366.81 26.49 C 367.21 26.12 367.99 25.37 368.38 24.99 C 369.27 25.26 370.17 25.52 371.07 25.76 C 371.54 25.84 372.46 26.00 372.92 26.08 Z" />
<path fill="#be515a" opacity="0.76" d=" M 370.04 27.52 C 370.86 26.42 372.40 26.71 373.20 27.67 C 372.41 27.63 370.83 27.56 370.04 27.52 Z" />
</svg>
