<?xml version="1.0" encoding="UTF-8" ?>
<!DOCTYPE svg PUBLIC "-//W3C//DTD SVG 1.1//EN" "http://www.w3.org/Graphics/SVG/1.1/DTD/svg11.dtd">
<svg width="1280pt" height="720pt" viewBox="0 0 1280 720" version="1.1" xmlns="http://www.w3.org/2000/svg">
<path fill="#100e0e" opacity="1.00" d=" M 647.63 70.10 C 647.06 72.36 646.34 74.58 645.50 76.76 C 645.13 76.62 644.39 76.35 644.02 76.22 C 644.87 73.99 646.22 72.00 647.63 70.10 Z" />
<path fill="#100e0e" opacity="1.00" d=" M 655.08 70.76 C 657.18 73.39 659.03 76.28 660.04 79.51 C 659.13 79.03 658.21 78.54 657.31 78.06 C 656.40 75.68 655.60 73.25 655.08 70.76 Z" />
<path fill="#3e3f40" opacity="1.00" d=" M 649.11 78.72 C 649.40 76.19 650.45 73.84 651.54 71.57 C 652.03 73.32 652.58 75.08 652.92 76.87 C 653.25 78.74 653.55 80.61 653.85 82.48 C 653.48 82.54 652.74 82.66 652.37 82.72 C 651.87 83.57 651.37 84.41 650.88 85.26 C 650.21 84.10 649.55 82.94 648.94 81.75 C 648.98 80.99 649.07 79.48 649.11 78.72 Z" />
<path fill="#b9b9ba" opacity="1.00" d=" M 643.55 76.24 L 644.02 76.22 C 644.39 76.35 645.13 76.62 645.50 76.76 C 645.32 77.07 644.96 77.70 644.78 78.01 C 641.91 83.39 640.38 89.34 638.45 95.08 C 636.00 97.18 633.17 99.32 632.75 102.79 C 632.29 101.27 631.84 99.75 631.48 98.20 C 635.40 91.32 640.65 85.02 643.21 77.45 C 643.30 77.15 643.46 76.54 643.55 76.24 Z" />
<path fill="#2b2c2a" opacity="1.00" d=" M 652.92 76.87 C 654.12 80.04 655.15 83.28 656.55 86.37 C 655.69 86.76 654.84 87.13 653.98 87.49 L 653.24 87.63 C 652.30 87.45 651.36 87.27 650.43 87.07 C 649.92 86.77 648.91 86.17 648.40 85.87 C 648.59 84.50 648.77 83.13 648.94 81.75 C 649.55 82.94 650.21 84.10 650.88 85.26 C 651.37 84.41 651.87 83.57 652.37 82.72 C 652.74 82.66 653.48 82.54 653.85 82.48 C 653.55 80.61 653.25 78.74 652.92 76.87 Z" />
<path fill="#100e0e" opacity="1.00" d=" M 632.56 94.39 C 636.19 88.80 639.34 82.89 643.21 77.45 C 640.65 85.02 635.40 91.32 631.48 98.20 C 630.56 103.38 630.98 108.67 631.05 113.90 C 634.72 111.18 635.17 106.25 638.51 103.28 C 638.68 101.06 638.83 98.83 638.99 96.61 C 638.14 97.44 637.30 98.26 636.46 99.08 C 633.57 100.70 632.82 103.95 632.17 106.93 C 632.36 105.55 632.53 104.16 632.75 102.79 C 633.17 99.32 636.00 97.18 638.45 95.08 C 640.38 89.34 641.91 83.39 644.78 78.01 C 643.70 85.53 638.99 92.47 640.60 100.31 C 641.96 99.27 642.19 97.58 642.59 96.06 C 643.86 89.97 646.81 84.44 649.11 78.72 C 649.07 79.48 648.98 80.99 648.94 81.75 C 648.77 83.13 648.59 84.50 648.40 85.87 C 648.91 86.17 649.92 86.77 650.43 87.07 C 649.17 87.20 647.93 87.35 646.69 87.52 C 646.37 88.61 646.08 89.70 645.80 90.79 C 644.30 95.13 644.31 99.77 644.66 104.29 C 644.98 109.09 645.11 113.90 644.61 118.69 L 644.08 118.81 C 644.23 114.64 644.32 110.46 644.15 106.29 C 640.59 108.77 637.90 112.19 634.80 115.17 C 634.98 117.08 635.18 118.98 635.38 120.88 C 636.59 120.58 637.81 120.28 639.05 120.02 C 639.72 120.09 641.06 120.23 641.73 120.30 C 641.72 120.82 641.70 121.86 641.69 122.39 C 639.45 122.78 637.21 123.18 634.99 123.60 C 635.23 127.00 635.37 130.40 635.43 133.80 C 636.92 133.83 638.41 133.85 639.91 133.87 C 640.70 134.34 641.49 134.83 642.27 135.33 C 639.76 135.57 637.24 135.76 634.73 135.94 C 634.44 140.33 635.10 144.69 636.44 148.86 C 636.75 148.73 637.37 148.47 637.68 148.33 C 638.28 149.86 638.94 151.35 639.61 152.86 C 638.82 154.70 638.02 156.54 637.23 158.39 C 637.09 157.60 636.83 156.01 636.69 155.22 C 636.39 155.18 635.78 155.10 635.48 155.06 C 635.16 154.47 634.53 153.28 634.21 152.69 C 632.99 144.74 633.80 136.70 633.93 128.71 L 633.34 128.95 L 632.23 129.41 C 626.96 131.20 621.71 133.06 616.68 135.45 L 616.32 135.62 C 616.31 135.91 616.30 136.49 616.29 136.79 C 615.34 135.40 614.35 134.04 613.44 132.64 C 613.22 130.18 614.63 128.05 615.76 126.00 C 616.23 128.24 616.48 130.52 616.69 132.79 C 617.46 132.58 618.23 132.36 619.00 132.12 C 623.29 130.28 628.66 129.48 631.57 125.51 C 633.58 122.45 633.15 118.62 633.08 115.15 C 633.66 114.10 634.26 113.05 634.86 112.01 C 633.05 113.33 631.34 114.76 629.59 116.15 C 629.66 110.76 629.84 105.36 630.13 99.98 C 630.03 97.82 631.55 96.15 632.56 94.39 M 635.98 110.08 C 634.62 110.81 634.58 111.48 635.87 112.11 C 637.20 111.38 637.24 110.70 635.98 110.08 Z" />
<path fill="#bebdbd" opacity="1.00" d=" M 657.31 78.06 C 658.21 78.54 659.13 79.03 660.04 79.51 L 660.17 79.58 C 660.28 79.88 660.49 80.46 660.60 80.76 C 662.98 87.30 667.60 92.69 670.58 98.93 C 670.21 99.98 669.83 101.03 669.45 102.08 C 668.16 99.27 665.92 97.13 663.52 95.26 C 662.03 90.41 660.75 85.46 658.57 80.85 C 658.15 79.91 657.73 78.99 657.31 78.06 Z" />
<path fill="#1a1919" opacity="1.00" d=" M 660.60 80.76 C 663.51 83.21 664.81 86.93 666.88 90.04 C 668.58 93.23 671.05 96.08 672.15 99.55 C 672.48 104.89 672.16 110.27 672.48 115.62 C 671.89 115.64 670.70 115.68 670.11 115.71 C 672.90 117.90 675.98 119.72 678.60 122.13 C 677.96 122.01 676.69 121.77 676.05 121.66 C 676.28 122.25 676.75 123.42 676.98 124.01 C 674.67 123.32 672.35 122.64 670.04 121.99 C 670.60 123.12 671.16 124.26 671.77 125.37 C 670.72 124.97 669.67 124.60 668.62 124.22 C 668.36 125.48 668.10 126.73 667.85 127.99 C 667.46 126.79 667.07 125.60 666.70 124.40 L 666.49 123.74 L 666.11 123.67 C 662.85 123.02 659.53 122.56 656.22 122.89 C 656.44 121.93 656.68 120.96 656.92 120.00 C 655.58 120.72 654.25 121.47 652.91 122.17 C 653.85 116.47 653.51 110.69 653.65 104.94 C 653.67 102.18 653.92 99.37 653.24 96.67 L 652.69 96.22 C 653.15 96.23 654.06 96.23 654.52 96.23 C 655.34 98.24 656.06 100.29 656.79 102.33 C 657.02 100.51 657.26 98.70 657.53 96.88 C 657.79 100.00 658.11 103.15 657.61 106.26 C 656.33 110.20 656.78 114.36 656.80 118.42 C 659.84 119.59 663.00 120.47 666.23 120.99 C 666.64 118.51 666.83 115.75 668.93 114.04 C 669.14 113.86 669.57 113.51 669.78 113.33 L 670.95 113.06 C 670.91 108.35 671.33 103.60 670.58 98.93 C 667.60 92.69 662.98 87.30 660.60 80.76 Z" />
<path fill="#0b0a0a" opacity="1.00" d=" M 658.57 80.85 C 660.75 85.46 662.03 90.41 663.52 95.26 C 665.92 97.13 668.16 99.27 669.45 102.08 C 669.56 103.54 670.37 105.16 669.68 106.58 C 667.95 105.31 668.49 102.45 667.30 100.77 C 665.96 99.27 664.41 97.99 662.94 96.63 C 663.08 98.92 663.23 101.21 663.39 103.49 C 664.35 104.41 665.31 105.33 666.28 106.25 C 666.66 107.74 667.06 109.23 667.57 110.68 C 665.89 110.53 666.09 112.51 666.84 113.40 C 666.44 113.55 665.65 113.83 665.25 113.97 C 663.59 112.25 661.94 110.52 660.27 108.81 C 660.91 108.44 662.18 107.71 662.82 107.34 C 661.71 106.75 660.59 106.17 659.50 105.59 C 659.47 100.39 658.54 95.23 656.48 90.45 C 656.08 91.65 655.70 92.85 655.33 94.04 C 655.48 91.76 655.60 89.47 655.72 87.19 L 653.98 87.49 C 654.84 87.13 655.69 86.76 656.55 86.37 C 658.92 90.79 658.89 96.03 661.19 100.45 C 663.43 93.72 659.04 87.43 658.57 80.85 Z" />
<path fill="#5b5e5c" opacity="1.00" d=" M 646.69 87.52 C 647.93 87.35 649.17 87.20 650.43 87.07 C 651.36 87.27 652.30 87.45 653.24 87.63 C 652.65 87.74 651.47 87.97 650.87 88.09 C 651.86 88.60 652.85 89.10 653.84 89.61 C 653.54 90.76 653.23 91.91 652.94 93.06 C 650.55 91.76 648.13 93.17 645.90 94.02 C 645.88 93.21 645.83 91.60 645.80 90.79 C 646.08 89.70 646.37 88.61 646.69 87.52 Z" />
<path fill="#828688" opacity="1.00" d=" M 650.87 88.09 C 651.47 87.97 652.65 87.74 653.24 87.63 L 653.98 87.49 L 655.72 87.19 C 655.60 89.47 655.48 91.76 655.33 94.04 C 654.73 93.80 653.54 93.30 652.94 93.06 C 653.23 91.91 653.54 90.76 653.84 89.61 C 652.85 89.10 651.86 88.60 650.87 88.09 Z" />
<path fill="#40444b" opacity="1.00" d=" M 644.66 104.29 C 644.31 99.77 644.30 95.13 645.80 90.79 C 645.83 91.60 645.88 93.21 645.90 94.02 C 648.13 93.17 650.55 91.76 652.94 93.06 C 653.54 93.30 654.73 93.80 655.33 94.04 C 655.70 92.85 656.08 91.65 656.48 90.45 C 658.54 95.23 659.47 100.39 659.50 105.59 C 660.59 106.17 661.71 106.75 662.82 107.34 C 662.18 107.71 660.91 108.44 660.27 108.81 C 659.41 107.94 658.48 107.10 657.61 106.26 C 658.11 103.15 657.79 100.00 657.53 96.88 C 657.26 98.70 657.02 100.51 656.79 102.33 C 656.06 100.29 655.34 98.24 654.52 96.23 C 654.06 96.23 653.15 96.23 652.69 96.22 C 651.25 95.96 650.24 96.93 649.50 98.02 C 649.34 97.35 649.01 96.01 648.85 95.33 C 645.86 97.34 645.29 101.03 644.66 104.29 Z" />
<path fill="#010101" opacity="1.00" d=" M 644.66 104.29 C 645.29 101.03 645.86 97.34 648.85 95.33 C 649.01 96.01 649.34 97.35 649.50 98.02 C 649.80 102.87 649.60 107.73 649.53 112.58 C 649.52 113.13 649.51 114.24 649.50 114.80 C 649.46 117.69 649.40 120.57 649.29 123.46 C 647.68 122.30 646.11 121.12 644.54 119.94 L 644.61 118.69 C 645.11 113.90 644.98 109.09 644.66 104.29 Z" />
<path fill="#d8d8d8" opacity="1.00" d=" M 649.50 98.02 C 650.24 96.93 651.25 95.96 652.69 96.22 L 653.24 96.67 C 651.98 103.01 652.99 109.51 652.06 115.89 C 651.21 114.79 650.36 113.68 649.53 112.58 C 649.60 107.73 649.80 102.87 649.50 98.02 Z" />
<path fill="#797a7a" opacity="1.00" d=" M 636.46 99.08 C 637.30 98.26 638.14 97.44 638.99 96.61 C 638.83 98.83 638.68 101.06 638.51 103.28 C 635.17 106.25 634.72 111.18 631.05 113.90 C 630.98 108.67 630.56 103.38 631.48 98.20 C 631.84 99.75 632.29 101.27 632.75 102.79 C 632.53 104.16 632.36 105.55 632.17 106.93 C 632.82 103.95 633.57 100.70 636.46 99.08 Z" />
<path fill="#777777" opacity="1.00" d=" M 653.24 96.67 C 653.92 99.37 653.67 102.18 653.65 104.94 C 653.51 110.69 653.85 116.47 652.91 122.17 C 649.92 120.98 649.92 117.49 649.50 114.80 C 649.51 114.24 649.52 113.13 649.53 112.58 C 650.36 113.68 651.21 114.79 652.06 115.89 C 652.99 109.51 651.98 103.01 653.24 96.67 Z" />
<path fill="#7b7c7c" opacity="1.00" d=" M 662.94 96.63 C 664.41 97.99 665.96 99.27 667.30 100.77 C 668.49 102.45 667.95 105.31 669.68 106.58 C 670.37 105.16 669.56 103.54 669.45 102.08 C 669.83 101.03 670.21 99.98 670.58 98.93 C 671.33 103.60 670.91 108.35 670.95 113.06 L 669.78 113.33 C 669.05 112.44 668.31 111.55 667.57 110.68 C 667.06 109.23 666.66 107.74 666.28 106.25 C 665.31 105.33 664.35 104.41 663.39 103.49 C 663.23 101.21 663.08 98.92 662.94 96.63 Z" />
<path fill="#47484a" opacity="1.00" d=" M 634.80 115.17 C 637.90 112.19 640.59 108.77 644.15 106.29 C 644.32 110.46 644.23 114.64 644.08 118.81 C 642.39 119.20 640.72 119.61 639.05 120.02 C 637.81 120.28 636.59 120.58 635.38 120.88 C 635.18 118.98 634.98 117.08 634.80 115.17 M 640.40 118.17 C 643.60 116.27 643.01 111.85 643.09 108.66 C 640.02 110.83 640.64 114.89 640.40 118.17 Z" />
<path fill="#5f5f62" opacity="1.00" d=" M 656.80 118.42 C 656.78 114.36 656.33 110.20 657.61 106.26 C 658.48 107.10 659.41 107.94 660.27 108.81 C 661.94 110.52 663.59 112.25 665.25 113.97 C 665.65 113.83 666.44 113.55 666.84 113.40 C 667.36 113.56 668.41 113.88 668.93 114.04 C 666.83 115.75 666.64 118.51 666.23 120.99 C 663.00 120.47 659.84 119.59 656.80 118.42 M 658.13 108.60 C 658.07 111.62 656.90 116.20 660.02 118.03 C 660.70 114.83 661.10 110.81 658.13 108.60 Z" />
<path fill="#313131" opacity="1.00" d=" M 640.40 118.17 C 640.64 114.89 640.02 110.83 643.09 108.66 C 643.01 111.85 643.60 116.27 640.40 118.17 Z" />
<path fill="#383838" opacity="1.00" d=" M 658.13 108.60 C 661.10 110.81 660.70 114.83 660.02 118.03 C 656.90 116.20 658.07 111.62 658.13 108.60 Z" />
<path fill="#0a0a0a" opacity="0.50" d=" M 635.98 110.08 C 637.24 110.70 637.20 111.38 635.87 112.11 C 634.58 111.48 634.62 110.81 635.98 110.08 Z" />
<path fill="#585b5b" opacity="1.00" d=" M 649.29 123.46 C 649.40 120.57 649.46 117.69 649.50 114.80 C 649.92 117.49 649.92 120.98 652.91 122.17 C 654.25 121.47 655.58 120.72 656.92 120.00 C 656.68 120.96 656.44 121.93 656.22 122.89 C 654.91 123.30 653.63 123.74 652.38 124.25 C 651.10 124.29 649.84 124.34 648.58 124.37 C 646.62 123.54 644.23 122.48 644.54 119.94 C 646.11 121.12 647.68 122.30 649.29 123.46 Z" />
<path fill="#212321" opacity="1.00" d=" M 620.51 123.70 C 624.52 120.62 628.86 117.96 633.08 115.15 C 633.15 118.62 633.58 122.45 631.57 125.51 C 630.88 125.69 629.50 126.04 628.82 126.21 C 629.90 124.82 630.93 123.38 631.96 121.94 C 629.32 122.69 626.72 123.53 624.15 124.47 C 624.08 124.12 623.93 123.42 623.86 123.07 C 623.65 123.37 623.21 123.98 623.00 124.28 C 621.89 124.41 620.80 124.59 619.74 124.82 L 620.51 123.70 Z" />
<path fill="#272626" opacity="1.00" d=" M 639.05 120.02 C 640.72 119.61 642.39 119.20 644.08 118.81 L 644.61 118.69 L 644.54 119.94 C 644.23 122.48 646.62 123.54 648.58 124.37 C 649.27 125.70 649.77 127.13 650.20 128.57 C 649.67 128.68 648.63 128.89 648.10 128.99 C 647.66 129.06 646.79 129.20 646.35 129.27 C 646.72 133.65 647.14 138.02 647.42 142.40 C 647.77 142.46 648.47 142.59 648.82 142.65 C 648.57 145.95 648.51 149.27 648.72 152.58 C 648.65 153.83 648.60 155.08 648.62 156.34 C 648.76 159.24 649.19 162.12 649.52 165.00 C 647.13 161.50 646.99 157.12 646.38 153.07 C 646.28 149.57 646.80 145.64 644.39 142.75 C 644.29 141.23 644.24 139.70 644.21 138.17 C 644.63 137.95 645.48 137.51 645.90 137.29 C 643.21 137.15 640.53 137.01 637.85 137.01 L 636.96 137.03 C 636.52 140.80 636.32 144.72 637.68 148.33 C 637.37 148.47 636.75 148.73 636.44 148.86 C 635.10 144.69 634.44 140.33 634.73 135.94 C 637.24 135.76 639.76 135.57 642.27 135.33 C 641.49 134.83 640.70 134.34 639.91 133.87 C 641.61 133.65 643.28 133.34 644.98 133.06 C 644.85 129.93 644.67 126.80 644.41 123.68 C 641.27 123.70 638.12 123.68 634.99 123.60 C 637.21 123.18 639.45 122.78 641.69 122.39 C 641.70 121.86 641.72 120.82 641.73 120.30 C 641.06 120.23 639.72 120.09 639.05 120.02 Z" />
<path fill="#3b3e42" opacity="1.00" d=" M 624.15 124.47 C 626.72 123.53 629.32 122.69 631.96 121.94 C 630.93 123.38 629.90 124.82 628.82 126.21 C 625.39 127.73 621.96 129.24 618.42 130.48 C 618.52 129.79 618.71 128.43 618.81 127.75 C 620.58 127.12 622.15 126.02 623.00 124.28 C 623.21 123.98 623.65 123.37 623.86 123.07 C 623.93 123.42 624.08 124.12 624.15 124.47 Z" />
<path fill="#444549" opacity="1.00" d=" M 670.04 121.99 C 672.35 122.64 674.67 123.32 676.98 124.01 C 676.75 123.42 676.28 122.25 676.05 121.66 C 676.69 121.77 677.96 122.01 678.60 122.13 C 680.45 122.82 682.00 124.14 683.65 125.21 C 683.67 127.12 683.71 129.03 683.77 130.94 C 683.20 130.77 682.04 130.45 681.46 130.29 L 681.54 129.73 C 678.19 128.50 674.92 127.04 671.77 125.37 C 671.16 124.26 670.60 123.12 670.04 121.99 Z" />
<path fill="#969595" opacity="1.00" d=" M 687.49 122.58 C 691.67 124.29 697.31 124.58 699.58 129.09 C 696.34 126.32 692.36 124.37 688.11 123.92 C 686.19 124.98 687.40 127.19 688.39 128.47 C 690.51 131.10 694.06 131.72 697.09 132.74 C 697.93 131.86 698.79 130.97 699.65 130.09 C 699.16 133.32 699.32 136.58 700.04 139.77 C 699.53 142.19 699.30 144.67 699.72 147.13 C 699.12 147.19 697.92 147.32 697.32 147.38 C 698.22 146.22 698.85 144.91 699.20 143.45 C 698.08 143.28 696.98 143.11 695.88 142.95 C 696.81 142.80 698.67 142.51 699.60 142.36 C 696.96 139.08 692.24 140.83 688.62 140.45 C 688.26 140.45 687.54 140.43 687.18 140.42 C 687.19 140.15 687.21 139.61 687.22 139.34 C 690.92 139.60 694.63 139.64 698.34 139.45 C 698.45 137.82 698.58 136.19 698.71 134.56 C 697.67 134.20 696.66 133.85 695.64 133.52 C 694.79 133.26 693.09 132.74 692.24 132.49 C 689.31 131.81 687.37 129.53 686.05 126.96 C 685.91 126.74 685.63 126.30 685.49 126.07 C 686.15 124.91 686.81 123.74 687.49 122.58 Z" />
<path fill="#7e8484" opacity="1.00" d=" M 601.95 130.25 C 604.17 125.04 610.37 123.88 615.37 123.00 C 615.49 124.00 615.62 125.00 615.76 126.00 C 614.63 128.05 613.22 130.18 613.44 132.64 C 613.38 135.06 613.86 137.47 614.94 139.65 C 614.54 140.20 613.74 141.29 613.35 141.84 C 613.48 143.60 613.61 145.37 613.86 147.12 C 613.53 147.16 612.86 147.24 612.53 147.28 C 612.63 145.07 612.75 142.87 612.76 140.66 C 612.32 140.64 611.45 140.58 611.01 140.56 C 608.28 141.00 603.83 138.96 602.41 142.04 C 603.06 142.29 604.37 142.79 605.02 143.04 C 604.16 143.17 602.45 143.44 601.60 143.57 C 602.26 144.68 602.96 145.77 603.69 146.85 C 603.14 146.69 602.03 146.37 601.48 146.22 C 601.39 142.71 601.71 139.23 601.99 135.74 C 602.20 137.06 602.42 138.38 602.66 139.70 C 605.79 139.89 608.82 139.12 610.70 136.45 C 610.86 137.03 611.16 138.18 611.32 138.75 C 612.58 136.39 612.61 133.68 612.69 131.07 C 611.36 131.57 610.03 132.08 608.72 132.59 C 607.69 132.89 606.68 133.22 605.69 133.58 C 605.00 133.73 603.62 134.04 602.94 134.20 C 602.85 133.74 602.67 132.82 602.59 132.35 L 604.00 132.27 C 609.09 132.36 614.48 129.25 615.29 123.90 C 610.55 124.31 605.69 125.80 602.55 129.58 L 601.95 130.25 Z" />
<path fill="#333334" opacity="1.00" d=" M 652.38 124.25 C 653.63 123.74 654.91 123.30 656.22 122.89 C 659.53 122.56 662.85 123.02 666.11 123.67 C 662.91 123.62 659.72 123.87 656.54 124.16 C 656.53 127.00 656.50 129.84 656.45 132.69 C 659.47 133.21 662.51 133.61 665.56 133.87 C 665.48 130.67 665.85 127.49 666.70 124.40 C 667.07 125.60 667.46 126.79 667.85 127.99 C 668.97 128.57 670.10 129.16 671.25 129.72 C 670.44 129.58 668.82 129.31 668.01 129.17 C 668.41 131.48 668.81 133.79 669.48 136.04 C 666.92 138.41 666.88 142.64 669.82 144.69 C 667.83 144.46 665.91 145.01 664.08 145.69 C 663.62 142.72 663.65 139.70 663.60 136.71 C 660.70 136.89 657.81 137.08 654.93 137.28 C 655.37 137.48 656.26 137.87 656.71 138.07 C 656.63 139.92 656.53 141.78 656.50 143.63 C 656.26 143.75 655.76 143.98 655.51 144.10 C 654.55 142.87 653.65 142.86 652.82 144.04 C 652.88 145.58 653.71 146.20 655.30 145.91 C 655.29 147.27 655.34 148.65 655.40 150.02 C 655.50 148.54 655.59 147.07 655.69 145.59 C 657.92 145.49 660.16 145.41 662.41 145.34 C 661.52 148.03 660.51 150.69 659.88 153.45 C 659.38 155.67 659.12 157.93 658.89 160.19 C 657.98 161.46 657.03 162.69 656.09 163.93 C 656.28 160.69 656.54 157.46 656.81 154.22 C 655.89 153.87 654.98 153.53 654.08 153.18 C 653.55 157.01 653.74 161.22 651.39 164.51 C 652.07 160.38 653.00 156.22 652.55 152.01 C 652.24 148.35 651.21 144.63 652.26 140.99 C 653.15 137.30 653.68 133.55 654.34 129.81 C 653.93 129.67 653.12 129.39 652.71 129.24 C 652.20 129.06 651.19 128.69 650.69 128.51 C 650.80 126.93 651.21 125.40 652.38 124.25 Z" />
<path fill="#181413" opacity="1.00" d=" M 602.55 129.58 C 605.69 125.80 610.55 124.31 615.29 123.90 C 614.48 129.25 609.09 132.36 604.00 132.27 C 603.64 131.59 602.91 130.25 602.55 129.58 Z" />
<path fill="#080808" opacity="0.55" d=" M 619.00 132.12 C 617.55 129.52 616.60 124.51 620.51 123.70 L 619.74 124.82 C 619.12 125.69 618.82 126.66 618.81 127.75 C 618.71 128.43 618.52 129.79 618.42 130.48 C 621.96 129.24 625.39 127.73 628.82 126.21 C 629.50 126.04 630.88 125.69 631.57 125.51 C 628.66 129.48 623.29 130.28 619.00 132.12 Z" />
<path fill="#545556" opacity="1.00" d=" M 619.74 124.82 C 620.80 124.59 621.89 124.41 623.00 124.28 C 622.15 126.02 620.58 127.12 618.81 127.75 C 618.82 126.66 619.12 125.69 619.74 124.82 Z" />
<path fill="#444647" opacity="1.00" d=" M 634.99 123.60 C 638.12 123.68 641.27 123.70 644.41 123.68 C 644.67 126.80 644.85 129.93 644.98 133.06 C 643.28 133.34 641.61 133.65 639.91 133.87 C 638.41 133.85 636.92 133.83 635.43 133.80 C 635.37 130.40 635.23 127.00 634.99 123.60 M 637.27 125.95 C 637.26 127.96 637.27 129.98 637.27 131.99 C 639.10 131.95 640.94 131.90 642.79 131.86 C 642.77 129.99 642.83 128.12 642.61 126.27 C 641.17 125.07 638.99 126.09 637.27 125.95 Z" />
<path fill="#767f82" opacity="1.00" d=" M 648.58 124.37 C 649.84 124.34 651.10 124.29 652.38 124.25 C 651.21 125.40 650.80 126.93 650.69 128.51 C 651.19 128.69 652.20 129.06 652.71 129.24 C 651.85 131.05 650.63 132.84 650.88 134.93 C 651.19 142.18 650.93 149.44 651.43 156.69 C 650.73 156.60 649.32 156.43 648.62 156.34 C 648.60 155.08 648.65 153.83 648.72 152.58 C 650.30 148.57 649.59 144.23 649.70 140.05 C 649.68 136.32 650.18 132.31 648.10 128.99 C 648.63 128.89 649.67 128.68 650.20 128.57 C 649.77 127.13 649.27 125.70 648.58 124.37 Z" />
<path fill="#757575" opacity="1.00" d=" M 656.54 124.16 C 659.72 123.87 662.91 123.62 666.11 123.67 L 666.49 123.74 L 666.70 124.40 C 665.85 127.49 665.48 130.67 665.56 133.87 C 662.51 133.61 659.47 133.21 656.45 132.69 C 656.50 129.84 656.53 127.00 656.54 124.16 M 657.91 126.00 C 657.27 127.99 657.69 130.11 657.74 132.16 C 659.83 132.21 661.92 132.24 664.01 132.24 C 663.73 130.14 665.05 127.25 663.08 125.74 C 661.43 125.54 659.32 124.80 657.91 126.00 Z" />
<path fill="#040404" opacity="1.00" d=" M 668.62 124.22 C 669.67 124.60 670.72 124.97 671.77 125.37 C 674.92 127.04 678.19 128.50 681.54 129.73 L 681.46 130.29 C 681.41 130.62 681.32 131.28 681.27 131.61 C 682.52 131.79 683.77 131.97 685.04 132.16 C 685.36 130.42 685.66 128.69 686.05 126.96 C 687.37 129.53 689.31 131.81 692.24 132.49 L 691.34 133.57 C 690.66 134.93 690.06 136.34 689.48 137.75 C 689.40 135.58 689.23 133.41 688.98 131.25 C 687.49 133.69 687.36 136.57 687.22 139.34 C 687.21 139.61 687.19 140.15 687.18 140.42 C 687.08 142.70 687.00 144.99 687.02 147.27 C 687.05 148.45 687.12 149.62 687.24 150.80 C 687.68 154.12 688.64 157.34 689.66 160.53 C 690.21 160.40 691.30 160.13 691.85 160.00 C 694.29 160.03 696.73 160.29 699.16 160.60 C 697.23 164.27 692.08 162.63 688.76 162.32 C 687.47 159.68 686.63 156.86 685.63 154.11 L 685.34 153.23 C 684.65 151.01 685.12 147.74 682.18 147.17 C 682.78 147.23 683.99 147.35 684.59 147.41 C 684.64 144.16 684.66 140.91 684.67 137.66 C 683.08 137.28 681.52 136.90 679.95 136.54 C 682.12 136.60 684.30 136.57 686.47 136.27 C 685.21 135.58 684.04 134.84 682.73 134.32 C 679.42 133.00 676.05 131.85 672.79 130.40 C 672.41 130.23 671.63 129.89 671.25 129.72 C 670.10 129.16 668.97 128.57 667.85 127.99 C 668.10 126.73 668.36 125.48 668.62 124.22 Z" />
<path fill="#1c1817" opacity="1.00" d=" M 688.11 123.92 C 692.36 124.37 696.34 126.32 699.58 129.09 C 700.90 132.13 701.18 135.53 702.00 138.73 C 702.10 139.29 702.30 140.39 702.40 140.95 C 702.15 145.32 701.70 149.68 701.06 154.01 C 701.73 154.05 703.08 154.14 703.75 154.19 C 704.63 154.24 706.38 154.35 707.26 154.40 C 713.08 154.50 718.86 155.16 724.67 155.51 C 724.93 155.48 725.44 155.42 725.69 155.39 C 725.62 153.14 725.41 150.89 725.67 148.66 C 726.31 151.29 726.93 153.94 727.66 156.56 C 718.71 155.90 709.75 155.40 700.81 154.71 C 700.26 156.67 699.69 158.63 699.16 160.60 C 699.13 157.27 699.61 153.97 700.11 150.69 C 700.00 149.50 699.87 148.31 699.72 147.13 C 699.30 144.67 699.53 142.19 700.04 139.77 C 699.32 136.58 699.16 133.32 699.65 130.09 C 698.79 130.97 697.93 131.86 697.09 132.74 C 694.06 131.72 690.51 131.10 688.39 128.47 C 687.40 127.19 686.19 124.98 688.11 123.92 Z" />
<path fill="#36383e" opacity="1.00" d=" M 657.91 126.00 C 659.32 124.80 661.43 125.54 663.08 125.74 C 665.05 127.25 663.73 130.14 664.01 132.24 C 661.92 132.24 659.83 132.21 657.74 132.16 C 657.69 130.11 657.27 127.99 657.91 126.00 Z" />
<path fill="#2a2b2d" opacity="1.00" d=" M 637.27 125.95 C 638.99 126.09 641.17 125.07 642.61 126.27 C 642.83 128.12 642.77 129.99 642.79 131.86 C 640.94 131.90 639.10 131.95 637.27 131.99 C 637.27 129.98 637.26 127.96 637.27 125.95 Z" />
<path fill="#bebdbd" opacity="1.00" d=" M 616.68 135.45 C 621.71 133.06 626.96 131.20 632.23 129.41 C 631.73 129.75 630.74 130.43 630.24 130.77 C 630.36 131.51 630.61 133.00 630.73 133.74 C 630.33 133.42 629.54 132.78 629.14 132.46 C 625.17 134.12 620.96 135.10 616.68 135.45 Z" />
<path fill="#696969" opacity="1.00" d=" M 632.23 129.41 L 633.34 128.95 C 633.35 132.21 632.53 135.37 630.97 138.22 C 630.90 137.34 630.77 135.58 630.70 134.70 C 629.92 136.04 629.16 137.39 628.41 138.75 C 628.02 137.52 627.61 136.29 627.24 135.06 C 621.23 135.17 619.42 144.17 624.73 146.73 C 622.13 147.94 619.56 149.22 617.28 150.95 C 617.29 146.74 617.38 142.50 616.86 138.31 C 616.72 137.93 616.43 137.17 616.29 136.79 C 616.30 136.49 616.31 135.91 616.32 135.62 L 616.68 135.45 C 620.96 135.10 625.17 134.12 629.14 132.46 C 629.54 132.78 630.33 133.42 630.73 133.74 C 630.61 133.00 630.36 131.51 630.24 130.77 C 630.74 130.43 631.73 129.75 632.23 129.41 Z" />
<path fill="#575757" opacity="1.00" d=" M 633.34 128.95 L 633.93 128.71 C 633.80 136.70 632.99 144.74 634.21 152.69 C 633.87 152.95 633.20 153.46 632.86 153.72 C 632.57 150.72 632.74 147.42 630.51 145.07 C 630.70 144.94 631.08 144.68 631.26 144.55 C 630.76 142.47 630.59 140.34 630.97 138.22 C 632.53 135.37 633.35 132.21 633.34 128.95 Z" />
<path fill="#474848" opacity="1.00" d=" M 646.35 129.27 C 646.79 129.20 647.66 129.06 648.10 128.99 C 650.18 132.31 649.68 136.32 649.70 140.05 C 649.59 144.23 650.30 148.57 648.72 152.58 C 648.51 149.27 648.57 145.95 648.82 142.65 C 648.47 142.59 647.77 142.46 647.42 142.40 C 647.14 138.02 646.72 133.65 646.35 129.27 Z" />
<path fill="#5d6058" opacity="1.00" d=" M 652.71 129.24 C 653.12 129.39 653.93 129.67 654.34 129.81 C 653.68 133.55 653.15 137.30 652.26 140.99 C 651.21 144.63 652.24 148.35 652.55 152.01 C 653.00 156.22 652.07 160.38 651.39 164.51 L 649.52 165.00 C 649.19 162.12 648.76 159.24 648.62 156.34 C 649.32 156.43 650.73 156.60 651.43 156.69 C 650.93 149.44 651.19 142.18 650.88 134.93 C 650.63 132.84 651.85 131.05 652.71 129.24 Z" />
<path fill="#383a3c" opacity="1.00" d=" M 601.95 130.25 L 602.55 129.58 C 602.91 130.25 603.64 131.59 604.00 132.27 L 602.59 132.35 C 602.67 132.82 602.85 133.74 602.94 134.20 C 603.62 134.04 605.00 133.73 605.69 133.58 C 605.63 134.81 607.38 137.04 608.42 135.35 C 608.50 134.66 608.65 133.28 608.72 132.59 C 610.03 132.08 611.36 131.57 612.69 131.07 C 612.61 133.68 612.58 136.39 611.32 138.75 C 611.16 138.18 610.86 137.03 610.70 136.45 C 608.82 139.12 605.79 139.89 602.66 139.70 C 602.42 138.38 602.20 137.06 601.99 135.74 C 601.82 134.35 601.66 132.96 601.52 131.57 C 601.63 131.24 601.84 130.58 601.95 130.25 Z" />
<path fill="#838383" opacity="1.00" d=" M 668.01 129.17 C 668.82 129.31 670.44 129.58 671.25 129.72 C 671.63 129.89 672.41 130.23 672.79 130.40 C 672.65 130.91 672.37 131.93 672.23 132.44 C 672.09 133.21 671.82 134.74 671.69 135.51 C 673.56 135.45 675.44 135.36 677.32 135.38 C 676.66 135.71 675.34 136.37 674.67 136.69 C 674.38 137.72 674.10 138.75 673.83 139.78 C 672.91 138.84 671.99 137.90 671.07 136.97 C 671.05 137.56 671.00 138.72 670.98 139.31 C 670.60 138.49 669.85 136.86 669.48 136.04 C 668.81 133.79 668.41 131.48 668.01 129.17 Z" />
<path fill="#d8d8d8" opacity="1.00" d=" M 672.23 132.44 C 672.37 131.93 672.65 130.91 672.79 130.40 C 676.05 131.85 679.42 133.00 682.73 134.32 C 679.10 134.64 675.60 133.63 672.23 132.44 Z" />
<path fill="#000000" opacity="1.00" d=" M 599.81 138.83 C 600.23 136.38 600.86 133.97 601.52 131.57 C 601.66 132.96 601.82 134.35 601.99 135.74 C 601.71 139.23 601.39 142.71 601.48 146.22 C 601.43 147.81 601.37 149.42 601.42 151.03 C 601.87 154.00 602.58 156.92 603.25 159.85 L 603.87 159.74 C 606.90 159.92 609.94 160.24 612.93 160.85 L 613.33 162.50 C 610.36 162.66 607.32 163.12 604.40 162.45 C 601.81 160.86 601.98 157.29 601.00 154.72 C 592.16 155.44 583.29 155.84 574.44 156.52 C 575.04 153.85 575.60 151.17 576.34 148.54 C 576.44 150.95 576.26 153.36 576.15 155.77 C 576.68 155.72 577.75 155.63 578.28 155.58 C 583.88 155.39 589.46 154.76 595.06 154.50 C 597.00 154.39 598.92 154.27 600.87 154.15 C 599.80 152.15 599.98 146.76 596.06 149.91 C 596.97 148.84 598.38 148.64 599.67 148.24 C 599.67 147.15 599.67 144.97 599.67 143.88 C 598.10 144.45 596.58 145.04 595.03 145.61 C 595.43 145.25 596.23 144.53 596.63 144.17 C 597.56 143.64 598.50 143.10 599.44 142.56 C 599.53 141.63 599.72 139.76 599.81 138.83 Z" />
<path fill="#3f4143" opacity="1.00" d=" M 687.22 139.34 C 687.36 136.57 687.49 133.69 688.98 131.25 C 689.23 133.41 689.40 135.58 689.48 137.75 C 690.06 136.34 690.66 134.93 691.34 133.57 C 691.91 134.18 693.04 135.41 693.60 136.02 C 694.36 135.25 694.97 134.37 695.64 133.52 C 696.66 133.85 697.67 134.20 698.71 134.56 C 698.58 136.19 698.45 137.82 698.34 139.45 C 694.63 139.64 690.92 139.60 687.22 139.34 Z" />
<path fill="#430e0d" opacity="1.00" d=" M 605.69 133.58 C 606.68 133.22 607.69 132.89 608.72 132.59 C 608.65 133.28 608.50 134.66 608.42 135.35 C 607.38 137.04 605.63 134.81 605.69 133.58 Z" />
<path fill="#1e1e1e" opacity="1.00" d=" M 613.44 132.64 C 614.35 134.04 615.34 135.40 616.29 136.79 C 616.43 137.17 616.72 137.93 616.86 138.31 C 617.38 142.50 617.29 146.74 617.28 150.95 L 617.22 152.17 C 621.83 150.18 626.41 148.03 630.51 145.07 C 632.74 147.42 632.57 150.72 632.86 153.72 C 627.23 153.58 621.61 153.90 615.99 154.28 C 615.06 157.01 614.17 159.75 613.33 162.50 L 612.93 160.85 C 613.12 157.39 613.71 153.92 615.04 150.70 L 615.25 150.19 C 617.02 146.89 616.68 142.89 614.94 139.65 C 613.86 137.47 613.38 135.06 613.44 132.64 Z" />
<path fill="#757575" opacity="1.00" d=" M 672.23 132.44 C 675.60 133.63 679.10 134.64 682.73 134.32 C 684.04 134.84 685.21 135.58 686.47 136.27 C 684.30 136.57 682.12 136.60 679.95 136.54 C 681.52 136.90 683.08 137.28 684.67 137.66 C 684.66 140.91 684.64 144.16 684.59 147.41 C 683.99 147.35 682.78 147.23 682.18 147.17 C 685.12 147.74 684.65 151.01 685.34 153.23 C 683.81 152.26 682.27 151.31 680.69 150.42 C 678.46 147.19 674.22 145.51 673.83 141.14 C 675.22 143.02 676.60 144.91 678.06 146.75 C 679.33 143.00 679.86 138.76 677.32 135.38 C 675.44 135.36 673.56 135.45 671.69 135.51 C 671.82 134.74 672.09 133.21 672.23 132.44 Z" />
<path fill="#62150f" opacity="1.00" d=" M 692.24 132.49 C 693.09 132.74 694.79 133.26 695.64 133.52 C 694.97 134.37 694.36 135.25 693.60 136.02 C 693.04 135.41 691.91 134.18 691.34 133.57 L 692.24 132.49 Z" />
<path fill="#969595" opacity="1.00" d=" M 624.73 146.73 C 619.42 144.17 621.23 135.17 627.24 135.06 C 627.61 136.29 628.02 137.52 628.41 138.75 C 629.16 137.39 629.92 136.04 630.70 134.70 C 630.77 135.58 630.90 137.34 630.97 138.22 C 630.59 140.34 630.76 142.47 631.26 144.55 C 631.08 144.68 630.70 144.94 630.51 145.07 C 626.41 148.03 621.83 150.18 617.22 152.17 L 617.28 150.95 C 619.56 149.22 622.13 147.94 624.73 146.73 Z" />
<path fill="#9e9e9e" opacity="1.00" d=" M 674.67 136.69 C 675.34 136.37 676.66 135.71 677.32 135.38 C 679.86 138.76 679.33 143.00 678.06 146.75 C 676.60 144.91 675.22 143.02 673.83 141.14 C 674.22 145.51 678.46 147.19 680.69 150.42 C 677.50 148.88 674.38 147.21 671.30 145.48 C 671.25 143.42 671.15 141.36 670.98 139.31 C 671.00 138.72 671.05 137.56 671.07 136.97 C 671.99 137.90 672.91 138.84 673.83 139.78 C 674.10 138.75 674.38 137.72 674.67 136.69 Z" />
<path fill="#3f3e3f" opacity="1.00" d=" M 636.96 137.03 L 637.85 137.01 C 638.08 139.38 638.22 141.81 639.00 144.08 C 640.82 143.77 642.61 143.27 644.39 142.75 C 646.80 145.64 646.28 149.57 646.38 153.07 C 645.93 153.49 645.02 154.35 644.56 154.77 C 644.83 157.89 645.42 160.97 645.91 164.06 C 644.33 164.46 642.75 164.86 641.19 165.26 C 641.35 164.18 641.53 163.11 641.72 162.03 C 640.77 163.27 639.83 164.51 638.82 165.69 C 638.03 166.54 637.15 167.29 636.29 168.06 C 636.17 167.23 635.92 165.56 635.80 164.73 C 635.63 163.38 635.50 162.02 635.44 160.67 C 635.55 159.65 635.66 158.64 635.78 157.63 C 634.71 158.70 633.64 159.77 632.58 160.85 C 631.75 160.75 630.93 160.65 630.12 160.55 C 629.84 160.81 629.30 161.34 629.03 161.60 C 627.55 162.44 626.03 163.20 624.51 163.93 C 626.16 161.89 628.05 160.07 629.91 158.23 L 627.82 158.57 C 630.21 157.10 632.77 155.86 635.48 155.06 C 635.78 155.10 636.39 155.18 636.69 155.22 C 636.83 156.01 637.09 157.60 637.23 158.39 C 638.02 156.54 638.82 154.70 639.61 152.86 C 638.94 151.35 638.28 149.86 637.68 148.33 C 636.32 144.72 636.52 140.80 636.96 137.03 M 639.09 145.86 C 640.08 148.24 641.08 150.63 642.09 153.01 C 642.85 152.98 644.38 152.93 645.15 152.90 C 645.02 150.64 644.89 148.37 644.76 146.11 C 642.86 146.03 640.97 145.94 639.09 145.86 M 641.70 153.97 C 640.38 156.02 639.30 158.23 638.54 160.55 C 641.22 159.45 642.10 156.63 641.70 153.97 Z" />
<path fill="#1d1c1b" opacity="1.00" d=" M 637.85 137.01 C 640.53 137.01 643.21 137.15 645.90 137.29 C 645.48 137.51 644.63 137.95 644.21 138.17 C 644.24 139.70 644.29 141.23 644.39 142.75 C 642.61 143.27 640.82 143.77 639.00 144.08 C 638.22 141.81 638.08 139.38 637.85 137.01 Z" />
<path fill="#232222" opacity="1.00" d=" M 654.93 137.28 C 657.81 137.08 660.70 136.89 663.60 136.71 C 663.29 139.49 662.94 142.26 662.50 145.02 C 660.46 144.72 658.40 144.45 656.50 143.63 C 656.53 141.78 656.63 139.92 656.71 138.07 C 656.26 137.87 655.37 137.48 654.93 137.28 Z" />
<path fill="#8c9392" opacity="1.00" d=" M 663.60 136.71 C 663.65 139.70 663.62 142.72 664.08 145.69 C 664.55 147.01 665.10 148.30 665.63 149.61 C 664.76 148.76 663.91 147.88 663.09 147.03 C 662.23 149.35 661.37 151.67 660.53 153.99 C 662.62 154.51 664.72 155.01 666.79 155.64 C 668.11 156.06 669.41 156.58 670.70 157.14 C 672.81 158.10 674.95 159.01 677.12 159.85 C 677.57 160.03 678.46 160.40 678.91 160.58 C 678.51 162.35 678.27 164.15 678.24 165.97 C 676.39 165.65 674.52 165.59 672.73 165.06 C 670.29 164.05 667.75 163.32 665.14 163.01 C 665.44 160.57 665.41 158.12 665.44 155.67 C 664.25 155.29 663.06 154.90 661.89 154.52 C 661.76 155.22 661.49 156.63 661.36 157.33 C 660.81 156.06 660.32 154.76 659.88 153.45 C 660.51 150.69 661.52 148.03 662.41 145.34 C 660.16 145.41 657.92 145.49 655.69 145.59 C 655.59 147.07 655.50 148.54 655.40 150.02 C 655.34 148.65 655.29 147.27 655.30 145.91 C 655.35 145.45 655.46 144.55 655.51 144.10 C 655.76 143.98 656.26 143.75 656.50 143.63 C 658.40 144.45 660.46 144.72 662.50 145.02 C 662.94 142.26 663.29 139.49 663.60 136.71 M 665.65 156.43 C 666.41 158.07 667.68 159.37 669.04 160.54 C 671.81 159.97 673.90 162.10 676.22 163.19 C 674.43 160.98 672.02 159.35 669.26 158.66 C 668.07 157.90 666.86 157.13 665.65 156.43 Z" />
<path fill="#4f4e4d" opacity="1.00" d=" M 669.82 144.69 C 666.88 142.64 666.92 138.41 669.48 136.04 C 669.85 136.86 670.60 138.49 670.98 139.31 C 671.15 141.36 671.25 143.42 671.30 145.48 L 669.82 144.69 Z" />
<path fill="#a5a3a3" opacity="1.00" d=" M 598.23 139.89 C 598.63 139.63 599.41 139.10 599.81 138.83 C 599.72 139.76 599.53 141.63 599.44 142.56 C 598.50 143.10 597.56 143.64 596.63 144.17 C 593.69 144.97 591.05 146.50 588.84 148.57 C 590.39 149.24 591.95 149.89 593.55 150.49 C 589.44 152.13 584.96 151.82 580.70 152.61 C 579.84 153.56 579.03 154.55 578.28 155.58 C 577.75 155.63 576.68 155.72 576.15 155.77 C 576.26 153.36 576.44 150.95 576.34 148.54 L 576.33 148.02 C 580.63 147.69 584.52 145.71 588.51 144.26 C 591.82 142.98 595.36 142.08 598.23 139.89 Z" />
<path fill="#d8d8d8" opacity="1.00" d=" M 702.00 138.73 C 702.39 139.03 703.17 139.62 703.56 139.91 C 703.93 140.21 704.67 140.81 705.04 141.10 C 708.75 142.82 712.70 143.97 716.48 145.52 C 719.48 146.60 722.41 148.31 725.71 148.11 L 725.67 148.66 C 725.41 150.89 725.62 153.14 725.69 155.39 C 725.44 155.42 724.93 155.48 724.67 155.51 C 723.77 153.22 723.39 150.34 721.09 148.96 C 716.99 146.47 712.18 145.61 707.73 143.97 C 705.84 143.17 704.06 142.15 702.40 140.95 C 702.30 140.39 702.10 139.29 702.00 138.73 Z" />
<path fill="#000000" opacity="1.00" d=" M 576.33 148.02 C 583.61 145.28 590.70 141.86 598.23 139.89 C 595.36 142.08 591.82 142.98 588.51 144.26 C 584.52 145.71 580.63 147.69 576.33 148.02 Z" />
<path fill="#010101" opacity="1.00" d=" M 613.35 141.84 C 613.74 141.29 614.54 140.20 614.94 139.65 C 616.68 142.89 617.02 146.89 615.25 150.19 C 614.76 149.18 614.30 148.15 613.86 147.12 C 613.61 145.37 613.48 143.60 613.35 141.84 Z" />
<path fill="#010101" opacity="1.00" d=" M 703.56 139.91 C 711.19 141.84 718.39 145.26 725.71 148.11 C 722.41 148.31 719.48 146.60 716.48 145.52 C 712.70 143.97 708.75 142.82 705.04 141.10 C 704.67 140.81 703.93 140.21 703.56 139.91 Z" />
<path fill="#090a09" opacity="1.00" d=" M 602.41 142.04 C 603.83 138.96 608.28 141.00 611.01 140.56 C 608.77 142.29 608.28 145.08 608.26 147.75 C 608.23 148.54 608.19 150.10 608.17 150.89 C 607.61 150.91 606.48 150.95 605.92 150.97 C 605.81 149.79 605.69 148.62 605.59 147.44 C 605.12 147.29 604.17 146.99 603.69 146.85 C 602.96 145.77 602.26 144.68 601.60 143.57 C 602.45 143.44 604.16 143.17 605.02 143.04 C 604.37 142.79 603.06 142.29 602.41 142.04 Z" />
<path fill="#261f1d" opacity="1.00" d=" M 611.01 140.56 C 611.45 140.58 612.32 140.64 612.76 140.66 C 612.75 142.87 612.63 145.07 612.53 147.28 C 611.09 147.43 609.68 147.59 608.26 147.75 C 608.28 145.08 608.77 142.29 611.01 140.56 Z" />
<path fill="#252626" opacity="1.00" d=" M 687.18 140.42 C 687.54 140.43 688.26 140.45 688.62 140.45 C 689.96 141.30 691.28 142.20 692.61 143.10 C 691.51 143.61 690.45 144.13 689.37 144.65 C 690.13 145.43 690.90 146.20 691.69 146.96 C 690.12 147.05 688.57 147.15 687.02 147.27 C 687.00 144.99 687.08 142.70 687.18 140.42 Z" />
<path fill="#090a08" opacity="1.00" d=" M 688.62 140.45 C 692.24 140.83 696.96 139.08 699.60 142.36 C 698.67 142.51 696.81 142.80 695.88 142.95 C 696.98 143.11 698.08 143.28 699.20 143.45 C 698.85 144.91 698.22 146.22 697.32 147.38 C 696.85 147.43 695.90 147.54 695.42 147.59 C 695.38 148.68 695.35 149.77 695.34 150.86 C 694.77 150.87 693.63 150.88 693.06 150.88 C 692.92 149.75 692.78 148.62 692.65 147.50 C 692.41 147.36 691.93 147.10 691.69 146.96 C 690.90 146.20 690.13 145.43 689.37 144.65 C 690.45 144.13 691.51 143.61 692.61 143.10 C 691.28 142.20 689.96 141.30 688.62 140.45 Z" />
<path fill="#4c4b4c" opacity="1.00" d=" M 702.40 140.95 C 704.06 142.15 705.84 143.17 707.73 143.97 L 707.59 144.80 C 706.27 145.55 704.90 146.22 703.56 146.91 C 704.27 147.75 705.01 148.61 705.74 149.46 C 705.17 149.83 704.03 150.57 703.45 150.94 C 703.53 151.75 703.68 153.38 703.75 154.19 C 703.08 154.14 701.73 154.05 701.06 154.01 C 701.70 149.68 702.15 145.32 702.40 140.95 Z" />
<path fill="#191918" opacity="1.00" d=" M 652.82 144.04 C 653.65 142.86 654.55 142.87 655.51 144.10 C 655.46 144.55 655.35 145.45 655.30 145.91 C 653.71 146.20 652.88 145.58 652.82 144.04 Z" />
<path fill="#6d6967" opacity="1.00" d=" M 588.84 148.57 C 591.05 146.50 593.69 144.97 596.63 144.17 C 596.23 144.53 595.43 145.25 595.03 145.61 C 596.58 145.04 598.10 144.45 599.67 143.88 C 599.67 144.97 599.67 147.15 599.67 148.24 C 598.38 148.64 596.97 148.84 596.06 149.91 C 599.98 146.76 599.80 152.15 600.87 154.15 C 598.92 154.27 597.00 154.39 595.06 154.50 C 594.86 153.08 594.68 151.66 594.50 150.24 C 594.27 150.30 593.79 150.43 593.55 150.49 C 591.95 149.89 590.39 149.24 588.84 148.57 Z" />
<path fill="#232323" opacity="1.00" d=" M 664.08 145.69 C 665.91 145.01 667.83 144.46 669.82 144.69 L 671.30 145.48 C 674.38 147.21 677.50 148.88 680.69 150.42 C 682.27 151.31 683.81 152.26 685.34 153.23 L 685.63 154.11 C 679.64 154.06 673.67 153.54 667.69 153.52 C 667.46 154.05 667.01 155.11 666.79 155.64 C 664.72 155.01 662.62 154.51 660.53 153.99 C 661.37 151.67 662.23 149.35 663.09 147.03 C 663.91 147.88 664.76 148.76 665.63 149.61 C 665.10 148.30 664.55 147.01 664.08 145.69 M 666.43 151.98 C 667.15 152.16 668.59 152.51 669.32 152.69 C 669.56 150.33 669.70 147.96 669.66 145.59 C 667.87 147.27 667.29 149.77 666.43 151.98 Z" />
<path fill="#a5a2a0" opacity="1.00" d=" M 707.73 143.97 C 712.18 145.61 716.99 146.47 721.09 148.96 C 723.39 150.34 723.77 153.22 724.67 155.51 C 718.86 155.16 713.08 154.50 707.26 154.40 C 707.30 153.15 707.36 151.90 707.41 150.65 C 709.27 149.83 711.13 149.02 712.99 148.20 C 711.17 147.08 709.35 145.99 707.59 144.80 L 707.73 143.97 Z" />
<path fill="#747270" opacity="1.00" d=" M 703.56 146.91 C 704.90 146.22 706.27 145.55 707.59 144.80 C 709.35 145.99 711.17 147.08 712.99 148.20 C 711.13 149.02 709.27 149.83 707.41 150.65 C 707.36 151.90 707.30 153.15 707.26 154.40 C 706.38 154.35 704.63 154.24 703.75 154.19 C 703.68 153.38 703.53 151.75 703.45 150.94 C 704.03 150.57 705.17 149.83 705.74 149.46 C 705.01 148.61 704.27 147.75 703.56 146.91 Z" />
<path fill="#2f3131" opacity="1.00" d=" M 639.09 145.86 C 640.97 145.94 642.86 146.03 644.76 146.11 C 644.89 148.37 645.02 150.64 645.15 152.90 C 644.38 152.93 642.85 152.98 642.09 153.01 C 641.08 150.63 640.08 148.24 639.09 145.86 Z" />
<path fill="#343638" opacity="1.00" d=" M 666.43 151.98 C 667.29 149.77 667.87 147.27 669.66 145.59 C 669.70 147.96 669.56 150.33 669.32 152.69 C 668.59 152.51 667.15 152.16 666.43 151.98 Z" />
<path fill="#69170f" opacity="1.00" d=" M 601.48 146.22 C 602.03 146.37 603.14 146.69 603.69 146.85 C 604.17 146.99 605.12 147.29 605.59 147.44 C 605.69 148.62 605.81 149.79 605.92 150.97 C 605.38 150.98 604.29 151.01 603.75 151.03 C 603.16 151.03 602.00 151.03 601.42 151.03 C 601.37 149.42 601.43 147.81 601.48 146.22 Z" />
<path fill="#8d1e13" opacity="1.00" d=" M 608.26 147.75 C 609.68 147.59 611.09 147.43 612.53 147.28 C 612.86 147.24 613.53 147.16 613.86 147.12 C 614.30 148.15 614.76 149.18 615.25 150.19 L 615.04 150.70 C 612.74 150.80 610.45 150.81 608.17 150.89 C 608.19 150.10 608.23 148.54 608.26 147.75 Z" />
<path fill="#62150f" opacity="1.00" d=" M 687.02 147.27 C 688.57 147.15 690.12 147.05 691.69 146.96 C 691.93 147.10 692.41 147.36 692.65 147.50 C 692.78 148.62 692.92 149.75 693.06 150.88 C 692.55 150.88 691.53 150.87 691.02 150.87 C 689.75 150.85 688.49 150.82 687.24 150.80 C 687.12 149.62 687.05 148.45 687.02 147.27 Z" />
<path fill="#8f1b15" opacity="1.00" d=" M 695.42 147.59 C 695.90 147.54 696.85 147.43 697.32 147.38 C 697.92 147.32 699.12 147.19 699.72 147.13 C 699.87 148.31 700.00 149.50 700.11 150.69 C 698.50 150.75 696.92 150.82 695.34 150.86 C 695.35 149.77 695.38 148.68 695.42 147.59 Z" />
<path fill="#98928c" opacity="1.00" d=" M 593.55 150.49 C 593.79 150.43 594.27 150.30 594.50 150.24 C 594.68 151.66 594.86 153.08 595.06 154.50 C 589.46 154.76 583.88 155.39 578.28 155.58 C 579.03 154.55 579.84 153.56 580.70 152.61 C 584.96 151.82 589.44 152.13 593.55 150.49 Z" />
<path fill="#3a3b3c" opacity="1.00" d=" M 601.42 151.03 C 602.00 151.03 603.16 151.03 603.75 151.03 C 605.02 152.53 606.20 154.12 607.39 155.70 C 607.98 154.60 608.57 153.49 609.18 152.40 C 609.16 154.24 609.16 156.08 609.16 157.93 C 607.40 158.55 605.65 159.20 603.87 159.74 L 603.25 159.85 C 602.58 156.92 601.87 154.00 601.42 151.03 Z" />
<path fill="#555658" opacity="1.00" d=" M 603.75 151.03 C 604.29 151.01 605.38 150.98 605.92 150.97 C 606.48 150.95 607.61 150.91 608.17 150.89 C 610.45 150.81 612.74 150.80 615.04 150.70 C 613.71 153.92 613.12 157.39 612.93 160.85 C 609.94 160.24 606.90 159.92 603.87 159.74 C 605.65 159.20 607.40 158.55 609.16 157.93 C 609.16 156.08 609.16 154.24 609.18 152.40 C 608.57 153.49 607.98 154.60 607.39 155.70 C 606.20 154.12 605.02 152.53 603.75 151.03 Z" />
<path fill="#393b3a" opacity="1.00" d=" M 687.24 150.80 C 688.49 150.82 689.75 150.85 691.02 150.87 C 692.16 152.49 693.29 154.12 694.42 155.76 C 694.75 154.93 695.42 153.28 695.75 152.46 C 695.89 153.92 696.64 155.49 695.98 156.92 C 694.97 158.36 693.30 159.12 691.85 160.00 C 691.30 160.13 690.21 160.40 689.66 160.53 C 688.64 157.34 687.68 154.12 687.24 150.80 Z" />
<path fill="#585b5b" opacity="1.00" d=" M 691.02 150.87 C 691.53 150.87 692.55 150.88 693.06 150.88 C 693.63 150.88 694.77 150.87 695.34 150.86 C 696.92 150.82 698.50 150.75 700.11 150.69 C 699.61 153.97 699.13 157.27 699.16 160.60 C 696.73 160.29 694.29 160.03 691.85 160.00 C 693.30 159.12 694.97 158.36 695.98 156.92 C 696.64 155.49 695.89 153.92 695.75 152.46 C 695.42 153.28 694.75 154.93 694.42 155.76 C 693.29 154.12 692.16 152.49 691.02 150.87 Z" />
<path fill="#1e1f1f" opacity="1.00" d=" M 654.08 153.18 C 654.98 153.53 655.89 153.87 656.81 154.22 C 656.54 157.46 656.28 160.69 656.09 163.93 C 656.86 164.28 658.40 164.99 659.17 165.35 C 660.22 165.82 661.27 166.30 662.35 166.75 C 661.84 167.85 661.37 168.95 660.93 170.07 C 659.38 170.14 657.85 170.22 656.32 170.30 C 656.43 170.80 656.66 171.79 656.77 172.28 C 656.26 172.05 655.24 171.59 654.73 171.36 C 653.86 168.96 652.76 166.66 651.39 164.51 C 653.74 161.22 653.55 157.01 654.08 153.18 Z" />
<path fill="#1a1919" opacity="1.00" d=" M 641.70 153.97 C 642.10 156.63 641.22 159.45 638.54 160.55 C 639.30 158.23 640.38 156.02 641.70 153.97 Z" />
<path fill="#040404" opacity="1.00" d=" M 644.56 154.77 C 645.02 154.35 645.93 153.49 646.38 153.07 C 646.99 157.12 647.13 161.50 649.52 165.00 L 649.73 165.35 C 649.33 165.88 648.94 166.41 648.55 166.95 C 648.41 166.54 648.13 165.74 647.99 165.34 C 645.73 165.46 643.48 165.72 641.24 165.96 C 641.33 167.71 641.42 169.46 641.51 171.21 C 640.60 169.37 639.71 167.53 638.82 165.69 C 639.83 164.51 640.77 163.27 641.72 162.03 C 641.53 163.11 641.35 164.18 641.19 165.26 C 642.75 164.86 644.33 164.46 645.91 164.06 C 645.42 160.97 644.83 157.89 644.56 154.77 Z" />
<path fill="#000000" opacity="1.00" d=" M 658.89 160.19 C 659.12 157.93 659.38 155.67 659.88 153.45 C 660.32 154.76 660.81 156.06 661.36 157.33 C 662.41 159.59 663.61 161.78 664.62 164.07 L 664.30 164.74 C 663.97 166.26 663.32 166.93 662.35 166.75 C 661.27 166.30 660.22 165.82 659.17 165.35 C 659.06 163.63 658.96 161.91 658.89 160.19 Z" />
<path fill="#272222" opacity="1.00" d=" M 661.89 154.52 C 663.06 154.90 664.25 155.29 665.44 155.67 C 665.41 158.12 665.44 160.57 665.14 163.01 L 664.62 164.07 C 663.61 161.78 662.41 159.59 661.36 157.33 C 661.49 156.63 661.76 155.22 661.89 154.52 Z" />
<path fill="#040404" opacity="1.00" d=" M 665.65 156.43 C 666.86 157.13 668.07 157.90 669.26 158.66 C 672.02 159.35 674.43 160.98 676.22 163.19 C 673.90 162.10 671.81 159.97 669.04 160.54 C 667.68 159.37 666.41 158.07 665.65 156.43 Z" />
<path fill="#282828" opacity="0.53" d=" M 670.70 157.14 C 673.03 157.49 675.25 158.39 677.12 159.85 C 674.95 159.01 672.81 158.10 670.70 157.14 Z" />
<path fill="#777777" opacity="1.00" d=" M 632.58 160.85 C 633.64 159.77 634.71 158.70 635.78 157.63 C 635.66 158.64 635.55 159.65 635.44 160.67 C 633.49 163.43 630.36 164.92 627.06 165.29 C 627.70 164.05 628.34 162.81 629.03 161.60 C 629.30 161.34 629.84 160.81 630.12 160.55 C 630.93 160.65 631.75 160.75 632.58 160.85 Z" />
<path fill="#a5a3a3" opacity="1.00" d=" M 623.30 159.87 C 624.81 159.48 626.30 158.96 627.82 158.57 L 629.91 158.23 C 628.05 160.07 626.16 161.89 624.51 163.93 C 626.03 163.20 627.55 162.44 629.03 161.60 C 628.34 162.81 627.70 164.05 627.06 165.29 C 626.10 165.38 624.18 165.57 623.21 165.67 C 623.23 163.73 623.27 161.80 623.30 159.87 Z" />
<path fill="#100e0e" opacity="1.00" d=" M 622.18 165.94 C 622.45 163.93 621.64 161.44 623.30 159.87 C 623.27 161.80 623.23 163.73 623.21 165.67 C 624.18 165.57 626.10 165.38 627.06 165.29 C 630.36 164.92 633.49 163.43 635.44 160.67 C 635.50 162.02 635.63 163.38 635.80 164.73 C 631.28 165.31 626.73 165.63 622.18 165.94 Z" />
<path fill="#4c4d4c" opacity="1.00" d=" M 656.09 163.93 C 657.03 162.69 657.98 161.46 658.89 160.19 C 658.96 161.91 659.06 163.63 659.17 165.35 C 658.40 164.99 656.86 164.28 656.09 163.93 Z" />
<path fill="#010101" opacity="0.43" d=" M 679.11 161.38 C 680.73 161.43 680.67 165.65 679.13 165.69 C 678.79 164.32 678.48 162.69 679.11 161.38 Z" />
<path fill="#410e0e" opacity="0.85" d=" M 664.62 164.07 L 665.14 163.01 C 667.75 163.32 670.29 164.05 672.73 165.06 C 669.91 165.31 667.09 165.03 664.30 164.74 L 664.62 164.07 Z" />
<path fill="#2c2d2c" opacity="1.00" d=" M 641.24 165.96 C 643.48 165.72 645.73 165.46 647.99 165.34 C 648.13 165.74 648.41 166.54 648.55 166.95 C 648.48 168.45 647.90 169.90 647.15 171.18 C 645.50 172.29 643.39 171.72 641.54 171.84 L 641.51 171.21 C 641.42 169.46 641.33 167.71 641.24 165.96 Z" />
<path fill="#313333" opacity="0.83" d=" M 656.32 170.30 C 657.85 170.22 659.38 170.14 660.93 170.07 C 660.19 171.76 658.30 171.86 656.77 172.28 C 656.66 171.79 656.43 170.80 656.32 170.30 Z" />
<path fill="#8f1b15" opacity="1.00" d=" M 308.76 381.13 C 310.73 378.46 313.76 376.70 316.97 376.00 C 319.75 375.81 322.09 377.64 324.42 378.88 C 324.02 379.06 323.21 379.44 322.81 379.62 C 322.74 379.57 322.61 379.45 322.54 379.39 L 322.26 379.14 L 320.88 377.87 C 318.65 377.42 316.35 377.43 314.14 377.90 L 312.76 379.19 L 312.60 379.33 C 312.52 379.40 312.37 379.54 312.30 379.61 C 311.88 379.99 311.05 380.75 310.63 381.12 C 310.14 381.16 309.15 381.23 308.65 381.26 L 308.76 381.13 Z" />
<path fill="#4a4b4c" opacity="0.66" d=" M 305.43 378.08 C 305.42 376.46 305.94 376.27 306.98 377.51 C 306.59 377.65 305.81 377.94 305.43 378.08 Z" />
<path fill="#f4d3be" opacity="1.00" d=" M 302.40 381.84 C 302.74 380.30 303.49 377.97 305.43 378.08 C 305.81 377.94 306.59 377.65 306.98 377.51 C 308.46 378.35 309.05 379.56 308.76 381.13 L 308.65 381.26 C 307.56 381.31 306.48 381.36 305.40 381.39 C 305.47 381.66 305.63 382.19 305.71 382.46 C 306.74 382.38 307.91 382.29 308.48 383.37 C 308.01 383.70 307.08 384.36 306.62 384.69 C 306.62 385.83 307.00 386.83 307.76 387.71 C 307.29 388.38 306.36 389.73 305.90 390.40 L 305.57 390.41 C 305.62 388.36 305.57 386.30 305.64 384.25 C 304.45 383.62 302.67 383.43 302.40 381.84 Z" />
<path fill="#673611" opacity="1.00" d=" M 324.42 378.88 C 326.06 378.00 328.00 377.80 329.78 378.40 C 330.41 379.73 330.61 381.21 330.94 382.65 C 329.84 382.57 328.76 382.53 327.66 382.48 C 326.96 381.58 326.25 380.70 325.53 379.82 C 325.52 380.33 325.49 381.35 325.48 381.87 C 324.58 381.12 323.69 380.37 322.81 379.62 C 323.21 379.44 324.02 379.06 324.42 378.88 Z" />
<path fill="#0d5a1a" opacity="0.45" d=" M 312.30 379.61 C 312.37 379.54 312.52 379.40 312.60 379.33 L 312.46 379.48 L 312.30 379.61 Z" />
<path fill="#4adc54" opacity="0.93" d=" M 312.60 379.33 L 312.76 379.19 C 313.89 379.00 316.14 378.61 317.27 378.41 C 315.33 380.06 313.27 381.57 311.44 383.35 C 312.24 383.50 313.82 383.79 314.61 383.93 C 313.16 385.22 311.47 386.18 309.70 386.95 L 309.35 386.60 C 308.51 384.64 309.77 382.79 310.63 381.12 C 311.05 380.75 311.88 379.99 312.30 379.61 L 312.46 379.48 L 312.60 379.33 Z" />
<path fill="#3ce546" opacity="0.97" d=" M 317.98 378.22 C 319.05 378.45 321.19 378.91 322.26 379.14 L 322.54 379.39 L 322.67 379.51 L 322.81 379.62 C 323.69 380.37 324.58 381.12 325.48 381.87 C 325.45 383.21 325.44 384.55 325.44 385.91 C 325.17 385.68 324.64 385.24 324.37 385.02 C 323.59 383.94 322.86 382.84 322.11 381.74 C 321.36 380.28 319.63 379.68 318.08 379.95 L 317.98 378.22 Z" />
<path fill="#0e6a1d" opacity="0.46" d=" M 322.54 379.39 C 322.61 379.45 322.74 379.57 322.81 379.62 L 322.67 379.51 L 322.54 379.39 Z" />
<path fill="#253211" opacity="0.40" d=" M 318.08 379.95 C 319.63 379.68 321.36 380.28 322.11 381.74 C 320.67 381.99 318.13 381.89 318.08 379.95 Z" />
<path fill="#fffeff" opacity="1.00" d=" M 325.53 379.82 C 326.25 380.70 326.96 381.58 327.66 382.48 C 328.76 382.53 329.84 382.57 330.94 382.65 L 329.51 383.97 C 328.53 384.92 327.42 385.81 325.95 385.38 C 325.74 384.21 325.58 383.04 325.48 381.87 C 325.49 381.35 325.52 380.33 325.53 379.82 Z" />
<path fill="#474848" opacity="1.00" d=" M 325.48 381.87 C 325.58 383.04 325.74 384.21 325.95 385.38 C 327.42 385.81 328.53 384.92 329.51 383.97 C 329.51 386.20 329.54 388.45 329.92 390.67 C 329.11 389.76 328.32 388.89 327.58 387.94 C 327.28 386.73 326.57 386.05 325.44 385.91 C 325.44 384.55 325.45 383.21 325.48 381.87 Z" />
<path fill="#000000" opacity="1.00" d=" M 306.62 384.69 C 307.08 384.36 308.01 383.70 308.48 383.37 C 308.61 384.73 308.07 386.68 309.58 387.46 L 309.57 387.98 C 309.11 387.91 308.21 387.78 307.76 387.71 C 307.00 386.83 306.62 385.83 306.62 384.69 Z" />
<path fill="#fffeff" opacity="1.00" d=" M 314.61 383.93 C 315.59 383.86 316.57 383.77 317.54 383.67 C 317.50 384.23 317.42 385.35 317.38 385.92 L 318.54 386.60 L 319.03 386.89 C 318.70 387.26 318.04 388.00 317.71 388.37 C 315.61 388.34 313.50 388.37 311.41 388.48 L 311.46 389.87 C 311.11 389.71 310.40 389.40 310.05 389.25 C 309.93 388.93 309.69 388.30 309.57 387.98 L 309.58 387.46 L 309.70 386.95 C 311.47 386.18 313.16 385.22 314.61 383.93 M 312.09 386.36 C 311.55 387.95 312.13 388.48 313.81 387.94 C 314.32 386.34 313.75 385.81 312.09 386.36 Z" />
<path fill="#48fa51" opacity="1.00" d=" M 317.54 383.67 C 319.83 383.34 322.40 383.07 324.20 384.90 C 322.34 385.55 320.46 386.14 318.54 386.60 L 317.38 385.92 C 317.42 385.35 317.50 384.23 317.54 383.67 Z" />
<path fill="#a5a3a3" opacity="1.00" d=" M 318.54 386.60 C 320.46 386.14 322.34 385.55 324.20 384.90 L 324.37 385.02 C 324.64 385.24 325.17 385.68 325.44 385.91 C 325.33 386.29 325.11 387.06 325.00 387.44 C 324.83 388.03 324.50 389.21 324.34 389.80 C 323.68 389.48 322.36 388.84 321.69 388.51 C 321.62 388.47 321.48 388.39 321.40 388.35 C 320.81 387.99 319.62 387.25 319.03 386.89 L 318.54 386.60 Z" />
<path fill="#7e7b8d" opacity="0.97" d=" M 312.09 386.36 C 313.75 385.81 314.32 386.34 313.81 387.94 C 312.13 388.48 311.55 387.95 312.09 386.36 Z" />
<path fill="#69d258" opacity="0.95" d=" M 319.03 386.89 C 319.62 387.25 320.81 387.99 321.40 388.35 L 321.54 388.44 L 321.69 388.51 C 322.36 388.84 323.68 389.48 324.34 389.80 C 324.50 389.21 324.83 388.03 325.00 387.44 C 325.31 388.04 325.93 389.23 326.23 389.82 C 325.62 390.98 325.04 392.16 324.50 393.37 C 324.63 393.51 324.89 393.80 325.02 393.95 L 324.49 394.13 L 324.59 394.65 C 322.45 395.37 320.30 396.08 318.12 396.64 C 318.35 393.94 321.01 393.71 323.06 393.08 C 323.64 392.15 324.23 391.23 324.83 390.32 C 320.39 389.93 315.76 391.16 311.46 389.87 L 311.41 388.48 C 313.50 388.37 315.61 388.34 317.71 388.37 C 318.04 388.00 318.70 387.26 319.03 386.89 Z" />
<path fill="#785339" opacity="0.82" d=" M 307.76 387.71 C 308.21 387.78 309.11 387.91 309.57 387.98 C 309.69 388.30 309.93 388.93 310.05 389.25 C 309.31 390.57 308.86 391.99 308.70 393.51 L 308.59 393.50 C 307.70 392.44 306.86 391.38 305.90 390.40 C 306.36 389.73 307.29 388.38 307.76 387.71 Z" />
<path fill="#e5d13f" opacity="0.96" d=" M 321.40 388.35 C 321.48 388.39 321.62 388.47 321.69 388.51 L 321.54 388.44 L 321.40 388.35 Z" />
<path fill="#721112" opacity="0.69" d=" M 327.58 387.94 C 328.32 388.89 329.11 389.76 329.92 390.67 C 329.94 391.12 329.96 392.01 329.97 392.46 C 329.01 392.65 327.08 393.04 326.11 393.23 C 325.71 393.27 324.90 393.33 324.50 393.37 C 325.04 392.16 325.62 390.98 326.23 389.82 C 326.57 389.35 327.24 388.41 327.58 387.94 Z" />
<path fill="#ffffff" opacity="1.00" d=" M 26.04 396.91 C 26.88 392.21 31.59 389.40 36.01 388.79 C 41.16 388.06 46.96 388.45 51.26 391.66 C 55.39 394.73 54.57 400.46 54.80 404.97 C 50.61 405.02 46.43 405.00 42.24 404.99 C 42.20 402.68 42.48 400.32 41.93 398.05 C 41.22 397.17 39.45 396.66 38.82 397.92 C 37.27 400.57 37.62 404.80 40.40 406.55 C 45.00 409.91 50.50 412.43 53.87 417.18 C 56.51 421.99 56.28 427.86 55.59 433.15 C 54.92 438.23 49.75 440.97 45.14 441.68 C 39.24 442.65 32.13 441.67 28.20 436.70 C 25.50 432.51 26.07 427.21 26.05 422.46 C 30.20 422.52 34.36 422.49 38.51 422.50 C 38.70 425.88 37.93 429.44 39.14 432.70 C 40.65 434.08 42.94 432.89 43.10 430.98 C 43.36 428.40 43.56 425.41 41.99 423.19 C 37.94 419.37 32.67 417.09 28.69 413.18 C 24.89 408.74 25.08 402.33 26.04 396.91 Z" />
<path fill="#ffffff" opacity="1.00" d=" M 60.74 389.52 C 65.14 389.48 69.55 389.52 73.95 389.47 C 74.06 395.56 73.97 401.66 74.01 407.76 C 75.34 407.75 76.66 407.75 77.99 407.75 C 78.03 401.65 77.93 395.55 78.06 389.46 C 82.46 389.53 86.86 389.48 91.26 389.51 C 91.24 406.67 91.26 423.84 91.25 441.00 C 86.83 441.00 82.42 441.00 78.00 441.00 C 78.00 433.75 78.01 426.50 77.99 419.25 C 76.67 419.24 75.34 419.24 74.01 419.24 C 73.99 426.49 74.01 433.75 74.00 441.00 C 69.58 441.00 65.17 441.00 60.75 441.00 C 60.74 423.84 60.76 406.68 60.74 389.52 Z" />
<path fill="#ffffff" opacity="1.00" d=" M 106.07 389.21 C 111.05 387.91 116.62 388.21 121.12 390.84 C 124.65 392.88 126.81 396.86 126.98 400.90 C 127.53 408.93 127.14 417.00 127.24 425.05 C 127.39 430.32 126.41 436.47 121.48 439.44 C 113.82 444.18 100.93 442.77 97.32 433.56 C 95.63 427.54 96.45 421.17 96.25 415.00 C 96.32 409.69 95.98 404.35 96.76 399.08 C 97.47 394.27 101.46 390.41 106.07 389.21 M 109.87 397.70 C 109.15 403.74 109.64 409.84 109.50 415.90 C 109.65 421.66 109.11 427.46 109.95 433.18 C 111.20 433.03 113.20 433.64 113.63 431.96 C 114.44 425.34 113.80 418.63 114.00 411.97 C 113.79 407.42 114.48 402.78 113.56 398.30 C 112.97 396.53 111.17 397.57 109.87 397.70 Z" />
<path fill="#ffffff" opacity="1.00" d=" M 130.50 389.50 C 140.17 389.50 149.83 389.50 159.50 389.50 C 159.50 392.91 159.50 396.33 159.51 399.75 C 156.84 399.75 154.17 399.75 151.50 399.75 C 151.52 413.49 151.46 427.22 151.53 440.96 C 147.10 441.03 142.67 441.00 138.24 440.99 C 138.26 427.24 138.24 413.50 138.25 399.75 C 135.66 399.75 133.08 399.75 130.49 399.75 C 130.50 396.33 130.50 392.91 130.50 389.50 Z" />
<path fill="#ffff00" opacity="1.00" d=" M 173.73 389.53 C 178.14 389.47 182.54 389.52 186.95 389.46 C 187.07 406.64 186.96 423.82 187.00 441.00 C 182.58 441.00 178.17 441.00 173.75 441.00 C 173.74 423.84 173.77 406.69 173.73 389.53 Z" />
<path fill="#ffff00" opacity="1.00" d=" M 255.74 389.53 C 260.14 389.47 264.54 389.52 268.95 389.46 C 269.01 402.67 269.07 415.89 268.93 429.09 C 269.24 435.30 264.23 440.88 258.16 441.68 C 251.23 442.92 241.90 441.00 239.32 433.53 C 238.24 429.47 238.56 425.20 238.49 421.04 C 238.51 410.53 238.49 400.01 238.50 389.50 C 242.92 389.50 247.35 389.47 251.78 389.53 C 251.71 402.03 251.79 414.52 251.74 427.01 C 251.70 429.02 251.89 431.03 252.19 433.02 C 252.95 433.07 254.47 433.16 255.23 433.21 C 255.95 429.53 255.74 425.78 255.75 422.06 C 255.74 411.22 255.77 400.37 255.74 389.53 Z" />
<path fill="#ffff00" opacity="1.00" d=" M 192.75 389.50 C 196.42 389.49 200.10 389.47 203.77 389.55 C 206.24 396.86 208.31 404.32 211.07 411.52 C 211.44 404.20 211.18 396.86 211.22 389.53 C 214.98 389.48 218.74 389.50 222.49 389.50 C 222.54 406.65 222.45 423.80 222.54 440.95 C 218.70 441.02 214.86 441.00 211.02 441.00 C 208.75 433.30 206.16 425.68 204.37 417.84 C 203.62 425.53 204.16 433.28 204.00 441.00 C 200.25 441.00 196.50 441.00 192.75 441.00 C 192.75 423.83 192.75 406.67 192.75 389.50 Z" />
<path fill="#ffff00" opacity="1.00" d=" M 274.75 389.50 C 280.80 389.61 286.87 389.24 292.91 389.70 C 296.74 389.95 301.18 391.45 302.59 395.42 C 303.94 399.79 303.41 404.45 303.51 408.96 C 303.40 412.03 303.37 415.70 300.76 417.82 C 297.15 420.61 292.32 420.27 288.02 420.25 C 287.98 427.16 288.01 434.08 288.00 441.00 C 283.58 441.00 279.16 441.00 274.75 441.00 C 274.75 423.83 274.75 406.67 274.75 389.50 M 288.14 397.89 C 287.90 402.49 287.99 407.10 288.05 411.70 C 289.40 411.34 291.28 411.61 291.90 410.02 C 292.41 406.47 292.61 402.72 291.72 399.22 C 290.62 398.55 289.34 398.28 288.14 397.89 Z" />
<path fill="#560402" opacity="0.46" d=" M 302.73 389.94 C 303.64 390.31 304.59 390.47 305.57 390.41 L 305.90 390.40 C 306.86 391.38 307.70 392.44 308.59 393.50 C 307.78 393.44 306.18 393.30 305.38 393.24 C 304.78 393.17 303.58 393.04 302.98 392.97 C 302.92 392.22 302.79 390.70 302.73 389.94 Z" />
<path fill="#862c15" opacity="0.74" d=" M 308.70 393.51 C 308.86 391.99 309.31 390.57 310.05 389.25 C 310.40 389.40 311.11 389.71 311.46 389.87 C 315.76 391.16 320.39 389.93 324.83 390.32 C 324.23 391.23 323.64 392.15 323.06 393.08 C 321.02 391.92 318.78 391.18 316.44 391.09 C 314.81 391.54 313.17 391.98 311.55 392.45 C 311.12 392.64 310.24 393.03 309.80 393.22 L 308.70 393.51 Z" />
<path fill="#3e0501" opacity="0.31" d=" M 311.55 392.45 C 313.17 391.98 314.81 391.54 316.44 391.09 C 318.78 391.18 321.02 391.92 323.06 393.08 C 319.38 393.71 315.61 393.78 311.91 393.32 L 311.55 392.45 Z" />
<path fill="#950000" opacity="0.89" d=" M 331.38 391.38 C 331.64 391.64 331.64 391.64 331.38 391.38 Z" />
<path fill="#b9b9ba" opacity="1.00" d=" M 309.80 393.22 C 310.24 393.03 311.12 392.64 311.55 392.45 L 311.91 393.32 L 311.43 394.36 L 310.53 394.59 C 310.35 394.25 309.98 393.56 309.80 393.22 Z" />
<path fill="#ffff00" opacity="1.00" d=" M 305.38 393.24 C 306.18 393.30 307.78 393.44 308.59 393.50 L 308.70 393.51 L 309.80 393.22 C 309.98 393.56 310.35 394.25 310.53 394.59 L 310.68 395.44 L 310.10 395.24 C 308.59 394.67 307.01 394.34 305.41 394.18 C 305.40 393.94 305.39 393.47 305.38 393.24 Z" />
<path fill="#ffff00" opacity="1.00" d=" M 311.91 393.32 C 315.61 393.78 319.38 393.71 323.06 393.08 C 321.01 393.71 318.35 393.94 318.12 396.64 C 318.25 396.02 318.51 394.80 318.64 394.19 C 318.06 394.24 316.91 394.35 316.33 394.40 C 315.12 394.37 313.92 394.45 312.73 394.65 C 312.41 394.58 311.76 394.43 311.43 394.36 L 311.91 393.32 Z" />
<path fill="#ffff00" opacity="1.00" d=" M 325.02 393.95 C 324.89 393.80 324.63 393.51 324.50 393.37 C 324.90 393.33 325.71 393.27 326.11 393.23 C 326.80 393.25 328.16 393.27 328.85 393.28 C 328.84 393.51 328.83 393.96 328.82 394.18 C 328.04 394.30 326.47 394.54 325.69 394.65 L 325.63 394.59 C 325.47 394.43 325.17 394.11 325.02 393.95 Z" />
<path fill="#73de67" opacity="0.93" d=" M 312.73 394.65 C 313.92 394.45 315.12 394.37 316.33 394.40 C 317.49 397.11 313.40 396.37 312.73 394.65 Z" />
<path fill="#2b5011" opacity="0.31" d=" M 324.49 394.13 L 325.02 393.95 C 324.91 394.12 324.70 394.47 324.59 394.65 L 324.49 394.13 Z" />
<path fill="#f4d3be" opacity="1.00" d=" M 325.02 393.95 C 325.17 394.11 325.47 394.43 325.63 394.59 C 323.68 396.30 321.59 398.03 318.99 398.61 C 316.39 399.43 313.99 397.76 311.84 396.55 C 310.66 396.57 309.49 396.59 308.33 396.61 C 308.91 396.15 309.50 395.69 310.10 395.24 L 310.68 395.44 C 314.88 398.25 321.08 399.05 324.59 394.65 C 324.70 394.47 324.91 394.12 325.02 393.95 Z" />
</svg>
