<?xml version="1.0" encoding="UTF-8" ?>
<!DOCTYPE svg PUBLIC "-//W3C//DTD SVG 1.1//EN" "http://www.w3.org/Graphics/SVG/1.1/DTD/svg11.dtd">
<svg width="960pt" height="540pt" viewBox="0 0 960 540" version="1.1" xmlns="http://www.w3.org/2000/svg">
<path fill="#dddbe1" opacity="1.00" d=" M 496.61 44.50 C 498.99 42.13 501.40 39.79 503.89 37.52 C 519.29 41.89 534.78 45.94 550.11 50.58 C 547.07 53.46 544.79 57.26 540.92 59.12 C 536.57 61.44 534.55 66.22 531.12 69.50 C 517.69 65.57 504.25 61.66 490.94 57.34 C 488.76 56.70 486.45 55.92 484.20 56.64 C 484.06 54.36 486.05 52.98 487.39 51.45 C 490.13 48.75 492.79 45.62 496.61 44.50 M 496.27 54.32 C 495.50 55.08 494.74 55.83 493.99 56.59 C 498.03 57.73 502.08 58.90 506.10 60.11 C 506.43 59.24 506.76 58.38 507.10 57.52 C 503.42 56.68 499.84 55.52 496.27 54.32 Z" />
<path fill="#a2a0a5" opacity="1.00" d=" M 540.92 59.12 C 544.79 57.26 547.07 53.46 550.11 50.58 C 550.63 53.61 551.04 56.67 550.89 59.75 C 550.48 59.68 549.66 59.52 549.25 59.44 C 544.17 65.21 538.78 70.72 533.76 76.55 C 532.36 75.80 530.97 75.03 529.59 74.26 C 530.19 73.62 531.39 72.35 531.99 71.71 C 529.40 70.76 526.75 70.00 524.06 69.40 C 523.41 70.59 522.78 71.78 522.08 72.93 C 522.23 72.49 522.54 71.62 522.69 71.18 C 522.86 70.62 523.19 69.50 523.36 68.94 C 516.90 66.93 510.52 64.63 503.92 63.10 C 503.43 63.49 502.46 64.27 501.97 64.66 C 501.76 64.63 501.33 64.57 501.11 64.53 C 501.54 64.12 502.39 63.29 502.82 62.88 C 496.58 60.73 490.25 58.83 483.79 57.46 L 484.20 56.64 C 486.45 55.92 488.76 56.70 490.94 57.34 C 504.25 61.66 517.69 65.57 531.12 69.50 C 534.55 66.22 536.57 61.44 540.92 59.12 Z" />
<path fill="#070707" opacity="0.69" d=" M 550.11 50.58 C 552.40 54.99 553.72 61.10 550.05 65.16 C 544.04 72.78 537.36 79.86 531.03 87.22 C 530.43 87.13 529.25 86.96 528.66 86.87 C 534.55 80.34 540.37 73.76 546.18 67.16 C 547.95 64.85 550.29 62.72 550.89 59.75 C 551.04 56.67 550.63 53.61 550.11 50.58 Z" />
<path fill="#c1bfc5" opacity="1.00" d=" M 496.27 54.32 C 499.84 55.52 503.42 56.68 507.10 57.52 C 506.76 58.38 506.43 59.24 506.10 60.11 C 502.08 58.90 498.03 57.73 493.99 56.59 C 494.74 55.83 495.50 55.08 496.27 54.32 Z" />
<path fill="#e2dfe4" opacity="1.00" d=" M 469.53 71.51 C 474.23 66.78 479.39 62.47 483.79 57.46 C 490.25 58.83 496.58 60.73 502.82 62.88 C 502.39 63.29 501.54 64.12 501.11 64.53 C 500.79 64.49 500.16 64.41 499.84 64.36 C 495.97 62.91 491.99 61.78 488.05 60.54 C 487.06 61.46 486.09 62.39 485.12 63.33 C 484.92 63.54 484.51 63.96 484.31 64.17 C 488.28 66.29 493.19 66.21 496.96 68.85 C 495.07 70.70 493.24 72.60 491.47 74.55 C 494.32 75.21 497.16 75.94 499.97 76.74 C 501.98 74.86 503.97 72.97 505.97 71.08 C 510.49 72.44 515.12 73.57 519.40 75.63 C 520.31 74.76 521.28 73.92 522.08 72.93 C 522.78 71.78 523.41 70.59 524.06 69.40 C 526.75 70.00 529.40 70.76 531.99 71.71 C 531.39 72.35 530.19 73.62 529.59 74.26 C 525.41 78.50 521.66 83.14 517.45 87.35 C 515.25 86.63 513.05 85.91 510.86 85.17 C 511.33 84.03 511.80 82.89 512.29 81.75 C 510.69 82.68 509.26 84.91 507.20 83.89 C 502.20 82.37 497.25 80.68 492.22 79.24 C 484.73 76.44 476.79 74.89 469.53 71.51 Z" />
<path fill="#b1afb5" opacity="1.00" d=" M 549.25 59.44 C 549.66 59.52 550.48 59.68 550.89 59.75 C 550.29 62.72 547.95 64.85 546.18 67.16 C 540.37 73.76 534.55 80.34 528.66 86.87 C 529.25 86.96 530.43 87.13 531.03 87.22 L 531.93 87.36 C 528.30 87.69 524.65 88.64 521.76 90.95 C 520.59 91.82 519.44 92.73 518.28 93.60 C 517.91 91.53 517.60 89.45 517.45 87.35 C 521.66 83.14 525.41 78.50 529.59 74.26 C 530.97 75.03 532.36 75.80 533.76 76.55 C 538.78 70.72 544.17 65.21 549.25 59.44 Z" />
<path fill="#4438ae" opacity="1.00" d=" M 485.12 63.33 C 486.09 62.39 487.06 61.46 488.05 60.54 C 491.99 61.78 495.97 62.91 499.84 64.36 C 495.01 65.12 489.86 64.51 485.12 63.33 Z" />
<path fill="#685cd3" opacity="1.00" d=" M 484.31 64.17 C 484.51 63.96 484.92 63.54 485.12 63.33 C 489.86 64.51 495.01 65.12 499.84 64.36 C 500.16 64.41 500.79 64.49 501.11 64.53 C 501.33 64.57 501.76 64.63 501.97 64.66 L 502.02 65.90 C 500.68 67.14 499.44 68.53 497.82 69.39 L 496.96 68.85 C 493.19 66.21 488.28 66.29 484.31 64.17 Z" />
<path fill="#dcd9e1" opacity="1.00" d=" M 501.97 64.66 C 502.46 64.27 503.43 63.49 503.92 63.10 C 510.52 64.63 516.90 66.93 523.36 68.94 C 523.19 69.50 522.86 70.62 522.69 71.18 C 517.85 69.81 513.14 67.99 508.19 67.08 C 506.12 66.73 504.06 66.34 502.02 65.90 L 501.97 64.66 Z" />
<path fill="#b0adbc" opacity="1.00" d=" M 497.82 69.39 C 499.44 68.53 500.68 67.14 502.02 65.90 C 504.06 66.34 506.12 66.73 508.19 67.08 C 507.02 68.29 505.85 69.49 504.68 70.70 L 505.97 71.08 C 503.97 72.97 501.98 74.86 499.97 76.74 C 497.16 75.94 494.32 75.21 491.47 74.55 C 493.24 72.60 495.07 70.70 496.96 68.85 L 497.82 69.39 Z" />
<path fill="#594ec5" opacity="1.00" d=" M 508.19 67.08 C 513.14 67.99 517.85 69.81 522.69 71.18 C 522.54 71.62 522.23 72.49 522.08 72.93 C 521.28 73.92 520.31 74.76 519.40 75.63 C 515.12 73.57 510.49 72.44 505.97 71.08 L 504.68 70.70 C 505.85 69.49 507.02 68.29 508.19 67.08 M 511.41 70.26 C 511.47 71.79 515.18 73.07 515.78 71.29 C 515.09 69.76 512.75 69.52 511.41 70.26 Z" />
<path fill="#786dd7" opacity="1.00" d=" M 511.41 70.26 C 512.75 69.52 515.09 69.76 515.78 71.29 C 515.18 73.07 511.47 71.79 511.41 70.26 Z" />
<path fill="#dcd9de" opacity="1.00" d=" M 445.01 74.05 C 449.20 72.70 453.47 70.02 457.99 71.77 C 455.15 72.24 451.70 72.40 449.88 74.97 C 448.00 77.64 448.60 81.06 448.88 84.09 L 447.90 83.64 C 447.72 83.21 447.35 82.33 447.16 81.90 C 446.27 83.22 445.41 84.57 444.54 85.90 L 443.78 86.22 C 443.63 85.54 443.32 84.19 443.17 83.51 C 441.60 83.92 440.74 85.69 440.91 87.22 C 440.44 87.31 439.51 87.50 439.04 87.60 C 438.89 87.39 438.59 86.97 438.44 86.76 C 438.25 86.18 437.87 85.02 437.67 84.43 C 437.14 84.42 436.06 84.40 435.53 84.39 L 434.61 83.04 C 434.09 82.95 433.06 82.77 432.54 82.68 C 432.61 83.46 432.73 85.02 432.80 85.80 C 432.34 85.87 431.42 86.01 430.96 86.08 C 430.90 85.31 430.77 83.79 430.71 83.03 C 429.93 85.24 428.85 87.32 427.36 89.14 C 426.92 85.99 427.09 82.80 427.65 79.68 C 432.77 76.20 439.33 76.24 445.01 74.05 M 437.95 80.71 C 441.03 80.00 444.09 79.17 447.07 78.10 C 446.82 77.51 446.30 76.33 446.04 75.74 C 443.24 76.98 437.35 76.26 437.95 80.71 Z" />
<path fill="#bfbdc3" opacity="1.00" d=" M 469.34 71.42 L 469.53 71.51 C 476.79 74.89 484.73 76.44 492.22 79.24 C 491.44 80.58 490.65 81.91 489.86 83.24 C 489.46 81.76 488.98 80.31 488.50 78.85 C 488.12 80.29 487.75 81.74 487.45 83.19 C 484.70 80.61 480.74 80.24 477.34 78.92 C 476.12 80.20 474.90 81.48 473.70 82.77 C 473.09 82.59 471.86 82.22 471.25 82.04 L 470.43 81.80 C 470.28 81.27 469.99 80.22 469.85 79.69 C 469.55 78.49 469.33 77.27 469.21 76.04 C 469.21 74.50 469.29 72.96 469.34 71.42 M 473.23 78.29 C 473.76 78.79 473.76 78.79 473.23 78.29 Z" />
<path fill="#1a1a1b" opacity="0.72" d=" M 430.37 73.55 C 433.46 72.43 436.82 71.20 440.15 72.06 L 440.73 73.35 C 435.68 73.26 430.45 74.35 426.28 77.29 C 423.58 79.17 423.50 82.90 424.86 85.62 C 424.85 86.08 424.84 87.00 424.83 87.46 C 422.80 85.82 421.21 82.99 422.49 80.41 C 423.58 76.81 427.08 74.83 430.37 73.55 Z" />
<path fill="#000000" opacity="0.35" d=" M 440.15 72.06 C 441.61 73.13 442.98 74.78 445.01 74.05 C 439.33 76.24 432.77 76.20 427.65 79.68 C 426.49 81.54 425.52 83.53 424.86 85.62 C 423.50 82.90 423.58 79.17 426.28 77.29 C 430.45 74.35 435.68 73.26 440.73 73.35 L 440.15 72.06 Z" />
<path fill="#b3b0c0" opacity="1.00" d=" M 449.88 74.97 C 451.70 72.40 455.15 72.24 457.99 71.77 C 459.98 72.70 461.46 74.38 463.00 75.90 C 462.99 76.72 462.96 78.34 462.94 79.16 C 461.81 78.17 460.68 77.18 459.56 76.20 C 459.09 76.88 458.62 77.56 458.16 78.25 L 457.68 78.95 C 457.17 79.61 456.70 80.29 456.27 80.99 C 456.03 81.38 455.54 82.17 455.30 82.56 C 455.18 82.16 454.92 81.36 454.79 80.96 C 454.51 79.99 454.24 79.02 453.99 78.05 C 454.51 77.98 455.54 77.83 456.06 77.76 C 455.96 77.00 455.75 75.48 455.64 74.72 C 452.41 75.93 450.78 79.24 451.57 82.56 C 450.84 83.14 450.12 83.73 449.41 84.34 L 448.88 84.09 C 448.60 81.06 448.00 77.64 449.88 74.97 Z" />
<path fill="#c8c5e8" opacity="1.00" d=" M 451.57 82.56 C 450.78 79.24 452.41 75.93 455.64 74.72 C 455.75 75.48 455.96 77.00 456.06 77.76 C 455.54 77.83 454.51 77.98 453.99 78.05 C 454.24 79.02 454.51 79.99 454.79 80.96 C 453.99 81.36 452.38 82.16 451.57 82.56 Z" />
<path fill="#c4c2c8" opacity="1.00" d=" M 437.95 80.71 C 437.35 76.26 443.24 76.98 446.04 75.74 C 446.30 76.33 446.82 77.51 447.07 78.10 C 444.09 79.17 441.03 80.00 437.95 80.71 Z" />
<path fill="#9997a5" opacity="1.00" d=" M 458.16 78.25 C 458.62 77.56 459.09 76.88 459.56 76.20 C 460.68 77.18 461.81 78.17 462.94 79.16 C 462.96 78.34 462.99 76.72 463.00 75.90 C 464.84 75.81 466.68 75.87 468.52 76.09 C 466.77 76.21 465.02 76.29 463.29 76.36 C 463.59 77.88 463.83 79.42 464.01 80.96 C 463.57 84.65 461.07 87.62 457.72 89.10 C 454.76 87.86 451.97 86.27 449.41 84.34 C 450.12 83.73 450.84 83.14 451.57 82.56 C 452.38 82.16 453.99 81.36 454.79 80.96 C 454.92 81.36 455.18 82.16 455.30 82.56 C 455.58 83.69 456.60 84.35 457.38 85.12 C 457.68 84.44 458.27 83.08 458.57 82.40 C 458.84 82.26 459.39 81.97 459.66 81.82 C 459.44 81.42 459.00 80.62 458.79 80.21 C 462.25 80.98 460.86 76.13 458.16 78.25 Z" />
<path fill="#000000" opacity="0.39" d=" M 468.52 76.09 L 469.21 76.04 C 469.33 77.27 469.55 78.49 469.85 79.69 C 468.40 79.56 466.95 79.43 465.51 79.31 C 465.34 81.64 465.61 84.22 463.97 86.13 C 464.04 84.41 464.05 82.68 464.01 80.96 C 463.83 79.42 463.59 77.88 463.29 76.36 C 465.02 76.29 466.77 76.21 468.52 76.09 Z" />
<path fill="#473ca8" opacity="1.00" d=" M 458.16 78.25 C 460.86 76.13 462.25 80.98 458.79 80.21 C 458.51 79.90 457.95 79.27 457.68 78.95 L 458.16 78.25 Z" />
<path fill="#8e8c93" opacity="1.00" d=" M 473.23 78.29 C 473.76 78.79 473.76 78.79 473.23 78.29 Z" />
<path fill="#d3d1d2" opacity="1.00" d=" M 456.27 80.99 C 456.70 80.29 457.17 79.61 457.68 78.95 C 457.95 79.27 458.51 79.90 458.79 80.21 C 459.00 80.62 459.44 81.42 459.66 81.82 C 459.39 81.97 458.84 82.26 458.57 82.40 C 457.99 82.05 456.84 81.34 456.27 80.99 Z" />
<path fill="#312f35" opacity="1.00" d=" M 477.34 78.92 C 480.74 80.24 484.70 80.61 487.45 83.19 C 487.33 83.81 487.10 85.05 486.99 85.67 C 486.35 86.33 485.72 86.99 485.09 87.66 C 486.07 88.05 487.05 88.45 488.04 88.84 C 481.32 88.04 474.61 88.76 468.03 90.16 C 467.58 89.80 466.68 89.08 466.24 88.72 C 468.11 86.66 469.89 84.49 471.25 82.04 C 471.86 82.22 473.09 82.59 473.70 82.77 C 474.90 81.48 476.12 80.20 477.34 78.92 M 468.44 88.33 C 470.64 88.54 472.86 88.43 475.04 87.98 C 474.89 87.54 474.60 86.66 474.45 86.21 L 474.05 86.35 C 473.76 85.56 473.18 83.97 472.88 83.18 C 471.25 84.76 469.67 86.41 468.44 88.33 Z" />
<path fill="#97959b" opacity="1.00" d=" M 488.50 78.85 C 488.98 80.31 489.46 81.76 489.86 83.24 C 490.00 84.78 490.08 86.32 490.17 87.86 C 492.23 89.16 494.26 90.52 496.34 91.80 C 493.52 90.98 490.77 89.92 488.04 88.84 C 487.05 88.45 486.07 88.05 485.09 87.66 C 485.72 86.99 486.35 86.33 486.99 85.67 C 487.10 85.05 487.33 83.81 487.45 83.19 C 487.75 81.74 488.12 80.29 488.50 78.85 Z" />
<path fill="#cccad0" opacity="1.00" d=" M 492.22 79.24 C 497.25 80.68 502.20 82.37 507.20 83.89 C 509.26 84.91 510.69 82.68 512.29 81.75 C 511.80 82.89 511.33 84.03 510.86 85.17 C 513.05 85.91 515.25 86.63 517.45 87.35 C 517.60 89.45 517.91 91.53 518.28 93.60 C 516.12 93.35 514.01 92.76 511.93 92.17 C 512.41 93.76 512.86 95.36 513.26 96.98 L 511.83 96.74 C 510.46 92.82 511.59 88.35 509.49 84.65 C 508.63 88.56 509.07 92.56 510.03 96.40 C 505.52 94.71 500.92 93.27 496.34 91.80 C 494.26 90.52 492.23 89.16 490.17 87.86 C 490.08 86.32 490.00 84.78 489.86 83.24 C 490.65 81.91 491.44 80.58 492.22 79.24 M 498.20 86.28 C 498.32 86.75 498.56 87.70 498.68 88.18 C 501.74 89.41 504.89 90.52 508.17 90.98 C 505.79 87.85 501.51 87.86 498.20 86.28 Z" />
<path fill="#cfcdd4" opacity="1.00" d=" M 424.86 85.62 C 425.52 83.53 426.49 81.54 427.65 79.68 C 427.09 82.80 426.92 85.99 427.36 89.14 C 428.85 87.32 429.93 85.24 430.71 83.03 C 430.77 83.79 430.90 85.31 430.96 86.08 C 431.24 87.07 431.55 88.06 431.88 89.05 C 432.28 88.88 433.10 88.53 433.51 88.36 C 434.28 90.60 435.94 90.67 437.47 88.97 C 436.92 88.74 435.82 88.27 435.27 88.04 C 436.32 87.61 437.38 87.19 438.44 86.76 C 438.59 86.97 438.89 87.39 439.04 87.60 C 439.51 87.50 440.44 87.31 440.91 87.22 C 441.90 87.01 442.86 86.67 443.78 86.22 L 444.54 85.90 C 445.93 85.61 447.06 84.77 447.90 83.64 L 448.88 84.09 L 449.41 84.34 C 451.97 86.27 454.76 87.86 457.72 89.10 C 452.23 88.37 446.75 89.49 441.80 91.92 C 439.39 93.54 437.15 95.93 434.00 95.84 C 431.08 96.14 428.79 94.11 426.81 92.27 C 425.74 90.87 425.19 89.15 424.83 87.46 C 424.84 87.00 424.85 86.08 424.86 85.62 Z" />
<path fill="#4438ae" opacity="1.00" d=" M 456.27 80.99 C 456.84 81.34 457.99 82.05 458.57 82.40 C 458.27 83.08 457.68 84.44 457.38 85.12 C 456.60 84.35 455.58 83.69 455.30 82.56 C 455.54 82.17 456.03 81.38 456.27 80.99 Z" />
<path fill="#070707" opacity="0.69" d=" M 457.72 89.10 C 461.07 87.62 463.57 84.65 464.01 80.96 C 464.05 82.68 464.04 84.41 463.97 86.13 C 462.26 88.79 459.46 91.23 456.06 90.67 C 451.66 90.11 447.48 91.79 443.42 93.25 C 440.68 94.80 438.52 97.99 434.98 97.55 C 431.27 98.07 428.75 94.92 426.81 92.27 C 428.79 94.11 431.08 96.14 434.00 95.84 C 437.15 95.93 439.39 93.54 441.80 91.92 C 446.75 89.49 452.23 88.37 457.72 89.10 Z" />
<path fill="#19181d" opacity="1.00" d=" M 444.54 85.90 C 445.41 84.57 446.27 83.22 447.16 81.90 C 447.35 82.33 447.72 83.21 447.90 83.64 C 447.06 84.77 445.93 85.61 444.54 85.90 Z" />
<path fill="#39373d" opacity="1.00" d=" M 432.54 82.68 C 433.06 82.77 434.09 82.95 434.61 83.04 L 435.53 84.39 C 436.06 84.40 437.14 84.42 437.67 84.43 C 437.87 85.02 438.25 86.18 438.44 86.76 C 437.38 87.19 436.32 87.61 435.27 88.04 C 435.82 88.27 436.92 88.74 437.47 88.97 C 435.94 90.67 434.28 90.60 433.51 88.36 C 433.10 88.53 432.28 88.88 431.88 89.05 C 431.55 88.06 431.24 87.07 430.96 86.08 C 431.42 86.01 432.34 85.87 432.80 85.80 C 432.73 85.02 432.61 83.46 432.54 82.68 Z" />
<path fill="#19181d" opacity="1.00" d=" M 440.91 87.22 C 440.74 85.69 441.60 83.92 443.17 83.51 C 443.32 84.19 443.63 85.54 443.78 86.22 C 442.86 86.67 441.90 87.01 440.91 87.22 Z" />
<path fill="#090909" opacity="0.42" d=" M 468.44 88.33 C 469.67 86.41 471.25 84.76 472.88 83.18 C 473.18 83.97 473.76 85.56 474.05 86.35 C 472.19 87.04 470.33 87.75 468.44 88.33 Z" />
<path fill="#908e93" opacity="1.00" d=" M 509.49 84.65 C 511.59 88.35 510.46 92.82 511.83 96.74 C 511.22 96.64 510.62 96.53 510.03 96.40 C 509.07 92.56 508.63 88.56 509.49 84.65 Z" />
<path fill="#39373d" opacity="1.00" d=" M 498.20 86.28 C 501.51 87.86 505.79 87.85 508.17 90.98 C 504.89 90.52 501.74 89.41 498.68 88.18 C 498.56 87.70 498.32 86.75 498.20 86.28 Z" />
<path fill="#070707" opacity="0.69" d=" M 468.03 90.16 C 474.61 88.76 481.32 88.04 488.04 88.84 C 490.77 89.92 493.52 90.98 496.34 91.80 C 500.92 93.27 505.52 94.71 510.03 96.40 C 510.62 96.53 511.22 96.64 511.83 96.74 L 513.26 96.98 L 513.26 96.99 C 512.86 97.54 512.44 98.09 512.00 98.60 C 504.94 95.88 497.72 93.59 490.56 91.17 C 487.20 89.76 483.48 90.90 480.10 89.71 C 476.39 90.87 472.53 92.18 468.60 91.41 C 468.45 91.10 468.17 90.47 468.03 90.16 Z" />
<path fill="#dad8de" opacity="1.00" d=" M 521.76 90.95 C 524.65 88.64 528.30 87.69 531.93 87.36 C 541.25 91.00 550.60 94.55 559.92 98.16 C 563.95 99.78 568.18 101.00 571.95 103.21 C 568.00 106.55 563.47 109.11 559.58 112.52 C 559.97 110.96 560.39 109.41 560.90 107.88 C 563.07 106.21 565.30 104.63 567.36 102.82 C 563.27 104.43 559.48 106.73 556.06 109.49 C 555.59 109.18 554.65 108.56 554.19 108.25 C 554.53 107.94 555.21 107.32 555.56 107.01 C 555.93 106.86 556.69 106.56 557.07 106.41 C 545.94 101.72 534.60 97.53 523.42 92.96 C 523.01 92.46 522.17 91.45 521.76 90.95 Z" />
<path fill="#d2d0d6" opacity="1.00" d=" M 518.28 93.60 C 519.44 92.73 520.59 91.82 521.76 90.95 C 522.17 91.45 523.01 92.46 523.42 92.96 C 522.48 94.04 521.54 95.12 520.62 96.20 C 522.05 95.67 523.48 95.15 524.92 94.62 C 535.15 98.70 545.41 102.72 555.56 107.01 C 555.21 107.32 554.53 107.94 554.19 108.25 C 554.65 108.56 555.59 109.18 556.06 109.49 C 554.48 110.44 553.06 112.49 551.04 112.07 C 542.41 110.50 533.93 107.90 526.08 103.99 C 522.24 102.16 518.71 99.74 514.79 98.09 C 516.02 100.09 517.87 101.56 519.75 102.92 C 519.35 103.12 518.55 103.51 518.14 103.70 C 516.71 104.18 515.79 105.37 514.92 106.52 C 516.97 107.84 519.12 107.60 520.87 105.95 L 520.76 104.87 L 520.61 103.36 C 529.39 107.87 538.70 111.32 548.26 113.75 C 549.79 114.07 551.34 114.39 552.92 114.34 C 555.75 112.40 558.13 109.89 560.90 107.88 C 560.39 109.41 559.97 110.96 559.58 112.52 C 555.81 116.07 551.86 119.45 548.52 123.41 C 546.45 125.72 544.67 128.33 542.21 130.24 C 540.71 131.56 538.70 130.51 536.98 130.41 C 536.95 131.66 536.92 132.91 536.90 134.16 C 537.31 133.69 538.15 132.76 538.57 132.29 C 538.91 132.86 539.26 133.43 539.61 133.99 C 539.27 134.40 538.57 135.20 538.23 135.60 C 539.61 136.32 540.98 137.04 542.38 137.76 C 540.93 138.71 539.21 139.29 537.59 138.36 C 531.47 135.75 525.31 133.18 519.41 130.11 C 519.85 129.80 520.73 129.17 521.17 128.86 C 523.85 129.82 526.44 131.00 529.13 131.93 C 527.89 127.85 523.07 127.49 519.82 125.69 C 519.51 124.10 518.84 122.51 517.31 121.75 C 511.34 118.22 504.42 116.80 498.28 113.62 C 498.78 112.39 499.05 110.99 500.02 110.02 C 503.73 105.93 507.78 102.16 512.00 98.60 C 512.44 98.09 512.86 97.54 513.26 96.99 L 513.26 96.98 C 512.86 95.36 512.41 93.76 511.93 92.17 C 514.01 92.76 516.12 93.35 518.28 93.60 M 509.34 112.54 C 511.32 115.58 514.36 112.53 515.93 110.74 C 515.81 110.14 515.56 108.95 515.44 108.35 C 512.84 108.31 509.86 109.83 509.34 112.54 Z" />
<path fill="#97959b" opacity="1.00" d=" M 523.42 92.96 C 534.60 97.53 545.94 101.72 557.07 106.41 C 556.69 106.56 555.93 106.86 555.56 107.01 C 545.41 102.72 535.15 98.70 524.92 94.62 C 523.48 95.15 522.05 95.67 520.62 96.20 C 521.54 95.12 522.48 94.04 523.42 92.96 Z" />
<path fill="#97959b" opacity="1.00" d=" M 514.79 98.09 C 518.71 99.74 522.24 102.16 526.08 103.99 C 533.93 107.90 542.41 110.50 551.04 112.07 C 553.06 112.49 554.48 110.44 556.06 109.49 C 559.48 106.73 563.27 104.43 567.36 102.82 C 565.30 104.63 563.07 106.21 560.90 107.88 C 558.13 109.89 555.75 112.40 552.92 114.34 C 551.34 114.39 549.79 114.07 548.26 113.75 C 538.70 111.32 529.39 107.87 520.61 103.36 L 520.76 104.87 C 519.90 104.45 519.02 104.06 518.14 103.70 C 518.55 103.51 519.35 103.12 519.75 102.92 C 517.87 101.56 516.02 100.09 514.79 98.09 Z" />
<path fill="#aba9ae" opacity="1.00" d=" M 571.95 103.21 L 572.02 103.16 L 572.06 104.03 C 572.10 106.54 572.58 109.53 570.54 111.44 C 568.12 113.89 567.87 117.85 564.87 119.83 C 559.40 124.09 554.02 128.49 548.35 132.49 C 549.03 130.90 549.96 129.43 551.19 128.21 C 555.80 123.50 560.30 118.57 565.93 115.03 C 568.36 113.52 570.24 111.30 571.50 108.72 C 563.69 112.59 558.38 119.93 551.22 124.70 C 550.30 124.31 549.40 123.88 548.52 123.41 C 551.86 119.45 555.81 116.07 559.58 112.52 C 563.47 109.11 568.00 106.55 571.95 103.21 Z" />
<path fill="#1c017f" opacity="1.00" d=" M 514.92 106.52 C 515.79 105.37 516.71 104.18 518.14 103.70 C 519.02 104.06 519.90 104.45 520.76 104.87 L 520.87 105.95 C 519.12 107.60 516.97 107.84 514.92 106.52 Z" />
<path fill="#141411" opacity="0.86" d=" M 572.06 104.03 C 572.36 104.42 572.97 105.20 573.28 105.59 C 573.45 108.27 573.38 111.23 571.29 113.21 C 569.05 115.25 569.00 118.71 566.56 120.56 C 558.35 127.46 549.60 133.66 541.41 140.56 C 533.30 138.83 526.37 133.72 518.46 131.36 C 516.74 130.85 515.26 132.08 513.72 132.58 C 512.80 132.26 511.89 131.93 510.99 131.57 L 509.76 131.07 C 510.53 131.07 512.08 131.06 512.85 131.06 C 513.34 128.59 514.82 126.61 517.07 125.47 C 517.18 126.25 517.39 127.83 517.49 128.62 L 517.54 128.99 C 518.14 129.38 518.76 129.76 519.41 130.11 C 525.31 133.18 531.47 135.75 537.59 138.36 C 539.21 139.29 540.93 138.71 542.38 137.76 C 544.31 135.95 546.22 134.08 548.35 132.49 C 554.02 128.49 559.40 124.09 564.87 119.83 C 567.87 117.85 568.12 113.89 570.54 111.44 C 572.58 109.53 572.10 106.54 572.06 104.03 Z" />
<path fill="#1c017f" opacity="1.00" d=" M 509.34 112.54 C 509.86 109.83 512.84 108.31 515.44 108.35 C 515.56 108.95 515.81 110.14 515.93 110.74 C 514.36 112.53 511.32 115.58 509.34 112.54 Z" />
<path fill="#1b1a1d" opacity="0.78" d=" M 457.91 118.29 C 455.74 114.64 458.07 108.11 462.94 108.89 C 466.37 109.42 468.91 112.35 470.44 115.30 C 470.08 115.39 469.34 115.58 468.97 115.68 C 466.99 113.97 465.33 111.67 462.80 110.75 C 461.48 110.28 460.49 111.57 459.42 112.09 C 459.45 113.98 459.48 115.87 459.40 117.76 L 457.91 118.29 Z" />
<path fill="#b6b4ba" opacity="1.00" d=" M 551.22 124.70 C 558.38 119.93 563.69 112.59 571.50 108.72 C 570.24 111.30 568.36 113.52 565.93 115.03 C 560.30 118.57 555.80 123.50 551.19 128.21 C 549.96 129.43 549.03 130.90 548.35 132.49 C 546.22 134.08 544.31 135.95 542.38 137.76 C 540.98 137.04 539.61 136.32 538.23 135.60 C 538.57 135.20 539.27 134.40 539.61 133.99 C 539.26 133.43 538.91 132.86 538.57 132.29 C 538.15 132.76 537.31 133.69 536.90 134.16 C 536.92 132.91 536.95 131.66 536.98 130.41 C 538.70 130.51 540.71 131.56 542.21 130.24 C 544.67 128.33 546.45 125.72 548.52 123.41 C 549.40 123.88 550.30 124.31 551.22 124.70 Z" />
<path fill="#d4d2d5" opacity="1.00" d=" M 470.44 115.30 C 476.33 114.65 481.87 109.47 487.85 112.28 C 484.86 112.77 481.48 112.78 479.18 115.06 C 475.76 118.92 476.46 125.51 481.01 128.16 C 484.32 130.31 488.12 128.39 491.41 127.28 L 491.43 127.77 C 489.53 129.19 487.52 131.10 484.96 130.75 C 482.31 130.49 479.60 129.88 477.07 131.04 C 474.73 131.85 472.17 131.95 469.91 132.89 C 467.48 134.13 465.79 136.66 463.02 137.24 C 459.89 137.85 456.43 137.27 454.01 135.09 C 449.32 130.01 451.05 120.37 457.91 118.29 L 459.40 117.76 C 462.62 117.21 465.85 116.66 468.97 115.68 C 469.34 115.58 470.08 115.39 470.44 115.30 M 470.43 117.51 C 468.85 118.04 464.70 118.67 466.07 120.98 C 468.88 120.71 472.42 120.51 474.25 118.08 C 473.45 116.69 471.66 117.32 470.43 117.51 M 459.09 124.00 C 459.51 125.72 459.09 127.19 457.19 127.55 C 457.50 128.45 457.82 129.35 458.14 130.25 C 459.42 129.57 460.67 128.84 461.92 128.08 C 461.70 129.14 461.22 130.05 460.48 130.83 C 460.99 132.76 462.75 131.13 463.90 131.07 C 463.67 130.52 463.22 129.41 462.99 128.86 C 463.57 128.64 464.72 128.20 465.30 127.98 C 465.16 127.30 464.88 125.95 464.74 125.27 C 464.12 125.34 462.89 125.48 462.27 125.55 C 462.26 123.13 460.72 123.34 459.09 124.00 M 474.40 123.88 C 473.28 124.65 472.86 125.65 473.11 126.87 C 474.92 127.98 477.21 122.85 474.40 123.88 M 468.53 128.01 C 469.90 128.61 471.56 126.41 470.90 125.15 C 469.57 124.84 468.19 126.79 468.53 128.01 Z" />
<path fill="#b1adbe" opacity="1.00" d=" M 487.85 112.28 C 490.18 113.13 492.02 114.99 493.35 117.05 C 493.90 119.14 494.09 121.31 494.14 123.47 C 493.36 124.83 492.51 126.15 491.41 127.28 C 491.66 124.24 492.75 121.18 491.86 118.14 C 491.49 118.49 490.77 119.19 490.41 119.54 C 489.65 118.50 488.11 117.89 487.04 118.81 C 486.78 118.41 486.27 117.60 486.02 117.19 C 485.41 115.85 483.79 116.77 482.84 117.09 C 481.42 116.82 480.25 115.96 479.18 115.06 C 481.48 112.78 484.86 112.77 487.85 112.28 Z" />
<path fill="#b9b7bd" opacity="1.00" d=" M 497.77 116.06 C 497.89 115.45 498.15 114.23 498.28 113.62 C 504.42 116.80 511.34 118.22 517.31 121.75 C 518.84 122.51 519.51 124.10 519.82 125.69 C 520.03 126.85 520.48 127.91 521.17 128.86 C 520.73 129.17 519.85 129.80 519.41 130.11 C 518.76 129.76 518.14 129.38 517.54 128.99 L 517.49 128.62 C 517.72 127.43 517.89 126.23 518.02 125.03 C 515.25 122.50 511.41 121.68 508.09 120.11 C 506.52 121.21 504.94 122.29 503.39 123.41 C 502.25 122.58 501.11 121.76 499.99 120.91 C 498.26 119.92 498.40 117.71 497.77 116.06 Z" />
<path fill="#9894a9" opacity="1.00" d=" M 481.01 128.16 C 476.46 125.51 475.76 118.92 479.18 115.06 C 480.25 115.96 481.42 116.82 482.84 117.09 C 483.23 119.07 485.72 119.41 486.02 117.19 C 486.27 117.60 486.78 118.41 487.04 118.81 C 486.28 119.91 485.52 120.99 484.83 122.12 C 484.70 123.32 484.16 124.77 485.33 125.66 C 486.84 126.16 486.95 124.33 487.58 123.45 C 487.87 123.59 488.44 123.87 488.73 124.00 C 488.97 123.63 489.45 122.87 489.69 122.49 C 489.31 122.20 488.57 121.61 488.20 121.32 C 489.28 121.23 490.02 120.63 490.41 119.54 C 490.77 119.19 491.49 118.49 491.86 118.14 C 492.75 121.18 491.66 124.24 491.41 127.28 C 488.12 128.39 484.32 130.31 481.01 128.16 M 480.95 120.13 C 477.81 121.59 482.44 125.05 483.25 121.70 C 485.27 121.08 482.92 118.46 481.67 118.19 C 480.59 117.93 479.86 119.67 480.95 120.13 Z" />
<path fill="#c3bef4" opacity="1.00" d=" M 482.84 117.09 C 483.79 116.77 485.41 115.85 486.02 117.19 C 485.72 119.41 483.23 119.07 482.84 117.09 Z" />
<path fill="#c6c4ca" opacity="1.00" d=" M 470.43 117.51 C 471.66 117.32 473.45 116.69 474.25 118.08 C 472.42 120.51 468.88 120.71 466.07 120.98 C 464.70 118.67 468.85 118.04 470.43 117.51 Z" />
<path fill="#6a6a00" opacity="0.44" d=" M 493.35 117.05 C 494.76 119.48 494.45 122.38 494.72 125.07 C 496.64 123.90 498.33 122.42 499.99 120.91 C 501.11 121.76 502.25 122.58 503.39 123.41 L 502.55 124.04 C 499.87 126.19 497.45 128.65 495.06 131.11 C 494.65 130.88 493.83 130.41 493.42 130.18 C 493.92 127.98 494.28 125.73 494.14 123.47 C 494.09 121.31 493.90 119.14 493.35 117.05 Z" />
<path fill="#deddd9" opacity="1.00" d=" M 480.95 120.13 C 479.86 119.67 480.59 117.93 481.67 118.19 C 482.92 118.46 485.27 121.08 483.25 121.70 C 482.68 120.88 481.92 120.35 480.95 120.13 Z" />
<path fill="#442c9b" opacity="1.00" d=" M 487.04 118.81 C 488.11 117.89 489.65 118.50 490.41 119.54 C 490.02 120.63 489.28 121.23 488.20 121.32 C 487.91 120.69 487.33 119.44 487.04 118.81 Z" />
<path fill="#d7d5d8" opacity="1.00" d=" M 484.83 122.12 C 485.52 120.99 486.28 119.91 487.04 118.81 C 487.33 119.44 487.91 120.69 488.20 121.32 C 488.57 121.61 489.31 122.20 489.69 122.49 C 489.45 122.87 488.97 123.63 488.73 124.00 C 488.44 123.87 487.87 123.59 487.58 123.45 C 486.89 123.12 485.52 122.45 484.83 122.12 Z" />
<path fill="#bbb5ee" opacity="1.00" d=" M 480.95 120.13 C 481.92 120.35 482.68 120.88 483.25 121.70 C 482.44 125.05 477.81 121.59 480.95 120.13 Z" />
<path fill="#3b3a3f" opacity="1.00" d=" M 503.39 123.41 C 504.94 122.29 506.52 121.21 508.09 120.11 C 511.41 121.68 515.25 122.50 518.02 125.03 C 517.89 126.23 517.72 127.43 517.49 128.62 C 517.39 127.83 517.18 126.25 517.07 125.47 C 514.82 126.61 513.34 128.59 512.85 131.06 C 512.08 131.06 510.53 131.07 509.76 131.07 C 508.39 130.79 507.03 130.51 505.66 130.31 C 507.73 129.79 509.66 128.86 511.26 127.42 C 510.39 126.96 509.52 126.50 508.66 126.04 C 508.59 126.50 508.47 127.43 508.41 127.89 C 507.03 128.03 505.66 128.18 504.30 128.33 C 503.74 126.89 503.13 125.47 502.55 124.04 L 503.39 123.41 Z" />
<path fill="#1c017f" opacity="1.00" d=" M 484.83 122.12 C 485.52 122.45 486.89 123.12 487.58 123.45 C 486.95 124.33 486.84 126.16 485.33 125.66 C 484.16 124.77 484.70 123.32 484.83 122.12 Z" />
<path fill="#19181d" opacity="1.00" d=" M 459.09 124.00 C 460.72 123.34 462.26 123.13 462.27 125.55 C 462.89 125.48 464.12 125.34 464.74 125.27 C 464.88 125.95 465.16 127.30 465.30 127.98 C 464.72 128.20 463.57 128.64 462.99 128.86 C 463.22 129.41 463.67 130.52 463.90 131.07 C 462.75 131.13 460.99 132.76 460.48 130.83 C 461.22 130.05 461.70 129.14 461.92 128.08 C 460.67 128.84 459.42 129.57 458.14 130.25 C 457.82 129.35 457.50 128.45 457.19 127.55 C 459.09 127.19 459.51 125.72 459.09 124.00 Z" />
<path fill="#19181d" opacity="1.00" d=" M 474.40 123.88 C 477.21 122.85 474.92 127.98 473.11 126.87 C 472.86 125.65 473.28 124.65 474.40 123.88 Z" />
<path fill="#19181d" opacity="1.00" d=" M 494.14 123.47 C 494.28 125.73 493.92 127.98 493.42 130.18 C 493.83 130.41 494.65 130.88 495.06 131.11 C 498.40 132.40 501.76 130.97 504.63 129.28 L 504.30 128.33 C 505.66 128.18 507.03 128.03 508.41 127.89 C 508.47 127.43 508.59 126.50 508.66 126.04 C 509.52 126.50 510.39 126.96 511.26 127.42 C 509.66 128.86 507.73 129.79 505.66 130.31 C 503.62 130.82 501.91 132.10 500.33 133.42 C 496.90 134.00 493.79 132.77 491.53 130.17 L 491.51 129.59 C 491.49 129.14 491.45 128.23 491.43 127.77 L 491.41 127.28 C 492.51 126.15 493.36 124.83 494.14 123.47 Z" />
<path fill="#f0d242" opacity="1.00" d=" M 495.06 131.11 C 497.45 128.65 499.87 126.19 502.55 124.04 C 503.13 125.47 503.74 126.89 504.30 128.33 L 504.63 129.28 C 501.76 130.97 498.40 132.40 495.06 131.11 Z" />
<path fill="#2a292a" opacity="1.00" d=" M 468.53 128.01 C 468.19 126.79 469.57 124.84 470.90 125.15 C 471.56 126.41 469.90 128.61 468.53 128.01 Z" />
<path fill="#19181d" opacity="1.00" d=" M 519.82 125.69 C 523.07 127.49 527.89 127.85 529.13 131.93 C 526.44 131.00 523.85 129.82 521.17 128.86 C 520.48 127.91 520.03 126.85 519.82 125.69 Z" />
<path fill="#070707" opacity="0.69" d=" M 491.43 127.77 C 491.45 128.23 491.49 129.14 491.51 129.59 C 491.02 132.47 487.38 132.68 485.06 132.43 C 481.39 131.92 477.77 132.73 474.19 133.39 C 475.07 132.51 476.06 131.76 477.07 131.04 C 479.60 129.88 482.31 130.49 484.96 130.75 C 487.52 131.10 489.53 129.19 491.43 127.77 Z" />
<path fill="#807420" opacity="0.91" d=" M 500.33 133.42 C 501.91 132.10 503.62 130.82 505.66 130.31 C 507.03 130.51 508.39 130.79 509.76 131.07 L 510.99 131.57 C 508.03 134.16 503.89 133.13 500.33 133.42 Z" />
<path fill="#545400" opacity="0.42" d=" M 491.53 130.17 C 493.79 132.77 496.90 134.00 500.33 133.42 C 503.89 133.13 508.03 134.16 510.99 131.57 C 511.89 131.93 512.80 132.26 513.72 132.58 C 513.26 136.93 508.22 136.71 504.97 136.64 C 500.43 136.30 495.50 137.58 491.32 135.30 C 491.33 133.59 491.40 131.88 491.53 130.17 Z" />
<path fill="#070707" opacity="0.69" d=" M 463.02 137.24 C 465.79 136.66 467.48 134.13 469.91 132.89 C 471.63 132.55 473.46 132.94 474.87 134.03 C 470.98 133.59 468.56 136.61 465.56 138.36 C 461.54 139.34 456.22 139.25 454.01 135.09 C 456.43 137.27 459.89 137.85 463.02 137.24 Z" />
<path fill="#6a3030" opacity="0.51" d=" M 287.95 295.00 C 288.93 290.75 291.62 286.29 296.47 286.04 L 296.18 286.58 C 295.86 286.94 295.24 287.67 294.92 288.03 C 293.73 288.55 292.54 289.08 291.35 289.62 C 291.19 290.20 290.88 291.35 290.72 291.93 C 289.71 293.94 289.09 296.62 290.98 298.33 L 291.36 299.16 C 291.50 299.35 291.78 299.73 291.92 299.93 C 292.05 300.04 292.31 300.26 292.44 300.38 C 292.99 300.78 294.09 301.59 294.64 302.00 C 296.12 303.35 298.26 303.00 299.81 301.97 L 299.98 301.90 C 300.99 301.50 303.01 300.70 304.03 300.31 C 301.90 304.44 295.95 305.22 292.41 302.57 C 289.70 300.97 288.92 297.76 287.95 295.00 Z" />
<path fill="#bc2631" opacity="0.87" d=" M 296.47 286.04 C 296.95 285.98 297.92 285.87 298.40 285.81 C 298.36 286.16 298.27 286.86 298.22 287.21 C 297.71 287.05 296.69 286.74 296.18 286.58 L 296.47 286.04 Z" />
<path fill="#722621" opacity="0.58" d=" M 300.02 287.71 C 300.31 287.39 300.88 286.74 301.16 286.42 C 304.45 289.04 307.95 294.15 305.06 298.09 C 305.11 296.40 304.91 294.77 304.46 293.18 C 303.76 290.82 301.88 289.17 299.86 287.92 L 300.02 287.71 Z" />
<path fill="#52e659" opacity="0.94" d=" M 291.35 289.62 C 292.54 289.08 293.73 288.55 294.92 288.03 L 296.69 287.48 C 296.01 289.61 293.55 290.15 292.04 291.55 C 292.59 291.67 293.69 291.91 294.24 292.02 C 294.17 293.23 294.10 294.44 294.03 295.66 C 294.65 295.57 295.87 295.41 296.48 295.33 L 296.68 297.52 C 292.81 298.74 292.04 294.36 290.72 291.93 C 290.88 291.35 291.19 290.20 291.35 289.62 Z" />
<path fill="#39e142" opacity="0.93" d=" M 297.21 287.94 L 300.17 287.52 L 300.02 287.71 L 299.86 287.92 C 301.88 289.17 303.76 290.82 304.46 293.18 L 303.32 294.58 C 303.17 290.87 299.41 290.03 297.21 287.94 Z" />
<path fill="#ffffff" opacity="1.00" d=" M 19.31 295.39 C 22.29 290.78 29.32 290.61 33.59 293.41 C 37.22 295.77 36.45 300.66 36.66 304.37 C 34.03 304.37 31.41 304.37 28.78 304.38 C 28.64 302.40 29.09 300.27 28.19 298.43 C 26.00 297.69 25.88 300.70 25.99 302.08 C 25.98 306.17 30.62 307.48 32.96 310.08 C 37.87 313.76 37.73 320.53 37.11 326.02 C 36.05 334.48 22.25 335.28 19.17 327.81 C 18.07 324.62 18.28 321.19 18.24 317.88 C 20.86 317.87 23.49 317.87 26.12 317.88 C 26.44 320.59 25.31 323.88 27.04 326.21 C 30.33 325.90 29.25 321.39 28.83 319.10 C 26.16 314.67 19.97 312.97 18.57 307.61 C 17.73 303.62 17.54 299.16 19.31 295.39 Z" />
<path fill="#ffffff" opacity="1.00" d=" M 83.74 292.51 C 88.44 292.48 93.14 292.52 97.84 292.48 C 97.88 295.11 97.88 297.74 97.87 300.38 C 96.00 300.37 94.13 300.37 92.25 300.37 C 92.25 302.87 92.25 305.37 92.25 307.87 C 94.00 307.87 95.75 307.87 97.50 307.88 C 97.50 310.37 97.50 312.87 97.50 315.38 C 95.75 315.37 94.00 315.37 92.26 315.37 C 92.25 318.29 92.24 321.21 92.27 324.13 C 94.34 324.12 96.42 324.12 98.50 324.12 C 98.50 326.74 98.50 329.37 98.50 332.00 C 93.58 332.00 88.67 332.00 83.75 332.00 C 83.74 318.84 83.76 305.67 83.74 292.51 Z" />
<path fill="#ffff00" opacity="1.00" d=" M 177.07 292.46 C 179.37 292.49 181.68 292.49 183.98 292.46 C 184.31 305.63 184.03 318.82 184.12 332.00 C 181.67 332.00 179.22 332.00 176.77 332.02 C 175.23 326.31 174.21 320.47 172.36 314.85 C 172.36 320.57 172.39 326.28 172.38 332.00 C 169.99 332.00 167.61 332.00 165.24 331.98 C 165.33 318.80 165.12 305.62 165.34 292.44 C 167.64 292.49 169.94 292.50 172.24 292.51 C 173.73 298.35 175.60 304.10 176.61 310.05 C 177.34 304.21 176.82 298.32 177.07 292.46 Z" />
<path fill="#ffff00" opacity="1.00" d=" M 186.26 292.49 C 192.45 292.49 198.64 292.53 204.83 292.47 C 204.89 295.11 204.89 297.76 204.83 300.41 C 203.13 300.39 201.44 300.37 199.75 300.37 C 199.76 310.90 199.73 321.44 199.77 331.98 C 196.92 332.01 194.07 332.01 191.23 331.97 C 191.28 321.44 191.24 310.91 191.25 300.38 C 189.59 300.37 187.93 300.38 186.27 300.39 C 186.25 297.75 186.25 295.12 186.26 292.49 Z" />
<path fill="#ffff00" opacity="1.00" d=" M 206.73 292.55 C 211.43 292.45 216.13 292.54 220.83 292.47 C 220.88 295.10 220.88 297.74 220.87 300.38 C 219.00 300.37 217.13 300.37 215.26 300.37 C 215.25 302.87 215.25 305.36 215.24 307.86 C 216.99 307.87 218.74 307.87 220.50 307.88 C 220.50 310.38 220.50 312.87 220.50 315.38 C 218.75 315.37 217.01 315.37 215.26 315.37 C 215.27 318.27 215.12 321.18 215.37 324.07 C 217.41 324.20 219.45 324.12 221.50 324.13 C 221.50 326.75 221.50 329.37 221.50 332.00 C 216.58 332.00 211.67 332.00 206.75 332.00 C 206.73 318.85 206.78 305.70 206.73 292.55 Z" />
<path fill="#ffff00" opacity="1.00" d=" M 274.39 292.51 C 279.36 290.15 286.44 292.34 287.90 298.01 C 289.20 303.89 288.39 309.99 288.63 315.97 C 288.42 320.68 289.36 326.19 285.93 330.02 C 281.23 335.19 270.99 333.18 269.57 325.99 C 268.50 318.71 269.16 311.30 269.03 303.97 C 268.86 299.64 270.00 294.43 274.39 292.51 M 277.88 298.81 C 277.13 302.48 277.63 306.26 277.50 309.98 C 277.64 315.44 277.13 320.93 277.89 326.37 C 278.36 326.19 279.30 325.83 279.77 325.65 C 280.56 317.85 279.92 309.93 280.12 302.09 C 280.19 300.75 280.12 296.88 277.88 298.81 Z" />
<path fill="#000000" opacity="0.35" d=" M 290.98 298.33 C 289.09 296.62 289.71 293.94 290.72 291.93 C 292.04 294.36 292.81 298.74 296.68 297.52 C 296.01 297.63 294.65 297.84 293.98 297.95 L 292.35 297.36 C 291.76 297.51 291.31 297.84 290.98 298.33 Z" />
<path fill="#58ff60" opacity="1.00" d=" M 296.96 293.78 C 297.12 293.21 297.44 292.07 297.60 291.49 C 299.44 291.51 301.12 292.09 302.55 293.25 C 302.08 293.66 301.12 294.47 300.65 294.87 C 301.14 295.46 302.11 296.63 302.60 297.22 L 303.06 295.51 L 304.38 294.70 C 304.29 295.58 304.11 297.33 304.02 298.21 C 303.08 299.81 301.58 300.99 299.98 301.90 L 299.81 301.97 L 297.74 302.22 C 298.24 299.82 301.36 299.75 302.64 297.85 C 300.73 297.78 298.83 297.75 296.92 297.70 C 297.09 296.23 297.90 295.00 298.78 293.86 L 296.96 293.78 Z" />
<path fill="#ffffff" opacity="1.00" d=" M 40.12 292.50 C 42.95 292.50 45.78 292.50 48.61 292.49 C 48.83 303.78 48.22 315.10 48.94 326.37 C 50.36 326.20 51.02 325.46 50.93 324.16 C 51.11 313.61 50.95 303.05 51.00 292.50 C 53.83 292.50 56.66 292.50 59.50 292.50 C 59.51 302.02 59.50 311.54 59.50 321.06 C 59.44 323.72 59.45 326.59 57.90 328.89 C 54.70 334.22 46.21 334.08 42.32 329.62 C 40.06 326.97 40.20 323.31 40.12 320.04 C 40.11 310.86 40.13 301.68 40.12 292.50 Z" />
<path fill="#ffffff" opacity="1.00" d=" M 62.75 292.50 C 67.44 292.70 72.27 291.91 76.84 293.23 C 79.67 294.13 80.87 297.22 80.89 299.97 C 80.99 304.13 81.40 308.42 80.37 312.49 C 79.04 316.22 74.52 316.20 71.24 316.19 C 71.27 321.46 71.25 326.73 71.25 332.00 C 68.42 332.00 65.58 332.00 62.75 332.00 C 62.75 318.83 62.75 305.67 62.75 292.50 M 71.33 298.96 C 71.21 302.54 71.19 306.13 71.37 309.71 C 72.60 309.28 74.09 308.71 73.82 307.08 C 73.64 304.34 75.18 299.62 71.33 298.96 Z" />
<path fill="#ffffff" opacity="1.00" d=" M 100.75 292.50 C 105.49 292.59 110.31 292.15 114.99 293.10 C 118.33 294.14 119.44 297.99 119.57 301.12 C 119.77 304.96 120.13 310.45 115.40 311.63 C 117.95 312.02 119.56 314.45 119.53 316.91 C 119.76 321.92 119.54 326.95 119.65 331.96 C 117.02 332.00 114.38 332.00 111.75 332.00 C 111.55 326.29 112.19 320.50 111.38 314.84 C 110.86 314.58 109.83 314.07 109.32 313.81 C 109.17 319.87 109.28 325.94 109.25 332.00 C 106.42 332.00 103.58 332.00 100.75 332.00 C 100.75 318.83 100.75 305.67 100.75 292.50 M 109.33 298.94 C 109.22 302.04 109.23 305.14 109.28 308.24 C 110.36 307.83 111.86 307.65 111.67 306.08 C 111.68 303.59 112.75 299.57 109.33 298.94 Z" />
<path fill="#ffff00" opacity="1.00" d=" M 130.75 292.49 C 133.10 292.49 135.46 292.50 137.81 292.54 C 139.27 298.12 140.61 303.73 142.35 309.23 C 142.69 303.66 142.41 298.08 142.50 292.50 C 144.87 292.50 147.23 292.49 149.60 292.49 C 149.67 305.64 149.56 318.79 149.66 331.95 C 147.18 332.00 144.70 332.00 142.22 331.98 C 141.04 326.92 139.77 321.89 138.57 316.84 C 138.20 316.09 138.31 314.56 137.39 314.36 C 138.23 320.19 137.76 326.12 137.87 332.00 C 135.50 332.00 133.12 332.00 130.75 332.00 C 130.75 318.83 130.75 305.66 130.75 292.49 Z" />
<path fill="#ffff00" opacity="1.00" d=" M 153.24 331.99 C 153.31 318.81 153.14 305.62 153.33 292.44 C 156.15 292.49 158.97 292.50 161.78 292.55 C 161.71 305.70 161.76 318.84 161.76 331.99 C 158.92 332.00 156.08 332.00 153.24 331.99 Z" />
<path fill="#ffff00" opacity="1.00" d=" M 223.75 292.49 C 226.10 292.49 228.45 292.50 230.80 292.54 C 232.34 298.09 233.47 303.78 235.46 309.19 C 235.56 303.63 235.46 298.07 235.50 292.50 C 237.86 292.50 240.22 292.49 242.58 292.47 C 242.70 305.63 242.55 318.79 242.66 331.95 C 240.17 332.00 237.68 332.01 235.20 331.97 C 234.14 327.24 232.90 322.56 231.84 317.84 C 231.44 316.62 231.47 315.09 230.34 314.27 C 231.48 320.07 230.60 326.10 230.87 332.00 C 228.49 332.00 226.12 332.00 223.75 332.00 C 223.75 318.83 223.75 305.66 223.75 292.49 Z" />
<path fill="#ffff00" opacity="1.00" d=" M 246.22 292.55 C 251.35 292.63 256.67 291.96 261.66 293.45 C 265.04 294.78 265.91 298.72 265.82 301.97 C 265.87 309.66 265.99 317.35 265.76 325.04 C 265.86 327.94 264.31 331.25 261.15 331.68 C 256.21 332.34 251.20 331.87 246.24 331.99 C 246.25 318.84 246.28 305.69 246.22 292.55 M 254.69 299.22 C 254.83 307.98 254.66 316.75 254.79 325.52 C 255.29 325.31 256.30 324.89 256.80 324.68 C 258.06 317.28 257.11 309.58 257.35 302.06 C 257.74 300.21 256.40 299.10 254.69 299.22 Z" />
<path fill="#5fcd64" opacity="0.82" d=" M 290.98 298.33 C 291.31 297.84 291.76 297.51 292.35 297.36 C 292.93 299.97 296.07 299.87 297.29 301.93 C 296.63 301.95 295.30 301.98 294.64 302.00 C 294.09 301.59 292.99 300.78 292.44 300.38 C 292.31 300.26 292.05 300.04 291.92 299.93 L 291.71 299.50 L 291.36 299.16 L 290.98 298.33 Z" />
<path fill="#84262c" opacity="0.58" d=" M 304.02 298.21 C 307.25 298.40 302.48 301.30 304.02 298.21 Z" />
<path fill="#387a3d" opacity="0.48" d=" M 291.36 299.16 L 291.71 299.50 L 291.92 299.93 C 291.78 299.73 291.50 299.35 291.36 299.16 Z" />
<path fill="#438d47" opacity="0.55" d=" M 291.92 299.93 C 292.05 300.04 292.31 300.26 292.44 300.38 C 292.31 300.26 292.05 300.04 291.92 299.93 Z" />
</svg>
