<?xml version="1.0" encoding="UTF-8" ?>
<!DOCTYPE svg PUBLIC "-//W3C//DTD SVG 1.1//EN" "http://www.w3.org/Graphics/SVG/1.1/DTD/svg11.dtd">
<svg width="400pt" height="70pt" viewBox="0 0 400 70" version="1.1" xmlns="http://www.w3.org/2000/svg">
<path fill="#ffffff" opacity="1.00" d=" M 188.50 0.00 L 200.75 0.00 C 200.75 2.17 200.75 4.33 200.75 6.50 C 196.67 6.50 192.58 6.50 188.50 6.50 C 188.50 4.33 188.50 2.17 188.50 0.00 Z" />
<path fill="#ffffff" opacity="1.00" d=" M 333.50 0.00 L 345.50 0.00 C 345.50 22.67 345.50 45.33 345.50 68.00 C 341.48 68.00 337.46 68.01 333.44 67.99 C 333.50 66.66 333.56 65.33 333.63 64.00 C 331.21 66.96 327.52 70.45 323.39 68.47 C 318.38 66.07 318.02 59.86 318.00 55.01 C 318.12 42.98 317.74 30.94 318.20 18.91 C 318.17 14.45 320.99 9.11 325.95 8.97 C 329.21 8.72 331.49 11.30 333.57 13.40 C 333.45 8.94 333.51 4.47 333.50 0.00 M 330.77 19.61 C 329.82 20.83 330.12 22.55 329.99 23.99 C 330.01 33.98 330.00 43.97 329.99 53.96 C 330.16 55.71 329.68 58.26 331.78 59.01 C 333.69 58.10 333.28 55.72 333.49 53.97 C 333.46 43.32 333.60 32.65 333.42 22.00 C 333.70 20.56 332.24 18.08 330.77 19.61 Z" />
<path fill="#ffffff" opacity="1.00" d=" M 237.25 2.25 C 241.25 2.25 245.25 2.25 249.25 2.25 C 249.25 5.34 249.24 8.44 249.28 11.53 C 250.14 11.52 251.88 11.49 252.74 11.47 C 252.76 14.56 252.75 17.66 252.75 20.75 C 251.58 20.75 250.41 20.75 249.25 20.76 C 249.42 33.26 248.90 45.80 249.53 58.29 C 250.76 58.52 252.00 58.74 253.25 58.94 C 253.25 61.96 253.25 64.98 253.25 68.00 C 249.20 67.78 244.81 68.71 241.03 66.88 C 237.69 64.80 237.37 60.56 237.28 57.01 C 237.19 44.93 237.28 32.85 237.25 20.77 C 236.62 20.76 235.37 20.75 234.74 20.74 C 234.75 17.66 234.75 14.58 234.74 11.51 C 235.37 11.50 236.62 11.49 237.25 11.49 C 237.25 8.41 237.25 5.33 237.25 2.25 Z" />
<path fill="#951826" opacity="0.63" d=" M 384.47 2.97 C 384.81 1.21 389.16 1.21 389.55 2.96 C 387.88 3.34 386.13 3.34 384.47 2.97 Z" />
<path fill="#66161e" opacity="0.53" d=" M 376.99 10.00 C 378.27 7.02 380.24 4.41 383.03 2.69 L 384.47 2.97 C 386.13 3.34 387.88 3.34 389.55 2.96 L 390.97 2.68 C 393.89 4.62 396.57 7.37 396.95 11.04 C 395.55 11.64 395.56 12.23 396.96 12.79 C 396.68 13.62 396.12 15.27 395.83 16.10 L 395.34 14.24 L 395.17 13.59 C 395.14 13.27 395.09 12.65 395.06 12.33 C 394.92 10.83 394.76 9.32 394.46 7.84 C 392.86 5.46 390.14 4.26 387.47 3.55 L 386.54 3.82 C 384.04 4.51 381.26 5.48 380.04 7.99 C 379.33 9.14 378.68 10.34 378.10 11.55 L 376.99 10.00 Z" />
<path fill="#5cff63" opacity="1.00" d=" M 380.04 7.99 C 381.26 5.48 384.04 4.51 386.54 3.82 C 385.25 5.41 383.54 6.53 381.86 7.64 C 383.14 8.97 383.48 10.72 383.65 12.50 C 384.78 12.61 385.91 12.73 387.05 12.86 C 387.68 12.22 388.33 11.58 388.98 10.94 C 388.20 10.72 386.65 10.29 385.87 10.08 C 387.30 9.09 388.87 8.44 390.59 8.13 C 390.46 7.68 390.19 6.77 390.06 6.32 C 391.19 6.70 391.87 7.76 392.54 8.68 C 391.92 10.07 391.27 11.44 390.61 12.79 C 392.09 12.65 393.57 12.49 395.06 12.33 C 395.09 12.65 395.14 13.27 395.17 13.59 C 393.77 14.24 392.71 15.73 393.18 17.30 C 392.47 17.86 391.75 18.40 391.01 18.93 C 390.03 19.11 388.06 19.49 387.07 19.68 C 389.06 17.99 391.21 16.49 393.19 14.80 C 389.52 14.80 385.85 14.75 382.18 14.75 C 381.34 13.46 381.42 11.86 381.12 10.41 C 380.49 10.55 379.23 10.84 378.60 10.98 C 378.96 10.23 379.68 8.74 380.04 7.99 Z" />
<path fill="#2bb938" opacity="0.80" d=" M 387.47 3.55 C 390.14 4.26 392.86 5.46 394.46 7.84 C 394.54 8.85 394.71 10.87 394.80 11.89 C 394.23 11.08 393.11 9.48 392.54 8.68 C 391.87 7.76 391.19 6.70 390.06 6.32 C 389.42 6.10 388.15 5.67 387.51 5.45 C 387.50 4.97 387.48 4.02 387.47 3.55 Z" />
<path fill="#ffffff" opacity="1.00" d=" M 3.81 11.81 C 9.64 6.93 20.20 8.31 23.60 15.46 C 25.54 19.52 24.90 24.16 25.00 28.50 C 21.51 28.50 18.01 28.50 14.52 28.51 C 14.08 25.42 15.67 21.14 12.86 19.00 C 9.29 20.15 10.47 25.01 11.00 27.83 C 13.53 32.56 19.13 34.40 22.48 38.45 C 26.06 42.36 26.09 48.05 26.00 53.04 C 25.73 57.55 25.50 62.76 21.90 66.01 C 16.88 70.44 8.46 69.90 3.71 65.32 C 0.65 62.28 0.38 57.74 0.00 53.69 L 0.00 47.50 C 3.58 47.50 7.16 47.50 10.75 47.50 C 10.84 50.93 10.39 54.47 11.33 57.82 C 11.89 59.73 14.74 58.63 14.75 56.99 C 15.05 53.76 15.86 49.52 12.94 47.22 C 7.82 42.47 0.50 38.48 0.00 30.67 L 0.00 20.15 C 0.42 17.09 1.30 13.83 3.81 11.81 Z" />
<path fill="#ffffff" opacity="1.00" d=" M 73.00 15.02 C 74.91 12.62 76.69 9.48 80.04 9.05 C 84.14 8.38 87.57 12.19 88.15 15.98 C 89.25 22.60 88.57 29.35 88.75 36.03 C 88.56 44.32 89.22 52.66 88.24 60.92 C 87.91 64.76 85.26 68.95 81.04 69.04 C 77.25 69.22 74.98 65.80 73.12 63.04 C 73.22 65.36 73.26 67.68 73.29 70.00 L 61.25 70.00 C 61.25 50.00 61.25 30.00 61.25 10.00 C 65.36 10.00 69.48 9.99 73.60 10.02 C 73.41 11.68 73.20 13.35 73.00 15.02 M 73.28 22.99 C 73.20 33.00 73.28 43.00 73.24 53.01 C 73.35 55.37 72.87 58.75 76.04 59.14 C 77.03 55.83 76.72 52.37 76.75 48.97 C 76.74 40.63 76.75 32.29 76.76 23.95 C 76.66 22.36 76.90 20.53 75.77 19.23 C 73.41 18.64 73.45 21.40 73.28 22.99 Z" />
<path fill="#ffffff" opacity="1.00" d=" M 95.58 14.39 C 100.05 7.08 112.10 7.25 116.52 14.52 C 121.15 22.13 119.72 31.51 120.00 40.00 C 114.83 40.00 109.67 40.00 104.50 40.00 C 104.68 45.69 104.12 51.44 104.81 57.10 C 104.74 59.39 108.16 59.22 108.34 57.11 C 109.13 52.70 108.61 48.20 108.75 43.75 C 112.50 43.75 116.25 43.75 120.00 43.75 C 120.00 50.61 120.62 58.16 116.43 64.08 C 111.60 71.73 98.49 70.17 94.89 62.10 C 91.37 54.59 92.82 46.06 92.50 38.05 C 92.75 30.17 91.42 21.53 95.58 14.39 M 104.69 20.94 C 104.32 24.11 104.55 27.31 104.51 30.50 C 105.38 30.50 107.12 30.50 107.99 30.50 C 107.89 27.03 108.37 23.48 107.52 20.08 C 107.16 18.34 104.35 19.30 104.69 20.94 Z" />
<path fill="#ffffff" opacity="1.00" d=" M 135.12 17.57 C 136.57 13.86 138.57 9.88 142.72 8.70 C 142.80 15.56 142.71 22.41 142.78 29.27 C 140.92 29.75 138.62 29.73 137.39 31.44 C 135.62 33.53 136.02 36.47 135.77 39.01 C 135.72 48.67 135.77 58.34 135.76 68.00 C 131.75 68.00 127.75 68.00 123.75 68.00 C 123.75 48.67 123.75 29.33 123.75 10.00 C 127.69 10.00 131.63 9.99 135.56 10.02 C 135.50 12.54 135.28 15.05 135.12 17.57 Z" />
<path fill="#ffffff" opacity="1.00" d=" M 172.79 9.94 C 175.56 8.21 179.66 8.86 181.58 11.56 C 184.15 14.77 183.97 19.13 184.23 23.00 C 184.28 38.00 184.23 53.00 184.25 68.00 C 180.25 68.00 176.24 68.00 172.24 67.99 C 172.26 53.33 172.23 38.66 172.26 24.00 C 172.34 22.11 171.83 20.28 171.12 18.55 C 168.55 19.75 168.82 22.64 168.75 25.01 C 168.76 39.33 168.74 53.66 168.76 67.99 C 164.75 68.00 160.75 68.00 156.75 68.00 C 156.75 48.67 156.75 29.33 156.75 10.00 C 160.86 10.00 164.97 10.00 169.08 10.00 C 168.96 11.66 168.81 13.31 168.64 14.96 C 169.91 13.21 170.83 11.05 172.79 9.94 Z" />
<path fill="#ffffff" opacity="1.00" d=" M 220.44 10.53 C 223.25 8.06 228.15 8.62 230.24 11.76 C 232.64 14.97 232.48 19.17 232.73 22.98 C 232.79 37.98 232.73 52.99 232.76 68.00 C 228.75 68.00 224.75 68.00 220.75 68.00 C 220.75 53.32 220.75 38.64 220.75 23.97 C 220.77 22.25 220.40 20.57 220.04 18.91 C 216.84 19.18 217.40 22.68 217.25 24.97 C 217.25 39.31 217.25 53.66 217.25 68.00 C 213.25 68.00 209.25 68.00 205.25 68.00 C 205.25 48.67 205.25 29.34 205.24 10.00 C 209.37 10.01 213.50 9.97 217.62 10.04 C 217.46 11.73 217.25 13.42 217.03 15.11 C 218.11 13.55 219.02 11.82 220.44 10.53 Z" />
<path fill="#ffffff" opacity="1.00" d=" M 258.56 14.43 C 262.98 7.12 274.97 7.22 279.45 14.41 C 284.17 22.03 282.72 31.47 283.00 40.00 C 277.83 40.00 272.67 40.00 267.50 40.00 C 267.67 45.68 267.13 51.40 267.79 57.05 C 267.66 59.39 271.28 59.25 271.34 57.03 C 272.14 52.66 271.60 48.17 271.75 43.75 C 275.49 43.75 279.24 43.75 283.00 43.75 C 283.00 50.62 283.62 58.17 279.43 64.09 C 274.60 71.71 261.55 70.18 257.92 62.15 C 254.36 54.63 255.82 46.06 255.50 38.03 C 255.74 30.16 254.43 21.56 258.56 14.43 M 267.87 20.07 C 267.18 23.50 267.60 27.02 267.51 30.50 C 268.38 30.50 270.12 30.50 270.99 30.50 C 270.89 27.03 271.37 23.48 270.52 20.08 C 270.30 18.74 268.24 18.95 267.87 20.07 Z" />
<path fill="#ffffff" opacity="1.00" d=" M 302.81 9.93 C 305.57 8.21 309.65 8.86 311.57 11.55 C 314.16 14.77 313.97 19.15 314.23 23.05 C 314.28 38.03 314.23 53.02 314.25 68.00 C 310.25 68.00 306.24 68.00 302.24 68.00 C 302.25 53.33 302.24 38.67 302.26 24.01 C 302.34 22.13 301.82 20.30 301.15 18.57 C 298.53 19.72 298.83 22.65 298.74 25.01 C 298.76 39.34 298.75 53.67 298.76 68.00 C 294.75 68.00 290.75 68.00 286.75 68.00 C 286.75 48.67 286.75 29.33 286.75 10.00 C 290.86 10.00 294.97 10.00 299.09 10.00 C 298.96 11.65 298.80 13.30 298.62 14.95 C 299.90 13.19 300.85 11.05 302.81 9.93 Z" />
<path fill="#ffffff" opacity="1.00" d=" M 358.44 9.81 C 363.99 7.67 371.10 9.62 374.21 14.85 C 376.91 19.04 377.24 24.17 377.26 29.01 C 377.22 35.65 377.29 42.29 377.23 48.93 C 377.04 54.45 376.77 60.58 372.92 64.94 C 368.89 69.91 361.15 70.04 355.85 67.16 C 350.22 63.51 350.04 55.99 349.76 49.99 C 349.93 40.96 349.29 31.89 350.22 22.89 C 350.66 17.62 353.13 11.76 358.44 9.81 M 362.19 19.84 C 361.20 31.18 362.02 42.64 361.75 54.02 C 361.68 55.87 361.96 60.34 364.81 58.25 C 365.81 47.57 364.96 36.77 365.26 26.04 C 365.02 23.75 365.87 20.73 363.92 19.05 C 363.49 19.25 362.62 19.65 362.19 19.84 Z" />
<path fill="#ffffff" opacity="1.00" d=" M 29.24 10.00 C 33.25 10.00 37.25 10.00 41.25 10.00 C 41.25 24.69 41.25 39.38 41.25 54.07 C 41.34 55.89 41.07 58.16 42.99 59.17 C 44.66 57.96 44.45 55.79 44.51 53.98 C 44.48 39.32 44.52 24.67 44.48 10.02 C 48.49 9.99 52.50 9.99 56.51 10.02 C 56.48 29.35 56.52 48.67 56.50 68.00 C 52.39 68.00 48.29 68.00 44.19 68.00 C 44.37 66.58 44.54 65.15 44.72 63.73 C 43.16 65.49 41.99 67.89 39.59 68.64 C 36.61 69.75 32.89 68.48 31.34 65.66 C 29.48 62.44 29.35 58.60 29.24 54.98 C 29.25 39.99 29.25 25.00 29.24 10.00 Z" />
<path fill="#ffffff" opacity="1.00" d=" M 188.49 10.01 C 192.58 9.99 196.67 10.00 200.76 10.00 C 200.75 29.33 200.75 48.66 200.76 68.00 C 196.67 68.00 192.58 68.01 188.49 67.99 C 188.50 48.66 188.50 29.34 188.49 10.01 Z" />
<path fill="#7a2f37" opacity="0.52" d=" M 376.99 10.00 L 378.10 11.55 C 378.62 12.66 379.13 13.77 379.63 14.89 C 379.93 15.51 380.52 16.74 380.82 17.36 C 383.21 20.42 387.92 21.81 391.01 18.93 C 391.75 18.40 392.47 17.86 393.18 17.30 C 394.28 16.56 395.00 15.54 395.34 14.24 L 395.83 16.10 C 394.62 19.29 391.34 21.39 388.09 22.02 C 381.68 22.76 375.99 16.27 376.99 10.00 Z" />
<path fill="#d02e3b" opacity="0.87" d=" M 396.96 12.79 C 395.56 12.23 395.55 11.64 396.95 11.04 C 396.96 11.48 396.96 12.35 396.96 12.79 Z" />
<path fill="#5cff63" opacity="1.00" d=" M 378.99 11.92 C 380.77 15.46 384.02 17.55 387.11 19.79 C 384.81 19.56 382.67 18.71 380.82 17.36 C 380.52 16.74 379.93 15.51 379.63 14.89 L 378.99 11.92 Z" />
<path fill="#2a9f39" opacity="0.65" d=" M 393.18 17.30 C 392.71 15.73 393.77 14.24 395.17 13.59 L 395.34 14.24 C 395.00 15.54 394.28 16.56 393.18 17.30 Z" />
</svg>
