<?xml version="1.0" encoding="UTF-8" ?>
<!DOCTYPE svg PUBLIC "-//W3C//DTD SVG 1.1//EN" "http://www.w3.org/Graphics/SVG/1.1/DTD/svg11.dtd">
<svg width="960pt" height="540pt" viewBox="0 0 960 540" version="1.1" xmlns="http://www.w3.org/2000/svg">
<path fill="#5e78b8" opacity="1.00" d=" M 440.87 66.65 C 455.21 60.76 469.40 54.49 483.90 49.02 C 484.61 49.30 486.05 49.85 486.77 50.12 C 483.43 50.69 479.89 51.35 477.87 54.37 C 475.79 53.96 473.95 54.75 472.60 56.36 C 468.61 57.72 464.48 58.59 460.53 60.09 C 455.85 61.83 450.94 63.20 446.73 65.98 C 446.58 66.15 446.28 66.49 446.13 66.66 C 443.76 67.01 441.87 68.41 440.79 70.55 C 439.46 70.81 438.69 71.59 438.47 72.90 C 437.90 73.64 437.36 74.40 436.83 75.16 C 436.15 76.40 436.46 77.42 437.76 78.21 C 436.89 79.94 437.51 81.79 437.93 83.56 C 439.82 83.47 441.71 83.39 443.61 83.32 C 443.46 85.08 443.29 86.83 443.25 88.60 C 442.79 88.66 441.88 88.76 441.43 88.82 C 440.66 88.98 439.11 89.31 438.34 89.48 C 438.40 90.72 438.64 91.95 438.76 93.20 C 438.78 93.91 438.83 95.33 438.85 96.04 C 437.99 95.28 437.12 94.53 436.26 93.78 L 436.38 93.24 C 436.93 90.64 437.49 88.03 438.04 85.43 C 437.49 85.60 436.40 85.95 435.86 86.13 C 435.67 81.02 435.64 75.90 435.42 70.79 C 436.07 68.33 438.84 67.60 440.87 66.65 Z" />
<path fill="#363c61" opacity="1.00" d=" M 486.77 50.12 C 487.20 50.58 487.63 51.05 488.06 51.53 C 488.51 55.41 489.15 59.26 490.18 63.03 C 488.71 63.38 487.25 63.73 485.83 64.20 C 484.60 65.13 483.43 66.13 482.25 67.11 C 483.03 68.06 483.80 69.02 484.58 69.98 C 483.66 72.22 483.14 74.59 482.71 76.96 L 481.74 77.44 C 480.89 70.49 479.85 63.43 476.91 57.01 C 476.36 54.87 474.02 56.38 472.60 56.36 C 473.95 54.75 475.79 53.96 477.87 54.37 C 479.89 51.35 483.43 50.69 486.77 50.12 M 480.20 54.44 C 479.29 56.68 478.53 59.53 480.38 61.54 C 482.31 62.97 484.03 60.68 485.43 59.61 L 485.71 59.96 C 486.27 57.83 487.50 54.45 484.85 53.22 C 483.10 52.11 481.45 53.23 480.20 54.44 Z" />
<path fill="#babfcc" opacity="1.00" d=" M 488.06 51.53 C 490.28 54.54 490.22 58.46 491.06 61.96 C 491.38 64.71 492.56 67.42 492.24 70.20 L 492.14 70.75 C 491.72 70.74 490.87 70.72 490.45 70.71 C 489.42 70.97 488.41 71.24 487.40 71.54 C 487.36 71.33 487.27 70.92 487.22 70.71 C 488.08 70.57 489.79 70.30 490.65 70.16 C 490.38 68.35 490.10 66.53 489.83 64.72 C 488.48 64.55 487.15 64.37 485.83 64.20 C 487.25 63.73 488.71 63.38 490.18 63.03 C 489.15 59.26 488.51 55.41 488.06 51.53 Z" />
<path fill="#5c6fa7" opacity="1.00" d=" M 480.20 54.44 C 481.45 53.23 483.10 52.11 484.85 53.22 C 487.50 54.45 486.27 57.83 485.71 59.96 L 485.43 59.61 C 483.89 57.69 482.12 55.97 480.20 54.44 Z" />
<path fill="#798fc9" opacity="1.00" d=" M 480.20 54.44 C 482.12 55.97 483.89 57.69 485.43 59.61 C 484.03 60.68 482.31 62.97 480.38 61.54 C 478.53 59.53 479.29 56.68 480.20 54.44 Z" />
<path fill="#d6d8d5" opacity="1.00" d=" M 472.60 56.36 C 474.02 56.38 476.36 54.87 476.91 57.01 C 479.85 63.43 480.89 70.49 481.74 77.44 C 480.62 77.98 479.49 78.50 478.35 78.99 C 477.34 72.54 475.80 66.18 475.15 59.68 C 474.05 60.15 472.96 60.63 471.88 61.10 L 471.42 61.31 C 469.79 61.98 468.14 62.60 466.49 63.20 C 463.95 64.11 461.46 65.12 458.96 66.14 C 458.64 66.08 457.98 65.97 457.65 65.92 C 457.58 65.10 457.54 64.28 457.51 63.45 C 458.53 62.35 459.55 61.23 460.53 60.09 C 464.48 58.59 468.61 57.72 472.60 56.36 Z" />
<path fill="#babfcc" opacity="1.00" d=" M 446.73 65.98 C 450.94 63.20 455.85 61.83 460.53 60.09 C 459.55 61.23 458.53 62.35 457.51 63.45 C 457.54 64.28 457.58 65.10 457.65 65.92 C 457.98 65.97 458.64 66.08 458.96 66.14 C 457.93 66.58 456.92 67.05 455.91 67.50 C 454.38 68.17 452.83 68.80 451.28 69.41 C 451.15 68.64 450.89 67.09 450.76 66.31 C 449.42 66.21 448.07 66.10 446.73 65.98 Z" />
<path fill="#01030a" opacity="1.00" d=" M 471.88 61.10 C 472.96 60.63 474.05 60.15 475.15 59.68 C 475.80 66.18 477.34 72.54 478.35 78.99 C 476.48 79.77 474.60 80.53 472.73 81.29 C 472.87 80.87 473.14 80.03 473.28 79.61 C 473.47 79.03 473.85 77.88 474.05 77.30 C 473.58 76.96 472.65 76.28 472.18 75.94 C 472.39 75.04 472.62 74.15 472.84 73.25 C 471.97 73.88 471.10 74.51 470.24 75.14 C 469.74 73.19 469.24 71.25 468.71 69.31 C 470.79 67.05 471.75 64.13 471.88 61.10 M 473.28 70.21 C 473.79 70.74 473.79 70.74 473.28 70.21 Z" />
<path fill="#01030a" opacity="1.00" d=" M 466.49 63.20 C 468.14 62.60 469.79 61.98 471.42 61.31 C 470.55 63.13 469.78 64.99 468.87 66.79 C 467.49 66.02 466.95 64.61 466.49 63.20 Z" />
<path fill="#327892" opacity="1.00" d=" M 471.42 61.31 L 471.88 61.10 C 471.75 64.13 470.79 67.05 468.71 69.31 C 467.50 70.41 466.21 71.41 464.86 72.32 C 465.98 70.80 467.07 69.26 468.20 67.74 C 468.36 67.50 468.70 67.03 468.87 66.79 C 469.78 64.99 470.55 63.13 471.42 61.31 Z" />
<path fill="#575294" opacity="1.00" d=" M 509.99 67.95 C 516.83 64.54 524.40 62.92 531.95 62.04 C 533.59 61.66 535.10 62.48 536.58 63.06 L 536.63 63.37 C 537.20 66.65 537.77 69.95 537.75 73.30 C 536.51 71.41 536.13 69.17 535.77 66.99 C 535.18 66.96 533.99 66.89 533.40 66.86 C 533.87 69.27 535.41 72.05 534.32 74.42 C 533.15 74.59 531.98 74.69 530.82 74.81 C 529.37 72.93 527.88 71.08 526.37 69.26 C 527.23 68.84 528.10 68.43 528.98 68.01 C 515.82 69.09 503.12 73.09 491.01 78.16 C 489.44 78.59 489.55 80.44 489.04 81.65 C 485.94 83.63 482.94 85.76 480.03 88.01 C 480.58 91.50 480.72 95.41 478.35 98.31 C 477.11 100.30 474.69 100.77 472.65 101.49 C 472.67 104.07 472.87 106.64 473.08 109.21 C 472.77 111.26 473.99 115.16 470.87 115.17 C 469.31 109.25 469.57 103.02 469.30 96.95 C 470.17 96.33 471.06 95.73 471.91 95.06 C 473.40 94.12 473.53 92.34 473.64 90.76 C 474.33 89.30 474.96 87.83 475.57 86.34 C 474.13 86.86 472.39 87.03 471.57 88.50 C 470.82 89.43 470.08 90.38 469.35 91.32 C 469.51 89.96 469.68 88.61 469.85 87.26 C 469.35 87.41 468.36 87.71 467.86 87.85 C 467.77 87.33 467.59 86.29 467.50 85.77 C 468.88 84.78 470.21 83.71 471.49 82.57 L 471.69 81.68 C 471.79 80.93 472.00 79.43 472.11 78.68 L 473.28 79.61 C 473.14 80.03 472.87 80.87 472.73 81.29 C 474.60 80.53 476.48 79.77 478.35 78.99 C 479.49 78.50 480.62 77.98 481.74 77.44 L 482.71 76.96 C 483.84 76.62 484.99 76.33 486.16 76.09 C 486.75 75.86 487.93 75.39 488.52 75.15 C 489.77 74.00 489.97 72.26 490.45 70.71 C 490.87 70.72 491.72 70.74 492.14 70.75 C 492.01 72.06 492.05 73.35 492.26 74.65 C 492.51 74.60 493.01 74.50 493.26 74.45 C 499.25 73.55 504.64 70.63 509.99 67.95 M 477.52 88.82 C 476.90 89.91 476.29 91.02 475.70 92.12 C 476.69 92.85 477.73 93.54 478.81 94.15 C 478.76 92.29 478.88 90.27 477.52 88.82 M 472.18 98.77 C 473.55 98.71 475.12 98.93 476.27 97.96 C 475.89 96.85 475.14 95.98 474.00 95.36 C 473.37 96.49 472.76 97.63 472.18 98.77 Z" />
<path fill="#1a405a" opacity="1.00" d=" M 458.96 66.14 C 461.46 65.12 463.95 64.11 466.49 63.20 C 466.95 64.61 467.49 66.02 468.87 66.79 C 468.70 67.03 468.36 67.50 468.20 67.74 C 466.51 68.68 464.75 69.48 462.89 69.99 C 463.43 68.81 463.04 66.53 461.30 66.94 C 459.35 67.57 461.31 69.55 462.28 70.13 C 461.20 69.93 460.12 69.71 459.06 69.46 C 458.32 69.27 456.84 68.87 456.10 68.67 L 455.91 67.50 C 456.92 67.05 457.93 66.58 458.96 66.14 Z" />
<path fill="#48587b" opacity="1.00" d=" M 482.25 67.11 C 483.43 66.13 484.60 65.13 485.83 64.20 C 487.15 64.37 488.48 64.55 489.83 64.72 C 490.10 66.53 490.38 68.35 490.65 70.16 C 489.79 70.30 488.08 70.57 487.22 70.71 C 487.27 70.92 487.36 71.33 487.40 71.54 C 488.41 71.24 489.42 70.97 490.45 70.71 C 489.97 72.26 489.77 74.00 488.52 75.15 C 488.00 73.45 485.60 74.59 486.16 76.09 C 484.99 76.33 483.84 76.62 482.71 76.96 C 483.14 74.59 483.66 72.22 484.58 69.98 C 483.80 69.02 483.03 68.06 482.25 67.11 Z" />
<path fill="#514c8c" opacity="1.00" d=" M 537.75 73.30 C 537.77 69.95 537.20 66.65 536.63 63.37 C 537.52 63.99 538.26 64.73 538.84 65.58 C 539.33 71.71 540.80 77.70 541.14 83.84 C 540.43 82.43 539.70 81.03 538.96 79.64 C 538.68 84.82 540.30 89.88 539.97 95.06 C 537.83 92.57 534.55 90.34 534.53 86.73 C 534.23 83.21 533.18 79.82 532.30 76.41 C 532.81 75.91 533.81 74.91 534.32 74.42 C 535.41 72.05 533.87 69.27 533.40 66.86 C 533.99 66.89 535.18 66.96 535.77 66.99 C 536.13 69.17 536.51 71.41 537.75 73.30 M 538.22 74.35 C 537.44 75.47 537.24 78.24 538.68 78.72 C 539.27 77.54 539.63 74.87 538.22 74.35 Z" />
<path fill="#d3d5d5" opacity="1.00" d=" M 446.13 66.66 C 446.28 66.49 446.58 66.15 446.73 65.98 C 448.07 66.10 449.42 66.21 450.76 66.31 C 450.89 67.09 451.15 68.64 451.28 69.41 C 450.31 69.79 449.33 70.16 448.36 70.54 C 449.17 76.70 450.37 82.82 450.83 89.02 C 450.88 89.76 450.99 91.22 451.04 91.95 C 456.58 90.05 462.17 88.23 467.50 85.77 C 467.59 86.29 467.77 87.33 467.86 87.85 C 467.39 89.76 465.93 90.90 464.06 91.26 C 463.37 91.99 462.71 92.72 462.06 93.47 L 462.08 91.86 C 460.57 92.44 459.07 93.04 457.55 93.56 L 455.71 93.62 C 456.05 94.68 456.40 95.75 456.76 96.82 C 455.90 96.86 454.19 96.95 453.34 97.00 L 455.52 96.07 C 454.96 95.55 454.41 95.04 453.85 94.53 C 453.15 95.93 453.36 98.61 451.08 98.13 C 446.59 88.35 445.45 77.31 446.13 66.66 Z" />
<path fill="#95969e" opacity="1.00" d=" M 538.84 65.58 C 539.16 66.10 539.79 67.15 540.11 67.67 C 542.01 79.47 543.67 91.32 545.40 103.15 C 545.93 106.26 545.62 109.82 543.20 112.11 C 539.65 115.48 535.11 117.50 530.72 119.50 C 535.16 115.26 542.80 113.76 544.37 107.03 C 544.61 101.08 543.08 95.19 541.88 89.39 C 541.68 87.54 541.42 85.69 541.14 83.84 C 540.80 77.70 539.33 71.71 538.84 65.58 Z" />
<path fill="#42508f" opacity="1.00" d=" M 440.79 70.55 C 441.87 68.41 443.76 67.01 446.13 66.66 C 445.45 77.31 446.59 88.35 451.08 98.13 C 453.36 98.61 453.15 95.93 453.85 94.53 C 454.41 95.04 454.96 95.55 455.52 96.07 L 453.34 97.00 C 454.19 96.95 455.90 96.86 456.76 96.82 C 456.40 95.75 456.05 94.68 455.71 93.62 L 457.55 93.56 C 457.96 95.19 458.34 96.84 458.71 98.49 C 456.19 99.22 453.69 100.12 451.61 101.75 C 452.65 101.70 453.70 101.65 454.75 101.60 C 454.86 102.05 455.08 102.95 455.19 103.40 C 454.69 103.59 453.69 103.97 453.19 104.16 C 451.73 104.11 450.27 104.04 448.83 103.96 C 449.01 103.50 449.38 102.58 449.56 102.12 C 446.76 102.96 443.87 103.41 440.96 103.52 C 440.80 102.84 440.50 101.46 440.35 100.78 C 439.82 100.55 438.77 100.11 438.24 99.88 C 437.33 97.94 436.89 95.82 436.26 93.78 C 437.12 94.53 437.99 95.28 438.85 96.04 C 439.13 96.27 439.67 96.73 439.94 96.96 C 441.93 95.88 441.28 92.45 438.76 93.20 C 438.64 91.95 438.40 90.72 438.34 89.48 C 439.11 89.31 440.66 88.98 441.43 88.82 C 440.88 90.03 441.12 91.09 442.14 92.01 C 443.49 91.40 443.68 89.86 443.25 88.60 C 443.29 86.83 443.46 85.08 443.61 83.32 C 441.71 83.39 439.82 83.47 437.93 83.56 C 437.51 81.79 436.89 79.94 437.76 78.21 C 439.12 77.19 439.02 74.53 436.83 75.16 C 437.36 74.40 437.90 73.64 438.47 72.90 L 439.41 73.22 L 440.40 72.65 C 440.50 72.12 440.69 71.07 440.79 70.55 M 442.26 73.08 C 441.04 74.06 442.27 76.89 443.80 75.70 C 444.96 74.72 443.80 71.75 442.26 73.08 M 440.26 77.48 C 438.70 78.07 439.03 80.92 440.97 80.12 C 442.84 79.78 441.98 76.72 440.26 77.48 M 444.12 92.20 C 443.37 93.94 445.74 94.33 446.76 95.06 C 446.94 93.43 446.63 91.81 446.06 90.28 C 445.58 90.76 444.61 91.72 444.12 92.20 M 442.31 96.40 C 440.64 97.83 442.97 100.01 444.37 98.39 C 445.96 97.17 443.53 94.87 442.31 96.40 Z" />
<path fill="#2a6078" opacity="1.00" d=" M 462.28 70.13 C 461.31 69.55 459.35 67.57 461.30 66.94 C 463.04 66.53 463.43 68.81 462.89 69.99 L 462.28 70.13 Z" />
<path fill="#03070f" opacity="1.00" d=" M 451.28 69.41 C 452.83 68.80 454.38 68.17 455.91 67.50 L 456.10 68.67 C 455.54 71.49 454.23 74.07 453.46 76.82 C 453.97 79.22 456.41 80.52 458.01 82.19 C 458.27 81.62 458.79 80.49 459.06 79.93 C 458.31 79.83 456.81 79.64 456.06 79.55 C 456.71 76.53 457.24 73.48 457.31 70.38 C 457.75 70.15 458.63 69.69 459.06 69.46 C 460.12 69.71 461.20 69.93 462.28 70.13 L 462.89 69.99 C 464.75 69.48 466.51 68.68 468.20 67.74 C 467.07 69.26 465.98 70.80 464.86 72.32 C 463.72 73.21 462.25 72.52 460.97 72.48 C 460.51 73.14 460.07 73.81 459.63 74.47 C 460.71 74.39 461.79 74.31 462.88 74.27 C 462.79 75.42 462.74 76.58 462.69 77.74 C 462.66 78.31 462.61 79.45 462.58 80.02 C 462.85 81.54 463.24 83.03 463.61 84.53 C 459.33 85.99 455.09 87.53 450.83 89.02 C 450.37 82.82 449.17 76.70 448.36 70.54 C 449.33 70.16 450.31 69.79 451.28 69.41 M 459.24 84.29 C 459.74 84.83 459.74 84.83 459.24 84.29 Z" />
<path fill="#635ca7" opacity="1.00" d=" M 491.01 78.16 C 503.12 73.09 515.82 69.09 528.98 68.01 C 528.10 68.43 527.23 68.84 526.37 69.26 C 527.88 71.08 529.37 72.93 530.82 74.81 C 531.98 74.69 533.15 74.59 534.32 74.42 C 533.81 74.91 532.81 75.91 532.30 76.41 C 533.18 79.82 534.23 83.21 534.53 86.73 C 534.55 90.34 537.83 92.57 539.97 95.06 C 540.30 89.88 538.68 84.82 538.96 79.64 C 539.70 81.03 540.43 82.43 541.14 83.84 C 541.42 85.69 541.68 87.54 541.88 89.39 C 540.79 94.91 543.86 100.32 542.42 105.81 C 541.44 102.67 540.86 99.43 540.56 96.16 C 540.29 99.19 539.37 102.10 537.92 104.75 C 539.05 104.39 540.20 104.02 541.36 103.67 C 542.53 109.81 536.87 113.75 531.99 115.91 L 532.39 114.53 C 524.27 117.21 516.02 119.43 507.76 121.62 C 508.33 121.80 509.47 122.17 510.04 122.35 C 505.45 123.07 500.96 124.26 496.50 125.53 C 494.13 125.86 491.77 126.17 489.42 126.55 C 487.95 126.18 486.50 125.73 485.06 125.31 C 486.55 124.72 488.04 124.14 489.54 123.55 C 489.96 121.24 490.53 118.79 493.02 117.93 C 494.75 117.85 496.49 117.85 498.23 117.87 C 497.94 118.42 497.37 119.54 497.08 120.10 C 498.38 120.52 499.60 120.34 500.72 119.57 C 501.69 118.18 499.16 117.69 498.23 117.87 C 498.25 117.46 498.29 116.64 498.31 116.24 C 500.58 117.56 505.98 116.53 504.27 113.01 C 505.60 112.60 506.93 112.19 508.28 111.79 C 507.88 112.44 507.07 113.74 506.67 114.39 C 508.37 114.49 510.15 114.67 511.76 113.93 C 517.08 111.80 522.22 109.14 526.96 105.91 C 529.29 104.54 529.72 101.65 530.27 99.24 C 531.72 91.23 530.99 82.46 526.63 75.41 C 525.76 74.14 524.73 72.48 522.96 72.59 C 511.07 72.04 499.24 75.68 489.04 81.65 C 489.55 80.44 489.44 78.59 491.01 78.16 M 534.52 97.88 C 535.19 99.28 536.57 100.03 538.07 100.21 C 537.98 98.29 537.70 96.38 536.89 94.62 C 536.00 95.61 534.79 96.49 534.52 97.88 M 532.12 101.68 C 531.51 103.19 530.93 104.71 530.37 106.23 C 532.14 106.63 533.94 106.36 535.68 105.91 C 535.74 105.16 535.85 103.66 535.90 102.91 L 535.63 103.65 C 535.11 103.34 534.07 102.72 533.55 102.41 C 533.66 100.71 533.18 100.47 532.12 101.68 M 504.65 119.15 C 506.28 118.93 508.35 119.15 508.91 117.15 C 507.62 114.51 504.12 116.77 504.65 119.15 M 490.21 122.04 C 491.56 121.80 494.67 122.59 494.66 120.38 C 492.96 119.39 491.12 120.60 490.21 122.04 Z" />
<path fill="#0e0e0e" opacity="0.54" d=" M 540.11 67.67 C 540.87 69.02 541.50 70.47 541.69 72.03 C 543.33 82.37 544.72 92.76 546.33 103.10 C 546.85 106.79 547.09 111.31 543.88 113.91 C 535.00 121.27 523.43 124.12 512.25 125.71 C 501.62 126.96 492.52 133.63 481.90 134.93 C 479.04 135.04 475.45 134.69 473.89 131.93 C 475.39 132.54 476.92 133.11 478.47 133.62 C 482.36 134.30 486.03 132.35 489.70 131.37 C 491.54 130.86 493.33 130.19 495.04 129.33 C 497.66 128.10 500.35 126.99 503.12 126.12 C 512.27 123.74 522.07 123.60 530.72 119.50 C 535.11 117.50 539.65 115.48 543.20 112.11 C 545.62 109.82 545.93 106.26 545.40 103.15 C 543.67 91.32 542.01 79.47 540.11 67.67 Z" />
<path fill="#327892" opacity="1.00" d=" M 456.10 68.67 C 456.84 68.87 458.32 69.27 459.06 69.46 C 458.63 69.69 457.75 70.15 457.31 70.38 C 457.24 73.48 456.71 76.53 456.06 79.55 C 456.81 79.64 458.31 79.83 459.06 79.93 C 458.79 80.49 458.27 81.62 458.01 82.19 C 456.41 80.52 453.97 79.22 453.46 76.82 C 454.23 74.07 455.54 71.49 456.10 68.67 Z" />
<path fill="#1b455c" opacity="1.00" d=" M 464.86 72.32 C 466.21 71.41 467.50 70.41 468.71 69.31 C 469.24 71.25 469.74 73.19 470.24 75.14 C 471.10 74.51 471.97 73.88 472.84 73.25 C 472.62 74.15 472.39 75.04 472.18 75.94 C 472.65 76.28 473.58 76.96 474.05 77.30 C 473.85 77.88 473.47 79.03 473.28 79.61 L 472.11 78.68 C 472.12 78.31 472.15 77.57 472.16 77.20 C 471.27 77.36 470.38 77.51 469.49 77.67 L 469.26 76.51 L 469.43 76.55 C 469.38 76.48 469.27 76.34 469.21 76.26 C 468.92 75.87 468.33 75.08 468.03 74.69 C 467.55 75.00 466.59 75.64 466.11 75.96 C 466.16 75.01 466.26 73.11 466.30 72.16 C 465.41 73.64 464.52 75.12 463.71 76.64 C 463.50 76.05 463.09 74.86 462.88 74.27 C 461.79 74.31 460.71 74.39 459.63 74.47 C 460.07 73.81 460.51 73.14 460.97 72.48 C 462.25 72.52 463.72 73.21 464.86 72.32 Z" />
<path fill="#2c4c61" opacity="1.00" d=" M 473.28 70.21 C 473.79 70.74 473.79 70.74 473.28 70.21 Z" />
<path fill="#95969e" opacity="1.00" d=" M 492.24 70.20 C 493.70 70.75 493.65 73.16 493.26 74.45 C 493.01 74.50 492.51 74.60 492.26 74.65 C 492.05 73.35 492.01 72.06 492.14 70.75 L 492.24 70.20 Z" />
<path fill="#49599a" opacity="0.92" d=" M 436.38 93.24 C 434.63 85.96 433.68 78.16 435.42 70.79 C 435.64 75.90 435.67 81.02 435.86 86.13 C 436.40 85.95 437.49 85.60 438.04 85.43 C 437.49 88.03 436.93 90.64 436.38 93.24 Z" />
<path fill="#f5d7b6" opacity="1.00" d=" M 438.47 72.90 C 438.69 71.59 439.46 70.81 440.79 70.55 C 440.69 71.07 440.50 72.12 440.40 72.65 L 439.41 73.22 L 438.47 72.90 Z" />
<path fill="#9faaba" opacity="1.00" d=" M 442.26 73.08 C 443.80 71.75 444.96 74.72 443.80 75.70 C 442.27 76.89 441.04 74.06 442.26 73.08 Z" />
<path fill="#020610" opacity="1.00" d=" M 463.71 76.64 C 464.52 75.12 465.41 73.64 466.30 72.16 C 466.26 73.11 466.16 75.01 466.11 75.96 C 466.59 75.64 467.55 75.00 468.03 74.69 C 468.33 75.08 468.92 75.87 469.21 76.26 L 469.26 76.51 L 469.49 77.67 C 470.38 77.51 471.27 77.36 472.16 77.20 C 472.15 77.57 472.12 78.31 472.11 78.68 C 472.00 79.43 471.79 80.93 471.69 81.68 C 470.01 82.29 468.33 82.91 466.65 83.50 C 466.19 82.02 465.88 80.43 464.96 79.14 C 464.62 78.61 463.94 77.56 463.60 77.03 L 463.71 76.64 Z" />
<path fill="#121115" opacity="1.00" d=" M 489.04 81.65 C 499.24 75.68 511.07 72.04 522.96 72.59 C 524.73 72.48 525.76 74.14 526.63 75.41 C 530.99 82.46 531.72 91.23 530.27 99.24 C 529.72 101.65 529.29 104.54 526.96 105.91 C 522.22 109.14 517.08 111.80 511.76 113.93 C 510.15 114.67 508.37 114.49 506.67 114.39 C 507.07 113.74 507.88 112.44 508.28 111.79 C 506.93 112.19 505.60 112.60 504.27 113.01 C 505.98 116.53 500.58 117.56 498.31 116.24 C 498.29 116.64 498.25 117.46 498.23 117.87 C 496.49 117.85 494.75 117.85 493.02 117.93 C 489.73 118.09 486.42 118.12 483.17 117.54 C 482.97 114.97 482.87 112.07 480.82 110.19 C 478.82 107.97 475.63 109.11 473.08 109.21 C 472.87 106.64 472.67 104.07 472.65 101.49 C 474.69 100.77 477.11 100.30 478.35 98.31 C 480.72 95.41 480.58 91.50 480.03 88.01 C 482.94 85.76 485.94 83.63 489.04 81.65 M 507.92 81.59 C 502.11 82.71 496.42 84.53 491.00 86.90 C 489.99 87.55 488.42 87.81 488.04 89.11 C 487.40 92.28 487.71 95.54 487.76 98.74 C 486.62 100.82 491.45 99.76 491.91 98.45 L 492.00 100.20 C 490.77 100.92 489.55 101.64 488.33 102.35 C 488.41 103.76 488.51 105.17 488.61 106.58 C 489.02 106.53 489.85 106.44 490.27 106.40 C 490.65 106.68 491.41 107.25 491.79 107.53 C 491.15 107.42 489.88 107.19 489.24 107.07 C 489.37 109.42 489.50 111.76 489.63 114.11 C 493.32 112.99 497.08 112.06 500.72 110.76 C 503.66 109.50 506.83 108.90 509.80 107.72 C 510.91 107.54 512.02 107.37 513.13 107.20 C 516.76 106.10 520.41 105.06 524.05 103.97 C 524.04 103.24 524.04 101.78 524.04 101.05 L 523.61 101.16 C 523.40 99.20 523.17 97.23 522.94 95.27 C 522.72 93.80 522.52 92.33 522.32 90.86 C 520.90 90.95 519.49 91.04 518.08 91.13 L 518.12 90.37 C 519.70 90.08 521.13 89.47 522.43 88.53 C 520.65 88.73 518.90 88.99 517.16 89.33 C 516.91 88.43 516.68 87.53 516.46 86.63 C 517.23 86.25 518.01 85.87 518.80 85.50 C 518.42 85.18 517.65 84.55 517.27 84.24 C 518.45 84.37 519.66 84.51 520.86 84.65 C 520.85 82.41 520.81 80.17 520.73 77.93 C 516.20 78.02 512.08 80.03 507.92 81.59 M 473.99 104.56 C 474.03 104.92 474.10 105.63 474.13 105.98 C 476.56 105.05 479.02 104.16 481.58 103.65 C 483.11 102.97 485.19 102.91 486.07 101.25 C 481.96 102.05 478.13 103.89 473.99 104.56 M 491.32 116.97 C 492.64 117.73 493.48 117.49 493.86 116.26 C 492.53 115.51 491.68 115.75 491.32 116.97 Z" />
<path fill="#9ea7b9" opacity="1.00" d=" M 486.16 76.09 C 485.60 74.59 488.00 73.45 488.52 75.15 C 487.93 75.39 486.75 75.86 486.16 76.09 Z" />
<path fill="#726daa" opacity="1.00" d=" M 538.22 74.35 C 539.63 74.87 539.27 77.54 538.68 78.72 C 537.24 78.24 537.44 75.47 538.22 74.35 Z" />
<path fill="#f5d7b6" opacity="1.00" d=" M 436.83 75.16 C 439.02 74.53 439.12 77.19 437.76 78.21 C 436.46 77.42 436.15 76.40 436.83 75.16 Z" />
<path fill="#f5d7b6" opacity="1.00" d=" M 462.69 77.74 C 462.74 76.58 462.79 75.42 462.88 74.27 C 463.09 74.86 463.50 76.05 463.71 76.64 L 463.60 77.03 C 463.94 77.56 464.62 78.61 464.96 79.14 L 464.92 79.33 C 464.48 78.86 463.59 77.91 463.14 77.44 C 463.00 78.09 462.72 79.38 462.58 80.02 C 462.61 79.45 462.66 78.31 462.69 77.74 Z" />
<path fill="#40809d" opacity="1.00" d=" M 469.21 76.26 C 469.27 76.34 469.38 76.48 469.43 76.55 L 469.26 76.51 L 469.21 76.26 Z" />
<path fill="#9ea9b9" opacity="1.00" d=" M 440.26 77.48 C 441.98 76.72 442.84 79.78 440.97 80.12 C 439.03 80.92 438.70 78.07 440.26 77.48 Z" />
<path fill="#000231" opacity="1.00" d=" M 507.92 81.59 C 512.08 80.03 516.20 78.02 520.73 77.93 C 520.81 80.17 520.85 82.41 520.86 84.65 C 519.66 84.51 518.45 84.37 517.27 84.24 C 517.65 84.55 518.42 85.18 518.80 85.50 C 518.01 85.87 517.23 86.25 516.46 86.63 C 516.68 87.53 516.91 88.43 517.16 89.33 C 516.60 89.44 515.49 89.67 514.93 89.79 C 514.69 88.77 514.48 87.75 514.29 86.73 C 515.17 84.70 513.75 81.84 511.35 83.19 C 511.23 83.68 511.01 84.67 510.89 85.16 C 509.93 83.94 508.92 82.77 507.92 81.59 Z" />
<path fill="#1f3441" opacity="1.00" d=" M 463.14 77.44 C 463.59 77.91 464.48 78.86 464.92 79.33 L 464.96 79.14 C 465.88 80.43 466.19 82.02 466.65 83.50 C 465.63 83.85 464.61 84.19 463.61 84.53 C 463.24 83.03 462.85 81.54 462.58 80.02 C 462.72 79.38 463.00 78.09 463.14 77.44 Z" />
<path fill="#455d69" opacity="1.00" d=" M 466.65 83.50 C 468.33 82.91 470.01 82.29 471.69 81.68 L 471.49 82.57 C 470.21 83.71 468.88 84.78 467.50 85.77 C 462.17 88.23 456.58 90.05 451.04 91.95 C 450.99 91.22 450.88 89.76 450.83 89.02 C 455.09 87.53 459.33 85.99 463.61 84.53 C 464.61 84.19 465.63 83.85 466.65 83.50 Z" />
<path fill="#163359" opacity="1.00" d=" M 491.00 86.90 C 496.42 84.53 502.11 82.71 507.92 81.59 C 508.92 82.77 509.93 83.94 510.89 85.16 C 510.96 85.67 511.09 86.70 511.15 87.21 C 510.82 87.41 510.16 87.83 509.84 88.03 C 509.48 87.95 508.76 87.78 508.40 87.70 C 507.88 88.89 507.37 90.09 506.86 91.28 C 506.30 89.95 505.74 88.61 505.18 87.27 C 505.04 88.04 504.77 89.56 504.64 90.32 C 502.80 90.60 500.96 90.91 499.15 91.30 C 499.08 90.47 498.94 88.80 498.87 87.96 C 496.94 87.54 494.93 87.37 493.12 88.30 C 493.01 90.05 492.98 91.81 492.94 93.57 L 492.53 93.74 C 492.21 94.91 491.99 96.10 491.87 97.30 C 490.42 97.54 489.06 98.11 487.76 98.74 C 487.71 95.54 487.40 92.28 488.04 89.11 C 488.42 87.81 489.99 87.55 491.00 86.90 Z" />
<path fill="#99938e" opacity="1.00" d=" M 511.35 83.19 C 513.75 81.84 515.17 84.70 514.29 86.73 C 514.09 87.11 513.68 87.86 513.48 88.24 C 513.25 87.76 512.80 86.79 512.58 86.30 C 512.22 86.53 511.51 86.98 511.15 87.21 C 511.09 86.70 510.96 85.67 510.89 85.16 C 511.01 84.67 511.23 83.68 511.35 83.19 Z" />
<path fill="#305165" opacity="1.00" d=" M 459.24 84.29 C 459.74 84.83 459.74 84.83 459.24 84.29 Z" />
<path fill="#babfcc" opacity="1.00" d=" M 511.15 87.21 C 511.51 86.98 512.22 86.53 512.58 86.30 C 512.80 86.79 513.25 87.76 513.48 88.24 C 513.68 87.86 514.09 87.11 514.29 86.73 C 514.48 87.75 514.69 88.77 514.93 89.79 C 515.49 89.67 516.60 89.44 517.16 89.33 C 518.90 88.99 520.65 88.73 522.43 88.53 C 521.13 89.47 519.70 90.08 518.12 90.37 L 518.08 91.13 C 518.05 91.65 518.00 92.70 517.98 93.23 C 516.93 92.82 515.88 92.41 514.84 92.01 C 514.35 91.74 513.38 91.19 512.89 90.92 C 511.93 90.91 510.98 90.89 510.04 90.88 C 510.84 90.40 512.44 89.43 513.25 88.95 C 512.39 88.72 510.69 88.26 509.84 88.03 C 510.16 87.83 510.82 87.41 511.15 87.21 M 513.31 89.23 C 513.84 89.78 513.84 89.78 513.31 89.23 Z" />
<path fill="#47437a" opacity="1.00" d=" M 467.86 87.85 C 468.36 87.71 469.35 87.41 469.85 87.26 C 469.68 88.61 469.51 89.96 469.35 91.32 C 470.08 90.38 470.82 89.43 471.57 88.50 C 472.09 89.07 473.12 90.19 473.64 90.76 C 473.53 92.34 473.40 94.12 471.91 95.06 C 472.29 93.05 470.38 92.45 469.00 91.66 C 469.08 93.42 469.21 95.18 469.30 96.95 C 469.57 103.02 469.31 109.25 470.87 115.17 C 473.99 115.16 472.77 111.26 473.08 109.21 C 475.63 109.11 478.82 107.97 480.82 110.19 C 482.87 112.07 482.97 114.97 483.17 117.54 L 481.86 117.21 C 481.36 115.72 480.88 114.22 480.38 112.73 C 478.47 114.22 477.42 116.69 479.99 118.21 C 480.38 118.06 481.15 117.76 481.54 117.60 C 480.58 118.88 479.55 120.08 478.57 121.34 C 477.75 120.70 476.93 120.07 476.10 119.46 C 475.60 120.72 475.12 121.99 474.64 123.25 C 475.98 122.97 477.33 122.69 478.68 122.42 L 478.80 123.59 C 477.53 124.35 476.24 125.05 474.97 125.77 C 476.58 126.55 478.22 127.30 479.95 127.82 C 478.58 128.74 478.13 130.25 477.89 131.79 C 484.38 130.67 490.70 128.68 496.50 125.53 C 500.96 124.26 505.45 123.07 510.04 122.35 C 517.63 121.39 525.19 119.51 531.99 115.91 C 536.87 113.75 542.53 109.81 541.36 103.67 C 540.20 104.02 539.05 104.39 537.92 104.75 C 539.37 102.10 540.29 99.19 540.56 96.16 C 540.86 99.43 541.44 102.67 542.42 105.81 C 543.86 100.32 540.79 94.91 541.88 89.39 C 543.08 95.19 544.61 101.08 544.37 107.03 C 542.80 113.76 535.16 115.26 530.72 119.50 C 522.07 123.60 512.27 123.74 503.12 126.12 C 500.21 126.57 497.46 127.66 495.04 129.33 C 493.33 130.19 491.54 130.86 489.70 131.37 C 485.76 130.70 482.01 132.09 478.47 133.62 C 476.92 133.11 475.39 132.54 473.89 131.93 C 471.62 129.93 470.59 126.98 469.77 124.17 C 468.25 118.83 467.23 113.36 466.69 107.84 C 466.74 105.02 466.66 102.20 466.46 99.39 C 466.19 99.24 465.67 98.93 465.40 98.78 C 464.88 98.49 463.83 97.90 463.31 97.61 C 464.40 97.15 465.49 96.69 466.59 96.24 C 464.98 95.86 463.40 95.49 461.81 95.12 C 461.87 94.71 462.00 93.88 462.06 93.47 C 462.71 92.72 463.37 91.99 464.06 91.26 C 465.93 90.90 467.39 89.76 467.86 87.85 M 465.04 92.34 C 465.27 95.61 468.03 90.65 465.04 92.34 M 474.23 111.17 C 473.10 112.72 475.31 113.72 476.05 114.75 C 476.72 113.44 477.38 112.13 478.03 110.81 C 476.75 110.51 475.33 110.23 474.23 111.17 M 471.08 115.92 C 471.19 117.44 471.28 118.98 471.57 120.49 C 473.11 121.25 473.46 118.96 474.09 118.02 C 474.35 116.37 472.07 116.43 471.08 115.92 Z" />
<path fill="#cacbcb" opacity="1.00" d=" M 471.57 88.50 C 472.39 87.03 474.13 86.86 475.57 86.34 C 474.96 87.83 474.33 89.30 473.64 90.76 C 473.12 90.19 472.09 89.07 471.57 88.50 Z" />
<path fill="#81533d" opacity="1.00" d=" M 493.12 88.30 C 494.93 87.37 496.94 87.54 498.87 87.96 C 498.94 88.80 499.08 90.47 499.15 91.30 L 499.26 92.61 C 498.21 92.18 497.16 91.77 496.11 91.36 C 496.26 90.89 496.58 89.94 496.73 89.47 C 495.83 89.18 494.02 88.59 493.12 88.30 Z" />
<path fill="#4e5f96" opacity="1.00" d=" M 506.86 91.28 C 507.37 90.09 507.88 88.89 508.40 87.70 C 508.76 87.78 509.48 87.95 509.84 88.03 C 510.69 88.26 512.39 88.72 513.25 88.95 C 512.44 89.43 510.84 90.40 510.04 90.88 C 510.98 90.89 511.93 90.91 512.89 90.92 L 512.82 91.74 C 512.77 92.34 512.65 93.53 512.60 94.13 C 512.25 93.78 511.55 93.10 511.20 92.76 L 510.43 92.03 C 507.96 91.82 505.53 92.30 503.20 93.09 C 501.73 92.99 500.48 93.43 499.47 94.42 C 499.26 94.04 498.85 93.29 498.64 92.91 C 498.97 92.91 499.64 92.92 499.97 92.92 L 499.26 92.61 L 499.15 91.30 C 500.96 90.91 502.80 90.60 504.64 90.32 C 504.77 89.56 505.04 88.04 505.18 87.27 C 505.74 88.61 506.30 89.95 506.86 91.28 Z" />
<path fill="#a2adbc" opacity="1.00" d=" M 441.43 88.82 C 441.88 88.76 442.79 88.66 443.25 88.60 C 443.68 89.86 443.49 91.40 442.14 92.01 C 441.12 91.09 440.88 90.03 441.43 88.82 Z" />
<path fill="#d6d8d5" opacity="1.00" d=" M 477.52 88.82 C 478.88 90.27 478.76 92.29 478.81 94.15 C 477.73 93.54 476.69 92.85 475.70 92.12 C 476.29 91.02 476.90 89.91 477.52 88.82 Z" />
<path fill="#6f4027" opacity="1.00" d=" M 492.94 93.57 C 492.98 91.81 493.01 90.05 493.12 88.30 C 494.02 88.59 495.83 89.18 496.73 89.47 C 496.58 89.94 496.26 90.89 496.11 91.36 C 496.00 91.64 495.79 92.20 495.69 92.48 C 495.00 92.75 493.63 93.29 492.94 93.57 Z" />
<path fill="#42508f" opacity="1.00" d=" M 513.31 89.23 C 513.84 89.78 513.84 89.78 513.31 89.23 Z" />
<path fill="#8f9aae" opacity="1.00" d=" M 444.12 92.20 C 444.61 91.72 445.58 90.76 446.06 90.28 C 446.63 91.81 446.94 93.43 446.76 95.06 C 445.74 94.33 443.37 93.94 444.12 92.20 Z" />
<path fill="#f5d7b6" opacity="1.00" d=" M 496.11 91.36 C 497.16 91.77 498.21 92.18 499.26 92.61 L 499.97 92.92 C 499.64 92.92 498.97 92.91 498.64 92.91 C 498.00 93.02 496.72 93.23 496.07 93.34 C 495.36 95.48 498.04 95.68 499.43 95.14 C 499.81 95.43 500.58 96.01 500.97 96.30 C 500.25 97.18 499.57 98.08 498.86 98.95 C 498.45 98.85 497.63 98.64 497.22 98.54 C 496.75 98.37 495.80 98.02 495.32 97.85 C 494.52 96.39 493.52 95.06 492.53 93.74 L 492.94 93.57 C 493.63 93.29 495.00 92.75 495.69 92.48 C 495.79 92.20 496.00 91.64 496.11 91.36 Z" />
<path fill="#121115" opacity="1.00" d=" M 512.89 90.92 C 513.38 91.19 514.35 91.74 514.84 92.01 C 514.33 91.94 513.33 91.81 512.82 91.74 L 512.89 90.92 Z" />
<path fill="#ededed" opacity="1.00" d=" M 518.08 91.13 C 519.49 91.04 520.90 90.95 522.32 90.86 C 522.52 92.33 522.72 93.80 522.94 95.27 C 518.91 95.88 515.05 97.21 511.30 98.77 C 506.84 99.70 502.57 101.28 498.21 102.59 C 497.95 102.96 497.41 103.69 497.14 104.06 C 494.74 104.46 492.37 105.13 490.27 106.40 C 489.85 106.44 489.02 106.53 488.61 106.58 C 488.51 105.17 488.41 103.76 488.33 102.35 C 489.55 101.64 490.77 100.92 492.00 100.20 C 492.01 100.69 492.04 101.67 492.05 102.16 C 491.92 102.84 491.67 104.20 491.54 104.87 C 493.51 104.41 495.50 103.94 497.48 103.46 C 497.06 102.96 496.24 101.97 495.83 101.47 C 496.31 100.50 496.77 99.52 497.22 98.54 C 497.63 98.64 498.45 98.85 498.86 98.95 C 499.57 98.08 500.25 97.18 500.97 96.30 C 504.20 94.65 507.76 93.84 511.20 92.76 C 511.55 93.10 512.25 93.78 512.60 94.13 C 512.65 93.53 512.77 92.34 512.82 91.74 C 513.33 91.81 514.33 91.94 514.84 92.01 C 515.88 92.41 516.93 92.82 517.98 93.23 C 518.00 92.70 518.05 91.65 518.08 91.13 Z" />
<path fill="#4e5f96" opacity="1.00" d=" M 457.55 93.56 C 459.07 93.04 460.57 92.44 462.08 91.86 L 462.06 93.47 C 462.00 93.88 461.87 94.71 461.81 95.12 C 463.40 95.49 464.98 95.86 466.59 96.24 C 465.49 96.69 464.40 97.15 463.31 97.61 C 463.83 97.90 464.88 98.49 465.40 98.78 C 461.86 100.01 458.60 101.88 455.19 103.40 C 455.08 102.95 454.86 102.05 454.75 101.60 C 453.70 101.65 452.65 101.70 451.61 101.75 C 453.69 100.12 456.19 99.22 458.71 98.49 C 458.34 96.84 457.96 95.19 457.55 93.56 M 459.27 94.17 C 459.23 97.45 462.38 92.65 459.27 94.17 Z" />
<path fill="#b77353" opacity="1.00" d=" M 465.04 92.34 C 468.03 90.65 465.27 95.61 465.04 92.34 Z" />
<path fill="#d6d8d5" opacity="1.00" d=" M 469.00 91.66 C 470.38 92.45 472.29 93.05 471.91 95.06 C 471.06 95.73 470.17 96.33 469.30 96.95 C 469.21 95.18 469.08 93.42 469.00 91.66 Z" />
<path fill="#01030a" opacity="1.00" d=" M 503.20 93.09 C 505.53 92.30 507.96 91.82 510.43 92.03 L 511.20 92.76 C 507.76 93.84 504.20 94.65 500.97 96.30 C 500.58 96.01 499.81 95.43 499.43 95.14 C 500.99 95.37 502.25 94.17 503.20 93.09 Z" />
<path fill="#9ba6b6" opacity="1.00" d=" M 438.76 93.20 C 441.28 92.45 441.93 95.88 439.94 96.96 C 439.67 96.73 439.13 96.27 438.85 96.04 C 438.83 95.33 438.78 93.91 438.76 93.20 Z" />
<path fill="#b04233" opacity="1.00" d=" M 496.07 93.34 C 496.72 93.23 498.00 93.02 498.64 92.91 C 498.85 93.29 499.26 94.04 499.47 94.42 L 499.43 95.14 C 498.04 95.68 495.36 95.48 496.07 93.34 Z" />
<path fill="#ededed" opacity="1.00" d=" M 499.47 94.42 C 500.48 93.43 501.73 92.99 503.20 93.09 C 502.25 94.17 500.99 95.37 499.43 95.14 L 499.47 94.42 Z" />
<path fill="#dcddd9" opacity="1.00" d=" M 459.27 94.17 C 462.38 92.65 459.23 97.45 459.27 94.17 Z" />
<path fill="#cd2b0e" opacity="1.00" d=" M 491.87 97.30 C 491.99 96.10 492.21 94.91 492.53 93.74 C 493.52 95.06 494.52 96.39 495.32 97.85 C 494.65 99.02 494.07 100.35 494.38 101.72 C 493.80 101.83 492.63 102.05 492.05 102.16 C 492.04 101.67 492.01 100.69 492.00 100.20 L 491.91 98.45 C 491.90 98.16 491.88 97.59 491.87 97.30 Z" />
<path fill="#ced0d1" opacity="1.00" d=" M 534.52 97.88 C 534.79 96.49 536.00 95.61 536.89 94.62 C 537.70 96.38 537.98 98.29 538.07 100.21 C 536.57 100.03 535.19 99.28 534.52 97.88 Z" />
<path fill="#98a2b2" opacity="1.00" d=" M 442.31 96.40 C 443.53 94.87 445.96 97.17 444.37 98.39 C 442.97 100.01 440.64 97.83 442.31 96.40 Z" />
<path fill="#d6d8d5" opacity="1.00" d=" M 472.18 98.77 C 472.76 97.63 473.37 96.49 474.00 95.36 C 475.14 95.98 475.89 96.85 476.27 97.96 C 475.12 98.93 473.55 98.71 472.18 98.77 Z" />
<path fill="#95969e" opacity="1.00" d=" M 511.30 98.77 C 515.05 97.21 518.91 95.88 522.94 95.27 C 523.17 97.23 523.40 99.20 523.61 101.16 C 520.48 101.99 517.35 102.81 514.26 103.79 C 514.29 103.17 514.33 101.92 514.35 101.30 C 517.25 100.11 520.24 98.97 522.67 96.92 C 518.80 97.17 515.23 99.63 511.30 98.77 Z" />
<path fill="#ffffff" opacity="1.00" d=" M 487.76 98.74 C 489.06 98.11 490.42 97.54 491.87 97.30 C 491.88 97.59 491.90 98.16 491.91 98.45 C 491.45 99.76 486.62 100.82 487.76 98.74 Z" />
<path fill="#737687" opacity="1.00" d=" M 511.30 98.77 C 515.23 99.63 518.80 97.17 522.67 96.92 C 520.24 98.97 517.25 100.11 514.35 101.30 C 514.33 101.92 514.29 103.17 514.26 103.79 C 517.35 102.81 520.48 101.99 523.61 101.16 L 524.04 101.05 C 524.04 101.78 524.04 103.24 524.05 103.97 C 520.41 105.06 516.76 106.10 513.13 107.20 C 512.77 104.77 512.41 102.34 512.03 99.92 C 507.64 101.33 503.24 102.68 498.84 104.05 C 498.99 106.40 499.25 108.82 500.72 110.76 C 497.08 112.06 493.32 112.99 489.63 114.11 C 489.50 111.76 489.37 109.42 489.24 107.07 C 489.88 107.19 491.15 107.42 491.79 107.53 C 491.41 107.25 490.65 106.68 490.27 106.40 C 492.37 105.13 494.74 104.46 497.14 104.06 C 497.41 103.69 497.95 102.96 498.21 102.59 C 502.57 101.28 506.84 99.70 511.30 98.77 M 493.24 107.14 C 493.29 108.29 493.33 109.44 493.38 110.59 C 494.91 110.00 496.45 109.42 498.00 108.85 C 497.96 108.08 497.88 106.55 497.84 105.79 C 496.29 106.20 494.76 106.65 493.24 107.14 M 498.26 110.33 C 498.78 110.85 498.78 110.85 498.26 110.33 Z" />
<path fill="#982b28" opacity="1.00" d=" M 495.32 97.85 C 495.80 98.02 496.75 98.37 497.22 98.54 C 496.77 99.52 496.31 100.50 495.83 101.47 C 495.47 101.54 494.74 101.66 494.38 101.72 C 494.07 100.35 494.65 99.02 495.32 97.85 Z" />
<path fill="#13141d" opacity="0.58" d=" M 455.19 103.40 C 458.60 101.88 461.86 100.01 465.40 98.78 C 465.67 98.93 466.19 99.24 466.46 99.39 C 466.66 102.20 466.74 105.02 466.69 107.84 C 466.24 105.33 466.52 102.74 466.25 100.20 C 460.01 102.42 454.35 106.17 447.82 107.56 C 444.74 108.20 441.41 106.85 439.93 104.03 C 441.69 105.14 443.70 105.71 445.79 105.79 C 445.24 106.09 444.70 106.39 444.17 106.70 C 447.25 106.13 450.26 105.26 453.19 104.16 C 453.69 103.97 454.69 103.59 455.19 103.40 Z" />
<path fill="#7c78b6" opacity="1.00" d=" M 438.24 99.88 C 438.77 100.11 439.82 100.55 440.35 100.78 C 440.50 101.46 440.80 102.84 440.96 103.52 C 443.87 103.41 446.76 102.96 449.56 102.12 C 449.38 102.58 449.01 103.50 448.83 103.96 C 450.27 104.04 451.73 104.11 453.19 104.16 C 450.26 105.26 447.25 106.13 444.17 106.70 C 444.70 106.39 445.24 106.09 445.79 105.79 C 443.70 105.71 441.69 105.14 439.93 104.03 C 439.27 102.69 438.75 101.28 438.24 99.88 Z" />
<path fill="#9998be" opacity="1.00" d=" M 498.84 104.05 C 503.24 102.68 507.64 101.33 512.03 99.92 C 512.41 102.34 512.77 104.77 513.13 107.20 C 512.02 107.37 510.91 107.54 509.80 107.72 C 506.83 108.90 503.66 109.50 500.72 110.76 C 499.25 108.82 498.99 106.40 498.84 104.05 Z" />
<path fill="#95969e" opacity="1.00" d=" M 473.99 104.56 C 478.13 103.89 481.96 102.05 486.07 101.25 C 485.19 102.91 483.11 102.97 481.58 103.65 C 479.02 104.16 476.56 105.05 474.13 105.98 C 474.10 105.63 474.03 104.92 473.99 104.56 Z" />
<path fill="#46474f" opacity="1.00" d=" M 532.12 101.68 C 533.18 100.47 533.66 100.71 533.55 102.41 C 533.19 102.23 532.48 101.87 532.12 101.68 Z" />
<path fill="#549bbb" opacity="1.00" d=" M 492.05 102.16 C 492.63 102.05 493.80 101.83 494.38 101.72 C 494.74 101.66 495.47 101.54 495.83 101.47 C 496.24 101.97 497.06 102.96 497.48 103.46 C 495.50 103.94 493.51 104.41 491.54 104.87 C 491.67 104.20 491.92 102.84 492.05 102.16 Z" />
<path fill="#ced0d1" opacity="1.00" d=" M 532.12 101.68 C 532.48 101.87 533.19 102.23 533.55 102.41 C 534.07 102.72 535.11 103.34 535.63 103.65 C 535.38 106.28 532.15 105.49 530.37 106.23 C 530.93 104.71 531.51 103.19 532.12 101.68 Z" />
<path fill="#121115" opacity="1.00" d=" M 535.63 103.65 L 535.90 102.91 C 535.85 103.66 535.74 105.16 535.68 105.91 C 533.94 106.36 532.14 106.63 530.37 106.23 C 532.15 105.49 535.38 106.28 535.63 103.65 Z" />
<path fill="#9c9fa6" opacity="1.00" d=" M 493.24 107.14 C 494.76 106.65 496.29 106.20 497.84 105.79 C 497.88 106.55 497.96 108.08 498.00 108.85 C 496.45 109.42 494.91 110.00 493.38 110.59 C 493.33 109.44 493.29 108.29 493.24 107.14 Z" />
<path fill="#d6d8d5" opacity="1.00" d=" M 474.23 111.17 C 475.33 110.23 476.75 110.51 478.03 110.81 C 477.38 112.13 476.72 113.44 476.05 114.75 C 475.31 113.72 473.10 112.72 474.23 111.17 Z" />
<path fill="#b4b9c2" opacity="1.00" d=" M 498.26 110.33 C 498.78 110.85 498.78 110.85 498.26 110.33 Z" />
<path fill="#d6d8d5" opacity="1.00" d=" M 479.99 118.21 C 477.42 116.69 478.47 114.22 480.38 112.73 C 480.88 114.22 481.36 115.72 481.86 117.21 L 481.54 117.60 C 481.15 117.76 480.38 118.06 479.99 118.21 Z" />
<path fill="#827eb8" opacity="1.00" d=" M 507.76 121.62 C 516.02 119.43 524.27 117.21 532.39 114.53 L 531.99 115.91 C 525.19 119.51 517.63 121.39 510.04 122.35 C 509.47 122.17 508.33 121.80 507.76 121.62 Z" />
<path fill="#d6d8d5" opacity="1.00" d=" M 471.08 115.92 C 472.07 116.43 474.35 116.37 474.09 118.02 C 473.46 118.96 473.11 121.25 471.57 120.49 C 471.28 118.98 471.19 117.44 471.08 115.92 Z" />
<path fill="#838484" opacity="1.00" d=" M 491.32 116.97 C 491.68 115.75 492.53 115.51 493.86 116.26 C 493.48 117.49 492.64 117.73 491.32 116.97 Z" />
<path fill="#ded27e" opacity="1.00" d=" M 504.65 119.15 C 504.12 116.77 507.62 114.51 508.91 117.15 C 508.35 119.15 506.28 118.93 504.65 119.15 Z" />
<path fill="#585396" opacity="1.00" d=" M 481.86 117.21 L 483.17 117.54 C 486.42 118.12 489.73 118.09 493.02 117.93 C 490.53 118.79 489.96 121.24 489.54 123.55 C 488.04 124.14 486.55 124.72 485.06 125.31 C 486.50 125.73 487.95 126.18 489.42 126.55 C 486.29 127.18 483.13 127.66 479.95 127.82 C 478.22 127.30 476.58 126.55 474.97 125.77 C 476.24 125.05 477.53 124.35 478.80 123.59 L 478.68 122.42 C 478.66 122.15 478.60 121.61 478.57 121.34 C 479.55 120.08 480.58 118.88 481.54 117.60 L 481.86 117.21 Z" />
<path fill="#c4c5c7" opacity="1.00" d=" M 498.23 117.87 C 499.16 117.69 501.69 118.18 500.72 119.57 C 499.60 120.34 498.38 120.52 497.08 120.10 C 497.37 119.54 497.94 118.42 498.23 117.87 Z" />
<path fill="#ededed" opacity="1.00" d=" M 476.10 119.46 C 476.93 120.07 477.75 120.70 478.57 121.34 C 478.60 121.61 478.66 122.15 478.68 122.42 C 477.33 122.69 475.98 122.97 474.64 123.25 C 475.12 121.99 475.60 120.72 476.10 119.46 Z" />
<path fill="#d6d8d5" opacity="1.00" d=" M 490.21 122.04 C 491.12 120.60 492.96 119.39 494.66 120.38 C 494.67 122.59 491.56 121.80 490.21 122.04 Z" />
<path fill="#7c78b6" opacity="1.00" d=" M 489.42 126.55 C 491.77 126.17 494.13 125.86 496.50 125.53 C 490.70 128.68 484.38 130.67 477.89 131.79 C 478.13 130.25 478.58 128.74 479.95 127.82 C 483.13 127.66 486.29 127.18 489.42 126.55 Z" />
<path fill="#d6d8d5" opacity="1.00" d=" M 495.04 129.33 C 497.46 127.66 500.21 126.57 503.12 126.12 C 500.35 126.99 497.66 128.10 495.04 129.33 Z" />
<path fill="#686a6e" opacity="0.96" d=" M 478.47 133.62 C 482.01 132.09 485.76 130.70 489.70 131.37 C 486.03 132.35 482.36 134.30 478.47 133.62 Z" />
<path fill="#ffffff" opacity="1.00" d=" M 17.14 292.48 C 19.89 292.50 22.63 292.50 25.37 292.50 C 26.15 301.36 26.04 310.31 27.39 319.10 C 27.25 310.20 28.70 301.35 29.52 292.50 C 32.43 292.49 35.34 292.49 38.25 292.52 C 39.01 301.47 39.15 310.50 40.37 319.40 C 40.68 310.41 41.55 301.45 42.50 292.50 C 45.25 292.50 47.99 292.50 50.74 292.48 C 49.50 305.66 48.20 318.83 46.95 332.00 C 43.42 332.00 39.90 332.01 36.37 331.97 C 35.30 325.27 34.87 318.48 33.59 311.83 C 33.15 318.55 32.07 325.20 31.49 331.91 C 27.98 332.05 24.46 332.00 20.94 332.00 C 19.70 318.82 18.37 305.65 17.14 292.48 Z" />
<path fill="#ffffff" opacity="1.00" d=" M 57.39 292.51 C 62.38 290.14 69.46 292.35 70.91 298.04 C 72.19 303.92 71.40 310.02 71.63 315.99 C 71.42 320.68 72.35 326.19 68.94 330.01 C 64.23 335.22 53.93 333.16 52.55 325.92 C 51.52 318.69 52.16 311.33 52.03 304.05 C 51.86 299.70 52.97 294.44 57.39 292.51 M 60.60 300.00 C 60.57 308.78 60.11 317.62 60.89 326.37 C 61.37 326.19 62.32 325.82 62.80 325.63 C 63.46 317.11 63.08 308.49 63.02 299.95 C 62.73 299.41 62.16 298.35 61.87 297.82 C 61.55 298.37 60.91 299.45 60.60 300.00 Z" />
<path fill="#ffff00" opacity="1.00" d=" M 168.73 295.77 C 172.48 289.69 183.27 290.30 185.99 297.04 C 187.32 301.09 186.95 305.44 186.97 309.64 C 184.15 309.62 181.32 309.62 178.49 309.62 C 178.41 306.04 178.77 302.42 178.20 298.88 C 176.78 297.31 175.02 299.39 175.56 301.02 C 175.67 309.29 175.00 317.66 175.93 325.88 C 176.45 325.91 177.47 325.97 177.99 326.01 C 178.87 322.80 178.40 319.43 178.48 316.14 C 181.32 316.12 184.17 316.12 187.02 316.12 C 186.83 320.21 187.42 324.68 185.41 328.43 C 181.78 334.83 170.27 334.39 167.92 327.14 C 166.35 320.91 167.23 314.41 166.99 308.07 C 167.15 303.96 166.44 299.43 168.73 295.77 Z" />
<path fill="#ffff00" opacity="1.00" d=" M 195.40 292.50 C 199.47 290.71 205.00 291.52 207.62 295.36 C 209.60 298.15 209.53 301.70 209.61 304.96 C 209.64 309.95 209.64 314.95 209.61 319.94 C 209.50 322.95 209.57 326.21 207.83 328.82 C 204.37 334.43 194.70 334.27 191.56 328.42 C 189.89 325.57 190.13 322.13 190.00 318.96 C 190.07 312.94 189.81 306.91 190.20 300.90 C 190.35 297.47 192.16 293.94 195.40 292.50 M 198.87 298.83 C 198.14 302.50 198.62 306.27 198.50 309.98 C 198.63 315.45 198.14 320.95 198.89 326.38 C 199.37 326.19 200.32 325.81 200.80 325.61 C 201.37 316.71 201.26 307.69 200.86 298.78 L 199.80 298.28 L 198.87 298.83 Z" />
<path fill="#ffff00" opacity="1.00" d=" M 212.74 292.52 C 215.58 292.48 218.42 292.48 221.27 292.53 C 221.22 303.05 221.28 313.57 221.24 324.09 C 222.93 324.10 224.63 324.10 226.33 324.10 C 226.39 326.74 226.39 329.38 226.34 332.02 C 221.81 331.98 217.28 332.00 212.75 332.00 C 212.74 318.84 212.76 305.68 212.74 292.52 Z" />
<path fill="#ffff00" opacity="1.00" d=" M 233.43 292.49 C 238.43 290.15 245.49 292.38 246.92 298.07 C 248.16 303.63 247.41 309.41 247.63 315.06 C 247.44 319.42 248.16 324.11 246.22 328.18 C 243.23 334.16 233.56 334.52 229.93 329.02 C 227.73 325.79 228.13 321.69 228.00 317.98 C 228.07 312.32 227.82 306.64 228.19 300.99 C 228.32 297.52 230.15 293.93 233.43 292.49 M 236.50 302.06 C 236.68 310.16 236.08 318.29 236.87 326.35 C 237.35 326.17 238.31 325.82 238.79 325.64 C 239.38 316.76 239.26 307.75 238.86 298.86 C 236.71 296.85 236.35 300.68 236.50 302.06 Z" />
<path fill="#ffffff" opacity="1.00" d=" M 74.75 292.50 C 77.10 292.49 79.44 292.49 81.79 292.53 C 83.28 298.11 84.62 303.74 86.34 309.26 C 86.69 303.68 86.40 298.08 86.50 292.50 C 88.87 292.50 91.24 292.49 93.61 292.49 C 93.65 305.65 93.59 318.81 93.64 331.98 C 91.17 332.00 88.70 332.00 86.22 331.99 C 84.96 326.34 83.34 320.78 82.32 315.09 C 82.09 314.89 81.65 314.49 81.43 314.29 C 82.24 320.16 81.74 326.10 81.88 332.00 C 79.50 332.00 77.12 332.00 74.75 332.00 C 74.75 318.83 74.75 305.66 74.75 292.50 Z" />
<path fill="#ffffff" opacity="1.00" d=" M 97.24 292.51 C 102.37 292.66 107.68 291.94 112.66 293.45 C 115.99 294.76 116.91 298.64 116.82 301.87 C 116.87 309.61 117.00 317.37 116.75 325.11 C 116.84 327.99 115.28 331.24 112.16 331.68 C 107.22 332.34 102.21 331.86 97.25 331.99 C 97.25 318.83 97.26 305.67 97.24 292.51 M 105.83 298.89 C 105.66 307.77 105.74 316.65 105.79 325.54 C 109.12 325.18 108.21 321.38 108.40 319.03 C 108.17 312.68 108.80 306.27 108.05 299.96 C 107.50 299.69 106.39 299.16 105.83 298.89 Z" />
<path fill="#ffffff" opacity="1.00" d=" M 120.24 331.98 C 120.31 318.81 120.16 305.63 120.31 292.46 C 125.00 292.53 129.69 292.48 134.38 292.50 C 134.38 295.12 134.38 297.75 134.38 300.37 C 132.49 300.37 130.62 300.37 128.74 300.38 C 128.74 302.88 128.75 305.39 128.78 307.90 C 130.51 307.88 132.26 307.87 134.00 307.87 C 134.00 310.37 134.00 312.87 134.00 315.37 C 132.25 315.37 130.50 315.37 128.75 315.38 C 128.75 318.29 128.75 321.21 128.75 324.12 C 130.83 324.12 132.91 324.12 135.00 324.12 C 135.00 326.74 135.00 329.37 135.00 332.00 C 130.08 331.99 125.16 332.02 120.24 331.98 Z" />
<path fill="#ffffff" opacity="1.00" d=" M 137.24 331.98 C 137.30 318.81 137.18 305.64 137.30 292.47 C 142.15 292.66 147.10 292.07 151.87 293.21 C 155.62 294.83 156.14 299.47 156.15 303.05 C 156.26 306.30 156.02 310.84 151.92 311.39 C 153.85 312.19 155.70 313.63 155.92 315.86 C 156.37 321.23 156.01 326.62 156.12 332.00 C 153.50 332.00 150.87 332.00 148.24 331.99 C 148.10 326.26 148.61 320.49 147.93 314.79 C 147.39 314.57 146.32 314.14 145.78 313.92 C 145.72 319.94 145.76 325.97 145.75 331.99 C 142.91 332.00 140.08 332.00 137.24 331.98 M 145.77 299.06 C 145.73 302.14 145.71 305.23 145.83 308.31 C 147.51 308.10 148.46 306.72 148.26 305.06 C 148.27 302.75 148.92 299.31 145.77 299.06 Z" />
<path fill="#ffff00" opacity="1.00" d=" M 250.75 292.50 C 255.51 292.60 260.36 292.14 265.06 293.12 C 269.05 294.51 269.65 299.38 269.65 303.04 C 269.72 306.27 269.56 310.97 265.34 311.34 C 267.38 312.14 269.29 313.72 269.45 316.07 C 269.85 321.35 269.50 326.66 269.65 331.96 C 267.02 332.00 264.38 332.00 261.75 332.00 C 261.50 326.27 262.27 320.44 261.31 314.78 C 260.81 314.54 259.82 314.06 259.32 313.82 C 259.18 319.87 259.28 325.94 259.25 332.00 C 256.41 332.00 253.58 332.00 250.75 332.00 C 250.75 318.83 250.75 305.67 250.75 292.50 M 259.36 298.88 C 259.21 301.95 259.24 305.03 259.25 308.11 C 259.80 307.97 260.91 307.69 261.46 307.55 C 261.48 304.66 263.19 299.95 259.36 298.88 Z" />
</svg>
